<?xml version="1.0" encoding="UTF-8"?>
<svg xmlns="http://www.w3.org/2000/svg" xmlns:xlink="http://www.w3.org/1999/xlink" contentScriptType="text/ecmascript" width="44" baseProfile="tiny" zoomAndPan="magnify" contentStyleType="text/css" viewBox="-1.479 0.993 44 32" height="32" preserveAspectRatio="xMidYMid meet" version="1.1">
    <g>
        <path fill="#656b6b" d="M 40.021 1.139 L 40.021 8.303 C 40.021 19.889 31.146 30.139 19.173 30.139 C 19.069 30.139 11.177 30.139 -1.9790001 30.139 L -1.9790001 1.1389999 L 40.021 1.1389999 z " fill-opacity="0.01"/>
        <path fill="#656b6b" d="M 39.021 1.139 L 39.021 8.303 C 39.021 19.754002 30.146 29.139 19.123 29.139 C 18.616999 29.139 10.811999 29.139 -1.9790001 29.139 L -1.9790001 1.1389999 L 39.021 1.1389999 z " fill-opacity="0.02"/>
        <path fill="#656b6b" d="M 38.021 1.139 L 38.021 8.303 C 38.021 19.088001 29.771 28.139 19.072 28.139 C 18.984001 28.139 11.1310005 28.139 -1.9790001 28.139 L -1.9790001 1.1389999 L 38.021 1.1389999 z " fill-opacity="0.03"/>
        <path fill="#656b6b" d="M 37.021 1.139 L 37.021 8.303 C 37.021 18.242 29.521 27.143002 18.896 27.139 C 18.796 27.139 11.0130005 27.139 -1.9790001 27.139 L -1.9790001 1.1389999 L 37.021 1.1389999 z " fill-opacity="0.06"/>
        <path fill="#656b6b" d="M 36.019 1.139 L 36.019 8.303 C 36.019 17.742 28.646 26.139 18.896002 26.139 L -1.979 26.139 L -1.979 1.1389999 L 36.019 1.1389999 z " fill-opacity="0.05"/>
        <path fill="#656b6b" d="M 35.02 1.139 L 35.02 7.24 C 35.021 16.957 28.521 25.14 17.942001 25.138 L -1.979 25.138 L -1.979 1.1380005 L 35.02 1.1380005 z " fill-opacity="0.1"/>
        <path fill="#656b6b" d="M 34.02 1.139 L 34.02 6.174 C 34.021 15.76 28.896 24.139 16.914 24.139 C 16.836 24.139 9.83 24.139 -1.9790001 24.139 L -1.9790001 1.1389999 L 34.02 1.1389999 z " fill-opacity="0.1"/>
        <path fill="#656b6b" d="M 33.02 1.139 L 33.02 5.118 C 33.021 14.561 29.146 23.139 15.896 23.139 L -1.979 23.139 L -1.979 1.1389999 L 33.02 1.1389999 z " fill-opacity="0.1"/>
        <path fill="#52a1a4" d="M 35.521 1.139 L 35.521 3.7270002 C 35.521 13.7 27.886 21.639 18.464 21.639 L -1.979 21.639 L -1.979 1.1389999 L 35.521 1.1389999 z "/>
        <path fill="#52a1a4" d="M 18.464 21.139 C 27.596 21.139 35.021 13.328 35.021 3.7269993 L 35.021 1.139 L 36.018 1.139 L 36.018 3.7270002 C 36.018 13.877 28.144001 22.139 18.464 22.139 L -1.979 22.139 L -1.979 21.139 L 18.464 21.139 z "/>
        <rect x="-1.979" width="44" fill="none" y="1.139" height="32"/>
    </g>
</svg>
