<?xml version="1.0" encoding="UTF-8"?>
<svg xmlns="http://www.w3.org/2000/svg" xmlns:xlink="http://www.w3.org/1999/xlink" contentScriptType="text/ecmascript" width="332" baseProfile="tiny" zoomAndPan="magnify" contentStyleType="text/css" viewBox="-0.604 -0.193 332 82" height="82" preserveAspectRatio="xMidYMid meet" version="1.1">
    <g>
        <path fill="#656b6b" d="M 308.396 0.806 L 298.771 0.806 L 288.779 10.816 L 24.507 10.816 C 19.139 10.81 14.092 12.894 10.293 16.689 C 6.491 20.486 4.3970003 25.539 4.3970003 30.916 L 4.3970003 58.692 C 4.3970003 70.887 14.315001 80.807 26.503002 80.807 L 308.391 80.805 C 309.86 80.729004 310.258 80.709 310.422 80.686 C 310.387 80.694 310.345 80.703995 310.345 80.703995 C 310.376 80.7 310.406 80.687996 310.437 80.686 C 310.458 80.682 310.47302 80.67799 310.49002 80.673996 C 320.708 79.561 328.398 71.004 328.398 60.691994 L 328.398 30.917 C 328.398 19.863998 319.43402 10.875999 308.398 10.816999 C 308.396 9.151 308.396 0.807 308.396 0.806 L 308.396 0.806 z " fill-opacity="0.01"/>
        <path fill="#656b6b" d="M 307.396 1.806 L 299.146 1.806 L 289.193 11.816 L 24.508 11.816 C 19.405998 11.81 14.610999 13.792 11.002 17.396 C 7.3879995 21.006 5.398 25.807 5.398 30.916 L 5.398 58.692 C 5.398 70.335 14.867 79.807 26.502998 79.807 L 308.34 79.805 C 308.34 79.805 310.242 79.709 310.244 79.707 C 320.02 78.711 327.395 70.537 327.395 60.689003 L 327.395 30.916 C 327.395 20.379002 318.82498 11.805 308.28998 11.805 C 308.28998 11.805 307.84097 11.805 307.395 11.805 C 307.396 10.125 307.396 1.807 307.396 1.806 L 307.396 1.806 z " fill-opacity="0.03"/>
        <path fill="#656b6b" d="M 299.646 2.807 L 289.607 12.816 L 24.505 12.816 C 19.671999 12.81 15.126999 14.687 11.706999 18.103 C 8.282999 21.523 6.395999 26.074001 6.395999 30.916 L 6.395999 58.691 C 6.395999 69.784004 15.415999 78.806 26.501 78.806 L 308.29 78.806 C 308.29 78.806 310.138 78.711 310.143 78.711 C 319.411 77.769 326.398 70.020996 326.398 60.69 L 326.398 30.916 C 326.398 20.93 318.27502 12.805 308.293 12.805 C 308.293 12.805 307.255 12.805 306.398 12.805 C 306.398 11.125 306.398 2.8070002 306.398 2.8070002 L 299.646 2.8070002 z " fill-opacity="0.05"/>
        <path fill="#656b6b" d="M 7.398 30.916 L 7.398 58.69 C 7.398 69.231 15.967999 77.805 26.502998 77.805 L 308.29 77.805 C 308.881 77.805 309.465 77.772 310.04102 77.717 C 318.66602 76.838005 325.39502 69.549 325.39502 60.690002 L 325.39502 30.915 C 325.39502 21.464 317.73602 13.804001 308.29 13.804001 L 305.39502 13.804001 L 305.39502 3.806 L 300.02002 3.806 L 290.019 13.816 L 24.504 13.816 C 15.055 13.805 7.396 21.465 7.398 30.916 z " fill-opacity="0.07"/>
        <path fill="#656b6b" d="M 8.398 30.916 L 8.398 58.691 C 8.398 68.679 16.521 76.806 26.502998 76.806 L 307.29 76.806 C 307.881 76.806 308.465 76.773 309.04102 76.717 C 317.66602 75.838005 324.39502 68.549 324.39502 59.691 L 324.39502 30.916 C 324.39502 21.465 316.73602 13.805 307.29 13.805 L 305.39502 13.805 L 305.39502 4.807 L 300.39502 4.807 L 290.394 14.807 L 25.504 14.807 C 16.055 14.795 8.396 21.465 8.398 30.916 z " fill-opacity="0.11"/>
        <path fill="#5f9ea0" d="M 9.398 30.906 L 9.398 58.691 C 9.398 68.142 17.055 75.806 26.502998 75.806 L 308.29 75.806 C 317.73602 75.806 325.39502 68.142 325.39502 58.691 L 325.39502 30.906 C 325.39502 21.455 317.73602 13.795 308.29 13.795 L 305.39502 13.795 L 305.39502 1.807 L 303.39502 1.807 L 291.39502 13.807 L 26.504 13.807 C 17.055 13.795 9.396 21.455 9.398 30.906 z " fill-opacity="0.7"/>
    </g>
</svg>
