<?xml version="1.0" encoding="UTF-8"?>
<svg xmlns="http://www.w3.org/2000/svg" xmlns:xlink="http://www.w3.org/1999/xlink" contentScriptType="text/ecmascript" width="24" baseProfile="tiny" zoomAndPan="magnify" contentStyleType="text/css" viewBox="0 0 24 26" height="26" preserveAspectRatio="xMidYMid meet" version="1.0">
    <path fill="#496da2" d="M 16.063 17.717 L 12.632 13.855999 L 14.418 12.191999 L 17.957 15.839999 C 17.873 16.412 16.959 17.654 16.063 17.717 z "/>
    <linearGradient x1="12.38" y1="6.73" x2="5.86" gradientUnits="userSpaceOnUse" y2="9.5" xlink:type="simple" xlink:actuate="onLoad" id="_3" xlink:show="other">
        <stop stop-color="#a2c2dd" offset="0"/>
        <stop stop-color="#ffffff" offset="1"/>
    </linearGradient>
    <path fill="url(#_3)" d="M 8.997 2.841 C 11.872 3.0110002 14.656 5.613 15.059999 8.2630005 C 15.462999 10.911 13.457 12.923 10.580999 12.751 C 7.7059994 12.582001 5.0469995 10.292 4.642999 7.6440005 C 4.238 4.992 6.117 2.67 8.997 2.841 z " fill-opacity="0.51"/>
    <linearGradient x1="10.54" y1="7.26" x2="11.8" gradientUnits="userSpaceOnUse" y2="5.7" xlink:type="simple" xlink:actuate="onLoad" id="_4" xlink:show="other">
        <stop stop-color="#a2c2dd" offset="0"/>
        <stop stop-color="#ffffff" offset="1"/>
    </linearGradient>
    <path fill="url(#_4)" d="M 7.662 3.521 C 11.246 2.7089999 15.517 6.666 13.35 11.084 C 13.933 7.855 10.725 3.937 7.662 3.521 z " fill-opacity="0.8"/>
    <path fill="#496da2" d="M 8.682 1.75 C 10.911 1.563 14.868 3.83 15.578 7.084 C 16.515 11.375 14.083 14.607 10.728001 14.703 C 6.2620006 14.828 3.4350004 11.607 3.1240005 8.37 C 2.808 5.054 5.518 2.015 8.682 1.75 z M 4.643 7.584 C 5.0480003 10.232 7.7060003 12.519 10.581 12.689 C 13.458 12.863 15.464001 10.851 15.059 8.203 C 14.656 5.5550003 11.934999 2.67 9.059 2.5 C 6.181 2.328 4.238 4.931 4.643 7.584 z "/>
    <path fill="#87a8cb" d="M 17.027 14.301 L 22.501 19.432 C 22.751 21.036 20.883 22.294998 19.397999 22.050999 L 14.379999 16.387 L 14.576999 16.054998 C 15.521998 15.872998 16.668999 15.216998 16.617998 14.425999 L 17.027 14.301 z "/>
    <path fill="#cadcec" d="M 14.382 16.391 L 14.417 15.871 C 15.499 15.81 16.339 15.017 16.464 14.295 L 17.027 14.301 C 17.021 15.72 15.268 16.658 14.382 16.391 z "/>
    <path fill="#496da2" d="M 14.39 15.82 L 14.382 16.39 C 14.971 16.567999 15.835 16.157999 15.908 16.077 L 15.652 15.436 C 15.371 15.613 14.824 15.869 14.39 15.82 z "/>
    <path fill="#235487" d="M 14.381 16.387 L 19.418 22.078 C 20.091 22.067999 20.758999 21.959 21.109 21.714998 L 15.907999 16.078 C 15.412 16.336 14.791 16.451 14.381 16.387 z "/>
    <path fill="#496da2" d="M 19.398 22.076 C 22.103 22.798 23.177 21.271 22.5 19.43 C 22.432 21.615 20.377 22.076 19.398 22.076 z "/>
    <path fill="#235487" d="M 15.652 15.439 L 13.402 13.125 C 12.885 13.437 12.886001 14.154 12.886001 14.154 L 14.39 15.84 C 14.844 15.873 15.527 15.525 15.652 15.439 z "/>
    <path fill="#235487" d="M 10.35 13.23 C 11.788 13.207 13.096001 13.059 14.038 12.084 C 16.178 9.875 15.874001 6.4249997 13.353 3.9799995 C 10.832 1.5349996 7.6889997 1.3379996 5.5369997 3.5409994 C 3.7669997 5.3549995 3.4539998 8.890999 5.975 11.334 C 7.293 12.613 8.638 13.256 10.35 13.23 z M 10.339 12.966 C 8.888 12.99 7.408 12.375 6.277 11.276999 C 4.152 9.217 3.852 6.063 5.609 4.25 C 7.3690004 2.435 10.531 2.637 12.656 4.699 C 14.783 6.7609997 15.082001 9.915 13.3220005 11.728 C 12.568 12.508 11.507 12.949 10.339 12.966 z "/>
    <path fill="#87a8cb" d="M 5.945 11.675 C 7.267 12.957 9.005 13.675 10.716 13.649 C 12.151999 13.627 13.464 13.078 14.403999 12.106 C 16.546999 9.896999 16.237999 6.114 13.716 3.665 C 11.195 1.217 7.4019995 1.026 5.257 3.235 C 3.115 5.445 3.426 9.232 5.945 11.675 z M 5.975 3.934 C 7.737 2.117 10.896999 2.319 13.021999 4.383 C 15.148999 6.443 15.448 9.597 13.69 11.41 C 12.933 12.189 11.874 12.628 10.7039995 12.648 C 9.254999 12.672 7.7759995 12.059 6.6449995 10.959 C 4.518 8.898 4.219 5.744 5.975 3.934 z "/>
    <path fill="#235487" d="M 5.367 19.648 L 8.623 22.904001 L 9.527 21.998001 C 9.527 21.998001 7.8160005 20.285002 7.1780005 19.648 C 7.8160005 19.01 9.527 17.298 9.527 17.298 L 8.623 16.394001 L 5.367 19.648 z "/>
    <path fill="#235487" d="M 8.766 19.648 L 12.0199995 22.904001 L 12.924999 21.998001 C 12.924999 21.998001 11.212999 20.285002 10.575999 19.648 C 11.212999 19.01 12.924999 17.298 12.924999 17.298 L 12.0199995 16.394001 L 8.766 19.648 z "/>
</svg>
