<?xml version="1.0" encoding="UTF-8"?>
<svg xmlns="http://www.w3.org/2000/svg" xmlns:xlink="http://www.w3.org/1999/xlink" contentScriptType="text/ecmascript" width="44" baseProfile="tiny" zoomAndPan="magnify" contentStyleType="text/css" viewBox="-1.979 1.139 44 32" height="32" preserveAspectRatio="xMidYMid meet" version="1.1">
    <g>
        <path fill="#656b6b" d="M 40.021 1.139 L 40.021 6.639 L 39.998 7.604 C 39.674 22.098 31.769001 31.481 19.363 32.086 L 18.431002 32.139 L -1.9789982 32.139 L -1.9789982 1.1389999 L 40.021 1.1389999 z " fill-opacity="0.01"/>
        <path fill="#656b6b" d="M 39.021 1.139 L 39.021 6.639 L 38.998 7.577 C 38.687 21.5 31.145 30.51 19.314 31.088 L 18.383999 31.139 L -1.979 31.139 L -1.979 1.1389999 L 39.021 1.1389999 z " fill-opacity="0.02"/>
        <path fill="#656b6b" d="M 38.021 1.139 L 38.021 6.639 L 37.998 7.553 C 37.701 20.903 30.522001 29.539 19.266 30.088 L 18.338001 30.139 L -1.979 30.139 L -1.979 1.1389999 L 38.021 1.1389999 z " fill-opacity="0.03"/>
        <path fill="#656b6b" d="M 37.021 1.139 L 37.021 6.639 L 36.998 7.5299997 C 36.712 20.305 29.9 28.568 19.216 29.092 L 18.292 29.14 L -1.979 29.14 L -1.979 1.1399994 L 37.021 1.139 L 37.021 1.139 z " fill-opacity="0.05"/>
        <path fill="#656b6b" d="M 36.021 1.139 L 36.021 6.639 L 36.0 7.5 C 35.729 19.705 29.278 27.598 19.168 28.091 L 18.248 28.139 L -1.979 28.139 L -1.979 1.1389999 L 36.021 1.1389999 z " fill-opacity="0.06"/>
        <path fill="#656b6b" d="M 35.021 1.139 L 35.021 6.639 L 35.0 7.474 C 34.74 19.109001 28.655 26.626 19.119 27.091 L 18.203 27.138 L -1.979 27.138 L -1.979 1.1380005 L 35.021 1.1380005 z " fill-opacity="0.1"/>
        <path fill="#656b6b" d="M 34.021 1.139 L 34.021 6.639 L 34.0 7.449 C 33.754 18.512 28.033 25.656 19.07 26.095 L 18.157999 26.14 L -1.979 26.14 L -1.979 1.1399994 L 34.021 1.139 L 34.021 1.139 z " fill-opacity="0.1"/>
        <path fill="#656b6b" d="M 33.021 1.139 L 33.021 6.639 C 33.021 6.907 33.005 7.1619997 33.0 7.426 C 32.787 16.965 28.334 24.641 19.021 25.094 C 18.733 25.108 18.457 25.139 18.157999 25.139 L -1.979 25.139 L -1.979 1.1389999 L 33.021 1.1389999 z " fill-opacity="0.1"/>
        <path fill="#52a1a4" d="M 36.021 1.139 L 36.021 6.639 C 36.021 16.304 28.186 24.139 18.521 24.139 L -1.9790001 24.139 L -1.9790001 1.1389999 L 36.021 1.1389999 z "/>
        <rect x="-1.979" width="44" fill="none" y="1.139" height="32"/>
    </g>
</svg>
