<?xml version="1.0" encoding="UTF-8"?>
<svg xmlns="http://www.w3.org/2000/svg" xmlns:xlink="http://www.w3.org/1999/xlink" contentScriptType="text/ecmascript" width="44" baseProfile="tiny" zoomAndPan="magnify" contentStyleType="text/css" viewBox="-1.979 1.139 44 60" height="60" preserveAspectRatio="xMidYMid meet" version="1.1">
    <g>
        <polygon fill="#656b6b" fill-opacity="0.01" points="42.021,32.139 42.021,61.139 -1.979,61.139 -1.979,1.139 4.673,1.139    39.675,32.139  "/>
        <polygon fill="#656b6b" fill-opacity="0.02" points="-1.979,61.139 -1.979,2.139 4.294,2.139 39.296,33.139 42.021,33.139    42.021,61.139  "/>
        <polygon fill="#656b6b" fill-opacity="0.03" points="-1.979,61.139 -1.979,3.139 3.916,3.139 38.917,34.139 42.021,34.139    42.021,61.139  "/>
        <polygon fill="#656b6b" fill-opacity="0.05" points="-1.979,61.139 -1.979,4.139 3.537,4.139 38.539,35.139 42.021,35.139    42.021,61.139  "/>
        <path fill="#656b6b" d="M -1.979 61.139 L -1.979 5.139 L 3.158 5.139 C 3.158 5.139 37.601 35.645 38.16 36.139 C 38.237 36.139 39.625 36.139 42.021 36.139 L 42.021 61.139 L -1.979 61.139 z " fill-opacity="0.06"/>
        <path fill="#656b6b" d="M -1.979 61.139 L -1.979 6.139 L 2.7789998 6.139 C 2.7789998 6.139 37.221 36.645 37.78 37.139 C 37.861 37.139 39.383 37.139 42.021 37.139 L 42.021 61.139 L -1.979 61.139 z " fill-opacity="0.1"/>
        <path fill="#656b6b" d="M -1.979 61.139 L -1.979 7.139 L 2.4 7.139 C 2.4 7.139 36.841003 37.645 37.4 38.139 C 37.485 38.139 39.151 38.139 42.021 38.139 L 42.021 61.139 L -1.979 61.139 z " fill-opacity="0.1"/>
        <path fill="#656b6b" d="M -1.979 61.139 L -1.979 8.139 C 0.58000004 8.139 2.021 8.139 2.021 8.139 L 37.021 39.139 C 37.723 39.139 39.464 39.139 42.021 39.139 L 42.021 61.139 L -1.979 61.139 z " fill-opacity="0.1"/>
        <polygon fill="#52a1a4" points="-1.979,61.139 -1.979,5.139 3.16,5.139 38.16,36.139 42.021,36.139 42.021,61.139  "/>
        <rect x="-1.979" width="44" fill="none" y="1.139" height="60"/>
    </g>
</svg>
