<?xml version="1.0" encoding="UTF-8"?>
<svg xmlns="http://www.w3.org/2000/svg" xmlns:xlink="http://www.w3.org/1999/xlink" contentScriptType="text/ecmascript" width="44" baseProfile="tiny" zoomAndPan="magnify" contentStyleType="text/css" viewBox="-1.479 0.993 44 32" height="32" preserveAspectRatio="xMidYMid meet" version="1.1">
    <g>
        <path fill="#656b6b" d="M 40.021 1.139 L 40.021 6.639 L 39.998 7.604 C 39.674 22.098999 31.769001 31.481 19.363 32.087997 L 18.431002 32.139996 L -1.9789982 32.139996 L -1.9789982 1.1399956 L 40.021 1.1399956 z " fill-opacity="0.01"/>
        <path fill="#656b6b" d="M 39.021 1.139 L 39.021 6.639 L 38.998 7.578 C 38.687 21.5 31.144001 30.511002 19.314001 31.088001 L 18.384 31.140001 L -1.979 31.140001 L -1.979 1.1400013 L 39.021 1.1400013 z " fill-opacity="0.02"/>
        <path fill="#656b6b" d="M 38.021 1.139 L 38.021 6.639 L 37.998 7.553 C 37.701 20.903 30.523 29.539 19.267 30.09 L 18.339 30.14 L -1.979 30.14 L -1.979 1.1399994 L 38.021 1.1399994 z " fill-opacity="0.03"/>
        <path fill="#656b6b" d="M 37.021 1.139 L 37.021 6.639 L 36.998 7.528 C 36.715 20.306 29.900002 28.568 19.216002 29.091 L 18.292002 29.14 L -1.979 29.14 L -1.979 1.1399994 L 37.021 1.1399994 z " fill-opacity="0.05"/>
        <path fill="#656b6b" d="M 36.021 1.139 L 36.021 6.639 L 36.0 7.502 C 35.729 19.707 29.277 27.598999 19.168 28.092999 L 18.248 28.14 L -1.979 28.14 L -1.979 1.1399994 L 36.021 1.1399994 z " fill-opacity="0.06"/>
        <path fill="#656b6b" d="M 35.021 1.139 L 35.021 6.639 L 35.0 7.474 C 34.74 19.108 28.654 26.626 19.119999 27.091 L 18.203999 27.138 L -1.979 27.138 L -1.979 1.1380005 L 35.021 1.139 L 35.021 1.139 z " fill-opacity="0.1"/>
        <path fill="#656b6b" d="M 34.021 1.139 L 34.021 6.639 L 34.0 7.449 C 33.754 18.513 28.033 25.656 19.07 26.095 L 18.157999 26.14 L -1.979 26.14 L -1.979 1.1399994 L 34.021 1.1399994 L 34.021 1.139 z " fill-opacity="0.1"/>
        <path fill="#656b6b" d="M 33.021 1.139 L 33.021 6.639 C 33.021 6.9049997 33.003 7.164 33.0 7.426 C 32.787 16.965 28.334 24.641 19.021 25.094 C 18.732 25.11 18.457 25.139 18.157999 25.139 L -1.979 25.139 L -1.979 1.1389999 L 33.021 1.1389999 z " fill-opacity="0.1"/>
        <path fill="#52a1a4" d="M 18.521 23.14 C 27.619 23.14 35.021 15.7369995 35.021 6.6399994 L 35.021 1.1399994 L 36.021 1.1399994 L 36.021 6.6399994 C 36.021 16.306 28.185 24.14 18.521 24.14 L -1.9790001 24.14 L -1.9790001 23.14 L 18.521 23.14 z "/>
        <path fill="#52a1a4" d="M 35.021 1.139 L 35.021 6.639 C 35.021 15.7369995 27.619 23.139 18.521 23.139 L -1.9790001 23.139 L -1.9790001 1.1389999 L 35.021 1.1389999 z "/>
        <rect x="-1.979" width="44" fill="none" y="1.139" height="32"/>
    </g>
</svg>
