<?xml version="1.0" encoding="UTF-8"?>
<svg xmlns="http://www.w3.org/2000/svg" xmlns:xlink="http://www.w3.org/1999/xlink" contentScriptType="text/ecmascript" width="17" baseProfile="tiny" zoomAndPan="magnify" contentStyleType="text/css" viewBox="0 0 17 43" height="43" preserveAspectRatio="xMidYMid meet" version="1.1">
    <rect width="17" height="43"/>
    <path fill="#ffffff" d="M 11.952 26.852 C 11.622999 25.581 11.361 23.373 11.169 20.227 C 11.169 17.93 11.136 16.192 11.068 15.015999 C 10.964 13.115999 10.749 11.685999 10.42 10.728998 C 10.014 9.539998 9.42 8.943998 8.6380005 8.943998 C 7.5910006 8.943998 6.6810007 9.564999 5.9080005 10.804998 C 5.3040004 11.773998 4.8230004 13.048998 4.4660006 14.630999 C 4.1830006 15.870998 4.0410004 16.913998 4.0410004 17.759998 C 4.0410004 18.905998 4.3450003 19.784998 4.9520006 20.398998 C 5.5580006 21.012 6.3760004 21.318998 7.4010005 21.318998 C 7.7120004 21.318998 8.027 21.271997 8.347 21.175999 C 8.666 21.079998 9.146 20.866 9.786 20.539 C 9.786 24.67 9.91 27.543 10.159 29.161999 C 10.466001 31.138998 11.097 32.545 12.055 33.380997 L 12.942 29.005997 C 12.427 28.131 12.098 27.414 11.952 26.852 z M 8.782 17.135 C 8.377 17.217001 8.033999 17.256 7.752 17.256 C 7.093 17.256 6.5319996 17.1 6.071 16.787 C 5.609 16.473001 5.38 16.029001 5.38 15.457001 C 5.38 14.926001 5.643 14.353001 6.17 13.740001 C 6.696 13.127001 7.243 12.818001 7.808 12.818001 C 8.562 12.818001 9.084 13.2560005 9.375 14.127001 C 9.591 14.768 9.7 15.709 9.7 16.949 C 9.493 16.99 9.188 17.053 8.782 17.135 z "/>
</svg>
