<?xml version="1.0" encoding="UTF-8"?>
<svg xmlns="http://www.w3.org/2000/svg" xmlns:xlink="http://www.w3.org/1999/xlink" contentScriptType="text/ecmascript" width="44" baseProfile="tiny" zoomAndPan="magnify" contentStyleType="text/css" viewBox="-1.979 1.139 44 60" height="60" preserveAspectRatio="xMidYMid meet" version="1.1">
    <g>
        <path fill="#656b6b" d="M 0.021 61.139 L 0.021 23.0 L 0.08 21.727 C 0.68 9.367999 10.067 1.4609985 24.578 1.1389999 L 42.021 1.1389999 L 42.021 61.139 L 0.021 61.139 z " fill-opacity="0.01"/>
        <path fill="#656b6b" d="M 1.021 61.139 L 1.021 23.0 L 1.0780001 21.785 C 1.65 9.994 10.664 2.451 24.599 2.139 L 42.021004 2.139 L 42.021004 61.139 L 1.021 61.139 z " fill-opacity="0.02"/>
        <path fill="#656b6b" d="M 2.021 61.139 L 2.021 23.0 L 2.076 21.847 C 2.621 10.621 11.259 3.435 24.623 3.139 L 42.021 3.139 L 42.021 61.139 L 2.021 61.139 z " fill-opacity="0.03"/>
        <path fill="#656b6b" d="M 3.021 61.139 L 3.021 23.0 L 3.073 21.906 C 3.591 11.25 11.857 4.424 24.644 4.139 L 42.021 4.139 L 42.021 61.139 L 3.021 61.139 z " fill-opacity="0.05"/>
        <path fill="#656b6b" d="M 4.021 61.139 L 4.021 23.0 L 4.071 21.969 C 4.562 11.877 12.455 5.41 24.667 5.139 L 42.021 5.139 L 42.021 61.139 L 4.021 61.139 z " fill-opacity="0.06"/>
        <path fill="#656b6b" d="M 5.021 61.139 L 5.021 23.0 L 5.069 22.027 C 5.533 12.5060005 13.049999 6.3980007 24.689001 6.137 L 42.021004 6.137 L 42.021004 61.137 L 5.021 61.139 L 5.021 61.139 z " fill-opacity="0.1"/>
        <path fill="#656b6b" d="M 6.021 61.139 L 6.021 23.0 L 6.067 22.092 C 6.5039997 13.126999 13.646999 7.3849993 24.710999 7.138999 L 42.022 7.138999 L 42.022 61.139 L 6.021 61.139 z " fill-opacity="0.1"/>
        <path fill="#656b6b" d="M 7.021 61.139 L 7.021 23.0 C 7.021 22.701 7.052 22.427 7.066 22.139 C 7.519 12.826 15.195 8.352 24.734 8.139 C 24.793 8.138 31.526 8.137 42.021 8.137 L 42.021 61.139 L 7.021 61.139 z " fill-opacity="0.1"/>
        <path fill="#52a1a4" d="M 8.021 61.139 L 8.021 22.639 C 8.021 12.974 15.855 5.139 25.521 5.139 L 42.021 5.139 L 42.021 61.139 L 8.021 61.139 z "/>
        <rect x="-1.979" width="44" fill="none" y="1.139" height="60"/>
    </g>
</svg>
