<?xml version="1.0" encoding="UTF-8"?>
<svg xmlns="http://www.w3.org/2000/svg" xmlns:xlink="http://www.w3.org/1999/xlink" contentScriptType="text/ecmascript" width="17" baseProfile="tiny" zoomAndPan="magnify" contentStyleType="text/css" viewBox="0 0 17 43" height="43" preserveAspectRatio="xMidYMid meet" version="1.0">
    <path fill="#ffffff" d="M 9.609 5.375 L 9.609 5.375 L 9.609 5.375 z " fill-opacity="0.16"/>
    <path fill="#ffffff" d="M 9.947 5.743 C 9.788 5.879 9.166 6.484 5.893 9.667 C 4.447 11.203 3.3390002 12.5859995 2.584 13.794 C 1.4280001 15.634999 0.8420001 17.386 0.8420001 18.994999 C 0.8420001 20.71 1.8290001 22.092999 3.763 23.234 C 3.065 24.157999 2.493 25.015 2.1269999 25.757 C 1.5209999 26.989 1.2129998 28.241 1.2129998 29.482 C 1.2129998 30.832 1.7129998 32.736 4.095 34.15 C 5.154 34.791 6.5109997 35.267002 8.125 35.566 C 9.246 35.775 10.432 35.879 11.646 35.879 L 12.031 35.879 C 13.161 35.879 14.154 35.117 14.448 34.025 L 15.793 28.961002 C 15.801001 28.926003 15.868 28.445002 15.868 28.445002 C 15.875 28.396002 15.884 28.367002 15.876 28.316002 L 15.829 28.013002 L 15.56 27.159002 C 15.56 27.161003 15.429001 26.889002 15.429001 26.889002 C 15.017001 26.289001 14.363001 25.901001 13.632001 25.826002 L 13.045001 25.763002 C 12.206001 25.677002 11.470001 25.546003 10.783001 25.394003 C 11.136001 24.976004 11.639001 24.349003 12.512001 23.271004 C 14.137001 21.212004 14.360001 20.145004 14.360001 19.293003 C 14.360001 17.120003 12.573001 16.050003 11.672001 15.590003 C 11.749001 15.553003 11.913001 15.476003 11.913001 15.476003 C 12.643002 15.130003 13.166001 14.449003 13.309001 13.653003 L 13.358001 13.382003 L 14.106001 7.906003 C 14.108001 7.858003 14.127001 7.655003 14.127001 7.655003 C 14.127001 7.651003 14.127001 7.647003 14.127001 7.643003 C 14.127001 6.6260033 13.6050005 5.763003 12.761001 5.335003 C 11.83 4.874 10.712 5.042 9.947 5.743 z M 9.969 5.725 C 9.984 5.713 10.0 5.699 10.018 5.689 C 10.007 5.694 9.991 5.706 9.969 5.725 z " fill-opacity="0.16"/>
    <path fill="#ffffff" d="M 10.241 6.136 C 10.24 6.136 6.241 10.025 6.241 10.025 C 4.8290005 11.526 3.7460003 12.877999 3.0080001 14.059 C 1.9030001 15.82 1.3420001 17.480999 1.3420001 18.994999 C 1.3420001 20.646 2.355 21.978998 4.438 23.074 C 4.439 23.076 4.474 23.092 4.4820004 23.095 C 3.6280003 24.175 2.9890003 25.143 2.5760002 25.980999 C 2.0040002 27.144999 1.7140002 28.324 1.7140002 29.483 C 1.7140002 30.705 2.1710002 32.427 4.3510003 33.72 C 5.36 34.331 6.6620007 34.786003 8.217 35.074 C 9.309 35.277 10.462 35.381 11.649 35.381 L 12.036 35.381 C 12.938001 35.381 13.733 34.774002 13.97 33.899002 L 15.318001 28.836002 C 15.331 28.772003 15.3810005 28.387003 15.3810005 28.387003 C 15.384001 28.366003 15.385 28.344004 15.385 28.324003 C 15.385 28.273003 15.377 28.222004 15.362 28.174004 L 15.093 27.320004 C 15.078 27.271004 15.057 27.226004 15.030001 27.185003 C 14.701 26.706003 14.176001 26.396004 13.593 26.333004 L 13.0 26.27 C 11.831 26.151001 10.805 25.965 9.939 25.727001 C 9.992001 25.639002 10.066 25.512001 10.066 25.512001 C 10.045 25.549002 9.92 25.631 9.892 25.660002 C 10.17 25.389002 10.663 24.777002 12.125 22.965002 C 13.655 21.027002 13.8619995 20.063002 13.8619995 19.302002 C 13.8619995 17.206001 11.816999 16.212002 11.1449995 15.885002 L 11.1449995 15.885002 C 11.1449995 15.885002 10.8029995 15.732002 10.5 15.596003 C 11.094 15.317002 11.6970005 15.032002 11.6970005 15.032002 C 12.283001 14.755002 12.699 14.210003 12.812 13.574002 L 12.861 13.302002 L 13.607 7.847002 C 13.596 7.916 13.63 7.61 13.63 7.61 C 13.6310005 6.8170004 13.21 6.1330004 12.533 5.7910004 C 11.775 5.407 10.854 5.545 10.241 6.136 z " fill-opacity="0.19"/>
    <path fill="#ffffff" d="M 10.588 6.497 L 6.59 10.383 C 5.208 11.852 4.1520004 13.173 3.4320002 14.323 C 2.3770003 16.004 1.8420001 17.575 1.8420001 18.994 C 1.8420001 20.442 2.7670002 21.631 4.67 22.63 C 4.699 22.644999 5.1280003 22.837 5.294 22.912998 C 5.084 23.154999 4.875 23.395998 4.875 23.395998 C 4.042 24.45 3.424 25.386 3.023 26.2 C 2.4850001 27.294 2.212 28.396 2.212 29.478 L 2.212 29.478 C 2.212 30.568 2.6269999 32.114002 4.604 33.288002 C 5.564 33.870003 6.811 34.305 8.307 34.579002 C 9.369 34.777004 10.493 34.878002 11.647 34.878002 L 12.032001 34.878002 C 12.710001 34.878002 13.305 34.421 13.481001 33.766003 L 14.827001 28.703003 L 14.877001 28.316004 L 14.608001 27.462004 C 14.362 27.106003 13.965001 26.872004 13.532001 26.825005 L 12.946 26.762005 C 11.731 26.639006 10.66 26.449005 9.758 26.194004 C 9.757 26.192003 9.471001 26.088003 9.194 25.983004 C 9.403 25.637003 9.633 25.254004 9.633 25.254004 C 9.612 25.289003 9.569 25.275003 9.5390005 25.301004 C 9.8 25.049004 10.336 24.385004 11.753 22.627005 C 13.167 20.836004 13.359 19.971004 13.359 19.301004 C 13.359 17.517004 11.527 16.627005 10.923 16.334003 C 10.92 16.333004 10.0130005 15.926003 9.302 15.607003 C 9.9210005 15.315003 11.484 14.580004 11.484 14.580004 C 11.922 14.372004 12.234 13.964004 12.3220005 13.486004 L 12.371 13.213004 L 13.113 7.778004 C 13.115 7.7750044 13.129 7.574004 13.129 7.574004 C 13.129 7.005004 12.816 6.4920044 12.309 6.2350044 C 11.738 5.949 11.048 6.053 10.588 6.497 z " fill-opacity="0.22"/>
    <path fill="#ffffff" d="M 10.936 6.856 L 6.939 10.742 C 5.59 12.177 4.558 13.466 3.8560002 14.589 C 2.8520002 16.189 2.342 17.671999 2.342 18.994999 C 2.342 20.24 3.18 21.285 4.903 22.189 C 4.909 22.191 5.581 22.495998 6.1099997 22.734 C 5.7269998 23.178999 5.2539997 23.726 5.2539997 23.726 C 4.455 24.737999 3.8589997 25.64 3.4729996 26.421 C 2.9689996 27.442 2.7139995 28.476 2.7139995 29.482 C 2.7139995 30.443 3.0859995 31.806 4.8599997 32.861 C 5.772 33.412 6.9639997 33.826 8.399 34.09 C 9.432 34.283 10.526 34.381 11.647 34.381 L 12.035 34.381 C 12.485 34.381 12.885 34.076 13.002 33.639 L 14.349 28.576 C 14.37 28.49 14.38 28.402 14.38 28.316 C 14.38 28.115 14.317 27.918 14.201 27.75 C 14.036 27.51 13.77 27.354 13.479 27.324 L 12.895 27.261 C 11.653001 27.133 10.552 26.938 9.625 26.674 C 8.992 26.5 8.652 26.348 8.462 26.24 C 8.609 25.896 8.854 25.469 9.234 24.955 L 11.366 22.31 C 12.681 20.643 12.863 19.876 12.863 19.296999 C 12.863 17.824999 11.3 17.065998 10.711 16.779 C 10.693001 16.771 8.242001 15.674 8.242001 15.674 C 8.243001 15.674 8.243001 15.674 8.243001 15.674 C 8.243001 15.674 8.213001 15.653 8.208001 15.65 C 8.320002 15.568 8.408001 15.497 8.604001 15.382999 L 11.278001 14.122999 C 11.569001 13.985 11.778001 13.711999 11.835001 13.393999 L 11.884001 13.120999 L 12.624001 7.7059994 C 12.627001 7.6839995 12.634001 7.5929995 12.634001 7.569999 C 12.634001 7.190999 12.424001 6.848999 12.085001 6.676999 C 11.703 6.491 11.242 6.561 10.936 6.856 z " fill-opacity="0.26"/>
    <path fill="#ffffff" d="M 11.283 7.216 L 10.257 8.215 L 10.257 8.215 L 7.287 11.1 C 5.9750004 12.496 4.966 13.7560005 4.2790003 14.854 C 3.3250003 16.374 2.8410003 17.768 2.8410003 18.994999 C 2.8410003 20.036999 3.5910003 20.935999 5.1340003 21.745998 C 5.1470003 21.752998 6.2180004 22.234 6.9240003 22.554998 C 6.4360003 23.119999 5.6310005 24.054998 5.6310005 24.054998 C 4.8610005 25.027998 4.2900004 25.894999 3.9190006 26.644999 C 3.4490006 27.599998 3.2120006 28.554998 3.2120006 29.482998 C 3.2120006 30.312998 3.5420005 31.499998 5.113001 32.432 C 5.974001 32.953 7.1100006 33.344997 8.487001 33.6 C 9.491001 33.788 10.553001 33.879997 11.645001 33.879997 L 12.030002 33.879997 C 12.259002 33.879997 12.458002 33.728996 12.514002 33.509 L 13.858002 28.446 C 13.895001 28.304998 13.873002 28.153 13.789001 28.036999 C 13.706001 27.915998 13.571001 27.838 13.429002 27.821 L 12.847002 27.758999 C 11.576002 27.627998 10.449002 27.425 9.493002 27.154999 C 8.050002 26.755 7.854002 26.404999 7.852002 26.4 C 7.866002 26.421999 7.893002 25.928999 8.837002 24.654999 C 8.859002 24.626 9.139002 24.282 10.983002 21.996998 C 12.207002 20.448997 12.371002 19.764997 12.371002 19.298998 C 12.371002 18.139997 11.012002 17.479998 10.500002 17.230997 C 10.493002 17.228996 8.046001 16.131996 8.046001 16.131996 C 7.6220016 15.908997 7.477001 15.775996 7.4030013 15.693996 C 7.491001 15.568996 7.722001 15.323997 8.359001 14.953997 L 11.070002 13.673997 C 11.2160015 13.604997 11.320002 13.468997 11.346002 13.309997 L 11.396002 13.035996 L 12.132002 7.6409965 C 12.135002 7.6179967 12.137002 7.5959964 12.137002 7.5729966 C 12.137002 7.3849964 12.033002 7.2129965 11.865002 7.1269965 C 11.667 7.033 11.438 7.067 11.283 7.216 z " fill-opacity="0.28"/>
    <path fill="#ffffff" d="M 10.605 8.574 L 7.634 11.46 L 7.641 11.454 C 6.361 12.816 5.371 14.05 4.7019997 15.121 C 3.7989998 16.561 3.3409996 17.865 3.3409996 18.996 C 3.3409996 19.834 4.003 20.589 5.3659997 21.306 C 5.384 21.314 6.8719997 21.986 7.74 22.375 C 7.178 23.023 6.0099998 24.381 6.0099998 24.381 C 5.277 25.311 4.724 26.147001 4.3669996 26.867 C 3.9319997 27.752 3.7119997 28.631 3.7119997 29.48 L 3.7119997 29.48 C 3.7119997 30.501 4.2699995 31.347 5.3679996 32.0 C 6.1799994 32.492 7.2609997 32.865 8.577999 33.105 C 9.550999 33.288998 10.582999 33.376 11.643999 33.376 L 12.028999 33.376 L 13.374999 28.313 L 12.791999 28.251 C 11.492999 28.118 10.335999 27.911 9.353999 27.633999 C 7.503999 27.117998 7.360999 26.616 7.360999 26.474998 C 7.360999 26.222998 7.499999 25.612999 8.431999 24.353998 C 8.417999 24.370998 10.5859995 21.680998 10.5859995 21.680998 C 11.721 20.246998 11.860999 19.654999 11.860999 19.295998 C 11.860999 18.537998 10.954999 18.008997 10.270999 17.677998 C 10.249999 17.668997 7.832999 16.585999 7.832999 16.585999 C 6.880999 16.086998 6.8309994 15.766998 6.8309994 15.707998 C 6.8309994 15.489998 7.1639996 15.062998 8.099999 14.518998 L 10.849999 13.218998 L 10.898999 12.944998 L 11.631 7.569998 L 10.605 8.574 z " fill-opacity="0.28"/>
    <path fill="#dcdcdc" d="M 9.218 28.121 C 7.6470003 27.683 6.8620005 27.137001 6.8620005 26.478 C 6.8620005 25.915 7.2520003 25.111 8.031 24.058 C 8.753 23.167 9.474 22.273 10.198 21.37 C 10.974 20.386002 11.366 19.695002 11.366 19.299 C 11.366 18.944 10.928 18.553999 10.054 18.131 C 9.241 17.776001 8.429 17.413 7.623 17.044 C 6.761 16.593 6.33 16.148 6.33 15.711 C 6.33 15.219001 6.836 14.678 7.848 14.09 C 8.272 13.844 9.124001 13.441 10.399 12.88 L 10.938 8.942 C 9.863999 9.913 8.885 10.863001 8.002 11.793 C 6.7409997 13.134 5.7799997 14.33 5.1219997 15.383 C 4.265 16.75 3.837 17.954 3.837 18.993 C 3.837 19.621 4.423 20.243 5.595 20.859 C 6.579 21.31 7.566 21.755 8.5529995 22.192 C 7.496 23.38 6.779 24.213 6.4 24.688 C 5.6870003 25.589 5.158 26.389 4.814 27.084 C 4.412 27.902 4.21 28.701 4.21 29.48 C 4.21 30.314 4.68 31.006 5.6210003 31.567999 C 6.3900003 32.034 7.405 32.381 8.667 32.614 C 9.618 32.792 10.609 32.879997 11.6449995 32.879997 L 12.743 28.754997 C 11.412 28.619 10.236 28.408 9.218 28.121 z "/>
</svg>
