<?xml version="1.0" encoding="UTF-8"?>
<svg xmlns="http://www.w3.org/2000/svg" xmlns:xlink="http://www.w3.org/1999/xlink" contentScriptType="text/ecmascript" width="17" baseProfile="tiny" zoomAndPan="magnify" contentStyleType="text/css" viewBox="0 0 17 43" height="43" preserveAspectRatio="xMidYMid meet" version="1.0">
    <path fill="#ffffff" d="M 5.841 17.18 C 4.884 17.455 4.129 18.174 3.819 19.103 L 2.7519999 22.297 L 1.901 25.58 C 1.894 25.611 1.819 26.133 1.819 26.133 C 1.819 26.139 1.819 26.144999 1.819 26.153 C 1.819 27.257 2.216 28.102 2.964 28.682 L 5.392 30.567 L 5.7580004 30.746 C 5.656 30.696001 8.389 32.436 8.389 32.436 C 9.23 32.953 10.23 33.022 11.139999 32.634003 C 12.032999 32.249004 12.684999 31.446003 12.889999 30.485003 L 13.591 27.112003 C 13.572 27.200003 14.363999 24.659004 14.363999 24.659004 C 14.374999 24.617004 14.478999 23.948004 14.478999 23.948004 C 14.482999 22.831003 14.029999 21.915005 13.238999 21.345003 L 10.749999 19.551003 L 8.575999 17.758003 C 7.813 17.123 6.789 16.906 5.841 17.18 z " fill-opacity="0.16"/>
    <path fill="#ffffff" d="M 5.979 17.66 C 5.181 17.889 4.55 18.487999 4.292 19.261 L 3.225 22.455 L 2.3839998 25.705 C 2.373 25.766 2.314 26.199 2.314 26.199 C 2.314 26.205 2.314 26.210999 2.314 26.216 C 2.314 27.104 2.655 27.809 3.27 28.286 L 5.698 30.171999 C 5.742 30.206 5.845 30.244999 5.925 30.273998 C 6.052 30.355999 8.657001 32.014 8.657001 32.014 C 9.351001 32.44 10.185 32.497 10.943001 32.174 C 11.687001 31.854 12.2300005 31.184 12.402 30.381 C 12.986 27.634 13.077001 27.207 13.097 27.049 C 13.14 26.91 13.8880005 24.508999 13.8880005 24.508999 C 13.906 24.433998 13.986 23.873999 13.986 23.873999 C 13.986 23.867998 13.986 23.860998 13.986 23.855 C 13.986 22.973999 13.597 22.215 12.95 21.751 L 10.46 19.956 L 8.261 18.143 C 7.621 17.613 6.768 17.433 5.979 17.66 z " fill-opacity="0.17"/>
    <path fill="#ffffff" d="M 6.118 18.141 C 5.478 18.325 4.973 18.802 4.768 19.419 L 3.7 22.613 L 2.869 25.83 C 2.869 25.834 2.81 26.266 2.81 26.266 C 2.81 26.272001 2.81 26.276001 2.81 26.282001 C 2.81 26.951002 3.09 27.514002 3.577 27.893002 L 6.005 29.778002 C 6.05 29.813002 6.1070004 29.813002 6.158 29.833002 C 6.528 30.110003 7.237 30.552002 8.92 31.590002 C 9.475 31.931002 10.141 31.976002 10.748 31.716002 C 11.341001 31.460001 11.775 30.924002 11.913 30.278002 C 12.533 27.365002 12.598001 27.059002 12.603 26.953001 C 12.769 26.499 12.993 25.768002 13.41 24.368 C 13.41 24.366 13.492 23.804 13.492 23.804 C 13.492 23.150002 13.179 22.534 12.658 22.159 L 10.167 20.363 L 7.942 18.53 C 7.43 18.104 6.747 17.959 6.118 18.141 z M 11.605 26.916 L 11.605 26.916 L 11.605 26.916 L 11.605 26.916 z " fill-opacity="0.19"/>
    <path fill="#ffffff" d="M 6.256 18.621 C 5.776 18.759 5.396 19.115 5.242 19.577 L 4.1740003 22.771 L 3.3540003 25.955 C 3.3540003 25.957 3.3070004 26.328 3.3070004 26.328 C 3.3070004 26.786 3.5170004 27.212 3.8850005 27.497 L 6.3130007 29.383 C 6.2760005 29.355999 6.2820005 29.300999 6.2550006 29.265999 C 6.5070004 29.508999 7.2160006 29.949999 9.184 31.161999 C 9.598 31.414999 10.096 31.449 10.5529995 31.253998 C 10.997 31.062998 11.323 30.658998 11.424999 30.173998 C 12.107999 26.969997 12.107999 26.969997 12.107999 26.915998 C 12.107999 27.048998 12.054998 27.175999 11.961999 27.269999 C 11.945999 27.287998 11.918999 27.282999 11.900999 27.294998 C 12.083999 27.065998 12.291999 26.377998 12.933999 24.224998 C 12.974999 24.085999 12.994999 23.943998 12.994999 23.801998 C 12.994999 23.320997 12.765999 22.849998 12.369999 22.564999 L 9.877998 20.767998 L 7.6279984 18.915998 C 7.239 18.596 6.727 18.485 6.256 18.621 z " fill-opacity="0.22"/>
    <path fill="#ffffff" d="M 6.394 19.102 C 6.072 19.193998 5.8190002 19.429998 5.717 19.736 L 4.648 22.93 L 3.8379998 26.08 C 3.817 26.163 3.807 26.246 3.807 26.328 C 3.807 26.626999 3.9429998 26.908998 4.191 27.101 L 6.619 28.987999 C 6.619 28.987999 6.619 28.987999 6.619 28.988998 C 6.619 28.991999 6.712 29.05 9.4470005 30.735998 C 9.718 30.901999 10.05 30.923998 10.357 30.793999 C 10.650001 30.666998 10.866 30.397999 10.935 30.07 C 10.935 30.07 11.607 26.917 11.607 26.916 C 11.607 26.919 12.454 24.081001 12.454 24.081001 C 12.576 23.672 12.422001 23.217001 12.077001 22.970001 L 9.584001 21.172 L 7.3090005 19.301 C 7.047 19.086 6.706 19.012 6.394 19.102 z " fill-opacity="0.26"/>
    <path fill="#ffffff" d="M 6.531 19.582 C 6.373 19.627 6.243 19.737001 6.191 19.894001 L 5.123 23.088001 L 4.323 26.204 C 4.274 26.396 4.34 26.586 4.498 26.707 L 6.926 28.594 C 6.928 28.596 9.709 30.311 9.709 30.311 C 9.848 30.397001 10.012 30.399 10.160999 30.334002 C 10.3099985 30.269003 10.412 30.126001 10.445 29.967001 L 11.117 26.813002 C 11.117 26.811 11.972 23.940002 11.972 23.940002 C 12.034 23.735003 11.955 23.502003 11.784 23.377003 L 9.29 21.577 L 6.99 19.685999 C 6.863 19.582 6.689 19.536 6.531 19.582 z " fill-opacity="0.28"/>
    <path fill="#dcdcdc" d="M 8.986 21.975 C 8.204 21.371 7.428 20.735 6.6610003 20.063 C 6.1940002 21.366 5.842 22.421999 5.6010003 23.23 C 5.36 24.039999 5.096 25.067999 4.8090005 26.316 C 5.9750004 27.249 6.7770004 27.874 7.2160006 28.187 C 7.8740005 28.655 8.787001 29.216 9.953001 29.875 C 10.213001 28.49 10.439001 27.426 10.632001 26.687 C 10.823001 25.947 11.111001 24.98 11.496001 23.787 C 10.346 22.977 9.508 22.373 8.986 21.975 z "/>
</svg>
