<?xml version="1.0" encoding="UTF-8"?>
<svg xmlns="http://www.w3.org/2000/svg" xmlns:xlink="http://www.w3.org/1999/xlink" contentScriptType="text/ecmascript" width="6" baseProfile="tiny" zoomAndPan="magnify" contentStyleType="text/css" viewBox="0 0 6 43" height="43" preserveAspectRatio="xMidYMid meet" version="1.0">
    <path fill="#dcdcdc" d="M 3.0 18.797 C 3.619 18.797 4.15 18.578001 4.59 18.139 C 5.03 17.699999 5.25 17.168 5.25 16.547 C 5.25 15.928 5.029 15.397001 4.59 14.957001 C 4.1510005 14.517 3.6190002 14.297001 3.0 14.297001 C 2.38 14.297001 1.85 14.518001 1.409 14.957001 C 0.97 15.396001 0.75000006 15.928 0.75000006 16.547 C 0.75000006 17.168001 0.97 17.699001 1.409 18.139 C 1.85 18.578 2.38 18.797 3.0 18.797 z "/>
    <path fill="#dcdcdc" d="M 3.0 23.484 C 2.38 23.484 1.85 23.705 1.409 24.141998 C 0.97 24.582 0.75 25.115 0.75 25.746 C 0.75 26.363 0.97 26.891 1.4089999 27.328001 C 1.85 27.766 2.38 27.984 3.0 27.984 C 3.619 27.984 4.15 27.765 4.59 27.328 C 5.03 26.890999 5.25 26.362999 5.25 25.745998 C 5.25 25.114998 5.029 24.581999 4.59 24.141998 C 4.15 23.705 3.619 23.484 3.0 23.484 z "/>
</svg>
