<?xml version="1.0" encoding="UTF-8"?>
<svg xmlns="http://www.w3.org/2000/svg" xmlns:xlink="http://www.w3.org/1999/xlink" contentScriptType="text/ecmascript" width="10" baseProfile="tiny" zoomAndPan="magnify" contentStyleType="text/css" viewBox="6 8.181 10 7.341" height="7.341" preserveAspectRatio="xMidYMid meet" version="1.1">
    <g>
        <path fill="#808080" d="M 6.0 8.182 L 6.0 11.292 C 6.5030003 13.703 8.645 15.521 11.204 15.521 L 16.0 15.521 L 16.0 15.079 L 11.204 15.079 C 8.516001 15.079 6.3290005 12.891 6.3290005 10.204 L 6.3290005 8.182 L 6.0 8.182 z " fill-opacity="0.01"/>
        <polygon fill="#808080" fill-opacity="0.03" points="6.329,8.181 6.329,8.181 6.771,8.181  "/>
        <path fill="#808080" d="M 6.771 8.182 L 6.329 8.182 L 6.329 10.203 C 6.329 12.891 8.516 15.078 11.204 15.078 L 16.0 15.078 L 16.0 14.636 L 11.204 14.636 C 8.759001 14.636 6.771001 12.649 6.771001 10.204 L 6.771001 8.182 z " fill-opacity="0.03"/>
        <polygon fill="#808080" fill-opacity="0.04" points="6.771,8.181 6.771,8.181 7.215,8.181  "/>
        <path fill="#808080" d="M 7.214 10.204 L 7.214 8.182 L 6.771 8.182 L 6.771 10.204 C 6.771 12.648001 8.759 14.636001 11.204 14.636001 L 16.0 14.636001 L 16.0 14.195001 L 11.204 14.195001 C 9.003 14.194 7.215 12.403 7.214 10.204 L 7.214 10.204 z " fill-opacity="0.04"/>
        <polygon fill="#808080" fill-opacity="0.09" points="7.215,8.181 7.215,8.181 7.658,8.181  "/>
        <path fill="#808080" d="M 7.658 8.182 L 7.215 8.182 L 7.215 10.203 C 7.215 12.402 9.003 14.193 11.204 14.193 L 16.0 14.193 L 16.0 13.747 L 11.204 13.747 C 9.251 13.747 7.658001 12.158 7.658001 10.204 L 7.658001 8.182 z " fill-opacity="0.09"/>
        <polygon fill="#808080" fill-opacity="0.08" points="7.659,8.181 7.659,8.181 8.102,8.181  "/>
        <path fill="#808080" d="M 8.102 10.204 L 8.102 8.182 L 7.658 8.182 L 7.658 10.205 C 7.658 12.158 9.251 13.748 11.204 13.748 L 16.0 13.748 L 16.0 13.308001 L 11.205 13.308001 C 10.361 13.308001 9.6 12.968 9.04 12.4210005 L 8.989 12.4210005 L 8.989 12.369 C 8.441 11.81 8.102 11.047 8.102 10.204 L 8.102 10.204 z " fill-opacity="0.08"/>
        <polygon fill="#808080" fill-opacity="0.1" points="8.102,8.181 8.102,8.181 8.544,8.181  "/>
        <path fill="#808080" d="M 8.543 10.204 L 8.543 8.182 L 8.102 8.182 L 8.102 10.203 C 8.102 11.047 8.442 11.808001 8.989 12.368 L 8.989 11.67 C 8.709 11.25 8.544 10.746 8.543 10.204 L 8.543 10.204 z " fill-opacity="0.1"/>
        <path fill="#808080" d="M 9.74 12.419 L 9.039 12.419 C 9.599999 12.966 10.361 13.306 11.204 13.306 L 16.0 13.306 L 16.0 12.862 L 11.204 12.862 C 10.663 12.861 10.161 12.697 9.74 12.419 z " fill-opacity="0.1"/>
        <polygon fill="#808080" fill-opacity="0.11" points="8.544,8.181 8.544,8.181 8.988,8.181  "/>
        <path fill="#808080" d="M 11.206 12.42 L 9.74 12.42 C 10.160999 12.6970005 10.663 12.861 11.204 12.861 L 16.0 12.861 L 16.0 12.42 L 11.206 12.42 z " fill-opacity="0.11"/>
        <path fill="#808080" d="M 8.988 8.182 L 8.544 8.182 L 8.544 10.204 C 8.544 10.745001 8.709 11.25 8.988 11.67 L 8.988 10.204 L 8.988 8.182 z " fill-opacity="0.11"/>
        <path fill="#808080" d="M 8.988 12.368 L 8.988 12.42 L 9.039 12.42 C 9.021 12.403 9.005 12.386 8.988 12.368 z " fill-opacity="0.03"/>
        <path fill="#808080" d="M 8.988 11.67 L 8.988 12.368 C 9.005 12.386 9.021 12.402 9.039 12.42 L 9.74 12.42 C 9.441 12.223 9.188 11.968 8.988 11.67 z " fill-opacity="0.03"/>
        <path fill="#808080" d="M 8.988 10.205 L 8.988 11.671 C 9.184999 11.969 9.441 12.223999 9.74 12.421 L 11.205999 12.421 C 10.709 12.421 10.256 12.252 9.886 11.976 L 9.43 11.976 L 9.43 11.519 C 9.156 11.149 8.988 10.697 8.988 10.205 z " fill-opacity="0.03"/>
        <polygon fill="#808080" fill-opacity="0.03" points="8.989,8.181 8.989,8.181 9.43,8.181  "/>
        <path fill="#808080" d="M 16.0 11.975 L 9.886 11.975 C 10.256 12.251 10.709 12.42 11.205999 12.42 L 16.0 12.42 L 16.0 11.975 z " fill-opacity="0.03"/>
        <path fill="#808080" d="M 9.43 8.182 L 8.990001 8.182 L 8.990001 10.204 C 8.990001 10.698001 9.158001 11.149 9.43 11.518001 L 9.43 8.182 z " fill-opacity="0.03"/>
        <path fill="#808080" d="M 9.43 11.518 L 9.43 11.974999 L 9.886001 11.974999 C 9.712 11.846 9.559 11.692 9.43 11.518 z " fill-opacity="0.03"/>
        <linearGradient x1="1930.0186" gradientTransform="matrix(-1 0 0 1 1939.748 -786.2529)" y1="797.9785" x2="1781.2037" gradientUnits="userSpaceOnUse" y2="755.2888" xlink:type="simple" xlink:actuate="onLoad" id="XMLID_4_" xlink:show="other">
            <stop stop-color="#808080" offset="0"/>
            <stop stop-color="#5f9ea0" offset="1"/>
        </linearGradient>
        <path fill="url(#XMLID_4_)" d="M 9.43 11.518 L 9.43 11.974999 L 9.886001 11.974999 C 9.712 11.846 9.559 11.692 9.43 11.518 z " fill-opacity="0.4"/>
        <polygon fill="#808080" fill-opacity="0.03" points="9.43,8.181 9.43,8.181 16,8.181  "/>
        <linearGradient x1="1930.7314" gradientTransform="matrix(-1 0 0 1 1939.748 -786.2529)" y1="795.4951" x2="1781.9165" gradientUnits="userSpaceOnUse" y2="752.8054" xlink:type="simple" xlink:actuate="onLoad" id="XMLID_5_" xlink:show="other">
            <stop stop-color="#808080" offset="0"/>
            <stop stop-color="#5f9ea0" offset="1"/>
        </linearGradient>
        <polygon fill="url(#XMLID_5_)" fill-opacity="0.4" points="9.43,8.181 9.43,8.181 16,8.181  "/>
        <path fill="#808080" d="M 9.43 8.182 L 9.43 11.518 C 9.559 11.691999 9.712 11.846 9.886001 11.974999 L 16.0 11.974999 L 16.0 8.182 L 16.0 8.182 L 9.43 8.182 z " fill-opacity="0.03"/>
        <linearGradient x1="1930.2285" gradientTransform="matrix(-1 0 0 1 1939.748 -786.2529)" y1="797.248" x2="1781.4139" gradientUnits="userSpaceOnUse" y2="754.5585" xlink:type="simple" xlink:actuate="onLoad" id="XMLID_6_" xlink:show="other">
            <stop stop-color="#808080" offset="0"/>
            <stop stop-color="#5f9ea0" offset="1"/>
        </linearGradient>
        <path fill="url(#XMLID_6_)" d="M 9.43 8.182 L 9.43 11.518 C 9.559 11.691999 9.712 11.846 9.886001 11.974999 L 16.0 11.974999 L 16.0 8.182 L 16.0 8.182 L 9.43 8.182 z " fill-opacity="0.4"/>
    </g>
</svg>
