<?xml version="1.0" encoding="UTF-8"?>
<svg xmlns="http://www.w3.org/2000/svg" xmlns:xlink="http://www.w3.org/1999/xlink" contentScriptType="text/ecmascript" width="10" baseProfile="tiny" zoomAndPan="magnify" contentStyleType="text/css" viewBox="5.5 8.997 10 5.409" height="5.409" preserveAspectRatio="xMidYMid meet" version="1.1">
    <g>
        <path fill="#808080" d="M 15.5 14.406 L 15.5 13.226 C 15.311 12.319 14.874 11.51 14.285 10.834 L 14.285 11.528 C 14.839 12.319 15.169 13.276999 15.169 14.314 L 15.169 14.406 L 15.5 14.406 L 15.5 14.406 z " fill-opacity="0.01"/>
        <path fill="#808080" d="M 13.08 10.326 L 13.773 10.326 C 12.837 9.509 11.629 8.997 10.294 8.997 L 5.5 8.997 L 5.5 9.44 L 10.294001 9.44 C 11.331 9.44 12.289 9.771 13.08 10.326 z " fill-opacity="0.01"/>
        <path fill="#808080" d="M 14.729 14.314 L 14.729 14.406 L 15.17 14.406 L 15.17 14.314 C 15.17 13.279 14.84 12.32 14.286 11.529 L 14.286 12.419001 C 14.56 12.997001 14.726 13.634001 14.726 14.315001 L 14.728 14.315001 L 14.728 14.314 z " fill-opacity="0.03"/>
        <path fill="#808080" d="M 12.188 10.325 L 13.082 10.325 C 12.29 9.77 11.332 9.44 10.295 9.44 L 5.5 9.44 L 5.5 9.882999 L 10.294001 9.882999 C 10.975 9.884 11.611 10.05 12.188 10.325 z " fill-opacity="0.03"/>
        <path fill="#808080" d="M 14.285 14.406 L 14.726 14.406 L 14.726 14.314 C 14.726 13.632 14.559999 12.997 14.285 12.418 L 14.285 14.406 z " fill-opacity="0.04"/>
        <path fill="#808080" d="M 10.294 9.884 L 5.5 9.884 L 5.5 10.323999 L 10.293 10.323999 L 12.188 10.323999 C 11.611 10.05 10.975 9.884 10.294 9.884 z " fill-opacity="0.04"/>
        <path fill="#808080" d="M 14.285 10.836 L 14.285 10.325001 L 13.773 10.325001 C 13.957 10.484 14.126 10.654 14.285 10.836 z " fill-opacity="0.03"/>
        <path fill="#808080" d="M 13.84 10.99 C 14.0 11.16 14.151 11.337999 14.285 11.53 L 14.285 10.836 C 14.125999 10.653999 13.957 10.483999 13.773 10.325 L 13.08 10.325 C 13.271 10.459 13.449 10.611 13.619 10.77 L 13.839999 10.77 L 13.839999 10.99 z " fill-opacity="0.03"/>
        <path fill="#808080" d="M 14.285 12.421 L 14.285 11.530999 C 14.151999 11.338999 14.0 11.160999 13.84 10.990999 L 13.84 11.681999 C 14.012 11.913 14.16 12.159 14.285 12.421 z " fill-opacity="0.03"/>
        <path fill="#808080" d="M 12.927 10.771 L 13.619 10.771 C 13.449 10.612 13.271001 10.459 13.080001 10.326 L 12.187001 10.326 C 12.451 10.45 12.695 10.599 12.927 10.771 z " fill-opacity="0.03"/>
        <path fill="#808080" d="M 10.293 10.325 C 10.939 10.325 11.543 10.495 12.085 10.77 L 12.926 10.77 C 12.696 10.598 12.450999 10.45 12.188 10.325 L 10.293 10.325 z " fill-opacity="0.03"/>
        <path fill="#808080" d="M 14.283 14.406 L 14.285 14.406 L 14.285 12.42 C 14.16 12.159 14.012 11.913 13.84 11.683001 L 13.84 12.527 C 14.114 13.066 14.283 13.67 14.283 14.316 L 14.283 14.406 L 14.283 14.406 z " fill-opacity="0.03"/>
        <path fill="#808080" d="M 13.84 14.406 L 14.283 14.406 L 14.283 14.314 C 14.283 13.668 14.114 13.064 13.84 12.525 L 13.84 14.313999 L 13.84 14.406 z " fill-opacity="0.03"/>
        <path fill="#808080" d="M 10.294 10.771 L 12.086 10.771 C 11.544 10.496 10.941 10.326 10.294 10.326 L 5.5 10.326 L 5.5 10.771 L 10.294 10.771 z " fill-opacity="0.03"/>
        <path fill="#808080" d="M 13.84 10.991 L 13.84 10.77 L 13.619 10.77 C 13.695 10.841 13.77 10.914 13.84 10.991 z " fill-opacity="0.03"/>
        <path fill="#808080" d="M 13.84 11.683 L 13.84 10.992 C 13.77 10.915 13.695 10.842999 13.619 10.771 L 12.927 10.771 C 13.273 11.029 13.581 11.335 13.84 11.683 z " fill-opacity="0.03"/>
        <path fill="#808080" d="M 13.84 12.525 L 13.84 11.681999 C 13.581 11.334 13.276 11.028999 12.927 10.77 L 12.086 10.77 C 12.843 11.155 13.456 11.769 13.84 12.525 z " fill-opacity="0.03"/>
        <path fill="#808080" d="M 13.84 14.314 L 13.84 12.525 C 13.456 11.768 12.843 11.153999 12.086 10.77 L 10.294001 10.77 C 12.249 10.771 13.84 12.363 13.84 14.314 z " fill-opacity="0.03"/>
        <path fill="#808080" d="M 13.396 14.314 L 13.396 14.406 L 13.838 14.406 L 13.838 14.314 C 13.838 12.363 12.247001 10.77 10.292 10.77 L 5.5 10.77 L 5.5 11.214001 L 10.293 11.214001 C 12.005 11.215 13.396 12.604 13.396 14.314 L 13.396 14.314 z " fill-opacity="0.03"/>
        <path fill="#808080" d="M 10.294 11.215 L 5.5 11.215 L 5.5 11.657001 L 10.294001 11.657001 C 11.762001 11.657001 12.954 12.848001 12.954 14.315001 L 12.954 14.407001 L 13.396001 14.407001 L 13.396001 14.315001 C 13.396 12.604 12.006 11.215 10.294 11.215 z " fill-opacity="0.03"/>
        <path fill="#808080" d="M 12.512 14.406 L 12.954 14.406 L 12.954 14.314 C 12.954 12.847 11.762 11.656 10.294001 11.656 L 5.5 11.656 L 5.5 12.1 L 10.294001 12.1 C 11.52 12.1 12.512001 13.091001 12.512001 14.314 L 12.512001 14.406 z " fill-opacity="0.03"/>
        <path fill="#808080" d="M 5.5 14.406 L 12.512 14.406 L 12.512 14.314 C 12.512 13.09 11.52 12.1 10.294001 12.1 L 5.5 12.1 L 5.5 14.406 z " fill-opacity="0.03"/>
        <linearGradient x1="1544.0791" gradientTransform="matrix(-1 0 0 1 1365 -818.6514)" y1="777.0957" x2="1348.1726" gradientUnits="userSpaceOnUse" y2="833.2943" xlink:type="simple" xlink:actuate="onLoad" id="XMLID_12_" xlink:show="other">
            <stop stop-color="#808080" offset="0"/>
            <stop stop-color="#5f9ea0" offset="1"/>
        </linearGradient>
        <polygon fill="url(#XMLID_12_)" fill-opacity="0.4" points="5.5,10.771 5.5,11.215 5.5,11.657 5.5,12.101 5.5,14.406    12.512,14.406 12.954,14.406 13.396,14.406 13.84,14.406 13.84,14.314 13.84,12.525 13.84,11.683 13.84,10.991 13.84,10.771    13.619,10.771 12.927,10.771 12.086,10.771 10.294,10.771  "/>
    </g>
</svg>
