<?xml version="1.0" encoding="UTF-8"?>
<svg xmlns="http://www.w3.org/2000/svg" xmlns:xlink="http://www.w3.org/1999/xlink" contentScriptType="text/ecmascript" width="44" baseProfile="tiny" zoomAndPan="magnify" contentStyleType="text/css" viewBox="-1.479 0.993 44 32" height="32" preserveAspectRatio="xMidYMid meet" version="1.1">
    <g>
        <path fill="#656b6b" d="M 0.021 33.139 L 0.021 30.114 C 0.021 24.108 2.2189999 18.464 6.21 14.218 C 10.204 9.968 15.509 8.132 21.151001 8.14 L 42.02 8.14 L 42.02 33.14 L 0.021 33.14 z " fill-opacity="0.01"/>
        <path fill="#656b6b" d="M 1.021 33.139 L 1.021 30.114 C 1.021 24.393 3.1150002 19.014 6.917 14.969 C 10.722 10.922 15.775 9.1310005 21.147999 9.139 L 42.019997 9.139 L 42.019997 33.139 L 1.021 33.139 z " fill-opacity="0.02"/>
        <path fill="#656b6b" d="M 2.021 33.139 L 2.021 30.114 C 2.021 24.678001 4.0109997 19.567001 7.625 15.723001 C 11.24 11.875 16.043 10.133 21.149 10.139 L 42.021 10.139 L 42.021 33.139 L 2.021 33.139 z " fill-opacity="0.03"/>
        <path fill="#656b6b" d="M 3.021 33.139 L 3.021 30.114 C 3.021 24.966 4.908 20.119999 8.332 16.477001 C 11.757999 12.831001 16.31 11.133001 21.147999 11.139002 L 42.020996 11.139002 L 42.020996 33.139 L 3.021 33.139 z " fill-opacity="0.06"/>
        <path fill="#656b6b" d="M 4.021 33.139 L 4.021 30.114 C 4.021 20.048 11.698999 12.128 21.146 12.139 L 42.021 12.139 L 42.021 33.139 L 4.021 33.139 z " fill-opacity="0.05"/>
        <path fill="#656b6b" d="M 5.021 33.139 L 5.021 30.114 C 5.021 20.048 12.771 13.139 21.771 13.139 L 42.021 13.139 L 42.021 33.139 L 5.021 33.139 z " fill-opacity="0.1"/>
        <path fill="#656b6b" d="M 6.021 33.139 L 6.021 30.114 C 6.021 20.048 13.771 14.139 22.771 14.139 L 42.021 14.139 L 42.021 33.139 L 6.021 33.139 z " fill-opacity="0.1"/>
        <path fill="#656b6b" d="M 7.021 33.139 L 7.021 30.114 C 7.021 20.048 15.021 15.139 23.646 15.139 L 42.021 15.139 L 42.021 33.139 L 7.021 33.139 z " fill-opacity="0.1"/>
        <path fill="#52a1a4" d="M 8.521 33.139 L 8.521 30.442 C 8.521 20.469 16.158 12.625999 25.576 12.639 L 42.021 12.639 L 42.021 33.139 L 8.521 33.139 z "/>
        <path fill="#52a1a4" d="M 25.576 13.135 C 21.264 13.129001 17.191 14.824 14.106 17.905 C 10.826 21.182001 9.021 25.634 9.021 30.442001 L 9.021 33.139 L 8.021 33.139 L 8.021 30.442 C 8.021 25.368 9.934999 20.667 13.403999 17.203999 C 16.677 13.932999 21.0 12.135999 25.578 12.139998 L 42.021 12.139998 L 42.021 13.137999 L 25.576 13.137999 L 25.576 13.135 z "/>
        <rect x="-1.979" width="44" fill="none" y="1.139" height="32"/>
    </g>
</svg>
