<?xml version="1.0" encoding="UTF-8"?>
<svg xmlns="http://www.w3.org/2000/svg" xmlns:xlink="http://www.w3.org/1999/xlink" contentScriptType="text/ecmascript" width="100" baseProfile="tiny" zoomAndPan="magnify" contentStyleType="text/css" viewBox="8.521 0.993 100 60" height="60" preserveAspectRatio="xMidYMid meet" version="1.1">
    <g>
        <rect x="8.021" y="32.14" fill-opacity="0.01" fill="#656b6b" width="100" height="29"/>
        <rect x="8.021" y="33.14" fill-opacity="0.02" fill="#656b6b" width="100" height="28"/>
        <rect x="8.021" y="34.14" fill-opacity="0.03" fill="#656b6b" width="100" height="27"/>
        <rect x="8.021" y="35.14" fill-opacity="0.05" fill="#656b6b" width="100" height="26"/>
        <path fill="#656b6b" d="M 8.021 61.14 L 8.021 36.14 C 22.955 36.14 77.72 36.14 108.020996 36.14 L 108.020996 61.14 L 8.021 61.14 z " fill-opacity="0.06"/>
        <path fill="#656b6b" d="M 8.021 61.14 L 8.021 37.14 C 23.539 37.14 77.89101 37.14 108.020996 37.14 L 108.020996 61.14 L 8.021 61.14 z " fill-opacity="0.1"/>
        <path fill="#656b6b" d="M 8.021 61.14 L 8.021 38.14 C 24.062 38.14 78.04201 38.14 108.020996 38.14 L 108.020996 61.14 L 8.021 61.14 z " fill-opacity="0.1"/>
        <path fill="#656b6b" d="M 8.021 61.14 L 8.021 39.14 C 24.996 39.14 78.313 39.14 108.020996 39.14 L 108.020996 61.14 L 8.021 61.14 z " fill-opacity="0.1"/>
        <rect x="8.021" width="100" fill="#52a1a4" y="36.14" height="1"/>
        <rect x="8.021" width="100" fill="#52a1a4" y="37.14" height="24"/>
        <rect x="8.021" width="100" fill="none" y="1.139" height="60"/>
    </g>
</svg>
