<?xml version="1.0" encoding="UTF-8"?>
<svg xmlns="http://www.w3.org/2000/svg" xmlns:xlink="http://www.w3.org/1999/xlink" contentScriptType="text/ecmascript" width="44" baseProfile="tiny" zoomAndPan="magnify" contentStyleType="text/css" viewBox="-1.979 1.139 44 60" height="60" preserveAspectRatio="xMidYMid meet" version="1.1">
    <g>
        <path fill="#656b6b" d="M -1.979 32.139 L 18.521 32.139 C 30.376 32.139 40.021 41.784 40.021 53.639 L 40.021 61.139 L -1.9790001 61.139 L -1.9790001 32.139 z " fill-opacity="0.01"/>
        <path fill="#656b6b" d="M -1.979 33.139 L 18.521 33.139 C 29.826 33.139 39.021 42.334 39.021 53.639 L 39.021 61.139 L -1.9790001 61.139 L -1.9790001 33.139 z " fill-opacity="0.02"/>
        <path fill="#656b6b" d="M -1.979 34.139 L 18.521 34.139 C 29.272999 34.139 38.021 42.887 38.021 53.639 L 38.021 61.139 L -1.9790001 61.139 L -1.9790001 34.139 z " fill-opacity="0.03"/>
        <path fill="#656b6b" d="M -1.979 35.139 L 18.521 35.139 C 28.722 35.139 37.021 43.438 37.021 53.639 L 37.021 61.139 L -1.9790001 61.139 L -1.9790001 35.139 z " fill-opacity="0.05"/>
        <path fill="#656b6b" d="M -1.979 36.139 C 10.265 36.139 18.521 36.139 18.521 36.139 C 28.168999 36.139 36.021 43.991 36.021 53.639 L 36.021 61.139 L -1.9790001 61.139 L -1.9790001 36.139 z " fill-opacity="0.06"/>
        <path fill="#656b6b" d="M -1.979 37.139 C 10.268 37.139 18.521 37.139 18.521 37.139 C 27.619 37.139 35.021 44.541 35.021 53.639 L 35.021 61.139 L -1.9790001 61.139 L -1.9790001 37.139 z " fill-opacity="0.1"/>
        <path fill="#656b6b" d="M -1.979 38.139 C 10.271 38.139 18.521 38.139 18.521 38.139 C 27.068 38.139 34.021 45.092 34.021 53.639 L 34.021 61.139 L -1.9790001 61.139 L -1.9790001 38.139 z " fill-opacity="0.1"/>
        <path fill="#656b6b" d="M -1.979 39.139 C 10.281 39.139 18.521 39.139 18.521 39.139 C 26.515999 39.139 33.021 45.644 33.021 53.639 L 33.021 61.139 L -1.9790001 61.139 L -1.9790001 39.139 z " fill-opacity="0.1"/>
        <path fill="#52a1a4" d="M -1.979 36.139 L 18.521 36.139 C 28.186 36.139 36.021 43.974 36.021 53.639 L 36.021 61.139 L -1.9790001 61.139 L -1.9790001 36.139 z "/>
        <rect x="-1.979" width="44" fill="none" y="1.139" height="60"/>
    </g>
</svg>
