<?xml version="1.0" encoding="UTF-8"?>
<svg xmlns="http://www.w3.org/2000/svg" xmlns:xlink="http://www.w3.org/1999/xlink" contentScriptType="text/ecmascript" width="17" baseProfile="tiny" zoomAndPan="magnify" contentStyleType="text/css" viewBox="0 0 17 43" height="43" preserveAspectRatio="xMidYMid meet" version="1.1">
    <rect width="17" height="43"/>
    <path fill="#ffffff" d="M 12.907 10.148 C 12.888 9.648 12.881 9.245999 12.881 8.943 L 12.526 8.943 C 12.383 11.236 11.94 12.381 11.198 12.381 C 10.83 12.381 10.547 12.127 10.348 11.615 C 10.148999 11.105 10.021999 10.215 9.964 8.943 L 9.607 8.943 C 9.494 10.209 9.293 11.184999 9.003 11.873 C 8.663 12.67 8.193 13.068 7.5930004 13.068 C 7.0140004 13.068 6.4880004 12.731999 6.0140004 12.058 C 5.59 11.454 5.195 10.562 4.827 9.38 L 4.033 14.255 C 4.9639997 16.896 5.614 18.907 5.983 20.288 C 6.4659996 22.107 6.8079996 23.98 7.0059996 25.911 C 7.2049994 27.838999 7.3049994 30.307 7.3049994 33.315998 L 7.7269993 33.315998 C 7.8969994 31.223999 8.000999 29.778997 8.039999 28.977999 C 8.077999 28.176998 8.098999 27.346998 8.098999 26.484 C 8.098999 24.939 8.042999 23.619999 7.933999 22.525 C 7.824999 21.432 7.668999 20.4 7.4639993 19.43 C 7.3509994 18.897 7.162999 18.131 6.9019995 17.131 C 7.4199996 17.131 7.8639994 16.938 8.233999 16.549 C 8.603 16.16 8.908999 15.582 9.150999 14.816999 C 9.292999 15.325 9.511999 15.7039995 9.810999 15.95 C 10.109999 16.196 10.459999 16.319 10.866999 16.319 C 11.570999 16.319 12.090999 15.866 12.428999 14.96 C 12.766999 14.054 12.9349985 12.743 12.9349985 11.026 C 12.934 10.943 12.925 10.65 12.907 10.148 z "/>
</svg>
