<?xml version="1.0" encoding="UTF-8"?>
<svg xmlns="http://www.w3.org/2000/svg" xmlns:xlink="http://www.w3.org/1999/xlink" contentScriptType="text/ecmascript" width="44" baseProfile="tiny" zoomAndPan="magnify" contentStyleType="text/css" viewBox="-1.479 0.993 44 60" height="60" preserveAspectRatio="xMidYMid meet" version="1.1">
    <g>
        <polygon fill="#656b6b" fill-opacity="0.01" points="42.021,32.14 42.021,61.14 -1.979,61.14 -1.979,1.139 4.673,1.139    39.675,32.14  "/>
        <polygon fill="#656b6b" fill-opacity="0.02" points="-1.979,61.14 -1.979,2.139 4.294,2.139 39.296,33.14 42.021,33.14    42.021,61.14  "/>
        <polygon fill="#656b6b" fill-opacity="0.03" points="-1.979,61.14 -1.979,3.139 3.916,3.139 38.917,34.14 42.021,34.14    42.021,61.14  "/>
        <polygon fill="#656b6b" fill-opacity="0.05" points="-1.979,61.14 -1.979,4.139 3.537,4.139 38.539,35.14 42.021,35.14    42.021,61.14  "/>
        <path fill="#656b6b" d="M -1.979 61.14 L -1.979 5.1399994 L 3.158 5.1399994 C 3.158 5.1399994 37.601 35.646 38.159 36.14 C 38.236 36.14 39.624 36.14 42.02 36.14 L 42.02 61.14 L -1.979 61.14 z " fill-opacity="0.06"/>
        <path fill="#656b6b" d="M -1.979 61.14 L -1.979 6.1399994 L 2.7789998 6.1399994 C 2.7789998 6.1399994 37.221 36.646 37.781 37.14 C 37.861 37.14 39.383 37.14 42.020996 37.14 L 42.020996 61.14 L -1.979 61.14 z " fill-opacity="0.1"/>
        <path fill="#656b6b" d="M -1.979 61.14 L -1.979 7.1399994 L 2.4 7.1399994 C 2.4 7.1399994 36.841003 37.646 37.4 38.14 C 37.485 38.14 39.151 38.14 42.021 38.14 L 42.021 61.14 L -1.979 61.14 z " fill-opacity="0.1"/>
        <path fill="#656b6b" d="M -1.979 61.14 L -1.979 8.139999 C 0.58000004 8.139999 2.021 8.139999 2.021 8.139999 L 37.021 39.14 C 37.723 39.14 39.464 39.14 42.021 39.14 L 42.021 61.14 L -1.979 61.14 z " fill-opacity="0.1"/>
        <path fill="#52a1a4" d="M 37.779 37.14 C 37.779 37.14 3.3400002 6.635 2.7799988 6.1399994 C 2.6989987 6.1399994 0.9899988 6.1399994 -1.979001 6.1399994 L -1.979001 5.1399994 L 3.16 5.1399994 L 38.16 36.14 L 42.021 36.14 L 42.021 37.14 L 37.779 37.14 z "/>
        <path fill="#52a1a4" d="M -1.979 61.14 L -1.979 6.1399994 C 0.9900001 6.1399994 2.699 6.1399994 2.7799997 6.1399994 C 3.3379998 6.6349993 37.779 37.14 37.779 37.14 L 42.021 37.14 L 42.021 61.14 L -1.979 61.14 z "/>
        <rect x="-1.979" width="44" fill="none" y="1.139" height="60"/>
    </g>
</svg>
