<?xml version="1.0" encoding="UTF-8"?>
<svg xmlns="http://www.w3.org/2000/svg" xmlns:xlink="http://www.w3.org/1999/xlink" contentScriptType="text/ecmascript" width="100" baseProfile="tiny" zoomAndPan="magnify" contentStyleType="text/css" viewBox="-43 -43 100 100" height="100" preserveAspectRatio="xMidYMid meet" version="1.1">
    <g>
        <g>
            <g>
                <g>
                    <rect x="-43" width="100" fill="none" y="-43" height="100"/>
                </g>
            </g>
        </g>
        <g>
            <polygon fill="#ffffff" fill-opacity="0.95" points="-9.719,-24.762 -34.678,-24.762 -34.678,-12.762 -4.503,-12.762   "/>
            <polygon fill="#ffffff" points="-9.719,-24.762 -14.934,-36.766 -34.678,-36.766 -34.678,-24.762   "/>
            <polygon fill="#ffffff" fill-opacity="0.9" points="-4.503,-12.762 -34.678,-12.762 -34.678,-0.766 0.716,-0.766   "/>
            <polygon fill="#ffffff" fill-opacity="0.85" points="0.716,-0.766 -34.678,-0.766 -34.678,11.238 5.933,11.238   "/>
            <polygon fill="#ffffff" fill-opacity="0.75" points="11.153,23.23 -34.678,23.23 -34.678,35.234 16.365,35.234   "/>
            <polygon fill="#ffffff" fill-opacity="0.7" points="16.365,35.234 -34.678,35.234 -34.678,47.234 21.584,47.234   "/>
            <polygon fill="#ffffff" fill-opacity="0.8" points="5.933,11.238 -34.678,11.238 -34.678,23.23 11.153,23.23   "/>
        </g>
    </g>
</svg>
