<?xml version="1.0" encoding="UTF-8"?>
<svg xmlns="http://www.w3.org/2000/svg" xmlns:xlink="http://www.w3.org/1999/xlink" contentScriptType="text/ecmascript" width="120" baseProfile="tiny" zoomAndPan="magnify" contentStyleType="text/css" viewBox="-11.479 0.993 120 60" height="60" preserveAspectRatio="xMidYMid meet" version="1.1">
    <g>
        <rect x="-11.979" y="1.139" fill-opacity="0.01" fill="#656b6b" width="120" height="60"/>
        <rect x="-11.979" y="2.139" fill-opacity="0.02" fill="#656b6b" width="120" height="59"/>
        <rect x="-11.979" y="3.139" fill-opacity="0.03" fill="#656b6b" width="120" height="58"/>
        <rect x="-11.979" y="4.139" fill-opacity="0.05" fill="#656b6b" width="120" height="57"/>
        <rect x="-11.979" y="5.139" fill-opacity="0.06" fill="#656b6b" width="120" height="56"/>
        <rect x="-11.979" y="6.139" fill-opacity="0.1" fill="#656b6b" width="120" height="55"/>
        <rect x="-11.979" y="7.139" fill-opacity="0.1" fill="#656b6b" width="120" height="54"/>
        <path fill="#656b6b" d="M 108.021 8.139 L 108.021 61.139 L -11.978996 61.139 L -11.978996 8.137 C 20.888 8.136 90.648 8.138 108.021 8.139 z " fill-opacity="0.1"/>
        <path fill="#52a1a4" d="M 108.021 6.139 C 89.291 6.139 20.078003 6.139 -11.978996 6.139 L -11.978996 5.139 L 108.021 5.139 L 108.021 6.139 z "/>
        <path fill="#52a1a4" d="M 108.021 61.14 L -11.978996 61.14 L -11.978996 6.1399994 C 20.078003 6.1399994 89.291 6.1399994 108.021 6.1399994 L 108.021 61.14 z "/>
        <rect x="-11.979" width="120" fill="none" y="1.139" height="60"/>
    </g>
</svg>
