<?xml version="1.0" encoding="UTF-8"?>
<svg xmlns="http://www.w3.org/2000/svg" xmlns:xlink="http://www.w3.org/1999/xlink" contentScriptType="text/ecmascript" width="41.379" baseProfile="tiny" zoomAndPan="magnify" contentStyleType="text/css" viewBox="28.622 0 41.379 100" height="100" preserveAspectRatio="xMidYMid meet" version="1.1">
    <rect x="28.622" width="41.379" fill="none" height="100"/>
    <g>
        <polygon fill="#ffffff" fill-opacity="0.95" points="50.475,69.898 31.98,69.898 31.98,83.201 47.278,83.201  "/>
        <polygon fill="#ffffff" points="31.98,83.201 31.98,96.504 44.081,96.504 47.278,83.201  "/>
        <polygon fill="#ffffff" fill-opacity="0.9" points="53.672,56.602 31.98,56.602 31.98,69.898 50.475,69.898  "/>
        <polygon fill="#ffffff" fill-opacity="0.85" points="56.87,43.299 31.98,43.299 31.98,56.602 53.672,56.602  "/>
        <polygon fill="#ffffff" fill-opacity="0.75" points="63.264,16.7 31.98,16.7 31.98,30.002 60.069,30.002  "/>
        <polygon fill="#ffffff" fill-opacity="0.7" points="66.463,3.4 31.98,3.4 31.98,16.7 63.264,16.7  "/>
        <polygon fill="#ffffff" fill-opacity="0.8" points="60.069,30.002 31.98,30.002 31.98,43.299 56.87,43.299  "/>
    </g>
</svg>
