<?xml version="1.0" encoding="UTF-8"?>
<svg xmlns="http://www.w3.org/2000/svg" xmlns:xlink="http://www.w3.org/1999/xlink" contentScriptType="text/ecmascript" width="44" baseProfile="tiny" zoomAndPan="magnify" contentStyleType="text/css" viewBox="-1.479 0.993 44 32" height="32" preserveAspectRatio="xMidYMid meet" version="1.1">
    <g>
        <path fill="#656b6b" d="M -1.979 8.139 L 20.021 8.139 C 25.244 8.4279995 30.126 10.268 33.836998 14.217 C 37.824997 18.461 40.020996 24.108 40.020996 30.112999 L 40.020996 33.138 L -1.9790039 33.138 L -1.9790039 8.139 z " fill-opacity="0.01"/>
        <path fill="#656b6b" d="M -1.979 9.139 L 19.021 9.139 C 24.351 9.17 29.36 10.955 33.13 14.971 C 36.929 19.012 39.021 24.390999 39.021 30.113998 L 39.021 33.139 L -1.9790001 33.139 L -1.9790001 9.139 z " fill-opacity="0.02"/>
        <path fill="#656b6b" d="M -1.979 10.139 L 18.021 10.139 C 18.466 10.139 18.914 10.139 18.914 10.139 C 24.019 10.139 28.816 11.885 32.427 15.723 C 36.032997 19.567 38.022 24.675999 38.022 30.113998 L 38.022 33.139 L -1.9780006 33.139 L -1.9780006 10.139 z " fill-opacity="0.03"/>
        <path fill="#656b6b" d="M -1.979 11.139 L 17.021 11.139 C 17.876 11.139 18.914 11.139 18.914 11.139 C 23.751999 11.139 28.299 12.838 31.72 16.479 C 35.138 20.118 37.022 24.961 37.022 30.114 L 37.022 33.139 L -1.9780006 33.139 L -1.9780006 11.139 z " fill-opacity="0.06"/>
        <path fill="#656b6b" d="M -1.979 12.139 L 16.021 12.139 L 18.791 12.139 C 29.021 12.139 36.021 20.045 36.021 30.114 L 36.021 33.139 L -1.9790001 33.139 L -1.9790001 12.139 z " fill-opacity="0.05"/>
        <path fill="#656b6b" d="M -1.979 13.139 L 15.021 13.139 L 18.791 13.139 C 28.237999 13.139 35.021 20.045 35.021 30.114 L 35.021 33.139 L -1.9790001 33.139 L -1.9790001 13.139 z " fill-opacity="0.1"/>
        <path fill="#656b6b" d="M -1.979 14.139 L 14.021 14.139 L 18.791 14.139 C 28.237999 14.139 34.021 20.639 34.021 30.114 L 34.021 33.139 L -1.9790001 33.139 L -1.9790001 14.139 z " fill-opacity="0.1"/>
        <path fill="#656b6b" d="M -1.979 15.139 L 13.021 15.139 L 17.771 15.139 C 27.219 15.139 33.021 20.045 33.021 30.114 L 33.021 33.139 L -1.9790001 33.139 L -1.9790001 15.139 z " fill-opacity="0.1"/>
        <path fill="#52a1a4" d="M -1.979 12.639 L 18.464 12.639 C 28.542 12.639 35.521 20.469 35.521 30.442 L 35.521 33.139 L -1.9790001 33.139 L -1.9790001 12.639 z "/>
        <path fill="#52a1a4" d="M 18.464 12.141 C 29.021 12.139 36.018 19.838 36.018 30.442001 L 36.018 33.139 L 35.021 33.139 L 35.021 30.442 C 35.018 20.139 28.521 13.139 18.464 13.135 L -1.979 13.135 L -1.979 12.141 L 18.464 12.141 z "/>
        <rect x="-1.979" width="44" fill="none" y="1.139" height="32"/>
    </g>
</svg>
