<?xml version="1.0" encoding="UTF-8"?>
<svg xmlns="http://www.w3.org/2000/svg" xmlns:xlink="http://www.w3.org/1999/xlink" contentScriptType="text/ecmascript" width="88" baseProfile="tiny" zoomAndPan="magnify" contentStyleType="text/css" viewBox="0 0 88 88" height="88" preserveAspectRatio="xMidYMid meet" version="1.1">
    <rect x="-1" width="88" fill="none" y="-1" height="88"/>
    <path fill="#ffffff" d="M 13.178 6.0 C 9.22 6.0 6.0 9.221 6.0 13.18 L 6.0 72.822 C 6.0 76.779 9.22 80.001 13.1779995 80.001 L 72.824 80.001 C 76.781 80.001 80.002 76.779 80.002 72.822 L 80.002 13.18 C 80.0 9.221 76.779 6.0 72.822 6.0 L 13.178 6.0 z " fill-opacity="0.3"/>
    <linearGradient x1="-1368.021" gradientTransform="matrix(1 0 0 -1 1389.3896 -664.0586)" y1="-744.5254" x2="-1324.7588" gradientUnits="userSpaceOnUse" y2="-669.5931" xlink:type="simple" xlink:actuate="onLoad" id="XMLID_11_" xlink:show="other">
        <stop stop-color="#000000" offset="0"/>
        <stop stop-color="#000000" offset="0.6461"/>
        <stop stop-color="#52a2a5" offset="0.9944"/>
        <stop stop-color="#52a2a5" offset="1"/>
    </linearGradient>
    <path fill="url(#XMLID_11_)" d="M 76.0 71.037 C 76.0 73.777 73.777 76.0 71.037 76.0 L 14.965 76.0 C 12.225 76.0 10.0 73.777 10.0 71.037 L 10.0 14.966 C 10.0 12.223 12.225 10.0 14.965 10.0 L 71.037 10.0 C 73.777 10.0 76.0 12.223 76.0 14.966 L 76.0 71.037 L 76.0 71.037 z "/>
    <g>
        <path fill="#ffffff" d="M 9.898 25.789 L 9.898 71.039 C 9.898 73.779 12.121 76.002 14.861 76.002 L 35.151 76.002 C 35.152 76.02 35.153 76.033 35.154 76.051 L 67.716995 76.051 L 69.397995 58.501003 L 62.057995 54.4 L 67.257996 31.928001 L 56.024994 27.829002 C 56.024994 27.829002 50.652992 28.751003 47.776993 29.244003 C 46.796993 25.916004 44.641994 18.600002 44.641994 18.600002 L 44.113995 17.072002 L 36.966995 14.844003 L 11.860994 18.524002 C 11.860994 18.524002 12.052995 23.440002 12.131994 25.450003 C 11.63 25.526 10.776 25.654 9.898 25.789 z "/>
        <linearGradient x1="-1339.3984" gradientTransform="matrix(-1 0 0 -1 -1296.8818 -664.0586)" y1="-738.8633" x2="-1311.1177" gradientUnits="userSpaceOnUse" y2="-689.8796" xlink:type="simple" xlink:actuate="onLoad" id="XMLID_12_" xlink:show="other">
            <stop stop-color="#ffffff" offset="0"/>
            <stop stop-color="#ffffff" offset="0.15"/>
            <stop stop-color="#cfdce6" offset="1"/>
        </linearGradient>
        <path fill="url(#XMLID_12_)" d="M 19.087 30.187 L 9.899 31.728 L 9.899 71.037 C 9.899 73.777 12.122 76.0 14.8619995 76.0 L 26.133 76.0 L 55.809998 67.13 L 41.767 19.447 L 18.928999 23.112 L 19.087 30.187 z "/>
        <linearGradient x1="-1322.603" gradientTransform="matrix(-1 0 0 -1 -1296.8818 -664.0586)" y1="-728.4365" x2="-1362.8866" gradientUnits="userSpaceOnUse" y2="-694.3206" xlink:type="simple" xlink:actuate="onLoad" id="XMLID_13_" xlink:show="other">
            <stop stop-color="#e2e6e4" offset="0"/>
            <stop stop-color="#a3740a" offset="1"/>
        </linearGradient>
        <path fill="url(#XMLID_13_)" d="M 17.246 43.153 L 10.761 73.824 C 11.653 75.139 13.157 76.0 14.864 76.0 L 25.193 76.0 L 56.039 67.107 L 63.74 33.836002 L 17.246 43.153 z "/>
        <linearGradient x1="-1297.0229" gradientTransform="matrix(-1 0 0 -1 -1296.8818 -664.0586)" y1="-717.0693" x2="-1314.0326" gradientUnits="userSpaceOnUse" y2="-722.9761" xlink:type="simple" xlink:actuate="onLoad" id="XMLID_14_" xlink:show="other">
            <stop stop-color="#e6eef4" offset="0"/>
            <stop stop-color="#a3740a" offset="0.44"/>
            <stop stop-color="#474105" offset="0.94"/>
            <stop stop-color="#474105" offset="1"/>
        </linearGradient>
        <path fill="url(#XMLID_14_)" d="M 17.245 43.398 L 9.901001 39.173 L 9.901001 71.036 C 9.901001 72.137 10.273001 73.144005 10.878001 73.967 L 17.245 43.398 z "/>
        <linearGradient x1="-1334.1641" gradientTransform="matrix(-1 0 0 -1 -1296.8818 -664.0586)" y1="-701.6094" x2="-1328.5244" gradientUnits="userSpaceOnUse" y2="-688.8297" xlink:type="simple" xlink:actuate="onLoad" id="XMLID_15_" xlink:show="other">
            <stop stop-color="#e2e6e4" offset="0"/>
            <stop stop-color="#a3740a" offset="1"/>
        </linearGradient>
        <polygon fill="url(#XMLID_15_)" points="9.901,38.785 9.901,39.173 17.126,43.333 63.74,33.836 55.748,30.92  "/>
        <linearGradient x1="-2935.9897" gradientTransform="matrix(-1.1364 0 0 -1.1364 -3305.4634 -2102.2729)" y1="-1871.8325" x2="-2930.697" gradientUnits="userSpaceOnUse" y2="-1862.6655" xlink:type="simple" xlink:actuate="onLoad" id="XMLID_16_" xlink:show="other">
            <stop stop-color="#ffffff" offset="0"/>
            <stop stop-color="#ffffff" offset="0.05"/>
            <stop stop-color="#cfdce6" offset="1"/>
        </linearGradient>
        <polygon fill="url(#XMLID_16_)" points="18.929,23.112 41.726,19.469 36.726,17.912 14.962,21.101  "/>
        <linearGradient x1="-1311.5894" gradientTransform="matrix(-1 0 0 -1 -1296.8818 -664.0586)" y1="-695.5913" x2="-1310.0383" gradientUnits="userSpaceOnUse" y2="-691.3805" xlink:type="simple" xlink:actuate="onLoad" id="XMLID_17_" xlink:show="other">
            <stop stop-color="#ffffff" offset="0"/>
            <stop stop-color="#ffffff" offset="0.05"/>
            <stop stop-color="#cfdce6" offset="1"/>
        </linearGradient>
        <polygon fill="url(#XMLID_17_)" points="9.901,28.82 9.901,31.728 19.091,30.187 15.231,28.016  "/>
        <linearGradient x1="-2948.4229" gradientTransform="matrix(-1.1364 0 0 -1.1364 -3305.4634 -2102.2729)" y1="-1859.4565" x2="-2899.9534" gradientUnits="userSpaceOnUse" y2="-1885.0416" xlink:type="simple" xlink:actuate="onLoad" id="XMLID_18_" xlink:show="other">
            <stop stop-color="#ffffff" offset="0"/>
            <stop stop-color="#cfdce6" offset="0.35"/>
            <stop stop-color="#83a0bb" offset="0.7"/>
            <stop stop-color="#4e657a" offset="1"/>
        </linearGradient>
        <polygon fill="url(#XMLID_18_)" points="14.962,21.101 15.231,28.016 19.091,30.187 18.929,23.112  "/>
        <linearGradient x1="-1342.8926" gradientTransform="matrix(-1 0 0 -1 -1296.8818 -664.0586)" y1="-737.4375" x2="-1304.2567" gradientUnits="userSpaceOnUse" y2="-697.2904" xlink:type="simple" xlink:actuate="onLoad" id="XMLID_19_" xlink:show="other">
            <stop stop-color="#e2e6e4" offset="0"/>
            <stop stop-color="#a3740a" offset="1"/>
        </linearGradient>
        <path fill="url(#XMLID_19_)" d="M 17.181 43.389 L 10.82 73.895996 C 11.718 75.166 13.19 76.0 14.864 76.0 L 26.275002 76.0 L 55.81 67.13 L 47.015 37.255997 L 17.181 43.389 z "/>
        <polygon fill="#58a015" points="48.92,76.048 64.709,76.048 66.234,60.225 48.594,64.715  "/>
        <polygon fill="#17594c" points="38.163,76.048 49.147,76.048 49.147,64.715 37.04,57.301  "/>
        <linearGradient x1="-2966.8525" gradientTransform="matrix(-1.1364 0 0 -1.1364 -3305.1909 -2106.5464)" y1="-1905.7856" x2="-2941.1177" gradientUnits="userSpaceOnUse" y2="-1905.7856" xlink:type="simple" xlink:actuate="onLoad" id="XMLID_20_" xlink:show="other">
            <stop stop-color="#dce882" offset="0"/>
            <stop stop-color="#2d6b06" offset="1"/>
        </linearGradient>
        <polygon fill="url(#XMLID_20_)" points="54.585,53.659 37.095,57.301 49.147,64.715 66.34,60.225  "/>
    </g>
</svg>
