<?xml version="1.0" encoding="UTF-8"?>
<svg xmlns="http://www.w3.org/2000/svg" xmlns:xlink="http://www.w3.org/1999/xlink" contentScriptType="text/ecmascript" width="24" baseProfile="tiny" zoomAndPan="magnify" contentStyleType="text/css" viewBox="-0.5 -0.5 24 24" height="24" preserveAspectRatio="xMidYMid meet" version="1.1">
    <path fill="#656b6b" d="M 23.5 9.5 L 13.5 9.5 C 6.883 9.5 1.5 14.882999 1.5 21.5 L 1.5 23.5 L 23.5 23.5 L 23.5 9.5 z " fill-opacity="0.01"/>
    <path fill="#656b6b" d="M 23.5 10.5 L 13.5 10.5 C 7.436 10.5 2.5 15.436 2.5 21.5 L 2.5 23.5 L 23.5 23.5 L 23.5 10.5 z " fill-opacity="0.03"/>
    <path fill="#656b6b" d="M 23.5 11.5 L 13.5 11.5 C 7.986 11.5 3.5 15.986 3.5 21.5 L 3.5 23.5 L 23.5 23.5 L 23.5 11.5 z " fill-opacity="0.04"/>
    <path fill="#656b6b" d="M 23.5 12.5 L 13.5 12.5 C 8.537001 12.5 4.5 16.537 4.5 21.5 L 4.5 23.5 L 23.5 23.5 L 23.5 12.5 z " fill-opacity="0.09"/>
    <path fill="#656b6b" d="M 23.5 13.5 L 13.5 13.5 C 9.089001 13.5 5.5 17.089 5.5 21.5 L 5.5 23.5 L 23.5 23.5 L 23.5 13.5 z " fill-opacity="0.08"/>
    <path fill="#656b6b" d="M 23.5 14.5 L 13.5 14.5 C 9.641 14.5 6.5 17.641 6.5 21.5 L 6.5 23.5 L 23.5 23.5 L 23.5 14.5 z " fill-opacity="0.1"/>
    <path fill="#656b6b" d="M 23.5 15.5 L 13.5 15.5 C 10.191 15.5 7.5 18.191 7.5 21.5 L 7.5 23.5 L 23.5 23.5 L 23.5 15.5 z " fill-opacity="0.11"/>
    <path fill="#656b6b" d="M 23.5 16.5 L 13.5 16.5 C 10.738 16.5 8.5 18.738 8.5 21.5 L 8.5 23.5 L 23.5 23.5 L 23.5 16.5 z " fill-opacity="0.1"/>
    <rect x="4.5" y="12.5" fill-opacity="0.03" fill="#656b6b" width="19" height="11"/>
    <rect x="5.5" width="18" fill="#52a1a4" y="13.5" height="10"/>
</svg>
