<?xml version="1.0" encoding="UTF-8"?>
<svg xmlns="http://www.w3.org/2000/svg" xmlns:xlink="http://www.w3.org/1999/xlink" contentScriptType="text/ecmascript" width="44" baseProfile="tiny" zoomAndPan="magnify" contentStyleType="text/css" viewBox="-1.479 0.993 44 32" height="32" preserveAspectRatio="xMidYMid meet" version="1.1">
    <g>
        <path fill="#656b6b" d="M 42.021 32.14 L 25.521 32.14 L 24.242 32.082 C 11.091 31.463 0.69 21.043 0.067 7.848 L 0.021 6.91 L 0.021 1.139 L 42.021 1.139 L 42.021 32.14 z " fill-opacity="0.01"/>
        <path fill="#656b6b" d="M 42.021 31.14 L 25.521 31.14 L 24.298 31.084 C 11.662 30.487 1.666 20.477 1.067 7.801 L 1.0780001 7.7990003 C 1.072 7.764 1.021 6.861 1.021 6.861 L 1.021 1.139 L 42.021 1.139 L 42.021 31.14 z " fill-opacity="0.02"/>
        <path fill="#656b6b" d="M 42.021 30.14 L 25.521 30.14 L 24.358 30.085999 C 12.232 29.515 2.641 19.912 2.067 7.752 L 2.021 6.816 L 2.021 1.139 L 42.021 1.139 L 42.021 30.14 z " fill-opacity="0.03"/>
        <path fill="#656b6b" d="M 42.021 29.14 L 25.521 29.14 L 24.417 29.088 C 12.802 28.539 3.616 19.349 3.065 7.703 L 3.086 7.699 C 3.078 7.654 3.021 6.771 3.021 6.771 L 3.021 1.139 L 42.021 1.139 L 42.021 29.14 z " fill-opacity="0.05"/>
        <path fill="#656b6b" d="M 42.021 28.14 L 25.521 28.14 L 24.477 28.09 C 13.373 27.565 4.591 18.78 4.067 7.656 L 4.05 7.412 L 4.021 6.726 L 4.021 1.139 L 42.021 1.139 L 42.021 28.14 z " fill-opacity="0.06"/>
        <path fill="#656b6b" d="M 42.021 27.14 L 25.521 27.14 L 24.537 27.092999 C 13.945001 26.592999 5.568001 18.217999 5.0670013 7.612999 L 5.0210013 6.682999 L 5.0210013 1.139 L 42.021 1.139 L 42.021 27.14 z " fill-opacity="0.1"/>
        <path fill="#656b6b" d="M 42.021 26.14 L 25.521 26.14 L 24.597 26.095 C 14.509 25.616 6.542 17.649 6.067 7.564 C 6.067 7.566 6.021 6.638 6.021 6.638 L 6.021 1.138 L 42.021 1.138 L 42.021 26.14 z " fill-opacity="0.1"/>
        <path fill="#656b6b" d="M 42.021 25.14 L 25.521 25.14 C 25.225 25.14 24.937 25.111 24.644 25.095 C 15.143999 24.647999 7.514 17.015999 7.066 7.515999 C 7.05 7.224 7.021 6.935 7.021 6.639 L 7.021 1.1389999 L 42.021 1.1389999 L 42.021 25.14 z " fill-opacity="0.1"/>
        <path fill="#52a1a4" d="M 9.021 6.639 C 9.021 15.739 16.423 23.139 25.521 23.139 L 42.021 23.139 L 42.021 24.139 L 25.521 24.139 C 15.856 24.139 8.021 16.305 8.021 6.639 L 8.021 1.1389999 L 9.021 1.1389999 L 9.021 6.639 z "/>
        <path fill="#52a1a4" d="M 42.021 23.14 L 25.521 23.14 C 16.423 23.14 9.021 15.738999 9.021 6.6399994 L 9.021 1.1399994 L 42.021 1.1399994 L 42.021 23.14 z "/>
        <rect x="-1.979" width="44" fill="none" y="1.139" height="32"/>
    </g>
</svg>
