<?xml version="1.0" encoding="UTF-8"?>
<svg xmlns="http://www.w3.org/2000/svg" xmlns:xlink="http://www.w3.org/1999/xlink" contentScriptType="text/ecmascript" width="44" baseProfile="tiny" zoomAndPan="magnify" contentStyleType="text/css" viewBox="-36.97 -52.911 44 32" height="32" preserveAspectRatio="xMidYMid meet" version="1.1">
    <g>
        <path fill="#656b6b" d="M 6.53 -23.766 C -4.131 -23.766 -10.365 -23.766 -10.365 -23.766 C -24.209 -23.766 -35.47 -35.1 -35.47 -49.852 L -35.47 -52.766003 L 6.529999 -52.766003 L 6.529999 -23.766 z " fill-opacity="0.01"/>
        <path fill="#656b6b" d="M 6.53 -24.766 C -4.131 -24.766 -10.365 -24.766 -10.365 -24.766 C -23.658 -24.766 -34.47 -35.688 -34.47 -49.852 L -34.47 -52.766003 L 6.529999 -52.766003 L 6.529999 -24.766 z " fill-opacity="0.02"/>
        <path fill="#656b6b" d="M 6.53 -25.766 C -4.131 -25.766 -10.365 -25.766 -10.365 -25.766 C -23.105 -25.766 -33.47 -36.274002 -33.47 -49.852 L -33.47 -52.766003 L 6.529999 -52.766003 L 6.529999 -25.766 z " fill-opacity="0.03"/>
        <path fill="#656b6b" d="M 6.53 -26.766 C -4.131 -26.766 -10.365 -26.766 -10.365 -26.766 C -22.554 -26.766 -32.47 -36.864 -32.47 -49.852 L -32.47 -52.766003 L 6.529999 -52.766003 L 6.529999 -26.766 z " fill-opacity="0.06"/>
        <path fill="#656b6b" d="M 6.53 -27.766 L -10.365 -27.766 C -22.002998 -27.766 -31.47 -37.452 -31.47 -49.852 L -31.47 -52.766003 L 6.5300007 -52.766003 L 6.5300007 -27.766 z " fill-opacity="0.05"/>
        <path fill="#656b6b" d="M 6.53 -28.766 L -10.365 -28.766 C -21.451 -28.766 -30.47 -38.037003 -30.47 -49.852 L -30.47 -52.766003 L 6.5300007 -52.766003 L 6.5300007 -28.766 z " fill-opacity="0.1"/>
        <path fill="#656b6b" d="M 6.53 -29.766 C -4.128 -29.766 -10.365 -29.766 -10.365 -29.766 C -20.9 -29.766 -29.47 -38.621002 -29.47 -49.852 L -29.47 -52.766003 L 6.5300007 -52.766003 L 6.5300007 -29.766 z " fill-opacity="0.1"/>
        <path fill="#656b6b" d="M 6.53 -30.766 L -10.365 -30.766 C -20.348 -30.766 -28.47 -39.211 -28.47 -49.852 L -28.47 -52.766003 L 6.5300007 -52.766003 L 6.5300007 -30.766 z " fill-opacity="0.1"/>
        <path fill="#52a1a4" d="M 6.53 -32.266 L -9.915 -32.266 C -19.333 -32.266 -26.970001 -40.204998 -26.970001 -50.178 L -26.970001 -52.766003 L 6.529999 -52.766003 L 6.529999 -32.266 z "/>
        <path fill="#52a1a4" d="M -26.47 -50.178 C -26.47 -40.574 -19.044998 -32.766 -9.914999 -32.766 L 6.53 -32.766 L 6.53 -31.765999 L -9.915 -31.765999 C -19.593 -31.765999 -27.470001 -40.028 -27.470001 -50.178 L -27.470001 -52.766003 L -26.470001 -52.766003 L -26.470001 -50.178 z "/>
        <rect x="-37.47" width="44" fill="none" y="-52.766" height="32"/>
    </g>
</svg>
