<?xml version="1.0" encoding="UTF-8"?>
<svg xmlns="http://www.w3.org/2000/svg" xmlns:xlink="http://www.w3.org/1999/xlink" contentScriptType="text/ecmascript" width="84" baseProfile="tiny" zoomAndPan="magnify" contentStyleType="text/css" viewBox="0 0 84 72" height="72" preserveAspectRatio="xMidYMid meet" version="1.0">
    <linearGradient x1="43.16" y1="38.4" x2="57.27" gradientUnits="userSpaceOnUse" y2="66.19" xlink:type="simple" xlink:actuate="onLoad" id="_180" xlink:show="other">
        <stop stop-color="#a2c2dd" offset="0"/>
        <stop stop-color="#a2c2dd" offset="0.1"/>
        <stop stop-color="#6c83bb" offset="0.71"/>
        <stop stop-color="#003d6d" offset="0.99"/>
        <stop stop-color="#003d6d" offset="1"/>
    </linearGradient>
    <path fill="url(#_180)" d="M 27.125 12.136 C 27.125 12.136 27.318 17.175 27.34 17.733 C 26.741001 17.823 9.268 20.46 9.268 20.46 L 22.706 61.64 C 22.706 61.64 46.11 54.461998 46.809998 54.246998 C 47.298996 56.539997 48.734997 59.407997 54.586998 62.024998 C 54.586998 62.024998 58.274998 63.807 62.011997 62.781 L 62.284996 62.714996 C 62.284996 62.714996 62.273994 62.229996 62.267998 62.033997 C 62.675 62.218998 63.254997 62.479996 63.254997 62.479996 L 63.372997 62.452995 C 69.96 60.882996 74.994995 54.340996 74.994995 47.447994 C 74.994995 47.312996 74.981995 46.789993 74.981995 46.789993 C 74.981995 46.789993 71.896996 45.870995 71.79399 45.840992 C 73.32299 45.520992 75.66999 44.984993 75.66999 44.984993 C 75.66799 44.909992 74.98099 36.996994 69.07899 34.297993 C 68.16999 33.805992 66.58899 33.284992 64.942986 32.920994 C 65.08899 32.284992 67.34998 22.515995 67.34998 22.515995 L 60.504982 20.017996 C 60.504982 20.017996 53.133984 21.282995 52.559982 21.380997 C 52.398983 20.809998 49.549984 10.752996 49.549984 10.752996 L 45.110985 9.497996 L 27.125 12.136 z M 61.88 46.891 C 62.443 47.1 63.418 47.461998 63.505 47.495 C 62.991 47.601997 62.026 47.802998 61.901 47.829 C 61.893 47.5 61.888 47.264 61.88 46.891 z "/>
    <linearGradient x1="60.53" y1="36.01" x2="13.49" gradientUnits="userSpaceOnUse" y2="36.01" xlink:type="simple" xlink:actuate="onLoad" id="_181" xlink:show="other">
        <stop stop-color="#ffffff" offset="0"/>
        <stop stop-color="#ffffff" offset="0.15"/>
        <stop stop-color="#a2c2dd" offset="1"/>
    </linearGradient>
    <polygon fill="url(#_181)" points="60.531,49.674 49.17,11.101 30.692,14.063 30.828,19.788 13.489,22.696 22.936,60.912 "/>
    <linearGradient x1="22.01" y1="59.46" x2="66.29" gradientUnits="userSpaceOnUse" y2="21.96" xlink:type="simple" xlink:actuate="onLoad" id="_182" xlink:show="other">
        <stop stop-color="#cadcec" offset="0"/>
        <stop stop-color="#87a8cb" offset="1"/>
    </linearGradient>
    <polygon fill="url(#_182)" points="22.934,60.55 60.716,49.655 66.945,22.739 29.335,30.275 "/>
    <linearGradient x1="48.54" y1="31.94" x2="41.38" gradientUnits="userSpaceOnUse" y2="17.61" xlink:type="simple" xlink:actuate="onLoad" id="_183" xlink:show="other">
        <stop stop-color="#ffffff" offset="0"/>
        <stop stop-color="#ffffff" offset="0.15"/>
        <stop stop-color="#a2c2dd" offset="1"/>
    </linearGradient>
    <polygon fill="url(#_183)" points="22.972,26.816 60.479,20.379 66.945,22.739 29.335,30.275 "/>
    <linearGradient x1="39.45" y1="14.65" x2="37.3" gradientUnits="userSpaceOnUse" y2="8.82" xlink:type="simple" xlink:actuate="onLoad" id="_184" xlink:show="other">
        <stop stop-color="#ffffff" offset="0"/>
        <stop stop-color="#ffffff" offset="0.05"/>
        <stop stop-color="#a2c2dd" offset="1"/>
    </linearGradient>
    <polygon fill="url(#_184)" points="27.486,12.437 45.093,9.856 49.273,11.037 30.692,14.063 "/>
    <linearGradient x1="21.38" y1="23.27" x2="19.17" gradientUnits="userSpaceOnUse" y2="17.27" xlink:type="simple" xlink:actuate="onLoad" id="_185" xlink:show="other">
        <stop stop-color="#ffffff" offset="0"/>
        <stop stop-color="#ffffff" offset="0.05"/>
        <stop stop-color="#a2c2dd" offset="1"/>
    </linearGradient>
    <polygon fill="url(#_185)" points="9.729,20.744 27.701,18.032 30.828,19.788 13.489,22.696 "/>
    <linearGradient x1="17.65" y1="42.17" x2="28.26" gradientUnits="userSpaceOnUse" y2="45.85" xlink:type="simple" xlink:actuate="onLoad" id="_186" xlink:show="other">
        <stop stop-color="#a2c2dd" offset="0"/>
        <stop stop-color="#a2c2dd" offset="0.1"/>
        <stop stop-color="#6c83bb" offset="0.71"/>
        <stop stop-color="#003d6d" offset="0.99"/>
        <stop stop-color="#003d6d" offset="1"/>
    </linearGradient>
    <polygon fill="url(#_186)" points="22.972,26.816 22.932,61.204 29.335,30.275 "/>
    <linearGradient x1="9.73" y1="40.97" x2="22.93" gradientUnits="userSpaceOnUse" y2="40.97" xlink:type="simple" xlink:actuate="onLoad" id="_187" xlink:show="other">
        <stop stop-color="#a2c2dd" offset="0"/>
        <stop stop-color="#a2c2dd" offset="0.1"/>
        <stop stop-color="#6c83bb" offset="0.71"/>
        <stop stop-color="#003d6d" offset="0.99"/>
        <stop stop-color="#003d6d" offset="1"/>
    </linearGradient>
    <polygon fill="url(#_187)" points="9.729,20.744 22.932,61.204 13.489,22.696 "/>
    <linearGradient x1="31.07" y1="14.51" x2="27.36" gradientUnits="userSpaceOnUse" y2="17.62" xlink:type="simple" xlink:actuate="onLoad" id="_188" xlink:show="other">
        <stop stop-color="#a2c2dd" offset="0"/>
        <stop stop-color="#8ca9cf" offset="0.38"/>
        <stop stop-color="#6c83bb" offset="1"/>
    </linearGradient>
    <polygon fill="url(#_188)" points="30.692,14.063 30.828,19.788 27.701,18.032 27.486,12.437 "/>
    <linearGradient x1="64.24" y1="56.42" x2="30.83" gradientUnits="userSpaceOnUse" y2="39.79" xlink:type="simple" xlink:actuate="onLoad" id="_189" xlink:show="other">
        <stop stop-color="#ffffff" offset="0"/>
        <stop stop-color="#ffffff" offset="0.15"/>
        <stop stop-color="#a2c2dd" offset="1"/>
    </linearGradient>
    <polygon fill="url(#_189)" points="60.531,49.674 53.521,25.729 29.323,30.508 22.932,61.204 "/>
    <radialGradient gradientUnits="userSpaceOnUse" xlink:type="simple" r="18.99" xlink:actuate="onLoad" cx="58.18" id="_190" cy="45.77" xlink:show="other">
        <stop stop-color="#ffffff" offset="0"/>
        <stop stop-color="#ffffff" offset="0.05"/>
        <stop stop-color="#a2c2dd" offset="1"/>
    </radialGradient>
    <path fill="url(#_190)" d="M 74.644 47.054 C 74.84 53.88 69.840996 60.554 63.294 62.116 L 63.003 49.645 L 74.644 47.054 z "/>
    <linearGradient x1="69.21" y1="50.5" x2="65.76" gradientUnits="userSpaceOnUse" y2="45.06" xlink:type="simple" xlink:actuate="onLoad" id="_191" xlink:show="other">
        <stop stop-color="#ffffff" offset="0"/>
        <stop stop-color="#ffffff" offset="0.05"/>
        <stop stop-color="#a2c2dd" offset="1"/>
    </linearGradient>
    <polygon fill="url(#_191)" points="63.003,49.645 60.322,48.512 71.646,46.161 74.644,47.054 "/>
    <linearGradient x1="61.81" y1="48.51" x2="61.81" gradientUnits="userSpaceOnUse" y2="62.11" xlink:type="simple" xlink:actuate="onLoad" id="_192" xlink:show="other">
        <stop stop-color="#87a8cb" offset="0"/>
        <stop stop-color="#235487" offset="1"/>
    </linearGradient>
    <polygon fill="url(#_192)" points="63.003,49.645 60.322,48.512 60.589,60.89 63.296,62.114 "/>
    <linearGradient x1="73.29" y1="36.2" x2="46.12" gradientUnits="userSpaceOnUse" y2="28.11" xlink:type="simple" xlink:actuate="onLoad" id="_193" xlink:show="other">
        <stop stop-color="#e6eef4" offset="0"/>
        <stop stop-color="#a3740a" offset="0.44"/>
        <stop stop-color="#474105" offset="0.94"/>
        <stop stop-color="#474105" offset="1"/>
    </linearGradient>
    <path fill="url(#_193)" d="M 60.462 32.864 C 62.606003 32.536 67.033005 33.594997 68.975 34.628 C 68.975 34.628 65.462 33.586 63.514 33.802998 L 60.462 32.864 z "/>
    <radialGradient gradientUnits="userSpaceOnUse" xlink:type="simple" r="21.07" xlink:actuate="onLoad" cx="58.91" id="_194" cy="30.09" xlink:show="other" fx="42.72" fy="43.58">
        <stop stop-color="#e2e6e4" offset="0"/>
        <stop stop-color="#a3740a" offset="1"/>
    </radialGradient>
    <path fill="url(#_194)" d="M 63.382 33.769 C 74.258 32.858 75.309 44.609 75.313 44.747 L 63.641003 47.198 L 63.382 33.769 z "/>
    <linearGradient x1="62.08" y1="29.8" x2="62.08" gradientUnits="userSpaceOnUse" y2="46.57" xlink:type="simple" xlink:actuate="onLoad" id="_195" xlink:show="other">
        <stop stop-color="#e6eef4" offset="0"/>
        <stop stop-color="#a3740a" offset="0.44"/>
        <stop stop-color="#474105" offset="0.94"/>
        <stop stop-color="#474105" offset="1"/>
    </linearGradient>
    <polygon fill="url(#_195)" points="63.688,47.281 63.382,33.769 60.479,32.854 60.898,46.126 "/>
    <linearGradient x1="56.43" y1="37.14" x2="50.82" gradientUnits="userSpaceOnUse" y2="56.42" xlink:type="simple" xlink:actuate="onLoad" id="_196" xlink:show="other">
        <stop stop-color="#87a8cb" offset="0"/>
        <stop stop-color="#235487" offset="1"/>
    </linearGradient>
    <path fill="url(#_196)" d="M 49.304 52.767 C 49.647 56.918 51.758 60.121 54.765 61.71 L 54.732998 61.705997 C 46.760998 58.142 47.121 54.217 46.793 51.393997 L 49.304 52.767 z "/>
    <radialGradient gradientUnits="userSpaceOnUse" xlink:type="simple" r="17.84" xlink:actuate="onLoad" cx="65.45" id="_197" cy="44.17" xlink:show="other">
        <stop stop-color="#ffffff" offset="0"/>
        <stop stop-color="#ffffff" offset="0.05"/>
        <stop stop-color="#a2c2dd" offset="1"/>
    </radialGradient>
    <path fill="url(#_197)" d="M 61.931 62.442 C 55.425 64.036 49.864998 59.752003 49.265 52.77 L 61.651 49.933 L 61.931 62.442 z "/>
    <linearGradient x1="55.37" y1="53.02" x2="53.06" gradientUnits="userSpaceOnUse" y2="48.31" xlink:type="simple" xlink:actuate="onLoad" id="_198" xlink:show="other">
        <stop stop-color="#ffffff" offset="0"/>
        <stop stop-color="#ffffff" offset="0.05"/>
        <stop stop-color="#a2c2dd" offset="1"/>
    </linearGradient>
    <polygon fill="url(#_198)" points="61.649,49.936 49.265,52.771 46.791,51.393 58.879,48.758 "/>
    <linearGradient x1="55.67" y1="35.63" x2="49.99" gradientUnits="userSpaceOnUse" y2="55.16" xlink:type="simple" xlink:actuate="onLoad" id="_199" xlink:show="other">
        <stop stop-color="#87a8cb" offset="0"/>
        <stop stop-color="#235487" offset="1"/>
    </linearGradient>
    <path fill="url(#_199)" d="M 58.256 34.246 C 46.713 36.063 46.761 50.0 46.767 50.109 L 49.232998 51.534 C 49.218 51.348 61.003998 35.183 61.283997 35.152 L 58.256 34.246 z "/>
    <radialGradient gradientUnits="userSpaceOnUse" xlink:type="simple" r="21.27" xlink:actuate="onLoad" cx="64.54" id="_200" cy="35.29" xlink:show="other">
        <stop stop-color="#ffffff" offset="0"/>
        <stop stop-color="#ffffff" offset="0.05"/>
        <stop stop-color="#a2c2dd" offset="1"/>
    </radialGradient>
    <path fill="url(#_200)" d="M 49.191 51.536 C 49.172 51.336998 48.492 37.518997 61.282 35.152 L 61.568 48.733 L 49.191 51.536 z "/>
</svg>
