<?xml version="1.0" encoding="UTF-8"?>
<svg xmlns="http://www.w3.org/2000/svg" xmlns:xlink="http://www.w3.org/1999/xlink" contentScriptType="text/ecmascript" width="44" baseProfile="tiny" zoomAndPan="magnify" contentStyleType="text/css" viewBox="-1.479 0.993 44 32" height="32" preserveAspectRatio="xMidYMid meet" version="1.1">
    <g>
        <path fill="#656b6b" d="M 42.021 30.139 C 31.36 30.139 25.126 30.139 25.126 30.139 C 11.282 30.139 0.020999908 18.805 0.020999908 4.0529995 L 0.020999908 1.139 L 42.021 1.139 L 42.021 30.139 z " fill-opacity="0.01"/>
        <path fill="#656b6b" d="M 42.021 29.139 C 31.36 29.139 25.126 29.139 25.126 29.139 C 11.832999 29.139 1.0209999 18.217 1.0209999 4.0529995 L 1.0209999 1.139 L 42.021 1.139 L 42.021 29.139 z " fill-opacity="0.02"/>
        <path fill="#656b6b" d="M 42.021 28.139 C 31.36 28.139 25.126 28.139 25.126 28.139 C 12.386 28.139 2.021 17.631 2.021 4.0529995 L 2.021 1.139 L 42.021 1.139 L 42.021 28.139 z " fill-opacity="0.03"/>
        <path fill="#656b6b" d="M 42.021 27.139 C 31.36 27.139 25.126 27.139 25.126 27.139 C 12.936999 27.139 3.021 17.041 3.021 4.0529995 L 3.021 1.139 L 42.021 1.139 L 42.021 27.139 z " fill-opacity="0.06"/>
        <path fill="#656b6b" d="M 42.021 26.139 L 25.126 26.139 C 13.488 26.139 4.021 16.453 4.021 4.0529995 L 4.021 1.139 L 42.021 1.139 L 42.021 26.139 z " fill-opacity="0.05"/>
        <path fill="#656b6b" d="M 42.021 25.139 L 25.126 25.139 C 14.039999 25.139 5.021 15.868 5.021 4.0529995 L 5.021 1.139 L 42.021 1.139 L 42.021 25.139 z " fill-opacity="0.1"/>
        <path fill="#656b6b" d="M 42.021 24.139 C 31.362999 24.139 25.126 24.139 25.126 24.139 C 14.591 24.139 6.021 15.284 6.021 4.0529995 L 6.021 1.139 L 42.021 1.139 L 42.021 24.139 z " fill-opacity="0.1"/>
        <path fill="#656b6b" d="M 42.021 23.139 L 25.126 23.139 C 15.143 23.139 7.021 14.694 7.021 4.0529995 L 7.021 1.139 L 42.021 1.139 L 42.021 23.139 z " fill-opacity="0.1"/>
        <path fill="#52a1a4" d="M 42.021 21.639 L 25.576 21.639 C 16.158 21.639 8.521 13.7 8.521 3.7269993 L 8.521 1.139 L 42.021 1.139 L 42.021 21.639 z "/>
        <path fill="#52a1a4" d="M 9.021 3.726 C 9.021 13.33 16.446 21.138 25.576 21.138 L 42.021 21.138 L 42.021 22.138 L 25.576 22.138 C 15.898 22.138 8.021 13.876 8.021 3.7259998 L 8.021 1.139 L 9.021 1.139 L 9.021 3.726 z "/>
        <rect x="-1.979" width="44" fill="none" y="1.139" height="32"/>
    </g>
</svg>
