<?xml version="1.0" encoding="UTF-8"?>
<svg xmlns="http://www.w3.org/2000/svg" xmlns:xlink="http://www.w3.org/1999/xlink" contentScriptType="text/ecmascript" width="17" baseProfile="tiny" zoomAndPan="magnify" contentStyleType="text/css" viewBox="0 0 17 43" height="43" preserveAspectRatio="xMidYMid meet" version="1.0">
    <path fill="#ffffff" d="M 8.082 5.944 C 6.535 5.944 5.222 7.1519995 5.0929995 8.695 C 4.7389994 12.95 4.2589993 16.466 3.6619995 19.146 C 3.0829995 21.737 2.3359995 23.834 1.4419994 25.376999 C 1.4329995 25.394999 1.3729994 25.593998 1.3239994 25.759998 C 1.3229994 25.763998 1.3189994 25.762 1.3179994 25.763998 L 1.1449994 26.239998 C 1.1449994 26.243998 1.2639993 26.048998 1.2619994 26.056997 L 1.045 26.78 L 1.038 32.757 C 1.038 34.174 2.045 35.41 3.433 35.695 C 4.818 35.984 6.2320004 35.248 6.794 33.940998 C 7.374 32.596996 7.802 31.258999 8.229 29.925999 C 8.797 31.571999 9.338 32.962997 9.877 34.007 C 10.495 35.201 11.848 35.842 13.163 35.566 C 14.478001 35.286003 15.455 34.154003 15.537001 32.812 L 15.933001 26.312 C 15.933001 26.300001 15.758 25.220001 15.758 25.220001 L 15.595 24.755001 C 14.84 23.442001 14.282001 22.314001 13.8550005 21.226002 C 13.336 19.898003 12.873 18.280003 12.472 16.418001 C 12.034 14.359001 11.629 11.729001 11.271 8.601002 C 11.097 7.086002 9.818 5.9440017 8.292 5.9440017 L 8.082 5.944 L 8.082 5.944 z " fill-opacity="0.16"/>
    <path fill="#ffffff" d="M 8.082 6.444 C 6.792 6.444 5.698 7.4509997 5.5909996 8.736 C 5.2359996 13.012 4.752 16.551 4.1509995 19.254 C 3.5599995 21.896 2.7949996 24.039999 1.8759995 25.628 C 1.8759995 25.629 1.7499994 26.09 1.7499994 26.09 C 1.7529994 26.077 1.7849994 25.948 1.7899994 25.936 L 1.618 26.41 C 1.618 26.411 1.5400001 26.864 1.5400001 26.864 L 1.5400001 32.757 C 1.5400001 33.938 2.3790002 34.968 3.5360003 35.206 C 4.689 35.447002 5.868 34.834 6.3360004 33.745003 C 7.1290007 31.906002 7.7580004 30.126003 8.236 28.432003 C 8.904 30.522003 9.587 32.356003 10.323 33.781002 C 10.839 34.776 11.965 35.309002 13.059999 35.08 C 14.158999 34.847 14.969999 33.901 15.039 32.785004 L 15.434999 26.284004 C 15.436999 26.270004 15.268999 25.309004 15.268999 25.309004 L 15.126999 24.934004 C 14.397999 23.680004 13.825999 22.518003 13.391999 21.412004 C 12.862999 20.057005 12.389999 18.412004 11.985999 16.526005 C 11.544999 14.452005 11.138 11.8060055 10.776999 8.661005 C 10.63 7.396 9.563 6.444 8.291 6.444 L 8.082 6.444 z " fill-opacity="0.17"/>
    <path fill="#ffffff" d="M 8.082 6.944 C 7.0499997 6.944 6.1749997 7.75 6.0889997 8.778 C 5.733 13.076 5.245 16.637001 4.639 19.362 C 4.0369997 22.053 3.2529998 24.245998 2.3079998 25.879 C 2.267 25.949 2.2489998 26.022 2.2489998 26.09 C 2.2489998 26.098 2.258 26.1 2.258 26.108 C 2.18 26.32 2.085 26.58 2.085 26.58 C 2.065 26.635 2.038 26.803 2.038 26.862999 L 2.038 32.756 C 2.038 33.7 2.709 34.526 3.6350002 34.715 C 4.557 34.908 5.5 34.418 5.875 33.547 C 6.7139997 31.604 7.383 29.717001 7.863 27.943 C 7.863 27.943 8.005 27.308 8.164 26.601002 C 8.929999 29.271002 9.785999 31.652002 10.766 33.547 C 11.179999 34.344 12.0789995 34.771 12.957 34.586002 C 13.835 34.398003 14.483999 33.644 14.539 32.750004 L 14.934999 26.250004 C 14.934999 26.235004 14.775 25.397003 14.775 25.397003 L 14.662 25.115004 C 13.953 23.904003 13.3689995 22.719004 12.926 21.591003 C 12.387 20.208004 11.905 18.537003 11.495999 16.626003 C 11.051 14.536003 10.640999 11.873003 10.276999 8.713003 C 10.162999 7.703003 9.308 6.9420033 8.292 6.9420033 L 8.082 6.944 L 8.082 6.944 z " fill-opacity="0.19"/>
    <path fill="#ffffff" d="M 8.082 7.444 C 7.3079996 7.444 6.651 8.047999 6.587 8.819 C 6.229 13.14 5.738 16.724 5.127 19.470001 C 4.514 22.212002 3.7099998 24.452002 2.7399998 26.128002 C 2.7249997 26.152002 2.8289998 25.997002 2.8189998 26.024002 L 2.555 26.75 C 2.535 26.805 2.538 26.82 2.538 26.88 L 2.538 32.754997 C 2.538 33.463997 3.0410001 34.080997 3.7350001 34.225 C 4.426 34.371 5.1340003 34.002 5.4160004 33.348 C 6.2450004 31.428 6.906 29.564999 7.3810005 27.813 C 7.6500006 26.824999 7.8880005 25.719 8.110001 24.560999 C 8.156 24.765999 8.252001 25.189999 8.252001 25.189999 C 9.087001 28.402998 10.084001 31.137 11.210001 33.319 C 11.520001 33.918 12.195001 34.237 12.856001 34.098 C 13.512001 33.957 14.001001 33.391 14.042001 32.721 L 14.438001 26.221 C 14.438001 26.192001 14.2890005 25.506 14.2890005 25.506 C 14.278001 25.454 14.2630005 25.415 14.233001 25.37 C 13.510001 24.137001 12.916 22.927 12.462001 21.775002 C 11.911001 20.364002 11.423 18.667002 11.009001 16.732002 C 10.561001 14.628002 10.149001 11.950003 9.782001 8.772002 C 9.693 8.015 9.055 7.444 8.291 7.444 L 8.082 7.444 z " fill-opacity="0.22"/>
    <path fill="#ffffff" d="M 8.082 7.944 C 7.566 7.944 7.128 8.347 7.085 8.861 C 6.726 13.202 6.231 16.808 5.615 19.579 C 4.99 22.371 4.1689997 24.658 3.1729999 26.379002 C 3.1729999 26.380001 3.0379999 26.881002 3.0379999 26.881002 L 3.0379999 32.756004 C 3.0379999 33.229004 3.373 33.641003 3.836 33.735004 C 4.297 33.834003 4.769 33.589005 4.957 33.153004 C 5.776 31.257004 6.43 29.416004 6.8989997 27.682003 C 7.345 26.042004 7.7289996 24.147003 8.040999 22.047003 C 8.040999 22.047003 8.044999 22.014002 8.046 22.005003 C 8.263 23.104004 8.49 24.115004 8.735999 25.065002 C 9.562999 28.242002 10.544999 30.942001 11.653999 33.090004 C 11.860999 33.489002 12.311999 33.702003 12.751999 33.610004 C 13.189999 33.516003 13.515999 33.139004 13.541999 32.692005 L 13.937999 26.192005 C 13.937999 26.190004 13.800999 25.626005 13.800999 25.626005 C 13.0669985 24.371006 12.457998 23.140005 11.994999 21.960005 C 11.4349985 20.524004 10.936999 18.801004 10.516999 16.838005 C 10.065999 14.720005 9.651999 12.026005 9.284999 8.831005 C 9.227 8.325 8.8 7.944 8.291 7.944 L 8.082 7.944 z " fill-opacity="0.26"/>
    <path fill="#ffffff" d="M 8.082 8.444 C 7.8219995 8.444 7.6049995 8.644 7.5829997 8.902 C 7.2219996 13.266001 6.7239995 16.895 6.1029997 19.687 C 5.4669995 22.529 4.627 24.865 3.6049998 26.629 C 3.5609999 26.705 3.5379999 26.792 3.5379999 26.88 L 3.5379999 32.754997 C 3.5379999 32.991997 3.705 33.194996 3.9369998 33.243996 C 4.1689997 33.292995 4.403 33.170994 4.4969997 32.952995 C 5.3079996 31.075994 5.9529996 29.257996 6.416 27.549995 C 6.857 25.927996 7.237 24.051996 7.545 21.972996 C 7.545 21.972996 7.7460003 20.272995 7.949 18.551996 C 8.288 20.745996 8.688 22.898996 9.219 24.937996 C 10.035 28.079996 11.004 30.744995 12.098 32.859997 C 12.202 33.060997 12.426 33.167995 12.646999 33.121 C 12.867 33.073997 13.027999 32.886997 13.042999 32.662 L 13.438999 26.161 C 13.444999 26.060999 13.421 25.963999 13.372999 25.877998 C 12.622999 24.600998 12.004 23.342999 11.530999 22.141998 C 10.961999 20.683998 10.456999 18.933998 10.030999 16.942999 C 9.575999 14.807999 9.157999 12.098 8.790999 8.887999 C 8.761 8.634998 8.546999 8.444999 8.292999 8.444999 L 8.082 8.444999 z " fill-opacity="0.28"/>
    <path fill="#dcdcdc" d="M 11.063 22.324 C 10.479 20.824999 9.971 19.064999 9.540999 17.046 C 9.080999 14.891999 8.664 12.191 8.292 8.943999 L 8.082 8.943999 C 7.717 13.353999 7.22 16.971 6.592 19.796 C 5.942 22.703 5.09 25.064999 4.038 26.881 L 4.038 32.756 C 4.842 30.895 5.474 29.117 5.934 27.42 C 6.372 25.807 6.745 23.967 7.051 21.9 C 7.284 20.34 7.559 18.021 7.873 14.943 L 7.95 14.943 C 8.307 18.404 8.892 21.694 9.703 24.813 C 10.516 27.932 11.461 30.538 12.543 32.63 L 12.939 26.130001 C 12.171 24.822 11.546 23.553 11.063 22.324 z "/>
</svg>
