<?xml version="1.0" encoding="UTF-8"?>
<svg xmlns="http://www.w3.org/2000/svg" xmlns:xlink="http://www.w3.org/1999/xlink" contentScriptType="text/ecmascript" width="44" baseProfile="tiny" zoomAndPan="magnify" contentStyleType="text/css" viewBox="-1.479 0.993 44 60" height="60" preserveAspectRatio="xMidYMid meet" version="1.1">
    <g>
        <path fill="#656b6b" d="M 0.021 61.14 L 0.021 23.0 L 0.08 21.726 C 0.679 9.369 10.067 1.46 24.578 1.139 L 42.021 1.139 L 42.021 61.139 L 0.021 61.139 z " fill-opacity="0.01"/>
        <path fill="#656b6b" d="M 1.021 61.14 L 1.021 23.0 L 1.0780001 21.785 C 1.65 9.995 10.664 2.45 24.599 2.139 L 42.021004 2.139 L 42.021004 61.139 L 1.021 61.139 z " fill-opacity="0.02"/>
        <path fill="#656b6b" d="M 2.021 61.14 L 2.021 23.0 L 2.076 21.847 C 2.621 10.622 11.259 3.435 24.623 3.139 L 42.021 3.139 L 42.021 61.139 L 2.021 61.139 z " fill-opacity="0.03"/>
        <path fill="#656b6b" d="M 3.021 61.14 L 3.021 23.0 L 3.073 21.906 C 3.591 11.25 11.857 4.424 24.644 4.139 L 42.021 4.139 L 42.021 61.139 L 3.021 61.139 z " fill-opacity="0.05"/>
        <path fill="#656b6b" d="M 4.021 61.14 L 4.021 23.0 L 4.071 21.968 C 4.5620003 11.878 12.455 5.4090004 24.668 5.1380005 L 42.022 5.1380005 L 42.022 61.138 L 4.021 61.138 L 4.021 61.14 z " fill-opacity="0.06"/>
        <path fill="#656b6b" d="M 5.021 61.14 L 5.021 23.0 L 5.069 22.028 C 5.533 12.505 13.049999 6.398 24.689001 6.1379995 L 42.021004 6.1379995 L 42.021004 61.138 L 5.0210037 61.138 L 5.0210037 61.14 z " fill-opacity="0.1"/>
        <path fill="#656b6b" d="M 6.021 61.14 L 6.021 23.0 L 6.067 22.091 C 6.5039997 13.127999 13.646999 7.384 24.710999 7.1379995 L 42.023 7.1379995 L 42.023 61.138 L 6.021 61.138 L 6.021 61.14 z " fill-opacity="0.1"/>
        <path fill="#656b6b" d="M 7.021 61.14 L 7.021 23.0 C 7.021 22.702 7.052 22.427 7.066 22.138 C 7.519 12.825001 15.195 8.351001 24.734 8.1380005 C 24.793 8.136001 31.526 8.136001 42.021 8.136001 L 42.021 61.137 L 7.021 61.137 L 7.021 61.14 z " fill-opacity="0.1"/>
        <path fill="#52a1a4" d="M 25.521 6.139 C 16.423 6.139 9.021 13.54 9.021 22.639 L 9.021 61.139 L 8.021 61.139 L 8.021 22.639 C 8.021 12.975 15.855 5.139 25.521 5.139 L 42.021 5.139 L 42.021 6.139 C 31.939 6.139 25.521 6.139 25.521 6.139 z "/>
        <path fill="#52a1a4" d="M 9.021 61.14 L 9.021 22.64 C 9.021 13.540999 16.423 6.1399994 25.521 6.1399994 C 25.521 6.1399994 31.939 6.1399994 42.021 6.1399994 L 42.021 61.14 L 9.021 61.14 z "/>
        <rect x="-1.979" width="44" fill="none" y="1.139" height="60"/>
    </g>
</svg>
