<?xml version="1.0" encoding="UTF-8"?>
<svg xmlns="http://www.w3.org/2000/svg" xmlns:xlink="http://www.w3.org/1999/xlink" contentScriptType="text/ecmascript" width="44" baseProfile="tiny" zoomAndPan="magnify" contentStyleType="text/css" viewBox="-1.479 0.993 44 60" height="60" preserveAspectRatio="xMidYMid meet" version="1.1">
    <g>
        <path fill="#656b6b" d="M -1.979 32.14 L 18.521 32.14 C 30.375 32.14 40.021 41.786 40.021 53.64 L 40.021 61.14 L -1.9790001 61.14 L -1.9790001 32.14 z " fill-opacity="0.01"/>
        <path fill="#656b6b" d="M -1.979 33.14 L 18.521 33.14 C 29.826 33.14 39.021 42.336 39.021 53.64 L 39.021 61.14 L -1.9790001 61.14 L -1.9790001 33.14 z " fill-opacity="0.02"/>
        <path fill="#656b6b" d="M -1.979 34.14 L 18.521 34.14 C 29.272999 34.14 38.021 42.888 38.021 53.64 L 38.021 61.14 L -1.9790001 61.14 L -1.9790001 34.14 z " fill-opacity="0.03"/>
        <path fill="#656b6b" d="M -1.979 35.14 L 18.521 35.14 C 28.722 35.14 37.021 43.439 37.021 53.64 L 37.021 61.14 L -1.9790001 61.14 L -1.9790001 35.14 z " fill-opacity="0.05"/>
        <path fill="#656b6b" d="M -1.979 36.14 C 10.265 36.14 18.521 36.14 18.521 36.14 C 28.168999 36.14 36.021 43.992 36.021 53.64 L 36.021 61.14 L -1.9790001 61.14 L -1.9790001 36.14 z " fill-opacity="0.06"/>
        <path fill="#656b6b" d="M -1.979 37.14 C 10.268 37.14 18.521 37.14 18.521 37.14 C 27.621 37.14 35.021 44.541 35.021 53.64 L 35.021 61.14 L -1.9790001 61.14 L -1.9790001 37.14 z " fill-opacity="0.1"/>
        <path fill="#656b6b" d="M -1.979 38.14 C 10.271 38.14 18.521 38.14 18.521 38.14 C 27.068 38.14 34.021 45.093 34.021 53.64 L 34.021 61.14 L -1.9790001 61.14 L -1.9790001 38.14 z " fill-opacity="0.1"/>
        <path fill="#656b6b" d="M -1.979 39.14 C 10.281 39.14 18.521 39.14 18.521 39.14 C 26.515999 39.14 33.021 45.646 33.021 53.64 L 33.021 61.14 L -1.9790001 61.14 L -1.9790001 39.14 z " fill-opacity="0.1"/>
        <path fill="#52a1a4" d="M 35.021 53.64 C 35.021 44.541 27.621 37.14 18.521 37.14 L -1.9790001 37.14 L -1.9790001 36.14 L 18.521 36.14 C 28.186 36.14 36.021 43.975998 36.021 53.64 L 36.021 61.14 L 35.021 61.14 L 35.021 53.64 z "/>
        <path fill="#52a1a4" d="M -1.979 37.14 L 18.521 37.14 C 27.621 37.14 35.021 44.541 35.021 53.64 L 35.021 61.14 L -1.9790001 61.14 L -1.9790001 37.14 z "/>
        <rect x="-1.979" width="44" fill="none" y="1.139" height="60"/>
    </g>
</svg>
