<?xml version="1.0" encoding="UTF-8"?>
<svg xmlns="http://www.w3.org/2000/svg" xmlns:xlink="http://www.w3.org/1999/xlink" contentScriptType="text/ecmascript" width="17" baseProfile="tiny" zoomAndPan="magnify" contentStyleType="text/css" viewBox="0 0 17 43" height="43" preserveAspectRatio="xMidYMid meet" version="1.1">
    <rect width="17" height="43"/>
    <path fill="#ffffff" d="M 11.925 25.417 C 11.518001 24.435999 11.215 23.35 11.022 22.161 C 10.772 20.66 10.649 18.81 10.649 16.612 C 10.649 15.724999 10.703 14.686999 10.807 13.5 C 10.87 12.805 10.975 11.753 11.125 10.347 C 10.359 10.609 9.879 10.767 9.682 10.8220005 C 8.7890005 11.084001 7.991 11.215 7.2790003 11.215 C 6.3240004 11.215 5.6400003 10.961 5.2260003 10.451 C 5.0280004 10.203 4.82 9.701 4.604 8.944 L 4.156 9.026 C 4.156 9.493 4.142 10.179 4.1150002 11.085 C 4.089 11.991 4.0750003 12.67 4.0750003 13.122 C 4.0750003 14.193 4.2450004 14.9 4.5860004 15.243 C 5.0160003 15.682 5.9300003 15.901 7.3280005 15.901 C 7.7490005 15.901 8.291 15.805 8.954 15.613 C 9.160001 15.558 9.478001 15.469 9.908001 15.346 C 9.720001 17.83 9.621001 19.188 9.611001 19.418999 C 9.568001 20.251999 9.546001 21.064999 9.546001 21.855999 C 9.546001 24.081 9.705002 25.949 10.025002 27.463999 C 10.283002 28.706 10.661001 29.742998 11.158002 30.574 C 11.452002 31.081 11.887002 31.628 12.465002 32.214 L 12.977002 27.526001 C 12.416 26.462 12.066 25.76 11.925 25.417 z "/>
</svg>
