<?xml version="1.0" encoding="UTF-8"?>
<svg xmlns="http://www.w3.org/2000/svg" xmlns:xlink="http://www.w3.org/1999/xlink" contentScriptType="text/ecmascript" width="24" baseProfile="tiny" zoomAndPan="magnify" contentStyleType="text/css" viewBox="0 0 24 26" height="26" preserveAspectRatio="xMidYMid meet" version="1.0">
    <radialGradient gradientUnits="userSpaceOnUse" xlink:type="simple" r="18.51" xlink:actuate="onLoad" cx="11.24" id="_5" cy="6.43" xlink:show="other">
        <stop stop-color="#ffffff" offset="0"/>
        <stop stop-color="#a2c2dd" offset="0.53"/>
        <stop stop-color="#6c83bb" offset="0.87"/>
        <stop stop-color="#003d6d" offset="1"/>
    </radialGradient>
    <circle fill="url(#_5)" r="10.005" cx="13.21" cy="12.859"/>
    <radialGradient gradientUnits="userSpaceOnUse" xlink:type="simple" r="10.94" xlink:actuate="onLoad" cx="12.88" id="_6" cy="4.95" xlink:show="other">
        <stop stop-color="#a2c2dd" offset="0"/>
        <stop stop-color="#a2c2dd" offset="0.1"/>
        <stop stop-color="#6c83bb" offset="0.71"/>
        <stop stop-color="#003d6d" offset="0.99"/>
        <stop stop-color="#003d6d" offset="1"/>
    </radialGradient>
    <path fill="url(#_6)" d="M 16.855 3.638 C 16.855 3.638 16.263 3.402 16.211 3.351 C 15.959001 3.285 14.252001 2.828 13.543 2.9290001 L 14.3880005 4.212 C 14.369 4.652 16.464 5.344 16.720001 5.2599998 C 16.972002 5.1759996 17.495 5.192 17.681002 5.2089996 C 18.696001 5.5309997 16.836002 4.4319997 16.769001 4.4319997 C 15.773001 4.2289996 15.418001 3.9589996 15.316001 3.7899997 C 15.214001 3.6199996 16.210001 3.9079998 16.396002 3.9929998 C 16.581001 4.0769997 17.630001 4.1109996 17.968002 4.4309998 C 18.304003 4.753 18.558002 4.803 18.728003 4.956 C 18.896002 5.106 19.503002 5.411 19.538002 5.495 C 19.573002 5.58 19.944002 6.001 19.928001 5.665 C 19.911001 5.327 18.696001 4.466 18.240002 4.196 C 17.699 4.061 16.855 3.638 16.855 3.638 z "/>
    <radialGradient gradientUnits="userSpaceOnUse" xlink:type="simple" r="14.62" xlink:actuate="onLoad" cx="12.18" id="_7" cy="8.33" xlink:show="other">
        <stop stop-color="#e6eef4" offset="0"/>
        <stop stop-color="#4a9900" offset="0.44"/>
        <stop stop-color="#0e4e58" offset="0.94"/>
        <stop stop-color="#0e4e58" offset="1"/>
    </radialGradient>
    <path fill="url(#_7)" d="M 10.6 3.453 C 10.955 3.427 9.993 3.825 10.178 4.23 C 10.127001 4.364 9.994 4.668 10.145 4.718 C 10.2960005 4.77 10.417001 5.12 10.938001 4.939 C 11.049001 4.9 11.311001 5.005 11.311001 5.005 C 11.311001 5.005 11.344001 5.715 11.563001 5.7980003 C 11.784 5.8820004 11.902 6.0010004 11.934001 6.2200003 C 11.969001 6.4410005 13.166001 6.76 13.320001 6.76 C 13.471001 6.76 14.079 6.2710004 14.214001 6.254 C 14.991001 6.277 15.683001 6.895 15.818001 6.912 C 15.953001 6.9290004 16.425001 7.0810003 16.308 7.672 C 16.357 7.722 17.388 8.534 17.388 8.23 C 17.388 7.9249997 17.167 7.0129995 17.472 7.2999997 C 17.777 7.587 18.248001 7.6559997 18.062 7.891 C 17.877 8.129 17.743 8.448 17.894001 8.465 C 18.045002 8.482 18.181002 8.667 18.130001 9.056 C 18.079 9.445 18.670002 9.495999 18.789001 9.224999 C 18.905 8.955999 19.515001 9.780999 19.515001 9.780999 L 19.449001 10.374 L 20.732002 11.217 C 20.732002 11.217 21.339003 11.741 21.355001 11.842 C 21.373001 11.943 21.829002 13.443 21.660002 13.833 C 21.491001 14.223001 21.321001 15.150001 20.933002 15.268 C 20.543003 15.387 19.821003 15.561 19.751003 15.622 C 19.095003 16.188 18.789003 17.428999 18.753004 17.497 C 18.722004 17.565 18.181004 18.442 18.399004 19.05 C 18.620005 19.654999 17.944004 19.994999 17.893003 20.129 C 17.842003 20.267 17.069004 21.763 16.137003 21.581 C 15.936003 21.681 15.479003 21.730999 15.125003 21.276 C 15.021003 21.192 14.753003 20.585999 14.753003 20.585999 L 12.643003 17.216 C 12.643003 17.216 12.296003 16.746 12.171003 16.435 C 12.085003 16.213999 12.035004 15.995999 12.575004 16.13 C 13.115004 16.266998 13.655004 16.147999 13.165004 15.842999 C 12.895 15.773 12.0 15.369 12.0 15.369 L 10.936 14.425 C 10.936 14.425 10.665 14.087 11.34 13.613 C 11.444 13.513 4.928 13.613 4.846 13.665 C 4.7580004 13.714 4.44 14.068 4.354 13.478 C 4.27 12.887 4.862 12.346 4.862 12.346 C 4.862 12.346 4.405 10.844999 4.288 10.592 L 5.2330003 8.989 L 5.4360003 8.161 L 4.946 8.397 C 4.946 8.397 4.846 8.397 4.913 8.026 C 5.0150003 8.044 5.32 7.942 5.386 7.909 C 5.453 7.874 6.349 6.0179996 6.349 6.0179996 L 7.561 5.58 L 8.084 4.448 C 8.236 4.21 9.215 3.553 10.6 3.453 z M 18.971 10.404 L 18.617 10.099 C 18.617 10.099 18.076 9.813 17.891 9.662 C 17.735 9.533 16.961 10.488 16.961 10.488 C 16.961 10.488 17.114 10.875999 17.182001 10.96 C 16.928001 10.943 16.592001 10.589 16.592001 10.589 C 17.080002 9.966 16.827002 9.847 16.827002 9.847 L 16.437002 10.32 L 16.472002 10.657 C 16.472002 10.657 16.218002 11.297999 16.099003 11.297999 C 15.980003 11.297999 15.948003 10.875999 15.948003 10.875999 L 15.746003 10.825 C 15.746003 10.825 15.543003 11.432 15.443003 11.517 C 15.341002 11.6 14.747003 11.55 14.513002 11.871 C 14.497003 12.766001 15.087003 12.58 15.205003 12.5460005 C 15.493003 12.5460005 16.065002 12.343 16.304003 12.175 C 16.539003 12.008 16.742002 12.175 16.894003 12.362 C 17.045002 12.547001 17.789003 11.535001 17.789003 11.535001 C 17.789003 11.535001 17.663004 11.036001 17.768003 10.93 C 18.459003 10.661 19.157003 10.59 19.157003 10.59 L 19.293003 10.422 L 18.971 10.404 z M 15.055 7.823 C 15.055 7.924 15.360001 7.975 15.445001 8.211 C 15.527 8.448001 16.034 8.330001 16.051 8.245001 C 16.098001 8.035001 15.570001 7.869001 15.207001 7.283001 C 15.16 7.208 15.055 7.721 15.055 7.823 z M 13.637 10.758 C 14.27 10.873 14.92 10.826 15.172 10.793 C 15.4279995 10.758 15.172 10.27 14.971 10.049 C 14.7699995 9.83 14.599999 10.134 14.516 10.168 C 14.516 10.168 13.659 10.227 13.637 10.758 z M 14.143 14.051 L 14.11 14.339 C 14.11 14.339 13.167 15.073999 13.655 15.639 C 13.9939995 15.536 14.297 14.912 14.382 14.794 C 14.466 14.674999 14.431 14.337999 14.431 14.337999 C 14.431 14.337999 14.8619995 13.327 14.855 13.223 C 14.819 12.751 14.145 14.05 14.143 14.051 z M 12.34 12.936 L 12.0 13.257 L 11.512 13.426 C 11.409 13.830999 11.967 13.881 11.967 13.881 L 12.573 13.205999 L 12.592 12.919999 L 12.34 12.936 z "/>
    <linearGradient x1="9.84" y1="17.2" x2="7.82" gradientUnits="userSpaceOnUse" y2="21.17" xlink:type="simple" xlink:actuate="onLoad" id="_8" xlink:show="other">
        <stop stop-color="#a2c2dd" offset="0"/>
        <stop stop-color="#a2c2dd" offset="0.1"/>
        <stop stop-color="#6c83bb" offset="0.71"/>
        <stop stop-color="#003d6d" offset="0.99"/>
        <stop stop-color="#003d6d" offset="1"/>
    </linearGradient>
    <path fill="url(#_8)" d="M 7.016 20.71 L 15.599999 20.689 L 15.580999 16.972 L 6.975 16.972 L 10.184 13.674 L 7.4630003 10.953 L 3.436 14.98 C 4.266 18.833 7.016 20.708 7.016 20.71 z "/>
    <polygon fill="#235487" points="0.536,18.831 7.393,25.688 9.178,23.9 5.301,20.025 14.908,20.025 14.908,17.631 5.303,17.631 9.178,13.755 7.393,11.971 "/>
</svg>
