<?xml version="1.0" encoding="UTF-8"?>
<svg xmlns="http://www.w3.org/2000/svg" xmlns:xlink="http://www.w3.org/1999/xlink" contentScriptType="text/ecmascript" width="24" baseProfile="tiny" zoomAndPan="magnify" contentStyleType="text/css" viewBox="0 0 24 26" height="26" preserveAspectRatio="xMidYMid meet" version="1.0">
    <path fill="#496da2" d="M 16.063 17.717 L 12.631 13.855999 L 14.417999 12.192999 L 17.956 15.839999 C 17.873 16.412 16.958 17.654 16.063 17.717 z "/>
    <linearGradient x1="12.38" y1="6.73" x2="5.86" gradientUnits="userSpaceOnUse" y2="9.5" xlink:type="simple" xlink:actuate="onLoad" id="_3" xlink:show="other">
        <stop stop-color="#a2c2dd" offset="0"/>
        <stop stop-color="#ffffff" offset="1"/>
    </linearGradient>
    <path fill="url(#_3)" d="M 8.996 2.841 C 11.871 3.0110002 14.656 5.613 15.059 8.2630005 C 15.462 10.911 13.457 12.923 10.580999 12.751 C 7.7059994 12.581 5.0469995 10.292 4.642999 7.6440005 C 4.236 4.992 6.117 2.67 8.996 2.841 z " fill-opacity="0.51"/>
    <linearGradient x1="10.54" y1="7.26" x2="11.8" gradientUnits="userSpaceOnUse" y2="5.7" xlink:type="simple" xlink:actuate="onLoad" id="_4" xlink:show="other">
        <stop stop-color="#a2c2dd" offset="0"/>
        <stop stop-color="#ffffff" offset="1"/>
    </linearGradient>
    <path fill="url(#_4)" d="M 7.66 3.521 C 11.245 2.7089999 15.514999 6.666 13.349 11.084 C 13.932 7.855 10.725 3.937 7.66 3.521 z " fill-opacity="0.8"/>
    <path fill="#496da2" d="M 8.681 1.75 C 10.91 1.563 14.865999 3.83 15.577 7.084 C 16.515 11.375 14.083 14.607 10.729 14.703 C 6.262 14.828 3.434 11.607 3.124 8.37 C 2.807 5.054 5.518 2.015 8.681 1.75 z M 4.641 7.584 C 5.047 10.232 7.7039995 12.519 10.579 12.688 C 13.457001 12.8619995 15.462 10.849999 15.057001 8.202 C 14.655001 5.554 11.934001 2.6689997 9.057001 2.4989996 C 6.18 2.328 4.236 4.931 4.641 7.584 z "/>
    <path fill="#87a8cb" d="M 17.027 14.301 L 22.5 19.432 C 22.75 21.036 20.882 22.294998 19.396 22.050999 L 14.38 16.387 L 14.575 16.054998 C 15.521999 15.872998 16.669 15.216998 16.616 14.425999 L 17.027 14.301 z "/>
    <path fill="#cadcec" d="M 14.381 16.391 L 14.415999 15.871 C 15.497999 15.81 16.337 15.017 16.463 14.295 L 17.026 14.301 C 17.02 15.72 15.268 16.658 14.381 16.391 z "/>
    <path fill="#496da2" d="M 14.388 15.82 L 14.381 16.39 C 14.969999 16.567999 15.834 16.157999 15.907999 16.077 L 15.649999 15.436 C 15.371 15.613 14.822 15.869 14.388 15.82 z "/>
    <path fill="#235487" d="M 14.38 16.387 L 19.416 22.078 C 20.09 22.067999 20.758 21.959 21.107 21.714998 L 15.906 16.078 C 15.41 16.336 14.79 16.451 14.38 16.387 z "/>
    <path fill="#496da2" d="M 19.398 22.076 C 22.103 22.798 23.177 21.271 22.499 19.43 C 22.431 21.615 20.377 22.076 19.398 22.076 z "/>
    <path fill="#235487" d="M 15.65 15.439 L 13.4 13.125 C 12.884 13.437 12.884999 14.154 12.884999 14.154 L 14.388999 15.84 C 14.842 15.873 15.525 15.525 15.65 15.439 z "/>
    <path fill="#235487" d="M 10.348 13.229 C 11.785999 13.206 13.094 13.058001 14.035999 12.083 C 16.178 9.874001 15.874 6.4240003 13.351999 3.979 C 10.830999 1.5340002 7.6879992 1.3370001 5.5359993 3.54 C 3.7659993 5.354 3.4539993 8.889999 5.9749994 11.333 C 7.292 12.612 8.637 13.256 10.348 13.229 z M 10.338 12.966 C 8.887 12.988999 7.408 12.375 6.2770004 11.276999 C 4.1520004 9.216999 3.8510003 6.0629992 5.6070004 4.2499995 C 7.3690004 2.4349995 10.529 2.6369996 12.656 4.6989994 C 14.781 6.7609997 15.081 9.914999 13.3220005 11.727999 C 12.566 12.508 11.506 12.948 10.338 12.966 z "/>
    <path fill="#87a8cb" d="M 5.945 11.675 C 7.2650003 12.956 9.004 13.675 10.716 13.649 C 12.153 13.627 13.462999 13.078 14.403999 12.1050005 C 16.546 9.897 16.237999 6.1130004 13.716 3.6640005 C 11.195 1.2160006 7.4029994 1.0250006 5.257 3.2340004 C 3.115 5.445 3.425 9.232 5.945 11.675 z M 5.975 3.934 C 7.7349997 2.117 10.896999 2.319 13.021999 4.383 C 15.148999 6.443 15.448 9.597 13.69 11.41 C 12.931999 12.189 11.872999 12.628 10.702 12.648 C 9.254 12.672 7.7739997 12.059 6.6449995 10.96 C 4.518 8.898 4.218 5.744 5.975 3.934 z "/>
</svg>
