<?xml version="1.0" encoding="UTF-8"?>
<svg xmlns="http://www.w3.org/2000/svg" xmlns:xlink="http://www.w3.org/1999/xlink" contentScriptType="text/ecmascript" width="17" baseProfile="tiny" zoomAndPan="magnify" contentStyleType="text/css" viewBox="0 0 17 43" height="43" preserveAspectRatio="xMidYMid meet" version="1.0">
    <path fill="#ffffff" d="M 4.632 5.967 C 3.372 6.113 2.336 7.042 2.055 8.28 L 1.118 12.4 C 1.108 12.459 1.07 12.7699995 1.07 12.7699995 L 1.08 13.054999 L 1.189 13.839999 C 1.198 13.888999 1.3510001 14.367999 1.3510001 14.367999 C 2.605 16.65 3.476 18.473 4.05 20.019999 C 4.6190004 21.553999 5.124 23.405998 5.551 25.520998 C 5.551 25.520998 5.62 25.676998 5.649 25.745998 C 5.6730003 25.895998 6.2590003 29.623999 6.2590003 29.623999 L 6.985 33.822998 C 7.2320004 35.267 8.475 36.315998 9.942 36.315998 L 10.423 36.315998 C 12.048 36.315998 13.395 34.990997 13.423 33.361 L 13.451 31.798 C 13.451 31.795 13.478001 29.673 13.478001 29.673 C 13.478001 27.134 13.404 25.069 13.257001 23.534 C 13.116001 22.041 12.900001 20.703001 12.622001 19.527 C 13.589001 19.013 14.352001 18.371 14.806001 17.560001 C 15.558001 16.210001 15.941001 14.507002 15.941001 12.497002 L 15.912001 10.573002 L 15.8220005 8.794002 C 15.820001 8.776002 15.312 7.3930016 15.312 7.3930016 C 15.177 6.937 14.833 6.59 14.305 6.4 L 13.393001 6.077 C 13.387001 6.0750003 13.1640005 6.025 13.1640005 6.025 L 12.779 5.98 L 12.101 6.016 C 10.631 6.14 9.48 7.29 9.357 8.752 C 9.304 9.389 9.247001 9.82 9.195001 10.144 C 9.146 10.088 9.1 10.049 9.047 9.982 C 8.68 9.519 8.217 8.724 7.671 7.616 C 7.114 6.478 5.893 5.814 4.632 5.967 z " fill-opacity="0.16"/>
    <path fill="#ffffff" d="M 4.69 6.463 C 3.64 6.585 2.777 7.359 2.543 8.39 L 1.605 12.512001 C 1.605 12.515001 1.566 12.831001 1.566 12.831001 L 1.578 13.024001 L 1.683 13.770001 C 1.706 13.864001 1.823 14.207002 1.823 14.207002 C 3.0419998 16.411001 3.937 18.281002 4.5179996 19.848001 C 5.0959997 21.407001 5.608 23.283 6.0399995 25.425001 C 6.0489993 25.471 6.0949993 25.529001 6.1299996 25.592001 C 6.161 25.788 6.752 29.547 6.752 29.547 L 7.4769998 33.739002 C 7.6829996 34.943 8.719 35.818 9.941 35.818 L 10.421 35.818 C 11.775 35.818 12.898 34.713 12.921 33.353 L 12.948999 31.79 C 12.948999 31.787 12.976999 29.675001 12.976999 29.674002 C 12.976999 27.151001 12.902999 25.104002 12.757999 23.583002 C 12.6119995 22.021002 12.384999 20.621002 12.089999 19.421001 C 12.0859995 19.407001 12.066999 19.342001 12.0529995 19.300001 C 13.066999 18.838001 13.875 18.199001 14.3689995 17.318 C 15.0789995 16.045 15.438999 14.423 15.438999 12.500001 L 15.409999 10.584001 L 15.320999 8.8220005 C 15.317999 8.794001 14.842999 7.5770006 14.842999 7.5770006 C 14.693 7.075001 14.271 6.923001 14.134 6.8730006 L 13.224 6.5500007 C 13.189 6.5380006 13.144 6.5290008 13.107 6.5250006 L 12.715 6.4770007 L 12.1310005 6.5160007 C 10.9140005 6.619001 9.956 7.578001 9.853001 8.795001 C 9.724001 10.299001 9.574 10.855001 9.523001 11.012001 C 9.334001 10.958001 9.058001 10.807001 8.651001 10.291001 C 8.2630005 9.802001 7.781001 8.977001 7.219001 7.8370013 C 6.759 6.89 5.741 6.336 4.69 6.463 z " fill-opacity="0.17"/>
    <path fill="#ffffff" d="M 4.749 6.959 C 3.908 7.057 3.218 7.676 3.031 8.5 L 2.093 12.623 C 2.083 12.667 2.067 12.775001 2.067 12.831 C 2.067 12.837 2.0779998 12.989 2.0779998 12.989 L 2.1799998 13.699 C 2.1799998 13.700001 2.2979999 14.0460005 2.2979999 14.0460005 C 3.494 16.192001 4.3999996 18.086 4.988 19.674 C 5.575 21.257 6.094 23.159 6.532 25.326 C 6.543 25.383 6.586 25.407 6.614 25.447 C 6.6679997 26.089 6.857 27.205 7.2469997 29.462 L 7.9719996 33.654 C 8.137 34.618 8.966 35.318 9.943 35.318 L 10.422999 35.318 C 11.506 35.318 12.403 34.431 12.422999 33.343002 L 12.450999 31.780003 C 12.450999 31.778002 12.478999 29.669003 12.478999 29.669003 C 12.478999 27.165003 12.405999 25.133003 12.261999 23.630003 C 12.115999 22.093002 11.896999 20.717003 11.605999 19.539003 C 11.599999 19.533003 11.527999 19.293003 11.459999 19.063004 C 12.523999 18.674004 13.389999 18.046003 13.934999 17.072004 C 14.603 15.874004 14.941 14.335005 14.941 12.498005 L 14.913 10.590005 L 14.824 8.8460045 C 14.818001 8.796004 14.386001 7.7700043 14.386001 7.7700043 C 14.301001 7.495004 14.126 7.4000044 13.966001 7.3420043 L 13.058001 7.0200043 C 13.062 7.021004 12.658001 6.9710045 12.658001 6.9710045 L 12.177001 7.0120044 C 11.203001 7.094004 10.438001 7.8610044 10.356001 8.835005 C 10.202001 10.627005 10.003001 11.179005 9.965001 11.272005 C 9.846001 11.567005 9.822001 11.567005 9.585001 11.567005 C 9.231001 11.567005 8.748001 11.214005 8.262001 10.600005 C 7.852001 10.083005 7.352001 9.228005 6.774001 8.057005 C 6.404 7.301 5.589 6.857 4.749 6.959 z " fill-opacity="0.19"/>
    <path fill="#ffffff" d="M 4.807 7.455 C 4.177 7.528 3.659 7.992 3.519 8.61 L 2.58 12.734 C 2.572 12.771 2.567 12.808001 2.567 12.845 C 2.567 12.868 2.5679998 12.893001 2.572 12.916 L 2.675 13.627001 C 2.684 13.688001 2.704 13.746001 2.734 13.799001 C 3.9429998 15.969001 4.8599997 17.887001 5.458 19.499 C 6.0540004 21.105 6.5810003 23.032001 7.0230002 25.227001 C 7.017 25.196001 7.013 25.163002 7.013 25.128 C 7.013 25.027 7.043 24.93 7.1 24.848 C 7.114 24.827 7.1419997 24.827 7.159 24.809 C 7.123 24.873 7.09 24.941 7.09 25.1 C 7.09 25.62 7.289 26.768 7.742 29.391 L 8.464 33.569 C 8.587999 34.294 9.209 34.819 9.943 34.819 L 10.422999 34.819 C 11.235999 34.819 11.907999 34.153 11.922999 33.337 L 11.950999 31.774002 C 11.950999 31.774002 11.978999 29.671001 11.978999 29.670002 C 11.978999 27.180002 11.907 25.166002 11.765999 23.680002 C 11.620998 22.165003 11.405999 20.813002 11.120998 19.659002 C 11.119998 19.654003 11.110998 19.656002 11.110998 19.651003 C 11.076998 19.518003 10.997998 19.253002 10.858998 18.801003 C 11.958999 18.520002 12.893998 17.907003 13.497998 16.828003 C 14.122998 15.706003 14.440998 14.249002 14.440998 12.498003 L 14.411998 10.598003 L 14.3239975 8.871003 C 14.307998 8.775003 13.932998 7.983003 13.932998 7.983003 C 13.875998 7.8630033 13.921998 7.857003 13.796998 7.812003 L 12.893 7.49 C 12.827 7.4659996 12.771999 7.463 12.700999 7.469 L 12.221 7.51 C 11.492 7.5730004 10.915999 8.147 10.854 8.877 C 10.703 10.646999 10.5060005 11.274 10.43 11.462 C 10.242001 11.926 10.0460005 12.066 9.587 12.066 C 8.925 12.066 8.289 11.437 7.8719997 10.91 C 7.44 10.369 6.92 9.484 6.326 8.28 C 6.048 7.711 5.437 7.379 4.807 7.455 z M 10.152 19.898 L 10.152 19.9 L 10.152 19.898 z " fill-opacity="0.22"/>
    <path fill="#ffffff" d="M 4.865 7.951 C 4.445 8.0 4.1 8.31 4.007 8.721 L 3.0679998 12.846 L 3.1709998 13.557 C 4.3919997 15.746 5.319 17.688 5.927 19.327 C 6.531 20.956 7.065 22.907999 7.514 25.13 C 7.512 25.119 8.958 33.484 8.958 33.484 C 9.041 33.967003 9.455 34.318 9.943 34.318 L 10.424 34.318 C 10.966 34.318 11.414 33.875 11.424 33.328 L 11.452 31.765 L 11.479 29.666 C 11.479 27.197 11.409 25.2 11.268 23.726 C 11.125999 22.236 10.914 20.907999 10.637 19.779999 C 10.647 19.818998 10.651 19.859 10.651 19.898998 C 10.651 19.832998 10.628 19.745998 10.248 18.506998 C 11.46 18.373999 12.419001 17.735998 13.063 16.585999 C 13.646999 15.538999 13.941999 14.164999 13.941999 12.499998 L 13.912999 10.606998 L 13.824999 8.897999 C 13.824999 8.895999 13.484999 8.204999 13.484999 8.204999 C 13.482999 8.202999 12.740998 7.968999 12.740998 7.968999 L 12.260999 8.009999 C 11.774999 8.051 11.391998 8.433999 11.350999 8.921 C 11.198998 10.691999 10.996999 11.3949995 10.889998 11.653999 C 10.626999 12.303999 10.249998 12.567999 9.583999 12.567999 C 8.891998 12.567999 8.182999 12.114999 7.4769983 11.220999 C 7.024998 10.6519985 6.4869986 9.736999 5.8769984 8.499999 C 5.692 8.122 5.285 7.9 4.865 7.951 z " fill-opacity="0.26"/>
    <path fill="#ffffff" d="M 4.923 8.447 C 4.713 8.471 4.541 8.625999 4.494 8.832 L 3.5549998 12.957 C 3.5269997 13.078 3.5449998 13.203 3.606 13.311 C 4.841 15.525 5.7790003 17.491 6.395 19.152 C 7.008 20.805 7.549 22.783 8.003 25.03 C 8.003 25.032001 9.449 33.398003 9.449 33.398003 C 9.490001 33.638004 9.699 33.818 9.941 33.818 L 10.422 33.818 C 10.694 33.818 10.917 33.589 10.922 33.318 L 10.95 31.755001 L 10.977 29.659 C 10.977 27.211 10.908 25.23 10.77 23.771 C 10.629001 22.304 10.4210005 21.0 10.149 19.896 C 10.149 19.895 9.815001 18.804 9.574 18.021 C 9.684 18.039 9.860001 18.066 9.860001 18.066 C 11.053 18.066 11.983001 17.485 12.625001 16.339 C 13.166001 15.368001 13.440001 14.076 13.440001 12.497001 L 13.411 10.612 L 13.324 8.9210005 C 13.317 8.786 13.2560005 8.667001 13.153 8.577001 C 13.051 8.488001 12.918 8.452001 12.783 8.464001 L 12.304 8.505001 C 12.059999 8.526001 11.868 8.718001 11.847 8.960001 C 11.699 10.707001 11.494 11.491001 11.351 11.842001 C 11.014999 12.678001 10.4539995 13.066001 9.583 13.066001 C 8.731 13.066001 7.8900003 12.549001 7.083 11.529001 C 6.612 10.935 6.055 9.99 5.43 8.723 C 5.336 8.532 5.133 8.422 4.923 8.447 z " fill-opacity="0.28"/>
    <path fill="#dcdcdc" d="M 12.189 16.098 C 12.691 15.2 12.941 14.0 12.941 12.5 C 12.941 11.889 12.931 11.266 12.913 10.6310005 C 12.892 9.998 12.866 9.443001 12.827 8.965 L 12.348 9.0060005 C 12.223 10.467001 12.044 11.477 11.815 12.035001 C 11.403 13.058001 10.66 13.568001 9.5859995 13.568001 C 8.568 13.568001 7.6059995 12.994 6.6939993 11.841001 C 6.194999 11.212001 5.624999 10.245001 4.9819994 8.943001 L 4.0429993 13.068001 C 5.296999 15.316001 6.2369995 17.287 6.8639994 18.978 C 7.4919996 20.671001 8.033999 22.656 8.4939995 24.932001 C 8.731999 26.095001 9.216 28.893002 9.943 33.319 L 10.422999 33.319 C 10.422999 33.237 10.433 32.714 10.450999 31.747 C 10.468999 30.779999 10.478999 30.085 10.478999 29.661 C 10.478999 27.222 10.410999 25.273998 10.271999 23.821 C 10.132999 22.368 9.929999 21.099998 9.665999 20.018 C 9.506999 19.373 9.2369995 18.501999 8.862999 17.407 C 9.403999 17.515999 9.735999 17.569 9.860999 17.569 C 10.865 17.568 11.643 17.078 12.189 16.098 z "/>
</svg>
