<?xml version="1.0" encoding="UTF-8"?>
<svg xmlns="http://www.w3.org/2000/svg" xmlns:xlink="http://www.w3.org/1999/xlink" contentScriptType="text/ecmascript" width="17" baseProfile="tiny" zoomAndPan="magnify" contentStyleType="text/css" viewBox="0 0 17 43" height="43" preserveAspectRatio="xMidYMid meet" version="1.1">
    <rect width="17" height="43"/>
    <path fill="#ffffff" d="M 11.364 17.531 C 10.885 15.783 10.179001 14.123 9.251 12.552 C 8.595 11.4470005 7.7260003 10.242001 6.6460004 8.945 L 4.6770005 13.382999 C 5.6910005 14.612999 6.4710007 15.664 7.0190005 16.536999 C 8.101001 18.259998 8.950001 20.095999 9.566 22.049 C 10.361 24.564 10.757 27.267 10.757 30.16 C 10.702 31.730999 10.676 32.681 10.676 33.008 L 11.363999 33.008 C 11.705999 30.549 11.896999 29.120998 11.938 28.726 C 12.127999 27.101 12.224999 25.672 12.224999 24.443 C 12.227 21.912 11.938 19.609 11.364 17.531 z "/>
</svg>
