<?xml version="1.0" encoding="UTF-8"?>
<svg xmlns="http://www.w3.org/2000/svg" xmlns:xlink="http://www.w3.org/1999/xlink" contentScriptType="text/ecmascript" width="100" baseProfile="tiny" zoomAndPan="magnify" contentStyleType="text/css" viewBox="-42 -42 100 100" height="100" preserveAspectRatio="xMidYMid meet" version="1.1">
    <g>
        <g>
            <g>
                <g>
                    <rect x="-42" width="100" fill="none" y="-42" height="100"/>
                </g>
            </g>
        </g>
        <g>
            <polygon fill="#ffffff" fill-opacity="0.95" points="-3.503,27.762 -33.678,27.762 -33.678,39.762 -8.719,39.762   "/>
            <polygon fill="#ffffff" points="-33.678,39.762 -33.678,51.766 -13.934,51.766 -8.719,39.762   "/>
            <polygon fill="#ffffff" fill-opacity="0.9" points="1.716,15.766 -33.678,15.766 -33.678,27.762 -3.503,27.762   "/>
            <polygon fill="#ffffff" fill-opacity="0.85" points="6.932,3.762 -33.678,3.762 -33.678,15.766 1.716,15.766   "/>
            <polygon fill="#ffffff" fill-opacity="0.75" points="17.365,-20.234 -33.678,-20.234 -33.678,-8.231 12.153,-8.231   "/>
            <polygon fill="#ffffff" fill-opacity="0.7" points="22.584,-32.234 -33.678,-32.234 -33.678,-20.234 17.365,-20.234   "/>
            <polygon fill="#ffffff" fill-opacity="0.8" points="12.153,-8.231 -33.678,-8.231 -33.678,3.762 6.932,3.762   "/>
        </g>
    </g>
</svg>
