<?xml version="1.0" encoding="UTF-8"?>
<svg xmlns="http://www.w3.org/2000/svg" xmlns:xlink="http://www.w3.org/1999/xlink" contentScriptType="text/ecmascript" width="332" baseProfile="tiny" zoomAndPan="magnify" contentStyleType="text/css" viewBox="-0.605 -0.193 332 82" height="82" preserveAspectRatio="xMidYMid meet" version="1.1">
    <path fill="#656b6b" d="M 298.395 -0.193 L 288.364 9.816 L 24.506 9.816 C 18.871 9.808 13.5720005 11.998 9.584001 15.98 C 5.5920005 19.969 3.3960004 25.271 3.3960004 30.916 L 3.3960004 58.692 C 3.3960004 71.438 13.759001 81.807 26.5 81.807 L 308.438 81.803 C 308.438 81.803 310.534 81.678 310.54398 81.678 C 310.56598 81.674 310.59598 81.668 310.59598 81.668 L 310.59198 81.668 C 321.31097 80.5 329.39297 71.479996 329.39297 60.689 L 329.39297 30.916 C 329.39297 19.684 320.498 10.512001 309.39297 9.922001 C 309.39297 8.391001 309.39297 -0.19299889 309.39297 -0.19299889 L 298.395 -0.19299889 z M 310.449 81.695 C 310.415 81.702 310.38 81.708 310.38 81.708 L 310.437 81.698 C 310.436 81.698 310.448 81.695 310.449 81.695 z " fill-opacity="0.01"/>
    <path fill="#656b6b" d="M 298.77 0.807 L 288.77798 10.816 L 24.504 10.816 C 19.138 10.81 14.09 12.894 10.290999 16.689 C 6.4889994 20.486 4.3949995 25.539 4.3949995 30.916 L 4.3949995 58.692 C 4.3949995 70.887 14.311 80.807 26.499 80.807 L 308.388 80.805 C 309.857 80.729004 310.254 80.709 310.418 80.686 C 310.384 80.694 310.342 80.703995 310.342 80.703995 C 310.372 80.7 310.403 80.687996 310.433 80.686 C 310.454 80.682 310.47 80.67799 310.487 80.673996 C 320.704 79.561 328.394 71.004 328.394 60.691994 L 328.394 30.917 C 328.394 19.863998 319.431 10.875999 308.394 10.816999 C 308.394 9.150999 308.394 0.8069992 308.394 0.8069992 L 298.77 0.8069992 z " fill-opacity="0.02"/>
    <path fill="#656b6b" d="M 307.395 1.806 L 299.145 1.806 L 289.192 11.816 L 24.506 11.816 C 19.404 11.81 14.609 13.792 11.000001 17.396 C 7.3860006 21.006 5.396001 25.807 5.396001 30.916 L 5.396001 58.692 C 5.396001 70.335 14.864001 79.807 26.5 79.807 L 308.337 79.805 C 308.337 79.805 310.239 79.709 310.241 79.707 C 320.018 78.711 327.392 70.537 327.392 60.689003 L 327.392 30.916 C 327.392 20.379002 318.822 11.805 308.287 11.805 C 308.287 11.805 307.83798 11.805 307.392 11.805 C 307.395 10.125 307.395 1.807 307.395 1.806 L 307.395 1.806 z " fill-opacity="0.04"/>
    <path fill="#656b6b" d="M 299.645 2.807 L 289.606 12.816 L 24.502 12.816 C 19.668001 12.81 15.123001 14.687 11.703001 18.103 C 8.279001 21.523 6.394001 26.074001 6.394001 30.916 L 6.394001 58.691 C 6.394001 69.784004 15.413001 78.806 26.498001 78.806 L 308.286 78.806 C 308.286 78.806 310.135 78.711 310.14 78.711 C 319.407 77.769 326.394 70.020996 326.394 60.69 L 326.394 30.916 C 326.394 20.93 318.27103 12.805 308.289 12.805 C 308.289 12.805 307.251 12.805 306.394 12.805 C 306.394 11.125 306.394 2.8070002 306.394 2.8070002 L 299.645 2.8070002 z " fill-opacity="0.07"/>
    <path fill="#656b6b" d="M 7.396 30.916 L 7.396 58.69 C 7.396 69.231 15.964 77.805 26.5 77.805 L 308.288 77.805 C 308.879 77.805 309.46298 77.772 310.039 77.717 C 318.664 76.838005 325.393 69.549 325.393 60.690002 L 325.393 30.915 C 325.393 21.464 317.73502 13.804001 308.288 13.804001 L 305.393 13.804001 L 305.393 3.806 L 300.018 3.806 L 290.019 13.816 L 24.5 13.816 C 15.052 13.805 7.395 21.465 7.396 30.916 z " fill-opacity="0.11"/>
    <path fill="#656b6b" d="M 8.396 30.916 L 8.396 58.691 C 8.396 68.679 16.518 76.806 26.5 76.806 L 307.288 76.806 C 307.879 76.806 308.46298 76.773 309.039 76.717 C 317.664 75.838005 324.393 68.549 324.393 59.691 L 324.393 30.916 C 324.393 21.465 316.73502 13.805 307.288 13.805 L 305.393 13.805 L 305.393 4.807 L 300.393 4.807 L 290.394 14.807 L 25.5 14.807 C 16.052 14.795 8.395 21.465 8.396 30.916 z " fill-opacity="0.13"/>
    <path fill="#5f9ea0" d="M 9.396 30.906 L 9.396 58.691 C 9.396 68.142 17.052 75.806 26.5 75.806 L 308.288 75.806 C 317.735 75.806 325.393 68.142 325.393 58.691 L 325.393 30.906 C 325.393 21.455 317.73502 13.795 308.288 13.795 L 305.393 13.795 L 305.393 1.807 L 303.39502 1.807 L 291.39502 13.807 L 26.5 13.807 C 17.052 13.795 9.395 21.455 9.396 30.906 z "/>
</svg>
