<?xml version="1.0" encoding="UTF-8"?>
<svg xmlns="http://www.w3.org/2000/svg" xmlns:xlink="http://www.w3.org/1999/xlink" contentScriptType="text/ecmascript" width="44.001" baseProfile="tiny" zoomAndPan="magnify" contentStyleType="text/css" viewBox="-1.98 1.139 44.001 32" height="32" preserveAspectRatio="xMidYMid meet" version="1.1">
    <g>
        <path fill="#656b6b" d="M 42.02 32.139 L 25.52 32.139 L 24.241001 32.082 C 11.09 31.461 0.689 21.043 0.066 7.848 L 0.02 6.91 L 0.02 1.139 L 42.02 1.139 L 42.02 32.139 z " fill-opacity="0.01"/>
        <path fill="#656b6b" d="M 42.02 31.139 L 25.52 31.139 L 24.297 31.084 C 11.661 30.488 1.665 20.477 1.066 7.8 L 1.077 7.7980003 C 1.071 7.763 1.02 6.861 1.02 6.861 L 1.02 1.139 L 42.02 1.139 L 42.02 31.139 z " fill-opacity="0.02"/>
        <path fill="#656b6b" d="M 42.02 30.139 L 25.52 30.139 L 24.357 30.086 C 12.231 29.514 2.64 19.912 2.066 7.75 L 2.02 6.814 L 2.02 1.139 L 42.02 1.139 L 42.02 30.139 z " fill-opacity="0.03"/>
        <path fill="#656b6b" d="M 42.02 29.139 L 25.52 29.139 L 24.416 29.088 C 12.801 28.539 3.616 19.347 3.066 7.703 L 3.085 7.699 C 3.0770001 7.65 3.022 6.769 3.022 6.769 L 3.022 1.139 L 42.022 1.139 L 42.02 29.139 L 42.02 29.139 z " fill-opacity="0.05"/>
        <path fill="#656b6b" d="M 42.02 28.139 L 25.52 28.139 L 24.476 28.09 C 13.372 27.566 4.59 18.781 4.066 7.656 L 4.049 7.41 L 4.02 6.726 L 4.02 1.139 L 42.02 1.139 L 42.02 28.139 z " fill-opacity="0.06"/>
        <path fill="#656b6b" d="M 42.02 27.139 L 25.52 27.139 L 24.536001 27.092 C 13.944001 26.592 5.5670013 18.216 5.066002 7.6119995 L 5.02 6.682 L 5.02 1.139 L 42.02 1.139 L 42.02 27.139 z " fill-opacity="0.1"/>
        <path fill="#656b6b" d="M 42.02 26.139 L 25.52 26.139 L 24.596 26.094 C 14.508 25.617 6.542 17.65 6.066 7.562 C 6.066 7.566 6.02 6.6379995 6.02 6.6379995 L 6.02 1.1379995 L 42.02 1.1379995 L 42.02 26.139 z " fill-opacity="0.1"/>
        <path fill="#656b6b" d="M 42.02 25.139 L 25.52 25.139 C 25.224 25.139 24.936 25.108 24.643 25.094 C 15.143 24.646 7.5130005 17.015999 7.0650005 7.5160007 C 7.049 7.223 7.02 6.934 7.02 6.639 L 7.02 1.1389999 L 42.02 1.1389999 L 42.02 25.139 z " fill-opacity="0.1"/>
        <path fill="#52a1a4" d="M 42.02 24.139 L 25.52 24.139 C 15.8550005 24.139 8.02 16.304 8.02 6.639 L 8.02 1.1389999 L 42.02 1.1389999 L 42.02 24.139 z "/>
        <rect x="-1.98" width="44" fill="none" y="1.139" height="32"/>
    </g>
</svg>
