<?xml version="1.0" encoding="UTF-8"?>
<svg xmlns="http://www.w3.org/2000/svg" xmlns:xlink="http://www.w3.org/1999/xlink" contentScriptType="text/ecmascript" width="84" baseProfile="tiny" zoomAndPan="magnify" contentStyleType="text/css" viewBox="-1.021 -0.305 84 58" height="58" preserveAspectRatio="xMidYMid meet" version="1.1">
    <linearGradient x1="-653.582" gradientTransform="matrix(1 0 0 -1 694.626 1053.3586)" y1="1024.5201" x2="-642.342" gradientUnits="userSpaceOnUse" y2="1002.3901" xlink:type="simple" xlink:actuate="onLoad" id="XMLID_1902_" xlink:show="other">
        <stop stop-color="#a2c2dd" offset="0"/>
        <stop stop-color="#a2c2dd" offset="0.1"/>
        <stop stop-color="#6c83bb" offset="0.71"/>
        <stop stop-color="#003d6d" offset="0.99"/>
        <stop stop-color="#003d6d" offset="1"/>
    </linearGradient>
    <path fill="url(#XMLID_1902_)" d="M 16.163 28.708 C 16.163 42.393 27.296001 53.527 40.98 53.527 C 54.663 53.527 65.795 42.393 65.795 28.708 C 65.795 15.022 54.659996 3.8880005 40.979996 3.8880005 C 27.296 3.888 16.163 15.022 16.163 28.708 z "/>
    <radialGradient gradientTransform="matrix(1 0 0 -1 694.626 1053.3586)" gradientUnits="userSpaceOnUse" xlink:type="simple" r="45.27" xlink:actuate="onLoad" cx="-648.8159" id="XMLID_1903_" cy="1040.4283" xlink:show="other">
        <stop stop-color="#ffffff" offset="0"/>
        <stop stop-color="#a2c2dd" offset="0.53"/>
        <stop stop-color="#6c83bb" offset="0.87"/>
        <stop stop-color="#003d6d" offset="1"/>
    </radialGradient>
    <circle fill="url(#XMLID_1903_)" r="24.463" cx="40.983" cy="28.708"/>
    <radialGradient gradientTransform="matrix(1 0 0 -1 694.626 1053.3586)" gradientUnits="userSpaceOnUse" xlink:type="simple" r="31.9697" xlink:actuate="onLoad" cx="-651.9858" id="XMLID_1904_" cy="1034.4977" xlink:show="other">
        <stop stop-color="#a2c2dd" offset="0"/>
        <stop stop-color="#a2c2dd" offset="0.1"/>
        <stop stop-color="#6c83bb" offset="0.71"/>
        <stop stop-color="#003d6d" offset="0.99"/>
        <stop stop-color="#003d6d" offset="1"/>
    </radialGradient>
    <path fill="url(#XMLID_1904_)" d="M 31.121 7.641 C 31.223 7.8479996 31.557001 7.898 32.262 7.6749997 C 32.782 7.6289997 34.141003 6.449 34.850002 6.687 C 35.561 6.922 36.145 6.447 36.805004 6.023 C 38.180004 6.1439996 39.643005 4.9349995 39.926003 4.9349995 C 40.209003 4.9349995 41.278004 5.1309996 41.512 4.7549996 C 41.512 4.7549996 44.092003 5.3619995 46.45 4.8559995 C 44.692 4.4549994 42.862 4.2419996 40.985 4.2419996 C 38.565002 4.2419996 36.227 4.5959997 34.022 5.2489996 C 33.402 5.843 32.742 6.65 31.121 7.641 z "/>
    <radialGradient gradientTransform="matrix(1 0 0 -1 694.626 1053.3586)" gradientUnits="userSpaceOnUse" xlink:type="simple" r="31.9765" xlink:actuate="onLoad" cx="-651.9883" id="XMLID_1905_" cy="1034.5026" xlink:show="other">
        <stop stop-color="#a2c2dd" offset="0"/>
        <stop stop-color="#a2c2dd" offset="0.1"/>
        <stop stop-color="#6c83bb" offset="0.71"/>
        <stop stop-color="#003d6d" offset="0.99"/>
        <stop stop-color="#003d6d" offset="1"/>
    </radialGradient>
    <path fill="url(#XMLID_1905_)" d="M 60.594 36.488 L 59.795002 37.753998 C 59.795002 37.753998 58.601 38.130997 58.554 38.509 C 58.533 38.668 57.631 40.67 57.631 40.67 C 57.631 40.67 57.277 41.785 58.289 41.453 C 60.398 40.763 61.775 36.252 60.594 36.488 z "/>
    <radialGradient gradientTransform="matrix(1 0 0 -1 694.626 1053.3586)" gradientUnits="userSpaceOnUse" xlink:type="simple" r="31.97" xlink:actuate="onLoad" cx="-651.9858" id="XMLID_1906_" cy="1034.4977" xlink:show="other">
        <stop stop-color="#a2c2dd" offset="0"/>
        <stop stop-color="#a2c2dd" offset="0.1"/>
        <stop stop-color="#6c83bb" offset="0.71"/>
        <stop stop-color="#003d6d" offset="0.99"/>
        <stop stop-color="#003d6d" offset="1"/>
    </radialGradient>
    <path fill="url(#XMLID_1906_)" d="M 22.505 38.976 C 22.851 38.976 23.741 39.083 23.848999 38.761 C 23.855 38.620003 23.98 35.275 23.98 35.275 L 25.312 33.504 L 25.312 32.093002 L 21.845001 29.849003 L 20.341002 28.219004 C 20.341002 28.225004 19.759 26.460003 19.212002 25.961004 C 18.757002 25.544004 18.788002 24.628004 18.304 23.953005 C 17.863 23.343004 17.507 23.001005 17.224 22.864004 C 14.990001 31.921005 18.456001 39.616005 21.703001 43.768005 C 22.168001 43.105007 22.537 42.363007 22.820002 41.705006 C 23.113 41.029 21.345 40.074 22.505 38.976 z "/>
    <path fill="url(#XMLID_1906_)" d="M 25.171 10.934 C 25.171 10.495 25.894 10.275 25.894 10.275 L 25.987999 10.620999 L 26.646 10.902999 C 26.646 10.902999 27.431 10.055999 27.587 9.835999 C 27.741 9.616999 28.025 8.769999 28.025 8.769999 L 29.396 7.1559987 C 26.322 8.812999 23.642 11.108999 21.535 13.866999 C 22.38 13.198 25.171 11.373 25.171 10.934 z "/>
    <radialGradient gradientTransform="matrix(1 0 0 -1 694.626 1053.3586)" gradientUnits="userSpaceOnUse" xlink:type="simple" r="5.4098" xlink:actuate="onLoad" cx="-656.0054" id="XMLID_1908_" cy="1044.3776" xlink:show="other">
        <stop stop-color="#a2c2dd" offset="0"/>
        <stop stop-color="#a2c2dd" offset="0.1"/>
        <stop stop-color="#6c83bb" offset="0.71"/>
        <stop stop-color="#003d6d" offset="0.99"/>
        <stop stop-color="#003d6d" offset="1"/>
    </radialGradient>
    <path fill="url(#XMLID_1908_)" d="M 38.113 7.062 C 38.421997 7.002 39.127 6.671 39.127 6.671 C 39.127 6.671 38.774998 6.522 38.377 6.581 C 37.981 6.6419997 37.406 6.342 37.098 6.4909997 C 37.361 6.822 37.804 7.122 38.113 7.062 z "/>
    <radialGradient gradientTransform="matrix(1 0 0 -1 694.626 1053.3586)" gradientUnits="userSpaceOnUse" xlink:type="simple" r="29.13" xlink:actuate="onLoad" cx="-648.3862" id="XMLID_1909_" cy="1038.318" xlink:show="other">
        <stop stop-color="#e6eef4" offset="0"/>
        <stop stop-color="#4a9900" offset="0.44"/>
        <stop stop-color="#0e4e58" offset="0.94"/>
        <stop stop-color="#0e4e58" offset="1"/>
    </radialGradient>
    <path fill="url(#XMLID_1909_)" d="M 52.249 6.986 C 51.497 7.197 50.878002 7.3580003 50.732002 7.3580003 C 50.306004 7.3580003 50.419003 6.998 50.044003 6.9500003 C 49.663002 6.9030004 46.507004 6.0870004 46.083004 6.512 C 45.657005 6.939 43.993004 7.373 43.613003 7.422 C 43.236004 7.469 43.738003 8.614 44.743004 9.335 C 44.603004 9.478 42.357002 10.72 42.357002 9.869 C 42.357002 9.018001 41.919003 8.394 41.230003 8.143001 C 40.601 8.299001 39.880005 8.958 40.884003 9.869 C 41.509003 10.434 40.888004 10.511001 40.845 10.674001 C 40.659 11.359001 42.347 12.024001 41.541 12.528001 C 40.782 12.595001 40.107002 12.456001 39.982002 12.385001 C 38.791 11.718001 38.521004 14.363001 38.521004 14.363001 L 39.820004 15.005001 L 37.652004 17.115002 C 37.652004 17.115002 34.470005 19.323002 34.422005 19.608002 C 34.373005 19.891003 33.008003 23.555002 33.483006 24.643002 C 33.954006 25.731 36.405006 28.664001 37.536007 28.756 C 39.018005 28.877 43.300007 28.021 43.300007 28.021 C 43.39401 28.259 43.829006 29.207 45.933006 29.598 C 46.007008 29.612 45.025005 31.494 45.603004 32.303 C 46.859005 34.059002 47.486004 35.870003 46.796005 36.686 C 45.150005 39.157 46.413006 39.346 46.812004 40.639 C 46.955006 41.017 45.976006 44.397 49.226006 45.313 C 50.394005 45.414 51.003006 45.229 51.996006 43.953 C 52.283005 43.717 53.951008 42.012 55.056007 41.646 C 55.416008 41.623 54.709007 40.649 55.431007 39.623 C 56.20701 39.317 58.301006 37.905003 58.301006 37.905003 C 58.396008 35.838 57.281006 33.280003 59.359005 31.813004 C 60.702003 30.449003 60.890003 30.612003 61.743004 28.532003 C 61.978004 27.918003 62.790005 25.721003 61.368004 26.242004 C 60.427002 26.586004 60.191 26.571005 59.890003 26.477005 C 59.806004 25.708006 59.640003 25.394005 58.793003 24.643005 C 58.355003 23.608006 57.289 21.819006 57.289 21.819006 L 55.781002 19.530006 L 55.969 19.059006 L 59.232002 23.497005 C 59.532 24.359005 59.734 24.758005 59.969 25.770006 C 61.83 25.320005 63.442 22.891006 62.687 20.916006 C 62.652 20.879005 62.189 20.974007 61.504 20.925007 C 60.447002 20.154007 59.814003 18.529007 59.814003 18.529007 L 62.211002 20.548008 L 63.389004 20.642008 L 64.133 22.117008 C 64.344 22.254007 64.487 22.346008 64.487 22.346008 C 64.487 22.346008 64.534 22.352009 64.614 22.35501 C 62.819 15.669 58.265 10.114 52.249 6.986 z M 47.027 7.959 C 46.831 7.4570003 47.609 7.268 47.609 7.268 C 47.609 7.268 48.381 8.392 48.256 9.133 C 48.135002 9.868 47.316 9.418 47.068 9.1970005 C 46.829 8.98 47.224 8.463 47.027 7.959 z M 54.066 17.382 C 53.263 17.382 52.146004 17.38 51.460003 16.907999 C 50.775 16.435 50.529003 17.110998 50.073 17.585 C 49.777 17.891998 46.7 16.369 46.7 16.369 L 46.243 15.044 L 43.433 14.856 L 41.64 15.39 L 39.894 15.116 L 41.832 14.426001 C 41.832 14.426001 43.223 13.119 43.725002 12.693001 C 44.147003 12.333001 45.840004 12.552001 45.840004 12.552001 L 47.776005 14.103001 C 47.776005 14.103001 47.643005 14.811001 47.465004 15.0460005 C 48.172005 14.998 48.701004 14.091001 48.701004 14.091001 C 47.129005 12.710001 47.138004 12.375001 47.138004 12.375001 L 49.159004 13.516001 L 49.305004 14.103001 C 49.305004 14.103001 50.110004 15.489 50.882004 15.547001 C 51.214005 15.5720005 50.944004 14.245001 50.944004 14.245001 L 51.356003 14.187001 C 52.168003 16.067001 55.028004 15.879002 55.550003 16.318 C 55.583 18.261 54.402 17.476 54.066 17.382 z M 54.603 14.028 C 53.881 13.746 53.142002 13.884 53.142002 13.884 C 52.980003 14.2039995 51.820004 13.875 52.051003 13.169 C 52.283 12.462 53.043003 13.0199995 53.392002 12.636 C 53.743004 12.250999 54.236004 11.995 54.463 12.358999 C 54.199 12.706999 54.693 12.980999 55.039 13.165999 C 56.01 13.688 56.646 14.44 54.603 14.028 z M 58.592 15.755 C 58.229 15.432 58.462997 15.049 57.916 14.536 C 57.127 13.802 56.694 13.484 57.149002 12.681 C 57.920002 12.313 57.462 13.172 57.752003 13.580999 C 57.906002 13.799 58.600002 14.492 59.258003 15.379 C 59.804 16.117 58.956 16.078 58.592 15.755 z "/>
    <path fill="#ffffff" d="M 12.638 34.195 C 9.863999 34.195 6.0609994 34.853 5.0979996 40.549 L 4.9519997 41.406 C 4.9519997 41.406 11.347 41.406 12.105 41.406 C 12.334 41.817997 12.674999 42.433 12.891999 42.828 C 12.674999 43.222 12.332999 43.836 12.105 44.246 C 11.346999 44.246 4.9519997 44.246 4.9519997 44.246 L 5.0979996 45.105 C 6.0609994 50.798 9.863999 51.457 12.638 51.457 C 14.825999 51.457 16.777 49.623 18.342999 48.146 C 19.189 47.347 19.987999 46.597 20.408998 46.597 L 39.99 46.597 L 40.209003 46.357 C 40.631004 45.893997 41.605003 44.629997 41.629 42.857 L 41.629 42.794 C 41.608 41.021 40.63 39.757 40.209003 39.295998 L 39.99 39.055996 L 20.409 39.055996 C 19.987 39.055996 19.188 38.303997 18.345001 37.508995 C 16.777 36.031 14.825 34.195 12.638 34.195 z "/>
    <linearGradient x1="-683.3979" gradientTransform="matrix(1 0 0 -1 694.626 1053.3586)" y1="1023.7965" x2="-662.288" gradientUnits="userSpaceOnUse" y2="998.3965" xlink:type="simple" xlink:actuate="onLoad" id="XMLID_1910_" xlink:show="other">
        <stop stop-color="#e6edf3" offset="0"/>
        <stop stop-color="#cabad7" offset="0.12"/>
        <stop stop-color="#ab7eb8" offset="0.27"/>
        <stop stop-color="#9759a4" offset="0.38"/>
        <stop stop-color="#8f4b9c" offset="0.44"/>
        <stop stop-color="#73357c" offset="0.57"/>
        <stop stop-color="#551d5a" offset="0.72"/>
        <stop stop-color="#430e45" offset="0.85"/>
        <stop stop-color="#3c093d" offset="0.94"/>
        <stop stop-color="#3c093d" offset="1"/>
    </linearGradient>
    <path fill="url(#XMLID_1910_)" d="M 40.824 42.828 C 40.824 42.819 40.826 42.809 40.826 42.805 L 40.822 42.805 C 40.803997 41.262 39.92 40.149002 39.593 39.793 C 39.181 39.793 20.338999 39.793 20.338999 39.793 C 19.621998 39.793 18.846998 39.059 17.765 38.045 C 16.293999 36.656998 14.463999 34.934 12.567999 34.934 C 9.486999 34.934 6.5709987 35.837997 5.7549987 40.671997 C 6.9129987 40.671997 12.4679985 40.671997 12.4679985 40.671997 L 13.662998 42.827995 L 12.4679985 44.980995 C 12.4679985 44.980995 6.9129987 44.980995 5.7549987 44.980995 C 6.5709987 49.814995 9.486999 50.718994 12.567999 50.718994 C 14.463999 50.718994 16.296999 48.992992 17.765 47.607994 C 18.847 46.593994 19.622 45.859993 20.338999 45.859993 C 20.338999 45.859993 39.181 45.859993 39.593 45.859993 C 39.919 45.505993 40.803997 44.39099 40.822 42.847992 L 40.826 42.847992 C 40.826 42.841 40.824 42.836 40.824 42.828 z "/>
</svg>
