<?xml version="1.0" encoding="UTF-8"?>
<svg xmlns="http://www.w3.org/2000/svg" xmlns:xlink="http://www.w3.org/1999/xlink" contentScriptType="text/ecmascript" width="84" baseProfile="tiny" zoomAndPan="magnify" contentStyleType="text/css" viewBox="0 0 84 72" height="72" preserveAspectRatio="xMidYMid meet" version="1.1">
    <g>
        <g>
            <path fill="#ffffff" d="M 33.26 9.768 C 33.26 9.768 30.240997 20.028 30.039999 20.706 C 29.359 20.588999 21.831999 19.299 21.831999 19.299 L 14.665998 21.911999 L 21.352999 50.725 L 61.102997 62.615997 L 75.084 19.766998 C 75.084 19.766998 57.032997 17.048998 56.317 16.937998 C 56.338 16.276999 56.539 11.127998 56.539 11.127998 L 37.801 8.38 L 33.26 9.768 z "/>
            <linearGradient x1="-1367.3481" gradientTransform="matrix(1 0 0 1 1389.252 -770.3545)" y1="806.334" x2="-1318.7344" gradientUnits="userSpaceOnUse" y2="806.334" xlink:type="simple" xlink:actuate="onLoad" id="XMLID_1658_" xlink:show="other">
                <stop stop-color="#ffffff" offset="0"/>
                <stop stop-color="#f4f8fb" offset="0.19"/>
                <stop stop-color="#d6e4f0" offset="0.52"/>
                <stop stop-color="#a7c5df" offset="0.96"/>
                <stop stop-color="#a2c2dd" offset="1"/>
            </linearGradient>
            <polygon fill="url(#XMLID_1658_)" points="21.904,50.105 33.644,10.241 52.742,13.304 52.604,19.217 70.518,22.224 60.754,61.719       "/>
            <linearGradient x1="-1340.4814" gradientTransform="matrix(1 0 0 1 1389.252 -770.3545)" y1="819.6074" x2="-1375.9785" gradientUnits="userSpaceOnUse" y2="789.5529" xlink:type="simple" xlink:actuate="onLoad" id="XMLID_1659_" xlink:show="other">
                <stop stop-color="#bfd5e8" offset="0"/>
                <stop stop-color="#b4cee4" offset="0.47"/>
                <stop stop-color="#a2c2dd" offset="1"/>
            </linearGradient>
            <polygon fill="url(#XMLID_1659_)" points="60.76,61.344 21.712,50.086 15.275,22.271 54.146,30.062   "/>
            <linearGradient x1="-1355.123" gradientTransform="matrix(1 0 0 1 1389.252 -770.3545)" y1="802.4668" x2="-1348.7228" gradientUnits="userSpaceOnUse" y2="789.6661" xlink:type="simple" xlink:actuate="onLoad" id="XMLID_1660_" xlink:show="other">
                <stop stop-color="#ffffff" offset="0"/>
                <stop stop-color="#f9fbfd" offset="0.18"/>
                <stop stop-color="#e8f0f7" offset="0.41"/>
                <stop stop-color="#ccddec" offset="0.68"/>
                <stop stop-color="#a5c4de" offset="0.98"/>
                <stop stop-color="#a2c2dd" offset="1"/>
            </linearGradient>
            <polygon fill="url(#XMLID_1660_)" points="60.719,26.481 21.958,19.829 15.275,22.271 54.244,30.211   "/>
            <linearGradient x1="-1345.3872" gradientTransform="matrix(1 0 0 1 1389.252 -770.3545)" y1="784.0127" x2="-1343.1348" gradientUnits="userSpaceOnUse" y2="777.908" xlink:type="simple" xlink:actuate="onLoad" id="XMLID_1661_" xlink:show="other">
                <stop stop-color="#ffffff" offset="0"/>
                <stop stop-color="#e6eef6" offset="0.31"/>
                <stop stop-color="#a5c4de" offset="0.97"/>
                <stop stop-color="#a2c2dd" offset="1"/>
            </linearGradient>
            <polygon fill="url(#XMLID_1661_)" points="56.053,11.624 37.859,8.956 33.681,10.26 52.742,13.304   "/>
            <linearGradient x1="-1326.77" gradientTransform="matrix(1 0 0 1 1389.252 -770.3545)" y1="792.8447" x2="-1324.4652" gradientUnits="userSpaceOnUse" y2="786.593" xlink:type="simple" xlink:actuate="onLoad" id="XMLID_1662_" xlink:show="other">
                <stop stop-color="#ffffff" offset="0"/>
                <stop stop-color="#e6eef6" offset="0.31"/>
                <stop stop-color="#a5c4de" offset="0.97"/>
                <stop stop-color="#a2c2dd" offset="1"/>
            </linearGradient>
            <polygon fill="url(#XMLID_1662_)" points="74.406,20.208 55.83,17.404 52.604,19.217 70.518,22.224   "/>
            <linearGradient x1="-1318.9414" gradientTransform="matrix(1 0 0 1 1389.252 -770.3545)" y1="811.2881" x2="-1334.616" gradientUnits="userSpaceOnUse" y2="816.72" xlink:type="simple" xlink:actuate="onLoad" id="XMLID_1663_" xlink:show="other">
                <stop stop-color="#a2c2dd" offset="0"/>
                <stop stop-color="#8ca9cf" offset="0.26"/>
                <stop stop-color="#6c83bb" offset="0.67"/>
                <stop stop-color="#637db5" offset="0.72"/>
                <stop stop-color="#4c6ea4" offset="0.79"/>
                <stop stop-color="#265689" offset="0.88"/>
                <stop stop-color="#003d6d" offset="0.96"/>
                <stop stop-color="#003d6d" offset="1"/>
            </linearGradient>
            <polygon fill="url(#XMLID_1663_)" points="60.719,26.481 60.762,62.018 54.148,30.264   "/>
            <linearGradient x1="-1338.0371" gradientTransform="matrix(1 0 0 1 1389.252 -770.3545)" y1="795.7197" x2="-1317.0897" gradientUnits="userSpaceOnUse" y2="815.7092" xlink:type="simple" xlink:actuate="onLoad" id="XMLID_1664_" xlink:show="other">
                <stop stop-color="#a2c2dd" offset="0"/>
                <stop stop-color="#8ca9cf" offset="0.26"/>
                <stop stop-color="#6c83bb" offset="0.67"/>
                <stop stop-color="#637db5" offset="0.72"/>
                <stop stop-color="#4c6ea4" offset="0.79"/>
                <stop stop-color="#265689" offset="0.88"/>
                <stop stop-color="#003d6d" offset="0.96"/>
                <stop stop-color="#003d6d" offset="1"/>
            </linearGradient>
            <polygon fill="url(#XMLID_1664_)" points="74.406,20.208 60.773,61.775 70.518,22.224   "/>
            <linearGradient x1="-1358.3608" gradientTransform="matrix(1 0 0 1 1389.252 -770.3545)" y1="773.4053" x2="-1312.354" gradientUnits="userSpaceOnUse" y2="797.6875" xlink:type="simple" xlink:actuate="onLoad" id="XMLID_1665_" xlink:show="other">
                <stop stop-color="#ffffff" offset="0"/>
                <stop stop-color="#e4edf5" offset="0.1"/>
                <stop stop-color="#b4cee4" offset="0.28"/>
                <stop stop-color="#a2c2dd" offset="0.38"/>
                <stop stop-color="#8ca9cf" offset="0.5"/>
                <stop stop-color="#6c83bb" offset="0.71"/>
                <stop stop-color="#637db5" offset="0.76"/>
                <stop stop-color="#4c6ea4" offset="0.83"/>
                <stop stop-color="#265689" offset="0.91"/>
                <stop stop-color="#003d6d" offset="0.99"/>
                <stop stop-color="#003d6d" offset="1"/>
            </linearGradient>
            <polygon fill="url(#XMLID_1665_)" points="52.742,13.304 52.604,19.217 55.83,17.404 56.053,11.624   "/>
            <linearGradient x1="-1375.7134" gradientTransform="matrix(1 0 0 1 1389.252 -770.3545)" y1="829.5947" x2="-1339.0907" gradientUnits="userSpaceOnUse" y2="811.3624" xlink:type="simple" xlink:actuate="onLoad" id="XMLID_1666_" xlink:show="other">
                <stop stop-color="#ffffff" offset="0"/>
                <stop stop-color="#f4f8fb" offset="0.19"/>
                <stop stop-color="#d6e4f0" offset="0.52"/>
                <stop stop-color="#a7c5df" offset="0.96"/>
                <stop stop-color="#a2c2dd" offset="1"/>
            </linearGradient>
            <polygon fill="url(#XMLID_1666_)" points="21.904,50.105 29.254,25.128 54.199,30.256 60.762,62.018   "/>
            <radialGradient gradientTransform="matrix(1 0 0 1 1389.252 -770.3545)" gradientUnits="userSpaceOnUse" xlink:type="simple" r="23.2016" xlink:actuate="onLoad" cx="-1377.4927" id="XMLID_1667_" cy="817.0156" xlink:show="other">
                <stop stop-color="#dce8e4" offset="0"/>
                <stop stop-color="#43910a" offset="1"/>
            </radialGradient>
            <path fill="url(#XMLID_1667_)" d="M 15.193 42.294 C 9.576 42.294 5.0299997 46.843998 5.0299997 52.455997 C 5.0299997 53.162 5.101 53.851997 5.239 54.518997 C 5.239 54.518997 6.829 54.857 7.2599998 54.983997 C 6.699 56.040997 6.7999997 57.510998 7.12 58.325996 C 8.136 60.927998 10.951 62.621998 15.191999 62.621998 C 20.805 62.621998 25.358 58.067997 25.358 52.459 C 25.358 46.844 20.806 42.294 15.193 42.294 z "/>
            <circle fill="#17594c" r="1.605" cx="11.759" cy="51.256"/>
            <path fill="#17594c" d="M 6.705 50.52 C 6.5 51.385002 5.765 51.983 5.059 51.852 C 4.95 51.258 5.353 49.385002 5.795 48.708 C 6.5 48.839 6.907 49.646 6.705 50.52 z "/>
            <path fill="#17594c" d="M 5.227 54.521 L 7.156 54.916 C 7.156 54.916 5.927 58.641 8.459 59.661 C 13.591 61.736 19.437 56.382 19.437 56.382 L 5.227 54.521 z "/>
            <linearGradient x1="-1364.7729" gradientTransform="matrix(1 0 0 1 1389.252 -770.3545)" y1="792.4111" x2="-1343.2766" gradientUnits="userSpaceOnUse" y2="822.8031" xlink:type="simple" xlink:actuate="onLoad" id="XMLID_1668_" xlink:show="other">
                <stop stop-color="#e6eef4" offset="0"/>
                <stop stop-color="#9ec8d1" offset="0.15"/>
                <stop stop-color="#62a9b3" offset="0.29"/>
                <stop stop-color="#3d95a1" offset="0.39"/>
                <stop stop-color="#2f8e9a" offset="0.44"/>
                <stop stop-color="#247c90" offset="0.52"/>
                <stop stop-color="#115a7d" offset="0.7"/>
                <stop stop-color="#044571" offset="0.84"/>
                <stop stop-color="#003d6d" offset="0.94"/>
                <stop stop-color="#003d6d" offset="1"/>
            </linearGradient>
            <path fill="url(#XMLID_1668_)" d="M 44.346 49.447 L 45.317 53.364998 L 50.362 54.906 L 45.723 33.352997 L 40.761 32.345997 L 41.589 36.067997 L 30.32 33.404 L 29.612999 30.133 L 25.144999 29.222 L 29.830997 48.361 L 34.330997 49.754 L 33.496998 46.264 L 44.346 49.447 z M 49.051 53.971 L 46.668 53.294003 L 46.307 51.852 L 48.694 52.516003 L 49.051 53.971 z M 48.451 51.447 L 46.068 50.795 L 45.801003 49.616997 L 48.185 50.255997 L 48.451 51.447 z M 47.945 49.184 L 45.556 48.551 L 45.295 47.362 L 47.678997 47.979 L 47.945 49.184 z M 47.441 46.898 L 45.056004 46.289997 L 44.795002 45.093998 L 47.174004 45.688 L 47.441 46.898 z M 46.945 44.602 L 44.564 44.02 L 44.3 42.811 L 46.682 43.383 L 46.945 44.602 z M 46.449 42.291 L 44.07 41.732002 L 43.81 40.517002 L 46.191 41.070004 L 46.449 42.291 z M 45.955 39.973 L 43.586002 39.434 L 43.322002 38.214996 L 45.705 38.744995 L 45.955 39.973 z M 45.479 37.646 L 43.1 37.125 L 42.845997 35.902 L 45.225 36.406002 L 45.479 37.646 z M 44.746 34.061 L 44.996 35.302002 L 42.622997 34.807003 L 42.37 33.578003 L 44.746 34.061 z M 42.123 38.127 L 44.041 47.468998 L 32.914 44.330997 L 30.863 35.35 L 42.123 38.127 z M 26.396 30.356 L 28.674 30.813002 L 28.935 31.944002 L 26.647999 31.475002 L 26.396 30.356 z M 26.881 32.475 L 29.17 32.959 L 29.433 34.086 L 27.142 33.586998 L 26.881 32.475 z M 27.377 34.583 L 29.665 35.094 L 29.928001 36.214 L 27.642002 35.694 L 27.377 34.583 z M 27.879 36.678 L 30.17 37.215 L 30.437 38.329 L 28.143 37.779 L 27.879 36.678 z M 28.385 38.762 L 30.679 39.321 L 30.949001 40.427998 L 28.652 39.856 L 28.385 38.762 z M 28.895 40.83 L 31.194 41.420002 L 31.464 42.516003 L 29.167 41.917004 L 28.895 40.83 z M 29.688 43.962 L 29.41 42.885002 L 31.715 43.498 L 31.988 44.596 L 29.688 43.962 z M 29.931 44.928 L 32.234 45.565002 L 32.514 46.651 L 30.209 45.999 L 29.931 44.928 z M 33.089 48.811 L 30.785 48.127 L 30.459 46.954998 L 32.763 47.62 L 33.089 48.811 z "/>
        </g>
        <rect width="84" fill="none" height="72"/>
    </g>
</svg>
