<?xml version="1.0" encoding="UTF-8"?>
<svg xmlns="http://www.w3.org/2000/svg" xmlns:xlink="http://www.w3.org/1999/xlink" contentScriptType="text/ecmascript" width="84" baseProfile="tiny" zoomAndPan="magnify" contentStyleType="text/css" viewBox="0 0 84 58" height="58" preserveAspectRatio="xMidYMid meet" version="1.1">
    <g>
        <g>
            <path fill="#ffffff" d="M 56.232 3.979 L 37.126 7.749 C 32.778 8.019 27.608 11.214 27.501999 19.308 C 27.501999 19.308 27.615 23.803001 27.633 24.537 C 26.869 24.407001 19.418999 23.140001 19.418999 23.140001 L 17.642998 23.661001 C 17.642998 23.661001 18.610998 40.344 18.638998 40.803 C 18.319998 40.955 17.278997 41.455 17.278997 41.455 C 14.666998 42.475002 13.031998 44.404003 13.031998 46.350002 C 13.031998 46.639004 13.068997 46.928 13.142998 47.217003 C 13.3499975 49.471004 14.718998 51.387 16.990997 52.557003 C 21.537998 54.903004 27.292997 54.996002 34.093998 52.834003 L 49.909996 46.752003 C 49.909996 46.752003 50.129997 44.215004 50.152996 43.943 C 50.464996 43.759003 67.459 33.711 67.459 33.711 L 68.777 16.112999 C 68.777 16.053999 68.777 15.997999 68.777 15.939999 C 68.777 11.991999 67.106 8.400999 64.176 6.0479984 C 61.771 4.115 58.877 3.363 56.232 3.979 z "/>
            <linearGradient x1="-730.9004" gradientTransform="matrix(1.1905 0 0 -1.1905 875.6733 1344.9003)" y1="1079.8789" x2="-694.4839" gradientUnits="userSpaceOnUse" y2="1098.0956" xlink:type="simple" xlink:actuate="onLoad" id="XMLID_19_" xlink:show="other">
                <stop stop-color="#ffffff" offset="0"/>
                <stop stop-color="#a2c2dd" offset="0.35"/>
                <stop stop-color="#6c83bb" offset="0.7"/>
                <stop stop-color="#003d6d" offset="1"/>
            </linearGradient>
            <path fill="url(#XMLID_19_)" d="M 49.846 43.746 L 33.604 49.942997 C 27.869999 51.989998 15.708 50.604996 13.461 46.183 C 13.333 48.863 14.765 51.013 17.151001 52.239998 C 21.364 54.413998 26.95 54.733997 33.985 52.497997 L 49.575 46.497997 L 49.846 43.746 z "/>
            <linearGradient x1="-694.5244" gradientTransform="matrix(1.1905 0 0 -1.1905 875.6733 1344.9003)" y1="1127.7383" x2="-689.0193" gradientUnits="userSpaceOnUse" y2="1110.5116" xlink:type="simple" xlink:actuate="onLoad" id="XMLID_20_" xlink:show="other">
                <stop stop-color="#ffffff" offset="0"/>
                <stop stop-color="#ffffff" offset="0.05"/>
                <stop stop-color="#a2c2dd" offset="1"/>
            </linearGradient>
            <path fill="url(#XMLID_20_)" d="M 50.218 23.433 L 49.675 43.817 L 67.121 33.5 L 68.424 16.085 C 68.517006 8.415998 62.017002 2.9909992 56.314003 4.324999 L 34.958 8.537 C 41.531 7.154 49.153 12.209 50.218 23.433 z "/>
            <linearGradient x1="-719.0107" gradientTransform="matrix(1.1905 0 0 -1.1905 875.6733 1344.9003)" y1="1121.7578" x2="-680.6116" gradientUnits="userSpaceOnUse" y2="1087.6017" xlink:type="simple" xlink:actuate="onLoad" id="XMLID_21_" xlink:show="other">
                <stop stop-color="#ffffff" offset="0"/>
                <stop stop-color="#ffffff" offset="0.05"/>
                <stop stop-color="#a2c2dd" offset="1"/>
            </linearGradient>
            <path fill="url(#XMLID_21_)" d="M 28.321 37.867 L 27.854 19.314001 C 27.989 9.101 36.389 6.744 41.203 8.7 C 45.475 10.434 49.947998 16.041 50.281 23.050999 L 49.814 43.808 L 28.321 37.867 z "/>
            <linearGradient x1="-688.3184" gradientTransform="matrix(1.1905 0 0 -1.1905 875.6733 1344.9003)" y1="1069.4775" x2="-708.6272" gradientUnits="userSpaceOnUse" y2="1120.8594" xlink:type="simple" xlink:actuate="onLoad" id="XMLID_22_" xlink:show="other">
                <stop stop-color="#ffffff" offset="0"/>
                <stop stop-color="#a2c2dd" offset="0.35"/>
                <stop stop-color="#6c83bb" offset="0.7"/>
                <stop stop-color="#003d6d" offset="1"/>
            </linearGradient>
            <path fill="url(#XMLID_22_)" d="M 29.994 36.223 L 29.598 20.112 C 29.711 11.509 36.789 9.523 40.844 11.171 C 44.443 12.634999 48.167 17.324999 48.446003 23.228 L 48.102 40.75 L 29.994 36.223 z "/>
            <linearGradient x1="-691.6021" gradientTransform="matrix(1.1905 0 0 -1.1905 875.6733 1344.9003)" y1="1115.373" x2="-683.7172" gradientUnits="userSpaceOnUse" y2="1105.4048" xlink:type="simple" xlink:actuate="onLoad" id="XMLID_23_" xlink:show="other">
                <stop stop-color="#e6eef4" offset="0"/>
                <stop stop-color="#c03a3a" offset="0.44"/>
                <stop stop-color="#302d02" offset="0.94"/>
                <stop stop-color="#302d02" offset="1"/>
            </linearGradient>
            <path fill="url(#XMLID_23_)" d="M 63.92 27.102 C 63.213997 27.936998 62.425 28.359 61.843 28.525 C 61.169 28.715 60.695 28.743 60.135 28.585 L 60.135 28.585 C 57.938 30.460999 54.759 29.669998 54.961998 26.248 C 55.073997 24.425999 56.131996 22.682 57.610996 21.612999 C 58.798996 20.752998 60.823997 20.185999 62.057995 21.731998 L 61.758995 26.760998 C 61.863995 26.854998 62.121994 26.761997 62.330994 26.702997 C 62.522995 26.649998 63.024994 26.192997 63.339993 25.683998 C 63.607994 25.250998 64.05899 24.744999 64.174995 22.821 C 64.288994 20.894999 62.323994 18.358 59.043995 19.278 C 56.053993 20.116 53.613995 23.361 53.412994 26.783 C 53.224995 29.887001 55.467995 31.991001 58.463993 31.153 C 59.136993 30.964 60.499992 30.372 61.412994 29.379 C 61.387993 29.796999 61.297993 31.303 61.297993 31.303 C 60.49399 32.055 59.297993 32.592 58.359993 32.857998 C 54.50199 33.946 51.600994 31.070997 51.877995 26.790998 C 52.164993 22.367998 55.082993 18.638998 59.281994 17.46 C 63.086994 16.391998 65.701 19.685 65.53999 22.393 C 65.399 24.748 64.738 26.134 63.92 27.102 z M 60.249 26.657 C 60.308 25.73 60.350002 24.986 60.403 24.057999 C 60.431 23.560999 60.477 22.807 60.477 22.807 C 59.210003 21.793 56.646 23.459 56.503002 25.813 C 56.364 28.167 58.815 28.427 60.249 26.657 z "/>
            <linearGradient x1="-674.022" gradientTransform="matrix(1.1905 0 0 -1.1905 875.6733 1344.9003)" y1="1073.4609" x2="-701.8843" gradientUnits="userSpaceOnUse" y2="1101.0353" xlink:type="simple" xlink:actuate="onLoad" id="XMLID_24_" xlink:show="other">
                <stop stop-color="#ffffff" offset="0"/>
                <stop stop-color="#a2c2dd" offset="0.35"/>
                <stop stop-color="#6c83bb" offset="0.7"/>
                <stop stop-color="#003d6d" offset="1"/>
            </linearGradient>
            <polygon fill="url(#XMLID_24_)" points="30.024,36.191 48.102,40.748 48.308,30.256   "/>
            <linearGradient x1="-731.8726" gradientTransform="matrix(1.1905 0 0 -1.1905 875.6733 1344.9003)" y1="1097.0742" x2="-699.5458" gradientUnits="userSpaceOnUse" y2="1087.7582" xlink:type="simple" xlink:actuate="onLoad" id="XMLID_25_" xlink:show="other">
                <stop stop-color="#ffffff" offset="0"/>
                <stop stop-color="#ffffff" offset="0.05"/>
                <stop stop-color="#a2c2dd" offset="1"/>
            </linearGradient>
            <path fill="url(#XMLID_25_)" d="M 28.321 37.867 L 17.431 41.773 C 13.386999 43.350998 11.461 47.382 15.996 49.945 C 20.4 52.437 26.282001 52.527 33.559998 50.201 L 49.813995 43.808 L 28.321 37.867 z "/>
            <linearGradient x1="-725.5195" gradientTransform="matrix(1.1905 0 0 -1.1905 875.6733 1344.9003)" y1="1087.3682" x2="-716.627" gradientUnits="userSpaceOnUse" y2="1090.4763" xlink:type="simple" xlink:actuate="onLoad" id="XMLID_26_" xlink:show="other">
                <stop stop-color="#ffffff" offset="0"/>
                <stop stop-color="#ffffff" offset="0.05"/>
                <stop stop-color="#a2c2dd" offset="1"/>
            </linearGradient>
            <path fill="url(#XMLID_26_)" d="M 28.101 39.361 L 18.779 42.48 C 14.464999 44.111 14.368 46.748 17.758 48.600998 C 21.390999 50.591 26.855 50.420998 32.459 48.797997 L 45.82 44.104996 L 28.101 39.361 z "/>
            <linearGradient x1="-728.0039" gradientTransform="matrix(1.1905 0 0 -1.1905 875.6733 1344.9003)" y1="1089.8145" x2="-711.2103" gradientUnits="userSpaceOnUse" y2="1095.5986" xlink:type="simple" xlink:actuate="onLoad" id="XMLID_27_" xlink:show="other">
                <stop stop-color="#ffffff" offset="0"/>
                <stop stop-color="#a2c2dd" offset="0.35"/>
                <stop stop-color="#6c83bb" offset="0.7"/>
                <stop stop-color="#003d6d" offset="1"/>
            </linearGradient>
            <path fill="url(#XMLID_27_)" d="M 28.207 39.359 L 18.885002 42.48 C 15.7750025 43.617 14.932002 45.203 15.6760025 46.823997 C 15.914002 45.711 17.010002 44.874996 19.096003 44.113 L 28.174004 41.179 L 28.207 39.359 z "/>
            <linearGradient x1="-714.0557" gradientTransform="matrix(1.1905 0 0 -1.1905 875.6733 1344.9003)" y1="1097.417" x2="-698.4384" gradientUnits="userSpaceOnUse" y2="1091.7087" xlink:type="simple" xlink:actuate="onLoad" id="XMLID_28_" xlink:show="other">
                <stop stop-color="#ffffff" offset="0"/>
                <stop stop-color="#a2c2dd" offset="0.35"/>
                <stop stop-color="#6c83bb" offset="0.7"/>
                <stop stop-color="#003d6d" offset="1"/>
            </linearGradient>
            <polygon fill="url(#XMLID_28_)" points="28.207,39.359 45.847,44.057 42.639,45.176 28.174,41.18   "/>
            <linearGradient x1="-717.5176" gradientTransform="matrix(1.1905 0 0 -1.1905 875.6733 1344.9003)" y1="1113.1875" x2="-698.6731" gradientUnits="userSpaceOnUse" y2="1081.4271" xlink:type="simple" xlink:actuate="onLoad" id="XMLID_29_" xlink:show="other">
                <stop stop-color="#d6e4f3" offset="0"/>
                <stop stop-color="#337ce5" offset="1"/>
            </linearGradient>
            <polygon fill="url(#XMLID_29_)" points="18.116,23.908 19.126,41.135 41.612,47.133 41.93,28.698   "/>
            <linearGradient x1="-723.2622" gradientTransform="matrix(1.1905 0 0 -1.1905 875.6733 1344.9003)" y1="1092.4111" x2="-705.2119" gradientUnits="userSpaceOnUse" y2="1106.3364" xlink:type="simple" xlink:actuate="onLoad" id="XMLID_30_" xlink:show="other">
                <stop stop-color="#e6eef4" offset="0"/>
                <stop stop-color="#337ce5" offset="0.44"/>
                <stop stop-color="#003d6d" offset="0.94"/>
                <stop stop-color="#003d6d" offset="1"/>
            </linearGradient>
            <polygon fill="url(#XMLID_30_)" points="19.134,41.129 27.285,33.863 28.139,34.801   "/>
            <linearGradient x1="-700.7334" gradientTransform="matrix(1.1905 0 0 -1.1905 875.6733 1344.9003)" y1="1088.7119" x2="-713.3353" gradientUnits="userSpaceOnUse" y2="1108.2499" xlink:type="simple" xlink:actuate="onLoad" id="XMLID_31_" xlink:show="other">
                <stop stop-color="#e6eef4" offset="0"/>
                <stop stop-color="#337ce5" offset="0.44"/>
                <stop stop-color="#003d6d" offset="0.94"/>
                <stop stop-color="#003d6d" offset="1"/>
            </linearGradient>
            <polygon fill="url(#XMLID_31_)" points="41.623,47.109 33.042,34.971 31.78,35.74   "/>
            <linearGradient x1="-718.3315" gradientTransform="matrix(1.1905 0 0 -1.1905 875.6733 1344.9003)" y1="1110.7666" x2="-690.1729" gradientUnits="userSpaceOnUse" y2="1102.0861" xlink:type="simple" xlink:actuate="onLoad" id="XMLID_32_" xlink:show="other">
                <stop stop-color="#d6e4f3" offset="0"/>
                <stop stop-color="#337ce5" offset="1"/>
            </linearGradient>
            <polygon fill="url(#XMLID_32_)" points="43.625,27.587 19.536,23.494 18.108,23.911 41.92,28.458   "/>
            <linearGradient x1="-709.6201" gradientTransform="matrix(1.1905 0 0 -1.1905 875.6733 1344.9003)" y1="1110.9092" x2="-709.6201" gradientUnits="userSpaceOnUse" y2="1086.9821" xlink:type="simple" xlink:actuate="onLoad" id="XMLID_33_" xlink:show="other">
                <stop stop-color="#e6eef4" offset="0"/>
                <stop stop-color="#337ce5" offset="0.44"/>
                <stop stop-color="#003d6d" offset="0.94"/>
                <stop stop-color="#003d6d" offset="1"/>
            </linearGradient>
            <polygon fill="url(#XMLID_33_)" points="41.92,28.458 18.151,24.064 28.419,41.258 41.907,29.146 41.612,47.133 42.928,45.779     43.625,27.587   "/>
            <linearGradient x1="-710.3833" gradientTransform="matrix(1.1905 0 0 -1.1905 875.6733 1344.9003)" y1="1108.7842" x2="-709.9598" gradientUnits="userSpaceOnUse" y2="1093.7511" xlink:type="simple" xlink:actuate="onLoad" id="XMLID_34_" xlink:show="other">
                <stop stop-color="#d6e4f3" offset="0"/>
                <stop stop-color="#337ce5" offset="1"/>
            </linearGradient>
            <polygon fill="url(#XMLID_34_)" points="18.108,23.911 27.956,38.795 41.92,28.458   "/>
            <linearGradient x1="-718.6553" gradientTransform="matrix(1.1905 0 0 -1.1905 875.6733 1344.9003)" y1="1118.1855" x2="-726.092" gradientUnits="userSpaceOnUse" y2="1115.78" xlink:type="simple" xlink:actuate="onLoad" id="XMLID_35_" xlink:show="other">
                <stop stop-color="#e6eef4" offset="0"/>
                <stop stop-color="#4a9900" offset="0.44"/>
                <stop stop-color="#0e4e58" offset="0.94"/>
                <stop stop-color="#0e4e58" offset="1"/>
            </linearGradient>
            <polygon fill="url(#XMLID_35_)" points="20.725,17.403 17.119,18.501 14.987,11.524 18.592,10.423   "/>
            <linearGradient x1="-725.3042" gradientTransform="matrix(1.1905 0 0 -1.1905 875.6733 1344.9003)" y1="1114.0518" x2="-728.4213" gradientUnits="userSpaceOnUse" y2="1107.5212" xlink:type="simple" xlink:actuate="onLoad" id="XMLID_36_" xlink:show="other">
                <stop stop-color="#e6eef4" offset="0"/>
                <stop stop-color="#4a9900" offset="0.44"/>
                <stop stop-color="#0e4e58" offset="0.94"/>
                <stop stop-color="#0e4e58" offset="1"/>
            </linearGradient>
            <polygon fill="url(#XMLID_36_)" points="15.431,20.485 13.73,23.85 7.216,20.56 8.917,17.195   "/>
        </g>
        <rect width="84" fill="none" height="58"/>
    </g>
</svg>
