<?xml version="1.0" encoding="UTF-8"?>
<svg xmlns="http://www.w3.org/2000/svg" xmlns:xlink="http://www.w3.org/1999/xlink" contentScriptType="text/ecmascript" width="12" baseProfile="tiny" zoomAndPan="magnify" contentStyleType="text/css" viewBox="0 0 12 200" height="200" preserveAspectRatio="xMidYMid meet" version="1.1">
    <g>
        <g>
            <g>
                <path d="M 0.0 35.464 L 0.0 164.535 C 0.0 167.445 2.804 170.0 6.0 170.0 C 9.195 170.0 12.0 167.445 12.0 164.535 L 12.0 35.464 C 12.0 34.002 11.318 32.612 10.085 31.550001 C 8.939 30.565 7.451 30.0 6.0 30.0 C 2.804 30.0 0.0 32.553 0.0 35.464 z " fill-opacity="0.5"/>
                <path fill="#00381d" d="M 6.0 169.0 C 3.516 169.0 1.0 166.998 1.0 164.535 L 1.0 35.464 C 1.0 33.0 3.516 31.0 6.0 31.0 L 6.0 31.0 C 8.486 31.0 11.0 32.999 11.0 35.463 L 11.0 164.533 C 11.0 166.998 8.486 169.0 6.0 169.0 L 6.0 169.0 z "/>
            </g>
            <rect width="12" fill="none" height="200"/>
        </g>
    </g>
</svg>
