<?xml version="1.0" encoding="UTF-8"?>
<svg xmlns="http://www.w3.org/2000/svg" xmlns:xlink="http://www.w3.org/1999/xlink" contentScriptType="text/ecmascript" width="24" baseProfile="tiny" zoomAndPan="magnify" contentStyleType="text/css" viewBox="0 0 24 26" height="26" preserveAspectRatio="xMidYMid meet" version="1.1">
    <radialGradient gradientTransform="matrix(3.8462 0 0 -3.8462 3518.1357 5055.9199)" gradientUnits="userSpaceOnUse" xlink:type="simple" r="4.7435" xlink:actuate="onLoad" cx="-911.4526" id="XMLID_5_" cy="1312.9102" xlink:show="other">
        <stop stop-color="#ffffff" offset="0"/>
        <stop stop-color="#a2c2dd" offset="0.53"/>
        <stop stop-color="#6c83bb" offset="0.87"/>
        <stop stop-color="#003d6d" offset="1"/>
    </radialGradient>
    <circle fill="url(#XMLID_5_)" r="9.86" cx="10.604" cy="12.602"/>
    <radialGradient gradientTransform="matrix(3.8462 0 0 -3.8462 3518.1357 5055.9199)" gradientUnits="userSpaceOnUse" xlink:type="simple" r="2.8046" xlink:actuate="onLoad" cx="-911.8726" id="XMLID_6_" cy="1313.2891" xlink:show="other">
        <stop stop-color="#a2c2dd" offset="0"/>
        <stop stop-color="#a2c2dd" offset="0.1"/>
        <stop stop-color="#6c83bb" offset="0.71"/>
        <stop stop-color="#003d6d" offset="0.99"/>
        <stop stop-color="#003d6d" offset="1"/>
    </radialGradient>
    <path fill="url(#XMLID_6_)" d="M 5.647 4.064 C 5.199 4.33 4.0 5.179 3.983 5.512 C 3.967 5.844 4.333 5.428 4.368 5.344 C 4.401 5.262 5.0 4.961 5.166 4.813 C 5.334 4.662 5.5829997 4.6140003 5.916 4.296 C 6.247 3.98 7.282 3.947 7.463 3.864 C 7.648 3.78 8.629 3.497 8.528 3.664 C 8.427 3.83 8.078 4.097 7.096 4.297 C 7.03 4.297 5.198 5.38 6.197 5.0629997 C 6.381 5.0449996 6.897 5.0299997 7.146 5.113 C 7.397 5.1949997 9.461 4.513 9.443 4.08 L 10.276 2.815 C 9.577 2.7150002 7.895 3.1660001 7.646 3.231 C 7.5959997 3.28 7.013 3.514 7.013 3.514 C 7.013 3.514 6.18 3.931 5.647 4.064 z "/>
    <radialGradient gradientTransform="matrix(3.8462 0 0 -3.8462 3518.1357 5055.9199)" gradientUnits="userSpaceOnUse" xlink:type="simple" r="3.7462" xlink:actuate="onLoad" cx="-911.6938" id="XMLID_7_" cy="1312.4209" xlink:show="other">
        <stop stop-color="#e6eef4" offset="0"/>
        <stop stop-color="#4a9900" offset="0.44"/>
        <stop stop-color="#0e4e58" offset="0.94"/>
        <stop stop-color="#0e4e58" offset="1"/>
    </radialGradient>
    <path fill="url(#XMLID_7_)" d="M 15.654 4.313 L 16.173 5.4290004 L 17.368 5.8600006 C 17.368 5.8600006 18.249 7.6900005 18.318 7.7240005 C 18.380001 7.7570004 18.681002 7.8570004 18.781 7.8400006 C 18.846 8.206 18.75 8.206 18.75 8.206 L 18.267 7.9740005 L 18.468 8.790001 L 19.398 10.370001 C 19.283 10.620001 18.832 12.099001 18.832 12.099001 C 18.832 12.099001 19.417 12.632001 19.333 13.214001 C 19.248001 13.7960005 18.936 13.4470005 18.85 13.398001 C 18.769001 13.349001 12.347 13.249001 12.449 13.349001 C 13.115001 13.814001 12.848001 14.148001 12.848001 14.148001 L 11.798 15.079 C 11.798 15.079 10.916 15.477 10.651 15.544001 C 10.168 15.844001 10.699 15.962001 11.232 15.827001 C 11.764 15.694 11.714001 15.911 11.629001 16.128 C 11.505001 16.434 11.165001 16.898 11.165001 16.898 L 9.085001 20.219002 C 9.085001 20.219002 8.819001 20.816002 8.718001 20.901001 C 8.369001 21.347 7.9190016 21.297 7.720001 21.201 C 6.8030014 21.380001 6.0400014 19.904 5.9890013 19.768 C 5.9400015 19.637 5.274001 19.302 5.492001 18.705 C 5.707001 18.105999 5.174001 17.242 5.143001 17.175 C 5.1070013 17.109 4.807001 15.884999 4.1600013 15.325999 C 4.0920014 15.265999 3.3790011 15.094999 2.9960012 14.978 C 2.6140013 14.863999 2.4460013 13.948 2.2800012 13.563 C 2.113001 13.179 2.5620012 11.702 2.580001 11.603 C 2.5950012 11.502999 3.1950011 10.9869995 3.1950011 10.9869995 L 4.460001 10.155999 L 4.392 9.568 C 4.392 9.568 4.993 8.755 5.1070004 9.0199995 C 5.2240005 9.287 5.807 9.235999 5.7560005 8.853 C 5.707 8.47 5.84 8.288 5.989 8.271 C 6.139 8.254 6.006 7.94 5.824 7.705 C 5.64 7.474 6.106 7.4049997 6.407 7.123 C 6.706 6.841 6.489 7.739 6.489 8.04 C 6.489 8.339 7.5039997 7.54 7.553 7.49 C 7.438 6.9069996 7.903 6.759 8.034 6.7409997 C 8.169 6.725 8.85 6.115 9.616 6.092 C 9.749001 6.109 10.347 6.591 10.497 6.591 C 10.648 6.591 11.828 6.277 11.863 6.059 C 11.894 5.844 12.01 5.726 12.229 5.643 C 12.445 5.5610003 12.476 4.861 12.476 4.861 C 12.476 4.861 12.735 4.757 12.844 4.797 C 13.357 4.976 13.478 4.63 13.625 4.578 C 13.776 4.53 13.641 4.23 13.594 4.098 C 13.776999 3.6990001 12.828 3.3070002 13.1779995 3.3330002 C 14.541 3.431 15.507 4.078 15.654 4.313 z M 4.611 10.2 L 4.745 10.365 C 4.745 10.365 5.4319997 10.436 6.113 10.7 C 6.217 10.804 6.092 11.297 6.092 11.297 C 6.092 11.297 6.824 12.294 6.974 12.111 C 7.123 11.927 7.323 11.7630005 7.555 11.927 C 7.789 12.093 8.353 12.293 8.637 12.293 C 8.754 12.326 9.335 12.509 9.319 11.628 C 9.09 11.311 8.504001 11.360001 8.404 11.279 C 8.305 11.196 8.1050005 10.597 8.1050005 10.597 L 7.9060006 10.647 C 7.9060006 10.647 7.8740005 11.063001 7.7560005 11.063001 C 7.6400003 11.063001 7.3900003 10.431001 7.3900003 10.431001 L 7.424 10.1 L 7.04 9.633 C 7.04 9.633 6.79 9.751 7.272 10.364 C 7.272 10.364 6.94 10.713 6.6899996 10.7300005 C 6.7559996 10.647 6.9069996 10.264001 6.9069996 10.264001 C 6.9069996 10.264001 6.1459994 9.324001 5.9909997 9.451001 C 5.81 9.6 5.276 9.882 5.276 9.882 L 4.927 10.182 L 4.611 10.2 z M 8.636 7.106 C 8.279 7.684 7.758 7.848 7.804 8.055 C 7.822 8.139 8.322 8.255 8.403 8.022 C 8.486 7.7890005 8.787 7.7390003 8.787 7.6400003 C 8.787 7.538 8.683 7.033 8.636 7.106 z M 9.318 9.95 C 9.235 9.915999 9.068 9.617 8.8689995 9.833 C 8.671 10.051001 8.419 10.531 8.671 10.566 C 8.919 10.599 9.559999 10.645 10.184 10.531 C 10.162 10.008 9.318 9.95 9.318 9.95 z M 8.984 12.96 C 8.979 13.063 9.402 14.058001 9.402 14.058001 C 9.402 14.058001 9.368 14.391001 9.450001 14.507001 C 9.534 14.624001 9.831 15.239001 10.166 15.339001 C 10.647 14.784 9.717 14.06 9.717 14.06 L 9.684 13.777 C 9.684 13.775 9.019 12.496 8.984 12.96 z M 11.214 12.662 L 11.231999 12.943999 L 11.829999 13.61 C 11.829999 13.61 12.378999 13.559999 12.277999 13.160999 L 11.796999 12.9939995 L 11.462999 12.6779995 L 11.214 12.662 z "/>
    <linearGradient x1="-911.0952" gradientTransform="matrix(3.8462 0 0 -3.8462 3518.1357 5055.9199)" y1="1310.1494" x2="-910.5776" gradientUnits="userSpaceOnUse" y2="1309.1321" xlink:type="simple" xlink:actuate="onLoad" id="XMLID_8_" xlink:show="other">
        <stop stop-color="#a2c2dd" offset="0"/>
        <stop stop-color="#a2c2dd" offset="0.1"/>
        <stop stop-color="#6c83bb" offset="0.71"/>
        <stop stop-color="#003d6d" offset="0.99"/>
        <stop stop-color="#003d6d" offset="1"/>
    </linearGradient>
    <path fill="url(#XMLID_8_)" d="M 20.236 14.693 L 16.266 10.724 L 13.585001 13.406 L 16.749 16.656 L 8.268 16.656 L 8.247999 20.318 L 16.709 20.339 C 16.71 20.336 19.418 18.489 20.236 14.693 z "/>
    <polygon fill="#235487" points="16.338,11.727 14.58,13.484 18.397,17.305 8.932,17.305 8.932,19.663 18.399,19.663 14.58,23.483   16.338,25.243 23.094,18.487 "/>
    <rect width="24" fill="none" height="26"/>
</svg>
