<?xml version="1.0" encoding="UTF-8"?>
<svg xmlns="http://www.w3.org/2000/svg" xmlns:xlink="http://www.w3.org/1999/xlink" contentScriptType="text/ecmascript" width="170" baseProfile="tiny" zoomAndPan="magnify" contentStyleType="text/css" viewBox="0 0 170 20" height="20" preserveAspectRatio="xMidYMid meet" version="1.1">
    <g>
        <rect width="170" fill="none" height="20"/>
        <g>
            <path fill="#ffffff" d="M 2.941 0.134 C 1.532 0.134 0.38400006 1.1259999 0.38400006 2.346 L 0.38400006 17.25 C 0.38400006 18.471 1.531 19.462 2.941 19.462 L 167.44499 19.462 C 168.853 19.462 169.99998 18.471 169.99998 17.25 L 169.99998 2.347 C 169.99998 1.1269999 168.85399 0.13499999 167.44499 0.13499999 L 2.941 0.134 L 2.941 0.134 z M 1.412 17.25 L 1.412 2.347 C 1.412 1.6589999 2.099 1.1009998 2.941 1.1009998 L 167.44499 1.1009998 C 168.28899 1.1009998 168.974 1.6589999 168.974 2.347 L 168.974 17.25 C 168.974 17.938 168.286 18.496 167.44499 18.496 L 2.941 18.496 C 2.099 18.496 1.412 17.938 1.412 17.25 z " fill-opacity="0.5"/>
        </g>
        <rect x="0.385" width="169.615" fill="none" y="0.134" height="19.329"/>
    </g>
</svg>
