<?xml version="1.0" encoding="UTF-8"?>
<svg xmlns="http://www.w3.org/2000/svg" xmlns:xlink="http://www.w3.org/1999/xlink" contentScriptType="text/ecmascript" width="13" baseProfile="tiny" zoomAndPan="magnify" contentStyleType="text/css" viewBox="0 0 13 13" height="13" preserveAspectRatio="xMidYMid meet" version="1.1">
    <g>
        <rect x="4.023" width="4.799" fill="#a2c2dd" y="0.24" height="2.951"/>
        <rect x="4.023" width="4.799" fill="#a2c2dd" y="9.907" height="2.864"/>
        <rect x="4.023" width="4.799" fill="#a2c2dd" y="4.151" height="4.798"/>
        <path fill="#496da2" d="M 10.739 0.233 L 10.739 1.274 L 9.781 1.274 L 9.781 0.233 L 8.82 0.233 L 8.82 0.24 L 8.82 3.19 L 4.023 3.19 L 4.023 0.24 L 4.023 0.233 L 3.063 0.233 L 3.063 1.274 L 2.104 1.274 L 2.104 0.233 L 1.144 0.233 L 1.144 12.787 L 2.104 12.787 L 2.104 11.827 L 3.062 11.827 L 3.062 12.787 L 4.021 12.787 L 4.021 12.771 L 4.021 9.907 L 8.82 9.907 L 8.82 12.771 L 8.82 12.787 L 9.78 12.787 L 9.78 11.827 L 10.738 11.827 L 10.738 12.787 L 11.698 12.787 L 11.698 0.233 L 10.739 0.233 z M 9.781 7.988 L 10.739 7.988 L 10.739 8.947 L 9.781 8.947 L 9.781 7.988 z M 10.739 5.11 L 9.781 5.11 L 9.781 4.151 L 10.739 4.151 L 10.739 5.11 z M 10.739 6.07 L 10.739 7.03 L 9.781 7.03 L 9.781 6.07 L 10.739 6.07 z M 10.739 2.232 L 10.739 3.19 L 9.781 3.19 L 9.781 2.232 L 10.739 2.232 z M 4.023 4.151 L 8.822 4.151 L 8.822 8.948999 L 4.023 8.948999 L 4.023 4.151 z M 3.063 2.232 L 3.063 3.19 L 2.104 3.19 L 2.104 2.232 L 3.063 2.232 z M 2.104 7.029 L 2.104 6.07 L 3.062 6.07 L 3.062 7.03 L 2.104 7.029 L 2.104 7.029 z M 3.063 7.988 L 3.063 8.947 L 2.104 8.947 L 2.104 7.988 L 3.063 7.988 z M 2.104 5.11 L 2.104 4.151 L 3.062 4.151 L 3.062 5.11 L 2.104 5.11 z M 2.104 10.867 L 2.104 9.907 L 3.062 9.907 L 3.062 10.867 L 2.104 10.867 z M 9.781 10.867 L 9.781 9.907 L 10.739 9.907 L 10.739 10.867 L 9.781 10.867 z "/>
    </g>
    <rect width="13" fill="none" height="13"/>
</svg>
