<?xml version="1.0" encoding="UTF-8"?>
<svg xmlns="http://www.w3.org/2000/svg" xmlns:xlink="http://www.w3.org/1999/xlink" contentScriptType="text/ecmascript" width="44" baseProfile="tiny" zoomAndPan="magnify" contentStyleType="text/css" viewBox="0 0 44 44" height="44" preserveAspectRatio="xMidYMid meet" version="1.1">
    <path fill="#ffffff" d="M 26.5 23.125 C 28.545 19.996 29.57 17.383 29.57 15.285 C 29.57 12.998 28.769 11.207 27.171999 9.926 C 25.571999 8.634999 23.359 7.9869995 20.526 7.9869995 C 18.828999 7.9869995 17.273998 8.422999 15.873999 9.296 C 14.4679985 10.165 13.439999 11.254999 12.7839985 12.568999 L 16.078999 15.158999 C 17.246998 13.153 18.791998 12.146999 20.707998 12.146999 C 23.215998 12.146999 24.468998 13.191999 24.468998 15.273999 C 24.468998 17.033998 23.597998 19.199999 21.851997 21.759998 L 13.117997 34.635998 L 13.117997 36.067997 L 31.214996 36.067997 L 31.214996 31.742996 L 20.846 31.742996 L 26.5 23.125 z "/>
</svg>
