<?xml version="1.0" encoding="UTF-8"?>
<svg xmlns="http://www.w3.org/2000/svg" xmlns:xlink="http://www.w3.org/1999/xlink" contentScriptType="text/ecmascript" width="12" baseProfile="tiny" zoomAndPan="magnify" contentStyleType="text/css" viewBox="0 0 12 200" height="200" preserveAspectRatio="xMidYMid meet" version="1.1">
    <g>
        <g>
            <g>
                <path d="M 2.0 164.586 L 2.0 147.461 C 2.0 145.512 4.15 144.0 6.0 144.0 C 7.85 144.0 10.0 145.512 10.0 147.461 L 10.0 164.586 C 10.0 166.537 7.85 168.0 6.0 168.0 C 4.15 168.0 2.0 166.537 2.0 164.586 z " fill-opacity="0.08"/>
                <path d="M 0.0 147.461 L 0.0 164.586 C 0.0 167.496 2.804 170.0 6.0 170.0 C 9.195 170.0 12.0 167.496 12.0 164.586 L 12.0 147.461 C 12.0 146.0 11.318 144.609 10.085 143.549 C 8.939 142.564 7.451 142.0 6.0 142.0 C 2.804 142.0 0.0 144.551 0.0 147.461 z " fill-opacity="0.7"/>
                <linearGradient x1="-688.626" gradientTransform="matrix(1 0 0 -1 694.626 1195.9688)" y1="1026.9688" x2="-688.626" gradientUnits="userSpaceOnUse" y2="1052.9688" xlink:type="simple" xlink:actuate="onLoad" id="XMLID_2_" xlink:show="other">
                    <stop stop-color="#ffffff" offset="0"/>
                    <stop stop-color="#52a2a5" offset="1"/>
                </linearGradient>
                <path fill="url(#XMLID_2_)" d="M 6.0 169.0 C 3.516 169.0 1.0 167.049 1.0 164.586 L 1.0 147.461 C 1.0 144.998 3.516 143.0 6.0 143.0 L 6.0 143.0 C 8.486 143.0 11.0 144.998 11.0 147.461 L 11.0 164.586 C 11.0 167.049 8.486 169.0 6.0 169.0 L 6.0 169.0 z "/>
                <g stroke-opacity="0.4" fill-opacity="0.4">
                    <g>
                        <path fill="#417ed3" d="M 6.0 143.0 C 3.516 143.0 1.0 144.998 1.0 147.461 L 1.0 156.346 L 2.0 156.346 L 2.0 147.875 C 2.0 145.959 4.067 144.453 6.0 144.453 C 7.936 144.453 10.0 145.959 10.0 147.875 L 10.0 156.346 L 11.0 156.346 L 11.0 147.461 C 11.0 144.998 8.486 143.0 6.0 143.0 z "/>
                    </g>
                </g>
                <path fill="#417ed3" d="M 10.0 164.578 C 10.0 166.494 7.936 168.0 6.0 168.0 C 4.067 168.0 2.0 166.494 2.0 164.578 L 2.0 156.299 L 1.0 156.299 L 1.0 164.586 C 1.0 167.049 3.516 169.0 6.0 169.0 C 8.486 169.0 11.0 167.049 11.0 164.586 L 11.0 156.299 L 10.0 156.299 L 10.0 164.578 z " fill-opacity="0.4"/>
            </g>
            <rect width="12" fill="none" height="200"/>
        </g>
    </g>
    <g>
        <g>
            <g>
                <g stroke-opacity="0.4" fill-opacity="0.4">
                    <g>
                        <path fill="#417ed3" d="M 39.0 49.461 C 39.0 46.998 36.486 45.0 34.0 45.0 C 31.516 45.0 29.0 46.998 29.0 49.461 L 29.0 113.923996 L 30.0 113.923996 L 30.0 49.875 C 30.0 47.959 32.066 46.453 34.0 46.453 C 35.936 46.453 38.0 47.959 38.0 49.875 L 38.0 113.924 L 39.0 113.924 "/>
                    </g>
                </g>
            </g>
        </g>
    </g>
</svg>
