<?xml version="1.0" encoding="UTF-8"?>
<svg xmlns="http://www.w3.org/2000/svg" xmlns:xlink="http://www.w3.org/1999/xlink" contentScriptType="text/ecmascript" width="88" baseProfile="tiny" zoomAndPan="magnify" contentStyleType="text/css" viewBox="136.586 16.555 88 88" height="88" preserveAspectRatio="xMidYMid meet" version="1.1">
    <rect x="136.586" width="88" fill="none" y="16.555" height="88"/>
    <path fill="#ffffff" d="M 150.764 23.354 C 146.80501 23.354 143.585 26.575 143.585 30.534 L 143.585 90.175995 C 143.585 94.132996 146.80501 97.35899 150.764 97.35899 L 210.40901 97.35899 C 214.36601 97.35899 217.59001 94.132996 217.59001 90.175995 L 217.59001 30.534 C 217.59001 26.575 214.36601 23.354 210.40901 23.354 L 150.764 23.354 z " fill-opacity="0.3"/>
    <linearGradient x1="-1925.1982" gradientTransform="matrix(1 0 0 -1 2084.1533 -466.7168)" y1="-564.7383" x2="-1881.936" gradientUnits="userSpaceOnUse" y2="-489.8059" xlink:type="simple" xlink:actuate="onLoad" id="XMLID_29_" xlink:show="other">
        <stop stop-color="#000000" offset="0"/>
        <stop stop-color="#000000" offset="0.6461"/>
        <stop stop-color="#52a2a5" offset="0.9944"/>
        <stop stop-color="#52a2a5" offset="1"/>
    </linearGradient>
    <path fill="url(#XMLID_29_)" d="M 213.586 88.592 C 213.586 91.332 211.36299 93.555 208.623 93.555 L 152.551 93.555 C 149.81099 93.555 147.586 91.332 147.586 88.592 L 147.586 32.521 C 147.586 29.778 149.811 27.555 152.551 27.555 L 208.62299 27.555 C 211.36299 27.555 213.58598 29.778 213.58598 32.521 L 213.58598 88.592 z "/>
    <path fill="#ffffff" d="M 213.563 39.616 C 210.67601 42.095 206.76001 44.274002 201.56601 46.327 C 201.51102 45.335 201.445 44.133 201.438 44.01 C 201.52301 43.760998 201.67 43.333 201.67 43.333 L 162.486 37.754 L 148.78499 59.334 L 148.85999 59.641 L 149.28099 61.951 C 149.28099 61.951 156.74998 63.818 158.65099 64.294 C 158.42899 64.552 157.87599 65.19 157.87599 65.19 L 158.05699 65.630005 L 158.941 68.171005 L 201.57999 87.91801 L 201.971 87.30401 L 213.51 67.34001 L 213.527 55.267014 C 213.527 55.267014 208.441 53.599014 207.553 53.308014 C 209.75 50.847015 211.763 48.146015 213.568 45.214012 C 213.567 45.233 213.563 39.663 213.563 39.616 z "/>
    <g>
        <g>
            <g>
                <linearGradient x1="-758.9985" gradientTransform="matrix(2.2727 0 0 2.2727 1929.8079 -3589.7466)" y1="1619.2598" x2="-764.9966" gradientUnits="userSpaceOnUse" y2="1609.7411" xlink:type="simple" xlink:actuate="onLoad" id="XMLID_30_" xlink:show="other">
                    <stop stop-color="#ffffff" offset="0"/>
                    <stop stop-color="#f4f8fb" offset="0.1894"/>
                    <stop stop-color="#d6e4f0" offset="0.5232"/>
                    <stop stop-color="#a7c5df" offset="0.9595"/>
                    <stop stop-color="#a2c2dd" offset="1"/>
                </linearGradient>
                <polygon fill="url(#XMLID_30_)" points="158.656,65.325 176.999,44.114 213.566,56.104 213.543,63.006 201.041,83.926    "/>
                <linearGradient x1="-758.7559" gradientTransform="matrix(2.2727 0 0 2.2727 1929.8079 -3589.7466)" y1="1611.7471" x2="-756.4357" gradientUnits="userSpaceOnUse" y2="1613.5516" xlink:type="simple" xlink:actuate="onLoad" id="XMLID_31_" xlink:show="other">
                    <stop stop-color="#bfd5e8" offset="0"/>
                    <stop stop-color="#b6c6dd" offset="0.3034"/>
                    <stop stop-color="#3f5aa6" offset="0.7753"/>
                    <stop stop-color="#003d6d" offset="1"/>
                </linearGradient>
                <polygon fill="url(#XMLID_31_)" points="213.609,62.844 201.003,83.895 201.156,86.929 213.567,65.456    "/>
                <linearGradient x1="-769.5664" gradientTransform="matrix(2.2727 0 0 2.2727 1929.8079 -3589.7466)" y1="1612.1074" x2="-770.3526" gradientUnits="userSpaceOnUse" y2="1613.9043" xlink:type="simple" xlink:actuate="onLoad" id="XMLID_32_" xlink:show="other">
                    <stop stop-color="#ffffff" offset="0"/>
                    <stop stop-color="#ecf0f6" offset="0.0527"/>
                    <stop stop-color="#bccae0" offset="0.1975"/>
                    <stop stop-color="#aabbd7" offset="0.2697"/>
                    <stop stop-color="#95a8ce" offset="0.4226"/>
                    <stop stop-color="#6c83bb" offset="0.6685"/>
                    <stop stop-color="#003d6d" offset="0.9551"/>
                    <stop stop-color="#003d6d" offset="1"/>
                </linearGradient>
                <polygon fill="url(#XMLID_32_)" points="201.003,83.895 158.68,65.318 159.463,67.567 201.186,86.891    "/>
            </g>
            <g>
                <g>
                    <g>
                        <linearGradient x1="-711.7192" gradientTransform="matrix(2.2616 -0.2241 -0.2241 -2.2616 2093.5325 3044.301)" y1="1382.7188" x2="-704.35" gradientUnits="userSpaceOnUse" y2="1390.088" xlink:type="simple" xlink:actuate="onLoad" id="XMLID_33_" xlink:show="other">
                            <stop stop-color="#e6eef4" offset="0"/>
                            <stop stop-color="#c2c9e8" offset="0.0958"/>
                            <stop stop-color="#888dd6" offset="0.262"/>
                            <stop stop-color="#6568ca" offset="0.3847"/>
                            <stop stop-color="#575ac6" offset="0.4494"/>
                            <stop stop-color="#5359c2" offset="0.565"/>
                            <stop stop-color="#4755b6" offset="0.6824"/>
                            <stop stop-color="#334ea1" offset="0.8006"/>
                            <stop stop-color="#184585" offset="0.9187"/>
                            <stop stop-color="#003d6d" offset="1"/>
                        </linearGradient>
                        <polygon fill="url(#XMLID_33_)" points="184.94,61.893 177.117,71.439 178.948,72.161 186.775,62.503      "/>
                    </g>
                    <g>
                        <linearGradient x1="-758.3877" gradientTransform="matrix(2.2727 0 0 -2.2727 1929.8079 2871.6079)" y1="1227.1982" x2="-770.5005" gradientUnits="userSpaceOnUse" y2="1231.8871" xlink:type="simple" xlink:actuate="onLoad" id="XMLID_34_" xlink:show="other">
                            <stop stop-color="#e6eef4" offset="0"/>
                            <stop stop-color="#dad9cb" offset="0.0644"/>
                            <stop stop-color="#c3ae79" offset="0.2029"/>
                            <stop stop-color="#b28f3d" offset="0.3167"/>
                            <stop stop-color="#a77b18" offset="0.3999"/>
                            <stop stop-color="#a3740a" offset="0.4438"/>
                            <stop stop-color="#866408" offset="0.5594"/>
                            <stop stop-color="#645107" offset="0.7193"/>
                            <stop stop-color="#4f4505" offset="0.8514"/>
                            <stop stop-color="#474105" offset="0.9382"/>
                            <stop stop-color="#474105" offset="1"/>
                        </linearGradient>
                        <polygon fill="url(#XMLID_34_)" points="180.725,72.966 200.321,81.367 201.014,80.209 181.594,71.885 180.75,72.936      "/>
                        <linearGradient x1="-757.5576" gradientTransform="matrix(2.2727 0 0 -2.2727 1929.8079 2871.6079)" y1="1229.3389" x2="-769.673" gradientUnits="userSpaceOnUse" y2="1234.0287" xlink:type="simple" xlink:actuate="onLoad" id="XMLID_35_" xlink:show="other">
                            <stop stop-color="#e6eef4" offset="0"/>
                            <stop stop-color="#dad9cb" offset="0.0644"/>
                            <stop stop-color="#c3ae79" offset="0.2029"/>
                            <stop stop-color="#b28f3d" offset="0.3167"/>
                            <stop stop-color="#a77b18" offset="0.3999"/>
                            <stop stop-color="#a3740a" offset="0.4438"/>
                            <stop stop-color="#866408" offset="0.5594"/>
                            <stop stop-color="#645107" offset="0.7193"/>
                            <stop stop-color="#4f4505" offset="0.8514"/>
                            <stop stop-color="#474105" offset="0.9382"/>
                            <stop stop-color="#474105" offset="1"/>
                        </linearGradient>
                        <polygon fill="url(#XMLID_35_)" points="203.183,76.605 203.875,75.453 184.857,67.82 183.989,68.899      "/>
                        <linearGradient x1="-756.731" gradientTransform="matrix(2.2727 0 0 -2.2727 1929.8079 2871.6079)" y1="1231.4746" x2="-768.8468" gradientUnits="userSpaceOnUse" y2="1236.1646" xlink:type="simple" xlink:actuate="onLoad" id="XMLID_36_" xlink:show="other">
                            <stop stop-color="#e6eef4" offset="0"/>
                            <stop stop-color="#dad9cb" offset="0.0644"/>
                            <stop stop-color="#c3ae79" offset="0.2029"/>
                            <stop stop-color="#b28f3d" offset="0.3167"/>
                            <stop stop-color="#a77b18" offset="0.3999"/>
                            <stop stop-color="#a3740a" offset="0.4438"/>
                            <stop stop-color="#866408" offset="0.5594"/>
                            <stop stop-color="#645107" offset="0.7193"/>
                            <stop stop-color="#4f4505" offset="0.8514"/>
                            <stop stop-color="#474105" offset="0.9382"/>
                            <stop stop-color="#474105" offset="1"/>
                        </linearGradient>
                        <polygon fill="url(#XMLID_36_)" points="206.052,71.835 206.74,70.687 188.099,63.784 187.226,64.867      "/>
                    </g>
                    <linearGradient x1="-765.9795" gradientTransform="matrix(2.2727 0 0 -2.2727 1929.8079 2871.6079)" y1="1230.6582" x2="-777.5088" gradientUnits="userSpaceOnUse" y2="1234.9573" xlink:type="simple" xlink:actuate="onLoad" id="XMLID_37_" xlink:show="other">
                        <stop stop-color="#e6eef4" offset="0"/>
                        <stop stop-color="#dad9cb" offset="0.0644"/>
                        <stop stop-color="#c3ae79" offset="0.2029"/>
                        <stop stop-color="#b28f3d" offset="0.3167"/>
                        <stop stop-color="#a77b18" offset="0.3999"/>
                        <stop stop-color="#a3740a" offset="0.4438"/>
                        <stop stop-color="#866408" offset="0.5594"/>
                        <stop stop-color="#645107" offset="0.7193"/>
                        <stop stop-color="#4f4505" offset="0.8514"/>
                        <stop stop-color="#474105" offset="0.9382"/>
                        <stop stop-color="#474105" offset="1"/>
                    </linearGradient>
                    <polygon fill="url(#XMLID_37_)" points="162.896,63.869 162.05,64.96 175.428,70.693 176.296,69.614     "/>
                </g>
                <g>
                    <g>
                        <g>
                            <g>
                                <g>
                                    <g>
                                        <path fill="#ffffff" d="M 203.775 62.706 L 207.95499 56.542 L 213.609 58.516 L 213.609 58.985 L 208.92299 65.856 L 203.04399 63.793003 L 203.76 62.730003 L 203.775 62.706 M 208.02 56.066 L 207.582 56.226 L 207.467 56.388 L 207.486 56.463 L 207.562 56.737 L 207.511 56.76 L 207.126 56.89 L 207.01201 57.062 L 207.033 57.139 L 207.123 57.405 L 207.06 57.427 L 206.66899 57.565 L 206.562 57.732 L 206.58699 57.812 L 206.66899 58.079 L 206.605 58.104 L 206.22 58.234 L 206.108 58.406002 L 206.132 58.479004 L 206.207 58.754005 L 206.15201 58.770004 L 205.75601 58.909004 L 205.64401 59.073006 L 205.671 59.155006 L 205.752 59.421005 L 205.697 59.438004 L 205.69 59.445004 L 205.313 59.578003 L 205.19 59.742004 L 205.217 59.824005 L 205.299 60.091003 L 205.243 60.114002 L 204.84999 60.245003 L 204.739 60.418003 L 204.755 60.491005 L 204.848 60.758003 L 204.78401 60.782 L 204.39601 60.918003 L 204.29001 61.085003 L 204.311 61.158005 L 204.38301 61.431004 L 204.33101 61.456005 L 204.328 61.456005 L 203.937 61.585007 L 203.831 61.758007 L 203.855 61.841007 L 203.927 62.10901 L 203.881 62.12201 L 203.872 62.12201 L 203.48 62.26201 L 203.372 62.43501 L 203.38899 62.50901 L 203.47499 62.77701 L 203.426 62.80001 L 203.41699 62.80001 L 203.025 62.93801 L 202.903 63.102013 L 202.932 63.184013 L 203.01901 63.45101 L 202.96402 63.469013 L 202.57002 63.613014 L 202.45903 63.780014 L 202.56003 64.127014 L 202.58302 64.13502 L 202.77402 64.20102 L 203.22002 64.03902 L 203.23901 64.12202 L 203.322 64.388016 L 203.32701 64.39502 L 203.535 64.46902 L 203.973 64.308014 L 204.00801 64.39701 L 204.074 64.65701 L 204.082 64.65701 L 204.304 64.73901 L 204.738 64.569016 L 204.761 64.65801 L 204.838 64.918015 L 205.066 64.999016 L 205.5 64.83901 L 205.519 64.919014 L 205.593 65.18501 L 205.6 65.196014 L 205.83101 65.266014 L 206.261 65.10702 L 206.287 65.18902 L 206.356 65.45602 L 206.363 65.45602 L 206.584 65.53502 L 207.023 65.36702 L 207.041 65.45802 L 207.124 65.718025 L 207.133 65.718025 L 207.346 65.79603 L 207.777 65.65103 L 207.80399 65.72503 L 207.88098 65.99103 L 207.88698 65.99103 L 208.10698 66.065025 L 208.53998 65.911026 L 208.56898 65.994026 L 208.64099 66.261024 L 208.65 66.261024 L 208.85399 66.33302 L 209.303 66.17202 L 209.409 66.00602 L 209.318 65.665016 L 209.756 65.514015 L 209.87 65.33901 L 209.76799 64.99001 L 210.20898 64.83801 L 210.32298 64.665016 L 210.22899 64.321014 L 210.67099 64.17001 L 210.78198 63.996014 L 210.71098 63.729015 L 210.68999 63.647015 L 211.11398 63.494015 L 211.23698 63.320015 L 211.18599 63.143017 L 211.137 62.970016 L 211.577 62.818016 L 211.689 62.652016 L 211.58699 62.304016 L 212.02899 62.149017 L 212.135 61.976017 L 212.043 61.634018 L 212.49 61.47402 L 212.59601 61.310017 L 212.524 61.041016 L 212.49901 60.958015 L 212.938 60.807014 L 213.05 60.633015 L 213.014 60.502014 L 212.975 60.365013 L 212.955 60.293015 L 213.39 60.132015 L 213.503 59.966015 L 213.401 59.618015 L 213.578 59.554016 L 213.658 58.357018 L 213.569 58.05702 L 213.554 58.01402 L 213.325 57.93502 L 212.933 58.08102 L 212.928 58.08102 L 212.92699 58.08102 L 212.89499 58.09002 L 212.82199 57.80702 L 212.801 57.747017 L 212.57399 57.666016 L 212.172 57.812016 L 212.17099 57.814014 L 212.14099 57.829014 L 212.04999 57.537014 L 212.038 57.477013 L 211.81099 57.39601 L 211.40799 57.54401 L 211.40599 57.54401 L 211.36699 57.55201 L 211.286 57.270008 L 211.273 57.21901 L 211.04399 57.13801 L 210.64299 57.27501 L 210.63799 57.27601 L 210.60298 57.28901 L 210.51999 57.00201 L 210.52199 56.99501 L 210.51 56.943012 L 210.29999 56.867012 L 209.89398 57.019012 L 209.89297 57.019012 L 209.85597 57.03601 L 209.76997 56.73101 L 209.75597 56.68701 L 209.53397 56.60701 L 209.13397 56.75201 L 209.12697 56.75201 L 209.09297 56.76101 L 209.01097 56.47101 L 209.01097 56.46301 L 208.99197 56.42001 L 208.76198 56.340008 L 208.36798 56.48301 L 208.36497 56.486008 L 208.33698 56.501007 L 208.25798 56.208008 L 208.25697 56.203007 L 208.23697 56.152008 L 208.02 56.066 "/>
                                        <linearGradient x1="-757.5527" gradientTransform="matrix(2.2727 0 0 -2.2727 1929.8079 2871.6079)" y1="1238.9004" x2="-757.2345" gradientUnits="userSpaceOnUse" y2="1235.9994" xlink:type="simple" xlink:actuate="onLoad" id="XMLID_38_" xlink:show="other">
                                            <stop stop-color="#ffffff" offset="0"/>
                                            <stop stop-color="#a2c2dd" offset="1"/>
                                        </linearGradient>
                                        <path fill="url(#XMLID_38_)" d="M 207.954 56.542 L 203.774 62.706 L 204.347 61.896 C 205.27 61.777 206.186 61.529 207.062 61.17 C 207.00499 60.991997 206.899 60.843 206.82199 60.725998 C 206.69499 60.526997 206.521 60.235996 206.54099 59.864998 C 206.55598 59.671997 206.62599 59.461998 206.78398 59.221996 C 207.03899 58.839996 207.35898 58.604996 207.72298 58.519997 C 207.79997 58.501995 207.88197 58.487995 207.96797 58.485996 L 208.04797 58.476997 C 208.07597 58.475998 208.10498 58.475998 208.13597 58.475998 C 208.28697 58.474 208.44397 58.489998 208.60696 58.525997 C 208.69896 58.546997 208.80397 58.581997 208.91096 58.627 C 209.18896 58.714 209.45197 58.846 209.68196 59.023 L 209.64597 59.091 L 209.72197 59.134 L 209.40797 59.577 C 209.19498 59.406 208.97697 59.289 208.77997 59.216 L 208.60197 59.166 C 208.57898 59.16 208.55498 59.159 208.53197 59.153 C 208.46297 59.142 208.39597 59.135 208.33496 59.136 C 208.31895 59.136 208.30196 59.136 208.28397 59.139 L 208.15997 59.155 C 207.98398 59.201 207.83597 59.308 207.72397 59.481 C 207.64098 59.6 207.59396 59.721 207.58797 59.825 L 207.58496 59.876 C 207.58797 59.915 207.64096 60.047 207.70596 60.202 L 207.80696 60.35 C 207.84996 60.425 207.94196 60.549 208.02196 60.720997 C 209.36595 60.003 210.57695 58.997997 211.48396 57.776997 L 213.44196 58.461 L 207.954 56.542 "/>
                                        <linearGradient x1="-754.4888" gradientTransform="matrix(2.2727 0 0 -2.2727 1929.8079 2871.6079)" y1="1238.1074" x2="-758.0195" gradientUnits="userSpaceOnUse" y2="1236.126" xlink:type="simple" xlink:actuate="onLoad" id="XMLID_39_" xlink:show="other">
                                            <stop stop-color="#ffffff" offset="0"/>
                                            <stop stop-color="#a2c2dd" offset="1"/>
                                        </linearGradient>
                                        <path fill="url(#XMLID_39_)" d="M 210.453 59.805 L 210.406 59.807 L 210.279 59.843998 C 210.199 59.880997 210.115 59.950996 210.05301 60.052998 C 209.977 60.159996 209.92201 60.255997 209.90102 60.322998 L 209.87602 60.440998 L 209.94302 60.503 L 209.96402 60.509 L 210.05902 60.517 L 210.20302 60.476997 C 210.29301 60.433 210.38602 60.329 210.48802 60.169 C 210.56902 60.059 210.60402 59.967 210.61102 59.893997 L 210.60402 59.864 L 210.53603 59.826 L 210.50603 59.819 L 210.453 59.805 M 212.156 59.681 L 211.968 59.711 C 211.886 59.764 211.81 59.816998 211.741 59.906 C 211.675 59.989 211.586 60.107998 211.482 60.253 C 211.297 60.540997 211.191 60.745 211.15999 60.843998 L 211.163 60.917 L 211.221 60.947 L 211.25899 60.962997 L 211.31499 60.968998 L 211.51299 60.893997 C 211.61499 60.817997 211.75798 60.635998 211.95898 60.337997 C 212.04799 60.203 212.13698 60.081997 212.18799 59.995 C 212.22499 59.911 212.25198 59.836 212.258 59.77 L 212.26 59.738 L 212.262 59.724 L 212.19499 59.687 L 212.156 59.681 M 210.852 60.765 C 210.862 60.616 210.972 60.383 211.184 60.065998 C 211.38501 59.767998 211.57301 59.572998 211.742 59.48 C 211.83101 59.436 211.91101 59.413 211.998 59.406998 L 212.037 59.395996 L 212.19301 59.410995 L 212.268 59.438995 C 212.38101 59.476994 212.47 59.548996 212.504 59.645996 C 212.545 59.696995 212.57199 59.770996 212.568 59.845997 L 212.564 59.875996 C 212.564 59.886997 212.564 59.895996 212.564 59.905994 C 212.545 60.051994 212.44899 60.260994 212.267 60.527996 C 212.038 60.864998 211.846 61.076996 211.675 61.157997 C 211.577 61.204 211.481 61.233997 211.38501 61.245 L 211.309 61.236 L 211.231 61.23 L 211.164 61.201 C 211.035 61.158 210.954 61.09 210.923 60.986 C 210.879 60.936 210.852 60.869 210.85 60.795 L 210.852 60.765 M 209.572 60.33 C 209.58301 60.178 209.67601 59.971 209.858 59.7 C 210.043 59.431 210.23401 59.235 210.472 59.113 L 210.521 59.092 C 210.64 59.038998 210.75099 59.006 210.85399 58.997997 L 211.04799 59.017998 L 211.13098 59.047997 C 211.23299 59.069996 211.30898 59.106995 211.37398 59.143997 L 211.34998 59.195995 L 211.42497 59.237995 L 211.31097 59.412994 C 211.26797 59.367996 211.19897 59.345993 211.10898 59.309994 L 211.04597 59.292995 L 210.98297 59.286995 L 210.92097 59.278996 C 210.75397 59.287994 210.58698 59.385994 210.40898 59.559994 L 210.57198 59.572994 L 210.64198 59.594994 C 210.78499 59.636993 210.85098 59.710995 210.88399 59.807995 L 210.94499 59.934994 L 210.937 60.024994 C 210.93 60.113995 210.884 60.224995 210.804 60.354996 C 210.674 60.534996 210.542 60.653996 210.38 60.731995 C 210.3 60.761993 210.211 60.785995 210.132 60.792995 L 210.009 60.786995 L 209.962 60.772995 L 209.88701 60.749996 C 209.75601 60.706997 209.67801 60.634995 209.63701 60.534996 L 209.572 60.355995 L 209.572 60.33 M 211.481 57.775 C 210.574 58.998 209.363 60.002003 208.019 60.721 C 208.053 60.81 208.093 60.919003 208.124 61.025 C 208.163 61.129 208.21599 61.265003 208.204 61.433002 C 208.204 61.444004 208.204 61.456 208.20099 61.469 C 208.18599 61.641003 208.105 61.847 207.911 62.107002 C 207.593 62.514004 207.28299 62.793003 206.89299 62.914 C 206.756 62.960003 206.616 62.984 206.47598 62.986 C 206.44398 62.986 206.41599 62.989 206.38298 62.989 C 206.24498 62.989998 206.10197 62.976997 205.95499 62.947 C 205.93399 62.941998 205.91298 62.935997 205.89198 62.93 C 205.78499 62.909 205.66998 62.873 205.55399 62.829 C 205.29698 62.739998 205.01099 62.586 204.71698 62.357998 L 204.74898 62.306 L 204.68398 62.254 L 204.98997 61.812 C 205.30298 62.034 205.54898 62.189 205.75798 62.253002 L 205.93298 62.309002 C 206.01898 62.325 206.10399 62.338 206.19498 62.338 L 206.38298 62.306 C 206.50497 62.267 206.62698 62.206 206.75098 62.093998 L 206.89598 61.945 L 206.94698 61.885 C 207.05898 61.739998 207.10797 61.599 207.11598 61.466 C 207.11598 61.361 207.09998 61.265 207.06798 61.168 C 206.19298 61.524998 205.27397 61.774 204.35298 61.894 L 203.77998 62.703003 L 203.76299 62.728004 C 203.98398 62.798004 204.20499 62.862003 204.43498 62.906006 C 204.89998 63.014008 205.37598 63.086006 205.85999 63.101006 C 205.99298 63.109005 206.12599 63.114006 206.25899 63.114006 C 206.30399 63.116005 206.35298 63.114006 206.39299 63.114006 C 206.45999 63.114006 206.52899 63.112007 206.59299 63.110004 L 206.736 63.101006 C 207.01599 63.090004 207.293 63.066006 207.56898 63.028004 C 208.78499 62.866005 209.98999 62.475002 211.11198 61.899002 C 211.37799 61.755 211.64499 61.603 211.90698 61.445004 L 213.58698 58.960003 L 213.57698 58.515003 L 211.481 57.775 "/>
                                        <path fill="#5e1b67" d="M 210.884 59.809 L 210.889 59.841 L 210.889 59.938 C 210.875 60.037 210.82901 60.138 210.748 60.26 C 210.628 60.440998 210.478 60.568996 210.324 60.643997 C 210.244 60.676 210.16501 60.69 210.086 60.698997 L 209.92 60.684 L 209.837 60.655 C 209.742 60.634 209.68001 60.591 209.636 60.538 C 209.676 60.636997 209.754 60.711 209.88701 60.753 L 209.96101 60.775997 L 210.00702 60.788998 L 210.13101 60.794 C 210.21 60.787 210.29901 60.760998 210.37901 60.732998 C 210.54001 60.655 210.67401 60.536 210.80301 60.356 C 210.884 60.226997 210.93001 60.114998 210.93701 60.025997 L 210.94402 59.935997 L 210.884 59.809 M 210.453 59.716 L 210.222 59.746998 C 210.136 59.787 210.059 59.858997 209.99 59.950996 C 209.918 60.069996 209.876 60.160995 209.84601 60.225998 L 209.82101 60.324997 L 209.82501 60.407997 L 209.876 60.443996 L 209.90001 60.326996 C 209.921 60.259995 209.97601 60.160995 210.05101 60.056995 C 210.11401 59.951996 210.19801 59.884995 210.27802 59.845997 L 210.40602 59.809998 L 210.45203 59.808 L 210.50603 59.823997 L 210.53603 59.831997 L 210.60402 59.867996 L 210.48102 59.735996 L 210.453 59.716 M 210.864 59.183 C 210.67 59.191998 210.458 59.336 210.249 59.591 L 210.40599 59.558 C 210.58398 59.385 210.754 59.287 210.91899 59.278 L 210.98099 59.285 L 211.04399 59.292 L 211.107 59.309 C 211.19699 59.343998 211.26599 59.364998 211.30699 59.412 L 211.422 59.238 L 211.347 59.195 L 211.267 59.307 C 211.214 59.278 211.149 59.248 211.047 59.218 L 210.986 59.197 L 210.92499 59.19 L 210.864 59.183 "/>
                                        <path fill="#5e1b67" d="M 212.504 59.646 L 212.519 59.75 L 212.51599 59.809 C 212.495 59.96 212.39499 60.162 212.21999 60.431 C 211.986 60.763 211.79898 60.972 211.62799 61.062 C 211.52899 61.114 211.435 61.138 211.34 61.148 L 211.26399 61.141 L 211.187 61.132 L 211.11699 61.111 C 211.036 61.072 210.967 61.037 210.926 60.986 C 210.957 61.09 211.03699 61.158 211.16699 61.201 L 211.234 61.23 L 211.312 61.236 L 211.388 61.245 C 211.484 61.233997 211.58 61.207 211.677 61.157997 C 211.849 61.073997 212.042 60.864998 212.269 60.527996 C 212.453 60.261997 212.547 60.051994 212.566 59.905994 C 212.566 59.894993 212.566 59.885994 212.566 59.875996 L 212.56999 59.845997 C 212.572 59.771 212.545 59.696 212.504 59.646 M 212.109 59.575 L 211.913 59.613 C 211.83899 59.656998 211.761 59.732998 211.693 59.806 C 211.625 59.906 211.536 60.016 211.43399 60.153 C 211.24199 60.444 211.133 60.645 211.11699 60.742 L 211.109 60.775 L 211.161 60.916 L 211.15599 60.842 C 211.189 60.742 211.29599 60.54 211.48 60.25 C 211.58499 60.106 211.67099 59.987 211.73999 59.905 C 211.80598 59.812 211.88399 59.761997 211.965 59.71 L 212.15399 59.68 L 212.19199 59.686 L 212.25899 59.723 L 212.14899 59.597 L 212.109 59.575 "/>
                                        <path fill="#5e1b67" d="M 208.123 61.026 C 208.13701 61.119 208.146 61.212 208.13701 61.31 C 208.13301 61.325 208.132 61.341 208.12901 61.355 C 208.11401 61.546 208.03702 61.765 207.88202 61.998 C 207.59203 62.408 207.25302 62.689003 206.86201 62.811 C 206.72601 62.848 206.58502 62.874 206.43202 62.883 C 206.40903 62.883 206.38103 62.885 206.35503 62.885 L 206.35402 62.885 C 206.21703 62.885998 206.06902 62.871998 205.92102 62.843998 L 205.84502 62.821 C 205.74301 62.798 205.63002 62.762 205.51701 62.726997 C 205.28502 62.638996 205.02501 62.499996 204.74701 62.309998 L 204.71301 62.361996 C 205.00902 62.589996 205.294 62.742996 205.55202 62.831997 C 205.66702 62.874996 205.78201 62.913 205.89001 62.934 C 205.91002 62.939 205.93102 62.946 205.95201 62.950996 C 206.098 62.981995 206.24101 62.992996 206.38 62.991997 C 206.412 62.991997 206.442 62.990997 206.473 62.990997 C 206.61401 62.988 206.753 62.962997 206.891 62.916996 C 207.28201 62.796997 207.59001 62.517998 207.91 62.110996 C 208.102 61.850998 208.182 61.642998 208.198 61.471996 C 208.201 61.459995 208.201 61.447998 208.201 61.436996 C 208.215 61.266 208.164 61.13 208.123 61.026 M 208.359 59.025 C 208.336 59.025 208.31999 59.027 208.29799 59.028 C 207.96799 59.039 207.76898 59.243 207.687 59.368 C 207.62 59.473 207.581 59.572 207.57199 59.672 C 207.56999 59.686 207.56999 59.7 207.56999 59.712 C 207.55699 59.895 207.62498 60.053 207.70499 60.202003 C 207.63998 60.047005 207.58598 59.913002 207.58398 59.876003 L 207.58598 59.824005 C 207.59198 59.720005 207.63998 59.598003 207.72198 59.479004 C 207.83398 59.307003 207.98198 59.202003 208.15698 59.154003 L 208.28098 59.137005 C 208.30197 59.136005 208.31897 59.136005 208.33298 59.136005 C 208.39398 59.135006 208.46198 59.142006 208.52998 59.152004 C 208.55199 59.158005 208.57599 59.160004 208.59898 59.165005 L 208.77698 59.215004 C 208.97598 59.288006 209.19197 59.406006 209.40598 59.575005 L 209.72098 59.132004 L 209.64497 59.089005 L 209.37497 59.466003 C 209.15497 59.295002 208.94197 59.184002 208.74597 59.106003 L 208.56297 59.048004 C 208.486 59.031 208.421 59.025 208.359 59.025 "/>
                                        <linearGradient x1="-757.2671" gradientTransform="matrix(2.2727 0 0 -2.2727 1929.8079 2871.6079)" y1="1238.3984" x2="-759.0629" gradientUnits="userSpaceOnUse" y2="1234.2939" xlink:type="simple" xlink:actuate="onLoad" id="XMLID_40_" xlink:show="other">
                                            <stop stop-color="#e6eef4" offset="0"/>
                                            <stop stop-color="#cbb5db" offset="0.1291"/>
                                            <stop stop-color="#ae79c2" offset="0.277"/>
                                            <stop stop-color="#9d54b2" offset="0.3862"/>
                                            <stop stop-color="#9646ac" offset="0.4438"/>
                                            <stop stop-color="#70297e" offset="0.6009"/>
                                            <stop stop-color="#54135c" offset="0.7438"/>
                                            <stop stop-color="#430647" offset="0.861"/>
                                            <stop stop-color="#3d013f" offset="0.9382"/>
                                            <stop stop-color="#3d013f" offset="1"/>
                                        </linearGradient>
                                        <path fill="url(#XMLID_40_)" d="M 208.139 58.477 C 208.10701 58.477 208.078 58.477 208.05101 58.478 L 207.97002 58.487 C 207.88602 58.489 207.80301 58.503998 207.72601 58.521 C 207.36201 58.606 207.03902 58.841 206.78601 59.223 C 206.628 59.463 206.559 59.672 206.54301 59.866 C 206.52501 60.237 206.69702 60.528 206.82501 60.727 C 206.90102 60.844 207.00801 60.994 207.06502 61.171 C 207.09802 61.268 207.11302 61.365 207.11302 61.47 C 207.10503 61.602 207.05502 61.745003 206.94302 61.888 L 206.89203 61.948 L 206.74803 62.098003 C 206.62303 62.210003 206.50104 62.270004 206.38004 62.310005 L 206.19203 62.341003 C 206.09703 62.341003 206.01103 62.327003 205.92802 62.314003 L 205.75102 62.256004 C 205.54703 62.192005 205.29903 62.036003 204.98602 61.817005 L 204.68103 62.258007 L 204.74603 62.310005 C 205.02003 62.500004 205.28304 62.641006 205.51604 62.727005 C 205.62804 62.762005 205.74304 62.797005 205.84404 62.821007 L 205.92004 62.844006 C 206.06705 62.874004 206.21605 62.886005 206.35304 62.885006 L 206.35405 62.885006 C 206.38005 62.885006 206.40805 62.883007 206.43105 62.883007 C 206.58304 62.87401 206.72505 62.848007 206.86104 62.81101 C 207.25304 62.69001 207.59004 62.409008 207.88104 61.99801 C 208.03604 61.76601 208.11304 61.54701 208.12804 61.355007 C 208.13104 61.33901 208.13203 61.322006 208.13603 61.31001 C 208.14603 61.209007 208.13603 61.119007 208.12202 61.02601 C 208.09003 60.92201 208.05103 60.81101 208.01802 60.722008 C 207.93703 60.550007 207.84502 60.426006 207.80202 60.35101 L 207.70302 60.20301 C 207.62102 60.05501 207.55602 59.894012 207.56702 59.71501 C 207.56702 59.700012 207.56702 59.686012 207.56902 59.67301 C 207.58002 59.573013 207.61801 59.477013 207.68501 59.371014 C 207.766 59.246014 207.96402 59.039013 208.29501 59.030014 C 208.31702 59.028015 208.33202 59.027016 208.35501 59.027016 C 208.41801 59.027016 208.48401 59.036015 208.56001 59.051014 L 208.74402 59.107014 C 208.94002 59.188015 209.15202 59.297012 209.37302 59.468014 L 209.64102 59.092014 L 209.67902 59.025013 C 209.45001 58.846012 209.18701 58.71501 208.90701 58.628014 C 208.80101 58.586014 208.69402 58.550014 208.60402 58.52701 C 208.446 58.49 208.29 58.475 208.139 58.477 "/>
                                        <linearGradient x1="-755.8164" gradientTransform="matrix(2.2727 0 0 -2.2727 1929.8079 2871.6079)" y1="1238.3516" x2="-757.6358" gradientUnits="userSpaceOnUse" y2="1235.4211" xlink:type="simple" xlink:actuate="onLoad" id="XMLID_41_" xlink:show="other">
                                            <stop stop-color="#e6eef4" offset="0"/>
                                            <stop stop-color="#cbb5db" offset="0.1291"/>
                                            <stop stop-color="#ae79c2" offset="0.277"/>
                                            <stop stop-color="#9d54b2" offset="0.3862"/>
                                            <stop stop-color="#9646ac" offset="0.4438"/>
                                            <stop stop-color="#70297e" offset="0.6009"/>
                                            <stop stop-color="#54135c" offset="0.7438"/>
                                            <stop stop-color="#430647" offset="0.861"/>
                                            <stop stop-color="#3d013f" offset="0.9382"/>
                                            <stop stop-color="#3d013f" offset="1"/>
                                        </linearGradient>
                                        <path fill="url(#XMLID_41_)" d="M 209.82 60.325 L 209.84601 60.226 C 209.87401 60.161003 209.91602 60.070004 209.98901 59.951 C 210.05801 59.859 210.13501 59.787 210.22101 59.747 L 210.45201 59.716003 L 210.48001 59.733 L 210.60301 59.864002 L 210.61002 59.895 C 210.60301 59.969 210.56801 60.059002 210.48701 60.171 C 210.38301 60.33 210.292 60.432003 210.20201 60.479 L 210.05801 60.517 L 209.96301 60.51 L 209.94202 60.503 L 209.87502 60.441998 L 209.82501 60.406998 L 209.82 60.325 M 210.854 58.998 C 210.75 59.006 210.641 59.037003 210.519 59.092003 L 210.471 59.113003 C 210.234 59.235004 210.04199 59.431004 209.85599 59.700005 C 209.67398 59.971004 209.58199 60.179005 209.57098 60.330006 L 209.56998 60.359005 L 209.63498 60.537006 C 209.67699 60.590008 209.74197 60.635006 209.83598 60.654007 L 209.91898 60.683006 L 210.08397 60.698006 C 210.16197 60.689007 210.24197 60.674007 210.32097 60.643005 C 210.47597 60.568005 210.62497 60.440006 210.74597 60.259007 C 210.82597 60.140007 210.87198 60.035007 210.88698 59.937008 L 210.88698 59.840008 L 210.88197 59.808006 C 210.84897 59.711006 210.78197 59.637005 210.63898 59.595005 L 210.56998 59.573006 L 210.40598 59.560005 L 210.24698 59.591003 C 210.45398 59.335003 210.66698 59.191 210.86198 59.183002 L 210.92598 59.191 L 210.98698 59.2 L 211.04799 59.221 C 211.15 59.25 211.215 59.28 211.26799 59.31 L 211.34799 59.198 L 211.372 59.147003 C 211.30699 59.108 211.23099 59.072002 211.129 59.051003 L 211.046 59.020004 L 210.854 58.998 "/>
                                        <linearGradient x1="-755.3174" gradientTransform="matrix(2.2727 0 0 -2.2727 1929.8079 2871.6079)" y1="1238.0439" x2="-757.1376" gradientUnits="userSpaceOnUse" y2="1235.1121" xlink:type="simple" xlink:actuate="onLoad" id="XMLID_42_" xlink:show="other">
                                            <stop stop-color="#e6eef4" offset="0"/>
                                            <stop stop-color="#cbb5db" offset="0.1291"/>
                                            <stop stop-color="#ae79c2" offset="0.277"/>
                                            <stop stop-color="#9d54b2" offset="0.3862"/>
                                            <stop stop-color="#9646ac" offset="0.4438"/>
                                            <stop stop-color="#70297e" offset="0.6009"/>
                                            <stop stop-color="#54135c" offset="0.7438"/>
                                            <stop stop-color="#430647" offset="0.861"/>
                                            <stop stop-color="#3d013f" offset="0.9382"/>
                                            <stop stop-color="#3d013f" offset="1"/>
                                        </linearGradient>
                                        <path fill="url(#XMLID_42_)" d="M 211.11 60.776 L 211.12 60.745003 C 211.135 60.646004 211.24199 60.445004 211.435 60.155003 C 211.539 60.017002 211.624 59.906002 211.69499 59.808002 C 211.76299 59.735 211.84099 59.658 211.91399 59.615 L 212.10999 59.578003 L 212.15498 59.599003 L 212.26398 59.725002 L 212.26097 59.737003 L 212.25897 59.769005 C 212.25298 59.835007 212.22298 59.909004 212.18896 59.994003 C 212.13696 60.083004 212.04796 60.203003 211.95996 60.337 C 211.75896 60.637 211.61496 60.818 211.51396 60.894 L 211.31596 60.967003 L 211.25996 60.962 L 211.22197 60.946003 L 211.16397 60.917004 L 211.11 60.776 M 212.036 59.396 L 211.997 59.406 C 211.90999 59.412 211.82999 59.434998 211.741 59.479 C 211.56999 59.572 211.385 59.767 211.183 60.065 C 210.97299 60.382 210.861 60.614998 210.851 60.764 L 210.849 60.794 C 210.851 60.868 210.878 60.935997 210.922 60.985 C 210.96199 61.036 211.034 61.073 211.11299 61.11 L 211.18399 61.131 L 211.26 61.14 L 211.33699 61.147 C 211.43098 61.137 211.525 61.113 211.62299 61.061 C 211.79399 60.97 211.98099 60.759003 212.21498 60.43 C 212.39198 60.163002 212.49098 59.959 212.51198 59.808 L 212.51598 59.749 L 212.49898 59.645 C 212.46698 59.546 212.37898 59.473 212.26299 59.438 L 212.18999 59.41 L 212.036 59.396 "/>
                                    </g>
                                </g>
                            </g>
                        </g>
                    </g>
                </g>
            </g>
        </g>
        <g>
            <g>
                <linearGradient x1="-754.7148" gradientTransform="matrix(2.2727 0 0 -2.2727 1929.8079 2871.6079)" y1="1242.627" x2="-773.9062" gradientUnits="userSpaceOnUse" y2="1232.0743" xlink:type="simple" xlink:actuate="onLoad" id="XMLID_43_" xlink:show="other">
                    <stop stop-color="#e6eef4" offset="0"/>
                    <stop stop-color="#c2c9e8" offset="0.0958"/>
                    <stop stop-color="#888dd6" offset="0.262"/>
                    <stop stop-color="#6568ca" offset="0.3847"/>
                    <stop stop-color="#575ac6" offset="0.4494"/>
                    <stop stop-color="#5359c2" offset="0.565"/>
                    <stop stop-color="#4755b6" offset="0.6824"/>
                    <stop stop-color="#334ea1" offset="0.8006"/>
                    <stop stop-color="#184585" offset="0.9187"/>
                    <stop stop-color="#003d6d" offset="1"/>
                </linearGradient>
                <polygon fill="url(#XMLID_43_)" fill-opacity="0.4" points="192.819,72.791 160.401,63.837 200.22,51.55    "/>
                <linearGradient x1="-628.0649" gradientTransform="matrix(2.233 -0.4239 0.4239 2.233 1085.575 -2894.502)" y1="1210.374" x2="-633.5095" gradientUnits="userSpaceOnUse" y2="1201.7338" xlink:type="simple" xlink:actuate="onLoad" id="XMLID_44_" xlink:show="other">
                    <stop stop-color="#ffffff" offset="0"/>
                    <stop stop-color="#f4f8fb" offset="0.1894"/>
                    <stop stop-color="#d6e4f0" offset="0.5232"/>
                    <stop stop-color="#a7c5df" offset="0.9595"/>
                    <stop stop-color="#a2c2dd" offset="1"/>
                </linearGradient>
                <polygon fill="url(#XMLID_44_)" points="149.502,59.462 162.77,38.565 200.517,43.939 191.819,69.189    "/>
                <linearGradient x1="-627.5977" gradientTransform="matrix(2.233 -0.4239 0.4239 2.233 1085.575 -2894.502)" y1="1202.54" x2="-625.0919" gradientUnits="userSpaceOnUse" y2="1204.489" xlink:type="simple" xlink:actuate="onLoad" id="XMLID_45_" xlink:show="other">
                    <stop stop-color="#bfd5e8" offset="0"/>
                    <stop stop-color="#b6c6dd" offset="0.3034"/>
                    <stop stop-color="#3f5aa6" offset="0.7753"/>
                    <stop stop-color="#003d6d" offset="1"/>
                </linearGradient>
                <polygon fill="url(#XMLID_45_)" points="200.545,43.927 191.782,69.166 192.154,72.051 200.747,47.554    "/>
                <linearGradient x1="-637.9595" gradientTransform="matrix(2.233 -0.4239 0.4239 2.233 1085.575 -2894.502)" y1="1203.6748" x2="-638.705" gradientUnits="userSpaceOnUse" y2="1205.3789" xlink:type="simple" xlink:actuate="onLoad" id="XMLID_46_" xlink:show="other">
                    <stop stop-color="#ffffff" offset="0"/>
                    <stop stop-color="#ecf0f6" offset="0.0527"/>
                    <stop stop-color="#bccae0" offset="0.1975"/>
                    <stop stop-color="#aabbd7" offset="0.2697"/>
                    <stop stop-color="#95a8ce" offset="0.4226"/>
                    <stop stop-color="#6c83bb" offset="0.6685"/>
                    <stop stop-color="#003d6d" offset="0.9551"/>
                    <stop stop-color="#003d6d" offset="1"/>
                </linearGradient>
                <polygon fill="url(#XMLID_46_)" points="191.782,69.166 149.52,59.45 149.854,61.28 192.042,71.829    "/>
            </g>
            <g>
                <g>
                    <polygon fill="#ffffff" points="163.285,39.254 151.462,58.672 190.896,67.612 198.591,44.85     "/>
                    <linearGradient x1="-480.7676" gradientTransform="matrix(2.1598 -0.708 0.708 2.1598 572.0928 -2330.8403)" y1="946.4844" x2="-508.2441" gradientUnits="userSpaceOnUse" y2="936.8613" xlink:type="simple" xlink:actuate="onLoad" id="XMLID_47_" xlink:show="other">
                        <stop stop-color="#ffffff" offset="0"/>
                        <stop stop-color="#a2c2dd" offset="1"/>
                    </linearGradient>
                    <polygon fill="url(#XMLID_47_)" points="190.08,66.205 153.128,58.006 164.026,40.143 197.261,45.53     "/>
                    <linearGradient x1="-495.0029" gradientTransform="matrix(2.1598 -0.708 0.708 2.1598 572.0928 -2330.8403)" y1="953.2646" x2="-495.0528" gradientUnits="userSpaceOnUse" y2="942.1437" xlink:type="simple" xlink:actuate="onLoad" id="XMLID_48_" xlink:show="other">
                        <stop stop-color="#ffffff" offset="0"/>
                        <stop stop-color="#e0eaf3" offset="0.1142"/>
                        <stop stop-color="#a2c2dd" offset="0.35"/>
                        <stop stop-color="#8ca9cf" offset="0.4825"/>
                        <stop stop-color="#6c83bb" offset="0.7"/>
                        <stop stop-color="#637db5" offset="0.7458"/>
                        <stop stop-color="#4c6ea4" offset="0.8189"/>
                        <stop stop-color="#265689" offset="0.9097"/>
                        <stop stop-color="#003d6d" offset="0.9888"/>
                        <stop stop-color="#003d6d" offset="1"/>
                    </linearGradient>
                    <path fill="url(#XMLID_48_)" d="M 154.683 55.286 L 169.504 60.059998 L 179.942 60.725998 C 186.936 61.245 190.897 63.614998 190.897 63.614998 L 190.08101 66.204994 L 153.12901 58.061996 L 154.683 55.286 z "/>
                    <path fill="#ffffff" d="M 161.67 42.858 C 162.51 42.973003 163.465 43.493 163.927 43.97 C 163.968 43.035 166.881 42.038002 168.127 44.538002 C 169.725 42.295002 175.25 42.649002 174.79 46.084003 C 177.812 47.483 175.88199 51.364002 172.596 49.230003 C 170.771 49.293003 162.46799 47.611004 160.178 45.291004 L 161.67 42.858 z "/>
                </g>
                <g>
                    <linearGradient x1="-339.126" gradientTransform="matrix(2.0561 -0.9682 0.9682 2.0561 164.1497 -1736.4404)" y1="716.3047" x2="-331.0897" gradientUnits="userSpaceOnUse" y2="714.7271" xlink:type="simple" xlink:actuate="onLoad" id="XMLID_49_" xlink:show="other">
                        <stop stop-color="#e6eef4" offset="0"/>
                        <stop stop-color="#9ec8d1" offset="0.1492"/>
                        <stop stop-color="#62a9b3" offset="0.2883"/>
                        <stop stop-color="#3d95a1" offset="0.3901"/>
                        <stop stop-color="#2f8e9a" offset="0.4438"/>
                        <stop stop-color="#247c90" offset="0.5242"/>
                        <stop stop-color="#115a7d" offset="0.699"/>
                        <stop stop-color="#044571" offset="0.8433"/>
                        <stop stop-color="#003d6d" offset="0.9382"/>
                        <stop stop-color="#003d6d" offset="1"/>
                    </linearGradient>
                    <path fill="url(#XMLID_49_)" d="M 163.889 57.021 L 176.98601 57.881 C 172.98001 64.699 162.069 58.226 161.83301 57.604 L 163.889 57.021 z "/>
                    <linearGradient x1="-336.6636" gradientTransform="matrix(2.0561 -0.9682 0.9682 2.0561 164.1497 -1736.4404)" y1="711.1982" x2="-336.8607" gradientUnits="userSpaceOnUse" y2="715.3862" xlink:type="simple" xlink:actuate="onLoad" id="XMLID_50_" xlink:show="other">
                        <stop stop-color="#d6e6ec" offset="0"/>
                        <stop stop-color="#298595" offset="1"/>
                    </linearGradient>
                    <path fill="url(#XMLID_50_)" d="M 161.479 54.552 L 163.888 57.022 C 163.646 57.381 162.903 58.084 162.132 57.912 C 161.26201 57.224 161.102 56.128998 161.102 56.128998 C 161.102 56.128998 161.135 55.238 161.479 54.552 z "/>
                    <path fill="#bfdae1" d="M 161.47 54.564 L 163.867 57.069 C 167.51201 58.74 173.877 60.64 176.98401 57.882 C 174.263 56.892 163.8 54.429 161.47 54.564 z "/>
                    <path fill="#115b7e" d="M 164.256 56.762 L 162.44699 54.903 C 164.34299 54.931 174.03699 57.07 176.34299 57.91 C 172.826 60.226 166.079 57.531 164.256 56.762 z "/>
                    <polygon fill="#bfdae1" points="166.562,55.968 168.32,58.185 170.111,58.603 168.146,56.247     "/>
                    <polygon fill="#5da6b1" points="166.516,56.238 167.921,58.063 168.301,58.162 166.556,55.958     "/>
                    <linearGradient x1="-962.334" gradientTransform="matrix(2.4491 0.8191 0.8191 -2.4491 519.2106 6842.5005)" y1="2451.8184" x2="-966.2507" gradientUnits="userSpaceOnUse" y2="2451.2214" xlink:type="simple" xlink:actuate="onLoad" id="XMLID_51_" xlink:show="other">
                        <stop stop-color="#2b98a0" offset="0"/>
                        <stop stop-color="#0a4a60" offset="1"/>
                    </linearGradient>
                    <polygon fill="url(#XMLID_51_)" points="168.181,56.768 173.88,42.444 162.014,52.572     "/>
                    <polygon fill="#2f8e9a" points="168.913,57.737 172.982,45.289 173.68,57.922     "/>
                </g>
            </g>
        </g>
        <g>
            <g>
                <linearGradient x1="-752.4893" gradientTransform="matrix(2.2727 0 0 2.2727 1929.8079 -3589.7466)" y1="1599.3379" x2="-772.0712" gradientUnits="userSpaceOnUse" y2="1610.1052" xlink:type="simple" xlink:actuate="onLoad" id="XMLID_52_" xlink:show="other">
                    <stop stop-color="#e6eef4" offset="0"/>
                    <stop stop-color="#c2c9e8" offset="0.0958"/>
                    <stop stop-color="#888dd6" offset="0.262"/>
                    <stop stop-color="#6568ca" offset="0.3847"/>
                    <stop stop-color="#575ac6" offset="0.4494"/>
                    <stop stop-color="#5359c2" offset="0.565"/>
                    <stop stop-color="#4755b6" offset="0.6824"/>
                    <stop stop-color="#334ea1" offset="0.8006"/>
                    <stop stop-color="#184585" offset="0.9187"/>
                    <stop stop-color="#003d6d" offset="1"/>
                </linearGradient>
                <path fill="url(#XMLID_52_)" d="M 201.513 52.538 C 201.513 52.538 167.83499 67.142 167.69 67.889 C 169.629 68.22 176.13701 65.941 177.94 65.244 C 180.197 66.441 183.59601 67.115005 185.823 67.03001 C 186.632 67.00001 188.41 66.631004 189.26599 66.50001 C 194.329 65.712006 201.54 61.106007 207.84 54.481007 L 201.513 52.538 z " fill-opacity="0.4"/>
            </g>
            <g>
                <linearGradient x1="-762.2515" gradientTransform="matrix(2.2727 0 0 2.2727 1929.8079 -3589.7466)" y1="1594.5693" x2="-764.1846" gradientUnits="userSpaceOnUse" y2="1610.2759" xlink:type="simple" xlink:actuate="onLoad" id="XMLID_53_" xlink:show="other">
                    <stop stop-color="#e6eef4" offset="0"/>
                    <stop stop-color="#c2c9e8" offset="0.0958"/>
                    <stop stop-color="#888dd6" offset="0.262"/>
                    <stop stop-color="#6568ca" offset="0.3847"/>
                    <stop stop-color="#575ac6" offset="0.4494"/>
                    <stop stop-color="#5359c2" offset="0.565"/>
                    <stop stop-color="#4755b6" offset="0.6824"/>
                    <stop stop-color="#334ea1" offset="0.8006"/>
                    <stop stop-color="#184585" offset="0.9187"/>
                    <stop stop-color="#003d6d" offset="1"/>
                </linearGradient>
                <path fill="url(#XMLID_53_)" d="M 213.553 40.967 C 205.209 47.697998 184.821 54.698997 184.821 54.698997 L 184.855 53.565998 L 181.05 57.508 L 181.117 56.412 L 176.498 63.805 C 184.241 69.034 202.196 63.173 213.545 43.535 C 213.632 43.536 213.642 41.056 213.553 40.967 z "/>
                <linearGradient x1="-769.2393" gradientTransform="matrix(2.2727 0 0 2.2727 1929.8079 -3589.7466)" y1="1610.1309" x2="-763.0889" gradientUnits="userSpaceOnUse" y2="1602.3806" xlink:type="simple" xlink:actuate="onLoad" id="XMLID_54_" xlink:show="other">
                    <stop stop-color="#dee6f1" offset="0"/>
                    <stop stop-color="#7579d0" offset="1"/>
                </linearGradient>
                <path fill="url(#XMLID_54_)" d="M 213.575 42.731 C 213.527 42.779 213.71199 40.689 213.549 40.526 C 204.634 47.862 189.885 50.219 186.336 52.787003 C 183.08499 55.914 180.99 59.558002 180.99 59.558002 C 181.545 57.574 183.74101 54.933002 184.863 53.518 C 184.126 54.002003 183.44301 54.506 182.811 55.035 C 180.86 57.386 179.436 60.225 179.436 60.225 C 179.845 58.887997 180.576 57.412 181.136 56.378 C 178.254 59.161 176.633 62.635 176.66501 62.666 C 181.949 67.344 200.604 63.221 213.575 42.731 z "/>
                <g>
                    <linearGradient x1="-754.9634" gradientTransform="matrix(2.2727 0 0 2.2727 1929.8079 -3589.7466)" y1="1595.2744" x2="-773.5273" gradientUnits="userSpaceOnUse" y2="1609.9301" xlink:type="simple" xlink:actuate="onLoad" id="XMLID_55_" xlink:show="other">
                        <stop stop-color="#e6eef4" offset="0"/>
                        <stop stop-color="#c2c9e8" offset="0.0946"/>
                        <stop stop-color="#888dd6" offset="0.2587"/>
                        <stop stop-color="#6568ca" offset="0.3799"/>
                        <stop stop-color="#575ac6" offset="0.4438"/>
                        <stop stop-color="#3d51ac" offset="0.5639"/>
                        <stop stop-color="#1c468a" offset="0.748"/>
                        <stop stop-color="#073f75" offset="0.9"/>
                        <stop stop-color="#003d6d" offset="1"/>
                    </linearGradient>
                    <path fill="url(#XMLID_55_)" d="M 172.819 65.811 L 166.69 67.38699 C 166.69 67.38699 201.287 52.218994 212.098 42.72499 C 198.878 55.499 182.104 61.721 172.819 65.811 z "/>
                </g>
                <g>
                    <linearGradient x1="1587.999" gradientTransform="matrix(0.3186 0.1114 -0.1114 0.3186 861.9014 -3490.5068)" y1="10575.8477" x2="1590.1339" gradientUnits="userSpaceOnUse" y2="10577.9824" xlink:type="simple" xlink:actuate="onLoad" id="XMLID_56_" xlink:show="other">
                        <stop stop-color="#dee6f1" offset="0"/>
                        <stop stop-color="#7579d0" offset="1"/>
                    </linearGradient>
                    <path fill="url(#XMLID_56_)" d="M 171.743 65.502 C 170.05699 66.137 168.41 66.681 166.87 66.968 C 178.721 60.681004 199.237 53.344 212.099 42.725002 C 200.263 53.501 182.207 60.833 171.743 65.502 z "/>
                </g>
                <path fill="#334ea2" d="M 170.598 64.99 C 171.74501 64.458 172.82 65.81 172.82 65.81 C 172.82 65.81 166.716 68.151 166.358 67.246994 C 166.357 67.246 168.229 66.083 170.598 64.99 z "/>
            </g>
        </g>
    </g>
</svg>
