<?xml version="1.0" encoding="UTF-8"?>
<svg xmlns="http://www.w3.org/2000/svg" xmlns:xlink="http://www.w3.org/1999/xlink" contentScriptType="text/ecmascript" width="12" baseProfile="tiny" zoomAndPan="magnify" contentStyleType="text/css" viewBox="0 0 12 12" height="12" preserveAspectRatio="xMidYMid meet" version="1.1">
    <g>
        <rect width="12" fill="none" height="12"/>
        <path fill="#ffffff" d="M 9.568 10.708 L 9.566 10.708 L 3.466 7.01 L 3.4680002 7.01 L 3.465 7.01 C 2.983 6.693 2.877 6.343 2.873 6.101 C 2.8769999 5.8589997 2.9829998 5.509 3.465 5.193 L 3.467 5.194 L 3.466 5.192 L 9.569 1.5409999 L 9.57 1.54 C 9.98 1.316 10.431 1.122 10.847 1.308 C 11.2630005 1.495 11.451 1.8699999 11.451 2.271 L 11.451 2.3609998 L 11.451 9.979 L 11.451 9.98 C 11.451 10.381 11.2630005 10.754 10.847 10.943 C 10.434 11.129 9.979 10.934 9.568 10.708 z " fill-opacity="0.8"/>
        <linearGradient x1="-691.124" gradientTransform="matrix(1 0 0 -1 694.626 1007.9688)" y1="1001.8438" x2="-683.6943" gradientUnits="userSpaceOnUse" y2="1001.8438" xlink:type="simple" xlink:actuate="onLoad" id="XMLID_4_" xlink:show="other">
            <stop stop-color="#52a2a5" offset="0"/>
            <stop stop-color="#4e9da0" offset="0.1574"/>
            <stop stop-color="#448d93" offset="0.3534"/>
            <stop stop-color="#32747d" offset="0.5698"/>
            <stop stop-color="#1a515f" offset="0.7992"/>
            <stop stop-color="#002c3f" offset="1"/>
        </linearGradient>
        <path fill="url(#XMLID_4_)" d="M 10.932 5.37 L 10.932 2.31 C 10.932 1.918 10.452001 1.6559999 10.012 1.895 L 3.842 5.635 C 3.616 5.781 3.502 5.912 3.502 6.1140003 C 3.502 6.3120003 3.6160002 6.4170003 3.842 6.5670004 L 10.012 10.356001 C 10.45 10.594001 10.932 10.335001 10.932 9.940001 L 10.932 5.37 z "/>
        <linearGradient x1="-838.499" gradientTransform="matrix(0 1 1 0 -266.9219 825.8193)" y1="274.1611" x2="-799.0129" gradientUnits="userSpaceOnUse" y2="274.1611" xlink:type="simple" xlink:actuate="onLoad" id="XMLID_5_" xlink:show="other">
            <stop stop-color="#52a2a5" offset="0"/>
            <stop stop-color="#4e9da0" offset="0.1574"/>
            <stop stop-color="#448d93" offset="0.3534"/>
            <stop stop-color="#32747d" offset="0.5698"/>
            <stop stop-color="#1a515f" offset="0.7992"/>
            <stop stop-color="#002c3f" offset="1"/>
        </linearGradient>
        <path fill="url(#XMLID_5_)" d="M 3.969 5.873 C 3.9810002 5.866 10.1310005 2.1360002 10.1310005 2.1360002 C 10.434001 1.9710002 10.682 2.144 10.682 2.3100002 L 10.682 9.939 C 10.682 10.085 10.473001 10.3 10.123 10.109 L 3.965 6.325 C 3.705 6.154 3.777 5.998 3.969 5.873 z "/>
        <linearGradient x1="-823.6543" gradientTransform="matrix(0 1 1 0 -266.9219 825.8193)" y1="274.249" x2="-814.6431" gradientUnits="userSpaceOnUse" y2="274.249" xlink:type="simple" xlink:actuate="onLoad" id="XMLID_6_" xlink:show="other">
            <stop stop-color="#52a2a5" offset="0"/>
            <stop stop-color="#4e9da0" offset="0.1574"/>
            <stop stop-color="#448d93" offset="0.3534"/>
            <stop stop-color="#32747d" offset="0.5698"/>
            <stop stop-color="#1a515f" offset="0.7992"/>
            <stop stop-color="#002c3f" offset="1"/>
        </linearGradient>
        <path fill="url(#XMLID_6_)" d="M 10.334 2.5 L 4.32 6.082 C 4.3240004 6.0849996 10.334 9.746 10.334 9.746 L 10.334 2.5 z "/>
    </g>
</svg>
