<?xml version="1.0" encoding="UTF-8"?>
<svg xmlns="http://www.w3.org/2000/svg" xmlns:xlink="http://www.w3.org/1999/xlink" contentScriptType="text/ecmascript" width="60" baseProfile="tiny" zoomAndPan="magnify" contentStyleType="text/css" viewBox="-0.785 0.319 60 52" height="52" preserveAspectRatio="xMidYMid meet" version="1.1">
    <linearGradient x1="-1360.0369" gradientTransform="matrix(1 0 0 1 1389.252 -789.7157)" y1="834.8365" x2="-1360.0369" gradientUnits="userSpaceOnUse" y2="796.4366" xlink:type="simple" xlink:actuate="onLoad" id="XMLID_76_" xlink:show="other">
        <stop stop-color="#ffffff" offset="0"/>
        <stop stop-color="#40a3a3" offset="1"/>
    </linearGradient>
    <path fill="url(#XMLID_76_)" d="M 7.474 6.319 C 6.229 6.319 5.215 7.333 5.215 8.578 L 5.215 44.06 C 5.215 45.306 6.229 46.32 7.474 46.32 L 50.955 46.32 C 52.200996 46.32 53.214996 45.306 53.214996 44.06 L 53.214996 8.578 C 53.214996 7.333 52.200996 6.319 50.955 6.319 L 7.474 6.319 z " fill-opacity="0.7"/>
    <g>
        <g>
            <g>
                <linearGradient x1="-1360.0369" gradientTransform="matrix(1 0 0 1 1389.252 -789.7157)" y1="791.4967" x2="-1360.0369" gradientUnits="userSpaceOnUse" y2="836.6167" xlink:type="simple" xlink:actuate="onLoad" id="XMLID_77_" xlink:show="other">
                    <stop stop-color="#ffffff" offset="0"/>
                    <stop stop-color="#40a3a3" offset="1"/>
                </linearGradient>
                <path fill="url(#XMLID_77_)" d="M 6.215 44.06 L 6.215 8.578 C 6.215 7.884 6.779 7.319 7.474 7.319 L 50.955 7.319 C 51.648 7.319 52.214996 7.883001 52.214996 8.578 L 52.214996 44.06 C 52.214996 44.754 51.650997 45.32 50.955 45.32 L 7.474 45.32 C 6.779 45.319 6.215 44.755 6.215 44.06 z " fill-opacity="0.9"/>
            </g>
        </g>
    </g>
    <linearGradient x1="-1360.2278" gradientTransform="matrix(1 0 0 1 1389.252 -789.7157)" y1="832.816" x2="-1360.2278" gradientUnits="userSpaceOnUse" y2="800.416" xlink:type="simple" xlink:actuate="onLoad" id="XMLID_78_" xlink:show="other">
        <stop stop-color="#ffffff" offset="0"/>
        <stop stop-color="#40a3a3" offset="1"/>
    </linearGradient>
    <path fill="url(#XMLID_78_)" d="M 51.833 7.696 C 51.59 7.444 51.305 7.319 50.955 7.319 L 7.474 7.319 C 6.78 7.319 6.215 7.883001 6.215 8.578 L 6.215 44.06 C 6.215 44.406 6.3580003 44.711 6.5870004 44.933 C 6.59 44.946003 7.215 44.305004 7.215 44.305004 L 7.215 8.319 L 51.214 8.319 L 51.833 7.696 z " fill-opacity="0.7"/>
    <path fill="#ffffff" d="M 6.597 44.941 C 6.84 45.193 7.126 45.318 7.475001 45.318 L 50.956 45.318 C 51.65 45.318 52.215 44.755 52.215 44.059 L 52.215 8.578 C 52.215 8.232 52.072 7.926 51.843 7.705 C 51.84 7.692 51.215 8.333 51.215 8.333 C 51.215 8.333 51.215 43.54 51.215 44.318 C 50.477 44.318 7.216 44.318 7.216 44.318 L 6.597 44.941 z "/>
    <rect x="19.215" width="20" fill="#ffffff" y="20.435" height="3.771"/>
    <rect x="19.215" width="20" fill="#ffffff" y="28.435" height="3.771"/>
</svg>
