<?xml version="1.0" encoding="UTF-8"?>
<svg xmlns="http://www.w3.org/2000/svg" xmlns:xlink="http://www.w3.org/1999/xlink" contentScriptType="text/ecmascript" width="84" baseProfile="tiny" zoomAndPan="magnify" contentStyleType="text/css" viewBox="0 0 84 58" height="58" preserveAspectRatio="xMidYMid meet" version="1.1">
    <g>
        <g>
            <path fill="#ffffff" d="M 49.005 10.203 C 49.005 10.203 43.571 18.696 43.121002 19.4 C 40.670002 18.025 37.371002 21.567999 39.608 24.282 C 39.313004 24.758 35.796 30.421999 35.796 30.421999 C 31.343002 37.389 34.230003 44.052998 40.162003 45.54 C 41.320004 47.095 42.998 48.395 44.738003 49.111 C 44.771004 49.576 44.989002 52.494 44.989002 52.494 C 46.044003 53.302 49.225002 53.66 50.816 53.415 L 54.449 51.616 C 54.449 51.616 54.371002 48.461002 54.36 48.028 C 57.899002 45.817 58.386 42.225998 58.386 39.313 C 58.386 39.313 58.386 31.088 58.386 30.631 C 59.824 29.633001 60.325 27.159 59.68 25.631 C 59.695 25.62 63.575 19.606 63.575 19.606 C 66.579 14.909 66.566 9.136001 61.746002 6.050001 C 58.3 3.845 52.842 4.205 49.005 10.203 z M 54.164 35.435 C 54.164 37.012 54.164 39.125 54.164 39.125 C 54.164 42.043 53.868 45.218 51.756 46.78 C 48.384 47.066998 46.58 45.868 45.739 45.014 C 49.832 43.142 51.627 39.532 54.164 35.435 z "/>
            <linearGradient x1="-697.6816" gradientTransform="matrix(1.1905 0 0 -1.1905 875.4829 1344.9003)" y1="1092.2598" x2="-690.4181" gradientUnits="userSpaceOnUse" y2="1086.6913" xlink:type="simple" xlink:actuate="onLoad" id="XMLID_15_" xlink:show="other">
                <stop stop-color="#a2c2dd" offset="0"/>
                <stop stop-color="#a2c2dd" offset="0.1"/>
                <stop stop-color="#6c83bb" offset="0.71"/>
                <stop stop-color="#003d6d" offset="0.99"/>
                <stop stop-color="#003d6d" offset="1"/>
            </linearGradient>
            <polygon fill="url(#XMLID_15_)" points="50.672,52.973 53.969,51.325 53.87,47.498 50.556,48.422   "/>
            <linearGradient x1="-700.7236" gradientTransform="matrix(1.1905 0 0 -1.1905 875.4829 1344.9003)" y1="1088.7051" x2="-688.1733" gradientUnits="userSpaceOnUse" y2="1086.249" xlink:type="simple" xlink:actuate="onLoad" id="XMLID_16_" xlink:show="other">
                <stop stop-color="#ffffff" offset="0"/>
                <stop stop-color="#a2c2dd" offset="0.35"/>
                <stop stop-color="#6c83bb" offset="0.7"/>
                <stop stop-color="#003d6d" offset="1"/>
            </linearGradient>
            <path fill="url(#XMLID_16_)" d="M 45.108 47.727 L 45.444 52.241 C 46.118 52.734 49.113 53.192 50.713 52.952 L 50.623 47.845 L 45.108 47.727 z "/>
            <linearGradient x1="-699.5171" gradientTransform="matrix(1.1905 0 0 -1.1905 875.4829 1344.9003)" y1="1113.6738" x2="-703.3741" gradientUnits="userSpaceOnUse" y2="1108.5803" xlink:type="simple" xlink:actuate="onLoad" id="XMLID_17_" xlink:show="other">
                <stop stop-color="#e6eef4" offset="0"/>
                <stop stop-color="#c03a3a" offset="0.44"/>
                <stop stop-color="#302d02" offset="0.94"/>
                <stop stop-color="#302d02" offset="1"/>
            </linearGradient>
            <path fill="url(#XMLID_17_)" d="M 43.385 20.121 C 41.098 17.906 37.613 22.181 40.309 24.413 L 43.385 20.121 z "/>
            <path fill="#7b341f" d="M 43.369 20.177 L 40.748 23.768 C 39.837 21.747 41.879 19.163 43.369 20.177 z "/>
            <linearGradient x1="-694.3232" gradientTransform="matrix(1.1905 0 0 -1.1905 875.4829 1344.9003)" y1="1120.2959" x2="-685.963" gradientUnits="userSpaceOnUse" y2="1113.5734" xlink:type="simple" xlink:actuate="onLoad" id="XMLID_18_" xlink:show="other">
                <stop stop-color="#ffffff" offset="0"/>
                <stop stop-color="#ffffff" offset="0.05"/>
                <stop stop-color="#a2c2dd" offset="1"/>
            </linearGradient>
            <path fill="url(#XMLID_18_)" d="M 57.095 28.793 L 63.186 19.271 C 66.665 13.836 65.265 8.8619995 61.491 6.448 C 58.061 4.255 52.931 4.9440002 49.402 10.457 L 42.601 21.09 L 57.095 28.793 z "/>
            <linearGradient x1="-700.9116" gradientTransform="matrix(1.1905 0 0 -1.1905 875.4829 1344.9003)" y1="1112.5391" x2="-683.635" gradientUnits="userSpaceOnUse" y2="1104.4657" xlink:type="simple" xlink:actuate="onLoad" id="XMLID_19_" xlink:show="other">
                <stop stop-color="#e6eef4" offset="0"/>
                <stop stop-color="#b94994" offset="0.44"/>
                <stop stop-color="#3d013f" offset="0.94"/>
                <stop stop-color="#3d013f" offset="1"/>
            </linearGradient>
            <path fill="url(#XMLID_19_)" d="M 41.949 21.403 L 57.047 30.033 L 57.793 28.725 C 55.342 25.182001 49.176 20.939001 42.892998 20.568 L 41.949 21.403 z "/>
            <linearGradient x1="-702.1118" gradientTransform="matrix(1.1905 0 0 -1.1905 875.4829 1344.9003)" y1="1108.8662" x2="-694.1129" gradientUnits="userSpaceOnUse" y2="1095.7584" xlink:type="simple" xlink:actuate="onLoad" id="XMLID_20_" xlink:show="other">
                <stop stop-color="#e4e6ef" offset="0"/>
                <stop stop-color="#ba4c96" offset="1"/>
            </linearGradient>
            <path fill="url(#XMLID_20_)" d="M 57.076 29.553 L 50.707 39.956 C 47.043 45.681 41.673 46.536003 37.702 43.996002 C 34.092 41.686 32.484 36.478 36.199 30.671001 L 41.947002 21.412003 C 47.409 21.906 53.813 25.635 57.076 29.553 z "/>
            <linearGradient x1="-687.498" gradientTransform="matrix(1.1905 0 0 -1.1905 875.4829 1344.9003)" y1="1118.168" x2="-710.2925" gradientUnits="userSpaceOnUse" y2="1069.476" xlink:type="simple" xlink:actuate="onLoad" id="XMLID_21_" xlink:show="other">
                <stop stop-color="#e6eef4" offset="0"/>
                <stop stop-color="#b94994" offset="0.44"/>
                <stop stop-color="#3d013f" offset="0.94"/>
                <stop stop-color="#3d013f" offset="1"/>
            </linearGradient>
            <path fill="url(#XMLID_21_)" d="M 48.196 37.338 C 44.721 42.773003 39.896 44.122 35.998 42.491 C 40.625 47.375 47.156002 45.641003 50.88 39.818 L 57.043 29.919 L 54.561 27.285 L 48.196 37.338 z "/>
            <path fill="#a2c2dd" d="M 61.48 6.527 L 61.48 6.527 C 63.692 8.868 64.098 12.828 61.309 17.171 L 55.071 26.714 L 57.607 27.902 L 63.177 19.348999 C 66.654 13.911 65.253 8.941 61.48 6.527 z "/>
            <linearGradient x1="-690.146" gradientTransform="matrix(1.1905 0 0 -1.1905 875.4829 1344.9003)" y1="1107.6729" x2="-690.146" gradientUnits="userSpaceOnUse" y2="1089.1757" xlink:type="simple" xlink:actuate="onLoad" id="XMLID_22_" xlink:show="other">
                <stop stop-color="#ffffff" offset="0"/>
                <stop stop-color="#a2c2dd" offset="0.35"/>
                <stop stop-color="#6c83bb" offset="0.7"/>
                <stop stop-color="#003d6d" offset="1"/>
            </linearGradient>
            <path fill="url(#XMLID_22_)" d="M 55.426 27.06 L 57.911 25.793999 C 57.911 25.793999 57.911 34.486 57.911 39.314 C 57.911 44.146 56.457 47.833 49.85 49.253 C 54.310997 47.399998 55.352997 43.392998 55.246 38.894997 L 55.426 27.06 z "/>
            <linearGradient x1="-686.834" gradientTransform="matrix(1.1905 0 0 -1.1905 875.4829 1344.9003)" y1="1090.3428" x2="-698.8209" gradientUnits="userSpaceOnUse" y2="1090.5311" xlink:type="simple" xlink:actuate="onLoad" id="XMLID_23_" xlink:show="other">
                <stop stop-color="#a2c2dd" offset="0"/>
                <stop stop-color="#a2c2dd" offset="0.1"/>
                <stop stop-color="#6c83bb" offset="0.71"/>
                <stop stop-color="#003d6d" offset="0.99"/>
                <stop stop-color="#003d6d" offset="1"/>
            </linearGradient>
            <path fill="url(#XMLID_23_)" d="M 41.364 45.328 C 44.525997 49.451 49.170998 48.827 52.722 47.147 C 48.226 47.815 46.11 46.23 44.97 44.942 C 44.425 45.059 42.895 45.297 41.364 45.328 z "/>
            <linearGradient x1="-700.4336" gradientTransform="matrix(1.1905 0 0 -1.1905 875.4829 1344.9003)" y1="1109.0684" x2="-692.1228" gradientUnits="userSpaceOnUse" y2="1093.8715" xlink:type="simple" xlink:actuate="onLoad" id="XMLID_24_" xlink:show="other">
                <stop stop-color="#ffffff" offset="0"/>
                <stop stop-color="#ffffff" offset="0.15"/>
                <stop stop-color="#a2c2dd" offset="1"/>
            </linearGradient>
            <path fill="url(#XMLID_24_)" d="M 41.684 45.297 C 42.975998 46.774002 45.501 48.177002 47.909996 48.253002 C 54.056995 48.453003 54.634995 43.323 54.634995 39.125 C 54.634995 34.925 54.634995 26.861 54.634995 26.861 L 55.425995 27.061 C 55.425995 27.061 55.389996 33.171 55.389996 39.06 C 55.389996 44.945 54.121994 49.946 47.075996 49.252003 C 44.245995 48.973003 41.735996 46.939003 40.438995 45.136 C 41.045 45.34 41.684 45.297 41.684 45.297 z "/>
            <linearGradient x1="-687.7563" gradientTransform="matrix(1.1905 0 0 -1.1905 875.4829 1344.9003)" y1="1109.1543" x2="-689.1729" gradientUnits="userSpaceOnUse" y2="1103.5616" xlink:type="simple" xlink:actuate="onLoad" id="XMLID_25_" xlink:show="other">
                <stop stop-color="#e6eef4" offset="0"/>
                <stop stop-color="#c03a3a" offset="0.44"/>
                <stop stop-color="#302d02" offset="0.94"/>
                <stop stop-color="#302d02" offset="1"/>
            </linearGradient>
            <path fill="url(#XMLID_25_)" d="M 58.604 24.941 C 56.992 23.326 54.291 24.871 54.012 27.465 C 53.782 29.567 55.313 31.126 57.094 30.576 L 58.604 24.941 "/>
            <linearGradient x1="-687.3237" gradientTransform="matrix(1.1905 0 0 -1.1905 875.4829 1344.9003)" y1="1108.9248" x2="-687.0126" gradientUnits="userSpaceOnUse" y2="1105.5591" xlink:type="simple" xlink:actuate="onLoad" id="XMLID_26_" xlink:show="other">
                <stop stop-color="#e3dfe4" offset="0"/>
                <stop stop-color="#c03a3a" offset="1"/>
            </linearGradient>
            <path fill="url(#XMLID_26_)" d="M 59.513 27.656 C 59.33 29.281 58.288002 30.593 57.179 30.583 C 56.072002 30.573 55.326 29.251 55.507 27.626 C 55.687 26.001999 56.729 24.692 57.838 24.703 C 58.945 24.71 59.695 26.033 59.513 27.656 z "/>
            <polygon fill="#6d5607" points="22.37,5.521 25.497,27.021 27.436,28.282 26.897,24.404 24.174,5.679   "/>
            <path fill="#b18e3b" d="M 22.37 5.521 C 22.543001 5.67 23.121 5.738 23.665 5.653 L 24.597 5.078 C 24.188 4.8980002 23.548 4.938 23.219 5.038 L 22.37 5.521 z "/>
            <path fill="#6d5607" d="M 33.64 17.702 C 31.876 13.108 27.609999 12.364 25.217999 9.315 L 24.596998 5.0789995 L 23.67 5.647 L 23.69 5.782 C 23.684 5.741 23.67 5.706 23.665 5.665 L 23.505001 5.687 L 24.906002 14.669001 C 24.926003 14.669001 24.956001 14.669001 24.980001 14.6710005 L 27.398 31.348 L 28.166 29.437 L 26.022 14.792 C 34.032997 16.575 33.416 21.952 31.673 26.809 L 32.489 27.215 C 33.915 24.059 34.443 19.926 33.64 17.702 z "/>
            <linearGradient x1="-701.2529" gradientTransform="matrix(1.1905 0 0 -1.1905 875.4829 1344.9003)" y1="1102.8086" x2="-716.7527" gradientUnits="userSpaceOnUse" y2="1124.3102" xlink:type="simple" xlink:actuate="onLoad" id="XMLID_27_" xlink:show="other">
                <stop stop-color="#e6eef4" offset="0"/>
                <stop stop-color="#a3740a" offset="0.44"/>
                <stop stop-color="#474105" offset="0.94"/>
                <stop stop-color="#474105" offset="1"/>
            </linearGradient>
            <path fill="url(#XMLID_27_)" d="M 33.02 26.761 C 34.503002 23.617 35.08 19.492 34.304 17.257 C 32.068 11.218 25.458 11.739 24.596 5.2469997 L 23.803001 5.8019996 C 24.761002 12.403999 31.279001 11.764999 33.56 17.708 C 34.363003 19.933 33.927002 24.058 32.482002 27.217 L 33.02 26.761 z "/>
            <radialGradient gradientTransform="matrix(1.1905 0 0 -1.1905 875.4829 1344.9003)" id="XMLID_28_" gradientUnits="userSpaceOnUse" xlink:show="other" xlink:type="simple" r="4.1424" cx="-715.4346" fx="-715.2872" cy="1105.2656" fy="1105.2493" xlink:actuate="onLoad">
                <stop stop-color="#e6eef4" offset="0"/>
                <stop stop-color="#a3740a" offset="0.44"/>
                <stop stop-color="#474105" offset="0.94"/>
                <stop stop-color="#474105" offset="1"/>
            </radialGradient>
            <path fill="url(#XMLID_28_)" d="M 27.846 31.378 C 26.858 34.004 23.972 36.13 21.398 36.126 C 18.829 36.126 17.542 33.995 18.53 31.373 C 19.516 28.744 22.405 26.616999 24.978 26.619 C 27.551 26.623 28.835 28.75 27.846 31.378 z "/>
        </g>
        <rect width="84" fill="none" height="58"/>
    </g>
</svg>
