<?xml version="1.0" encoding="UTF-8"?>
<svg xmlns="http://www.w3.org/2000/svg" xmlns:xlink="http://www.w3.org/1999/xlink" contentScriptType="text/ecmascript" width="306" baseProfile="tiny" zoomAndPan="magnify" contentStyleType="text/css" viewBox="0 0 306 20" height="20" preserveAspectRatio="xMidYMid meet" version="1.1">
    <g>
        <path fill="#52a2a5" d="M 304.891 2.3 C 304.891 1.589 304.225 1.0109999 303.405 1.0109999 L 2.379 1.0109999 C 1.559 1.0109999 0.8909999 1.589 0.8909999 2.3 L 0.8909999 17.706999 C 0.8909999 18.418 1.5569999 18.995998 2.3769999 18.995998 L 303.40402 18.995998 C 304.22202 18.995998 304.89 18.418 304.89 17.706999 L 304.89 10.010999 L 304.89 10.010999 L 304.89 2.3 z "/>
        <rect width="306" fill="none" height="20"/>
        <linearGradient x1="-664.626" gradientTransform="matrix(1 0 0 -1 694.626 1015.9697)" y1="982.8325" x2="-664.626" gradientUnits="userSpaceOnUse" y2="1020.438" xlink:type="simple" xlink:actuate="onLoad" id="XMLID_14_" xlink:show="other">
            <stop stop-color="#000000" offset="0"/>
            <stop stop-color="#054d49" offset="0.5"/>
            <stop stop-color="#52a2a5" offset="1"/>
        </linearGradient>
        <polygon fill="url(#XMLID_14_)" fill-opacity="0.8" points="14,1 32,19 46,19 28,1  "/>
        <linearGradient x1="-636.626" gradientTransform="matrix(1 0 0 -1 694.626 1015.9697)" y1="982.8325" x2="-636.626" gradientUnits="userSpaceOnUse" y2="1020.438" xlink:type="simple" xlink:actuate="onLoad" id="XMLID_15_" xlink:show="other">
            <stop stop-color="#000000" offset="0"/>
            <stop stop-color="#054d49" offset="0.5"/>
            <stop stop-color="#52a2a5" offset="1"/>
        </linearGradient>
        <polygon fill="url(#XMLID_15_)" fill-opacity="0.8" points="42,1 60,19 74,19 56,1  "/>
        <linearGradient x1="-608.6255" gradientTransform="matrix(1 0 0 -1 694.626 1015.9697)" y1="982.8325" x2="-608.6255" gradientUnits="userSpaceOnUse" y2="1020.438" xlink:type="simple" xlink:actuate="onLoad" id="XMLID_16_" xlink:show="other">
            <stop stop-color="#000000" offset="0"/>
            <stop stop-color="#054d49" offset="0.5"/>
            <stop stop-color="#52a2a5" offset="1"/>
        </linearGradient>
        <polygon fill="url(#XMLID_16_)" fill-opacity="0.8" points="70,1 88,19 102.001,19 84,1  "/>
        <linearGradient x1="-580.625" gradientTransform="matrix(1 0 0 -1 694.626 1015.9697)" y1="982.8325" x2="-580.625" gradientUnits="userSpaceOnUse" y2="1020.438" xlink:type="simple" xlink:actuate="onLoad" id="XMLID_17_" xlink:show="other">
            <stop stop-color="#000000" offset="0"/>
            <stop stop-color="#054d49" offset="0.5"/>
            <stop stop-color="#52a2a5" offset="1"/>
        </linearGradient>
        <polygon fill="url(#XMLID_17_)" fill-opacity="0.8" points="98.001,1 116.001,19 130.001,19 112.001,1  "/>
        <linearGradient x1="-552.625" gradientTransform="matrix(1 0 0 -1 694.626 1015.9697)" y1="982.8325" x2="-552.625" gradientUnits="userSpaceOnUse" y2="1020.438" xlink:type="simple" xlink:actuate="onLoad" id="XMLID_18_" xlink:show="other">
            <stop stop-color="#000000" offset="0"/>
            <stop stop-color="#054d49" offset="0.5"/>
            <stop stop-color="#52a2a5" offset="1"/>
        </linearGradient>
        <polygon fill="url(#XMLID_18_)" fill-opacity="0.8" points="126.001,1 144.001,19 158,19 140.001,1  "/>
        <linearGradient x1="-524.6255" gradientTransform="matrix(1 0 0 -1 694.626 1015.9697)" y1="982.8325" x2="-524.6255" gradientUnits="userSpaceOnUse" y2="1020.438" xlink:type="simple" xlink:actuate="onLoad" id="XMLID_19_" xlink:show="other">
            <stop stop-color="#000000" offset="0"/>
            <stop stop-color="#054d49" offset="0.5"/>
            <stop stop-color="#52a2a5" offset="1"/>
        </linearGradient>
        <polygon fill="url(#XMLID_19_)" fill-opacity="0.8" points="154,1 172,19 186,19 168,1  "/>
        <linearGradient x1="-496.6255" gradientTransform="matrix(1 0 0 -1 694.626 1015.9697)" y1="982.8325" x2="-496.6255" gradientUnits="userSpaceOnUse" y2="1020.438" xlink:type="simple" xlink:actuate="onLoad" id="XMLID_20_" xlink:show="other">
            <stop stop-color="#000000" offset="0"/>
            <stop stop-color="#054d49" offset="0.5"/>
            <stop stop-color="#52a2a5" offset="1"/>
        </linearGradient>
        <polygon fill="url(#XMLID_20_)" fill-opacity="0.8" points="182,1 200,19 214,19 196,1  "/>
        <linearGradient x1="-468.6255" gradientTransform="matrix(1 0 0 -1 694.626 1015.9697)" y1="982.8325" x2="-468.6255" gradientUnits="userSpaceOnUse" y2="1020.438" xlink:type="simple" xlink:actuate="onLoad" id="XMLID_21_" xlink:show="other">
            <stop stop-color="#000000" offset="0"/>
            <stop stop-color="#054d49" offset="0.5"/>
            <stop stop-color="#52a2a5" offset="1"/>
        </linearGradient>
        <polygon fill="url(#XMLID_21_)" fill-opacity="0.8" points="210,1 228,19 242,19 224,1  "/>
        <linearGradient x1="-440.6255" gradientTransform="matrix(1 0 0 -1 694.626 1015.9697)" y1="982.8325" x2="-440.6255" gradientUnits="userSpaceOnUse" y2="1020.438" xlink:type="simple" xlink:actuate="onLoad" id="XMLID_22_" xlink:show="other">
            <stop stop-color="#000000" offset="0"/>
            <stop stop-color="#054d49" offset="0.5"/>
            <stop stop-color="#52a2a5" offset="1"/>
        </linearGradient>
        <polygon fill="url(#XMLID_22_)" fill-opacity="0.8" points="238,1 256,19 270,19 252,1  "/>
        <linearGradient x1="282.0005" y1="33.1372" x2="282.0005" gradientUnits="userSpaceOnUse" y2="-4.4678" xlink:type="simple" xlink:actuate="onLoad" id="XMLID_23_" xlink:show="other">
            <stop stop-color="#000000" offset="0"/>
            <stop stop-color="#054d49" offset="0.5"/>
            <stop stop-color="#52a2a5" offset="1"/>
        </linearGradient>
        <polygon fill="url(#XMLID_23_)" points="266,1 284,19 298,19 280,1  "/>
        <polygon fill="none" points="14,1 32,19 298,19 280,1  "/>
        <linearGradient x1="9.5" y1="33.1372" x2="9.5" gradientUnits="userSpaceOnUse" y2="-4.4678" xlink:type="simple" xlink:actuate="onLoad" id="XMLID_24_" xlink:show="other">
            <stop stop-color="#000000" offset="0"/>
            <stop stop-color="#054d49" offset="0.5"/>
            <stop stop-color="#52a2a5" offset="1"/>
        </linearGradient>
        <path fill="url(#XMLID_24_)" d="M 1.0 2.289 L 1.0 16.0 L 4.0 19.0 L 18.0 19.0 L 1.03 2.03 C 1.011 2.113 1.0 2.2 1.0 2.289 z "/>
        <linearGradient x1="299.5005" y1="19.5659" x2="299.5005" gradientUnits="userSpaceOnUse" y2="7.9287" xlink:type="simple" xlink:actuate="onLoad" id="XMLID_25_" xlink:show="other">
            <stop stop-color="#000000" offset="0"/>
            <stop stop-color="#054d49" offset="0.5"/>
            <stop stop-color="#52a2a5" offset="1"/>
        </linearGradient>
        <path fill="url(#XMLID_25_)" d="M 303.514 1.0 L 294.0 1.0 L 305.0 12.0 L 305.0 2.289 C 305.0 1.578 304.334 1.0 303.514 1.0 z "/>
        <linearGradient x1="-541.626" gradientTransform="matrix(1 0 0 -1 694.626 1015.9697)" y1="1017.2192" x2="-541.626" gradientUnits="userSpaceOnUse" y2="1005.9692" xlink:type="simple" xlink:actuate="onLoad" id="XMLID_26_" xlink:show="other">
            <stop stop-color="#ffffff" offset="0"/>
            <stop stop-color="#ffffff" offset="0.1"/>
            <stop stop-color="#cfecff" offset="0.98"/>
            <stop stop-color="#cfecff" offset="1"/>
        </linearGradient>
        <path fill="url(#XMLID_26_)" d="M 303.514 1.0 L 2.488 1.0 C 1.668 1.0 1.0 1.578 1.0 2.289 L 1.0 10.0 L 305.0 10.0 L 305.0 2.289 C 305.0 1.578 304.334 1.0 303.514 1.0 z " fill-opacity="0.2"/>
    </g>
</svg>
