<?xml version="1.0" encoding="UTF-8"?>
<svg xmlns="http://www.w3.org/2000/svg" xmlns:xlink="http://www.w3.org/1999/xlink" contentScriptType="text/ecmascript" width="16" baseProfile="tiny" zoomAndPan="magnify" contentStyleType="text/css" viewBox="0 0 16 20" height="20" preserveAspectRatio="xMidYMid meet" version="1.1">
    <g>
        <g>
            <g>
                <g>
                    <linearGradient x1="-686.6255" gradientTransform="matrix(1 0 0 -1 694.626 1015.9688)" y1="997.2188" x2="-686.6255" gradientUnits="userSpaceOnUse" y2="1014.0344" xlink:type="simple" xlink:actuate="onLoad" id="XMLID_3_" xlink:show="other">
                        <stop stop-color="#000000" offset="0"/>
                        <stop stop-color="#054d49" offset="0.5"/>
                        <stop stop-color="#52a2a5" offset="1"/>
                    </linearGradient>
                    <path fill="url(#XMLID_3_)" d="M 14.152 1.25 L 1.851 1.25 C 0.829 1.25 0.0 1.811 0.0 2.503 L 0.0 17.497 C 0.0 18.189 0.829 18.75 1.851 18.75 L 14.151999 18.75 C 15.171999 18.75 16.001 18.189 16.001 17.497 L 16.001 2.503 C 16.0 1.811 15.171 1.25 14.152 1.25 z "/>
                </g>
                <linearGradient x1="-686.626" gradientTransform="matrix(1 0 0 -1 694.626 1015.9688)" y1="1016.9053" x2="-686.626" gradientUnits="userSpaceOnUse" y2="1005.9678" xlink:type="simple" xlink:actuate="onLoad" id="XMLID_4_" xlink:show="other">
                    <stop stop-color="#ffffff" offset="0"/>
                    <stop stop-color="#ffffff" offset="0.1"/>
                    <stop stop-color="#cfecff" offset="0.98"/>
                    <stop stop-color="#cfecff" offset="1"/>
                </linearGradient>
                <path fill="url(#XMLID_4_)" d="M 14.152 1.25 L 1.851 1.25 C 0.829 1.25 0.0 1.811 0.0 2.503 L 0.0 10.0 L 16.0 10.0 L 16.0 2.503 C 16.0 1.811 15.171 1.25 14.152 1.25 z " fill-opacity="0.2"/>
            </g>
            <rect width="16" fill="none" height="20"/>
        </g>
    </g>
</svg>
