<?xml version="1.0" encoding="UTF-8"?>
<svg xmlns="http://www.w3.org/2000/svg" xmlns:xlink="http://www.w3.org/1999/xlink" contentScriptType="text/ecmascript" width="84" baseProfile="tiny" zoomAndPan="magnify" contentStyleType="text/css" viewBox="0 0 84 58" height="58" preserveAspectRatio="xMidYMid meet" version="1.1">
    <rect width="84" fill="none" height="58"/>
    <linearGradient x1="-661.8442" gradientTransform="matrix(1 0 0 -1 694.626 1053.9688)" y1="1034.7793" x2="-639.4343" gradientUnits="userSpaceOnUse" y2="989.9593" xlink:type="simple" xlink:actuate="onLoad" id="XMLID_1794_" xlink:show="other">
        <stop stop-color="#a2c2dd" offset="0"/>
        <stop stop-color="#a2c2dd" offset="0.1"/>
        <stop stop-color="#6c83bb" offset="0.71"/>
        <stop stop-color="#003d6d" offset="0.99"/>
        <stop stop-color="#003d6d" offset="1"/>
    </linearGradient>
    <path fill="url(#XMLID_1794_)" d="M 70.801 29.545 C 70.434006 26.642 68.842 24.757 68.524 24.407 L 68.512 24.394 L 68.512 24.394 L 68.469 24.348 L 68.467 24.345999 L 68.090004 24.141998 C 66.364006 23.298998 64.219 23.105999 64.123 23.097998 L 63.885002 23.134998 C 62.362003 23.777998 60.708 24.658998 59.008003 25.713999 C 59.028004 25.338 59.041004 24.960999 59.041004 24.581 C 59.041004 13.553999 50.102005 4.615999 39.076004 4.615999 C 28.048004 4.615999 19.111004 13.555999 19.111004 24.581999 C 19.111004 35.609 28.050003 44.547997 39.076004 44.547997 C 39.534004 44.547997 39.989002 44.525997 40.441006 44.496998 L 39.042007 48.385 C 38.835007 48.897 38.218006 50.208 38.167007 50.281 C 38.106007 50.372997 37.905006 50.502 37.538006 50.597 C 37.150005 50.697 34.556007 50.701 33.885006 50.66 C 33.266006 50.615 32.682007 50.578 32.159004 50.578 C 31.744003 50.579 31.305004 50.593998 30.859005 50.736 C 30.590006 50.829 30.292006 50.949 29.974005 51.08 C 29.653006 51.211002 29.321005 51.346 28.969006 51.473003 C 28.171005 51.758003 27.502007 51.903004 26.968006 51.903004 C 26.666006 51.901005 26.402006 51.856003 26.185005 51.766003 C 25.948006 51.662003 25.765005 51.522003 25.592005 51.305004 C 25.478004 51.161003 25.423004 50.938004 25.421005 50.622005 C 25.418005 50.021004 25.646006 49.184006 25.893005 48.357006 C 25.924006 48.249004 25.956005 48.138004 25.988005 48.031006 C 26.215004 47.265007 26.450005 46.468006 26.468004 45.699005 L 26.469004 45.646004 C 26.470003 44.810005 26.190004 43.999004 25.658003 43.300003 C 25.106003 42.573 24.330004 41.980003 23.286003 41.47 C 23.166002 41.409 23.046003 41.355 22.922003 41.304 C 22.920002 41.195 22.913002 41.084 22.904003 40.978 C 22.764004 39.398 22.540003 38.79 21.816004 37.742 L 21.239004 37.089 L 16.181004 35.854 L 14.138003 36.716 L 13.131003 37.139 L 12.852003 37.072998 L 12.709003 37.135998 L 10.882004 37.895996 L 10.999003 39.598995 L 12.658004 40.040997 L 10.890004 40.710995 L 10.948004 42.438995 L 13.823004 43.223995 L 13.855003 44.714996 L 19.150003 46.492996 L 21.784004 44.594997 C 21.784004 44.594997 22.280005 44.009 22.481005 43.588997 C 22.678005 43.690998 22.862005 43.795998 23.029005 43.908997 C 23.406006 44.163 23.708006 44.441998 23.903006 44.719997 C 24.119005 45.028996 24.215006 45.311996 24.217005 45.657997 L 24.216005 45.684998 C 24.216005 46.121998 23.937006 47.043 23.731005 47.724 L 23.727005 47.739998 C 23.468004 48.627 23.176004 49.630997 23.170006 50.627 C 23.169006 51.455997 23.390005 52.152 23.825006 52.708 C 24.224007 53.211 24.738007 53.604 25.309006 53.844 C 25.808006 54.053 26.366005 54.158 26.970005 54.158 L 26.971004 54.158 C 28.014004 54.156002 28.993004 53.855 29.729004 53.595 C 30.147003 53.449 30.531004 53.291 30.869003 53.154 C 31.156004 53.037 31.401003 52.937 31.581003 52.878 C 31.627003 52.864998 31.828003 52.836 32.124004 52.836 C 32.124004 52.836 35.155003 53.01 35.916004 53.01 C 36.810005 53.01 37.502003 52.94 38.100006 52.785 C 38.970005 52.56 39.595005 52.168 40.015007 51.576 C 40.25501 51.23 40.475006 50.773 40.731007 50.191 C 40.767006 50.111 40.808006 50.015003 40.847008 49.923 C 41.280006 50.384 43.95601 53.009 49.333008 53.916 L 49.69801 53.835 C 53.56801 51.246 56.09201 47.481 56.79501 45.082 L 56.96301 42.899002 C 56.96301 42.899002 56.83801 39.862003 56.652008 38.733 C 57.26301 38.155003 57.840008 37.61 58.38801 37.092003 C 59.49901 36.043003 60.480007 35.121002 61.355007 34.279003 C 62.476006 35.070004 64.67901 36.148003 66.101006 36.467003 L 66.258 36.503002 L 66.41 36.440002 C 67.936005 35.788002 70.336006 32.856003 70.59801 31.805002 C 70.827 30.895 70.801 29.545 70.801 29.545 z "/>
    <linearGradient x1="-674.2764" gradientTransform="matrix(1 0 0 -1 694.626 1053.9688)" y1="1012.2695" x2="-668.7464" gradientUnits="userSpaceOnUse" y2="1013.3195" xlink:type="simple" xlink:actuate="onLoad" id="XMLID_1795_" xlink:show="other">
        <stop stop-color="#ffffff" offset="0"/>
        <stop stop-color="#a2c2dd" offset="0.35"/>
        <stop stop-color="#6c83bb" offset="0.7"/>
        <stop stop-color="#003d6d" offset="1"/>
    </linearGradient>
    <path fill="url(#XMLID_1795_)" d="M 22.43 41.02 C 22.28 39.323 22.043001 38.848 21.088001 37.541 L 19.142002 38.522 L 19.069002 45.961998 L 21.506002 44.206997 C 21.881 43.789 22.587 42.779 22.43 41.02 z "/>
    <linearGradient x1="-683.2661" gradientTransform="matrix(1 0 0 -1 694.626 1053.9688)" y1="1014.7754" x2="-679.4045" gradientUnits="userSpaceOnUse" y2="1014.7354" xlink:type="simple" xlink:actuate="onLoad" id="XMLID_1796_" xlink:show="other">
        <stop stop-color="#ffffff" offset="0"/>
        <stop stop-color="#ffffff" offset="0.05"/>
        <stop stop-color="#a2c2dd" offset="1"/>
    </linearGradient>
    <polygon fill="url(#XMLID_1796_)" points="15.176,39.161 15.219,40.238 11.45,39.223 11.378,38.189 "/>
    <linearGradient x1="-683.7783" gradientTransform="matrix(1 0 0 -1 694.626 1053.9688)" y1="1018.7158" x2="-676.6987" gradientUnits="userSpaceOnUse" y2="1011.9362" xlink:type="simple" xlink:actuate="onLoad" id="XMLID_1797_" xlink:show="other">
        <stop stop-color="#ffffff" offset="0"/>
        <stop stop-color="#a2c2dd" offset="0.35"/>
        <stop stop-color="#6c83bb" offset="0.7"/>
        <stop stop-color="#003d6d" offset="1"/>
    </linearGradient>
    <polygon fill="url(#XMLID_1797_)" points="15.298,39.171 11.392,38.189 12.892,37.566 16.764,38.505 "/>
    <linearGradient x1="-683.2661" gradientTransform="matrix(1 0 0 -1 694.626 1053.9688)" y1="1011.9033" x2="-679.3961" gradientUnits="userSpaceOnUse" y2="1011.8733" xlink:type="simple" xlink:actuate="onLoad" id="XMLID_1798_" xlink:show="other">
        <stop stop-color="#ffffff" offset="0"/>
        <stop stop-color="#ffffff" offset="0.05"/>
        <stop stop-color="#a2c2dd" offset="1"/>
    </linearGradient>
    <polygon fill="url(#XMLID_1798_)" points="15.201,42.055 15.222,43.111 11.412,42.068 11.377,41.051 "/>
    <linearGradient x1="-685.23" gradientTransform="matrix(1 0 0 -1 694.626 1053.9688)" y1="1017.2021" x2="-678.1488" gradientUnits="userSpaceOnUse" y2="1010.421" xlink:type="simple" xlink:actuate="onLoad" id="XMLID_1799_" xlink:show="other">
        <stop stop-color="#ffffff" offset="0"/>
        <stop stop-color="#a2c2dd" offset="0.35"/>
        <stop stop-color="#6c83bb" offset="0.7"/>
        <stop stop-color="#003d6d" offset="1"/>
    </linearGradient>
    <polygon fill="url(#XMLID_1799_)" points="15.281,42.064 11.351,41.051 12.873,40.466 16.748,41.396 "/>
    <polygon fill="#cedff2" points="14.173,37.215 16.222,36.355 21.129,37.551 19.163,38.508 "/>
    <linearGradient x1="-680.1973" gradientTransform="matrix(1 0 0 -1 694.626 1053.9688)" y1="1020.791" x2="-675.557" gradientUnits="userSpaceOnUse" y2="1004.9702" xlink:type="simple" xlink:actuate="onLoad" id="XMLID_1800_" xlink:show="other">
        <stop stop-color="#ffffff" offset="0"/>
        <stop stop-color="#a2c2dd" offset="0.35"/>
        <stop stop-color="#6c83bb" offset="0.7"/>
        <stop stop-color="#003d6d" offset="1"/>
    </linearGradient>
    <path fill="url(#XMLID_1800_)" d="M 14.323 44.37 L 14.174 37.215 L 19.144 38.52 C 19.144 38.52 21.572998 42.287 19.071999 45.96 L 14.323 44.37 z "/>
    <linearGradient x1="-663.145" gradientTransform="matrix(1 0 0 -1 694.626 1053.9688)" y1="1014.3174" x2="-658.5851" gradientUnits="userSpaceOnUse" y2="999.1979" xlink:type="simple" xlink:actuate="onLoad" id="XMLID_1801_" xlink:show="other">
        <stop stop-color="#a2c2dd" offset="0"/>
        <stop stop-color="#a2c2dd" offset="0.1"/>
        <stop stop-color="#6c83bb" offset="0.71"/>
        <stop stop-color="#003d6d" offset="0.99"/>
        <stop stop-color="#003d6d" offset="1"/>
    </linearGradient>
    <path fill="url(#XMLID_1801_)" d="M 25.493 53.4 C 25.013 53.201 24.563 52.871002 24.197 52.406002 L 24.197 52.406002 C 23.778 51.877003 23.643 51.236004 23.645 50.622 L 23.645 50.622 C 23.648 49.687 23.928001 48.736 24.187 47.853 L 24.187 47.853 C 24.452 46.978 24.691 46.156002 24.691 45.681 L 24.691 45.681 C 24.691 45.662 24.691 45.654 24.691 45.642 L 24.691 45.642 C 24.689 45.181 24.543 44.8 24.293 44.445 L 24.293 44.445 C 24.042 44.089 23.682 43.771 23.293 43.513 L 23.293 43.513 C 22.515999 42.99 21.644999 42.707 21.476 42.659 L 21.476 42.659 C 21.453 42.649002 21.449 42.649002 21.449 42.649002 L 21.449 42.649002 C 21.449 42.649002 21.212 42.420002 21.317 41.961002 C 21.421 41.504 21.793 41.393 21.793 41.393 C 21.817999 41.401 22.375 41.553 23.081999 41.895 L 23.081999 41.895 C 23.787998 42.239002 24.652998 42.762 25.282 43.585 L 25.282 43.585 C 25.697 44.128998 25.997 44.830997 25.996 45.641 L 25.996 45.641 C 25.996 45.66 25.996 45.674 25.995 45.69 L 25.995 45.69 C 25.976002 46.496 25.692001 47.345997 25.438002 48.220997 L 25.438002 48.220997 C 25.178001 49.083996 24.945002 49.958996 24.947002 50.617996 L 24.947002 50.617996 C 24.949003 51.055996 25.039001 51.362995 25.218002 51.593998 L 25.218002 51.593998 C 25.456003 51.892998 25.711002 52.072998 25.998003 52.196 L 25.998003 52.196 C 26.284002 52.315 26.608004 52.372997 26.967003 52.375 L 26.967003 52.375 C 27.637003 52.376 28.411003 52.171 29.127003 51.914 L 29.127003 51.914 C 29.849003 51.655003 30.497004 51.358 31.010002 51.183002 L 31.010002 51.183002 C 31.367002 51.070004 31.736002 51.054 32.161003 51.050003 L 32.161003 51.050003 C 33.226 51.052002 34.643 51.224003 35.915005 51.224003 L 35.915005 51.224003 C 36.572006 51.224003 37.186005 51.173004 37.654003 51.054005 L 37.654003 51.054005 C 38.127003 50.933006 38.419003 50.748005 38.556004 50.546005 L 38.556004 50.546005 C 38.634003 50.442005 39.280003 49.062004 39.481003 48.558006 L 39.481003 48.558006 L 41.858 41.953007 L 43.532 42.127007 L 40.295002 49.995007 C 40.044003 50.566006 39.837 50.990005 39.623 51.299007 L 39.623 51.299007 C 39.223 51.863007 38.613003 52.154007 37.978 52.320007 L 37.978 52.320007 C 37.338 52.482006 36.633 52.527008 35.916 52.531006 L 35.916 52.531006 C 34.538002 52.527004 33.09 52.355007 32.161 52.355007 L 32.161 52.355007 C 31.8 52.35301 31.517 52.390007 31.421999 52.425007 L 31.421999 52.425007 C 31.028 52.556007 30.344 52.863007 29.565998 53.14401 L 29.565998 53.14401 C 28.780998 53.42101 27.886997 53.67701 26.967 53.681007 L 26.967 53.681007 C 26.476 53.68 25.973 53.604 25.493 53.4 L 25.493 53.4 z "/>
    <linearGradient x1="-657.4312" gradientTransform="matrix(1 0 0 -1 694.626 1053.9688)" y1="1047.3604" x2="-656.491" gradientUnits="userSpaceOnUse" y2="1045.5101" xlink:type="simple" xlink:actuate="onLoad" id="XMLID_1802_" xlink:show="other">
        <stop stop-color="#a2c2dd" offset="0"/>
        <stop stop-color="#a2c2dd" offset="0.1"/>
        <stop stop-color="#6c83bb" offset="0.71"/>
        <stop stop-color="#003d6d" offset="0.99"/>
        <stop stop-color="#003d6d" offset="1"/>
    </linearGradient>
    <path fill="url(#XMLID_1802_)" d="M 31.289 7.971 C 31.369999 8.134 31.633999 8.174 32.188 7.997 C 32.598 7.9610004 33.668 7.032 34.229 7.2200003 C 34.788002 7.405 35.248 7.03 35.769 6.695 C 36.851 6.7910004 38.007 5.839 38.227 5.839 C 38.451 5.839 39.293 5.993 39.478 5.697 C 39.478 5.697 41.512 6.176 43.369 5.776 C 41.982 5.46 40.542 5.291 39.062 5.291 C 37.154 5.291 35.312 5.571 33.574 6.086 C 33.089 6.555 32.567 7.19 31.289 7.971 z "/>
    <radialGradient gradientTransform="matrix(1 0 0 -1 694.626 1053.9688)" gradientUnits="userSpaceOnUse" xlink:type="simple" r="25.2" xlink:actuate="onLoad" cx="-654.2461" id="XMLID_1803_" cy="1037.1582" xlink:show="other">
        <stop stop-color="#a2c2dd" offset="0"/>
        <stop stop-color="#a2c2dd" offset="0.1"/>
        <stop stop-color="#6c83bb" offset="0.71"/>
        <stop stop-color="#003d6d" offset="0.99"/>
        <stop stop-color="#003d6d" offset="1"/>
    </radialGradient>
    <path fill="url(#XMLID_1803_)" d="M 26.602 10.565 C 26.602 10.217999 27.171 10.046 27.171 10.046 L 27.244999 10.318 L 27.763998 10.540999 C 27.763998 10.540999 28.382998 9.874 28.506998 9.698999 C 28.626999 9.528 28.851997 8.86 28.851997 8.86 L 29.931997 7.5859995 C 27.508997 8.891999 25.396997 10.702 23.737997 12.875 C 24.404 12.349 26.602 10.912 26.602 10.565 z "/>
    <radialGradient gradientTransform="matrix(1 0 0 -1 694.626 1053.9688)" gradientUnits="userSpaceOnUse" xlink:type="simple" r="4.3502" xlink:actuate="onLoad" cx="-657.4165" id="XMLID_1804_" cy="1044.8984" xlink:show="other">
        <stop stop-color="#a2c2dd" offset="0"/>
        <stop stop-color="#a2c2dd" offset="0.1"/>
        <stop stop-color="#6c83bb" offset="0.71"/>
        <stop stop-color="#003d6d" offset="0.99"/>
        <stop stop-color="#003d6d" offset="1"/>
    </radialGradient>
    <path fill="url(#XMLID_1804_)" d="M 36.801 7.516 C 37.046 7.468 37.6 7.208 37.6 7.208 C 37.6 7.208 37.322998 7.09 37.008 7.138 C 36.696 7.186 36.244 6.949 36.0 7.067 C 36.208 7.326 36.557 7.562 36.801 7.516 z "/>
    <radialGradient gradientTransform="matrix(1 0 0 -1 694.626 1053.9688)" gradientUnits="userSpaceOnUse" xlink:type="simple" r="35.66" xlink:actuate="onLoad" cx="-651.7559" id="XMLID_1805_" cy="1041.8174" xlink:show="other">
        <stop stop-color="#ffffff" offset="0"/>
        <stop stop-color="#a2c2dd" offset="0.53"/>
        <stop stop-color="#6c83bb" offset="0.87"/>
        <stop stop-color="#003d6d" offset="1"/>
    </radialGradient>
    <circle fill="url(#XMLID_1805_)" r="19.275" cx="39.062" cy="24.568"/>
    <path fill="url(#XMLID_1803_)" d="M 54.518 30.697 L 53.887 31.695 C 53.887 31.695 52.946 31.992 52.908 32.291 C 52.89 32.415 52.179 33.992 52.179 33.992 C 52.179 33.992 51.9 34.873 52.699 34.611 C 54.361 34.068 55.447 30.514 54.518 30.697 z "/>
    <path fill="url(#XMLID_1803_)" d="M 24.503 32.658 C 24.776001 32.658 25.477001 32.745003 25.562 32.488003 C 25.568 32.38 25.666 29.743004 25.666 29.743004 L 26.715 28.347004 L 26.715 27.235004 L 23.984001 25.466003 L 22.799002 24.183002 C 22.799002 24.187002 22.340002 22.796003 21.908 22.404003 C 21.548 22.076004 21.575 21.354004 21.19 20.821003 C 20.844 20.340002 20.564001 20.070004 20.342001 19.963003 C 18.581001 27.098003 21.312 33.161003 23.871 36.434006 C 24.237 35.910007 24.527 35.325005 24.751 34.809006 C 24.981 34.275 23.588 33.521 24.503 32.658 z "/>
    <radialGradient gradientTransform="matrix(1 0 0 -1 694.626 1053.9688)" gradientUnits="userSpaceOnUse" xlink:type="simple" r="23.35" xlink:actuate="onLoad" cx="-651.7466" id="XMLID_1808_" cy="1041.9482" xlink:show="other">
        <stop stop-color="#ffffff" offset="0"/>
        <stop stop-color="#a2c2dd" offset="0.35"/>
        <stop stop-color="#6c83bb" offset="0.7"/>
        <stop stop-color="#003d6d" offset="1"/>
    </radialGradient>
    <path fill="url(#XMLID_1808_)" d="M 47.939 7.456 C 47.347 7.6219997 46.858997 7.7479997 46.745 7.7479997 C 46.41 7.7479997 46.5 7.4649997 46.203 7.4269996 C 45.9 7.39 43.416 6.748 43.082 7.082 C 42.746002 7.417 41.434002 7.7599998 41.136 7.799 C 40.838 7.836 41.235 8.738999 42.028 9.307 C 41.918 9.418 40.145 10.397 40.145 9.725 C 40.145 9.055 39.804 8.564 39.259 8.365001 C 38.761997 8.489 38.196 9.009001 38.987 9.725 C 39.479 10.1710005 38.991 10.231 38.954998 10.360001 C 38.809998 10.900001 40.139 11.423 39.503998 11.819 C 38.907997 11.871 38.374996 11.762 38.275997 11.707 C 37.337997 11.182 37.125996 13.264999 37.125996 13.264999 L 38.150997 13.7699995 L 36.440998 15.434999 C 36.440998 15.434999 33.934 17.174 33.895996 17.397999 C 33.858997 17.622 32.782997 20.505999 33.154995 21.366 C 33.525993 22.223999 35.458996 24.532999 36.350994 24.605999 C 37.517994 24.699999 40.888992 24.026999 40.888992 24.026999 C 40.963993 24.214998 41.30899 24.96 42.962994 25.267998 C 43.023994 25.278997 42.248993 26.761997 42.702995 27.398998 C 43.860996 29.940998 42.940994 30.901999 42.983994 32.031 C 43.024994 33.143997 44.825993 37.927 46.370995 37.927 C 49.046993 37.927 51.597996 32.156 52.224995 31.446999 C 52.851994 30.735998 51.847996 27.769 52.935993 26.682 C 54.02399 25.595 56.156994 24.09 56.198994 21.664999 C 54.943993 22.417 53.521996 22.459 53.521996 22.459 L 51.913994 19.142 L 50.725994 17.338 L 50.872993 16.967 L 53.443993 20.463999 C 53.676994 21.143 53.586994 20.782999 53.77199 21.581 C 55.23699 21.226 56.756992 19.986 56.165993 18.428999 C 56.13999 18.401999 55.773994 18.474998 55.234993 18.438 C 54.402992 17.831 53.902992 16.549 53.902992 16.549 L 55.791992 18.138 L 56.71799 18.212 L 57.305992 19.374 C 57.46799 19.481 57.581993 19.553001 57.581993 19.553001 C 57.581993 19.553001 57.620995 19.559002 57.684994 19.561 C 56.27 14.297 52.682 9.919 47.939 7.456 z M 43.823 8.221 C 43.669003 7.825 44.282 7.6779995 44.282 7.6779995 C 44.282 7.6779995 44.890003 8.563 44.797 9.146999 C 44.7 9.726999 44.055 9.370999 43.859 9.197999 C 43.667 9.027 43.979 8.617 43.823 8.221 z M 49.373 15.645 C 48.739002 15.645 47.855 15.643001 47.316 15.271001 C 46.779003 14.900001 46.586002 15.430001 46.226 15.803 C 45.991 16.045 43.566 14.845 43.566 14.845 L 43.206 13.802 L 40.995003 13.652 L 39.582005 14.073 L 38.206005 13.856 L 39.731007 13.312 C 39.731007 13.312 40.829006 12.283 41.222008 11.9470005 C 41.555008 11.6640005 42.889008 11.836 42.889008 11.836 L 44.416008 13.059 C 44.416008 13.059 44.31101 13.617 44.174007 13.803 C 44.731007 13.764001 45.147007 13.05 45.147007 13.05 C 43.911007 11.962 43.918007 11.6970005 43.918007 11.6970005 L 45.507008 12.595 L 45.620007 13.057 C 45.620007 13.057 46.254005 14.149 46.865005 14.195 C 47.126007 14.215 46.911007 13.17 46.911007 13.17 L 47.239006 13.123 C 47.876007 14.603001 50.132008 14.456 50.544006 14.801001 C 50.564 16.338 49.637 15.72 49.373 15.645 z M 49.799 13.002 C 49.229 12.78 48.647 12.889999 48.647 12.889999 C 48.516 13.141 47.602 12.881999 47.787 12.327 C 47.970997 11.7699995 48.569 12.21 48.846 11.907 C 49.121002 11.603999 49.512 11.403 49.693 11.69 C 49.486 11.964 49.877 12.179 50.146 12.323999 C 50.902 12.735 51.402 13.327 49.799 13.002 z M 52.938 14.363 C 52.656 14.109 52.834 13.808 52.409 13.403 C 51.788002 12.823999 51.444 12.575 51.805 11.941999 C 52.41 11.653999 52.05 12.33 52.28 12.651999 C 52.403 12.823999 52.948997 13.3689995 53.468 14.068 C 53.896 14.648 53.225 14.619 52.938 14.363 z "/>
    <path fill="#ffffff" d="M 68.936 45.577 L 62.119995 38.76 L 59.761993 41.121 L 64.216995 45.577 C 62.836994 46.96 59.761993 50.033 59.761993 50.033 L 62.119995 52.4 L 68.936 45.577 z M 68.563 38.76 L 66.207 41.121 C 66.207 41.121 69.28 44.195 70.658005 45.577 C 69.28001 46.96 66.207 50.033 66.207 50.033 L 68.563 52.4 L 75.381004 45.577003 L 68.563 38.76 z "/>
    <path fill="#235487" d="M 68.563 39.406 L 66.846 41.121 C 66.846 41.121 70.094 44.368 71.303 45.577 C 70.094 46.788 66.846 50.033 66.846 50.033 L 68.563 51.754 L 74.737 45.577003 L 68.563 39.406 z M 62.117 39.406 L 60.402 41.121 C 60.402 41.121 63.646 44.368 64.857 45.577 C 63.646004 46.788 60.402 50.033 60.402 50.033 L 62.117 51.754 L 68.292 45.577003 L 62.117 39.406 z "/>
    <linearGradient x1="-618.4658" gradientTransform="matrix(1 0 0 -1 694.626 1053.9688)" y1="1028.5078" x2="-637.0658" gradientUnits="userSpaceOnUse" y2="1014.5278" xlink:type="simple" xlink:actuate="onLoad" id="XMLID_1809_" xlink:show="other">
        <stop stop-color="#e6eef4" offset="0"/>
        <stop stop-color="#4a9900" offset="0.44"/>
        <stop stop-color="#0e4e58" offset="0.94"/>
        <stop stop-color="#0e4e58" offset="1"/>
    </linearGradient>
    <path fill="url(#XMLID_1809_)" d="M 70.292 29.619 L 61.846 33.082 L 61.303 33.6 C 62.119003 34.305 64.621 35.615997 66.213 35.973 C 67.57 35.391 69.887 32.571 70.105995 31.682 C 70.357 30.688 70.371 30.121 70.292 29.619 z "/>
    <linearGradient x1="-623.5352" gradientTransform="matrix(1 0 0 -1 694.626 1053.9688)" y1="1021.4502" x2="-636.6065" gradientUnits="userSpaceOnUse" y2="1022.5203" xlink:type="simple" xlink:actuate="onLoad" id="XMLID_1810_" xlink:show="other">
        <stop stop-color="#e6eef4" offset="0"/>
        <stop stop-color="#4a9900" offset="0.44"/>
        <stop stop-color="#0e4e58" offset="0.94"/>
        <stop stop-color="#0e4e58" offset="1"/>
    </linearGradient>
    <path fill="url(#XMLID_1810_)" d="M 65.34 29.09 L 61.624996 32.921 C 63.106995 33.957 64.893 34.736 66.10899 35.068 L 65.34 29.09 z "/>
    <linearGradient x1="-622.4063" gradientTransform="matrix(1 0 0 -1 694.626 1053.9688)" y1="1011.1709" x2="-658.0262" gradientUnits="userSpaceOnUse" y2="1001.3009" xlink:type="simple" xlink:actuate="onLoad" id="XMLID_1811_" xlink:show="other">
        <stop stop-color="#e6eef4" offset="0"/>
        <stop stop-color="#4a9900" offset="0.44"/>
        <stop stop-color="#0e4e58" offset="0.94"/>
        <stop stop-color="#0e4e58" offset="1"/>
    </linearGradient>
    <path fill="url(#XMLID_1811_)" d="M 56.457 42.876 L 40.854 47.962997 L 41.164 49.516 C 41.164 49.516 43.75 52.455997 49.415 53.41 C 53.206 50.876 55.652 47.182 56.311 44.938 L 56.457 42.876 z "/>
    <linearGradient x1="-660.0166" gradientTransform="matrix(1 0 0 -1 694.626 1053.9688)" y1="1012.8984" x2="-635.7672" gradientUnits="userSpaceOnUse" y2="1001.5087" xlink:type="simple" xlink:actuate="onLoad" id="XMLID_1812_" xlink:show="other">
        <stop stop-color="#e6eef4" offset="0"/>
        <stop stop-color="#4a9900" offset="0.44"/>
        <stop stop-color="#0e4e58" offset="0.94"/>
        <stop stop-color="#0e4e58" offset="1"/>
    </linearGradient>
    <path fill="url(#XMLID_1812_)" d="M 40.837 47.963 C 41.229 44.297 43.13 40.958 43.13 40.958 L 48.884003 42.920002 L 49.048004 51.928 C 44.637 51.266 42.266 49.354 40.837 47.963 z "/>
    <linearGradient x1="-631.4585" gradientTransform="matrix(1 0 0 -1 694.626 1053.9688)" y1="1027.4102" x2="-657.8685" gradientUnits="userSpaceOnUse" y2="1005.2001" xlink:type="simple" xlink:actuate="onLoad" id="XMLID_1813_" xlink:show="other">
        <stop stop-color="#dce8e4" offset="0"/>
        <stop stop-color="#43910a" offset="1"/>
    </linearGradient>
    <path fill="url(#XMLID_1813_)" d="M 43.131 40.958 C 43.997 41.781002 46.348 43.279 48.793 43.062 L 68.147995 24.745 C 66.461 23.808 64.08199 23.603 64.08199 23.603 C 57.496 26.381 48.936 33.26 43.131 40.958 z "/>
    <linearGradient x1="-619.5347" gradientTransform="matrix(1 0 0 -1 694.626 1053.9688)" y1="1032.457" x2="-652.0447" gradientUnits="userSpaceOnUse" y2="1000.997" xlink:type="simple" xlink:actuate="onLoad" id="XMLID_1814_" xlink:show="other">
        <stop stop-color="#dce8e4" offset="0"/>
        <stop stop-color="#43910a" offset="1"/>
    </linearGradient>
    <path fill="url(#XMLID_1814_)" d="M 49.047 51.93 C 48.547 50.069 48.342 45.106 48.797 43.005 C 54.102 35.251 61.733 28.319 68.114 24.714 C 68.114 24.714 69.917 26.592001 70.295 29.608002 C 69.852 31.518002 67.641 33.932003 66.106995 35.063004 C 65.90199 34.602005 65.21099 29.418003 65.21099 29.418003 C 63.444992 31.725002 60.665993 34.231003 56.10699 38.548004 C 56.40899 40.151005 56.457993 42.861004 56.457993 42.861004 C 54.996 46.382 52.398 49.838 49.047 51.93 z "/>
</svg>
