<?xml version="1.0" encoding="UTF-8"?>
<svg xmlns="http://www.w3.org/2000/svg" xmlns:xlink="http://www.w3.org/1999/xlink" contentScriptType="text/ecmascript" width="66" baseProfile="tiny" zoomAndPan="magnify" contentStyleType="text/css" viewBox="0 0 66 20" height="20" preserveAspectRatio="xMidYMid meet" version="1.1">
    <g>
        <g>
            <path d="M 3.505 17.025 C 2.8720002 17.213 1.7250001 17.213999 1.7250001 17.812 C 1.7250001 18.449 2.6890001 18.263 3.617 18.263 L 63.138 18.263 C 64.068 18.263 64.513 17.95 64.702 16.097 C 64.698006 16.097 64.698006 4.116 64.698006 4.116 C 64.698006 2.9700003 63.903008 2.7790003 63.401005 2.7730002 C 63.215 2.802 3.505 17.025 3.505 17.025 z "/>
            <path fill="#003184" d="M 3.819 17.042 " fill-opacity="0.7"/>
            <path fill="#ffffff" d="M 62.925 1.189 L 3.485 15.374 L 3.485 15.389 C 1.851 15.7439995 0.032999992 15.991 0.032999992 17.883 C 0.032999992 20.095999 1.163 19.983 3.485 19.983 C 13.445 19.983 62.706 19.985 62.706 19.985 C 65.881004 19.985 65.962 17.462 65.977005 16.28 L 65.984 4.27 C 65.984 2.457 64.725 1.189 62.925 1.189 z M 64.238 16.1 C 64.054 17.918001 63.617 18.225 62.705997 18.225 L 62.705997 18.225 L 3.485 18.238 C 3.485 18.238 2.2979999 18.294 2.2979999 17.699001 C 2.2979999 17.183 3.485 17.058 3.485 17.058 L 3.485 17.062 C 3.485 17.062 62.695 2.9990005 62.986 2.955 L 62.986 2.954 C 63.48 2.967 64.238 3.164 64.238 4.269 L 64.238 16.1 z "/>
            <rect width="66" fill="none" height="20"/>
        </g>
    </g>
</svg>
