<?xml version="1.0" encoding="UTF-8"?>
<svg xmlns="http://www.w3.org/2000/svg" xmlns:xlink="http://www.w3.org/1999/xlink" contentScriptType="text/ecmascript" width="40" baseProfile="tiny" zoomAndPan="magnify" contentStyleType="text/css" viewBox="-0.5 0.146 40 50" height="50" preserveAspectRatio="xMidYMid meet" version="1.1">
    <g>
        <rect x="-0.5" width="40" fill="none" y="0.146" height="50"/>
        <g>
            <linearGradient x1="-3750.8975" gradientTransform="matrix(-1 0 0 -1 -3711.1221 253.6133)" y1="228.4678" x2="-3716.26" gradientUnits="userSpaceOnUse" y2="228.4678" xlink:type="simple" xlink:actuate="onLoad" id="XMLID_3_" xlink:show="other">
                <stop stop-color="#e1ebf4" offset="0"/>
                <stop stop-color="#f9fcff" offset="1"/>
            </linearGradient>
            <path fill="url(#XMLID_3_)" d="M 1.301 49.646 L 37.698997 49.646 C 38.418 49.646 38.999996 48.933 38.999996 48.054 L 38.958 2.234 C 38.958 1.356 38.377 0.64399993 37.658 0.64399993 L 7.799 0.64399993 C 7.0829997 0.64399993 6.4989996 1.356 6.4989996 2.234 L 0.0 48.055 C 0.0 48.934 0.584 49.646 1.301 49.646 L 1.301 49.646 z "/>
            <linearGradient x1="-7882.7026" gradientTransform="matrix(-0.3186 0 0 0.3186 -2473.73 -46.4304)" y1="224.6543" x2="-7768.4575" gradientUnits="userSpaceOnUse" y2="224.6543" xlink:type="simple" xlink:actuate="onLoad" id="XMLID_4_" xlink:show="other">
                <stop stop-color="#e1ebf4" offset="0"/>
                <stop stop-color="#f9fcff" offset="1"/>
            </linearGradient>
            <polygon fill="url(#XMLID_4_)" points="37.658,2.235 7.799,2.235 1.301,48.055 37.699,48.055   "/>
            <path fill="#0e807a" d="M 1.301 49.646 L 37.698997 49.646 C 38.418 49.646 38.999996 48.933 38.999996 48.054 L 38.958 2.234 C 38.958 1.356 38.377 0.64399993 37.658 0.64399993 L 7.799 0.64399993 C 7.0829997 0.64399993 6.4989996 1.356 6.4989996 2.234 L 0.0 48.055 C 0.0 48.934 0.584 49.646 1.301 49.646 L 1.301 49.646 z " fill-opacity="0.5"/>
        </g>
    </g>
</svg>
