<?xml version="1.0" encoding="UTF-8"?>
<svg xmlns="http://www.w3.org/2000/svg" xmlns:xlink="http://www.w3.org/1999/xlink" contentScriptType="text/ecmascript" width="20" baseProfile="tiny" zoomAndPan="magnify" contentStyleType="text/css" viewBox="0 0 20 20" height="20" preserveAspectRatio="xMidYMid meet" version="1.0">
    <path fill="#ffffff" d="M 11.633 9.777 C 12.205 9.956 12.635 10.257 12.9210005 10.684 C 13.208 11.11 13.351001 11.66 13.351001 12.333 C 13.351001 13.254 13.056001 13.968 12.464001 14.475 C 11.873001 14.981 11.0460005 15.235001 9.983001 15.235001 C 8.943001 15.235001 8.128 14.9800005 7.5360007 14.471001 C 6.9450006 13.962001 6.6490006 13.250001 6.6490006 12.333 C 6.6490006 11.696 6.7950006 11.151 7.0890007 10.6970005 C 7.382001 10.243 7.8080006 9.936001 8.367001 9.776001 C 7.8580008 9.584001 7.4780006 9.290001 7.2250004 8.896001 C 6.9730005 8.501 6.8470006 8.0060005 6.8470006 7.4110007 C 6.8470006 6.5770006 7.1300006 5.9280005 7.6970005 5.463001 C 8.262 4.9970007 9.034 4.765001 10.01 4.765001 C 10.982 4.765001 11.75 4.9970007 12.317 5.463001 C 12.882 5.928001 13.166 6.5770006 13.166 7.4110007 C 13.166 8.007001 13.038 8.502001 12.781 8.896001 C 12.523 9.291 12.142 9.585 11.633 9.777 z M 9.982 14.094 C 10.472 14.094 10.841001 13.934999 11.088 13.616 C 11.336 13.298 11.46 12.82 11.46 12.182 C 11.46 11.646 11.334 11.212 11.082 10.879 C 10.8289995 10.547 10.462999 10.381 9.981 10.381 C 9.496 10.381 9.132 10.530999 8.892 10.830999 C 8.651 11.131999 8.531 11.580999 8.531 12.181999 C 8.531 12.796 8.655 13.268999 8.902 13.598 C 9.151 13.929 9.511 14.094 9.982 14.094 z M 9.982 9.255 C 10.418 9.255 10.753 9.107 10.986 8.812 C 11.219 8.516001 11.337 8.1050005 11.337 7.578 C 11.337 7.0230002 11.224 6.606 10.996 6.327 C 10.769 6.0480003 10.432 5.908 9.982 5.908 C 9.552 5.907 9.224 6.051 9.0 6.34 C 8.775 6.629 8.663 7.041 8.663 7.577 C 8.663 8.099 8.777 8.51 9.007 8.807 C 9.235 9.105 9.562 9.255 9.982 9.255 z "/>
</svg>
