<?xml version="1.0" encoding="UTF-8"?>
<svg xmlns="http://www.w3.org/2000/svg" xmlns:xlink="http://www.w3.org/1999/xlink" contentScriptType="text/ecmascript" width="44" baseProfile="tiny" zoomAndPan="magnify" contentStyleType="text/css" viewBox="0 0 44 43.945" height="43.945" preserveAspectRatio="xMidYMid meet" version="1.1">
    <rect x="18.201" width="0.02" y="19.688" height="1.564"/>
    <path fill="#ffffff" d="M 31.0 19.645 L 31.0 10.1710005 L 7.178 10.1710005 L 7.178 29.193 L 18.201 29.193 L 18.201 34.797 L 36.573997 34.797 L 36.573997 19.645 L 31.0 19.645 z M 18.201 27.036 L 9.209 27.036 L 9.209 12.328 L 28.914 12.328 L 28.914 19.645 L 24.217 19.645 L 20.120998 15.551001 L 20.120998 13.645 L 18.220999 13.645 L 18.220999 15.551001 L 12.5269985 21.253 L 10.448998 21.253 L 14.308998 25.074001 L 14.308998 25.06 L 18.200998 25.06 L 18.200998 27.036 z M 20.121 19.645 L 20.121 17.451 L 22.314001 19.645 L 20.121 19.645 z M 21.531 21.85 L 23.394001 21.85 L 26.828001 25.286001 L 21.531002 25.286001 L 21.531002 21.85 z M 18.201 21.254 L 14.416 21.254 L 18.221 17.451 L 18.221 19.645 L 18.201 19.645 L 18.201 21.254 z M 34.494 32.63 L 20.414 32.63 L 20.414 30.581001 L 26.6 30.581001 L 32.125 25.286001 L 29.473 25.286001 L 26.042 21.85 L 34.494 21.85 L 34.494 32.63 z "/>
</svg>
