<?xml version="1.0" encoding="UTF-8"?>
<svg xmlns="http://www.w3.org/2000/svg" xmlns:xlink="http://www.w3.org/1999/xlink" contentScriptType="text/ecmascript" width="38" baseProfile="tiny" zoomAndPan="magnify" contentStyleType="text/css" viewBox="-1 -1 38 32" height="32" preserveAspectRatio="xMidYMid meet" version="1.1">
    <g>
        <rect x="-1" width="38" fill="none" y="-1" height="32"/>
        <g>
            <path fill="#ffffff" d="M 23.35 24.094 L 12.664 24.094 L 12.664 21.615 L 16.390999 21.615 L 16.390999 9.924 C 15.149999 10.813 13.903999 11.256 12.653999 11.256 L 12.653999 8.92 C 14.096 8.647 15.445 7.642 16.694 5.906 L 19.852001 5.906 L 19.852001 21.614 L 23.35 21.614 L 23.35 24.094 z "/>
            <path fill="#ffffff" d="M 33.438 2.796 C 31.85 2.796 30.555 4.087 30.555 5.675 C 30.555 6.321 30.776001 6.906 31.132 7.3880005 L 28.014 7.3880005 C 28.37 6.9090004 28.59 6.3210006 28.59 5.675 C 28.59 4.085 27.294 2.7960002 25.709 2.7960002 C 24.119 2.7960002 22.828999 4.0870004 22.828999 5.675 C 22.828999 7.2650003 24.119 8.558001 25.709 8.558001 C 25.77 8.558001 33.357 8.558001 33.438 8.558001 C 35.028 8.558001 36.319 7.2650003 36.319 5.6750007 C 36.318 4.087 35.027 2.796 33.438 2.796 z M 25.707 7.386 C 24.764 7.386 23.995 6.6200004 23.995 5.675 C 23.995 4.7320004 24.764 3.9640002 25.707 3.9640002 C 26.648 3.9640002 27.42 4.7320004 27.42 5.675 C 27.42 6.62 26.65 7.386 25.707 7.386 z M 33.438 7.386 C 32.495 7.386 31.725 6.6200004 31.725 5.675 C 31.725 4.7320004 32.495 3.9640002 33.438 3.9640002 C 34.381 3.9640002 35.151 4.7320004 35.151 5.675 C 35.148 6.62 34.382 7.386 33.438 7.386 z "/>
        </g>
    </g>
</svg>
