<?xml version="1.0" encoding="UTF-8"?>
<svg xmlns="http://www.w3.org/2000/svg" xmlns:xlink="http://www.w3.org/1999/xlink" contentScriptType="text/ecmascript" width="44" baseProfile="tiny" zoomAndPan="magnify" contentStyleType="text/css" viewBox="0 0 44 32" height="32" preserveAspectRatio="xMidYMid meet" version="1.1">
    <g>
        <g>
            <path fill="#ffffff" d="M 17.243 22.326 L 10.2560005 22.326 L 14.479 17.868 C 16.193 16.048 17.052 14.154 17.052 12.184999 C 17.052 10.799 16.577 9.705 15.63 8.905 C 14.682 8.104 13.374001 7.7029996 11.706 7.7029996 C 10.866 7.7029996 10.096001 7.7909994 9.396 7.9669995 C 8.696 8.143 8.122 8.351999 7.673 8.591 L 7.673 11.028999 C 8.181 10.735999 8.782 10.480999 9.475 10.264999 C 10.167001 10.047999 10.874001 9.938999 11.593 9.938999 C 12.2890005 9.938999 12.85 10.161999 13.277 10.601999 C 13.705001 11.042999 13.917001 11.5859995 13.917001 12.23 C 13.917001 13.45 13.494 14.553999 12.648001 15.542999 L 7.2230005 21.911 L 7.2230005 24.629 L 17.243 24.629 L 17.243 22.326 z "/>
            <g>
                <path fill="#ffffff" d="M 24.393 25.359 C 24.372 25.236 24.354 25.123 24.342 25.019 C 24.329998 24.914999 24.321 24.811998 24.310999 24.706 C 24.151 24.953 23.961998 25.137 23.747 25.257 C 23.526 25.378 23.253 25.44 22.921 25.44 C 22.380999 25.44 21.97 25.285 21.689 24.971 C 21.407999 24.657001 21.266998 24.219 21.266998 23.653 C 21.266998 22.979 21.469997 22.491 21.878998 22.19 C 22.286999 21.889 22.927998 21.739 23.799997 21.739 L 24.258997 21.739 L 24.258997 21.573 C 24.258997 21.16 24.173998 20.875 24.002996 20.717 C 23.831997 20.56 23.564997 20.481998 23.198996 20.481998 C 22.898996 20.481998 22.636995 20.508999 22.415997 20.567999 C 22.191996 20.626 21.979996 20.696999 21.777996 20.784998 L 21.777996 19.846998 C 22.048996 19.741999 22.304996 19.669998 22.548996 19.632998 C 22.792995 19.596998 23.057997 19.574997 23.335997 19.574997 C 24.122997 19.574997 24.691998 19.728996 25.048996 20.037996 C 25.405994 20.346996 25.581997 20.855997 25.581997 21.572996 L 25.581997 24.476995 C 25.581997 24.625996 25.587997 24.775995 25.602997 24.920996 C 25.616997 25.066996 25.633997 25.213995 25.662996 25.358995 L 24.393 25.358995 z M 24.256 22.581 L 23.797 22.581 C 23.395 22.581 23.094002 22.654 22.899 22.799 C 22.706 22.945 22.606 23.208 22.606 23.594 C 22.606 23.918 22.668001 24.157999 22.787 24.313 C 22.903 24.469 23.096 24.544 23.354 24.544 C 23.633 24.544 23.854 24.44 24.016 24.225 C 24.176 24.012001 24.256 23.713001 24.256 23.329 L 24.256 22.581 z "/>
                <path fill="#ffffff" d="M 28.285 20.395 C 28.387 20.166 28.566 19.969 28.829 19.809 C 29.091 19.649 29.412 19.571 29.793001 19.571 C 30.387001 19.571 30.841002 19.807 31.158 20.279999 C 31.474 20.755999 31.635 21.494 31.635 22.495998 C 31.635 23.447998 31.475 24.180998 31.156 24.683998 C 30.835001 25.189999 30.354 25.441998 29.718 25.441998 C 29.054 25.441998 28.568 25.191998 28.253 24.693998 L 28.187 25.363998 L 26.964 25.363998 L 26.964 17.634998 L 28.288 17.634998 L 28.285 20.395 L 28.285 20.395 z M 29.363 24.551 C 29.702002 24.546001 29.941 24.374 30.082 24.031 C 30.223001 23.689 30.291 23.174 30.291 22.482 C 30.291 21.879 30.223 21.392 30.082 21.015 C 29.941 20.64 29.702002 20.452 29.363 20.452 C 28.957 20.452 28.668001 20.64 28.497002 21.015 C 28.326002 21.392 28.240002 21.9 28.240002 22.539 C 28.240002 23.188 28.326002 23.685999 28.497002 24.029999 C 28.668 24.376 28.957 24.551 29.363 24.551 z "/>
                <path fill="#ffffff" d="M 34.721 25.438 C 34.061 25.438 33.524002 25.171 33.112 24.639 C 32.702 24.108 32.496998 23.401 32.496998 22.522 C 32.496998 21.623 32.698997 20.903 33.101997 20.372 C 33.506996 19.838 34.054996 19.569 34.746998 19.569 C 34.989998 19.569 35.224 19.591 35.437996 19.637001 C 35.658997 19.682001 35.882996 19.750002 36.119995 19.842001 L 36.119995 20.78 C 35.914993 20.698 35.714996 20.629002 35.519997 20.565 C 35.326996 20.502 35.131996 20.471 34.939995 20.471 C 34.591995 20.471 34.324993 20.653 34.131996 21.014 C 33.941998 21.375 33.845997 21.903 33.845997 22.596 C 33.845997 23.231 33.941998 23.712 34.131996 24.041 C 34.321995 24.369 34.607998 24.533 34.987995 24.533 C 35.178997 24.533 35.372993 24.503 35.565994 24.441002 C 35.757996 24.378002 35.960995 24.306002 36.165993 24.226002 L 36.165993 25.164001 C 35.93199 25.255001 35.700993 25.322002 35.47499 25.369001 C 35.248 25.415 34.997 25.438 34.721 25.438 z "/>
            </g>
        </g>
        <g>
            <rect width="44" fill="none" height="32"/>
        </g>
    </g>
</svg>
