<?xml version="1.0" encoding="UTF-8"?>
<svg xmlns="http://www.w3.org/2000/svg" xmlns:xlink="http://www.w3.org/1999/xlink" contentScriptType="text/ecmascript" width="100" baseProfile="tiny" zoomAndPan="magnify" contentStyleType="text/css" viewBox="-3 -2.999 100 100" height="100" preserveAspectRatio="xMidYMid meet" version="1.1">
    <rect x="-3" width="100" fill="none" y="-2.999" height="100"/>
    <g>
        <path d="M 64.395 35.029 L 61.642998 31.521 L 58.739 29.299 L 46.947 20.276001 L 35.440998 29.446001 L 32.156998 32.063 L 29.714998 35.158 L 20.211998 47.203003 L 29.366997 58.72 L 31.944996 61.961002 L 34.996994 64.374 L 46.855995 73.755 L 58.902996 64.287994 L 61.904995 61.926994 L 64.559 58.620995 L 73.840996 47.065994 L 64.395 35.029 z M 63.954 57.914 C 62.142 59.947002 60.223 61.872 58.186996 63.68 C 54.762997 66.725 51.033997 69.454 46.998997 71.831 C 42.966995 69.454 39.236996 66.725 35.811996 63.68 C 33.777996 61.871002 31.854996 59.949 30.045998 57.914 C 27.000998 54.49 24.271997 50.760002 21.894997 46.728 C 24.272997 42.695 26.999996 38.964 30.045998 35.54 C 31.854998 33.506 33.777996 31.583 35.811996 29.775002 C 39.235996 26.730001 42.965996 24.001001 46.998997 21.624 C 51.03 24.0 54.762997 26.729 58.186996 29.775002 C 60.219997 31.584002 62.143997 33.505 63.953995 35.54 C 66.99899 38.965 69.728 42.694 72.104996 46.728 C 69.729 50.76 67.0 54.49 63.954 57.914 z "/>
        <path fill="#404040" d="M 63.954 35.54 C 62.142 33.506 60.223 31.583 58.186996 29.775002 C 54.764 26.73 51.034 24.001 47.0 21.624 C 42.968 24.001001 39.238 26.73 35.813 29.775002 C 33.779 31.584002 31.855 33.505 30.047 35.54 C 27.001001 38.965 24.273 42.694 21.895 46.728 C 24.272001 50.758 27.0 54.49 30.046001 57.914 C 31.855001 59.947002 33.777 61.872 35.812 63.68 C 39.236 66.725 42.966 69.454 46.999 71.831 C 51.031002 69.454 54.762 66.725 58.187 63.68 C 60.22 61.871002 62.142 59.949 63.953 57.914 C 66.997 54.49 69.726 50.760002 72.103 46.728 C 69.729 42.694 67.0 38.965 63.954 35.54 z M 63.525 57.457 C 61.711002 59.506 59.779003 61.437 57.730003 63.251 C 54.443005 66.161 50.863003 68.77 47.001003 71.047 C 43.138004 68.77 39.559002 66.161995 36.272003 63.250996 C 34.224003 61.437996 32.291004 59.505997 30.479004 57.456997 C 27.568005 54.17 24.961004 50.589996 22.684004 46.727997 C 24.962004 42.864998 27.568005 39.284996 30.479004 35.997997 C 32.292004 33.949997 34.226006 32.017 36.273003 30.204998 C 39.56 27.293999 43.139004 24.685997 47.002003 22.409998 C 50.865 24.686998 54.443 27.294998 57.731003 30.204998 C 59.780003 32.017998 61.711002 33.952 63.526 35.998997 C 66.436005 39.285995 69.047 42.864998 71.321 46.727997 C 69.042 50.59 66.436 54.17 63.525 57.457 z "/>
        <path d="M 63.525 35.998 C 61.711002 33.95 59.779003 32.017002 57.730003 30.204 C 54.443005 27.293001 50.863003 24.686 47.001003 22.409 C 43.138004 24.685001 39.559002 27.293 36.272003 30.204 C 34.224003 32.017002 32.291004 33.95 30.478003 35.997 C 27.568003 39.284 24.960003 42.863003 22.683002 46.726 C 24.960003 50.588 27.567001 54.168003 30.478003 57.455 C 32.291004 59.504 34.224003 61.435 36.271004 63.25 C 39.558002 66.16 43.138004 68.77 47.000004 71.045 C 50.863003 68.77 54.441 66.160995 57.729004 63.25 C 59.778004 61.437 61.709003 59.504 63.524002 57.455 C 66.434006 54.169003 69.044 50.589 71.319 46.726 C 69.042 42.865 66.436 39.286 63.525 35.998 z "/>
    </g>
    <linearGradient x1="-1414.8003" gradientTransform="matrix(1.1111 0 0 1.1111 1598.8831 -747.1384)" y1="705.7168" x2="-1400.2996" gradientUnits="userSpaceOnUse" y2="712.7172" xlink:type="simple" xlink:actuate="onLoad" id="XMLID_2_" xlink:show="other">
        <stop stop-color="#ffffff" offset="0"/>
        <stop stop-color="#d9d9d9" offset="0.0644"/>
        <stop stop-color="#a7a7a7" offset="0.1609"/>
        <stop stop-color="#7a7a7a" offset="0.2621"/>
        <stop stop-color="#545454" offset="0.3662"/>
        <stop stop-color="#363636" offset="0.474"/>
        <stop stop-color="#1e1e1e" offset="0.5864"/>
        <stop stop-color="#0d0d0d" offset="0.7055"/>
        <stop stop-color="#030303" offset="0.8362"/>
        <stop stop-color="#000000" offset="1"/>
    </linearGradient>
    <path fill="url(#XMLID_2_)" d="M 46.795 70.209 C 37.792 65.518 29.923998 56.591 23.493998 46.757 C 29.627998 36.352 36.616997 29.212 47.021996 23.078 C 21.473 53.754 43.866 67.582 46.795 70.209 z " fill-opacity="0.5"/>
    <path fill="#00acee" d="M 45.466 51.073 C 45.466 52.913002 43.974 54.406002 42.133 54.406002 L 40.614998 54.406002 C 38.774 54.406002 37.281998 52.913002 37.281998 51.073 L 37.281998 40.678 C 37.281998 38.837 38.774 37.345 40.614998 37.345 L 42.133 37.345 C 43.974 37.345 45.466 38.837 45.466 40.678 L 45.466 51.073 z "/>
    <path fill="#00acee" d="M 57.428 51.073 C 57.428 52.913002 55.936 54.406002 54.096 54.406002 L 52.577 54.406002 C 50.736 54.406002 49.243 52.913002 49.243 51.073 L 49.243 40.678 C 49.243 38.837 50.736 37.345 52.577 37.345 L 54.096 37.345 C 55.936 37.345 57.43 38.837 57.43 40.678 L 57.43 51.073 L 57.428 51.073 z "/>
</svg>
