<?xml version="1.0" encoding="UTF-8"?>
<svg xmlns="http://www.w3.org/2000/svg" xmlns:xlink="http://www.w3.org/1999/xlink" contentScriptType="text/ecmascript" width="240.022" baseProfile="tiny" zoomAndPan="magnify" contentStyleType="text/css" viewBox="55.149 47.902 240.022 320.073" height="320.073" preserveAspectRatio="xMidYMid meet" version="1.1">
    <linearGradient x1="274.4537" y1="379.8629" x2="75.8902" gradientUnits="userSpaceOnUse" y2="35.9409" xlink:type="simple" xlink:actuate="onLoad" id="teema_x5F_tausta_1_" xlink:show="other">
        <stop stop-color="#000000" offset="0"/>
        <stop stop-color="#000000" offset="0.75"/>
        <stop stop-color="#52a2a5" offset="0.9944"/>
        <stop stop-color="#52a2a5" offset="1"/>
    </linearGradient>
    <rect x="55.171" width="240" fill="url(#teema_x5F_tausta_1_)" y="47.902" height="319.999"/>
    <g>
        <path d="M 248.745 198.152 C 264.068 204.45699 281.599 197.146 287.90298 181.823 C 294.20697 166.5 286.89697 148.969 271.57397 142.665 C 256.25098 136.36 238.71997 143.67099 232.41597 158.99399 C 226.11197 174.31699 233.421 191.847 248.745 198.152 z M 267.008 153.762 C 276.201 157.54399 280.58798 168.06299 276.805 177.256 C 273.02298 186.45 262.504 190.836 253.31099 187.054 C 244.11699 183.272 239.73099 172.753 243.51299 163.559 C 247.295 154.366 257.814 149.979 267.008 153.762 z "/>
        <circle r="9" cx="260.159" cy="170.408"/>
    </g>
    <g>
        <line y2="47.975" x1="204.933" x2="241.019" y1="47.975"/>
        <path d="M 243.153 48.791 C 242.445 48.5 241.732 48.234 241.019 47.976 L 204.933 47.976 C 191.39 52.887 179.886 63.269 173.974 77.64 C 162.837 104.708 175.752 135.682 202.82199 146.82 C 208.35799 149.09601 214.055 150.352 219.713 150.703 C 228.56999 132.48401 248.388 122.696 267.816 126.068 C 269.411 123.532 270.824 120.836 272.00302 117.971 C 283.138 90.902 270.223 59.928 243.153 48.791 z M 243.994 106.447 C 239.22101 118.048996 225.947 123.584 214.34601 118.81 C 202.74501 114.035995 197.20901 100.763 201.98201 89.161995 C 206.755 77.561 220.03001 72.02599 231.63 76.799995 C 243.231 81.572 248.766 94.845 243.994 106.447 z "/>
        <circle r="7.571" cx="222.988" cy="97.805"/>
    </g>
    <g>
        <path d="M 144.331 174.658 C 164.76099 183.063 188.137 173.31401 196.54199 152.886 C 204.94699 132.456 195.19899 109.08 174.76999 100.675 C 154.34099 92.270004 130.96399 102.018005 122.55899 122.44701 C 114.154 142.877 123.902 166.253 144.331 174.658 z M 170.964 109.922 C 186.28601 116.226 193.598 133.758 187.293 149.08 C 180.989 164.40201 163.457 171.713 148.135 165.409 C 132.81299 159.105 125.502 141.573 131.806 126.25099 C 138.11 110.928986 155.642 103.619 170.964 109.922 z "/>
        <circle r="15" cx="159.55" cy="137.666"/>
    </g>
    <g>
        <path d="M 125.209 231.848 C 128.455 233.184 131.794 233.93701 135.112 234.17401 C 141.374 222.44801 153.619 215.54301 166.416 215.703 C 166.609 215.284 166.801 214.86101 166.978 214.43001 C 173.703 198.087 165.90399 179.38602 149.561 172.66101 C 133.21701 165.93701 114.51601 173.73601 107.791 190.07901 C 101.067 206.422 108.866 225.125 125.209 231.848 z M 142.602 189.573 C 149.60701 192.455 152.95001 200.469 150.06801 207.47299 C 147.186 214.47699 139.17201 217.81898 132.167 214.937 C 125.162 212.05501 121.82001 204.041 124.70201 197.038 C 127.584 190.033 135.597 186.691 142.602 189.573 z "/>
        <circle r="4.571" cx="137.384" cy="202.255"/>
    </g>
    <g>
        <path d="M 156.456 273.819 C 169.226 279.073 183.833 272.982 189.08699 260.212 C 194.34099 247.442 188.24998 232.834 175.48 227.58 C 162.70999 222.326 148.10199 228.418 142.84799 241.188 C 137.593 253.958 143.685 268.565 156.456 273.819 z M 171.674 236.828 C 179.33499 239.98 182.98999 248.746 179.83899 256.407 C 176.687 264.06802 167.92099 267.72302 160.26 264.57202 C 152.599 261.42 148.943 252.65402 152.095 244.99303 C 155.24701 237.33203 164.013 233.675 171.674 236.828 z "/>
        <circle r="5" cx="165.967" cy="250.7"/>
    </g>
    <g>
        <path d="M 104.045 201.797 C 85.868996 194.319 65.371 201.218 55.149 217.216 L 55.149 260.359 C 59.421997 267.045 65.712 272.53302 73.606995 275.781 C 74.368996 276.094 75.134995 276.374 75.90399 276.637 C 82.82799 270.373 92.994995 268.258 102.203995 272.047 C 103.84699 272.723 105.37599 273.556 106.787994 274.517 C 115.09799 270.344 122.00299 263.283 125.81799 254.008 C 134.223 233.578 124.475 210.202 104.045 201.797 z M 116.57 250.203 C 110.266 265.525 92.734 272.836 77.412 266.532 C 62.090004 260.22803 54.779003 242.69601 61.083 227.37401 C 67.38699 212.052 84.919 204.74101 100.241 211.04501 C 115.562996 217.34901 122.874 234.88 116.57 250.203 z "/>
        <circle r="15" cx="88.826" cy="238.788"/>
    </g>
    <path d="M 85.897 311.68 C 95.018005 315.43298 105.454 311.08 109.206 301.96 C 112.959 292.84 108.607 282.40298 99.486 278.651 C 90.367 274.899 79.93 279.251 76.177 288.371 C 72.425 297.493 76.778 307.928 85.897 311.68 z M 95.545 288.23 C 99.376 289.806 101.201996 294.19 99.627 298.02002 C 98.052 301.84903 93.669 303.678 89.838 302.10202 C 86.006996 300.52603 84.18 296.14203 85.755 292.312 C 87.332 288.483 91.714 286.654 95.545 288.23 z "/>
    <g>
        <linearGradient x1="-79.2128" y1="142.4723" x2="298.6053" gradientUnits="userSpaceOnUse" y2="520.2905" xlink:type="simple" xlink:actuate="onLoad" id="XMLID_1_" xlink:show="other">
            <stop stop-color="#000000" offset="0"/>
            <stop stop-color="#000000" offset="0.3933"/>
            <stop stop-color="#52a2a5" offset="0.9944"/>
            <stop stop-color="#52a2a5" offset="1"/>
        </linearGradient>
        <path fill="url(#XMLID_1_)" d="M 84.616 292.236 C 73.604 292.236 63.431 295.807 55.171997 301.841 L 55.171997 311.61902 C 62.809998 304.26602 73.17999 299.73502 84.616 299.73502 C 108.08 299.73502 127.101 318.763 127.101 342.23502 C 127.101 351.91302 123.861 360.83002 118.416 367.97403 L 127.47 367.97403 C 131.992 360.45404 134.598 351.65002 134.598 342.23502 C 134.598 314.622 112.22 292.236 84.616 292.236 z "/>
        <linearGradient x1="-100.6664" y1="156.9449" x2="285.0759" gradientUnits="userSpaceOnUse" y2="542.6873" xlink:type="simple" xlink:actuate="onLoad" id="XMLID_2_" xlink:show="other">
            <stop stop-color="#000000" offset="0"/>
            <stop stop-color="#000000" offset="0.3933"/>
            <stop stop-color="#52a2a5" offset="0.9944"/>
            <stop stop-color="#52a2a5" offset="1"/>
        </linearGradient>
        <path fill="url(#XMLID_2_)" d="M 84.616 309.736 C 71.569 309.736 60.340996 317.444 55.171997 328.544 L 55.171997 355.931 C 57.385 360.677 60.690998 364.809 64.791 367.976 L 104.441 367.976 C 112.14 362.03302 117.105 352.717 117.105 342.237 C 117.105 324.287 102.559 309.736 84.616 309.736 z M 84.616 359.736 C 74.953995 359.736 67.121994 351.901 67.121994 342.236 C 67.121994 332.57098 74.953995 324.736 84.616 324.736 C 94.276 324.736 102.11 332.57098 102.11 342.236 C 102.11 351.901 94.276 359.736 84.616 359.736 z "/>
    </g>
    <g>
        <linearGradient x1="-43.2739" y1="76.8136" x2="342.6472" gradientUnits="userSpaceOnUse" y2="462.7347" xlink:type="simple" xlink:actuate="onLoad" id="XMLID_3_" xlink:show="other">
            <stop stop-color="#000000" offset="0"/>
            <stop stop-color="#000000" offset="0.3933"/>
            <stop stop-color="#52a2a5" offset="0.9944"/>
            <stop stop-color="#52a2a5" offset="1"/>
        </linearGradient>
        <path fill="url(#XMLID_3_)" d="M 162.98 253.068 C 146.41699 253.068 132.991 266.499 132.991 283.068 C 132.991 299.637 146.41699 313.068 162.98 313.068 C 179.54399 313.068 192.97 299.637 192.97 283.068 C 192.97 266.499 179.544 253.068 162.98 253.068 z M 162.98 301.068 C 153.04199 301.068 144.986 293.009 144.986 283.068 C 144.986 273.12698 153.043 265.068 162.98 265.068 C 172.918 265.068 180.974 273.12698 180.974 283.068 C 180.974 293.009 172.919 301.068 162.98 301.068 z "/>
        <linearGradient x1="-43.2529" y1="76.8346" x2="342.6312" gradientUnits="userSpaceOnUse" y2="462.7187" xlink:type="simple" xlink:actuate="onLoad" id="XMLID_4_" xlink:show="other">
            <stop stop-color="#000000" offset="0"/>
            <stop stop-color="#000000" offset="0.3933"/>
            <stop stop-color="#52a2a5" offset="0.9944"/>
            <stop stop-color="#52a2a5" offset="1"/>
        </linearGradient>
        <circle fill="url(#XMLID_4_)" r="8.997" cx="162.981" cy="283.068"/>
    </g>
    <g>
        <linearGradient x1="-36.6889" y1="74.0548" x2="346.377" gradientUnits="userSpaceOnUse" y2="457.1207" xlink:type="simple" xlink:actuate="onLoad" id="XMLID_5_" xlink:show="other">
            <stop stop-color="#000000" offset="0"/>
            <stop stop-color="#000000" offset="0.3933"/>
            <stop stop-color="#52a2a5" offset="0.9944"/>
            <stop stop-color="#52a2a5" offset="1"/>
        </linearGradient>
        <path fill="url(#XMLID_5_)" d="M 277.941 336.068 C 277.941 306.798 254.22 283.068 224.95901 283.068 C 218.97601 283.068 213.23001 284.07498 207.86801 285.90298 C 206.60901 306.12198 192.01102 322.714 172.76701 326.987 C 172.25801 329.939 171.97702 332.97 171.97702 336.068 C 171.97702 348.048 175.95602 359.098 182.65701 367.975 L 267.26102 367.975 C 273.962 359.098 277.941 348.048 277.941 336.068 z M 224.959 358.782 C 212.419 358.782 202.253 348.613 202.253 336.06802 C 202.253 323.52304 212.419 313.35403 224.959 313.35403 C 237.5 313.35403 247.666 323.52304 247.666 336.06802 C 247.666 348.613 237.5 358.782 224.959 358.782 z "/>
        <linearGradient x1="-38.7592" y1="72.3502" x2="347.1999" gradientUnits="userSpaceOnUse" y2="458.3094" xlink:type="simple" xlink:actuate="onLoad" id="XMLID_6_" xlink:show="other">
            <stop stop-color="#000000" offset="0"/>
            <stop stop-color="#000000" offset="0.3933"/>
            <stop stop-color="#52a2a5" offset="0.9944"/>
            <stop stop-color="#52a2a5" offset="1"/>
        </linearGradient>
        <circle fill="url(#XMLID_6_)" r="7.568" cx="224.959" cy="336.068"/>
    </g>
    <g>
        <linearGradient x1="4.8858" y1="11.5524" x2="390.4992" gradientUnits="userSpaceOnUse" y2="397.1658" xlink:type="simple" xlink:actuate="onLoad" id="XMLID_7_" xlink:show="other">
            <stop stop-color="#000000" offset="0"/>
            <stop stop-color="#000000" offset="0.3933"/>
            <stop stop-color="#52a2a5" offset="0.9944"/>
            <stop stop-color="#52a2a5" offset="1"/>
        </linearGradient>
        <path fill="url(#XMLID_7_)" d="M 268.444 305.068 C 251.881 305.068 238.455 291.636 238.455 275.068 C 238.455 258.5 251.882 245.068 268.444 245.068 C 280.111 245.068 290.214 251.737 295.172 261.46698 L 295.172 245.32198 C 288.089 238.94897 278.721 235.06697 268.444 235.06697 C 246.361 235.06697 228.45801 252.97597 228.45801 275.06696 C 228.45801 297.15796 246.36101 315.06696 268.444 315.06696 C 278.72 315.06696 288.089 311.18497 295.172 304.81195 L 295.172 288.66696 C 290.213 298.399 280.111 305.068 268.444 305.068 z "/>
        <linearGradient x1="4.7261" y1="11.3502" x2="390.6354" gradientUnits="userSpaceOnUse" y2="397.2595" xlink:type="simple" xlink:actuate="onLoad" id="XMLID_8_" xlink:show="other">
            <stop stop-color="#000000" offset="0"/>
            <stop stop-color="#000000" offset="0.3933"/>
            <stop stop-color="#52a2a5" offset="0.9944"/>
            <stop stop-color="#52a2a5" offset="1"/>
        </linearGradient>
        <circle fill="url(#XMLID_8_)" r="14.995" cx="268.444" cy="275.068"/>
    </g>
    <g>
        <linearGradient x1="23.3736" y1="-34.0887" x2="420.6955" gradientUnits="userSpaceOnUse" y2="363.2332" xlink:type="simple" xlink:actuate="onLoad" id="XMLID_9_" xlink:show="other">
            <stop stop-color="#000000" offset="0"/>
            <stop stop-color="#000000" offset="0.3933"/>
            <stop stop-color="#52a2a5" offset="0.9944"/>
            <stop stop-color="#52a2a5" offset="1"/>
        </linearGradient>
        <path fill="url(#XMLID_9_)" d="M 264.37 174.903 C 260.861 174.903 257.488 175.476 254.33 176.52 C 253.001 189.746 244.307 200.791 232.416 205.511 C 232.396 205.973 232.381 206.436 232.381 206.903 C 232.381 224.575 246.703 238.903 264.37 238.903 C 279.047 238.903 291.406 229.01 295.172 215.531 L 295.172 198.27501 C 291.406 184.796 279.046 174.903 264.37 174.903 z M 264.37 220.617 C 256.798 220.617 250.65999 214.477 250.65999 206.903 C 250.65999 199.329 256.79797 193.189 264.37 193.189 C 271.941 193.189 278.07898 199.329 278.07898 206.903 C 278.07898 214.477 271.941 220.617 264.37 220.617 z "/>
        <linearGradient x1="30.9405" y1="-26.5258" x2="416.8672" gradientUnits="userSpaceOnUse" y2="359.401" xlink:type="simple" xlink:actuate="onLoad" id="XMLID_10_" xlink:show="other">
            <stop stop-color="#000000" offset="0"/>
            <stop stop-color="#000000" offset="0.3933"/>
            <stop stop-color="#52a2a5" offset="0.9944"/>
            <stop stop-color="#52a2a5" offset="1"/>
        </linearGradient>
        <circle fill="url(#XMLID_10_)" r="4.57" cx="264.369" cy="206.903"/>
    </g>
    <g>
        <linearGradient x1="25.8467" y1="-20.6952" x2="411.7575" gradientUnits="userSpaceOnUse" y2="365.2156" xlink:type="simple" xlink:actuate="onLoad" id="XMLID_11_" xlink:show="other">
            <stop stop-color="#000000" offset="0"/>
            <stop stop-color="#000000" offset="0.3933"/>
            <stop stop-color="#52a2a5" offset="0.9944"/>
            <stop stop-color="#52a2a5" offset="1"/>
        </linearGradient>
        <path fill="url(#XMLID_11_)" d="M 219.519 147.977 C 205.715 147.977 194.528 159.168 194.528 172.977 C 194.528 186.78601 205.716 197.977 219.519 197.977 C 233.324 197.977 244.51 186.78601 244.51 172.977 C 244.51 159.168 233.324 147.977 219.519 147.977 z M 219.519 187.977 C 211.23799 187.977 204.525 181.261 204.525 172.977 C 204.525 164.69301 211.23799 157.977 219.519 157.977 C 227.801 157.977 234.51399 164.69301 234.51399 172.977 C 234.51399 181.261 227.801 187.977 219.519 187.977 z "/>
        <linearGradient x1="25.8546" y1="-20.6874" x2="411.7508" gradientUnits="userSpaceOnUse" y2="365.2089" xlink:type="simple" xlink:actuate="onLoad" id="XMLID_12_" xlink:show="other">
            <stop stop-color="#000000" offset="0"/>
            <stop stop-color="#000000" offset="0.3933"/>
            <stop stop-color="#52a2a5" offset="0.9944"/>
            <stop stop-color="#52a2a5" offset="1"/>
        </linearGradient>
        <circle fill="url(#XMLID_12_)" r="4.999" cx="219.52" cy="172.977"/>
    </g>
    <g>
        <linearGradient x1="91.5196" y1="-40.8251" x2="419.7747" gradientUnits="userSpaceOnUse" y2="287.43" xlink:type="simple" xlink:actuate="onLoad" id="XMLID_13_" xlink:show="other">
            <stop stop-color="#000000" offset="0"/>
            <stop stop-color="#000000" offset="0.3933"/>
            <stop stop-color="#52a2a5" offset="0.9944"/>
            <stop stop-color="#52a2a5" offset="1"/>
        </linearGradient>
        <path fill="url(#XMLID_13_)" d="M 265.375 154.642 C 265.375 138.138 278.699 124.751 295.172 124.646996 L 295.172 114.648994 C 294.414 114.65299 293.663 114.67899 292.915 114.72399 C 288.896 123.15099 280.303 128.97499 270.34802 128.97499 C 268.57303 128.97499 266.842 128.78699 265.17102 128.435 C 259.07602 135.456 255.37903 144.614 255.37903 154.642 C 255.37903 176.668 273.17902 194.53299 295.17203 194.637 L 295.17203 184.637 C 278.699 184.533 265.375 171.146 265.375 154.642 z "/>
        <linearGradient x1="97.0933" y1="-40.4247" x2="424.6168" gradientUnits="userSpaceOnUse" y2="287.0988" xlink:type="simple" xlink:actuate="onLoad" id="XMLID_14_" xlink:show="other">
            <stop stop-color="#000000" offset="0"/>
            <stop stop-color="#000000" offset="0.3933"/>
            <stop stop-color="#52a2a5" offset="0.9944"/>
            <stop stop-color="#52a2a5" offset="1"/>
        </linearGradient>
        <path fill="url(#XMLID_14_)" d="M 280.369 154.642 C 280.369 162.862 286.97998 169.528 295.172 169.632 L 295.172 139.65201 C 286.98 139.756 280.369 146.422 280.369 154.642 z "/>
    </g>
    <linearGradient x1="75.691" y1="-90.681" x2="461.6054" gradientUnits="userSpaceOnUse" y2="295.2334" xlink:type="simple" xlink:actuate="onLoad" id="XMLID_15_" xlink:show="other">
        <stop stop-color="#000000" offset="0"/>
        <stop stop-color="#000000" offset="0.3933"/>
        <stop stop-color="#52a2a5" offset="0.9944"/>
        <stop stop-color="#52a2a5" offset="1"/>
    </linearGradient>
    <path fill="url(#XMLID_15_)" d="M 270.347 86.118 C 260.48898 86.118 252.49498 94.113 252.49498 103.975 C 252.49498 113.837 260.48798 121.832 270.347 121.832 C 280.206 121.832 288.19897 113.837 288.19897 103.975 C 288.19897 94.113 280.206 86.118 270.347 86.118 z M 270.347 111.475 C 266.206 111.475 262.84998 108.116 262.84998 103.975 C 262.84998 99.834 266.20596 96.475 270.347 96.475 C 274.488 96.475 277.84497 99.834 277.84497 103.975 C 277.84497 108.116 274.488 111.475 270.347 111.475 z "/>
</svg>
