<?xml version="1.0" encoding="UTF-8"?>
<svg xmlns="http://www.w3.org/2000/svg" xmlns:xlink="http://www.w3.org/1999/xlink" contentScriptType="text/ecmascript" width="43.939" baseProfile="tiny" zoomAndPan="magnify" contentStyleType="text/css" viewBox="0 0 43.939 43.945" height="43.945" preserveAspectRatio="xMidYMid meet" version="1.1">
    <rect x="7.192" width="4.74" fill="#ffffff" y="15.688" height="2.862"/>
    <polygon fill="#ffffff" points="8.132,7.676 8.132,12.913 10.241,12.913 10.241,9.743 34.708,9.743 34.708,35.868 10.241,35.868   10.241,32.688 8.132,32.688 8.132,37.927 36.778,37.938 36.778,7.676 "/>
    <rect x="7.192" width="4.74" fill="#ffffff" y="21.35" height="2.859"/>
    <rect x="7.192" width="4.74" fill="#ffffff" y="27.011" height="2.861"/>
    <path fill="#ffffff" d="M 30.206 17.414 C 29.668999 16.734 29.338 16.414999 28.852 16.043999 C 27.809 15.245998 23.591 14.413999 19.230999 18.772999 C 16.585 21.422998 15.840999 24.008999 15.840999 25.860998 C 15.840999 27.059998 16.179998 27.934998 16.461998 28.357998 C 16.750998 28.789997 17.153997 29.355997 17.869999 29.754997 C 18.515999 30.115997 18.886 30.082996 18.886 30.082996 C 19.574 30.039997 20.329 29.512997 21.337 28.372997 C 21.671 27.997997 22.755 26.700996 22.755 25.792997 C 22.755 25.792997 22.797998 25.334997 22.082998 24.833998 C 21.745998 24.598997 21.279999 24.395998 20.656998 24.294998 L 20.36 24.25 L 20.362001 23.949 C 20.376001 22.446999 22.901001 19.921 24.395 19.914 L 24.696001 19.913 L 24.745 20.209 C 24.843 20.831999 25.024 21.313 25.282001 21.64 C 25.663002 22.119 25.985 22.26 26.145002 22.307999 C 26.753002 22.364998 27.749002 21.833998 28.819002 20.891998 C 29.958002 19.885998 30.485003 19.126999 30.528002 18.432 C 30.528 18.431 30.626 17.946 30.206 17.414 z "/>
</svg>
