<?xml version="1.0" encoding="UTF-8"?>
<svg xmlns="http://www.w3.org/2000/svg" xmlns:xlink="http://www.w3.org/1999/xlink" contentScriptType="text/ecmascript" width="38" baseProfile="tiny" zoomAndPan="magnify" contentStyleType="text/css" viewBox="-1 -1 38 32" height="32" preserveAspectRatio="xMidYMid meet" version="1.1">
    <g>
        <path fill="#ffffff" d="M 16.124 24.221 C 15.681001 24.221 15.172001 24.178001 14.6 24.094 C 14.028 24.008 13.4210005 23.86 12.786 23.639 L 12.786 21.001999 C 13.343 21.251999 14.028 21.449 14.844 21.593998 C 15.658 21.739998 16.3 21.812998 16.769 21.812998 C 17.719 21.812998 18.47 21.529999 19.019 20.964998 C 19.567999 20.401999 19.839998 19.620998 19.839998 18.628998 C 19.839998 18.007998 19.708998 17.493998 19.446999 17.085999 C 19.182 16.679998 18.755 16.364998 18.157999 16.142998 C 17.558998 15.921998 16.599998 15.775998 15.277999 15.703998 L 15.277999 13.344997 C 16.876 13.344997 17.929998 13.209997 18.447998 12.938997 C 18.964998 12.668997 19.301998 12.332997 19.458998 11.922997 C 19.615997 11.512998 19.693998 11.072997 19.693998 10.596997 C 19.693998 9.742997 19.456999 9.127997 18.980999 8.752997 C 18.501999 8.377997 17.806 8.189998 16.886 8.189998 C 16.329 8.189998 15.672999 8.276998 14.919 8.455997 C 14.165 8.633 13.619 8.814 13.28 9.0 L 13.28 6.358 C 13.587 6.237 14.073 6.1099997 14.738 5.9769998 C 15.404 5.844 16.047 5.779 16.669 5.779 C 18.902 5.779 20.529001 6.1619997 21.546001 6.9259996 C 22.563002 7.693 23.070002 8.879 23.070002 10.486 C 23.070002 11.406 22.763002 12.23 22.156002 12.961 C 21.547003 13.690001 20.760002 14.201 19.802002 14.490001 C 20.746002 14.692 21.551003 15.193001 22.216002 15.992001 C 22.882002 16.791 23.215002 17.771 23.215002 18.943 C 23.215002 20.716002 22.659002 22.043001 21.551003 22.914001 C 20.441 23.785 18.633 24.221 16.124 24.221 z "/>
        <rect x="-1" width="38" fill="none" y="-1" height="32"/>
    </g>
</svg>
