<?xml version="1.0" encoding="UTF-8"?>
<svg xmlns="http://www.w3.org/2000/svg" xmlns:xlink="http://www.w3.org/1999/xlink" contentScriptType="text/ecmascript" width="60" baseProfile="tiny" zoomAndPan="magnify" contentStyleType="text/css" viewBox="0 0 60 60" height="60" preserveAspectRatio="xMidYMid meet" version="1.1">
    <path fill="#bf111a" d="M 33.747 24.251 C 16.705002 24.267 11.663002 34.383 11.327002 36.887 C 11.154001 38.2 10.916001 39.954002 11.343001 42.092003 C 11.555001 43.149002 12.329001 44.288002 12.563002 44.613003 L 12.679002 44.777004 L 12.828002 44.910004 C 14.291002 46.199005 16.729002 46.666004 20.721003 46.417004 C 22.441002 46.311005 26.519003 45.874004 28.257002 44.137005 C 28.333002 44.063004 28.399002 43.987003 28.467001 43.907005 L 28.592001 43.752007 L 28.681002 43.573006 C 28.808002 43.323006 29.208002 42.358006 29.004002 40.593006 C 28.836002 39.109005 27.982002 37.698006 27.301003 36.749004 C 28.040003 36.019005 29.802002 34.918003 33.757004 34.854004 L 33.718002 34.836002 C 37.669003 34.899002 39.434002 36.010002 40.167004 36.738003 C 39.480003 37.689003 38.624004 39.103004 38.454002 40.590004 C 38.257004 42.358006 38.65 43.320004 38.780003 43.572002 L 38.866 43.752003 L 38.995003 43.904003 C 40.593002 45.836002 44.943 46.304005 46.741 46.417004 C 50.732002 46.662003 53.173 46.193005 54.648003 44.893005 L 54.798004 44.762005 L 54.911003 44.598003 C 55.145004 44.274002 55.919003 43.130005 56.128002 42.077003 C 56.558002 39.933002 56.321003 38.178005 56.165 37.014004 C 55.7 33.501 49.549 24.251 33.747 24.251 M 14.766 41.404 C 14.4539995 39.84 14.628 38.544 14.766 37.496998 C 14.853 36.843998 15.605 35.143997 17.402 33.35 C 20.087 30.662998 25.104 27.755999 33.731003 27.755999 C 48.147003 27.741999 52.492004 35.846 52.690002 37.336998 C 52.846 38.522 53.024002 39.817997 52.713 41.389 C 52.672 41.561 52.447002 41.983 52.207 42.352 C 51.725002 42.696003 50.461002 43.149002 46.957 42.934002 C 44.223 42.762 42.492 42.182003 41.904 41.811 C 41.888 41.623 41.881 41.358 41.925 40.983 C 42.038 40.010002 43.101997 38.546 43.601997 37.989002 L 44.242996 37.266003 L 43.980995 36.334003 C 43.834995 35.837 42.322994 31.486004 33.779995 31.348003 L 33.75 31.348003 L 33.701 31.364004 C 28.748001 31.444004 26.151001 32.936005 24.819 34.268005 C 23.855 35.235004 23.548 36.118004 23.486 36.323006 L 23.207 37.262005 L 23.862001 37.989006 C 24.361002 38.547005 25.423002 40.010006 25.533 40.983006 C 25.577002 41.356007 25.571001 41.624004 25.555 41.813007 C 24.967001 42.184006 23.241001 42.764008 20.501 42.93601 C 16.998 43.14901 15.7439995 42.70701 15.2699995 42.37201 C 15.031 41.998 14.805 41.578 14.766 41.404 "/>
    <path fill="#bf111a" d="M 9.393 32.572 C 9.153999 32.201 8.927 31.780998 8.889 31.606998 C 8.577 30.043 8.751 28.746998 8.889 27.698997 C 8.976 27.044998 9.728 25.345997 11.525 23.551998 C 14.209 20.865997 19.226 17.96 27.854 17.96 C 35.341 17.952 40.105 20.133999 42.989 22.442 C 45.490997 23.098999 47.678997 24.003 49.564 25.057999 C 47.507 20.884998 41.045998 14.453999 27.869 14.453999 C 10.827 14.471 5.785 24.587 5.449 27.09 C 5.276 28.401001 5.038 30.157 5.4649997 32.295 C 5.6769996 33.351997 6.4509997 34.491997 6.6849995 34.815998 L 6.8009996 34.98 L 6.95 35.113 C 7.378 35.489998 7.903 35.788998 8.513 36.027 C 8.721999 35.035 9.138 33.992 9.811999 32.787 C 9.634 32.716 9.491 32.643 9.393 32.572 z "/>
    <rect width="60" fill="none" height="60"/>
</svg>
