<?xml version="1.0" encoding="UTF-8"?>
<svg xmlns="http://www.w3.org/2000/svg" xmlns:xlink="http://www.w3.org/1999/xlink" contentScriptType="text/ecmascript" width="100" baseProfile="tiny" zoomAndPan="magnify" contentStyleType="text/css" viewBox="-3 -2.999 100 100" height="100" preserveAspectRatio="xMidYMid meet" version="1.1">
    <rect x="-3" width="100" fill="none" y="-2.999" height="100"/>
    <g>
        <path fill="#404040" d="M 22.44 22.326 L 22.994001 22.881 C 23.027002 22.86 23.059002 22.84 23.093002 22.819 C 29.127 13.197 37.172 5.326 47.0 -0.469 C 56.829002 5.3250003 64.873 13.1970005 70.908005 22.819 C 70.965004 22.855 71.021 22.89 71.076004 22.924 L 71.687004 22.367 C 71.672005 22.358 71.662 22.349 71.648 22.341002 C 65.434 12.433 57.15 4.325 47.031 -1.646 C 36.925 4.324 28.651 12.426 22.44 22.326 z "/>
        <path d="M 70.909 22.819 C 64.874 13.197 56.83 5.326 47.001 -0.469 C 37.171997 5.3250003 29.128 13.1970005 23.094 22.819 C 23.073 22.851 23.052 22.884 23.031 22.917 L 31.212 31.117 C 31.792 31.698 32.155 32.062 32.155 32.062 L 35.439 29.445 L 46.945 20.275 L 58.738 29.298 L 61.642 31.52 L 71.013 22.983002 C 70.979 22.929 70.943 22.875 70.909 22.819 z "/>
    </g>
    <linearGradient x1="-1408.2529" gradientTransform="matrix(1.1111 0 0 1.1111 1598.8831 -747.1384)" y1="680.7314" x2="-1400.5267" gradientUnits="userSpaceOnUse" y2="687.2562" xlink:type="simple" xlink:actuate="onLoad" id="XMLID_2_" xlink:show="other">
        <stop stop-color="#ffffff" offset="0"/>
        <stop stop-color="#d9d9d9" offset="0.0644"/>
        <stop stop-color="#a7a7a7" offset="0.1609"/>
        <stop stop-color="#7a7a7a" offset="0.2621"/>
        <stop stop-color="#545454" offset="0.3662"/>
        <stop stop-color="#363636" offset="0.474"/>
        <stop stop-color="#1e1e1e" offset="0.5864"/>
        <stop stop-color="#0d0d0d" offset="0.7055"/>
        <stop stop-color="#030303" offset="0.8362"/>
        <stop stop-color="#000000" offset="1"/>
    </linearGradient>
    <path fill="url(#XMLID_2_)" d="M 35.185 27.784 C 34.336002 27.159 29.546001 23.555 25.366001 20.931 C 31.592 12.252 36.649 7.204 46.91 0.833 C 42.594 5.953 34.648 21.66 35.185 27.784 z " fill-opacity="0.5"/>
    <g>
        <path fill="#ffffff" d="M 86.17 43.814 L 84.27 43.814 L 84.27 41.913 C 84.27 40.386997 83.032 39.149 81.506 39.149 C 79.979 39.149 78.74 40.386997 78.74 41.913 L 78.74 43.814 L 76.838 43.814 C 75.312996 43.814 74.072 45.052998 74.072 46.579 C 74.072 48.105 75.312 49.343998 76.838 49.343998 L 78.74 49.343998 L 78.74 51.245 C 78.74 52.771 79.976 54.01 81.506 54.01 C 83.031 54.01 84.27 52.774 84.27 51.245 L 84.27 49.343998 L 86.17 49.343998 C 87.695 49.343998 88.934 48.107998 88.934 46.579 C 88.936 45.053 87.697 43.814 86.17 43.814 z " display="none"/>
        <path fill="#ffffff" d="M 17.413 43.992 C 18.94 43.992 20.178 45.23 20.178 46.757 L 20.178 46.757 C 20.178 48.283 18.939999 49.522 17.413 49.522 L 8.081 49.522 C 6.5540004 49.522 5.316 48.285 5.316 46.757 L 5.316 46.757 C 5.316 45.231 6.554 43.992 8.081 43.992 L 17.413 43.992 z " display="none"/>
        <g display="none">
            <path fill="#ffffff" d="M 49.257 75.446 C 48.086 75.446 47.137 76.394 47.137 77.566 L 47.137 84.722 C 47.137 85.894 48.086002 86.841 49.257 86.841 C 50.427998 86.841 54.955 82.316 54.955 81.144005 C 54.956 79.977 50.428 75.446 49.257 75.446 z " display="inline"/>
            <path fill="#ffffff" d="M 41.856 77.57 C 41.856 76.409996 42.798 75.465 43.961 75.465 L 43.961 75.465 C 45.122997 75.465 46.065998 76.409996 46.065998 77.57 L 46.065998 84.677 C 46.065998 85.836 45.122997 86.781006 43.961 86.781006 L 43.961 86.781006 C 42.799 86.781006 41.856 85.836006 41.856 84.677 L 41.856 77.57 z " display="inline"/>
        </g>
        <g>
            <path fill="#00acee" d="M 44.778 18.603 C 45.947998 18.603 46.897 17.654001 46.897 16.483002 L 46.897 9.328 C 46.897 8.157 45.947998 7.208 44.778 7.208 C 43.606 7.208 39.08 11.735001 39.08 12.907 C 39.079 14.075 43.606 18.603 44.778 18.603 z "/>
            <path fill="#00acee" d="M 52.178 16.479 C 52.178 17.64 51.235 18.584 50.073 18.584 L 50.073 18.584 C 48.912003 18.584 47.969 17.639 47.969 16.479 L 47.969 9.374 C 47.969 8.2109995 48.911003 7.2679996 50.073 7.2679996 L 50.073 7.2679996 C 51.235 7.2679996 52.178 8.2109995 52.178 9.374 L 52.178 16.479 z "/>
        </g>
    </g>
</svg>
