<?xml version="1.0" encoding="UTF-8"?>
<svg xmlns="http://www.w3.org/2000/svg" xmlns:xlink="http://www.w3.org/1999/xlink" contentScriptType="text/ecmascript" width="84" baseProfile="tiny" zoomAndPan="magnify" contentStyleType="text/css" viewBox="0 0 84 58" height="58" preserveAspectRatio="xMidYMid meet" version="1.1">
    <g>
        <g>
            <path fill="#ffffff" d="M 20.838 5.83 L 22.869 40.532997 L 67.962 52.558 L 70.817 49.624 L 72.222 13.055 L 24.008 4.862 L 20.838 5.83 z "/>
            <linearGradient x1="-678.7886" gradientTransform="matrix(1.1905 0 0 -1.1905 875.8296 1344.8534)" y1="1085.5371" x2="-675.7417" gradientUnits="userSpaceOnUse" y2="1121.6312" xlink:type="simple" xlink:actuate="onLoad" id="XMLID_15_" xlink:show="other">
                <stop stop-color="#87a8cb" offset="0"/>
                <stop stop-color="#235487" offset="1"/>
            </linearGradient>
            <polygon fill="url(#XMLID_15_)" points="67.852,52.153 70.461,49.472 71.85,13.357 68.459,15.088   "/>
            <linearGradient x1="-722.937" gradientTransform="matrix(1.1905 0 0 -1.1905 875.8296 1344.8534)" y1="1125.1533" x2="-706.5401" gradientUnits="userSpaceOnUse" y2="1098.0104" xlink:type="simple" xlink:actuate="onLoad" id="XMLID_16_" xlink:show="other">
                <stop stop-color="#ffffff" offset="0"/>
                <stop stop-color="#ffffff" offset="0.05"/>
                <stop stop-color="#a2c2dd" offset="1"/>
            </linearGradient>
            <polygon fill="url(#XMLID_16_)" points="23.214,40.252 21.212,6.054 42.754,29.429 27.171,41.074   "/>
            <linearGradient x1="-710.2891" gradientTransform="matrix(1.1905 0 0 -1.1905 875.8296 1344.8534)" y1="1112.6289" x2="-676.7999" gradientUnits="userSpaceOnUse" y2="1100.4675" xlink:type="simple" xlink:actuate="onLoad" id="XMLID_17_" xlink:show="other">
                <stop stop-color="#ffffff" offset="0"/>
                <stop stop-color="#ffffff" offset="0.05"/>
                <stop stop-color="#a2c2dd" offset="1"/>
            </linearGradient>
            <polygon fill="url(#XMLID_17_)" points="67.852,52.153 68.478,15.563 46.578,30.998 64.253,51.255   "/>
            <linearGradient x1="-708.6177" gradientTransform="matrix(1.1905 0 0 -1.1905 875.8296 1344.8534)" y1="1119.6777" x2="-700.5105" gradientUnits="userSpaceOnUse" y2="1098.7067" xlink:type="simple" xlink:actuate="onLoad" id="XMLID_18_" xlink:show="other">
                <stop stop-color="#ffffff" offset="0"/>
                <stop stop-color="#ffffff" offset="0.05"/>
                <stop stop-color="#a2c2dd" offset="1"/>
            </linearGradient>
            <polygon fill="url(#XMLID_18_)" points="23.214,40.252 67.771,52.135 48.331,29.549 41.111,27.678   "/>
            <linearGradient x1="-694.5508" gradientTransform="matrix(1.1905 0 0 -1.1905 875.8296 1344.8534)" y1="1116.3311" x2="-711.9094" gradientUnits="userSpaceOnUse" y2="1097.6705" xlink:type="simple" xlink:actuate="onLoad" id="XMLID_19_" xlink:show="other">
                <stop stop-color="#ffffff" offset="0"/>
                <stop stop-color="#a2c2dd" offset="0.35"/>
                <stop stop-color="#6c83bb" offset="0.7"/>
                <stop stop-color="#003d6d" offset="1"/>
            </linearGradient>
            <polygon fill="url(#XMLID_19_)" points="23.235,40.239 39.412,25.817 41.111,27.678   "/>
            <linearGradient x1="-695.3394" gradientTransform="matrix(1.1905 0 0 -1.1905 875.8296 1344.8534)" y1="1112.9844" x2="-691.1121" gradientUnits="userSpaceOnUse" y2="1104.1741" xlink:type="simple" xlink:actuate="onLoad" id="XMLID_20_" xlink:show="other">
                <stop stop-color="#ffffff" offset="0"/>
                <stop stop-color="#a2c2dd" offset="0.35"/>
                <stop stop-color="#6c83bb" offset="0.7"/>
                <stop stop-color="#003d6d" offset="1"/>
            </linearGradient>
            <polygon fill="url(#XMLID_20_)" points="67.873,52.113 50.84,28.011 48.331,29.549   "/>
            <linearGradient x1="-700.897" gradientTransform="matrix(1.1905 0 0 -1.1905 875.8296 1344.8534)" y1="1131.7168" x2="-691.0275" gradientUnits="userSpaceOnUse" y2="1108.1932" xlink:type="simple" xlink:actuate="onLoad" id="XMLID_21_" xlink:show="other">
                <stop stop-color="#ffffff" offset="0"/>
                <stop stop-color="#ffffff" offset="0.05"/>
                <stop stop-color="#a2c2dd" offset="1"/>
            </linearGradient>
            <polygon fill="url(#XMLID_21_)" points="71.85,13.357 24.032,5.232 21.194,6.062 68.459,15.088   "/>
            <linearGradient x1="-696.8018" gradientTransform="matrix(1.1905 0 0 -1.1905 875.8296 1344.8534)" y1="1132.7148" x2="-700.0568" gradientUnits="userSpaceOnUse" y2="1097.9939" xlink:type="simple" xlink:actuate="onLoad" id="XMLID_22_" xlink:show="other">
                <stop stop-color="#ffffff" offset="0"/>
                <stop stop-color="#a2c2dd" offset="0.35"/>
                <stop stop-color="#6c83bb" offset="0.7"/>
                <stop stop-color="#003d6d" offset="1"/>
            </linearGradient>
            <polygon fill="url(#XMLID_22_)" points="21.283,6.366 68.459,15.088 68.514,16.386 41.664,40.494   "/>
            <linearGradient x1="-718.7925" gradientTransform="matrix(1.1905 0 0 -1.1905 875.8296 1344.8534)" y1="1129.9746" x2="-691.832" gradientUnits="userSpaceOnUse" y2="1109.8801" xlink:type="simple" xlink:actuate="onLoad" id="XMLID_23_" xlink:show="other">
                <stop stop-color="#ffffff" offset="0"/>
                <stop stop-color="#ffffff" offset="0.05"/>
                <stop stop-color="#a2c2dd" offset="1"/>
            </linearGradient>
            <polygon fill="url(#XMLID_23_)" points="21.194,6.062 40.75,35.604 68.459,15.088   "/>
            <linearGradient x1="-705.3604" gradientTransform="matrix(1.1905 0 0 -1.1905 875.8296 1344.8534)" y1="1118.6953" x2="-687.1928" gradientUnits="userSpaceOnUse" y2="1081.8916" xlink:type="simple" xlink:actuate="onLoad" id="XMLID_24_" xlink:show="other">
                <stop stop-color="#e6eef4" offset="0"/>
                <stop stop-color="#337ce5" offset="0.44"/>
                <stop stop-color="#003d6d" offset="0.94"/>
                <stop stop-color="#003d6d" offset="1"/>
            </linearGradient>
            <path fill="url(#XMLID_24_)" d="M 57.421 29.121 C 57.701 30.431 57.528 33.207 57.362003 33.749 L 54.399002 33.405 C 54.378002 33.472 54.147003 34.399 54.075 34.580997 L 56.614002 36.46 C 56.323 37.516 55.152 39.404 54.434002 40.114998 C 54.406002 40.093998 52.064003 38.348 51.982002 38.295 C 51.794003 38.553997 51.179 39.129997 51.172 39.135 L 52.554 41.972 C 51.632 42.769 49.690002 43.692 48.945 43.858 L 47.588 41.087 C 47.18 41.241 46.671 41.319 46.295002 41.353 L 46.276 44.319 C 45.568 44.420002 43.175 44.281002 42.195 43.91 L 42.153 40.926 C 41.582 40.775997 41.028 40.44 41.015 40.431 L 39.694 42.89 C 39.082 42.642 36.685 40.961998 36.114 40.204998 L 37.411 37.725998 C 37.125 37.48 36.57 36.849 36.427 36.572998 L 34.213997 37.824997 C 33.525997 37.038 32.374996 34.650997 32.068996 33.526997 L 34.318996 32.261997 C 34.318996 32.254997 34.013996 31.149998 34.007996 30.824997 L 31.254995 30.457996 C 31.121996 29.276997 30.987995 26.405996 31.102995 25.637997 L 33.880997 26.027996 C 33.871998 25.818996 34.108997 24.693996 34.112995 24.678997 L 31.739996 22.743998 C 31.819996 22.243998 33.113995 19.654997 33.742996 19.102997 L 36.070995 20.848997 C 36.112995 20.707996 37.020996 19.942997 37.030994 19.931997 L 35.595993 17.191998 C 36.35599 16.659998 38.103992 15.650997 39.210995 15.253998 L 40.695995 18.175999 C 40.703995 18.171999 41.616997 17.967999 41.849995 17.967999 L 41.809994 14.877998 C 43.032993 14.898998 45.276993 15.272999 46.109993 15.584998 L 46.148994 18.640999 C 46.286995 18.681 47.393993 19.192 47.500996 19.258 L 48.917995 16.763 C 50.300995 17.492 52.419994 19.266 52.680996 19.626 L 51.200996 22.145 C 51.210995 22.157 52.002995 23.151001 52.047997 23.23 C 52.135 23.196 54.580997 22.02 54.604996 22.007 C 55.431995 23.018 56.532997 25.259 56.776997 26.236 L 54.172997 27.497 C 54.142 27.479 54.427998 28.674 54.432995 28.747 L 57.421 29.121 z M 41.437 22.782 C 38.094 23.916 36.623 28.092 38.134 32.054 C 39.624 35.985 43.493 38.125 46.782997 36.882 C 50.091995 35.659 51.616997 31.61 50.176 27.788 C 48.72 23.934 44.794 21.672 41.437 22.782 z "/>
            <linearGradient x1="-676.7202" gradientTransform="matrix(1.1905 0 0 -1.1905 875.8296 1344.8534)" y1="1116.2813" x2="-689.9571" gradientUnits="userSpaceOnUse" y2="1102.8274" xlink:type="simple" xlink:actuate="onLoad" id="XMLID_25_" xlink:show="other">
                <stop stop-color="#ffffff" offset="0"/>
                <stop stop-color="#a2c2dd" offset="0.35"/>
                <stop stop-color="#6c83bb" offset="0.7"/>
                <stop stop-color="#003d6d" offset="1"/>
            </linearGradient>
            <path fill="url(#XMLID_25_)" d="M 56.002 24.33 L 50.383 28.491 C 50.781 29.897999 50.806 31.302 50.488 32.569 L 50.747997 32.334 L 55.815998 38.184998 C 56.175 37.560997 56.482 36.927 56.613 36.455997 L 54.072998 34.578 C 54.146 34.399998 54.378998 33.473 54.399 33.402 L 54.675 33.433 L 52.672 30.603998 L 54.706 28.779999 L 54.429 28.744 C 54.422 28.671999 54.136 27.474998 54.167 27.49 L 56.774 26.233 C 56.664 25.788 56.365 25.071 56.002 24.33 z "/>
            <linearGradient x1="-717.0635" gradientTransform="matrix(1.1905 0 0 -1.1905 875.8296 1344.8534)" y1="1122.1738" x2="-695.3695" gradientUnits="userSpaceOnUse" y2="1091.665" xlink:type="simple" xlink:actuate="onLoad" id="XMLID_26_" xlink:show="other">
                <stop stop-color="#5aa7e0" offset="0"/>
                <stop stop-color="#0046b7" offset="1"/>
            </linearGradient>
            <path fill="url(#XMLID_26_)" d="M 31.737 22.744 L 32.842 23.651 L 31.912998 22.241999 C 31.823 22.462 31.752 22.65 31.737 22.744 z "/>
            <linearGradient x1="-712.4717" gradientTransform="matrix(1.1905 0 0 -1.1905 875.8296 1344.8534)" y1="1126.458" x2="-704.0172" gradientUnits="userSpaceOnUse" y2="1102.3097" xlink:type="simple" xlink:actuate="onLoad" id="XMLID_27_" xlink:show="other">
                <stop stop-color="#ffffff" offset="0"/>
                <stop stop-color="#a2c2dd" offset="0.35"/>
                <stop stop-color="#6c83bb" offset="0.7"/>
                <stop stop-color="#003d6d" offset="1"/>
            </linearGradient>
            <path fill="url(#XMLID_27_)" d="M 38.132 32.055 C 38.028 31.794 37.949 31.527 37.872 31.262001 L 33.975002 25.373001 C 33.922 25.656002 33.876003 25.937 33.88 26.034 L 32.948 25.901001 L 35.162003 29.608002 L 33.822002 30.806002 L 34.008003 30.829002 C 34.016003 31.152002 34.322002 32.256004 34.322002 32.267002 L 32.069004 33.529003 C 32.101006 33.649002 32.148003 33.798004 32.202003 33.943005 L 36.111004 31.196005 L 41.665005 40.496006 L 45.324005 37.209007 C 42.419 37.459 39.405 35.416 38.132 32.055 z "/>
            <path fill="#ffffff" d="M 12.793 34.629 C 9.817 34.629 5.741 35.335003 4.708 41.440002 L 4.5550003 42.363003 C 4.5550003 42.363003 11.411 42.363003 12.225 42.363003 C 12.469001 42.802002 12.837 43.465004 13.068001 43.887 C 12.834001 44.309002 12.469001 44.97 12.225 45.408 C 11.412001 45.408 4.5550003 45.408 4.5550003 45.408 L 4.708 46.332 C 5.741 52.436 9.817 53.143 12.793 53.143 C 15.14 53.143 17.23 51.176003 18.91 49.591003 C 19.819 48.737003 20.674 47.931004 21.128 47.931004 L 42.124 47.931004 L 42.356 47.672005 C 42.809 47.177006 43.853 45.822006 43.876 43.920006 L 43.876 43.856007 C 43.855 41.953007 42.809998 40.598007 42.356 40.100006 L 42.124 39.844006 L 21.128 39.844006 C 20.674 39.844006 19.817 39.039005 18.911 38.187004 C 17.228 36.599 15.14 34.629 12.793 34.629 z "/>
            <linearGradient x1="-726.1582" gradientTransform="matrix(1.1905 0 0 -1.1905 875.8296 1344.8534)" y1="1104.7617" x2="-707.14" gradientUnits="userSpaceOnUse" y2="1081.8807" xlink:type="simple" xlink:actuate="onLoad" id="XMLID_28_" xlink:show="other">
                <stop stop-color="#e6edf3" offset="0"/>
                <stop stop-color="#cabad7" offset="0.12"/>
                <stop stop-color="#ab7eb8" offset="0.27"/>
                <stop stop-color="#9759a4" offset="0.38"/>
                <stop stop-color="#8f4b9c" offset="0.44"/>
                <stop stop-color="#73357c" offset="0.57"/>
                <stop stop-color="#551d5a" offset="0.72"/>
                <stop stop-color="#430e45" offset="0.85"/>
                <stop stop-color="#3c093d" offset="0.94"/>
                <stop stop-color="#3c093d" offset="1"/>
            </linearGradient>
            <path fill="url(#XMLID_28_)" d="M 43.091 43.885 C 43.091 43.876 43.097 43.866997 43.097 43.863 L 43.089 43.863 C 43.07 42.208 42.122 41.013 41.776 40.632 C 41.332 40.632 21.131 40.632 21.131 40.632 C 20.362001 40.632 19.526001 39.845 18.367 38.757 C 16.793001 37.272 14.827001 35.421 12.792001 35.421 C 9.491001 35.421 6.364001 36.392002 5.488001 41.574 C 6.729001 41.574 12.688001 41.574 12.688001 41.574 L 13.968 43.886 L 12.688001 46.199 C 12.688001 46.199 6.7290006 46.199 5.488001 46.199 C 6.366001 51.385002 9.490001 52.348 12.792001 52.348 C 14.827001 52.348 16.791 50.501 18.367 49.014 C 19.525002 47.925 20.362001 47.141 21.131 47.141 C 21.131 47.141 41.334 47.141 41.776 47.141 C 42.123 46.76 43.074 45.564 43.089 43.91 L 43.097 43.91 C 43.097 43.9 43.091 43.895 43.091 43.885 z "/>
        </g>
        <rect width="84" fill="none" height="58"/>
    </g>
</svg>
