<?xml version="1.0" encoding="UTF-8"?>
<svg xmlns="http://www.w3.org/2000/svg" xmlns:xlink="http://www.w3.org/1999/xlink" contentScriptType="text/ecmascript" width="54" baseProfile="tiny" zoomAndPan="magnify" contentStyleType="text/css" viewBox="-2.22 -5.255 54 54" height="54" preserveAspectRatio="xMidYMid meet" version="1.0">
    <rect x="-2.22" width="54" fill="none" y="-5.255" height="54"/>
    <linearGradient x1="24.95" y1="0" x2="24.95" gradientUnits="userSpaceOnUse" y2="45.75" xlink:type="simple" xlink:actuate="onLoad" id="SVGID_1" xlink:show="other">
        <stop stop-color="#ffffff" offset="0"/>
        <stop stop-color="#ffffff" offset="1"/>
    </linearGradient>
    <path fill="url(#SVGID_1)" d="M 34.364 23.867 L 25.462996 23.867 L 25.462996 20.4 L 34.714996 20.4 L 39.938995 15.178 L 37.326996 15.178 L 29.492 7.34 L 29.492 4.729 L 26.881 4.729 L 26.881 7.34 L 25.463 8.76 L 25.463 5.435 L 18.657 5.435 L 18.657 9.162 L 13.871002 9.162 L 13.871002 1.5919995 L 42.725 1.5919995 L 42.725 18.804998 L 44.423004 18.804998 L 44.423004 0.0 L 12.173004 0.0 L 12.173004 9.161 L 6.851 9.161 L 6.851 5.435 L 0.0 5.435 L 0.0 35.246 L 6.851 35.246 L 6.851 30.898005 L 18.658 30.898005 L 18.658 35.246 L 25.464 35.246 L 25.464 25.460005 L 33.329002 25.460005 L 34.364 23.867 z M 29.492 9.951 L 34.715 15.179001 L 29.492 15.179001 L 29.492 9.951 z M 25.463 11.369 L 26.881 9.952001 L 26.881 15.179001 L 25.463 15.179001 L 25.463 11.369 z M 4.968 32.14 L 1.863 32.14 L 1.863 27.793 L 4.967 27.793 L 4.967 32.14 z M 4.968 25.309 L 1.863 25.309 L 1.863 20.961 L 4.967 20.961 L 4.967 25.309 z M 4.968 18.477 L 1.863 18.477 L 1.863 14.129 L 4.967 14.129 L 4.967 18.477 z M 4.968 12.266 L 1.863 12.266 L 1.863 7.919 L 4.967 7.919 L 4.967 12.266 z M 18.632 26.55 L 6.846 26.55 L 6.846 13.508 L 18.632 13.508 L 18.632 26.55 z M 23.6 32.14 L 20.496 32.14 L 20.496 27.793 L 23.6 27.793 L 23.6 32.14 z M 23.6 25.309 L 20.496 25.309 L 20.496 20.961 L 23.6 20.961 L 23.6 25.309 z M 23.6 18.477 L 20.496 18.477 L 20.496 14.129 L 23.6 14.129 L 23.6 18.477 z M 23.6 12.266 L 20.496 12.266 L 20.496 7.919 L 23.6 7.919 L 23.6 12.266 z M 48.615 24.652 L 44.219 20.804 L 38.748 20.804 L 29.658 34.751 L 30.349 45.744 L 40.093 43.672 L 49.890003 29.829 L 48.615 24.652 z M 44.373 23.214 L 46.623 24.858002 L 38.857 35.967003 L 36.947 34.445004 L 44.373 23.214 z M 40.131 22.443 L 42.85 22.486 L 35.366 33.621 L 32.358 33.951004 L 40.131 22.443 z M 34.623 43.073 C 34.547 41.594 33.012 40.347 31.617 40.711 C 31.603 40.715004 31.594 40.729004 31.582 40.732 L 31.404 35.974003 L 34.847 35.552 L 38.292 38.232 L 39.173 41.886 C 39.174 41.887 34.623 43.089 34.623 43.073 z M 40.619 40.096 L 39.89 37.299 L 47.374 26.483 L 48.134 29.408 L 40.619 40.096 z "/>
</svg>
