<?xml version="1.0" encoding="UTF-8"?>
<svg xmlns="http://www.w3.org/2000/svg" xmlns:xlink="http://www.w3.org/1999/xlink" contentScriptType="text/ecmascript" zoomAndPan="magnify" baseProfile="tiny" contentStyleType="text/css" version="1.1" width="88px" preserveAspectRatio="xMidYMid meet" viewBox="0 0 88 88" height="88px" x="0px" y="0px">
    <g>
        <rect width="88" fill="none" height="88"/>
        <g>
            <linearGradient x1="43.6899" y1="-5.5322" x2="91.3519" gradientUnits="userSpaceOnUse" y2="68.6314" xlink:type="simple" xlink:actuate="onLoad" id="SVGID_1_" xlink:show="other">
                <stop stop-color="#e8ffff" offset="0"/>
                <stop stop-color="#747f7f" offset="1"/>
            </linearGradient>
            <path fill="url(#SVGID_1_)" d="M 75.098 12.901 L 74.102 13.897 C 81.814 21.609 86.591 32.257 86.591 44.0 C 86.591 55.743 81.814 66.391 74.102005 74.104004 L 75.09701 75.09901 C 83.066 67.13 88.0 56.131 88.0 44.0 C 88.0 31.869 83.066 20.869 75.098 12.901 z " fill-opacity="0.13" stroke-opacity="0.13"/>
            <linearGradient x1="22.2681" y1="-7.834" x2="98.3595" gradientUnits="userSpaceOnUse" y2="68.2574" xlink:type="simple" xlink:actuate="onLoad" id="SVGID_2_" xlink:show="other">
                <stop stop-color="#e8ffff" offset="0"/>
                <stop stop-color="#747f7f" offset="1"/>
            </linearGradient>
            <path fill="url(#SVGID_2_)" d="M 85.183 44.0 C 85.183 55.354 80.565 65.65 73.106995 73.108 L 74.102 74.103004 C 81.814 66.39 86.591 55.743 86.591 44.0 C 86.591 32.258 81.814 21.609 74.102005 13.896999 L 73.107 14.891999 C 80.565 22.349 85.183 32.645 85.183 44.0 z " fill-opacity="0.33" stroke-opacity="0.33"/>
            <linearGradient x1="20.8188" y1="-12.0107" x2="90.697" gradientUnits="userSpaceOnUse" y2="62.9606" xlink:type="simple" xlink:actuate="onLoad" id="SVGID_3_" xlink:show="other">
                <stop stop-color="#e8ffff" offset="0"/>
                <stop stop-color="#747f7f" offset="1"/>
            </linearGradient>
            <path fill="url(#SVGID_3_)" d="M 80.959 44.0 C 80.959 54.207 76.822 63.446 70.134 70.135 L 73.107 73.109 C 80.565 65.65 85.183 55.354 85.183 44.0 C 85.183 32.646 80.565 22.35 73.106995 14.893 L 70.133995 17.866 C 76.822 24.553 80.959 33.793 80.959 44.0 z " fill-opacity="0.33" stroke-opacity="0.33"/>
            <linearGradient x1="16.1587" y1="-9.9751" x2="73.241" gradientUnits="userSpaceOnUse" y2="47.107" xlink:type="simple" xlink:actuate="onLoad" id="SVGID_4_" xlink:show="other">
                <stop stop-color="#e8ffff" offset="0"/>
                <stop stop-color="#747f7f" offset="1"/>
            </linearGradient>
            <path fill="url(#SVGID_4_)" d="M 70.134 17.865 L 56.998 31.001 C 60.324 34.327 62.381 38.923 62.381 43.999 C 62.381 49.075 60.324 53.671 56.998 56.998 L 70.135 70.134 C 76.822 63.446 80.959 54.206 80.959 44.0 C 80.959 33.793 76.822 24.553 70.134 17.865 z "/>
        </g>
        <linearGradient x1="12.3896" y1="-17.0088" x2="93.1679" gradientUnits="userSpaceOnUse" y2="63.7691" xlink:type="simple" xlink:actuate="onLoad" id="SVGID_5_" xlink:show="other">
            <stop stop-color="#e8ffff" offset="0"/>
            <stop stop-color="#747f7f" offset="1"/>
        </linearGradient>
        <path fill="url(#SVGID_5_)" d="M 57.461 56.511 L 73.399 72.449005 C 80.688 65.161 85.202 55.098 85.202 44.0 C 85.202 32.903 80.688 22.839 73.398 15.549999 L 57.461 31.487 C 60.511997 34.769 62.380997 39.165 62.380997 44.0 C 62.381 48.834 60.512 53.23 57.461 56.511 z "/>
        <linearGradient x1="24.54" y1="-0.999" x2="157.0548" gradientUnits="userSpaceOnUse" y2="121.054" xlink:type="simple" xlink:actuate="onLoad" id="SVGID_6_" xlink:show="other">
            <stop stop-color="#e8ffff" offset="0"/>
            <stop stop-color="#747f7f" offset="1"/>
        </linearGradient>
        <path fill="url(#SVGID_6_)" d="M 57.885 56.038 L 73.395996 71.548996 C 80.606 64.111 84.568 54.353 84.568 44.0 C 84.568 33.646 80.606 23.887 73.396 16.451 L 57.885002 31.961 C 60.683002 35.187 62.381 39.394 62.381 43.999 C 62.381 48.605 60.683 52.812 57.885 56.038 z "/>
        <polygon fill="#ffffff" points="71.208,50.28 71.208,37.721 77.488,44  "/>
    </g>
</svg>
