<?xml version="1.0" encoding="UTF-8"?>
<svg xmlns="http://www.w3.org/2000/svg" xmlns:xlink="http://www.w3.org/1999/xlink" contentScriptType="text/ecmascript" width="44" baseProfile="tiny" zoomAndPan="magnify" contentStyleType="text/css" viewBox="0 0 44 32" height="32" preserveAspectRatio="xMidYMid meet" version="1.1">
    <g>
        <g>
            <path fill="#ffffff" d="M 16.282 8.507 C 15.473 7.91 14.424 7.613 13.136 7.613 C 11.848 7.613 10.797 7.91 9.985 8.507 C 9.172 9.101 8.606999 9.982 8.285 11.147 C 7.9639997 12.311001 7.802 13.986 7.802 16.172 C 7.802 18.380001 7.971 20.068 8.309 21.233002 C 8.645 22.397001 9.212 23.270002 10.008 23.850002 C 10.807 24.430002 11.849 24.719002 13.137 24.719002 C 14.417 24.719002 15.452 24.436 16.241001 23.871002 C 17.032001 23.307003 17.598001 22.433002 17.944 21.254002 C 18.287 20.074001 18.462 18.380001 18.462 16.172 C 18.462 13.985001 18.298 12.311001 17.979 11.147001 C 17.654 9.981 17.091 9.101 16.282 8.507 z M 14.923 21.287 C 14.652 22.115 14.059 22.527 13.137 22.527 C 12.216 22.527 11.618 22.115 11.346 21.287 C 11.072 20.461 10.934999 18.755001 10.934999 16.172 C 10.934999 13.581001 11.072 11.873001 11.346 11.045001 C 11.618 10.219001 12.216 9.804001 13.137 9.804001 C 14.059 9.804001 14.653 10.219001 14.923 11.045001 C 15.193001 11.873001 15.327001 13.581001 15.327001 16.172 C 15.327 18.755 15.192 20.461 14.923 21.287 z "/>
            <path fill="#ffffff" d="M 30.988 10.474 C 31.758001 10.474 32.4 10.129 32.4 9.657 C 32.4 9.186 31.755001 8.8029995 30.988 8.8029995 C 30.174002 8.8029995 29.570002 9.188 29.570002 9.657 C 29.57 10.129 30.174 10.474 30.988 10.474 z "/>
            <path fill="#ffffff" d="M 33.561 9.357 C 33.477 9.271 33.477 9.357 33.346 9.357 C 33.346 9.357 33.346 9.530001 33.477 9.530001 C 34.760002 10.858001 34.588 13.0460005 31.844002 14.074001 C 30.257002 13.602001 30.343002 11.718001 31.932001 11.546001 C 32.059002 11.546001 32.059002 11.546001 32.059002 11.416001 C 32.059002 11.330001 32.059002 11.244001 31.932001 11.244001 C 30.516 10.772001 27.600002 11.717001 28.075 13.989001 C 25.803001 13.046001 26.016 10.4730015 28.373001 9.271002 C 28.460001 9.185001 28.460001 9.185001 28.373001 9.056002 C 28.373001 8.970001 28.289001 8.970001 28.289001 8.970001 C 26.401001 9.530002 25.071001 10.686001 25.071001 12.015001 C 25.071001 13.903002 27.43 15.404001 30.432001 15.404001 C 33.477 15.404001 35.917 13.903001 35.917 12.015001 C 35.917 10.858 34.891 9.829 33.561 9.357 z "/>
            <g>
                <path fill="#ffffff" d="M 33.816 20.555 C 33.816 20.555 33.816 21.448 33.816 22.18 C 32.601 22.18 28.406002 22.18 27.191002 22.18 C 27.191002 21.483 27.191002 20.666 27.191002 20.666 L 25.49 20.666 L 25.49 23.879 L 35.515 23.879 L 35.515 20.555 L 33.816 20.555 z "/>
            </g>
        </g>
        <g>
            <rect width="44" fill="none" height="32"/>
        </g>
    </g>
</svg>
