<?xml version="1.0" encoding="UTF-8"?>
<svg xmlns="http://www.w3.org/2000/svg" xmlns:xlink="http://www.w3.org/1999/xlink" contentScriptType="text/ecmascript" width="38" baseProfile="tiny" zoomAndPan="magnify" contentStyleType="text/css" viewBox="-1 -1 38 32" height="32" preserveAspectRatio="xMidYMid meet" version="1.1">
    <g>
        <path fill="#ffffff" d="M 16.887 24.215 C 16.355 24.215 15.754999 24.152 15.089999 24.027 C 14.423999 23.9 13.904999 23.771 13.533999 23.632 L 13.533999 20.993 C 13.921999 21.204 14.471999 21.391 15.191999 21.556 C 15.91 21.723999 16.588 21.803999 17.224998 21.803999 C 17.964998 21.803999 18.588999 21.595 19.092999 21.175 C 19.597998 20.755999 19.943998 20.122 20.127998 19.276999 C 20.314999 18.428999 20.409998 17.446999 20.418 16.323997 C 20.07 16.784998 19.588999 17.143997 18.973 17.399998 C 18.355999 17.660997 17.63 17.789997 16.8 17.789997 C 15.372 17.789997 14.264999 17.289997 13.48 16.288998 C 12.693 15.288998 12.297999 13.965998 12.297999 12.319998 C 12.297999 10.059998 12.7439995 8.406998 13.636 7.357998 C 14.528 6.308998 15.945999 5.784998 17.89 5.784998 C 19.276999 5.784998 20.389 6.071998 21.223 6.6429977 C 22.059 7.2159977 22.68 8.113997 23.086 9.334997 C 23.493 10.557997 23.697 12.543997 23.697 15.294997 C 23.697 17.265997 23.504 18.903997 23.116001 20.220997 C 22.728 21.534996 22.070002 22.531998 21.142002 23.202997 C 20.218 23.879 18.799 24.215 16.887 24.215 z M 18.036 15.382 C 18.793999 15.382 19.380999 15.113 19.796999 14.577 C 20.212 14.040999 20.419998 13.247999 20.419998 12.198999 C 20.419998 10.810999 20.215998 9.796999 19.808998 9.155 C 19.402998 8.513 18.769999 8.193 17.914997 8.193 C 17.187998 8.193 16.633997 8.516 16.250998 9.162 C 15.867998 9.808 15.676997 10.683 15.676997 11.787 C 15.676997 12.99 15.875998 13.889999 16.276997 14.486 C 16.675 15.084 17.263 15.382 18.036 15.382 z "/>
        <rect x="-1" width="38" fill="none" y="-1" height="32"/>
    </g>
</svg>
