<?xml version="1.0" encoding="UTF-8"?>
<svg xmlns="http://www.w3.org/2000/svg" xmlns:xlink="http://www.w3.org/1999/xlink" contentScriptType="text/ecmascript" width="58" baseProfile="tiny" zoomAndPan="magnify" contentStyleType="text/css" viewBox="194 -15 58 58" height="58" preserveAspectRatio="xMidYMid meet" version="1.1">
    <g>
        <g>
            <g>
                <g>
                    <rect x="194" width="58" fill="none" y="-15" height="58"/>
                    <g>
                        <path d="M 195.794 13.033 C 195.794 27.501 207.56601 39.269 222.033 39.269 C 236.502 39.269 248.27101 27.499 248.27101 13.033001 C 248.27101 -1.4349995 236.50002 -13.205 222.033 -13.205 C 207.566 -13.205 195.794 -1.435 195.794 13.033 z " fill-opacity="0.01"/>
                        <path d="M 196.939 13.033 C 196.939 26.869999 208.19499 38.126 222.03299 38.126 C 235.872 38.126 247.129 26.869999 247.129 13.032999 C 247.129 -0.8030014 235.872 -12.058001 222.03299 -12.058001 C 208.195 -12.058 196.939 -0.803 196.939 13.033 z " fill-opacity="0.02"/>
                        <path d="M 198.083 13.033 C 198.083 26.234001 208.82799 36.978 222.03299 36.978 C 235.241 36.978 245.98 26.234001 245.98 13.033001 C 245.98 -0.17499924 235.23999 -10.914 222.03299 -10.914 C 208.829 -10.914 198.083 -0.174 198.083 13.033 z " fill-opacity="0.04"/>
                        <path d="M 199.05 13.033 C 199.05 25.706001 209.36 36.012 222.033 36.012 C 234.70201 36.012 245.01201 25.706001 245.01201 13.033001 C 245.01201 0.36200142 234.70201 -9.945999 222.033 -9.945999 C 209.359 -9.946 199.05 0.362 199.05 13.033 z " fill-opacity="0.07"/>
                    </g>
                    <linearGradient x1="-1166.252" gradientTransform="matrix(1 0 0 1 1389.252 -792.3545)" y1="828.6963" x2="-1166.252" gradientUnits="userSpaceOnUse" y2="792.9459" xlink:type="simple" xlink:actuate="onLoad" id="XMLID_5_" xlink:show="other">
                        <stop stop-color="#000000" offset="0"/>
                        <stop stop-color="#000000" offset="0.3933"/>
                        <stop stop-color="#52a2a5" offset="0.9944"/>
                        <stop stop-color="#52a2a5" offset="1"/>
                    </linearGradient>
                    <path fill="url(#XMLID_5_)" d="M 223.0 -8.903 C 210.369 -8.903 200.092 1.3699999 200.092 13.999001 C 200.092 26.628002 210.369 36.9 223.0 36.9 C 235.63 36.9 245.907 26.628002 245.907 13.999002 C 245.907 1.3700027 235.63 -8.903 223.0 -8.903 z " fill-opacity="0.25"/>
                    <linearGradient x1="-1166.252" gradientTransform="matrix(1 0 0 1 1389.252 -792.3545)" y1="780.7217" x2="-1166.252" gradientUnits="userSpaceOnUse" y2="827.2827" xlink:type="simple" xlink:actuate="onLoad" id="XMLID_6_" xlink:show="other">
                        <stop stop-color="#000000" offset="0"/>
                        <stop stop-color="#000000" offset="0.3933"/>
                        <stop stop-color="#52a2a5" offset="0.9944"/>
                        <stop stop-color="#52a2a5" offset="1"/>
                    </linearGradient>
                    <path fill="url(#XMLID_6_)" d="M 223.0 -7.029 C 211.4 -7.029 201.967 2.407 201.967 14.003 C 201.967 25.596 211.401 35.025 223.0 35.025 C 234.59799 35.025 244.032 25.593002 244.032 14.003002 C 244.032 2.405 234.598 -7.029 223.0 -7.029 z " fill-opacity="0.25"/>
                    <linearGradient x1="-1166.25" gradientTransform="matrix(1 0 0 1 1389.252 -792.3545)" y1="825.9111" x2="-1166.25" gradientUnits="userSpaceOnUse" y2="781.5063" xlink:type="simple" xlink:actuate="onLoad" id="XMLID_7_" xlink:show="other">
                        <stop stop-color="#000000" offset="0"/>
                        <stop stop-color="#000000" offset="0.3933"/>
                        <stop stop-color="#52a2a5" offset="0.9944"/>
                        <stop stop-color="#52a2a5" offset="1"/>
                    </linearGradient>
                    <path fill="url(#XMLID_7_)" d="M 223.0 -5.799 C 212.081 -5.799 203.198 3.0830002 203.198 14.003 C 203.198 24.917 212.081 33.800003 223.0 33.800003 C 233.919 33.800003 242.805 24.917004 242.805 14.003002 C 242.805 3.083 233.919 -5.799 223.0 -5.799 z " fill-opacity="0.25"/>
                    <linearGradient x1="-471.624" gradientTransform="matrix(1 0 0 -1 694.626 1031.9688)" y1="1018.7598" x2="-471.624" gradientUnits="userSpaceOnUse" y2="990.6612" xlink:type="simple" xlink:actuate="onLoad" id="XMLID_8_" xlink:show="other">
                        <stop stop-color="#ffffff" offset="0"/>
                        <stop stop-color="#6b6b6b" offset="1"/>
                    </linearGradient>
                    <path fill="url(#XMLID_8_)" d="M 241.659 14.001 C 241.659 24.305 233.306 32.652 223.0 32.652 C 212.694 32.652 204.344 24.302 204.344 14.001001 C 204.344 3.696001 212.69499 -4.657999 223.0 -4.657999 C 233.307 -4.658 241.659 3.696 241.659 14.001 z "/>
                </g>
            </g>
        </g>
        <g stroke-opacity="0.25" fill-opacity="0.25">
            <path d="M 237.594 18.642 L 233.54599 18.653 L 233.52 6.03 C 233.513 3.946 232.058 2.4950001 229.98401 2.5000002 L 212.80602 2.5440001 C 208.54701 2.562 209.28502 7.525 209.28502 8.610001 L 213.32703 8.596001 L 213.35803 21.224 C 213.36603 23.306002 214.82004 24.758001 216.90103 24.748001 L 234.07503 24.708 C 237.888 24.712 237.623 20.979 237.594 18.642 z M 211.296 6.584 C 211.296 6.584 211.091 4.9440002 212.35501 4.6410003 C 213.44301 4.9210005 213.322 6.584 213.322 6.584 L 211.296 6.584 z M 217.915 22.725 C 217.915 22.725 215.37999 23.162 215.37999 21.225 L 215.34299 6.3220005 C 215.34299 5.6640005 215.21999 5.0740004 214.999 4.5610003 L 229.984 4.511 C 230.954 4.517 231.506 5.066 231.506 6.038 L 231.536 18.659 L 219.42 18.694 C 219.453 20.733 219.778 22.788 217.915 22.725 z M 234.075 22.689 L 221.124 22.723999 C 221.487 22.233 221.446 21.004 221.446 20.697998 L 235.575 20.666998 C 235.574 21.38 235.579 22.689 234.075 22.689 z "/>
            <rect x="217.368" width="12.114" y="6.558" height="2.012"/>
            <rect x="217.378" width="12.11" y="10.596" height="2.021"/>
            <polygon points="217.381,14.649 217.39,16.671 229.512,16.643 229.495,14.618   "/>
        </g>
    </g>
</svg>
