<?xml version="1.0" encoding="UTF-8"?>
<svg xmlns="http://www.w3.org/2000/svg" xmlns:xlink="http://www.w3.org/1999/xlink" contentScriptType="text/ecmascript" width="88" baseProfile="tiny" zoomAndPan="magnify" contentStyleType="text/css" viewBox="0 0 88 88" height="88" preserveAspectRatio="xMidYMid meet" version="1.1">
    <linearGradient x1="-654.6709" gradientTransform="matrix(1 0 0 -1 694.626 1083.9678)" y1="1028.1069" x2="-658.9409" gradientUnits="userSpaceOnUse" y2="1010.7969" xlink:type="simple" xlink:actuate="onLoad" id="XMLID_67_" xlink:show="other">
        <stop stop-color="#aabbd7" offset="0"/>
        <stop stop-color="#92a5cc" offset="0.26"/>
        <stop stop-color="#6c83bb" offset="0.71"/>
        <stop stop-color="#637db5" offset="0.76"/>
        <stop stop-color="#4c6ea4" offset="0.83"/>
        <stop stop-color="#265689" offset="0.91"/>
        <stop stop-color="#003d6d" offset="0.99"/>
        <stop stop-color="#003d6d" offset="1"/>
    </linearGradient>
    <path fill="url(#XMLID_67_)" d="M 47.391 13.199 C 53.6 17.292 55.854 20.895 56.682 22.803001 C 39.171997 14.026001 14.070999 24.608002 9.924 40.605003 C 7.2939997 50.768005 12.215 63.323006 22.302 70.01401 C 38.069 80.475006 64.829 72.61201 72.491 58.008007 C 79.429 44.780006 76.667 15.7970085 47.866997 11.9220085 C 47.116 11.819 46.787 12.803 47.391 13.199 z "/>
    <linearGradient x1="-615.8838" gradientTransform="matrix(1 0 0 -1 694.626 1083.9678)" y1="1036.5952" x2="-681.1047" gradientUnits="userSpaceOnUse" y2="1019.605" xlink:type="simple" xlink:actuate="onLoad" id="XMLID_68_" xlink:show="other">
        <stop stop-color="#ffffff" offset="0"/>
        <stop stop-color="#e4edf5" offset="0.1"/>
        <stop stop-color="#b4cee4" offset="0.28"/>
        <stop stop-color="#a2c2dd" offset="0.38"/>
        <stop stop-color="#8eabd1" offset="0.58"/>
        <stop stop-color="#6c83bb" offset="0.87"/>
        <stop stop-color="#637db5" offset="0.89"/>
        <stop stop-color="#4c6ea4" offset="0.92"/>
        <stop stop-color="#265689" offset="0.96"/>
        <stop stop-color="#003d6d" offset="1"/>
    </linearGradient>
    <path fill="url(#XMLID_68_)" d="M 10.064 47.771 C 9.746 57.023 21.234001 81.490005 52.587997 72.009 C 85.062996 62.189003 72.543 31.116001 72.543 31.116001 L 10.064 47.771 z "/>
    <linearGradient x1="-678.8745" gradientTransform="matrix(1 0 0 -1 694.626 1083.9678)" y1="996.5171" x2="-644.9045" gradientUnits="userSpaceOnUse" y2="1055.6271" xlink:type="simple" xlink:actuate="onLoad" id="XMLID_69_" xlink:show="other">
        <stop stop-color="#ffffff" offset="0"/>
        <stop stop-color="#fafcfd" offset="0.19"/>
        <stop stop-color="#edf3f8" offset="0.41"/>
        <stop stop-color="#d6e4f0" offset="0.63"/>
        <stop stop-color="#b7d0e5" offset="0.87"/>
        <stop stop-color="#a2c2dd" offset="1"/>
    </linearGradient>
    <path fill="url(#XMLID_69_)" d="M 57.866 24.161 C 41.762 14.676 14.995003 23.824999 10.601002 40.779 C 6.211 57.731 21.811 65.017 32.75 65.94 C 48.141 67.244 66.647995 61.305 72.205 45.354004 C 78.213005 28.112003 64.014 14.778004 47.773003 12.614002 C 57.296 18.89 57.866 24.161 57.866 24.161 z "/>
    <linearGradient x1="-672.2271" gradientTransform="matrix(1 0 0 -1 694.626 1083.9678)" y1="1016.8081" x2="-624.8859" gradientUnits="userSpaceOnUse" y2="1070.8994" xlink:type="simple" xlink:actuate="onLoad" id="XMLID_70_" xlink:show="other">
        <stop stop-color="#e6eef4" offset="0"/>
        <stop stop-color="#d7b8d4" offset="0.12"/>
        <stop stop-color="#c77cb2" offset="0.27"/>
        <stop stop-color="#bd579c" offset="0.39"/>
        <stop stop-color="#b94994" offset="0.44"/>
        <stop stop-color="#ab418b" offset="0.48"/>
        <stop stop-color="#7c266a" offset="0.63"/>
        <stop stop-color="#5a1253" offset="0.76"/>
        <stop stop-color="#450544" offset="0.87"/>
        <stop stop-color="#3d013f" offset="0.94"/>
        <stop stop-color="#3d013f" offset="1"/>
    </linearGradient>
    <path fill="url(#XMLID_70_)" d="M 59.189 47.178 L 54.222 47.97 L 51.629 47.157 C 51.905003 46.501003 51.873 45.806 51.571003 45.144 C 55.272003 45.028 58.778004 43.678 60.524002 41.384003 C 63.065002 38.044003 60.925003 34.008003 55.747 32.385002 C 54.186 31.895002 52.530003 31.710003 50.901 31.742002 C 50.246002 29.501003 48.055 27.472002 44.639 26.400002 C 38.878 24.594002 31.89 26.153002 29.057999 29.872002 C 27.298998 32.184002 27.560999 34.795002 29.394 36.875 C 28.223999 36.649 24.776999 36.281 22.437 38.839 L 16.708 46.361 C 15.281 48.235 16.479 50.499 19.383 51.409 L 37.642 57.135002 C 43.225998 58.940002 46.127 54.553 46.127 54.553 L 48.596 55.327 L 50.684002 58.54 L 54.824 59.811 L 63.449 48.484 L 59.189 47.178 z M 42.917 28.671 C 48.199 30.404999 47.152 33.781998 46.813 34.534 L 47.641 34.898 C 48.634 34.5 51.493 33.809 54.028 34.650997 C 57.196 35.701996 58.608 38.193996 57.018 40.285995 C 55.422 42.381996 51.483 43.285995 48.25 42.242996 C 44.352 40.984997 44.514 38.273994 44.771 37.526997 L 43.985 37.177 C 41.446 38.188 38.781002 38.525997 36.1 37.625 C 32.218 36.321 30.691998 33.441 32.57 30.973999 C 34.451 28.503 39.394 27.514 42.917 28.671 z M 41.985 54.287 C 41.509 54.913998 40.339 55.177 39.369 54.871 L 21.112 49.147 C 20.144 48.842 19.744 48.089 20.22 47.461998 L 25.949 39.940998 C 26.706999 39.106 28.095 39.209 28.564999 39.356 L 46.822 45.082 C 48.204998 45.606 47.942997 46.463 47.715 46.766 L 41.985 54.287 z M 51.637 53.475 L 48.02 52.341 L 50.176 49.509 L 53.774 50.635998 L 57.981 49.961998 L 53.329 56.068996 L 51.637 53.475 z "/>
    <linearGradient x1="-679.3794" gradientTransform="matrix(1 0 0 -1 694.626 1083.9678)" y1="1022.2524" x2="-632.0294" gradientUnits="userSpaceOnUse" y2="1076.3424" xlink:type="simple" xlink:actuate="onLoad" id="XMLID_71_" xlink:show="other">
        <stop stop-color="#e6eef4" offset="0"/>
        <stop stop-color="#d7b8d4" offset="0.12"/>
        <stop stop-color="#c77cb2" offset="0.27"/>
        <stop stop-color="#bd579c" offset="0.39"/>
        <stop stop-color="#b94994" offset="0.44"/>
        <stop stop-color="#ab418b" offset="0.48"/>
        <stop stop-color="#7c266a" offset="0.63"/>
        <stop stop-color="#5a1253" offset="0.76"/>
        <stop stop-color="#450544" offset="0.87"/>
        <stop stop-color="#3d013f" offset="0.94"/>
        <stop stop-color="#3d013f" offset="1"/>
    </linearGradient>
    <polygon fill="url(#XMLID_71_)" points="25.133,47.396 29.546,48.779 31.715,45.93 27.302,44.546 "/>
    <linearGradient x1="-672.2378" gradientTransform="matrix(1 0 0 -1 694.626 1083.9678)" y1="1016.8188" x2="-624.8978" gradientUnits="userSpaceOnUse" y2="1070.9088" xlink:type="simple" xlink:actuate="onLoad" id="XMLID_72_" xlink:show="other">
        <stop stop-color="#e6eef4" offset="0"/>
        <stop stop-color="#d7b8d4" offset="0.12"/>
        <stop stop-color="#c77cb2" offset="0.27"/>
        <stop stop-color="#bd579c" offset="0.39"/>
        <stop stop-color="#b94994" offset="0.44"/>
        <stop stop-color="#ab418b" offset="0.48"/>
        <stop stop-color="#7c266a" offset="0.63"/>
        <stop stop-color="#5a1253" offset="0.76"/>
        <stop stop-color="#450544" offset="0.87"/>
        <stop stop-color="#3d013f" offset="0.94"/>
        <stop stop-color="#3d013f" offset="1"/>
    </linearGradient>
    <polygon fill="url(#XMLID_72_)" points="34.467,50.322 38.881,51.705 41.049,48.856 36.635,47.472 "/>
</svg>
