<?xml version="1.0" encoding="UTF-8"?>
<svg xmlns="http://www.w3.org/2000/svg" xmlns:xlink="http://www.w3.org/1999/xlink" contentScriptType="text/ecmascript" width="58" baseProfile="tiny" zoomAndPan="magnify" contentStyleType="text/css" viewBox="-59 -86 58 58" height="58" preserveAspectRatio="xMidYMid meet" version="1.1">
    <g>
        <g>
            <g>
                <rect x="-59" width="58" fill="none" y="-86" height="58"/>
                <g>
                    <path d="M -57.206 -57.966 C -57.206 -43.499 -45.434002 -31.729 -30.967001 -31.729 C -16.498001 -31.729 -4.729 -43.5 -4.729 -57.966 C -4.729 -72.434 -16.5 -84.204 -30.967001 -84.204 C -45.434 -84.205 -57.206 -72.435 -57.206 -57.966 z " fill-opacity="0.01"/>
                    <path d="M -56.06 -57.966 C -56.06 -44.129997 -44.804 -32.874 -30.967001 -32.874 C -17.128002 -32.874 -5.8710003 -44.13 -5.8710003 -57.966 C -5.8710003 -71.802 -17.128 -83.057 -30.967001 -83.057 C -44.804 -83.058 -56.06 -71.803 -56.06 -57.966 z " fill-opacity="0.02"/>
                    <path d="M -54.917 -57.966 C -54.917 -44.764 -44.172 -34.02 -30.967 -34.02 C -17.758999 -34.02 -7.0199986 -44.764 -7.0199986 -57.966 C -7.0199986 -71.173996 -17.759998 -81.913 -30.967 -81.913 C -44.171 -81.914 -54.917 -71.174 -54.917 -57.966 z " fill-opacity="0.04"/>
                    <path d="M -53.95 -57.966 C -53.95 -45.294 -43.64 -34.988 -30.967001 -34.988 C -18.298 -34.988 -7.9890003 -45.294 -7.9890003 -57.966 C -7.9890003 -70.637 -18.298 -80.946 -30.967001 -80.946 C -43.64 -80.946 -53.95 -70.638 -53.95 -57.966 z " fill-opacity="0.07"/>
                </g>
                <linearGradient x1="-1419.2524" gradientTransform="matrix(1 0 0 1 1389.252 -792.3545)" y1="757.6973" x2="-1419.2524" gradientUnits="userSpaceOnUse" y2="721.946" xlink:type="simple" xlink:actuate="onLoad" id="XMLID_5_" xlink:show="other">
                    <stop stop-color="#000000" offset="0"/>
                    <stop stop-color="#000000" offset="0.3933"/>
                    <stop stop-color="#52a2a5" offset="0.9944"/>
                    <stop stop-color="#52a2a5" offset="1"/>
                </linearGradient>
                <path fill="url(#XMLID_5_)" d="M -30.0 -79.903 C -42.631 -79.903 -52.908 -69.63 -52.908 -57.0 C -52.908 -44.372 -42.631 -34.098 -30.0 -34.098 C -17.369999 -34.098 -7.0930004 -44.371 -7.0930004 -57.0 C -7.093 -69.63 -17.37 -79.903 -30.0 -79.903 z "/>
                <linearGradient x1="-1419.2524" gradientTransform="matrix(1 0 0 1 1389.252 -792.3545)" y1="709.7217" x2="-1419.2524" gradientUnits="userSpaceOnUse" y2="756.2848" xlink:type="simple" xlink:actuate="onLoad" id="XMLID_6_" xlink:show="other">
                    <stop stop-color="#000000" offset="0"/>
                    <stop stop-color="#000000" offset="0.3933"/>
                    <stop stop-color="#52a2a5" offset="0.9944"/>
                    <stop stop-color="#52a2a5" offset="1"/>
                </linearGradient>
                <path fill="url(#XMLID_6_)" d="M -30.0 -78.029 C -41.599 -78.029 -51.033 -68.593 -51.033 -56.997 C -51.033 -45.404 -41.599 -35.973 -30.0 -35.973 C -18.402 -35.973 -8.968 -45.405 -8.968 -56.997 C -8.968 -68.595 -18.402 -78.029 -30.0 -78.029 z "/>
                <linearGradient x1="-1419.2505" gradientTransform="matrix(1 0 0 1 1389.252 -792.3545)" y1="754.9121" x2="-1419.2505" gradientUnits="userSpaceOnUse" y2="710.504" xlink:type="simple" xlink:actuate="onLoad" id="XMLID_7_" xlink:show="other">
                    <stop stop-color="#000000" offset="0"/>
                    <stop stop-color="#000000" offset="0.3933"/>
                    <stop stop-color="#52a2a5" offset="0.9944"/>
                    <stop stop-color="#52a2a5" offset="1"/>
                </linearGradient>
                <path fill="url(#XMLID_7_)" d="M -30.0 -76.799 C -40.919 -76.799 -49.802002 -67.91701 -49.802002 -56.997 C -49.802002 -46.082 -40.919003 -37.199 -30.000002 -37.199 C -19.081001 -37.199 -10.195002 -46.083 -10.195002 -56.997 C -10.195 -67.917 -19.081 -76.799 -30.0 -76.799 z "/>
                <linearGradient x1="-724.6245" gradientTransform="matrix(1 0 0 -1 694.626 1031.9688)" y1="1089.7598" x2="-724.6245" gradientUnits="userSpaceOnUse" y2="1061.6602" xlink:type="simple" xlink:actuate="onLoad" id="XMLID_8_" xlink:show="other">
                    <stop stop-color="#ffffff" offset="0"/>
                    <stop stop-color="#7fd3ff" offset="1"/>
                </linearGradient>
                <path fill="url(#XMLID_8_)" d="M -11.341 -56.999 C -11.341 -46.697 -19.694 -38.348 -30.0 -38.348 C -40.306 -38.348 -48.656 -46.697998 -48.656 -56.999 C -48.656 -67.304 -40.306 -75.659 -29.999998 -75.659 C -19.693 -75.659 -11.341 -67.304 -11.341 -56.999 z "/>
            </g>
        </g>
    </g>
    <path d="M -29.897 -72.667 C -38.175 -72.667 -45.434 -65.925 -45.434 -57.134 C -45.434 -48.565 -38.462997 -41.59 -29.897 -41.59 C -21.327 -41.59 -14.355 -48.565 -14.355 -57.134 C -14.359 -65.802 -21.29 -72.667 -29.897 -72.667 z M -41.942 -62.342 C -29.606 -66.126 -30.539001 -68.044 -31.466002 -70.188995 C -29.880001 -70.37399 -28.703001 -70.326996 -27.197002 -70.009995 C -27.271002 -68.90399 -25.136002 -66.662994 -25.616003 -65.96999 C -28.310003 -66.176994 -31.219004 -64.95999 -32.953003 -61.791992 C -33.15 -61.42499 -32.976 -58.971992 -33.235004 -58.971992 C -34.324005 -58.971992 -36.035004 -56.847992 -33.484005 -56.414993 C -31.180004 -58.603992 -31.835005 -58.971992 -27.924006 -56.414993 C -27.114006 -56.232994 -27.135006 -58.430992 -25.600006 -57.846992 C -22.558006 -56.68999 -25.409006 -53.99399 -28.459005 -54.98199 C -35.261005 -59.02399 -38.210007 -52.179993 -36.691006 -49.76999 C -35.435005 -47.43499 -32.564007 -48.15199 -30.951006 -47.625988 C -29.888006 -47.26999 -29.434006 -45.30599 -29.247005 -43.99799 C -38.937 -43.009 -45.829 -53.894 -41.942 -62.342 z M -22.853 -46.032 C -22.757 -46.272003 -19.86 -51.385002 -19.653 -53.542 C -19.471 -55.338 -21.139 -57.503 -18.396 -56.596 C -17.898 -56.433002 -17.432 -55.145 -16.924 -55.008 C -17.54 -51.237 -19.752 -48.006 -22.853 -46.032 z "/>
</svg>
