<?xml version="1.0" encoding="UTF-8"?>
<svg xmlns="http://www.w3.org/2000/svg" xmlns:xlink="http://www.w3.org/1999/xlink" contentScriptType="text/ecmascript" width="100" baseProfile="tiny" zoomAndPan="magnify" contentStyleType="text/css" viewBox="0.005 0.003 100 69" height="69" preserveAspectRatio="xMidYMid meet" version="1.1">
    <rect x="0" width="100.001" fill="none" y="0" height="69.047"/>
    <linearGradient x1="-655.2054" gradientTransform="matrix(1 0 0 -1 694.626 1064.9749)" y1="1053.1935" x2="-636.5757" gradientUnits="userSpaceOnUse" y2="1004.9537" xlink:type="simple" xlink:actuate="onLoad" id="XMLID_868_" xlink:show="other">
        <stop stop-color="#aabbd7" offset="0"/>
        <stop stop-color="#92a5cc" offset="0.2634"/>
        <stop stop-color="#6c83bb" offset="0.7135"/>
        <stop stop-color="#637db5" offset="0.7446"/>
        <stop stop-color="#4c6ea4" offset="0.7945"/>
        <stop stop-color="#265689" offset="0.8563"/>
        <stop stop-color="#003d6d" offset="0.9101"/>
        <stop stop-color="#003d6d" offset="1"/>
    </linearGradient>
    <path fill="url(#XMLID_868_)" d="M 35.258 13.348 L 35.258 13.348 C 35.347 13.403 35.475998 13.474999 35.653 13.563 L 35.653 13.563 C 36.133 13.806 36.98 14.172999 38.398 14.6449995 L 38.398 14.6449995 C 39.417 14.985999 40.125 15.106 40.619 15.106 L 40.619 15.106 C 41.162 15.102 41.447 14.977 41.715 14.802 L 41.715 14.802 L 42.212 14.877 C 43.151 16.024 44.297 18.008 44.297 20.812 L 44.297 20.812 C 44.297 22.475 43.894 24.416 42.827 26.629 L 42.827 26.629 C 38.693 35.132 35.383 34.406 35.256 41.834 L 35.256 41.834 C 35.145 47.062 33.432 48.065 32.956 48.19 L 32.956 48.19 C 32.79 48.223 32.483 48.253998 32.094 48.253998 L 32.094 48.253998 C 31.835001 48.253998 31.552002 48.238 31.277002 48.190998 L 31.277002 48.190998 C 31.009003 48.162 30.270002 48.058 29.816002 47.211 L 29.816002 47.211 C 29.346003 46.378998 29.008001 44.91 28.950003 42.023 L 28.950003 42.023 C 28.823002 34.593998 25.512003 35.32 21.379002 26.814999 L 21.379002 26.814999 C 20.311 24.605999 19.907001 22.661 19.907001 20.998999 L 19.907001 20.998999 C 19.907001 18.068998 21.157001 16.033998 22.119001 14.913999 L 22.119001 14.913999 L 22.6 14.84 C 22.848 14.992001 23.126 15.102 23.633 15.104 L 23.633 15.104 C 24.126999 15.104 24.833 14.983 25.852 14.645 L 25.852 14.645 C 27.790998 14.0 28.661 13.551001 28.991999 13.35 L 28.991999 13.35 C 28.943998 13.09 28.888998 12.647 28.888998 11.968 L 28.888998 11.968 C 28.888998 11.918 28.886997 11.857 28.888998 11.803 L 28.888998 11.803 C 28.896997 11.086 28.958998 10.614 29.014997 10.328 L 29.014997 10.328 C 28.530998 10.12 27.493998 9.698 26.410997 9.404 L 26.410997 9.404 C 24.888998 8.987 23.514997 8.7890005 22.980997 8.785 L 22.980997 8.785 C 22.967997 8.787 22.960997 8.785 22.958998 8.785 L 22.958998 8.785 L 22.958998 8.785 L 22.958998 8.785 C 22.956997 8.785 22.954998 8.785 22.953999 8.785 L 22.953999 8.785 L 22.953999 8.783 L 22.944998 8.785 C 22.506998 8.783 21.989998 9.035 21.639997 9.290999 L 21.639997 9.290999 L 21.643997 9.292999 C 21.632998 9.315999 21.617998 9.362999 21.603996 9.424999 L 21.603996 9.424999 C 21.571997 9.548999 21.552996 9.730999 21.541996 9.923999 L 21.541996 9.923999 L 21.364996 10.222999 C 20.960997 10.472999 16.327995 13.472999 16.336996 19.647999 L 16.336996 19.647999 C 16.336996 20.895998 16.523996 22.278 16.977997 23.801998 L 16.977997 23.801998 C 19.534996 32.514 25.022997 38.28 25.221996 41.048996 L 25.221996 41.048996 C 25.226995 41.154995 25.226995 41.270996 25.226995 41.389996 L 25.226995 41.389996 C 25.226995 42.053997 25.171995 42.971996 25.173996 43.997997 L 25.173996 43.997997 C 25.169996 45.691998 25.320995 47.678997 26.042995 49.183 L 26.042995 49.183 C 26.775995 50.683 27.971996 51.724 30.321995 51.739998 L 30.321995 51.739998 C 30.345995 51.739998 30.368996 51.739998 30.391994 51.741997 L 30.391994 51.741997 L 30.745995 52.135 C 30.736994 52.333 30.729994 52.557 30.727995 52.821 L 30.727995 52.821 C 30.734995 54.327 30.919994 56.805 32.195995 59.065 L 32.195995 59.065 C 33.413994 61.289997 35.923996 63.204998 39.858994 63.209 L 39.858994 63.209 C 39.904995 63.209 39.947994 63.209 39.99399 63.209 L 39.99399 63.209 C 42.36199 63.207 45.240993 62.603 48.80899 61.176 L 48.80899 61.176 C 52.67799 59.628998 54.89699 56.768997 56.47699 54.488 L 56.47699 54.488 C 57.23999 53.398 58.54499 50.175 58.91499 46.986 L 58.91499 46.986 C 59.02999 46.039 59.06799 45.041 59.06799 44.093 L 59.06799 44.093 C 59.07299 42.038998 58.86099 40.212997 58.75899 39.783997 L 58.75899 39.783997 C 58.58699 39.038 55.80999 27.230995 55.80199 24.714996 L 55.80199 24.714996 C 55.80199 24.713997 55.79999 24.701996 55.79999 24.677996 L 55.79999 24.677996 C 55.79999 24.671995 55.79999 24.665997 55.79999 24.656996 L 55.79999 24.656996 C 55.80199 23.889996 55.92699 23.330996 56.18299 22.921995 L 56.18299 22.921995 C 56.35699 22.635996 56.63599 22.352995 57.08899 22.137995 L 57.08899 22.137995 L 57.57499 22.280994 C 58.681988 24.113995 60.53999 25.352995 62.37199 25.344994 L 62.37199 25.344994 C 63.54399 25.358994 65.51999 24.740993 66.34699 23.983994 L 66.34699 23.983994 C 66.395996 23.942993 66.45099 23.866993 66.61099 23.696993 L 66.61099 23.696993 C 68.147995 22.589993 69.20599 20.557993 69.20599 18.218992 L 69.20599 18.218992 C 69.203995 14.641993 66.76799 11.832993 63.873993 11.823992 L 63.873993 11.823992 L 63.873993 11.446992 L 63.873993 11.073992 C 67.285995 11.084991 69.95 14.317991 69.95799 18.218992 L 69.95799 18.218992 C 69.95599 20.782991 68.80699 23.037992 67.11099 24.244991 L 67.11099 24.244991 C 67.051994 24.309992 66.979996 24.423992 66.84499 24.543991 L 66.84499 24.543991 C 65.76299 25.484991 63.766994 26.08299 62.371994 26.09699 L 62.371994 26.09699 C 60.312996 26.088991 58.369995 24.82299 57.131996 22.97999 L 57.131996 22.97999 C 56.983997 23.08699 56.901997 23.19299 56.815994 23.321991 L 56.815994 23.321991 C 56.672993 23.546991 56.549995 23.972992 56.549995 24.657991 L 56.549995 24.657991 L 56.539997 24.657991 L 56.544 24.71499 L 56.55 24.71499 C 56.55 24.71499 56.552 24.71499 56.55 24.72699 L 56.55 24.72699 C 56.55 27.00199 59.322998 38.92099 59.489 39.61499 L 59.489 39.61499 C 59.612 40.17099 59.815 41.97599 59.816998 44.09399 L 59.816998 44.09399 C 59.816998 45.06099 59.775997 46.08799 59.661 47.07399 L 59.661 47.07399 C 59.259 50.40999 57.964 53.64199 57.093 54.91299 L 57.093 54.91299 C 55.495 57.22499 53.167 60.24199 49.086 61.87399 L 49.086 61.87399 C 45.455997 63.31999 42.488 63.95599 40.0 63.95899 L 40.0 63.95899 C 39.95 63.961987 39.902 63.961987 39.856 63.961987 L 39.856 63.961987 C 35.666 63.96599 32.867 61.877987 31.535 59.431988 L 31.535 59.431988 C 30.167 56.995987 29.985 54.390987 29.976 52.82699 L 29.976 52.82699 C 29.976 52.70699 29.978 52.59499 29.98 52.488987 L 29.98 52.488987 C 27.584 52.392986 26.121 51.136986 25.361 49.509987 L 25.361 49.509987 C 24.558 47.815987 24.423 45.740986 24.42 44.003986 L 24.42 44.003986 C 24.42 42.95199 24.475 42.022987 24.475 41.395985 L 24.475 41.395985 C 24.475 41.280983 24.473 41.174984 24.470001 41.083984 L 24.470001 41.083984 C 24.459002 38.992985 18.866001 32.807983 16.253002 24.020985 L 16.253002 24.020985 C 15.781002 22.428986 15.583002 20.975985 15.583002 19.652985 L 15.583002 19.652985 C 15.592002 13.510984 19.839003 10.337985 20.810001 9.692985 L 20.810001 9.692985 C 20.841002 9.325985 20.862001 8.993984 21.183 8.698984 L 21.183 8.698984 C 21.601 8.398984 22.201 8.065984 22.883001 8.042984 L 22.883001 8.042984 C 22.914001 8.036984 22.928001 8.038984 22.937002 8.038984 L 22.937002 8.038984 C 22.942001 8.038984 22.946003 8.041985 22.951002 8.038984 L 22.951002 8.038984 C 23.599003 8.041985 24.995003 8.249985 26.606003 8.685985 L 26.606003 8.685985 C 28.165003 9.112985 29.598003 9.7729845 29.610003 9.776984 L 29.610003 9.776984 L 29.802002 10.251985 C 29.807001 10.253984 29.775002 10.316984 29.732002 10.564984 L 29.732002 10.564984 C 29.689003 10.812984 29.643002 11.215984 29.636002 11.830984 L 29.636002 11.830984 C 29.634 11.867984 29.634 11.914984 29.634 11.974984 L 29.634 11.974984 C 29.634 12.512984 29.67 12.879984 29.706001 13.106984 L 29.706001 13.106984 C 29.740002 13.333984 29.766 13.395984 29.766 13.395984 L 29.766 13.395984 L 29.666 13.795983 C 29.593 13.858983 28.972 14.397984 26.083 15.363983 L 26.083 15.363983 C 25.02 15.715983 24.243 15.857984 23.629 15.859983 L 23.629 15.859983 C 23.168 15.861983 22.796 15.773983 22.492 15.638984 L 22.492 15.638984 C 21.643002 16.706984 20.652 18.488983 20.652 21.005983 L 20.652 21.005983 C 20.652 22.548983 21.024 24.372984 22.049 26.497984 L 22.049 26.497984 C 25.980999 34.708984 29.525 34.202984 29.692 42.014984 L 29.692 42.014984 C 29.744999 44.848984 30.102999 46.229984 30.462 46.846985 L 30.462 46.846985 C 30.834 47.444984 31.046999 47.384983 31.4 47.460983 L 31.4 47.460983 C 31.615 47.497982 31.862 47.514984 32.089 47.514984 L 32.089 47.514984 C 32.407 47.514984 32.701 47.481983 32.783 47.466984 L 32.783 47.466984 C 32.79 47.460983 32.805 47.454983 32.826 47.445984 L 32.826 47.445984 C 32.867 47.421986 32.93 47.382984 33.005 47.316982 L 33.005 47.316982 C 33.157 47.18798 33.363003 46.960983 33.577 46.570984 L 33.577 46.570984 C 34.003998 45.794983 34.453 44.365982 34.503 41.826984 L 34.503 41.826984 C 34.670998 34.014984 38.211998 34.518986 42.147 26.310986 L 42.147 26.310986 C 43.172 24.183985 43.542 22.357986 43.542 20.817986 L 43.542 20.817986 C 43.542 18.417986 42.641 16.689985 41.822 15.6079855 L 41.822 15.6079855 C 41.508 15.757985 41.113 15.863985 40.614998 15.859985 L 40.614998 15.859985 C 40.001 15.859985 39.221996 15.716986 38.157997 15.363985 L 38.157997 15.363985 C 35.269997 14.396985 34.648 13.857985 34.577995 13.795985 L 34.577995 13.795985 L 34.475994 13.395986 C 34.461994 13.3909855 34.607994 13.051986 34.607994 11.974985 L 34.607994 11.974985 C 34.604996 11.920985 34.604996 11.868985 34.607994 11.815985 L 34.607994 11.815985 C 34.600994 11.216985 34.552994 10.813985 34.509995 10.565985 L 34.509995 10.565985 C 34.466995 10.318985 34.439995 10.252985 34.439995 10.252985 L 34.439995 10.252985 L 34.631996 9.777985 C 34.643997 9.773985 36.076996 9.113985 37.635998 8.686985 L 37.635998 8.686985 C 39.244 8.248985 40.637997 8.044985 41.290997 8.039985 L 41.290997 8.039985 C 41.292995 8.039985 41.312996 8.039985 41.304996 8.042985 L 41.304996 8.042985 C 42.007996 8.049985 42.628998 8.391985 43.057995 8.699985 L 43.057995 8.699985 C 43.339996 8.951984 43.377995 9.224984 43.412994 9.523985 L 43.412994 9.523985 C 44.429993 10.2069845 48.600994 13.378984 48.606995 19.462986 L 48.606995 19.462986 C 48.606995 20.784986 48.409996 22.241985 47.939995 23.829987 L 47.939995 23.829987 C 45.328995 32.618988 39.735992 38.807987 39.724995 40.902985 L 39.724995 40.902985 C 39.714996 41.011986 39.712994 41.138985 39.712994 41.281986 L 39.712994 41.281986 C 39.712994 41.810986 39.739994 42.542988 39.739994 43.370987 L 39.739994 43.370987 C 39.739994 43.710987 39.737995 44.066986 39.725994 44.428986 L 39.725994 44.428986 C 39.720993 46.059986 39.541996 47.871986 38.763992 49.323986 L 38.763992 49.323986 C 37.955994 51.100986 36.365993 52.491985 33.700993 52.473988 L 33.700993 52.473988 C 33.643993 52.473988 33.586994 52.473988 33.566994 52.47199 L 33.566994 52.47199 C 33.559994 52.47199 33.552994 52.473988 33.545994 52.473988 L 33.545994 52.473988 C 33.541992 52.586987 33.539993 52.719986 33.538994 52.872986 L 33.538994 52.872986 C 33.538994 52.872986 33.538994 52.872986 33.538994 52.900986 L 33.538994 52.900986 C 33.533993 54.136986 33.765995 56.173985 34.629993 57.663986 L 34.629993 57.663986 C 35.568993 59.191986 36.775993 60.318985 39.949993 60.392986 L 39.949993 60.392986 C 39.964993 60.392986 39.976994 60.392986 39.985992 60.392986 L 39.985992 60.392986 C 39.991993 60.392986 39.99599 60.392986 39.999992 60.392986 L 39.999992 60.392986 C 41.87599 60.394985 44.428993 59.894985 47.75899 58.562984 L 47.75899 58.562984 C 51.270992 57.154984 52.956993 54.620983 54.15799 52.886986 L 54.15799 52.886986 C 54.67899 52.138985 55.827988 49.580986 56.12299 46.906986 L 56.12299 46.906986 C 56.23799 45.861988 56.28499 44.857986 56.28499 43.929985 L 56.28499 43.929985 C 56.28499 42.226986 56.12499 40.769985 55.93799 39.765984 L 55.93799 39.765984 C 55.648987 38.197983 53.03299 27.898983 52.98499 24.667984 L 52.98499 24.667984 C 52.98499 23.607985 53.153988 22.489985 53.765987 21.470984 L 53.765987 21.470984 C 54.24199 20.671984 54.980988 20.048983 55.862988 19.616983 L 55.862988 19.616983 C 55.821987 19.315983 55.79899 19.010983 55.79899 18.695984 L 55.79899 18.695984 C 55.786987 14.801984 58.182987 12.049984 61.550987 11.340984 L 61.550987 11.340984 C 62.003986 11.245984 62.542988 11.163984 63.057987 11.146984 L 63.057987 11.146984 C 63.315987 11.105984 63.585987 11.076984 63.870987 11.076984 L 63.870987 11.076984 L 63.870987 11.449985 L 63.870987 11.826984 C 63.639988 11.826984 63.407986 11.849984 63.128986 11.892984 L 63.128986 11.892984 C 62.626987 11.910984 62.122986 11.985985 61.70899 12.074985 L 61.70899 12.074985 C 58.653988 12.740985 56.56199 15.113985 56.54899 18.696985 L 56.54899 18.696985 C 56.54899 19.059986 56.585987 19.418985 56.647987 19.778986 L 56.647987 19.778986 L 56.425987 20.184986 C 55.542988 20.568987 54.835987 21.139986 54.40999 21.857986 L 54.40999 21.857986 C 53.89299 22.716986 53.737988 23.683987 53.73499 24.663986 L 53.73499 24.663986 C 53.765987 27.670986 56.37099 38.018986 56.67399 39.63199 L 56.67399 39.63199 C 56.868988 40.68399 57.03299 42.17999 57.03299 43.931988 L 57.03299 43.931988 C 57.03299 44.88699 56.98399 45.912987 56.86499 46.99299 L 56.86499 46.99299 C 56.54099 49.83099 55.39399 52.40299 54.77299 53.31299 L 54.77299 53.31299 C 53.57999 55.03999 51.770992 57.765987 48.03599 59.26199 L 48.03599 59.26199 C 44.64199 60.61699 42.005993 61.14499 39.997993 61.14499 L 39.997993 61.14499 L 39.979992 61.14499 L 39.979992 61.14499 C 36.590992 61.12199 34.97399 59.74099 33.98099 58.043987 L 33.98099 58.043987 C 33.006992 56.34799 32.789993 54.22299 32.78599 52.899986 L 32.78599 52.899986 C 32.78599 52.883987 32.782993 52.844986 32.78799 52.825985 L 32.78799 52.825985 C 32.78799 52.524986 32.79999 52.282986 32.80999 52.093987 L 32.80999 52.093987 L 33.16399 51.743988 C 33.29999 51.73599 33.42199 51.72999 33.53999 51.72299 L 33.53999 51.72299 C 33.59299 51.724987 33.64399 51.724987 33.69699 51.724987 L 33.69699 51.724987 C 36.09899 51.70799 37.32199 50.593987 38.09199 48.986988 L 38.09199 48.986988 C 38.78099 47.711987 38.971992 46.003986 38.97399 44.41499 L 38.97399 44.41499 C 38.985992 44.05799 38.98799 43.70799 38.98799 43.37199 L 38.98799 43.37199 C 38.98799 42.55899 38.96099 41.83899 38.96099 41.28399 L 38.96099 41.28399 C 38.96099 41.12799 38.96399 40.98499 38.972992 40.86399 L 38.972992 40.86399 C 39.16999 38.097992 44.66099 32.32999 47.21799 23.616991 L 47.21799 23.616991 C 47.666992 22.095991 47.85299 20.71099 47.85299 19.462992 L 47.85299 19.462992 C 47.861988 13.415992 43.42399 10.417992 42.85999 10.058991 L 42.85999 10.058991 L 42.694 9.77 C 42.676 9.537001 42.628 9.332001 42.6 9.286 L 42.6 9.286 C 42.259 9.0390005 41.764 8.7960005 41.294 8.784 L 41.294 8.784 L 41.294 8.786 C 40.778 8.784 39.384 8.981 37.836 9.405001 L 37.836 9.405001 C 36.754997 9.699 35.718 10.120001 35.232998 10.327001 L 35.232998 10.327001 C 35.288998 10.613001 35.35 11.088 35.357998 11.807001 L 35.357998 11.807001 C 35.357998 11.862001 35.357998 11.916001 35.357998 11.968001 L 35.357998 11.968001 M 42.6 9.283 L 42.601997 9.283 C 42.601997 9.282 42.601997 9.282 42.601997 9.282 L 42.601997 9.282 C 42.602 9.282 42.601 9.283 42.6 9.283 L 42.6 9.283 z "/>
    <linearGradient x1="-662.5209" gradientTransform="matrix(1 0 0 -1 694.626 1064.9749)" y1="1058.7032" x2="-662.5209" gradientUnits="userSpaceOnUse" y2="990.8535" xlink:type="simple" xlink:actuate="onLoad" id="XMLID_869_" xlink:show="other">
        <stop stop-color="#ffffff" offset="0"/>
        <stop stop-color="#a2c2dd" offset="0.35"/>
        <stop stop-color="#6c83bb" offset="0.7"/>
        <stop stop-color="#003d6d" offset="1"/>
    </linearGradient>
    <path fill="url(#XMLID_869_)" d="M 47.589 23.756 C 50.445 14.092001 43.002 9.731001 43.002 9.731001 L 40.767998 14.002001 C 40.767998 14.002001 46.526997 18.147001 42.492996 26.504002 C 38.458996 34.859 35.032997 34.244003 34.885998 41.864002 C 34.786 47.020004 33.067997 47.821003 32.879997 47.86 C 32.692997 47.901 31.965998 47.967 31.344997 47.86 C 30.724997 47.754 29.437998 47.774002 29.326998 42.051003 C 29.179998 34.432003 25.752998 35.047 21.719997 26.690002 C 17.685997 18.335003 23.444998 14.190002 23.444998 14.190002 L 21.209 9.92 C 21.209 9.92 13.766 14.281 16.621 23.945 C 19.207 32.695 24.747002 38.672 24.852001 41.099 C 24.956001 43.529 23.575 52.302 30.490002 52.157997 C 31.275002 52.221996 32.972 52.177998 33.546 52.129997 C 40.462 52.275997 39.253002 43.340996 39.359 40.910995 C 39.463 38.482 45.004 32.506 47.589 23.756 z "/>
    <path fill="#ffffff" d="M 30.487 51.759 C 23.571 51.904 25.227 43.527 25.123 41.097 C 25.018 38.668 19.477 32.692 16.891998 23.942 C 14.037 14.278 21.48 9.917 21.48 9.917 L 22.036 11.499 C 22.036 11.499 15.432999 18.366 19.467999 26.723999 C 23.502998 35.082 25.863998 34.576 26.010998 42.194 C 26.120998 47.918 26.072998 48.549 27.015997 49.873 C 27.958 51.191 30.487 51.759 30.487 51.759 z " fill-opacity="0.4"/>
    <path fill="#ffffff" d="M 33.894 51.562 C 40.81 51.707 39.154 43.33 39.259003 40.902 C 39.363003 38.472 44.904003 32.496002 47.489002 23.746 C 50.343002 14.082001 42.902 9.721001 42.902 9.721001 L 42.345 11.303 C 42.345 11.303 48.949 18.172 44.913002 26.53 C 40.88 34.885002 38.517002 34.38 38.370003 41.999 C 38.260002 47.723 38.309002 48.355 37.366 49.678 C 36.423 50.996 33.894 51.562 33.894 51.562 z " fill-opacity="0.4"/>
    <linearGradient x1="-628.9896" gradientTransform="matrix(1 0 0 -1 694.626 1064.9749)" y1="1051.7062" x2="-638.582" gradientUnits="userSpaceOnUse" y2="1035.207" xlink:type="simple" xlink:actuate="onLoad" id="XMLID_870_" xlink:show="other">
        <stop stop-color="#e6eef4" offset="0"/>
        <stop stop-color="#9ec8d1" offset="0.1492"/>
        <stop stop-color="#62a9b3" offset="0.2883"/>
        <stop stop-color="#3d95a1" offset="0.3901"/>
        <stop stop-color="#2f8e9a" offset="0.4438"/>
        <stop stop-color="#247c90" offset="0.5242"/>
        <stop stop-color="#115a7d" offset="0.699"/>
        <stop stop-color="#044571" offset="0.8433"/>
        <stop stop-color="#003d6d" offset="0.9382"/>
        <stop stop-color="#003d6d" offset="1"/>
    </linearGradient>
    <path fill="url(#XMLID_870_)" d="M 65.244 12.004 C 66.858 13.198999 67.600006 16.307 67.600006 18.730999 C 67.600006 20.946 67.992004 23.064999 66.604004 24.299 C 65.649 25.149 63.664005 25.754 62.377003 25.754 C 59.225002 25.754 56.182003 22.469 56.182003 18.730999 C 56.182003 14.992999 58.426003 12.429998 61.637 11.742999 C 62.722 11.51 64.369 11.355 65.244 12.004 z "/>
    <radialGradient gradientTransform="matrix(0.8305 0 0 -1 639.624 1064.9749)" gradientUnits="userSpaceOnUse" xlink:type="simple" r="28.3206" xlink:actuate="onLoad" cx="-697.39" id="XMLID_871_" cy="1057.3273" xlink:show="other">
        <stop stop-color="#d6e6ec" offset="0"/>
        <stop stop-color="#298595" offset="1"/>
    </radialGradient>
    <ellipse rx="5.709" ry="6.768" fill="url(#XMLID_871_)" cx="63.878" cy="18.254"/>
    <radialGradient gradientTransform="matrix(0.8305 0 0 -1 639.624 1064.9749)" gradientUnits="userSpaceOnUse" xlink:type="simple" r="10.3017" xlink:actuate="onLoad" cx="-692.6864" id="XMLID_872_" cy="1042.6827" xlink:show="other">
        <stop stop-color="#d6e6ec" offset="0"/>
        <stop stop-color="#298595" offset="1"/>
    </radialGradient>
    <ellipse rx="4.363" ry="5.254" fill="url(#XMLID_872_)" cx="63.821" cy="18.289"/>
    <linearGradient x1="-631.5394" gradientTransform="matrix(1 0 0 -1 694.626 1064.9749)" y1="1015.4425" x2="-667.9225" gradientUnits="userSpaceOnUse" y2="1033.4045" xlink:type="simple" xlink:actuate="onLoad" id="XMLID_873_" xlink:show="other">
        <stop stop-color="#ffffff" offset="0"/>
        <stop stop-color="#a2c2dd" offset="0.35"/>
        <stop stop-color="#6c83bb" offset="0.7"/>
        <stop stop-color="#003d6d" offset="1"/>
    </linearGradient>
    <path fill="url(#XMLID_873_)" d="M 31.87 59.278 C 30.551 56.932 30.367 54.389 30.359001 52.858 L 30.359001 52.858 C 30.359001 52.022003 30.425001 51.481003 30.43 51.436 L 30.43 51.436 L 30.43 51.438 L 33.223 51.782 C 33.224 51.782 33.213 51.856003 33.201 52.045002 L 33.201 52.045002 C 33.188 52.233 33.175 52.515003 33.175 52.858 L 33.175 52.858 C 33.166 54.129 33.38 56.260002 34.319 57.887 L 34.319 57.887 C 35.287 59.5 36.702 60.756 40.001 60.799 L 40.001 60.799 C 41.944 60.801 44.542 60.289 47.91 58.942 L 47.91 58.942 C 51.532 57.491 53.28 54.862 54.477 53.129 L 54.477 53.129 C 55.046 52.301003 56.196003 49.734 56.503002 46.979 C 56.841003 43.973 56.611004 41.319 56.315002 39.729 C 56.020004 38.139 53.410004 27.815 53.371002 24.701 L 53.371002 24.701 C 53.371002 23.678 53.533 22.637001 54.099003 21.697 L 54.099003 21.697 C 54.662003 20.754 55.623 20.041 56.808002 19.658 L 56.808002 19.658 L 57.697002 22.330002 C 56.982002 22.578001 56.709003 22.842001 56.509003 23.156002 L 56.509003 23.156002 C 56.313004 23.474003 56.188004 23.970001 56.188004 24.701002 L 56.188004 24.701002 C 56.149002 26.967003 58.964005 39.009003 59.134003 39.729004 C 59.304 40.452003 59.661003 43.983006 59.298004 47.061005 C 58.911003 50.323006 57.610004 53.551003 56.794003 54.731003 L 56.794003 54.731003 C 55.206 57.028004 52.932003 59.967003 48.956 61.557003 L 48.956 61.557003 C 45.357002 62.994003 42.434002 63.614002 40.002 63.616005 L 40.002 63.616005 C 39.957 63.616005 39.912 63.616005 39.867 63.616005 L 39.867 63.616005 C 35.802 63.616 33.146 61.616 31.87 59.278 L 31.87 59.278 z "/>
    <radialGradient gradientTransform="matrix(1 0 0 -1 694.626 1064.9749)" gradientUnits="userSpaceOnUse" xlink:type="simple" r="8.9247" xlink:actuate="onLoad" cx="-666.5785" id="XMLID_874_" cy="1056.9093" xlink:show="other">
        <stop stop-color="#e6eef4" offset="0"/>
        <stop stop-color="#c6dcc1" offset="0.0772"/>
        <stop stop-color="#91c06f" offset="0.211"/>
        <stop stop-color="#6bab33" offset="0.321"/>
        <stop stop-color="#539e0e" offset="0.4014"/>
        <stop stop-color="#4a9900" offset="0.4438"/>
        <stop stop-color="#398419" offset="0.5475"/>
        <stop stop-color="#22663b" offset="0.7125"/>
        <stop stop-color="#135550" offset="0.8486"/>
        <stop stop-color="#0e4e58" offset="0.9382"/>
        <stop stop-color="#0e4e58" offset="1"/>
    </radialGradient>
    <path fill="url(#XMLID_874_)" d="M 21.412 9.035 C 21.021 9.32 21.205 11.267 21.205 11.267 C 21.205 11.267 21.147 14.182 21.827 14.751 C 22.505 15.321 23.11 15.991 25.973 15.037001 C 28.835 14.083 29.418 13.548 29.418 13.548 C 29.418 13.548 29.251999 13.075001 29.268 11.842 C 29.282 10.609 29.459 10.148 29.459 10.148 C 29.459 10.148 28.034 9.4939995 26.513 9.08 C 24.925001 8.647 23.523 8.445 22.947 8.447 C 22.373 8.449 21.801 8.75 21.412 9.035 z "/>
    <radialGradient gradientTransform="matrix(1 0 0 -1 694.626 1064.9749)" gradientUnits="userSpaceOnUse" xlink:type="simple" r="11.9069" xlink:actuate="onLoad" cx="-666.4471" id="XMLID_875_" cy="1057.2531" xlink:show="other">
        <stop stop-color="#e6eef4" offset="0"/>
        <stop stop-color="#c6dcc1" offset="0.0772"/>
        <stop stop-color="#91c06f" offset="0.211"/>
        <stop stop-color="#6bab33" offset="0.321"/>
        <stop stop-color="#539e0e" offset="0.4014"/>
        <stop stop-color="#4a9900" offset="0.4438"/>
        <stop stop-color="#398419" offset="0.5475"/>
        <stop stop-color="#22663b" offset="0.7125"/>
        <stop stop-color="#135550" offset="0.8486"/>
        <stop stop-color="#0e4e58" offset="0.9382"/>
        <stop stop-color="#0e4e58" offset="1"/>
    </radialGradient>
    <path fill="url(#XMLID_875_)" d="M 21.777 9.453 C 21.387001 9.738 21.578001 11.687 21.578001 11.687 L 28.789001 11.842 L 28.794 10.47 C 28.794 10.47 28.082 9.968 26.562 9.554 C 24.974 9.121 23.57 8.918 22.995 8.921 C 22.419 8.924 22.165 9.168 21.777 9.453 z "/>
    <radialGradient gradientTransform="matrix(-1 0 0 -1 1109.1466 1064.9749)" gradientUnits="userSpaceOnUse" xlink:type="simple" r="8.9275" xlink:actuate="onLoad" cx="1072.9366" id="XMLID_876_" cy="1056.9093" xlink:show="other">
        <stop stop-color="#e6eef4" offset="0"/>
        <stop stop-color="#c6dcc1" offset="0.0772"/>
        <stop stop-color="#91c06f" offset="0.211"/>
        <stop stop-color="#6bab33" offset="0.321"/>
        <stop stop-color="#539e0e" offset="0.4014"/>
        <stop stop-color="#4a9900" offset="0.4438"/>
        <stop stop-color="#398419" offset="0.5475"/>
        <stop stop-color="#22663b" offset="0.7125"/>
        <stop stop-color="#135550" offset="0.8486"/>
        <stop stop-color="#0e4e58" offset="0.9382"/>
        <stop stop-color="#0e4e58" offset="1"/>
    </radialGradient>
    <path fill="url(#XMLID_876_)" d="M 42.845 9.035 C 43.236 9.32 43.052002 11.267 43.052002 11.267 C 43.052002 11.267 43.11 14.182 42.43 14.751 C 41.752 15.321 41.147 15.991 38.284 15.037001 C 35.422 14.083 34.839 13.548 34.839 13.548 C 34.839 13.548 35.005 13.075001 34.989002 11.842 C 34.975002 10.609 34.798 10.148 34.798 10.148 C 34.798 10.148 36.223 9.4939995 37.744 9.08 C 39.332 8.647 40.734 8.445 41.309998 8.447 C 41.884 8.449 42.456 8.75 42.845 9.035 z "/>
    <radialGradient gradientTransform="matrix(-1 0 0 -1 1109.1466 1064.9749)" gradientUnits="userSpaceOnUse" xlink:type="simple" r="11.9065" xlink:actuate="onLoad" cx="1073.0695" id="XMLID_877_" cy="1057.2531" xlink:show="other">
        <stop stop-color="#e6eef4" offset="0"/>
        <stop stop-color="#c6dcc1" offset="0.0772"/>
        <stop stop-color="#91c06f" offset="0.211"/>
        <stop stop-color="#6bab33" offset="0.321"/>
        <stop stop-color="#539e0e" offset="0.4014"/>
        <stop stop-color="#4a9900" offset="0.4438"/>
        <stop stop-color="#398419" offset="0.5475"/>
        <stop stop-color="#22663b" offset="0.7125"/>
        <stop stop-color="#135550" offset="0.8486"/>
        <stop stop-color="#0e4e58" offset="0.9382"/>
        <stop stop-color="#0e4e58" offset="1"/>
    </radialGradient>
    <path fill="url(#XMLID_877_)" d="M 42.479 9.453 C 42.869 9.738 42.678 11.687 42.678 11.687 L 35.467003 11.842 L 35.462 10.47 C 35.462 10.47 36.174004 9.968 37.694 9.554 C 39.282 9.121 40.686 8.918 41.261 8.921 C 41.838 8.924 42.092 9.168 42.479 9.453 z "/>
    <linearGradient x1="-627.5741" gradientTransform="matrix(1 0 0 -1 694.626 1064.9749)" y1="1041.0314" x2="-618.3042" gradientUnits="userSpaceOnUse" y2="1015.5013" xlink:type="simple" xlink:actuate="onLoad" id="XMLID_878_" xlink:show="other">
        <stop stop-color="#e3dfe4" offset="0"/>
        <stop stop-color="#c03a3a" offset="1"/>
    </linearGradient>
    <path fill="url(#XMLID_878_)" d="M 75.453 23.272 L 73.515 47.206 C 73.347 48.915 71.636 49.573 70.152 49.573 C 68.579 49.535004 67.259 48.819 66.886 47.227 L 64.433 23.57 C 66.56 25.036 72.972 25.372 75.453 23.272 z "/>
    <linearGradient x1="-625.6254" gradientTransform="matrix(1 0 0 -1 694.626 1064.9749)" y1="1028.9933" x2="-638.6215" gradientUnits="userSpaceOnUse" y2="1027.626" xlink:type="simple" xlink:actuate="onLoad" id="XMLID_879_" xlink:show="other">
        <stop stop-color="#e6eef4" offset="0"/>
        <stop stop-color="#d7a6a9" offset="0.1531"/>
        <stop stop-color="#ca6c6d" offset="0.2903"/>
        <stop stop-color="#c34848" offset="0.3908"/>
        <stop stop-color="#c03a3a" offset="0.4438"/>
        <stop stop-color="#9e372d" offset="0.5273"/>
        <stop stop-color="#6f331b" offset="0.6603"/>
        <stop stop-color="#4d300d" offset="0.778"/>
        <stop stop-color="#382e05" offset="0.8747"/>
        <stop stop-color="#302d02" offset="0.9382"/>
        <stop stop-color="#302d02" offset="1"/>
    </linearGradient>
    <path fill="url(#XMLID_879_)" d="M 67.841 24.877 L 68.80801 49.28 C 67.882 48.801 67.05 48.507 66.812004 47.059 L 64.294 23.2 C 64.55 23.412 67.11 24.592 67.841 24.877 z "/>
    <linearGradient x1="-649.2645" gradientTransform="matrix(1 0 0 1 717.2212 -2714.2471)" y1="2750.625" x2="-632.286" gradientUnits="userSpaceOnUse" y2="2750.1943" xlink:type="simple" xlink:actuate="onLoad" id="XMLID_880_" xlink:show="other">
        <stop stop-color="#e6eef4" offset="0"/>
        <stop stop-color="#d7a6a9" offset="0.1531"/>
        <stop stop-color="#ca6c6d" offset="0.2903"/>
        <stop stop-color="#c34848" offset="0.3908"/>
        <stop stop-color="#c03a3a" offset="0.4438"/>
        <stop stop-color="#9e372d" offset="0.5273"/>
        <stop stop-color="#6f331b" offset="0.6603"/>
        <stop stop-color="#4d300d" offset="0.778"/>
        <stop stop-color="#382e05" offset="0.8747"/>
        <stop stop-color="#302d02" offset="0.9382"/>
        <stop stop-color="#302d02" offset="1"/>
    </linearGradient>
    <path fill="url(#XMLID_880_)" d="M 71.855 49.261 C 72.65401 48.968002 73.368004 48.390003 73.525 47.244003 L 75.716 23.201004 C 75.716 23.201004 73.386 24.270004 73.00101 24.512005 L 71.855 49.261 z "/>
    <linearGradient x1="-652.7396" gradientTransform="matrix(1 0 0 1 717.2212 -2714.2471)" y1="2734.748" x2="-638.6964" gradientUnits="userSpaceOnUse" y2="2741.5542" xlink:type="simple" xlink:actuate="onLoad" id="XMLID_881_" xlink:show="other">
        <stop stop-color="#e3dfe4" offset="0"/>
        <stop stop-color="#c03a3a" offset="1"/>
    </linearGradient>
    <path fill="url(#XMLID_881_)" d="M 75.72 23.255 C 75.593 24.217 73.042 24.997 70.025 24.997 C 67.008 24.997 64.439 24.217 64.288 23.255 C 64.136 22.292 66.712006 21.331 70.007 21.331 C 73.302 21.331 75.847 22.292 75.72 23.255 z "/>
    <radialGradient gradientTransform="matrix(1 0 0 -1 717.4092 -1805.8417)" gradientUnits="userSpaceOnUse" xlink:type="simple" r="3.8402" xlink:actuate="onLoad" cx="-647.6737" id="XMLID_882_" cy="-1861.2391" xlink:show="other">
        <stop stop-color="#e3dfe4" offset="0"/>
        <stop stop-color="#c03a3a" offset="1"/>
    </radialGradient>
    <circle fill="url(#XMLID_882_)" r="3.761" cx="70.164" cy="56.693"/>
</svg>
