<?xml version="1.0" encoding="UTF-8"?>
<svg xmlns="http://www.w3.org/2000/svg" xmlns:xlink="http://www.w3.org/1999/xlink" contentScriptType="text/ecmascript" width="44" baseProfile="tiny" zoomAndPan="magnify" contentStyleType="text/css" viewBox="0.105 -0.575 44 44" height="44" preserveAspectRatio="xMidYMid meet" version="1.1">
    <g>
        <rect x="0.105" width="44" fill="none" y="-0.575" height="44"/>
        <g>
            <g>
                <linearGradient x1="16.4463" y1="7.958" x2="16.4463" gradientUnits="userSpaceOnUse" y2="34.125" xlink:type="simple" xlink:actuate="onLoad" id="XMLID_4_" xlink:show="other">
                    <stop stop-color="#ffffff" offset="0"/>
                    <stop stop-color="#ffffff" offset="1"/>
                </linearGradient>
                <path fill="url(#XMLID_4_)" d="M 19.705 8.752 C 12.1970005 8.752 6.316 14.618 6.314 22.108 C 6.308 25.651 7.665 28.963 10.135 31.436 C 12.656 33.961 16.061 35.354 19.717 35.35 L 19.752 35.35 C 21.357998 35.35 23.655998 35.243004 25.188 34.336 C 25.209 33.932003 25.288 32.469 25.313 31.617002 C 23.821 32.597004 21.881 32.736004 20.156 32.736004 L 19.891 32.736004 L 19.668 32.736004 C 13.500001 32.736004 9.023001 28.355003 9.023001 22.316004 C 9.023001 15.828004 13.52 11.121004 19.716 11.121004 C 21.741 11.121004 23.459 11.605004 24.901 12.357004 L 26.577 10.681005 C 24.646 9.507 22.334 8.752 19.705 8.752 z "/>
                <linearGradient x1="22.6387" y1="7.958" x2="22.6387" gradientUnits="userSpaceOnUse" y2="34.125" xlink:type="simple" xlink:actuate="onLoad" id="XMLID_5_" xlink:show="other">
                    <stop stop-color="#ffffff" offset="0"/>
                    <stop stop-color="#ffffff" offset="1"/>
                </linearGradient>
                <path fill="url(#XMLID_5_)" d="M 30.381 19.15 C 30.48 19.54 30.549 19.915 30.575 20.253 C 30.815 23.357 29.764 24.759 29.421 25.22 C 28.771002 26.079 27.703 26.437 27.275002 26.437 L 27.126 26.437 C 26.406002 26.437 25.88 26.388 25.641 26.156 L 25.578 26.095 L 25.578 26.011 L 25.573002 22.838 L 22.889002 23.733 L 22.889002 25.523 L 22.889002 25.609 L 22.824 25.67 C 22.004002 26.434 20.910002 26.856 19.743002 26.856 C 17.384005 26.854 14.941002 25.081 14.938002 22.11 C 14.938002 19.148 17.379002 17.378 19.741 17.378 C 20.06 17.378 20.372002 17.416 20.677002 17.478 L 20.973 16.589 L 21.123 16.142 L 21.457 15.808001 L 22.081 15.184001 C 21.156002 14.876001 20.309002 14.788001 19.706 14.788001 C 18.742 14.788001 17.766 14.974001 16.955002 15.309001 C 14.115002 16.491001 12.351002 19.1 12.351002 22.116 C 12.351002 24.268002 13.194002 26.259 14.7230015 27.718002 C 16.139002 29.072002 18.017002 29.847002 19.871002 29.847002 C 20.925003 29.847002 21.911003 29.601002 22.757002 29.148005 L 22.941002 28.978004 L 23.043 28.880005 L 23.168 28.944002 C 24.246 29.483002 24.826 29.483002 26.141 29.483002 C 26.797 29.483002 28.483002 29.340002 29.984 28.022 C 31.358002 26.805 32.932 24.872002 32.929 20.647 C 32.929 19.605 32.678 18.461 32.225002 17.308 L 30.381 19.15 z "/>
            </g>
            <linearGradient x1="29.6572" y1="7.958" x2="29.6572" gradientUnits="userSpaceOnUse" y2="34.125" xlink:type="simple" xlink:actuate="onLoad" id="XMLID_6_" xlink:show="other">
                <stop stop-color="#ffffff" offset="0"/>
                <stop stop-color="#ffffff" offset="1"/>
            </linearGradient>
            <polygon fill="url(#XMLID_6_)" points="21.216,22.181 22.869,17.22 34.791,5.296 38.099,8.603 26.177,20.526   "/>
        </g>
    </g>
</svg>
