<?xml version="1.0" encoding="UTF-8"?>
<svg xmlns="http://www.w3.org/2000/svg" xmlns:xlink="http://www.w3.org/1999/xlink" contentScriptType="text/ecmascript" width="54" baseProfile="tiny" zoomAndPan="magnify" contentStyleType="text/css" viewBox="0.026 0.198 54 54" height="54" preserveAspectRatio="xMidYMid meet" version="1.1">
    <rect x="0.026" width="54" fill="none" y="0.198" height="54"/>
    <g>
        <g>
            <g>
                <g>
                    <path fill="#ffffff" d="M 5.402 15.456 C 5.402 21.658 10.448999 26.705 16.652 26.705 C 18.797 26.705 20.793 26.093 22.5 25.056 L 29.595 32.142 L 33.434998 28.487999 L 26.249998 21.301998 C 27.292997 19.592999 27.904999 17.590998 27.904999 15.455997 C 27.904999 9.250998 22.852999 4.2059975 16.651999 4.2059975 C 10.449 4.206 5.402 9.25 5.402 15.456 z M 25.402 15.456 C 25.402 20.278 21.473 24.207 16.652 24.207 C 11.83 24.207 7.9040003 20.278 7.9040003 15.456 C 7.9040003 10.63 11.83 6.7020006 16.652 6.7020006 C 21.474 6.702 25.402 10.629 25.402 15.456 z "/>
                    <path fill="#ffffff" d="M 22.514 14.92 L 18.582 16.186 L 21.002 19.485 L 19.088001 20.867 L 16.699001 17.569 L 14.307001 20.867 L 12.391001 19.485 L 14.812 16.186 L 10.895 14.920001 L 11.628 12.674001 L 15.503 13.942 L 15.503 9.837 L 17.864 9.837 L 17.864 13.941 L 21.761 12.673 L 22.514 14.92 z "/>
                </g>
            </g>
        </g>
        <polygon fill="#ffffff" points="34.835,32.922 34.835,27.163 37.136,27.163 48.649,38.675 37.136,50.19 34.835,50.19    34.835,44.433 25.622,44.433 25.622,32.922  "/>
    </g>
</svg>
