<?xml version="1.0" encoding="UTF-8"?>
<svg xmlns="http://www.w3.org/2000/svg" xmlns:xlink="http://www.w3.org/1999/xlink" contentScriptType="text/ecmascript" width="44" baseProfile="tiny" zoomAndPan="magnify" contentStyleType="text/css" viewBox="0 0 44 44" height="44" preserveAspectRatio="xMidYMid meet" version="1.0">
    <rect width="44" fill="none" height="44"/>
    <linearGradient x1="11.64" y1="-13.51" x2="11.64" gradientUnits="userSpaceOnUse" y2="49.41" xlink:type="simple" xlink:actuate="onLoad" id="SVGID_1" xlink:show="other">
        <stop stop-color="#ffffff" offset="0"/>
        <stop stop-color="#ffffff" offset="1"/>
    </linearGradient>
    <path fill="url(#SVGID_1)" d="M 4.605 34.31 C 4.605 32.142002 5.359 30.172 6.729 28.764002 C 8.136 27.315002 10.148 26.518002 12.396 26.519 L 13.099 26.519 L 13.099 28.274 L 12.398 28.276 C 8.796 28.283 6.3719997 30.709002 6.363 34.312 C 6.391 38.367 8.211 40.186 12.262 40.207 C 16.325 40.194 16.88 37.709 16.909 35.545 C 16.903 34.149 15.986 32.633003 13.985001 32.632004 C 11.324 32.655003 11.003 34.117004 10.993 35.216003 C 11.0 35.902004 11.221 36.028004 11.882 36.051003 C 12.091 36.051003 12.945 35.863003 12.945 35.863003 L 13.354 37.577003 C 13.354 37.577003 12.219 37.808 11.856 37.808 C 11.209 37.807003 10.659 37.651 10.219 37.342003 C 9.586 36.902004 9.236 36.149 9.236 35.223003 C 9.236 33.862003 9.684 32.753002 10.532 31.996004 C 11.363 31.252005 12.525999 30.875004 13.986 30.875004 C 17.02 30.880005 18.661 33.289005 18.667 35.553005 C 18.665 37.166004 18.333 38.456005 17.651 39.500004 C 16.918 40.627003 15.385999 41.970005 12.255999 41.964005 C 9.612999 41.966003 7.614999 41.224003 6.3199987 39.758003 C 5.183 38.468 4.605 36.635 4.605 34.31 L 4.605 34.31 z "/>
    <path fill="url(#SVGID_1)" d="M 15.762 17.368 L 15.38 29.934 L 27.034 28.117 L 38.985 13.0390005 L 37.86 7.097 L 33.117 2.4640002 L 26.919 2.1270003 L 15.762 17.368 z M 20.871 27.1 C 20.877 25.42 19.212 23.912 17.611 24.24 C 17.596 24.244 17.584 24.261 17.571 24.261 L 17.66 18.861 L 21.588 18.599 L 25.328 21.845 L 26.099998 26.039 C 26.101 26.039 20.871 27.119 20.871 27.1 z M 24.034 17.467 L 33.141 5.204999 L 35.587997 7.204999 L 26.104998 19.312 L 24.034 17.467 z M 27.851 24.097 L 27.195 20.883 L 36.341 9.092999 L 37.021 12.455 L 27.851 24.097 z M 28.386 4.072 L 31.462 4.2860003 L 22.296 16.438 L 18.869 16.626999 L 28.386 4.072 z "/>
</svg>
