<?xml version="1.0" encoding="UTF-8"?>
<svg xmlns="http://www.w3.org/2000/svg" xmlns:xlink="http://www.w3.org/1999/xlink" contentScriptType="text/ecmascript" width="44" baseProfile="tiny" zoomAndPan="magnify" contentStyleType="text/css" viewBox="0 0 44 44" height="44" preserveAspectRatio="xMidYMid meet" version="1.1">
    <path fill="#ffffff" d="M 36.646 33.025 L 29.986 26.113 C 29.015 27.587002 27.771 28.861 26.318 29.855001 L 32.882 36.670002 L 36.646 33.025 z "/>
    <path fill="#ffffff" d="M 18.716 7.329 C 12.441999 7.329 7.3519993 12.422 7.3519993 18.706 C 7.3519993 24.987999 12.441999 30.083 18.716 30.083 C 24.991 30.083 30.077 24.988 30.077 18.706001 C 30.077 12.422 24.991 7.329 18.716 7.329 z M 18.716 27.637 C 13.796 27.637 9.792999 23.630999 9.792999 18.704998 C 9.792999 13.779998 13.796 9.771998 18.716 9.771998 C 23.633999 9.771998 27.636 13.778998 27.636 18.704998 C 27.636 23.631 23.634 27.637 18.716 27.637 z "/>
    <rect x="14.564" width="8.297" fill="#ffffff" y="22.668" height="2.422"/>
    <polygon fill="#ffffff" points="22.977,15.529 19.771,15.529 19.771,12.321 17.659,12.321 17.659,15.529 14.455,15.529   14.455,17.646 17.659,17.646 17.659,20.853 19.771,20.853 19.771,17.646 22.977,17.646 "/>
</svg>
