<?xml version="1.0" encoding="UTF-8"?>
<svg xmlns="http://www.w3.org/2000/svg" xmlns:xlink="http://www.w3.org/1999/xlink" contentScriptType="text/ecmascript" width="88" baseProfile="tiny" zoomAndPan="magnify" contentStyleType="text/css" viewBox="-1 -1 88 88" height="88" preserveAspectRatio="xMidYMid meet" version="1.1">
    <g>
        <rect x="-1" width="88" fill="none" y="-1" height="88"/>
        <path fill="#ffffff" d="M 13.178 6.0 C 9.22 6.0 6.0 9.221 6.0 13.18 L 6.0 72.822 C 6.0 76.779 9.22 80.003 13.1779995 80.003 L 72.824 80.003 C 76.783 80.003 80.004 76.779 80.004 72.822 L 80.004 13.18 C 80.004 9.221001 76.783 6.0000005 72.824 6.0000005 L 13.178 6.0000005 z " fill-opacity="0.2"/>
        <linearGradient x1="-1368.1577" gradientTransform="matrix(1 0 0 1 1389.5273 -1506.6865)" y1="1587.1533" x2="-1324.8955" gradientUnits="userSpaceOnUse" y2="1512.2209" xlink:type="simple" xlink:actuate="onLoad" id="XMLID_21_" xlink:show="other">
            <stop stop-color="#000000" offset="0"/>
            <stop stop-color="#000000" offset="0.6461"/>
            <stop stop-color="#52a2a5" offset="0.9944"/>
            <stop stop-color="#52a2a5" offset="1"/>
        </linearGradient>
        <path fill="url(#XMLID_21_)" d="M 76.0 71.035 C 76.0 73.775 73.777 76.0 71.037 76.0 L 14.964 76.0 C 12.223 76.0 10.0 73.775 10.0 71.035 L 10.0 14.966 C 10.0 12.221 12.224 10.0 14.964 10.0 L 71.034996 10.0 C 73.774994 10.0 75.99899 12.222 75.99899 14.966 L 76.0 71.035 L 76.0 71.035 z "/>
        <g>
            <path fill="#ffffff" d="M 71.855 22.417 C 71.709 22.06 71.25101 20.934 71.25101 20.934 L 57.25601 17.663 C 57.25601 17.663 56.38701 18.158 56.06801 18.34 C 54.92901 18.046 42.883007 14.934 42.883007 14.934 C 42.883007 14.934 27.897007 33.156998 27.633007 33.479 C 23.116007 36.85 19.491007 38.99 14.339007 41.319 L 10.789007 42.925 L 13.394007 45.82 C 13.400006 45.828 14.309007 46.832 15.628007 48.074 C 14.266006 49.73 10.017007 54.896 10.017007 54.896 L 11.924006 61.736 L 42.774006 76.002 L 71.035 76.002 C 73.774 76.002 75.998 73.775 75.998 71.037 L 75.997 71.037 L 75.997 23.487003 C 74.589 23.123 72.561 22.599 71.855 22.417 z "/>
            <linearGradient x1="-1331.9194" gradientTransform="matrix(1 0 0 1 1389.5273 -1506.6865)" y1="1597.9795" x2="-1353.1948" gradientUnits="userSpaceOnUse" y2="1513.629" xlink:type="simple" xlink:actuate="onLoad" id="XMLID_22_" xlink:show="other">
                <stop stop-color="#ffffff" offset="0"/>
                <stop stop-color="#ffffff" offset="0.15"/>
                <stop stop-color="#cfdce6" offset="1"/>
            </linearGradient>
            <polygon fill="url(#XMLID_22_)" fill-opacity="0.8" points="44.342,18.992 14.085,55.779 59.462,75.65 76,47.807 76,27.171   "/>
            <polygon fill="#ffffff" fill-opacity="0.8" points="45.471,20.242 18.571,53.893 58.042,70.217 76,40.35 76,28.599   "/>
            <linearGradient x1="-1324.6758" gradientTransform="matrix(1 0 0 1 1389.5273 -1506.6865)" y1="1560.9941" x2="-1318.7776" gradientUnits="userSpaceOnUse" y2="1565.5859" xlink:type="simple" xlink:actuate="onLoad" id="XMLID_23_" xlink:show="other">
                <stop stop-color="#dee9f3" offset="0"/>
                <stop stop-color="#235487" offset="1"/>
            </linearGradient>
            <polygon fill="url(#XMLID_23_)" fill-opacity="0.8" points="58.042,69.748 58.279,72 76,42.904 76,40.18   "/>
            <linearGradient x1="-1323.5581" gradientTransform="matrix(1 0 0 1 1389.5273 -1506.6865)" y1="1567.2129" x2="-1316.7601" gradientUnits="userSpaceOnUse" y2="1572.4965" xlink:type="simple" xlink:actuate="onLoad" id="XMLID_24_" xlink:show="other">
                <stop stop-color="#dee9f3" offset="0"/>
                <stop stop-color="#235487" offset="1"/>
            </linearGradient>
            <polygon fill="url(#XMLID_24_)" fill-opacity="0.8" points="76,52.076 76,47.844 59.494,75.643 59.527,76 62.195,76   "/>
            <linearGradient x1="-2985.7783" gradientTransform="matrix(1.1364 0 0 1.1364 3432.4614 -3012.0693)" y1="2704.082" x2="-2987.1096" gradientUnits="userSpaceOnUse" y2="2707.1375" xlink:type="simple" xlink:actuate="onLoad" id="XMLID_25_" xlink:show="other">
                <stop stop-color="#ffffff" offset="0"/>
                <stop stop-color="#496da2" offset="0.71"/>
                <stop stop-color="#235487" offset="0.99"/>
                <stop stop-color="#235487" offset="1"/>
            </linearGradient>
            <polygon fill="url(#XMLID_25_)" fill-opacity="0.8" points="58.042,69.748 18.725,53.926 19.068,55.223 58.279,72   "/>
            <linearGradient x1="-1352.2202" gradientTransform="matrix(1 0 0 1 1389.5273 -1506.6865)" y1="1571.3887" x2="-1354.6304" gradientUnits="userSpaceOnUse" y2="1576.8837" xlink:type="simple" xlink:actuate="onLoad" id="XMLID_26_" xlink:show="other">
                <stop stop-color="#ffffff" offset="0"/>
                <stop stop-color="#496da2" offset="0.71"/>
                <stop stop-color="#235487" offset="0.99"/>
                <stop stop-color="#235487" offset="1"/>
            </linearGradient>
            <polygon fill="url(#XMLID_26_)" fill-opacity="0.8" points="59.494,75.643 14.073,55.712 15.059,59.244 51.302,76 59.527,76   "/>
            <linearGradient x1="-3005.645" gradientTransform="matrix(1.1364 0 0 1.1364 3432.4614 -3012.0693)" y1="2687.2949" x2="-2974.1367" gradientUnits="userSpaceOnUse" y2="2687.2949" xlink:type="simple" xlink:actuate="onLoad" id="XMLID_27_" xlink:show="other">
                <stop stop-color="#cadcec" offset="0"/>
                <stop stop-color="#87a8cb" offset="1"/>
            </linearGradient>
            <path fill="url(#XMLID_27_)" d="M 45.305 20.155 C 45.305 20.155 36.286 35.354 16.847 44.199 C 22.578 50.429 35.038002 57.158 52.653 63.39 L 45.305 20.155 z " fill-opacity="0.8"/>
            <linearGradient x1="-1379.7925" gradientTransform="matrix(1 0 0 1 1389.5273 -1506.6865)" y1="1564.9541" x2="-1326.7426" gradientUnits="userSpaceOnUse" y2="1542.6171" xlink:type="simple" xlink:actuate="onLoad" id="XMLID_28_" xlink:show="other">
                <stop stop-color="#ffffff" offset="0"/>
                <stop stop-color="#ffffff" offset="0.15"/>
                <stop stop-color="#cfdce6" offset="1"/>
            </linearGradient>
            <path fill="url(#XMLID_28_)" d="M 45.305 20.155 L 22.409 49.063 C 28.35 53.606 40.558 59.174 52.484 63.392998 C 57.928 61.413 67.537 51.313 76.0 39.397 L 76.0 28.255 L 45.305 20.155 z " fill-opacity="0.8"/>
            <polygon fill="#4e657a" fill-opacity="0.8" points="71.961,27.523 70.105,27.255 68.797,24.026 50.576,24.377 50.742,25.378     71.254,31.466 72.127,28.885   "/>
            <linearGradient x1="50.5762" y1="25.7666" x2="71.9609" gradientUnits="userSpaceOnUse" y2="25.7666" xlink:type="simple" xlink:actuate="onLoad" id="XMLID_29_" xlink:show="other">
                <stop stop-color="#dee9f3" offset="0"/>
                <stop stop-color="#235487" offset="1"/>
            </linearGradient>
            <polygon fill="url(#XMLID_29_)" fill-opacity="0.8" points="71.961,27.523 70.939,30.042 50.576,24.377 52.701,22.395     56.052,22.572 57.957,21.492 68.797,24.026 68.941,26.225   "/>
            <linearGradient x1="-1320.3984" gradientTransform="matrix(1 0 0 1 1389.5273 -1506.6865)" y1="1552.0674" x2="-1314.4514" gradientUnits="userSpaceOnUse" y2="1547.2813" xlink:type="simple" xlink:actuate="onLoad" id="XMLID_30_" xlink:show="other">
                <stop stop-color="#d8d8d8" offset="0"/>
                <stop stop-color="#777777" offset="1"/>
            </linearGradient>
            <path fill="url(#XMLID_30_)" d="M 66.064 42.434 L 76.0 45.268 L 76.0 40.335003 C 72.48 40.496 69.029 41.373 66.064 42.434 z "/>
            <linearGradient x1="-1309.5483" gradientTransform="matrix(1 0 0 1 1389.5273 -1506.6865)" y1="1545.6699" x2="-1323.3748" gradientUnits="userSpaceOnUse" y2="1573.9873" xlink:type="simple" xlink:actuate="onLoad" id="XMLID_31_" xlink:show="other">
                <stop stop-color="#d8d8d8" offset="0"/>
                <stop stop-color="#777777" offset="1"/>
            </linearGradient>
            <path fill="url(#XMLID_31_)" d="M 66.064 42.434 C 65.354 51.839 66.727 67.949 67.857 76.0 L 71.05 76.0 C 73.781006 75.99 75.996 73.77 75.996 71.037 L 75.996 43.025 C 72.105 41.764 68.336 41.692 66.064 42.434 z "/>
            <linearGradient x1="-1307.7173" gradientTransform="matrix(1 0 0 1 1389.5273 -1506.6865)" y1="1567.8633" x2="-1324.7107" gradientUnits="userSpaceOnUse" y2="1558.4619" xlink:type="simple" xlink:actuate="onLoad" id="XMLID_32_" xlink:show="other">
                <stop stop-color="#ffffff" offset="0"/>
                <stop stop-color="#ffffff" offset="0.05"/>
                <stop stop-color="#cfdce6" offset="1"/>
            </linearGradient>
            <polygon fill="url(#XMLID_32_)" fill-opacity="0.8" points="67.98,44.727 68.572,64.785 76,67.52 76,47.031   "/>
            <linearGradient x1="-2959.1421" gradientTransform="matrix(1.1364 0 0 1.1364 3432.4614 -3012.0693)" y1="2720.6475" x2="-2960.1855" gradientUnits="userSpaceOnUse" y2="2679.6365" xlink:type="simple" xlink:actuate="onLoad" id="XMLID_33_" xlink:show="other">
                <stop stop-color="#d8d8d8" offset="0"/>
                <stop stop-color="#777777" offset="1"/>
            </linearGradient>
            <polygon fill="url(#XMLID_33_)" points="70.01,63.917 69.637,45.199 67.98,44.727 68.572,64.785   "/>
            <linearGradient x1="-1312.8447" gradientTransform="matrix(1 0 0 1 1389.5273 -1506.6865)" y1="1576.2236" x2="-1323.2888" gradientUnits="userSpaceOnUse" y2="1566.3651" xlink:type="simple" xlink:actuate="onLoad" id="XMLID_34_" xlink:show="other">
                <stop stop-color="#d8d8d8" offset="0"/>
                <stop stop-color="#777777" offset="1"/>
            </linearGradient>
            <polygon fill="url(#XMLID_34_)" points="70.01,63.917 68.572,64.785 76,67.52 76,65.99   "/>
            <linearGradient x1="-2960.8433" gradientTransform="matrix(1.1364 0 0 1.1364 3432.4614 -3012.0693)" y1="2701.6006" x2="-2954.1594" gradientUnits="userSpaceOnUse" y2="2726.1079" xlink:type="simple" xlink:actuate="onLoad" id="XMLID_35_" xlink:show="other">
                <stop stop-color="#d8d8d8" offset="0"/>
                <stop stop-color="#777777" offset="1"/>
            </linearGradient>
            <polygon fill="url(#XMLID_35_)" points="72.713,70.531 69.814,69.383 69.963,71.779 72.802,72.926   "/>
            <linearGradient x1="-1317.9102" gradientTransform="matrix(1 0 0 1 1389.5273 -1506.6865)" y1="1564.9355" x2="-1311.1481" gradientUnits="userSpaceOnUse" y2="1589.7301" xlink:type="simple" xlink:actuate="onLoad" id="XMLID_36_" xlink:show="other">
                <stop stop-color="#d8d8d8" offset="0"/>
                <stop stop-color="#777777" offset="1"/>
            </linearGradient>
            <polygon fill="url(#XMLID_36_)" points="73.41,68.09 73.451,70.255 76,71.277 76,69.037   "/>
            <linearGradient x1="-2960.3232" gradientTransform="matrix(1.1364 0 0 1.1364 3432.4614 -3012.0693)" y1="2701.4385" x2="-2953.6294" gradientUnits="userSpaceOnUse" y2="2725.9822" xlink:type="simple" xlink:actuate="onLoad" id="XMLID_37_" xlink:show="other">
                <stop stop-color="#d8d8d8" offset="0"/>
                <stop stop-color="#777777" offset="1"/>
            </linearGradient>
            <polygon fill="url(#XMLID_37_)" points="72.607,67.756 69.639,66.689 69.773,68.768 72.688,69.912   "/>
            <linearGradient x1="-1317.168" gradientTransform="matrix(1 0 0 1 1389.5273 -1506.6865)" y1="1575.042" x2="-1314.6246" gradientUnits="userSpaceOnUse" y2="1584.3679" xlink:type="simple" xlink:actuate="onLoad" id="XMLID_38_" xlink:show="other">
                <stop stop-color="#d8d8d8" offset="0"/>
                <stop stop-color="#777777" offset="1"/>
            </linearGradient>
            <path fill="url(#XMLID_38_)" d="M 73.548 75.313 C 73.980995 75.05701 74.370995 74.73701 74.708 74.37 L 73.521 73.875 L 73.548 75.313 z "/>
            <linearGradient x1="-2961.3682" gradientTransform="matrix(1.1364 0 0 1.1364 3432.4614 -3012.0693)" y1="2701.7383" x2="-2954.6809" gradientUnits="userSpaceOnUse" y2="2726.2583" xlink:type="simple" xlink:actuate="onLoad" id="XMLID_39_" xlink:show="other">
                <stop stop-color="#d8d8d8" offset="0"/>
                <stop stop-color="#777777" offset="1"/>
            </linearGradient>
            <polygon fill="url(#XMLID_39_)" points="72.824,73.549 70.006,72.398 70.136,74.488 72.9,75.67   "/>
            <linearGradient x1="-1318.1035" gradientTransform="matrix(1 0 0 1 1389.5273 -1506.6865)" y1="1567.1748" x2="-1312.3307" gradientUnits="userSpaceOnUse" y2="1588.3422" xlink:type="simple" xlink:actuate="onLoad" id="XMLID_40_" xlink:show="other">
                <stop stop-color="#d8d8d8" offset="0"/>
                <stop stop-color="#777777" offset="1"/>
            </linearGradient>
            <path fill="url(#XMLID_40_)" d="M 73.462 70.872 L 73.506 73.255005 L 75.08199 73.906006 C 75.506 73.30801 75.798 72.617004 75.925995 71.865005 L 75.852 71.838005 L 73.462 70.872 z "/>
            <path fill="#ffffff" d="M 69.318 23.42 L 57.845 20.738 C 57.845 20.738 56.941 21.253 56.624 21.434 C 56.091 21.297 44.08 18.194 44.08 18.194 L 29.746 35.622 C 25.085001 39.122 21.254002 41.433002 15.661 43.961002 C 15.661 43.961002 17.533 46.043003 19.727001 47.805004 L 13.309001 55.608006 L 14.464001 59.754005 L 49.611 76.0 L 63.010002 76.0 L 66.492004 69.961 L 67.217 76.0 L 71.052 76.0 C 73.783005 75.99 75.998 73.77 75.998 71.037 L 75.998 26.442 C 72.822 25.622 70.156 24.932 69.9 24.865 C 69.742 24.473 69.318 23.42 69.318 23.42 z " fill-opacity="0.4"/>
        </g>
    </g>
</svg>
