<?xml version="1.0" encoding="UTF-8"?>
<svg xmlns="http://www.w3.org/2000/svg" xmlns:xlink="http://www.w3.org/1999/xlink" contentScriptType="text/ecmascript" width="40" baseProfile="tiny" zoomAndPan="magnify" contentStyleType="text/css" viewBox="-0.5 0.146 40 50" height="50" preserveAspectRatio="xMidYMid meet" version="1.1">
    <rect x="-0.5" width="40" fill="none" y="0.146" height="50"/>
    <path fill="#333333" d="M 37.698 49.646 L 1.301 49.646 C 0.583 49.646 0.0 48.934 0.0 48.057 L 6.497 2.236 C 6.497 1.358 7.0800004 0.6450001 7.7980003 0.6450001 L 31.128 0.6450001 C 31.848 0.6450001 32.43 1.358 32.43 2.236 L 39.0 48.057 C 39.0 48.934 38.415 49.646 37.698 49.646 L 37.698 49.646 z "/>
    <path d="M 32.43 2.236 C 32.43 1.358 31.848 0.6450001 31.128 0.6450001 L 7.798 0.6450001 C 7.08 0.6450001 6.4969997 1.358 6.4969997 2.236 L 0.0 48.057 C 0.0 48.934 0.583 49.647 1.301 49.647 L 37.697998 49.647 C 37.828 49.647 37.950996 49.618 38.067997 49.572998 C 37.950996 49.617996 37.827995 49.644997 37.697998 49.644997 L 2.301 49.644997 C 2.204 49.644997 2.022 49.439995 2.002 49.111996 L 8.488 3.375 L 8.498 3.306 L 8.498 3.236 C 8.498 2.875 8.693 2.6460001 8.797 2.6460001 L 32.125 2.6460001 C 32.23 2.6460001 32.426 2.8760002 32.426 3.236 L 32.426 3.31 L 32.44 3.3799999 L 38.920998 48.583 C 38.969 48.417 39.0 48.242 39.0 48.057 L 32.43 2.236 z " fill-opacity="0.25"/>
</svg>
