<?xml version="1.0" encoding="UTF-8"?>
<svg xmlns="http://www.w3.org/2000/svg" xmlns:xlink="http://www.w3.org/1999/xlink" contentScriptType="text/ecmascript" width="20" baseProfile="tiny" zoomAndPan="magnify" contentStyleType="text/css" viewBox="0 0 20 20" height="20" preserveAspectRatio="xMidYMid meet" version="1.0">
    <path fill="#ffffff" d="M 7.464 15.069 L 7.464 13.886001 C 7.8900003 13.996 8.361 14.051001 8.88 14.051001 C 9.641 14.051001 10.213 13.814 10.598001 13.339001 C 10.984 12.865001 11.210001 12.089001 11.279 11.0130005 C 10.807 11.444 10.205 11.659 9.471001 11.659 C 8.591001 11.659 7.9210005 11.375 7.460001 10.806001 C 7.0 10.239 6.77 9.435 6.77 8.395 C 6.77 7.2490005 7.043 6.3580008 7.591 5.7210007 C 8.139 5.083 8.93 4.765 9.966 4.765 C 11.042999 4.765 11.856999 5.1419997 12.406 5.896 C 12.955001 6.65 13.23 7.93 13.23 9.734 C 13.23 11.507 12.884 12.868 12.193 13.814 C 11.500999 14.76 10.476 15.234 9.12 15.234 C 8.63 15.234 8.078 15.179 7.464 15.069 z M 9.925 10.505 C 10.373 10.505 10.719 10.339 10.959001 10.0060005 C 11.199 9.674001 11.320001 9.203001 11.320001 8.594001 C 11.320001 7.700001 11.208 7.0290008 10.983001 6.580001 C 10.758 6.131001 10.423 5.906001 9.979001 5.906001 C 9.543001 5.906001 9.212001 6.073001 8.986001 6.408001 C 8.76 6.742 8.646 7.404 8.646 8.395 C 8.646 9.146001 8.752 9.686001 8.966 10.014 C 9.179 10.341 9.498 10.505 9.925 10.505 z "/>
</svg>
