<?xml version="1.0" encoding="UTF-8"?>
<svg xmlns="http://www.w3.org/2000/svg" xmlns:xlink="http://www.w3.org/1999/xlink" contentScriptType="text/ecmascript" zoomAndPan="magnify" baseProfile="tiny" contentStyleType="text/css" version="1.1" width="26px" preserveAspectRatio="xMidYMid meet" viewBox="0 0 26 26" height="26px" x="0px" y="0px">
    <g>
        <path d="M 18.677 22.178 L 15.013 18.543 C 13.960001 19.054998 12.804001 19.324 11.636001 19.324 C 7.350001 19.324 3.8630009 15.839 3.8630009 11.553 C 3.8630009 7.269 7.350001 3.7839992 11.636001 3.7839992 C 15.925001 3.7839992 19.412 7.268999 19.412 11.553 C 19.412 12.829 19.097 14.077 18.494 15.202 L 22.160002 18.834 L 18.677 22.178 L 18.677 22.178 z M 7.542 13.191 C 8.194 14.811 9.783 15.958 11.635 15.958 C 13.488 15.958 15.079 14.811 15.73 13.191 L 7.542 13.191 L 7.542 13.191 z M 7.544 9.912 L 15.728001 9.912 C 15.075001 8.295 13.486 7.151 11.635 7.151 C 9.786 7.15 8.197 8.294 7.544 9.912 L 7.544 9.912 z "/>
        <path fill="#808080" d="M 17.466 15.335 C 18.177 14.243 18.595 12.953 18.595 11.554 C 18.595 7.721 15.474999 4.601 11.636999 4.601 C 7.800999 4.601 4.678999 7.72 4.678999 11.554 C 4.678999 15.388 7.799999 18.508 11.636999 18.508 C 12.923999 18.508 14.124999 18.151 15.159999 17.537 L 18.686998 21.036 L 20.989998 18.826 L 17.466 15.335 z M 11.636 16.775 C 8.754999 16.775 6.408999 14.433 6.408999 11.553999 C 6.408999 8.675999 8.754999 6.333999 11.636 6.333999 C 14.517 6.333999 16.863 8.675999 16.863 11.553999 C 16.863 14.433 14.518 16.775 11.636 16.775 z M 7.767 12.374 L 15.530001 12.374 L 15.530001 10.728 L 7.767 10.728 L 7.767 12.374 z "/>
        <rect width="26" fill="none" height="26"/>
    </g>
</svg>
