<?xml version="1.0" encoding="UTF-8"?>
<svg xmlns="http://www.w3.org/2000/svg" xmlns:xlink="http://www.w3.org/1999/xlink" contentScriptType="text/ecmascript" width="60" baseProfile="tiny" zoomAndPan="magnify" contentStyleType="text/css" viewBox="0 0 60 60" height="60" preserveAspectRatio="xMidYMid meet" version="1.1">
    <path fill="#ffffff" d="M 49.945 50.503 L 17.512 50.503 C 13.652999 50.503 10.959 47.807 10.959 43.947 L 10.959 20.101 L 10.959 19.976 L 10.834 19.976 L 3.329 19.976 L 3.329 15.33 C 3.329 11.473 6.023 8.778999 9.88 8.778999 L 42.315002 8.778999 C 46.173004 8.778999 48.870003 11.473 48.870003 15.33 L 48.870003 39.182 L 48.870003 39.307 L 48.996002 39.307 L 56.500004 39.307 L 56.500004 43.947998 C 56.498 47.807 53.803 50.503 49.945 50.503 L 49.945 50.503 z M 25.972 42.871 L 25.972 42.996998 L 25.972 43.947 C 25.972 44.917 25.776001 45.863 25.386 46.76 L 25.312 46.935997 L 25.501 46.935997 L 49.945 46.935997 C 51.842 46.935997 52.933 45.847996 52.933 43.947998 L 52.933 42.998997 L 52.933 42.872997 L 52.806 42.872997 L 26.097 42.872997 L 25.972 42.871 L 25.972 42.871 z M 13.812 12.343 L 13.886001 12.518001 C 14.309001 13.508 14.523001 14.616001 14.523001 15.808001 L 14.523001 43.947 C 14.523001 45.847 15.612 46.934998 17.512001 46.934998 L 19.420002 46.934998 C 21.317001 46.934998 22.407001 45.846996 22.407001 43.947 L 22.407001 39.306 L 45.177002 39.306 L 45.303 39.306 L 45.303 39.18 L 45.303 15.33 C 45.303 13.433 44.214 12.343 42.315002 12.343 L 14.001 12.343 L 13.812 12.343 L 13.812 12.343 z M 8.985 12.479 L 8.952 12.487 C 7.6229997 12.819 6.891 13.828 6.891 15.329 L 6.891 16.284 L 6.891 16.41 L 7.016 16.41 L 10.832 16.41 L 10.957 16.41 L 10.957 16.284 L 10.957 15.807 C 10.957 14.557 10.6189995 12.965 9.016 12.488 L 8.985 12.479 L 8.985 12.479 z "/>
    <path fill="#ffffff" d="M 25.026 25.093 C 25.221998 24.852001 25.421999 24.627 25.636 24.441 C 25.354 24.123 25.111 23.773 24.899 23.401001 L 22.853 23.401001 C 21.645 23.401001 20.452 26.229 19.631 28.607 C 18.811 30.982 18.386 32.709 18.386 32.709 L 20.31 32.709 C 20.31 32.411 20.706 30.842 21.357 28.918 C 22.065 27.022 22.59 25.883999 23.174 25.092999 L 25.026 25.092999 z M 24.457 22.43 C 24.240002 21.815 24.117 21.156 24.111 20.468 C 23.398 20.018 22.919 19.229 22.919 18.324001 C 22.919 16.927002 24.059 15.786001 25.457 15.786001 C 25.699001 15.786001 25.929 15.831001 26.151001 15.894001 C 26.646002 15.453001 27.212002 15.087001 27.832 14.827001 C 27.154001 14.365001 26.336 14.095 25.457 14.095 C 23.124 14.095 21.228 15.992001 21.228 18.324001 C 21.227 20.312 22.606 21.979 24.457 22.43 z M 29.741 27.189 C 29.936998 26.948 30.137999 26.723 30.352 26.536 C 30.07 26.219 29.827 25.869 29.615 25.495998 L 27.569 25.495998 C 26.361 25.495998 25.167 28.323997 24.347 30.701998 C 23.527 33.078 23.102 34.804996 23.102 34.804996 L 25.026 34.804996 C 25.026 34.504997 25.421999 32.937996 26.073 31.013996 C 26.781 29.117996 27.306 27.978996 27.89 27.188995 L 29.741 27.188995 L 29.741 27.189 z M 25.942 20.42 C 25.942 22.408 27.321999 24.075 29.171999 24.526001 C 28.955 23.910002 28.831 23.251001 28.825998 22.563002 C 28.111998 22.113 27.633999 21.324001 27.633999 20.420002 C 27.633999 19.022001 28.772999 17.882002 30.171999 17.882002 C 30.414 17.882002 30.644999 17.927002 30.865 17.990002 C 31.361 17.551003 31.927 17.183002 32.547 16.923002 C 31.87 16.462002 31.052 16.191002 30.172 16.191002 C 27.839 16.191 25.942 18.088 25.942 20.42 z M 30.659 22.517 C 30.659 24.849 32.555 26.746 34.888 26.746 C 37.217 26.746 39.117 24.849 39.117 22.517 C 39.117 20.185 37.218002 18.287 34.888 18.287 C 32.555 18.287 30.659 20.185 30.659 22.517 z M 34.889 19.979 C 36.287 19.979 37.425 21.118 37.425 22.517 C 37.425 23.916 36.287 25.054 34.889 25.054 C 33.492 25.054 32.352 23.916 32.352 22.517 C 32.352 21.118 33.49 19.979 34.889 19.979 z M 40.648 32.798 C 39.828 30.421 38.631 27.594 37.423 27.594 L 34.92 27.594 L 32.282997 27.594 C 31.074997 27.594 29.881996 30.421 29.060997 32.798 C 28.239998 35.176 27.816998 36.902 27.816998 36.902 L 29.739998 36.902 C 29.739998 36.603 30.136997 35.035 30.785997 33.109 C 31.494997 31.213001 32.017 30.076 32.602997 29.286001 L 34.916996 29.286001 L 37.100998 29.286001 C 37.684998 30.076002 38.21 31.215002 38.917 33.109 C 39.567 35.035 39.965 36.603 39.965 36.902 L 41.89 36.902 C 41.893 36.9 41.469 35.176 40.648 32.798 z "/>
    <rect width="60" fill="none" height="60"/>
</svg>
