<?xml version="1.0" encoding="UTF-8"?>
<svg xmlns="http://www.w3.org/2000/svg" xmlns:xlink="http://www.w3.org/1999/xlink" contentScriptType="text/ecmascript" width="100" baseProfile="tiny" zoomAndPan="magnify" contentStyleType="text/css" viewBox="-3 -3 100 100" height="100" preserveAspectRatio="xMidYMid meet" version="1.1">
    <rect x="-3" width="100" fill="none" y="-3" height="100"/>
    <g>
        <path fill="#404040" d="M 95.656 46.991 C 89.701 36.887 81.615 28.616001 71.736 22.401001 L 71.123 22.955002 C 80.647 28.974003 88.445 36.971 94.196 46.728004 C 88.402 56.556 80.531 64.6 70.91 70.635 C 70.885 70.677 70.855 70.72 70.83 70.761 C 71.298004 71.201004 71.615005 71.486 71.743004 71.574005 C 81.621 65.362 89.701 57.091 95.656 46.991 z "/>
        <path d="M 71.122 22.955 L 71.041 23.029 L 61.643 31.521 L 64.397 35.026 L 73.850006 47.056 L 73.840004 47.068 L 73.874 47.112 L 64.564 58.633 L 61.902004 61.928 L 63.851006 63.883003 C 65.93301 65.969 69.14001 69.164 70.781006 70.717 C 70.824005 70.692 70.865005 70.662 70.908005 70.637 C 80.531006 64.602005 88.40001 56.557 94.19501 46.729 C 88.444 36.971 80.647 28.975 71.122 22.955 z "/>
    </g>
    <linearGradient x1="-664.7246" gradientTransform="matrix(1.1111 0 0 -1.1111 798.8207 1253.9821)" y1="1108.166" x2="-636.5163" gradientUnits="userSpaceOnUse" y2="1085.1444" xlink:type="simple" xlink:actuate="onLoad" id="XMLID_2_" xlink:show="other">
        <stop stop-color="#ffffff" offset="0"/>
        <stop stop-color="#d9d9d9" offset="0.0644"/>
        <stop stop-color="#a7a7a7" offset="0.1609"/>
        <stop stop-color="#7a7a7a" offset="0.2621"/>
        <stop stop-color="#545454" offset="0.3662"/>
        <stop stop-color="#363636" offset="0.474"/>
        <stop stop-color="#1e1e1e" offset="0.5864"/>
        <stop stop-color="#0d0d0d" offset="0.7055"/>
        <stop stop-color="#030303" offset="0.8362"/>
        <stop stop-color="#000000" offset="1"/>
    </linearGradient>
    <path fill="url(#XMLID_2_)" d="M 60.197 29.777 C 60.197 29.777 65.756 25.228 69.093 23.712 C 69.093 23.712 80.316 29.272999 92.75101 46.561 C 92.752 46.561 76.98 29.878 60.197 29.777 z " fill-opacity="0.5"/>
    <g>
        <path fill="#ffffff" d="M 86.17 43.813 L 84.269 43.813 L 84.269 41.912 C 84.269 40.385998 83.032 39.148 81.506 39.148 C 79.978 39.148 78.74 40.385998 78.74 41.912 L 78.74 43.813 L 76.838 43.813 C 75.312996 43.813 74.073 45.052 74.073 46.578 C 74.073 48.105 75.312 49.342 76.838 49.342 L 78.74 49.342 L 78.74 51.244 C 78.74 52.771 79.977 54.009 81.506 54.009 C 83.031 54.009 84.269 52.772 84.269 51.244 L 84.269 49.342 L 86.17 49.342 C 87.696 49.342 88.934 48.106 88.934 46.578 C 88.936 45.053 87.696 43.813 86.17 43.813 z "/>
        <path fill="#ffffff" d="M 17.413 43.992 C 18.94 43.992 20.178 45.23 20.178 46.757 L 20.178 46.757 C 20.178 48.283 18.939999 49.522 17.413 49.522 L 8.081 49.522 C 6.5540004 49.522 5.316 48.284 5.316 46.757 L 5.316 46.757 C 5.316 45.231 6.554 43.992 8.081 43.992 L 17.413 43.992 z " display="none"/>
        <g>
            <path fill="#ffffff" d="M 49.257 75.446 C 48.086 75.446 47.137 76.395 47.137 77.566 L 47.137 84.722 C 47.137 85.894 48.086002 86.842 49.257 86.842 C 50.427998 86.842 54.955 82.316 54.955 81.144005 C 54.955 79.976 50.427 75.446 49.257 75.446 z " display="none"/>
            <path fill="#ffffff" d="M 41.855 77.57 C 41.855 76.409996 42.797 75.465 43.96 75.465 L 43.96 75.465 C 45.121998 75.465 46.065 76.409996 46.065 77.57 L 46.065 84.677 C 46.065 85.837006 45.121998 86.782005 43.96 86.782005 L 43.96 86.782005 C 42.798 86.782005 41.855 85.837006 41.855 84.677 L 41.855 77.57 z " display="none"/>
        </g>
        <g>
            <path fill="#ffffff" d="M 44.777 18.603 C 45.947 18.603 46.896 17.654001 46.896 16.483002 L 46.896 9.327 C 46.896 8.156 45.947 7.207 44.777 7.207 C 43.605 7.207 39.079002 11.733999 39.079002 12.906 C 39.078 14.075 43.605 18.603 44.777 18.603 z " display="none"/>
            <path fill="#ffffff" d="M 52.177 16.479 C 52.177 17.64 51.234997 18.584 50.072 18.584 L 50.072 18.584 C 48.911 18.584 47.968 17.639 47.968 16.479 L 47.968 9.372 C 47.968 8.21 48.911 7.2669997 50.072 7.2669997 L 50.072 7.2669997 C 51.234997 7.2669997 52.177 8.21 52.177 9.372 L 52.177 16.479 z " display="none"/>
        </g>
    </g>
</svg>
