<?xml version="1.0" encoding="UTF-8"?>
<svg xmlns="http://www.w3.org/2000/svg" xmlns:xlink="http://www.w3.org/1999/xlink" contentScriptType="text/ecmascript" width="26" baseProfile="tiny" zoomAndPan="magnify" contentStyleType="text/css" viewBox="0 0 26 26" height="26" preserveAspectRatio="xMidYMid meet" version="1.1">
    <g>
        <g>
            <g>
                <path fill="#e9e9e9" d="M 11.182 8.645 L 9.363 4.266 C 7.041 5.227 5.188 7.08 4.225 9.395 L 8.622999 11.213 C 9.104 10.055 10.021 9.125 11.182 8.645 z "/>
                <path fill="#c4c4c4" d="M 8.251 13.023 C 8.251 12.378 8.391001 11.771 8.623 11.212 L 4.225 9.395 C 3.761 10.512 3.5 11.736 3.5 13.023 C 3.5 14.309 3.76 15.533 4.223 16.65 L 8.613 14.8359995 C 8.379 14.277 8.251 13.666 8.251 13.023 z "/>
                <path fill="#a8a8a8" d="M 8.612 14.836 L 4.2220006 16.65 C 5.1850004 18.968 7.042001 20.816 9.364 21.777 L 11.186001 17.39 C 10.025 16.91 9.094 15.994 8.612 14.836 z "/>
                <path fill="#8f8f8f" d="M 13.001 17.762 C 12.3550005 17.762 11.746 17.620998 11.187 17.390999 L 9.365 21.778 C 10.485 22.241 11.712 22.503 13.002 22.503 C 14.29 22.503 15.5199995 22.245 16.639 21.78 L 14.819 17.401001 C 14.259 17.631 13.645 17.762 13.001 17.762 z "/>
                <path fill="#4b4b4b" d="M 17.389 11.209 C 17.621 11.768 17.75 12.379 17.75 13.023 C 17.75 13.665999 17.611 14.273 17.379 14.832 L 21.775 16.65 C 22.24 15.533 22.501 14.308 22.501 13.023 C 22.501 11.736 22.241 10.511 21.777 9.394 L 17.389 11.209 z "/>
                <path fill="#1e1e1e" d="M 16.637 4.268 L 14.814999 8.655001 C 15.976998 9.135 16.911 10.051001 17.388998 11.210001 L 21.777998 9.396001 C 20.814 7.078 18.958 5.229 16.637 4.268 z "/>
                <path fill="#fcfcfc" d="M 13.001 3.5 C 11.712 3.5 10.484 3.758 9.363001 4.221 L 11.182 8.6 C 11.743 8.368 12.357 8.239 13.001 8.239 C 13.645 8.239 14.255 8.378 14.814 8.610001 L 17.865 7.6100006 L 16.636 4.2230005 C 15.518 3.76 14.29 3.5 13.001 3.5 z "/>
                <path fill="#7e7e7e" d="M 17.379 14.832 C 16.897 15.99 15.981 16.92 14.818 17.4 L 16.633999 21.779 C 18.956999 20.817999 20.811998 18.966 21.774998 16.65 L 17.379 14.832 z "/>
            </g>
            <rect width="26" fill="none" height="26"/>
        </g>
    </g>
</svg>
