<?xml version="1.0" encoding="UTF-8"?>
<svg xmlns="http://www.w3.org/2000/svg" xmlns:xlink="http://www.w3.org/1999/xlink" contentScriptType="text/ecmascript" width="40" baseProfile="tiny" zoomAndPan="magnify" contentStyleType="text/css" viewBox="-0.5 0.146 40 50" height="50" preserveAspectRatio="xMidYMid meet" version="1.1">
    <rect x="-0.5" width="40" fill="none" y="0.146" height="50"/>
    <path fill="#666666" d="M 37.699 49.646 L 1.301 49.646 C 0.582 49.646 0.0 48.934 0.0 48.055 L 0.042 2.2350006 C 0.042 1.3570006 0.62299997 0.6450006 1.342 0.6450006 L 31.201 0.6450006 C 31.917 0.6450006 32.501 1.3570006 32.501 2.2350006 L 39.0 48.055 C 39.0 48.934 38.416 49.646 37.699 49.646 L 37.699 49.646 z "/>
    <path d="M 32.501 2.235 C 32.501 1.3569999 31.917 0.64499986 31.201 0.64499986 L 1.342 0.64499986 C 0.623 0.64499986 0.042000055 1.3569999 0.042000055 2.235 L 0.0 48.055 C 0.0 48.934002 0.582 49.647 1.301 49.647 L 37.698997 49.647 C 38.415997 49.647 38.999996 48.934 38.999996 48.055 L 32.501 2.235 z M 1.301 48.055 L 1.342 2.2350006 L 31.201 2.2350006 L 37.699 48.055 L 1.301 48.055 z " fill-opacity="0.25"/>
</svg>
