<?xml version="1.0" encoding="UTF-8"?>
<svg xmlns="http://www.w3.org/2000/svg" xmlns:xlink="http://www.w3.org/1999/xlink" contentScriptType="text/ecmascript" width="84" baseProfile="tiny" zoomAndPan="magnify" contentStyleType="text/css" viewBox="-1.438 -0.048 84 58" height="58" preserveAspectRatio="xMidYMid meet" version="1.1">
    <linearGradient x1="-642.3057" gradientTransform="matrix(1 0 0 -1 694.626 1053.8728)" y1="1021.5829" x2="-625.4857" gradientUnits="userSpaceOnUse" y2="1009.7529" xlink:type="simple" xlink:actuate="onLoad" id="XMLID_26_" xlink:show="other">
        <stop stop-color="#a2c2dd" offset="0"/>
        <stop stop-color="#a2c2dd" offset="0.1"/>
        <stop stop-color="#6c83bb" offset="0.71"/>
        <stop stop-color="#003d6d" offset="0.99"/>
        <stop stop-color="#003d6d" offset="1"/>
    </linearGradient>
    <path fill="url(#XMLID_26_)" d="M 32.083 5.984 L 27.486 6.6940002 L 18.385 37.429 L 51.522 53.41 L 52.102 50.677 L 55.964 52.509 L 62.062 48.236 L 62.341 43.056 L 69.093 44.924 L 72.368004 42.857 L 65.847 13.425999 L 63.069 12.734999 C 62.506 8.128999 56.407 7.2559986 53.173 10.202999 L 51.878002 9.878999 C 51.315002 5.562999 45.642002 4.469999 42.503002 7.495999 L 41.696 7.3 C 41.096 2.655 34.557 2.063 32.083 5.984 z "/>
    <linearGradient x1="-651.3115" gradientTransform="matrix(1 0 0 -1 694.626 1053.8728)" y1="1044.4755" x2="-621.0717" gradientUnits="userSpaceOnUse" y2="1009.8456" xlink:type="simple" xlink:actuate="onLoad" id="XMLID_27_" xlink:show="other">
        <stop stop-color="#ffffff" offset="0"/>
        <stop stop-color="#a2c2dd" offset="0.35"/>
        <stop stop-color="#6c83bb" offset="0.7"/>
        <stop stop-color="#003d6d" offset="1"/>
    </linearGradient>
    <polygon fill="url(#XMLID_27_)" points="69.109,44.45 63.541,15.01 55.259,40.629 "/>
    <polygon fill="#ffffff" points="55.992,52.088 22.504,36.298 59.438,16.874 "/>
    <linearGradient x1="-649.6748" gradientTransform="matrix(1 0 0 -1 694.626 1053.8728)" y1="1036.9706" x2="-646.7748" gradientUnits="userSpaceOnUse" y2="1047.7206" xlink:type="simple" xlink:actuate="onLoad" id="XMLID_28_" xlink:show="other">
        <stop stop-color="#ffffff" offset="0"/>
        <stop stop-color="#ffffff" offset="0.15"/>
        <stop stop-color="#a2c2dd" offset="1"/>
    </linearGradient>
    <polygon fill="url(#XMLID_28_)" points="65.556,13.752 34.76,5.922 27.871,6.986 59.274,16.976 "/>
    <linearGradient x1="-642.4961" gradientTransform="matrix(1 0 0 -1 694.626 1053.8728)" y1="1022.9052" x2="-616.3661" gradientUnits="userSpaceOnUse" y2="1017.0051" xlink:type="simple" xlink:actuate="onLoad" id="XMLID_29_" xlink:show="other">
        <stop stop-color="#ffffff" offset="0"/>
        <stop stop-color="#a2c2dd" offset="0.35"/>
        <stop stop-color="#6c83bb" offset="0.7"/>
        <stop stop-color="#003d6d" offset="1"/>
    </linearGradient>
    <polygon fill="url(#XMLID_29_)" points="55.992,52.088 61.669,48.11 63.371,16.643 69.109,44.532 71.976,42.724 65.556,13.752   59.274,16.976 "/>
    <linearGradient x1="-659.7979" gradientTransform="matrix(1 0 0 -1 694.626 1053.8728)" y1="1008.1024" x2="-653.9276" gradientUnits="userSpaceOnUse" y2="1027.9034" xlink:type="simple" xlink:actuate="onLoad" id="XMLID_30_" xlink:show="other">
        <stop stop-color="#cadcec" offset="0"/>
        <stop stop-color="#87a8cb" offset="1"/>
    </linearGradient>
    <polygon fill="url(#XMLID_30_)" points="27.73,7.04 18.806,37.222 51.294,52.901 58.839,17.304 "/>
    <linearGradient x1="-673.938" gradientTransform="matrix(1 0 0 -1 694.626 1053.8728)" y1="1005.7635" x2="-647.208" gradientUnits="userSpaceOnUse" y2="1033.0035" xlink:type="simple" xlink:actuate="onLoad" id="XMLID_31_" xlink:show="other">
        <stop stop-color="#ffffff" offset="0"/>
        <stop stop-color="#ffffff" offset="0.15"/>
        <stop stop-color="#a2c2dd" offset="1"/>
    </linearGradient>
    <polygon fill="url(#XMLID_31_)" points="27.871,6.981 22.504,36.298 51.945,50.065 59.274,16.976 "/>
    <linearGradient x1="-659.9077" gradientTransform="matrix(1 0 0 -1 694.626 1053.8728)" y1="1015.1327" x2="-643.1877" gradientUnits="userSpaceOnUse" y2="1036.2327" xlink:type="simple" xlink:actuate="onLoad" id="XMLID_32_" xlink:show="other">
        <stop stop-color="#e6eef4" offset="0"/>
        <stop stop-color="#2f8e9a" offset="0.44"/>
        <stop stop-color="#003d6d" offset="0.94"/>
        <stop stop-color="#003d6d" offset="1"/>
    </linearGradient>
    <polygon fill="url(#XMLID_32_)" points="45.335,19.693 43,35.09 45.449,35.95 44.802,39.544 34.362,35.571 34.859,32.821   37.545,33.663 38.993,24.604 35.807,23.838 "/>
    <path fill="#3f5aa6" d="M 31.623 10.957 C 30.795 12.082 31.627998 14.024 33.302 14.069 C 35.329 14.141 36.303997 11.601 34.906 10.499001 C 36.234997 7.9350004 41.216 7.5290003 41.216 7.5290003 C 37.022 1.8 31.623 10.957 31.623 10.957 z "/>
    <linearGradient x1="-660.4761" gradientTransform="matrix(1 0 0 -1 694.626 1053.8728)" y1="1042.8729" x2="-655.2261" gradientUnits="userSpaceOnUse" y2="1051.303" xlink:type="simple" xlink:actuate="onLoad" id="XMLID_33_" xlink:show="other">
        <stop stop-color="#87a8cb" offset="0"/>
        <stop stop-color="#cadcec" offset="0.5"/>
        <stop stop-color="#87a8cb" offset="1"/>
    </linearGradient>
    <path fill="url(#XMLID_33_)" d="M 41.18 7.465 C 40.96 1.6090002 29.198 2.282 31.944 12.082001 C 32.219 12.699 33.581 12.969001 34.314 12.1380005 C 34.648 7.082 38.453 4.21 41.18 7.465 z "/>
    <path fill="#3f5aa6" d="M 41.214 13.893 C 40.327 15.099 41.214 17.153 43.007 17.199 C 45.183 17.276999 46.231 14.581999 44.734 13.405999 C 45.679 10.759999 51.492 10.219999 51.492 10.219999 C 47.001 4.084 41.214 13.893 41.214 13.893 z "/>
    <linearGradient x1="-650.7031" gradientTransform="matrix(1 0 0 -1 694.626 1053.8728)" y1="1039.9296" x2="-645.0831" gradientUnits="userSpaceOnUse" y2="1048.9696" xlink:type="simple" xlink:actuate="onLoad" id="XMLID_34_" xlink:show="other">
        <stop stop-color="#87a8cb" offset="0"/>
        <stop stop-color="#cadcec" offset="0.5"/>
        <stop stop-color="#87a8cb" offset="1"/>
    </linearGradient>
    <path fill="url(#XMLID_34_)" d="M 51.455 10.149 C 51.219 3.8770003 38.616 4.597 41.558002 15.097 C 41.852 15.7560005 43.312004 16.047 44.098003 15.157001 C 44.455 9.74 48.535 6.662 51.455 10.149 z "/>
    <path fill="#3f5aa6" d="M 51.736 17.051 C 50.802002 18.316 51.73 20.454 53.615 20.504002 C 55.898003 20.584002 57.002003 17.773003 55.43 16.537003 C 56.473 13.638002 62.761 13.068003 62.761 13.068003 C 58.046 6.622 51.736 17.051 51.736 17.051 z "/>
    <linearGradient x1="-639.959" gradientTransform="matrix(1 0 0 -1 694.626 1053.8728)" y1="1036.7645" x2="-633.9595" gradientUnits="userSpaceOnUse" y2="1046.4137" xlink:type="simple" xlink:actuate="onLoad" id="XMLID_35_" xlink:show="other">
        <stop stop-color="#87a8cb" offset="0"/>
        <stop stop-color="#cadcec" offset="0.5"/>
        <stop stop-color="#87a8cb" offset="1"/>
    </linearGradient>
    <path fill="url(#XMLID_35_)" d="M 62.722 12.992 C 62.476 6.4069996 49.003 7.2909994 52.095 18.314999 C 52.404 19.008 53.934002 19.314999 54.757 18.378998 C 55.137 12.688 59.654 9.329 62.722 12.992 z "/>
    <path fill="#ffffff" d="M 12.269 34.452 C 9.496 34.452 5.693 35.11 4.73 40.806 L 4.584 41.663 C 4.584 41.663 10.978001 41.663 11.735001 41.663 C 11.964001 42.074997 12.305 42.69 12.522 43.085 C 12.305 43.478 11.964001 44.093 11.735001 44.503 C 10.977 44.503 4.5840006 44.503 4.5840006 44.503 L 4.7300005 45.362 C 5.6930003 51.055 9.496 51.714 12.269001 51.714 C 14.457001 51.714 16.408 49.88 17.974 48.403 C 18.820002 47.604 19.62 46.854 20.041 46.854 L 39.621002 46.854 L 39.840004 46.614 C 40.261005 46.150997 41.236004 44.886997 41.259003 43.114 L 41.259003 43.051 C 41.238003 41.278 40.260002 40.014 39.840004 39.552998 L 39.621002 39.312996 L 20.041002 39.312996 C 19.619001 39.312996 18.819002 38.560997 17.976002 37.765995 C 16.408 36.288 14.457 34.452 12.269 34.452 z "/>
    <linearGradient x1="-683.6943" gradientTransform="matrix(1 0 0 -1 694.626 1053.8728)" y1="1024.0516" x2="-662.5851" gradientUnits="userSpaceOnUse" y2="998.6525" xlink:type="simple" xlink:actuate="onLoad" id="XMLID_36_" xlink:show="other">
        <stop stop-color="#e6edf3" offset="0"/>
        <stop stop-color="#cabad7" offset="0.12"/>
        <stop stop-color="#ab7eb8" offset="0.27"/>
        <stop stop-color="#9759a4" offset="0.38"/>
        <stop stop-color="#8f4b9c" offset="0.44"/>
        <stop stop-color="#73357c" offset="0.57"/>
        <stop stop-color="#551d5a" offset="0.72"/>
        <stop stop-color="#430e45" offset="0.85"/>
        <stop stop-color="#3c093d" offset="0.94"/>
        <stop stop-color="#3c093d" offset="1"/>
    </linearGradient>
    <path fill="url(#XMLID_36_)" d="M 40.527 43.084 C 40.527 43.076 40.529 43.065 40.529 43.062 L 40.524998 43.062 C 40.505997 41.519 39.621998 40.406002 39.295998 40.049 C 38.884 40.049 20.041998 40.049 20.041998 40.049 C 19.324997 40.049 18.548998 39.315998 17.467999 38.302 C 15.996999 36.913998 14.166998 35.190998 12.269999 35.190998 C 9.1919985 35.190998 6.2759986 36.094997 5.4579988 40.928997 C 6.614999 40.928997 12.170999 40.928997 12.170999 40.928997 L 13.364999 43.083996 L 12.170999 45.236996 C 12.170999 45.236996 6.6149983 45.236996 5.4579988 45.236996 C 6.272999 50.070995 9.188999 50.974995 12.269999 50.974995 C 14.166999 50.974995 15.998999 49.249996 17.467999 47.863995 C 18.548998 46.849995 19.324999 46.115993 20.041998 46.115993 C 20.041998 46.115993 38.883995 46.115993 39.295998 46.115993 C 39.621 45.761993 40.506996 44.64699 40.524998 43.103992 L 40.529 43.103992 C 40.529 43.099 40.527 43.093 40.527 43.084 z "/>
</svg>
