<?xml version="1.0" encoding="UTF-8"?>
<svg xmlns="http://www.w3.org/2000/svg" xmlns:xlink="http://www.w3.org/1999/xlink" contentScriptType="text/ecmascript" width="54" baseProfile="tiny" zoomAndPan="magnify" contentStyleType="text/css" viewBox="-6.22 -7.963 54 54" height="54" preserveAspectRatio="xMidYMid meet" version="1.1">
    <rect x="-6.22" width="54" fill="none" y="-7.963" height="54"/>
    <path fill="#ffffff" d="M 20.416 9.109 C 25.213001 9.109 30.374 11.553 30.374 16.925 C 30.374 18.622 29.279001 21.109999 28.119 23.294998 L 29.696 24.870998 C 31.202 22.140999 32.42 19.343998 32.42 17.110998 C 32.42 10.923998 26.936998 7.091998 20.448997 7.091998 C 17.868998 7.091998 15.526998 7.7079983 13.6329975 8.827998 L 15.098997 10.291998 C 16.679 9.496 18.549 9.109 20.416 9.109 z M 23.614 30.769 C 23.401001 31.106998 23.29 31.311998 23.286001 31.316 L 22.952002 31.986 L 22.952002 32.413 L 17.994001 32.413 L 18.009 31.668999 L 17.365002 30.815998 C 16.458002 29.617998 15.587002 28.061998 14.780002 26.553997 C 13.081001 23.366997 10.963001 19.400997 10.963001 16.921997 C 10.963001 16.529997 10.995001 16.158997 11.043001 15.797997 L 9.376001 14.1329975 C 9.095001 15.051997 8.936002 16.043997 8.936002 17.111998 C 8.936002 20.049997 10.906002 23.781998 12.759002 27.252998 C 13.588001 28.807999 14.430002 30.297998 15.361002 31.523998 C 15.350002 31.523998 15.338002 31.523998 15.338002 31.523998 L 15.338002 39.655 L 25.655003 39.655 L 25.655003 31.523998 C 25.656002 31.520998 25.834003 31.237999 26.092003 30.828 L 24.546003 29.283998 C 24.161 29.898 23.812 30.453 23.614 30.769 z M 22.362 36.404 L 18.463999 36.404 L 18.463999 34.123 L 22.362 34.123 L 22.362 36.404 z M 4.788 2.983 L 2.992 4.771 L 37.348 39.085 L 39.142998 37.295998 L 4.788 2.983 z "/>
</svg>
