<?xml version="1.0" encoding="UTF-8"?>
<svg xmlns="http://www.w3.org/2000/svg" xmlns:xlink="http://www.w3.org/1999/xlink" contentScriptType="text/ecmascript" width="58" baseProfile="tiny" zoomAndPan="magnify" contentStyleType="text/css" viewBox="-191 -180 58 58" height="58" preserveAspectRatio="xMidYMid meet" version="1.1">
    <g>
        <g>
            <g>
                <rect x="-191" width="58" fill="none" y="-180" height="58"/>
                <g>
                    <path d="M -189.206 -151.966 C -189.206 -137.49901 -177.43399 -125.729004 -162.967 -125.729004 C -148.498 -125.729004 -136.72899 -137.5 -136.72899 -151.966 C -136.72899 -166.434 -148.49998 -178.20401 -162.967 -178.20401 C -177.434 -178.205 -189.206 -166.435 -189.206 -151.966 z " fill-opacity="0.01"/>
                    <path d="M -188.06 -151.966 C -188.06 -138.13 -176.804 -126.87401 -162.967 -126.87401 C -149.12799 -126.87401 -137.871 -138.13 -137.871 -151.966 C -137.871 -165.802 -149.128 -177.057 -162.96701 -177.057 C -176.804 -177.058 -188.06 -165.803 -188.06 -151.966 z " fill-opacity="0.02"/>
                    <path d="M -186.917 -151.966 C -186.917 -138.764 -176.17201 -128.02 -162.96701 -128.02 C -149.759 -128.02 -139.02 -138.764 -139.02 -151.966 C -139.02 -165.17401 -149.76001 -175.91301 -162.96701 -175.91301 C -176.171 -175.914 -186.917 -165.174 -186.917 -151.966 z " fill-opacity="0.04"/>
                    <path d="M -185.95 -151.966 C -185.95 -139.294 -175.64 -128.988 -162.967 -128.988 C -150.29799 -128.988 -139.989 -139.294 -139.989 -151.966 C -139.989 -164.63701 -150.298 -174.946 -162.967 -174.946 C -175.64 -174.946 -185.95 -164.638 -185.95 -151.966 z " fill-opacity="0.07"/>
                </g>
                <linearGradient x1="-1551.2524" gradientTransform="matrix(1 0 0 1 1389.252 -792.3545)" y1="663.6973" x2="-1551.2524" gradientUnits="userSpaceOnUse" y2="627.946" xlink:type="simple" xlink:actuate="onLoad" id="XMLID_5_" xlink:show="other">
                    <stop stop-color="#000000" offset="0"/>
                    <stop stop-color="#000000" offset="0.3933"/>
                    <stop stop-color="#52a2a5" offset="0.9944"/>
                    <stop stop-color="#52a2a5" offset="1"/>
                </linearGradient>
                <path fill="url(#XMLID_5_)" d="M -162.0 -173.903 C -174.631 -173.903 -184.908 -163.63 -184.908 -151.0 C -184.908 -138.372 -174.63101 -128.09799 -162.0 -128.09799 C -149.37 -128.09799 -139.093 -138.37099 -139.093 -151.0 C -139.093 -163.63 -149.37 -173.903 -162.0 -173.903 z "/>
                <linearGradient x1="-1551.2524" gradientTransform="matrix(1 0 0 1 1389.252 -792.3545)" y1="615.7217" x2="-1551.2524" gradientUnits="userSpaceOnUse" y2="662.2848" xlink:type="simple" xlink:actuate="onLoad" id="XMLID_6_" xlink:show="other">
                    <stop stop-color="#000000" offset="0"/>
                    <stop stop-color="#000000" offset="0.3933"/>
                    <stop stop-color="#52a2a5" offset="0.9944"/>
                    <stop stop-color="#52a2a5" offset="1"/>
                </linearGradient>
                <path fill="url(#XMLID_6_)" d="M -162.0 -172.029 C -173.599 -172.029 -183.033 -162.593 -183.033 -150.99701 C -183.033 -139.404 -173.599 -129.973 -162.0 -129.973 C -150.40201 -129.973 -140.968 -139.40501 -140.968 -150.99701 C -140.968 -162.595 -150.402 -172.029 -162.0 -172.029 z "/>
                <linearGradient x1="-1551.2505" gradientTransform="matrix(1 0 0 1 1389.252 -792.3545)" y1="660.9121" x2="-1551.2505" gradientUnits="userSpaceOnUse" y2="616.504" xlink:type="simple" xlink:actuate="onLoad" id="XMLID_7_" xlink:show="other">
                    <stop stop-color="#000000" offset="0"/>
                    <stop stop-color="#000000" offset="0.3933"/>
                    <stop stop-color="#52a2a5" offset="0.9944"/>
                    <stop stop-color="#52a2a5" offset="1"/>
                </linearGradient>
                <path fill="url(#XMLID_7_)" d="M -162.0 -170.799 C -172.919 -170.799 -181.802 -161.91699 -181.802 -150.997 C -181.802 -140.082 -172.919 -131.19899 -162.0 -131.19899 C -151.081 -131.19899 -142.195 -140.083 -142.195 -150.997 C -142.195 -161.917 -151.081 -170.799 -162.0 -170.799 z "/>
                <linearGradient x1="-856.6245" gradientTransform="matrix(1 0 0 -1 694.626 1031.9688)" y1="1183.7598" x2="-856.6245" gradientUnits="userSpaceOnUse" y2="1155.6602" xlink:type="simple" xlink:actuate="onLoad" id="XMLID_8_" xlink:show="other">
                    <stop stop-color="#ffffff" offset="0"/>
                    <stop stop-color="#7fd3ff" offset="1"/>
                </linearGradient>
                <path fill="url(#XMLID_8_)" d="M -143.341 -150.999 C -143.341 -140.69699 -151.694 -132.34799 -162.0 -132.34799 C -172.306 -132.34799 -180.656 -140.698 -180.656 -150.999 C -180.656 -161.30399 -172.306 -169.659 -162.0 -169.659 C -151.693 -169.659 -143.341 -161.304 -143.341 -150.999 z "/>
            </g>
        </g>
    </g>
    <g>
        <g>
            <g>
                <g>
                    <path d="M -162.774 -157.049 L -162.746 -149.375 C -165.539 -149.993 -168.485 -145.667 -165.23601 -145.064 C -163.147 -144.775 -161.296 -146.72 -161.296 -147.933 C -161.296 -148.258 -161.30501 -153.541 -161.30501 -153.541 L -158.192 -151.883 L -158.198 -154.44899 L -162.774 -157.049 z "/>
                    <path d="M -173.008 -162.271 L -175.655 -159.258 L -175.621 -141.551 L -147.901 -141.551 L -147.901 -160.028 L -161.038 -160.003 L -163.07399 -162.29701 L -173.008 -162.271 z M -164.111 -159.966 L -162.079 -157.686 L -150.256 -157.686 L -150.222 -143.851 L -173.351 -143.851 L -173.351 -158.381 L -171.959 -159.967 L -164.111 -159.967 z "/>
                </g>
            </g>
        </g>
    </g>
</svg>
