<?xml version="1.0" encoding="UTF-8"?>
<svg xmlns="http://www.w3.org/2000/svg" xmlns:xlink="http://www.w3.org/1999/xlink" contentScriptType="text/ecmascript" width="88" baseProfile="tiny" zoomAndPan="magnify" contentStyleType="text/css" viewBox="-1 -1 88 88" height="88" preserveAspectRatio="xMidYMid meet" version="1.1">
    <g>
        <rect x="-1" width="88" fill="none" y="-1" height="88"/>
        <path fill="#ffffff" d="M 13.178 6.0 C 9.22 6.0 6.0 9.221 6.0 13.18 L 6.0 72.823 C 6.0 76.78 9.22 80.003 13.1779995 80.003 L 72.824 80.003 C 76.782 80.003 80.002 76.78 80.002 72.823 L 80.002 13.18 C 80.002 9.221001 76.782 6.0000005 72.824 6.0000005 L 13.178 6.0000005 z " fill-opacity="0.2" stroke-opacity="0.2"/>
        <linearGradient x1="-673.5322" gradientTransform="matrix(1 0 0 -1 694.9014 333.6367)" y1="253.1719" x2="-630.27" gradientUnits="userSpaceOnUse" y2="328.1042" xlink:type="simple" xlink:actuate="onLoad" id="XMLID_15_" xlink:show="other">
            <stop stop-color="#000000" offset="0"/>
            <stop stop-color="#000000" offset="0.6461"/>
            <stop stop-color="#52a2a5" offset="0.9944"/>
            <stop stop-color="#52a2a5" offset="1"/>
        </linearGradient>
        <path fill="url(#XMLID_15_)" d="M 75.999 71.035 C 75.999 73.775 73.775 76.0 71.037 76.0 L 14.965 76.0 C 12.225 76.0 10.0 73.775 10.0 71.035 L 10.0 14.966 C 10.0 12.221 12.225 10.0 14.965 10.0 L 71.035 10.0 C 73.775 10.0 75.998 12.222 75.998 14.966 L 75.999 71.035 L 75.999 71.035 z "/>
        <g>
            <path fill="#ffffff" d="M 71.83 30.608 C 71.476006 30.434 64.848 27.197 64.848 27.197 L 50.676 25.181 C 50.676 25.181 48.057 25.803 47.522 25.93 C 46.884 25.807001 35.156998 23.551 35.156998 23.551 L 17.018997 28.789001 C 17.018997 28.789001 17.987997 45.072002 18.066998 46.396004 C 14.855997 49.126003 13.033998 53.304005 13.033998 58.396004 L 13.057998 59.447002 C 13.799997 66.671005 17.338997 72.644005 22.786999 76.00101 L 40.187996 76.00101 C 41.579994 75.242004 43.042995 74.44501 43.527996 74.18101 C 44.027996 74.352005 46.506996 75.19601 48.878998 76.00101 L 71.037994 76.00101 C 73.77599 76.00101 75.99999 73.77501 75.99999 71.03601 L 75.99899 71.03601 L 75.99899 31.411 C 74.359 31.095 72.027 30.646 71.83 30.608 z "/>
            <linearGradient x1="-654.8882" gradientTransform="matrix(1 0 0 -1 694.9014 333.6367)" y1="285.1475" x2="-640.3384" gradientUnits="userSpaceOnUse" y2="310.3483" xlink:type="simple" xlink:actuate="onLoad" id="XMLID_16_" xlink:show="other">
                <stop stop-color="#bbbcbe" offset="0"/>
                <stop stop-color="#808183" offset="1"/>
            </linearGradient>
            <polygon fill="url(#XMLID_16_)" points="35.289,26.477 19.997,30.894 66.443,41.587 75.999,38.422 75.999,34.312   "/>
            <linearGradient x1="-666.0752" gradientTransform="matrix(1 0 0 -1 694.9014 333.6367)" y1="255.8887" x2="-644.0236" gradientUnits="userSpaceOnUse" y2="294.0832" xlink:type="simple" xlink:actuate="onLoad" id="XMLID_17_" xlink:show="other">
                <stop stop-color="#bbbcbe" offset="0"/>
                <stop stop-color="#808183" offset="1"/>
            </linearGradient>
            <polygon fill="url(#XMLID_17_)" points="66.443,41.587 19.997,30.894 21.959,63.829 57.717,76 65.715,76   "/>
            <linearGradient x1="-611.5889" gradientTransform="matrix(1 0 0 -1 694.9014 333.6367)" y1="297.9463" x2="-638.0279" gradientUnits="userSpaceOnUse" y2="252.1527" xlink:type="simple" xlink:actuate="onLoad" id="XMLID_18_" xlink:show="other">
                <stop stop-color="#808183" offset="0"/>
                <stop stop-color="#231f20" offset="1"/>
            </linearGradient>
            <path fill="url(#XMLID_18_)" d="M 65.648 76.0 L 71.054 76.0 C 71.289 75.999 71.521 75.977 71.745 75.943 L 74.408005 74.668 C 75.385 73.762 75.996 72.471 75.996 71.034996 L 75.996 38.364 L 66.11 41.48 L 65.648 76.0 z "/>
            <linearGradient x1="-2263.0322" gradientTransform="matrix(1.1364 0 0 -1.1364 2607.6921 -970.5806)" y1="-881.6875" x2="-2238.4063" gradientUnits="userSpaceOnUse" y2="-881.6875" xlink:type="simple" xlink:actuate="onLoad" id="XMLID_19_" xlink:show="other">
                <stop stop-color="#d8d8d8" offset="0"/>
                <stop stop-color="#777777" offset="1"/>
            </linearGradient>
            <polygon fill="url(#XMLID_19_)" points="48.448,34.658 36.016,31.587 50.809,28.078 64.001,29.954   "/>
            <linearGradient x1="-2262.2422" gradientTransform="matrix(1.1364 0 0 -1.1364 2607.6921 -970.5806)" y1="-891.8691" x2="-2258.0854" gradientUnits="userSpaceOnUse" y2="-919.6366" xlink:type="simple" xlink:actuate="onLoad" id="XMLID_20_" xlink:show="other">
                <stop stop-color="#808183" offset="0"/>
                <stop stop-color="#231f20" offset="1"/>
            </linearGradient>
            <path fill="url(#XMLID_20_)" d="M 34.929 41.666 C 29.064001 43.916 22.432001 46.945 22.432001 46.945 L 36.146 74.959 L 49.382 67.744 C 60.277 59.164 50.323 37.472 34.929 41.666 z "/>
            <linearGradient x1="-2267.8452" gradientTransform="matrix(1.1364 0 0 -1.1364 2607.6921 -970.5806)" y1="-889.2695" x2="-2252.0039" gradientUnits="userSpaceOnUse" y2="-889.2695" xlink:type="simple" xlink:actuate="onLoad" id="XMLID_21_" xlink:show="other">
                <stop stop-color="#d8d8d8" offset="0"/>
                <stop stop-color="#777777" offset="1"/>
            </linearGradient>
            <path fill="url(#XMLID_21_)" d="M 43.4 48.303 L 48.550003 34.464 L 36.295002 31.666 L 30.548002 43.342 C 35.427 42.902 40.478 45.425 43.4 48.303 z "/>
            <linearGradient x1="-632.9463" gradientTransform="matrix(1 0 0 -1 694.626 1083.9688)" y1="1047.2129" x2="-621.1016" gradientUnits="userSpaceOnUse" y2="1047.2129" xlink:type="simple" xlink:actuate="onLoad" id="XMLID_22_" xlink:show="other">
                <stop stop-color="#808183" offset="0"/>
                <stop stop-color="#231f20" offset="1"/>
            </linearGradient>
            <path fill="url(#XMLID_22_)" d="M 73.413 37.247 C 72.045 40.144 60.372 38.838 61.800003 36.305 C 63.355 33.542 74.764 34.384 73.413 37.247 z "/>
            <radialGradient gradientTransform="matrix(1.1364 0 0 -1.1364 2607.6921 -970.5806)" gradientUnits="userSpaceOnUse" xlink:type="simple" r="3.267" xlink:actuate="onLoad" cx="-2235.167" id="XMLID_23_" cy="-885.5444" xlink:show="other">
                <stop stop-color="#d7b5d3" offset="0"/>
                <stop stop-color="#d7b5d3" offset="0.0056"/>
                <stop stop-color="#bc1a8c" offset="0.4719"/>
                <stop stop-color="#9a3875" offset="1"/>
            </radialGradient>
            <path fill="url(#XMLID_23_)" d="M 72.623 36.127 C 71.408005 38.107 61.502 37.029 62.703003 35.435997 C 64.305 33.322 73.604 34.524 72.623 36.127 z "/>
            <linearGradient x1="-2227.4834" gradientTransform="matrix(1.1364 0 0 -1.1364 2607.6921 -970.5806)" y1="-896.1655" x2="-2272.4021" gradientUnits="userSpaceOnUse" y2="-878.9485" xlink:type="simple" xlink:actuate="onLoad" id="XMLID_24_" xlink:show="other">
                <stop stop-color="#808183" offset="0"/>
                <stop stop-color="#231f20" offset="1"/>
            </linearGradient>
            <polygon fill="url(#XMLID_24_)" points="43.4,48.303 48.552,34.461 64.001,29.954 70.781,33.267 66.311,32.406 49.54,37.753     49.191,46.07   "/>
            <linearGradient x1="-2286.1118" gradientTransform="matrix(1.1364 0 0 -1.1364 2607.6921 -970.5806)" y1="-931.3359" x2="-2263.1545" gradientUnits="userSpaceOnUse" y2="-899.6731" xlink:type="simple" xlink:actuate="onLoad" id="XMLID_25_" xlink:show="other">
                <stop stop-color="#808183" offset="0"/>
                <stop stop-color="#231f20" offset="1"/>
            </linearGradient>
            <path fill="url(#XMLID_25_)" d="M 42.648 62.488 C 43.252 82.076 17.956999 79.208 15.900999 59.315998 C 15.033 39.692 41.309 42.52 42.648 62.488 z "/>
            <linearGradient x1="-2248.2852" gradientTransform="matrix(1.1364 0 0 -1.1364 2607.6921 -970.5806)" y1="-919.3032" x2="-2289.6558" gradientUnits="userSpaceOnUse" y2="-898.3149" xlink:type="simple" xlink:actuate="onLoad" id="XMLID_26_" xlink:show="other">
                <stop stop-color="#ffffff" offset="0"/>
                <stop stop-color="#808183" offset="1"/>
            </linearGradient>
            <path fill="url(#XMLID_26_)" d="M 37.254 71.234 C 23.471 81.076 9.182 53.227 25.235 48.84 L 37.254 71.234 z "/>
            <linearGradient x1="-640.6084" gradientTransform="matrix(1 0 0 -1 694.626 1083.9688)" y1="1037.1133" x2="-631.3174" gradientUnits="userSpaceOnUse" y2="1037.1133" xlink:type="simple" xlink:actuate="onLoad" id="XMLID_27_" xlink:show="other">
                <stop stop-color="#808183" offset="0"/>
                <stop stop-color="#231f20" offset="1"/>
            </linearGradient>
            <polygon fill="url(#XMLID_27_)" points="54.242,42.515 54.018,48.557 63.083,51.197 63.309,44.695   "/>
            <polygon fill="#ffffff" points="55.508,44.295 55.244,48.92 63.083,51.197 63.198,46.064   "/>
            <linearGradient x1="-2272.6851" gradientTransform="matrix(1.1364 0 0 -1.1364 2607.6921 -970.5806)" y1="-893.9268" x2="-2263.0283" gradientUnits="userSpaceOnUse" y2="-917.8254" xlink:type="simple" xlink:actuate="onLoad" id="XMLID_28_" xlink:show="other">
                <stop stop-color="#ffffff" offset="0"/>
                <stop stop-color="#ffffff" offset="0.05"/>
                <stop stop-color="#cfdce6" offset="1"/>
            </linearGradient>
            <path fill="url(#XMLID_28_)" d="M 25.191 48.811 C 38.519 46.516 44.633 66.020004 37.149002 71.266 C 26.826 73.979 15.598 57.113 25.191 48.811 z "/>
        </g>
    </g>
</svg>
