<?xml version="1.0" encoding="UTF-8"?>
<svg xmlns="http://www.w3.org/2000/svg" xmlns:xlink="http://www.w3.org/1999/xlink" contentScriptType="text/ecmascript" width="12" baseProfile="tiny" zoomAndPan="magnify" contentStyleType="text/css" viewBox="0 0 12 200" height="200" preserveAspectRatio="xMidYMid meet" version="1.1">
    <g>
        <g>
            <g>
                <path d="M 0.0 91.461 L 0.0 164.587 C 0.0 167.496 2.804 170.0 6.0 170.0 C 9.195 170.0 12.0 167.496 12.0 164.587 L 12.0 91.461 C 12.0 90.0 11.318 88.61 10.085 87.548996 C 8.939 86.564 7.451 86.0 6.0 86.0 C 2.804 86.0 0.0 88.552 0.0 91.461 z " fill-opacity="0.5"/>
                <path fill="#00381d" d="M 6.0 169.0 C 3.516 169.0 1.0 167.049 1.0 164.587 L 1.0 91.461 C 1.0 88.998 3.516 87.0 6.0 87.0 L 6.0 87.0 C 8.486 87.0 11.0 88.998 11.0 91.461 L 11.0 164.587 C 11.0 167.049 8.486 169.0 6.0 169.0 L 6.0 169.0 z "/>
            </g>
            <rect width="12" fill="none" height="200"/>
        </g>
    </g>
</svg>
