<?xml version="1.0" encoding="UTF-8"?>
<svg xmlns="http://www.w3.org/2000/svg" xmlns:xlink="http://www.w3.org/1999/xlink" contentScriptType="text/ecmascript" width="38" baseProfile="tiny" zoomAndPan="magnify" contentStyleType="text/css" viewBox="-1 -1 38 32" height="32" preserveAspectRatio="xMidYMid meet" version="1.1">
    <g>
        <g>
            <rect x="8.531" width="3.301" fill="#ffffff" y="10.005" height="1.994"/>
            <path fill="#ffffff" d="M 9.184 5.032 L 9.184 8.334 L 11.1779995 8.334 L 11.1779995 7.025 C 13.844 7.025 23.897 7.025 25.474998 7.025 C 25.474998 8.66 25.474998 21.338 25.474998 22.973 C 23.897 22.973 13.843999 22.973 11.177999 22.973 L 11.177999 21.657 L 9.184 21.657 L 9.184 24.96 L 27.469 24.97 L 27.469 5.032 L 9.184 5.032 z "/>
            <rect x="8.531" width="3.301" fill="#ffffff" y="13.993" height="1.991"/>
            <rect x="8.531" width="3.301" fill="#ffffff" y="17.979" height="1.994"/>
            <path fill="#ffffff" d="M 23.582 11.557 C 23.273 11.093 22.906 10.81 22.656 10.62 C 21.943 10.076 19.062 9.507 16.086 12.484 C 14.281 14.295 13.772 16.059 13.772 17.324001 C 13.772 18.142002 13.985001 18.752 14.1970005 19.029001 C 14.418 19.314001 14.690001 19.675001 15.160001 19.982 C 15.299001 20.077 15.537001 20.159 15.795001 20.204 L 15.854001 20.209 C 16.324001 20.18 16.838001 19.816 17.529001 19.041 C 17.756 18.785 18.496002 17.898 18.496002 17.279001 C 18.496002 17.279001 18.494001 17.205002 18.492002 17.187002 C 18.486002 17.168003 18.479002 17.154001 18.479002 17.154001 C 18.473001 17.133001 18.391003 16.906002 18.039001 16.624 C 17.818 16.449001 17.490002 16.326 17.061 16.257 L 16.862001 16.223 L 16.862001 16.02 C 16.871002 14.996 18.598001 13.27 19.617 13.265 L 19.822 13.265 L 19.855001 13.466001 C 19.921001 13.893001 20.044 14.219001 20.220001 14.443001 C 20.482 14.771001 20.7 14.868001 20.810001 14.900001 C 21.224 14.938001 21.910002 14.577001 22.634 13.933001 C 23.413 13.245001 23.773 12.727 23.804 12.251 C 23.804 12.251 23.804 12.236 23.808 12.223001 C 23.804 12.207001 23.802 12.1970005 23.802 12.1970005 C 23.775 12.044 23.703 11.739 23.582 11.557 z "/>
        </g>
        <rect x="-1" width="38" fill="none" y="-1" height="32"/>
    </g>
</svg>
