<?xml version="1.0" encoding="UTF-8"?>
<svg xmlns="http://www.w3.org/2000/svg" xmlns:xlink="http://www.w3.org/1999/xlink" contentScriptType="text/ecmascript" width="44" baseProfile="tiny" zoomAndPan="magnify" contentStyleType="text/css" viewBox="0 0 44 44" height="44" preserveAspectRatio="xMidYMid meet" version="1.1">
    <path fill="#ffffff" d="M 28.645 32.572 C 28.645 33.676 28.124 34.309998 27.216 34.309998 L 26.741 34.309998 C 25.833 34.309998 25.31 33.675 25.31 32.572 L 25.31 29.675999 L 13.409 29.675999 L 13.409 15.188 C 13.409 14.084 13.929001 13.452 14.837 13.452 L 22.317 13.4869995 L 23.296 11.132999 L 14.433 11.132999 C 12.471 11.132999 11.101 12.799 11.101 15.188 L 11.101 29.675999 L 7.695 29.675999 L 7.695 32.572 C 7.695 34.96 9.067 36.627 11.028 36.627 L 27.534 36.627 C 29.497 36.627 30.866001 34.96 30.866001 32.572 L 30.866001 18.609 L 28.642002 19.66 L 28.645 32.572 z M 11.616 34.311 C 10.71 34.311 10.190001 33.676003 10.190001 32.573 C 10.190001 32.573 10.190001 32.252003 10.190001 31.994001 L 22.93 31.994001 C 22.93 32.252003 22.93 32.573 22.93 32.573 C 22.93 33.218002 23.043001 33.793003 23.227001 34.311 C 18.991 34.311 11.616 34.311 11.616 34.311 z M 30.198 7.234 L 27.047 5.941 L 24.799002 11.423 L 27.948002 12.718 L 30.198 7.234 z M 34.93 11.455 L 29.52 13.844 L 30.899 16.957 L 36.305 14.566001 L 34.93 11.455 z M 21.151 23.943 C 21.087 23.925001 21.030998 23.908 20.963 23.900002 C 19.687 23.724 18.101 24.527002 17.42 25.699001 C 16.741 26.869001 17.23 27.960001 18.507 28.131 C 19.782 28.313 21.364 27.506 22.046 26.339 C 22.237 26.006 22.327 25.678001 22.341 25.381 C 22.347 25.367 22.351 25.36 22.357 25.35 C 22.357 25.035 22.357 19.575 22.357 19.575 L 25.393 21.198 L 25.393 18.694 L 21.151 16.146 L 21.151 23.943 z "/>
</svg>
