<?xml version="1.0" encoding="UTF-8"?>
<svg xmlns="http://www.w3.org/2000/svg" xmlns:xlink="http://www.w3.org/1999/xlink" contentScriptType="text/ecmascript" width="60" baseProfile="tiny" zoomAndPan="magnify" contentStyleType="text/css" viewBox="0 0 60 60" height="60" preserveAspectRatio="xMidYMid meet" version="1.1">
    <path fill="#f0b11d" d="M 30.372 41.37 C 47.767998 41.353 52.916 31.026999 53.259 28.470999 C 53.435997 27.133 53.677998 25.339998 53.242 23.157999 C 53.025 22.08 52.234 20.915998 51.997 20.584 L 51.878002 20.416 L 51.727 20.281 C 50.233 18.965 47.746002 18.488 43.669003 18.742 C 41.913002 18.851 37.751003 19.297 35.977 21.07 C 35.899002 21.146 35.831 21.223999 35.761 21.306 L 35.633003 21.464 L 35.542004 21.646 C 35.412003 21.902 35.005005 22.886 35.213005 24.691 C 35.385006 26.205 36.256004 27.644001 36.950005 28.612999 C 36.195004 29.359 34.396004 30.481998 30.360004 30.546 L 30.399004 30.564999 C 26.366005 30.501 24.565004 29.366999 23.815004 28.623999 C 24.516005 27.651 25.391005 26.207998 25.565004 24.692 C 25.766005 22.887 25.364004 21.903 25.231005 21.647 L 25.143005 21.463 L 25.012005 21.307 C 23.381004 19.335999 18.940004 18.858 17.104004 18.743 C 13.0300045 18.493 10.540004 18.972 9.032004 20.3 L 8.88 20.434 L 8.762 20.6 C 8.524 20.932001 7.735 22.098 7.52 23.174 C 7.082 25.362 7.323 27.154 7.483 28.342 C 7.961 31.928 14.239 41.37 30.372 41.37 M 49.747 23.86 C 50.064003 25.458 49.889 26.78 49.747 27.848 C 49.658 28.515999 48.891003 30.25 47.057003 32.083 C 44.317 34.824 39.196003 37.792 30.389004 37.792 C 15.672004 37.807 11.239004 29.536 11.035004 28.012001 C 10.875004 26.803001 10.693004 25.479 11.012004 23.875 C 11.053004 23.701 11.283004 23.27 11.528004 22.893 C 12.020003 22.543 13.311004 22.08 16.887005 22.299 C 19.678005 22.475 21.446005 23.067 22.045006 23.445 C 22.061007 23.638 22.068007 23.907999 22.024006 24.291 C 21.909006 25.283 20.823006 26.777 20.313005 27.348 L 19.659006 28.084 L 19.927006 29.035 C 20.075006 29.543 21.620007 33.984 30.341005 34.126 L 30.370005 34.126 L 30.419004 34.109 C 35.476006 34.025 38.127007 32.505 39.487003 31.142002 C 40.470005 30.156002 40.784004 29.256002 40.846004 29.045002 L 41.131004 28.088001 L 40.462006 27.346 C 39.952007 26.778 38.868004 25.283 38.755005 24.289001 C 38.711006 23.908 38.717007 23.637001 38.734005 23.443 C 39.334003 23.064001 41.095005 22.470001 43.892006 22.297 C 47.467007 22.078001 48.747005 22.529001 49.232006 22.873001 C 49.477 23.254 49.708 23.682 49.747 23.86 "/>
    <rect width="60" fill="none" height="60"/>
</svg>
