<?xml version="1.0" encoding="UTF-8"?>
<svg xmlns="http://www.w3.org/2000/svg" xmlns:xlink="http://www.w3.org/1999/xlink" contentScriptType="text/ecmascript" width="58" baseProfile="tiny" zoomAndPan="magnify" contentStyleType="text/css" viewBox="-83 -11 58 58" height="58" preserveAspectRatio="xMidYMid meet" version="1.1">
    <g>
        <g>
            <g>
                <rect x="-83" width="58" fill="none" y="-11" height="58"/>
                <g>
                    <path d="M -81.206 17.034 C -81.206 31.501 -69.434 43.271 -54.967003 43.271 C -40.498 43.271 -28.729002 31.5 -28.729002 17.034 C -28.729002 2.566 -40.5 -9.204 -54.967003 -9.204 C -69.434 -9.204 -81.206 2.566 -81.206 17.034 z " fill-opacity="0.01"/>
                    <path d="M -80.061 17.034 C -80.061 30.87 -68.805 42.126 -54.966995 42.126 C -41.127995 42.126 -29.870995 30.869999 -29.870995 17.034 C -29.870995 3.198 -41.127995 -8.056999 -54.966995 -8.056999 C -68.805 -8.057 -80.061 3.198 -80.061 17.034 z " fill-opacity="0.02"/>
                    <path d="M -78.917 17.034 C -78.917 30.236 -68.172 40.98 -54.967 40.98 C -41.759 40.98 -31.019999 30.236 -31.019999 17.034 C -31.019999 3.8260002 -41.76 -6.913 -54.967 -6.913 C -68.171 -6.913 -78.917 3.826 -78.917 17.034 z " fill-opacity="0.04"/>
                    <path d="M -77.95 17.034 C -77.95 29.707 -67.64 40.012 -54.966995 40.012 C -42.297997 40.012 -31.988995 29.707 -31.988995 17.034 C -31.988995 4.363001 -42.297997 -5.945999 -54.966995 -5.945999 C -67.641 -5.946 -77.95 4.363 -77.95 17.034 z " fill-opacity="0.07"/>
                </g>
                <path fill="#5fe5ff" d="M -54.0 -4.903 C -66.631 -4.903 -76.908 5.37 -76.908 18.0 C -76.908 30.629 -66.631 40.902 -53.999996 40.902 C -41.369995 40.902 -31.092997 30.629002 -31.092997 18.0 C -31.093 5.37 -41.37 -4.903 -54.0 -4.903 z "/>
                <linearGradient x1="-1443.252" gradientTransform="matrix(1 0 0 1 1389.252 -792.3545)" y1="784.7217" x2="-1443.252" gradientUnits="userSpaceOnUse" y2="831.2848" xlink:type="simple" xlink:actuate="onLoad" id="XMLID_4_" xlink:show="other">
                    <stop stop-color="#000000" offset="0"/>
                    <stop stop-color="#000000" offset="0.3933"/>
                    <stop stop-color="#52a2a5" offset="0.9944"/>
                    <stop stop-color="#52a2a5" offset="1"/>
                </linearGradient>
                <path fill="url(#XMLID_4_)" d="M -54.0 -3.029 C -65.6 -3.029 -75.033005 6.4069996 -75.033005 18.003 C -75.033005 29.596 -65.59901 39.027 -54.000004 39.027 C -42.402004 39.027 -32.968002 29.595001 -32.968002 18.003 C -32.968 6.406 -42.402 -3.029 -54.0 -3.029 z "/>
                <linearGradient x1="-1443.25" gradientTransform="matrix(1 0 0 1 1389.252 -792.3545)" y1="829.9121" x2="-1443.25" gradientUnits="userSpaceOnUse" y2="785.5052" xlink:type="simple" xlink:actuate="onLoad" id="XMLID_5_" xlink:show="other">
                    <stop stop-color="#000000" offset="0"/>
                    <stop stop-color="#000000" offset="0.3933"/>
                    <stop stop-color="#52a2a5" offset="0.9944"/>
                    <stop stop-color="#52a2a5" offset="1"/>
                </linearGradient>
                <path fill="url(#XMLID_5_)" d="M -54.0 -1.799 C -64.919 -1.799 -73.802 7.083 -73.802 18.003 C -73.802 28.917 -64.919 37.801003 -54.0 37.801003 C -43.081 37.801003 -34.195 28.917004 -34.195 18.003002 C -34.195 7.083 -43.081 -1.799 -54.0 -1.799 z "/>
                <linearGradient x1="-748.624" gradientTransform="matrix(1 0 0 -1 694.626 1031.9688)" y1="1014.7598" x2="-748.624" gradientUnits="userSpaceOnUse" y2="986.6594" xlink:type="simple" xlink:actuate="onLoad" id="XMLID_6_" xlink:show="other">
                    <stop stop-color="#ffffff" offset="0"/>
                    <stop stop-color="#7fd3ff" offset="1"/>
                </linearGradient>
                <path fill="url(#XMLID_6_)" d="M -35.341 18.002 C -35.341 28.305 -43.694 36.654 -54.0 36.654 C -64.306 36.654 -72.656 28.303999 -72.656 18.001999 C -72.656 7.6969986 -64.306 -0.65800095 -54.0 -0.65800095 C -43.694 -0.65800095 -35.341 7.697 -35.341 18.002 z "/>
            </g>
        </g>
    </g>
    <g>
        <path d="M -39.785 22.26 L -43.833 22.271 L -43.859 9.648 C -43.866 7.5639997 -45.321003 6.113 -47.396 6.118 L -64.573 6.162 C -68.831 6.1800003 -68.093994 11.143 -68.092995 12.228001 L -64.050995 12.214001 L -64.02 24.842001 C -64.01299 26.924002 -62.559 28.376001 -60.476997 28.366001 L -43.304996 28.326 C -39.492 28.33 -39.756 24.598 -39.785 22.26 z M -66.083 10.203 C -66.083 10.203 -66.289 8.563 -65.025 8.26 C -63.937 8.54 -64.058 10.203 -64.058 10.203 L -66.083 10.203 z M -59.464 26.343 C -59.464 26.343 -61.998 26.78 -61.998 24.843 L -62.036 9.940001 C -62.036 9.282001 -62.159 8.692 -62.378998 8.179001 L -47.393997 8.129001 C -46.423996 8.135 -45.871998 8.684001 -45.871998 9.656 L -45.842 22.277 L -57.958 22.312 C -57.926 24.352 -57.601 26.406 -59.464 26.343 z M -43.305 26.308 L -56.255 26.343 C -55.892002 25.852001 -55.933002 24.623001 -55.933002 24.317001 L -41.804 24.286001 C -41.805 24.998 -41.8 26.308 -43.305 26.308 z "/>
        <rect x="-60.011" width="12.115" y="10.176" height="2.012"/>
        <rect x="-60" width="12.11" y="14.214" height="2.021"/>
        <polygon points="-59.998,18.268 -59.989,20.289 -47.867,20.261 -47.885,18.236  "/>
    </g>
</svg>
