<?xml version="1.0" encoding="UTF-8"?>
<svg xmlns="http://www.w3.org/2000/svg" xmlns:xlink="http://www.w3.org/1999/xlink" contentScriptType="text/ecmascript" width="30" baseProfile="tiny" zoomAndPan="magnify" contentStyleType="text/css" viewBox="0 0 30 40" height="40" preserveAspectRatio="xMidYMid meet" version="1.1">
    <g>
        <g>
            <g>
                <linearGradient x1="-683.2324" gradientTransform="matrix(1 0 0 -1 694.626 1035.9688)" y1="1022.0713" x2="-672.6028" gradientUnits="userSpaceOnUse" y2="1006.7146" xlink:type="simple" xlink:actuate="onLoad" id="XMLID_140_" xlink:show="other">
                    <stop stop-color="#aabbd7" offset="0"/>
                    <stop stop-color="#92a5cc" offset="0.2634"/>
                    <stop stop-color="#6c83bb" offset="0.7135"/>
                    <stop stop-color="#637db5" offset="0.7571"/>
                    <stop stop-color="#4c6ea4" offset="0.8268"/>
                    <stop stop-color="#265689" offset="0.9134"/>
                    <stop stop-color="#003d6d" offset="0.9888"/>
                    <stop stop-color="#003d6d" offset="1"/>
                </linearGradient>
                <path fill="url(#XMLID_140_)" d="M 10.754 30.979 L 2.07 27.861 L 2.049 26.818 C 2.049 26.818 7.16 24.788 8.08 24.422 C 8.08 23.942001 8.076 22.557001 8.076 22.557001 C 8.121 20.1 11.078 18.549002 11.67 18.265001 L 15.189 16.697 L 16.324 16.844 C 16.771 15.268 17.935 11.1380005 17.935 11.1380005 L 18.698 11.224001 L 19.337 9.021001 L 27.532 9.784 L 27.55 11.032001 L 27.151 12.204 L 28.133999 12.315001 L 28.117998 13.936001 C 28.104998 14.000001 26.789999 17.786001 26.370998 18.990002 L 27.166998 18.594002 L 29.168999 18.966002 L 28.642998 25.157001 L 22.203999 29.147001 L 17.287998 27.631 C 16.514 28.027 10.754 30.979 10.754 30.979 L 10.754 30.979 z "/>
                <g>
                    <radialGradient gradientTransform="matrix(6.8182 0 0 6.818 8829.0605 -8418.9512)" gradientUnits="userSpaceOnUse" xlink:type="simple" r="0.6457" xlink:actuate="onLoad" cx="-1291.96" id="XMLID_141_" cy="1237.5918" xlink:show="other">
                        <stop stop-color="#ffffff" offset="0"/>
                        <stop stop-color="#a2c2dd" offset="1"/>
                    </radialGradient>
                    <polygon fill="url(#XMLID_141_)" points="15.695,17.508 14.156,18.236 24.245,20.385 26.277,19.395     "/>
                    <linearGradient x1="-1291.9043" gradientTransform="matrix(6.8182 0 0 6.8182 8829.0605 -8419.7529)" y1="1237.1787" x2="-1292.0128" gradientUnits="userSpaceOnUse" y2="1238.2948" xlink:type="simple" xlink:actuate="onLoad" id="XMLID_142_" xlink:show="other">
                        <stop stop-color="#ffffff" offset="0"/>
                        <stop stop-color="#d1e1ee" offset="0.4743"/>
                        <stop stop-color="#a2c2dd" offset="1"/>
                    </linearGradient>
                    <polygon fill="url(#XMLID_142_)" points="15.155,17.008 15.943,17.112 13.784,18.148 24.245,20.385 27.195,18.92 28.773,19.213       25.152,21.467 11.792,18.543     "/>
                    <linearGradient x1="-1292.4004" gradientTransform="matrix(6.8182 0 0 6.8182 8829.0605 -8419.7529)" y1="1237.6416" x2="-1292.5132" gradientUnits="userSpaceOnUse" y2="1238.5063" xlink:type="simple" xlink:actuate="onLoad" id="XMLID_143_" xlink:show="other">
                        <stop stop-color="#ffffff" offset="0"/>
                        <stop stop-color="#a2c2dd" offset="1"/>
                    </linearGradient>
                    <path fill="url(#XMLID_143_)" d="M 11.864 18.514 C 11.864 18.514 8.450001 20.048 8.404 22.522999 C 8.397 22.842999 8.386001 24.496998 8.386001 24.496998 L 22.131 28.729998 L 25.194 21.471998 L 11.864 18.514 z "/>
                    <linearGradient x1="-1291.2163" gradientTransform="matrix(6.8182 0 0 6.8182 8829.0605 -8419.7529)" y1="1236.0615" x2="-1291.1696" gradientUnits="userSpaceOnUse" y2="1240.6804" xlink:type="simple" xlink:actuate="onLoad" id="XMLID_144_" xlink:show="other">
                        <stop stop-color="#ffffff" offset="0"/>
                        <stop stop-color="#e4edf5" offset="0.0961"/>
                        <stop stop-color="#b4cee4" offset="0.2832"/>
                        <stop stop-color="#a2c2dd" offset="0.3764"/>
                        <stop stop-color="#8ca9cf" offset="0.504"/>
                        <stop stop-color="#6c83bb" offset="0.7135"/>
                        <stop stop-color="#637db5" offset="0.7571"/>
                        <stop stop-color="#4c6ea4" offset="0.8268"/>
                        <stop stop-color="#265689" offset="0.9134"/>
                        <stop stop-color="#003d6d" offset="0.9888"/>
                        <stop stop-color="#003d6d" offset="1"/>
                    </linearGradient>
                    <path fill="url(#XMLID_144_)" d="M 28.773 19.213 L 25.123001 21.474998 C 25.123001 21.474998 22.434002 23.203999 22.163002 25.527998 C 22.105001 26.021997 22.131002 28.730999 22.131002 28.730999 L 28.291002 24.918 L 28.773 19.213 z "/>
                    <linearGradient x1="-1292.3135" gradientTransform="matrix(6.8182 0 0 6.8182 8829.0605 -8419.7529)" y1="1239.0947" x2="-1292.9626" gradientUnits="userSpaceOnUse" y2="1238.1515" xlink:type="simple" xlink:actuate="onLoad" id="XMLID_145_" xlink:show="other">
                        <stop stop-color="#a2c2dd" offset="0"/>
                        <stop stop-color="#a2c2dd" offset="0.0056"/>
                        <stop stop-color="#8ca9cf" offset="0.2587"/>
                        <stop stop-color="#6c83bb" offset="0.6742"/>
                        <stop stop-color="#637db5" offset="0.7196"/>
                        <stop stop-color="#4c6ea4" offset="0.7921"/>
                        <stop stop-color="#265689" offset="0.8823"/>
                        <stop stop-color="#003d6d" offset="0.9607"/>
                        <stop stop-color="#003d6d" offset="1"/>
                    </linearGradient>
                    <polygon fill="url(#XMLID_145_)" points="10.479,24.574 10.43,22.563 19.941,25.173 19.941,27.4     "/>
                    <linearGradient x1="-1291.6445" gradientTransform="matrix(6.8182 0 0 6.8182 8829.0605 -8419.7529)" y1="1236.4424" x2="-1291.723" gradientUnits="userSpaceOnUse" y2="1237.6035" xlink:type="simple" xlink:actuate="onLoad" id="XMLID_146_" xlink:show="other">
                        <stop stop-color="#ffffff" offset="0"/>
                        <stop stop-color="#f4f8fb" offset="0.1894"/>
                        <stop stop-color="#d6e4f0" offset="0.5232"/>
                        <stop stop-color="#a7c5df" offset="0.9595"/>
                        <stop stop-color="#a2c2dd" offset="1"/>
                    </linearGradient>
                    <polygon fill="url(#XMLID_146_)" points="27.761,12.591 18.171,11.477 16.35,17.927 25.252,19.517     "/>
                    <polygon fill="#496da2" points="27.167,10.063 23.609,19.641 24.18,19.469 27.182,10.982     "/>
                    <polygon fill="#375082" points="27.761,12.591 25.252,19.517 25.854,19.32 27.749,13.878     "/>
                    <polygon fill="#496da2" points="13.784,18.148 14.362,18.269 15.861,17.538 15.943,17.112     "/>
                    <linearGradient x1="-1291.8306" gradientTransform="matrix(6.8182 0 0 6.8182 8829.0605 -8419.7529)" y1="1236.4619" x2="-1291.3738" gradientUnits="userSpaceOnUse" y2="1238.1301" xlink:type="simple" xlink:actuate="onLoad" id="XMLID_147_" xlink:show="other">
                        <stop stop-color="#ffffff" offset="0"/>
                        <stop stop-color="#f9fbfd" offset="0.1763"/>
                        <stop stop-color="#e8f0f7" offset="0.4132"/>
                        <stop stop-color="#ccddec" offset="0.6846"/>
                        <stop stop-color="#a5c4de" offset="0.9797"/>
                        <stop stop-color="#a2c2dd" offset="1"/>
                    </linearGradient>
                    <polygon fill="url(#XMLID_147_)" points="19.572,9.356 27.167,10.063 23.609,19.641 16.96,18.336     "/>
                    <g>
                        <path fill="#375082" d="M 21.945 23.389 C 21.945 23.936 21.449 24.378 20.839 24.378 C 20.227001 24.378 19.731 23.938 19.731 23.389 C 19.731 22.842 20.227001 22.399 20.839 22.399 C 21.449 22.398 21.945 22.842 21.945 23.389 z "/>
                        <radialGradient gradientTransform="matrix(6.8182 0 0 6.818 8829.0605 -8418.9512)" gradientUnits="userSpaceOnUse" xlink:type="simple" r="0.1578" xlink:actuate="onLoad" cx="-1291.9106" id="XMLID_148_" cy="1238.21" xlink:show="other">
                            <stop stop-color="#dce8e4" offset="0"/>
                            <stop stop-color="#43910a" offset="1"/>
                        </radialGradient>
                        <path fill="url(#XMLID_148_)" d="M 21.65 23.389 C 21.65 23.866 21.234 24.251 20.722 24.251 C 20.208 24.251 19.794 23.862999 19.794 23.389 C 19.794 22.91 20.208 22.524 20.722 22.524 C 21.234 22.521 21.65 22.909 21.65 23.389 z "/>
                        <ellipse rx="1.108" ry="0.99" fill="#375082" cx="17.622" cy="22.688"/>
                        <radialGradient gradientTransform="matrix(6.8182 0 0 6.818 8829.0605 -8418.9512)" gradientUnits="userSpaceOnUse" xlink:type="simple" r="0.1847" xlink:actuate="onLoad" cx="-1292.3916" id="XMLID_149_" cy="1238.1221" xlink:show="other">
                            <stop stop-color="#dee6f1" offset="0"/>
                            <stop stop-color="#7579d0" offset="1"/>
                        </radialGradient>
                        <ellipse rx="0.927" ry="0.862" fill="url(#XMLID_149_)" cx="17.507" cy="22.688"/>
                    </g>
                </g>
                <g>
                    <linearGradient x1="-1293.9541" gradientTransform="matrix(6.8182 0 0 6.8182 8829.0605 -8419.7529)" y1="1239.0693" x2="-1294.0323" gradientUnits="userSpaceOnUse" y2="1239.3826" xlink:type="simple" xlink:actuate="onLoad" id="XMLID_150_" xlink:show="other">
                        <stop stop-color="#d6e4f3" offset="0"/>
                        <stop stop-color="#337ce5" offset="1"/>
                    </linearGradient>
                    <polygon fill="url(#XMLID_150_)" points="2.382,27.014 10.73,29.852 10.71,30.564 2.395,27.583     "/>
                    <polygon fill="#ffffff" points="11.161,23.523 2.38,27.014 10.715,29.84 18.907,25.684     "/>
                    <linearGradient x1="-1292.7998" gradientTransform="matrix(6.8182 0 0 6.8182 8829.0605 -8419.7529)" y1="1238.9424" x2="-1292.5988" gradientUnits="userSpaceOnUse" y2="1239.2751" xlink:type="simple" xlink:actuate="onLoad" id="XMLID_151_" xlink:show="other">
                        <stop stop-color="#d6e4f3" offset="0"/>
                        <stop stop-color="#337ce5" offset="1"/>
                    </linearGradient>
                    <polygon fill="url(#XMLID_151_)" points="10.715,29.84 18.917,25.693 18.915,26.357 10.71,30.564     "/>
                    <radialGradient gradientTransform="matrix(6.8182 0 0 6.818 8829.0605 -8418.9512)" gradientUnits="userSpaceOnUse" xlink:type="simple" r="0.7495" xlink:actuate="onLoad" cx="-1293.2954" id="XMLID_152_" cy="1238.6797" xlink:show="other">
                        <stop stop-color="#87a8cb" offset="0"/>
                        <stop stop-color="#496da2" offset="1"/>
                    </radialGradient>
                    <path fill="url(#XMLID_152_)" d="M 11.254 23.855 L 4.34 26.639 C 4.7730002 26.862 11.285 28.895 11.285 28.895 L 17.885 25.702 L 11.254 23.855 z "/>
                    <linearGradient x1="-1294.4102" gradientTransform="matrix(6.8182 0 0 6.8182 8829.0605 -8419.7529)" y1="1238.9512" x2="-1292.7798" gradientUnits="userSpaceOnUse" y2="1238.9512" xlink:type="simple" xlink:actuate="onLoad" id="XMLID_153_" xlink:show="other">
                        <stop stop-color="#cadcec" offset="0"/>
                        <stop stop-color="#87a8cb" offset="0.5"/>
                        <stop stop-color="#235487" offset="1"/>
                    </linearGradient>
                    <path fill="url(#XMLID_153_)" d="M 5.75 26.091 L 3.512 26.934 L 10.523001 29.247 L 14.629001 27.286 C 14.620001 27.272 13.832001 26.901 12.016001 26.955 C 10.959 27.262 5.904 26.164 5.75 26.091 z "/>
                    <linearGradient x1="-1276.5771" gradientTransform="matrix(6.808 0.4807 -0.3764 8.6864 9138.0244 -9538.7168)" y1="1171.8867" x2="-1275.3765" gradientUnits="userSpaceOnUse" y2="1171.8867" xlink:type="simple" xlink:actuate="onLoad" id="XMLID_154_" xlink:show="other">
                        <stop stop-color="#e2e6e4" offset="0"/>
                        <stop stop-color="#a3740a" offset="1"/>
                    </linearGradient>
                    <path fill="url(#XMLID_154_)" d="M 7.305 26.745 L 7.303 26.745 C 7.311 26.740002 6.006 27.17 5.985 27.167002 C 6.197 27.482002 7.178 27.904001 8.162001 28.137001 C 9.7630005 28.469002 11.292001 28.080002 12.581001 27.547 C 13.179001 27.299002 13.727001 27.02 14.204001 26.762001 C 14.09 26.809 7.305 26.745 7.305 26.745 z "/>
                    <path fill="#b18e3b" d="M 7.043 25.834 C 7.043 25.834 6.4430003 26.072 6.1010003 26.438 C 5.761 26.805 5.985 27.167 5.985 27.167 C 5.985 27.167 6.301 27.279 7.374 26.814 "/>
                    <line y2="25.834" fill="none" x1="7.373" x2="7.043" y1="26.816"/>
                    <path fill="#ffffff" d="M 7.046 25.82 C 7.084 25.925 7.371 26.803999 7.368 26.806 L 7.369 26.808 C 8.455 27.355001 9.906 27.498001 10.585 27.562 C 12.462 27.734001 14.232 26.783 14.236 26.781 C 14.234 26.781 11.002 25.605 7.046 25.82 z "/>
                    <path fill="#6d5607" d="M 7.341 25.956 L 7.5750003 26.609 C 7.9830003 26.695 10.536 27.967999 13.795 26.811998 C 13.572 26.742 10.478 25.902 7.341 25.956 z "/>
                    <polygon fill="#b18e3b" points="9.228,26.212 9.281,27.126 10.108,27.238 9.978,26.275     "/>
                    <polygon fill="#375082" points="9.083,26.334 9.114,27.079 9.276,27.129 9.223,26.215     "/>
                    <linearGradient x1="-1269.0386" gradientTransform="matrix(6.808 0.3764 -0.3764 6.808 9138.0244 -8310.3975)" y1="1294.5566" x2="-1269.0386" gradientUnits="userSpaceOnUse" y2="1294.7363" xlink:type="simple" xlink:actuate="onLoad" id="XMLID_155_" xlink:show="other">
                        <stop stop-color="#ffffff" offset="0"/>
                        <stop stop-color="#a2c2dd" offset="1"/>
                    </linearGradient>
                    <path fill="url(#XMLID_155_)" d="M 8.257 25.059 C 8.257 25.059 9.2 26.666 9.794 26.514 C 10.388 26.362 14.073999 24.637 14.073999 24.637 L 13.417 24.456 L 8.778 24.837 L 8.257 25.059 z "/>
                    <linearGradient x1="-1268.8931" gradientTransform="matrix(6.808 0.3764 -0.3764 6.808 9138.0244 -8310.3975)" y1="1294.6074" x2="-1268.8931" gradientUnits="userSpaceOnUse" y2="1294.9301" xlink:type="simple" xlink:actuate="onLoad" id="XMLID_156_" xlink:show="other">
                        <stop stop-color="#ffffff" offset="0"/>
                        <stop stop-color="#a2c2dd" offset="1"/>
                    </linearGradient>
                    <path fill="url(#XMLID_156_)" d="M 9.793 26.909 C 9.793 26.909 11.659 27.31 12.363 26.857 C 13.064 26.406 14.41 24.829 14.41 24.829 L 9.793 26.909 z "/>
                </g>
            </g>
            <linearGradient x1="-688.7749" gradientTransform="matrix(1 0 0 -1 694.626 1035.9688)" y1="1023.4092" x2="-680.0718" gradientUnits="userSpaceOnUse" y2="1012.9649" xlink:type="simple" xlink:actuate="onLoad" id="XMLID_157_" xlink:show="other">
                <stop stop-color="#ffffff" offset="0"/>
                <stop stop-color="#58a015" offset="0.5"/>
                <stop stop-color="#ffffff" offset="1"/>
            </linearGradient>
            <path fill="url(#XMLID_157_)" d="M 15.674 18.503 C 16.407999 16.373001 14.628 14.315001 11.695 13.905001 C 8.761999 13.495001 5.7009997 14.875001 4.857 16.990002 C 4.0109997 19.103 5.795 21.161001 8.837 21.587002 C 11.879 22.014 14.938 20.633 15.674 18.503 z M 6.479 17.216 C 7.059 15.736 9.202 14.7699995 11.266001 15.058 C 13.329 15.346999 14.577001 16.786999 14.050001 18.276 C 13.524001 19.765 11.383001 20.730999 9.266001 20.435 C 7.149 20.14 5.9 18.698 6.479 17.216 z M 12.429 18.049 C 12.736 17.199 12.023 16.376 10.8359995 16.21 C 9.651999 16.044998 8.427 16.596998 8.101999 17.443998 C 7.7779994 18.288998 8.492 19.114998 9.695 19.282999 C 10.896 19.451 12.121 18.899 12.429 18.049 z M 9.725 17.671 C 9.804001 17.458 10.112 17.32 10.410001 17.361 C 10.709001 17.404 10.885001 17.609 10.807001 17.821 C 10.728001 18.033998 10.423001 18.172998 10.1240015 18.130999 C 9.825002 18.088999 9.646 17.883 9.725 17.671 z M 18.917 18.957 C 20.043 15.543001 17.189 12.250001 12.5529995 11.601001 C 7.9139996 10.953001 3.0169992 13.162001 1.6129999 16.537 C 0.20999992 19.912 3.06 23.205002 7.979 23.892 C 12.897 24.58 17.796 22.371 18.917 18.957 z M 3.234 16.763 C 4.354 14.02 8.334 12.224001 12.124001 12.753 C 15.915001 13.283 18.23 15.96 17.296001 18.73 C 16.363 21.501 12.383001 23.296 8.4070015 22.74 C 4.432 22.184 2.116 19.507 3.234 16.763 z " fill-opacity="0.5"/>
            <g>
                <linearGradient x1="-689.9302" gradientTransform="matrix(1 0 0 -1 694.626 1035.9688)" y1="1019.9854" x2="-684.8505" gradientUnits="userSpaceOnUse" y2="1014.9058" xlink:type="simple" xlink:actuate="onLoad" id="XMLID_158_" xlink:show="other">
                    <stop stop-color="#a2c2dd" offset="0"/>
                    <stop stop-color="#a2c2dd" offset="0.1"/>
                    <stop stop-color="#6c83bb" offset="0.7135"/>
                    <stop stop-color="#003d6d" offset="0.9888"/>
                    <stop stop-color="#003d6d" offset="1"/>
                </linearGradient>
                <path fill="url(#XMLID_158_)" d="M 2.511 22.952 C 1.5579998 22.484 0.9799999 21.73 0.97299993 21.723 L 0.9519999 21.696 L 0.6779999 20.08 C 0.79699993 19.917 1.9319999 18.377 3.851 16.536 C 5.8310003 14.636999 6.667 14.087 6.703 14.065999 L 6.866 14.014999 C 6.881 14.014999 8.481 14.03 9.683001 14.329999 C 10.247001 14.475999 10.769001 14.701999 11.137001 14.881999 L 11.694001 14.156999 C 11.694001 14.156999 12.194001 14.093999 12.635001 14.440999 C 13.043001 14.760999 12.934001 15.190999 12.890001 15.278999 L 12.877002 15.3029995 L 11.998002 16.139 L 11.931002 17.059 L 11.8080015 17.268 L 11.814001 17.483 C 11.814001 17.483 10.647001 19.204 8.950001 20.845 C 7.363001 22.38 5.561001 23.414 5.2410007 23.595 C 5.2410007 23.595 5.100001 23.57 4.963001 23.543 L 4.817 23.6 C 4.817 23.6 3.438 23.414 2.511 22.952 z "/>
                <linearGradient x1="-614.8506" gradientTransform="matrix(0.7792 0.6268 0.6268 -0.7792 1223.8376 -511.4275)" y1="-1170.4521" x2="-613.7269" gradientUnits="userSpaceOnUse" y2="-1170.481" xlink:type="simple" xlink:actuate="onLoad" id="XMLID_159_" xlink:show="other">
                    <stop stop-color="#e6eef4" offset="0"/>
                    <stop stop-color="#337ce5" offset="0.4438"/>
                    <stop stop-color="#003d6d" offset="0.9382"/>
                    <stop stop-color="#003d6d" offset="1"/>
                </linearGradient>
                <path fill="url(#XMLID_159_)" d="M 12.436 14.661 C 12.158999 14.411 11.842999 14.438001 11.842999 14.438001 L 10.509999 16.206001 C 10.469999 16.374 10.853999 16.724 11.046 16.61 L 12.617 15.163 C 12.617 15.163 12.71 14.908 12.436 14.661 z "/>
                <linearGradient x1="-681.3496" gradientTransform="matrix(1 0 0 -1 694.626 1035.9688)" y1="1022.1709" x2="-689.6587" gradientUnits="userSpaceOnUse" y2="1013.3773" xlink:type="simple" xlink:actuate="onLoad" id="XMLID_160_" xlink:show="other">
                    <stop stop-color="#ffffff" offset="0"/>
                    <stop stop-color="#a2c2dd" offset="0.35"/>
                    <stop stop-color="#6c83bb" offset="0.7"/>
                    <stop stop-color="#003d6d" offset="1"/>
                </linearGradient>
                <path fill="url(#XMLID_160_)" d="M 11.616 16.107 L 11.52 17.42 C 11.52 17.42 10.411 18.999 8.742001 20.631 C 7.0270004 22.311 5.219001 23.284 5.219001 23.284 C 5.219001 23.284 3.9780006 23.111 3.1610007 22.710001 C 2.347 22.311 11.616 16.107 11.616 16.107 z "/>
                <linearGradient x1="-684.0781" gradientTransform="matrix(1 0 0 -1 694.626 1035.9688)" y1="1020.4521" x2="-691.0228" gradientUnits="userSpaceOnUse" y2="1014.5936" xlink:type="simple" xlink:actuate="onLoad" id="XMLID_161_" xlink:show="other">
                    <stop stop-color="#ffffff" offset="0"/>
                    <stop stop-color="#ffffff" offset="0.15"/>
                    <stop stop-color="#a2c2dd" offset="1"/>
                </linearGradient>
                <path fill="url(#XMLID_161_)" d="M 0.984 20.192 L 11.739 15.582999 L 11.635 16.997 C 11.635 16.997 10.441 18.694 8.646 20.45 C 6.8009996 22.257 4.855 23.305 4.855 23.305 C 4.855 23.305 3.519 23.119 2.642 22.688 C 1.765 22.255 1.207 21.543 1.207 21.543 L 0.984 20.192 z "/>
                <linearGradient x1="-693.1831" gradientTransform="matrix(1 0 0 -1 694.626 1035.9688)" y1="1015.9707" x2="-689.4249" gradientUnits="userSpaceOnUse" y2="1012.2131" xlink:type="simple" xlink:actuate="onLoad" id="XMLID_162_" xlink:show="other">
                    <stop stop-color="#ffffff" offset="0"/>
                    <stop stop-color="#a2c2dd" offset="0.35"/>
                    <stop stop-color="#6c83bb" offset="0.7"/>
                    <stop stop-color="#003d6d" offset="1"/>
                </linearGradient>
                <path fill="url(#XMLID_162_)" d="M 0.984 20.192 L 4.815 21.564999 L 4.856 23.304998 C 4.856 23.304998 3.52 23.118998 2.643 22.687998 C 1.7659999 22.254997 1.208 21.542997 1.208 21.542997 L 0.984 20.192 z "/>
                <linearGradient x1="-688.917" gradientTransform="matrix(1 0 0 -1 694.626 1035.9688)" y1="1021.418" x2="-687.7057" gradientUnits="userSpaceOnUse" y2="1015.1579" xlink:type="simple" xlink:actuate="onLoad" id="XMLID_163_" xlink:show="other">
                    <stop stop-color="#ffffff" offset="0"/>
                    <stop stop-color="#ffffff" offset="0.05"/>
                    <stop stop-color="#a2c2dd" offset="1"/>
                </linearGradient>
                <path fill="url(#XMLID_163_)" d="M 4.058 16.751 C 6.026 14.860999 6.8640003 14.313 6.8640003 14.313 C 6.8640003 14.313 8.46 14.33 9.608 14.62 C 10.756 14.91 11.740999 15.558 11.740999 15.558 C 11.740999 15.558 10.622 17.028 8.747999 18.862 C 6.821999 20.746 4.814999 22.098 4.814999 22.098 C 4.814999 22.098 3.394999 21.649 2.479999 21.198 C 1.563999 20.747 0.9629991 20.194 0.9629991 20.194 C 0.9629991 20.194 2.029 18.696 4.058 16.751 z "/>
                <linearGradient x1="-686.1875" gradientTransform="matrix(1 0 0 -1 694.626 1035.9688)" y1="1017.4004" x2="-689.4046" gradientUnits="userSpaceOnUse" y2="1020.6175" xlink:type="simple" xlink:actuate="onLoad" id="XMLID_164_" xlink:show="other">
                    <stop stop-color="#ffffff" offset="0"/>
                    <stop stop-color="#ffffff" offset="0.05"/>
                    <stop stop-color="#a2c2dd" offset="1"/>
                </linearGradient>
                <polygon fill="url(#XMLID_164_)" points="7.161,15.169 10.48,16.016 6.986,19.578 3.598,18.323    "/>
                <linearGradient x1="-693.5977" gradientTransform="matrix(1 0 0 -1 694.626 1035.9688)" y1="1015.6172" x2="-686.3915" gradientUnits="userSpaceOnUse" y2="1021.9144" xlink:type="simple" xlink:actuate="onLoad" id="XMLID_165_" xlink:show="other">
                    <stop stop-color="#ffffff" offset="0"/>
                    <stop stop-color="#a2c2dd" offset="0.35"/>
                    <stop stop-color="#6c83bb" offset="0.7"/>
                    <stop stop-color="#003d6d" offset="1"/>
                </linearGradient>
                <polygon fill="url(#XMLID_165_)" points="3.598,18.323 3.259,18.205 7.151,14.784 7.151,15.169    "/>
                <linearGradient x1="-682.1099" gradientTransform="matrix(1 0 0 -1 694.626 1035.9688)" y1="1019.5205" x2="-690.5511" gradientUnits="userSpaceOnUse" y2="1021.923" xlink:type="simple" xlink:actuate="onLoad" id="XMLID_166_" xlink:show="other">
                    <stop stop-color="#ffffff" offset="0"/>
                    <stop stop-color="#a2c2dd" offset="0.35"/>
                    <stop stop-color="#6c83bb" offset="0.7"/>
                    <stop stop-color="#003d6d" offset="1"/>
                </linearGradient>
                <polygon fill="url(#XMLID_166_)" points="7.151,15.169 7.151,14.784 10.776,15.706 10.489,16.016    "/>
                <g>
                    <linearGradient x1="-690.3672" gradientTransform="matrix(1 0 0 -1 694.626 1035.9688)" y1="1018.6104" x2="-689.4716" gradientUnits="userSpaceOnUse" y2="1015.2352" xlink:type="simple" xlink:actuate="onLoad" id="XMLID_167_" xlink:show="other">
                        <stop stop-color="#e6eef4" offset="0"/>
                        <stop stop-color="#337ce5" offset="0.4438"/>
                        <stop stop-color="#003d6d" offset="0.9382"/>
                        <stop stop-color="#003d6d" offset="1"/>
                    </linearGradient>
                    <polygon fill="url(#XMLID_167_)" points="4.347,20.152 5.195,20.504 5.65,20.138 4.789,19.786     "/>
                    <linearGradient x1="-689.7212" gradientTransform="matrix(1 0 0 -1 694.626 1035.9688)" y1="1018.7559" x2="-688.826" gradientUnits="userSpaceOnUse" y2="1015.3826" xlink:type="simple" xlink:actuate="onLoad" id="XMLID_168_" xlink:show="other">
                        <stop stop-color="#e6eef4" offset="0"/>
                        <stop stop-color="#337ce5" offset="0.4438"/>
                        <stop stop-color="#003d6d" offset="0.9382"/>
                        <stop stop-color="#003d6d" offset="1"/>
                    </linearGradient>
                    <polygon fill="url(#XMLID_168_)" points="5.767,20.041 6.217,19.678 5.324,19.343 4.903,19.692     "/>
                    <linearGradient x1="-690.9922" gradientTransform="matrix(1 0 0 -1 694.626 1035.9688)" y1="1018.4688" x2="-690.0958" gradientUnits="userSpaceOnUse" y2="1015.0909" xlink:type="simple" xlink:actuate="onLoad" id="XMLID_169_" xlink:show="other">
                        <stop stop-color="#e6eef4" offset="0"/>
                        <stop stop-color="#337ce5" offset="0.4438"/>
                        <stop stop-color="#003d6d" offset="0.9382"/>
                        <stop stop-color="#003d6d" offset="1"/>
                    </linearGradient>
                    <polygon fill="url(#XMLID_169_)" points="4.231,20.247 3.831,20.579 4.657,20.936 5.078,20.6     "/>
                    <linearGradient x1="-692.0049" gradientTransform="matrix(1 0 0 -1 694.626 1035.9688)" y1="1018.2383" x2="-691.1026" gradientUnits="userSpaceOnUse" y2="1014.8379" xlink:type="simple" xlink:actuate="onLoad" id="XMLID_170_" xlink:show="other">
                        <stop stop-color="#e6eef4" offset="0"/>
                        <stop stop-color="#337ce5" offset="0.4438"/>
                        <stop stop-color="#003d6d" offset="0.9382"/>
                        <stop stop-color="#003d6d" offset="1"/>
                    </linearGradient>
                    <polygon fill="url(#XMLID_170_)" points="3.615,19.313 2.884,19.021 2.489,19.394 3.208,19.685     "/>
                    <linearGradient x1="-690.606" gradientTransform="matrix(1 0 0 -1 694.626 1035.9688)" y1="1018.5645" x2="-689.7037" gradientUnits="userSpaceOnUse" y2="1015.1642" xlink:type="simple" xlink:actuate="onLoad" id="XMLID_171_" xlink:show="other">
                        <stop stop-color="#e6eef4" offset="0"/>
                        <stop stop-color="#337ce5" offset="0.4438"/>
                        <stop stop-color="#003d6d" offset="0.9382"/>
                        <stop stop-color="#003d6d" offset="1"/>
                    </linearGradient>
                    <polygon fill="url(#XMLID_171_)" points="4.733,19.632 5.14,19.284 4.281,18.965 3.901,19.3     "/>
                    <linearGradient x1="-691.4375" gradientTransform="matrix(1 0 0 -1 694.626 1035.9688)" y1="1018.3721" x2="-690.5314" gradientUnits="userSpaceOnUse" y2="1014.9576" xlink:type="simple" xlink:actuate="onLoad" id="XMLID_172_" xlink:show="other">
                        <stop stop-color="#e6eef4" offset="0"/>
                        <stop stop-color="#337ce5" offset="0.4438"/>
                        <stop stop-color="#003d6d" offset="0.9382"/>
                        <stop stop-color="#003d6d" offset="1"/>
                    </linearGradient>
                    <polygon fill="url(#XMLID_172_)" points="4.085,18.884 3.324,18.603 2.985,18.925 3.718,19.217     "/>
                    <linearGradient x1="-691.8066" gradientTransform="matrix(1 0 0 -1 694.626 1035.9688)" y1="1018.292" x2="-690.9042" gradientUnits="userSpaceOnUse" y2="1014.891" xlink:type="simple" xlink:actuate="onLoad" id="XMLID_173_" xlink:show="other">
                        <stop stop-color="#e6eef4" offset="0"/>
                        <stop stop-color="#337ce5" offset="0.4438"/>
                        <stop stop-color="#003d6d" offset="0.9382"/>
                        <stop stop-color="#003d6d" offset="1"/>
                    </linearGradient>
                    <polygon fill="url(#XMLID_173_)" points="2.897,20.189 3.685,20.525 4.076,20.191 3.27,19.86     "/>
                    <linearGradient x1="-692.5698" gradientTransform="matrix(1 0 0 -1 694.626 1035.9688)" y1="1018.1143" x2="-691.665" gradientUnits="userSpaceOnUse" y2="1014.7043" xlink:type="simple" xlink:actuate="onLoad" id="XMLID_174_" xlink:show="other">
                        <stop stop-color="#e6eef4" offset="0"/>
                        <stop stop-color="#337ce5" offset="0.4438"/>
                        <stop stop-color="#003d6d" offset="0.9382"/>
                        <stop stop-color="#003d6d" offset="1"/>
                    </linearGradient>
                    <polygon fill="url(#XMLID_174_)" points="3.101,19.781 2.39,19.49 2.043,19.816 2.74,20.111     "/>
                    <linearGradient x1="-691.2129" gradientTransform="matrix(1 0 0 -1 694.626 1035.9688)" y1="1018.4248" x2="-690.3109" gradientUnits="userSpaceOnUse" y2="1015.0257" xlink:type="simple" xlink:actuate="onLoad" id="XMLID_175_" xlink:show="other">
                        <stop stop-color="#e6eef4" offset="0"/>
                        <stop stop-color="#337ce5" offset="0.4438"/>
                        <stop stop-color="#003d6d" offset="0.9382"/>
                        <stop stop-color="#003d6d" offset="1"/>
                    </linearGradient>
                    <polygon fill="url(#XMLID_175_)" points="3.795,19.395 3.378,19.765 4.188,20.097 4.619,19.727     "/>
                    <linearGradient x1="-692.3809" gradientTransform="matrix(1 0 0 -1 694.626 1035.9688)" y1="1018.1543" x2="-691.4797" gradientUnits="userSpaceOnUse" y2="1014.7581" xlink:type="simple" xlink:actuate="onLoad" id="XMLID_176_" xlink:show="other">
                        <stop stop-color="#e6eef4" offset="0"/>
                        <stop stop-color="#337ce5" offset="0.4438"/>
                        <stop stop-color="#003d6d" offset="0.9382"/>
                        <stop stop-color="#003d6d" offset="1"/>
                    </linearGradient>
                    <polygon fill="url(#XMLID_176_)" points="2.789,20.287 2.407,20.624 3.166,20.969 3.572,20.622     "/>
                </g>
            </g>
        </g>
    </g>
</svg>
