<?xml version="1.0" encoding="UTF-8"?>
<svg xmlns="http://www.w3.org/2000/svg" xmlns:xlink="http://www.w3.org/1999/xlink" contentScriptType="text/ecmascript" width="20" baseProfile="tiny" zoomAndPan="magnify" contentStyleType="text/css" viewBox="0 0 20 20" height="20" preserveAspectRatio="xMidYMid meet" version="1.0">
    <path fill="#ffffff" d="M 12.488 4.889 L 12.488 6.085 C 12.071 5.993 11.6189995 5.947 11.134 5.947 C 10.414 5.947 9.852 6.2 9.446 6.707 C 9.041 7.213 8.792 7.973 8.7 8.985 C 9.144 8.554 9.759 8.339 10.543 8.339 C 11.423 8.339 12.092 8.6189995 12.55 9.1779995 C 13.008 9.738 13.238 10.537 13.238 11.577999 C 13.238 12.727999 12.958 13.624999 12.396 14.268999 C 11.834 14.911999 11.024 15.233999 9.965 15.233999 C 8.906 15.233999 8.109 14.858999 7.5690002 14.106999 C 7.031 13.355 6.761 12.108999 6.761 10.367 C 6.761 8.653 7.1210003 7.2909994 7.84 6.2799997 C 8.56 5.2699995 9.598001 4.764 10.954 4.764 C 11.505 4.765 12.016 4.806 12.488 4.889 z M 9.965 14.093 C 10.428 14.093 10.775001 13.915 11.003 13.56 C 11.232 13.205001 11.347 12.558001 11.347 11.619 C 11.347 10.912001 11.24 10.382 11.024 10.027 C 10.809 9.673 10.486 9.495001 10.055 9.495001 C 9.606 9.495001 9.2630005 9.665001 9.028 10.004001 C 8.792 10.343 8.674 10.811001 8.674 11.407001 C 8.674 12.122001 8.722 12.661 8.819 13.026001 C 8.915 13.389001 9.058001 13.659001 9.249001 13.833001 C 9.440001 14.007001 9.677 14.093 9.965 14.093 z "/>
</svg>
