<?xml version="1.0" encoding="UTF-8"?>
<svg xmlns="http://www.w3.org/2000/svg" xmlns:xlink="http://www.w3.org/1999/xlink" contentScriptType="text/ecmascript" width="84" baseProfile="tiny" zoomAndPan="magnify" contentStyleType="text/css" viewBox="0 0 84 58" height="58" preserveAspectRatio="xMidYMid meet" version="1.1">
    <g>
        <g>
            <path fill="#ffffff" d="M 32.862 14.608 C 32.862 14.756 32.882 20.338 32.882 20.338 L 24.758 23.425999 L 25.355 41.51 C 25.505999 46.079 30.008999 51.292 34.114998 51.650997 L 51.764 53.609997 C 54.032 54.053997 57.934 51.552998 62.486 49.161995 C 66.636 46.678993 67.03 43.023994 67.03 41.724995 C 67.03 41.454994 67.302 22.929995 67.302 22.929995 L 59.81 22.179995 C 59.788002 21.167995 59.654003 15.593994 59.654003 15.582994 C 59.654003 12.690994 56.664 6.4229946 48.436005 4.998995 C 42.859 4.03 32.862 7.432 32.862 14.608 z M 39.967 13.14 C 41.024 9.555 49.757 9.495001 52.409 15.143001 C 52.512 15.362 52.837 16.501001 52.944 21.553001 L 39.763 20.391 C 39.764 20.391 39.623 14.307 39.967 13.14 z "/>
            <linearGradient x1="-698.5293" gradientTransform="matrix(1.1905 0 0 -1.1905 875.7983 1344.9745)" y1="1104.0508" x2="-696.0704" gradientUnits="userSpaceOnUse" y2="1113.0667" xlink:type="simple" xlink:actuate="onLoad" id="XMLID_8_" xlink:show="other">
                <stop stop-color="#ffffff" offset="0"/>
                <stop stop-color="#ffffff" offset="0.05"/>
                <stop stop-color="#a2c2dd" offset="1"/>
            </linearGradient>
            <polygon fill="url(#XMLID_8_)" points="25.457,23.891 34.132,20.594 66.766,23.472 59.383,26.979   "/>
            <linearGradient x1="-683.3447" gradientTransform="matrix(1.1905 0 0 -1.1905 875.7983 1344.9745)" y1="1114.376" x2="-684.9839" gradientUnits="userSpaceOnUse" y2="1084.6658" xlink:type="simple" xlink:actuate="onLoad" id="XMLID_9_" xlink:show="other">
                <stop stop-color="#ffffff" offset="0"/>
                <stop stop-color="#a2c2dd" offset="0.35"/>
                <stop stop-color="#6c83bb" offset="0.7"/>
                <stop stop-color="#003d6d" offset="1"/>
            </linearGradient>
            <path fill="url(#XMLID_9_)" d="M 66.61 23.49 L 59.342 26.991 L 59.347 44.904 C 59.347 44.904 59.881 49.445 55.072 52.232998 L 62.170998 48.554996 C 66.826996 45.767 66.329994 41.325996 66.329994 41.325996 L 66.61 23.49 z "/>
            <path fill="#3366cc" d="M 38.531 21.77 C 40.494 22.116001 41.12 22.878 39.927 23.470001 C 38.732998 24.063002 36.174 24.260002 34.21 23.913002 C 32.246998 23.565002 31.622 22.808002 32.814 22.215002 C 34.007 21.619 36.566 21.423 38.531 21.77 z "/>
            <path fill="#496da2" d="M 58.396 23.37 C 60.379 23.638 61.056 24.384 59.905 25.035 C 58.753 25.686 56.213997 25.999 54.225998 25.730999 C 52.241997 25.463999 51.565 24.716 52.718998 24.067 C 53.869 23.414 56.411 23.102 58.396 23.37 z "/>
            <path fill="#496da2" d="M 38.333 21.702 C 40.308 21.987999 40.958 22.728 39.782 23.357 C 38.608 23.988 36.057003 24.266 34.082 23.98 C 32.109 23.695 31.459002 22.956999 32.633 22.327 C 33.808 21.694 36.359 21.419 38.333 21.702 z "/>
            <linearGradient x1="-679.1943" gradientTransform="matrix(1.1905 0 0 -1.1905 875.7983 1344.9745)" y1="1119.3242" x2="-705.1505" gradientUnits="userSpaceOnUse" y2="1094.4663" xlink:type="simple" xlink:actuate="onLoad" id="XMLID_10_" xlink:show="other">
                <stop stop-color="#ffffff" offset="0"/>
                <stop stop-color="#ffffff" offset="0.05"/>
                <stop stop-color="#a2c2dd" offset="1"/>
            </linearGradient>
            <path fill="url(#XMLID_10_)" d="M 25.457 23.891 L 59.383 26.981 C 59.404 27.641 59.25 40.420002 59.395 44.822 C 59.541 49.218 55.765 53.276 51.84 52.932 L 34.176003 50.971 C 30.500002 50.649002 26.185001 45.884003 26.039001 41.489 C 25.891 37.085 25.479 24.55 25.457 23.891 z "/>
            <linearGradient x1="-710.4409" gradientTransform="matrix(1.1905 0 0 -1.1905 875.7983 1344.9745)" y1="1120.208" x2="-662.086" gradientUnits="userSpaceOnUse" y2="1107.5046" xlink:type="simple" xlink:actuate="onLoad" id="XMLID_11_" xlink:show="other">
                <stop stop-color="#ffffff" offset="0"/>
                <stop stop-color="#a2c2dd" offset="0.35"/>
                <stop stop-color="#6c83bb" offset="0.7"/>
                <stop stop-color="#003d6d" offset="1"/>
            </linearGradient>
            <path fill="url(#XMLID_11_)" d="M 39.135 22.252 C 38.585 22.666 38.406998 23.151001 36.815 23.277 C 34.41 23.467001 33.567997 22.791 33.567997 22.791 L 33.556995 15.005001 C 33.369995 12.261002 35.154995 9.820002 36.996994 8.501001 C 39.404995 6.779001 43.853992 4.8970013 48.320995 5.6710014 C 54.138996 6.6790013 56.498997 9.792002 57.679996 11.636002 C 59.001995 13.701002 58.969997 15.618002 58.969997 15.618002 L 59.171997 24.088001 C 59.171997 24.088001 58.684998 24.820002 56.749996 24.953001 C 54.348995 25.219002 53.725998 24.576 53.725998 24.576 C 53.725998 24.576 53.762997 16.302 53.092 14.87 C 52.493 13.593 50.342 10.195 44.956 9.957 C 39.962 9.736 39.041 13.832 39.041 13.832 C 39.055 13.046 39.135 22.252 39.135 22.252 z "/>
            <linearGradient x1="-701.4258" gradientTransform="matrix(1.1905 0 0 -1.1905 875.7983 1344.9745)" y1="1123.0156" x2="-704.4994" gradientUnits="userSpaceOnUse" y2="1107.8524" xlink:type="simple" xlink:actuate="onLoad" id="XMLID_12_" xlink:show="other">
                <stop stop-color="#ffffff" offset="0"/>
                <stop stop-color="#a2c2dd" offset="0.35"/>
                <stop stop-color="#6c83bb" offset="0.7"/>
                <stop stop-color="#003d6d" offset="1"/>
            </linearGradient>
            <path fill="url(#XMLID_12_)" d="M 36.815 23.277 C 36.815 23.277 36.626 15.2890005 36.92 14.4210005 C 38.265 10.474001 42.92 10.074 42.92 10.074 C 39.823997 11.035001 39.349 12.713 39.197998 13.742001 C 39.047997 14.772 39.172997 22.586 39.172997 22.586 C 38.402 23.243 37.805 23.275 36.815 23.277 z "/>
            <linearGradient x1="-691.1704" gradientTransform="matrix(1.1905 0 0 -1.1905 875.7983 1344.9745)" y1="1090.2002" x2="-714.9377" gradientUnits="userSpaceOnUse" y2="1113.9675" xlink:type="simple" xlink:actuate="onLoad" id="XMLID_13_" xlink:show="other">
                <stop stop-color="#e6eef4" offset="0"/>
                <stop stop-color="#575ac6" offset="0.44"/>
                <stop stop-color="#003d6d" offset="0.94"/>
                <stop stop-color="#003d6d" offset="1"/>
            </linearGradient>
            <path fill="url(#XMLID_13_)" d="M 45.412 38.252 C 45.412 38.252 46.833 37.7 47.338997 35.315 C 47.659996 34.580997 47.520996 29.721998 42.752 29.308998 C 40.971 29.154999 38.992 31.097998 38.992 33.48 C 38.992 36.232998 41.239002 37.839 41.239002 37.839 L 41.494003 45.029 L 45.613003 45.392 L 45.412 38.252 z "/>
            <path fill="#ffffff" d="M 14.81 34.878 C 11.966001 34.878 8.073 35.552998 7.0870004 41.386997 L 6.938 42.263996 C 6.938 42.263996 13.486 42.263996 14.264 42.263996 C 14.498 42.687996 14.85 43.315994 15.07 43.720997 C 14.849 44.122997 14.497999 44.754997 14.264 45.177 C 13.486 45.177 6.9379997 45.177 6.9379997 45.177 L 7.087 46.054996 C 8.072 51.888996 11.965 52.561996 14.809999 52.561996 C 17.050999 52.561996 19.049 50.682995 20.654 49.167995 C 21.522 48.349995 22.34 47.581997 22.773998 47.581997 L 42.834 47.581997 L 43.058 47.333996 C 43.488 46.861996 44.489 45.566998 44.510998 43.751995 L 44.510998 43.686996 C 44.489 41.871998 43.488 40.576996 43.058 40.102997 L 42.834 39.857 L 22.771 39.857 C 22.339 39.857 21.52 39.086998 20.655 38.273 C 19.047 36.761 17.051 34.878 14.81 34.878 z "/>
            <linearGradient x1="-724.9966" gradientTransform="matrix(1.1905 0 0 -1.1905 875.7983 1344.9745)" y1="1105" x2="-705.2036" gradientUnits="userSpaceOnUse" y2="1081.5516" xlink:type="simple" xlink:actuate="onLoad" id="XMLID_14_" xlink:show="other">
                <stop stop-color="#e6eef4" offset="0"/>
                <stop stop-color="#9646ac" offset="0.44"/>
                <stop stop-color="#3d013f" offset="0.94"/>
                <stop stop-color="#3d013f" offset="1"/>
            </linearGradient>
            <path fill="url(#XMLID_14_)" d="M 43.759 43.721 C 43.759 43.716 43.759 43.703 43.759 43.698 L 43.754997 43.698 C 43.735996 42.120003 42.830997 40.975002 42.496 40.614002 C 42.073997 40.614002 22.770998 40.614002 22.770998 40.614002 C 22.038998 40.614002 21.242998 39.862003 20.134998 38.822002 C 18.626999 37.401 16.752998 35.632004 14.808998 35.632004 C 11.652998 35.632004 8.665998 36.561005 7.829998 41.512005 C 9.015998 41.512005 14.705997 41.512005 14.705997 41.512005 L 15.931997 43.722004 L 14.705997 45.929005 C 14.705997 45.929005 9.015997 45.929005 7.8299975 45.929005 C 8.6659975 50.883003 11.652998 51.809006 14.808998 51.809006 C 16.752998 51.809006 18.628998 50.041004 20.134998 48.621006 C 21.241999 47.582005 22.037998 46.830006 22.770998 46.830006 C 22.770998 46.830006 42.073997 46.830006 42.496 46.830006 C 42.830997 46.467007 43.736 45.324005 43.754997 43.743004 L 43.759 43.743004 C 43.759 43.737 43.759 43.729 43.759 43.721 z "/>
        </g>
        <rect width="84" fill="none" height="58"/>
    </g>
</svg>
