<?xml version="1.0" encoding="UTF-8"?>
<svg xmlns="http://www.w3.org/2000/svg" xmlns:xlink="http://www.w3.org/1999/xlink" contentScriptType="text/ecmascript" width="88" baseProfile="tiny" zoomAndPan="magnify" contentStyleType="text/css" viewBox="-177.123 -3.5 88 88" height="88" preserveAspectRatio="xMidYMid meet" version="1.1">
    <rect x="-177.123" width="88" fill="none" y="-3.5" height="88"/>
    <path fill="#ffffff" d="M -162.945 3.3 C -166.904 3.3 -170.12401 6.521 -170.12401 10.48 L -170.12401 70.121994 C -170.12401 74.078995 -166.904 77.30499 -162.945 77.30499 L -103.29901 77.30499 C -99.34201 77.30499 -96.11801 74.078995 -96.11801 70.121994 L -96.11801 10.479 C -96.11801 6.52 -99.34201 3.2990003 -103.29901 3.2990003 L -162.945 3.2990003 L -162.945 3.3 z " fill-opacity="0.3"/>
    <linearGradient x1="-2933.5337" gradientTransform="matrix(1 0 0 1 2778.7793 -2261.04)" y1="2339.0039" x2="-2890.2712" gradientUnits="userSpaceOnUse" y2="2264.071" xlink:type="simple" xlink:actuate="onLoad" id="XMLID_20_" xlink:show="other">
        <stop stop-color="#000000" offset="0"/>
        <stop stop-color="#000000" offset="0.6461"/>
        <stop stop-color="#52a2a5" offset="0.9944"/>
        <stop stop-color="#52a2a5" offset="1"/>
    </linearGradient>
    <path fill="url(#XMLID_20_)" d="M -100.123 68.537 C -100.123 71.277 -102.346 73.5 -105.086 73.5 L -161.15799 73.5 C -163.898 73.5 -166.12299 71.277 -166.12299 68.537 L -166.12299 12.466 C -166.12299 9.723 -163.89798 7.4999995 -161.15799 7.4999995 L -105.08599 7.4999995 C -102.34499 7.4999995 -100.12299 9.723 -100.12299 12.466 L -100.12299 68.537 z "/>
    <path fill="#ffffff" d="M -128.098 21.337 C -128.671 21.164 -133.16101 19.805 -133.16101 19.805 C -133.16101 19.805 -136.88802 24.984001 -137.15901 25.362 C -137.38301 25.462 -137.755 25.628 -138.22401 25.834 C -138.31502 25.649 -138.432 25.418999 -138.432 25.418999 C -138.432 25.418999 -143.68001 31.488998 -144.692 32.661 C -145.472 31.925 -147.385 30.115 -147.385 30.115 L -163.683 46.303 L -142.415 66.411 C -142.415 66.411 -135.388 59.432003 -134.57799 58.627003 C -133.47998 59.135002 -116.34799 67.07 -116.34799 67.07 L -115.89399 66.34 L -101.827 42.0 C -101.827 42.0 -101.560005 39.732 -101.521 39.392 C -101.468 39.302998 -101.318 39.057 -101.318 39.057 L -101.547 38.628 C -101.547 38.628 -101.756996 38.111 -101.923 37.705997 C -101.742 37.427 -100.972 36.241997 -100.149994 34.976997 C -100.149994 35.065998 -100.093994 23.905998 -100.093994 24.065998 C -101.783 25.272999 -103.78099 26.402998 -106.093994 27.476997 C -106.743996 25.879997 -111.58699 14.003998 -111.58699 14.003998 C -111.58699 14.003998 -127.492 21.067 -128.098 21.337 z "/>
    <g>
        <linearGradient x1="-831.2641" gradientTransform="matrix(1.1364 0 0 -1.1364 824.0004 1284.2155)" y1="1096.8027" x2="-835.0358" gradientUnits="userSpaceOnUse" y2="1108.4154" xlink:type="simple" xlink:actuate="onLoad" id="XMLID_21_" xlink:show="other">
            <stop stop-color="#496da2" offset="0"/>
            <stop stop-color="#cadcec" offset="1"/>
        </linearGradient>
        <polygon fill="url(#XMLID_21_)" points="-112.342,15.198 -138.727,26.917 -140.656,30.375 -103.993,40.92 -102.663,38.934  "/>
        <linearGradient x1="-830.6972" gradientTransform="matrix(1.1364 0 0 -1.1364 824.0004 1284.2155)" y1="1102.6162" x2="-819.9983" gradientUnits="userSpaceOnUse" y2="1118.7734" xlink:type="simple" xlink:actuate="onLoad" id="XMLID_22_" xlink:show="other">
            <stop stop-color="#ffffff" offset="0"/>
            <stop stop-color="#ffffff" offset="0.15"/>
            <stop stop-color="#a2c2dd" offset="1"/>
        </linearGradient>
        <polygon fill="url(#XMLID_22_)" points="-100.148,30.798 -133.049,20.843 -148.225,41.934 -115.385,56.285 -100.131,32.802  "/>
        <linearGradient x1="-824.7939" gradientTransform="matrix(1.1364 0 0 -1.1364 824.0004 1284.2155)" y1="1069.2725" x2="-831.3517" gradientUnits="userSpaceOnUse" y2="1100.4667" xlink:type="simple" xlink:actuate="onLoad" id="XMLID_23_" xlink:show="other">
            <stop stop-color="#ffffff" offset="0"/>
            <stop stop-color="#a2c2dd" offset="0.53"/>
            <stop stop-color="#6c83bb" offset="0.87"/>
            <stop stop-color="#003d6d" offset="1"/>
        </linearGradient>
        <polygon fill="url(#XMLID_23_)" points="-138.962,27.037 -131.47,39.835 -125.816,41.517 -102.683,38.932 -134.083,50.657  "/>
        <linearGradient x1="-824.3676" gradientTransform="matrix(1.1364 0 0 -1.1364 824.0004 1284.2155)" y1="1069.874" x2="-835.2505" gradientUnits="userSpaceOnUse" y2="1087.1448" xlink:type="simple" xlink:actuate="onLoad" id="XMLID_24_" xlink:show="other">
            <stop stop-color="#ffffff" offset="0"/>
            <stop stop-color="#ffffff" offset="0.15"/>
            <stop stop-color="#a2c2dd" offset="1"/>
        </linearGradient>
        <polygon fill="url(#XMLID_24_)" points="-155.531,46.277 -138.893,27.037 -131.894,40.964 -125.663,43.064 -102.61,38.932    -117.086,63.15  "/>
        <linearGradient x1="-845.9311" gradientTransform="matrix(1.1364 0 0 -1.1364 824.0004 1284.2155)" y1="1064.8262" x2="-852.4899" gradientUnits="userSpaceOnUse" y2="1096.0247" xlink:type="simple" xlink:actuate="onLoad" id="XMLID_25_" xlink:show="other">
            <stop stop-color="#ffffff" offset="0"/>
            <stop stop-color="#a2c2dd" offset="0.53"/>
            <stop stop-color="#6c83bb" offset="0.87"/>
            <stop stop-color="#003d6d" offset="1"/>
        </linearGradient>
        <polygon fill="url(#XMLID_25_)" points="-155.531,46.277 -132.818,39.163 -131.894,40.964  "/>
        <linearGradient x1="-828.7934" gradientTransform="matrix(1.1364 0 0 -1.1364 824.0004 1284.2155)" y1="1068.4297" x2="-835.3521" gradientUnits="userSpaceOnUse" y2="1099.6277" xlink:type="simple" xlink:actuate="onLoad" id="XMLID_26_" xlink:show="other">
            <stop stop-color="#ffffff" offset="0"/>
            <stop stop-color="#a2c2dd" offset="0.53"/>
            <stop stop-color="#6c83bb" offset="0.87"/>
            <stop stop-color="#003d6d" offset="1"/>
        </linearGradient>
        <polygon fill="url(#XMLID_26_)" points="-117.094,63.195 -122.749,42.563 -125.663,43.064  "/>
        <linearGradient x1="-823.6381" gradientTransform="matrix(1.1364 0 0 -1.1364 824.0004 1284.2155)" y1="1085.458" x2="-818.7391" gradientUnits="userSpaceOnUse" y2="1081.6437" xlink:type="simple" xlink:actuate="onLoad" id="XMLID_27_" xlink:show="other">
            <stop stop-color="#dee9f3" offset="0"/>
            <stop stop-color="#235487" offset="1"/>
        </linearGradient>
        <polygon fill="url(#XMLID_27_)" points="-102.663,38.934 -117.118,63.119 -116.979,65.874 -102.982,41.657  "/>
        <linearGradient x1="-844.3159" gradientTransform="matrix(1.1364 0 0 -1.1364 824.0004 1284.2155)" y1="1082.3516" x2="-845.7412" gradientUnits="userSpaceOnUse" y2="1079.0967" xlink:type="simple" xlink:actuate="onLoad" id="XMLID_28_" xlink:show="other">
            <stop stop-color="#ffffff" offset="0"/>
            <stop stop-color="#496da2" offset="0.71"/>
            <stop stop-color="#235487" offset="0.99"/>
            <stop stop-color="#235487" offset="1"/>
        </linearGradient>
        <polygon fill="url(#XMLID_28_)" points="-117.118,63.119 -155.511,46.271 -154.801,48.31 -116.953,65.84  "/>
        <linearGradient x1="-844.1411" gradientTransform="matrix(1.1364 0 0 -1.1364 824.0004 1284.2155)" y1="1083.4736" x2="-878.4703" gradientUnits="userSpaceOnUse" y2="1100.0498" xlink:type="simple" xlink:actuate="onLoad" id="XMLID_29_" xlink:show="other">
            <stop stop-color="#e2e6e4" offset="0"/>
            <stop stop-color="#a3740a" offset="1"/>
        </linearGradient>
        <polygon fill="url(#XMLID_29_)" points="-147.624,31.364 -162.602,46.243 -142.686,65.072 -127.705,50.195  "/>
        <linearGradient x1="-840.0644" gradientTransform="matrix(1.1364 0 0 -1.1364 824.0004 1284.2155)" y1="1085.6191" x2="-860.8096" gradientUnits="userSpaceOnUse" y2="1098.9127" xlink:type="simple" xlink:actuate="onLoad" id="XMLID_30_" xlink:show="other">
            <stop stop-color="#e6eef4" offset="0"/>
            <stop stop-color="#a3740a" offset="0.44"/>
            <stop stop-color="#474105" offset="0.94"/>
            <stop stop-color="#474105" offset="1"/>
        </linearGradient>
        <polygon fill="url(#XMLID_30_)" points="-148.491,37.753 -133.952,51.517 -132.928,50.437 -147.465,36.673  "/>
        <linearGradient x1="-842.1328" gradientTransform="matrix(1.1364 0 0 -1.1364 824.0004 1284.2155)" y1="1082.3936" x2="-862.8786" gradientUnits="userSpaceOnUse" y2="1095.6876" xlink:type="simple" xlink:actuate="onLoad" id="XMLID_31_" xlink:show="other">
            <stop stop-color="#e6eef4" offset="0"/>
            <stop stop-color="#a3740a" offset="0.44"/>
            <stop stop-color="#474105" offset="0.94"/>
            <stop stop-color="#474105" offset="1"/>
        </linearGradient>
        <polygon fill="url(#XMLID_31_)" points="-151.736,40.847 -137.198,54.611 -136.176,53.53 -150.713,39.764  "/>
        <linearGradient x1="-844.1777" gradientTransform="matrix(1.1364 0 0 -1.1364 824.0004 1284.2155)" y1="1079.2002" x2="-864.9238" gradientUnits="userSpaceOnUse" y2="1092.4944" xlink:type="simple" xlink:actuate="onLoad" id="XMLID_32_" xlink:show="other">
            <stop stop-color="#e6eef4" offset="0"/>
            <stop stop-color="#a3740a" offset="0.44"/>
            <stop stop-color="#474105" offset="0.94"/>
            <stop stop-color="#474105" offset="1"/>
        </linearGradient>
        <polygon fill="url(#XMLID_32_)" points="-155.14,43.784 -140.602,57.548 -139.577,56.47 -154.115,42.703  "/>
        <linearGradient x1="-810.5634" gradientTransform="matrix(1.1364 0 0 -1.1364 824.0004 1284.2155)" y1="1103.4795" x2="-842.5079" gradientUnits="userSpaceOnUse" y2="1085.9094" xlink:type="simple" xlink:actuate="onLoad" id="XMLID_33_" xlink:show="other">
            <stop stop-color="#e6eef4" offset="0"/>
            <stop stop-color="#c03a3a" offset="0.44"/>
            <stop stop-color="#302d02" offset="0.94"/>
            <stop stop-color="#302d02" offset="1"/>
        </linearGradient>
        <path fill="url(#XMLID_33_)" d="M -125.816 41.517 L -105.083 39.197998 C -105.083 39.197998 -103.689 37.920998 -103.005 37.225998 L -100.17799 32.873997 L -100.15699 30.794996 L -102.61999 30.049995 L -125.816 41.517 z " fill-opacity="0.4"/>
        <linearGradient x1="-809.8242" gradientTransform="matrix(1.1364 0 0 -1.1364 824.0004 1284.2155)" y1="1103.7832" x2="-842.7065" gradientUnits="userSpaceOnUse" y2="1085.6971" xlink:type="simple" xlink:actuate="onLoad" id="XMLID_34_" xlink:show="other">
            <stop stop-color="#e6eef4" offset="0"/>
            <stop stop-color="#c03a3a" offset="0.44"/>
            <stop stop-color="#302d02" offset="0.94"/>
            <stop stop-color="#302d02" offset="1"/>
        </linearGradient>
        <path fill="url(#XMLID_34_)" d="M -122.749 42.563 L -125.03 42.958 L -125.095 42.733 C -125.095 42.733 -139.952 47.925003 -140.084 48.603 C -138.325 48.902 -132.42 46.836002 -130.788 46.204002 C -128.739 47.289 -125.65599 47.9 -123.634995 47.823 C -122.90299 47.798 -122.144 47.721 -121.367 47.601 C -116.772995 46.884003 -109.962 43.584 -105.255 39.388 L -122.749 42.563 z " fill-opacity="0.4"/>
        <linearGradient x1="-825.4218" gradientTransform="matrix(1.1364 0 0 -1.1364 824.0004 1284.2155)" y1="1112.8047" x2="-828.7338" gradientUnits="userSpaceOnUse" y2="1085.8785" xlink:type="simple" xlink:actuate="onLoad" id="XMLID_35_" xlink:show="other">
            <stop stop-color="#e6eef4" offset="0"/>
            <stop stop-color="#c03a3a" offset="0.44"/>
            <stop stop-color="#302d02" offset="0.94"/>
            <stop stop-color="#302d02" offset="1"/>
        </linearGradient>
        <path fill="url(#XMLID_35_)" d="M -100.128 25.401 C -108.43 31.104 -124.545 36.637 -124.545 36.637 L -124.516 35.61 L -127.966995 39.188 L -127.906 38.193 L -132.095 44.896 C -125.436005 49.396 -110.45 44.849 -100.137 29.184 C -100.138 29.229 -100.128 25.371 -100.128 25.401 z "/>
        <linearGradient x1="-837.2758" gradientTransform="matrix(1.1364 0 0 -1.1364 824.0004 1284.2155)" y1="1086.0254" x2="-826.7224" gradientUnits="userSpaceOnUse" y2="1099.3237" xlink:type="simple" xlink:actuate="onLoad" id="XMLID_36_" xlink:show="other">
            <stop stop-color="#e3dfe4" offset="0"/>
            <stop stop-color="#c03a3a" offset="1"/>
        </linearGradient>
        <path fill="url(#XMLID_36_)" d="M -100.142 28.285 C -100.158 28.269 -100.119995 25.083 -100.119995 25.014 C -108.26299 30.711 -120.162994 32.723 -123.172 34.903 C -126.120995 37.739 -128.021 41.045 -128.021 41.045 C -127.52 39.242996 -125.52699 36.85 -124.507996 35.565998 C -125.17799 36.003998 -125.796 36.461998 -126.370995 36.943996 C -128.13899 39.074997 -129.43399 41.647995 -129.43399 41.647995 C -129.062 40.435993 -128.39899 39.097996 -127.89099 38.160995 C -130.504 40.686996 -131.976 43.836994 -131.94699 43.862995 C -127.375 47.91 -111.78 44.701 -100.142 28.285 z "/>
        <linearGradient x1="-811.7665" gradientTransform="matrix(1.1364 0 0 -1.1364 824.0004 1284.2155)" y1="1112.624" x2="-845.1306" gradientUnits="userSpaceOnUse" y2="1086.2839" xlink:type="simple" xlink:actuate="onLoad" id="XMLID_37_" xlink:show="other">
            <stop stop-color="#e6eef4" offset="0"/>
            <stop stop-color="#c03a3a" offset="0.44"/>
            <stop stop-color="#302d02" offset="0.94"/>
            <stop stop-color="#302d02" offset="1"/>
        </linearGradient>
        <path fill="url(#XMLID_37_)" d="M -135.434 46.717 L -140.99501 48.146 C -140.99501 48.146 -109.931015 34.674 -100.12301 26.063 C -112.117 37.653 -127.012 43.006 -135.434 46.717 z "/>
        <linearGradient x1="-830.622" gradientTransform="matrix(1.1364 0 0 -1.1364 824.0004 1284.2155)" y1="1096.5703" x2="-830.281" gradientUnits="userSpaceOnUse" y2="1095.8535" xlink:type="simple" xlink:actuate="onLoad" id="XMLID_38_" xlink:show="other">
            <stop stop-color="#e3dfe4" offset="0"/>
            <stop stop-color="#c03a3a" offset="1"/>
        </linearGradient>
        <path fill="url(#XMLID_38_)" d="M -136.411 46.438 C -137.94 47.013 -139.43399 47.507 -140.83 47.768 C -125.679 39.729004 -107.912 32.460003 -100.107 26.016 C -110.844 35.79 -126.917 42.203 -136.411 46.438 z "/>
        <path fill="#334ea2" d="M -137.449 45.973 C -136.407 45.491 -135.433 46.717 -135.433 46.717 C -135.433 46.717 -140.969 48.843 -141.295 48.022 C -141.296 48.021 -139.599 46.965 -137.449 45.973 z "/>
    </g>
</svg>
