<?xml version="1.0" encoding="UTF-8"?>
<svg xmlns="http://www.w3.org/2000/svg" xmlns:xlink="http://www.w3.org/1999/xlink" contentScriptType="text/ecmascript" width="100" baseProfile="tiny" zoomAndPan="magnify" contentStyleType="text/css" viewBox="-4 -2.999 100 100" height="100" preserveAspectRatio="xMidYMid meet" version="1.1">
    <rect x="-4" width="100" fill="none" y="-2.999" height="100"/>
    <g>
        <path fill="#404040" d="M 46.0 93.923 C 36.229 88.162994 28.223 80.351 22.2 70.808 C 21.712 71.31 21.42 71.613 21.375 71.673996 C 27.594 81.577 35.878 89.681 46.0 95.647 C 56.12 89.68201 64.4 81.583 70.62 71.68201 L 69.78001 70.840004 C 63.759 80.369 55.759 88.171 46.0 93.923 z "/>
        <path d="M 69.705 70.763 L 62.850002 63.883 C 61.710003 62.743 60.903004 61.929 60.903004 61.929 L 57.9 64.288 L 45.851 73.757 L 33.982002 64.386 L 30.927002 61.976 C 30.812002 62.093002 24.631002 68.312004 22.260002 70.747 C 22.241003 70.766 22.216002 70.79 22.198002 70.810005 C 28.219002 80.353004 36.227 88.16501 45.998 93.927 C 55.758003 88.172005 63.758003 80.372 69.776 70.843 L 69.705 70.763 z "/>
    </g>
    <linearGradient x1="-2118.2197" gradientTransform="matrix(1.1111 0 0 -1.1111 2381.9893 481.1642)" y1="371.2207" x2="-2101.2051" gradientUnits="userSpaceOnUse" y2="356.4803" xlink:type="simple" xlink:actuate="onLoad" id="XMLID_2_" xlink:show="other">
        <stop stop-color="#ffffff" offset="0"/>
        <stop stop-color="#d9d9d9" offset="0.0644"/>
        <stop stop-color="#a7a7a7" offset="0.1609"/>
        <stop stop-color="#7a7a7a" offset="0.2621"/>
        <stop stop-color="#545454" offset="0.3662"/>
        <stop stop-color="#363636" offset="0.474"/>
        <stop stop-color="#1e1e1e" offset="0.5864"/>
        <stop stop-color="#0d0d0d" offset="0.7055"/>
        <stop stop-color="#030303" offset="0.8362"/>
        <stop stop-color="#000000" offset="1"/>
    </linearGradient>
    <path fill="url(#XMLID_2_)" d="M 35.234 65.672 C 35.234 65.672 29.570002 70.626 25.123001 72.746994 C 25.123001 72.746994 33.617 85.79099 45.952003 92.260994 C 45.952003 92.260994 39.482002 82.758995 44.234005 72.44499 C 44.232 72.444 36.952 67.491 35.234 65.672 z " fill-opacity="0.5"/>
    <g>
        <path fill="#ffffff" d="M 85.17 43.813 L 83.27 43.813 L 83.27 41.914 C 83.27 40.388 82.033 39.15 80.506 39.15 C 78.979 39.15 77.74 40.387 77.74 41.914 L 77.74 43.813 L 75.838 43.813 C 74.311 43.813 73.074 45.053 73.074 46.578 C 73.074 48.106 74.31 49.344997 75.838 49.344997 L 77.74 49.344997 L 77.74 51.245 C 77.74 52.772 78.978 54.010998 80.506 54.010998 C 82.031 54.010998 83.27 52.773 83.27 51.245 L 83.27 49.344997 L 85.17 49.344997 C 86.697 49.344997 87.936 48.108997 87.936 46.578 C 87.936 45.052 86.695 43.813 85.17 43.813 z " display="none"/>
        <path fill="#ffffff" d="M 16.412 43.993 C 17.937 43.993 19.177 45.229 19.177 46.757 L 19.177 46.757 C 19.177 48.284 17.94 49.523 16.412 49.523 L 7.08 49.523 C 5.553 49.523 4.314 48.286 4.314 46.757 L 4.314 46.757 C 4.314 45.232 5.551 43.993 7.08 43.993 L 16.412 43.993 z " display="none"/>
        <g>
            <path fill="#808080" d="M 48.258 75.446 C 47.085 75.446 46.137 76.396996 46.137 77.567 L 46.137 84.723 C 46.137 85.893 47.086002 86.842 48.258 86.842 C 49.427998 86.842 53.954 82.317 53.954 81.143005 C 53.954 79.976 49.426 75.446 48.258 75.446 z "/>
            <path fill="#808080" d="M 40.855 77.571 C 40.855 76.410995 41.797 75.465996 42.96 75.465996 L 42.96 75.465996 C 44.122997 75.465996 45.065 76.410995 45.065 77.571 L 45.065 84.676 C 45.065 85.838005 44.122997 86.781006 42.96 86.781006 L 42.96 86.781006 C 41.798 86.781006 40.855 85.838005 40.855 84.676 L 40.855 77.571 z "/>
        </g>
        <g display="none">
            <path fill="#ffffff" d="M 43.775 18.604 C 44.947002 18.604 45.896 17.656 45.896 16.484001 L 45.896 9.329 C 45.896 8.158001 44.947 7.2100005 43.775 7.2100005 C 42.605003 7.2100005 38.078003 11.737 38.078003 12.909 C 38.078 14.075 42.605 18.604 43.775 18.604 z " display="inline"/>
            <path fill="#ffffff" d="M 51.176 16.479 C 51.176 17.641 50.235 18.584 49.071 18.584 L 49.071 18.584 C 47.91 18.584 46.967 17.64 46.967 16.479 L 46.967 9.374 C 46.967 8.2109995 47.91 7.2689996 49.071 7.2689996 L 49.071 7.2689996 C 50.235 7.2689996 51.176 8.212 51.176 9.374 L 51.176 16.479 z " display="inline"/>
        </g>
    </g>
</svg>
