<?xml version="1.0" encoding="UTF-8"?>
<svg xmlns="http://www.w3.org/2000/svg" xmlns:xlink="http://www.w3.org/1999/xlink" contentScriptType="text/ecmascript" width="54" baseProfile="tiny" zoomAndPan="magnify" contentStyleType="text/css" viewBox="0 0 54 54" height="54" preserveAspectRatio="xMidYMid meet" version="1.1">
    <rect width="54" fill="none" height="54"/>
    <linearGradient x1="-667.6255" gradientTransform="matrix(1 0 0 -1 694.626 1049.9688)" y1="1054.7383" x2="-667.6255" gradientUnits="userSpaceOnUse" y2="1016.9473" xlink:type="simple" xlink:actuate="onLoad" id="XMLID_4_" xlink:show="other">
        <stop stop-color="#cccccc" offset="0"/>
        <stop stop-color="#000000" offset="1"/>
    </linearGradient>
    <path fill="url(#XMLID_4_)" d="M 38.964 44.855 L 15.035 44.855 C 11.787 44.855 9.143 42.209 9.143 38.96 L 9.143 15.037 C 9.143 11.789 11.787 9.148 15.035 9.148 L 38.964 9.148 C 42.215 9.148 44.858 11.789 44.858 15.037 L 44.858 38.961998 C 44.857 42.211 42.215 44.855 38.964 44.855 L 38.964 44.855 z " fill-opacity="0.7"/>
    <path fill="#e07029" d="M 38.965 10.129 C 41.664 10.129 43.875 12.337 43.875 15.038 L 43.875 38.961998 C 43.875 41.663 41.664 43.871998 38.965 43.871998 L 15.035 43.871998 C 12.334 43.871998 10.125999 41.663 10.125999 38.961998 L 10.125999 15.038 C 10.125999 12.337 12.334 10.129 15.035 10.129 L 38.965 10.129 "/>
    <linearGradient x1="-667.6255" gradientTransform="matrix(1 0 0 -1 694.626 1049.9688)" y1="1006.709" x2="-667.6255" gradientUnits="userSpaceOnUse" y2="1039.228" xlink:type="simple" xlink:actuate="onLoad" id="XMLID_5_" xlink:show="other">
        <stop stop-color="#fb9e3a" offset="0"/>
        <stop stop-color="#fb9e3a" offset="0.06"/>
        <stop stop-color="#e6742b" offset="1"/>
    </linearGradient>
    <path fill="url(#XMLID_5_)" d="M 38.965 11.354 L 15.035 11.354 C 13.005 11.354 11.35 13.008 11.35 15.039 L 11.35 38.962997 C 11.35 40.993996 13.004001 42.646996 15.035 42.646996 L 38.965 42.646996 C 40.995 42.646996 42.651 40.996994 42.651 38.962997 L 42.651 15.038 C 42.648 13.008 40.995 11.354 38.965 11.354 z "/>
    <linearGradient x1="-667.6245" gradientTransform="matrix(1 0 0 -1 694.626 1049.9688)" y1="1038.6162" x2="-667.6245" gradientUnits="userSpaceOnUse" y2="1026.3682" xlink:type="simple" xlink:actuate="onLoad" id="XMLID_6_" xlink:show="other">
        <stop stop-color="#ffffff" offset="0"/>
        <stop stop-color="#ff9f61" offset="1"/>
    </linearGradient>
    <path fill="url(#XMLID_6_)" d="M 42.648 23.601 L 11.353 23.601 L 11.353 15.036 C 11.353 13.01 13.009 11.353001 15.035 11.353001 L 38.967 11.353001 C 40.990997 11.353001 42.651 13.009001 42.651 15.036001 L 42.651 23.601002 L 42.648 23.601002 z "/>
    <path fill="#ffffff" d="M 22.131 34.813 C 22.131 36.475 20.781 37.825 19.118 37.825 C 17.452 37.825 16.105999 36.475002 16.105999 34.813 C 16.105999 33.143 17.452 31.796 19.118 31.796 C 20.782 31.796 22.131 33.143 22.131 34.813 z "/>
    <path fill="#ffffff" d="M 16.112 27.214 C 18.931 27.214 21.588 28.317001 23.581999 30.318 C 25.578 32.327 26.681 34.999 26.681 37.843002 L 31.029 37.843002 C 31.029 29.582003 24.338 22.862003 16.112 22.862003 L 16.112 27.214 L 16.112 27.214 z "/>
    <path fill="#ffffff" d="M 16.115 19.502 C 26.175999 19.502 34.361 27.736 34.361 37.854 L 38.711 37.854 C 38.711 25.334 28.574999 15.153 16.114998 15.153 L 16.114998 19.502 z "/>
    <path fill="#ffffff" d="M 32.396 2.688 C 32.375 2.717 32.353 2.747 32.337 2.782 C 32.293003 2.882 32.293003 2.997 32.343002 3.095 L 33.506 5.8389997 C 25.835001 9.6119995 27.864 16.663 31.224 18.595 C 31.859001 18.958 32.085 18.359 31.734001 17.986 C 29.312 15.437 31.037 11.398001 35.628002 10.0720005 L 36.749 12.529 C 36.805 12.668 36.934002 12.758 37.08 12.767 C 37.226 12.775001 37.361 12.6970005 37.434002 12.566 L 40.663002 5.765 C 40.663002 5.759 40.664 5.759 40.664 5.7549996 C 40.715 5.6589994 40.722 5.548 40.683002 5.4479995 C 40.644 5.3459997 40.56 5.2659993 40.460003 5.2289996 L 32.795002 2.5729997 C 32.648 2.528 32.493 2.576 32.396 2.688 z "/>
    <path fill="#ffffff" d="M 42.982 22.896 C 43.003 22.868 43.024998 22.836 43.040997 22.801 C 43.084995 22.701 43.084995 22.586 43.034996 22.488 L 41.871998 19.745 C 49.543 15.972001 47.514 8.923001 44.154 6.991001 C 43.519 6.628001 43.293 7.227001 43.644 7.6000013 C 46.066 10.149001 44.341 14.187001 39.75 15.512001 L 38.629 13.056001 C 38.573 12.918001 38.444 12.827001 38.298 12.818001 C 38.152 12.81 38.017002 12.887001 37.944 13.019001 L 34.715 19.820002 C 34.715 19.825 34.714 19.825 34.714 19.829002 C 34.663002 19.925003 34.656002 20.036003 34.695 20.136002 C 34.734 20.240002 34.818 20.319002 34.918 20.356 L 42.583 23.011002 C 42.73 23.053 42.887 23.006 42.982 22.896 z "/>
</svg>
