<?xml version="1.0" encoding="UTF-8"?>
<svg xmlns="http://www.w3.org/2000/svg" xmlns:xlink="http://www.w3.org/1999/xlink" contentScriptType="text/ecmascript" width="16" baseProfile="tiny" zoomAndPan="magnify" contentStyleType="text/css" viewBox="0 0 16 16" height="16" preserveAspectRatio="xMidYMid meet" version="1.0">
    <path d="M 8.577 4.009 C 8.943999 4.009 9.295 4.066 9.636999 4.1489997 C 9.021999 3.779 8.310999 3.5539997 7.5429993 3.5539997 C 5.2889996 3.5539997 3.453999 5.3879995 3.453999 7.643 C 3.453999 8.733 3.889999 9.719999 4.587999 10.454 C 4.291 9.855 4.108 9.19 4.108 8.478 C 4.108 6.01 6.109 4.009 8.577 4.009 z " stroke="#ffffff"/>
    <path fill="#ffffff" d="M 11.633 7.643 C 11.633 6.156 10.827001 4.865 9.637 4.149 C 9.2960005 4.066 8.944 4.0090003 8.577 4.0090003 C 6.1089997 4.0090003 4.108 6.01 4.108 8.478001 C 4.108 9.191001 4.291 9.856001 4.587 10.454 C 5.3329997 11.238001 6.378 11.732 7.542 11.732 C 9.798 11.731 11.633 9.897 11.633 7.643 z M 5.044 7.643 C 5.044 6.264 6.163 5.144 7.542 5.144 C 8.923 5.144 10.041 6.264 10.041 7.643 C 10.041 9.022 8.924001 10.141 7.542 10.141 C 6.164 10.141 5.044 9.021 5.044 7.643 z "/>
    <path fill="#ffffff" d="M 12.395 6.185 C 12.535001 6.65 12.633 7.133 12.633 7.643 C 12.633 10.448999 10.35 12.732 7.543 12.732 C 7.408 12.732 7.281 12.703 7.148 12.692 C 7.599001 12.845 8.074 12.9470005 8.577001 12.9470005 C 11.045 12.9470005 13.0460005 10.946001 13.0460005 8.478001 C 13.046 7.636 12.799 6.857 12.395 6.185 z "/>
    <path fill="#008b8b" d="M 12.633 7.643 C 12.633 7.133001 12.535001 6.65 12.395 6.1850004 C 11.763 4.092 9.84 2.554 7.543 2.554 C 4.7370005 2.554 2.454 4.837 2.454 7.643 C 2.454 10.314 4.5290003 12.487 7.148 12.691999 C 7.28 12.702999 7.407 12.731999 7.543 12.731999 C 10.35 12.731 12.633 10.449 12.633 7.643 z M 4.588 10.453 C 3.89 9.72 3.454 8.733 3.454 7.643 C 3.454 5.389 5.288 3.554 7.543 3.554 C 8.311 3.554 9.022 3.78 9.637 4.149 C 10.827 4.865 11.633 6.156 11.633 7.643 C 11.633 9.897 9.799001 11.732 7.543 11.732 C 6.379 11.731 5.333 11.237 4.588 10.453 z "/>
    <circle fill="#008b8b" r="2.498" cx="7.543" cy="7.643"/>
    <circle fill="#ffffff" r="0.5" cx="6.874" cy="6.812"/>
</svg>
