<?xml version="1.0" encoding="UTF-8"?>
<svg xmlns="http://www.w3.org/2000/svg" xmlns:xlink="http://www.w3.org/1999/xlink" contentScriptType="text/ecmascript" width="16" baseProfile="tiny" zoomAndPan="magnify" contentStyleType="text/css" viewBox="0 0 16 16" height="16" preserveAspectRatio="xMidYMid meet" version="1.1">
    <g>
        <g>
            <g>
                <g>
                    <g>
                        <g>
                            <g>
                                <g>
                                    <polygon fill="#686868" points="11.178,13.789 10.139,8.665 12.666,7.42 14.288,11.766         "/>
                                    <polygon fill="#9fa0a0" points="12.675,7.461 9.455,7.083 7.083,8.083 10.188,8.665         "/>
                                    <polygon fill="#929292" points="11.184,13.757 10.159,8.661 7.143,8.014 5.619,12.662         "/>
                                </g>
                            </g>
                        </g>
                    </g>
                    <circle fill="#b6b6b6" r="2.847" cx="10.001" cy="4.822"/>
                </g>
                <path fill="#ffffff" d="M 7.83 8.833 C 7.296 7.954 6.269 7.838 5.55 7.908 C 5.436 7.406 5.325 6.928 5.228 6.505 C 5.283 6.468 5.3370004 6.432 5.3960004 6.3970003 C 6.226 5.87 6.858 5.085 7.07 3.966 C 7.353 2.459 6.9370003 2.019 6.9370003 2.019 C 6.735 1.3840001 5.913 1.359 5.283 2.002 C 4.654 2.645 4.449 2.911 4.299 3.542 C 4.1829996 4.032 4.217 5.061 4.43 5.8120003 C 4.363 5.847 4.2939997 5.8820004 4.2219996 5.9160004 C 1.2389996 7.346 1.6169996 9.354 1.9009995 10.09 C 2.1279995 10.68 3.4749994 12.244 5.5359993 11.839 C 5.623999 11.82 5.707999 11.8029995 5.7909994 11.781 C 5.9399996 12.469 6.0979996 13.044001 6.0979996 13.044001 C 6.3079996 14.137001 5.7969995 14.251 5.286 14.137001 C 4.948 14.063001 4.632 13.930001 4.5239997 13.826001 C 4.8529997 13.689001 5.08 13.402001 5.08 13.074001 C 5.08 12.609001 4.868 12.275002 4.311 12.275002 C 3.7519999 12.275002 3.2999997 12.652001 3.2999997 13.117002 C 3.2999997 13.181002 3.3089998 13.242002 3.3239996 13.301002 C 3.3209996 13.301002 3.3199997 13.301002 3.3199997 13.301002 L 3.3249998 13.303001 C 3.3459997 13.383001 3.383 13.459002 3.429 13.530002 C 3.6769998 14.123002 4.378 14.401002 5.284 14.536001 C 6.4189997 14.706001 6.759 14.024001 6.7019997 13.288001 C 6.686 13.084002 6.62 12.709002 6.3949995 11.681001 C 7.991 11.15 8.518 9.964 7.83 8.833 z M 4.85 4.593 C 4.793 3.119 5.81 2.755 5.81 2.755 C 6.279 2.4250002 6.735 2.459 6.755 2.976 C 6.755 2.976 7.005 4.314 4.997 5.5080004 C 4.891 5.049 4.85 4.593 4.85 4.593 z M 5.243 11.576 C 3.508 11.637 2.858 10.519 2.787 9.824 C 2.721 9.176 2.432 8.053 4.644 6.805 C 4.698 7.019 4.803 7.383 4.932 7.957 C 4.73 7.996 3.466 8.697 3.751 9.766 C 4.035 10.832 4.8059998 10.832 4.8059998 10.832 C 4.8059998 10.832 4.121 10.182 4.37 9.545 C 4.5099998 9.188 4.664 8.998 5.1499996 8.934 C 5.3389997 9.792 5.5469995 10.735 5.713 11.493 C 5.5 11.538 5.525 11.566 5.243 11.576 z M 6.333 11.391 C 6.164 10.623 5.967 9.749 5.7720003 8.893 C 6.385 8.868 7.3010006 9.115999 7.3010006 9.875 C 7.302 10.5 7.125 11.098 6.333 11.391 z "/>
            </g>
            <rect width="16" fill="none" height="16"/>
        </g>
    </g>
</svg>
