<?xml version="1.0" encoding="UTF-8"?>
<svg xmlns="http://www.w3.org/2000/svg" xmlns:xlink="http://www.w3.org/1999/xlink" contentScriptType="text/ecmascript" zoomAndPan="magnify" baseProfile="tiny" contentStyleType="text/css" version="1.1" width="26px" preserveAspectRatio="xMidYMid meet" viewBox="0 0 26 26" height="26px" x="0px" y="0px">
    <g>
        <path d="M 18.677 22.179 L 15.013 18.543 C 13.960001 19.056002 12.804001 19.324 11.636001 19.324 C 7.349001 19.324 3.8630009 15.839002 3.8630009 11.554001 C 3.8630009 7.270001 7.349001 3.7850008 11.636001 3.7850008 C 15.925001 3.7850008 19.412 7.270001 19.412 11.554001 C 19.412 12.830001 19.097 14.078001 18.494 15.203001 L 22.160002 18.836 L 18.677 22.179 L 18.677 22.179 z M 7.542 13.191 C 8.194 14.811 9.783 15.958 11.635 15.958 C 13.489 15.958 15.079 14.811 15.73 13.191 L 7.542 13.191 L 7.542 13.191 z M 7.544 9.912 L 15.729 9.912 C 15.076 8.295 13.487 7.151 11.636 7.151 C 9.785 7.15 8.197 8.294 7.544 9.912 L 7.544 9.912 z "/>
        <path fill="#ffffff" d="M 17.466 15.336 C 18.177 14.244 18.595 12.954 18.595 11.554001 C 18.595 7.7210007 15.474999 4.601001 11.636 4.601001 C 7.8 4.601001 4.679 7.7200007 4.679 11.554001 C 4.679 15.388 7.8 18.508 11.636 18.508 C 12.922999 18.508 14.124 18.151 15.158999 17.537 L 18.686 21.037 L 20.988998 18.826 L 17.466 15.336 z M 11.636 16.775 C 8.754999 16.775 6.408999 14.433 6.408999 11.553999 C 6.408999 8.675999 8.754999 6.333999 11.636 6.333999 C 14.517 6.333999 16.864 8.675999 16.864 11.553999 C 16.863 14.434 14.517 16.775 11.636 16.775 z M 7.767 12.374 L 15.529 12.374 L 15.529 10.728 L 7.767 10.728 L 7.767 12.374 z "/>
        <rect width="26" fill="none" height="26"/>
    </g>
</svg>
