<?xml version="1.0" encoding="UTF-8"?>
<svg xmlns="http://www.w3.org/2000/svg" xmlns:xlink="http://www.w3.org/1999/xlink" contentScriptType="text/ecmascript" width="84" baseProfile="tiny" zoomAndPan="magnify" contentStyleType="text/css" viewBox="0 0 84 72" height="72" preserveAspectRatio="xMidYMid meet" version="1.1">
    <g>
        <path fill="#ffffff" d="M 13.444 35.941 C 13.444 51.573 26.16 64.29 41.792 64.29 C 57.422 64.29 70.141 51.573 70.141 35.941 C 70.141 20.309002 57.422 7.593 41.792 7.593 C 26.16 7.593 13.444 20.309 13.444 35.941 z M 14.188 35.941 C 14.188 20.720001 26.571999 8.336002 41.792 8.336002 C 57.012 8.336002 69.395996 20.721003 69.395996 35.941 C 69.395996 51.161003 57.012 63.545 41.792 63.545 C 26.572 63.545 14.188 51.162 14.188 35.941 z "/>
        <radialGradient gradientTransform="matrix(1.1905 0 0 -1.1905 875.6733 1351.9015)" id="XMLID_8_" gradientUnits="userSpaceOnUse" xlink:show="other" xlink:type="simple" r="43.0481" cx="-695.8682" fx="-696.6372" cy="1120.4072" fy="1122.3165" xlink:actuate="onLoad">
            <stop stop-color="#ffffff" offset="0"/>
            <stop stop-color="#a2c2dd" offset="0.53"/>
            <stop stop-color="#6c83bb" offset="0.87"/>
            <stop stop-color="#003d6d" offset="1"/>
        </radialGradient>
        <circle fill="url(#XMLID_8_)" r="27.7" cx="41.793" cy="35.941"/>
        <radialGradient gradientTransform="matrix(1.1905 0 0 -1.1905 875.6733 1351.9015)" gradientUnits="userSpaceOnUse" xlink:type="simple" r="36.002" xlink:actuate="onLoad" cx="-699.1484" id="XMLID_9_" cy="1108.1836" xlink:show="other">
            <stop stop-color="#a2c2dd" offset="0"/>
            <stop stop-color="#a2c2dd" offset="0.1"/>
            <stop stop-color="#6c83bb" offset="0.71"/>
            <stop stop-color="#003d6d" offset="0.99"/>
            <stop stop-color="#003d6d" offset="1"/>
        </radialGradient>
        <path fill="url(#XMLID_9_)" d="M 27.869 11.954 C 26.608 12.702001 23.243 15.087 23.194 16.021 C 23.149 16.955 24.161 14.923 25.114 15.271 C 25.299 15.271 26.462 13.641 28.618 12.607 C 29.556 11.717 31.241 12.232 31.241 12.232 C 31.241 12.232 36.242 10.363001 35.961998 10.831 C 35.198997 12.1050005 31.190998 12.839001 30.582998 13.120001 C 29.974998 13.401001 26.607998 15.646001 29.413998 14.758001 C 29.929998 14.710001 31.376997 14.665001 32.079998 14.902001 C 32.785 15.134002 33.927998 13.908001 35.306 14.197001 C 35.869 13.914001 36.992 13.309002 37.271 13.309002 C 37.549 13.309002 38.582 13.213002 38.532 12.000002 C 38.532 12.000002 39.287003 10.288002 39.516003 9.614002 C 40.144 9.442002 40.870003 8.447002 40.870003 8.447002 C 38.909004 8.167003 34.183002 9.430002 33.484 9.614002 C 33.341 9.753 29.367 11.58 27.869 11.954 z "/>
        <radialGradient gradientTransform="matrix(1.1905 0 0 -1.1905 875.6733 1351.9015)" gradientUnits="userSpaceOnUse" xlink:type="simple" r="26.3542" xlink:actuate="onLoad" cx="-696.7959" id="XMLID_10_" cy="1113.8877" xlink:show="other">
            <stop stop-color="#a2c2dd" offset="0"/>
            <stop stop-color="#a2c2dd" offset="0.1"/>
            <stop stop-color="#6c83bb" offset="0.71"/>
            <stop stop-color="#003d6d" offset="0.99"/>
            <stop stop-color="#003d6d" offset="1"/>
        </radialGradient>
        <path fill="url(#XMLID_10_)" d="M 43.445 55.069 L 42.507 55.724 C 42.507 55.724 41.644 55.739 41.525 56.097 C 41.104 57.396 41.245003 59.133 42.271 58.901 C 43.302 58.664 43.584 57.123 43.584 57.123 C 43.584 57.123 44.613 54.834 43.445 55.069 z "/>
        <radialGradient gradientTransform="matrix(1.1905 0 0 -1.1905 875.6733 1351.9015)" gradientUnits="userSpaceOnUse" xlink:type="simple" r="26.3552" xlink:actuate="onLoad" cx="-696.7944" id="XMLID_11_" cy="1113.8887" xlink:show="other">
            <stop stop-color="#a2c2dd" offset="0"/>
            <stop stop-color="#a2c2dd" offset="0.1"/>
            <stop stop-color="#6c83bb" offset="0.71"/>
            <stop stop-color="#003d6d" offset="0.99"/>
            <stop stop-color="#003d6d" offset="1"/>
        </radialGradient>
        <path fill="url(#XMLID_11_)" d="M 64.302 40.479 C 64.302 40.479 65.236 42.299 64.583 42.396 C 63.928 42.489 63.463 42.396 64.208 43.376 C 64.954 44.36 65.985 45.2 65.985 45.2 C 65.985 45.2 67.014 45.2 67.48 44.358 C 67.107 44.358 66.361 44.685 66.124 43.891003 C 65.892 43.095 65.425 42.723003 65.425 42.723003 L 65.425 41.273003 L 64.302 40.479 z "/>
        <radialGradient gradientTransform="matrix(1.1905 0 0 -1.1905 875.6733 1351.9015)" gradientUnits="userSpaceOnUse" xlink:type="simple" r="26.3629" xlink:actuate="onLoad" cx="-696.8003" id="XMLID_12_" cy="1113.8906" xlink:show="other">
            <stop stop-color="#a2c2dd" offset="0"/>
            <stop stop-color="#a2c2dd" offset="0.1"/>
            <stop stop-color="#6c83bb" offset="0.71"/>
            <stop stop-color="#003d6d" offset="0.99"/>
            <stop stop-color="#003d6d" offset="1"/>
        </radialGradient>
        <path fill="url(#XMLID_12_)" d="M 68.087 37.952 C 68.087 37.952 67.761 39.357 67.294 40.571 C 66.825 41.787 67.806 42.486 67.806 42.486 C 67.806 42.486 68.79 41.597 68.928 39.215 C 69.069 36.83 68.087 37.952 68.087 37.952 z "/>
        <radialGradient gradientTransform="matrix(1.1905 0 0 -1.1905 875.6733 1351.9015)" gradientUnits="userSpaceOnUse" xlink:type="simple" r="26.3612" xlink:actuate="onLoad" cx="-696.7969" id="XMLID_13_" cy="1113.8936" xlink:show="other">
            <stop stop-color="#a2c2dd" offset="0"/>
            <stop stop-color="#a2c2dd" offset="0.1"/>
            <stop stop-color="#6c83bb" offset="0.71"/>
            <stop stop-color="#003d6d" offset="0.99"/>
            <stop stop-color="#003d6d" offset="1"/>
        </radialGradient>
        <path fill="url(#XMLID_13_)" d="M 67.946 32.763 L 68.552 34.258 L 68.743004 35.38 L 68.977005 33.978 C 68.975 33.978 67.946 32.108 67.946 32.763 z "/>
        <radialGradient gradientTransform="matrix(1.1905 0 0 -1.1905 875.6733 1351.9015)" id="XMLID_14_" gradientUnits="userSpaceOnUse" xlink:show="other" xlink:type="simple" r="36.0838" cx="-698.8477" fx="-698.1051" cy="1121.4063" fy="1121.5035" xlink:actuate="onLoad">
            <stop stop-color="#e6eef4" offset="0"/>
            <stop stop-color="#4a9900" offset="0.44"/>
            <stop stop-color="#0e4e58" offset="0.94"/>
            <stop stop-color="#0e4e58" offset="1"/>
        </radialGradient>
        <path fill="url(#XMLID_14_)" d="M 55.838 12.561 L 57.286003 15.696 L 60.65 16.909 C 60.65 16.909 61.495003 17.937 61.775 18.172 C 62.192 20.042002 63.13 22.053001 63.315002 22.145 C 63.503002 22.238 64.345 22.518 64.627 22.473 C 64.812996 23.503 64.532 23.503 64.532 23.503 L 63.177998 22.848 L 63.733997 25.140999 L 66.354996 29.581999 C 66.02699 30.282999 64.76399 34.446 64.76399 34.446 C 64.76399 34.446 66.40499 35.943 66.16999 37.580997 C 63.94799 38.010998 63.82499 38.654 63.82499 38.654 C 63.82499 38.654 62.00599 37.534 61.86399 37.063 C 60.87999 35.474 59.57299 35.989 59.19799 36.784 C 57.38599 40.645 57.28899 40.257 57.56099 42.723 C 58.54499 44.174 57.97799 44.545 57.65599 44.312 C 57.32799 44.08 56.81099 43.893 56.347992 43.893 C 55.87699 43.893 55.360992 42.443 54.944992 41.459 C 54.52399 40.478 52.50999 38.936 52.13399 38.187 C 51.76199 37.441 50.402992 37.441 50.402992 37.441 C 50.402992 37.441 46.524994 37.672 46.804993 37.953003 C 48.67599 39.263004 47.929993 40.198 47.929993 40.198 L 44.978992 42.816 C 44.978992 42.816 42.50099 43.939003 41.753994 44.125 C 40.398994 44.969 41.894993 45.298 43.389996 44.92 C 44.884995 44.547997 44.745995 45.155 44.511997 45.765 C 43.666996 47.82 42.176 49.128998 41.191998 49.505 C 39.136997 50.957 38.665997 53.106003 39.648 53.994 C 39.648 53.994 39.744 56.100998 39.041 56.146 C 38.34 56.193 37.357002 56.942 37.357002 57.268 C 37.357002 57.596 36.61 58.952003 36.329002 59.182003 C 35.344 60.445004 34.082 60.306004 33.521004 60.026005 C 30.946003 60.530006 28.800003 56.379005 28.658005 56.005005 C 28.519005 55.631004 26.648005 54.697006 27.257004 53.013004 C 27.861004 51.326004 25.007004 47.154003 23.512005 43.521004 C 23.319004 43.356003 21.314005 42.865005 20.241005 42.538002 C 19.166004 42.210003 18.696005 39.641003 18.229004 38.562 C 17.763004 37.487 19.024004 33.327 19.071003 33.046 C 19.117002 32.765003 24.357002 28.978 24.357002 28.978 L 24.166002 27.337 C 24.166002 27.337 25.854002 25.046 26.174002 25.797 C 26.504002 26.543001 28.143002 26.401001 27.999002 25.329 C 27.857002 24.254 28.237003 23.735 28.655003 23.691 C 29.075003 23.643 28.702003 22.757 28.189003 22.1 C 27.675003 21.446001 28.983004 21.257 29.829002 20.463001 C 30.673002 19.668001 30.062002 22.194 30.062002 23.036001 C 30.062002 23.878002 32.915 21.632002 33.053 21.492 C 32.727 19.856 34.038002 19.435001 34.409 19.388 C 34.784 19.34 36.469 18.357 36.889 17.934 C 37.306 17.516 38.479 17.516 38.853 17.561 C 39.226 17.606 40.908 18.964 41.33 18.964 C 41.752003 18.964 45.071003 18.074001 45.168003 17.467001 C 45.258003 16.86 45.585003 16.53 46.197002 16.299002 C 46.802002 16.065002 46.897003 14.099002 46.897003 14.099002 C 46.897003 14.099002 49.703003 13.446002 50.122 13.305002 C 50.543003 13.162003 50.170002 12.324002 50.031002 11.951002 C 50.543003 10.828002 47.878002 9.726002 48.86 9.797002 C 52.701 10.082 55.413 11.905 55.838 12.561 z M 24.785 29.114 L 25.16 29.582 C 25.16 29.582 27.093 29.779001 29.006 30.525002 C 29.297 30.815002 28.946001 32.201 28.946001 32.201 C 28.946001 32.201 31.002 35.005 31.423 34.493 C 31.843 33.977 32.404 33.508 33.06 33.977 C 33.716 34.444 35.306 35.005 36.101 35.005 C 36.431004 35.100002 38.062 35.613003 38.016003 33.137 C 37.374004 32.245003 35.725002 32.389 35.446003 32.157 C 35.165005 31.920002 34.606003 30.237001 34.606003 30.237001 L 34.045002 30.377 C 34.045002 30.377 33.952003 31.547 33.625004 31.547 C 33.298004 31.547 32.595005 29.772001 32.595005 29.772001 L 32.691006 28.837002 L 31.616005 27.529001 C 31.616005 27.529001 30.913006 27.854002 32.270004 29.584002 C 32.270004 29.584002 31.332005 30.564001 30.633005 30.609001 C 30.821005 30.377 31.243006 29.303001 31.243006 29.303001 C 31.243006 29.303001 29.104006 26.657001 28.668005 27.013 C 28.156006 27.431 26.658005 28.225 26.658005 28.225 L 25.676004 29.067001 L 24.785 29.114 z M 36.102 20.416 C 35.097 22.038 33.633 22.499 33.761 23.079 C 33.813 23.317001 35.215 23.642 35.445 22.989 C 35.683 22.333 36.523 22.194 36.523 21.914 C 36.523 21.633999 36.231 20.205 36.102 20.416 z M 38.018 28.413 C 37.786003 28.32 37.317 27.479 36.757 28.085001 C 36.197 28.692001 35.493 30.049002 36.197 30.145 C 36.898 30.236 37.926 29.861 38.157997 30.050001 C 38.393997 30.237001 40.184 30.975 40.452995 30.050001 C 40.91 28.482 38.018 28.413 38.018 28.413 z M 37.083 36.877 C 37.062 37.161 38.253 39.965 38.253 39.965 C 38.253 39.965 38.156 40.901 38.392998 41.229 C 38.628998 41.557 39.467 43.284 40.404 43.566 C 41.753998 42.011 39.144 39.965 39.144 39.965 L 39.047 39.168 C 39.048 39.168 37.177 35.566 37.083 36.877 z M 43.35 36.036 L 43.398 36.829998 L 45.082 38.699997 C 45.082 38.699997 46.628002 38.559998 46.345 37.438995 L 44.989002 36.970997 L 43.35 36.036 z "/>
        <rect width="84" fill="none" height="72"/>
    </g>
</svg>
