<?xml version="1.0" encoding="UTF-8"?>
<svg xmlns="http://www.w3.org/2000/svg" xmlns:xlink="http://www.w3.org/1999/xlink" contentScriptType="text/ecmascript" width="40" baseProfile="tiny" zoomAndPan="magnify" contentStyleType="text/css" viewBox="-0.5 0.146 40 50" height="50" preserveAspectRatio="xMidYMid meet" version="1.1">
    <g>
        <rect x="-0.5" width="40" fill="none" y="0.146" height="50"/>
        <g>
            <linearGradient x1="-2044.8784" gradientTransform="matrix(1 0 0 1 2083.8779 -1316.0791)" y1="1341.2246" x2="-2083.8784" gradientUnits="userSpaceOnUse" y2="1341.2246" xlink:type="simple" xlink:actuate="onLoad" id="XMLID_15_" xlink:show="other">
                <stop stop-color="#e1ebf4" offset="0"/>
                <stop stop-color="#f9fcff" offset="1"/>
            </linearGradient>
            <path fill="url(#XMLID_15_)" d="M 37.698 0.646 L 1.301 0.646 C 0.583 0.646 0.0 1.357 0.0 2.235 L 6.497 48.055 C 6.497 48.932 7.0800004 49.645 7.7980003 49.645 L 31.128 49.645 C 31.848 49.645 32.43 48.932 32.43 48.055 L 39.0 2.235 C 39.0 1.357 38.415 0.646 37.698 0.646 L 37.698 0.646 z "/>
            <linearGradient x1="-2282.3716" gradientTransform="matrix(0.3186 0 0 -0.3186 764.8618 -858.1165)" y1="-2772.3198" x2="-2396.6133" gradientUnits="userSpaceOnUse" y2="-2772.3198" xlink:type="simple" xlink:actuate="onLoad" id="XMLID_16_" xlink:show="other">
                <stop stop-color="#e1ebf4" offset="0"/>
                <stop stop-color="#f9fcff" offset="1"/>
            </linearGradient>
            <polygon fill="url(#XMLID_16_)" points="7.798,48.055 31.128,48.055 37.698,2.235 1.301,2.235   "/>
            <path fill="#0e807a" d="M 37.698 0.646 L 1.301 0.646 C 0.583 0.646 0.0 1.357 0.0 2.235 L 6.497 48.055 C 6.497 48.932 7.0800004 49.645 7.7980003 49.645 L 31.128 49.645 C 31.848 49.645 32.43 48.932 32.43 48.055 L 39.0 2.235 C 39.0 1.357 38.415 0.646 37.698 0.646 L 37.698 0.646 z " fill-opacity="0.5"/>
        </g>
    </g>
</svg>
