<?xml version="1.0" encoding="UTF-8"?>
<svg xmlns="http://www.w3.org/2000/svg" xmlns:xlink="http://www.w3.org/1999/xlink" contentScriptType="text/ecmascript" width="24" baseProfile="tiny" zoomAndPan="magnify" contentStyleType="text/css" viewBox="16.506 12.762 24 26" height="26" preserveAspectRatio="xMidYMid meet" version="1.0">
    <path fill="#496da2" d="M 22.549 28.602 L 26.088 24.953999 L 27.873999 26.617998 L 24.442999 30.478998 C 23.547 30.416 22.633 29.174 22.549 28.602 z "/>
    <linearGradient x1="28.13" y1="19.49" x2="34.64" gradientUnits="userSpaceOnUse" y2="22.26" xlink:type="simple" xlink:actuate="onLoad" id="_3" xlink:show="other">
        <stop stop-color="#a2c2dd" offset="0"/>
        <stop stop-color="#ffffff" offset="1"/>
    </linearGradient>
    <path fill="url(#_3)" d="M 35.862 20.406 C 35.458 23.054 32.799 25.344 29.924 25.513 C 27.048 25.685001 25.042 23.673 25.446 21.025002 C 25.848999 18.375002 28.633999 15.773002 31.508999 15.603002 C 34.388 15.432 36.268 17.754 35.862 20.406 z " fill-opacity="0.51"/>
    <linearGradient x1="29.97" y1="20.02" x2="28.71" gradientUnits="userSpaceOnUse" y2="18.46" xlink:type="simple" xlink:actuate="onLoad" id="_4" xlink:show="other">
        <stop stop-color="#a2c2dd" offset="0"/>
        <stop stop-color="#ffffff" offset="1"/>
    </linearGradient>
    <path fill="url(#_4)" d="M 27.156 23.846 C 24.989 19.428001 29.26 15.471001 32.844 16.283 C 29.781 16.699 26.573 20.617 27.156 23.846 z " fill-opacity="0.8"/>
    <path fill="#496da2" d="M 37.382 21.133 C 37.071 24.369 34.243 27.59 29.777 27.465 C 26.423 27.369 23.991001 24.137001 24.928001 19.846 C 25.639002 16.592001 29.595001 14.325001 31.824001 14.512001 C 34.988 14.777 37.698 17.816 37.382 21.133 z M 31.448 15.262 C 28.572 15.432 25.851 18.317 25.448 20.965 C 25.043 23.613 27.049 25.625 29.926 25.451 C 32.801003 25.281 35.458 22.994 35.864002 20.346 C 36.268 17.693 34.325 15.09 31.448 15.262 z "/>
    <path fill="#87a8cb" d="M 23.887 27.188 C 23.835999 27.979 24.983 28.635 25.928 28.817 L 26.125 29.149 L 21.108 34.813 C 19.623 35.057 17.755 33.797 18.005 32.194 L 23.477999 27.063 L 23.887 27.188 z "/>
    <path fill="#cadcec" d="M 23.479 27.063 L 24.042 27.057 C 24.167 27.779999 25.007 28.573 26.089 28.633 L 26.124 29.153 C 25.238 29.42 23.485 28.482 23.479 27.063 z "/>
    <path fill="#496da2" d="M 24.854 28.199 L 24.597 28.84 C 24.671 28.92 25.535 29.33 26.124 29.153 L 26.116001 28.583 C 25.682 28.631 25.135 28.375 24.854 28.199 z "/>
    <path fill="#235487" d="M 24.598 28.84 L 19.397 34.477 C 19.747 34.721 20.414999 34.831 21.088 34.84 L 26.125 29.149 C 25.715 29.213 25.094 29.098 24.598 28.84 z "/>
    <path fill="#496da2" d="M 18.006 32.193 C 17.328001 34.033 18.402 35.56 21.108 34.839 C 20.129 34.838 18.074 34.377 18.006 32.193 z "/>
    <path fill="#235487" d="M 26.115 28.602 L 27.619 26.915998 C 27.619 26.915998 27.619999 26.198997 27.104 25.887 L 24.854 28.200998 C 24.979 28.287 25.662 28.635 26.115 28.602 z "/>
    <path fill="#235487" d="M 34.531 24.096 C 37.052 21.653 36.739 18.117 34.968998 16.303001 C 32.816998 14.100001 29.673998 14.297001 27.152998 16.742 C 24.631998 19.187 24.327997 22.637001 26.467999 24.846 C 27.409998 25.821001 28.718998 25.969 30.155998 25.992 C 31.868 26.018 33.213 25.375 34.531 24.096 z M 27.183 24.49 C 25.424 22.677 25.723 19.522999 27.849 17.461 C 29.975002 15.399002 33.136 15.1970005 34.897 17.012001 C 36.654 18.825 36.353 21.979 34.228 24.039001 C 33.097 25.137001 31.618 25.752 30.167 25.728 C 28.999 25.711 27.938 25.27 27.183 24.49 z "/>
    <path fill="#87a8cb" d="M 35.248 15.996 C 33.103 13.787001 29.310001 13.978001 26.789001 16.426 C 24.267002 18.875 23.959002 22.658 26.101002 24.867 C 27.041002 25.84 28.353003 26.388 29.789001 26.41 C 31.501001 26.437 33.239002 25.719 34.56 24.437 C 37.08 21.994 37.39 18.207 35.248 15.996 z M 33.861 23.721 C 32.731 24.821001 31.252 25.434 29.803 25.41 C 28.633 25.39 27.573 24.951 26.816 24.171999 C 25.058 22.359 25.357 19.204998 27.484 17.144999 C 29.609 15.080998 32.77 14.878999 34.531 16.696 C 36.287 18.506 35.988 21.66 33.861 23.721 z "/>
    <path fill="#235487" d="M 31.883 29.156 L 30.979 30.061 C 30.979 30.061 32.69 31.773 33.327 32.41 C 32.69 33.048 30.979 34.76 30.979 34.76 L 31.883 35.665997 L 35.138 32.409996 L 31.883 29.156 z "/>
    <path fill="#235487" d="M 28.486 29.156 L 27.581 30.061 C 27.581 30.061 29.293 31.773 29.93 32.41 C 29.293001 33.048 27.581001 34.76 27.581001 34.76 L 28.486002 35.665997 L 31.740002 32.409996 L 28.486 29.156 z "/>
</svg>
