<?xml version="1.0" encoding="UTF-8"?>
<svg xmlns="http://www.w3.org/2000/svg" xmlns:xlink="http://www.w3.org/1999/xlink" contentScriptType="text/ecmascript" width="60" baseProfile="tiny" zoomAndPan="magnify" contentStyleType="text/css" viewBox="-0.893 0.104 60 52" height="52" preserveAspectRatio="xMidYMid meet" version="1.1">
    <path fill="#ffffff" d="M 50.849 6.105 L 7.367 6.105 C 6.122 6.105 5.108 7.119 5.108 8.364 L 5.108 43.845 C 5.108 45.09 6.1219997 46.105 7.367 46.105 L 50.848 46.105 C 52.093 46.105 53.108 45.09 53.108 43.845 L 53.108 8.364 C 53.108 7.119 52.095 6.105 50.849 6.105 z M 52.108 43.846 C 52.108 44.539 51.543003 45.106 50.848003 45.106 L 7.367 45.106 C 6.6730003 45.106 6.1080003 44.542 6.1080003 43.846 L 6.1080003 8.364 C 6.1080003 7.67 6.6720004 7.105001 7.367 7.105001 L 50.848 7.105001 C 51.542 7.105001 52.108 7.6690006 52.108 8.364 L 52.108 43.846 L 52.108 43.846 z " fill-opacity="0.7"/>
    <g>
        <linearGradient x1="-665.518" gradientTransform="matrix(1 0 0 -1 694.626 1048.1768)" y1="997.5259" x2="-665.518" gradientUnits="userSpaceOnUse" y2="1042.6559" xlink:type="simple" xlink:actuate="onLoad" id="XMLID_3_" xlink:show="other">
            <stop stop-color="#c7d9d9" offset="0"/>
            <stop stop-color="#c7d9d9" offset="0.26"/>
            <stop stop-color="#ffffff" offset="0.72"/>
            <stop stop-color="#ffffff" offset="1"/>
        </linearGradient>
        <path fill="url(#XMLID_3_)" d="M 50.849 7.105 L 7.367 7.105 C 6.6730003 7.105 6.1080003 7.669 6.1080003 8.364 L 6.1080003 43.845 C 6.1080003 44.539 6.6720004 45.105 7.367 45.105 L 50.848 45.105 C 51.542 45.105 52.108 44.54 52.108 43.845 L 52.108 8.364 C 52.108 7.67 51.543 7.105 50.849 7.105 z " fill-opacity="0.5"/>
    </g>
    <linearGradient x1="29.1075" y1="7.105" x2="29.1075" gradientUnits="userSpaceOnUse" y2="45.1055" xlink:type="simple" xlink:actuate="onLoad" id="XMLID_4_" xlink:show="other">
        <stop stop-color="#ffffff" offset="0"/>
        <stop stop-color="#40a3a3" offset="1"/>
    </linearGradient>
    <path fill="url(#XMLID_4_)" d="M 50.849 7.105 L 7.367 7.105 C 6.6730003 7.105 6.1080003 7.669 6.1080003 8.364 L 6.1080003 43.845 C 6.1080003 44.539 6.6720004 45.105 7.367 45.105 L 50.848 45.105 C 51.542 45.105 52.108 44.54 52.108 43.845 L 52.108 8.364 C 52.108 7.67 51.543 7.105 50.849 7.105 z " fill-opacity="0.7"/>
    <path fill="#231f20" d="M 19.524 23.564 L 22.191 26.23 C 22.191 26.23 27.232 21.189 29.107 19.314 C 30.982 21.189 36.024 26.23 36.024 26.23 L 38.691 23.564 L 29.107002 13.98 L 19.524 23.564 z " fill-opacity="0.5" stroke-opacity="0.5"/>
    <path fill="#231f20" d="M 19.524 33.564 L 22.191 36.23 C 22.191 36.23 27.232 31.189 29.107 29.314 C 30.982 31.189 36.024 36.23 36.024 36.23 L 38.691 33.564 L 29.107002 23.98 L 19.524 33.564 z " fill-opacity="0.5" stroke-opacity="0.5"/>
</svg>
