<?xml version="1.0" encoding="UTF-8"?>
<svg xmlns="http://www.w3.org/2000/svg" xmlns:xlink="http://www.w3.org/1999/xlink" contentScriptType="text/ecmascript" width="56.693" baseProfile="tiny" zoomAndPan="magnify" contentStyleType="text/css" viewBox="0 0 56.693 56.691" height="56.691" preserveAspectRatio="xMidYMid meet" version="1.1">
    <rect x="19.524" width="17.514" fill="#ffffff" y="17.716" height="21.262"/>
    <path fill="#ffffff" d="M 1.417 17.716 C 0.633 17.716 0.0 18.35 0.0 19.134 L 0.0 37.56 C 0.0 38.343002 0.633 38.978 1.417 38.978 L 18.107 38.978 L 18.107 17.716 L 1.417 17.716 z "/>
    <path fill="#ffffff" d="M 55.277 17.716 L 38.456 17.716 L 38.456 38.977997 L 55.277 38.977997 C 56.06 38.977997 56.693 38.343 56.693 37.559998 L 56.693 19.134 C 56.693 18.35 56.061 17.716 55.277 17.716 z "/>
    <rect x="18.106" width="1.418" fill="#231f20" y="17.716" height="21.262"/>
    <rect x="37.038" width="1.418" fill="#231f20" y="17.716" height="21.262"/>
    <rect x="41.499" width="11.339" fill="#231f20" y="22.374" height="11.339"/>
    <rect x="3.834" width="11.338" fill="#231f20" y="22.374" height="11.339"/>
    <rect x="22.63" width="11.343" fill="#231f20" y="22.374" height="11.339"/>
</svg>
