<?xml version="1.0" encoding="UTF-8"?>
<svg xmlns="http://www.w3.org/2000/svg" xmlns:xlink="http://www.w3.org/1999/xlink" contentScriptType="text/ecmascript" width="40" baseProfile="tiny" zoomAndPan="magnify" contentStyleType="text/css" viewBox="0 0 40 50" height="50" preserveAspectRatio="xMidYMid meet" version="1.1">
    <rect x="-0.5" width="40" fill="none" y="0.146" height="50"/>
    <path fill="#bec7d3" d="M 1.301 49.646 L 37.698997 49.646 C 38.418 49.646 38.999996 48.933 38.999996 48.054 L 38.957996 2.2340012 C 38.957996 1.3560011 38.376995 0.6440011 37.657997 0.6440011 L 7.799 0.6440011 C 7.0829997 0.6440011 6.4989996 1.3560011 6.4989996 2.2340012 L 0.0 48.055 C 0.0 48.934 0.584 49.646 1.301 49.646 L 1.301 49.646 z "/>
    <polygon fill="#bec7d3" points="37.658,2.235 7.799,2.235 1.301,48.055 37.699,48.055 "/>
    <path fill="#cccccc" d="M 1.301 49.646 L 37.698997 49.646 C 38.418 49.646 38.999996 48.933 38.999996 48.054 L 38.957996 2.2340012 C 38.957996 1.3560011 38.376995 0.6440011 37.657997 0.6440011 L 7.799 0.6440011 C 7.0829997 0.6440011 6.4989996 1.3560011 6.4989996 2.2340012 L 0.0 48.055 C 0.0 48.934 0.584 49.646 1.301 49.646 L 1.301 49.646 z "/>
</svg>
