<?xml version="1.0" encoding="UTF-8"?>
<svg xmlns="http://www.w3.org/2000/svg" xmlns:xlink="http://www.w3.org/1999/xlink" contentScriptType="text/ecmascript" width="60" baseProfile="tiny" zoomAndPan="magnify" contentStyleType="text/css" viewBox="0 0 60 60" height="60" preserveAspectRatio="xMidYMid meet" version="1.1">
    <path fill="#ffffff" d="M 36.243 23.228 C 42.847 29.832 36.472 37.486 36.2 37.809002 L 39.075 40.260002 C 42.187 36.606003 46.154 27.79 38.915 20.554003 L 36.243 23.228 z "/>
    <path fill="#ffffff" d="M 46.387 12.619 L 43.716 15.291 C 57.526 29.098999 44.287 45.07 43.725 45.738 L 46.604 48.195 C 46.764 48.003 62.673 28.912 46.387 12.619 "/>
    <path fill="#ffffff" d="M 20.116 12.354 L 14.050999 22.093 L 6.573 22.093 L 6.573 38.529 L 14.219 38.529 L 20.253 48.558 L 30.708 48.558 L 30.708 12.433 L 20.116 12.354 z M 16.356 34.743 L 10.354001 34.743 L 10.354001 25.876 L 16.159 25.876 L 22.205 16.147999 L 26.931 16.182 L 26.931 44.773 L 22.388 44.773 L 16.356 34.743 z "/>
    <rect width="60" fill="none" height="60"/>
</svg>
