<?xml version="1.0" encoding="UTF-8"?>
<svg xmlns="http://www.w3.org/2000/svg" xmlns:xlink="http://www.w3.org/1999/xlink" contentScriptType="text/ecmascript" width="111.111" baseProfile="tiny" zoomAndPan="magnify" contentStyleType="text/css" viewBox="-8 -7.999 111.111 111.111" height="111.111" preserveAspectRatio="xMidYMid meet" version="1.1">
    <rect x="-8" width="111.111" fill="none" y="-7.999" height="111.111"/>
    <g>
        <path fill="#404040" d="M 20.267 20.14 L 20.883 20.757 C 20.92 20.734 20.955 20.711 20.993 20.688 C 27.697 9.997 36.636 1.251 47.556 -5.188 C 58.477 1.25 67.414 9.997 74.12 20.688 C 74.18301 20.728 74.246 20.767 74.307 20.806 L 74.987 20.187 C 74.971 20.177 74.958 20.167 74.943 20.158 C 68.037 9.148 58.834 0.139 47.59 -6.496 C 36.361 0.138 27.168 9.14 20.267 20.14 z "/>
        <path d="M 74.121 20.688 C 67.416 9.997 58.479 1.251 47.557 -5.188 C 36.636 1.25 27.698 9.997 20.993 20.688 C 20.97 20.723999 20.947 20.76 20.923 20.796999 L 30.013 29.907999 C 30.658 30.553999 31.061 30.957998 31.061 30.957998 L 34.71 28.05 L 47.494 17.862 L 60.598 27.888 L 63.825 30.357 L 74.237 20.872002 C 74.199 20.81 74.16 20.75 74.121 20.688 z "/>
    </g>
    <linearGradient x1="-1434.291" gradientTransform="matrix(1.2346 0 0 1.2346 1804.0151 -788.998)" y1="643.6143" x2="-1426.5642" gradientUnits="userSpaceOnUse" y2="650.1395" xlink:type="simple" xlink:actuate="onLoad" id="XMLID_2_" xlink:show="other">
        <stop stop-color="#ffffff" offset="0"/>
        <stop stop-color="#d9d9d9" offset="0.0644"/>
        <stop stop-color="#a7a7a7" offset="0.1609"/>
        <stop stop-color="#7a7a7a" offset="0.2621"/>
        <stop stop-color="#545454" offset="0.3662"/>
        <stop stop-color="#363636" offset="0.474"/>
        <stop stop-color="#1e1e1e" offset="0.5864"/>
        <stop stop-color="#0d0d0d" offset="0.7055"/>
        <stop stop-color="#030303" offset="0.8362"/>
        <stop stop-color="#000000" offset="1"/>
    </linearGradient>
    <path fill="url(#XMLID_2_)" d="M 34.428 26.205 C 33.485 25.511 28.162003 21.506 23.518002 18.59 C 30.436 8.947 36.054 3.338 47.455 -3.741 C 42.66 1.948 33.831 19.4 34.428 26.205 z " fill-opacity="0.5"/>
    <g>
        <path fill="#ffffff" d="M 91.078 44.016 L 88.965004 44.016 L 88.965004 41.904 C 88.965004 40.209 87.592 38.833 85.896 38.833 C 84.198006 38.833 82.823006 40.209 82.823006 41.904 L 82.823006 44.016 L 80.71001 44.016 C 79.01601 44.016 77.63801 45.392998 77.63801 47.087997 C 77.63801 48.784996 79.01501 50.158997 80.71001 50.158997 L 82.823006 50.158997 L 82.823006 52.271996 C 82.823006 53.967995 84.198006 55.343994 85.896 55.343994 C 87.590004 55.343994 88.965004 53.969994 88.965004 52.271996 L 88.965004 50.158997 L 91.078 50.158997 C 92.773 50.158997 94.148 48.784996 94.148 47.087997 C 94.15 45.393 92.774 44.016 91.078 44.016 z " display="none"/>
        <path fill="#ffffff" d="M 14.681 44.213 C 16.378 44.213 17.753 45.589 17.753 47.285 L 17.753 47.285 C 17.753 48.981 16.378 50.357 14.681 50.357 L 4.312 50.357 C 2.6159997 50.357 1.2399998 48.982 1.2399998 47.285 L 1.2399998 47.285 C 1.2399998 45.59 2.6159997 44.213 4.312 44.213 L 14.681 44.213 z " display="none"/>
        <g display="none">
            <path fill="#ffffff" d="M 50.063 79.162 C 48.761 79.162 47.707 80.217 47.707 81.517006 L 47.707 89.468 C 47.707 90.771 48.762 91.823006 50.063 91.823006 C 51.364 91.823006 56.394 86.795006 56.394 85.492004 C 56.396 84.195 51.363 79.162 50.063 79.162 z " display="inline"/>
            <path fill="#ffffff" d="M 41.84 81.522 C 41.84 80.233 42.887 79.18301 44.179 79.18301 L 44.179 79.18301 C 45.471 79.18301 46.518 80.23301 46.518 81.522 L 46.518 89.418 C 46.518 90.707 45.471 91.756996 44.179 91.756996 L 44.179 91.756996 C 42.888 91.756996 41.84 90.70699 41.84 89.418 L 41.84 81.522 z " display="inline"/>
        </g>
        <g>
            <path fill="#808080" d="M 45.086 16.003 C 46.386997 16.003 47.440998 14.949 47.440998 13.648001 L 47.440998 5.698001 C 47.440998 4.397001 46.385998 3.343001 45.086 3.343001 C 43.786 3.343001 38.755997 8.373001 38.755997 9.676001 C 38.754 10.972 43.785 16.003 45.086 16.003 z "/>
            <path fill="#808080" d="M 53.308 13.644 C 53.308 14.934 52.261997 15.983 50.968998 15.983 L 50.968998 15.983 C 49.678997 15.983 48.630997 14.933 48.630997 13.644 L 48.630997 5.749 C 48.630997 4.457 49.678997 3.4090002 50.968998 3.4090002 L 50.968998 3.4090002 C 52.261997 3.4090002 53.308 4.4570003 53.308 5.749 L 53.308 13.644 z "/>
        </g>
    </g>
</svg>
