<?xml version="1.0" encoding="UTF-8"?>
<svg xmlns="http://www.w3.org/2000/svg" xmlns:xlink="http://www.w3.org/1999/xlink" contentScriptType="text/ecmascript" zoomAndPan="magnify" baseProfile="tiny" contentStyleType="text/css" version="1.1" width="42px" preserveAspectRatio="xMidYMid meet" viewBox="0 0 42 36" height="36px" x="0px" y="0px">
    <g>
        <g>
            <rect width="42" fill="none" height="36"/>
            <g>
                <linearGradient x1="-349.1504" gradientTransform="matrix(8.3333 0 0 -8.3333 2931.5779 -3761.0813)" y1="-453.6479" x2="-348.7788" gradientUnits="userSpaceOnUse" y2="-454.6566" xlink:type="simple" xlink:actuate="onLoad" id="SVGID_1_" xlink:show="other">
                    <stop stop-color="#87a8cb" offset="0"/>
                    <stop stop-color="#235487" offset="1"/>
                </linearGradient>
                <path fill="url(#SVGID_1_)" d="M 25.227 5.349 C 19.872 5.776 16.994 8.912 14.287 11.851999 C 11.554 14.820999 8.605 17.889 3.0979996 18.481998 C 3.0979996 18.481998 3.1019995 19.655998 3.1229997 19.683998 C 3.1229997 19.683998 12.032999 31.816998 12.095999 31.808998 C 19.314999 30.927998 22.863998 26.650997 26.137999 22.534998 C 29.270998 18.598997 32.385998 14.9019985 38.472 14.347998 L 38.706 13.004997 C 38.706 13.006 25.262 5.346 25.227 5.349 z "/>
            </g>
            <g>
                <g>
                    <linearGradient x1="-348.7646" gradientTransform="matrix(8.3333 0 0 -8.3333 2931.5779 -3761.0813)" y1="-451.2207" x2="-349.6306" gradientUnits="userSpaceOnUse" y2="-454.5764" xlink:type="simple" xlink:actuate="onLoad" id="SVGID_2_" xlink:show="other">
                        <stop stop-color="#ffffff" offset="0"/>
                        <stop stop-color="#496da2" offset="0.7135"/>
                        <stop stop-color="#235487" offset="0.9888"/>
                        <stop stop-color="#235487" offset="1"/>
                    </linearGradient>
                    <path fill="url(#SVGID_2_)" d="M 3.412 18.657 C 14.405 17.477 14.608 6.587 25.12 5.75 L 38.372 13.024 C 25.036001 14.804 26.138 28.220001 12.596003 30.125 L 3.412 18.657 z "/>
                    <linearGradient x1="-350.4702" gradientTransform="matrix(8.3333 0 0 -8.3333 2931.5779 -3761.0813)" y1="-454.2632" x2="-349.1021" gradientUnits="userSpaceOnUse" y2="-452.4515" xlink:type="simple" xlink:actuate="onLoad" id="SVGID_3_" xlink:show="other">
                        <stop stop-color="#dee9f3" offset="0"/>
                        <stop stop-color="#235487" offset="1"/>
                    </linearGradient>
                    <path fill="url(#SVGID_3_)" d="M 5.266 21.01 C 6.9399996 20.901001 11.069 20.155 14.609 16.130001 L 21.102001 22.087002 C 18.659 25.141003 14.442001 27.609001 10.756001 27.923002 L 5.266 21.01 z "/>
                    <linearGradient x1="-349.0771" gradientTransform="matrix(8.3333 0 0 -8.3333 2931.5779 -3761.0813)" y1="-453.1318" x2="-349.8696" gradientUnits="userSpaceOnUse" y2="-454.3646" xlink:type="simple" xlink:actuate="onLoad" id="SVGID_4_" xlink:show="other">
                        <stop stop-color="#dee9f3" offset="0"/>
                        <stop stop-color="#235487" offset="1"/>
                    </linearGradient>
                    <path fill="url(#SVGID_4_)" d="M 15.422 15.298 C 17.216 13.21 19.485 10.151001 23.54 8.257 L 31.0 12.851 C 28.627 14.077 26.277 15.604 22.022999 21.109001 L 15.422 15.298 z "/>
                    <path fill="#d6e4f3" d="M 24.79 7.744 C 24.79 7.744 27.354 7.153 27.735 7.184 L 35.788002 11.616 C 35.788002 11.616 34.239002 11.595 32.376003 12.3 L 24.79 7.744 z "/>
                    <g>
                        <polygon fill="#ffffff" points="3.947,19.386 5.182,19.238 6.03,20.327 4.902,20.565      "/>
                        <polygon fill="#ffffff" points="6.452,18.922 7.398,20.032 8.686,19.604 7.725,18.518      "/>
                        <polygon fill="#ffffff" points="8.783,18.041 9.766,19.128 10.865,18.509 9.856,17.451      "/>
                        <polygon fill="#ffffff" points="10.74,16.846 11.762,17.878 12.698,17.139 11.643,16.111      "/>
                        <polygon fill="#ffffff" points="12.438,15.431 13.486,16.418 14.313,15.566 13.238,14.597      "/>
                        <polygon fill="#ffffff" points="13.942,13.842 15.039,14.811 15.803,13.909 14.723,12.989      "/>
                        <polygon fill="#ffffff" points="15.43,12.216 16.512,13.12 17.293,12.254 16.188,11.362      "/>
                        <polygon fill="#ffffff" points="16.912,10.623 18.031,11.49 18.886,10.683 17.72,9.828      "/>
                        <polygon fill="#ffffff" points="18.536,9.149 19.706,9.972 20.638,9.246 19.491,8.441      "/>
                        <polygon fill="#ffffff" points="20.428,7.864 21.581,8.636 22.729,8.071 21.54,7.308      "/>
                        <polygon fill="#ffffff" points="22.592,6.896 23.809,7.611 25.2,7.237 23.952,6.513      "/>
                        <polygon fill="#ffffff" points="25.159,6.282 26.43,7.009 27.176,6.878 25.848,6.155      "/>
                    </g>
                    <g>
                        <polygon fill="#ffffff" points="11.154,28.387 12.536,28.146 13.461,29.292 12.041,29.527      "/>
                        <polygon fill="#ffffff" points="14,27.774 14.948,28.899 16.459,28.329 15.469,27.226      "/>
                        <polygon fill="#ffffff" points="16.685,26.649 17.914,25.892 18.958,26.959 17.688,27.73      "/>
                        <polygon fill="#ffffff" points="18.939,25.146 19.977,26.198 21.042,25.266 19.991,24.238      "/>
                        <polygon fill="#ffffff" points="20.87,23.36 21.938,24.372 22.864,23.35 21.785,22.373      "/>
                        <polygon fill="#ffffff" points="22.598,21.427 23.698,22.391 24.569,21.311 23.454,20.38      "/>
                        <polygon fill="#ffffff" points="24.254,19.429 25.362,20.348 26.233,19.263 25.11,18.372      "/>
                        <polygon fill="#ffffff" points="25.938,17.456 27.069,18.325 28.032,17.322 26.887,16.463      "/>
                        <polygon fill="#ffffff" points="27.788,15.624 28.971,16.443 30.051,15.561 28.86,14.756      "/>
                        <polygon fill="#ffffff" points="29.938,14.041 31.141,14.817 32.417,14.087 31.2,13.325      "/>
                        <polygon fill="#ffffff" points="32.461,12.778 33.719,13.521 35.276,13.027 34.018,12.294      "/>
                        <polygon fill="#ffffff" points="35.563,11.976 36.854,12.683 37.581,12.603 36.258,11.877      "/>
                    </g>
                </g>
                <linearGradient x1="-350.1353" gradientTransform="matrix(8.3333 0 0 -8.3333 2931.5779 -3761.0813)" y1="-451.0869" x2="-348.5474" gradientUnits="userSpaceOnUse" y2="-454.4252" xlink:type="simple" xlink:actuate="onLoad" id="SVGID_5_" xlink:show="other">
                    <stop stop-color="#ffffff" offset="0"/>
                    <stop stop-color="#496da2" offset="0.7135"/>
                    <stop stop-color="#235487" offset="0.9888"/>
                    <stop stop-color="#235487" offset="1"/>
                </linearGradient>
                <path fill="url(#SVGID_5_)" d="M 12.66 30.005 C 25.442 28.307 25.934 13.816999 38.362 13.011 L 38.126 14.191999 C 25.673 15.327999 26.196 29.789999 12.324999 31.482 L 12.66 30.005 z "/>
                <linearGradient x1="-349.9624" gradientTransform="matrix(8.3333 0 0 -8.3333 2931.5779 -3761.0813)" y1="-450.9116" x2="-350.8282" gradientUnits="userSpaceOnUse" y2="-454.2668" xlink:type="simple" xlink:actuate="onLoad" id="SVGID_6_" xlink:show="other">
                    <stop stop-color="#ffffff" offset="0"/>
                    <stop stop-color="#496da2" offset="0.7135"/>
                    <stop stop-color="#235487" offset="0.9888"/>
                    <stop stop-color="#235487" offset="1"/>
                </linearGradient>
                <polygon fill="url(#SVGID_6_)" points="12.66,30.005 3.412,18.657 3.439,19.567 12.324,31.481    "/>
                <polygon fill="#7d97c6" points="12.245,29.502 11.945,30.968 11.144,29.867 11.327,28.348    "/>
                <polygon fill="#7d97c6" points="4.002,19.37 4.094,20.405 4.973,21.627 4.945,20.565    "/>
            </g>
        </g>
        <g>
            <g>
                <g>
                    <rect x="29.469" width="10.588" fill="#ffffff" y="23.454" height="10.588"/>
                    <path fill="#496da2" d="M 28.727 22.748 L 28.727 34.748 L 40.726997 34.748 L 40.726997 22.748001 L 28.727 22.748001 z M 40.022 23.454 L 40.022 34.042 L 29.434 34.042 L 29.434 23.454 L 40.022 23.454 z "/>
                </g>
                <g>
                    <path fill="#496da2" d="M 39.467 31.236 L 34.951 31.236 L 34.951 26.722 L 39.467 26.722 L 39.467 31.236 z M 37.483 28.979 C 37.483 29.375 37.805 29.697 38.202003 29.697 C 38.599007 29.697 38.921005 29.375 38.921005 28.979 C 38.921005 28.581 38.599007 28.259 38.202003 28.259 C 37.805 28.259 37.483 28.581 37.483 28.979 z "/>
                    <polygon fill="#496da2" points="30.784,28.098 29.942,28.675 29.954,29.076 30.784,29.642 31.821,29.642 32.305,29.215       32.811,29.642 33.618,29.642 34.03,29.377 34.333,29.642 34.977,29.85 34.993,28.107     "/>
                    <polygon fill="#ffffff" points="31.727,27.256 36.68,32.18 39.608,32.108 33.631,26.107     "/>
                </g>
                <rect x="26.757" y="28.392" transform="matrix(0.7066 0.7076 -0.7076 0.7066 30.5473 -16.1451)" fill="#496da2" width="15.976" height="0.751"/>
            </g>
        </g>
    </g>
</svg>
