<?xml version="1.0" encoding="UTF-8"?>
<svg xmlns="http://www.w3.org/2000/svg" xmlns:xlink="http://www.w3.org/1999/xlink" contentScriptType="text/ecmascript" width="100" baseProfile="tiny" zoomAndPan="magnify" contentStyleType="text/css" viewBox="-3 -3 100 100" height="100" preserveAspectRatio="xMidYMid meet" version="1.1">
    <rect x="-3" width="100" fill="none" y="-3" height="100"/>
    <g>
        <path fill="#404040" d="M 22.439 22.326 L 22.993 22.881 C 23.026001 22.86 23.058 22.84 23.092001 22.819 C 29.127 13.197 37.171 5.326 47.0 -0.468 C 56.829002 5.326 64.873 13.198 70.908005 22.82 C 70.965004 22.855999 71.021 22.890999 71.076004 22.926 L 71.687004 22.369001 C 71.673004 22.36 71.662 22.351002 71.648 22.343002 C 65.434 12.433 57.15 4.325 47.03 -1.646 C 36.925 4.324 28.65 12.426 22.439 22.326 z "/>
        <path d="M 70.908 22.819 C 64.873 13.197 56.829 5.326 47.0 -0.468 C 37.170998 5.326 29.127 13.198 23.093 22.82 C 23.072 22.852 23.051 22.885 23.03 22.918 L 31.211 31.118 C 31.791 31.699 32.154 32.063 32.154 32.063 L 35.438 29.446 L 46.944 20.276 L 58.738 29.3 L 61.642 31.522 L 71.013 22.985 C 70.979 22.929 70.943 22.875 70.908 22.819 z "/>
    </g>
    <linearGradient x1="-688.1909" gradientTransform="matrix(1.1111 0 0 -1.1111 798.8207 1253.9821)" y1="1120.2969" x2="-680.4639" gradientUnits="userSpaceOnUse" y2="1113.7717" xlink:type="simple" xlink:actuate="onLoad" id="XMLID_2_" xlink:show="other">
        <stop stop-color="#ffffff" offset="0"/>
        <stop stop-color="#d9d9d9" offset="0.0644"/>
        <stop stop-color="#a7a7a7" offset="0.1609"/>
        <stop stop-color="#7a7a7a" offset="0.2621"/>
        <stop stop-color="#545454" offset="0.3662"/>
        <stop stop-color="#363636" offset="0.474"/>
        <stop stop-color="#1e1e1e" offset="0.5864"/>
        <stop stop-color="#0d0d0d" offset="0.7055"/>
        <stop stop-color="#030303" offset="0.8362"/>
        <stop stop-color="#000000" offset="1"/>
    </linearGradient>
    <path fill="url(#XMLID_2_)" d="M 35.185 27.784 C 34.336002 27.159 29.546001 23.555 25.366001 20.931 C 31.591 12.251 36.649 7.204 46.91 0.833 C 42.594 5.953 34.648 21.66 35.185 27.784 z " fill-opacity="0.5"/>
    <g>
        <path fill="#ffffff" d="M 86.17 43.813 L 84.269 43.813 L 84.269 41.912 C 84.269 40.385998 83.032 39.148 81.506 39.148 C 79.978 39.148 78.74 40.385998 78.74 41.912 L 78.74 43.813 L 76.838 43.813 C 75.312996 43.813 74.073 45.052 74.073 46.578 C 74.073 48.105 75.312 49.342 76.838 49.342 L 78.74 49.342 L 78.74 51.244 C 78.74 52.771 79.977 54.009 81.506 54.009 C 83.031 54.009 84.269 52.772 84.269 51.244 L 84.269 49.342 L 86.17 49.342 C 87.696 49.342 88.934 48.106 88.934 46.578 C 88.936 45.053 87.696 43.813 86.17 43.813 z " display="none"/>
        <path fill="#ffffff" d="M 17.413 43.992 C 18.94 43.992 20.178 45.23 20.178 46.757 L 20.178 46.757 C 20.178 48.283 18.939999 49.522 17.413 49.522 L 8.081 49.522 C 6.5540004 49.522 5.316 48.284 5.316 46.757 L 5.316 46.757 C 5.316 45.231 6.554 43.992 8.081 43.992 L 17.413 43.992 z " display="none"/>
        <g display="none">
            <path fill="#ffffff" d="M 49.257 75.446 C 48.086 75.446 47.137 76.395 47.137 77.566 L 47.137 84.722 C 47.137 85.894 48.086002 86.842 49.257 86.842 C 50.427998 86.842 54.955 82.316 54.955 81.144005 C 54.955 79.976 50.427 75.446 49.257 75.446 z " display="inline"/>
            <path fill="#ffffff" d="M 41.855 77.57 C 41.855 76.409996 42.797 75.465 43.96 75.465 L 43.96 75.465 C 45.121998 75.465 46.065 76.409996 46.065 77.57 L 46.065 84.677 C 46.065 85.837006 45.121998 86.782005 43.96 86.782005 L 43.96 86.782005 C 42.798 86.782005 41.855 85.837006 41.855 84.677 L 41.855 77.57 z " display="inline"/>
        </g>
        <g>
            <path fill="#ffffff" d="M 44.777 18.603 C 45.947 18.603 46.896 17.654001 46.896 16.483002 L 46.896 9.327 C 46.896 8.156 45.947 7.207 44.777 7.207 C 43.605 7.207 39.079002 11.733999 39.079002 12.906 C 39.078 14.075 43.605 18.603 44.777 18.603 z "/>
            <path fill="#ffffff" d="M 52.177 16.479 C 52.177 17.64 51.234997 18.584 50.072 18.584 L 50.072 18.584 C 48.911 18.584 47.968 17.639 47.968 16.479 L 47.968 9.372 C 47.968 8.21 48.911 7.2669997 50.072 7.2669997 L 50.072 7.2669997 C 51.234997 7.2669997 52.177 8.21 52.177 9.372 L 52.177 16.479 z "/>
        </g>
    </g>
</svg>
