<?xml version="1.0" encoding="UTF-8"?>
<svg xmlns="http://www.w3.org/2000/svg" xmlns:xlink="http://www.w3.org/1999/xlink" contentScriptType="text/ecmascript" zoomAndPan="magnify" baseProfile="tiny" contentStyleType="text/css" version="1.1" width="26px" preserveAspectRatio="xMidYMid meet" viewBox="0 0 26 26" height="26px" x="0px" y="0px">
    <g>
        <path fill="#ffffff" d="M 17.466 15.336 C 18.177 14.244 18.595 12.954 18.595 11.555 C 18.595 7.721 15.474999 4.602 11.636999 4.602 C 7.800999 4.602 4.678999 7.721 4.678999 11.555 C 4.678999 15.389 7.800998 18.508 11.636999 18.508 C 12.923999 18.508 14.124999 18.151 15.159999 17.537 L 18.686998 21.037 L 20.989998 18.825998 L 17.466 15.336 z M 11.636 16.775 C 8.754999 16.775 6.408999 14.433 6.408999 11.553999 C 6.408999 8.674998 8.754999 6.3329988 11.636 6.3329988 C 14.516 6.3329988 16.864 8.674999 16.864 11.553999 C 16.864 14.432999 14.517 16.775 11.636 16.775 z M 12.47 7.67 L 10.826 7.67 L 10.826 10.729 L 7.768 10.729 L 7.768 12.375 L 10.826 12.375 L 10.826 15.433001 L 12.47 15.433001 L 12.47 12.375 L 15.529 12.375 L 15.529 10.729 L 12.47 10.729 L 12.47 7.67 z " fill-opacity="0.3" stroke-opacity="0.3"/>
        <rect width="26" fill="none" height="26"/>
        <path d="M 11.636 6.334 C 8.754999 6.334 6.408999 8.676001 6.408999 11.555 C 6.408999 14.434 8.754999 16.776001 11.636 16.776001 C 14.516 16.776001 16.864 14.434001 16.864 11.555 C 16.864 8.676 14.517 6.334 11.636 6.334 z M 10.009 7.461 L 10.009 9.911 L 7.545 9.911 C 7.996 8.797 8.89 7.907 10.009 7.461 z M 10.009 15.647 C 8.888 15.201 7.992 14.308001 7.543 13.190001 L 10.009 13.190001 L 10.009 15.647 z M 12.47 15.432 L 10.826 15.432 L 10.826 12.374001 L 7.768 12.374001 L 7.768 10.728001 L 10.826 10.728001 L 10.826 7.67 L 12.47 7.67 L 12.47 10.729 L 15.529 10.729 L 15.529 12.375 L 12.47 12.375 L 12.47 15.432 z M 13.287 15.638 L 13.287 13.19 L 15.731 13.19 C 15.284 14.302 14.397 15.189 13.287 15.638 z M 13.287 9.911 L 13.287 7.472 C 14.395 7.92 15.28 8.805 15.729 9.911 L 13.287 9.911 z M 18.493 15.204 C 19.097 14.078 19.412 12.829 19.412 11.554001 C 19.412 7.271001 15.924001 3.7840009 11.635 3.7840009 C 7.349001 3.7840009 3.8630004 7.270001 3.8630004 11.554001 C 3.8630004 15.839001 7.349001 19.325 11.635 19.325 C 12.803 19.325 13.96 19.056002 15.012 18.545 L 18.676 22.181 L 22.159 18.837 L 18.493 15.204 z M 15.159 17.537 C 14.124001 18.150002 12.923 18.508 11.636001 18.508 C 7.8000007 18.508 4.6780005 15.389002 4.6780005 11.555001 C 4.6780005 7.7210007 7.8 4.602 11.636 4.602 C 15.474 4.602 18.594 7.721 18.594 11.555 C 18.594 12.954 18.176 14.244 17.465 15.336 L 20.988 18.826 L 18.685 21.037 L 15.159 17.537 z " fill-opacity="0.3" stroke-opacity="0.3"/>
    </g>
</svg>
