<?xml version="1.0" encoding="UTF-8"?>
<svg xmlns="http://www.w3.org/2000/svg" xmlns:xlink="http://www.w3.org/1999/xlink" contentScriptType="text/ecmascript" width="54" baseProfile="tiny" zoomAndPan="magnify" contentStyleType="text/css" viewBox="0 0 54 54" height="54" preserveAspectRatio="xMidYMid meet" version="1.1">
    <rect x="-1" width="54" fill="none" y="-1" height="54"/>
    <path fill="#ffffff" d="M 28.544 24.67 L 14.51 24.67 L 14.51 26.499 L 26.86 26.499 L 28.544 24.67 z M 11.84 9.59 L 28.268 9.59 L 28.268 15.253 L 33.836998 15.253 L 33.836998 24.536 L 36.267998 24.536 L 36.267998 15.252999 L 28.267998 7.2569995 L 9.517 7.2569995 L 9.517 37.257 L 23.237 37.257 L 23.237 34.878 L 11.84 34.878 L 11.84 9.59 z M 31.368 16.205 L 23.23 16.205 L 23.23 18.032999 L 31.368 18.032999 L 31.368 16.205 z M 23.184 28.902 L 14.51 28.902 L 14.51 30.73 L 23.184 30.73 L 23.184 28.902 z M 31.368 20.439 L 23.23 20.439 L 23.23 22.266998 L 31.368 22.266998 L 31.368 20.439 z M 31.779 27.551 L 31.817 24.83 C 31.823 24.704 31.765 24.58 31.671 24.495 C 31.635 24.466002 31.605999 24.442001 31.560999 24.425001 C 31.407999 24.354002 31.220999 24.379002 31.089998 24.495 L 24.622997 30.672 C 24.529997 30.752 24.473997 30.872002 24.476997 31.002 C 24.476997 31.132 24.527998 31.246 24.624998 31.332 C 24.627998 31.333 24.627998 31.336 24.627998 31.337 L 30.849998 37.57 C 30.980999 37.685 31.161999 37.714 31.316998 37.64 C 31.476997 37.568 31.574997 37.411 31.580997 37.239998 L 31.654997 34.227997 C 37.1 34.130997 40.870995 39.790997 41.097996 44.118996 C 41.128994 44.719997 41.962997 45.091995 42.156998 44.257996 C 43.809 37.016 39.043 28.373 31.779 27.551 z M 22.14 16.17 L 14.379999 16.17 L 14.379999 22.25 L 22.14 22.25 L 22.14 16.17 z "/>
</svg>
