<?xml version="1.0" encoding="UTF-8"?>
<svg xmlns="http://www.w3.org/2000/svg" xmlns:xlink="http://www.w3.org/1999/xlink" contentScriptType="text/ecmascript" width="100" baseProfile="tiny" zoomAndPan="magnify" contentStyleType="text/css" viewBox="-3 -3 100 100" height="100" preserveAspectRatio="xMidYMid meet" version="1.1">
    <rect x="-3" width="100" fill="none" y="-3" height="100"/>
    <g>
        <path d="M 64.393 35.028 L 61.641 31.52 L 58.739 29.298 L 46.945 20.274 L 35.439 29.446 L 32.154 32.062 L 29.712 35.158 L 20.209 47.203003 L 29.363998 58.719 L 31.941998 61.961002 L 34.993996 64.374 L 46.851997 73.756 L 58.899 64.286995 L 61.900997 61.925995 L 64.557 58.620995 L 73.838 47.065994 L 64.393 35.028 z M 63.953 57.913 C 62.142 59.946 60.221 61.871 58.187 63.678997 C 54.764 66.723 51.033 69.453 47.0 71.83 C 42.968 69.453 39.238 66.723 35.813 63.679 C 33.778 61.869 31.855999 59.947002 30.047 57.913002 C 27.002 54.488003 24.273 50.759003 21.896 46.726 C 24.274 42.694 27.001 38.963 30.047 35.538002 C 31.856 33.503002 33.779 31.581001 35.813 29.772003 C 39.237 26.727003 42.967 23.998003 47.0 21.621002 C 51.032 23.997002 54.764 26.726002 58.188 29.772003 C 60.221 31.581003 62.145 33.503002 63.954 35.538002 C 66.999 38.962 69.728 42.692 72.104 46.726 C 69.728 50.759 66.998 54.488 63.953 57.913 z "/>
        <path fill="#404040" d="M 63.953 35.539 C 62.142 33.504 60.221 31.582 58.187 29.773003 C 54.763 26.728003 51.033 23.999002 46.999 21.622002 C 42.967 23.998001 39.237 26.727001 35.812 29.773003 C 33.777 31.582003 31.854 33.504 30.046001 35.539 C 27.001001 38.963 24.273003 42.693 21.895 46.727 C 24.273 50.758003 27.0 54.489002 30.046001 57.914 C 31.855001 59.947002 33.777 61.872 35.812 63.68 C 39.236 66.724 42.966 69.454 46.999 71.831 C 51.031002 69.454 54.763 66.724 58.187 63.68 C 60.22 61.87 62.144 59.948 63.953 57.914 C 66.998 54.489002 69.727 50.760002 72.103 46.727 C 69.728 42.694 66.998 38.963 63.953 35.539 z M 63.523 57.455 C 61.709 59.504 59.777 61.436 57.727997 63.25 C 54.440998 66.16 50.861996 68.769 46.998997 71.045 C 43.135998 68.769 39.556995 66.159996 36.269997 63.25 C 34.221996 61.437 32.288998 59.504 30.476997 57.455 C 27.565998 54.168003 24.958998 50.589 22.680998 46.726 C 24.958998 42.863003 27.565998 39.284 30.476997 35.996002 C 32.289997 33.948 34.224 32.015003 36.270996 30.203003 C 39.557995 27.292004 43.137997 24.684002 46.999996 22.407003 C 50.862995 24.684004 54.440994 27.292004 57.729996 30.203003 C 59.778996 32.016003 61.708996 33.950005 63.523994 35.997 C 66.43299 39.284 69.04299 42.864002 71.31999 46.727 C 69.042 50.589 66.434 54.168 63.523 57.455 z "/>
        <path d="M 63.523 35.997 C 61.709 33.949 59.777 32.016003 57.727997 30.203001 C 54.440998 27.292002 50.861996 24.685001 46.998997 22.408 C 43.135998 24.685001 39.556995 27.293001 36.269997 30.203001 C 34.221996 32.016003 32.288998 33.949 30.475996 35.996002 C 27.565996 39.283 24.957996 42.863003 22.680996 46.726 C 24.958996 50.588 27.564995 54.168003 30.475996 57.455 C 32.288998 59.504 34.221996 61.436 36.268997 63.249 C 39.555996 66.159004 43.135998 68.769 46.997997 71.045 C 50.860996 68.769 54.438995 66.160995 57.726997 63.248997 C 59.775997 61.435997 61.705997 59.503998 63.520996 57.454998 C 66.431 54.169 69.04099 50.588997 71.31699 46.725998 C 69.042 42.864 66.434 39.285 63.523 35.997 z "/>
    </g>
    <linearGradient x1="-694.2949" gradientTransform="matrix(1.1111 0 0 -1.1111 798.3285 1253.4899)" y1="1094.8682" x2="-679.7944" gradientUnits="userSpaceOnUse" y2="1087.8679" xlink:type="simple" xlink:actuate="onLoad" id="XMLID_2_" xlink:show="other">
        <stop stop-color="#ffffff" offset="0"/>
        <stop stop-color="#d9d9d9" offset="0.0644"/>
        <stop stop-color="#a7a7a7" offset="0.1609"/>
        <stop stop-color="#7a7a7a" offset="0.2621"/>
        <stop stop-color="#545454" offset="0.3662"/>
        <stop stop-color="#363636" offset="0.474"/>
        <stop stop-color="#1e1e1e" offset="0.5864"/>
        <stop stop-color="#0d0d0d" offset="0.7055"/>
        <stop stop-color="#030303" offset="0.8362"/>
        <stop stop-color="#000000" offset="1"/>
    </linearGradient>
    <path fill="url(#XMLID_2_)" d="M 46.793 70.209 C 37.791 65.518 29.922998 56.591 23.494 46.756 C 29.627998 36.351 36.617 29.212 47.022 23.078001 C 21.471 53.754 43.864 67.58 46.793 70.209 z " fill-opacity="0.5"/>
    <path fill="#ffffff" d="M 45.465 51.073 C 45.465 52.913002 43.973 54.406002 42.132 54.406002 L 40.613 54.406002 C 38.772 54.406002 37.28 52.913002 37.28 51.073 L 37.28 40.678 C 37.28 38.837 38.772 37.345 40.613 37.345 L 42.131 37.345 C 43.972 37.345 45.464 38.837 45.464 40.678 L 45.464 51.073 L 45.465 51.073 z "/>
    <path fill="#ffffff" d="M 57.428 51.073 C 57.428 52.913002 55.934002 54.406002 54.094 54.406002 L 52.576 54.406002 C 50.735 54.406002 49.242 52.913002 49.242 51.073 L 49.242 40.678 C 49.242 38.837 50.735 37.345 52.576 37.345 L 54.094 37.345 C 55.934002 37.345 57.428 38.837 57.428 40.678 L 57.428 51.073 z "/>
</svg>
