<?xml version="1.0" encoding="UTF-8"?>
<svg xmlns="http://www.w3.org/2000/svg" xmlns:xlink="http://www.w3.org/1999/xlink" contentScriptType="text/ecmascript" width="84" baseProfile="tiny" zoomAndPan="magnify" contentStyleType="text/css" viewBox="-1 0 84 58" height="58" preserveAspectRatio="xMidYMid meet" version="1.1">
    <linearGradient x1="-664.5903" gradientTransform="matrix(1 0 0 -1 694.626 1053.9688)" y1="1045.251" x2="-635.2901" gradientUnits="userSpaceOnUse" y2="998.9906" xlink:type="simple" xlink:actuate="onLoad" id="XMLID_16_" xlink:show="other">
        <stop stop-color="#a2c2dd" offset="0"/>
        <stop stop-color="#a2c2dd" offset="0.1"/>
        <stop stop-color="#6c83bb" offset="0.71"/>
        <stop stop-color="#003d6d" offset="0.99"/>
        <stop stop-color="#003d6d" offset="1"/>
    </linearGradient>
    <path fill="url(#XMLID_16_)" d="M 27.285 10.46 L 28.152 45.642998 C 28.152 45.685997 28.158 45.801 28.164 45.908997 C 24.892 45.911995 20.566 45.911995 20.566 45.911995 L 20.566 51.515995 C 20.566 51.515995 37.83 51.511993 39.631 51.511993 C 39.631 51.808994 39.631 52.14699 39.631 52.14699 L 48.583 52.13499 C 48.583 52.13499 48.583 51.80299 48.583 51.50999 C 50.396 51.50999 70.020996 51.50599 70.020996 51.50599 L 70.020996 45.90599 C 70.020996 45.90599 61.571995 45.90599 57.348995 45.90799 C 60.369995 44.26299 65.495995 41.96999 65.495995 41.96999 L 65.75199 33.06199 C 65.75199 33.06199 65.64399 33.119987 65.61699 33.12499 C 65.65799 30.25899 65.970985 7.7099876 65.970985 7.7099876 L 47.672 5.957 L 27.285 10.46 z "/>
    <linearGradient x1="-649.3906" gradientTransform="matrix(1 0 0 -1 694.626 1053.9688)" y1="1009.6582" x2="-649.3906" gradientUnits="userSpaceOnUse" y2="1003.6882" xlink:type="simple" xlink:actuate="onLoad" id="XMLID_17_" xlink:show="other">
        <stop stop-color="#ffffff" offset="0"/>
        <stop stop-color="#a2c2dd" offset="0.35"/>
        <stop stop-color="#6c83bb" offset="0.7"/>
        <stop stop-color="#003d6d" offset="1"/>
    </linearGradient>
    <polygon fill="url(#XMLID_17_)" points="21.244,50.895 69.23,50.885 69.23,46.656 21.24,46.66 "/>
    <linearGradient x1="-650.311" gradientTransform="matrix(1 0 0 -1 694.626 1053.9688)" y1="1010.3174" x2="-650.311" gradientUnits="userSpaceOnUse" y2="1005.1374" xlink:type="simple" xlink:actuate="onLoad" id="XMLID_18_" xlink:show="other">
        <stop stop-color="#ffffff" offset="0"/>
        <stop stop-color="#a2c2dd" offset="0.35"/>
        <stop stop-color="#6c83bb" offset="0.7"/>
        <stop stop-color="#003d6d" offset="1"/>
    </linearGradient>
    <polygon fill="url(#XMLID_18_)" points="40.84,51.521 47.792,51.516 47.792,45.959 40.838,45.965 "/>
    <linearGradient x1="-638.6968" gradientTransform="matrix(1 0 0 -1 694.626 1053.9688)" y1="1044.8877" x2="-714.2768" gradientUnits="userSpaceOnUse" y2="954.9477" xlink:type="simple" xlink:actuate="onLoad" id="XMLID_19_" xlink:show="other">
        <stop stop-color="#ffffff" offset="0"/>
        <stop stop-color="#a2c2dd" offset="0.35"/>
        <stop stop-color="#6c83bb" offset="0.7"/>
        <stop stop-color="#003d6d" offset="1"/>
    </linearGradient>
    <polygon fill="url(#XMLID_19_)" points="29.361,45.432 28.514,11.01 47.639,14.401 47.314,50.027 "/>
    <linearGradient x1="-670.6064" gradientTransform="matrix(1 0 0 -1 694.626 1053.9688)" y1="1057.5879" x2="-613.7567" gradientUnits="userSpaceOnUse" y2="1024.438" xlink:type="simple" xlink:actuate="onLoad" id="XMLID_20_" xlink:show="other">
        <stop stop-color="#ffffff" offset="0"/>
        <stop stop-color="#ffffff" offset="0.15"/>
        <stop stop-color="#a2c2dd" offset="1"/>
    </linearGradient>
    <polygon fill="url(#XMLID_20_)" points="65.174,8.368 47.941,6.72 28.514,11.01 47.639,14.401 "/>
    <linearGradient x1="-638.3857" gradientTransform="matrix(1 0 0 -1 694.626 1053.9688)" y1="1051.9678" x2="-638.3857" gradientUnits="userSpaceOnUse" y2="1002.2978" xlink:type="simple" xlink:actuate="onLoad" id="XMLID_21_" xlink:show="other">
        <stop stop-color="#ffffff" offset="0"/>
        <stop stop-color="#a2c2dd" offset="0.35"/>
        <stop stop-color="#6c83bb" offset="0.7"/>
        <stop stop-color="#003d6d" offset="1"/>
    </linearGradient>
    <polygon fill="url(#XMLID_21_)" points="47.307,50.014 64.719,40.938 65.174,8.368 47.506,14.381 "/>
    <linearGradient x1="-674.0278" gradientTransform="matrix(1 0 0 -1 694.626 1053.9688)" y1="995.042" x2="-642.4279" gradientUnits="userSpaceOnUse" y2="1020.262" xlink:type="simple" xlink:actuate="onLoad" id="XMLID_22_" xlink:show="other">
        <stop stop-color="#ffffff" offset="0"/>
        <stop stop-color="#a2c2dd" offset="0.35"/>
        <stop stop-color="#6c83bb" offset="0.7"/>
        <stop stop-color="#003d6d" offset="1"/>
    </linearGradient>
    <polygon fill="url(#XMLID_22_)" points="47.439,42.988 47.262,50.623 29.381,45.878 29.105,39.16 "/>
    <linearGradient x1="-585.3037" gradientTransform="matrix(1 0 0 -1 694.626 1053.9688)" y1="1046.709" x2="-648.4663" gradientUnits="userSpaceOnUse" y2="1005.4473" xlink:type="simple" xlink:actuate="onLoad" id="XMLID_23_" xlink:show="other">
        <stop stop-color="#ffffff" offset="0"/>
        <stop stop-color="#a2c2dd" offset="0.35"/>
        <stop stop-color="#6c83bb" offset="0.7"/>
        <stop stop-color="#003d6d" offset="1"/>
    </linearGradient>
    <polygon fill="url(#XMLID_23_)" points="64.917,34.439 64.725,41.115 47.252,50.613 47.4,42.988 "/>
    <linearGradient x1="-653.4233" gradientTransform="matrix(1 0 0 -1 694.626 1053.9688)" y1="1046.1689" x2="-653.2633" gradientUnits="userSpaceOnUse" y2="1017.3378" xlink:type="simple" xlink:actuate="onLoad" id="XMLID_24_" xlink:show="other">
        <stop stop-color="#e6eef4" offset="0"/>
        <stop stop-color="#337ce5" offset="0.44"/>
        <stop stop-color="#003d6d" offset="0.94"/>
        <stop stop-color="#003d6d" offset="1"/>
    </linearGradient>
    <polyline fill="url(#XMLID_24_)" points="41.939,15.882 40.462,15.608 40.688,39.24 42.162,39.514 41.939,15.882 "/>
    <linearGradient x1="-656.6802" gradientTransform="matrix(1 0 0 -1 694.626 1053.9688)" y1="1046.1504" x2="-656.5202" gradientUnits="userSpaceOnUse" y2="1017.3204" xlink:type="simple" xlink:actuate="onLoad" id="XMLID_25_" xlink:show="other">
        <stop stop-color="#e6eef4" offset="0"/>
        <stop stop-color="#337ce5" offset="0.44"/>
        <stop stop-color="#003d6d" offset="0.94"/>
        <stop stop-color="#003d6d" offset="1"/>
    </linearGradient>
    <polyline fill="url(#XMLID_25_)" points="38.673,15.274 37.205,15.002 37.432,38.635 38.898,38.906 38.673,15.274 "/>
    <linearGradient x1="-659.9365" gradientTransform="matrix(1 0 0 -1 694.626 1053.9688)" y1="1046.1328" x2="-659.7765" gradientUnits="userSpaceOnUse" y2="1017.3016" xlink:type="simple" xlink:actuate="onLoad" id="XMLID_26_" xlink:show="other">
        <stop stop-color="#e6eef4" offset="0"/>
        <stop stop-color="#337ce5" offset="0.44"/>
        <stop stop-color="#003d6d" offset="0.94"/>
        <stop stop-color="#003d6d" offset="1"/>
    </linearGradient>
    <polyline fill="url(#XMLID_26_)" points="35.417,14.67 33.941,14.396 34.168,38.029 35.643,38.303 35.417,14.67 "/>
    <linearGradient x1="-663.1885" gradientTransform="matrix(1 0 0 -1 694.626 1053.9688)" y1="1046.1143" x2="-663.0285" gradientUnits="userSpaceOnUse" y2="1017.2842" xlink:type="simple" xlink:actuate="onLoad" id="XMLID_27_" xlink:show="other">
        <stop stop-color="#e6eef4" offset="0"/>
        <stop stop-color="#337ce5" offset="0.44"/>
        <stop stop-color="#003d6d" offset="0.94"/>
        <stop stop-color="#003d6d" offset="1"/>
    </linearGradient>
    <polyline fill="url(#XMLID_27_)" points="32.158,14.063 30.686,13.793 30.912,37.424 32.387,37.697 32.158,14.063 "/>
    <linearGradient x1="-649.6128" gradientTransform="matrix(1 0 0 -1 694.626 1053.9688)" y1="1033.418" x2="-649.8228" gradientUnits="userSpaceOnUse" y2="1036.6379" xlink:type="simple" xlink:actuate="onLoad" id="XMLID_28_" xlink:show="other">
        <stop stop-color="#e6eef4" offset="0"/>
        <stop stop-color="#4a9900" offset="0.44"/>
        <stop stop-color="#0e4e58" offset="0.94"/>
        <stop stop-color="#0e4e58" offset="1"/>
    </linearGradient>
    <circle fill="url(#XMLID_28_)" r="1.514" cx="44.859" cy="18.183"/>
    <radialGradient gradientTransform="matrix(1 0 0 -1 694.626 1053.9688)" gradientUnits="userSpaceOnUse" xlink:type="simple" r="1.5104" xlink:actuate="onLoad" cx="-649.9858" id="XMLID_29_" cy="1036.3174" xlink:show="other">
        <stop stop-color="#dce8e4" offset="0"/>
        <stop stop-color="#43910a" offset="1"/>
    </radialGradient>
    <circle fill="url(#XMLID_29_)" r="1.024" cx="44.898" cy="18.183"/>
    <path fill="#ffffff" d="M 12.417 34.126 C 9.521 34.126 5.5559998 34.814 4.5499997 40.755 L 4.4 41.65 C 4.4 41.65 11.07 41.65 11.863 41.65 C 12.103 42.085003 12.4609995 42.718002 12.682 43.129 C 12.456 43.539 12.103001 44.186 11.863 44.608 C 11.07 44.608 4.4 44.608 4.4 44.608 L 4.5490003 45.504 C 5.5550003 51.442 9.523001 52.131 12.416 52.131 C 14.698 52.131 16.731 50.216 18.368 48.678 C 19.252 47.844 20.086 47.069 20.526001 47.069 L 40.958 47.069 L 41.185 46.815 C 41.627003 46.336 42.646 45.005997 42.668003 43.167 L 42.668003 43.103 C 42.647003 41.252 41.627003 39.933 41.185 39.457 L 40.958 39.207 L 20.527 39.207 C 20.088001 39.207 19.254 38.425 18.371 37.595 C 16.732 36.042 14.699 34.126 12.417 34.126 z "/>
    <linearGradient x1="-683.6055" gradientTransform="matrix(1 0 0 -1 694.626 1053.9688)" y1="1024.6787" x2="-661.5753" gradientUnits="userSpaceOnUse" y2="998.1685" xlink:type="simple" xlink:actuate="onLoad" id="XMLID_30_" xlink:show="other">
        <stop stop-color="#e6eef4" offset="0"/>
        <stop stop-color="#9646ac" offset="0.44"/>
        <stop stop-color="#3d013f" offset="0.94"/>
        <stop stop-color="#3d013f" offset="1"/>
    </linearGradient>
    <path fill="url(#XMLID_30_)" d="M 41.9 43.135 C 41.9 43.125 41.902 43.116997 41.902 43.114 L 41.898 43.114 C 41.877 41.509 40.959 40.343998 40.619 39.968998 C 40.187 39.968998 20.527 39.968998 20.527 39.968998 C 19.779001 39.968998 18.965 39.197998 17.839 38.142998 C 16.307001 36.703 14.395 34.900997 12.4140005 34.900997 C 9.201 34.900997 6.1580005 35.838997 5.3090005 40.885 C 6.5160007 40.885 12.315001 40.885 12.315001 40.885 L 13.563001 43.135 L 12.317 45.385 C 12.317 45.385 6.517 45.385 5.3100004 45.385 C 6.1630006 50.427998 9.206 51.366997 12.4140005 51.366997 C 14.393001 51.366997 16.308 49.565998 17.84 48.121 C 18.968 47.058 19.778 46.297997 20.528 46.297997 C 20.528 46.297997 40.188 46.297997 40.622 46.297997 C 40.960003 45.929996 41.885002 44.767998 41.9 43.151997 L 41.905003 43.151997 C 41.902 43.148 41.9 43.143 41.9 43.135 z "/>
</svg>
