<?xml version="1.0" encoding="UTF-8"?>
<svg xmlns="http://www.w3.org/2000/svg" xmlns:xlink="http://www.w3.org/1999/xlink" contentScriptType="text/ecmascript" width="30" baseProfile="tiny" zoomAndPan="magnify" contentStyleType="text/css" viewBox="0 0 30 40" height="40" preserveAspectRatio="xMidYMid meet" version="1.1">
    <g>
        <circle fill="#ffffff" r="12.971" cx="15.452" cy="21.279"/>
        <radialGradient gradientTransform="matrix(1 0 0 -1 694.626 1035.9688)" gradientUnits="userSpaceOnUse" xlink:type="simple" r="23.1525" xlink:actuate="onLoad" cx="-676.7041" id="XMLID_3_" cy="1022.7568" xlink:show="other">
            <stop stop-color="#ffffff" offset="0"/>
            <stop stop-color="#a2c2dd" offset="0.53"/>
            <stop stop-color="#6c83bb" offset="0.87"/>
            <stop stop-color="#003d6d" offset="1"/>
        </radialGradient>
        <circle fill="url(#XMLID_3_)" r="12.511" cx="15.452" cy="21.279"/>
        <radialGradient gradientTransform="matrix(1 0 0 -1 694.626 1035.9688)" gradientUnits="userSpaceOnUse" xlink:type="simple" r="15.75" xlink:actuate="onLoad" cx="-676.5381" id="XMLID_4_" cy="1021.4766" xlink:show="other">
            <stop stop-color="#e6eef4" offset="0"/>
            <stop stop-color="#c6dcc1" offset="0.08"/>
            <stop stop-color="#91c06f" offset="0.21"/>
            <stop stop-color="#6bab33" offset="0.32"/>
            <stop stop-color="#539e0e" offset="0.4"/>
            <stop stop-color="#4a9900" offset="0.44"/>
            <stop stop-color="#398419" offset="0.55"/>
            <stop stop-color="#22663b" offset="0.71"/>
            <stop stop-color="#135550" offset="0.85"/>
            <stop stop-color="#0e4e58" offset="0.94"/>
            <stop stop-color="#0e4e58" offset="1"/>
        </radialGradient>
        <path fill="url(#XMLID_4_)" d="M 21.738 25.551 L 20.935001 26.353 C 20.935001 26.353 20.451002 26.353 20.429 26.546001 C 20.417002 26.629002 20.388 26.987001 20.308 27.170002 C 20.148 27.282001 19.954 27.652002 19.954 27.652002 C 19.954 27.652002 19.856 28.367002 20.388 28.244003 C 20.922 28.125 22.561 25.939 21.738 25.551 z M 2.94 21.278 C 2.94 21.279 2.94 21.279 2.94 21.278 C 2.94 21.282999 2.941 21.285 2.941 21.289 C 2.941 21.675999 2.964 22.057 2.998 22.434 C 3.0089998 22.559 3.026 22.682 3.041 22.806 C 3.073 23.065 3.112 23.321 3.158 23.573 C 3.184 23.708 3.209 23.842 3.237 23.976 C 3.295 24.237 3.363 24.494999 3.437 24.751 C 3.467 24.855 3.492 24.963 3.524 25.064 C 3.5279999 25.074 3.5319998 25.084 3.5349998 25.095999 C 3.544 24.995998 3.5479999 24.893 3.5449998 24.787998 C 3.521 24.043999 3.3999999 24.137999 3.3999999 24.137999 L 4.2419996 23.008 L 4.2419996 22.286 L 3.258 21.3 C 3.259 21.3 2.941 21.25 2.94 21.278 z M 27.717 18.809 C 27.703 18.746 27.685999 18.686 27.674 18.624 C 27.608 18.314001 27.529 18.01 27.44 17.710001 C 27.415 17.628 27.391 17.545 27.366001 17.464 C 27.259 17.123001 27.136002 16.788 26.999 16.461 C 26.976 16.402 26.948 16.347 26.923 16.29 C 26.798 16.002 26.661001 15.720001 26.515 15.443001 C 26.481998 15.377001 26.446999 15.31 26.411 15.245001 C 26.238998 14.933001 26.053999 14.629001 25.858 14.333001 C 25.824999 14.2820015 25.786 14.233001 25.753 14.182001 C 25.571001 13.921001 25.382 13.667001 25.183 13.421001 C 25.144001 13.372002 25.105001 13.321001 25.064001 13.271002 C 24.835001 12.997002 24.595001 12.732002 24.343 12.478002 C 24.300001 12.434002 24.253 12.392001 24.208 12.349002 C 23.979 12.123002 23.741001 11.906002 23.493 11.699002 C 23.452 11.664002 23.411 11.627003 23.37 11.593002 C 23.091002 11.365003 22.802 11.1500025 22.505001 10.946002 C 22.452002 10.910002 22.400002 10.877002 22.347 10.842002 C 22.07 10.659002 21.788 10.487002 21.499 10.327002 C 21.458 10.305001 21.421001 10.2820015 21.382 10.261002 C 21.06 10.088001 20.73 9.929002 20.392 9.784001 C 20.333 9.760001 20.271 9.735002 20.212 9.710001 C 20.081 9.657001 19.944 9.614001 19.812 9.564001 C 19.654 9.664001 18.919 10.081001 18.919 10.081001 C 18.919 10.081001 15.728001 9.645001 15.51 9.863001 C 15.291 10.081001 14.441 10.303 14.247 10.328001 C 14.054999 10.352001 13.653999 10.456001 14.134 11.050001 C 14.063 11.123001 12.691 12.079001 12.691 11.643002 C 12.691 11.208001 12.996 10.431002 12.567 10.8480015 C 12.257 11.147001 12.0720005 11.553001 12.033 11.628001 C 11.932 11.821001 11.87 11.914001 11.943 12.470001 C 12.014999 13.026001 11.054 13.023001 10.99 12.879002 C 10.819 12.493002 9.867 13.745002 9.867 13.745002 L 10.269 14.259002 C 10.269 14.259002 7.469 16.415 7.445 16.560001 C 7.421 16.705002 6.723 18.578001 6.964 19.134 C 7.2050004 19.691 7.8180003 21.095001 8.397 21.142 C 9.154 21.204 10.994 20.794 10.994 20.794 C 11.044001 20.916 11.39 21.532001 11.39 21.532001 C 11.39 21.532001 12.291 21.503002 12.342 21.601002 C 12.359 21.634003 13.429 24.780003 13.074 25.197002 C 12.233001 26.461002 13.556001 28.308002 13.925 28.935001 C 14.294001 30.009 14.531 29.527 15.016 29.704 C 15.613 29.756 16.117 29.975 16.625 29.324001 C 16.771 29.202002 17.021 29.298002 17.021 29.131 C 17.021 29.035 17.455 28.759 17.566 28.498001 C 17.683 28.443 17.984 28.241001 18.189 28.142 C 18.375 28.132 18.011 27.633 18.38 27.109001 C 18.776 26.952002 19.847 26.230001 19.847 26.230001 C 19.896 25.173002 19.326 23.865002 20.39 23.115002 C 21.076 22.417002 21.973999 22.019001 22.41 20.957 C 22.531 20.643002 22.801 19.999 22.025 20.192001 C 21.296 20.375002 20.486 20.417002 20.871 20.095001 C 20.826 19.702002 20.342001 19.518002 19.908 19.132002 C 19.683 18.603003 19.332 17.656002 19.332 17.656002 L 18.562 16.486002 L 18.658 16.245003 L 19.572 17.593002 L 20.486 18.699001 C 20.824 19.806002 21.113 19.903002 21.113 19.903002 C 21.619001 19.724 22.820002 19.229002 22.820002 19.229002 L 24.0 18.096 C 24.0 18.096 23.879 17.735 23.4 17.279001 L 23.036999 17.062002 C 22.959 17.285002 22.539 17.367002 22.539 17.367002 L 21.521 16.149002 L 21.9 16.072002 L 22.191 16.627003 L 22.892 16.869003 C 22.892 16.869003 23.085001 16.728003 23.447 17.099003 C 23.74 17.076002 24.885 17.156002 25.154001 17.495003 C 25.205002 17.561003 26.572 20.976002 26.842001 20.980003 C 26.959002 20.980003 27.047 21.027004 27.006 20.821003 C 26.959 20.723003 27.006 18.580004 27.078001 18.120003 C 27.262001 17.731003 27.293001 18.119003 27.724 18.858004 C 27.723 18.845 27.721 18.826 27.717 18.809 z M 15.691 10.538 C 15.787 10.253 16.341 10.156 16.341 10.156 C 16.341 10.156 16.181 10.449 16.218 10.601 C 16.255001 10.754 15.964001 10.851 15.931001 11.21 C 15.902 11.568 15.238001 11.359 15.183001 11.233 C 15.131 11.107 15.594 10.822 15.691 10.538 z M 18.063 15.381 C 17.654999 15.381 16.421999 15.502999 16.084 15.259999 C 15.7439995 15.018 15.481999 15.283999 15.238 15.526999 C 15.077 15.684999 14.496 15.365 14.328 15.124 C 14.159 14.882 13.59 14.898999 13.59 14.898999 L 13.718 14.209999 L 12.082001 14.129999 L 11.151001 14.400999 L 10.275001 14.4279995 L 10.766001 14.193999 L 11.376 14.048999 C 11.376 14.048999 12.264 13.319999 12.532001 13.102999 C 12.757001 12.918999 13.654 13.022999 13.654 13.022999 L 14.641001 13.733999 C 14.641001 13.733999 14.422001 14.290999 14.326001 14.410999 C 14.687001 14.386999 15.115001 13.728999 15.115001 13.728999 C 14.345001 13.022999 14.376 12.782999 14.376 12.782999 L 15.39 13.494999 L 15.400001 13.5009985 C 15.400001 13.5009985 15.812 14.4679985 15.982 14.4679985 C 16.15 14.4679985 16.367 13.800999 16.367 13.800999 L 16.654001 13.728999 C 16.783 14.033999 17.023 14.723999 17.312 14.561999 C 17.478 14.471 17.751 14.553999 18.064001 14.674999 C 18.380001 14.794999 18.595001 14.61 18.853 14.834999 C 18.816 15.831 18.232 15.429 18.063 15.381 z M 18.709 13.716 C 18.285 13.554999 16.855 14.08 17.175999 13.221 C 17.345999 12.759 17.782999 12.662 17.933998 12.971 C 17.972998 13.097 18.449999 13.292999 18.445997 13.026999 C 18.441998 12.759999 18.924997 12.617999 18.994997 12.816999 C 18.736 13.001 20.0 13.963 18.709 13.716 z M 21.402 14.529 C 21.168001 14.34 21.506 14.178 21.162 13.883 C 20.664001 13.459001 20.279001 13.276 20.953001 12.932 C 21.787 12.828 21.088001 13.1970005 21.228 13.419001 C 21.300001 13.537001 21.722 13.933001 22.048 14.419001 C 22.322 14.822 21.635 14.717 21.402 14.529 z M 10.861 10.088 C 11.225 10.208 11.524 9.965 11.862 9.748 C 11.983001 9.724 13.314 9.192 13.457001 9.192 C 13.602001 9.192 14.085001 9.173 14.205001 8.981 C 14.205001 8.981 16.29 9.343 16.603 9.222 C 16.775002 9.156 17.492 9.098001 18.109001 9.059 C 18.074001 9.051 18.043001 9.04 18.007002 9.033 C 17.974 9.026 17.941002 9.021 17.907001 9.013 C 17.520002 8.936 17.130001 8.872999 16.731 8.834 C 16.729 8.834 16.725 8.834 16.721 8.832999 C 16.305 8.792 15.881 8.77 15.45 8.77 C 15.051 8.77 14.656 8.793 14.266 8.830001 C 14.198 8.836 14.129 8.843 14.059999 8.851001 C 13.683 8.893001 13.309999 8.9470005 12.943 9.021001 C 12.937 9.022001 12.929 9.023001 12.922999 9.025001 C 12.544 9.103001 12.169999 9.201 11.804999 9.313001 C 11.742 9.332001 11.681 9.353001 11.617999 9.373001 C 11.292999 9.477001 10.973 9.594001 10.659999 9.724001 C 10.622999 9.739001 10.584999 9.752001 10.547998 9.768001 C 10.201999 9.915001 9.864999 10.080001 9.536999 10.255001 C 9.486999 10.281001 9.438999 10.310001 9.390999 10.337001 C 9.249999 10.415001 9.117999 10.503001 8.980999 10.586 C 9.657 10.813 10.503 9.968 10.861 10.088 z "/>
        <path fill="#dee9f3" d="M 3.015 22.608 C 3.0900002 22.55 4.125 21.529 4.735 21.022999 C 4.5550003 22.249998 4.468 23.510998 4.4890003 24.793999 C 3.9390004 24.142998 3.1390004 23.002998 3.0380003 22.824999 C 3.0770004 23.196 3.1690004 23.728998 3.2320004 23.991999 C 3.3460004 24.171 4.05 25.067999 4.517 25.585 C 4.551 26.285 4.6130004 26.987 4.7060003 27.695 C 4.847 28.005 5.5740004 29.077 5.6390004 29.039999 C 6.1890006 28.742998 6.7280006 28.432 7.248 28.102 C 8.55 29.119 10.004 30.036999 11.577 30.823 C 10.481999 31.144 9.389 31.388 8.309999 31.553 C 8.462999 31.66 8.695 31.824 8.912 31.953 C 10.013 31.759998 11.124 31.487 12.233999 31.14 C 12.997999 31.497 13.784999 31.826 14.594999 32.119 C 16.032 32.638 17.519999 33.033 18.962 33.299 C 19.244999 33.218 19.706 33.075 19.952 32.97 C 18.233 32.715 16.487 32.274002 14.763 31.654001 C 14.136999 31.428001 13.525999 31.177002 12.927 30.911001 C 13.87 30.588001 14.809 30.214 15.736 29.778002 C 20.035 27.758001 23.591 24.774002 25.795 21.436 C 26.518 21.87 27.219 22.326 27.885 22.804 C 27.916 22.639 27.94 22.363 27.944 22.239 C 27.337 21.813 26.708 21.405 26.059 21.017 C 26.649 20.066 27.135 19.093 27.491 18.105 C 27.507 18.060999 27.524 18.017 27.538 17.972 L 27.28 17.143 C 27.208 17.407 27.122 17.671 27.028 17.935999 C 26.68 18.894999 26.208 19.841 25.635 20.764 C 23.959 19.795 22.156 18.951 20.256 18.264 C 18.924 17.782999 17.588001 17.399 16.264 17.098 C 16.42 16.519 16.522 15.948999 16.586 15.384999 C 20.357 14.638999 23.938 14.846999 26.775002 15.931 L 26.462002 15.306 C 23.657001 14.355 20.230001 14.19 16.632002 14.877999 C 16.730001 13.322 16.470001 11.842999 15.839002 10.501999 C 15.548001 9.882998 15.185001 9.3099985 14.761002 8.785999 C 14.625002 8.785999 14.295002 8.813 14.153002 8.829999 C 14.650002 9.395999 15.067001 10.022999 15.390001 10.712999 C 16.003002 12.014999 16.247002 13.459 16.132002 14.98 C 14.621002 15.299 13.085002 15.771999 11.556002 16.396 C 9.784001 16.271 8.064001 16.309 6.4310017 16.5 C 7.5460014 13.664 9.287002 11.203 11.585001 9.379 C 11.187001 9.518 10.457001 9.792 10.219001 9.912 C 8.307001 11.726 6.842001 14.004999 5.8720007 16.576 C 5.125001 16.681 4.397001 16.82 3.6930008 16.991001 C 3.626001 17.174002 3.5320008 17.451 3.5190008 17.531002 C 4.218001 17.352001 4.942001 17.206001 5.686001 17.093002 C 5.330001 18.123003 5.0510006 19.195002 4.8530006 20.300003 C 4.1830006 20.833004 3.5520005 21.383003 2.9600005 21.960003 C 2.96 21.959 2.984 22.431 3.015 22.608 z M 16.072 15.496 C 16.008001 15.989 15.918 16.487 15.780001 16.992 C 14.729001 16.772001 13.689001 16.608 12.663 16.497 C 13.804 16.077 14.945 15.745 16.072 15.496 z M 6.229 17.019 C 7.609 16.842 9.052 16.776999 10.542 16.832998 C 10.434999 16.881998 10.33 16.926998 10.224 16.975998 C 8.495 17.788998 6.887 18.759998 5.436 19.845997 C 5.636 18.872 5.902 17.927 6.229 17.019 z M 5.35 28.633 C 5.217 27.834 5.099 26.904 5.045 26.137 C 5.6 26.703999 6.195 27.255999 6.835 27.775 C 6.396 28.049 5.831 28.371 5.35 28.633 z M 5.002 25.382 C 4.937 23.736 5.039 22.122 5.303 20.571 C 7.5550003 18.744 11.236 17.061998 11.6380005 16.894999 C 12.944 16.994999 14.280001 17.182 15.629001 17.463999 C 15.579 17.623 15.537001 17.779 15.4800005 17.938 C 14.190001 21.515 11.22 24.927 7.2720003 27.494 C 6.445 26.828 5.687 26.12 5.002 25.382 z M 15.527 29.331 C 14.454 29.831999 13.368 30.258999 12.278 30.611 C 10.604 29.815 9.058 28.873 7.684 27.815 C 11.649 25.2 14.636 21.739 15.945 18.106 C 16.008999 17.927 16.058 17.752 16.115 17.574001 C 17.431 17.871002 18.76 18.253002 20.088 18.732002 C 21.956999 19.405003 23.724998 20.235003 25.369 21.183002 C 23.217 24.438 19.736 27.354 15.527 29.331 z "/>
        <circle fill="#dee9f3" r="0.854" cx="11.556" cy="16.66"/>
        <circle fill="#dee9f3" r="0.854" cx="16.262" cy="15.091"/>
        <rect width="30" fill="none" height="40"/>
    </g>
</svg>
