<?xml version="1.0" encoding="UTF-8"?>
<svg xmlns="http://www.w3.org/2000/svg" xmlns:xlink="http://www.w3.org/1999/xlink" contentScriptType="text/ecmascript" width="32" baseProfile="tiny" zoomAndPan="magnify" contentStyleType="text/css" viewBox="0.845 0.625 32 32" height="32" preserveAspectRatio="xMidYMid meet" version="1.1">
    <rect x="0.845" width="32" fill="none" y="0.625" height="32"/>
    <g>
        <path fill="#099f00" d="M 2.342 14.451 L 10.934 27.058 C 10.934 27.058 15.731 11.882001 31.354 6.193001 C 31.354 6.193001 15.621 9.988001 10.488001 19.024002 C 10.487 19.024 5.803 14.897 2.342 14.451 z "/>
        <path d="M 31.261 5.819 C 30.622 5.9729996 15.794 9.673 10.426001 18.467 C 9.315001 17.532999 5.4510007 14.461999 2.3900003 14.067999 C 2.2390003 14.046999 2.0910003 14.118999 2.0130002 14.248999 C 1.9320003 14.377998 1.9370003 14.540998 2.0220003 14.665998 L 10.612 27.274998 C 10.695001 27.395998 10.841001 27.458998 10.987 27.438997 C 11.133 27.417997 11.254001 27.315998 11.299001 27.173998 C 11.346001 27.022999 16.230001 12.107998 31.482002 6.553997 C 31.672003 6.485997 31.776003 6.276997 31.717003 6.080997 C 31.661 5.886 31.461 5.771 31.261 5.819 z M 10.551 19.405 C 10.665999 19.386002 10.764999 19.317001 10.822 19.215 C 13.855999 13.875 20.738998 10.39 25.726 8.455 C 16.041 14.231 11.856 23.568 10.8289995 26.219 C 10.117 25.171999 4.1569996 16.429 3.2249994 15.059999 C 6.3969994 15.981999 10.192999 19.278 10.233999 19.313 C 10.319 19.392 10.437 19.426 10.551 19.405 z "/>
    </g>
</svg>
