<?xml version="1.0" encoding="UTF-8"?>
<svg xmlns="http://www.w3.org/2000/svg" xmlns:xlink="http://www.w3.org/1999/xlink" contentScriptType="text/ecmascript" width="44" baseProfile="tiny" zoomAndPan="magnify" contentStyleType="text/css" viewBox="0 0 44 43.945" height="43.945" preserveAspectRatio="xMidYMid meet" version="1.1">
    <path fill="#ffffff" d="M 21.898 8.098 C 18.039001 8.098 14.898001 11.2369995 14.898001 15.098 C 14.898001 18.956 18.039001 22.097 21.898 22.097 C 25.757 22.097 28.898 18.956 28.898 15.098 C 28.898 11.236 25.758 8.098 21.898 8.098 z "/>
    <path fill="#ff0000" d="M 16.885 15.098 C 16.885 17.864 19.133 20.111 21.899 20.111 C 24.665 20.111 26.915 17.864 26.915 15.098 C 26.915 12.330999 24.665 10.083 21.899002 10.083 C 19.133003 10.083 16.885 12.332 16.885 15.098 z "/>
    <path fill="#ffffff" d="M 14.299 21.948 C 10.44 21.948 7.299 25.087 7.299 28.948 C 7.299 32.807 10.44 35.949 14.299 35.949 C 18.157999 35.949 21.299 32.807003 21.299 28.948002 C 21.299 25.087 18.158 21.948 14.299 21.948 z "/>
    <path fill="#00ff00" d="M 9.285 28.948 C 9.285 31.714 11.533 33.963 14.299 33.963 C 17.065 33.963 19.313 31.714 19.313 28.948002 C 19.313 26.182003 17.065 23.934002 14.299 23.934002 C 11.533 23.934 9.285 26.183 9.285 28.948 z "/>
    <path fill="#ffffff" d="M 29.699 21.948 C 25.84 21.948 22.699 25.087 22.699 28.948 C 22.699 32.807 25.84 35.949 29.699 35.949 C 33.558 35.949 36.698997 32.807003 36.698997 28.948002 C 36.699 25.087 33.559 21.948 29.699 21.948 z "/>
    <path fill="#0000ff" d="M 24.684 28.948 C 24.684 31.714 26.934 33.963 29.701 33.963 C 32.467 33.963 34.715 31.714 34.715 28.948002 C 34.715 26.182003 32.467 23.934002 29.701 23.934002 C 26.934 23.934 24.684 26.183 24.684 28.948 z "/>
</svg>
