<?xml version="1.0" encoding="UTF-8"?>
<svg xmlns="http://www.w3.org/2000/svg" xmlns:xlink="http://www.w3.org/1999/xlink" contentScriptType="text/ecmascript" width="84" baseProfile="tiny" zoomAndPan="magnify" contentStyleType="text/css" viewBox="0 0 84 72" height="72" preserveAspectRatio="xMidYMid meet" version="1.1">
    <g>
        <g>
            <path fill="#ffffff" d="M 32.96 6.074 C 32.79 6.5099998 31.178999 11.659 31.005 12.163 C 30.453999 12.078 16.423 9.944 16.423 9.944 C 15.025001 9.935 12.811001 10.639 12.811001 10.639 L 14.052001 44.131 C 14.052001 44.131 34.365 49.731 35.318 49.994 L 35.318 49.995 C 35.012 50.538 32.603 54.989998 32.086002 59.836 L 32.534004 62.171997 L 32.596004 62.240997 C 32.744003 62.409996 36.309006 66.370995 44.087006 67.713 L 44.226006 67.734 L 44.439007 67.632 C 49.547005 64.189 53.199005 59.063004 54.166008 55.779003 L 54.35201 52.844 C 54.348007 52.668003 54.278008 49.224003 53.895008 46.998 C 54.134007 46.772 60.347008 40.878002 60.731007 40.514 C 62.004005 41.536 64.69501 43.072998 67.35701 43.665 L 67.47701 43.690002 L 67.58601 43.633003 C 69.459015 42.706005 72.61601 38.942 72.988014 37.637005 C 73.154015 37.053005 73.35301 36.415005 73.34201 35.075005 C 73.322014 32.815006 71.71901 28.708004 70.28501 27.612005 C 68.85301 26.516005 64.77001 26.028006 64.33901 25.915005 C 62.24301 26.572004 58.602013 28.856005 58.602013 28.856005 L 61.905014 19.102005 L 64.28201 19.165005 C 65.558014 16.829004 67.62001 12.390005 67.62001 9.679005 C 67.62001 9.001005 67.24601 7.4230046 66.19201 7.1970043 L 36.269 5.021 C 36.269 5.021 33.938 4.946 32.96 6.074 z "/>
            <linearGradient x1="-688.4736" gradientTransform="matrix(1.1905 0 0 -1.1905 875.6733 1351.9015)" y1="1137.6084" x2="-701.5338" gradientUnits="userSpaceOnUse" y2="1112.7992" xlink:type="simple" xlink:actuate="onLoad" id="XMLID_20_" xlink:show="other">
                <stop stop-color="#ffffff" offset="0"/>
                <stop stop-color="#ffffff" offset="0.05"/>
                <stop stop-color="#a2c2dd" offset="1"/>
            </linearGradient>
            <path fill="url(#XMLID_20_)" d="M 62.738 8.47 L 33.622 6.012 L 27.797 25.578999 L 52.934 34.990997 C 58.323 34.116 62.738 8.47 62.738 8.47 z "/>
            <linearGradient x1="-673.2905" gradientTransform="matrix(1.1905 0 0 -1.1905 875.6733 1351.9015)" y1="1137.6592" x2="-689.1721" gradientUnits="userSpaceOnUse" y2="1112.5176" xlink:type="simple" xlink:actuate="onLoad" id="XMLID_21_" xlink:show="other">
                <stop stop-color="#ffffff" offset="0"/>
                <stop stop-color="#496da2" offset="0.71"/>
                <stop stop-color="#235487" offset="0.99"/>
                <stop stop-color="#235487" offset="1"/>
            </linearGradient>
            <path fill="url(#XMLID_21_)" d="M 62.75 8.538 L 57.345 25.44 C 55.252003 31.934 54.747 34.961 52.780003 34.987 C 54.678 35.318 57.106003 32.743 58.377003 28.185 L 61.476 18.547 L 64.009 18.597 C 69.351 7.828 66.235 6.167 62.75 8.538 z "/>
            <linearGradient x1="-695.2617" gradientTransform="matrix(1.1905 0 0 -1.1905 875.6733 1351.9015)" y1="1126.498" x2="-692.4739" gradientUnits="userSpaceOnUse" y2="1134.0814" xlink:type="simple" xlink:actuate="onLoad" id="XMLID_22_" xlink:show="other">
                <stop stop-color="#ffffff" offset="0"/>
                <stop stop-color="#ffffff" offset="0.05"/>
                <stop stop-color="#a2c2dd" offset="1"/>
            </linearGradient>
            <path fill="url(#XMLID_22_)" d="M 62.738 8.527 C 63.521 8.019 64.148 7.7120004 65.295 7.5600004 L 36.302 5.51 C 35.060997 5.6140003 34.456997 5.662 33.621998 6.072 L 62.738 8.527 z "/>
            <path fill="#ffffff" d="M 36.152 7.161 C 35.555 7.0959997 34.924 7.535 34.744 8.141 C 34.563 8.745 34.896 9.294 35.489998 9.358 C 36.080997 9.422999 36.711 8.9869995 36.897 8.377 C 37.083 7.771 36.75 7.226 36.152 7.161 z "/>
            <path fill="#ffffff" d="M 34.94 11.152 C 34.352997 11.086 33.725 11.523001 33.544 12.128 C 33.364998 12.734 33.690998 13.285 34.273 13.353001 C 34.86 13.416 35.482 12.978001 35.666 12.370001 C 35.854 11.763 35.529 11.215 34.94 11.152 z "/>
            <path fill="#ffffff" d="M 58.292 11.18 C 57.799 12.693001 60.023 12.877001 60.519 11.364 C 61.03 9.837 58.78 9.649 58.292 11.18 z "/>
            <path fill="#ffffff" d="M 56.937 15.341 C 56.449 16.847 58.642002 17.032 59.136 15.528 C 59.635 14.01 57.43 13.825 56.937 15.341 z "/>
            <path fill="#ffffff" d="M 55.585 19.507 C 55.1 21.026001 57.252 21.212 57.749 19.693 C 58.25 18.182 56.074 17.992 55.585 19.507 z "/>
            <path fill="#ffffff" d="M 54.229 23.669 C 53.74 25.18 55.868 25.37 56.36 23.859001 C 56.87 22.344 54.716 22.151 54.229 23.669 z "/>
            <path fill="#ffffff" d="M 52.873 27.833 C 52.38 29.362 54.472 29.557 54.976 28.025 C 55.483 26.492 53.374 26.296 52.873 27.833 z "/>
            <path fill="#ffffff" d="M 52.083 31.217 L 52.173 33.240997 C 52.744 33.298996 53.374 32.829 53.585 32.196 C 53.952 31.095 52.894 30.616 52.083 31.217 z "/>
            <linearGradient x1="-686.4219" gradientTransform="matrix(1.1905 0 0 -1.1905 875.6733 1351.9015)" y1="1090.9199" x2="-695.6735" gradientUnits="userSpaceOnUse" y2="1120.4253" xlink:type="simple" xlink:actuate="onLoad" id="XMLID_23_" xlink:show="other">
                <stop stop-color="#ffffff" offset="0"/>
                <stop stop-color="#496da2" offset="0.71"/>
                <stop stop-color="#235487" offset="0.99"/>
                <stop stop-color="#235487" offset="1"/>
            </linearGradient>
            <path fill="url(#XMLID_23_)" d="M 49.625 15.824 C 56.304 15.669001 50.226 31.076 52.936 34.991 L 47.301003 33.549 C 47.301 33.548 44.898 14.964 49.625 15.824 z "/>
            <linearGradient x1="-690.4233" gradientTransform="matrix(1.1905 0 0 -1.1905 875.6733 1351.9015)" y1="1089.666" x2="-699.6749" gradientUnits="userSpaceOnUse" y2="1119.1713" xlink:type="simple" xlink:actuate="onLoad" id="XMLID_24_" xlink:show="other">
                <stop stop-color="#a2c2dd" offset="0"/>
                <stop stop-color="#a2c2dd" offset="0.1"/>
                <stop stop-color="#6c83bb" offset="0.71"/>
                <stop stop-color="#003d6d" offset="0.99"/>
                <stop stop-color="#003d6d" offset="1"/>
            </linearGradient>
            <polygon fill="url(#XMLID_24_)" points="45.896,52.575 46.028,16.661 48.784,15.953 48.661,50.027   "/>
            <linearGradient x1="-699.4985" gradientTransform="matrix(1.1905 0 0 -1.1905 875.6733 1351.9015)" y1="1130.0244" x2="-715.3799" gradientUnits="userSpaceOnUse" y2="1099.8547" xlink:type="simple" xlink:actuate="onLoad" id="XMLID_25_" xlink:show="other">
                <stop stop-color="#ffffff" offset="0"/>
                <stop stop-color="#ffffff" offset="0.05"/>
                <stop stop-color="#a2c2dd" offset="1"/>
            </linearGradient>
            <polygon fill="url(#XMLID_25_)" points="45.889,52.577 14.619,43.84 13.514,10.976 46.501,17.44   "/>
            <linearGradient x1="-709.7622" gradientTransform="matrix(1.1905 0 0 -1.1905 875.6733 1351.9015)" y1="1121.4033" x2="-707.3482" gradientUnits="userSpaceOnUse" y2="1127.9651" xlink:type="simple" xlink:actuate="onLoad" id="XMLID_26_" xlink:show="other">
                <stop stop-color="#ffffff" offset="0"/>
                <stop stop-color="#ffffff" offset="0.05"/>
                <stop stop-color="#a2c2dd" offset="1"/>
            </linearGradient>
            <path fill="url(#XMLID_26_)" d="M 46.501 17.44 C 46.954 16.481 49.193 15.639001 50.507 15.838 L 16.743 10.438 C 15.493 10.4279995 14.196 10.625 13.4869995 11.004 L 46.501 17.44 z "/>
            <path fill="#ffffff" d="M 15.473 14.157 C 15.54 15.723 17.902 16.220999 17.845999 14.653 C 17.787 13.084 15.404 12.586 15.473 14.157 z "/>
            <path fill="#ffffff" d="M 15.652 18.453 C 15.721001 20.012999 18.051 20.508999 17.992 18.948 C 17.933 17.389 15.58 16.894 15.652 18.453 z "/>
            <path fill="#ffffff" d="M 15.829 22.751 C 15.899 24.317999 18.193 24.814 18.138 23.246 C 18.083 21.663 15.764 21.168 15.829 22.751 z "/>
            <path fill="#ffffff" d="M 16.004 27.047 C 16.072 28.609001 18.339 29.107 18.282999 27.543001 C 18.227 25.981 15.937 25.486 16.004 27.047 z "/>
            <path fill="#ffffff" d="M 16.181 31.344 C 16.244 32.913 18.480999 33.407 18.425999 31.841 C 18.371 30.271 16.109 29.778 16.181 31.344 z "/>
            <path fill="#ffffff" d="M 16.352 35.638 C 16.415998 37.201 18.616999 37.697 18.567 36.134 C 18.508 34.559 16.288 34.063 16.352 35.638 z "/>
            <path fill="#ffffff" d="M 41.586 20.075 C 41.619 21.697 44.039997 22.141 44.017998 20.517 C 44.005 18.879 41.559 18.435 41.586 20.075 z "/>
            <path fill="#ffffff" d="M 41.666 24.545 C 41.695 26.17 44.085 26.613 44.066 24.987 C 44.042 23.368 41.632 22.924 41.666 24.545 z "/>
            <path fill="#ffffff" d="M 41.744 29.021 C 41.774 30.639 44.133 31.079 44.109 29.46 C 44.089 27.825 41.715 27.385 41.744 29.021 z "/>
            <path fill="#ffffff" d="M 41.82 33.492 C 41.846 35.126 44.174 35.571 44.154 33.936 C 44.137 32.31 41.786 31.868 41.82 33.492 z "/>
            <path fill="#ffffff" d="M 41.893 37.969 C 41.923 39.596 44.215 40.039 44.195 38.407 C 44.177 36.775 41.863 36.333 41.893 37.969 z "/>
            <path fill="#ffffff" d="M 17.406 39.213 C 16.78 39.076 16.296 39.502003 16.328001 40.158 C 16.356 40.815002 16.887001 41.457 17.509 41.59 C 18.133001 41.723 18.613 41.301 18.588001 40.645 C 18.56 39.984 18.032 39.342 17.406 39.213 z "/>
            <path fill="#ffffff" d="M 17.585 43.407 C 16.97 43.269 16.491 43.693 16.519 44.349003 C 16.519 44.357002 16.522 44.359 16.522 44.366 L 18.744 44.961002 C 18.744 44.921 18.753 44.88 18.751 44.839 C 18.723 44.182 18.204 43.54 17.585 43.407 z "/>
            <linearGradient x1="-708.647" gradientTransform="matrix(1.1905 0 0 -1.1905 875.6733 1351.9015)" y1="1125.8291" x2="-712.8453" gradientUnits="userSpaceOnUse" y2="1105.4597" xlink:type="simple" xlink:actuate="onLoad" id="XMLID_27_" xlink:show="other">
                <stop stop-color="#ffffff" offset="0"/>
                <stop stop-color="#496da2" offset="0.71"/>
                <stop stop-color="#235487" offset="0.99"/>
                <stop stop-color="#235487" offset="1"/>
            </linearGradient>
            <polygon fill="url(#XMLID_27_)" points="31.761,29.464 31.898,35.362 25.216,33.597 25.145,27.762 21.513,26.94 28.73,18.771     35.533,30.506   "/>
            <linearGradient x1="-705.4585" gradientTransform="matrix(1.1905 0 0 -1.1905 875.6733 1351.9015)" y1="1125.1768" x2="-709.6576" gradientUnits="userSpaceOnUse" y2="1104.8036" xlink:type="simple" xlink:actuate="onLoad" id="XMLID_28_" xlink:show="other">
                <stop stop-color="#ffffff" offset="0"/>
                <stop stop-color="#496da2" offset="0.71"/>
                <stop stop-color="#235487" offset="0.99"/>
                <stop stop-color="#235487" offset="1"/>
            </linearGradient>
            <polygon fill="url(#XMLID_28_)" points="33.173,37.878 26.923,36.146 27.028,37.302 34.313,39.361 34.09,32.199 33,31.939   "/>
            <linearGradient x1="-703.0122" gradientTransform="matrix(1.1905 0 0 -1.1905 875.6733 1351.9015)" y1="1124.665" x2="-707.21" gradientUnits="userSpaceOnUse" y2="1104.2986" xlink:type="simple" xlink:actuate="onLoad" id="XMLID_29_" xlink:show="other">
                <stop stop-color="#ffffff" offset="0"/>
                <stop stop-color="#496da2" offset="0.71"/>
                <stop stop-color="#235487" offset="0.99"/>
                <stop stop-color="#235487" offset="1"/>
            </linearGradient>
            <polygon fill="url(#XMLID_29_)" points="35.562,41.087 29.311,39.232 29.374,40.347 36.702,42.57 36.476,35.409 35.386,35.15       "/>
            <linearGradient x1="-709.0117" gradientTransform="matrix(1.1905 0 0 -1.1905 875.6733 1351.9015)" y1="1124.0596" x2="-712.032" gradientUnits="userSpaceOnUse" y2="1109.406" xlink:type="simple" xlink:actuate="onLoad" id="XMLID_30_" xlink:show="other">
                <stop stop-color="#ffffff" offset="0"/>
                <stop stop-color="#496da2" offset="0.71"/>
                <stop stop-color="#235487" offset="0.99"/>
                <stop stop-color="#235487" offset="1"/>
            </linearGradient>
            <polygon fill="url(#XMLID_30_)" points="31.761,29.464 31.898,35.362 25.216,33.597 25.145,27.762 21.513,26.94 28.73,18.771     35.533,30.506   "/>
            <linearGradient x1="-700.7295" gradientTransform="matrix(1.1905 0 0 -1.1905 875.6733 1351.9015)" y1="1116.0947" x2="-708.8281" gradientUnits="userSpaceOnUse" y2="1105.2495" xlink:type="simple" xlink:actuate="onLoad" id="XMLID_31_" xlink:show="other">
                <stop stop-color="#ffffff" offset="0"/>
                <stop stop-color="#496da2" offset="0.71"/>
                <stop stop-color="#235487" offset="0.99"/>
                <stop stop-color="#235487" offset="1"/>
            </linearGradient>
            <polygon fill="url(#XMLID_31_)" points="33.173,37.878 26.923,36.146 27.028,37.302 34.313,39.361 34.09,32.199 33,31.939   "/>
            <linearGradient x1="-698.1748" gradientTransform="matrix(1.1905 0 0 -1.1905 875.6733 1351.9015)" y1="1114.1855" x2="-706.2724" gradientUnits="userSpaceOnUse" y2="1103.3418" xlink:type="simple" xlink:actuate="onLoad" id="XMLID_32_" xlink:show="other">
                <stop stop-color="#ffffff" offset="0"/>
                <stop stop-color="#496da2" offset="0.71"/>
                <stop stop-color="#235487" offset="0.99"/>
                <stop stop-color="#235487" offset="1"/>
            </linearGradient>
            <polygon fill="url(#XMLID_32_)" points="35.562,41.087 29.311,39.232 29.374,40.347 36.702,42.57 36.476,35.409 35.386,35.15       "/>
            <linearGradient x1="-667.4951" gradientTransform="matrix(1.1905 0 0 -1.1905 875.6733 1351.9015)" y1="1111.3779" x2="-688.903" gradientUnits="userSpaceOnUse" y2="1095.2888" xlink:type="simple" xlink:actuate="onLoad" id="XMLID_33_" xlink:show="other">
                <stop stop-color="#e6eef4" offset="0"/>
                <stop stop-color="#4a9900" offset="0.44"/>
                <stop stop-color="#0e4e58" offset="0.94"/>
                <stop stop-color="#0e4e58" offset="1"/>
            </linearGradient>
            <path fill="url(#XMLID_33_)" d="M 72.954 34.56 L 61.396 39.3 L 60.653 40.007 C 61.771 40.974 65.195 42.765 67.374 43.256 C 69.232 42.459 72.401 38.602 72.704 37.385002 C 73.044 36.021 73.063 35.247 72.954 34.56 z "/>
            <linearGradient x1="-673.3472" gradientTransform="matrix(1.1905 0 0 -1.1905 875.6733 1351.9015)" y1="1103.2305" x2="-688.3824" gradientUnits="userSpaceOnUse" y2="1104.4585" xlink:type="simple" xlink:actuate="onLoad" id="XMLID_34_" xlink:show="other">
                <stop stop-color="#e6eef4" offset="0"/>
                <stop stop-color="#4a9900" offset="0.44"/>
                <stop stop-color="#0e4e58" offset="0.94"/>
                <stop stop-color="#0e4e58" offset="1"/>
            </linearGradient>
            <path fill="url(#XMLID_34_)" d="M 66.176 33.835 L 61.091003 39.079998 C 63.124004 40.496998 65.563 41.561996 67.233 42.020996 L 66.176 33.835 z "/>
            <linearGradient x1="-672.0386" gradientTransform="matrix(1.1905 0 0 -1.1905 875.6733 1351.9015)" y1="1091.4209" x2="-712.9855" gradientUnits="userSpaceOnUse" y2="1080.0786" xlink:type="simple" xlink:actuate="onLoad" id="XMLID_35_" xlink:show="other">
                <stop stop-color="#e6eef4" offset="0"/>
                <stop stop-color="#4a9900" offset="0.44"/>
                <stop stop-color="#0e4e58" offset="0.94"/>
                <stop stop-color="#0e4e58" offset="1"/>
            </linearGradient>
            <path fill="url(#XMLID_35_)" d="M 54.021 52.707 L 32.669 59.667 L 33.092 61.786 C 33.092 61.786 36.627 65.812 44.385 67.116 C 49.57 63.648 52.918 58.589996 53.82 55.520996 L 54.021 52.707 z "/>
            <linearGradient x1="-690.6343" gradientTransform="matrix(1.1905 0 0 -1.1905 875.6733 1351.9015)" y1="1075.1172" x2="-713.5024" gradientUnits="userSpaceOnUse" y2="1098.6492" xlink:type="simple" xlink:actuate="onLoad" id="XMLID_36_" xlink:show="other">
                <stop stop-color="#dce8e4" offset="0"/>
                <stop stop-color="#43910a" offset="1"/>
            </linearGradient>
            <path fill="url(#XMLID_36_)" d="M 32.643 59.667 C 33.181 54.646 35.782 50.078 35.782 50.078 L 43.658 52.763 L 43.883 65.091 C 37.842 64.185 34.598 61.567 32.643 59.667 z "/>
            <linearGradient x1="-671.4063" gradientTransform="matrix(1.1905 0 0 -1.1905 875.6733 1351.9015)" y1="1109.8301" x2="-715.5381" gradientUnits="userSpaceOnUse" y2="1092.1492" xlink:type="simple" xlink:actuate="onLoad" id="XMLID_37_" xlink:show="other">
                <stop stop-color="#dce8e4" offset="0"/>
                <stop stop-color="#43910a" offset="1"/>
            </linearGradient>
            <path fill="url(#XMLID_37_)" d="M 35.781 50.078 C 36.968998 51.204 40.184998 53.256 43.531998 52.96 L 70.020996 27.894 C 67.712 26.612 64.45599 26.331 64.45599 26.331 C 55.442 30.132 43.728 39.542 35.781 50.078 z "/>
            <linearGradient x1="-666.3276" gradientTransform="matrix(1.1905 0 0 -1.1905 875.6733 1351.9015)" y1="1124.6289" x2="-692.2142" gradientUnits="userSpaceOnUse" y2="1091.3082" xlink:type="simple" xlink:actuate="onLoad" id="XMLID_38_" xlink:show="other">
                <stop stop-color="#dce8e4" offset="0"/>
                <stop stop-color="#43910a" offset="1"/>
            </linearGradient>
            <path fill="url(#XMLID_38_)" d="M 43.882 65.091 C 43.195 62.543003 42.912 55.752003 43.539 52.882004 C 50.797 42.267006 61.243004 32.780006 69.976 27.848003 C 69.976 27.848003 72.440994 30.417004 72.96 34.546005 C 72.352 37.154007 69.326 40.466003 67.225 42.010006 C 66.949 41.379005 65.997 34.283005 65.997 34.283005 C 63.588 37.441006 59.779003 40.872005 53.544003 46.780006 C 53.956 48.969006 54.020004 52.681007 54.020004 52.681007 C 52.021 57.506 48.468 62.233 43.882 65.091 z "/>
        </g>
        <rect width="84" fill="none" height="72"/>
    </g>
</svg>
