<?xml version="1.0" encoding="UTF-8"?>
<svg xmlns="http://www.w3.org/2000/svg" xmlns:xlink="http://www.w3.org/1999/xlink" contentScriptType="text/ecmascript" width="100" baseProfile="tiny" zoomAndPan="magnify" contentStyleType="text/css" viewBox="-0.428 -0.076 100 69" height="69" preserveAspectRatio="xMidYMid meet" version="1.1">
    <rect x="0" width="100.001" fill="none" y="0" height="69.047"/>
    <linearGradient x1="-655.2078" gradientTransform="matrix(1 0 0 -1 694.626 1064.8167)" y1="1053.0363" x2="-636.5774" gradientUnits="userSpaceOnUse" y2="1004.7949" xlink:type="simple" xlink:actuate="onLoad" id="XMLID_986_" xlink:show="other">
        <stop stop-color="#aabbd7" offset="0"/>
        <stop stop-color="#92a5cc" offset="0.2634"/>
        <stop stop-color="#6c83bb" offset="0.7135"/>
        <stop stop-color="#637db5" offset="0.7446"/>
        <stop stop-color="#4c6ea4" offset="0.7945"/>
        <stop stop-color="#265689" offset="0.8563"/>
        <stop stop-color="#003d6d" offset="0.9101"/>
        <stop stop-color="#003d6d" offset="1"/>
    </linearGradient>
    <path fill="url(#XMLID_986_)" d="M 35.258 13.348 L 35.258 13.348 C 35.347 13.403 35.475998 13.474999 35.653 13.563 L 35.653 13.563 C 36.133 13.806 36.98 14.172999 38.398 14.6449995 L 38.398 14.6449995 C 39.417 14.985999 40.125 15.106 40.619 15.106 L 40.619 15.106 C 41.162 15.102 41.447 14.977 41.715 14.802 L 41.715 14.802 L 42.212 14.877 C 43.151 16.024 44.297 18.008 44.297 20.812 L 44.297 20.812 C 44.297 22.475 43.894 24.416 42.827 26.629 L 42.827 26.629 C 38.693 35.132 35.383 34.406 35.256 41.834 L 35.256 41.834 C 35.145 47.061 33.432 48.065998 32.956 48.190998 L 32.956 48.190998 C 32.79 48.224 32.483 48.253998 32.094 48.253998 L 32.094 48.253998 C 31.835001 48.253998 31.552002 48.237 31.277002 48.190998 L 31.277002 48.190998 C 31.009003 48.163 30.270002 48.059998 29.816002 47.211998 L 29.816002 47.211998 C 29.346003 46.379997 29.008001 44.911 28.950003 42.024 L 28.950003 42.024 C 28.823002 34.595997 25.512003 35.322998 21.379002 26.815998 L 21.379002 26.815998 C 20.311 24.606998 19.907001 22.661999 19.907001 20.999998 L 19.907001 20.999998 C 19.907001 18.069998 21.157001 16.034998 22.119001 14.914998 L 22.119001 14.914998 L 22.6 14.84 C 22.848 14.992001 23.126 15.102 23.633 15.104 L 23.633 15.104 C 24.126999 15.104 24.833 14.983 25.852 14.645 L 25.852 14.645 C 27.790998 14.0 28.661 13.551001 28.991999 13.35 L 28.991999 13.35 C 28.943998 13.09 28.888998 12.647 28.888998 11.968 L 28.888998 11.968 C 28.888998 11.918 28.886997 11.857 28.888998 11.803 L 28.888998 11.803 C 28.896997 11.086 28.958998 10.614 29.014997 10.328 L 29.014997 10.328 C 28.530998 10.12 27.493998 9.698 26.410997 9.404 L 26.410997 9.404 C 24.888998 8.987 23.514997 8.7890005 22.980997 8.785 L 22.980997 8.785 C 22.967997 8.787 22.960997 8.785 22.958998 8.785 L 22.958998 8.785 L 22.958998 8.785 L 22.958998 8.785 C 22.956997 8.785 22.954998 8.785 22.953999 8.785 L 22.953999 8.785 L 22.953999 8.783 L 22.944998 8.785 C 22.506998 8.783 21.989998 9.035 21.639997 9.290999 L 21.639997 9.290999 L 21.643997 9.292999 C 21.632998 9.315999 21.617998 9.362999 21.603996 9.424999 L 21.603996 9.424999 C 21.571997 9.548999 21.552996 9.730999 21.541996 9.923999 L 21.541996 9.923999 L 21.364996 10.222999 C 20.960997 10.472999 16.327995 13.472999 16.336996 19.647999 L 16.336996 19.647999 C 16.336996 20.895998 16.523996 22.278 16.977997 23.801998 L 16.977997 23.801998 C 19.534996 32.514 25.022997 38.281 25.221996 41.048996 L 25.221996 41.048996 C 25.226995 41.153996 25.226995 41.269997 25.226995 41.388996 L 25.226995 41.388996 C 25.226995 42.054996 25.171995 42.970997 25.173996 43.997997 L 25.173996 43.997997 C 25.169996 45.692997 25.320995 47.677998 26.042995 49.182 L 26.042995 49.182 C 26.775995 50.682 27.971996 51.723 30.321995 51.740997 L 30.321995 51.740997 C 30.345995 51.740997 30.368996 51.740997 30.391994 51.742996 L 30.391994 51.742996 L 30.745995 52.133995 C 30.736994 52.332996 30.729994 52.555996 30.727995 52.821995 L 30.727995 52.821995 C 30.734995 54.325996 30.919994 56.805996 32.195995 59.065994 L 32.195995 59.065994 C 33.413994 61.289993 35.923996 63.204994 39.858994 63.208996 L 39.858994 63.208996 C 39.904995 63.208996 39.947994 63.208996 39.99399 63.208996 L 39.99399 63.208996 C 42.36199 63.206997 45.240993 62.601997 48.80899 61.175995 L 48.80899 61.175995 C 52.67799 59.628994 54.89799 56.769997 56.47799 54.486996 L 56.47799 54.486996 C 57.24099 53.396996 58.54599 50.173996 58.91599 46.986996 L 58.91599 46.986996 C 59.028988 46.038994 59.06999 45.040997 59.06999 44.092995 L 59.06999 44.092995 C 59.072987 42.038994 58.86099 40.212994 58.759987 39.782993 L 58.759987 39.782993 C 58.587986 39.037994 55.81199 27.230993 55.801987 24.714993 L 55.801987 24.714993 C 55.801987 24.713993 55.799988 24.701992 55.800987 24.677992 L 55.800987 24.677992 C 55.799988 24.671991 55.799988 24.665993 55.799988 24.656992 L 55.799988 24.656992 C 55.801987 23.889992 55.926987 23.330992 56.182987 22.921991 L 56.182987 22.921991 C 56.358986 22.635992 56.63799 22.352991 57.08999 22.13799 L 57.08999 22.13799 L 57.57599 22.28099 C 58.681988 24.11399 60.54099 25.352991 62.37199 25.34499 L 62.37199 25.34499 C 63.54499 25.35899 65.51999 24.74099 66.34699 23.98399 L 66.34699 23.98399 C 66.397995 23.94299 66.45099 23.86699 66.61099 23.69699 L 66.61099 23.69699 C 68.149994 22.589989 69.20699 20.55799 69.20699 18.218988 L 69.20699 18.218988 C 69.204994 14.641989 66.76799 11.832989 63.873993 11.823988 L 63.873993 11.823988 L 63.873993 11.446988 L 63.873993 11.073988 C 67.285995 11.084988 69.951 14.317987 69.95799 18.218988 L 69.95799 18.218988 C 69.95599 20.782988 68.80699 23.037989 67.11299 24.244987 L 67.11299 24.244987 C 67.05399 24.309988 66.97999 24.423988 66.84699 24.543987 L 66.84699 24.543987 C 65.76499 25.484987 63.768993 26.082987 62.371994 26.096987 L 62.371994 26.096987 C 60.312996 26.088987 58.369995 24.822987 57.132996 22.979986 L 57.132996 22.979986 C 56.983997 23.086987 56.901997 23.192986 56.815994 23.321987 L 56.815994 23.321987 C 56.672993 23.546988 56.550995 23.972988 56.550995 24.657988 L 56.550995 24.657988 L 56.540997 24.657988 L 56.543995 24.714987 L 56.550995 24.714987 C 56.550995 24.714987 56.553993 24.714987 56.550995 24.726986 L 56.550995 24.726986 C 56.549995 27.001986 59.322994 38.920986 59.489994 39.613987 L 59.489994 39.613987 C 59.612995 40.170986 59.814995 41.976986 59.816994 44.093987 L 59.816994 44.093987 C 59.816994 45.058987 59.775993 46.086987 59.660995 47.073986 L 59.660995 47.073986 C 59.258995 50.407986 57.963997 53.641987 57.092995 54.911987 L 57.092995 54.911987 C 55.494995 57.22299 53.167995 60.24199 49.085995 61.872986 L 49.085995 61.872986 C 45.455994 63.319984 42.487995 63.954987 39.999992 63.957985 L 39.999992 63.957985 C 39.949993 63.960983 39.901993 63.960983 39.85599 63.960983 L 39.85599 63.960983 C 35.665993 63.964985 32.866993 61.876984 31.534992 59.429985 L 31.534992 59.429985 C 30.166992 56.994984 29.984993 54.388985 29.975992 52.825985 L 29.975992 52.825985 C 29.975992 52.704987 29.977993 52.593987 29.979992 52.485985 L 29.979992 52.485985 C 27.583992 52.391983 26.120993 51.133984 25.360992 49.506985 L 25.360992 49.506985 C 24.557993 47.813984 24.422993 45.738983 24.419992 44.000984 L 24.419992 44.000984 C 24.419992 42.949986 24.474993 42.018986 24.474993 41.391983 L 24.474993 41.391983 C 24.474993 41.27698 24.472992 41.17198 24.469994 41.080982 L 24.469994 41.080982 C 24.458994 38.990982 18.865993 32.80498 16.252995 24.017982 L 16.252995 24.017982 C 15.780994 22.425983 15.582994 20.972982 15.582994 19.649982 L 15.582994 19.649982 C 15.591994 13.507982 19.838995 10.334983 20.809994 9.689982 L 20.809994 9.689982 C 20.840994 9.322983 20.861994 8.990982 21.182993 8.695982 L 21.182993 8.695982 C 21.600992 8.395982 22.200993 8.062982 22.882994 8.039982 L 22.882994 8.039982 C 22.913994 8.033982 22.927994 8.035982 22.936995 8.035982 L 22.936995 8.035982 C 22.941994 8.035982 22.945995 8.038982 22.950994 8.035982 L 22.950994 8.035982 C 23.598995 8.038982 24.994995 8.246983 26.605995 8.682982 L 26.605995 8.682982 C 28.164995 9.1099825 29.597996 9.769982 29.609995 9.773982 L 29.609995 9.773982 L 29.801994 10.248982 C 29.806993 10.250982 29.774994 10.313982 29.731995 10.561982 L 29.731995 10.561982 C 29.688995 10.809982 29.642994 11.212982 29.635994 11.827982 L 29.635994 11.827982 C 29.633993 11.864982 29.633993 11.911982 29.633993 11.971982 L 29.633993 11.971982 C 29.633993 12.509982 29.669992 12.876982 29.705994 13.103982 L 29.705994 13.103982 C 29.739994 13.330982 29.765993 13.392982 29.765993 13.392982 L 29.765993 13.392982 L 29.665993 13.792981 C 29.592993 13.855981 28.971992 14.394981 26.082993 15.360981 L 26.082993 15.360981 C 25.019993 15.712981 24.242992 15.854981 23.628992 15.856981 L 23.628992 15.856981 C 23.167992 15.858981 22.795992 15.770981 22.491993 15.635982 L 22.491993 15.635982 C 21.642994 16.703981 20.651993 18.485981 20.651993 21.002981 L 20.651993 21.002981 C 20.651993 22.54598 21.023993 24.369982 22.048992 26.494982 L 22.048992 26.494982 C 25.980991 34.705982 29.524992 34.19998 29.691992 42.010983 L 29.691992 42.010983 C 29.744991 44.844982 30.102991 46.22798 30.461992 46.844982 L 30.461992 46.844982 C 30.833992 47.440983 31.046991 47.38198 31.399992 47.45798 L 31.399992 47.45798 C 31.614992 47.49498 31.861992 47.510983 32.088993 47.510983 L 32.088993 47.510983 C 32.406994 47.510983 32.700993 47.47798 32.782993 47.46398 L 32.782993 47.46398 C 32.789993 47.45798 32.804993 47.45198 32.825993 47.44298 L 32.825993 47.44298 C 32.866993 47.419983 32.929993 47.379982 33.004993 47.31398 L 33.004993 47.31398 C 33.156994 47.18498 33.362995 46.95898 33.576992 46.56798 L 33.576992 46.56798 C 34.00399 45.79298 34.45299 44.362984 34.50299 41.823982 L 34.50299 41.823982 C 34.67099 34.01298 38.21199 34.516983 42.14699 26.308983 L 42.14699 26.308983 C 43.171993 24.181982 43.541992 22.355984 43.541992 20.815983 L 43.541992 20.815983 C 43.541992 18.415983 42.64099 16.687983 41.82199 15.605983 L 41.82199 15.605983 C 41.50799 15.755982 41.11299 15.861982 40.61499 15.857983 L 40.61499 15.857983 C 40.00099 15.857983 39.22199 15.714983 38.15799 15.361982 L 38.15799 15.361982 C 35.26999 14.394982 34.64799 13.855982 34.577988 13.7939825 L 34.577988 13.7939825 L 34.475986 13.393983 C 34.461987 13.388983 34.607986 13.049983 34.607986 11.972982 L 34.607986 11.972982 C 34.60499 11.9189825 34.60499 11.866982 34.607986 11.813982 L 34.607986 11.813982 C 34.600986 11.214982 34.552986 10.811982 34.509987 10.563982 L 34.509987 10.563982 C 34.466988 10.316982 34.439987 10.250982 34.439987 10.250982 L 34.439987 10.250982 L 34.63199 9.775982 C 34.64399 9.771982 36.07699 9.111982 37.63599 8.684982 L 37.63599 8.684982 C 39.24399 8.246983 40.63799 8.042982 41.29099 8.037982 L 41.29099 8.037982 C 41.292988 8.037982 41.31299 8.037982 41.30499 8.040982 L 41.30499 8.040982 C 42.007988 8.047982 42.62899 8.389982 43.057987 8.697982 L 43.057987 8.697982 C 43.33999 8.949982 43.377987 9.222981 43.412987 9.521982 L 43.412987 9.521982 C 44.429985 10.204982 48.600986 13.376982 48.606987 19.460983 L 48.606987 19.460983 C 48.606987 20.782984 48.40999 22.239983 47.939987 23.827984 L 47.939987 23.827984 C 45.328987 32.61698 39.735985 38.804985 39.724987 40.901985 L 39.724987 40.901985 C 39.71499 41.010986 39.712986 41.137985 39.712986 41.280987 L 39.712986 41.280987 C 39.712986 41.809986 39.739986 42.540985 39.739986 43.368988 L 39.739986 43.368988 C 39.739986 43.70899 39.737988 44.063988 39.725986 44.425987 L 39.725986 44.425987 C 39.720985 46.058987 39.54199 47.869987 38.763985 49.320988 L 38.763985 49.320988 C 37.955986 51.099987 36.365986 52.49099 33.700985 52.47099 L 33.700985 52.47099 C 33.643986 52.47099 33.586987 52.47099 33.566986 52.46899 L 33.566986 52.46899 C 33.559986 52.47099 33.552986 52.47099 33.545986 52.47099 L 33.545986 52.47099 C 33.541985 52.584988 33.539986 52.716988 33.538986 52.87099 L 33.538986 52.87099 C 33.538986 52.87099 33.538986 52.87099 33.538986 52.89999 L 33.538986 52.89999 C 33.533985 54.13599 33.765987 56.17199 34.629986 57.66199 L 34.629986 57.66199 C 35.568985 59.19099 36.775986 60.31599 39.949986 60.39199 L 39.949986 60.39199 C 39.964985 60.38999 39.976986 60.38999 39.985985 60.38999 L 39.985985 60.38999 C 39.991985 60.38999 39.995983 60.38999 39.999985 60.38999 L 39.999985 60.38999 C 41.875984 60.39199 44.428986 59.893993 47.758984 58.561993 L 47.758984 58.561993 C 51.272984 57.15399 52.956985 54.61899 54.156982 52.885994 L 54.156982 52.885994 C 54.677982 52.135994 55.82698 49.578995 56.121983 46.905994 L 56.121983 46.905994 C 56.236984 45.858994 56.28498 44.856995 56.28498 43.928993 L 56.28498 43.928993 C 56.28498 42.22399 56.12398 40.768993 55.93798 39.76499 L 55.93798 39.76499 C 55.64898 38.194992 53.031982 27.896992 52.98498 24.665993 L 52.98498 24.665993 C 52.98498 23.605993 53.15298 22.487993 53.76598 21.468992 L 53.76598 21.468992 C 54.24198 20.669992 54.98098 20.046991 55.86198 19.614992 L 55.86198 19.614992 C 55.82198 19.313992 55.79798 19.008991 55.79798 18.693993 L 55.79798 18.693993 C 55.78598 14.799993 58.18298 12.047993 61.55098 11.338993 L 61.55098 11.338993 C 62.00298 11.243993 62.54198 11.161993 63.05598 11.144993 L 63.05598 11.144993 C 63.31398 11.103992 63.58598 11.074993 63.86998 11.074993 L 63.86998 11.074993 L 63.86998 11.447993 L 63.86998 11.824993 C 63.63998 11.824993 63.40698 11.847993 63.12798 11.890993 L 63.12798 11.890993 C 62.62598 11.908993 62.12298 11.983994 61.70798 12.072993 L 61.70798 12.072993 C 58.65298 12.738994 56.559982 15.111994 56.54898 18.694994 L 56.54898 18.694994 C 56.54898 19.057995 56.58498 19.416994 56.64598 19.776995 L 56.64598 19.776995 L 56.42598 20.182995 C 55.54298 20.566996 54.83598 21.137995 54.40898 21.855995 L 54.40898 21.855995 C 53.892982 22.714994 53.73698 23.681995 53.73498 24.661995 L 53.73498 24.661995 C 53.76598 27.668995 56.370983 38.017994 56.67398 39.629997 L 56.67398 39.629997 C 56.86798 40.683 57.031982 42.177 57.031982 43.928997 L 57.031982 43.928997 C 57.031982 44.884 56.983982 45.910995 56.863983 46.989998 L 56.863983 46.989998 C 56.53998 49.829 55.391983 52.399998 54.770985 53.309998 L 54.770985 53.309998 C 53.578983 55.038 51.768986 57.762997 48.035984 59.259 L 48.035984 59.259 C 44.641983 60.614 42.005985 61.142 39.997986 61.142 L 39.997986 61.142 L 39.979984 61.142 L 39.979984 61.142 C 36.590984 61.12 34.973984 59.738 33.980984 58.042 L 33.980984 58.042 C 33.006985 56.345 32.789986 54.22 32.785984 52.899 L 32.785984 52.899 C 32.785984 52.883 32.782986 52.843998 32.787983 52.822998 L 32.787983 52.822998 C 32.787983 52.524 32.799984 52.281998 32.809982 52.091 L 32.809982 52.091 L 33.163982 51.742 C 33.299984 51.735 33.42198 51.727 33.53998 51.72 L 33.53998 51.72 C 33.592983 51.722 33.643982 51.722 33.696983 51.722 L 33.696983 51.722 C 36.098984 51.706 37.321983 50.593 38.091984 48.984 L 38.091984 48.984 C 38.780983 47.710003 38.971985 46.002003 38.973984 44.413002 L 38.973984 44.413002 C 38.985985 44.057003 38.987984 43.706 38.987984 43.370003 L 38.987984 43.370003 C 38.987984 42.557003 38.960983 41.837 38.960983 41.281002 L 38.960983 41.281002 C 38.960983 41.126003 38.96398 40.982002 38.972984 40.863003 L 38.972984 40.863003 C 39.169983 38.097004 44.660984 32.328003 47.217983 23.615004 L 47.217983 23.615004 C 47.666985 22.094004 47.85298 20.709003 47.85298 19.461004 L 47.85298 19.461004 C 47.86198 13.414004 43.42398 10.416004 42.85998 10.057004 L 42.85998 10.057004 L 42.694 9.77 C 42.676 9.537001 42.628 9.332001 42.6 9.286 L 42.6 9.286 C 42.259 9.0390005 41.764 8.7960005 41.294 8.784 L 41.294 8.784 L 41.294 8.786 C 40.778 8.784 39.384 8.981 37.836 9.405001 L 37.836 9.405001 C 36.754997 9.699 35.718 10.120001 35.232998 10.327001 L 35.232998 10.327001 C 35.288998 10.613001 35.35 11.088 35.357998 11.807001 L 35.357998 11.807001 C 35.357998 11.862001 35.357998 11.916001 35.357998 11.968001 L 35.357998 11.968001 M 42.6 9.283 L 42.601997 9.283 C 42.601997 9.282 42.601997 9.282 42.601997 9.282 L 42.601997 9.282 C 42.602 9.282 42.601 9.283 42.6 9.283 L 42.6 9.283 z "/>
    <linearGradient x1="-662.5212" gradientTransform="matrix(1 0 0 -1 694.626 1064.8167)" y1="1058.545" x2="-662.5212" gradientUnits="userSpaceOnUse" y2="990.6968" xlink:type="simple" xlink:actuate="onLoad" id="XMLID_987_" xlink:show="other">
        <stop stop-color="#ffffff" offset="0"/>
        <stop stop-color="#a2c2dd" offset="0.35"/>
        <stop stop-color="#6c83bb" offset="0.7"/>
        <stop stop-color="#003d6d" offset="1"/>
    </linearGradient>
    <path fill="url(#XMLID_987_)" d="M 47.589 23.756 C 50.445 14.092001 43.002 9.731001 43.002 9.731001 L 40.767998 14.002001 C 40.767998 14.002001 46.526997 18.147001 42.492996 26.504002 C 38.458996 34.859 35.032997 34.244003 34.885998 41.865 C 34.786 47.021004 33.067997 47.822002 32.879997 47.861 C 32.692997 47.902 31.965998 47.968 31.344997 47.861 C 30.724997 47.754 29.437998 47.775 29.326998 42.052002 C 29.179998 34.432003 25.752998 35.047 21.719997 26.690002 C 17.685997 18.335003 23.444998 14.190002 23.444998 14.190002 L 21.209 9.92 C 21.209 9.92 13.766 14.281 16.621 23.945 C 19.207 32.695 24.747002 38.672 24.852001 41.1 C 24.956001 43.53 23.575 52.302998 30.490002 52.158997 C 31.275002 52.221996 32.972 52.177 33.546 52.129997 C 40.462 52.274998 39.253002 43.340996 39.359 40.910995 C 39.463 38.483 45.004 32.506 47.589 23.756 z "/>
    <path fill="#ffffff" d="M 30.487 51.758 C 23.571 51.903 25.227 43.526 25.123 41.096 C 25.018 38.668 19.477 32.692 16.891998 23.942001 C 14.037 14.278 21.48 9.917 21.48 9.917 L 22.036 11.499 C 22.036 11.499 15.432999 18.366 19.467999 26.723999 C 23.502998 35.082 25.863998 34.576 26.010998 42.195 C 26.120998 47.918 26.072998 48.55 27.015997 49.873 C 27.958 51.192 30.487 51.758 30.487 51.758 z " fill-opacity="0.4"/>
    <path fill="#ffffff" d="M 33.894 51.561 C 40.81 51.707 39.154 43.33 39.259003 40.901 C 39.363003 38.471 44.904003 32.496002 47.489002 23.746 C 50.343002 14.082001 42.902 9.721001 42.902 9.721001 L 42.345 11.303 C 42.345 11.303 48.949 18.172 44.913002 26.53 C 40.88 34.885002 38.517002 34.38 38.370003 41.999 C 38.260002 47.722 38.309002 48.356 37.366 49.677002 C 36.423 50.996 33.894 51.561 33.894 51.561 z " fill-opacity="0.4"/>
    <linearGradient x1="-628.9905" gradientTransform="matrix(1 0 0 -1 694.626 1064.8167)" y1="1051.547" x2="-638.5831" gradientUnits="userSpaceOnUse" y2="1035.0476" xlink:type="simple" xlink:actuate="onLoad" id="XMLID_988_" xlink:show="other">
        <stop stop-color="#e6eef4" offset="0"/>
        <stop stop-color="#9ec8d1" offset="0.1492"/>
        <stop stop-color="#62a9b3" offset="0.2883"/>
        <stop stop-color="#3d95a1" offset="0.3901"/>
        <stop stop-color="#2f8e9a" offset="0.4438"/>
        <stop stop-color="#247c90" offset="0.5242"/>
        <stop stop-color="#115a7d" offset="0.699"/>
        <stop stop-color="#044571" offset="0.8433"/>
        <stop stop-color="#003d6d" offset="0.9382"/>
        <stop stop-color="#003d6d" offset="1"/>
    </linearGradient>
    <path fill="url(#XMLID_988_)" d="M 65.244 12.004 C 66.859 13.198999 67.59901 16.307 67.59901 18.730999 C 67.59901 20.946 67.992004 23.064999 66.603004 24.299 C 65.65 25.149 63.664005 25.754 62.377007 25.754 C 59.226006 25.754 56.181007 22.469 56.181007 18.730999 C 56.181007 14.992999 58.425007 12.429998 61.63801 11.742999 C 62.722 11.51 64.368 11.355 65.244 12.004 z "/>
    <radialGradient gradientTransform="matrix(0.8305 0 0 -1 639.4774 1064.8167)" gradientUnits="userSpaceOnUse" xlink:type="simple" r="28.3202" xlink:actuate="onLoad" cx="-697.2131" id="XMLID_989_" cy="1057.1671" xlink:show="other">
        <stop stop-color="#d6e6ec" offset="0"/>
        <stop stop-color="#298595" offset="1"/>
    </radialGradient>
    <ellipse rx="5.709" ry="6.768" fill="url(#XMLID_989_)" cx="63.879" cy="18.254"/>
    <radialGradient gradientTransform="matrix(0.8305 0 0 -1 639.4774 1064.8167)" gradientUnits="userSpaceOnUse" xlink:type="simple" r="10.3017" xlink:actuate="onLoad" cx="-692.511" id="XMLID_990_" cy="1042.5245" xlink:show="other">
        <stop stop-color="#d6e6ec" offset="0"/>
        <stop stop-color="#298595" offset="1"/>
    </radialGradient>
    <ellipse rx="4.363" ry="5.254" fill="url(#XMLID_990_)" cx="63.82" cy="18.289"/>
    <linearGradient x1="-631.5393" gradientTransform="matrix(1 0 0 -1 694.626 1064.8167)" y1="1015.2843" x2="-667.9227" gradientUnits="userSpaceOnUse" y2="1033.2465" xlink:type="simple" xlink:actuate="onLoad" id="XMLID_991_" xlink:show="other">
        <stop stop-color="#ffffff" offset="0"/>
        <stop stop-color="#a2c2dd" offset="0.35"/>
        <stop stop-color="#6c83bb" offset="0.7"/>
        <stop stop-color="#003d6d" offset="1"/>
    </linearGradient>
    <path fill="url(#XMLID_991_)" d="M 31.87 59.279 C 30.551 56.933 30.367 54.39 30.359001 52.859 L 30.359001 52.859 C 30.359001 52.023003 30.425001 51.482002 30.43 51.437 L 30.43 51.437 L 30.43 51.439 L 33.223 51.783 C 33.224 51.783 33.213 51.857002 33.201 52.045002 L 33.201 52.045002 C 33.188 52.234 33.175 52.514004 33.175 52.859 L 33.175 52.859 C 33.166 54.13 33.38 56.261 34.319 57.888 L 34.319 57.888 C 35.287 59.5 36.702 60.756 40.001 60.8 L 40.001 60.8 C 41.944 60.802 44.542 60.288998 47.91 58.943 L 47.91 58.943 C 51.532 57.492 53.279 54.863 54.475998 53.13 L 54.475998 53.13 C 55.045998 52.303 56.195 49.734 56.503 46.981003 C 56.84 43.975002 56.609997 41.321003 56.315 39.731003 C 56.017998 38.141003 53.407997 27.816002 53.369 24.702003 L 53.369 24.702003 C 53.37 23.679003 53.531998 22.638004 54.097 21.698004 L 54.097 21.698004 C 54.66 20.755003 55.622 20.042004 56.806 19.659004 L 56.806 19.659004 L 57.695 22.331005 C 56.98 22.579004 56.707 22.843004 56.507 23.157005 L 56.507 23.157005 C 56.31 23.475006 56.185 23.971004 56.187 24.702005 L 56.187 24.702005 C 56.148 26.968006 58.962 39.009007 59.132 39.731007 C 59.302 40.453007 59.66 43.98501 59.296 47.063007 C 58.909 50.32501 57.608 53.55301 56.792 54.73301 L 56.792 54.73301 C 55.204 57.03001 52.931 59.96901 48.954 61.55901 L 48.954 61.55901 C 45.355 62.99501 42.432 63.61601 40.0 63.61801 L 40.0 63.61801 C 39.955 63.61801 39.91 63.61801 39.865 63.61801 L 39.865 63.61801 C 35.802 63.617 33.146 61.617 31.87 59.279 L 31.87 59.279 z "/>
    <radialGradient gradientTransform="matrix(1 0 0 -1 694.626 1064.8167)" gradientUnits="userSpaceOnUse" xlink:type="simple" r="8.9231" xlink:actuate="onLoad" cx="-666.5789" id="XMLID_992_" cy="1056.7491" xlink:show="other">
        <stop stop-color="#e6eef4" offset="0"/>
        <stop stop-color="#c6dcc1" offset="0.0772"/>
        <stop stop-color="#91c06f" offset="0.211"/>
        <stop stop-color="#6bab33" offset="0.321"/>
        <stop stop-color="#539e0e" offset="0.4014"/>
        <stop stop-color="#4a9900" offset="0.4438"/>
        <stop stop-color="#398419" offset="0.5475"/>
        <stop stop-color="#22663b" offset="0.7125"/>
        <stop stop-color="#135550" offset="0.8486"/>
        <stop stop-color="#0e4e58" offset="0.9382"/>
        <stop stop-color="#0e4e58" offset="1"/>
    </radialGradient>
    <path fill="url(#XMLID_992_)" d="M 21.412 9.035 C 21.021 9.32 21.205 11.267 21.205 11.267 C 21.205 11.267 21.147 14.182 21.827 14.751 C 22.505 15.321 23.11 15.991 25.973 15.037001 C 28.835 14.083 29.418 13.548 29.418 13.548 C 29.418 13.548 29.251999 13.075001 29.268 11.842 C 29.282 10.609 29.459 10.148 29.459 10.148 C 29.459 10.148 28.034 9.4939995 26.513 9.08 C 24.925001 8.647 23.523 8.445 22.947 8.447 C 22.373 8.449 21.801 8.75 21.412 9.035 z "/>
    <radialGradient gradientTransform="matrix(1 0 0 -1 694.626 1064.8167)" gradientUnits="userSpaceOnUse" xlink:type="simple" r="11.9067" xlink:actuate="onLoad" cx="-666.447" id="XMLID_993_" cy="1057.0948" xlink:show="other">
        <stop stop-color="#e6eef4" offset="0"/>
        <stop stop-color="#c6dcc1" offset="0.0772"/>
        <stop stop-color="#91c06f" offset="0.211"/>
        <stop stop-color="#6bab33" offset="0.321"/>
        <stop stop-color="#539e0e" offset="0.4014"/>
        <stop stop-color="#4a9900" offset="0.4438"/>
        <stop stop-color="#398419" offset="0.5475"/>
        <stop stop-color="#22663b" offset="0.7125"/>
        <stop stop-color="#135550" offset="0.8486"/>
        <stop stop-color="#0e4e58" offset="0.9382"/>
        <stop stop-color="#0e4e58" offset="1"/>
    </radialGradient>
    <path fill="url(#XMLID_993_)" d="M 21.777 9.453 C 21.387001 9.738 21.578001 11.687 21.578001 11.687 L 28.789001 11.842 L 28.794 10.47 C 28.794 10.47 28.082 9.968 26.562 9.554 C 24.974 9.121 23.57 8.918 22.995 8.921 C 22.419 8.924 22.165 9.168 21.777 9.453 z "/>
    <radialGradient gradientTransform="matrix(-1 0 0 -1 1107.4136 1064.8167)" gradientUnits="userSpaceOnUse" xlink:type="simple" r="8.9318" xlink:actuate="onLoad" cx="1071.2039" id="XMLID_994_" cy="1056.7491" xlink:show="other">
        <stop stop-color="#e6eef4" offset="0"/>
        <stop stop-color="#c6dcc1" offset="0.0772"/>
        <stop stop-color="#91c06f" offset="0.211"/>
        <stop stop-color="#6bab33" offset="0.321"/>
        <stop stop-color="#539e0e" offset="0.4014"/>
        <stop stop-color="#4a9900" offset="0.4438"/>
        <stop stop-color="#398419" offset="0.5475"/>
        <stop stop-color="#22663b" offset="0.7125"/>
        <stop stop-color="#135550" offset="0.8486"/>
        <stop stop-color="#0e4e58" offset="0.9382"/>
        <stop stop-color="#0e4e58" offset="1"/>
    </radialGradient>
    <path fill="url(#XMLID_994_)" d="M 42.844 9.035 C 43.235 9.32 43.051003 11.267 43.051003 11.267 C 43.051003 11.267 43.109 14.182 42.429 14.751 C 41.751 15.321 41.146 15.991 38.283 15.037001 C 35.421 14.083 34.838 13.548 34.838 13.548 C 34.838 13.548 35.004 13.075001 34.988003 11.842 C 34.974003 10.609 34.797 10.148 34.797 10.148 C 34.797 10.148 36.222 9.4939995 37.743 9.08 C 39.331 8.647 40.733 8.445 41.309 8.447 C 41.884 8.449 42.456 8.75 42.844 9.035 z "/>
    <radialGradient gradientTransform="matrix(-1 0 0 -1 1107.4136 1064.8167)" gradientUnits="userSpaceOnUse" xlink:type="simple" r="11.9065" xlink:actuate="onLoad" cx="1071.3376" id="XMLID_995_" cy="1057.0948" xlink:show="other">
        <stop stop-color="#e6eef4" offset="0"/>
        <stop stop-color="#c6dcc1" offset="0.0772"/>
        <stop stop-color="#91c06f" offset="0.211"/>
        <stop stop-color="#6bab33" offset="0.321"/>
        <stop stop-color="#539e0e" offset="0.4014"/>
        <stop stop-color="#4a9900" offset="0.4438"/>
        <stop stop-color="#398419" offset="0.5475"/>
        <stop stop-color="#22663b" offset="0.7125"/>
        <stop stop-color="#135550" offset="0.8486"/>
        <stop stop-color="#0e4e58" offset="0.9382"/>
        <stop stop-color="#0e4e58" offset="1"/>
    </radialGradient>
    <path fill="url(#XMLID_995_)" d="M 42.479 9.453 C 42.869 9.738 42.678 11.687 42.678 11.687 L 35.467003 11.842 L 35.462 10.47 C 35.462 10.47 36.174004 9.968 37.694 9.554 C 39.282 9.121 40.686 8.918 41.261 8.921 C 41.838 8.924 42.092 9.168 42.479 9.453 z "/>
    <polygon fill="#17594c" points="56.894,36.038 60.426,35.449 66.392,48.652 64.405,51.258 "/>
    <path fill="#17594c" d="M 65.051 61.346 C 66.927 50.614 82.12601 27.629002 82.12601 27.629002 L 85.70501 29.37 C 76.89101 38.971 68.78201 59.383003 68.78201 59.383003 L 65.051 61.346 "/>
    <linearGradient x1="-670.0266" gradientTransform="matrix(1 0 0 -1 717.2588 -280.1794)" y1="-310.3636" x2="-632.1948" gradientUnits="userSpaceOnUse" y2="-330.4345" xlink:type="simple" xlink:actuate="onLoad" id="XMLID_996_" xlink:show="other">
        <stop stop-color="#dce8e4" offset="0"/>
        <stop stop-color="#43910a" offset="1"/>
    </linearGradient>
    <path fill="url(#XMLID_996_)" d="M 83.364 28.845 L 81.888 26.862999 C 73.874 34.259 67.523 44.487 64.277 50.432 L 57.578 35.632 L 54.089 37.36 C 58.994 48.919 64.66 60.547 65.031 61.303 L 65.050995 61.346 C 69.855 47.842 75.482 37.135 83.364 28.845 z "/>
    <polygon fill="#c8dec5" points="81.89,26.862 83.364,28.845 85.705,29.37 83.986,27.521 "/>
    <polygon fill="#c8dec5" points="58.019,35.413 54.089,37.358 58.085,36.877 60.501,35.432 "/>
</svg>
