<?xml version="1.0" encoding="UTF-8"?>
<svg xmlns="http://www.w3.org/2000/svg" xmlns:xlink="http://www.w3.org/1999/xlink" contentScriptType="text/ecmascript" width="84" baseProfile="tiny" zoomAndPan="magnify" contentStyleType="text/css" viewBox="0 0 84 58" height="58" preserveAspectRatio="xMidYMid meet" version="1.1">
    <g>
        <linearGradient x1="-683.4507" gradientTransform="matrix(1.1905 0 0 -1.1905 875.6733 1344.9003)" y1="1123.5459" x2="-708.7689" gradientUnits="userSpaceOnUse" y2="1104.5205" xlink:type="simple" xlink:actuate="onLoad" id="XMLID_15_" xlink:show="other">
            <stop stop-color="#ffffff" offset="0"/>
            <stop stop-color="#a2c2dd" offset="0.35"/>
            <stop stop-color="#6c83bb" offset="0.7"/>
            <stop stop-color="#003d6d" offset="1"/>
        </linearGradient>
        <path fill="url(#XMLID_15_)" d="M 52.482 14.12 L 38.81 19.727 L 37.933002 20.564 C 39.253002 21.706999 43.306004 23.824999 45.878002 24.404999 C 48.077003 23.463 51.825 18.901 52.184002 17.460999 C 52.586 15.851 52.61 14.935 52.482 14.12 z "/>
        <linearGradient x1="-690.3711" gradientTransform="matrix(1.1905 0 0 -1.1905 875.6733 1344.9003)" y1="1113.9053" x2="-708.1555" gradientUnits="userSpaceOnUse" y2="1115.3643" xlink:type="simple" xlink:actuate="onLoad" id="XMLID_16_" xlink:show="other">
            <stop stop-color="#ffffff" offset="0"/>
            <stop stop-color="#a2c2dd" offset="0.35"/>
            <stop stop-color="#6c83bb" offset="0.7"/>
            <stop stop-color="#003d6d" offset="1"/>
        </linearGradient>
        <path fill="url(#XMLID_16_)" d="M 44.465 13.267 L 38.452 19.469 C 40.855 21.145 43.739998 22.407 45.715 22.946 L 44.465 13.267 z "/>
        <linearGradient x1="-688.8159" gradientTransform="matrix(1.1905 0 0 -1.1905 875.6733 1344.9003)" y1="1099.9434" x2="-737.261" gradientUnits="userSpaceOnUse" y2="1086.5199" xlink:type="simple" xlink:actuate="onLoad" id="XMLID_17_" xlink:show="other">
            <stop stop-color="#ffffff" offset="0"/>
            <stop stop-color="#a2c2dd" offset="0.35"/>
            <stop stop-color="#6c83bb" offset="0.7"/>
            <stop stop-color="#003d6d" offset="1"/>
        </linearGradient>
        <path fill="url(#XMLID_17_)" d="M 30.089 35.585 L 4.8320007 43.815 L 5.3320007 46.326 C 5.3320007 46.326 9.516001 51.089 18.69 52.631 C 24.825 48.529 28.783 42.547 29.852001 38.914 L 30.089 35.585 z "/>
        <linearGradient x1="-710.8208" gradientTransform="matrix(1.1905 0 0 -1.1905 875.6733 1344.9003)" y1="1080.6523" x2="-737.8637" gradientUnits="userSpaceOnUse" y2="1108.4894" xlink:type="simple" xlink:actuate="onLoad" id="XMLID_18_" xlink:show="other">
            <stop stop-color="#ffffff" offset="0"/>
            <stop stop-color="#a2c2dd" offset="0.35"/>
            <stop stop-color="#6c83bb" offset="0.7"/>
            <stop stop-color="#003d6d" offset="1"/>
        </linearGradient>
        <path fill="url(#XMLID_18_)" d="M 4.802 43.815 C 5.4370003 37.879997 8.512 32.476997 8.512 32.476997 L 17.83 35.649998 L 18.093 50.233997 C 10.949 49.164 7.115 46.067 4.802 43.815 z "/>
        <linearGradient x1="-688.0762" gradientTransform="matrix(1.1905 0 0 -1.1905 875.6733 1344.9003)" y1="1121.7139" x2="-740.2822" gradientUnits="userSpaceOnUse" y2="1100.7987" xlink:type="simple" xlink:actuate="onLoad" id="XMLID_19_" xlink:show="other">
            <stop stop-color="#ffffff" offset="0"/>
            <stop stop-color="#ffffff" offset="0.05"/>
            <stop stop-color="#a2c2dd" offset="1"/>
        </linearGradient>
        <path fill="url(#XMLID_19_)" d="M 8.512 32.478 C 9.919 33.809002 13.723 36.236 17.681 35.886 L 49.014 6.236002 C 46.285 4.718002 42.431 4.387002 42.431 4.387002 C 31.769 8.884 17.911 20.014 8.512 32.478 z "/>
        <linearGradient x1="-682.0771" gradientTransform="matrix(1.1905 0 0 -1.1905 875.6733 1344.9003)" y1="1139.2197" x2="-712.686" gradientUnits="userSpaceOnUse" y2="1099.8063" xlink:type="simple" xlink:actuate="onLoad" id="XMLID_20_" xlink:show="other">
            <stop stop-color="#ffffff" offset="0"/>
            <stop stop-color="#ffffff" offset="0.05"/>
            <stop stop-color="#a2c2dd" offset="1"/>
        </linearGradient>
        <path fill="url(#XMLID_20_)" d="M 18.094 50.234 C 17.281 47.22 16.945 39.187 17.687 35.793 C 26.272 23.235 38.628998 12.018 48.957 6.1809998 C 48.957 6.1809998 51.876 9.224 52.487 14.104 C 51.767998 17.19 48.189 21.104 45.707 22.933 C 45.377 22.185001 44.251 13.793 44.251 13.793 C 41.399 17.527 36.897 21.585 29.522 28.576 C 30.01 31.165 30.087 35.553 30.087 35.553 C 27.723 41.262 23.517 46.855 18.094 50.234 z "/>
        <linearGradient x1="-700.1777" gradientTransform="matrix(1.1905 0 0 -1.1905 875.6733 1344.9003)" y1="1101.9189" x2="-684.6247" gradientUnits="userSpaceOnUse" y2="1107.2701" xlink:type="simple" xlink:actuate="onLoad" id="XMLID_21_" xlink:show="other">
            <stop stop-color="#e2e6e4" offset="0"/>
            <stop stop-color="#a3740a" offset="1"/>
        </linearGradient>
        <polygon fill="url(#XMLID_21_)" points="54.724,30.31 47.053,29.276 42.813,30.97 50.409,32.364  "/>
        <linearGradient x1="-706.1699" gradientTransform="matrix(1.1905 0 0 -1.1905 875.6733 1344.9003)" y1="1094.5645" x2="-681.2063" gradientUnits="userSpaceOnUse" y2="1095.16" xlink:type="simple" xlink:actuate="onLoad" id="XMLID_22_" xlink:show="other">
            <stop stop-color="#e2e6e4" offset="0"/>
            <stop stop-color="#a3740a" offset="1"/>
        </linearGradient>
        <polygon fill="url(#XMLID_22_)" points="59.573,42.156 40.944,38.954 38.552,39.736 55.21,44.117  "/>
        <linearGradient x1="-684.501" gradientTransform="matrix(1.1905 0 0 -1.1905 875.6733 1344.9003)" y1="1096.9658" x2="-691.2338" gradientUnits="userSpaceOnUse" y2="1088.7483" xlink:type="simple" xlink:actuate="onLoad" id="XMLID_23_" xlink:show="other">
            <stop stop-color="#e6eef4" offset="0"/>
            <stop stop-color="#a3740a" offset="0.44"/>
            <stop stop-color="#474105" offset="0.94"/>
            <stop stop-color="#474105" offset="1"/>
        </linearGradient>
        <polygon fill="url(#XMLID_23_)" points="50.479,52.063 47.546,53.912 55.372,43.923 59.573,42.156  "/>
        <linearGradient x1="-688.7495" gradientTransform="matrix(1.1905 0 0 -1.1905 875.6733 1344.9003)" y1="1109.3594" x2="-693.9025" gradientUnits="userSpaceOnUse" y2="1093.1063" xlink:type="simple" xlink:actuate="onLoad" id="XMLID_24_" xlink:show="other">
            <stop stop-color="#e6eef4" offset="0"/>
            <stop stop-color="#a3740a" offset="0.44"/>
            <stop stop-color="#474105" offset="0.94"/>
            <stop stop-color="#474105" offset="1"/>
        </linearGradient>
        <polygon fill="url(#XMLID_24_)" points="49.546,42.691 53.074,41.17 54.724,30.31 50.451,32.349  "/>
        <linearGradient x1="-706.5615" gradientTransform="matrix(1.1905 0 0 -1.1905 875.6733 1344.9003)" y1="1107.165" x2="-693.0875" gradientUnits="userSpaceOnUse" y2="1092.1113" xlink:type="simple" xlink:actuate="onLoad" id="XMLID_25_" xlink:show="other">
            <stop stop-color="#e2e6e4" offset="0"/>
            <stop stop-color="#a3740a" offset="1"/>
        </linearGradient>
        <polygon fill="url(#XMLID_25_)" points="43.589,41.1 42.813,30.97 50.566,32.24 49.546,42.691 55.372,43.923 47.546,53.912    38.552,39.736  "/>
        <linearGradient x1="-673.7119" gradientTransform="matrix(1.1905 0 0 -1.1905 875.6733 1344.9003)" y1="1088.3262" x2="-677.3802" gradientUnits="userSpaceOnUse" y2="1106.0981" xlink:type="simple" xlink:actuate="onLoad" id="XMLID_26_" xlink:show="other">
            <stop stop-color="#ffffff" offset="0"/>
            <stop stop-color="#496da2" offset="0.71"/>
            <stop stop-color="#235487" offset="0.99"/>
            <stop stop-color="#235487" offset="1"/>
        </linearGradient>
        <polygon fill="url(#XMLID_26_)" points="69.06,38.647 72.706,35.668 71.405,26.926 68.205,26.022  "/>
        <linearGradient x1="-681.4111" gradientTransform="matrix(1.1905 0 0 -1.1905 875.6733 1344.9003)" y1="1123.4932" x2="-673.0121" gradientUnits="userSpaceOnUse" y2="1107.9381" xlink:type="simple" xlink:actuate="onLoad" id="XMLID_27_" xlink:show="other">
            <stop stop-color="#ffffff" offset="0"/>
            <stop stop-color="#496da2" offset="0.71"/>
            <stop stop-color="#235487" offset="0.99"/>
            <stop stop-color="#235487" offset="1"/>
        </linearGradient>
        <polygon fill="url(#XMLID_27_)" points="74.152,27.636 76.555,26.172 68.134,13.729 65.79,13.467  "/>
        <linearGradient x1="-680.3081" gradientTransform="matrix(1.1905 0 0 -1.1905 875.6733 1344.9003)" y1="1119.9619" x2="-680.3081" gradientUnits="userSpaceOnUse" y2="1101.0582" xlink:type="simple" xlink:actuate="onLoad" id="XMLID_28_" xlink:show="other">
            <stop stop-color="#ffffff" offset="0"/>
            <stop stop-color="#496da2" offset="0.71"/>
            <stop stop-color="#235487" offset="0.99"/>
            <stop stop-color="#235487" offset="1"/>
        </linearGradient>
        <polygon fill="url(#XMLID_28_)" points="68.938,26.788 69.031,38.647 60.811,36.217 61.794,25.825 57.414,25.057 65.803,13.467    74.152,27.621  "/>
        <rect width="84" fill="none" height="58"/>
    </g>
</svg>
