<?xml version="1.0" encoding="UTF-8"?>
<svg xmlns="http://www.w3.org/2000/svg" xmlns:xlink="http://www.w3.org/1999/xlink" contentScriptType="text/ecmascript" width="44" baseProfile="tiny" zoomAndPan="magnify" contentStyleType="text/css" viewBox="0 0 44 44" height="44" preserveAspectRatio="xMidYMid meet" version="1.0">
    <rect width="44" fill="none" height="44"/>
    <linearGradient x1="23.66" y1="8.23" x2="23.66" gradientUnits="userSpaceOnUse" y2="36.23" xlink:type="simple" xlink:actuate="onLoad" id="SVGID_1" xlink:show="other">
        <stop stop-color="#ffffff" offset="0"/>
        <stop stop-color="#ffffff" offset="1"/>
    </linearGradient>
    <path fill="url(#SVGID_1)" d="M 23.563 16.146 L 23.563 23.943 C 23.499 23.923 23.444 23.908 23.374 23.900002 C 22.101 23.724 20.515 24.527002 19.831 25.699 C 19.153002 26.869 19.643002 27.961002 20.919 28.131 C 22.194 28.313 23.774 27.506 24.458 26.34 C 24.647 26.006 24.739 25.678 24.753 25.381 C 24.759 25.367 24.765 25.36 24.771 25.35 C 24.771 25.036 24.771 19.577 24.771 19.577 L 27.804 21.198 L 27.804 18.694 L 23.563 16.146 z "/>
    <linearGradient x1="22" y1="3.96" x2="22" gradientUnits="userSpaceOnUse" y2="37.34" xlink:type="simple" xlink:actuate="onLoad" id="SVGID_2" xlink:show="other">
        <stop stop-color="#ffffff" offset="0"/>
        <stop stop-color="#ffffff" offset="1"/>
    </linearGradient>
    <path fill="url(#SVGID_2)" d="M 22.568 11.184 L 24.826 13.498 L 31.361 13.498 L 31.361 32.621 C 31.361 33.725 30.841 34.357 29.933 34.357 L 29.458 34.357 C 28.55 34.357 28.028 33.722 28.028 32.621 L 28.028 29.724998 L 16.127 29.724998 L 16.127 19.947998 L 13.820001 17.579 L 13.820001 29.724998 L 10.412001 29.724998 L 10.412001 32.621 C 10.412001 35.01 11.785001 36.678 13.744 36.678 L 30.254002 36.678 C 32.215 36.678 33.586 35.01 33.586 32.621 L 33.586 11.184 L 22.568 11.184 z M 14.336 34.357 C 13.43 34.357 12.906 33.722 12.906 32.621 C 12.906 32.621 12.906 32.299 12.906 32.040997 L 25.648 32.040997 C 25.648 32.298996 25.648 32.621 25.648 32.621 C 25.648 33.266 25.761 33.84 25.945 34.357 C 21.711 34.357 14.336 34.357 14.336 34.357 z "/>
    <linearGradient x1="16.77" y1="4.87" x2="16.77" gradientUnits="userSpaceOnUse" y2="38.25" xlink:type="simple" xlink:actuate="onLoad" id="SVGID_3" xlink:show="other">
        <stop stop-color="#ffffff" offset="0"/>
        <stop stop-color="#ffffff" offset="1"/>
    </linearGradient>
    <path fill="url(#SVGID_3)" d="M 21.578 13.51 L 19.238 15.789 C 19.089998 13.795 19.408 11.240001 17.681 9.121 C 16.161 7.258001 13.759 6.326 10.54 6.3500004 L 10.54 8.213 C 13.169 8.195001 15.093 8.899 16.241001 10.299 C 17.272 11.565 17.198002 13.678 17.376 15.872999 L 14.987001 13.415999 L 13.524001 14.837999 L 18.196 19.639 L 23.0 14.969 L 21.578 13.51 z "/>
</svg>
