<?xml version="1.0" encoding="UTF-8"?>
<svg xmlns="http://www.w3.org/2000/svg" xmlns:xlink="http://www.w3.org/1999/xlink" contentScriptType="text/ecmascript" width="60.157" baseProfile="tiny" zoomAndPan="magnify" contentStyleType="text/css" viewBox="-0.157 0 60.157 80" height="80" preserveAspectRatio="xMidYMid meet" version="1.0">
    <linearGradient x1="30.53" y1="40.25" x2="47.02" gradientUnits="userSpaceOnUse" y2="72.73" xlink:type="simple" xlink:actuate="onLoad" id="_33" xlink:show="other">
        <stop stop-color="#a2c2dd" offset="0"/>
        <stop stop-color="#a2c2dd" offset="0.1"/>
        <stop stop-color="#6c83bb" offset="0.71"/>
        <stop stop-color="#003d6d" offset="0.99"/>
        <stop stop-color="#003d6d" offset="1"/>
    </linearGradient>
    <path fill="url(#_33)" d="M -0.157 17.193 C -0.157 17.193 12.272 29.560001 12.469001 29.756 C 12.473001 29.978 12.496001 31.104 12.496001 31.104 C 12.496001 31.104 13.148002 31.294 13.554001 31.412 C 13.124001 31.655 12.5060005 32.005 12.5060005 32.005 L 12.700001 41.567 C 12.700001 41.567 13.35 41.77 13.76 41.899002 C 13.333 42.137 12.714001 42.483 12.714001 42.483 L 12.908001 52.038002 L 21.713001 55.028004 C 21.713001 55.028004 22.388 54.492004 22.843 54.128002 C 22.844 54.524002 22.846 55.164 22.846 55.164 C 22.846 55.164 23.559 55.415 24.025002 55.579002 C 23.547 55.844 22.855001 56.225002 22.855001 56.225002 L 22.882002 65.925 L 31.438002 69.164 L 35.946003 65.042 C 35.946003 65.042 36.031002 60.46 36.047005 59.641 C 36.818005 59.92 41.123005 61.489 41.123005 61.489 C 41.123005 61.489 42.489006 60.309 42.857006 59.995 C 43.295006 60.433 52.578007 69.667 52.578007 69.667 L 57.518005 64.706 C 57.518005 64.706 46.115005 53.356003 45.902004 53.145 C 45.912003 52.858 46.088005 48.026 46.088005 48.026 C 46.088005 48.026 45.400005 47.819 44.983006 47.694 C 45.403004 47.364 46.006004 46.883 46.006004 46.883 L 46.485004 36.997 C 46.485004 36.997 45.830006 36.811 45.444004 36.702003 C 45.865005 36.383003 46.465004 35.930004 46.465004 35.930004 L 46.939003 26.092003 L 37.795002 23.758003 C 37.795002 23.758003 37.279003 24.086002 36.910004 24.322002 C 36.922005 24.006002 36.946003 23.401003 36.946003 23.401003 L 27.668003 21.202003 C 27.668003 21.202003 27.004004 21.603003 26.546003 21.879004 C 26.556004 21.536003 26.575003 20.911003 26.575003 20.911003 L 18.109003 18.777002 C 18.109003 18.777002 13.940002 20.751003 13.537003 20.942001 C 13.202003 20.609001 4.7870026 12.236001 4.7870026 12.236001 L -0.157 17.193 z "/>
    <linearGradient x1="53.98" y1="23.11" x2="38.2" gradientUnits="userSpaceOnUse" y2="53.24" xlink:type="simple" xlink:actuate="onLoad" id="_34" xlink:show="other">
        <stop stop-color="#ffffff" offset="0"/>
        <stop stop-color="#a2c2dd" offset="0.35"/>
        <stop stop-color="#6c83bb" offset="0.7"/>
        <stop stop-color="#003d6d" offset="1"/>
    </linearGradient>
    <polygon fill="url(#_34)" points="31.494,59.345 35.754,56.494 35.599,64.884 31.36,68.76 "/>
    <linearGradient x1="10.39" y1="22.12" x2="32.49" gradientUnits="userSpaceOnUse" y2="61.88" xlink:type="simple" xlink:actuate="onLoad" id="_35" xlink:show="other">
        <stop stop-color="#ffffff" offset="0"/>
        <stop stop-color="#ffffff" offset="0.05"/>
        <stop stop-color="#a2c2dd" offset="1"/>
    </linearGradient>
    <polygon fill="url(#_35)" points="23.205,56.43 27.95,53.796 35.754,56.494 31.494,59.345 "/>
    <linearGradient x1="56.04" y1="55.64" x2="12.71" gradientUnits="userSpaceOnUse" y2="66.12" xlink:type="simple" xlink:actuate="onLoad" id="_36" xlink:show="other">
        <stop stop-color="#ffffff" offset="0"/>
        <stop stop-color="#ffffff" offset="0.05"/>
        <stop stop-color="#a2c2dd" offset="1"/>
    </linearGradient>
    <polygon fill="url(#_36)" points="31.494,59.345 31.36,68.76 23.231,65.682 23.205,56.43 "/>
    <polygon fill="url(#_34)" points="21.618,45.379 25.934,42.486 25.882,51.244 21.644,54.634 "/>
    <polygon fill="url(#_35)" points="13.068,42.686 17.889,40 25.934,42.486 21.618,45.379 "/>
    <polygon fill="url(#_36)" points="21.618,45.379 21.644,54.634 13.253,51.781 13.068,42.686 "/>
    <polygon fill="url(#_34)" points="31.627,48.41 35.974,45.477 35.764,54.382 31.487,57.829 "/>
    <polygon fill="url(#_35)" points="23.172,45.654 28.014,42.93 31.627,48.41 "/>
    <polygon fill="url(#_36)" points="31.627,48.41 31.487,57.829 23.195,54.911 23.172,45.654 "/>
    <polygon fill="url(#_34)" points="41.356,51.505 45.727,48.281 45.399,57.337 41.049,61.086 "/>
    <polygon fill="url(#_35)" points="37.873,45.927 45.727,48.281 41.356,51.505 "/>
    <polygon fill="url(#_36)" points="41.356,51.505 41.049,61.086 32.867,58.109 33.008,48.691 "/>
    <polygon fill="url(#_34)" points="21.568,34.739 25.915,40.521 21.593,43.999 "/>
    <polygon fill="url(#_35)" points="12.86,32.206 17.774,29.427 21.568,34.739 "/>
    <polygon fill="url(#_36)" points="21.568,34.739 21.593,43.999 13.045,41.307 12.86,32.206 "/>
    <polygon fill="url(#_34)" points="31.763,37.59 36.197,34.574 31.621,47.012 "/>
    <polygon fill="url(#_35)" points="23.142,34.999 36.197,34.574 31.763,37.59 "/>
    <polygon fill="url(#_36)" points="31.763,37.59 31.621,47.012 23.164,44.257 23.142,34.999 "/>
    <polygon fill="url(#_34)" points="41.684,40.5 46.121,37.256 45.662,46.706 41.375,50.084 "/>
    <polygon fill="url(#_35)" points="33.164,37.85 38.127,34.99 46.121,37.256 41.684,40.5 "/>
    <polygon fill="url(#_36)" points="41.684,40.5 41.375,50.084 33.021,47.271 33.164,37.85 "/>
    <polygon fill="url(#_34)" points="21.527,24.111 26.215,21.179 25.954,29.813 21.548,33.375 "/>
    <polygon fill="url(#_35)" points="12.662,21.738 18.143,19.144 26.215,21.179 21.527,24.111 "/>
    <polygon fill="url(#_36)" points="21.527,24.111 21.548,33.375 12.841,30.839 12.662,21.738 "/>
    <polygon fill="url(#_34)" points="31.903,26.782 36.584,23.672 36.207,32.593 31.758,36.205 "/>
    <polygon fill="url(#_35)" points="23.12,24.349 27.725,21.573 36.584,23.672 31.903,26.782 "/>
    <polygon fill="url(#_36)" points="31.903,26.782 31.758,36.205 23.138,33.612 23.12,24.349 "/>
    <polygon fill="url(#_34)" points="42.015,29.506 46.569,26.358 46.121,35.748 41.699,39.096 "/>
    <polygon fill="url(#_35)" points="33.324,27.017 37.852,24.131 46.569,26.358 42.015,29.506 "/>
    <polygon fill="url(#_36)" points="42.015,29.506 41.699,39.096 33.18,36.445 33.324,27.017 "/>
    <linearGradient x1="34.23" y1="35.4" x2="23.16" gradientUnits="userSpaceOnUse" y2="46.47" xlink:type="simple" xlink:actuate="onLoad" id="_64" xlink:show="other">
        <stop stop-color="#e6eef4" offset="0"/>
        <stop stop-color="#c03a3a" offset="0.44"/>
        <stop stop-color="#302d02" offset="0.94"/>
        <stop stop-color="#302d02" offset="1"/>
    </linearGradient>
    <polygon fill="url(#_64)" points="0.338,17.192 52.576,69.166 57.022,64.701 4.785,12.727 "/>
</svg>
