<?xml version="1.0" encoding="UTF-8"?>
<svg xmlns="http://www.w3.org/2000/svg" xmlns:xlink="http://www.w3.org/1999/xlink" contentScriptType="text/ecmascript" width="43.939" baseProfile="tiny" zoomAndPan="magnify" contentStyleType="text/css" viewBox="0 0 43.939 43.945" height="43.945" preserveAspectRatio="xMidYMid meet" version="1.1">
    <path fill="#ffffff" d="M 8.501 7.299 L 8.501 36.35 L 35.251 36.35 L 35.251 7.299 L 8.501 7.299 z M 10.819 33.973 L 10.819 14.525 L 32.821 14.525 L 32.821 33.972 L 10.819 33.973 L 10.819 33.973 z "/>
    <path fill="#ffffff" d="M 13.288 30.635 L 14.616 28.572 C 15.411 29.416 16.274 29.838001 17.207 29.838001 C 18.906 29.838001 19.757 29.041 19.757 27.445002 C 19.757 26.720001 19.51 26.131002 19.019 25.675001 C 18.526 25.220001 17.862 24.992 17.026999 24.992 L 16.554998 24.992 L 16.554998 22.804 L 16.953999 22.804 C 18.488998 22.804 19.256998 22.164001 19.256998 20.888 C 19.256998 19.550001 18.539997 18.882 17.106998 18.882 C 16.366 18.882 15.644999 19.23 14.945998 19.929 L 13.695998 18.101002 C 14.016998 17.703001 14.520998 17.355001 15.205998 17.060001 C 15.891998 16.763 16.574999 16.617 17.259998 16.617 C 18.758999 16.617 19.927998 16.957 20.767998 17.640001 C 21.605997 18.322 22.025997 19.277 22.025997 20.504002 C 22.025997 21.966002 21.394997 23.076002 20.133997 23.843002 C 21.728996 24.609003 22.525997 25.861002 22.525997 27.597002 C 22.525997 29.027002 22.050997 30.134003 21.104998 30.920002 C 20.157997 31.705002 18.848997 32.101 17.178997 32.101 C 15.658 32.104 14.361 31.613 13.288 30.635 z "/>
    <path fill="#ffffff" d="M 27.577 31.9 L 27.577 21.082 L 24.514 22.916 L 24.514 20.353 C 26.483 19.402 28.039 18.224 29.186 16.822 L 30.249 16.822 L 30.249 31.9 L 27.577 31.9 z "/>
</svg>
