<?xml version="1.0" encoding="UTF-8"?>
<svg xmlns="http://www.w3.org/2000/svg" xmlns:xlink="http://www.w3.org/1999/xlink" contentScriptType="text/ecmascript" width="20" baseProfile="tiny" zoomAndPan="magnify" contentStyleType="text/css" viewBox="0 0 20 20" height="20" preserveAspectRatio="xMidYMid meet" version="1.0">
    <path fill="#ffffff" d="M 13.065 13.983 L 13.065 15.179 L 6.934 15.179 L 6.934 14.43 C 6.934 13.715 7.058 13.08 7.305 12.526 C 7.553 11.971 7.858 11.499001 8.22 11.106 C 8.581 10.714 9.04 10.285 9.594 9.816999 C 10.259 9.257999 10.6779995 8.825999 10.853 8.518 C 11.026999 8.2109995 11.113999 7.9069996 11.113999 7.6039996 C 11.113999 7.0729995 10.973 6.6719995 10.690999 6.4049997 C 10.409999 6.1359997 9.9869995 6.003 9.421999 6.003 C 8.825999 6.003 8.104999 6.1559997 7.256999 6.4639997 L 7.243 6.4639997 L 7.243 5.239 C 8.132 4.96 8.998 4.82 9.842 4.82 C 10.882 4.82 11.673 5.0490003 12.213 5.505 C 12.754001 5.96 13.025001 6.6330004 13.025001 7.523 C 13.025001 8.021999 12.904 8.513 12.661 8.997 C 12.418 9.481 11.846001 10.101 10.942 10.856 C 10.438001 11.283 10.044001 11.638 9.759001 11.921 C 9.475 12.205999 9.236001 12.518999 9.041 12.858999 C 8.846001 13.200999 8.739 13.575999 8.721001 13.982999 L 13.065 13.982999 z "/>
</svg>
