<?xml version="1.0" encoding="UTF-8"?>
<svg xmlns="http://www.w3.org/2000/svg" xmlns:xlink="http://www.w3.org/1999/xlink" contentScriptType="text/ecmascript" width="44" baseProfile="tiny" zoomAndPan="magnify" contentStyleType="text/css" viewBox="0 0 44 44" height="44" preserveAspectRatio="xMidYMid meet" version="1.1">
    <path fill="#ffffff" d="M 28.417 15.255 L 26.595 17.077 C 28.328999 18.81 28.744999 20.647 28.595999 22.265 L 30.773998 24.446999 C 31.589 21.68 31.432 18.269 28.417 15.255 z "/>
    <path fill="#ffffff" d="M 33.505 9.851 L 31.683 11.673 C 37.524002 17.514 36.261 23.921001 34.372 28.051 L 36.263 29.942001 C 38.634 25.188 40.765 17.112 33.505 9.851 z "/>
    <polygon fill="#ffffff" points="19.722,11.67 19.722,13.381 21.943,15.605 21.943,9.724 16.024,9.679 17.999,11.656 "/>
    <polygon fill="#ffffff" points="19.722,32.371 16.439,32.371 12.073,25.104 7.722,25.104 7.722,18.688 11.929,18.688 12.094,18.421   9.981,16.306 5.5,16.306 5.5,27.497 10.714,27.497 14.821,34.331 21.943,34.331 21.943,28.281 19.722,26.059 "/>
    <polygon fill="#ffffff" points="5.699,8.481 8.496,5.679 38.3,35.521 35.503,38.32 "/>
</svg>
