<?xml version="1.0" encoding="UTF-8"?>
<svg xmlns="http://www.w3.org/2000/svg" xmlns:xlink="http://www.w3.org/1999/xlink" contentScriptType="text/ecmascript" width="12" baseProfile="tiny" zoomAndPan="magnify" contentStyleType="text/css" viewBox="0 0 12 200" height="200" preserveAspectRatio="xMidYMid meet" version="1.1">
    <g>
        <g>
            <g>
                <path d="M 0.0 35.461 L 0.0 164.461 C 0.0 167.371 2.804 170.0 6.0 170.0 C 9.195 170.0 12.0 167.371 12.0 164.461 L 12.0 35.461 C 12.0 34.0 11.318 32.608997 10.085 31.548998 C 8.939 30.564 7.451 30.0 6.0 30.0 C 2.804 30.0 0.0 32.551 0.0 35.461 z " fill-opacity="0.7"/>
                <linearGradient x1="-688.626" gradientTransform="matrix(1 0 0 -1 694.626 1195.9688)" y1="1026.9688" x2="-688.626" gradientUnits="userSpaceOnUse" y2="1164.9688" xlink:type="simple" xlink:actuate="onLoad" id="XMLID_2_" xlink:show="other">
                    <stop stop-color="#ffffff" offset="0"/>
                    <stop stop-color="#52a2a5" offset="1"/>
                </linearGradient>
                <path fill="url(#XMLID_2_)" d="M 6.0 169.0 C 3.516 169.0 1.0 166.924 1.0 164.461 L 1.0 35.461 C 1.0 32.998 3.516 31.0 6.0 31.0 L 6.0 31.0 C 8.486 31.0 11.0 32.998 11.0 35.461 L 11.0 164.461 C 11.0 166.924 8.486 169.0 6.0 169.0 L 6.0 169.0 z "/>
                <g stroke-opacity="0.4" fill-opacity="0.4">
                    <g>
                        <path fill="#417ed3" d="M 11.0 35.461 C 11.0 32.998 8.486 31.0 6.0 31.0 C 3.516 31.0 1.0 32.998 1.0 35.461 L 1.0 99.923996 L 2.0 99.923996 L 2.0 35.875 C 2.0 33.959 4.067 32.453 6.0 32.453 C 7.936 32.453 10.0 33.959 10.0 35.875 L 10.0 99.924 L 11.0 99.924 "/>
                    </g>
                </g>
                <path fill="#417ed3" d="M 10.0 164.453 C 10.0 166.369 7.936 168.0 6.0 168.0 C 4.067 168.0 2.0 166.369 2.0 164.453 L 2.0 99.924 L 1.0 99.924 L 1.0 164.461 C 1.0 166.924 3.516 169.0 6.0 169.0 C 8.486 169.0 11.0 166.924 11.0 164.461 L 11.0 99.924 L 10.0 99.924 L 10.0 164.453 z " fill-opacity="0.4"/>
            </g>
            <rect width="12" fill="none" height="200"/>
        </g>
    </g>
</svg>
