<?xml version="1.0" encoding="UTF-8"?>
<svg xmlns="http://www.w3.org/2000/svg" xmlns:xlink="http://www.w3.org/1999/xlink" contentScriptType="text/ecmascript" width="332" baseProfile="tiny" zoomAndPan="magnify" contentStyleType="text/css" viewBox="0 0 332 82" height="82" preserveAspectRatio="xMidYMid meet" version="1.0">
    <g>
        <g stroke-opacity="0.65" fill-opacity="0.65">
            <path d="M 23.0 1.0 C 23.0 1.0 23.0 9.344 23.0 11.01 C 11.963 11.069 3.0 20.057 3.0 31.11 L 3.0 60.885002 C 3.0 71.198 10.691 79.754 20.908 80.867004 C 20.924002 80.871 20.94 80.87501 20.961 80.879005 C 20.992 80.881004 21.021 80.893005 21.052 80.897 C 21.052 80.897 21.01 80.887 20.975 80.879005 C 21.139 80.90201 21.538 80.922005 23.006 80.99801 L 304.894 81.0 C 317.083 81.0 327.0 71.08 327.0 58.885 L 327.0 31.109 C 327.0 25.731998 324.906 20.678999 321.104 16.882 C 317.305 13.087 312.258 11.003 306.89 11.009 L 42.617 11.009 L 32.625 1.0 L 23.0 1.0 z " fill-opacity="0.01" stroke-opacity="0.01"/>
            <path d="M 24.0 2.0 C 24.0 2.0 24.0 10.318 24.0 11.998 C 23.555 11.998 23.106 11.998 23.106 11.998 C 12.571 11.998 4.0 20.572 4.0 31.109 L 4.0 60.884 C 4.0 70.73 11.374 78.906 21.152 79.9 C 21.154001 79.902 23.056 79.998 23.056 79.998 L 304.894 80.0 C 316.531 80.0 326.0 70.527 326.0 58.885 L 326.0 31.109 C 326.0 26.0 324.01 21.199 320.396 17.588999 C 316.788 13.984999 311.992 12.002998 306.88998 12.008999 L 42.203 12.008999 L 32.25 2.0 L 24.0 2.0 z " fill-opacity="0.03" stroke-opacity="0.03"/>
            <path d="M 25.0 3.0 C 25.0 3.0 25.0 11.318 25.0 12.998 C 24.144 12.998 23.105999 12.998 23.105999 12.998 C 13.123 12.998 5.0 21.123 5.0 31.109 L 5.0 60.884 C 5.0 70.214 11.988 77.962 21.254 78.905 C 21.258999 78.905 23.107 78.999 23.107 78.999 L 304.89398 78.999 C 315.98 79.0 325.0 69.977 325.0 58.885 L 325.0 31.109 C 325.0 26.266998 323.114 21.716 319.69 18.296 C 316.27 14.879999 311.725 13.002999 306.892 13.008999 L 41.789 13.008999 L 31.75 3.0 L 25.0 3.0 z " fill-opacity="0.05" stroke-opacity="0.05"/>
            <path d="M 306.894 14.01 L 41.375 14.01 L 31.375 4.0 L 26.0 4.0 L 26.0 13.998 L 23.105999 13.998 C 13.659 13.998 6.0 21.658 6.0 31.109 L 6.0 60.884 C 6.0 69.743 12.73 77.032 21.355 77.910995 C 21.932 77.967 22.516 78.0 23.106 78.0 L 304.89297 78.0 C 315.429 78.0 324.0 69.426 324.0 58.885 L 324.0 31.109 C 324.0 21.658 316.342 13.998 306.894 14.01 z " fill-opacity="0.07" stroke-opacity="0.07"/>
            <path d="M 305.894 15.0 L 41.0 15.0 L 31.0 5.0 L 26.0 5.0 L 26.0 13.998 L 24.105999 13.998 C 14.659 13.998 7.0 21.658 7.0 31.109 L 7.0 59.884 C 7.0 68.743 13.73 76.032 22.355 76.910995 C 22.932 76.967 23.516 77.0 24.106 77.0 L 304.89297 77.0 C 314.877 77.0 323.0 68.873 323.0 58.885 L 323.0 31.109 C 323.0 21.658 315.342 14.988 305.894 15.0 z " fill-opacity="0.11" stroke-opacity="0.11"/>
            <path fill="#5f9ea0" d="M 304.894 14.0 L 39.999 14.0 L 27.999 2.0 L 26.0 2.0 L 26.0 13.988 L 23.105999 13.988 C 13.659 13.988 6.0 21.648 6.0 31.1 L 6.0 58.885002 C 6.0 68.336 13.659 76.0 23.106 76.0 L 304.89297 76.0 C 314.342 76.0 322.0 68.336 322.0 58.885 L 322.0 31.1 C 322.0 21.648 314.342 13.988 304.894 14.0 z "/>
            <rect width="332" fill="none" height="82"/>
        </g>
    </g>
</svg>
