<?xml version="1.0" encoding="UTF-8"?>
<svg xmlns="http://www.w3.org/2000/svg" xmlns:xlink="http://www.w3.org/1999/xlink" contentScriptType="text/ecmascript" width="100" baseProfile="tiny" zoomAndPan="magnify" contentStyleType="text/css" viewBox="0.004 0.086 100 69" height="69" preserveAspectRatio="xMidYMid meet" version="1.1">
    <rect x="0" width="100" fill="none" y="0" height="69.047"/>
    <linearGradient x1="-655.2074" gradientTransform="matrix(1 0 0 -1 694.626 1065.1409)" y1="1053.3605" x2="-636.5773" gradientUnits="userSpaceOnUse" y2="1005.1199" xlink:type="simple" xlink:actuate="onLoad" id="XMLID_961_" xlink:show="other">
        <stop stop-color="#aabbd7" offset="0"/>
        <stop stop-color="#92a5cc" offset="0.2634"/>
        <stop stop-color="#6c83bb" offset="0.7135"/>
        <stop stop-color="#637db5" offset="0.7446"/>
        <stop stop-color="#4c6ea4" offset="0.7945"/>
        <stop stop-color="#265689" offset="0.8563"/>
        <stop stop-color="#003d6d" offset="0.9101"/>
        <stop stop-color="#003d6d" offset="1"/>
    </linearGradient>
    <path fill="url(#XMLID_961_)" d="M 35.258 13.348 L 35.258 13.348 C 35.347 13.403 35.475998 13.474999 35.653 13.563 L 35.653 13.563 C 36.133 13.806 36.98 14.172999 38.398 14.6449995 L 38.398 14.6449995 C 39.417 14.985999 40.125 15.106 40.619 15.106 L 40.619 15.106 C 41.162 15.102 41.447 14.977 41.715 14.802 L 41.715 14.802 L 42.212 14.877 C 43.151 16.024 44.297 18.008 44.297 20.812 L 44.297 20.812 C 44.297 22.475 43.894 24.416 42.827 26.629 L 42.827 26.629 C 38.693 35.132 35.383 34.406 35.256 41.834 L 35.256 41.834 C 35.145 47.061 33.432 48.065998 32.956 48.190998 L 32.956 48.190998 C 32.79 48.224 32.483 48.253998 32.094 48.253998 L 32.094 48.253998 C 31.835001 48.253998 31.552002 48.237 31.277002 48.190998 L 31.277002 48.190998 C 31.009003 48.163 30.270002 48.059998 29.816002 47.211998 L 29.816002 47.211998 C 29.346003 46.379997 29.008001 44.911 28.950003 42.024 L 28.950003 42.024 C 28.823002 34.595997 25.512003 35.322998 21.379002 26.815998 L 21.379002 26.815998 C 20.311 24.606998 19.907001 22.661999 19.907001 20.999998 L 19.907001 20.999998 C 19.907001 18.069998 21.157001 16.034998 22.119001 14.914998 L 22.119001 14.914998 L 22.6 14.84 C 22.848 14.992001 23.126 15.102 23.633 15.104 L 23.633 15.104 C 24.126999 15.104 24.833 14.983 25.852 14.645 L 25.852 14.645 C 27.790998 14.0 28.661 13.551001 28.991999 13.35 L 28.991999 13.35 C 28.943998 13.09 28.888998 12.647 28.888998 11.968 L 28.888998 11.968 C 28.888998 11.918 28.886997 11.857 28.888998 11.803 L 28.888998 11.803 C 28.896997 11.086 28.958998 10.614 29.014997 10.328 L 29.014997 10.328 C 28.530998 10.12 27.493998 9.698 26.410997 9.404 L 26.410997 9.404 C 24.888998 8.987 23.514997 8.7890005 22.980997 8.785 L 22.980997 8.785 C 22.967997 8.787 22.960997 8.785 22.958998 8.785 L 22.958998 8.785 L 22.958998 8.785 L 22.958998 8.785 C 22.956997 8.785 22.954998 8.785 22.953999 8.785 L 22.953999 8.785 L 22.953999 8.783 L 22.944998 8.785 C 22.506998 8.783 21.989998 9.035 21.639997 9.290999 L 21.639997 9.290999 L 21.643997 9.292999 C 21.632998 9.315999 21.617998 9.362999 21.603996 9.424999 L 21.603996 9.424999 C 21.571997 9.548999 21.552996 9.730999 21.541996 9.923999 L 21.541996 9.923999 L 21.364996 10.222999 C 20.960997 10.472999 16.327995 13.472999 16.336996 19.647999 L 16.336996 19.647999 C 16.336996 20.895998 16.523996 22.278 16.977997 23.801998 L 16.977997 23.801998 C 19.534996 32.514 25.022997 38.281 25.221996 41.048996 L 25.221996 41.048996 C 25.226995 41.153996 25.226995 41.269997 25.226995 41.388996 L 25.226995 41.388996 C 25.226995 42.054996 25.171995 42.970997 25.173996 43.997997 L 25.173996 43.997997 C 25.169996 45.692997 25.320995 47.677998 26.042995 49.182 L 26.042995 49.182 C 26.775995 50.682 27.971996 51.723 30.321995 51.740997 L 30.321995 51.740997 C 30.345995 51.740997 30.368996 51.740997 30.391994 51.742996 L 30.391994 51.742996 L 30.745995 52.133995 C 30.736994 52.332996 30.729994 52.555996 30.727995 52.821995 L 30.727995 52.821995 C 30.734995 54.325996 30.919994 56.805996 32.195995 59.065994 L 32.195995 59.065994 C 33.413994 61.289993 35.923996 63.204994 39.858994 63.208996 L 39.858994 63.208996 C 39.904995 63.208996 39.947994 63.208996 39.99399 63.208996 L 39.99399 63.208996 C 42.36199 63.206997 45.240993 62.601997 48.80899 61.175995 L 48.80899 61.175995 C 52.67999 59.628994 54.89799 56.769997 56.47599 54.486996 L 56.47599 54.486996 C 57.24099 53.396996 58.54599 50.173996 58.91499 46.986996 L 58.91499 46.986996 C 59.02799 46.038994 59.06899 45.040997 59.06899 44.092995 L 59.06899 44.092995 C 59.070988 42.038994 58.85999 40.212994 58.758987 39.782993 L 58.758987 39.782993 C 58.586987 39.037994 55.81099 27.230993 55.799988 24.714993 L 55.799988 24.714993 C 55.799988 24.713993 55.79799 24.701992 55.799988 24.677992 L 55.799988 24.677992 C 55.8 24.67 55.8 24.664 55.8 24.656 L 55.8 24.656 C 55.802 23.889 55.927 23.33 56.184 22.921 L 56.184 22.921 C 56.359997 22.635 56.639 22.352 57.091 22.137 L 57.091 22.137 L 57.577 22.279999 C 58.681 24.112999 60.542 25.352 62.372 25.343998 L 62.372 25.343998 C 63.546 25.357998 65.521 24.739998 66.348 23.982998 L 66.348 23.982998 C 66.399 23.941998 66.451996 23.865997 66.612 23.695997 L 66.612 23.695997 C 68.151 22.588997 69.208 20.556997 69.208 18.217997 L 69.208 18.217997 C 69.206 14.640997 66.767 11.831997 63.874 11.822996 L 63.874 11.822996 L 63.874 11.445996 L 63.874 11.072996 C 67.286 11.083996 69.952 14.316996 69.958 18.217997 L 69.958 18.217997 C 69.956 20.781996 68.806 23.036997 67.114 24.243996 L 67.114 24.243996 C 67.055 24.308996 66.980995 24.422997 66.848 24.542995 L 66.848 24.542995 C 65.766 25.483995 63.77 26.081995 62.372 26.095995 L 62.372 26.095995 C 60.314003 26.087996 58.370003 24.821995 57.134003 22.978994 L 57.134003 22.978994 C 56.985004 23.085995 56.903004 23.191994 56.817 23.320995 L 56.817 23.320995 C 56.673 23.545996 56.552002 23.971996 56.552002 24.656996 L 56.552002 24.656996 L 56.542004 24.656996 L 56.544003 24.713995 L 56.552002 24.713995 C 56.552002 24.713995 56.555 24.713995 56.552002 24.725994 L 56.552002 24.725994 C 56.550003 27.000994 59.323 38.919994 59.491 39.612995 L 59.491 39.612995 C 59.614002 40.169994 59.814003 41.975994 59.816 44.092995 L 59.816 44.092995 C 59.816 45.057995 59.775 46.085995 59.661003 47.072994 L 59.661003 47.072994 C 59.259003 50.406994 57.964005 53.640995 57.093002 54.910995 L 57.093002 54.910995 C 55.495003 57.221996 53.169003 60.240997 49.087 61.871994 L 49.087 61.871994 C 45.457 63.318993 42.489002 63.953995 40.001 63.956993 L 40.001 63.956993 C 39.951 63.95999 39.903 63.95999 39.857 63.95999 L 39.857 63.95999 C 35.667 63.963993 32.868 61.87599 31.536 59.428993 L 31.536 59.428993 C 30.168 56.99399 29.986 54.387993 29.977 52.824993 L 29.977 52.824993 C 29.977 52.703995 29.979 52.592995 29.980999 52.484993 L 29.980999 52.484993 C 27.585 52.39099 26.122 51.13299 25.362 49.505993 L 25.362 49.505993 C 24.559 47.812992 24.424 45.73799 24.421 43.999992 L 24.421 43.999992 C 24.421 42.948994 24.476 42.017994 24.476 41.39099 L 24.476 41.39099 C 24.476 41.27599 24.473999 41.17099 24.471 41.07999 L 24.471 41.07999 C 24.460001 38.98999 18.867 32.80399 16.254002 24.01699 L 16.254002 24.01699 C 15.7820015 22.424992 15.584002 20.97199 15.584002 19.64899 L 15.584002 19.64899 C 15.593001 13.50699 19.840002 10.333991 20.811 9.688991 L 20.811 9.688991 C 20.842001 9.321991 20.863 8.98999 21.184 8.69499 L 21.184 8.69499 C 21.602 8.39499 22.202 8.06199 22.884 8.03899 L 22.884 8.03899 C 22.915 8.03299 22.929 8.03499 22.938002 8.03499 L 22.938002 8.03499 C 22.943 8.03499 22.947002 8.037991 22.952002 8.03499 L 22.952002 8.03499 C 23.600002 8.037991 24.996002 8.245991 26.607002 8.681991 L 26.607002 8.681991 C 28.166002 9.108991 29.599003 9.7689905 29.611002 9.77299 L 29.611002 9.77299 L 29.803001 10.247991 C 29.808 10.24999 29.776001 10.31299 29.733002 10.56099 L 29.733002 10.56099 C 29.690002 10.8089905 29.644001 11.21199 29.637001 11.82699 L 29.637001 11.82699 C 29.635 11.86399 29.635 11.91099 29.635 11.97099 L 29.635 11.97099 C 29.635 12.50899 29.671 12.87599 29.707 13.10299 L 29.707 13.10299 C 29.741001 13.32999 29.767 13.39199 29.767 13.39199 L 29.767 13.39199 L 29.667 13.791989 C 29.594 13.854989 28.973 14.39399 26.084 15.359989 L 26.084 15.359989 C 25.021 15.711989 24.244 15.85399 23.63 15.855989 L 23.63 15.855989 C 23.168999 15.857989 22.796999 15.769989 22.493 15.63499 L 22.493 15.63499 C 21.644001 16.70299 20.653 18.48499 20.653 21.00199 L 20.653 21.00199 C 20.653 22.544989 21.025 24.36899 22.05 26.49399 L 22.05 26.49399 C 25.981998 34.70499 29.526 34.19899 29.692999 42.00999 L 29.692999 42.00999 C 29.745998 44.84399 30.103998 46.22699 30.463 46.84399 L 30.463 46.84399 C 30.835 47.43999 31.047998 47.38099 31.401 47.45699 L 31.401 47.45699 C 31.616 47.493988 31.862999 47.50999 32.09 47.50999 L 32.09 47.50999 C 32.408 47.50999 32.702 47.47699 32.784 47.46299 L 32.784 47.46299 C 32.791 47.45699 32.806 47.45099 32.827 47.44199 L 32.827 47.44199 C 32.868 47.41899 32.931 47.37899 33.006 47.31299 L 33.006 47.31299 C 33.158 47.183987 33.364002 46.95799 33.578 46.56699 L 33.578 46.56699 C 34.004997 45.79199 34.454 44.36199 34.503998 41.82299 L 34.503998 41.82299 C 34.671997 34.01199 38.212997 34.51599 42.148 26.307991 L 42.148 26.307991 C 43.173 24.18099 43.543 22.354992 43.543 20.814991 L 43.543 20.814991 C 43.543 18.414991 42.642 16.68699 41.822998 15.604991 L 41.822998 15.604991 C 41.509 15.754991 41.114 15.860991 40.615997 15.856991 L 40.615997 15.856991 C 40.002 15.856991 39.222996 15.713991 38.158997 15.360991 L 38.158997 15.360991 C 35.270996 14.3939905 34.649 13.85499 34.578995 13.792991 L 34.578995 13.792991 L 34.476994 13.392991 C 34.462994 13.387991 34.608994 13.048991 34.608994 11.971991 L 34.608994 11.971991 C 34.605995 11.917991 34.605995 11.865991 34.608994 11.81299 L 34.608994 11.81299 C 34.601994 11.21399 34.553993 10.81099 34.510994 10.56299 L 34.510994 10.56299 C 34.467995 10.31599 34.440994 10.24999 34.440994 10.24999 L 34.440994 10.24999 L 34.632996 9.77499 C 34.644997 9.77099 36.077995 9.110991 37.636997 8.6839905 L 37.636997 8.6839905 C 39.245 8.245991 40.638996 8.04199 41.291996 8.03699 L 41.291996 8.03699 C 41.293995 8.03699 41.313995 8.03699 41.305996 8.03999 L 41.305996 8.03999 C 42.008995 8.04699 42.629997 8.38899 43.058994 8.69699 L 43.058994 8.69699 C 43.340996 8.94899 43.378994 9.22199 43.413994 9.52099 L 43.413994 9.52099 C 44.430992 10.20399 48.601994 13.37599 48.607994 19.459991 L 48.607994 19.459991 C 48.607994 20.781992 48.410995 22.23899 47.940994 23.826992 L 47.940994 23.826992 C 45.329994 32.61599 39.73699 38.803993 39.725994 40.900993 L 39.725994 40.900993 C 39.715996 41.009995 39.713993 41.136993 39.713993 41.279995 L 39.713993 41.279995 C 39.713993 41.808994 39.740993 42.539993 39.740993 43.367996 L 39.740993 43.367996 C 39.740993 43.707996 39.738995 44.062996 39.726994 44.424995 L 39.726994 44.424995 C 39.721992 46.057995 39.542995 47.868996 38.76499 49.319996 L 38.76499 49.319996 C 37.956993 51.098995 36.366993 52.489998 33.701992 52.469997 L 33.701992 52.469997 C 33.644993 52.469997 33.587994 52.469997 33.567993 52.468 L 33.567993 52.468 C 33.560993 52.469997 33.553993 52.469997 33.546993 52.469997 L 33.546993 52.469997 C 33.54299 52.583996 33.540993 52.715996 33.539993 52.87 L 33.539993 52.87 C 33.539993 52.87 33.539993 52.87 33.539993 52.899 L 33.539993 52.899 C 33.534992 54.135 33.766994 56.170998 34.630993 57.661 L 34.630993 57.661 C 35.569992 59.19 36.776993 60.315 39.950993 60.391 L 39.950993 60.391 C 39.965992 60.389 39.977993 60.389 39.98699 60.389 L 39.98699 60.389 C 39.992992 60.389 39.99699 60.389 40.00099 60.389 L 40.00099 60.389 C 41.87699 60.391 44.429993 59.893 47.75999 58.561 L 47.75999 58.561 C 51.27399 57.153 52.958992 54.618 54.15799 52.885002 L 54.15799 52.885002 C 54.67899 52.135002 55.827988 49.578003 56.12299 46.905003 L 56.12299 46.905003 C 56.23799 45.858 56.28699 44.856003 56.28699 43.928 L 56.28699 43.928 C 56.28699 42.223 56.124992 40.768 55.93899 39.764 L 55.93899 39.764 C 55.651993 38.194 53.032993 27.896 52.98799 24.665 L 52.98799 24.665 C 52.98799 23.605001 53.15599 22.487001 53.76699 21.468 L 53.76699 21.468 C 54.24399 20.669 54.98399 20.046 55.86499 19.614 L 55.86499 19.614 C 55.82399 19.313 55.79899 19.008 55.79899 18.693 L 55.79899 18.693 C 55.786987 14.799001 58.183987 12.047001 61.55299 11.338001 L 61.55299 11.338001 C 62.00399 11.243001 62.54299 11.161001 63.05699 11.144001 L 63.05699 11.144001 C 63.31499 11.103001 63.58799 11.074001 63.87099 11.074001 L 63.87099 11.074001 L 63.87099 11.447001 L 63.87099 11.824001 C 63.64099 11.824001 63.40799 11.847001 63.12899 11.890001 L 63.12899 11.890001 C 62.62699 11.908001 62.12499 11.983002 61.708992 12.072001 L 61.708992 12.072001 C 58.65599 12.738002 56.560993 15.111002 56.55099 18.694002 L 56.55099 18.694002 C 56.55099 19.057003 56.58599 19.416002 56.64699 19.776003 L 56.64699 19.776003 L 56.42799 20.182003 C 55.54499 20.566004 54.83799 21.137003 54.40999 21.855003 L 54.40999 21.855003 C 53.89399 22.714003 53.737988 23.681004 53.73599 24.661003 L 53.73599 24.661003 C 53.766987 27.668003 56.37299 38.017002 56.675987 39.629005 L 56.675987 39.629005 C 56.868988 40.682007 57.032986 42.176006 57.032986 43.928005 L 57.032986 43.928005 C 57.032986 44.883007 56.984985 45.910004 56.864986 46.989006 L 56.864986 46.989006 C 56.540985 49.828007 55.392986 52.399006 54.771988 53.309006 L 54.771988 53.309006 C 53.579987 55.037006 51.76999 57.762005 48.036987 59.258007 L 48.036987 59.258007 C 44.642986 60.613007 42.00699 61.141006 39.998985 61.141006 L 39.998985 61.141006 L 39.980984 61.141006 L 39.980984 61.141006 C 36.591984 61.119007 34.974983 59.737007 33.981983 58.041008 L 33.981983 58.041008 C 33.007984 56.34401 32.790985 54.21901 32.786983 52.898006 L 32.786983 52.898006 C 32.786983 52.882008 32.783985 52.843006 32.788982 52.822006 L 32.788982 52.822006 C 32.788982 52.523006 32.800983 52.281006 32.81098 52.090008 L 32.81098 52.090008 L 33.16498 51.74101 C 33.300983 51.73401 33.42298 51.72601 33.54098 51.71901 L 33.54098 51.71901 C 33.593983 51.72101 33.64498 51.72101 33.697983 51.72101 L 33.697983 51.72101 C 36.099983 51.70501 37.322983 50.592007 38.092983 48.98301 L 38.092983 48.98301 C 38.781982 47.70901 38.972984 46.00101 38.974983 44.41201 L 38.974983 44.41201 C 38.986984 44.05601 38.988983 43.70501 38.988983 43.36901 L 38.988983 43.36901 C 38.988983 42.55601 38.961983 41.83601 38.961983 41.28001 L 38.961983 41.28001 C 38.961983 41.12501 38.96498 40.98101 38.973984 40.86201 L 38.973984 40.86201 C 39.170982 38.096012 44.661983 32.32701 47.218983 23.614012 L 47.218983 23.614012 C 47.667984 22.093012 47.85398 20.708012 47.85398 19.460012 L 47.85398 19.460012 C 47.86298 13.4130125 43.42498 10.415012 42.86098 10.056012 L 42.86098 10.056012 L 42.694 9.77 C 42.676 9.537001 42.628 9.332001 42.6 9.286 L 42.6 9.286 C 42.259 9.0390005 41.764 8.7960005 41.294 8.784 L 41.294 8.784 L 41.294 8.786 C 40.778 8.784 39.384 8.981 37.836 9.405001 L 37.836 9.405001 C 36.754997 9.699 35.718 10.120001 35.232998 10.327001 L 35.232998 10.327001 C 35.288998 10.613001 35.35 11.088 35.357998 11.807001 L 35.357998 11.807001 C 35.357998 11.862001 35.357998 11.916001 35.357998 11.968001 L 35.357998 11.968001 M 42.6 9.283 L 42.601997 9.283 C 42.601997 9.282 42.601997 9.282 42.601997 9.282 L 42.601997 9.282 C 42.602 9.282 42.601 9.283 42.6 9.283 L 42.6 9.283 z "/>
    <linearGradient x1="-662.5209" gradientTransform="matrix(1 0 0 -1 694.626 1065.1409)" y1="1058.8693" x2="-662.5209" gradientUnits="userSpaceOnUse" y2="991.0211" xlink:type="simple" xlink:actuate="onLoad" id="XMLID_962_" xlink:show="other">
        <stop stop-color="#ffffff" offset="0"/>
        <stop stop-color="#a2c2dd" offset="0.35"/>
        <stop stop-color="#6c83bb" offset="0.7"/>
        <stop stop-color="#003d6d" offset="1"/>
    </linearGradient>
    <path fill="url(#XMLID_962_)" d="M 47.589 23.756 C 50.445 14.092001 43.002 9.731001 43.002 9.731001 L 40.767998 14.002001 C 40.767998 14.002001 46.526997 18.147001 42.492996 26.504002 C 38.458996 34.859 35.032997 34.244003 34.885998 41.865 C 34.786 47.021004 33.067997 47.822002 32.879997 47.861 C 32.692997 47.902 31.965998 47.968 31.344997 47.861 C 30.724997 47.754 29.437998 47.775 29.326998 42.052002 C 29.179998 34.432003 25.752998 35.047 21.719997 26.690002 C 17.685997 18.335003 23.444998 14.190002 23.444998 14.190002 L 21.209 9.92 C 21.209 9.92 13.766 14.281 16.621 23.945 C 19.207 32.695 24.747002 38.672 24.852001 41.1 C 24.956001 43.53 23.575 52.302998 30.490002 52.158997 C 31.275002 52.221996 32.972 52.177 33.546 52.129997 C 40.462 52.274998 39.253002 43.340996 39.359 40.910995 C 39.463 38.483 45.004 32.506 47.589 23.756 z "/>
    <path fill="#ffffff" d="M 30.487 51.758 C 23.571 51.903 25.227 43.526 25.123 41.096 C 25.018 38.668 19.477 32.692 16.891998 23.942001 C 14.037 14.278 21.48 9.917 21.48 9.917 L 22.036 11.499 C 22.036 11.499 15.432999 18.366 19.467999 26.723999 C 23.502998 35.082 25.863998 34.576 26.010998 42.195 C 26.120998 47.918 26.072998 48.55 27.015997 49.873 C 27.958 51.192 30.487 51.758 30.487 51.758 z " fill-opacity="0.4"/>
    <path fill="#ffffff" d="M 33.894 51.561 C 40.81 51.707 39.154 43.33 39.259003 40.901 C 39.363003 38.471 44.904003 32.496002 47.489002 23.746 C 50.343002 14.082001 42.902 9.721001 42.902 9.721001 L 42.345 11.303 C 42.345 11.303 48.949 18.172 44.913002 26.53 C 40.88 34.885002 38.517002 34.38 38.370003 41.999 C 38.260002 47.722 38.309002 48.356 37.366 49.677002 C 36.423 50.996 33.894 51.561 33.894 51.561 z " fill-opacity="0.4"/>
    <linearGradient x1="-628.9906" gradientTransform="matrix(1 0 0 -1 694.626 1065.1409)" y1="1051.8722" x2="-638.5839" gradientUnits="userSpaceOnUse" y2="1035.3717" xlink:type="simple" xlink:actuate="onLoad" id="XMLID_963_" xlink:show="other">
        <stop stop-color="#e6eef4" offset="0"/>
        <stop stop-color="#9ec8d1" offset="0.1492"/>
        <stop stop-color="#62a9b3" offset="0.2883"/>
        <stop stop-color="#3d95a1" offset="0.3901"/>
        <stop stop-color="#2f8e9a" offset="0.4438"/>
        <stop stop-color="#247c90" offset="0.5242"/>
        <stop stop-color="#115a7d" offset="0.699"/>
        <stop stop-color="#044571" offset="0.8433"/>
        <stop stop-color="#003d6d" offset="0.9382"/>
        <stop stop-color="#003d6d" offset="1"/>
    </linearGradient>
    <path fill="url(#XMLID_963_)" d="M 65.245 12.004 C 66.859 13.198999 67.599 16.307 67.599 18.730999 C 67.599 20.946 67.993 23.064999 66.603 24.299 C 65.649994 25.149 63.664997 25.754 62.378 25.754 C 59.225998 25.754 56.181 22.469 56.181 18.730999 C 56.181 14.992999 58.425 12.429998 61.638 11.742999 C 62.723 11.51 64.368 11.355 65.245 12.004 z "/>
    <radialGradient gradientTransform="matrix(0.8305 0 0 -1 639.6239 1065.1409)" gradientUnits="userSpaceOnUse" xlink:type="simple" r="28.3202" xlink:actuate="onLoad" cx="-697.3885" id="XMLID_964_" cy="1057.4913" xlink:show="other">
        <stop stop-color="#d6e6ec" offset="0"/>
        <stop stop-color="#298595" offset="1"/>
    </radialGradient>
    <ellipse rx="5.709" ry="6.768" fill="url(#XMLID_964_)" cx="63.879" cy="18.254"/>
    <radialGradient gradientTransform="matrix(0.8305 0 0 -1 639.6239 1065.1409)" gradientUnits="userSpaceOnUse" xlink:type="simple" r="10.3017" xlink:actuate="onLoad" cx="-692.6874" id="XMLID_965_" cy="1042.8488" xlink:show="other">
        <stop stop-color="#d6e6ec" offset="0"/>
        <stop stop-color="#298595" offset="1"/>
    </radialGradient>
    <ellipse rx="4.363" ry="5.254" fill="url(#XMLID_965_)" cx="63.82" cy="18.289"/>
    <linearGradient x1="-631.538" gradientTransform="matrix(1 0 0 -1 694.626 1065.1409)" y1="1015.6085" x2="-667.9225" gradientUnits="userSpaceOnUse" y2="1033.5713" xlink:type="simple" xlink:actuate="onLoad" id="XMLID_966_" xlink:show="other">
        <stop stop-color="#ffffff" offset="0"/>
        <stop stop-color="#a2c2dd" offset="0.35"/>
        <stop stop-color="#6c83bb" offset="0.7"/>
        <stop stop-color="#003d6d" offset="1"/>
    </linearGradient>
    <path fill="url(#XMLID_966_)" d="M 31.87 59.279 C 30.551 56.933 30.367 54.39 30.359001 52.859 L 30.359001 52.859 C 30.359001 52.023003 30.425001 51.482002 30.43 51.437 L 30.43 51.437 L 30.43 51.439 L 33.223 51.783 C 33.224 51.783 33.213 51.857002 33.201 52.045002 L 33.201 52.045002 C 33.188 52.234 33.175 52.514004 33.175 52.859 L 33.175 52.859 C 33.166 54.13 33.38 56.261 34.319 57.888 L 34.319 57.888 C 35.287 59.5 36.702 60.756 40.001 60.8 L 40.001 60.8 C 41.944 60.802 44.542 60.288998 47.91 58.943 L 47.91 58.943 C 51.533 57.492 53.279 54.863 54.475998 53.13 L 54.475998 53.13 C 55.046997 52.303 56.195 49.734 56.503998 46.981003 C 56.839996 43.975002 56.609997 41.321003 56.315998 39.731003 C 56.018997 38.141003 53.408997 27.816002 53.37 24.702003 L 53.37 24.702003 C 53.371998 23.679003 53.534 22.638004 54.099 21.698004 L 54.099 21.698004 C 54.66 20.755003 55.622997 20.042004 56.808 19.659004 L 56.808 19.659004 L 57.697 22.331005 C 56.98 22.579004 56.706997 22.843004 56.508 23.157005 L 56.508 23.157005 C 56.311 23.475006 56.186 23.971004 56.188 24.702005 L 56.188 24.702005 C 56.149 26.968006 58.963 39.009007 59.133 39.731007 C 59.302998 40.453007 59.662 43.98501 59.297 47.063007 C 58.91 50.32501 57.611 53.55301 56.793 54.73301 L 56.793 54.73301 C 55.204998 57.03001 52.932 59.96901 48.956 61.55901 L 48.956 61.55901 C 45.357002 62.99501 42.434002 63.61601 40.002 63.61801 L 40.002 63.61801 C 39.957 63.61801 39.912 63.61801 39.867 63.61801 L 39.867 63.61801 C 35.802 63.617 33.146 61.617 31.87 59.279 L 31.87 59.279 z "/>
    <radialGradient gradientTransform="matrix(1 0 0 -1 694.626 1065.1409)" gradientUnits="userSpaceOnUse" xlink:type="simple" r="8.9231" xlink:actuate="onLoad" cx="-666.5785" id="XMLID_967_" cy="1057.0734" xlink:show="other">
        <stop stop-color="#e6eef4" offset="0"/>
        <stop stop-color="#c6dcc1" offset="0.0772"/>
        <stop stop-color="#91c06f" offset="0.211"/>
        <stop stop-color="#6bab33" offset="0.321"/>
        <stop stop-color="#539e0e" offset="0.4014"/>
        <stop stop-color="#4a9900" offset="0.4438"/>
        <stop stop-color="#398419" offset="0.5475"/>
        <stop stop-color="#22663b" offset="0.7125"/>
        <stop stop-color="#135550" offset="0.8486"/>
        <stop stop-color="#0e4e58" offset="0.9382"/>
        <stop stop-color="#0e4e58" offset="1"/>
    </radialGradient>
    <path fill="url(#XMLID_967_)" d="M 21.412 9.035 C 21.021 9.32 21.205 11.267 21.205 11.267 C 21.205 11.267 21.147 14.182 21.827 14.751 C 22.505 15.321 23.11 15.991 25.973 15.037001 C 28.835 14.083 29.418 13.548 29.418 13.548 C 29.418 13.548 29.251999 13.075001 29.268 11.842 C 29.282 10.609 29.459 10.148 29.459 10.148 C 29.459 10.148 28.034 9.4939995 26.513 9.08 C 24.925001 8.647 23.523 8.445 22.947 8.447 C 22.373 8.449 21.801 8.75 21.412 9.035 z "/>
    <radialGradient gradientTransform="matrix(1 0 0 -1 694.626 1065.1409)" gradientUnits="userSpaceOnUse" xlink:type="simple" r="11.9069" xlink:actuate="onLoad" cx="-666.4471" id="XMLID_968_" cy="1057.4191" xlink:show="other">
        <stop stop-color="#e6eef4" offset="0"/>
        <stop stop-color="#c6dcc1" offset="0.0772"/>
        <stop stop-color="#91c06f" offset="0.211"/>
        <stop stop-color="#6bab33" offset="0.321"/>
        <stop stop-color="#539e0e" offset="0.4014"/>
        <stop stop-color="#4a9900" offset="0.4438"/>
        <stop stop-color="#398419" offset="0.5475"/>
        <stop stop-color="#22663b" offset="0.7125"/>
        <stop stop-color="#135550" offset="0.8486"/>
        <stop stop-color="#0e4e58" offset="0.9382"/>
        <stop stop-color="#0e4e58" offset="1"/>
    </radialGradient>
    <path fill="url(#XMLID_968_)" d="M 21.777 9.453 C 21.387001 9.738 21.578001 11.687 21.578001 11.687 L 28.789001 11.842 L 28.794 10.47 C 28.794 10.47 28.082 9.968 26.562 9.554 C 24.974 9.121 23.57 8.918 22.995 8.921 C 22.419 8.924 22.165 9.168 21.777 9.453 z "/>
    <radialGradient gradientTransform="matrix(-1 0 0 -1 1109.1427 1065.1409)" gradientUnits="userSpaceOnUse" xlink:type="simple" r="8.9318" xlink:actuate="onLoad" cx="1072.9318" id="XMLID_969_" cy="1057.0734" xlink:show="other">
        <stop stop-color="#e6eef4" offset="0"/>
        <stop stop-color="#c6dcc1" offset="0.0772"/>
        <stop stop-color="#91c06f" offset="0.211"/>
        <stop stop-color="#6bab33" offset="0.321"/>
        <stop stop-color="#539e0e" offset="0.4014"/>
        <stop stop-color="#4a9900" offset="0.4438"/>
        <stop stop-color="#398419" offset="0.5475"/>
        <stop stop-color="#22663b" offset="0.7125"/>
        <stop stop-color="#135550" offset="0.8486"/>
        <stop stop-color="#0e4e58" offset="0.9382"/>
        <stop stop-color="#0e4e58" offset="1"/>
    </radialGradient>
    <path fill="url(#XMLID_969_)" d="M 42.845 9.035 C 43.236 9.32 43.052002 11.267 43.052002 11.267 C 43.052002 11.267 43.11 14.182 42.43 14.751 C 41.752 15.321 41.147 15.991 38.284 15.037001 C 35.422 14.083 34.839 13.548 34.839 13.548 C 34.839 13.548 35.005 13.075001 34.989002 11.842 C 34.975002 10.609 34.798 10.148 34.798 10.148 C 34.798 10.148 36.223 9.4939995 37.744 9.08 C 39.332 8.647 40.734 8.445 41.309998 8.447 C 41.884 8.449 42.456 8.75 42.845 9.035 z "/>
    <radialGradient gradientTransform="matrix(-1 0 0 -1 1109.1427 1065.1409)" gradientUnits="userSpaceOnUse" xlink:type="simple" r="11.9108" xlink:actuate="onLoad" cx="1073.0626" id="XMLID_970_" cy="1057.4191" xlink:show="other">
        <stop stop-color="#e6eef4" offset="0"/>
        <stop stop-color="#c6dcc1" offset="0.0772"/>
        <stop stop-color="#91c06f" offset="0.211"/>
        <stop stop-color="#6bab33" offset="0.321"/>
        <stop stop-color="#539e0e" offset="0.4014"/>
        <stop stop-color="#4a9900" offset="0.4438"/>
        <stop stop-color="#398419" offset="0.5475"/>
        <stop stop-color="#22663b" offset="0.7125"/>
        <stop stop-color="#135550" offset="0.8486"/>
        <stop stop-color="#0e4e58" offset="0.9382"/>
        <stop stop-color="#0e4e58" offset="1"/>
    </radialGradient>
    <path fill="url(#XMLID_970_)" d="M 42.479 9.453 C 42.869 9.738 42.678 11.687 42.678 11.687 L 35.467003 11.842 L 35.462 10.47 C 35.462 10.47 36.174004 9.968 37.694 9.554 C 39.282 9.121 40.686 8.918 41.261 8.921 C 41.838 8.924 42.092 9.168 42.479 9.453 z "/>
    <linearGradient x1="-642.4818" gradientTransform="matrix(1 0 0 -1 717.334 -1042.7655)" y1="-1098.8275" x2="-642.48" gradientUnits="userSpaceOnUse" y2="-1098.8313" xlink:type="simple" xlink:actuate="onLoad" id="XMLID_971_" xlink:show="other">
        <stop stop-color="#a2c2dd" offset="0"/>
        <stop stop-color="#a2c2dd" offset="0.1"/>
        <stop stop-color="#6c83bb" offset="0.7135"/>
        <stop stop-color="#003d6d" offset="0.9888"/>
        <stop stop-color="#003d6d" offset="1"/>
    </linearGradient>
    <path fill="url(#XMLID_971_)" d="M 74.852 56.067 L 74.85 56.057003 L 74.852 56.067 z "/>
    <radialGradient gradientTransform="matrix(1 0 0 1 717.3716 -4239.9014)" gradientUnits="userSpaceOnUse" xlink:type="simple" r="6.2037" xlink:actuate="onLoad" cx="-646.8798" id="XMLID_972_" cy="4295.3721" xlink:show="other">
        <stop stop-color="#e6eef4" offset="0"/>
        <stop stop-color="#dad9cb" offset="0.0644"/>
        <stop stop-color="#c3ae79" offset="0.2029"/>
        <stop stop-color="#b28f3d" offset="0.3167"/>
        <stop stop-color="#a77b18" offset="0.3999"/>
        <stop stop-color="#a3740a" offset="0.4438"/>
        <stop stop-color="#866408" offset="0.5594"/>
        <stop stop-color="#645107" offset="0.7193"/>
        <stop stop-color="#4f4505" offset="0.8514"/>
        <stop stop-color="#474105" offset="0.9382"/>
        <stop stop-color="#474105" offset="1"/>
    </radialGradient>
    <circle fill="url(#XMLID_972_)" r="3.806" cx="70.881" cy="56.751"/>
    <linearGradient x1="-622.1522" gradientTransform="matrix(1 0 0 -1 694.626 1065.1409)" y1="1047.256" x2="-622.1522" gradientUnits="userSpaceOnUse" y2="1008.4175" xlink:type="simple" xlink:actuate="onLoad" id="XMLID_973_" xlink:show="other">
        <stop stop-color="#e6eef4" offset="0"/>
        <stop stop-color="#dad9cb" offset="0.0644"/>
        <stop stop-color="#c3ae79" offset="0.2029"/>
        <stop stop-color="#b28f3d" offset="0.3167"/>
        <stop stop-color="#a77b18" offset="0.3999"/>
        <stop stop-color="#a3740a" offset="0.4438"/>
        <stop stop-color="#866408" offset="0.5594"/>
        <stop stop-color="#645107" offset="0.7193"/>
        <stop stop-color="#4f4505" offset="0.8514"/>
        <stop stop-color="#474105" offset="0.9382"/>
        <stop stop-color="#474105" offset="1"/>
    </linearGradient>
    <path fill="url(#XMLID_973_)" d="M 71.514 49.373 C 71.244 45.867 70.854 42.603 72.903 40.176003 C 74.949 37.749 79.0 33.652 76.621 28.256002 C 74.244 22.861002 68.422005 20.866003 64.971 22.485003 C 69.717 19.842003 77.119 21.199003 79.32 27.340002 C 81.423996 33.22 77.969 36.672 76.25 38.988003 C 74.525 41.308002 74.148 43.843002 74.309 47.674004 C 74.088 48.106 72.727 49.292 71.514 49.373 z "/>
    <linearGradient x1="-651.3685" gradientTransform="matrix(1 0 0 -1 717.334 -1042.7655)" y1="-1080.9867" x2="-651.3685" gradientUnits="userSpaceOnUse" y2="-1072.348" xlink:type="simple" xlink:actuate="onLoad" id="XMLID_974_" xlink:show="other">
        <stop stop-color="#e6eef4" offset="0"/>
        <stop stop-color="#dad9cb" offset="0.0644"/>
        <stop stop-color="#c3ae79" offset="0.2029"/>
        <stop stop-color="#b28f3d" offset="0.3167"/>
        <stop stop-color="#a77b18" offset="0.3999"/>
        <stop stop-color="#a3740a" offset="0.4438"/>
        <stop stop-color="#866408" offset="0.5594"/>
        <stop stop-color="#645107" offset="0.7193"/>
        <stop stop-color="#4f4505" offset="0.8514"/>
        <stop stop-color="#474105" offset="0.9382"/>
        <stop stop-color="#474105" offset="1"/>
    </linearGradient>
    <path fill="url(#XMLID_974_)" d="M 64.161 31.755 C 63.943005 28.164999 65.525 27.092999 67.79 27.069 C 66.759 27.485 66.55 28.974 66.378 30.36 C 65.891 31.169 65.245 31.601 64.161 31.755 "/>
    <path fill="#b18e3b" d="M 64.161 31.755 C 64.081 30.092999 65.273 27.085 68.236 27.217999 C 71.468 27.361998 72.677 30.835 72.564 32.411 C 72.476006 33.623 71.499 34.948997 69.968 36.823997 C 66.97 40.498997 67.075005 44.219997 67.337006 48.262997 C 68.55401 49.283997 69.62 49.739998 71.698006 49.376995 C 71.65301 46.583996 71.44 42.609993 73.12401 40.230995 C 75.06201 37.478996 76.66901 35.708996 77.116005 33.864994 C 78.018005 30.151995 76.55701 23.553993 69.462006 22.089994 C 64.259 21.014994 60.232006 24.747993 60.177006 30.466995 C 61.036 31.545 62.639 31.9 64.161 31.755 z "/>
</svg>
