<?xml version="1.0" encoding="UTF-8"?>
<svg xmlns="http://www.w3.org/2000/svg" xmlns:xlink="http://www.w3.org/1999/xlink" contentScriptType="text/ecmascript" width="44" baseProfile="tiny" zoomAndPan="magnify" contentStyleType="text/css" viewBox="-0.178 -0.186 44 44.001" height="44.001" preserveAspectRatio="xMidYMid meet" version="1.1">
    <g>
        <rect x="-0.178" width="44" fill="none" y="-0.186" height="44.001"/>
        <g>
            <g>
                <g>
                    <linearGradient x1="25.8223" y1="9.2915" x2="25.8223" gradientUnits="userSpaceOnUse" y2="32.6252" xlink:type="simple" xlink:actuate="onLoad" id="XMLID_5_" xlink:show="other">
                        <stop stop-color="#ffffff" offset="0"/>
                        <stop stop-color="#ffffff" offset="1"/>
                    </linearGradient>
                    <path fill="url(#XMLID_5_)" d="M 14.822 16.814 L 14.822 34.815 L 36.822 34.815 L 36.822 16.814 L 14.822 16.814 z M 34.857 18.786 C 34.857 20.432 34.857 31.196 34.857 32.842 C 33.137997 32.842 18.502998 32.842 16.787998 32.842 C 16.787998 31.196 16.787998 20.432 16.787998 18.786 C 18.504 18.786 33.139 18.786 34.857 18.786 z "/>
                </g>
                <linearGradient x1="25.8223" y1="9.291" x2="25.8223" gradientUnits="userSpaceOnUse" y2="32.6251" xlink:type="simple" xlink:actuate="onLoad" id="XMLID_6_" xlink:show="other">
                    <stop stop-color="#ffffff" offset="0"/>
                    <stop stop-color="#ffffff" offset="1"/>
                </linearGradient>
                <path fill="url(#XMLID_6_)" d="M 33.313 27.458 L 31.666 27.458 L 26.722 22.511 L 26.722 20.863 L 25.074 20.863 L 25.074 22.511 L 20.136 27.458 L 18.333 27.458 L 21.681 30.768 L 21.681 30.754 L 30.017 30.754 L 33.313 27.458 z M 25.072 27.458 L 21.773 27.458 L 25.072 24.159 L 25.072 27.458 z M 26.721 24.16 L 30.016 27.459 L 26.721 27.459 L 26.721 24.16 z "/>
            </g>
            <g>
                <linearGradient x1="21.8223" y1="9.2915" x2="21.8223" gradientUnits="userSpaceOnUse" y2="32.6245" xlink:type="simple" xlink:actuate="onLoad" id="XMLID_7_" xlink:show="other">
                    <stop stop-color="#ffffff" offset="0"/>
                    <stop stop-color="#ffffff" offset="1"/>
                </linearGradient>
                <path fill="url(#XMLID_7_)" d="M 32.822 12.814 L 10.821999 12.814 L 10.821999 30.815 L 12.788999 30.853998 C 12.788999 29.207998 12.788999 16.430998 12.788999 14.785997 C 14.503999 14.785997 31.058998 14.785997 32.777 14.785997 L 32.822 12.814 z "/>
            </g>
            <g>
                <linearGradient x1="17.8223" y1="9.2915" x2="17.8223" gradientUnits="userSpaceOnUse" y2="32.6245" xlink:type="simple" xlink:actuate="onLoad" id="XMLID_8_" xlink:show="other">
                    <stop stop-color="#ffffff" offset="0"/>
                    <stop stop-color="#ffffff" offset="1"/>
                </linearGradient>
                <path fill="url(#XMLID_8_)" d="M 28.822 8.814 L 6.822001 8.814 L 6.822001 26.815 L 8.7890005 26.853998 C 8.7890005 25.207998 8.7890005 12.430998 8.7890005 10.785997 C 10.504001 10.785997 27.059002 10.785997 28.777 10.785997 L 28.822 8.814 z "/>
            </g>
        </g>
    </g>
</svg>
