<?xml version="1.0" encoding="UTF-8"?>
<svg xmlns="http://www.w3.org/2000/svg" xmlns:xlink="http://www.w3.org/1999/xlink" contentScriptType="text/ecmascript" width="93.751" baseProfile="tiny" zoomAndPan="magnify" contentStyleType="text/css" viewBox="0.67 0.891 93.751 93.75" height="93.75" preserveAspectRatio="xMidYMid meet" version="1.1">
    <rect x="0.67" width="93.751" fill="none" y="0.891" height="93.75"/>
    <g>
        <path fill="#404040" d="M 93.16 47.758 C 87.578 38.286 79.997 30.529 70.734 24.703999 L 70.16 25.222998 C 79.090004 30.865997 86.4 38.364 91.791 47.51 C 86.359 56.724 78.98 64.265 69.961 69.923996 C 69.937996 69.963 69.909 70.004 69.885 70.04099 C 70.324005 70.453995 70.622 70.72099 70.742004 70.80499 C 80.003 64.98 87.579 57.227 93.16 47.758 z "/>
        <path d="M 70.16 25.223 L 70.08401 25.292 L 61.273006 33.253998 L 63.855007 36.539997 L 72.716 47.817997 L 72.707 47.829 L 72.738 47.871 L 64.009 58.670998 L 61.514004 61.76 L 63.340004 63.593998 C 65.29201 65.548996 68.299 68.545 69.837006 70.0 C 69.87701 69.977 69.91601 69.949 69.95701 69.926 C 78.97801 64.268005 86.35501 56.725002 91.78701 47.512 C 86.4 38.364 79.091 30.867 70.16 25.223 z "/>
    </g>
    <linearGradient x1="-1351.6909" gradientTransform="matrix(1.0417 0 0 1.0417 1467.9922 -746.4033)" y1="740.4854" x2="-1323.4832" gradientUnits="userSpaceOnUse" y2="763.5065" xlink:type="simple" xlink:actuate="onLoad" id="XMLID_2_" xlink:show="other">
        <stop stop-color="#ffffff" offset="0"/>
        <stop stop-color="#d9d9d9" offset="0.0644"/>
        <stop stop-color="#a7a7a7" offset="0.1609"/>
        <stop stop-color="#7a7a7a" offset="0.2621"/>
        <stop stop-color="#545454" offset="0.3662"/>
        <stop stop-color="#363636" offset="0.474"/>
        <stop stop-color="#1e1e1e" offset="0.5864"/>
        <stop stop-color="#0d0d0d" offset="0.7055"/>
        <stop stop-color="#030303" offset="0.8362"/>
        <stop stop-color="#000000" offset="1"/>
    </linearGradient>
    <path fill="url(#XMLID_2_)" d="M 59.918 31.619 C 59.918 31.619 65.131 27.354 68.26 25.932 C 68.26 25.932 78.781006 31.146 90.44 47.352997 C 90.438 47.354 75.652 31.713 59.918 31.619 z " fill-opacity="0.5"/>
    <g>
        <path fill="#00acee" d="M 84.268 44.778 L 82.487 44.778 L 82.487 42.996 C 82.487 41.565 81.326996 40.405 79.895 40.405 C 78.463 40.405 77.30299 41.565 77.30299 42.996 L 77.30299 44.778 L 75.52 44.778 C 74.088 44.778 72.92799 45.94 72.92799 47.369 C 72.92799 48.803 74.088 49.961 75.52 49.961 L 77.30299 49.961 L 77.30299 51.744 C 77.30299 53.176 78.463 54.336 79.895 54.336 C 81.326996 54.336 82.487 53.176 82.487 51.744 L 82.487 49.961 L 84.268 49.961 C 85.701 49.961 86.86 48.802998 86.86 47.369 C 86.859 45.939 85.699 44.778 84.268 44.778 z "/>
        <path fill="#ffffff" d="M 19.807 44.946 C 21.237999 44.946 22.398998 46.106 22.398998 47.537 L 22.398998 47.537 C 22.398998 48.968998 21.237999 50.128998 19.807 50.128998 L 11.058 50.128998 C 9.625999 50.128998 8.466 48.968998 8.466 47.537 L 8.466 47.537 C 8.466 46.106 9.625999 44.946 11.058 44.946 L 19.807 44.946 z " display="none"/>
        <g>
            <path fill="#ffffff" d="M 49.662 74.434 C 48.562 74.434 47.674 75.325 47.674 76.422 L 47.674 83.131 C 47.674 84.229 48.565 85.118996 49.662 85.118996 C 50.759 85.118996 55.003 80.87499 55.003 79.774994 C 55.003 78.68 50.758 74.434 49.662 74.434 z " display="none"/>
            <path fill="#ffffff" d="M 42.723 76.426 C 42.723 75.338005 43.607 74.452 44.697 74.452 L 44.697 74.452 C 45.787 74.452 46.670998 75.338005 46.670998 76.426 L 46.670998 83.088005 C 46.670998 84.178 45.787 85.063 44.697 85.063 L 44.697 85.063 C 43.607998 85.063 42.723 84.178 42.723 83.088005 L 42.723 76.426 z " display="none"/>
        </g>
        <g>
            <path fill="#ffffff" d="M 45.461 21.143 C 46.559 21.143 47.448997 20.254 47.448997 19.156 L 47.448997 12.448 C 47.448997 11.35 46.559 10.461 45.461 10.461 C 44.363 10.461 40.119 14.705 40.119 15.804001 C 40.119 16.898 44.363 21.143 45.461 21.143 z " display="none"/>
            <path fill="#ffffff" d="M 52.398 19.151 C 52.398 20.24 51.515 21.125 50.423 21.125 L 50.423 21.125 C 49.334 21.125 48.45 20.24 48.45 19.151001 L 48.45 12.49 C 48.45 11.4 49.334 10.516 50.423 10.516 L 50.423 10.516 C 51.515 10.516 52.398 11.4 52.398 12.49 L 52.398 19.151 z " display="none"/>
        </g>
    </g>
</svg>
