<?xml version="1.0" encoding="UTF-8"?>
<svg xmlns="http://www.w3.org/2000/svg" xmlns:xlink="http://www.w3.org/1999/xlink" contentScriptType="text/ecmascript" width="100" baseProfile="tiny" zoomAndPan="magnify" contentStyleType="text/css" viewBox="-0.329 -0.05 100 69" height="69" preserveAspectRatio="xMidYMid meet" version="1.1">
    <rect x="0" width="100.001" fill="none" y="0" height="69.047"/>
    <linearGradient x1="-655.2064" gradientTransform="matrix(1 0 0 -1 694.626 1064.8687)" y1="1053.0886" x2="-636.5762" gradientUnits="userSpaceOnUse" y2="1004.8476" xlink:type="simple" xlink:actuate="onLoad" id="XMLID_837_" xlink:show="other">
        <stop stop-color="#aabbd7" offset="0"/>
        <stop stop-color="#92a5cc" offset="0.2634"/>
        <stop stop-color="#6c83bb" offset="0.7135"/>
        <stop stop-color="#637db5" offset="0.7446"/>
        <stop stop-color="#4c6ea4" offset="0.7945"/>
        <stop stop-color="#265689" offset="0.8563"/>
        <stop stop-color="#003d6d" offset="0.9101"/>
        <stop stop-color="#003d6d" offset="1"/>
    </linearGradient>
    <path fill="url(#XMLID_837_)" d="M 35.258 13.348 L 35.258 13.348 C 35.347 13.403 35.475998 13.474999 35.653 13.563 L 35.653 13.563 C 36.133 13.806 36.98 14.172999 38.398 14.6449995 L 38.398 14.6449995 C 39.417 14.985999 40.125 15.106 40.619 15.106 L 40.619 15.106 C 41.162 15.102 41.447 14.977 41.715 14.802 L 41.715 14.802 L 42.212 14.877 C 43.151 16.024 44.297 18.008 44.297 20.812 L 44.297 20.812 C 44.297 22.475 43.894 24.416 42.827 26.629 L 42.827 26.629 C 38.693 35.131 35.383 34.406 35.256 41.835 L 35.256 41.835 C 35.145 47.062 33.432 48.065998 32.956 48.190998 L 32.956 48.190998 C 32.79 48.224 32.483 48.253998 32.094 48.253998 L 32.094 48.253998 C 31.835001 48.253998 31.552002 48.238 31.277002 48.190998 L 31.277002 48.190998 C 31.009003 48.162 30.270002 48.059 29.816002 47.211 L 29.816002 47.211 C 29.346003 46.378998 29.008001 44.91 28.950003 42.023 L 28.950003 42.023 C 28.823002 34.593998 25.512003 35.321 21.379002 26.814999 L 21.379002 26.814999 C 20.311 24.605999 19.907001 22.661 19.907001 20.998999 L 19.907001 20.998999 C 19.907001 18.068998 21.157001 16.033998 22.119001 14.913999 L 22.119001 14.913999 L 22.6 14.84 C 22.848 14.992001 23.126 15.102 23.633 15.104 L 23.633 15.104 C 24.126999 15.104 24.833 14.983 25.852 14.645 L 25.852 14.645 C 27.790998 14.0 28.661 13.551001 28.991999 13.35 L 28.991999 13.35 C 28.943998 13.09 28.888998 12.647 28.888998 11.968 L 28.888998 11.968 C 28.888998 11.918 28.886997 11.857 28.888998 11.803 L 28.888998 11.803 C 28.896997 11.086 28.958998 10.614 29.014997 10.328 L 29.014997 10.328 C 28.530998 10.12 27.493998 9.698 26.410997 9.404 L 26.410997 9.404 C 24.888998 8.987 23.514997 8.7890005 22.980997 8.785 L 22.980997 8.785 C 22.967997 8.787 22.960997 8.785 22.958998 8.785 L 22.958998 8.785 L 22.958998 8.785 L 22.958998 8.785 C 22.956997 8.785 22.954998 8.785 22.953999 8.785 L 22.953999 8.785 L 22.953999 8.783 L 22.944998 8.785 C 22.506998 8.783 21.989998 9.035 21.639997 9.290999 L 21.639997 9.290999 L 21.643997 9.292999 C 21.632998 9.315999 21.617998 9.362999 21.603996 9.424999 L 21.603996 9.424999 C 21.571997 9.548999 21.552996 9.730999 21.541996 9.923999 L 21.541996 9.923999 L 21.364996 10.222999 C 20.960997 10.472999 16.327995 13.472999 16.336996 19.647999 L 16.336996 19.647999 C 16.336996 20.895998 16.523996 22.278 16.977997 23.801998 L 16.977997 23.801998 C 19.534996 32.514 25.022997 38.281 25.221996 41.048996 L 25.221996 41.048996 C 25.226995 41.153996 25.226995 41.269997 25.226995 41.388996 L 25.226995 41.388996 C 25.226995 42.053997 25.171995 42.970997 25.173996 43.997997 L 25.173996 43.997997 C 25.169996 45.691998 25.320995 47.677998 26.042995 49.182 L 26.042995 49.182 C 26.775995 50.682 27.971996 51.723 30.321995 51.739998 L 30.321995 51.739998 C 30.345995 51.739998 30.368996 51.739998 30.391994 51.741997 L 30.391994 51.741997 L 30.745995 52.133995 C 30.736994 52.332996 30.729994 52.555996 30.727995 52.820995 L 30.727995 52.820995 C 30.734995 54.325996 30.919994 56.804996 32.195995 59.064995 L 32.195995 59.064995 C 33.413994 61.288994 35.923996 63.204994 39.858994 63.208996 L 39.858994 63.208996 C 39.904995 63.208996 39.947994 63.208996 39.99399 63.208996 L 39.99399 63.208996 C 42.36199 63.206997 45.240993 62.601997 48.80899 61.175995 L 48.80899 61.175995 C 52.67799 59.628994 54.89699 56.768993 56.47699 54.486996 L 56.47699 54.486996 C 57.23999 53.396996 58.54499 50.173996 58.91499 46.985996 L 58.91499 46.985996 C 59.02999 46.037994 59.06799 45.039997 59.06799 44.091995 L 59.06799 44.091995 C 59.07299 42.038994 58.86099 40.212994 58.75899 39.782997 L 58.75899 39.782997 C 58.58699 39.037 55.80999 27.229996 55.80199 24.713997 L 55.80199 24.713997 C 55.80199 24.712997 55.79999 24.700996 55.79999 24.676996 L 55.79999 24.676996 C 55.79999 24.670996 55.79999 24.664997 55.79999 24.655996 L 55.79999 24.655996 C 55.80199 23.888996 55.92699 23.329996 56.18299 22.920996 L 56.18299 22.920996 C 56.35699 22.634996 56.63599 22.351995 57.08899 22.136995 L 57.08899 22.136995 L 57.57499 22.279995 C 58.681988 24.112995 60.53999 25.351995 62.37199 25.343994 L 62.37199 25.343994 C 63.54399 25.357994 65.51999 24.739994 66.34699 23.982994 L 66.34699 23.982994 C 66.395996 23.941994 66.45099 23.865993 66.61099 23.695993 L 66.61099 23.695993 C 68.147995 22.588993 69.20599 20.556993 69.20599 18.217993 L 69.20599 18.217993 C 69.203995 14.640993 66.76799 11.831993 63.873993 11.822992 L 63.873993 11.822992 L 63.873993 11.445992 L 63.873993 11.072992 C 67.285995 11.083992 69.95 14.316992 69.95799 18.217993 L 69.95799 18.217993 C 69.95599 20.781992 68.80699 23.036993 67.11099 24.243992 L 67.11099 24.243992 C 67.051994 24.308992 66.979996 24.422993 66.84499 24.542992 L 66.84499 24.542992 C 65.76299 25.483992 63.766994 26.081991 62.371994 26.095991 L 62.371994 26.095991 C 60.312996 26.087992 58.369995 24.821991 57.131996 22.97899 L 57.131996 22.97899 C 56.983997 23.08599 56.901997 23.19199 56.815994 23.320992 L 56.815994 23.320992 C 56.672993 23.545992 56.549995 23.971992 56.549995 24.656992 L 56.549995 24.656992 L 56.539997 24.656992 L 56.544 24.713991 L 56.55 24.713991 C 56.55 24.713991 56.552 24.713991 56.55 24.72599 L 56.55 24.72599 C 56.55 27.00099 59.322998 38.91999 59.489 39.61399 L 59.489 39.61399 C 59.612 40.17099 59.815 41.97599 59.816998 44.09299 L 59.816998 44.09299 C 59.816998 45.05899 59.775997 46.08599 59.661 47.07299 L 59.661 47.07299 C 59.259 50.40799 57.964 53.64099 57.093 54.91199 L 57.093 54.91199 C 55.495 57.222992 53.167 60.24099 49.086 61.87299 L 49.086 61.87299 C 45.455997 63.31899 42.488 63.95499 40.0 63.95699 L 40.0 63.95699 C 39.95 63.96099 39.902 63.96099 39.856 63.96099 L 39.856 63.96099 C 35.666 63.964993 32.867 61.87699 31.535 59.429993 L 31.535 59.429993 C 30.167 56.99399 29.985 54.388992 29.976 52.825993 L 29.976 52.825993 C 29.976 52.705994 29.978 52.593994 29.98 52.48699 L 29.98 52.48699 C 27.584 52.39199 26.121 51.13499 25.361 49.50799 L 25.361 49.50799 C 24.558 47.81399 24.423 45.73899 24.42 44.00199 L 24.42 44.00199 C 24.42 42.94999 24.475 42.019993 24.475 41.39299 L 24.475 41.39299 C 24.475 41.27799 24.473 41.17199 24.470001 41.08199 L 24.470001 41.08199 C 24.459002 38.99099 18.866001 32.80599 16.253002 24.01899 L 16.253002 24.01899 C 15.781002 22.42699 15.583002 20.97399 15.583002 19.65099 L 15.583002 19.65099 C 15.592002 13.508989 19.839003 10.33599 20.810001 9.6909895 L 20.810001 9.6909895 C 20.841002 9.32399 20.862001 8.991989 21.183 8.696989 L 21.183 8.696989 C 21.601 8.396989 22.201 8.063989 22.883001 8.040989 L 22.883001 8.040989 C 22.914001 8.034989 22.928001 8.036989 22.937002 8.036989 L 22.937002 8.036989 C 22.942001 8.036989 22.946003 8.039989 22.951002 8.036989 L 22.951002 8.036989 C 23.599003 8.039989 24.995003 8.24799 26.606003 8.68399 L 26.606003 8.68399 C 28.165003 9.11099 29.598003 9.770989 29.610003 9.774989 L 29.610003 9.774989 L 29.802002 10.2499895 C 29.807001 10.251989 29.775002 10.314989 29.732002 10.562989 L 29.732002 10.562989 C 29.689003 10.810989 29.643002 11.213989 29.636002 11.828989 L 29.636002 11.828989 C 29.634 11.865989 29.634 11.912989 29.634 11.972989 L 29.634 11.972989 C 29.634 12.510989 29.67 12.877989 29.706001 13.104989 L 29.706001 13.104989 C 29.740002 13.331989 29.766 13.393989 29.766 13.393989 L 29.766 13.393989 L 29.666 13.793988 C 29.593 13.856988 28.972 14.395988 26.083 15.361988 L 26.083 15.361988 C 25.02 15.713988 24.243 15.8559885 23.629 15.857988 L 23.629 15.857988 C 23.168 15.859988 22.796 15.771988 22.492 15.636989 L 22.492 15.636989 C 21.643002 16.704988 20.652 18.486988 20.652 21.003988 L 20.652 21.003988 C 20.652 22.546988 21.024 24.370989 22.049 26.495989 L 22.049 26.495989 C 25.980999 34.70699 29.525 34.20099 29.692 42.01199 L 29.692 42.01199 C 29.744999 44.84599 30.102999 46.22799 30.462 46.84499 L 30.462 46.84499 C 30.834 47.44199 31.046999 47.382988 31.4 47.45899 L 31.4 47.45899 C 31.615 47.495987 31.862 47.51199 32.089 47.51199 L 32.089 47.51199 C 32.407 47.51199 32.701 47.47899 32.783 47.46499 L 32.783 47.46499 C 32.79 47.45899 32.805 47.452988 32.826 47.44399 L 32.826 47.44399 C 32.867 47.42099 32.93 47.38099 33.005 47.314987 L 33.005 47.314987 C 33.157 47.185986 33.363003 46.959988 33.577 46.56899 L 33.577 46.56899 C 34.003998 45.793987 34.453 44.36399 34.503 41.82499 L 34.503 41.82499 C 34.670998 34.01299 38.211998 34.51699 42.147 26.30899 L 42.147 26.30899 C 43.172 24.18199 43.542 22.355991 43.542 20.81599 L 43.542 20.81599 C 43.542 18.41599 42.641 16.68799 41.822 15.60599 L 41.822 15.60599 C 41.508 15.75599 41.113 15.86199 40.614998 15.85799 L 40.614998 15.85799 C 40.001 15.85799 39.221996 15.714991 38.157997 15.36199 L 38.157997 15.36199 C 35.269997 14.39499 34.648 13.855989 34.577995 13.79399 L 34.577995 13.79399 L 34.475994 13.3939905 C 34.461994 13.38899 34.607994 13.049991 34.607994 11.97299 L 34.607994 11.97299 C 34.604996 11.91899 34.604996 11.86699 34.607994 11.81399 L 34.607994 11.81399 C 34.600994 11.21499 34.552994 10.81199 34.509995 10.56399 L 34.509995 10.56399 C 34.466995 10.31699 34.439995 10.25099 34.439995 10.25099 L 34.439995 10.25099 L 34.631996 9.77599 C 34.643997 9.77199 36.076996 9.11199 37.635998 8.68499 L 37.635998 8.68499 C 39.244 8.24699 40.637997 8.04299 41.290997 8.03799 L 41.290997 8.03799 C 41.292995 8.03799 41.312996 8.03799 41.304996 8.04099 L 41.304996 8.04099 C 42.007996 8.04799 42.628998 8.38999 43.057995 8.697989 L 43.057995 8.697989 C 43.339996 8.949989 43.377995 9.222989 43.412994 9.52199 L 43.412994 9.52199 C 44.429993 10.204989 48.600994 13.376989 48.606995 19.46099 L 48.606995 19.46099 C 48.606995 20.782991 48.409996 22.23999 47.939995 23.827991 L 47.939995 23.827991 C 45.328995 32.61699 39.735992 38.804993 39.724995 40.901993 L 39.724995 40.901993 C 39.714996 41.010994 39.712994 41.137993 39.712994 41.280994 L 39.712994 41.280994 C 39.712994 41.809994 39.739994 42.541996 39.739994 43.369995 L 39.739994 43.369995 C 39.739994 43.709995 39.737995 44.064995 39.725994 44.426994 L 39.725994 44.426994 C 39.720993 46.058994 39.541996 47.869995 38.763992 49.321995 L 38.763992 49.321995 C 37.955994 51.099995 36.365993 52.490993 33.700993 52.471996 L 33.700993 52.471996 C 33.643993 52.471996 33.586994 52.471996 33.566994 52.469997 L 33.566994 52.469997 C 33.559994 52.470997 33.552994 52.471996 33.545994 52.471996 L 33.545994 52.471996 C 33.541992 52.584995 33.539993 52.717995 33.538994 52.871998 L 33.538994 52.871998 C 33.538994 52.871998 33.538994 52.871998 33.538994 52.899998 L 33.538994 52.899998 C 33.533993 54.135998 33.765995 56.171997 34.629993 57.663 L 34.629993 57.663 C 35.568993 59.190998 36.775993 60.316998 39.949993 60.392 L 39.949993 60.392 C 39.964993 60.391 39.976994 60.391 39.985992 60.391 L 39.985992 60.391 C 39.991993 60.391 39.99599 60.391 39.999992 60.391 L 39.999992 60.391 C 41.87599 60.392998 44.428993 59.893997 47.75899 58.562 L 47.75899 58.562 C 51.270992 57.154 52.956993 54.62 54.15799 52.886 L 54.15799 52.886 C 54.67899 52.137 55.827988 49.58 56.12299 46.906002 L 56.12299 46.906002 C 56.23799 45.86 56.28499 44.857002 56.28499 43.929 L 56.28499 43.929 C 56.28499 42.225002 56.12499 40.769 55.93799 39.765 L 55.93799 39.765 C 55.648987 38.196 53.03299 27.897999 52.98499 24.667 L 52.98499 24.667 C 52.98499 23.607 53.153988 22.489 53.765987 21.47 L 53.765987 21.47 C 54.24199 20.671 54.980988 20.047998 55.862988 19.616 L 55.862988 19.616 C 55.821987 19.314999 55.79899 19.009998 55.79899 18.695 L 55.79899 18.695 C 55.786987 14.801 58.182987 12.049 61.550987 11.34 L 61.550987 11.34 C 62.003986 11.245 62.542988 11.163 63.057987 11.146 L 63.057987 11.146 C 63.315987 11.105 63.585987 11.076 63.870987 11.076 L 63.870987 11.076 L 63.870987 11.449 L 63.870987 11.826 C 63.639988 11.826 63.407986 11.849 63.128986 11.892 L 63.128986 11.892 C 62.626987 11.91 62.122986 11.985001 61.70899 12.074 L 61.70899 12.074 C 58.653988 12.740001 56.56199 15.113001 56.54899 18.696001 L 56.54899 18.696001 C 56.54899 19.059002 56.585987 19.418001 56.647987 19.778002 L 56.647987 19.778002 L 56.425987 20.184002 C 55.542988 20.568003 54.835987 21.139002 54.40999 21.857002 L 54.40999 21.857002 C 53.89299 22.716002 53.737988 23.683002 53.73499 24.663002 L 53.73499 24.663002 C 53.765987 27.670002 56.37099 38.019 56.67399 39.631004 L 56.67399 39.631004 C 56.868988 40.683006 57.03299 42.178005 57.03299 43.930004 L 57.03299 43.930004 C 57.03299 44.885006 56.98399 45.912003 56.86499 46.991005 L 56.86499 46.991005 C 56.54099 49.829006 55.39399 52.401005 54.77299 53.311005 L 54.77299 53.311005 C 53.57999 55.038006 51.770992 57.764004 48.03599 59.260006 L 48.03599 59.260006 C 44.64199 60.615005 42.005993 61.143005 39.997993 61.143005 L 39.997993 61.143005 L 39.979992 61.143005 L 39.979992 61.143005 C 36.590992 61.120007 34.97399 59.739006 33.98099 58.043007 L 33.98099 58.043007 C 33.006992 56.34601 32.789993 54.22101 32.78599 52.899006 L 32.78599 52.899006 C 32.78599 52.883007 32.782993 52.844006 32.78799 52.824005 L 32.78799 52.824005 C 32.78799 52.524006 32.79999 52.282005 32.80999 52.092007 L 32.80999 52.092007 L 33.16399 51.74201 C 33.29999 51.73501 33.42199 51.72801 33.53999 51.72101 L 33.53999 51.72101 C 33.59299 51.723007 33.64399 51.723007 33.69699 51.723007 L 33.69699 51.723007 C 36.09899 51.70701 37.32199 50.593006 38.09199 48.98501 L 38.09199 48.98501 C 38.78099 47.710007 38.971992 46.00301 38.97399 44.41301 L 38.97399 44.41301 C 38.985992 44.05701 38.98799 43.70601 38.98799 43.37001 L 38.98799 43.37001 C 38.98799 42.55701 38.96099 41.83701 38.96099 41.28201 L 38.96099 41.28201 C 38.96099 41.12601 38.96399 40.98301 38.972992 40.86301 L 38.972992 40.86301 C 39.16999 38.09701 44.66099 32.32801 47.21799 23.61601 L 47.21799 23.61601 C 47.666992 22.09501 47.85299 20.71001 47.85299 19.462011 L 47.85299 19.462011 C 47.861988 13.415011 43.42399 10.417011 42.85999 10.058011 L 42.85999 10.058011 L 42.694 9.77 C 42.676 9.537001 42.628 9.332001 42.6 9.286 L 42.6 9.286 C 42.259 9.0390005 41.764 8.7960005 41.294 8.784 L 41.294 8.784 L 41.294 8.786 C 40.778 8.784 39.384 8.981 37.836 9.405001 L 37.836 9.405001 C 36.754997 9.699 35.718 10.120001 35.232998 10.327001 L 35.232998 10.327001 C 35.288998 10.613001 35.35 11.088 35.357998 11.807001 L 35.357998 11.807001 C 35.357998 11.862001 35.357998 11.916001 35.357998 11.968001 L 35.357998 11.968001 M 42.6 9.283 L 42.601997 9.283 C 42.601997 9.282 42.601997 9.282 42.601997 9.282 L 42.601997 9.282 C 42.602 9.282 42.601 9.283 42.6 9.283 L 42.6 9.283 z "/>
    <linearGradient x1="-662.5209" gradientTransform="matrix(1 0 0 -1 694.626 1064.8687)" y1="1058.5964" x2="-662.5209" gradientUnits="userSpaceOnUse" y2="990.7482" xlink:type="simple" xlink:actuate="onLoad" id="XMLID_838_" xlink:show="other">
        <stop stop-color="#ffffff" offset="0"/>
        <stop stop-color="#a2c2dd" offset="0.35"/>
        <stop stop-color="#6c83bb" offset="0.7"/>
        <stop stop-color="#003d6d" offset="1"/>
    </linearGradient>
    <path fill="url(#XMLID_838_)" d="M 47.589 23.756 C 50.444 14.092001 43.002 9.731001 43.002 9.731001 L 40.767998 14.002001 C 40.767998 14.002001 46.526997 18.147001 42.492996 26.504002 C 38.458996 34.859 35.032997 34.244003 34.885998 41.865 C 34.786 47.021004 33.067997 47.822002 32.879997 47.861 C 32.692997 47.902 31.965998 47.968 31.344997 47.861 C 30.724997 47.755 29.437998 47.775 29.326998 42.052002 C 29.179998 34.433002 25.752998 35.047 21.719997 26.691002 C 17.685997 18.336002 23.444998 14.191002 23.444998 14.191002 L 21.209 9.92 C 21.209 9.92 13.766 14.281 16.621 23.945 C 19.207 32.695 24.747002 38.673 24.852001 41.099 C 24.956001 43.529 23.575 52.302 30.490002 52.157997 C 31.275002 52.220997 32.972 52.177 33.546 52.129997 C 40.462 52.274998 39.253002 43.340996 39.359 40.910995 C 39.463 38.482 45.004 32.506 47.589 23.756 z "/>
    <path fill="#ffffff" d="M 30.487 51.759 C 23.571 51.904 25.227 43.527 25.123 41.097 C 25.018 38.669 19.477 32.693 16.891998 23.943 C 14.037 14.278 21.48 9.917 21.48 9.917 L 22.036 11.499 C 22.036 11.499 15.432999 18.366 19.467999 26.723999 C 23.502998 35.082 25.863998 34.576 26.010998 42.195 C 26.120998 47.919 26.072998 48.55 27.015997 49.874 C 27.958 51.191 30.487 51.759 30.487 51.759 z " fill-opacity="0.4"/>
    <path fill="#ffffff" d="M 33.894 51.561 C 40.81 51.706 39.154 43.329002 39.259003 40.901 C 39.363003 38.471 44.904003 32.495003 47.489002 23.745 C 50.344 14.081001 42.902 9.720001 42.902 9.720001 L 42.345 11.302001 C 42.345 11.302001 48.949 18.171001 44.913002 26.529001 C 40.88 34.884003 38.517002 34.379 38.370003 41.999 C 38.260002 47.722 38.309002 48.355 37.366 49.677002 C 36.423 50.997 33.894 51.561 33.894 51.561 z " fill-opacity="0.4"/>
    <linearGradient x1="-628.9901" gradientTransform="matrix(1 0 0 -1 694.626 1064.8687)" y1="1051.5984" x2="-638.5827" gradientUnits="userSpaceOnUse" y2="1035.099" xlink:type="simple" xlink:actuate="onLoad" id="XMLID_839_" xlink:show="other">
        <stop stop-color="#e6eef4" offset="0"/>
        <stop stop-color="#9ec8d1" offset="0.1492"/>
        <stop stop-color="#62a9b3" offset="0.2883"/>
        <stop stop-color="#3d95a1" offset="0.3901"/>
        <stop stop-color="#2f8e9a" offset="0.4438"/>
        <stop stop-color="#247c90" offset="0.5242"/>
        <stop stop-color="#115a7d" offset="0.699"/>
        <stop stop-color="#044571" offset="0.8433"/>
        <stop stop-color="#003d6d" offset="0.9382"/>
        <stop stop-color="#003d6d" offset="1"/>
    </linearGradient>
    <path fill="url(#XMLID_839_)" d="M 65.244 12.004 C 66.858 13.198999 67.600006 16.307 67.600006 18.730999 C 67.600006 20.946 67.992004 23.064999 66.604004 24.299 C 65.649 25.149 63.664005 25.754 62.377003 25.754 C 59.225002 25.754 56.182003 22.469 56.182003 18.730999 C 56.182003 14.992999 58.426003 12.429998 61.637 11.742999 C 62.722 11.51 64.369 11.355 65.244 12.004 z "/>
    <radialGradient gradientTransform="matrix(0.8305 0 0 -1 639.5109 1064.8687)" gradientUnits="userSpaceOnUse" xlink:type="simple" r="28.3198" xlink:actuate="onLoad" cx="-697.2538" id="XMLID_840_" cy="1057.2195" xlink:show="other">
        <stop stop-color="#d6e6ec" offset="0"/>
        <stop stop-color="#298595" offset="1"/>
    </radialGradient>
    <ellipse rx="5.709" ry="6.768" fill="url(#XMLID_840_)" cx="63.878" cy="18.254"/>
    <radialGradient gradientTransform="matrix(0.8305 0 0 -1 639.5109 1064.8687)" gradientUnits="userSpaceOnUse" xlink:type="simple" r="10.3017" xlink:actuate="onLoad" cx="-692.5502" id="XMLID_841_" cy="1042.5759" xlink:show="other">
        <stop stop-color="#d6e6ec" offset="0"/>
        <stop stop-color="#298595" offset="1"/>
    </radialGradient>
    <ellipse rx="4.363" ry="5.254" fill="url(#XMLID_841_)" cx="63.821" cy="18.289"/>
    <linearGradient x1="-631.5389" gradientTransform="matrix(1 0 0 -1 694.626 1064.8687)" y1="1015.3367" x2="-667.9221" gradientUnits="userSpaceOnUse" y2="1033.2987" xlink:type="simple" xlink:actuate="onLoad" id="XMLID_842_" xlink:show="other">
        <stop stop-color="#ffffff" offset="0"/>
        <stop stop-color="#a2c2dd" offset="0.35"/>
        <stop stop-color="#6c83bb" offset="0.7"/>
        <stop stop-color="#003d6d" offset="1"/>
    </linearGradient>
    <path fill="url(#XMLID_842_)" d="M 31.87 59.279 C 30.551 56.933 30.367 54.39 30.359001 52.859 L 30.359001 52.859 C 30.359001 52.023003 30.425001 51.482002 30.43 51.437 L 30.43 51.437 L 30.43 51.439 L 33.223 51.783 C 33.224 51.783 33.213 51.857002 33.201 52.046 L 33.201 52.046 C 33.188 52.234 33.175 52.515003 33.175 52.859 L 33.175 52.859 C 33.166 54.13 33.38 56.261 34.319 57.888 L 34.319 57.888 C 35.287 59.5 36.702 60.756 40.001 60.8 L 40.001 60.8 C 41.944 60.802 44.542 60.288998 47.91 58.943 L 47.91 58.943 C 51.532 57.492 53.28 54.863 54.477 53.13 L 54.477 53.13 C 55.046 52.303 56.196003 49.735 56.503002 46.981003 C 56.841003 43.975002 56.611004 41.321003 56.315002 39.731003 C 56.020004 38.141003 53.410004 27.817003 53.371002 24.702003 L 53.371002 24.702003 C 53.371002 23.679003 53.533 22.638004 54.099003 21.698004 L 54.099003 21.698004 C 54.662003 20.755003 55.623 20.042004 56.808002 19.659004 L 56.808002 19.659004 L 57.697002 22.331005 C 56.982002 22.579004 56.709003 22.843004 56.509003 23.157005 L 56.509003 23.157005 C 56.313004 23.475006 56.188004 23.971004 56.188004 24.702005 L 56.188004 24.702005 C 56.149002 26.968006 58.964005 39.009007 59.134003 39.731007 C 59.304 40.453007 59.661003 43.98501 59.298004 47.063007 C 58.911003 50.32501 57.610004 53.55301 56.794003 54.73301 L 56.794003 54.73301 C 55.206 57.03001 52.932003 59.96901 48.956 61.55901 L 48.956 61.55901 C 45.357002 62.99601 42.434002 63.61601 40.002 63.61801 L 40.002 63.61801 C 39.957 63.61801 39.912 63.61801 39.867 63.61801 L 39.867 63.61801 C 35.802 63.617 33.146 61.617 31.87 59.279 L 31.87 59.279 z "/>
    <radialGradient gradientTransform="matrix(1 0 0 -1 694.626 1064.8687)" gradientUnits="userSpaceOnUse" xlink:type="simple" r="8.9247" xlink:actuate="onLoad" cx="-666.5785" id="XMLID_843_" cy="1056.8025" xlink:show="other">
        <stop stop-color="#e6eef4" offset="0"/>
        <stop stop-color="#c6dcc1" offset="0.0772"/>
        <stop stop-color="#91c06f" offset="0.211"/>
        <stop stop-color="#6bab33" offset="0.321"/>
        <stop stop-color="#539e0e" offset="0.4014"/>
        <stop stop-color="#4a9900" offset="0.4438"/>
        <stop stop-color="#398419" offset="0.5475"/>
        <stop stop-color="#22663b" offset="0.7125"/>
        <stop stop-color="#135550" offset="0.8486"/>
        <stop stop-color="#0e4e58" offset="0.9382"/>
        <stop stop-color="#0e4e58" offset="1"/>
    </radialGradient>
    <path fill="url(#XMLID_843_)" d="M 21.412 9.035 C 21.021 9.32 21.205 11.267 21.205 11.267 C 21.205 11.267 21.147 14.182 21.827 14.751 C 22.505 15.321 23.11 15.991 25.973 15.037001 C 28.835 14.083 29.418 13.548 29.418 13.548 C 29.418 13.548 29.251999 13.075001 29.268 11.842 C 29.282 10.609 29.459 10.148 29.459 10.148 C 29.459 10.148 28.034 9.4939995 26.513 9.08 C 24.925001 8.647 23.523 8.445 22.947 8.447 C 22.373 8.449 21.801 8.75 21.412 9.035 z "/>
    <radialGradient gradientTransform="matrix(1 0 0 -1 694.626 1064.8687)" gradientUnits="userSpaceOnUse" xlink:type="simple" r="11.9069" xlink:actuate="onLoad" cx="-666.4471" id="XMLID_844_" cy="1057.1472" xlink:show="other">
        <stop stop-color="#e6eef4" offset="0"/>
        <stop stop-color="#c6dcc1" offset="0.0772"/>
        <stop stop-color="#91c06f" offset="0.211"/>
        <stop stop-color="#6bab33" offset="0.321"/>
        <stop stop-color="#539e0e" offset="0.4014"/>
        <stop stop-color="#4a9900" offset="0.4438"/>
        <stop stop-color="#398419" offset="0.5475"/>
        <stop stop-color="#22663b" offset="0.7125"/>
        <stop stop-color="#135550" offset="0.8486"/>
        <stop stop-color="#0e4e58" offset="0.9382"/>
        <stop stop-color="#0e4e58" offset="1"/>
    </radialGradient>
    <path fill="url(#XMLID_844_)" d="M 21.777 9.453 C 21.387001 9.738 21.578001 11.687 21.578001 11.687 L 28.789001 11.842 L 28.794 10.47 C 28.794 10.47 28.082 9.968 26.562 9.554 C 24.974 9.121 23.57 8.918 22.995 8.921 C 22.419 8.924 22.165 9.168 21.777 9.453 z "/>
    <radialGradient gradientTransform="matrix(-1 0 0 -1 1107.8107 1064.8687)" gradientUnits="userSpaceOnUse" xlink:type="simple" r="8.9275" xlink:actuate="onLoad" cx="1071.6007" id="XMLID_845_" cy="1056.8025" xlink:show="other">
        <stop stop-color="#e6eef4" offset="0"/>
        <stop stop-color="#c6dcc1" offset="0.0772"/>
        <stop stop-color="#91c06f" offset="0.211"/>
        <stop stop-color="#6bab33" offset="0.321"/>
        <stop stop-color="#539e0e" offset="0.4014"/>
        <stop stop-color="#4a9900" offset="0.4438"/>
        <stop stop-color="#398419" offset="0.5475"/>
        <stop stop-color="#22663b" offset="0.7125"/>
        <stop stop-color="#135550" offset="0.8486"/>
        <stop stop-color="#0e4e58" offset="0.9382"/>
        <stop stop-color="#0e4e58" offset="1"/>
    </radialGradient>
    <path fill="url(#XMLID_845_)" d="M 42.845 9.035 C 43.236 9.32 43.052002 11.267 43.052002 11.267 C 43.052002 11.267 43.11 14.182 42.43 14.751 C 41.752 15.321 41.147 15.991 38.284 15.037001 C 35.422 14.083 34.839 13.548 34.839 13.548 C 34.839 13.548 35.005 13.075001 34.989002 11.842 C 34.975002 10.609 34.798 10.148 34.798 10.148 C 34.798 10.148 36.223 9.4939995 37.744 9.08 C 39.332 8.647 40.734 8.445 41.309998 8.447 C 41.884 8.449 42.456 8.75 42.845 9.035 z "/>
    <radialGradient gradientTransform="matrix(-1 0 0 -1 1107.8107 1064.8687)" gradientUnits="userSpaceOnUse" xlink:type="simple" r="11.9065" xlink:actuate="onLoad" cx="1071.7335" id="XMLID_846_" cy="1057.1472" xlink:show="other">
        <stop stop-color="#e6eef4" offset="0"/>
        <stop stop-color="#c6dcc1" offset="0.0772"/>
        <stop stop-color="#91c06f" offset="0.211"/>
        <stop stop-color="#6bab33" offset="0.321"/>
        <stop stop-color="#539e0e" offset="0.4014"/>
        <stop stop-color="#4a9900" offset="0.4438"/>
        <stop stop-color="#398419" offset="0.5475"/>
        <stop stop-color="#22663b" offset="0.7125"/>
        <stop stop-color="#135550" offset="0.8486"/>
        <stop stop-color="#0e4e58" offset="0.9382"/>
        <stop stop-color="#0e4e58" offset="1"/>
    </radialGradient>
    <path fill="url(#XMLID_846_)" d="M 42.479 9.453 C 42.869 9.738 42.678 11.687 42.678 11.687 L 35.467003 11.842 L 35.462 10.47 C 35.462 10.47 36.174004 9.968 37.694 9.554 C 39.282 9.121 40.686 8.918 41.261 8.921 C 41.838 8.924 42.092 9.168 42.479 9.453 z "/>
    <linearGradient x1="-633.2362" gradientTransform="matrix(1 0 0 -1 694.626 1064.8687)" y1="1030.031" x2="-630.3548" gradientUnits="userSpaceOnUse" y2="1022.4565" xlink:type="simple" xlink:actuate="onLoad" id="XMLID_847_" xlink:show="other">
        <stop stop-color="#d6e6ec" offset="0"/>
        <stop stop-color="#298595" offset="1"/>
    </linearGradient>
    <polygon fill="url(#XMLID_847_)" points="66.781,34.148 64.373,36.964 63.541,44.628 57.398,39.206 "/>
    <linearGradient x1="-630.5209" gradientTransform="matrix(1 0 0 -1 694.626 1064.8687)" y1="1027.9167" x2="-627.7794" gradientUnits="userSpaceOnUse" y2="1014.0692" xlink:type="simple" xlink:actuate="onLoad" id="XMLID_848_" xlink:show="other">
        <stop stop-color="#e6eef4" offset="0"/>
        <stop stop-color="#9ec8d1" offset="0.1492"/>
        <stop stop-color="#62a9b3" offset="0.2883"/>
        <stop stop-color="#3d95a1" offset="0.3901"/>
        <stop stop-color="#2f8e9a" offset="0.4438"/>
        <stop stop-color="#247c90" offset="0.5242"/>
        <stop stop-color="#115a7d" offset="0.699"/>
        <stop stop-color="#044571" offset="0.8433"/>
        <stop stop-color="#003d6d" offset="0.9382"/>
        <stop stop-color="#003d6d" offset="1"/>
    </linearGradient>
    <polygon fill="url(#XMLID_848_)" points="60.642,41.533 63.683,38.745 70.101,45.157 66.126,49.077 "/>
    <linearGradient x1="-631.4843" gradientTransform="matrix(1 0 0 -1 694.626 1064.8687)" y1="1018.322" x2="-619.8781" gradientUnits="userSpaceOnUse" y2="1034.0422" xlink:type="simple" xlink:actuate="onLoad" id="XMLID_849_" xlink:show="other">
        <stop stop-color="#d6e6ec" offset="0"/>
        <stop stop-color="#298595" offset="1"/>
    </linearGradient>
    <polygon fill="url(#XMLID_849_)" points="84.835,37.844 60.349,32.803 56.109,35.117 61.269,40.642 80.042,44.612 "/>
    <linearGradient x1="-621.9535" gradientTransform="matrix(1 0 0 -1 694.626 1064.8687)" y1="1036.7625" x2="-621.9535" gradientUnits="userSpaceOnUse" y2="987.7144" xlink:type="simple" xlink:actuate="onLoad" id="XMLID_850_" xlink:show="other">
        <stop stop-color="#e6eef4" offset="0"/>
        <stop stop-color="#9ec8d1" offset="0.1492"/>
        <stop stop-color="#62a9b3" offset="0.2883"/>
        <stop stop-color="#3d95a1" offset="0.3901"/>
        <stop stop-color="#2f8e9a" offset="0.4438"/>
        <stop stop-color="#247c90" offset="0.5242"/>
        <stop stop-color="#115a7d" offset="0.699"/>
        <stop stop-color="#044571" offset="0.8433"/>
        <stop stop-color="#003d6d" offset="0.9382"/>
        <stop stop-color="#003d6d" offset="1"/>
    </linearGradient>
    <polygon fill="url(#XMLID_850_)" points="70.398,42.415 70.417,64.885 74.947,62.241 74.939,42.153 "/>
    <linearGradient x1="-611.1205" gradientTransform="matrix(1 0 0 -1 694.626 1064.8687)" y1="1028.2156" x2="-666.7807" gradientUnits="userSpaceOnUse" y2="991.5121" xlink:type="simple" xlink:actuate="onLoad" id="XMLID_851_" xlink:show="other">
        <stop stop-color="#d6e6ec" offset="0"/>
        <stop stop-color="#298595" offset="1"/>
    </linearGradient>
    <path fill="url(#XMLID_851_)" d="M 56.109 35.117 L 56.111 42.628002 L 65.872 53.063004 L 65.878 63.882004 L 70.419 64.886 L 70.41 54.074 L 80.30701 48.075 L 80.30301 40.488 L 56.109 35.117 z M 65.867 47.124 L 60.641 41.533 L 60.639 40.657 L 65.867 41.829002 L 65.867 47.124 z M 75.776 44.948 L 70.408005 48.196003 L 70.406006 42.837 L 75.77601 44.029003 L 75.77601 44.948 z "/>
    <linearGradient x1="-615.7211" gradientTransform="matrix(1 0 0 -1 694.626 1064.8687)" y1="1029.9841" x2="-609.5386" gradientUnits="userSpaceOnUse" y2="1016.2247" xlink:type="simple" xlink:actuate="onLoad" id="XMLID_852_" xlink:show="other">
        <stop stop-color="#e6eef4" offset="0"/>
        <stop stop-color="#9ec8d1" offset="0.1492"/>
        <stop stop-color="#62a9b3" offset="0.2883"/>
        <stop stop-color="#3d95a1" offset="0.3901"/>
        <stop stop-color="#2f8e9a" offset="0.4438"/>
        <stop stop-color="#247c90" offset="0.5242"/>
        <stop stop-color="#115a7d" offset="0.699"/>
        <stop stop-color="#044571" offset="0.8433"/>
        <stop stop-color="#003d6d" offset="0.9382"/>
        <stop stop-color="#003d6d" offset="1"/>
    </linearGradient>
    <polygon fill="url(#XMLID_852_)" points="84.812,37.901 80.276,40.488 80.281,48.075 84.812,45.433 "/>
</svg>
