<?xml version="1.0" encoding="UTF-8"?>
<svg xmlns="http://www.w3.org/2000/svg" xmlns:xlink="http://www.w3.org/1999/xlink" contentScriptType="text/ecmascript" width="32" baseProfile="tiny" zoomAndPan="magnify" contentStyleType="text/css" viewBox="0 0 32 32" height="32" preserveAspectRatio="xMidYMid meet" version="1.1">
    <rect width="32" fill="none" height="32"/>
    <path fill="#ffffff" d="M 23.938 21.848 L 28.309 12.608999 L 17.73 12.58 L 22.036999 3.533 L 16.177998 3.533 L 11.298998 13.964 C 11.302998 13.964 11.306998 13.964 11.310998 13.964 C 13.001998 13.964 14.774998 14.410999 16.441998 15.182 L 21.332996 15.192 L 20.176996 17.647 C 21.106997 18.486 21.919996 19.432999 22.548996 20.46 L 22.902996 21.039 L 22.573996 21.631 C 21.541996 23.487 19.766996 25.075 17.667995 26.177 L 19.943996 28.654 L 28.341995 21.799 L 23.938 21.848 z M 20.643 21.047 C 18.768 17.979 14.872 15.649001 11.328 15.649001 C 7.9890003 15.649001 3.9250002 17.715 2.3249998 21.047 C 3.9029999 24.139 8.141 26.115002 11.328 26.115002 C 14.872 26.115 18.945 24.104 20.643 21.047 z M 11.327 24.48 C 8.973 24.48 5.7889996 23.112999 4.2439995 21.015 C 5.8089995 18.668999 8.926 17.284 11.327 17.284 C 13.915999 17.284 16.775 18.867 18.534 21.074001 C 16.956 23.063 14.113 24.48 11.327 24.48 z M 11.484 17.882 C 9.826 17.882 8.483 19.227 8.483 20.883 C 8.483 22.542 9.826 23.882 11.483999 23.882 C 13.139999 23.882 14.483 22.542 14.483 20.883 C 14.483 19.227 13.141 17.882 11.484 17.882 z "/>
</svg>
