<?xml version="1.0" encoding="UTF-8"?>
<svg xmlns="http://www.w3.org/2000/svg" xmlns:xlink="http://www.w3.org/1999/xlink" contentScriptType="text/ecmascript" width="88" baseProfile="tiny" zoomAndPan="magnify" contentStyleType="text/css" viewBox="0 -1 88 88" height="88" preserveAspectRatio="xMidYMid meet" version="1.1">
    <g>
        <rect width="88" fill="none" y="-1" height="88"/>
        <path fill="#ffffff" d="M 14.178 6.0 C 10.22 6.0 7.0 9.221 7.0 13.18 L 7.0 72.822 C 7.0 76.78 10.22 80.001 14.1779995 80.001 L 73.823 80.001 C 77.78 80.001 81.001 76.78 81.001 72.822 L 81.001 13.18 C 81.0 9.221 77.779 6.0 73.822 6.0 L 14.178 6.0 z " fill-opacity="0.3" stroke-opacity="0.3"/>
        <linearGradient x1="-672.395" gradientTransform="matrix(1 0 0 1 694.7637 -1744.0264)" y1="1824.4941" x2="-629.1328" gradientUnits="userSpaceOnUse" y2="1749.5619" xlink:type="simple" xlink:actuate="onLoad" id="XMLID_19_" xlink:show="other">
            <stop stop-color="#000000" offset="0"/>
            <stop stop-color="#000000" offset="0.6461"/>
            <stop stop-color="#52a2a5" offset="0.9944"/>
            <stop stop-color="#52a2a5" offset="1"/>
        </linearGradient>
        <path fill="url(#XMLID_19_)" d="M 77.0 71.037 C 77.0 73.777 74.777 76.0 72.037 76.0 L 15.965 76.0 C 13.225 76.0 11.0 73.777 11.0 71.037 L 11.0 14.966 C 11.0 12.223 13.225 10.0 15.965 10.0 L 72.037 10.0 C 74.777 10.0 77.0 12.223 77.0 14.966 L 77.0 71.037 L 77.0 71.037 z "/>
        <g>
            <path fill="#ffffff" d="M 77.0 71.037 L 77.0 25.787003 C 76.125 25.655003 75.271 25.526003 74.770996 25.451002 C 74.849 23.441002 75.042 18.525002 75.042 18.525002 L 49.935997 14.845001 L 42.788 17.072 L 42.259 18.6 C 42.259 18.6 40.104 25.916 39.124 29.244 C 36.248 28.751 30.876 27.828999 30.876 27.828999 L 19.641998 31.927998 L 23.315 47.8 C 22.966 47.701 22.754 47.642998 22.754 47.642998 L 15.393 49.739 C 15.393 49.739 15.202 57.712997 15.198 57.876 C 13.985 58.176 12.719 58.485 12.719 58.485 L 15.312 62.088 L 25.375 75.947 L 39.345 75.947 C 39.47 75.716995 39.564003 75.541 39.602 75.468 C 40.157 75.618004 40.748 75.781006 41.361 75.947 L 72.602 75.947 C 75.072 75.661 77.0 73.585 77.0 71.037 z "/>
            <linearGradient x1="-650.3828" gradientTransform="matrix(1 0 0 1 694.7637 -1744.0264)" y1="1818.8301" x2="-622.1023" gradientUnits="userSpaceOnUse" y2="1769.8468" xlink:type="simple" xlink:actuate="onLoad" id="XMLID_20_" xlink:show="other">
                <stop stop-color="#ffffff" offset="0"/>
                <stop stop-color="#ffffff" offset="0.15"/>
                <stop stop-color="#cfdce6" offset="1"/>
            </linearGradient>
            <path fill="url(#XMLID_20_)" d="M 77.0 71.037 L 77.0 31.728 L 67.811 30.187 L 67.973 23.112 L 45.135002 19.446999 L 31.091 67.13 L 60.578 75.94299 L 72.599 75.94299 C 75.072 75.661 77.0 73.585 77.0 71.037 z "/>
            <linearGradient x1="-634.1855" gradientTransform="matrix(1 0 0 1 694.7637 -1744.0264)" y1="1820" x2="-622.1641" gradientUnits="userSpaceOnUse" y2="1820" xlink:type="simple" xlink:actuate="onLoad" id="XMLID_21_" xlink:show="other">
                <stop stop-color="#ffffff" offset="0"/>
                <stop stop-color="#ffffff" offset="0.15"/>
                <stop stop-color="#cfdce6" offset="1"/>
            </linearGradient>
            <path fill="url(#XMLID_21_)" d="M 60.578 75.943 L 60.768 76.0 L 72.038 76.0 C 72.229004 76.0 72.413 75.965 72.601006 75.943 L 60.578 75.943 z "/>
            <linearGradient x1="-633.584" gradientTransform="matrix(1 0 0 1 694.7637 -1744.0264)" y1="1808.4063" x2="-673.8672" gradientUnits="userSpaceOnUse" y2="1774.2906" xlink:type="simple" xlink:actuate="onLoad" id="XMLID_22_" xlink:show="other">
                <stop stop-color="#e2e6e4" offset="0"/>
                <stop stop-color="#a3740a" offset="1"/>
            </linearGradient>
            <path fill="url(#XMLID_22_)" d="M 76.141 73.825 L 69.655 43.152996 L 23.162998 33.835995 L 30.862999 67.106995 L 61.512 75.94299 L 72.756004 75.94299 C 74.161 75.739 75.376 74.949 76.141 73.825 z "/>
            <linearGradient x1="-626.0889" gradientTransform="matrix(1 0 0 1 694.7637 -1744.0264)" y1="1821.2754" x2="-631.3027" gradientUnits="userSpaceOnUse" y2="1816.8599" xlink:type="simple" xlink:actuate="onLoad" id="XMLID_23_" xlink:show="other">
                <stop stop-color="#e2e6e4" offset="0"/>
                <stop stop-color="#a3740a" offset="1"/>
            </linearGradient>
            <path fill="url(#XMLID_23_)" d="M 61.512 75.943 L 61.708 76.0 L 72.037 76.0 C 72.281006 76.0 72.519005 75.979 72.756004 75.943 L 61.512 75.943 z "/>
            <linearGradient x1="-608.0029" gradientTransform="matrix(1 0 0 1 694.7637 -1744.0264)" y1="1797.0371" x2="-625.0128" gradientUnits="userSpaceOnUse" y2="1802.9441" xlink:type="simple" xlink:actuate="onLoad" id="XMLID_24_" xlink:show="other">
                <stop stop-color="#e6eef4" offset="0"/>
                <stop stop-color="#a3740a" offset="0.44"/>
                <stop stop-color="#474105" offset="0.94"/>
                <stop stop-color="#474105" offset="1"/>
            </linearGradient>
            <path fill="url(#XMLID_24_)" d="M 76.023 73.967 C 76.628 73.145 77.0 72.137 77.0 71.036 L 77.0 39.173 L 69.656 43.398 L 76.023 73.967 z "/>
            <linearGradient x1="-645.1445" gradientTransform="matrix(1 0 0 1 694.7637 -1744.0264)" y1="1781.5781" x2="-639.5048" gradientUnits="userSpaceOnUse" y2="1768.7985" xlink:type="simple" xlink:actuate="onLoad" id="XMLID_25_" xlink:show="other">
                <stop stop-color="#e2e6e4" offset="0"/>
                <stop stop-color="#a3740a" offset="1"/>
            </linearGradient>
            <polygon fill="url(#XMLID_25_)" points="31.153,30.92 23.161,33.836 69.775,43.333 77,39.173 77,38.785   "/>
            <linearGradient x1="-2216.5474" gradientTransform="matrix(1.1364 0 0 1.1364 2574.7878 -3381.5405)" y1="2997.5527" x2="-2211.2554" gradientUnits="userSpaceOnUse" y2="2988.387" xlink:type="simple" xlink:actuate="onLoad" id="XMLID_26_" xlink:show="other">
                <stop stop-color="#ffffff" offset="0"/>
                <stop stop-color="#ffffff" offset="0.05"/>
                <stop stop-color="#cfdce6" offset="1"/>
            </linearGradient>
            <polygon fill="url(#XMLID_26_)" points="71.939,21.101 50.176,17.912 45.176,19.469 67.973,23.112   "/>
            <linearGradient x1="-622.5703" gradientTransform="matrix(1 0 0 1 694.7637 -1744.0264)" y1="1775.5615" x2="-621.0192" gradientUnits="userSpaceOnUse" y2="1771.3503" xlink:type="simple" xlink:actuate="onLoad" id="XMLID_27_" xlink:show="other">
                <stop stop-color="#ffffff" offset="0"/>
                <stop stop-color="#ffffff" offset="0.05"/>
                <stop stop-color="#cfdce6" offset="1"/>
            </linearGradient>
            <polygon fill="url(#XMLID_27_)" points="71.67,28.016 67.811,30.187 77,31.728 77,28.82   "/>
            <linearGradient x1="-2228.9756" gradientTransform="matrix(1.1364 0 0 1.1364 2574.7878 -3381.5405)" y1="2985.1768" x2="-2180.5088" gradientUnits="userSpaceOnUse" y2="3010.7605" xlink:type="simple" xlink:actuate="onLoad" id="XMLID_28_" xlink:show="other">
                <stop stop-color="#ffffff" offset="0"/>
                <stop stop-color="#cfdce6" offset="0.35"/>
                <stop stop-color="#83a0bb" offset="0.7"/>
                <stop stop-color="#4e657a" offset="1"/>
            </linearGradient>
            <polygon fill="url(#XMLID_28_)" points="67.973,23.112 67.811,30.187 71.67,28.016 71.939,21.101   "/>
            <linearGradient x1="-653.8716" gradientTransform="matrix(1 0 0 1 694.7637 -1744.0264)" y1="1817.4043" x2="-615.2368" gradientUnits="userSpaceOnUse" y2="1777.2582" xlink:type="simple" xlink:actuate="onLoad" id="XMLID_29_" xlink:show="other">
                <stop stop-color="#e2e6e4" offset="0"/>
                <stop stop-color="#a3740a" offset="1"/>
            </linearGradient>
            <path fill="url(#XMLID_29_)" d="M 76.082 73.896 L 69.721 43.389004 L 39.886 37.255005 L 31.091002 67.129005 L 60.438004 75.942 L 72.75201 75.942 C 74.126 75.743 75.314 74.98 76.082 73.896 z "/>
            <linearGradient x1="-630.8184" gradientTransform="matrix(1 0 0 1 694.7637 -1744.0264)" y1="1822.7246" x2="-623.3032" gradientUnits="userSpaceOnUse" y2="1814.9154" xlink:type="simple" xlink:actuate="onLoad" id="XMLID_30_" xlink:show="other">
                <stop stop-color="#e2e6e4" offset="0"/>
                <stop stop-color="#a3740a" offset="1"/>
            </linearGradient>
            <path fill="url(#XMLID_30_)" d="M 60.438 75.943 L 60.625 76.0 L 72.036 76.0 C 72.279 76.0 72.517006 75.979 72.751 75.943 L 60.438 75.943 z "/>
            <g>
                <polygon fill="#334ea2" points="36.59,74.727 32.458,68.414 29.753,69.161 35.157,75.943 35.934,75.943    "/>
                <linearGradient x1="-683.1011" gradientTransform="matrix(1 0 0 1 694.7637 -1744.0264)" y1="1781.8516" x2="-600.1766" gradientUnits="userSpaceOnUse" y2="1876.1743" xlink:type="simple" xlink:actuate="onLoad" id="XMLID_31_" xlink:show="other">
                    <stop stop-color="#e6eef4" offset="0"/>
                    <stop stop-color="#575ac6" offset="0.44"/>
                    <stop stop-color="#4e657a" offset="0.94"/>
                    <stop stop-color="#4e657a" offset="1"/>
                </linearGradient>
                <polygon fill="url(#XMLID_31_)" points="52.834,75.943 56.807,75.943 56.926,71.001 17.738,60.321 29.08,75.943 35.186,75.943      30.713,69.95    "/>
                <linearGradient x1="-2234.0435" gradientTransform="matrix(1.1364 0 0 1.1364 2574.9246 -3381.5405)" y1="3037.0645" x2="-2230.343" gradientUnits="userSpaceOnUse" y2="3029.6831" xlink:type="simple" xlink:actuate="onLoad" id="XMLID_32_" xlink:show="other">
                    <stop stop-color="#ffffff" offset="0"/>
                    <stop stop-color="#c0c6e8" offset="1"/>
                </linearGradient>
                <polygon fill="url(#XMLID_32_)" points="59.629,69.135 22.819,59.083 17.748,60.333 56.881,71.227    "/>
                <polygon fill="#7b7fd1" fill-opacity="0.4" points="58.066,68.756 22.819,59.083 20.209,59.672 56.598,69.9    "/>
                <linearGradient x1="-651.1646" gradientTransform="matrix(1 0 0 1 694.7637 -1744.0264)" y1="1778.3682" x2="-629.7347" gradientUnits="userSpaceOnUse" y2="1834.3431" xlink:type="simple" xlink:actuate="onLoad" id="XMLID_33_" xlink:show="other">
                    <stop stop-color="#e6eef4" offset="0"/>
                    <stop stop-color="#575ac6" offset="0.44"/>
                    <stop stop-color="#4e657a" offset="0.94"/>
                    <stop stop-color="#4e657a" offset="1"/>
                </linearGradient>
                <polygon fill="url(#XMLID_33_)" points="59.537,74.604 59.635,69.109 56.93,71.215 56.802,75.943 57.999,75.943    "/>
                <linearGradient x1="-2238.8828" gradientTransform="matrix(1.1364 0 0 1.1364 2574.9246 -3381.5405)" y1="3026.9814" x2="-2236.4729" gradientUnits="userSpaceOnUse" y2="3022.1614" xlink:type="simple" xlink:actuate="onLoad" id="XMLID_34_" xlink:show="other">
                    <stop stop-color="#ffffff" offset="0"/>
                    <stop stop-color="#c0c6e8" offset="1"/>
                </linearGradient>
                <polygon fill="url(#XMLID_34_)" points="43.102,56.473 22.758,50.758 18.338,52.016 45.404,59.778    "/>
                <linearGradient x1="-2229.4473" gradientTransform="matrix(1.1364 0 0 1.1364 2574.9246 -3381.5405)" y1="3003.1631" x2="-2208.7747" gradientUnits="userSpaceOnUse" y2="3057.1604" xlink:type="simple" xlink:actuate="onLoad" id="XMLID_35_" xlink:show="other">
                    <stop stop-color="#e6eef4" offset="0"/>
                    <stop stop-color="#575ac6" offset="0.44"/>
                    <stop stop-color="#4e657a" offset="0.94"/>
                    <stop stop-color="#4e657a" offset="1"/>
                </linearGradient>
                <polygon fill="url(#XMLID_35_)" points="47.578,48.262 43.912,49.145 56.256,68.872 59.225,66.583    "/>
                <linearGradient x1="-2253.1099" gradientTransform="matrix(1.1364 0 0 1.1364 2574.9246 -3381.5405)" y1="3006.2363" x2="-2178.6091" gradientUnits="userSpaceOnUse" y2="3090.9775" xlink:type="simple" xlink:actuate="onLoad" id="XMLID_36_" xlink:show="other">
                    <stop stop-color="#e6eef4" offset="0"/>
                    <stop stop-color="#575ac6" offset="0.44"/>
                    <stop stop-color="#4e657a" offset="0.94"/>
                    <stop stop-color="#4e657a" offset="1"/>
                </linearGradient>
                <polygon fill="url(#XMLID_36_)" points="39.499,52.505 44.403,59.079 18.338,52.016 18.194,58.027 56.242,68.855 43.912,49.145         "/>
            </g>
        </g>
    </g>
</svg>
