<?xml version="1.0" encoding="UTF-8"?>
<svg xmlns="http://www.w3.org/2000/svg" xmlns:xlink="http://www.w3.org/1999/xlink" contentScriptType="text/ecmascript" width="44" baseProfile="tiny" zoomAndPan="magnify" contentStyleType="text/css" viewBox="62 43 44 44" height="44" preserveAspectRatio="xMidYMid meet" version="1.1">
    <rect x="62" width="44" fill="none" y="43" height="44"/>
    <g>
        <g>
            <g>
                <g>
                    <g>
                        <g>
                            <g>
                                <path fill="#ffffff" d="M 72.863 76.994 L 72.863 51.705 L 89.293 51.705 L 89.293 49.372 L 70.543 49.372 L 70.543 79.373 L 85.699 79.373 C 85.687 78.353004 84.38 77.98 84.30299 76.994 L 72.863 76.994 z "/>
                                <path fill="#ffffff" d="M 97.293 57.369 L 94.863 57.369 L 94.863 66.324 C 95.711 66.554 96.427 66.992 97.293 67.488 L 97.293 57.369 z "/>
                                <polygon fill="#ffffff" points="89.293,49.372 89.293,57.369 97.293,57.369        "/>
                            </g>
                        </g>
                        <path fill="#ffffff" d="M 92.122 65.096 C 87.159004 65.096 83.124 69.132 83.124 74.096 C 83.124 79.059 87.159 83.096 92.122 83.096 C 97.08501 83.096 101.124 79.059 101.124 74.096 C 101.124 69.132 97.085 65.096 92.122 65.096 z M 85.541 71.293 C 85.459 71.219 85.314 70.941 85.314 70.941 C 85.314 70.941 85.59901 70.349 85.642006 70.253 C 85.687004 70.160995 86.12501 69.559 86.65401 68.979 C 86.990005 68.598 87.38401 68.27699 87.605 68.107994 C 87.845 67.91699 88.454 67.523994 89.084 67.245995 C 89.845 66.909996 90.636 66.703995 90.736 66.755 C 90.922 66.851 92.007 68.204994 91.066 69.048 C 90.128 69.892 86.943 71.203995 85.814 71.394 C 85.816 71.391 85.613 71.368 85.541 71.293 z M 98.982 75.221 C 98.676 75.274 98.415 74.475 98.133 74.379 C 96.69601 73.902 97.57 75.034 97.476006 75.973 C 97.37201 77.098 96.245 78.971 95.965004 79.536 C 95.715004 80.039 95.512 80.769005 95.512 80.769005 C 95.512 80.769005 94.953 81.130005 93.93 81.367004 C 93.156 81.562004 92.529 81.579 92.529 81.579 C 92.529 81.579 92.423 79.348 91.574 79.066 C 90.728 78.785 89.229996 79.162 88.57 77.937004 C 87.919 76.72201 88.732 75.564 89.683 74.84701 C 90.063995 74.56401 91.381 74.533005 91.762 74.658005 C 92.31 74.84701 92.553 75.11101 92.875 75.22101 C 93.139 75.31701 93.744 75.40501 94.28 75.22101 C 94.559 75.12701 95.028 74.94201 95.028 74.47301 C 95.028 74.24501 94.778 73.81501 94.369 73.725006 C 93.533005 73.537 93.578 74.56701 93.153 74.47301 C 92.68 74.37001 91.791 73.535 91.555 73.535 C 90.897 73.535 90.712 74.47301 90.243004 74.47301 C 89.775 74.47301 89.648 74.21701 89.591 74.09601 C 89.48801 73.90901 89.68 73.53501 89.87 73.34601 C 89.958 73.253006 90.351006 73.29401 90.427 72.97301 C 90.516 72.615005 90.419 71.854004 90.53 71.66 C 91.088 70.628006 91.936 69.972 92.889 69.596 C 93.688 69.283 94.382 69.785 94.382 69.317 C 94.382 68.85 93.356 67.817 93.536 67.254 C 93.723 66.690994 96.956 68.499 97.327 68.877 C 97.706 69.25 98.747 70.549995 98.86301 70.798 C 98.98 71.045 99.39001 72.065994 99.49501 72.815994 C 99.607 73.561 99.277 75.17 98.982 75.221 z "/>
                    </g>
                </g>
            </g>
        </g>
    </g>
    <path fill="#ffffff" d="M 79.053 61.955 L 80.736 65.301 L 79.176 65.301 L 77.745 62.167004 L 77.097 62.167004 L 77.097 65.301 L 75.736 65.301 L 75.736 57.921 L 78.132 57.921 C 79.048004 57.921 79.982 58.205 80.261 59.175003 C 80.581 60.295 80.203 61.536 79.053 61.955 M 77.098 61.337 L 77.826 61.337 C 78.895996 61.337 79.271996 60.09 78.826996 59.229 C 78.51199 58.62 77.704994 58.752 77.134995 58.752 C 77.061 58.752 77.098 61.055 77.098 61.337 "/>
    <path fill="#ffffff" d="M 82.804 65.381 C 82.616 65.381 81.215004 65.33199 81.215004 65.14 C 81.215004 64.861 81.215004 64.58 81.215004 64.298 C 82.166 64.557 84.331 64.878 84.053 63.214996 C 83.853004 62.017998 81.928 61.860996 81.418 60.767 C 80.875 59.599 81.445 58.32 82.669 57.968998 C 83.354996 57.773 84.122 57.815998 84.817 57.936996 C 85.256004 58.014996 85.084 58.455997 85.084 58.852997 C 84.358 58.687996 82.822 58.393997 82.61 59.448997 C 82.387 60.552998 83.87 60.950996 84.546 61.463997 C 85.381 62.095997 85.665 63.145996 85.274994 64.131 C 84.883 65.128 83.775 65.381 82.804 65.381 "/>
    <path fill="#ffffff" d="M 87.69 65.381 C 87.502 65.381 86.101006 65.33199 86.101006 65.14 C 86.101006 64.861 86.101006 64.58 86.101006 64.298 C 87.052 64.557 89.217 64.878 88.938 63.214996 C 88.739006 62.017998 86.812004 61.860996 86.304 60.767 C 85.762 59.599 86.33 58.32 87.553 57.968998 C 88.24 57.773 89.007 57.815998 89.703 57.936996 C 90.14101 58.014996 89.97 58.455997 89.97 58.852997 C 89.244 58.687996 87.707 58.393997 87.494 59.448997 C 87.272 60.552998 88.754005 60.950996 89.431 61.463997 C 90.266 62.095997 90.55 63.145996 90.159996 64.131 C 89.768 65.128 88.661 65.381 87.69 65.381 "/>
</svg>
