<?xml version="1.0" encoding="UTF-8"?>
<svg xmlns="http://www.w3.org/2000/svg" xmlns:xlink="http://www.w3.org/1999/xlink" contentScriptType="text/ecmascript" width="16" baseProfile="tiny" zoomAndPan="magnify" contentStyleType="text/css" viewBox="0 0 16 16" height="16" preserveAspectRatio="xMidYMid meet" version="1.1">
    <g>
        <rect width="16" fill="none" height="16"/>
        <path fill="#52a1a4" d="M 0.0 5.802 L 0.0 10.1970005 C 0.0 11.159 0.85 11.941 1.896 11.941 L 16.0 11.941 L 16.0 4.059 L 1.896 4.059 C 0.85 4.059 0.0 4.84 0.0 5.802 z " fill-opacity="0.6"/>
        <path fill="#ffffff" d="M 0.0 5.802 L 0.0 10.1970005 C 0.0 11.159 0.85 11.941 1.896 11.941 L 16.0 11.941 L 16.0 11.18 L 1.896 11.18 C 1.271 11.18 0.76100004 10.739 0.76100004 10.198 L 0.76100004 5.802 C 0.76100004 5.261 1.271 4.822 1.896 4.822 L 16.0 4.822 L 16.0 4.059 L 1.896 4.059 C 0.85 4.059 0.0 4.84 0.0 5.802 z "/>
    </g>
</svg>
