<?xml version="1.0" encoding="UTF-8"?>
<svg xmlns="http://www.w3.org/2000/svg" xmlns:xlink="http://www.w3.org/1999/xlink" contentScriptType="text/ecmascript" width="44" baseProfile="tiny" zoomAndPan="magnify" contentStyleType="text/css" viewBox="0 0 44 44" height="44" preserveAspectRatio="xMidYMid meet" version="1.1">
    <path d="M 24.999 3.0 C 16.177 3.0 9.002 10.18 9.002 19.001 C 9.002 21.654999 9.66 24.154 10.809 26.36 L 2.172 35.0 L 9.002 41.83 L 17.639 33.190002 C 19.844 34.339 22.344 35.000004 24.999 35.000004 C 33.819 35.000004 40.999 27.823004 40.999 19.001003 C 40.999 10.18 33.82 3.0 24.999 3.0 z M 34.159 15.001 L 28.999 15.001 L 28.999 9.84 C 31.3 10.849 33.152 12.698 34.159 15.001 z M 15.841 22.999 L 21.0 22.999 L 21.0 28.159 C 18.699 27.15 16.85 25.301 15.841 22.999 z M 21.0 9.84 L 21.0 15.000999 L 15.84 15.000999 C 16.85 12.699 18.699 10.849 21.0 9.84 z M 28.999 28.16 L 28.999 23.0 L 34.159 23.0 C 33.15 25.301 31.3 27.15 28.999 28.16 z "/>
    <path fill="#808080" d="M 24.999 5.0 C 17.279001 5.0 10.999001 11.280001 10.999001 19.0 C 10.999001 21.839 11.853001 24.479 13.311001 26.688 L 5.0 34.999 L 9.0 38.999 L 17.312 30.686 C 19.521 32.145 22.162 32.999 25.0 32.999 C 32.722 32.999 39.0 26.721 39.0 18.999 C 38.999 11.28 32.72 5.0 24.999 5.0 z M 24.999 30.999 C 18.382 30.999 12.999001 25.616001 12.999001 18.999 C 12.999001 12.383 18.382 6.9990005 24.999 6.9990005 C 31.616001 6.9990005 36.999 12.383 36.999 18.999 C 36.999 25.617 31.616 30.999 24.999 30.999 z "/>
    <rect x="0" width="44" fill="none" y="0" height="44"/>
    <polygon fill="#808080" points="32.999,17 26.999,17 26.999,11 22.999,11 22.999,17 17,17 17,21 22.999,21 22.999,26.999   26.999,26.999 26.999,21 32.999,21 "/>
</svg>
