<?xml version="1.0" encoding="UTF-8"?>
<svg xmlns="http://www.w3.org/2000/svg" xmlns:xlink="http://www.w3.org/1999/xlink" contentScriptType="text/ecmascript" width="60" baseProfile="tiny" zoomAndPan="magnify" contentStyleType="text/css" viewBox="-0.645 -0.347 60 52" height="52" preserveAspectRatio="xMidYMid meet" version="1.1">
    <linearGradient x1="-1359.897" gradientTransform="matrix(1 0 0 1 1389.252 -791.0477)" y1="835.4987" x2="-1359.897" gradientUnits="userSpaceOnUse" y2="797.0987" xlink:type="simple" xlink:actuate="onLoad" id="XMLID_52_" xlink:show="other">
        <stop stop-color="#ffffff" offset="0"/>
        <stop stop-color="#40a3a3" offset="1"/>
    </linearGradient>
    <path fill="url(#XMLID_52_)" d="M 7.614 5.653 C 6.369 5.653 5.3549995 6.667 5.3549995 7.912 L 5.3549995 43.393 C 5.3549995 44.638996 6.3689995 45.652996 7.6139994 45.652996 L 51.094997 45.652996 C 52.340996 45.652996 53.354996 44.638996 53.354996 43.393 L 53.354996 7.912 C 53.354996 6.6670003 52.340996 5.653 51.094997 5.653 L 7.614 5.653 z " fill-opacity="0.7"/>
    <g>
        <g>
            <g>
                <linearGradient x1="-1359.897" gradientTransform="matrix(1 0 0 1 1389.252 -791.0477)" y1="792.1588" x2="-1359.897" gradientUnits="userSpaceOnUse" y2="837.2888" xlink:type="simple" xlink:actuate="onLoad" id="XMLID_53_" xlink:show="other">
                    <stop stop-color="#ffffff" offset="0"/>
                    <stop stop-color="#40a3a3" offset="1"/>
                </linearGradient>
                <path fill="url(#XMLID_53_)" d="M 6.355 43.394 L 6.355 7.912 C 6.355 7.218001 6.919 6.6530004 7.614 6.6530004 L 51.094997 6.6530004 C 51.788 6.6530004 52.354996 7.217001 52.354996 7.912 L 52.354996 43.393 C 52.354996 44.086 51.790997 44.652996 51.094997 44.652996 L 7.614 44.652996 C 6.92 44.653 6.355 44.089 6.355 43.394 z " fill-opacity="0.9"/>
            </g>
        </g>
    </g>
    <linearGradient x1="-1360.0874" gradientTransform="matrix(1 0 0 1 1389.252 -791.0477)" y1="833.4889" x2="-1360.0874" gradientUnits="userSpaceOnUse" y2="801.0789" xlink:type="simple" xlink:actuate="onLoad" id="XMLID_54_" xlink:show="other">
        <stop stop-color="#ffffff" offset="0"/>
        <stop stop-color="#40a3a3" offset="1"/>
    </linearGradient>
    <path fill="url(#XMLID_54_)" d="M 51.974 7.03 C 51.731 6.778001 51.445 6.6530004 51.096 6.6530004 L 7.614 6.6530004 C 6.92 6.6530004 6.355 7.217001 6.355 7.912 L 6.355 43.393 C 6.355 43.739 6.498 44.045 6.727 44.266 C 6.73 44.279 7.355001 43.638 7.355001 43.638 L 7.355001 7.653 L 51.354 7.653 L 51.974 7.03 z " fill-opacity="0.7"/>
    <path fill="#ffffff" d="M 6.737 44.275 C 6.98 44.527 7.266 44.652 7.615 44.652 L 51.096 44.652 C 51.79 44.652 52.355 44.089 52.355 43.393 L 52.355 7.912 C 52.355 7.566 52.212 7.26 51.983 7.039 C 51.98 7.026 51.355 7.667 51.355 7.667 C 51.355 7.667 51.355 42.874 51.355 43.652 C 50.617 43.652 7.355999 43.652 7.355999 43.652 L 6.737 44.275 z "/>
    <rect x="19.355" width="20" fill="#ffffff" y="23.768" height="3.771"/>
</svg>
