<?xml version="1.0" encoding="UTF-8"?>
<svg xmlns="http://www.w3.org/2000/svg" xmlns:xlink="http://www.w3.org/1999/xlink" contentScriptType="text/ecmascript" width="332" baseProfile="tiny" zoomAndPan="magnify" contentStyleType="text/css" viewBox="0 0 332 126" height="126" preserveAspectRatio="xMidYMid meet" version="1.0">
    <g>
        <g stroke-opacity="0.6" fill-opacity="0.6">
            <path d="M 23.0 1.0 C 23.0 1.0 23.0 9.344 23.0 11.009 C 11.963 11.069 3.0 20.057 3.0 31.11 L 3.0 96.885 C 3.0 107.198 10.691 115.754 20.908 116.867004 C 20.924002 116.871 21.537 116.922005 23.006 116.998 L 304.894 117.0 C 317.083 117.0 327.0 107.08 327.0 94.884 L 327.0 31.109 C 327.0 25.731998 324.906 20.678999 321.104 16.881 C 317.305 13.087001 312.258 11.002001 306.89 11.009001 L 42.617 11.009001 L 32.625 1.0 L 23.0 1.0 z " fill-opacity="0.01" stroke-opacity="0.01"/>
            <path d="M 24.0 2.0 C 24.0 2.0 24.0 10.318 24.0 11.998 C 23.555 11.998 23.106 11.998 23.106 11.998 C 12.571 11.998 4.0 20.571 4.0 31.109 L 4.0 96.884 C 4.0 106.73 11.374001 114.905 21.152 115.9 C 21.154001 115.902 23.056 115.998 23.056 115.998 L 304.894 116.0 C 316.531 116.0 326.0 106.527 326.0 94.884 L 326.0 31.109 C 326.0 26.0 324.01 21.197998 320.396 17.588999 C 316.788 13.984999 311.992 12.002998 306.88998 12.008999 L 42.203 12.008999 L 32.25 2.0 L 24.0 2.0 z " fill-opacity="0.03" stroke-opacity="0.03"/>
            <path d="M 25.0 3.0 C 25.0 3.0 25.0 11.318 25.0 12.998 C 24.144 12.998 23.105999 12.998 23.105999 12.998 C 13.123 12.998 5.0 21.123 5.0 31.109 L 5.0 96.884 C 5.0 106.214005 11.988 113.962006 21.254 114.905 C 21.258999 114.905 23.107 114.999 23.107 114.999 L 304.89398 114.999 C 315.98 115.0 325.0 105.976 325.0 94.884 L 325.0 31.109 C 325.0 26.266998 323.114 21.716 319.69 18.296 C 316.27 14.879999 311.725 13.002999 306.892 13.008999 L 41.789 13.008999 L 31.75 3.0 L 25.0 3.0 z " fill-opacity="0.05" stroke-opacity="0.05"/>
            <path d="M 306.894 14.01 L 41.375 14.01 L 31.375 4.0 L 26.0 4.0 L 26.0 13.998 L 23.105999 13.998 C 13.659 13.998 6.0 21.657 6.0 31.109 L 6.0 96.884 C 6.0 105.743004 12.73 113.032005 21.355 113.911 C 21.931 113.966 22.515 113.999 23.105999 113.999 L 304.89297 113.999 C 315.429 114.0 324.0 105.425 324.0 94.884 L 324.0 31.109 C 324.0 21.657 316.342 13.998 306.894 14.01 z " fill-opacity="0.07" stroke-opacity="0.07"/>
            <path d="M 305.894 15.0 L 41.0 15.0 L 31.0 5.0 L 26.0 5.0 L 26.0 13.998 L 24.105999 13.998 C 14.659 13.998 7.0 21.657 7.0 31.109 L 7.0 95.884 C 7.0 104.743004 13.73 112.032005 22.355 112.911 C 22.931 112.966 23.515 112.999 24.105999 112.999 L 304.89297 112.999 C 314.87598 112.999 322.99896 104.872 322.99896 94.884 L 322.99896 31.109 C 323.0 21.657 315.342 14.988 305.894 15.0 z " fill-opacity="0.11" stroke-opacity="0.11"/>
            <path fill="#5f9ea0" d="M 304.894 14.0 L 39.999 14.0 L 27.999 2.0 L 26.0 2.0 L 26.0 13.988 L 23.105999 13.988 C 13.659 13.988 6.0 21.647 6.0 31.1 L 6.0 94.885 C 6.0 104.335 13.659 112.0 23.106 112.0 L 304.89297 112.0 C 314.34097 112.0 321.99896 104.336 321.99896 94.885 L 321.99896 31.1 C 322.0 21.647 314.342 13.988 304.894 14.0 z "/>
            <rect width="332" fill="none" height="126"/>
        </g>
    </g>
</svg>
