<?xml version="1.0" encoding="UTF-8"?>
<svg xmlns="http://www.w3.org/2000/svg" xmlns:xlink="http://www.w3.org/1999/xlink" contentScriptType="text/ecmascript" width="84" baseProfile="tiny" zoomAndPan="magnify" contentStyleType="text/css" viewBox="0 0 84 58" height="58" preserveAspectRatio="xMidYMid meet" version="1.1">
    <g>
        <rect width="84" fill="none" height="58"/>
        <g>
            <linearGradient x1="-663.645" gradientTransform="matrix(1 0 0 -1 694.626 1053.9688)" y1="1045.6943" x2="-641.3525" gradientUnits="userSpaceOnUse" y2="999.988" xlink:type="simple" xlink:actuate="onLoad" id="XMLID_1415_" xlink:show="other">
                <stop stop-color="#a2c2dd" offset="0"/>
                <stop stop-color="#a2c2dd" offset="0.1"/>
                <stop stop-color="#6c83bb" offset="0.7135"/>
                <stop stop-color="#003d6d" offset="0.9888"/>
                <stop stop-color="#003d6d" offset="1"/>
            </linearGradient>
            <path fill="url(#XMLID_1415_)" d="M 22.871 12.231 C 22.871 12.231 22.95 15.818 22.968 16.645 C 22.472 16.938 21.238 17.669 21.238 17.669 L 21.587002 29.422 L 23.146002 29.965 C 23.146002 29.965 23.212002 29.917 23.259003 29.885 C 23.304003 31.923 23.382002 35.462 23.397003 36.158 C 22.958004 36.455 21.886003 37.181 21.886003 37.181 L 21.917004 44.706 L 22.416004 44.919003 C 22.416004 45.642002 22.543005 46.362003 22.794004 47.064003 C 23.843004 49.995003 26.681004 51.859 31.000004 53.041004 C 34.958004 54.124004 39.875004 53.916004 43.167004 52.666004 C 43.626003 52.805004 51.078003 55.053005 51.078003 55.053005 L 67.823006 36.712006 L 68.0 28.507 C 68.0 28.507 52.77 25.208 51.441 24.921 C 51.441 23.541 51.441 4.5219994 51.441 4.5219994 L 42.316 3.3489995 L 22.871 12.231 z "/>
            <g>
                <linearGradient x1="-654.4048" gradientTransform="matrix(1 0 0 -1 694.626 1053.9688)" y1="1033.9805" x2="-689.4394" gradientUnits="userSpaceOnUse" y2="1012.7438" xlink:type="simple" xlink:actuate="onLoad" id="XMLID_1416_" xlink:show="other">
                    <stop stop-color="#ffffff" offset="0"/>
                    <stop stop-color="#a2c2dd" offset="0.35"/>
                    <stop stop-color="#6c83bb" offset="0.7"/>
                    <stop stop-color="#003d6d" offset="1"/>
                </linearGradient>
                <polygon fill="url(#XMLID_1416_)" points="33.248,41.337 33.248,15.121 23.805,12.817 24.381,39.034    "/>
                <polygon fill="#496da2" points="27.029,27.647 26.799,15.733 24.727,15.26 25.162,27.174    "/>
                <polygon fill="#496da2" points="30.638,24.731 30.522,16.617 28.45,16.143 28.77,24.258    "/>
                <polygon fill="#496da2" points="27.26,37.205 27.145,29.09 25.072,28.617 25.392,36.73    "/>
                <linearGradient x1="-632.6367" gradientTransform="matrix(1 0 0 -1 694.626 1053.9688)" y1="1030.6348" x2="-672.7014" gradientUnits="userSpaceOnUse" y2="1030.6348" xlink:type="simple" xlink:actuate="onLoad" id="XMLID_1417_" xlink:show="other">
                    <stop stop-color="#ffffff" offset="0"/>
                    <stop stop-color="#a2c2dd" offset="0.35"/>
                    <stop stop-color="#6c83bb" offset="0.7"/>
                    <stop stop-color="#003d6d" offset="1"/>
                </linearGradient>
                <polygon fill="url(#XMLID_1417_)" points="50.521,5.333 33.248,15.121 33.248,41.337 50.521,26.137    "/>
                <linearGradient x1="-663.2158" gradientTransform="matrix(1 0 0 -1 694.626 1053.9688)" y1="1026.1543" x2="-675.5399" gradientUnits="userSpaceOnUse" y2="1035.4183" xlink:type="simple" xlink:actuate="onLoad" id="XMLID_1418_" xlink:show="other">
                    <stop stop-color="#e6eef4" offset="0"/>
                    <stop stop-color="#a2c3ee" offset="0.1438"/>
                    <stop stop-color="#669de9" offset="0.2855"/>
                    <stop stop-color="#4185e6" offset="0.3891"/>
                    <stop stop-color="#337ce5" offset="0.4438"/>
                    <stop stop-color="#2f77db" offset="0.4716"/>
                    <stop stop-color="#1b5eac" offset="0.6228"/>
                    <stop stop-color="#0c4c8a" offset="0.7563"/>
                    <stop stop-color="#034175" offset="0.866"/>
                    <stop stop-color="#003d6d" offset="0.9382"/>
                    <stop stop-color="#003d6d" offset="1"/>
                </linearGradient>
                <polygon fill="url(#XMLID_1418_)" points="26.179,16.436 22.737,18.508 22.999,28.939 26.454,26.482    "/>
                <polygon fill="#cedff2" points="26.179,16.436 25.482,16.228 22.174,18.186 22.488,28.761 22.999,28.939 22.737,18.508    "/>
                <linearGradient x1="-672.0889" gradientTransform="matrix(1 0 0 -1 694.626 1053.9688)" y1="1044.2598" x2="-625.8109" gradientUnits="userSpaceOnUse" y2="1044.2598" xlink:type="simple" xlink:actuate="onLoad" id="XMLID_1419_" xlink:show="other">
                    <stop stop-color="#ffffff" offset="0"/>
                    <stop stop-color="#ffffff" offset="0.15"/>
                    <stop stop-color="#a2c2dd" offset="1"/>
                </linearGradient>
                <polygon fill="url(#XMLID_1419_)" points="23.805,12.817 42.46,4.296 50.521,5.333 33.248,15.121    "/>
            </g>
            <g>
                <linearGradient x1="-673.9189" gradientTransform="matrix(1 0 0 -1 694.626 1053.9688)" y1="1019.6563" x2="-597.2601" gradientUnits="userSpaceOnUse" y2="1019.6563" xlink:type="simple" xlink:actuate="onLoad" id="XMLID_1420_" xlink:show="other">
                    <stop stop-color="#ffffff" offset="0"/>
                    <stop stop-color="#ffffff" offset="0.15"/>
                    <stop stop-color="#a2c2dd" offset="1"/>
                </linearGradient>
                <polygon fill="url(#XMLID_1420_)" points="22.808,37.671 42.958,24.026 67.063,29.246 50.789,44.6    "/>
                <linearGradient x1="-616.7607" gradientTransform="matrix(1 0 0 -1 694.626 1053.9688)" y1="1012.3447" x2="-654.5037" gradientUnits="userSpaceOnUse" y2="1012.3447" xlink:type="simple" xlink:actuate="onLoad" id="XMLID_1421_" xlink:show="other">
                    <stop stop-color="#ffffff" offset="0"/>
                    <stop stop-color="#a2c2dd" offset="0.35"/>
                    <stop stop-color="#6c83bb" offset="0.7"/>
                    <stop stop-color="#003d6d" offset="1"/>
                </linearGradient>
                <polygon fill="url(#XMLID_1421_)" points="67.063,29.246 50.789,44.6 50.789,54.003 66.91,36.348    "/>
                <linearGradient x1="-637.9209" gradientTransform="matrix(1 0 0 -1 694.626 1053.9688)" y1="1008.1328" x2="-717.7699" gradientUnits="userSpaceOnUse" y2="1008.1328" xlink:type="simple" xlink:actuate="onLoad" id="XMLID_1422_" xlink:show="other">
                    <stop stop-color="#ffffff" offset="0"/>
                    <stop stop-color="#a2c2dd" offset="0.35"/>
                    <stop stop-color="#6c83bb" offset="0.7"/>
                    <stop stop-color="#003d6d" offset="1"/>
                </linearGradient>
                <polygon fill="url(#XMLID_1422_)" points="50.789,54.003 50.789,44.6 22.808,37.671 22.808,45.559    "/>
                <path fill="#496da2" d="M 23.881 41.385 C 23.078001 42.489 22.666 43.688 22.666 44.891 C 22.666 45.504997 22.774 46.12 22.99 46.725 C 23.938 49.371 26.788 51.537 30.807 52.663 C 37.756 54.608997 46.083 52.773 49.365997 48.567997 C 49.514996 48.378 49.395996 47.079998 49.523 46.880997 L 23.96 40.376 C 23.913 40.438 23.925 41.322 23.881 41.385 z "/>
                <linearGradient x1="-671.6494" gradientTransform="matrix(1 0 0 -1 694.626 1053.9688)" y1="1006.9805" x2="-645.4567" gradientUnits="userSpaceOnUse" y2="1006.9805" xlink:type="simple" xlink:actuate="onLoad" id="XMLID_1423_" xlink:show="other">
                    <stop stop-color="#ffffff" offset="0"/>
                    <stop stop-color="#8bbfc7" offset="0.5"/>
                    <stop stop-color="#ffffff" offset="1"/>
                </linearGradient>
                <path fill="url(#XMLID_1423_)" d="M 41.535 45.816 C 40.025 47.547 36.653 48.252003 33.79 47.449 C 31.008001 46.670002 29.725 44.758003 30.77 42.980003 L 24.182001 41.247 C 21.134 45.301003 24.058 50.076004 30.785002 51.961002 C 37.574 53.865 45.655003 52.104004 48.840004 48.025 C 48.903004 47.945 48.948006 47.863003 49.006004 47.783 L 41.535 45.816 z "/>
                <path fill="#5da6b1" d="M 39.23 45.171 C 38.32 46.141003 36.459 46.512 34.871 46.067 C 33.329998 45.635002 32.606 44.592003 33.135998 43.569 L 30.787998 42.95 C 29.706999 44.735 30.991999 46.667 33.790997 47.452 C 36.670998 48.259 40.072 47.544 41.566998 45.788 L 39.23 45.171 z "/>
                <linearGradient x1="-682.5103" gradientTransform="matrix(1 0 0 -1 694.626 1053.9688)" y1="1019.9502" x2="-622.449" gradientUnits="userSpaceOnUse" y2="1019.9502" xlink:type="simple" xlink:actuate="onLoad" id="XMLID_1424_" xlink:show="other">
                    <stop stop-color="#ffffff" offset="0"/>
                    <stop stop-color="#ffffff" offset="0.15"/>
                    <stop stop-color="#a2c2dd" offset="1"/>
                </linearGradient>
                <path fill="url(#XMLID_1424_)" d="M 46.715 24.772 L 27.746 38.795 L 30.036 39.361 L 48.588997 25.178001 L 46.715 24.772 z M 60.855 27.952 L 43.331 42.711 L 45.566 43.266 L 62.581 28.324999 L 60.855 27.952 z "/>
            </g>
        </g>
    </g>
</svg>
