<?xml version="1.0" encoding="UTF-8"?>
<svg xmlns="http://www.w3.org/2000/svg" xmlns:xlink="http://www.w3.org/1999/xlink" contentScriptType="text/ecmascript" width="100" baseProfile="tiny" zoomAndPan="magnify" contentStyleType="text/css" viewBox="-0.993 15.377 100 69.046" height="69.046" preserveAspectRatio="xMidYMid meet" version="1.1">
    <g>
        <rect x="-0.993" width="100" fill="none" y="15.377" height="69.046"/>
        <linearGradient x1="-4361.2891" gradientTransform="matrix(1.1905 0 0 1.1905 5249.3828 -2254.2029)" y1="1936.8345" x2="-4351.0347" gradientUnits="userSpaceOnUse" y2="1957.032" xlink:type="simple" xlink:actuate="onLoad" id="XMLID_384_" xlink:show="other">
            <stop stop-color="#a2c2dd" offset="0"/>
            <stop stop-color="#a2c2dd" offset="0.1"/>
            <stop stop-color="#6c83bb" offset="0.7135"/>
            <stop stop-color="#003d6d" offset="0.9888"/>
            <stop stop-color="#003d6d" offset="1"/>
        </linearGradient>
        <path fill="url(#XMLID_384_)" d="M 60.214 20.997 C 60.214 20.997 60.378002 26.097 60.417 27.274 C 52.192 26.204 45.513 27.944 40.401 29.787 C 39.481003 46.617 41.482002 63.068 42.638 72.020004 C 45.782 74.76401 53.138 79.518005 61.136 79.707 C 64.738 78.148 66.657 75.494 66.950005 75.115 C 66.950005 75.115 67.14101 74.201 67.20801 73.89 C 67.489006 73.652 68.98101 72.38 68.98101 72.38 C 71.23501 63.313995 73.17301 41.441998 72.11901 32.705997 C 71.60401 32.192997 70.112015 30.377998 65.835014 28.636997 C 65.822014 28.608997 66.82902 21.743998 66.82902 21.743998 C 67.321 19.556 61.015 18.397 60.214 20.997 z "/>
        <linearGradient x1="-4361.6577" gradientTransform="matrix(1.1905 0 0 1.1905 5249.3828 -2254.2029)" y1="1911.0718" x2="-4349.2349" gradientUnits="userSpaceOnUse" y2="1928.7695" xlink:type="simple" xlink:actuate="onLoad" id="XMLID_385_" xlink:show="other">
            <stop stop-color="#a2c2dd" offset="0"/>
            <stop stop-color="#a2c2dd" offset="0.1"/>
            <stop stop-color="#6c83bb" offset="0.7135"/>
            <stop stop-color="#003d6d" offset="0.9888"/>
            <stop stop-color="#003d6d" offset="1"/>
        </linearGradient>
        <path fill="url(#XMLID_385_)" d="M 54.808 27.402 C 59.292 27.24 66.839 27.876001 71.708 32.771 L 68.827 34.101 L 54.808 27.402 z "/>
        <linearGradient x1="-4354.7002" gradientTransform="matrix(1.1905 0 0 1.1905 5249.3828 -2254.2029)" y1="1912.7778" x2="-4350.3066" gradientUnits="userSpaceOnUse" y2="1947.3986" xlink:type="simple" xlink:actuate="onLoad" id="XMLID_386_" xlink:show="other">
            <stop stop-color="#ffffff" offset="0"/>
            <stop stop-color="#a2c2dd" offset="0.35"/>
            <stop stop-color="#6c83bb" offset="0.7"/>
            <stop stop-color="#003d6d" offset="1"/>
        </linearGradient>
        <path fill="url(#XMLID_386_)" d="M 69.306 33.846 L 66.263 74.158005 L 68.583 72.19501 C 70.397 64.19201 72.871 44.445007 71.696 32.711006 L 69.306 33.846 z "/>
        <linearGradient x1="-4368.938" gradientTransform="matrix(1.1905 0 0 1.1905 5249.3828 -2254.2029)" y1="1924.7642" x2="-4357.5693" gradientUnits="userSpaceOnUse" y2="1915.6227" xlink:type="simple" xlink:actuate="onLoad" id="XMLID_387_" xlink:show="other">
            <stop stop-color="#ffffff" offset="0"/>
            <stop stop-color="#ffffff" offset="0.15"/>
            <stop stop-color="#a2c2dd" offset="1"/>
        </linearGradient>
        <path fill="url(#XMLID_387_)" d="M 40.822 30.058 C 49.357998 27.002 61.175 25.143002 69.651 33.024002 L 62.74 36.313004 L 40.822 30.058 z "/>
        <linearGradient x1="-4354.5811" gradientTransform="matrix(1.1905 0 0 1.1905 5249.3828 -2254.2029)" y1="1915.1587" x2="-4354.0327" gradientUnits="userSpaceOnUse" y2="1969.4543" xlink:type="simple" xlink:actuate="onLoad" id="XMLID_388_" xlink:show="other">
            <stop stop-color="#ffffff" offset="0"/>
            <stop stop-color="#a2c2dd" offset="0.35"/>
            <stop stop-color="#6c83bb" offset="0.7"/>
            <stop stop-color="#003d6d" offset="1"/>
        </linearGradient>
        <path fill="url(#XMLID_388_)" d="M 62.74 36.313 L 61.210003 79.287 C 64.44701 77.795006 66.5 75.039 66.5 75.039 C 68.415 66.601 70.89 45.406002 69.649 33.025 L 62.74 36.313 z "/>
        <linearGradient x1="-4360.0688" gradientTransform="matrix(1.1905 0 0 1.1905 5249.3828 -2254.2029)" y1="1918.6675" x2="-4352.1655" gradientUnits="userSpaceOnUse" y2="1922.1121" xlink:type="simple" xlink:actuate="onLoad" id="XMLID_389_" xlink:show="other">
            <stop stop-color="#ffffff" offset="0"/>
            <stop stop-color="#a2c2dd" offset="0.35"/>
            <stop stop-color="#6c83bb" offset="0.7"/>
            <stop stop-color="#003d6d" offset="1"/>
        </linearGradient>
        <path fill="url(#XMLID_389_)" d="M 65.845 31.597 C 66.195 33.774002 60.279 34.106 60.326 31.718 C 60.361 30.074 65.585 29.978 65.845 31.597 z "/>
        <linearGradient x1="-4358.4424" gradientTransform="matrix(1.1905 0 0 1.1905 5249.3828 -2254.2029)" y1="1915.854" x2="-4352.4604" gradientUnits="userSpaceOnUse" y2="1916.2599" xlink:type="simple" xlink:actuate="onLoad" id="XMLID_390_" xlink:show="other">
            <stop stop-color="#e6eef4" offset="0"/>
            <stop stop-color="#337ce5" offset="0.4438"/>
            <stop stop-color="#003d6d" offset="0.9382"/>
            <stop stop-color="#003d6d" offset="1"/>
        </linearGradient>
        <path fill="url(#XMLID_390_)" d="M 60.963 20.828 C 60.963 20.828 61.321003 31.883 61.319 31.91 C 62.173 32.853 64.204 32.783 64.807 31.931 L 66.335 21.363998 L 60.963 20.828 z "/>
        <linearGradient x1="-4355.6523" gradientTransform="matrix(1.1905 0 0 1.1905 5249.3828 -2254.2029)" y1="1917.1255" x2="-4370.5332" gradientUnits="userSpaceOnUse" y2="1947.59" xlink:type="simple" xlink:actuate="onLoad" id="XMLID_391_" xlink:show="other">
            <stop stop-color="#ffffff" offset="0"/>
            <stop stop-color="#ffffff" offset="0.05"/>
            <stop stop-color="#a2c2dd" offset="1"/>
        </linearGradient>
        <path fill="url(#XMLID_391_)" d="M 40.822 30.058 C 45.569 28.508001 55.621998 29.798 62.740997 36.312 C 63.575996 47.994 62.900997 68.281 61.21 79.285 C 55.47 79.43101 47.364 75.57201 43.085 71.856 C 41.677 62.037 39.935 41.804 40.822 30.058 z "/>
        <linearGradient x1="-4352.6533" gradientTransform="matrix(1.1905 0 0 1.1905 5249.3828 -2254.2029)" y1="1940.7563" x2="-4375.8545" gradientUnits="userSpaceOnUse" y2="1927.9253" xlink:type="simple" xlink:actuate="onLoad" id="XMLID_392_" xlink:show="other">
            <stop stop-color="#ffffff" offset="0"/>
            <stop stop-color="#ffffff" offset="0.05"/>
            <stop stop-color="#a2c2dd" offset="1"/>
        </linearGradient>
        <polygon fill="url(#XMLID_392_)" points="43.189,32.892 43.923,57.658 59.78,63.501 60.308,37.808  "/>
        <linearGradient x1="-4371.3394" gradientTransform="matrix(1.1905 0 0 1.1905 5249.3828 -2254.2029)" y1="1957.3901" x2="-4372.5693" gradientUnits="userSpaceOnUse" y2="1909.0594" xlink:type="simple" xlink:actuate="onLoad" id="XMLID_393_" xlink:show="other">
            <stop stop-color="#ffffff" offset="0"/>
            <stop stop-color="#a2c2dd" offset="0.35"/>
            <stop stop-color="#6c83bb" offset="0.7"/>
            <stop stop-color="#003d6d" offset="1"/>
        </linearGradient>
        <polygon fill="url(#XMLID_393_)" points="45.693,56.587 45.234,33.474 43.189,32.892 43.923,57.658  "/>
        <linearGradient x1="-4358.1807" gradientTransform="matrix(1.1905 0 0 1.1905 5249.3828 -2254.2029)" y1="1950.7339" x2="-4376.9302" gradientUnits="userSpaceOnUse" y2="1933.0388" xlink:type="simple" xlink:actuate="onLoad" id="XMLID_394_" xlink:show="other">
            <stop stop-color="#ffffff" offset="0"/>
            <stop stop-color="#ffffff" offset="0.15"/>
            <stop stop-color="#a2c2dd" offset="1"/>
        </linearGradient>
        <polygon fill="url(#XMLID_394_)" points="43.923,57.658 45.693,56.587 59.841,61.484 59.78,63.501  "/>
        <linearGradient x1="-4357.5996" gradientTransform="matrix(1.1905 0 0 1.1905 5249.3828 -2254.2029)" y1="1911.7212" x2="-4353.9648" gradientUnits="userSpaceOnUse" y2="1910.5486" xlink:type="simple" xlink:actuate="onLoad" id="XMLID_395_" xlink:show="other">
            <stop stop-color="#d6e4f3" offset="0"/>
            <stop stop-color="#337ce5" offset="1"/>
        </linearGradient>
        <path fill="url(#XMLID_395_)" d="M 66.341 21.363 C 65.83501 22.798 60.450005 22.158 61.013004 20.729 C 61.582 19.313 66.826 19.919 66.341 21.363 z "/>
        <linearGradient x1="-4369.5977" gradientTransform="matrix(1.1905 0 0 1.1905 5249.3828 -2254.2029)" y1="1938.6372" x2="-4359.3604" gradientUnits="userSpaceOnUse" y2="1955.6664" xlink:type="simple" xlink:actuate="onLoad" id="XMLID_396_" xlink:show="other">
            <stop stop-color="#e6eef4" offset="0"/>
            <stop stop-color="#337ce5" offset="0.4438"/>
            <stop stop-color="#003d6d" offset="0.9382"/>
            <stop stop-color="#003d6d" offset="1"/>
        </linearGradient>
        <polygon fill="url(#XMLID_396_)" points="54.661,69.996 58.737,71.712 58.9,68.779 54.75,67.064  "/>
        <linearGradient x1="-4368.1294" gradientTransform="matrix(1.1905 0 0 1.1905 5249.3828 -2254.2029)" y1="1937.7612" x2="-4357.8979" gradientUnits="userSpaceOnUse" y2="1954.78" xlink:type="simple" xlink:actuate="onLoad" id="XMLID_397_" xlink:show="other">
            <stop stop-color="#e6eef4" offset="0"/>
            <stop stop-color="#337ce5" offset="0.4438"/>
            <stop stop-color="#003d6d" offset="0.9382"/>
            <stop stop-color="#003d6d" offset="1"/>
        </linearGradient>
        <polygon fill="url(#XMLID_397_)" points="58.939,68.014 59.099,65.087 54.857,63.505 54.773,66.306  "/>
        <linearGradient x1="-4371.001" gradientTransform="matrix(1.1905 0 0 1.1905 5249.3828 -2254.2029)" y1="1939.4985" x2="-4360.7739" gradientUnits="userSpaceOnUse" y2="1956.5103" xlink:type="simple" xlink:actuate="onLoad" id="XMLID_398_" xlink:show="other">
            <stop stop-color="#e6eef4" offset="0"/>
            <stop stop-color="#337ce5" offset="0.4438"/>
            <stop stop-color="#003d6d" offset="0.9382"/>
            <stop stop-color="#003d6d" offset="1"/>
        </linearGradient>
        <polygon fill="url(#XMLID_398_)" points="54.64,70.755 54.564,73.408 58.556,75.181 58.698,72.478  "/>
        <linearGradient x1="-4370.5005" gradientTransform="matrix(1.1905 0 0 1.1905 5249.3828 -2254.2029)" y1="1939.1812" x2="-4360.2651" gradientUnits="userSpaceOnUse" y2="1956.2063" xlink:type="simple" xlink:actuate="onLoad" id="XMLID_399_" xlink:show="other">
            <stop stop-color="#e6eef4" offset="0"/>
            <stop stop-color="#337ce5" offset="0.4438"/>
            <stop stop-color="#003d6d" offset="0.9382"/>
            <stop stop-color="#003d6d" offset="1"/>
        </linearGradient>
        <polygon fill="url(#XMLID_399_)" points="53.976,66.031 54.009,63.246 49.89,61.74 49.943,64.416  "/>
        <linearGradient x1="-4372.7769" gradientTransform="matrix(1.1905 0 0 1.1905 5249.3828 -2254.2029)" y1="1940.5532" x2="-4362.5439" gradientUnits="userSpaceOnUse" y2="1957.5746" xlink:type="simple" xlink:actuate="onLoad" id="XMLID_400_" xlink:show="other">
            <stop stop-color="#e6eef4" offset="0"/>
            <stop stop-color="#337ce5" offset="0.4438"/>
            <stop stop-color="#003d6d" offset="0.9382"/>
            <stop stop-color="#003d6d" offset="1"/>
        </linearGradient>
        <polygon fill="url(#XMLID_400_)" points="48.905,61.33 45.236,60.012 45.402,62.574 49.003,63.994  "/>
        <linearGradient x1="-4373.1343" gradientTransform="matrix(1.1905 0 0 1.1905 5249.3828 -2254.2029)" y1="1940.7886" x2="-4362.9116" gradientUnits="userSpaceOnUse" y2="1957.7933" xlink:type="simple" xlink:actuate="onLoad" id="XMLID_401_" xlink:show="other">
            <stop stop-color="#e6eef4" offset="0"/>
            <stop stop-color="#337ce5" offset="0.4438"/>
            <stop stop-color="#003d6d" offset="0.9382"/>
            <stop stop-color="#003d6d" offset="1"/>
        </linearGradient>
        <polygon fill="url(#XMLID_401_)" points="50.077,71.498 53.898,73.162 53.925,70.503 50.03,68.882  "/>
        <linearGradient x1="-4372.2271" gradientTransform="matrix(1.1905 0 0 1.1905 5249.3828 -2254.2029)" y1="1946.9448" x2="-4366.4224" gradientUnits="userSpaceOnUse" y2="1956.6002" xlink:type="simple" xlink:actuate="onLoad" id="XMLID_402_" xlink:show="other">
            <stop stop-color="#e6eef4" offset="0"/>
            <stop stop-color="#337ce5" offset="0.4438"/>
            <stop stop-color="#003d6d" offset="0.9382"/>
            <stop stop-color="#003d6d" offset="1"/>
        </linearGradient>
        <polygon fill="url(#XMLID_402_)" points="49.168,68.482 45.853,69.643 49.265,71.1  "/>
        <linearGradient x1="-4371.8354" gradientTransform="matrix(1.1905 0 0 1.1905 5249.3828 -2254.2029)" y1="1939.9868" x2="-4361.6006" gradientUnits="userSpaceOnUse" y2="1957.0116" xlink:type="simple" xlink:actuate="onLoad" id="XMLID_403_" xlink:show="other">
            <stop stop-color="#e6eef4" offset="0"/>
            <stop stop-color="#337ce5" offset="0.4438"/>
            <stop stop-color="#003d6d" offset="0.9382"/>
            <stop stop-color="#003d6d" offset="1"/>
        </linearGradient>
        <polygon fill="url(#XMLID_403_)" points="49.956,65.176 50.015,68.119 53.939,69.742 53.967,66.796  "/>
        <linearGradient x1="-4374.4126" gradientTransform="matrix(1.1905 0 0 1.1905 5249.3828 -2254.2029)" y1="1941.5356" x2="-4364.1772" gradientUnits="userSpaceOnUse" y2="1958.5613" xlink:type="simple" xlink:actuate="onLoad" id="XMLID_404_" xlink:show="other">
            <stop stop-color="#e6eef4" offset="0"/>
            <stop stop-color="#337ce5" offset="0.4438"/>
            <stop stop-color="#003d6d" offset="0.9382"/>
            <stop stop-color="#003d6d" offset="1"/>
        </linearGradient>
        <polygon fill="url(#XMLID_404_)" points="50.091,72.273 50.14,74.957 53.861,76.692 53.89,73.935  "/>
        <path fill="#ffffff" d="M 15.326 56.451 C 12.025 56.451 7.497 57.234 6.351 64.014 L 6.178 65.036 C 6.178 65.036 13.789 65.036 14.690001 65.036 C 14.964001 65.519005 15.369 66.259 15.627001 66.72401 C 15.369 67.19201 14.964001 67.923004 14.690001 68.41201 C 13.788 68.41201 6.1780005 68.41201 6.1780005 68.41201 L 6.3510003 69.43401 C 7.497 76.210014 12.025 76.99401 15.326 76.99401 C 17.933 76.99401 20.253 74.81101 22.119 73.05601 C 23.126 72.10501 24.078 71.20801 24.581 71.20801 L 47.89 71.20801 L 48.149998 70.923004 C 48.654 70.374 49.811996 68.868004 49.840996 66.759 L 49.840996 66.684006 C 49.815994 64.574005 48.652996 63.069004 48.149994 62.517006 L 47.889996 62.232006 L 24.581 62.232006 C 24.078999 62.232006 23.125 61.339005 22.120998 60.392006 C 20.254 58.634 17.933 56.451 15.326 56.451 z "/>
        <linearGradient x1="-4397.8726" gradientTransform="matrix(1.1905 0 0 1.1905 5249.3828 -2254.2029)" y1="1936.2603" x2="-4376.7598" gradientUnits="userSpaceOnUse" y2="1961.6593" xlink:type="simple" xlink:actuate="onLoad" id="XMLID_405_" xlink:show="other">
            <stop stop-color="#e6edf3" offset="0"/>
            <stop stop-color="#cabad7" offset="0.1196"/>
            <stop stop-color="#ab7eb8" offset="0.2719"/>
            <stop stop-color="#9759a4" offset="0.3844"/>
            <stop stop-color="#8f4b9c" offset="0.4438"/>
            <stop stop-color="#73357c" offset="0.5679"/>
            <stop stop-color="#551d5a" offset="0.7242"/>
            <stop stop-color="#430e45" offset="0.8533"/>
            <stop stop-color="#3c093d" offset="0.9382"/>
            <stop stop-color="#3c093d" offset="1"/>
        </linearGradient>
        <path fill="url(#XMLID_405_)" d="M 48.968 66.725 C 48.968 66.714 48.969997 66.706 48.969997 66.698 L 48.965996 66.698 C 48.942997 64.861 47.889996 63.538998 47.500996 63.112 C 47.010994 63.112 24.580996 63.112 24.580996 63.112 C 23.726995 63.112 22.801996 62.241 21.516996 61.031 C 19.765997 59.380997 17.586996 57.329998 15.326996 57.329998 C 11.661996 57.329998 8.190996 58.404 7.218996 64.158 C 8.594996 64.158 15.210997 64.158 15.210997 64.158 L 16.630997 66.725 L 15.210997 69.29 C 15.210997 69.29 8.594996 69.29 7.2189965 69.29 C 8.187997 75.046 11.658997 76.122 15.326996 76.122 C 17.585997 76.122 19.765995 74.063 21.516996 72.419 C 22.802996 71.208 23.726997 70.335 24.580996 70.335 C 24.580996 70.335 47.010994 70.335 47.500996 70.335 C 47.889996 69.913 48.941994 68.587 48.965996 66.749 L 48.969997 66.749 C 48.97 66.744 48.968 66.734 48.968 66.725 z "/>
    </g>
    <g>
        <radialGradient gradientTransform="matrix(0.8735 0.013 0.0149 -0.9999 1713.3918 388.9978)" gradientUnits="userSpaceOnUse" xlink:type="simple" r="9.5169" xlink:actuate="onLoad" cx="-1892.1541" id="XMLID_406_" cy="321.9761" xlink:show="other">
            <stop stop-color="#e4e6ef" offset="0"/>
            <stop stop-color="#ba4c96" offset="1"/>
        </radialGradient>
        <path fill="url(#XMLID_406_)" d="M 71.519 42.547 C 71.422 48.89 68.606995 53.992 65.217995 53.941 C 61.835995 53.890003 59.170994 48.708 59.266994 42.363003 C 59.360996 36.021004 62.178993 30.921001 65.563995 30.970003 C 68.948 31.02 71.611 36.206 71.519 42.547 z " fill-opacity="0.25"/>
        <radialGradient gradientTransform="matrix(0.8735 0.013 0.0149 -0.9999 1713.3918 388.9978)" gradientUnits="userSpaceOnUse" xlink:type="simple" r="7.7894" xlink:actuate="onLoad" cx="-1891.3083" id="XMLID_407_" cy="322.1519" xlink:show="other">
            <stop stop-color="#e4e6ef" offset="0"/>
            <stop stop-color="#ba4c96" offset="1"/>
        </radialGradient>
        <path fill="url(#XMLID_407_)" d="M 71.148 42.366 C 71.07 47.558002 68.765 51.736 65.995 51.693 C 63.224003 51.652 61.046 47.41 61.121002 42.216 C 61.198 37.024 63.504 32.849 66.271 32.89 C 69.043 32.931 71.224 37.174 71.148 42.366 z " fill-opacity="0.5"/>
        <radialGradient gradientTransform="matrix(0.8735 0.013 0.0149 -0.9999 1713.3918 388.9978)" gradientUnits="userSpaceOnUse" xlink:type="simple" r="6.292" xlink:actuate="onLoad" cx="-1891.0046" id="XMLID_408_" cy="322.0044" xlink:show="other">
            <stop stop-color="#e4e6ef" offset="0"/>
            <stop stop-color="#ba4c96" offset="1"/>
        </radialGradient>
        <path fill="url(#XMLID_408_)" d="M 70.447 42.504 C 70.383995 46.698 68.52 50.071003 66.284 50.037003 C 64.047 50.004 62.286995 46.577003 62.345997 42.382004 C 62.408997 38.189003 64.271996 34.816 66.506 34.849003 C 68.747 34.884 70.511 38.312 70.447 42.504 z " fill-opacity="0.75"/>
        <linearGradient x1="-2020.2571" gradientTransform="matrix(1 0 0 -1 2083.8779 353.2139)" y1="310.7222" x2="-2014.1819" gradientUnits="userSpaceOnUse" y2="310.7222" xlink:type="simple" xlink:actuate="onLoad" id="XMLID_409_" xlink:show="other">
            <stop stop-color="#e6eef4" offset="0"/>
            <stop stop-color="#d7b8d4" offset="0.1245"/>
            <stop stop-color="#c77cb2" offset="0.2745"/>
            <stop stop-color="#bd579c" offset="0.3853"/>
            <stop stop-color="#b94994" offset="0.4438"/>
            <stop stop-color="#ab418b" offset="0.4821"/>
            <stop stop-color="#7c266a" offset="0.6298"/>
            <stop stop-color="#5a1253" offset="0.7604"/>
            <stop stop-color="#450544" offset="0.8677"/>
            <stop stop-color="#3d013f" offset="0.9382"/>
            <stop stop-color="#3d013f" offset="1"/>
        </linearGradient>
        <path fill="url(#XMLID_409_)" d="M 69.695 42.538 C 69.648 45.684 68.256 48.211998 66.576 48.186996 C 64.894 48.163 63.574997 45.591995 63.622997 42.447 C 63.67 39.301 65.063995 36.773 66.745995 36.796997 C 68.421 36.824 69.743 39.394 69.695 42.538 z "/>
        <radialGradient gradientTransform="matrix(0.8735 0.013 0.0149 -0.9999 1713.3918 388.9978)" gradientUnits="userSpaceOnUse" xlink:type="simple" r="4.411" xlink:actuate="onLoad" cx="-1890.3904" id="XMLID_410_" cy="321.9917" xlink:show="other">
            <stop stop-color="#e3dfe4" offset="0"/>
            <stop stop-color="#c03a3a" offset="1"/>
        </radialGradient>
        <path fill="url(#XMLID_410_)" d="M 69.773 42.505 C 69.73 45.446 68.425 47.81 66.857 47.787003 C 65.289 47.763004 64.05 45.361004 64.094 42.422005 C 64.138 39.481003 65.445 37.115005 67.013 37.140003 C 68.579 37.164 69.816 39.565 69.773 42.505 z "/>
        <radialGradient gradientTransform="matrix(0.8735 0.013 0.0149 -0.9999 1713.3918 388.9978)" gradientUnits="userSpaceOnUse" xlink:type="simple" r="11.1392" xlink:actuate="onLoad" cx="-1892.9407" id="XMLID_411_" cy="322.0269" xlink:show="other">
            <stop stop-color="#e4e6ef" offset="0"/>
            <stop stop-color="#ba4c96" offset="1"/>
        </radialGradient>
        <path fill="url(#XMLID_411_)" d="M 71.878 42.504 C 71.763 49.928 68.469 55.898003 64.503 55.839 C 60.545998 55.778 57.427 49.714 57.533997 42.287003 C 57.640995 34.864002 60.941998 28.893002 64.905 28.952003 C 68.869 29.012 71.986 35.081 71.878 42.504 z " fill-opacity="0.25"/>
    </g>
    <g>
        <radialGradient gradientTransform="matrix(0.8735 0.013 0.0149 -0.9999 1713.3918 388.9978)" gradientUnits="userSpaceOnUse" xlink:type="simple" r="7.9668" xlink:actuate="onLoad" cx="-1892.7737" id="XMLID_412_" cy="296.5415" xlink:show="other">
            <stop stop-color="#e4e6ef" offset="0"/>
            <stop stop-color="#ba4c96" offset="1"/>
        </radialGradient>
        <path fill="url(#XMLID_412_)" d="M 69.601 67.957 C 69.520996 73.270004 67.162994 77.541 64.327995 77.496 C 61.495995 77.455 59.264996 73.115005 59.344994 67.805 C 59.42499 62.494995 61.782993 58.225 64.616 58.266 C 67.448 58.305 69.677 62.647 69.601 67.957 z " fill-opacity="0.25"/>
        <radialGradient gradientTransform="matrix(0.8735 0.013 0.0149 -0.9999 1713.3918 388.9978)" gradientUnits="userSpaceOnUse" xlink:type="simple" r="6.5222" xlink:actuate="onLoad" cx="-1892.0676" id="XMLID_413_" cy="296.688" xlink:show="other">
            <stop stop-color="#e4e6ef" offset="0"/>
            <stop stop-color="#ba4c96" offset="1"/>
        </radialGradient>
        <path fill="url(#XMLID_413_)" d="M 69.289 67.805 C 69.224 72.153 67.295 75.65 64.974 75.615 C 62.654 75.582 60.829 72.028 60.893997 67.679 C 60.956997 63.331 62.887997 59.835 65.207 59.870003 C 67.529 59.905 69.353 63.458 69.289 67.805 z " fill-opacity="0.5"/>
        <radialGradient gradientTransform="matrix(0.8735 0.013 0.0149 -0.9999 1713.3918 388.9978)" gradientUnits="userSpaceOnUse" xlink:type="simple" r="5.2683" xlink:actuate="onLoad" cx="-1891.8123" id="XMLID_414_" cy="296.564" xlink:show="other">
            <stop stop-color="#e4e6ef" offset="0"/>
            <stop stop-color="#ba4c96" offset="1"/>
        </radialGradient>
        <path fill="url(#XMLID_414_)" d="M 68.703 67.919 C 68.651 71.432 67.091 74.255 65.218 74.228 C 63.345 74.201 61.871002 71.332 61.922 67.81799 C 61.976 64.30699 63.533 61.483994 65.406 61.510994 C 67.28 61.541 68.757 64.41 68.703 67.919 z " fill-opacity="0.75"/>
        <linearGradient x1="-2020.8914" gradientTransform="matrix(1 0 0 -1 2083.8779 353.2139)" y1="285.3032" x2="-2015.8025" gradientUnits="userSpaceOnUse" y2="285.3032" xlink:type="simple" xlink:actuate="onLoad" id="XMLID_415_" xlink:show="other">
            <stop stop-color="#e6eef4" offset="0"/>
            <stop stop-color="#d7b8d4" offset="0.1245"/>
            <stop stop-color="#c77cb2" offset="0.2745"/>
            <stop stop-color="#bd579c" offset="0.3853"/>
            <stop stop-color="#b94994" offset="0.4438"/>
            <stop stop-color="#ab418b" offset="0.4821"/>
            <stop stop-color="#7c266a" offset="0.6298"/>
            <stop stop-color="#5a1253" offset="0.7604"/>
            <stop stop-color="#450544" offset="0.8677"/>
            <stop stop-color="#3d013f" offset="0.9382"/>
            <stop stop-color="#3d013f" offset="1"/>
        </linearGradient>
        <path fill="url(#XMLID_415_)" d="M 68.074 67.949 C 68.034 70.584 66.867 72.7 65.461 72.679 C 64.056 72.658 62.947998 70.505 62.987 67.872 C 63.026 65.235 64.196 63.120003 65.602 63.142002 C 67.007 63.166 68.114 65.316 68.074 67.949 z "/>
        <radialGradient gradientTransform="matrix(0.8735 0.013 0.0149 -0.9999 1713.3918 388.9978)" gradientUnits="userSpaceOnUse" xlink:type="simple" r="3.693" xlink:actuate="onLoad" cx="-1891.2986" id="XMLID_416_" cy="296.5542" xlink:show="other">
            <stop stop-color="#e3dfe4" offset="0"/>
            <stop stop-color="#c03a3a" offset="1"/>
        </radialGradient>
        <path fill="url(#XMLID_416_)" d="M 68.138 67.921 C 68.103 70.383995 67.01 72.36 65.699 72.342995 C 64.384995 72.32199 63.346996 70.312996 63.385998 67.852 C 63.422997 65.389 64.518 63.408997 65.828995 63.428997 C 67.14 63.449 68.175 65.46 68.138 67.921 z "/>
        <radialGradient gradientTransform="matrix(0.8735 0.013 0.0149 -0.9999 1713.3918 388.9978)" gradientUnits="userSpaceOnUse" xlink:type="simple" r="9.3273" xlink:actuate="onLoad" cx="-1893.4338" id="XMLID_417_" cy="296.5845" xlink:show="other">
            <stop stop-color="#e4e6ef" offset="0"/>
            <stop stop-color="#ba4c96" offset="1"/>
        </radialGradient>
        <path fill="url(#XMLID_417_)" d="M 69.902 67.919 C 69.806 74.136 67.048004 79.134995 63.728 79.085 C 60.415 79.035995 57.802002 73.956 57.892002 67.736 C 57.984 61.521 60.746002 56.522 64.064 56.571 C 67.382 56.625 69.99 61.705 69.902 67.919 z " fill-opacity="0.25"/>
    </g>
    <g>
        <linearGradient x1="-671.848" gradientTransform="matrix(1 0 0 -1 694.6259 1095.7686)" y1="1041.9087" x2="-658.8285" gradientUnits="userSpaceOnUse" y2="1068.3802" xlink:type="simple" xlink:actuate="onLoad" id="XMLID_418_" xlink:show="other">
            <stop stop-color="#ffffff" offset="0"/>
            <stop stop-color="#58a015" offset="0.5506"/>
            <stop stop-color="#ffffff" offset="1"/>
        </linearGradient>
        <path fill="url(#XMLID_418_)" d="M 18.307 49.171 L 23.64 54.285 C 37.285 46.988 38.161 34.323997 36.659 27.812 L 29.486 26.562 C 30.612 35.699 26.542 44.162 18.307 49.171 z "/>
        <linearGradient x1="-2283.0505" gradientTransform="matrix(-0.4394 -0.9378 0.962 -0.4508 -1299.3925 -1950.6621)" y1="321.9126" x2="-2272.1692" gradientUnits="userSpaceOnUse" y2="337.5255" xlink:type="simple" xlink:actuate="onLoad" id="XMLID_419_" xlink:show="other">
            <stop stop-color="#ffffff" offset="0"/>
            <stop stop-color="#58a015" offset="0.5506"/>
            <stop stop-color="#ffffff" offset="1"/>
        </linearGradient>
        <path fill="url(#XMLID_419_)" d="M 10.485 41.533 L 16.291 46.468002 C 24.945 41.717003 27.385 32.230003 26.033 26.492002 L 18.974 24.706003 C 19.942 29.695 16.993 37.756 10.485 41.533 z "/>
        <linearGradient x1="-2273.9294" gradientTransform="matrix(-0.4394 -0.9378 0.962 -0.4508 -1299.3925 -1950.6621)" y1="317.9829" x2="-2265.2063" gradientUnits="userSpaceOnUse" y2="330.499" xlink:type="simple" xlink:actuate="onLoad" id="XMLID_420_" xlink:show="other">
            <stop stop-color="#ffffff" offset="0"/>
            <stop stop-color="#58a015" offset="0.5506"/>
            <stop stop-color="#ffffff" offset="1"/>
        </linearGradient>
        <path fill="url(#XMLID_420_)" d="M 3.167 35.3 L 8.579 39.193 C 13.174 36.778 16.684 30.815 15.713 24.461 C 15.713 24.461 9.668 22.502 9.632 22.515001 C 10.269 28.349 6.193 33.749 3.167 35.3 z "/>
    </g>
</svg>
