<?xml version="1.0" encoding="UTF-8"?>
<svg xmlns="http://www.w3.org/2000/svg" xmlns:xlink="http://www.w3.org/1999/xlink" contentScriptType="text/ecmascript" width="26" baseProfile="tiny" zoomAndPan="magnify" contentStyleType="text/css" viewBox="0 -5.483 26 26" height="26" preserveAspectRatio="xMidYMid meet" version="1.0">
    <rect x="0" width="26" fill="none" y="-5.483" height="26"/>
    <path d="M 4.813 0.0 L 4.813 4.121 L 0.0 4.121 L 4.332 11.655 L 4.812 11.655 L 4.812 15.000999 L 23.77 15.000999 L 23.77 0.0 L 4.813 0.0 z M 18.034 3.106 L 16.381 4.758 L 12.198 4.758 L 10.547 3.106 L 18.034 3.106 z M 20.665 11.896 L 7.918 11.896 L 7.918 11.656 L 8.596001 11.656 L 8.596001 5.667 L 10.886001 7.951 L 11.125001 8.186999 L 11.460001 8.186999 L 17.129002 8.183999 L 17.466002 8.183999 L 17.703 7.946999 L 20.665 4.991999 L 20.665 11.896 z " fill-opacity="0.3"/>
    <path fill="#ffffff" d="M 5.625 0.813 L 5.625 3.75 L 7.105 3.75 L 7.105 3.034 L 11.459 7.375 L 17.128 7.373 L 21.477 3.034 L 21.477 12.708 L 7.105 12.708 L 7.105 12.024 L 5.625 12.024 L 5.625 14.188 L 22.958 14.188 L 22.958 0.813 L 5.625 0.813 z M 16.719 5.571 L 11.863 5.571 L 8.585 2.294 L 19.996 2.294 L 16.719 5.571 z " fill-opacity="0.3"/>
    <path fill="#ffffff" d="M 4.802 10.843 L 7.783 10.843 L 7.783 8.391 L 3.393 8.391 L 4.802 10.843 z M 1.405 4.934 L 2.814 7.386 L 7.783 7.386 L 7.783 4.934 L 1.405 4.934 z " fill-opacity="0.3"/>
</svg>
