<?xml version="1.0" encoding="UTF-8"?>
<svg xmlns="http://www.w3.org/2000/svg" xmlns:xlink="http://www.w3.org/1999/xlink" contentScriptType="text/ecmascript" width="42" baseProfile="tiny" zoomAndPan="magnify" contentStyleType="text/css" viewBox="0 0 42 29" height="29" preserveAspectRatio="xMidYMid meet" version="1.1">
    <rect x="0.012" width="42" fill="none" y="0.004" height="29"/>
    <g>
        <g>
            <linearGradient x1="-667.5425" gradientTransform="matrix(1 0 0 1 694.626 -1810.3232)" y1="1827.5029" x2="-664.0197" gradientUnits="userSpaceOnUse" y2="1831.6006" xlink:type="simple" xlink:actuate="onLoad" id="XMLID_214_" xlink:show="other">
                <stop stop-color="#aabbd7" offset="0"/>
                <stop stop-color="#92a5cc" offset="0.2634"/>
                <stop stop-color="#6c83bb" offset="0.7135"/>
                <stop stop-color="#637db5" offset="0.7571"/>
                <stop stop-color="#4c6ea4" offset="0.8268"/>
                <stop stop-color="#265689" offset="0.9134"/>
                <stop stop-color="#003d6d" offset="0.9888"/>
                <stop stop-color="#003d6d" offset="1"/>
            </linearGradient>
            <path fill="url(#XMLID_214_)" d="M 20.195 3.317 C 20.199 3.316 20.203 3.327 20.205 3.326 C 17.876 4.26 16.465 6.594 16.428 9.565 L 16.5 16.446999 C 16.444 21.056 19.308 25.075998 22.885 25.401999 C 23.709 25.475998 24.531 25.399998 25.317 25.171999 C 27.965 24.526 31.52 23.067 31.68 17.897 L 31.862 10.502999 C 31.799 7.4239993 30.574 4.971999 28.414 3.5859995 C 26.143 2.131 23.148 2.034 20.195 3.317 z "/>
            <g>
                <g>
                    <linearGradient x1="-668.6982" gradientTransform="matrix(1 0 0 1 694.626 -1810.3232)" y1="1812.3857" x2="-668.5615" gradientUnits="userSpaceOnUse" y2="1835.1282" xlink:type="simple" xlink:actuate="onLoad" id="XMLID_215_" xlink:show="other">
                        <stop stop-color="#ffffff" offset="0"/>
                        <stop stop-color="#e4edf5" offset="0.0804"/>
                        <stop stop-color="#b4cee4" offset="0.2367"/>
                        <stop stop-color="#a2c2dd" offset="0.3146"/>
                        <stop stop-color="#8eabd1" offset="0.4547"/>
                        <stop stop-color="#6c83bb" offset="0.6573"/>
                        <stop stop-color="#637db5" offset="0.7036"/>
                        <stop stop-color="#4c6ea4" offset="0.7776"/>
                        <stop stop-color="#265689" offset="0.8695"/>
                        <stop stop-color="#003d6d" offset="0.9494"/>
                        <stop stop-color="#003d6d" offset="1"/>
                    </linearGradient>
                    <path fill="url(#XMLID_215_)" d="M 20.292 3.536 C 25.883999 1.1029999 31.486 3.863 31.623001 10.498 L 31.441002 17.889 C 31.293001 22.713 28.162003 24.352 24.628002 25.084 L 20.292 3.536 z "/>
                    <linearGradient x1="-679.7461" gradientTransform="matrix(1 0 0 1 694.626 -1810.3232)" y1="1807.3086" x2="-670.1123" gradientUnits="userSpaceOnUse" y2="1826.9695" xlink:type="simple" xlink:actuate="onLoad" id="XMLID_216_" xlink:show="other">
                        <stop stop-color="#ffffff" offset="0"/>
                        <stop stop-color="#f8fbfd" offset="0.1745"/>
                        <stop stop-color="#e6eff6" offset="0.4209"/>
                        <stop stop-color="#c8dbeb" offset="0.7103"/>
                        <stop stop-color="#a2c2dd" offset="1"/>
                    </linearGradient>
                    <path fill="url(#XMLID_216_)" d="M 23.313 3.231 C 27.498 3.75 29.86 7.179 29.76 12.251 L 29.551 18.829 C 29.498001 23.109001 26.33 25.476 22.905 25.167 C 19.29 24.837 16.685001 20.729 16.737 16.443 L 16.667 9.568001 C 16.718 5.29 19.708 2.659 23.313 3.231 z "/>
                    <path fill="#ffffff" d="M 27.318 11.386 L 24.023 14.459999 L 27.297 18.887 L 22.482 23.372 L 22.496 15.885 L 20.162 18.059 L 19.314001 16.846 L 22.264002 14.097 L 19.331001 10.136 L 20.183 9.275 L 22.504002 12.406 L 22.529001 4.9230003 L 27.318 11.386 z M 23.738 8.564 C 23.734001 10.023 23.728 11.302 23.719002 12.735001 C 24.549002 11.967001 25.324001 11.241001 25.558002 11.024 C 25.127 10.442 24.52 9.622 23.738 8.564 M 25.541 18.525 C 25.309 18.211 24.537 17.168 23.715 16.057999 C 23.713 17.494 23.713 18.772999 23.709 20.23 C 24.496 19.498 25.105 18.928 25.541 18.525 "/>
                </g>
            </g>
        </g>
    </g>
    <path fill="#ffffff" d="M 20.212 3.317 C 20.216 3.316 20.22 3.327 20.222 3.326 C 17.893 4.26 16.482 6.594 16.445 9.565 L 16.517 16.446999 C 16.461 21.056 19.325 25.075998 22.902 25.401999 C 23.726 25.475998 24.547 25.399998 25.334 25.171999 C 27.982 24.526 31.536999 23.067 31.696999 17.897 L 31.878998 10.502999 C 31.815998 7.4239993 30.589998 4.971999 28.429998 3.5859995 C 26.16 2.131 23.166 2.034 20.212 3.317 z " fill-opacity="0.4"/>
    <g>
        <path fill="#ffffff" d="M 6.642 17.092 C 5.203 17.092 3.2300003 17.433998 2.7300003 20.387 L 2.6560001 20.834 C 2.6560001 20.834 5.973 20.834 6.367 20.834 C 6.484 21.046999 6.663 21.367 6.775 21.572 C 6.662 21.775 6.484 22.095001 6.367 22.308 C 5.973 22.308 2.6560001 22.308 2.6560001 22.308 L 2.73 22.752 C 3.23 25.707 5.203 26.047 6.642 26.047 C 7.7770004 26.047 8.788 25.099 9.601 24.330002 C 10.04 23.916002 10.455 23.524002 10.674 23.524002 L 20.833 23.524002 L 20.945 23.399002 C 21.164999 23.162003 21.668999 22.504002 21.682 21.586002 L 21.682 21.556002 C 21.671 20.634 21.164999 19.980001 20.945 19.740002 L 20.833 19.615002 L 10.674 19.615002 C 10.4539995 19.615002 10.04 19.226002 9.601999 18.812002 C 8.789 18.045 7.777 17.092 6.642 17.092 z " fill-opacity="0.4"/>
        <linearGradient x1="149.8428" gradientTransform="matrix(0.5 0 0 0.5 -68.9746 -1509.8223)" y1="3049.0225" x2="171.7501" gradientUnits="userSpaceOnUse" y2="3075.3774" xlink:type="simple" xlink:actuate="onLoad" id="XMLID_217_" xlink:show="other">
            <stop stop-color="#e6edf3" offset="0"/>
            <stop stop-color="#cabad7" offset="0.1196"/>
            <stop stop-color="#ab7eb8" offset="0.2719"/>
            <stop stop-color="#9759a4" offset="0.3844"/>
            <stop stop-color="#8f4b9c" offset="0.4438"/>
            <stop stop-color="#73357c" offset="0.5679"/>
            <stop stop-color="#551d5a" offset="0.7242"/>
            <stop stop-color="#430e45" offset="0.8533"/>
            <stop stop-color="#3c093d" offset="0.9382"/>
            <stop stop-color="#3c093d" offset="1"/>
        </linearGradient>
        <path fill="url(#XMLID_217_)" d="M 21.301 21.57 C 21.301 21.566 21.303001 21.562 21.303001 21.56 L 21.3 21.56 C 21.289999 20.755999 20.831999 20.178999 20.664999 19.996 C 20.449999 19.996 10.674999 19.996 10.674999 19.996 C 10.3029995 19.996 9.898999 19.615 9.337999 19.09 C 8.577 18.371 7.624999 17.475 6.6409993 17.475 C 5.0429993 17.475 3.5309994 17.944 3.1069994 20.453001 C 3.7079995 20.453001 6.589999 20.453001 6.589999 20.453001 L 7.208999 21.571001 L 6.59 22.689 C 6.59 22.689 3.7070003 22.689 3.107 22.689 C 3.532 25.196999 5.044 25.665998 6.641 25.665998 C 7.625 25.665998 8.576 24.770998 9.337999 24.052998 C 9.898999 23.525997 10.3029995 23.144997 10.674999 23.144997 C 10.674999 23.144997 20.449999 23.144997 20.664999 23.144997 C 20.832998 22.960997 21.292 22.382998 21.3 21.581997 L 21.303 21.581997 C 21.303 21.578 21.301 21.574 21.301 21.57 z "/>
    </g>
    <g>
        <path fill="#ffffff" d="M 32.664 19.408 C 32.008003 18.756 29.016 15.775002 29.016 15.775002 L 26.985 17.814001 C 26.985 17.814001 29.965 20.783 30.627 21.441002 C 29.967001 22.097002 26.985 25.068003 26.985 25.068003 L 29.016 27.107002 C 29.016 27.107002 32.008 24.127003 32.664 23.472002 C 33.32 24.125002 36.312 27.107002 36.312 27.107002 L 38.342 25.068003 C 38.342 25.068003 35.363 22.097002 34.703 21.441002 C 35.363 20.783 38.342 17.814001 38.342 17.814001 L 36.312 15.773001 C 36.313 15.775 33.32 18.756 32.664 19.408 z "/>
        <linearGradient x1="208.0977" gradientTransform="matrix(0.5 0 0 0.5 -67.854 -1513.5195)" y1="3048.4287" x2="194.4507" gradientUnits="userSpaceOnUse" y2="3089.9629" xlink:type="simple" xlink:actuate="onLoad" id="XMLID_218_" xlink:show="other">
            <stop stop-color="#e6eef4" offset="0"/>
            <stop stop-color="#c03a3a" offset="0.4438"/>
            <stop stop-color="#302d02" offset="0.9382"/>
            <stop stop-color="#302d02" offset="1"/>
        </linearGradient>
        <polygon fill="url(#XMLID_218_)" points="37.504,17.813 36.311,16.613 32.664,20.248 29.018,16.613 27.824,17.813 31.465,21.441    27.824,25.068 29.018,26.268 32.664,22.635 36.311,26.268 37.504,25.068 33.863,21.441  "/>
    </g>
</svg>
