<?xml version="1.0" encoding="UTF-8"?>
<svg xmlns="http://www.w3.org/2000/svg" xmlns:xlink="http://www.w3.org/1999/xlink" contentScriptType="text/ecmascript" width="54" baseProfile="tiny" zoomAndPan="magnify" contentStyleType="text/css" viewBox="0 0 54 54" height="54" preserveAspectRatio="xMidYMid meet" version="1.1">
    <rect width="54" fill="none" height="54"/>
    <path fill="#ffffff" d="M 26.669 15.055 C 20.185001 15.055 15.156001 18.887001 15.156001 25.076 C 15.156001 28.014 17.126001 31.746 18.979 35.217 C 19.808 36.772 20.65 38.262 21.581 39.488 C 21.57 39.488 21.557999 39.488 21.557999 39.488 L 21.557999 47.619 L 31.875 47.619 L 31.875 39.488 C 31.877 39.48 33.299 37.224 34.102 35.929 C 36.313 32.345 38.641003 28.167 38.641003 25.073002 C 38.641 18.887 33.155 15.055 26.669 15.055 z M 28.582 44.367 L 24.684 44.367 L 24.684 42.086002 L 28.582 42.086002 L 28.582 44.367 z M 32.092 35.123 C 31.397 36.25 30.264 38.044003 29.834 38.732002 C 29.621 39.070004 29.51 39.275 29.506 39.279003 L 29.172 39.949 L 29.172 40.375 L 24.214 40.375 L 24.229 39.631 L 23.585001 38.779 C 22.678001 37.579998 21.807001 36.024998 21.0 34.517 C 19.301 31.329998 17.183 27.363998 17.183 24.885998 C 17.183 19.487999 21.93 17.071999 26.636002 17.071999 C 31.434002 17.071999 36.594 19.515999 36.594 24.887 C 36.594 27.822 33.323 33.129 32.092 35.123 z "/>
    <rect x="25.475" width="2.845" fill="#ffffff" y="6.387" height="5.57"/>
    <rect x="41.627" width="5.572" fill="#ffffff" y="24.779" height="2.848"/>
    <rect x="6.8" width="5.573" fill="#ffffff" y="24.779" height="2.848"/>
    <polygon fill="#ffffff" points="39.92,17.855 37.912,15.842 41.475,12.258 43.484,14.27 "/>
    <polygon fill="#ffffff" points="12.371,12.258 10.365,14.271 13.929,17.857 15.938,15.846 "/>
</svg>
