<?xml version="1.0" encoding="UTF-8"?>
<svg xmlns="http://www.w3.org/2000/svg" xmlns:xlink="http://www.w3.org/1999/xlink" contentScriptType="text/ecmascript" width="84" baseProfile="tiny" zoomAndPan="magnify" contentStyleType="text/css" viewBox="0 0 84 58" height="58" preserveAspectRatio="xMidYMid meet" version="1.1">
    <g>
        <g>
            <path fill="#ffffff" d="M 71.085 22.968 L 70.868996 23.082 L 52.051 34.143 C 52.051 34.143 55.449997 36.931 56.037 37.409 C 50.788998 41.583 45.024 43.403 39.75 42.48 C 39.572 42.45 39.401 42.399 39.228 42.364 C 40.427002 34.999 41.605 24.963 40.874 14.949999 C 39.891 13.804998 37.812 12.444999 35.909 11.705999 L 36.702 6.0819993 C 37.093998 4.1259995 31.582 3.6869993 31.612999 5.6589994 C 31.634998 7.1169996 31.756998 10.643999 31.756998 10.643999 C 25.039997 9.562999 18.074997 11.771999 15.902998 12.644999 C 15.214998 24.575998 16.684998 39.617996 17.718998 46.691 C 19.723999 48.806004 26.575998 53.123 32.436996 52.882004 C 34.484997 52.088005 36.800995 49.247005 36.800995 49.247005 C 36.800995 49.247005 36.960995 48.479004 37.007996 48.247005 C 37.091995 48.176006 37.351997 47.949005 37.624996 47.711006 C 50.467995 56.997005 63.888996 46.791008 66.058 45.004005 C 66.436 45.265007 70.173 47.841003 70.173 47.841003 L 74.185 25.508003 L 71.085 22.968 z "/>
            <linearGradient x1="-711.522" gradientTransform="matrix(1.1905 0 0 -1.1905 875.8589 1345.4081)" y1="1125.3643" x2="-701.6874" gradientUnits="userSpaceOnUse" y2="1111.3541" xlink:type="simple" xlink:actuate="onLoad" id="XMLID_25_" xlink:show="other">
                <stop stop-color="#a2c2dd" offset="0"/>
                <stop stop-color="#a2c2dd" offset="0.1"/>
                <stop stop-color="#6c83bb" offset="0.71"/>
                <stop stop-color="#003d6d" offset="0.99"/>
                <stop stop-color="#003d6d" offset="1"/>
            </linearGradient>
            <path fill="url(#XMLID_25_)" d="M 27.246 10.754 C 30.768 10.622 36.697998 11.134999 40.522 15.0789995 L 38.259 16.15 L 27.246 10.754 z "/>
            <linearGradient x1="-706.1001" gradientTransform="matrix(1.1905 0 0 -1.1905 875.8589 1345.4081)" y1="1124.1084" x2="-702.5583" gradientUnits="userSpaceOnUse" y2="1096.2078" xlink:type="simple" xlink:actuate="onLoad" id="XMLID_26_" xlink:show="other">
                <stop stop-color="#ffffff" offset="0"/>
                <stop stop-color="#a2c2dd" offset="0.35"/>
                <stop stop-color="#6c83bb" offset="0.7"/>
                <stop stop-color="#003d6d" offset="1"/>
            </linearGradient>
            <path fill="url(#XMLID_26_)" d="M 38.632 15.946 L 36.243 48.412 L 38.067 46.829998 C 39.493 40.385998 41.434002 24.481998 40.512 15.028997 L 38.632 15.946 z "/>
            <linearGradient x1="-717.2109" gradientTransform="matrix(1.1905 0 0 -1.1905 875.8589 1345.4081)" y1="1114.5654" x2="-708.3019" gradientUnits="userSpaceOnUse" y2="1121.7244" xlink:type="simple" xlink:actuate="onLoad" id="XMLID_27_" xlink:show="other">
                <stop stop-color="#ffffff" offset="0"/>
                <stop stop-color="#ffffff" offset="0.15"/>
                <stop stop-color="#a2c2dd" offset="1"/>
            </linearGradient>
            <path fill="url(#XMLID_27_)" d="M 16.261 12.894 C 22.965 10.432 32.248 8.934 38.906 15.283 L 33.475998 17.933 L 16.261 12.894 z "/>
            <linearGradient x1="-705.9468" gradientTransform="matrix(1.1905 0 0 -1.1905 875.8589 1345.4081)" y1="1122.1846" x2="-705.5051" gradientUnits="userSpaceOnUse" y2="1078.4514" xlink:type="simple" xlink:actuate="onLoad" id="XMLID_28_" xlink:show="other">
                <stop stop-color="#ffffff" offset="0"/>
                <stop stop-color="#a2c2dd" offset="0.35"/>
                <stop stop-color="#6c83bb" offset="0.7"/>
                <stop stop-color="#003d6d" offset="1"/>
            </linearGradient>
            <path fill="url(#XMLID_28_)" d="M 33.475 17.932 L 32.274 52.541 C 34.815998 51.339 36.431 49.12 36.431 49.12 C 37.934 42.32 39.878998 25.254 38.905 15.281998 L 33.475 17.932 z "/>
            <linearGradient x1="-710.2427" gradientTransform="matrix(1.1905 0 0 -1.1905 875.8589 1345.4081)" y1="1119.335" x2="-704.0264" gradientUnits="userSpaceOnUse" y2="1116.6268" xlink:type="simple" xlink:actuate="onLoad" id="XMLID_29_" xlink:show="other">
                <stop stop-color="#ffffff" offset="0"/>
                <stop stop-color="#a2c2dd" offset="0.35"/>
                <stop stop-color="#6c83bb" offset="0.7"/>
                <stop stop-color="#003d6d" offset="1"/>
            </linearGradient>
            <path fill="url(#XMLID_29_)" d="M 35.914 14.133 C 36.188 15.886001 31.542002 16.154 31.581001 14.2300005 C 31.607 12.906 35.71 12.828 35.914 14.133 z "/>
            <linearGradient x1="-708.9688" gradientTransform="matrix(1.1905 0 0 -1.1905 875.8589 1345.4081)" y1="1121.6348" x2="-704.27" gradientUnits="userSpaceOnUse" y2="1121.3182" xlink:type="simple" xlink:actuate="onLoad" id="XMLID_30_" xlink:show="other">
                <stop stop-color="#e6eef4" offset="0"/>
                <stop stop-color="#337ce5" offset="0.44"/>
                <stop stop-color="#003d6d" offset="0.94"/>
                <stop stop-color="#003d6d" offset="1"/>
            </linearGradient>
            <path fill="url(#XMLID_30_)" d="M 32.081 5.46 C 32.081 5.46 32.361 14.363 32.36 14.385 C 33.034 15.147 34.626 15.088 35.100002 14.402 L 36.304 5.8910007 L 32.081 5.46 z "/>
            <linearGradient x1="-706.5918" gradientTransform="matrix(1.1905 0 0 -1.1905 875.8589 1345.4081)" y1="1120.5566" x2="-718.558" gradientUnits="userSpaceOnUse" y2="1096.0658" xlink:type="simple" xlink:actuate="onLoad" id="XMLID_31_" xlink:show="other">
                <stop stop-color="#ffffff" offset="0"/>
                <stop stop-color="#ffffff" offset="0.05"/>
                <stop stop-color="#a2c2dd" offset="1"/>
            </linearGradient>
            <path fill="url(#XMLID_31_)" d="M 16.261 12.894 C 19.989 11.645 27.886 12.685 33.475998 17.933 C 34.131996 27.341 33.603996 43.681 32.274998 52.542 C 27.765999 52.658 21.398998 49.551 18.037998 46.56 C 16.932 38.649 15.564 22.354 16.261 12.894 z "/>
            <linearGradient x1="-704.2788" gradientTransform="matrix(1.1905 0 0 -1.1905 875.8589 1345.4081)" y1="1101.6387" x2="-722.7371" gradientUnits="userSpaceOnUse" y2="1111.8469" xlink:type="simple" xlink:actuate="onLoad" id="XMLID_32_" xlink:show="other">
                <stop stop-color="#ffffff" offset="0"/>
                <stop stop-color="#ffffff" offset="0.05"/>
                <stop stop-color="#a2c2dd" offset="1"/>
            </linearGradient>
            <polygon fill="url(#XMLID_32_)" points="18.12,15.177 18.695,35.123 31.151,39.83 31.567,19.137   "/>
            <linearGradient x1="-719.0874" gradientTransform="matrix(1.1905 0 0 -1.1905 875.8589 1345.4081)" y1="1088.167" x2="-720.079" gradientUnits="userSpaceOnUse" y2="1127.0917" xlink:type="simple" xlink:actuate="onLoad" id="XMLID_33_" xlink:show="other">
                <stop stop-color="#ffffff" offset="0"/>
                <stop stop-color="#a2c2dd" offset="0.35"/>
                <stop stop-color="#6c83bb" offset="0.7"/>
                <stop stop-color="#003d6d" offset="1"/>
            </linearGradient>
            <polygon fill="url(#XMLID_33_)" points="20.086,34.26 19.724,15.646 18.12,15.177 18.695,35.123   "/>
            <linearGradient x1="-708.7114" gradientTransform="matrix(1.1905 0 0 -1.1905 875.8589 1345.4081)" y1="1093.6318" x2="-723.5372" gradientUnits="userSpaceOnUse" y2="1107.6241" xlink:type="simple" xlink:actuate="onLoad" id="XMLID_34_" xlink:show="other">
                <stop stop-color="#ffffff" offset="0"/>
                <stop stop-color="#ffffff" offset="0.15"/>
                <stop stop-color="#a2c2dd" offset="1"/>
            </linearGradient>
            <polygon fill="url(#XMLID_34_)" points="18.695,35.123 20.086,34.26 31.2,38.204 31.151,39.83   "/>
            <linearGradient x1="-708.3115" gradientTransform="matrix(1.1905 0 0 -1.1905 875.8589 1345.4081)" y1="1124.9756" x2="-705.4531" gradientUnits="userSpaceOnUse" y2="1125.9006" xlink:type="simple" xlink:actuate="onLoad" id="XMLID_35_" xlink:show="other">
                <stop stop-color="#d6e4f3" offset="0"/>
                <stop stop-color="#337ce5" offset="1"/>
            </linearGradient>
            <path fill="url(#XMLID_35_)" d="M 36.304 5.891 C 35.907 7.0459995 31.678001 6.533 32.119 5.3799996 C 32.567 4.239 36.687 4.728 36.304 5.891 z "/>
            <linearGradient x1="-717.8384" gradientTransform="matrix(1.1905 0 0 -1.1905 875.8589 1345.4081)" y1="1103.1846" x2="-709.6531" gradientUnits="userSpaceOnUse" y2="1089.5813" xlink:type="simple" xlink:actuate="onLoad" id="XMLID_36_" xlink:show="other">
                <stop stop-color="#e6eef4" offset="0"/>
                <stop stop-color="#337ce5" offset="0.44"/>
                <stop stop-color="#003d6d" offset="0.94"/>
                <stop stop-color="#003d6d" offset="1"/>
            </linearGradient>
            <polygon fill="url(#XMLID_36_)" points="27.131,45.06 30.334,46.443 30.46,44.078 27.201,42.698   "/>
            <linearGradient x1="-716.6602" gradientTransform="matrix(1.1905 0 0 -1.1905 875.8589 1345.4081)" y1="1103.8926" x2="-708.4753" gradientUnits="userSpaceOnUse" y2="1090.29" xlink:type="simple" xlink:actuate="onLoad" id="XMLID_37_" xlink:show="other">
                <stop stop-color="#e6eef4" offset="0"/>
                <stop stop-color="#337ce5" offset="0.44"/>
                <stop stop-color="#003d6d" offset="0.94"/>
                <stop stop-color="#003d6d" offset="1"/>
            </linearGradient>
            <polygon fill="url(#XMLID_37_)" points="30.49,43.465 30.617,41.106 27.285,39.833 27.217,42.088   "/>
            <linearGradient x1="-718.9731" gradientTransform="matrix(1.1905 0 0 -1.1905 875.8589 1345.4081)" y1="1102.5029" x2="-710.7876" gradientUnits="userSpaceOnUse" y2="1088.8993" xlink:type="simple" xlink:actuate="onLoad" id="XMLID_38_" xlink:show="other">
                <stop stop-color="#e6eef4" offset="0"/>
                <stop stop-color="#337ce5" offset="0.44"/>
                <stop stop-color="#003d6d" offset="0.94"/>
                <stop stop-color="#003d6d" offset="1"/>
            </linearGradient>
            <polygon fill="url(#XMLID_38_)" points="27.113,45.671 27.055,47.807 30.189,49.237 30.303,47.058   "/>
            <linearGradient x1="-721.2573" gradientTransform="matrix(1.1905 0 0 -1.1905 875.8589 1345.4081)" y1="1101.123" x2="-713.0756" gradientUnits="userSpaceOnUse" y2="1087.5256" xlink:type="simple" xlink:actuate="onLoad" id="XMLID_39_" xlink:show="other">
                <stop stop-color="#e6eef4" offset="0"/>
                <stop stop-color="#337ce5" offset="0.44"/>
                <stop stop-color="#003d6d" offset="0.94"/>
                <stop stop-color="#003d6d" offset="1"/>
            </linearGradient>
            <polygon fill="url(#XMLID_39_)" points="22.709,40.839 19.896,39.697 20.043,42.079 22.798,43.219   "/>
            <linearGradient x1="-718.5029" gradientTransform="matrix(1.1905 0 0 -1.1905 875.8589 1345.4081)" y1="1102.7803" x2="-710.3201" gradientUnits="userSpaceOnUse" y2="1089.1812" xlink:type="simple" xlink:actuate="onLoad" id="XMLID_40_" xlink:show="other">
                <stop stop-color="#e6eef4" offset="0"/>
                <stop stop-color="#337ce5" offset="0.44"/>
                <stop stop-color="#003d6d" offset="0.94"/>
                <stop stop-color="#003d6d" offset="1"/>
            </linearGradient>
            <polygon fill="url(#XMLID_40_)" points="26.593,41.868 26.619,39.622 23.384,38.411 23.424,40.564   "/>
            <linearGradient x1="-720.2788" gradientTransform="matrix(1.1905 0 0 -1.1905 875.8589 1345.4081)" y1="1101.7129" x2="-712.0947" gradientUnits="userSpaceOnUse" y2="1088.1117" xlink:type="simple" xlink:actuate="onLoad" id="XMLID_41_" xlink:show="other">
                <stop stop-color="#e6eef4" offset="0"/>
                <stop stop-color="#337ce5" offset="0.44"/>
                <stop stop-color="#003d6d" offset="0.94"/>
                <stop stop-color="#003d6d" offset="1"/>
            </linearGradient>
            <polygon fill="url(#XMLID_41_)" points="22.608,38.08 19.727,37.018 19.857,39.081 22.686,40.226   "/>
            <linearGradient x1="-720.6357" gradientTransform="matrix(1.1905 0 0 -1.1905 875.8589 1345.4081)" y1="1101.499" x2="-712.452" gradientUnits="userSpaceOnUse" y2="1087.8984" xlink:type="simple" xlink:actuate="onLoad" id="XMLID_42_" xlink:show="other">
                <stop stop-color="#e6eef4" offset="0"/>
                <stop stop-color="#337ce5" offset="0.44"/>
                <stop stop-color="#003d6d" offset="0.94"/>
                <stop stop-color="#003d6d" offset="1"/>
            </linearGradient>
            <polygon fill="url(#XMLID_42_)" points="23.529,46.269 26.53,47.609 26.552,45.468 23.492,44.161   "/>
            <linearGradient x1="-722.2305" gradientTransform="matrix(1.1905 0 0 -1.1905 875.8589 1345.4081)" y1="1100.5352" x2="-714.0496" gradientUnits="userSpaceOnUse" y2="1086.9392" xlink:type="simple" xlink:actuate="onLoad" id="XMLID_43_" xlink:show="other">
                <stop stop-color="#e6eef4" offset="0"/>
                <stop stop-color="#337ce5" offset="0.44"/>
                <stop stop-color="#003d6d" offset="0.94"/>
                <stop stop-color="#003d6d" offset="1"/>
            </linearGradient>
            <polygon fill="url(#XMLID_43_)" points="22.815,43.84 20.083,42.698 20.21,44.775 22.892,45.948   "/>
            <linearGradient x1="-719.5811" gradientTransform="matrix(1.1905 0 0 -1.1905 875.8589 1345.4081)" y1="1102.1328" x2="-711.3977" gradientUnits="userSpaceOnUse" y2="1088.5328" xlink:type="simple" xlink:actuate="onLoad" id="XMLID_44_" xlink:show="other">
                <stop stop-color="#e6eef4" offset="0"/>
                <stop stop-color="#337ce5" offset="0.44"/>
                <stop stop-color="#003d6d" offset="0.94"/>
                <stop stop-color="#003d6d" offset="1"/>
            </linearGradient>
            <polygon fill="url(#XMLID_44_)" points="23.435,41.178 23.479,43.547 26.563,44.854 26.586,42.482   "/>
            <linearGradient x1="-721.6563" gradientTransform="matrix(1.1905 0 0 -1.1905 875.8589 1345.4081)" y1="1100.8828" x2="-713.4736" gradientUnits="userSpaceOnUse" y2="1087.2839" xlink:type="simple" xlink:actuate="onLoad" id="XMLID_45_" xlink:show="other">
                <stop stop-color="#e6eef4" offset="0"/>
                <stop stop-color="#337ce5" offset="0.44"/>
                <stop stop-color="#003d6d" offset="0.94"/>
                <stop stop-color="#003d6d" offset="1"/>
            </linearGradient>
            <polygon fill="url(#XMLID_45_)" points="23.542,46.893 23.58,49.055 26.501,50.451 26.525,48.23   "/>
            <linearGradient x1="-703.5596" gradientTransform="matrix(1.1905 0 0 -1.1905 875.8589 1345.4081)" y1="1085.9482" x2="-679.952" gradientUnits="userSpaceOnUse" y2="1103.4478" xlink:type="simple" xlink:actuate="onLoad" id="XMLID_46_" xlink:show="other">
                <stop stop-color="#e6eef4" offset="0"/>
                <stop stop-color="#b94994" offset="0.44"/>
                <stop stop-color="#3d013f" offset="0.94"/>
                <stop stop-color="#3d013f" offset="1"/>
            </linearGradient>
            <path fill="url(#XMLID_46_)" d="M 33.544 43.544 C 39.726997 50.469997 63.464996 42.157997 63.464996 42.157997 L 66.211 44.427 C 66.211 44.427 48.476 60.27 33.544 43.544 z "/>
            <linearGradient x1="-674.9946" gradientTransform="matrix(1.1905 0 0 -1.1905 875.8589 1345.4081)" y1="1113.4912" x2="-679.9946" gradientUnits="userSpaceOnUse" y2="1075.5748" xlink:type="simple" xlink:actuate="onLoad" id="XMLID_47_" xlink:show="other">
                <stop stop-color="#e6eef4" offset="0"/>
                <stop stop-color="#b94994" offset="0.44"/>
                <stop stop-color="#3d013f" offset="0.94"/>
                <stop stop-color="#3d013f" offset="1"/>
            </linearGradient>
            <polygon fill="url(#XMLID_47_)" points="66.678,45.12 69.925,47.25 73.807,25.648 71.051,23.39   "/>
            <linearGradient x1="-688.502" gradientTransform="matrix(1.1905 0 0 -1.1905 875.8589 1345.4081)" y1="1085.8916" x2="-693.5687" gradientUnits="userSpaceOnUse" y2="1106.292" xlink:type="simple" xlink:actuate="onLoad" id="XMLID_48_" xlink:show="other">
                <stop stop-color="#e4e6ef" offset="0"/>
                <stop stop-color="#ba4c96" offset="1"/>
            </linearGradient>
            <path fill="url(#XMLID_48_)" d="M 30.126 36.639 C 33.026 49.46 49.126 55.07 63.211 42.208 L 66.798 45.206 L 71.042 23.381 L 52.656 34.189 L 56.607 37.426 C 45.051 46.896 33.872 42.909 30.126 36.639 z "/>
        </g>
        <rect width="84" fill="none" height="58"/>
    </g>
</svg>
