<?xml version="1.0" encoding="UTF-8"?>
<svg xmlns="http://www.w3.org/2000/svg" xmlns:xlink="http://www.w3.org/1999/xlink" contentScriptType="text/ecmascript" width="100" baseProfile="tiny" zoomAndPan="magnify" contentStyleType="text/css" viewBox="-0.245 -0.01 100 69" height="69" preserveAspectRatio="xMidYMid meet" version="1.1">
    <rect x="0" width="100.001" fill="none" y="0" height="69.046"/>
    <linearGradient x1="-655.2069" gradientTransform="matrix(1 0 0 -1 694.626 1064.9487)" y1="1053.1687" x2="-636.5768" gradientUnits="userSpaceOnUse" y2="1004.9281" xlink:type="simple" xlink:actuate="onLoad" id="XMLID_802_" xlink:show="other">
        <stop stop-color="#aabbd7" offset="0"/>
        <stop stop-color="#92a5cc" offset="0.2634"/>
        <stop stop-color="#6c83bb" offset="0.7135"/>
        <stop stop-color="#637db5" offset="0.7446"/>
        <stop stop-color="#4c6ea4" offset="0.7945"/>
        <stop stop-color="#265689" offset="0.8563"/>
        <stop stop-color="#003d6d" offset="0.9101"/>
        <stop stop-color="#003d6d" offset="1"/>
    </linearGradient>
    <path fill="url(#XMLID_802_)" d="M 35.258 13.348 L 35.258 13.348 C 35.347 13.403 35.475998 13.474999 35.653 13.563 L 35.653 13.563 C 36.133 13.806 36.98 14.172999 38.398 14.6449995 L 38.398 14.6449995 C 39.417 14.985999 40.125 15.106 40.619 15.106 L 40.619 15.106 C 41.162 15.102 41.447 14.977 41.715 14.802 L 41.715 14.802 L 42.212 14.877 C 43.151 16.024 44.297 18.008 44.297 20.812 L 44.297 20.812 C 44.297 22.475 43.894 24.416 42.827 26.629 L 42.827 26.629 C 38.693 35.132 35.383 34.406 35.256 41.834 L 35.256 41.834 C 35.145 47.062 33.432 48.065998 32.956 48.190998 L 32.956 48.190998 C 32.79 48.224 32.483 48.254997 32.094 48.254997 L 32.094 48.254997 C 31.835001 48.254997 31.552002 48.238 31.277002 48.191998 L 31.277002 48.191998 C 31.009003 48.163998 30.270002 48.059998 29.816002 47.212997 L 29.816002 47.212997 C 29.346003 46.380997 29.008001 44.912 28.950003 42.024998 L 28.950003 42.024998 C 28.823002 34.595997 25.512003 35.322998 21.379002 26.816998 L 21.379002 26.816998 C 20.311 24.607998 19.907001 22.662998 19.907001 21.000998 L 19.907001 21.000998 C 19.907001 18.070997 21.157001 16.035997 22.119001 14.9159975 L 22.119001 14.9159975 L 22.6 14.84 C 22.848 14.992001 23.126 15.102 23.633 15.104 L 23.633 15.104 C 24.126999 15.104 24.833 14.983 25.852 14.645 L 25.852 14.645 C 27.790998 14.0 28.661 13.551001 28.991999 13.35 L 28.991999 13.35 C 28.943998 13.09 28.888998 12.647 28.888998 11.968 L 28.888998 11.968 C 28.888998 11.918 28.886997 11.857 28.888998 11.803 L 28.888998 11.803 C 28.896997 11.086 28.958998 10.614 29.014997 10.328 L 29.014997 10.328 C 28.530998 10.12 27.493998 9.698 26.410997 9.404 L 26.410997 9.404 C 24.888998 8.987 23.514997 8.7890005 22.980997 8.785 L 22.980997 8.785 C 22.967997 8.787 22.960997 8.785 22.958998 8.785 L 22.958998 8.785 L 22.958998 8.785 L 22.958998 8.785 C 22.956997 8.785 22.954998 8.785 22.953999 8.785 L 22.953999 8.785 L 22.953999 8.783 L 22.944998 8.785 C 22.506998 8.783 21.989998 9.035 21.639997 9.290999 L 21.639997 9.290999 L 21.643997 9.292999 C 21.632998 9.315999 21.617998 9.362999 21.603996 9.424999 L 21.603996 9.424999 C 21.571997 9.548999 21.552996 9.730999 21.541996 9.923999 L 21.541996 9.923999 L 21.364996 10.222999 C 20.960997 10.472999 16.327995 13.472999 16.336996 19.647999 L 16.336996 19.647999 C 16.336996 20.895998 16.523996 22.278 16.977997 23.801998 L 16.977997 23.801998 C 19.534996 32.514 25.022997 38.281 25.221996 41.047997 L 25.221996 41.047997 C 25.226995 41.153996 25.226995 41.269997 25.226995 41.388996 L 25.226995 41.388996 C 25.226995 42.053997 25.171995 42.970997 25.173996 43.996998 L 25.173996 43.996998 C 25.169996 45.691998 25.320995 47.677998 26.042995 49.182 L 26.042995 49.182 C 26.775995 50.682 27.971996 51.723 30.321995 51.739998 L 30.321995 51.739998 C 30.345995 51.739998 30.368996 51.739998 30.391994 51.741997 L 30.391994 51.741997 L 30.745995 52.133995 C 30.736994 52.331997 30.729994 52.555996 30.727995 52.820995 L 30.727995 52.820995 C 30.734995 54.325996 30.919994 56.804996 32.195995 59.064995 L 32.195995 59.064995 C 33.413994 61.289993 35.923996 63.203995 39.858994 63.207996 L 39.858994 63.207996 C 39.904995 63.207996 39.947994 63.207996 39.99399 63.207996 L 39.99399 63.207996 C 42.36199 63.205997 45.240993 62.601997 48.80899 61.174995 L 48.80899 61.174995 C 52.67799 59.627995 54.89899 56.768997 56.47699 54.486996 L 56.47699 54.486996 C 57.24099 53.396996 58.54599 50.173996 58.91499 46.985996 L 58.91499 46.985996 C 59.028988 46.038998 59.06799 45.040997 59.06799 44.092995 L 59.06799 44.092995 C 59.07199 42.037994 58.86099 40.211994 58.75899 39.782993 L 58.75899 39.782993 C 58.58699 39.037994 55.80999 27.229992 55.80099 24.713993 L 55.80099 24.713993 C 55.80099 24.712994 55.798992 24.700993 55.79999 24.676992 L 55.79999 24.676992 C 55.798992 24.670992 55.798992 24.664993 55.798992 24.655993 L 55.798992 24.655993 C 55.80099 23.888992 55.92599 23.329992 56.18299 22.920992 L 56.18299 22.920992 C 56.35699 22.634993 56.63599 22.351992 57.08899 22.136992 L 57.08899 22.136992 L 57.57499 22.279991 C 58.67999 24.112991 60.53999 25.351992 62.37099 25.34399 L 62.37099 25.34399 C 63.54399 25.35799 65.51999 24.73999 66.34699 23.98299 L 66.34699 23.98299 C 66.395996 23.94199 66.45099 23.86599 66.61099 23.69599 L 66.61099 23.69599 C 68.147995 22.58899 69.20599 20.55699 69.20599 18.217989 L 69.20599 18.217989 C 69.203995 14.640989 66.76599 11.831989 63.872993 11.8229885 L 63.872993 11.8229885 L 63.872993 11.445989 L 63.872993 11.0729885 C 67.284996 11.083988 69.95 14.316988 69.95699 18.217989 L 69.95699 18.217989 C 69.954994 20.781988 68.80499 23.03699 67.11099 24.243988 L 67.11099 24.243988 C 67.051994 24.308989 66.979996 24.422989 66.84499 24.542988 L 66.84499 24.542988 C 65.76299 25.483988 63.766994 26.081987 62.370995 26.095987 L 62.370995 26.095987 C 60.312996 26.087988 58.368996 24.821987 57.131996 22.978987 L 57.131996 22.978987 C 56.983997 23.085987 56.901997 23.191986 56.815994 23.320988 L 56.815994 23.320988 C 56.671993 23.545988 56.549995 23.971989 56.549995 24.656988 L 56.549995 24.656988 L 56.539997 24.656988 L 56.542995 24.713987 L 56.549995 24.713987 C 56.549995 24.713987 56.551994 24.713987 56.549995 24.725986 L 56.549995 24.725986 C 56.548996 27.000986 59.321995 38.918987 59.488995 39.613987 L 59.488995 39.613987 C 59.611996 40.169987 59.812996 41.975986 59.814995 44.092987 L 59.814995 44.092987 C 59.814995 45.058987 59.773994 46.086987 59.659996 47.072987 L 59.659996 47.072987 C 59.257996 50.407986 57.962997 53.640987 57.091995 54.910988 L 57.091995 54.910988 C 55.493996 57.22299 53.166996 60.24099 49.084995 61.871986 L 49.084995 61.871986 C 45.454994 63.318985 42.486996 63.953987 39.998993 63.957985 L 39.998993 63.957985 C 39.948994 63.959984 39.900993 63.959984 39.854992 63.959984 L 39.854992 63.959984 C 35.664993 63.963985 32.865993 61.875984 31.533993 59.429985 L 31.533993 59.429985 C 30.165993 56.994984 29.983994 54.388985 29.974993 52.825985 L 29.974993 52.825985 C 29.974993 52.704987 29.976994 52.593987 29.978992 52.486984 L 29.978992 52.486984 C 27.582993 52.391983 26.119993 51.134983 25.359993 49.507984 L 25.359993 49.507984 C 24.556993 47.814983 24.421993 45.739983 24.418993 44.001984 L 24.418993 44.001984 C 24.418993 42.950985 24.473993 42.020985 24.473993 41.393982 L 24.473993 41.393982 C 24.473993 41.27898 24.471992 41.17398 24.468994 41.08198 L 24.468994 41.08198 C 24.457994 38.99198 18.864994 32.806984 16.251995 24.018982 L 16.251995 24.018982 C 15.779995 22.426983 15.581995 20.973982 15.581995 19.650982 L 15.581995 19.650982 C 15.590995 13.508982 19.837996 10.335982 20.808994 9.690982 L 20.808994 9.690982 C 20.839994 9.323982 20.860994 8.9919815 21.181993 8.696981 L 21.181993 8.696981 C 21.599993 8.396981 22.199993 8.063981 22.881994 8.040981 L 22.881994 8.040981 C 22.912994 8.034982 22.926994 8.036982 22.935995 8.036982 L 22.935995 8.036982 C 22.940994 8.036982 22.944996 8.039982 22.949995 8.036982 L 22.949995 8.036982 C 23.597996 8.039982 24.993996 8.247982 26.604996 8.683982 L 26.604996 8.683982 C 28.163996 9.110982 29.596996 9.770982 29.608995 9.7749815 L 29.608995 9.7749815 L 29.800995 10.249982 C 29.805994 10.251982 29.773994 10.314981 29.730995 10.562982 L 29.730995 10.562982 C 29.687996 10.810982 29.641994 11.213982 29.634995 11.828981 L 29.634995 11.828981 C 29.632994 11.865981 29.632994 11.912981 29.632994 11.972981 L 29.632994 11.972981 C 29.632994 12.510982 29.668993 12.877981 29.704994 13.104981 L 29.704994 13.104981 C 29.738995 13.331982 29.764994 13.393981 29.764994 13.393981 L 29.764994 13.393981 L 29.664993 13.793981 C 29.591993 13.85698 28.970993 14.395981 26.081993 15.36198 L 26.081993 15.36198 C 25.018993 15.713981 24.241993 15.855981 23.627993 15.857981 L 23.627993 15.857981 C 23.166992 15.859981 22.794992 15.77198 22.490993 15.636981 L 22.490993 15.636981 C 21.641994 16.70498 20.650993 18.48698 20.650993 21.00398 L 20.650993 21.00398 C 20.650993 22.54698 21.022993 24.370981 22.047993 26.495981 L 22.047993 26.495981 C 25.979992 34.70698 29.523993 34.20098 29.690992 42.011982 L 29.690992 42.011982 C 29.743992 44.84598 30.101992 46.22798 30.460993 46.844982 L 30.460993 46.844982 C 30.832993 47.441982 31.045992 47.38198 31.398993 47.45798 L 31.398993 47.45798 C 31.613993 47.49498 31.860992 47.511982 32.087994 47.511982 L 32.087994 47.511982 C 32.405994 47.511982 32.699993 47.47898 32.781994 47.46398 L 32.781994 47.46398 C 32.788994 47.45798 32.803993 47.45198 32.824993 47.44298 L 32.824993 47.44298 C 32.865993 47.418983 32.928993 47.379982 33.003994 47.31398 L 33.003994 47.31398 C 33.155994 47.18498 33.361996 46.95798 33.575993 46.56798 L 33.575993 46.56798 C 34.00299 45.79198 34.451992 44.362984 34.50199 41.823982 L 34.50199 41.823982 C 34.66999 34.011982 38.21099 34.515984 42.145992 26.307983 L 42.145992 26.307983 C 43.170994 24.180983 43.540993 22.354984 43.540993 20.814983 L 43.540993 20.814983 C 43.540993 18.414984 42.63999 16.686983 41.82099 15.604983 L 41.82099 15.604983 C 41.506992 15.754983 41.11199 15.860983 40.61399 15.856983 L 40.61399 15.856983 C 39.999992 15.856983 39.22099 15.713984 38.15699 15.360983 L 38.15699 15.360983 C 35.26899 14.393983 34.64699 13.854982 34.57699 13.792983 L 34.57699 13.792983 L 34.474987 13.392983 C 34.460987 13.387983 34.606987 13.048984 34.606987 11.971983 L 34.606987 11.971983 C 34.60399 11.917983 34.60399 11.865983 34.606987 11.812983 L 34.606987 11.812983 C 34.599987 11.213983 34.551987 10.810983 34.508987 10.562983 L 34.508987 10.562983 C 34.46599 10.315983 34.438988 10.249983 34.438988 10.249983 L 34.438988 10.249983 L 34.63099 9.774982 C 34.64299 9.770983 36.07599 9.110983 37.63499 8.683983 L 37.63499 8.683983 C 39.242992 8.245983 40.63699 8.041983 41.28999 8.036983 L 41.28999 8.036983 C 41.29199 8.036983 41.31199 8.036983 41.30399 8.039983 L 41.30399 8.039983 C 42.00699 8.046983 42.62799 8.388983 43.056988 8.696982 L 43.056988 8.696982 C 43.33899 8.948982 43.376987 9.221982 43.411987 9.520983 L 43.411987 9.520983 C 44.428986 10.203982 48.599987 13.375982 48.605988 19.459984 L 48.605988 19.459984 C 48.605988 20.781984 48.40899 22.238983 47.938988 23.826984 L 47.938988 23.826984 C 45.327988 32.615982 39.734985 38.803986 39.723988 40.900986 L 39.723988 40.900986 C 39.71399 41.009987 39.711987 41.136986 39.711987 41.279987 L 39.711987 41.279987 C 39.711987 41.808987 39.738987 42.539986 39.738987 43.36799 L 39.738987 43.36799 C 39.738987 43.70799 39.736988 44.063988 39.724987 44.425987 L 39.724987 44.425987 C 39.719986 46.057987 39.54099 47.869987 38.762985 49.320988 L 38.762985 49.320988 C 37.954987 51.098988 36.364986 52.489986 33.699986 52.47099 L 33.699986 52.47099 C 33.642986 52.47099 33.585987 52.47099 33.565987 52.46899 L 33.565987 52.46899 C 33.558987 52.46999 33.551987 52.47099 33.544987 52.47099 L 33.544987 52.47099 C 33.540985 52.584988 33.538986 52.716988 33.537987 52.869987 L 33.537987 52.869987 C 33.537987 52.869987 33.537987 52.869987 33.537987 52.898987 L 33.537987 52.898987 C 33.532986 54.134987 33.764988 56.171986 34.628986 57.660988 L 34.628986 57.660988 C 35.567986 59.189987 36.774986 60.315987 39.948986 60.390987 L 39.948986 60.390987 C 39.963985 60.389988 39.975986 60.389988 39.984985 60.389988 L 39.984985 60.389988 C 39.990986 60.389988 39.994984 60.389988 39.998985 60.389988 L 39.998985 60.389988 C 41.874985 60.391987 44.427986 59.892986 47.757984 58.56099 L 47.757984 58.56099 C 51.270985 57.15299 52.955986 54.61799 54.155983 52.88499 L 54.155983 52.88499 C 54.676983 52.13599 55.82598 49.57799 56.120983 46.90499 L 56.120983 46.90499 C 56.23498 45.85899 56.28398 44.85599 56.28398 43.92799 L 56.28398 43.92799 C 56.28398 42.22399 56.122982 40.76799 55.93598 39.76399 L 55.93598 39.76399 C 55.648983 38.19499 53.030983 27.896988 52.98498 24.665989 L 52.98498 24.665989 C 52.98498 23.60599 53.15298 22.48799 53.76398 21.468988 L 53.76398 21.468988 C 54.240982 20.669989 54.98098 20.046988 55.86198 19.614988 L 55.86198 19.614988 C 55.82098 19.313988 55.79698 19.008987 55.79698 18.693989 L 55.79698 18.693989 C 55.78498 14.799989 58.18098 12.047989 61.54998 11.338989 L 61.54998 11.338989 C 62.00198 11.243989 62.54098 11.161989 63.05598 11.144989 L 63.05598 11.144989 C 63.31398 11.103989 63.58498 11.074989 63.86898 11.074989 L 63.86898 11.074989 L 63.86898 11.447989 L 63.86898 11.824989 C 63.63798 11.824989 63.40598 11.847989 63.12698 11.890989 L 63.12698 11.890989 C 62.62498 11.908989 62.12198 11.98399 61.70698 12.072989 L 61.70698 12.072989 C 58.65298 12.73899 56.559982 15.11199 56.54798 18.69499 L 56.54798 18.69499 C 56.54798 19.057991 56.58398 19.41699 56.64598 19.77699 L 56.64598 19.77699 L 56.42498 20.182991 C 55.54198 20.566992 54.83498 21.13799 54.40798 21.855991 L 54.40798 21.855991 C 53.890984 22.71499 53.73498 23.681992 53.732983 24.661991 L 53.732983 24.661991 C 53.76398 27.668991 56.369984 38.01799 56.67298 39.62899 L 56.67298 39.62899 C 56.86698 40.68199 57.030983 42.17699 57.030983 43.92899 L 57.030983 43.92899 C 57.030983 44.88399 56.981983 45.90999 56.862984 46.98999 L 56.862984 46.98999 C 56.538982 49.82899 55.391983 52.39999 54.770985 53.30999 L 54.770985 53.30999 C 53.577984 55.03799 51.768986 57.76299 48.034985 59.25899 L 48.034985 59.25899 C 44.640984 60.61399 42.004986 61.14199 39.996986 61.14199 L 39.996986 61.14199 L 39.978985 61.14199 L 39.978985 61.14199 C 36.589985 61.11999 34.972984 59.73799 33.979984 58.04099 L 33.979984 58.04099 C 33.005985 56.34499 32.788986 54.21999 32.784985 52.897987 L 32.784985 52.897987 C 32.784985 52.88199 32.781986 52.842987 32.786983 52.822987 L 32.786983 52.822987 C 32.786983 52.522987 32.798985 52.280987 32.808983 52.09099 L 32.808983 52.09099 L 33.162983 51.74199 C 33.298985 51.73399 33.420982 51.72699 33.538982 51.71999 L 33.538982 51.71999 C 33.591984 51.72199 33.642982 51.72199 33.695984 51.72199 L 33.695984 51.72199 C 36.097984 51.70499 37.320984 50.591988 38.090984 48.98399 L 38.090984 48.98399 C 38.779984 47.70999 38.970985 46.000988 38.972984 44.41299 L 38.972984 44.41299 C 38.984985 44.055992 38.986984 43.70599 38.986984 43.36999 L 38.986984 43.36999 C 38.986984 42.55699 38.959984 41.83699 38.959984 41.28099 L 38.959984 41.28099 C 38.959984 41.12599 38.962982 40.98199 38.971985 40.86199 L 38.971985 40.86199 C 39.168983 38.095993 44.659985 32.326992 47.216984 23.614992 L 47.216984 23.614992 C 47.665985 22.093992 47.851982 20.708992 47.851982 19.460993 L 47.851982 19.460993 C 47.86098 13.413993 43.42298 10.415993 42.858982 10.056993 L 42.858982 10.056993 L 42.694 9.77 C 42.676 9.537001 42.628 9.332001 42.6 9.286 L 42.6 9.286 C 42.259 9.0390005 41.764 8.7960005 41.294 8.784 L 41.294 8.784 L 41.294 8.786 C 40.778 8.784 39.384 8.981 37.836 9.405001 L 37.836 9.405001 C 36.754997 9.699 35.718 10.120001 35.232998 10.327001 L 35.232998 10.327001 C 35.288998 10.613001 35.35 11.088 35.357998 11.807001 L 35.357998 11.807001 C 35.357998 11.862001 35.357998 11.916001 35.357998 11.968001 L 35.357998 11.968001 M 42.6 9.283 L 42.601997 9.283 C 42.601997 9.282 42.601997 9.282 42.601997 9.282 L 42.601997 9.282 C 42.602 9.282 42.601 9.283 42.6 9.283 L 42.6 9.283 z "/>
    <linearGradient x1="-662.5209" gradientTransform="matrix(1 0 0 -1 694.626 1064.9487)" y1="1058.6765" x2="-662.5209" gradientUnits="userSpaceOnUse" y2="990.8283" xlink:type="simple" xlink:actuate="onLoad" id="XMLID_803_" xlink:show="other">
        <stop stop-color="#ffffff" offset="0"/>
        <stop stop-color="#a2c2dd" offset="0.35"/>
        <stop stop-color="#6c83bb" offset="0.7"/>
        <stop stop-color="#003d6d" offset="1"/>
    </linearGradient>
    <path fill="url(#XMLID_803_)" d="M 47.589 23.756 C 50.444 14.092001 43.002 9.731001 43.002 9.731001 L 40.767998 14.002001 C 40.767998 14.002001 46.526997 18.147001 42.492996 26.504002 C 38.458996 34.859 35.032997 34.244003 34.885998 41.865 C 34.786 47.021004 33.067997 47.822002 32.879997 47.861 C 32.692997 47.902 31.965998 47.968 31.344997 47.861 C 30.724997 47.754 29.437998 47.775 29.326998 42.052002 C 29.179998 34.433002 25.752998 35.048 21.719997 26.691002 C 17.685997 18.336002 23.444998 14.191002 23.444998 14.191002 L 21.209 9.92 C 21.209 9.92 13.766 14.281 16.621 23.945 C 19.207 32.695 24.747002 38.672 24.852001 41.099 C 24.956001 43.529 23.575 52.302 30.490002 52.157997 C 31.275002 52.220997 32.972 52.177 33.546 52.128998 C 40.462 52.274998 39.253002 43.339996 39.359 40.909996 C 39.463 38.482 45.004 32.506 47.589 23.756 z "/>
    <path fill="#ffffff" d="M 30.487 51.759 C 23.571 51.904 25.227 43.527 25.123 41.097 C 25.018 38.668 19.477 32.693 16.891998 23.943 C 14.037 14.278 21.48 9.917 21.48 9.917 L 22.036 11.499 C 22.036 11.499 15.432999 18.366 19.467999 26.723999 C 23.502998 35.081 25.863998 34.576 26.010998 42.195 C 26.120998 47.918 26.072998 48.55 27.015997 49.873 C 27.958 51.191 30.487 51.759 30.487 51.759 z " fill-opacity="0.4"/>
    <path fill="#ffffff" d="M 33.894 51.561 C 40.81 51.707 39.154 43.33 39.259003 40.901 C 39.363003 38.471 44.904003 32.495003 47.489002 23.745 C 50.343002 14.081001 42.902 9.720001 42.902 9.720001 L 42.345 11.302001 C 42.345 11.302001 48.949 18.171001 44.913002 26.529001 C 40.88 34.884003 38.517002 34.379 38.370003 41.998 C 38.260002 47.722 38.309002 48.355 37.366 49.677002 C 36.423 50.996 33.894 51.561 33.894 51.561 z " fill-opacity="0.4"/>
    <linearGradient x1="-628.9901" gradientTransform="matrix(1 0 0 -1 694.626 1064.9487)" y1="1051.6775" x2="-638.5827" gradientUnits="userSpaceOnUse" y2="1035.1781" xlink:type="simple" xlink:actuate="onLoad" id="XMLID_804_" xlink:show="other">
        <stop stop-color="#e6eef4" offset="0"/>
        <stop stop-color="#9ec8d1" offset="0.1492"/>
        <stop stop-color="#62a9b3" offset="0.2883"/>
        <stop stop-color="#3d95a1" offset="0.3901"/>
        <stop stop-color="#2f8e9a" offset="0.4438"/>
        <stop stop-color="#247c90" offset="0.5242"/>
        <stop stop-color="#115a7d" offset="0.699"/>
        <stop stop-color="#044571" offset="0.8433"/>
        <stop stop-color="#003d6d" offset="0.9382"/>
        <stop stop-color="#003d6d" offset="1"/>
    </linearGradient>
    <path fill="url(#XMLID_804_)" d="M 65.244 12.004 C 66.858 13.198999 67.600006 16.307 67.600006 18.730999 C 67.600006 20.946 67.992004 23.064999 66.604004 24.299 C 65.649 25.149 63.664005 25.754 62.377003 25.754 C 59.225002 25.754 56.182003 22.469 56.182003 18.730999 C 56.182003 14.992999 58.425003 12.429998 61.637 11.742999 C 62.724 11.51 64.368 11.355 65.244 12.004 z "/>
    <radialGradient gradientTransform="matrix(0.8305 0 0 -1 639.5392 1064.9487)" gradientUnits="userSpaceOnUse" xlink:type="simple" r="28.321" xlink:actuate="onLoad" cx="-697.2875" id="XMLID_805_" cy="1057.3005" xlink:show="other">
        <stop stop-color="#d6e6ec" offset="0"/>
        <stop stop-color="#298595" offset="1"/>
    </radialGradient>
    <ellipse rx="5.709" ry="6.768" fill="url(#XMLID_805_)" cx="63.879" cy="18.254"/>
    <radialGradient gradientTransform="matrix(0.8305 0 0 -1 639.5392 1064.9487)" gradientUnits="userSpaceOnUse" xlink:type="simple" r="10.3019" xlink:actuate="onLoad" cx="-692.5844" id="XMLID_806_" cy="1042.657" xlink:show="other">
        <stop stop-color="#d6e6ec" offset="0"/>
        <stop stop-color="#298595" offset="1"/>
    </radialGradient>
    <ellipse rx="4.365" ry="5.254" fill="url(#XMLID_806_)" cx="63.819" cy="18.289"/>
    <linearGradient x1="-631.5394" gradientTransform="matrix(1 0 0 -1 694.626 1064.9487)" y1="1015.4158" x2="-667.9218" gradientUnits="userSpaceOnUse" y2="1033.3774" xlink:type="simple" xlink:actuate="onLoad" id="XMLID_807_" xlink:show="other">
        <stop stop-color="#ffffff" offset="0"/>
        <stop stop-color="#a2c2dd" offset="0.35"/>
        <stop stop-color="#6c83bb" offset="0.7"/>
        <stop stop-color="#003d6d" offset="1"/>
    </linearGradient>
    <path fill="url(#XMLID_807_)" d="M 31.87 59.279 C 30.551 56.933 30.367 54.39 30.359001 52.859 L 30.359001 52.859 C 30.359001 52.023003 30.425001 51.482002 30.43 51.437 L 30.43 51.437 L 30.43 51.439 L 33.223 51.783 C 33.224 51.783 33.213 51.857002 33.201 52.045002 L 33.201 52.045002 C 33.188 52.234 33.175 52.515003 33.175 52.859 L 33.175 52.859 C 33.166 54.13 33.38 56.261 34.319 57.888 L 34.319 57.888 C 35.287 59.501 36.702 60.757 40.001 60.8 L 40.001 60.8 C 41.944 60.802 44.542 60.29 47.91 58.943 L 47.91 58.943 C 51.532 57.492 53.278 54.863 54.475 53.13 L 54.475 53.13 C 55.045998 52.302002 56.194 49.734 56.503 46.98 C 56.84 43.974 56.611 41.32 56.315 39.73 C 56.02 38.14 53.409 27.816 53.37 24.701 L 53.37 24.701 C 53.371 23.678 53.532997 22.637001 54.099 21.697 L 54.099 21.697 C 54.661 20.754 55.622997 20.041 56.808 19.658 L 56.808 19.658 L 57.697 22.330002 C 56.98 22.578001 56.708 22.842001 56.509 23.156002 L 56.509 23.156002 C 56.313 23.474003 56.188 23.970001 56.188 24.701002 L 56.188 24.701002 C 56.149 26.967003 58.964 39.008003 59.134 39.730003 C 59.303997 40.453003 59.662 43.984005 59.298 47.062004 C 58.911 50.324005 57.611 53.552002 56.794 54.732002 L 56.794 54.732002 C 55.205997 57.029003 52.932 59.968002 48.955997 61.558002 L 48.955997 61.558002 C 45.357 62.994003 42.434 63.615 40.002 63.617004 L 40.002 63.617004 C 39.957 63.617004 39.912 63.617004 39.867 63.617004 L 39.867 63.617004 C 35.802 63.617 33.146 61.617 31.87 59.279 L 31.87 59.279 z "/>
    <radialGradient gradientTransform="matrix(1 0 0 -1 694.626 1064.9487)" gradientUnits="userSpaceOnUse" xlink:type="simple" r="8.9231" xlink:actuate="onLoad" cx="-666.5785" id="XMLID_808_" cy="1056.8816" xlink:show="other">
        <stop stop-color="#e6eef4" offset="0"/>
        <stop stop-color="#c6dcc1" offset="0.0772"/>
        <stop stop-color="#91c06f" offset="0.211"/>
        <stop stop-color="#6bab33" offset="0.321"/>
        <stop stop-color="#539e0e" offset="0.4014"/>
        <stop stop-color="#4a9900" offset="0.4438"/>
        <stop stop-color="#398419" offset="0.5475"/>
        <stop stop-color="#22663b" offset="0.7125"/>
        <stop stop-color="#135550" offset="0.8486"/>
        <stop stop-color="#0e4e58" offset="0.9382"/>
        <stop stop-color="#0e4e58" offset="1"/>
    </radialGradient>
    <path fill="url(#XMLID_808_)" d="M 21.412 9.035 C 21.021 9.32 21.205 11.267 21.205 11.267 C 21.205 11.267 21.147 14.182 21.827 14.751 C 22.505 15.321 23.11 15.991 25.973 15.037001 C 28.835 14.083 29.418 13.548 29.418 13.548 C 29.418 13.548 29.251999 13.075001 29.268 11.842 C 29.282 10.609 29.459 10.148 29.459 10.148 C 29.459 10.148 28.034 9.4939995 26.513 9.08 C 24.925001 8.647 23.523 8.445 22.947 8.447 C 22.373 8.449 21.801 8.75 21.412 9.035 z "/>
    <radialGradient gradientTransform="matrix(1 0 0 -1 694.626 1064.9487)" gradientUnits="userSpaceOnUse" xlink:type="simple" r="11.899" xlink:actuate="onLoad" cx="-666.4467" id="XMLID_809_" cy="1057.2253" xlink:show="other">
        <stop stop-color="#e6eef4" offset="0"/>
        <stop stop-color="#c6dcc1" offset="0.0772"/>
        <stop stop-color="#91c06f" offset="0.211"/>
        <stop stop-color="#6bab33" offset="0.321"/>
        <stop stop-color="#539e0e" offset="0.4014"/>
        <stop stop-color="#4a9900" offset="0.4438"/>
        <stop stop-color="#398419" offset="0.5475"/>
        <stop stop-color="#22663b" offset="0.7125"/>
        <stop stop-color="#135550" offset="0.8486"/>
        <stop stop-color="#0e4e58" offset="0.9382"/>
        <stop stop-color="#0e4e58" offset="1"/>
    </radialGradient>
    <path fill="url(#XMLID_809_)" d="M 21.777 9.453 C 21.387001 9.738 21.578001 11.687 21.578001 11.687 L 28.789001 11.842 L 28.794 10.47 C 28.794 10.47 28.082 9.968 26.562 9.554 C 24.974 9.121 23.57 8.918 22.995 8.921 C 22.419 8.924 22.165 9.168 21.777 9.453 z "/>
    <radialGradient gradientTransform="matrix(-1 0 0 -1 1108.1466 1064.9487)" gradientUnits="userSpaceOnUse" xlink:type="simple" r="8.9262" xlink:actuate="onLoad" cx="1071.9347" id="XMLID_810_" cy="1056.8816" xlink:show="other">
        <stop stop-color="#e6eef4" offset="0"/>
        <stop stop-color="#c6dcc1" offset="0.0772"/>
        <stop stop-color="#91c06f" offset="0.211"/>
        <stop stop-color="#6bab33" offset="0.321"/>
        <stop stop-color="#539e0e" offset="0.4014"/>
        <stop stop-color="#4a9900" offset="0.4438"/>
        <stop stop-color="#398419" offset="0.5475"/>
        <stop stop-color="#22663b" offset="0.7125"/>
        <stop stop-color="#135550" offset="0.8486"/>
        <stop stop-color="#0e4e58" offset="0.9382"/>
        <stop stop-color="#0e4e58" offset="1"/>
    </radialGradient>
    <path fill="url(#XMLID_810_)" d="M 42.845 9.035 C 43.236 9.32 43.052002 11.267 43.052002 11.267 C 43.052002 11.267 43.11 14.182 42.43 14.751 C 41.752 15.321 41.147 15.991 38.284 15.037001 C 35.422 14.083 34.839 13.548 34.839 13.548 C 34.839 13.548 35.005 13.075001 34.989002 11.842 C 34.975002 10.609 34.798 10.148 34.798 10.148 C 34.798 10.148 36.223 9.4939995 37.744 9.08 C 39.332 8.647 40.734 8.445 41.309998 8.447 C 41.884 8.449 42.456 8.75 42.845 9.035 z "/>
    <radialGradient gradientTransform="matrix(-1 0 0 -1 1108.1466 1064.9487)" gradientUnits="userSpaceOnUse" xlink:type="simple" r="11.8992" xlink:actuate="onLoad" cx="1072.0675" id="XMLID_811_" cy="1057.2253" xlink:show="other">
        <stop stop-color="#e6eef4" offset="0"/>
        <stop stop-color="#c6dcc1" offset="0.0772"/>
        <stop stop-color="#91c06f" offset="0.211"/>
        <stop stop-color="#6bab33" offset="0.321"/>
        <stop stop-color="#539e0e" offset="0.4014"/>
        <stop stop-color="#4a9900" offset="0.4438"/>
        <stop stop-color="#398419" offset="0.5475"/>
        <stop stop-color="#22663b" offset="0.7125"/>
        <stop stop-color="#135550" offset="0.8486"/>
        <stop stop-color="#0e4e58" offset="0.9382"/>
        <stop stop-color="#0e4e58" offset="1"/>
    </radialGradient>
    <path fill="url(#XMLID_811_)" d="M 42.479 9.453 C 42.869 9.738 42.678 11.687 42.678 11.687 L 35.467003 11.842 L 35.462 10.47 C 35.462 10.47 36.174004 9.968 37.694 9.554 C 39.282 9.121 40.686 8.918 41.261 8.921 C 41.838 8.924 42.092 9.168 42.479 9.453 z "/>
    <linearGradient x1="-628.7509" gradientTransform="matrix(1 0 0 -1 694.626 1064.9487)" y1="1025.1941" x2="-625.8417" gradientUnits="userSpaceOnUse" y2="1007.9239" xlink:type="simple" xlink:actuate="onLoad" id="XMLID_812_" xlink:show="other">
        <stop stop-color="#a2c2dd" offset="0"/>
        <stop stop-color="#a2c2dd" offset="0.1"/>
        <stop stop-color="#6c83bb" offset="0.7135"/>
        <stop stop-color="#003d6d" offset="0.9888"/>
        <stop stop-color="#003d6d" offset="1"/>
    </linearGradient>
    <path fill="url(#XMLID_812_)" d="M 75.109 31.173 L 70.882 32.074 L 66.79 35.322002 L 68.519 37.713 L 59.637997 35.16 C 57.994995 34.699 53.067997 33.31 53.067997 33.31 L 48.498997 34.614002 L 48.346996 40.968002 C 48.346996 40.968002 49.498997 41.295002 49.961998 41.427002 C 49.282997 41.598003 47.491997 42.041 47.491997 42.041 L 60.754997 60.345 L 64.918 57.195 L 66.046 55.111 C 66.046 55.111 65.198 53.819 64.595 52.894 C 67.543 53.693 83.158005 57.922 83.158005 57.922 L 86.094 55.359 L 86.17 49.684002 C 86.17 49.684002 85.119995 49.396004 84.606995 49.254 C 85.076 48.896 85.940994 48.268 86.062 48.174 L 75.109 31.173 z "/>
    <linearGradient x1="-643.9716" gradientTransform="matrix(1 0 0 -1 694.626 1064.9487)" y1="1028.6052" x2="-629.0932" gradientUnits="userSpaceOnUse" y2="1007.726" xlink:type="simple" xlink:actuate="onLoad" id="XMLID_813_" xlink:show="other">
        <stop stop-color="#ffffff" offset="0"/>
        <stop stop-color="#e0eaf3" offset="0.1142"/>
        <stop stop-color="#a2c2dd" offset="0.35"/>
        <stop stop-color="#8ca9cf" offset="0.4825"/>
        <stop stop-color="#6c83bb" offset="0.7"/>
        <stop stop-color="#637db5" offset="0.7458"/>
        <stop stop-color="#4c6ea4" offset="0.8189"/>
        <stop stop-color="#265689" offset="0.9097"/>
        <stop stop-color="#003d6d" offset="0.9888"/>
        <stop stop-color="#003d6d" offset="1"/>
    </linearGradient>
    <polygon fill="url(#XMLID_813_)" points="59.066,50.16 64.263,56.672 65.124,55.082 61.466,49.5 "/>
    <linearGradient x1="-651.9242" gradientTransform="matrix(1 0 0 -1 694.626 359.9487)" y1="337.6667" x2="-577.0077" gradientUnits="userSpaceOnUse" y2="252.4431" xlink:type="simple" xlink:actuate="onLoad" id="XMLID_814_" xlink:show="other">
        <stop stop-color="#ffffff" offset="0"/>
        <stop stop-color="#e0eaf3" offset="0.1142"/>
        <stop stop-color="#a2c2dd" offset="0.35"/>
        <stop stop-color="#8ca9cf" offset="0.4825"/>
        <stop stop-color="#6c83bb" offset="0.7"/>
        <stop stop-color="#637db5" offset="0.7458"/>
        <stop stop-color="#4c6ea4" offset="0.8189"/>
        <stop stop-color="#265689" offset="0.9097"/>
        <stop stop-color="#003d6d" offset="0.9888"/>
        <stop stop-color="#003d6d" offset="1"/>
    </linearGradient>
    <polygon fill="url(#XMLID_814_)" points="64.263,56.672 59.922,50.856 82.994,57.105 83.126,51.787 48.437,42.342 60.767,59.313 "/>
    <linearGradient x1="-629.891" gradientTransform="matrix(1 0 0 -1 694.626 359.9487)" y1="309.2136" x2="-626.1766" gradientUnits="userSpaceOnUse" y2="316.6422" xlink:type="simple" xlink:actuate="onLoad" id="XMLID_815_" xlink:show="other">
        <stop stop-color="#ffffff" offset="0"/>
        <stop stop-color="#a2c2dd" offset="1"/>
    </linearGradient>
    <polygon fill="url(#XMLID_815_)" points="85.515,50.136 52.931,41.246 48.446,42.352 83.082,51.986 "/>
    <linearGradient x1="-644.0038" gradientTransform="matrix(1 0 0 -1 694.626 1064.9487)" y1="1018.9197" x2="-610.4921" gradientUnits="userSpaceOnUse" y2="1018.9197" xlink:type="simple" xlink:actuate="onLoad" id="XMLID_816_" xlink:show="other">
        <stop stop-color="#e6eef4" offset="0"/>
        <stop stop-color="#dad9cb" offset="0.0644"/>
        <stop stop-color="#c3ae79" offset="0.2029"/>
        <stop stop-color="#b28f3d" offset="0.3167"/>
        <stop stop-color="#a77b18" offset="0.3999"/>
        <stop stop-color="#a3740a" offset="0.4438"/>
        <stop stop-color="#866408" offset="0.5594"/>
        <stop stop-color="#645107" offset="0.7193"/>
        <stop stop-color="#4f4505" offset="0.8514"/>
        <stop stop-color="#474105" offset="0.9382"/>
        <stop stop-color="#474105" offset="1"/>
    </linearGradient>
    <polygon fill="url(#XMLID_816_)" points="84.134,49.799 52.931,41.246 50.622,41.765 82.837,50.813 "/>
    <linearGradient x1="-617.8441" gradientTransform="matrix(1 0 0 -1 694.626 1064.9487)" y1="1024.3318" x2="-608.2767" gradientUnits="userSpaceOnUse" y2="1007.6975" xlink:type="simple" xlink:actuate="onLoad" id="XMLID_817_" xlink:show="other">
        <stop stop-color="#ffffff" offset="0"/>
        <stop stop-color="#e0eaf3" offset="0.1142"/>
        <stop stop-color="#a2c2dd" offset="0.35"/>
        <stop stop-color="#8ca9cf" offset="0.4825"/>
        <stop stop-color="#6c83bb" offset="0.7"/>
        <stop stop-color="#637db5" offset="0.7458"/>
        <stop stop-color="#4c6ea4" offset="0.8189"/>
        <stop stop-color="#265689" offset="0.9097"/>
        <stop stop-color="#003d6d" offset="0.9888"/>
        <stop stop-color="#003d6d" offset="1"/>
    </linearGradient>
    <polygon fill="url(#XMLID_817_)" points="83.13,51.977 85.521,50.113 85.435,54.973 82.987,57.104 "/>
    <linearGradient x1="-638.3842" gradientTransform="matrix(1 0 0 -1 694.626 1064.9487)" y1="1023.9509" x2="-602.9892" gradientUnits="userSpaceOnUse" y2="1043.3082" xlink:type="simple" xlink:actuate="onLoad" id="XMLID_818_" xlink:show="other">
        <stop stop-color="#e2e6e4" offset="0"/>
        <stop stop-color="#a3740a" offset="1"/>
    </linearGradient>
    <polygon fill="url(#XMLID_818_)" points="70.888,38.936 52.879,33.881 48.966,34.994 72.923,41.858 "/>
    <linearGradient x1="-625.2391" gradientTransform="matrix(1 0 0 -1 694.626 359.9487)" y1="343.283" x2="-604.4614" gradientUnits="userSpaceOnUse" y2="288.9941" xlink:type="simple" xlink:actuate="onLoad" id="XMLID_819_" xlink:show="other">
        <stop stop-color="#e6eef4" offset="0"/>
        <stop stop-color="#dad9cb" offset="0.0644"/>
        <stop stop-color="#c3ae79" offset="0.2029"/>
        <stop stop-color="#b28f3d" offset="0.3167"/>
        <stop stop-color="#a77b18" offset="0.3999"/>
        <stop stop-color="#a3740a" offset="0.4438"/>
        <stop stop-color="#866408" offset="0.5594"/>
        <stop stop-color="#645107" offset="0.7193"/>
        <stop stop-color="#4f4505" offset="0.8514"/>
        <stop stop-color="#474105" offset="0.9382"/>
        <stop stop-color="#474105" offset="1"/>
    </linearGradient>
    <polygon fill="url(#XMLID_819_)" points="74.849,31.672 71.605,32.454 82.53,49.905 85.159,47.879 "/>
    <linearGradient x1="-649.0341" gradientTransform="matrix(1 0 0 -1 694.626 359.9487)" y1="340.2087" x2="-574.1111" gradientUnits="userSpaceOnUse" y2="254.9777" xlink:type="simple" xlink:actuate="onLoad" id="XMLID_820_" xlink:show="other">
        <stop stop-color="#e6eef4" offset="0"/>
        <stop stop-color="#dad9cb" offset="0.0644"/>
        <stop stop-color="#c3ae79" offset="0.2029"/>
        <stop stop-color="#b28f3d" offset="0.3167"/>
        <stop stop-color="#a77b18" offset="0.3999"/>
        <stop stop-color="#a3740a" offset="0.4438"/>
        <stop stop-color="#866408" offset="0.5594"/>
        <stop stop-color="#645107" offset="0.7193"/>
        <stop stop-color="#4f4505" offset="0.8514"/>
        <stop stop-color="#474105" offset="0.9382"/>
        <stop stop-color="#474105" offset="1"/>
    </linearGradient>
    <polygon fill="url(#XMLID_820_)" points="67.698,35.426 72.039,41.24 48.966,34.994 48.835,40.31 82.521,49.889 71.605,32.454 "/>
</svg>
