<?xml version="1.0" encoding="UTF-8"?>
<svg xmlns="http://www.w3.org/2000/svg" xmlns:xlink="http://www.w3.org/1999/xlink" contentScriptType="text/ecmascript" zoomAndPan="magnify" baseProfile="tiny" contentStyleType="text/css" version="1.1" width="88px" preserveAspectRatio="xMidYMid meet" viewBox="0 0 88 88" height="88px" x="0px" y="0px">
    <g>
        <rect width="88" fill="none" height="88"/>
        <linearGradient x1="55.9111" y1="55.4434" x2="20.0071" gradientUnits="userSpaceOnUse" y2="20.9474" xlink:type="simple" xlink:actuate="onLoad" id="SVGID_1_" xlink:show="other">
            <stop stop-color="#ffffff" offset="0"/>
            <stop stop-color="#4a4a4a" offset="1"/>
        </linearGradient>
        <path fill="url(#SVGID_1_)" d="M 43.999 62.45 C 33.825 62.45 25.547 54.173 25.547 43.999 C 25.547 33.824 33.824 25.546001 43.999 25.546001 C 54.173 25.546001 62.451 33.824 62.451 43.999 C 62.451 54.173 54.173 62.45 43.999 62.45 L 43.999 62.45 z "/>
        <linearGradient x1="16.2866" y1="16.2866" x2="71.9719" gradientUnits="userSpaceOnUse" y2="71.9721" xlink:type="simple" xlink:actuate="onLoad" id="SVGID_2_" xlink:show="other">
            <stop stop-color="#ffffff" offset="0"/>
            <stop stop-color="#4a4a4a" offset="1"/>
        </linearGradient>
        <path fill="url(#SVGID_2_)" d="M 44.0 61.747 C 34.211998 61.747 26.251 53.786003 26.251 43.999 C 26.251 34.211998 34.212 26.25 44.0 26.25 C 53.786 26.25 61.748 34.211998 61.748 43.999 C 61.748 53.786003 53.785 61.747 44.0 61.747 L 44.0 61.747 z "/>
        <g stroke-opacity="0.5" fill-opacity="0.5">
            <g>
                <path fill="#ffffff" d="M 43.969 34.451 C 38.97 34.451 34.916 38.505 34.916 43.506 C 34.916 48.506 38.97 52.56 43.969 52.56 C 48.971 52.56 53.023003 48.507 53.023003 43.506 C 53.023 38.505 48.971 34.451 43.969 34.451 z M 43.969 51.256 C 39.694 51.256 36.217003 47.78 36.217003 43.506 C 36.217003 39.231 39.694004 35.753002 43.969 35.753002 C 48.244003 35.753002 51.72 39.231003 51.72 43.506 C 51.721 47.78 48.245 51.256 43.969 51.256 z "/>
                <path fill="#ffffff" d="M 43.969 38.08 C 40.978 38.08 38.545002 40.515003 38.545002 43.506 C 38.545002 46.496002 40.978 48.928 43.969 48.928 C 46.960003 48.928 49.393 46.496002 49.393 43.506 C 49.393 40.515 46.96 38.08 43.969 38.08 z "/>
            </g>
        </g>
        <g stroke-opacity="0.69" fill-opacity="0.69">
            <path fill="#ffffff" d="M 45.563 29.687 C 45.482998 28.822 44.126 27.717001 44.126 27.717001 C 38.186 26.131 33.663 29.858002 33.663 29.858002 C 32.739998 30.832 32.722 32.835003 32.722 32.835003 L 33.196 34.606003 C 33.195 34.605 39.576 29.323 45.563 29.687 z " fill-opacity="0.78" fill-rule="evenodd" stroke-opacity="0.78"/>
            <path fill="#ffffff" d="M 31.42 32.835 L 30.763 33.309998 C 29.893 34.506996 28.887001 37.01 29.343 37.367996 C 30.164 38.447998 31.281 35.936996 31.281 35.936996 L 31.761 35.594997 L 31.42 32.835 z " fill-opacity="0.78" fill-rule="evenodd" stroke-opacity="0.78"/>
        </g>
    </g>
</svg>
