<?xml version="1.0" encoding="UTF-8"?>
<svg xmlns="http://www.w3.org/2000/svg" xmlns:xlink="http://www.w3.org/1999/xlink" contentScriptType="text/ecmascript" width="72" baseProfile="tiny" zoomAndPan="magnify" contentStyleType="text/css" viewBox="-0.082 0.392 72 66" height="66" preserveAspectRatio="xMidYMid meet" version="1.1">
    <path fill="#656b6b" d="M 46.223 0.392 C 46.223 0.392 40.752 5.862 40.223 6.392 C 39.424 6.392 17.918999 6.392 17.918999 6.392 C 8.049998 6.392 1.9189987 12.523001 1.9189987 22.392 L 1.9189987 48.392 C 1.9189987 64.638 13.107999 66.392 17.918999 66.392 L 51.919 66.392 C 63.023 66.392 69.919 59.496 69.919 48.392 L 69.919 24.267 C 69.919 15.818 65.434 9.59 57.919 7.3859997 C 57.914997 3.3329997 54.975 0.39199972 50.919 0.39199972 L 46.223 0.39199972 z " fill-opacity="0.01"/>
    <path fill="#656b6b" d="M 46.637 1.392 C 46.637 1.392 41.168 6.8619995 40.637 7.392 C 39.838 7.392 17.919 7.392 17.919 7.392 C 8.667001 7.392 2.9190006 13.14 2.9190006 22.392 L 2.9190006 48.392 C 2.9190006 63.183 12.317 65.392 17.919 65.392 L 51.919 65.392 C 62.404 65.392 68.919 58.878 68.919 48.392 L 68.919 24.267 C 68.919 15.929 64.434 9.973001 56.919 8.104 C 56.919 7.749 56.919 7.392 56.919 7.392 C 56.919 3.9150002 54.397 1.3920002 50.919 1.3920002 L 46.637 1.3920002 z " fill-opacity="0.02"/>
    <path fill="#656b6b" d="M 47.051 2.392 C 47.051 2.392 41.579998 7.8619995 41.051 8.392 C 40.252 8.392 17.918999 8.392 17.918999 8.392 C 9.282999 8.392 3.9189987 13.7560005 3.9189987 22.392 L 3.9189987 48.392 C 3.9189987 61.616997 11.531999 64.392 17.918999 64.392 L 51.919 64.392 C 61.788 64.392 67.919 58.260998 67.919 48.392 L 67.919 24.267 C 67.919 16.049 63.434 10.376 55.919 8.8550005 C 55.919 8.190001 55.919 7.392 55.919 7.392 C 55.919 4.495 53.815 2.3920002 50.919 2.3920002 L 47.051 2.3920002 z " fill-opacity="0.04"/>
    <path fill="#656b6b" d="M 47.465 3.392 C 47.465 3.392 41.996002 8.8619995 41.465 9.392 C 40.664 9.392 17.919 9.392 17.919 9.392 C 9.778001 9.392 4.9190006 14.251 4.9190006 22.392 L 4.9190006 48.392 C 4.9190006 58.344997 9.293001 63.392 17.919 63.392 L 51.919 63.392 C 61.170998 63.392 66.919 57.643997 66.919 48.392 L 66.919 24.267 C 66.919 16.178001 62.434 10.803 54.919 9.643001 C 54.919 9.482 54.919 7.3920007 54.919 7.3920007 C 54.919 5.0370007 53.273 3.3920007 50.919 3.3920007 L 47.465 3.3920007 z " fill-opacity="0.07"/>
    <path fill="#656b6b" d="M 48.293 4.392 L 47.878998 4.392 C 47.878998 4.392 42.407997 9.8619995 41.878998 10.392 C 41.078 10.392 17.918999 10.392 17.918999 10.392 C 10.293999 10.392 5.9189987 14.767 5.9189987 22.392 L 5.9189987 48.392 C 5.9189987 57.812996 9.844999 62.392 17.918999 62.392 L 51.919 62.392 C 60.557 62.392 65.919 57.028 65.919 48.392 L 65.919 24.267 C 65.919 16.321 61.435997 11.257 53.919 10.471001 C 53.919 9.884001 53.919 7.3920007 53.919 7.3920007 C 53.919 5.5980005 52.713997 4.3920007 50.919 4.3920007 L 48.293 4.3920007 z " fill-opacity="0.11"/>
    <path fill="#656b6b" d="M 50.918 5.392 C 49.918 5.392 48.293 5.392 48.293 5.392 L 42.293 11.392 L 17.918 11.392 C 10.917999 11.392 6.9179993 15.392 6.9179993 22.392 L 6.9179993 48.392 C 6.9179993 56.532997 9.776999 61.392 17.918 61.392 L 51.918 61.392 C 60.059 61.392 64.918 56.532997 64.918 48.392 L 64.918 24.267 C 64.918 16.478 60.434 11.744 52.918 11.344 C 52.918 10.762 52.918 8.111 52.918 7.392 C 52.918 6.142 52.168 5.392 50.918 5.392 z " fill-opacity="0.13"/>
    <path fill="#52a1a4" d="M 17.918 10.4 L 41.918 10.4 L 49.918 2.3909998 L 51.918 2.3909998 L 51.918 10.391 C 59.547 10.391 63.918 16.633999 63.918 24.265999 L 63.918 48.391 C 63.918 56.022 59.547 60.391 51.918 60.391 L 17.918 60.391 C 10.289 60.391 5.9179993 56.022 5.9179993 48.391 L 5.9179993 22.390999 C 5.918 14.76 10.29 10.392 17.918 10.4 z "/>
</svg>
