<?xml version="1.0" encoding="UTF-8"?>
<svg xmlns="http://www.w3.org/2000/svg" xmlns:xlink="http://www.w3.org/1999/xlink" contentScriptType="text/ecmascript" width="12" baseProfile="tiny" zoomAndPan="magnify" contentStyleType="text/css" viewBox="0 0 12 200" height="200" preserveAspectRatio="xMidYMid meet" version="1.1">
    <g>
        <g>
            <g>
                <path d="M 0.0 63.461 L 0.0 164.66199 C 0.0 167.572 2.804 170.0 6.0 170.0 C 9.195 170.0 12.0 167.572 12.0 164.662 L 12.0 63.461 C 12.0 62.0 11.318 60.608997 10.085 59.549 C 8.939 58.564 7.451 58.0 6.0 58.0 C 2.804 58.0 0.0 60.551 0.0 63.461 z " fill-opacity="0.7"/>
                <linearGradient x1="-688.626" gradientTransform="matrix(1 0 0 -1 694.626 1195.9688)" y1="1026.9688" x2="-688.626" gradientUnits="userSpaceOnUse" y2="1136.9688" xlink:type="simple" xlink:actuate="onLoad" id="XMLID_2_" xlink:show="other">
                    <stop stop-color="#ffffff" offset="0"/>
                    <stop stop-color="#52a2a5" offset="1"/>
                </linearGradient>
                <path fill="url(#XMLID_2_)" d="M 6.0 169.0 C 3.516 169.0 1.0 167.125 1.0 164.662 L 1.0 63.461 C 1.0 60.998 3.516 59.0 6.0 59.0 L 6.0 59.0 C 8.486 59.0 11.0 60.998 11.0 63.461 L 11.0 164.66199 C 11.0 167.125 8.486 169.0 6.0 169.0 L 6.0 169.0 z "/>
                <g>
                    <path fill="#417ed3" d="M 6.0 59.0 C 3.516 59.0 1.0 60.998 1.0 63.461 L 1.0 114.0 L 2.0 114.0 L 2.0 63.875 C 2.0 61.959 4.067 60.453 6.0 60.453 C 7.936 60.453 10.0 61.959 10.0 63.875 L 10.0 114.0 L 11.0 114.0 L 11.0 63.461 C 11.0 60.998 8.486 59.0 6.0 59.0 z " fill-opacity="0.4" stroke-opacity="0.4"/>
                </g>
                <path fill="#417ed3" d="M 10.0 164.654 C 10.0 166.57 7.936 168.0 6.0 168.0 C 4.067 168.0 2.0 166.57 2.0 164.654 L 2.0 114.0 L 1.0 114.0 L 1.0 164.662 C 1.0 167.125 3.516 169.0 6.0 169.0 C 8.486 169.0 11.0 167.125 11.0 164.662 L 11.0 114.0 L 10.0 114.0 L 10.0 164.654 z " fill-opacity="0.4"/>
            </g>
            <rect width="12" fill="none" height="200"/>
        </g>
    </g>
</svg>
