<?xml version="1.0" encoding="UTF-8"?>
<svg xmlns="http://www.w3.org/2000/svg" xmlns:xlink="http://www.w3.org/1999/xlink" contentScriptType="text/ecmascript" width="60" baseProfile="tiny" zoomAndPan="magnify" contentStyleType="text/css" viewBox="0 0 60 60" height="60" preserveAspectRatio="xMidYMid meet" version="1.1">
    <path fill="#ffffff" d="M 21.043 23.353 L 22.598 24.911001 C 23.577 23.731 24.668999 22.654001 25.861 21.692001 L 24.308 20.139002 C 25.219 19.407001 26.182001 18.734001 27.2 18.145002 L 27.241001 18.106003 L 18.838001 18.106003 L 18.837 26.5 C 19.482 25.387 20.225 24.34 21.043 23.353 z "/>
    <path fill="#ffffff" d="M 34.193 26.804 C 34.193 29.532001 36.088 31.818 38.627 32.437 C 38.329998 31.59 38.159 30.687 38.149998 29.745 C 37.170998 29.128 36.515 28.045 36.515 26.804 C 36.515 24.886002 38.078 23.323002 39.996998 23.323002 C 40.327 23.323002 40.642998 23.386002 40.948997 23.472002 C 41.627 22.866001 42.400997 22.365002 43.253998 22.008001 C 42.323997 21.375002 41.203 21.003002 39.996998 21.003002 C 36.797 21.002 34.193 23.605 34.193 26.804 z M 39.406 36.092 C 39.676 35.761997 39.950996 35.452 40.244 35.196 C 39.859 34.76 39.523 34.28 39.232 33.77 L 36.422997 33.77 C 34.768997 33.77 33.128 37.651 32.003 40.915 C 30.877998 44.175 30.293999 46.542 30.293999 46.542 L 32.937 46.542 C 32.937 46.134 33.48 43.979 34.375 41.341 C 35.346 38.737 36.066 37.179 36.868 36.095 L 39.406 36.095 L 39.406 36.092 z "/>
    <path fill="#ffffff" d="M 40.667 29.681 C 40.667 32.88 43.268 35.484 46.466 35.484 C 49.667 35.484 52.274 32.88 52.274 29.681002 C 52.274 26.482002 49.67 23.878002 46.466 23.878002 C 43.266 23.878 40.667 26.482 40.667 29.681 z M 46.465 26.199 C 48.389 26.199 49.951 27.762 49.951 29.681 C 49.951 31.601 48.388 33.161 46.465 33.161 C 44.547 33.161 42.985 31.601 42.985 29.681 C 42.984 27.762 44.547 26.199 46.465 26.199 z M 54.37 43.788 C 53.245 40.523 51.605 36.645996 49.952 36.645996 L 46.514 36.645996 L 42.897 36.645996 C 41.239998 36.645996 39.601997 40.522995 38.475 43.787994 C 37.35 47.047993 36.767998 49.416996 36.767998 49.416996 L 39.407997 49.416996 C 39.407997 49.006996 39.952995 46.853996 40.845997 44.215996 C 41.817997 41.611996 42.538998 40.052994 43.337997 38.968994 L 46.517 38.968994 L 49.51 38.968994 C 50.314 40.052994 51.032997 41.613995 52.003998 44.215996 C 52.898 46.855995 53.441998 49.006996 53.441998 49.416996 L 56.083996 49.416996 C 56.081 49.417 55.497 47.048 54.37 43.788 z "/>
    <path fill="#47c30e" d="M 24.306 7.632 C 23.52 7.028 18.239 5.278 12.045 11.411 L 11.969 11.487 C 5.835 17.68 7.587 22.962002 8.189 23.748001 C 8.627 24.322 9.122 24.968 9.961 25.532001 C 10.168 25.659002 10.56 25.818 10.982 25.809002 C 11.404 25.799002 12.369 25.172003 13.578 23.849003 C 14.789 22.528004 15.299 21.462002 15.412 20.962002 L 15.476999 20.677002 L 15.287 20.454002 C 15.167999 20.310003 15.026 20.177002 14.856999 20.045002 C 14.143 19.474003 12.651999 19.386002 12.634999 19.387001 L 12.405999 19.372002 L 12.294999 19.169003 C 12.249 19.084003 11.157999 16.987003 14.292999 13.733003 C 17.546999 10.598002 19.643 11.690002 19.727999 11.736003 L 19.930998 11.847003 L 19.945997 12.076003 C 19.945997 12.093003 20.032997 13.584003 20.602997 14.298003 C 20.734997 14.468003 20.870996 14.608004 21.012997 14.7280035 L 21.235996 14.918003 L 21.519997 14.8530035 C 22.019997 14.740004 23.086996 14.230003 24.408997 13.019004 C 25.730997 11.809004 26.357996 10.845004 26.367996 10.423004 C 26.376997 10.001004 26.217997 9.609004 26.090996 9.402004 C 25.525 8.563 24.88 8.068 24.306 7.632 z "/>
    <path fill="#47c30e" d="M 29.973 30.82 C 28.316 30.82 26.678999 34.702 25.553 37.964 C 24.427 41.225002 23.845 43.594 23.845 43.594 L 26.486 43.594 C 26.486 43.186 27.029 41.030003 27.922 38.393 C 28.893002 35.79 29.613 34.229 30.415 33.145 L 32.957 33.145 C 33.225002 32.815 33.499 32.505 33.794003 32.249 C 33.407 31.812 33.072002 31.335001 32.782 30.822 L 29.973001 30.822 L 29.973001 30.82 z M 33.545 18.054 C 30.343998 18.054 27.740997 20.657001 27.740997 23.857 C 27.740997 26.583 29.633997 28.872 32.173996 29.489 C 31.876995 28.645 31.705996 27.74 31.698996 26.798 C 30.719995 26.179 30.063995 25.096 30.063995 23.858 C 30.063995 21.938 31.624996 20.375 33.543995 20.375 C 33.877995 20.375 34.190994 20.437 34.496994 20.524 C 35.177994 19.919 35.950993 19.418 36.804993 19.06 C 35.875 18.425 34.752 18.054 33.545 18.054 z "/>
    <rect width="60" fill="none" height="60"/>
</svg>
