<?xml version="1.0" encoding="UTF-8"?>
<svg xmlns="http://www.w3.org/2000/svg" xmlns:xlink="http://www.w3.org/1999/xlink" contentScriptType="text/ecmascript" width="60" baseProfile="tiny" zoomAndPan="magnify" contentStyleType="text/css" viewBox="0 0 60 60" height="60" preserveAspectRatio="xMidYMid meet" version="1.1">
    <path fill="#bf111a" d="M 30.386 18.677 C 12.99 18.694 7.843 29.021 7.5 31.576 C 7.324 32.914 7.081 34.707 7.517 36.889 C 7.734 37.967 8.523001 39.131 8.762 39.463 L 8.8810005 39.631 L 9.033001 39.766 C 10.527 41.082 13.015001 41.559 17.09 41.305 C 18.846 41.196 23.008 40.75 24.783 38.977 C 24.861 38.901 24.928001 38.823 24.998001 38.741 L 25.126001 38.584 L 25.217001 38.401 C 25.347 38.145 25.755001 37.162003 25.547 35.356003 C 25.375 33.842003 24.504002 32.403004 23.809 31.434002 C 24.563 30.688002 26.362 29.566002 30.399 29.501001 L 30.36 29.483002 C 34.393 29.547 36.193 30.680002 36.943 31.423002 C 36.243 32.397003 35.368 33.839 35.193 35.356003 C 34.993 37.161003 35.394 38.145004 35.527 38.401 L 35.616 38.585 L 35.747 38.740997 C 37.378002 40.711998 41.818 41.19 43.655003 41.304996 C 47.728004 41.554996 50.218002 41.074997 51.726 39.746998 L 51.878002 39.610996 L 51.995003 39.444996 C 52.233 39.112995 53.022003 37.946995 53.237003 36.871994 C 53.675003 34.683994 53.434002 32.892994 53.274002 31.703995 C 52.796 28.12 46.52 18.677 30.386 18.677 M 11.011 36.188 C 10.693 34.59 10.87 33.267998 11.011 32.2 C 11.099999 31.532001 11.867 29.799 13.702 27.966 C 16.442 25.225 21.564 22.257 30.369999 22.257 C 45.086998 22.242 49.518997 30.513 49.724 32.037 C 49.883 33.246 50.065998 34.569 49.746 36.174 C 49.704998 36.349 49.475 36.778 49.229 37.155 C 48.738 37.506 47.447 37.968998 43.871002 37.75 C 41.08 37.573 39.311 36.981 38.713 36.604 C 38.697002 36.411 38.691 36.141 38.734 35.757 C 38.849003 34.766 39.935 33.272 40.445 32.699 L 41.099 31.964 L 40.830997 31.014 C 40.683 30.505 39.137997 26.064 30.416998 25.922 L 30.39 25.922 L 30.341 25.939001 C 25.284 26.022001 22.633 27.543001 21.272999 28.905 C 20.289 29.890001 19.975998 30.791 19.912998 31.002 L 19.627998 31.959002 L 20.296999 32.701 C 20.806 33.269 21.89 34.764 22.004 35.758 C 22.048 36.139 22.043 36.41 22.026 36.604 C 21.425999 36.983 19.664 37.578 16.866999 37.75 C 13.290998 37.969 12.010999 37.518 11.5269985 37.174 C 11.282 36.793 11.05 36.365 11.011 36.188 "/>
    <rect width="60" fill="none" height="60"/>
</svg>
