<?xml version="1.0" encoding="UTF-8"?>
<svg xmlns="http://www.w3.org/2000/svg" xmlns:xlink="http://www.w3.org/1999/xlink" contentScriptType="text/ecmascript" width="38" baseProfile="tiny" zoomAndPan="magnify" contentStyleType="text/css" viewBox="-1 -1 38 32" height="32" preserveAspectRatio="xMidYMid meet" version="1.1">
    <g>
        <path fill="#ffffff" d="M 18.106 24.215 C 16.719002 24.215 15.609001 23.928 14.775001 23.356 C 13.938001 22.786001 13.318001 21.887001 12.910001 20.665 C 12.504001 19.444 12.301001 17.456001 12.301001 14.706001 C 12.301001 12.736001 12.494 11.097001 12.8810005 9.780001 C 13.268001 8.466001 13.926001 7.4700007 14.854 6.7980003 C 15.783 6.1250005 17.203 5.788 19.115 5.788 C 19.646 5.788 20.232 5.8510003 20.869 5.9760003 C 21.505999 6.1000004 22.01 6.2310004 22.383 6.3690004 L 22.383 9.008 C 21.994 8.799001 21.456999 8.612 20.765999 8.445001 C 20.078 8.280001 19.411999 8.198001 18.776 8.198001 C 18.036 8.198001 17.412998 8.407001 16.908998 8.827001 C 16.404999 9.247001 16.058998 9.880001 15.873999 10.727 C 15.687999 11.573 15.590999 12.556 15.584999 13.677 C 15.930999 13.218 16.412998 12.86 17.029999 12.601 C 17.645998 12.342999 18.369999 12.214 19.202 12.214 C 20.63 12.214 21.737 12.714 22.524 13.714 C 23.307 14.714 23.704 16.038 23.704 17.683 C 23.704 19.943 23.257 21.595001 22.366001 22.644001 C 21.473 23.691 20.053 24.215 18.106 24.215 z M 18.084 21.807 C 18.813 21.807 19.365 21.487 19.748 20.838 C 20.130999 20.192999 20.321999 19.317999 20.321999 18.213 C 20.321999 17.01 20.123 16.111 19.723999 15.514 C 19.324 14.918 18.735998 14.6189995 17.96 14.6189995 C 17.202 14.6189995 16.613998 14.886999 16.199999 15.424 C 15.7839985 15.959 15.576999 16.751999 15.576999 17.801 C 15.576999 19.192001 15.779999 20.203001 16.185 20.844 C 16.598 21.486 17.229 21.807 18.084 21.807 z "/>
        <rect x="-1" width="38" fill="none" y="-1" height="32"/>
    </g>
</svg>
