<?xml version="1.0" encoding="UTF-8"?>
<svg xmlns="http://www.w3.org/2000/svg" xmlns:xlink="http://www.w3.org/1999/xlink" contentScriptType="text/ecmascript" width="40" baseProfile="tiny" zoomAndPan="magnify" contentStyleType="text/css" viewBox="0 0 40 50" height="50" preserveAspectRatio="xMidYMid meet" version="1.1">
    <g>
        <rect x="-0.5" width="40" fill="none" y="0.146" height="50"/>
        <g>
            <linearGradient x1="19.4995" y1="0.646" x2="19.4995" gradientUnits="userSpaceOnUse" y2="49.645" xlink:type="simple" xlink:actuate="onLoad" id="XMLID_2_" xlink:show="other">
                <stop stop-color="#55a2a3" offset="0"/>
                <stop stop-color="#0e807a" offset="0.264"/>
                <stop stop-color="#020202" offset="1"/>
            </linearGradient>
            <path fill="url(#XMLID_2_)" d="M 37.698 0.646 L 1.301 0.646 C 0.583 0.646 0.0 1.357 0.0 2.235 L 6.497 48.055 C 6.497 48.932 7.0800004 49.645 7.7980003 49.645 L 31.128 49.645 C 31.848 49.645 32.43 48.932 32.43 48.055 L 39.0 2.235 C 39.0 1.357 38.415 0.646 37.698 0.646 L 37.698 0.646 z "/>
            <path d="M 37.698 0.646 L 1.301 0.646 C 0.583 0.646 0.0 1.357 0.0 2.235 L 6.497 48.055 C 6.497 48.932 7.0800004 49.645 7.7980003 49.645 L 31.128 49.645 C 31.848 49.645 32.43 48.932 32.43 48.055 L 39.0 2.235 C 39.0 1.357 38.415 0.646 37.698 0.646 z M 31.128 48.055 L 7.798 48.055 L 1.301 2.235 L 37.697998 2.235 L 31.128 48.055 z " fill-opacity="0.25" stroke-opacity="0.25"/>
        </g>
    </g>
</svg>
