<?xml version="1.0" encoding="UTF-8"?>
<svg xmlns="http://www.w3.org/2000/svg" xmlns:xlink="http://www.w3.org/1999/xlink" contentScriptType="text/ecmascript" width="60" baseProfile="tiny" zoomAndPan="magnify" contentStyleType="text/css" viewBox="0 0 60 60" height="60" preserveAspectRatio="xMidYMid meet" version="1.1">
    <path fill="#ffffff" d="M 31.305 14.226 L 31.305 8.627 L 28.147 8.627 L 28.147 14.070999 L 15.572 14.070999 C 12.943 14.070999 10.806 16.317 10.806 19.078999 L 10.806 42.815998 C 10.806 45.579998 12.943 47.827 15.572 47.827 L 30.191 47.827 C 32.82 47.827 34.955 45.579998 34.955 42.815998 L 34.955 19.08 C 34.952 16.722 33.391 14.757 31.305 14.226 z M 31.792 42.816 C 31.792 43.837 31.07 44.667004 30.188 44.667004 L 15.569 44.667004 C 14.684 44.667004 13.963 43.837 13.963 42.816 L 13.963 19.08 C 13.963 18.059 14.684 17.232 15.569 17.232 L 30.188 17.232 C 31.07 17.232 31.792 18.059 31.792 19.08 L 31.792 42.816 z "/>
    <rect x="16.782" width="12.36" fill="#ffffff" y="20.666" height="14.794"/>
    <path fill="#ffffff" d="M 40.247 22.236 L 38.014 24.47 C 43.166 29.616 39.196 34.46 37.971 35.917 L 40.377 37.959 C 43.766 34.46 46.025 28.015 40.247 22.236 z "/>
    <path fill="#ffffff" d="M 45.458 16.987 L 43.225 19.220999 C 52.906 28.898998 43.871 39.504997 43.209 40.506996 L 45.616 42.556995 C 46.577 41.301 57.176 28.706 45.458 16.987 z "/>
    <rect width="60" fill="none" height="60"/>
</svg>
