<?xml version="1.0" encoding="UTF-8"?>
<svg xmlns="http://www.w3.org/2000/svg" xmlns:xlink="http://www.w3.org/1999/xlink" contentScriptType="text/ecmascript" width="44" baseProfile="tiny" zoomAndPan="magnify" contentStyleType="text/css" viewBox="0 0 44 44" height="44" preserveAspectRatio="xMidYMid meet" version="1.1">
    <path fill="#ffffff" d="M 24.785 7.27 C 18.584 7.27 13.537 12.316999 13.537 18.52 C 13.537 20.663 14.15 22.659 15.186999 24.365 L 8.101 31.462 L 11.755 35.303 L 18.941 28.115002 C 20.648 29.159002 22.652 29.773003 24.785 29.773003 C 30.99 29.773003 36.035 24.722002 36.035 18.520002 C 36.035 12.317 30.99 7.27 24.785 7.27 z M 24.785 27.27 C 19.963 27.27 16.035 23.342001 16.035 18.52 C 16.035 13.698 19.963 9.772 24.785 9.772 C 29.611 9.772 33.539 13.698 33.539 18.52 C 33.539 23.342 29.611 27.27 24.785 27.27 z "/>
</svg>
