<?xml version="1.0" encoding="UTF-8"?>
<svg xmlns="http://www.w3.org/2000/svg" xmlns:xlink="http://www.w3.org/1999/xlink" contentScriptType="text/ecmascript" width="100" baseProfile="tiny" zoomAndPan="magnify" contentStyleType="text/css" viewBox="-3 -3 100 100" height="100" preserveAspectRatio="xMidYMid meet" version="1.1">
    <rect x="-3" width="100" fill="none" y="-3" height="100"/>
    <g>
        <path d="M 64.395 35.029 L 61.642998 31.522 L 58.739 29.299 L 46.947 20.275 L 35.440998 29.445 L 32.157997 32.062 L 29.714996 35.157 L 20.211996 47.202003 L 29.367996 58.717003 L 31.945995 61.960003 L 34.996994 64.374 L 46.856995 73.754 L 58.9 64.285 L 61.902 61.924004 L 64.56 58.621002 L 73.840996 47.065002 L 64.395 35.029 z M 63.954 57.916 C 62.142 59.949 60.223 61.872 58.186996 63.68 C 54.762997 66.727 51.032997 69.453 46.998997 71.832 C 42.966995 69.453 39.236996 66.727 35.811996 63.68 C 33.776997 61.871002 31.853996 59.951 30.046997 57.916 C 27.000998 54.491 24.272997 50.761 21.894997 46.728 C 24.271997 42.696 26.999996 38.965 30.045998 35.54 C 31.854998 33.506 33.776997 31.583 35.811996 29.774002 C 39.237 26.729 42.967 24.0 47.0 21.623 C 51.033 23.998999 54.764 26.727999 58.188 29.773998 C 60.221 31.582998 62.145 33.504997 63.955 35.539997 C 67.0 38.963997 69.729004 42.693996 72.104004 46.727997 C 69.729 50.76 66.999 54.491 63.954 57.916 z "/>
        <path fill="#404040" d="M 63.954 35.54 C 62.142 33.506 60.223 31.583 58.186996 29.774002 C 54.764 26.729 51.033 24.0 47.0 21.623 C 42.968 23.998999 39.238 26.727999 35.813 29.773998 C 33.778 31.582998 31.855 33.504997 30.047 35.539997 C 27.002 38.963997 24.274002 42.693996 21.896 46.727997 C 24.273 50.76 27.001 54.491997 30.048 57.915997 C 31.856 59.948997 33.778 61.871998 35.813 63.679996 C 39.237 66.727 42.967 69.452995 47.0 71.832 C 51.033 69.453 54.764 66.727 58.188 63.68 C 60.221 61.871002 62.145 59.951 63.955 57.916 C 67.0 54.491 69.729004 50.761 72.104004 46.728 C 69.729 42.694 66.999 38.964 63.954 35.54 z M 63.525 57.457 C 61.711002 59.504 59.777 61.436 57.730003 63.251 C 54.443005 66.161 50.863003 68.768 47.001003 71.047 C 43.138004 68.768 39.559002 66.161995 36.272003 63.250996 C 34.224003 61.437996 32.291004 59.502995 30.479004 57.456997 C 27.568005 54.169 24.960003 50.589996 22.683004 46.726997 C 24.960005 42.864 27.567005 39.284996 30.478004 35.996998 C 32.291004 33.949997 34.225006 32.016 36.272003 30.203999 C 39.558002 27.293 43.138004 24.684998 47.001003 22.408998 C 50.863003 24.684998 54.443005 27.293 57.730003 30.203999 C 59.777004 32.017 61.709003 33.951 63.525 35.997997 C 66.433 39.283997 69.044 42.864 71.32 46.726997 C 69.042 50.591 66.434 54.169 63.525 57.457 z "/>
        <path d="M 63.525 35.998 C 61.711002 33.95 59.777 32.017002 57.730003 30.204 C 54.443005 27.293001 50.863003 24.686 47.001003 22.409 C 43.138004 24.685001 39.559002 27.293 36.272003 30.204 C 34.224003 32.017002 32.291004 33.95 30.477003 35.997 C 27.567003 39.284 24.959003 42.864002 22.682003 46.727 C 24.960003 50.59 27.567003 54.169003 30.479004 57.457 C 32.291004 59.503002 34.225002 61.436 36.272003 63.251 C 39.559002 66.161 43.139004 68.768 47.001003 71.047 C 50.863003 68.768 54.443005 66.161995 57.730003 63.250996 C 59.777004 61.437996 61.709003 59.503994 63.525 57.456997 C 66.433 54.169 69.044 50.589996 71.32 46.726997 C 69.042 42.864 66.434 39.284 63.525 35.998 z "/>
    </g>
    <linearGradient x1="-1399.3525" gradientTransform="matrix(1.1111 0 0 1.1111 1581.719 -739.3113)" y1="698.6719" x2="-1384.8516" gradientUnits="userSpaceOnUse" y2="705.6722" xlink:type="simple" xlink:actuate="onLoad" id="XMLID_2_" xlink:show="other">
        <stop stop-color="#ffffff" offset="0"/>
        <stop stop-color="#d9d9d9" offset="0.0644"/>
        <stop stop-color="#a7a7a7" offset="0.1609"/>
        <stop stop-color="#7a7a7a" offset="0.2621"/>
        <stop stop-color="#545454" offset="0.3662"/>
        <stop stop-color="#363636" offset="0.474"/>
        <stop stop-color="#1e1e1e" offset="0.5864"/>
        <stop stop-color="#0d0d0d" offset="0.7055"/>
        <stop stop-color="#030303" offset="0.8362"/>
        <stop stop-color="#000000" offset="1"/>
    </linearGradient>
    <path fill="url(#XMLID_2_)" d="M 46.795 70.209 C 37.789997 65.518 29.922998 56.591 23.493998 46.757 C 29.626997 36.350998 36.616997 29.212 47.019997 23.078 C 21.472 53.754 43.865 67.582 46.795 70.209 z " fill-opacity="0.5"/>
    <path fill="#00acee" d="M 45.78 37.9 L 44.261997 37.9 C 42.420998 37.9 40.927998 39.392002 40.927998 41.233 L 40.927998 51.628002 C 40.927998 53.469 42.420998 54.961002 44.261997 54.961002 L 45.78 54.961002 C 47.621 54.961002 57.988 50.645004 57.988 47.190002 L 57.988 45.672 C 57.988 42.198 47.621 37.9 45.78 37.9 z "/>
</svg>
