<?xml version="1.0" encoding="UTF-8"?>
<svg xmlns="http://www.w3.org/2000/svg" xmlns:xlink="http://www.w3.org/1999/xlink" contentScriptType="text/ecmascript" width="44" baseProfile="tiny" zoomAndPan="magnify" contentStyleType="text/css" viewBox="-0.378 -0.019 44 44.001" height="44.001" preserveAspectRatio="xMidYMid meet" version="1.1">
    <g>
        <g>
            <g>
                <g>
                    <linearGradient x1="56.4866" gradientTransform="matrix(0.9913 0.1316 -0.1316 0.9913 2.8816 -265.798)" y1="268.1609" x2="56.4866" gradientUnits="userSpaceOnUse" y2="293.4941" xlink:type="simple" xlink:actuate="onLoad" id="XMLID_3_" xlink:show="other">
                        <stop stop-color="#ffffff" offset="0"/>
                        <stop stop-color="#ffffff" offset="1"/>
                    </linearGradient>
                    <path fill="url(#XMLID_3_)" d="M 30.311 28.44 L 35.515 27.479 L 33.766 15.639 L 28.788998 16.576 L 28.871998 17.223 L 27.575998 17.265 L 23.649998 14.733 L 23.527 14.691999 C 23.364998 14.638999 23.211 14.606999 23.05 14.584999 C 22.162 14.478999 20.956 14.599999 19.765 14.852999 C 19.175 14.983998 18.603 15.150999 18.097 15.373999 C 17.599 15.615998 17.11 15.844998 16.755001 16.498 C 16.686 16.637999 16.595001 16.834 16.490002 17.061 L 14.681002 17.394 L 14.899002 16.727999 L 10.021002 15.0929985 L 9.696002 16.106998 L 6.5930023 25.742 L 11.3600025 27.484 L 11.721003 26.391 L 12.004003 26.553 C 11.9920025 26.749 11.9850025 26.963 12.010002 27.208 C 12.060002 27.6 12.140002 28.146 12.703002 28.614 C 12.999002 28.843 14.201002 29.659 15.456002 30.52 C 16.678001 31.353 17.962002 32.232002 18.026005 32.289 C 18.339005 32.535 18.710005 32.685 19.083002 32.733 C 19.087002 32.734 19.092005 32.734 19.098 32.736 C 19.772 32.828 20.46 32.588 20.956 32.084 C 21.157 32.144 21.361002 32.190998 21.565 32.218998 C 23.212 32.412 24.928 31.768995 26.39 30.935995 C 27.684 30.115995 28.803 29.313995 29.234 28.069998 L 30.207 27.646996 L 30.311 28.44 z M 32.009 18.106 L 33.139 25.78 L 32.113 25.971 L 31.124 18.27 L 32.009 18.106 z M 10.046 24.765 L 9.214999 24.46 L 11.369 17.759998 L 12.252 18.054998 L 10.046 24.765 z M 20.69 29.359 L 19.516 30.565 L 19.489 30.605 C 19.46 30.646 19.409 30.658 19.376 30.657 C 19.354 30.652 19.343 30.647 19.325 30.634 C 19.07 30.438 17.901 29.647 16.644 28.785 C 15.582999 28.062 14.460999 27.292 14.105 27.037 C 14.099 26.976 14.094999 26.886002 14.094999 26.789 C 14.914 26.478 15.957999 26.307 16.816 26.428 C 17.006 26.453 17.189 26.490002 17.356 26.541002 C 17.559 26.654003 18.34 27.268002 19.009 27.836002 C 19.734 28.443005 20.385 29.018002 20.655 29.229002 L 20.656 29.228004 C 20.686 29.252005 20.7 29.293003 20.694 29.331003 C 20.694 29.342 20.692 29.351 20.69 29.359 z M 27.186 27.564 C 26.752 28.432 24.28 29.904 22.638 30.138 C 22.706 29.961998 22.755 29.783998 22.778 29.605 C 22.882 28.855 22.589 28.072 21.945 27.572 L 21.301 28.398 L 21.946 27.57 C 21.795002 27.455 20.991 26.754 20.212002 26.105 C 19.818005 25.773 19.420002 25.449 19.072002 25.183 C 18.690002 24.911 18.509005 24.73 18.033005 24.551998 C 17.722002 24.451998 17.406002 24.385998 17.093002 24.344995 C 15.764002 24.176998 14.430002 24.420998 13.290003 24.867998 L 12.395002 24.349998 L 13.936003 19.665 L 15.457003 19.386 C 15.230002 19.9 15.069002 20.272 15.066003 20.276 L 14.850003 20.771 L 15.129004 21.237 C 15.682003 22.073 16.498003 22.307 17.342005 22.441 C 18.655005 22.604 20.358004 22.318 21.490002 21.098 L 23.397 21.863 C 23.686 22.155 24.371002 22.872 25.106 23.794 C 26.013 24.915 26.941002 26.369 27.233002 27.48 C 27.225 27.502 27.208 27.529 27.186 27.564 z M 24.719 20.215 L 24.568 20.069 L 20.59 18.477 L 20.246 19.332 L 20.227 19.322 C 19.898 20.096 18.612 20.508 17.62 20.362 C 17.522 20.349 17.428 20.33 17.343 20.31 C 17.741 19.408 18.363 18.004 18.62 17.469 C 18.77 17.358 19.573 16.998 20.401 16.864 C 21.328 16.669 22.389002 16.608 22.771 16.665 L 26.987 19.387 L 29.14 19.317 L 29.929 25.477 L 28.896 25.926 C 27.629 22.948 24.749 20.292 24.719 20.215 z "/>
                </g>
            </g>
        </g>
        <g>
            <rect x="-0.378" width="44" fill="none" y="-0.019" height="44.001"/>
            <g>
                <linearGradient x1="33.6575" y1="6.8254" x2="33.6575" gradientUnits="userSpaceOnUse" y2="29.9577" xlink:type="simple" xlink:actuate="onLoad" id="XMLID_4_" xlink:show="other">
                    <stop stop-color="#ffffff" offset="0"/>
                    <stop stop-color="#ffffff" offset="1"/>
                </linearGradient>
                <path fill="url(#XMLID_4_)" d="M 37.275 9.488 L 32.805 11.462 L 33.944 14.034 L 38.411 12.059 L 37.275 9.488 z M 30.762 4.933 L 28.905 9.461 L 31.506998 10.531 L 33.365997 6.001 L 30.762 4.933 z "/>
            </g>
        </g>
    </g>
</svg>
