<?xml version="1.0" encoding="UTF-8"?>
<svg xmlns="http://www.w3.org/2000/svg" xmlns:xlink="http://www.w3.org/1999/xlink" contentScriptType="text/ecmascript" width="84" baseProfile="tiny" zoomAndPan="magnify" contentStyleType="text/css" viewBox="0 0 84 72" height="72" preserveAspectRatio="xMidYMid meet" version="1.1">
    <g>
        <g>
            <path fill="#ffffff" d="M 32.402 5.669 C 32.402 5.669 30.696001 11.589001 30.524 12.101 C 29.962 12.014 15.654 9.809 15.654 9.809 C 13.735001 9.845 11.987 10.514 11.987 10.514 L 13.247001 44.503 C 13.247001 44.503 36.261 50.85 36.736 50.98 C 36.967 55.474 37.917 64.203 37.917 64.203 C 37.917 64.203 42.33 68.646 48.661 68.815 C 49.434 68.835 51.909 66.499 51.989998 66.193 C 52.034996 66.020004 52.098 65.651 52.133 65.483 C 52.279 65.353004 53.204 64.496 53.204 64.496 C 53.204 64.496 55.291 53.451004 55.184 45.803 C 55.163998 44.364002 55.008 41.667 55.008 41.667 C 55.008 41.667 53.327 40.044 51.28 39.335 C 51.39 39.052 51.938 35.472 51.938 35.472 C 51.938 35.472 52.345 35.555 52.584 35.597 C 53.243 35.533 54.87 35.221 56.156 33.059 C 56.302 38.317997 57.252 48.523 57.252 48.523 C 60.735 52.264 66.104 52.661 66.378 52.616997 C 67.569 52.783997 69.683 50.512997 69.725 50.453995 C 69.725 50.453995 69.858 49.941994 69.888 49.782993 C 70.029 49.656994 70.756 48.914993 70.756 48.914993 C 71.437 45.755993 72.365 38.531994 72.365 32.758995 C 72.365 31.514996 72.223 29.021996 72.223 29.021996 C 71.454 28.209995 70.229 27.539995 69.092 27.078995 C 69.15501 26.644995 69.551 23.361996 69.551 23.361996 C 69.551 23.361996 69.379005 22.633995 67.944 22.546995 C 66.506 22.457994 66.337 23.213995 66.337 23.213995 C 66.337 23.213995 66.506 25.708996 66.525 26.344995 C 62.870003 25.693996 59.899002 26.475996 58.923 26.722996 C 59.251 25.725996 61.429 18.953995 61.429 18.953995 C 61.429 18.953995 61.742 19.016994 63.850002 18.995995 C 63.850002 18.995995 67.966 11.278995 66.691 8.137995 C 66.431 7.496995 66.012 7.1189947 65.271 7.0099945 C 65.271 7.0099945 36.581 5.0499945 35.577003 5.0049944 C 33.697 4.918 32.402 5.669 32.402 5.669 z "/>
            <linearGradient x1="-688.8428" gradientTransform="matrix(1.1905 0 0 -1.1905 875.6733 1351.9015)" y1="1137.8936" x2="-702.0952" gradientUnits="userSpaceOnUse" y2="1112.719" xlink:type="simple" xlink:actuate="onLoad" id="XMLID_51_" xlink:show="other">
                <stop stop-color="#ffffff" offset="0"/>
                <stop stop-color="#ffffff" offset="0.05"/>
                <stop stop-color="#a2c2dd" offset="1"/>
            </linearGradient>
            <path fill="url(#XMLID_51_)" d="M 62.397 8.289 L 32.851 5.794 L 26.941002 25.650002 L 52.448 35.202003 C 57.918 34.313 62.397 8.289 62.397 8.289 z "/>
            <linearGradient x1="-673.4292" gradientTransform="matrix(1.1905 0 0 -1.1905 875.6733 1351.9015)" y1="1137.9453" x2="-689.5533" gradientUnits="userSpaceOnUse" y2="1112.4331" xlink:type="simple" xlink:actuate="onLoad" id="XMLID_52_" xlink:show="other">
                <stop stop-color="#ffffff" offset="0"/>
                <stop stop-color="#496da2" offset="0.71"/>
                <stop stop-color="#235487" offset="0.99"/>
                <stop stop-color="#235487" offset="1"/>
            </linearGradient>
            <path fill="url(#XMLID_52_)" d="M 62.409 8.357 L 56.924 25.509 C 54.802 32.098 54.29 35.171 52.291 35.197 C 54.221 35.531 56.682 32.918 57.972 28.293999 L 61.116 18.512999 L 63.688 18.564999 C 69.106 7.637 65.947 5.951 62.409 8.357 z "/>
            <linearGradient x1="-695.7339" gradientTransform="matrix(1.1905 0 0 -1.1905 875.6733 1351.9015)" y1="1126.6211" x2="-692.896" gradientUnits="userSpaceOnUse" y2="1134.318" xlink:type="simple" xlink:actuate="onLoad" id="XMLID_53_" xlink:show="other">
                <stop stop-color="#ffffff" offset="0"/>
                <stop stop-color="#ffffff" offset="0.05"/>
                <stop stop-color="#a2c2dd" offset="1"/>
            </linearGradient>
            <path fill="url(#XMLID_53_)" d="M 62.397 8.347 C 63.191998 7.8310003 63.829998 7.519 64.991 7.3650002 L 35.572 5.2850003 C 34.312 5.3910003 33.697998 5.4400005 32.850998 5.8560004 L 62.397 8.347 z "/>
            <path fill="#ffffff" d="M 35.418 6.961 C 34.813 6.895 34.173 7.34 33.990997 7.956 C 33.805996 8.571 34.144997 9.125999 34.746 9.191999 C 35.345997 9.256999 35.986 8.815 36.175 8.195 C 36.364 7.579 36.025 7.026 35.418 6.961 z "/>
            <path fill="#ffffff" d="M 34.189 11.011 C 33.593 10.943999 32.955997 11.387 32.774 12.002 C 32.591 12.616 32.921997 13.175 33.512997 13.2439995 C 34.109997 13.306999 34.739998 12.863 34.925995 12.247 C 35.118 11.63 34.787 11.075 34.189 11.011 z "/>
            <path fill="#ffffff" d="M 57.886 11.039 C 57.388 12.573 59.643 12.761999 60.146 11.224999 C 60.662 9.675 58.384 9.485 57.886 11.039 z "/>
            <path fill="#ffffff" d="M 56.51 15.261 C 56.016 16.789 58.239 16.976 58.740997 15.448999 C 59.251 13.911 57.011 13.722 56.51 15.261 z "/>
            <path fill="#ffffff" d="M 55.138 19.489 C 54.646 21.03 56.83 21.218 57.333 19.677 C 57.844 18.145 55.636 17.952 55.138 19.489 z "/>
            <path fill="#ffffff" d="M 53.766 23.712 C 53.267 25.244 55.426 25.439 55.925 23.904 C 56.441 22.366 54.257 22.172 53.766 23.712 z "/>
            <path fill="#ffffff" d="M 52.387 27.938 C 51.887 29.487999 54.008 29.685 54.52 28.131 C 55.036 26.577 52.895 26.379 52.387 27.938 z "/>
            <path fill="#ffffff" d="M 51.586 31.372 L 51.676 33.426 C 52.258 33.486 52.895 33.008 53.108997 32.365997 C 53.479 31.248 52.407 30.76 51.586 31.372 z "/>
            <linearGradient x1="-686.7627" gradientTransform="matrix(1.1905 0 0 -1.1905 875.6733 1351.9015)" y1="1090.5234" x2="-696.151" gradientUnits="userSpaceOnUse" y2="1120.465" xlink:type="simple" xlink:actuate="onLoad" id="XMLID_54_" xlink:show="other">
                <stop stop-color="#ffffff" offset="0"/>
                <stop stop-color="#496da2" offset="0.71"/>
                <stop stop-color="#235487" offset="0.99"/>
                <stop stop-color="#235487" offset="1"/>
            </linearGradient>
            <path fill="url(#XMLID_54_)" d="M 49.092 15.751 C 55.87 15.594001 49.7 31.228 52.447998 35.202 L 46.731 33.738 C 46.731 33.738 44.294 14.878 49.092 15.751 z "/>
            <linearGradient x1="-690.8208" gradientTransform="matrix(1.1905 0 0 -1.1905 875.6733 1351.9015)" y1="1089.2441" x2="-700.2092" gradientUnits="userSpaceOnUse" y2="1119.1859" xlink:type="simple" xlink:actuate="onLoad" id="XMLID_55_" xlink:show="other">
                <stop stop-color="#a2c2dd" offset="0"/>
                <stop stop-color="#a2c2dd" offset="0.1"/>
                <stop stop-color="#6c83bb" offset="0.71"/>
                <stop stop-color="#003d6d" offset="0.99"/>
                <stop stop-color="#003d6d" offset="1"/>
            </linearGradient>
            <polygon fill="url(#XMLID_55_)" points="45.306,53.047 45.442,16.6 48.238,15.883 48.113,50.46   "/>
            <linearGradient x1="-700.0308" gradientTransform="matrix(1.1905 0 0 -1.1905 875.6733 1351.9015)" y1="1130.1973" x2="-716.1465" gradientUnits="userSpaceOnUse" y2="1099.5824" xlink:type="simple" xlink:actuate="onLoad" id="XMLID_56_" xlink:show="other">
                <stop stop-color="#ffffff" offset="0"/>
                <stop stop-color="#ffffff" offset="0.05"/>
                <stop stop-color="#a2c2dd" offset="1"/>
            </linearGradient>
            <polygon fill="url(#XMLID_56_)" points="45.301,53.048 13.568,44.182 12.446,10.831 45.92,17.392   "/>
            <linearGradient x1="-710.4487" gradientTransform="matrix(1.1905 0 0 -1.1905 875.6733 1351.9015)" y1="1121.4502" x2="-707.9901" gradientUnits="userSpaceOnUse" y2="1128.1104" xlink:type="simple" xlink:actuate="onLoad" id="XMLID_57_" xlink:show="other">
                <stop stop-color="#ffffff" offset="0"/>
                <stop stop-color="#ffffff" offset="0.05"/>
                <stop stop-color="#a2c2dd" offset="1"/>
            </linearGradient>
            <path fill="url(#XMLID_57_)" d="M 45.92 17.392 C 46.379997 16.42 48.651997 15.564 49.984997 15.766 L 15.723995 10.287 C 14.454995 10.276999 13.138995 10.474999 12.419995 10.861 L 45.92 17.392 z "/>
            <path fill="#ffffff" d="M 14.435 14.059 C 14.502001 15.648 16.898 16.153 16.843 14.562 C 16.783 12.971 14.365 12.465 14.435 14.059 z "/>
            <path fill="#ffffff" d="M 14.616 18.419 C 14.686 20.001001 17.052 20.506 16.991001 18.921001 C 16.932 17.339 14.543 16.836 14.616 18.419 z "/>
            <path fill="#ffffff" d="M 14.796 22.781 C 14.867999 24.371 17.194 24.874 17.139 23.284 C 17.084 21.676 14.729 21.174 14.796 22.781 z "/>
            <path fill="#ffffff" d="M 14.973 27.141 C 15.042999 28.725 17.344 29.231 17.286999 27.644001 C 17.23 26.058 14.904 25.557 14.973 27.141 z "/>
            <path fill="#ffffff" d="M 15.154 31.5 C 15.217 33.093 17.487 33.593 17.431 32.004 C 17.375 30.413 15.081 29.912 15.154 31.5 z "/>
            <path fill="#ffffff" d="M 15.326 35.857 C 15.391 37.442997 17.625 37.946 17.575 36.361 C 17.515 34.763 15.262 34.259 15.326 35.857 z "/>
            <path fill="#ffffff" d="M 40.933 20.065 C 40.967 21.711 43.421997 22.161001 43.403 20.514 C 43.389 18.853 40.905 18.401 40.933 20.065 z "/>
            <path fill="#ffffff" d="M 41.015 24.602 C 41.044 26.251 43.471 26.701 43.45 25.050999 C 43.426 23.407 40.98 22.957 41.015 24.602 z "/>
            <path fill="#ffffff" d="M 41.094 29.143 C 41.123 30.785 43.517002 31.232 43.496002 29.588999 C 43.474 27.93 41.064 27.483 41.094 29.143 z "/>
            <path fill="#ffffff" d="M 41.172 33.68 C 41.198 35.338 43.559002 35.79 43.539 34.131 C 43.521 32.481 41.135 32.033 41.172 33.68 z "/>
            <path fill="#ffffff" d="M 41.245 38.223 C 41.274998 39.874 43.601997 40.325 43.580997 38.668 C 43.563 37.012 41.215 36.563 41.245 38.223 z "/>
            <path fill="#ffffff" d="M 41.316 42.758 C 41.349003 44.406998 43.637 44.864 43.620003 43.211 C 43.605 41.558 41.287 41.107 41.316 42.758 z "/>
            <path fill="#ffffff" d="M 41.359 47.158 C 41.386 48.82 43.712 49.272 43.697002 47.608 C 43.675 45.941 41.336 45.495 41.359 47.158 z "/>
            <path fill="#ffffff" d="M 42.575 50.319 C 41.687 50.145 41.158 51.132 41.623 52.022 L 43.489002 52.534 C 44.126 51.811 43.51 50.502 42.575 50.319 z "/>
            <linearGradient x1="-710.939" gradientTransform="matrix(1.1905 0 0 -1.1905 875.6733 1351.9015)" y1="1122.7129" x2="-710.939" gradientUnits="userSpaceOnUse" y2="1102.2529" xlink:type="simple" xlink:actuate="onLoad" id="XMLID_58_" xlink:show="other">
                <stop stop-color="#e6eef4" offset="0"/>
                <stop stop-color="#a3740a" offset="0.44"/>
                <stop stop-color="#474105" offset="0.94"/>
                <stop stop-color="#474105" offset="1"/>
            </linearGradient>
            <polygon fill="url(#XMLID_58_)" points="25.926,28.266 25.642,20.609 33.582,22.116 33.011,29.895 37.758,31.134 29.461,41.262     20.877,27.123   "/>
            <linearGradient x1="-696.7485" gradientTransform="matrix(1.1905 0 0 -1.1905 875.6733 1351.9015)" y1="1106.2207" x2="-689.6157" gradientUnits="userSpaceOnUse" y2="1096.0562" xlink:type="simple" xlink:actuate="onLoad" id="XMLID_59_" xlink:show="other">
                <stop stop-color="#a2c2dd" offset="0"/>
                <stop stop-color="#a2c2dd" offset="0.1"/>
                <stop stop-color="#6c83bb" offset="0.71"/>
                <stop stop-color="#003d6d" offset="0.99"/>
                <stop stop-color="#003d6d" offset="1"/>
            </linearGradient>
            <path fill="url(#XMLID_59_)" d="M 45.042 38.678 C 47.614 38.584 51.946 38.949 54.742 41.760002 L 53.087 42.524002 L 45.042 38.678 z "/>
            <linearGradient x1="-692.7573" gradientTransform="matrix(1.1905 0 0 -1.1905 875.6733 1351.9015)" y1="1105.2324" x2="-690.24" gradientUnits="userSpaceOnUse" y2="1085.363" xlink:type="simple" xlink:actuate="onLoad" id="XMLID_60_" xlink:show="other">
                <stop stop-color="#ffffff" offset="0"/>
                <stop stop-color="#a2c2dd" offset="0.35"/>
                <stop stop-color="#6c83bb" offset="0.7"/>
                <stop stop-color="#003d6d" offset="1"/>
            </linearGradient>
            <path fill="url(#XMLID_60_)" d="M 53.36 42.375 L 51.618 65.514 L 52.948 64.389 C 53.991 59.794 55.408 48.459 54.736 41.725998 L 53.36 42.375 z "/>
            <linearGradient x1="-700.9341" gradientTransform="matrix(1.1905 0 0 -1.1905 875.6733 1351.9015)" y1="1098.373" x2="-694.4091" gradientUnits="userSpaceOnUse" y2="1103.6183" xlink:type="simple" xlink:actuate="onLoad" id="XMLID_61_" xlink:show="other">
                <stop stop-color="#ffffff" offset="0"/>
                <stop stop-color="#ffffff" offset="0.15"/>
                <stop stop-color="#a2c2dd" offset="1"/>
            </linearGradient>
            <path fill="url(#XMLID_61_)" d="M 37.015 40.202 C 41.911 38.447 48.692 37.378998 53.558 41.902 L 49.594997 43.792 L 37.015 40.202 z "/>
            <linearGradient x1="-692.6938" gradientTransform="matrix(1.1905 0 0 -1.1905 875.6733 1351.9015)" y1="1103.8711" x2="-692.3823" gradientUnits="userSpaceOnUse" y2="1072.7085" xlink:type="simple" xlink:actuate="onLoad" id="XMLID_62_" xlink:show="other">
                <stop stop-color="#ffffff" offset="0"/>
                <stop stop-color="#a2c2dd" offset="0.35"/>
                <stop stop-color="#6c83bb" offset="0.7"/>
                <stop stop-color="#003d6d" offset="1"/>
            </linearGradient>
            <path fill="url(#XMLID_62_)" d="M 49.596 43.792 L 48.715 68.458 C 50.573 67.603 51.753 66.019 51.753 66.019 C 52.850998 61.177 54.273 49.009995 53.559 41.903 L 49.596 43.792 z "/>
            <linearGradient x1="-695.8389" gradientTransform="matrix(1.1905 0 0 -1.1905 875.6733 1351.9015)" y1="1101.8682" x2="-691.3016" gradientUnits="userSpaceOnUse" y2="1099.8899" xlink:type="simple" xlink:actuate="onLoad" id="XMLID_63_" xlink:show="other">
                <stop stop-color="#ffffff" offset="0"/>
                <stop stop-color="#a2c2dd" offset="0.35"/>
                <stop stop-color="#6c83bb" offset="0.7"/>
                <stop stop-color="#003d6d" offset="1"/>
            </linearGradient>
            <path fill="url(#XMLID_63_)" d="M 51.373 41.085 C 51.575 42.332 48.181 42.524998 48.207 41.154 C 48.228 40.21 51.226 40.156 51.373 41.085 z "/>
            <linearGradient x1="-694.9053" gradientTransform="matrix(1.1905 0 0 -1.1905 875.6733 1351.9015)" y1="1103.4844" x2="-691.4689" gradientUnits="userSpaceOnUse" y2="1103.257" xlink:type="simple" xlink:actuate="onLoad" id="XMLID_64_" xlink:show="other">
                <stop stop-color="#e6eef4" offset="0"/>
                <stop stop-color="#337ce5" offset="0.44"/>
                <stop stop-color="#003d6d" offset="0.94"/>
                <stop stop-color="#003d6d" offset="1"/>
            </linearGradient>
            <path fill="url(#XMLID_64_)" d="M 48.574 34.902 C 48.574 34.902 48.778 41.248 48.778 41.266 C 49.268 41.807 50.433 41.767 50.78 41.281 L 51.661 35.212997 L 48.574 34.902 z "/>
            <linearGradient x1="-693.3154" gradientTransform="matrix(1.1905 0 0 -1.1905 875.6733 1351.9015)" y1="1102.751" x2="-701.8533" gradientUnits="userSpaceOnUse" y2="1085.2627" xlink:type="simple" xlink:actuate="onLoad" id="XMLID_65_" xlink:show="other">
                <stop stop-color="#ffffff" offset="0"/>
                <stop stop-color="#ffffff" offset="0.05"/>
                <stop stop-color="#a2c2dd" offset="1"/>
            </linearGradient>
            <path fill="url(#XMLID_65_)" d="M 37.015 40.202 C 39.739 39.312 45.51 40.055 49.596 43.792 C 50.073 50.495 49.684002 62.142998 48.715 68.457 C 45.42 68.537 40.769 66.325 38.313 64.194 C 37.506 58.557 36.504 46.945 37.015 40.202 z "/>
            <linearGradient x1="-691.5796" gradientTransform="matrix(1.1905 0 0 -1.1905 875.6733 1351.9015)" y1="1089.1865" x2="-704.8914" gradientUnits="userSpaceOnUse" y2="1096.5454" xlink:type="simple" xlink:actuate="onLoad" id="XMLID_66_" xlink:show="other">
                <stop stop-color="#ffffff" offset="0"/>
                <stop stop-color="#ffffff" offset="0.05"/>
                <stop stop-color="#a2c2dd" offset="1"/>
            </linearGradient>
            <polygon fill="url(#XMLID_66_)" points="38.373,41.828 38.793,56.044 47.896,59.397 48.199,44.652   "/>
            <linearGradient x1="-702.3174" gradientTransform="matrix(1.1905 0 0 -1.1905 875.6733 1351.9015)" y1="1079.6289" x2="-703.0163" gradientUnits="userSpaceOnUse" y2="1107.3741" xlink:type="simple" xlink:actuate="onLoad" id="XMLID_67_" xlink:show="other">
                <stop stop-color="#ffffff" offset="0"/>
                <stop stop-color="#a2c2dd" offset="0.35"/>
                <stop stop-color="#6c83bb" offset="0.7"/>
                <stop stop-color="#003d6d" offset="1"/>
            </linearGradient>
            <polygon fill="url(#XMLID_67_)" points="39.811,55.43 39.549,42.162 38.373,41.828 38.793,56.044   "/>
            <linearGradient x1="-694.752" gradientTransform="matrix(1.1905 0 0 -1.1905 875.6733 1351.9015)" y1="1083.4551" x2="-705.5121" gradientUnits="userSpaceOnUse" y2="1093.609" xlink:type="simple" xlink:actuate="onLoad" id="XMLID_68_" xlink:show="other">
                <stop stop-color="#ffffff" offset="0"/>
                <stop stop-color="#ffffff" offset="0.15"/>
                <stop stop-color="#a2c2dd" offset="1"/>
            </linearGradient>
            <polygon fill="url(#XMLID_68_)" points="38.793,56.044 39.811,55.43 47.928,58.239 47.896,59.397   "/>
            <linearGradient x1="-694.4258" gradientTransform="matrix(1.1905 0 0 -1.1905 875.6733 1351.9015)" y1="1105.8564" x2="-692.3368" gradientUnits="userSpaceOnUse" y2="1106.5303" xlink:type="simple" xlink:actuate="onLoad" id="XMLID_69_" xlink:show="other">
                <stop stop-color="#d6e4f3" offset="0"/>
                <stop stop-color="#337ce5" offset="1"/>
            </linearGradient>
            <path fill="url(#XMLID_69_)" d="M 51.661 35.212 C 51.369 36.033 48.28 35.667004 48.6 34.847 C 48.93 34.034 51.939 34.383 51.661 35.212 z "/>
            <linearGradient x1="-701.3125" gradientTransform="matrix(1.1905 0 0 -1.1905 875.6733 1351.9015)" y1="1090.4014" x2="-695.4255" gradientUnits="userSpaceOnUse" y2="1080.615" xlink:type="simple" xlink:actuate="onLoad" id="XMLID_70_" xlink:show="other">
                <stop stop-color="#e6eef4" offset="0"/>
                <stop stop-color="#337ce5" offset="0.44"/>
                <stop stop-color="#003d6d" offset="0.94"/>
                <stop stop-color="#003d6d" offset="1"/>
            </linearGradient>
            <polygon fill="url(#XMLID_70_)" points="44.958,63.127 47.298,64.112 47.391,62.426 45.006,61.443   "/>
            <linearGradient x1="-700.4692" gradientTransform="matrix(1.1905 0 0 -1.1905 875.6733 1351.9015)" y1="1090.9053" x2="-694.5839" gradientUnits="userSpaceOnUse" y2="1081.1217" xlink:type="simple" xlink:actuate="onLoad" id="XMLID_71_" xlink:show="other">
                <stop stop-color="#e6eef4" offset="0"/>
                <stop stop-color="#337ce5" offset="0.44"/>
                <stop stop-color="#003d6d" offset="0.94"/>
                <stop stop-color="#003d6d" offset="1"/>
            </linearGradient>
            <polygon fill="url(#XMLID_71_)" points="47.41,61.989 47.506,60.308 45.069,59.402 45.022,61.009   "/>
            <linearGradient x1="-702.1216" gradientTransform="matrix(1.1905 0 0 -1.1905 875.6733 1351.9015)" y1="1089.9121" x2="-696.2364" gradientUnits="userSpaceOnUse" y2="1080.1288" xlink:type="simple" xlink:actuate="onLoad" id="XMLID_72_" xlink:show="other">
                <stop stop-color="#e6eef4" offset="0"/>
                <stop stop-color="#337ce5" offset="0.44"/>
                <stop stop-color="#003d6d" offset="0.94"/>
                <stop stop-color="#003d6d" offset="1"/>
            </linearGradient>
            <polygon fill="url(#XMLID_72_)" points="44.941,63.563 44.901,65.081 47.19,66.102 47.274,64.551   "/>
            <linearGradient x1="-703.833" gradientTransform="matrix(1.1905 0 0 -1.1905 875.6733 1351.9015)" y1="1088.8809" x2="-697.9488" gradientUnits="userSpaceOnUse" y2="1079.0991" xlink:type="simple" xlink:actuate="onLoad" id="XMLID_73_" xlink:show="other">
                <stop stop-color="#e6eef4" offset="0"/>
                <stop stop-color="#337ce5" offset="0.44"/>
                <stop stop-color="#003d6d" offset="0.94"/>
                <stop stop-color="#003d6d" offset="1"/>
            </linearGradient>
            <polygon fill="url(#XMLID_73_)" points="41.727,60.118 39.673,59.303 39.777,61.002 41.792,61.814   "/>
            <linearGradient x1="-701.8291" gradientTransform="matrix(1.1905 0 0 -1.1905 875.6733 1351.9015)" y1="1090.0869" x2="-695.9445" gradientUnits="userSpaceOnUse" y2="1080.3044" xlink:type="simple" xlink:actuate="onLoad" id="XMLID_74_" xlink:show="other">
                <stop stop-color="#e6eef4" offset="0"/>
                <stop stop-color="#337ce5" offset="0.44"/>
                <stop stop-color="#003d6d" offset="0.94"/>
                <stop stop-color="#003d6d" offset="1"/>
            </linearGradient>
            <polygon fill="url(#XMLID_74_)" points="44.564,60.849 44.583,59.25 42.222,58.387 42.249,59.923   "/>
            <linearGradient x1="-703.1382" gradientTransform="matrix(1.1905 0 0 -1.1905 875.6733 1351.9015)" y1="1089.3018" x2="-697.2518" gradientUnits="userSpaceOnUse" y2="1079.5164" xlink:type="simple" xlink:actuate="onLoad" id="XMLID_75_" xlink:show="other">
                <stop stop-color="#e6eef4" offset="0"/>
                <stop stop-color="#337ce5" offset="0.44"/>
                <stop stop-color="#003d6d" offset="0.94"/>
                <stop stop-color="#003d6d" offset="1"/>
            </linearGradient>
            <polygon fill="url(#XMLID_75_)" points="41.652,58.152 39.549,57.394 39.644,58.865 41.709,59.68   "/>
            <linearGradient x1="-703.3481" gradientTransform="matrix(1.1905 0 0 -1.1905 875.6733 1351.9015)" y1="1089.1738" x2="-697.463" gradientUnits="userSpaceOnUse" y2="1079.3904" xlink:type="simple" xlink:actuate="onLoad" id="XMLID_76_" xlink:show="other">
                <stop stop-color="#e6eef4" offset="0"/>
                <stop stop-color="#337ce5" offset="0.44"/>
                <stop stop-color="#003d6d" offset="0.94"/>
                <stop stop-color="#003d6d" offset="1"/>
            </linearGradient>
            <polygon fill="url(#XMLID_76_)" points="42.327,63.988 44.521,64.943 44.532,63.419 42.3,62.489   "/>
            <linearGradient x1="-704.5244" gradientTransform="matrix(1.1905 0 0 -1.1905 875.6733 1351.9015)" y1="1088.4648" x2="-698.6403" gradientUnits="userSpaceOnUse" y2="1078.6831" xlink:type="simple" xlink:actuate="onLoad" id="XMLID_77_" xlink:show="other">
                <stop stop-color="#e6eef4" offset="0"/>
                <stop stop-color="#337ce5" offset="0.44"/>
                <stop stop-color="#003d6d" offset="0.94"/>
                <stop stop-color="#003d6d" offset="1"/>
            </linearGradient>
            <polygon fill="url(#XMLID_77_)" points="41.803,62.255 39.808,61.441 39.9,62.922 41.86,63.759   "/>
            <linearGradient x1="-702.5952" gradientTransform="matrix(1.1905 0 0 -1.1905 875.6733 1351.9015)" y1="1089.6211" x2="-696.7137" gradientUnits="userSpaceOnUse" y2="1079.8439" xlink:type="simple" xlink:actuate="onLoad" id="XMLID_78_" xlink:show="other">
                <stop stop-color="#e6eef4" offset="0"/>
                <stop stop-color="#337ce5" offset="0.44"/>
                <stop stop-color="#003d6d" offset="0.94"/>
                <stop stop-color="#003d6d" offset="1"/>
            </linearGradient>
            <polygon fill="url(#XMLID_78_)" points="42.259,60.359 42.288,62.048 44.541,62.979 44.558,61.289   "/>
            <linearGradient x1="-704.0776" gradientTransform="matrix(1.1905 0 0 -1.1905 875.6733 1351.9015)" y1="1088.7402" x2="-698.1895" gradientUnits="userSpaceOnUse" y2="1078.9519" xlink:type="simple" xlink:actuate="onLoad" id="XMLID_79_" xlink:show="other">
                <stop stop-color="#e6eef4" offset="0"/>
                <stop stop-color="#337ce5" offset="0.44"/>
                <stop stop-color="#003d6d" offset="0.94"/>
                <stop stop-color="#003d6d" offset="1"/>
            </linearGradient>
            <polygon fill="url(#XMLID_79_)" points="42.334,64.433 42.362,65.974 44.497,66.969 44.517,65.386   "/>
            <linearGradient x1="-681.3335" gradientTransform="matrix(1.1905 0 0 -1.1905 875.6733 1351.9015)" y1="1116.0195" x2="-675.1604" gradientUnits="userSpaceOnUse" y2="1107.2273" xlink:type="simple" xlink:actuate="onLoad" id="XMLID_80_" xlink:show="other">
                <stop stop-color="#a2c2dd" offset="0"/>
                <stop stop-color="#a2c2dd" offset="0.1"/>
                <stop stop-color="#6c83bb" offset="0.71"/>
                <stop stop-color="#003d6d" offset="0.99"/>
                <stop stop-color="#003d6d" offset="1"/>
            </linearGradient>
            <path fill="url(#XMLID_80_)" d="M 63.551 26.511 C 65.779 26.43 69.527 26.744 71.946 29.178 L 70.515 29.837 L 63.551 26.511 z "/>
            <linearGradient x1="-677.8804" gradientTransform="matrix(1.1905 0 0 -1.1905 875.6733 1351.9015)" y1="1115.1699" x2="-675.6996" gradientUnits="userSpaceOnUse" y2="1097.9764" xlink:type="simple" xlink:actuate="onLoad" id="XMLID_81_" xlink:show="other">
                <stop stop-color="#ffffff" offset="0"/>
                <stop stop-color="#a2c2dd" offset="0.35"/>
                <stop stop-color="#6c83bb" offset="0.7"/>
                <stop stop-color="#003d6d" offset="1"/>
            </linearGradient>
            <path fill="url(#XMLID_81_)" d="M 70.75 29.708 L 69.243 49.734 L 70.391 48.758 C 71.292 44.781 72.52 34.974 71.937996 29.146 L 70.75 29.708 z "/>
            <linearGradient x1="-684.9541" gradientTransform="matrix(1.1905 0 0 -1.1905 875.6733 1351.9015)" y1="1109.2246" x2="-679.3127" gradientUnits="userSpaceOnUse" y2="1113.7714" xlink:type="simple" xlink:actuate="onLoad" id="XMLID_82_" xlink:show="other">
                <stop stop-color="#ffffff" offset="0"/>
                <stop stop-color="#ffffff" offset="0.15"/>
                <stop stop-color="#a2c2dd" offset="1"/>
            </linearGradient>
            <path fill="url(#XMLID_82_)" d="M 56.604 27.83 C 60.841 26.311 66.712 25.387 70.92 29.303 L 67.489 30.935999 L 56.604 27.83 z "/>
            <linearGradient x1="-677.8232" gradientTransform="matrix(1.1905 0 0 -1.1905 875.6733 1351.9015)" y1="1113.9902" x2="-677.5538" gradientUnits="userSpaceOnUse" y2="1087.0212" xlink:type="simple" xlink:actuate="onLoad" id="XMLID_83_" xlink:show="other">
                <stop stop-color="#ffffff" offset="0"/>
                <stop stop-color="#a2c2dd" offset="0.35"/>
                <stop stop-color="#6c83bb" offset="0.7"/>
                <stop stop-color="#003d6d" offset="1"/>
            </linearGradient>
            <path fill="url(#XMLID_83_)" d="M 67.491 30.934 L 66.73 52.278 C 68.337006 51.539 69.358 50.17 69.358 50.17 C 70.306 45.98 71.539 35.451996 70.921005 29.300999 L 67.491 30.934 z "/>
            <linearGradient x1="-680.5425" gradientTransform="matrix(1.1905 0 0 -1.1905 875.6733 1351.9015)" y1="1112.2568" x2="-676.6158" gradientUnits="userSpaceOnUse" y2="1110.5378" xlink:type="simple" xlink:actuate="onLoad" id="XMLID_84_" xlink:show="other">
                <stop stop-color="#ffffff" offset="0"/>
                <stop stop-color="#a2c2dd" offset="0.35"/>
                <stop stop-color="#6c83bb" offset="0.7"/>
                <stop stop-color="#003d6d" offset="1"/>
            </linearGradient>
            <path fill="url(#XMLID_84_)" d="M 69.032 28.593 C 69.207 29.671 66.268 29.839 66.287994 28.654001 C 66.307 27.838 68.903 27.792 69.032 28.593 z "/>
            <linearGradient x1="-679.7334" gradientTransform="matrix(1.1905 0 0 -1.1905 875.6733 1351.9015)" y1="1113.6543" x2="-676.7686" gradientUnits="userSpaceOnUse" y2="1113.4521" xlink:type="simple" xlink:actuate="onLoad" id="XMLID_85_" xlink:show="other">
                <stop stop-color="#e6eef4" offset="0"/>
                <stop stop-color="#337ce5" offset="0.44"/>
                <stop stop-color="#003d6d" offset="0.94"/>
                <stop stop-color="#003d6d" offset="1"/>
            </linearGradient>
            <path fill="url(#XMLID_85_)" d="M 66.608 23.244 C 66.608 23.244 66.784004 28.734 66.784004 28.748 C 67.21001 29.217999 68.219 29.182999 68.517006 28.762 L 69.27801 23.512 L 66.608 23.244 z "/>
            <linearGradient x1="-678.3604" gradientTransform="matrix(1.1905 0 0 -1.1905 875.6733 1351.9015)" y1="1113.0127" x2="-685.7532" gradientUnits="userSpaceOnUse" y2="1097.8818" xlink:type="simple" xlink:actuate="onLoad" id="XMLID_86_" xlink:show="other">
                <stop stop-color="#ffffff" offset="0"/>
                <stop stop-color="#ffffff" offset="0.05"/>
                <stop stop-color="#a2c2dd" offset="1"/>
            </linearGradient>
            <path fill="url(#XMLID_86_)" d="M 56.604 27.83 C 58.963 27.059 63.954 27.701 67.49 30.935 C 67.902 36.737 67.567 46.814 66.729 52.279 C 63.875996 52.35 59.850998 50.436 57.726997 48.591 C 57.029 43.712 56.164 33.664 56.604 27.83 z "/>
            <linearGradient x1="-676.853" gradientTransform="matrix(1.1905 0 0 -1.1905 875.6733 1351.9015)" y1="1101.2783" x2="-688.3796" gradientUnits="userSpaceOnUse" y2="1107.652" xlink:type="simple" xlink:actuate="onLoad" id="XMLID_87_" xlink:show="other">
                <stop stop-color="#ffffff" offset="0"/>
                <stop stop-color="#ffffff" offset="0.05"/>
                <stop stop-color="#a2c2dd" offset="1"/>
            </linearGradient>
            <polygon fill="url(#XMLID_87_)" points="57.781,29.236 58.146,41.538 66.021,44.44 66.281,31.679   "/>
            <linearGradient x1="-686.1504" gradientTransform="matrix(1.1905 0 0 -1.1905 875.6733 1351.9015)" y1="1093.0146" x2="-686.7567" gradientUnits="userSpaceOnUse" y2="1117.0144" xlink:type="simple" xlink:actuate="onLoad" id="XMLID_88_" xlink:show="other">
                <stop stop-color="#ffffff" offset="0"/>
                <stop stop-color="#a2c2dd" offset="0.35"/>
                <stop stop-color="#6c83bb" offset="0.7"/>
                <stop stop-color="#003d6d" offset="1"/>
            </linearGradient>
            <polygon fill="url(#XMLID_88_)" points="59.024,41.007 58.798,29.524 57.781,29.236 58.146,41.538   "/>
            <linearGradient x1="-679.604" gradientTransform="matrix(1.1905 0 0 -1.1905 875.6733 1351.9015)" y1="1096.3203" x2="-688.914" gradientUnits="userSpaceOnUse" y2="1105.1084" xlink:type="simple" xlink:actuate="onLoad" id="XMLID_89_" xlink:show="other">
                <stop stop-color="#ffffff" offset="0"/>
                <stop stop-color="#ffffff" offset="0.15"/>
                <stop stop-color="#a2c2dd" offset="1"/>
            </linearGradient>
            <polygon fill="url(#XMLID_89_)" points="58.146,41.538 59.024,41.007 66.049,43.436 66.021,44.44   "/>
            <linearGradient x1="-679.3213" gradientTransform="matrix(1.1905 0 0 -1.1905 875.6733 1351.9015)" y1="1115.709" x2="-677.5192" gradientUnits="userSpaceOnUse" y2="1116.29" xlink:type="simple" xlink:actuate="onLoad" id="XMLID_90_" xlink:show="other">
                <stop stop-color="#d6e4f3" offset="0"/>
                <stop stop-color="#337ce5" offset="1"/>
            </linearGradient>
            <path fill="url(#XMLID_90_)" d="M 69.278 23.511 C 69.025 24.222 66.351 23.904 66.63 23.195 C 66.914 22.491 69.52 22.794 69.278 23.511 z "/>
            <linearGradient x1="-685.2808" gradientTransform="matrix(1.1905 0 0 -1.1905 875.6733 1351.9015)" y1="1102.335" x2="-680.1924" gradientUnits="userSpaceOnUse" y2="1093.8684" xlink:type="simple" xlink:actuate="onLoad" id="XMLID_91_" xlink:show="other">
                <stop stop-color="#e6eef4" offset="0"/>
                <stop stop-color="#337ce5" offset="0.44"/>
                <stop stop-color="#003d6d" offset="0.94"/>
                <stop stop-color="#003d6d" offset="1"/>
            </linearGradient>
            <polygon fill="url(#XMLID_91_)" points="63.477,47.666 65.502,48.521 65.583,47.061 63.52,46.209   "/>
            <linearGradient x1="-684.5522" gradientTransform="matrix(1.1905 0 0 -1.1905 875.6733 1351.9015)" y1="1102.7686" x2="-679.4661" gradientUnits="userSpaceOnUse" y2="1094.3055" xlink:type="simple" xlink:actuate="onLoad" id="XMLID_92_" xlink:show="other">
                <stop stop-color="#e6eef4" offset="0"/>
                <stop stop-color="#337ce5" offset="0.44"/>
                <stop stop-color="#003d6d" offset="0.94"/>
                <stop stop-color="#003d6d" offset="1"/>
            </linearGradient>
            <polygon fill="url(#XMLID_92_)" points="65.603,46.682 65.683,45.228 63.574,44.443 63.533,45.835   "/>
            <linearGradient x1="-685.9805" gradientTransform="matrix(1.1905 0 0 -1.1905 875.6733 1351.9015)" y1="1101.9121" x2="-680.893" gradientUnits="userSpaceOnUse" y2="1093.447" xlink:type="simple" xlink:actuate="onLoad" id="XMLID_93_" xlink:show="other">
                <stop stop-color="#e6eef4" offset="0"/>
                <stop stop-color="#337ce5" offset="0.44"/>
                <stop stop-color="#003d6d" offset="0.94"/>
                <stop stop-color="#003d6d" offset="1"/>
            </linearGradient>
            <polygon fill="url(#XMLID_93_)" points="63.466,48.042 63.431,49.359 65.408,50.243 65.484,48.899   "/>
            <linearGradient x1="-687.4609" gradientTransform="matrix(1.1905 0 0 -1.1905 875.6733 1351.9015)" y1="1101.0186" x2="-682.3757" gradientUnits="userSpaceOnUse" y2="1092.5571" xlink:type="simple" xlink:actuate="onLoad" id="XMLID_94_" xlink:show="other">
                <stop stop-color="#e6eef4" offset="0"/>
                <stop stop-color="#337ce5" offset="0.44"/>
                <stop stop-color="#003d6d" offset="0.94"/>
                <stop stop-color="#003d6d" offset="1"/>
            </linearGradient>
            <polygon fill="url(#XMLID_94_)" points="60.683,45.061 58.903,44.357 58.996,45.828 60.739,46.53   "/>
            <linearGradient x1="-685.729" gradientTransform="matrix(1.1905 0 0 -1.1905 875.6733 1351.9015)" y1="1102.0635" x2="-680.6409" gradientUnits="userSpaceOnUse" y2="1093.5974" xlink:type="simple" xlink:actuate="onLoad" id="XMLID_95_" xlink:show="other">
                <stop stop-color="#e6eef4" offset="0"/>
                <stop stop-color="#337ce5" offset="0.44"/>
                <stop stop-color="#003d6d" offset="0.94"/>
                <stop stop-color="#003d6d" offset="1"/>
            </linearGradient>
            <polygon fill="url(#XMLID_95_)" points="63.138,45.696 63.153,44.313 61.108,43.564 61.134,44.893   "/>
            <linearGradient x1="-686.8584" gradientTransform="matrix(1.1905 0 0 -1.1905 875.6733 1351.9015)" y1="1101.3809" x2="-681.7747" gradientUnits="userSpaceOnUse" y2="1092.922" xlink:type="simple" xlink:actuate="onLoad" id="XMLID_96_" xlink:show="other">
                <stop stop-color="#e6eef4" offset="0"/>
                <stop stop-color="#337ce5" offset="0.44"/>
                <stop stop-color="#003d6d" offset="0.94"/>
                <stop stop-color="#003d6d" offset="1"/>
            </linearGradient>
            <polygon fill="url(#XMLID_96_)" points="60.618,43.361 58.798,42.706 58.881,43.979 60.668,44.683   "/>
            <linearGradient x1="-687.0415" gradientTransform="matrix(1.1905 0 0 -1.1905 875.6733 1351.9015)" y1="1101.2705" x2="-681.957" gradientUnits="userSpaceOnUse" y2="1092.8103" xlink:type="simple" xlink:actuate="onLoad" id="XMLID_97_" xlink:show="other">
                <stop stop-color="#e6eef4" offset="0"/>
                <stop stop-color="#337ce5" offset="0.44"/>
                <stop stop-color="#003d6d" offset="0.94"/>
                <stop stop-color="#003d6d" offset="1"/>
            </linearGradient>
            <polygon fill="url(#XMLID_97_)" points="61.201,48.412 63.099,49.238 63.109,47.919 61.178,47.114   "/>
            <linearGradient x1="-688.0615" gradientTransform="matrix(1.1905 0 0 -1.1905 875.6733 1351.9015)" y1="1100.6602" x2="-682.9749" gradientUnits="userSpaceOnUse" y2="1092.1964" xlink:type="simple" xlink:actuate="onLoad" id="XMLID_98_" xlink:show="other">
                <stop stop-color="#e6eef4" offset="0"/>
                <stop stop-color="#337ce5" offset="0.44"/>
                <stop stop-color="#003d6d" offset="0.94"/>
                <stop stop-color="#003d6d" offset="1"/>
            </linearGradient>
            <polygon fill="url(#XMLID_98_)" points="60.748,46.912 59.021,46.209 59.102,47.49 60.799,48.215   "/>
            <linearGradient x1="-686.3906" gradientTransform="matrix(1.1905 0 0 -1.1905 875.6733 1351.9015)" y1="1101.6602" x2="-681.3071" gradientUnits="userSpaceOnUse" y2="1093.2017" xlink:type="simple" xlink:actuate="onLoad" id="XMLID_99_" xlink:show="other">
                <stop stop-color="#e6eef4" offset="0"/>
                <stop stop-color="#337ce5" offset="0.44"/>
                <stop stop-color="#003d6d" offset="0.94"/>
                <stop stop-color="#003d6d" offset="1"/>
            </linearGradient>
            <polygon fill="url(#XMLID_99_)" points="61.142,45.271 61.169,46.733 63.117,47.54 63.133,46.076   "/>
            <linearGradient x1="-687.6694" gradientTransform="matrix(1.1905 0 0 -1.1905 875.6733 1351.9015)" y1="1100.8916" x2="-682.5849" gradientUnits="userSpaceOnUse" y2="1092.4314" xlink:type="simple" xlink:actuate="onLoad" id="XMLID_100_" xlink:show="other">
                <stop stop-color="#e6eef4" offset="0"/>
                <stop stop-color="#337ce5" offset="0.44"/>
                <stop stop-color="#003d6d" offset="0.94"/>
                <stop stop-color="#003d6d" offset="1"/>
            </linearGradient>
            <polygon fill="url(#XMLID_100_)" points="61.208,48.797 61.231,50.13 63.08,50.992 63.097,49.622   "/>
        </g>
        <rect width="84" fill="none" height="72"/>
    </g>
</svg>
