<?xml version="1.0" encoding="UTF-8"?>
<svg xmlns="http://www.w3.org/2000/svg" xmlns:xlink="http://www.w3.org/1999/xlink" contentScriptType="text/ecmascript" width="44" baseProfile="tiny" zoomAndPan="magnify" contentStyleType="text/css" viewBox="0 0 44 33" height="33" preserveAspectRatio="xMidYMid meet" version="1.1">
    <g>
        <g>
            <path fill="#ffffff" d="M 11.221 22.889 C 10.66 22.889 9.971 22.809 9.156 22.649 C 8.341001 22.487 7.76 22.317 7.4160004 22.137001 L 7.4160004 24.596 C 7.8030005 24.747 8.304001 24.873001 8.9140005 24.979 C 9.523001 25.083 10.132001 25.135 10.740001 25.135 C 12.979001 25.135 14.59 24.668 15.574001 23.733 C 16.558 22.796 17.053001 21.305 17.053001 19.262 C 17.053001 17.554998 16.671001 16.248 15.912002 15.341 C 15.152001 14.436 13.978002 13.981999 12.391002 13.981999 C 12.055001 13.981999 11.753002 13.999999 11.493002 14.033999 C 11.229002 14.066999 10.976002 14.122 10.730001 14.197 L 10.842002 10.502 L 16.265001 10.502 L 16.265001 8.198 L 8.122 8.198 L 7.896 16.778 C 8.28 16.644 8.8029995 16.516 9.469 16.397 C 10.136 16.276999 10.719 16.217 11.22 16.217 C 12.096001 16.217 12.765 16.485998 13.226 17.025 C 13.687 17.566 13.915999 18.392 13.915999 19.507 C 13.915999 20.614 13.686999 21.454 13.23 22.028 C 12.773 22.602 12.104 22.889 11.221 22.889 z "/>
            <g>
                <path fill="#ffffff" d="M 23.064 25.41 C 23.064 26.019 22.928999 26.476 22.66 26.782999 C 22.389 27.088999 21.99 27.241999 21.463 27.241999 C 21.219 27.241999 21.001999 27.223999 20.812 27.189 C 20.622 27.155998 20.474 27.109 20.37 27.047998 L 20.37 26.17 C 20.462 26.225 20.574001 26.268 20.708 26.305 C 20.841 26.338001 20.975 26.358 21.108 26.358 C 21.358 26.358 21.526 26.274 21.612999 26.104 C 21.699 25.934 21.742998 25.664 21.742998 25.29 L 21.742998 19.835001 L 23.063997 19.835001 L 23.063997 25.41 L 23.064 25.41 z M 23.064 19.004 L 21.741999 19.004 L 21.741999 17.813 L 23.064 17.813 L 23.064 19.004 z "/>
                <path fill="#ffffff" d="M 29.109 25.543 L 27.498 25.543 L 25.765999 22.362999 L 25.765999 25.543 L 24.442 25.543 L 24.442 17.813 L 25.765999 17.813 L 25.765999 22.35 L 27.328999 19.834 L 28.811998 19.834 L 27.208998 22.305 L 29.109 25.543 z "/>
                <path fill="#ffffff" d="M 31.088 25.543 L 29.764 25.543 L 29.764 17.813 L 31.088 17.813 L 31.088 25.543 z "/>
            </g>
        </g>
        <g>
            <rect width="44" fill="none" height="33"/>
        </g>
    </g>
</svg>
