<?xml version="1.0" encoding="UTF-8"?>
<svg xmlns="http://www.w3.org/2000/svg" xmlns:xlink="http://www.w3.org/1999/xlink" contentScriptType="text/ecmascript" width="54" baseProfile="tiny" zoomAndPan="magnify" contentStyleType="text/css" viewBox="6.998 16.231 54 54" height="54" preserveAspectRatio="xMidYMid meet" version="1.1">
    <g>
        <g>
            <g>
                <g>
                    <g>
                        <g>
                            <g>
                                <g>
                                    <polygon fill="#ffffff" points="36.195,25.231 36.195,33.227 44.195,33.227         "/>
                                </g>
                            </g>
                            <rect x="22.438" width="16.859" fill="#ffffff" y="34.178" height="1.828"/>
                            <rect x="22.438" width="16.859" fill="#ffffff" y="38.412" height="1.828"/>
                            <rect x="22.438" width="8.673" fill="#ffffff" y="42.643" height="1.829"/>
                            <rect x="22.438" width="8.673" fill="#ffffff" y="46.877" height="1.828"/>
                        </g>
                    </g>
                    <g>
                        <path fill="#ffffff" d="M 41.766 33.227 L 41.766 42.510002 L 44.196 42.510002 L 44.196 33.227 L 41.766 33.227 z M 17.446 55.229 L 31.166 55.229 L 31.166 52.85 L 19.768 52.85 L 19.768 27.564 L 36.195 27.564 L 36.195 25.230999 L 17.445 25.230999 L 17.446 55.229 L 17.446 55.229 z "/>
                    </g>
                </g>
            </g>
        </g>
        <polygon fill="#ffffff" points="40.34,48.476 40.34,44.222 42.041,44.222 50.549,52.724 42.041,61.231 40.34,61.231 40.34,56.979    33.535,55.043 33.535,50.209  "/>
    </g>
    <rect x="6.998" width="54" fill="none" y="16.231" height="54"/>
</svg>
