<?xml version="1.0" encoding="UTF-8"?>
<svg xmlns="http://www.w3.org/2000/svg" xmlns:xlink="http://www.w3.org/1999/xlink" contentScriptType="text/ecmascript" width="20" baseProfile="tiny" zoomAndPan="magnify" contentStyleType="text/css" viewBox="0 0 20 20" height="20" preserveAspectRatio="xMidYMid meet" version="1.0">
    <path fill="#ffffff" d="M 6.68 4.807 C 7.4179997 4.807 7.975 5.0360003 8.349999 5.492 C 8.726999 5.948 8.914 6.71 8.914 7.7770004 C 8.914 8.946 8.723 9.757 8.339999 10.211 C 7.9569993 10.665001 7.394999 10.892 6.6519995 10.892 C 5.909 10.892 5.3449993 10.667 4.9609995 10.218 C 4.5769997 9.769001 4.3849993 8.955 4.3849993 7.7780004 C 4.3849993 6.7380004 4.5759993 5.9830003 4.9609995 5.5130005 C 5.3459997 5.0430007 5.92 4.807 6.68 4.807 z M 6.652 10.031 C 6.9509997 10.031 7.1619997 9.891 7.289 9.612 C 7.414 9.332001 7.478 8.72 7.478 7.7760005 C 7.478 6.8740005 7.4100003 6.2970004 7.277 6.0440006 C 7.144 5.792001 6.937 5.666001 6.652 5.666001 C 6.369 5.666001 6.158 5.7870007 6.023 6.027001 C 5.8879995 6.267001 5.82 6.851 5.82 7.776 C 5.82 8.72 5.8840003 9.332 6.0090003 9.6119995 C 6.137 9.892 6.35 10.031 6.652 10.031 z M 12.229 4.876 L 13.575 4.876 L 7.773 15.125 L 6.426 15.125 L 12.229 4.876 z M 13.375 9.117 C 14.113 9.117 14.672 9.344 15.049 9.797999 C 15.4279995 10.250999 15.617 11.014999 15.617 12.087 C 15.617 13.264999 15.426 14.077 15.047 14.524 C 14.666 14.971 14.104 15.194 13.361 15.194 C 12.618 15.194 12.056 14.971001 11.673 14.524 C 11.29 14.078 11.099 13.265 11.099 12.087 C 11.099 11.037 11.29 10.28 11.673 9.815 C 12.057 9.35 12.623 9.117 13.375 9.117 z M 13.361 14.334 C 13.6640005 14.334 13.879 14.193999 14.004 13.915 C 14.131 13.636 14.193 13.026 14.193 12.087 C 14.193 11.184 14.127 10.606 13.9939995 10.351 C 13.860999 10.097 13.65 9.97 13.360999 9.97 C 13.081999 9.97 12.874999 10.091001 12.739999 10.334001 C 12.602999 10.577001 12.536999 11.161 12.536999 12.087001 C 12.536999 13.026001 12.599998 13.636001 12.725999 13.915001 C 12.852 14.194 13.064 14.334 13.361 14.334 z "/>
</svg>
