<?xml version="1.0" encoding="UTF-8"?>
<svg xmlns="http://www.w3.org/2000/svg" xmlns:xlink="http://www.w3.org/1999/xlink" contentScriptType="text/ecmascript" width="32.002" baseProfile="tiny" zoomAndPan="magnify" contentStyleType="text/css" viewBox="0 0 32.002 32" height="32" preserveAspectRatio="xMidYMid meet" version="1.1">
    <rect width="32.002" fill="none" height="32"/>
    <path d="M 5.793 27.014 L 32.002 27.014 L 32.002 14.015 L 5.789 14.015 C 2.598 14.019 0.0 16.494 0.0 19.541 L 0.0 21.488 C 0.0 24.537 2.598 27.014 5.793 27.014 z "/>
    <path fill="#037f78" d="M 5.789 16.015 C 3.6990001 16.019 1.9980001 17.620998 1.9980001 19.541 L 1.9980001 21.488 C 1.9980001 23.416 3.6990001 25.013 5.789 25.013 L 32.002 25.013 L 32.002 16.013 L 5.789 16.015 L 5.789 16.015 z " fill-opacity="0.75"/>
    <path fill="#ffffff" d="M 5.789 23.514 C 4.539 23.514 3.4980001 22.573 3.4980001 21.491 L 3.4980001 19.536999 C 3.4980001 18.456999 4.539 17.515999 5.789 17.515999 L 32.002 17.515999 L 32.002 16.015999 L 5.789 16.015999 C 3.6990001 16.019999 1.9980001 17.620998 1.9980001 19.540998 L 1.9980001 21.491 C 1.9980001 23.418 3.6990001 25.015999 5.789 25.015999 L 32.002 25.015999 L 32.002 23.513998 L 5.789 23.513998 z "/>
</svg>
