<?xml version="1.0" encoding="UTF-8"?>
<svg xmlns="http://www.w3.org/2000/svg" xmlns:xlink="http://www.w3.org/1999/xlink" contentScriptType="text/ecmascript" width="332" baseProfile="tiny" zoomAndPan="magnify" contentStyleType="text/css" viewBox="0 0 332 126" height="126" preserveAspectRatio="xMidYMid meet" version="1.0">
    <g>
        <g stroke-opacity="0.6" fill-opacity="0.6">
            <path d="M 2.998 31.11 L 2.998 96.885 C 2.998 107.246 10.759 115.848 21.05 116.897 C 21.081999 116.899 23.002998 116.999 23.002998 116.999 C 23.052998 117.001 284.223 117.001 288.75998 117.001 C 289.309 117.55 297.87497 125.999 297.87497 125.999 L 299.27896 125.981 L 300.43695 125.842 C 304.33295 125.069 307.00095 121.850006 307.00095 118.0 C 307.00095 118.0 307.00095 117.348 307.00095 116.74 C 318.27893 115.65 327.00095 106.269 327.00095 94.884995 L 327.00095 31.11 C 327.00095 25.733002 324.90695 20.682 321.10495 16.883 C 317.30594 13.089999 312.25793 11.004 306.89096 11.009999 L 23.104 10.999 C 12.018 10.999 2.998 20.021 2.998 31.11 z " fill-opacity="0.01" stroke-opacity="0.01"/>
            <path d="M 3.998 31.11 L 3.998 96.885 C 3.998 106.731 11.372 114.906006 21.151 115.903 C 21.206999 115.907 23.053 116.001 23.053 116.001 C 23.053 116.001 288.34702 116.001 289.173 116.001 C 289.72202 116.55 298.283 125.112 298.283 125.112 L 299.13898 124.991 L 300.317 124.85 C 303.69498 124.175995 306.00098 121.366 306.00098 118.0 C 306.00098 118.0 306.00098 116.768 306.00098 115.885 C 317.10696 115.293 326.00098 106.119 326.00098 94.885 L 326.00098 31.11 C 326.00098 26.001 324.011 21.2 320.39798 17.59 C 316.78897 13.986 311.99197 12.004 306.89197 12.01 L 23.104 11.999 C 12.569 11.999 3.998 20.573 3.998 31.11 z " fill-opacity="0.03" stroke-opacity="0.03"/>
            <path d="M 4.998 31.11 L 4.998 96.885 C 4.998 106.215004 11.986 113.963 21.251999 114.906006 C 21.258 114.906006 23.105 115.00001 23.105 115.00001 C 23.105 115.00001 288.76202 115.00001 289.588 115.00001 C 290.13602 115.54901 298.639 124.05101 298.639 124.05101 L 299.002 124.00001 L 300.19803 123.85501 C 303.02603 123.29101 305.002 120.88201 305.002 118.00001 C 305.002 118.00001 305.002 116.11101 305.002 114.990005 C 316.039 114.92901 325.002 105.939 325.002 94.88501 L 325.002 31.11 C 325.002 26.268002 323.11603 21.717001 319.69202 18.297 C 316.272 14.883001 311.72702 13.004001 306.894 13.01 L 23.104004 12.998 C 13.121 12.999 4.998 21.124 4.998 31.11 z " fill-opacity="0.05" stroke-opacity="0.05"/>
            <path d="M 306.896 14.011 L 23.104 13.999 C 13.657001 13.999 5.997999 21.659 5.997999 31.11 L 5.997999 96.885 C 5.997999 105.744 12.727999 113.033005 21.352999 113.912 C 21.928999 113.967 22.512999 114.0 23.103998 114.0 L 290.001 114.0 L 299.001 123.0 C 299.001 123.0 299.376 123.0 300.001 122.875 C 302.501 122.375 304.001 120.25 304.001 118.0 C 304.001 117.0 304.001 114.0 304.001 114.0 L 304.89502 114.0 C 315.43002 114.0 324.001 105.426 324.001 94.885 L 324.001 31.11 C 324.002 21.659 316.344 13.999 306.896 14.011 z " fill-opacity="0.07" stroke-opacity="0.07"/>
            <path d="M 305.896 15.001 L 24.104 15.001 C 14.657001 15.001 6.997999 21.659 6.997999 31.11 L 6.997999 95.885 C 6.997999 104.744 13.727999 112.033005 22.352999 112.912 C 22.928999 112.967 23.512999 113.0 24.103998 113.0 L 290.376 113.0 L 299.376 122.0 C 299.376 122.0 299.88 121.902 300.001 121.875 C 301.126 121.625 303.001 120.375 303.001 118.0 C 303.001 117.0 303.001 113.0 303.001 113.0 L 304.89502 113.0 C 314.87802 113.0 323.001 104.873 323.001 94.885 L 323.001 31.11 C 323.002 21.659 315.344 14.989 305.896 15.001 z " fill-opacity="0.11" stroke-opacity="0.11"/>
            <path fill="#5f9ea0" d="M 23.104 112.001 L 288.002 112.001 L 300.002 124.001 L 302.001 124.001 L 302.001 112.013 L 304.89502 112.013 C 314.342 112.013 322.001 104.355 322.001 94.902 L 322.001 31.116 C 322.001 21.667 314.342 14.000999 304.89502 14.000999 L 23.104 14.000999 C 13.656 14.000999 5.997999 21.667 5.997999 31.116 L 5.997999 94.901 C 5.998 104.354 13.656 112.013 23.104 112.001 z "/>
            <rect width="332" fill="none" height="126"/>
        </g>
    </g>
</svg>
