<?xml version="1.0" encoding="UTF-8"?>
<svg xmlns="http://www.w3.org/2000/svg" xmlns:xlink="http://www.w3.org/1999/xlink" contentScriptType="text/ecmascript" zoomAndPan="magnify" baseProfile="tiny" contentStyleType="text/css" version="1.1" width="88px" preserveAspectRatio="xMidYMid meet" viewBox="0 0 88 88" height="88px" x="0px" y="0px">
    <g>
        <rect width="88" fill="none" y="0.001" height="87.999"/>
        <g>
            <linearGradient x1="35.5254" y1="-0.2847" x2="83.1866" gradientUnits="userSpaceOnUse" y2="73.8779" xlink:type="simple" xlink:actuate="onLoad" id="SVGID_1_" xlink:show="other">
                <stop stop-color="#ffffff" offset="0"/>
                <stop stop-color="#4a4a4a" offset="1"/>
            </linearGradient>
            <path fill="url(#SVGID_1_)" d="M 44.0 1.408 C 55.743 1.408 66.391 6.184 74.103 13.897 L 75.099 12.902 C 67.131 4.935 56.131 0.0 44.0 0.0 C 31.869 0.0 20.869 4.935 12.902 12.902 L 13.898001 13.897 C 21.609 6.185 32.257 1.408 44.0 1.408 z " fill-opacity="0.13" stroke-opacity="0.13"/>
            <linearGradient x1="22.2695" y1="-7.833" x2="98.3598" gradientUnits="userSpaceOnUse" y2="68.2572" xlink:type="simple" xlink:actuate="onLoad" id="SVGID_2_" xlink:show="other">
                <stop stop-color="#ffffff" offset="0"/>
                <stop stop-color="#4a4a4a" offset="1"/>
            </linearGradient>
            <path fill="url(#SVGID_2_)" d="M 13.897 13.897 L 14.893001 14.892 C 22.35 7.436 32.646 2.816 44.0 2.816 C 55.355 2.816 65.651 7.435 73.108 14.892 L 74.103004 13.897 C 66.391 6.185 55.743 1.408 44.0 1.408 C 32.257 1.408 21.609 6.185 13.897 13.897 z " fill-opacity="0.33" stroke-opacity="0.33"/>
            <linearGradient x1="19.8057" y1="-11.0659" x2="89.6826" gradientUnits="userSpaceOnUse" y2="63.9041" xlink:type="simple" xlink:actuate="onLoad" id="SVGID_3_" xlink:show="other">
                <stop stop-color="#ffffff" offset="0"/>
                <stop stop-color="#4a4a4a" offset="1"/>
            </linearGradient>
            <path fill="url(#SVGID_3_)" d="M 44.0 7.041 C 54.207 7.041 63.447 11.1779995 70.135 17.865 L 73.108 14.892 C 65.651 7.436 55.355 2.816 44.0 2.816 C 32.646 2.816 22.35 7.435 14.893 14.892 L 17.865 17.865 C 24.554 11.178 33.794 7.041 44.0 7.041 z " fill-opacity="0.33" stroke-opacity="0.33"/>
            <linearGradient x1="16.1597" y1="-9.9751" x2="73.242" gradientUnits="userSpaceOnUse" y2="47.107" xlink:type="simple" xlink:actuate="onLoad" id="SVGID_4_" xlink:show="other">
                <stop stop-color="#ffffff" offset="0"/>
                <stop stop-color="#4a4a4a" offset="1"/>
            </linearGradient>
            <path fill="url(#SVGID_4_)" d="M 44.0 25.617 C 49.076 25.617 53.672 27.674 56.999 31.001 L 70.136 17.865 C 63.447 11.177 54.207 7.04 44.0 7.04 C 33.794 7.04 24.554 11.177 17.865 17.865 L 31.0 31.0 C 34.328 27.674 38.923 25.617 44.0 25.617 z "/>
        </g>
        <linearGradient x1="12.3931" y1="-17.0059" x2="93.1668" gradientUnits="userSpaceOnUse" y2="63.7676" xlink:type="simple" xlink:actuate="onLoad" id="SVGID_5_" xlink:show="other">
            <stop stop-color="#ffffff" offset="0"/>
            <stop stop-color="#4a4a4a" offset="1"/>
        </linearGradient>
        <path fill="url(#SVGID_5_)" d="M 56.511 30.536 L 72.448 14.6 C 65.16 7.312 55.097 2.796 44.0 2.796 C 32.902 2.796 22.839 7.311 15.549999 14.6 L 31.487 30.536 C 34.767998 27.484999 39.164 25.616999 43.999 25.616999 C 48.833 25.617 53.229 27.485 56.511 30.536 z "/>
        <linearGradient x1="23.4585" y1="-3.7124" x2="156.0422" gradientUnits="userSpaceOnUse" y2="118.4041" xlink:type="simple" xlink:actuate="onLoad" id="SVGID_6_" xlink:show="other">
            <stop stop-color="#ffffff" offset="0"/>
            <stop stop-color="#4a4a4a" offset="1"/>
        </linearGradient>
        <path fill="url(#SVGID_6_)" d="M 56.038 30.113 L 71.548 14.603001 C 64.111 7.394 54.354 3.43 44.0 3.43 C 33.645 3.43 23.888 7.394 16.45 14.604 L 31.961 30.114 C 35.187 27.315 39.394 25.617 44.0 25.617 C 48.605 25.617 52.813 27.314 56.038 30.113 z "/>
        <polygon fill="#ffffff" fill-opacity="0.5" stroke-opacity="0.5" points="37.72,16.792 50.278,16.792 44,10.513  "/>
    </g>
</svg>
