<?xml version="1.0" encoding="UTF-8"?>
<svg xmlns="http://www.w3.org/2000/svg" xmlns:xlink="http://www.w3.org/1999/xlink" contentScriptType="text/ecmascript" width="40" baseProfile="tiny" zoomAndPan="magnify" contentStyleType="text/css" viewBox="21.115 -3.406 40 50.001" height="50.001" preserveAspectRatio="xMidYMid meet" version="1.1">
    <rect x="21.115" width="40" fill="none" y="-3.406" height="50.001"/>
    <path fill="#333333" d="M 22.916 46.095 L 59.314 46.095 C 60.033 46.095 60.614998 45.382 60.614998 44.503002 L 60.572998 -1.3169975 C 60.572998 -2.1949975 59.991997 -2.9069977 59.273 -2.9069977 L 29.414 -2.9069977 C 28.698 -2.9069977 28.114 -2.1949978 28.114 -1.3169976 L 21.615 44.503002 C 21.615 45.382 22.199 46.095 22.916 46.095 L 22.916 46.095 z "/>
    <path d="M 59.314 46.093 L 23.916 46.093 C 23.819 46.093 23.637001 45.887997 23.617 45.559998 L 30.105 -0.17700195 L 30.115 -0.24700195 L 30.115 -0.31700194 C 30.115 -0.69700193 30.328 -0.90500194 30.414999 -0.90400195 L 60.274 -0.90400195 C 60.377 -0.90400195 60.572998 -0.675002 60.572998 -0.31600195 L 60.613 44.525997 C 60.607998 44.959995 60.461998 45.351997 60.226997 45.635 C 60.465996 45.347 60.614998 44.947 60.614998 44.503 L 60.572998 -1.3170013 C 60.572998 -2.1950014 59.991997 -2.9070015 59.273 -2.9070015 L 29.414 -2.9070015 C 28.698 -2.9070015 28.114 -2.1950016 28.114 -1.3170015 L 21.615 44.503 C 21.615 45.382 22.199 46.094997 22.916 46.094997 L 59.314 46.094997 C 59.668 46.094997 59.988 45.920998 60.222 45.641 C 59.988 45.921 59.668 46.094 59.314 46.093 z " fill-opacity="0.25"/>
</svg>
