<?xml version="1.0" encoding="UTF-8"?>
<svg xmlns="http://www.w3.org/2000/svg" xmlns:xlink="http://www.w3.org/1999/xlink" contentScriptType="text/ecmascript" width="44" baseProfile="tiny" zoomAndPan="magnify" contentStyleType="text/css" viewBox="0 0 44 44" height="44" preserveAspectRatio="xMidYMid meet" version="1.1">
    <path fill="#ffffff" d="M 34.15 27.539 C 34.15 27.442999 34.162003 27.344 34.15 27.246 L 34.15 8.732 L 15.985001 11.524 L 15.985001 27.143002 C 14.587001 26.880001 12.803 27.264002 11.2960005 28.247002 C 8.886001 29.825 8.112 32.356003 9.216001 34.04 C 10.320001 35.724 13.419001 35.63 15.829 34.05 C 17.409 33.015 18.284 31.602999 18.399 30.272999 L 18.411 30.272999 C 18.411 30.272999 18.411 30.162998 18.411 29.963999 C 18.411 29.863998 18.418999 29.765 18.411 29.666998 L 18.411 16.853 L 31.729 14.806001 L 31.729 24.721 C 30.331 24.457 28.541 24.838001 27.038 25.825 C 24.626 27.405 23.854 29.94 24.956 31.621 C 26.057999 33.306 29.159 33.209 31.569 31.633 C 33.153 30.598999 34.026 29.182999 34.141 27.855 L 34.149 27.855 L 34.149 27.539 z "/>
</svg>
