<?xml version="1.0" encoding="UTF-8"?>
<svg xmlns="http://www.w3.org/2000/svg" xmlns:xlink="http://www.w3.org/1999/xlink" contentScriptType="text/ecmascript" width="100" baseProfile="tiny" zoomAndPan="magnify" contentStyleType="text/css" viewBox="-3 -3 100 100" height="100" preserveAspectRatio="xMidYMid meet" version="1.1">
    <rect x="-3" width="100" fill="none" y="-3" height="100"/>
    <g>
        <path d="M 64.395 35.029 L 61.642998 31.521 L 58.739 29.299 L 46.946 20.275 L 35.44 29.445 L 32.156 32.062 L 29.713999 35.157 L 20.210999 47.202003 L 29.365997 58.718002 L 31.943996 61.960003 L 34.995995 64.373 L 46.854996 73.754 L 58.9 64.287 L 61.902 61.926003 L 64.557 58.620003 L 73.839 47.065002 L 64.395 35.029 z M 63.953 57.914 C 62.142 59.947002 60.221 61.872 58.187 63.68 C 54.763 66.725 51.033 69.454 46.999 71.831 C 42.967 69.454 39.237 66.725 35.812 63.68 C 33.778 61.871002 31.855 59.948 30.046001 57.914 C 27.001001 54.49 24.272001 50.760002 21.895 46.728 C 24.273 42.695 27.0 38.964 30.046001 35.54 C 31.855001 33.506 33.778 31.583 35.812 29.775002 C 39.238 26.729 42.968 24.0 47.0 21.624 C 51.032 24.0 54.764 26.729 58.188 29.775002 C 60.221 31.584002 62.145 33.506 63.954 35.54 C 66.999 38.965 69.728 42.694 72.104996 46.728 C 69.729 50.759 66.999 54.49 63.953 57.914 z "/>
        <path fill="#404040" d="M 63.953 35.54 C 62.142 33.506 60.221 31.583 58.187 29.775002 C 54.764 26.729 51.033 24.0 47.0 21.624 C 42.968 24.001001 39.238 26.73 35.813 29.775002 C 33.779 31.584002 31.855 33.506 30.047 35.54 C 27.001001 38.965 24.273 42.694 21.895 46.728 C 24.272001 50.758 27.0 54.49 30.046001 57.914 C 31.855001 59.947002 33.777 61.872 35.812 63.68 C 39.236 66.725 42.966 69.454 46.999 71.831 C 51.031002 69.454 54.762 66.725 58.187 63.68 C 60.22 61.871002 62.143 59.948 63.953 57.914 C 66.997 54.49 69.727 50.760002 72.104 46.728 C 69.729 42.694 66.999 38.965 63.953 35.54 z M 63.524 57.457 C 61.71 59.506 59.779 61.437 57.73 63.251 C 54.442 66.161 50.863 68.77 47.0 71.047 C 43.137 68.77 39.558 66.161995 36.271 63.250996 C 34.223 61.437996 32.29 59.505997 30.478 57.456997 C 27.567001 54.17 24.960001 50.589996 22.683 46.727997 C 24.961 42.864998 27.567001 39.284996 30.478 35.997997 C 32.291 33.949997 34.225002 32.017 36.272 30.204998 C 39.559 27.293999 43.138 24.685997 47.001 22.409998 C 50.864 24.686998 54.443 27.294998 57.73 30.204998 C 59.779 32.017998 61.71 33.952 63.525 35.998997 C 66.435005 39.285995 69.045 42.864998 71.32 46.727997 C 69.042 50.59 66.435 54.17 63.524 57.457 z "/>
        <path d="M 63.524 35.998 C 61.71 33.95 59.779 32.017002 57.73 30.204 C 54.442 27.293001 50.863 24.686 47.0 22.409 C 43.137 24.685001 39.558 27.293 36.271 30.204 C 34.223 32.017002 32.29 33.95 30.477 35.997 C 27.567 39.284 24.959 42.863003 22.682 46.726 C 24.959 50.588 27.565998 54.168003 30.477 57.455 C 32.29 59.504 34.223 61.436 36.27 63.25 C 39.557 66.16 43.137 68.769 46.999 71.045 C 50.862 68.769 54.441 66.160995 57.728 63.25 C 59.777 61.437 61.708 59.504 63.523003 57.455 C 66.43301 54.169003 69.042 50.589 71.318 46.726 C 69.042 42.865 66.435 39.286 63.524 35.998 z "/>
    </g>
    <linearGradient x1="-695.1445" gradientTransform="matrix(1.1111 0 0 -1.1111 799.2743 1254.4371)" y1="1095.7197" x2="-680.6439" gradientUnits="userSpaceOnUse" y2="1088.7194" xlink:type="simple" xlink:actuate="onLoad" id="XMLID_2_" xlink:show="other">
        <stop stop-color="#ffffff" offset="0"/>
        <stop stop-color="#d9d9d9" offset="0.0644"/>
        <stop stop-color="#a7a7a7" offset="0.1609"/>
        <stop stop-color="#7a7a7a" offset="0.2621"/>
        <stop stop-color="#545454" offset="0.3662"/>
        <stop stop-color="#363636" offset="0.474"/>
        <stop stop-color="#1e1e1e" offset="0.5864"/>
        <stop stop-color="#0d0d0d" offset="0.7055"/>
        <stop stop-color="#030303" offset="0.8362"/>
        <stop stop-color="#000000" offset="1"/>
    </linearGradient>
    <path fill="url(#XMLID_2_)" d="M 46.795 70.209 C 37.792 65.518 29.923998 56.591 23.493998 46.757 C 29.627998 36.352 36.616997 29.212 47.021996 23.078 C 21.473 53.754 43.865 67.582 46.795 70.209 z " fill-opacity="0.5"/>
    <path fill="#808080" d="M 45.466 51.073 C 45.466 52.913002 43.974 54.406002 42.133 54.406002 L 40.614998 54.406002 C 38.774 54.406002 37.281998 52.913002 37.281998 51.073 L 37.281998 40.678 C 37.281998 38.837 38.774 37.345 40.614998 37.345 L 42.133 37.345 C 43.974 37.345 45.466 38.837 45.466 40.678 L 45.466 51.073 z "/>
    <path fill="#808080" d="M 57.428 51.073 C 57.428 52.913002 55.935 54.406002 54.095 54.406002 L 52.576 54.406002 C 50.735 54.406002 49.242 52.913002 49.242 51.073 L 49.242 40.678 C 49.242 38.837 50.735 37.345 52.576 37.345 L 54.095 37.345 C 55.935 37.345 57.428 38.837 57.428 40.678 L 57.428 51.073 z "/>
</svg>
