<?xml version="1.0" encoding="UTF-8"?>
<svg xmlns="http://www.w3.org/2000/svg" xmlns:xlink="http://www.w3.org/1999/xlink" contentScriptType="text/ecmascript" zoomAndPan="magnify" baseProfile="tiny" contentStyleType="text/css" version="1.1" width="44px" preserveAspectRatio="xMidYMid meet" viewBox="0 0 44 44" height="44px" x="0px" y="0px">
    <rect width="44" fill="none" height="44"/>
    <linearGradient x1="20.3315" y1="5.979" x2="20.3315" gradientUnits="userSpaceOnUse" y2="37.6978" xlink:type="simple" xlink:actuate="onLoad" id="SVGID_1_" xlink:show="other">
        <stop stop-color="#ffffff" offset="0"/>
        <stop stop-color="#ffffff" offset="1"/>
    </linearGradient>
    <path fill="url(#SVGID_1_)" d="M 16.184 21.841 C 14.442 23.144 12.97 25.249 14.166 27.463 C 14.691 28.444 15.52 28.856998 16.414 29.056 C 16.931 27.007 18.096 24.437 20.592 21.768 C 20.405 21.675 20.199 21.584 19.957998 21.502 C 19.267 21.268 16.862 21.33 16.184 21.841 z M 20.61 5.979 C 12.619 5.979 6.111001 12.488 6.111001 20.479 C 6.111001 26.968 10.402 32.479 16.294 34.322 C 16.122 33.611 16.026001 32.831997 16.026001 32.021 C 16.026001 31.968 16.029001 31.907 16.029001 31.85 C 11.530001 30.031 8.344002 25.622 8.344002 20.479 C 8.344002 18.611 8.776002 16.848 9.522001 15.264 C 11.885001 14.686 16.984 12.533 18.564 11.110001 C 19.877 9.928 19.376 8.857 18.916 8.344001 C 19.471 8.268001 20.031 8.213001 20.61 8.213001 C 21.487 8.213001 22.339 8.311001 23.163 8.487001 C 23.309 9.541001 24.721 11.051002 24.721 11.794002 C 24.721 12.645001 23.458 11.728002 21.996 12.301002 C 20.267 12.985002 18.736 14.175001 17.714 16.049002 C 17.519 16.407001 17.693 17.784002 17.542 18.435 C 17.41 19.018002 16.691 18.947 16.52 19.119 C 16.184 19.458002 15.841001 20.14 16.013 20.48 C 16.121 20.698002 16.346 21.160002 17.207 21.160002 C 18.058 21.160002 18.394 19.458002 19.588 19.458002 C 19.886002 19.458002 20.804 20.233002 21.616 20.743002 C 25.826 16.793 29.818 16.177002 31.871002 16.177002 C 32.828003 16.177002 33.745003 16.306002 34.552 16.536001 C 32.826 10.455 27.235 5.979 20.61 5.979 z "/>
    <linearGradient x1="27.7139" y1="5.9785" x2="27.7139" gradientUnits="userSpaceOnUse" y2="37.6976" xlink:type="simple" xlink:actuate="onLoad" id="SVGID_2_" xlink:show="other">
        <stop stop-color="#ffffff" offset="0"/>
        <stop stop-color="#ffffff" offset="1"/>
    </linearGradient>
    <path fill="url(#SVGID_2_)" d="M 37.094 20.73 C 36.49 19.821 35.77 19.272 35.281 18.897 C 33.887 17.835 28.253002 16.723 22.426004 22.549 C 18.890003 26.09 17.897003 29.546 17.897003 32.023 C 17.897003 33.62 18.313004 34.814 18.727003 35.358 C 19.157003 35.919 19.694004 36.619 20.611004 37.224 C 20.880005 37.406 21.346004 37.568 21.854004 37.66 L 21.969004 37.663 C 22.885004 37.605 23.892004 36.900997 25.241005 35.379997 C 25.687002 34.879 27.134005 33.144997 27.134005 31.930998 C 27.134005 31.930998 27.130005 31.784998 27.130005 31.753998 C 27.115004 31.720997 27.104004 31.691998 27.104004 31.691998 C 27.094004 31.641998 26.939005 31.199997 26.239004 30.649998 C 25.810003 30.305998 25.168003 30.065998 24.333004 29.928995 L 23.937004 29.865995 L 23.941004 29.463997 C 23.958004 27.458996 27.334003 24.079998 29.334003 24.068996 L 29.732004 24.068996 L 29.799004 24.465996 C 29.931004 25.295996 30.171003 25.938995 30.519005 26.373997 C 31.027002 27.017996 31.457005 27.201996 31.669004 27.267996 C 32.483 27.346996 33.817 26.635996 35.244003 25.373997 C 36.764004 24.029997 37.471004 23.015997 37.528004 22.090996 C 37.528004 22.090996 37.532005 22.059996 37.532005 22.031996 C 37.528004 22.003996 37.52401 21.976995 37.52401 21.976995 C 37.471 21.683 37.33 21.087 37.094 20.73 z "/>
</svg>
