<?xml version="1.0" encoding="UTF-8"?>
<svg xmlns="http://www.w3.org/2000/svg" xmlns:xlink="http://www.w3.org/1999/xlink" contentScriptType="text/ecmascript" width="44" baseProfile="tiny" zoomAndPan="magnify" contentStyleType="text/css" viewBox="0.112 2.196 44 44" height="44" preserveAspectRatio="xMidYMid meet" version="1.1">
    <rect x="0.112" width="44" fill="none" y="2.196" height="44"/>
    <g>
        <path fill="#099f00" d="M 1.75 21.144 L 13.813 38.845 C 13.813 38.845 20.548 17.536001 42.484 9.549002 C 42.484 9.549002 20.393002 14.879002 13.186001 27.565002 C 13.188 27.564 6.61 21.77 1.75 21.144 z "/>
        <path d="M 42.354 9.024 C 41.458 9.24 20.639 14.434 13.101999 26.782 C 11.540999 25.470999 6.116999 21.159 1.8189993 20.605 C 1.6079993 20.574999 1.3999993 20.678 1.2899992 20.859 C 1.1759993 21.039999 1.1829993 21.269999 1.3039993 21.446 L 13.364999 39.149 C 13.481998 39.318996 13.685999 39.406998 13.890999 39.378998 C 14.096999 39.349 14.266999 39.205997 14.329999 39.006996 C 14.395999 38.793995 21.253998 17.852997 42.668 10.0549965 C 42.934 9.958997 43.079 9.665997 42.996998 9.390997 C 42.916 9.117 42.636 8.957 42.354 9.024 z M 13.276 28.099 C 13.437 28.074001 13.576 27.976002 13.656 27.832 C 17.916 20.334 27.58 15.440001 34.582 12.723001 C 20.983002 20.835001 15.109001 33.942 13.667 37.665 C 12.666 36.195 4.298 23.92 2.99 21.997 C 7.4449997 23.293 12.773 27.921 12.830999 27.97 C 12.952 28.08 13.116 28.128 13.276 28.099 z "/>
    </g>
</svg>
