<?xml version="1.0" encoding="UTF-8"?>
<svg xmlns="http://www.w3.org/2000/svg" xmlns:xlink="http://www.w3.org/1999/xlink" contentScriptType="text/ecmascript" width="38" baseProfile="tiny" zoomAndPan="magnify" contentStyleType="text/css" viewBox="0 0 38 32" height="32" preserveAspectRatio="xMidYMid meet" version="1.1">
    <g>
        <g>
            <rect x="10.711" width="3.301" fill="#ffffff" y="13.817" height="1.994"/>
            <rect x="10.711" width="3.301" fill="#ffffff" y="17.807" height="1.991"/>
            <rect x="10.711" width="3.301" fill="#ffffff" y="21.792" height="1.994"/>
            <path fill="#ffffff" d="M 25.762 15.369 C 25.453 14.905001 25.085999 14.622001 24.835999 14.432 C 24.123 13.8880005 21.244 13.319 18.265999 16.297 C 16.460999 18.108002 15.951999 19.871 15.951999 21.137001 C 15.951999 21.955002 16.164999 22.565 16.376 22.841002 C 16.597 23.127 16.869999 23.487001 17.338999 23.796001 C 17.477999 23.889002 17.716 23.971 17.973999 24.016 L 18.032999 24.022001 C 18.501999 23.993002 19.016998 23.629002 19.706999 22.854002 C 19.933998 22.598001 20.674 21.711002 20.674 21.091002 C 20.674 21.091002 20.671999 21.018002 20.67 20.999002 C 20.664 20.982002 20.658 20.967003 20.658 20.967003 C 20.652 20.946003 20.570002 20.719004 20.217001 20.436003 C 19.996 20.262003 19.668001 20.139002 19.240002 20.069002 L 19.041002 20.037003 L 19.041002 19.834003 C 19.049002 18.810003 20.775002 17.083004 21.795002 17.077003 L 22.0 17.077003 L 22.033 17.278004 C 22.101002 17.705004 22.224 18.030005 22.400002 18.255003 C 22.660002 18.583002 22.879002 18.681004 22.990002 18.712004 C 23.404001 18.751003 24.088001 18.390003 24.814001 17.745003 C 25.591002 17.057003 25.953001 16.539003 25.984001 16.064003 C 25.984001 16.064003 25.984001 16.049004 25.986002 16.035004 C 25.984001 16.020004 25.982002 16.009005 25.982002 16.009005 C 25.955 15.856 25.883 15.552 25.762 15.369 z "/>
            <g>
                <path fill="#ffffff" d="M 20.816 8.901 L 18.534 11.266 C 18.325 9.266 17.623001 6.6289997 15.469 4.928 C 13.767 3.587 11.528999 2.911 8.353 3.354 L 8.353 5.2320004 C 11.129999 4.7990003 12.978 5.3570004 14.308 6.4020004 C 15.598 7.4190006 16.423 9.207001 16.666 11.409 L 14.189 9.01 L 12.7630005 10.485001 L 17.605 15.1710005 L 22.292 10.331 L 20.816 8.901 z "/>
            </g>
            <g>
                <path fill="#ffffff" d="M 22.586 8.845 L 24.586 10.838 C 26.356 10.838 27.034 10.838 27.654001 10.838 C 27.654001 12.473001 27.654001 25.151001 27.654001 26.787 C 26.074001 26.787 16.023003 26.787 13.357001 26.787 L 13.357001 25.471 L 11.363001 25.471 L 11.363001 28.772001 L 29.649 28.782001 L 29.649 8.845 L 22.586 8.845 z "/>
            </g>
        </g>
        <rect width="38" fill="none" height="32"/>
    </g>
</svg>
