<?xml version="1.0" encoding="UTF-8"?>
<svg xmlns="http://www.w3.org/2000/svg" xmlns:xlink="http://www.w3.org/1999/xlink" contentScriptType="text/ecmascript" width="12" baseProfile="tiny" zoomAndPan="magnify" contentStyleType="text/css" viewBox="0 0 12 200" height="200" preserveAspectRatio="xMidYMid meet" version="1.1">
    <g>
        <g>
            <g>
                <path d="M 0.0 49.461 L 0.0 164.587 C 0.0 167.496 2.804 169.875 6.0 169.875 C 9.195 169.875 12.0 167.496 12.0 164.587 L 12.0 49.461 C 12.0 48.0 11.318 46.609997 10.085 45.549 C 8.939 44.564 7.451 44.0 6.0 44.0 C 2.804 44.0 0.0 46.552 0.0 49.461 z " fill-opacity="0.5"/>
                <path fill="#00381d" d="M 6.0 168.875 C 3.516 168.875 1.0 167.049 1.0 164.587 L 1.0 49.461 C 1.0 46.998 3.516 45.0 6.0 45.0 L 6.0 45.0 C 8.486 45.0 11.0 46.998 11.0 49.461 L 11.0 164.587 C 11.0 167.049 8.486 168.875 6.0 168.875 L 6.0 168.875 z "/>
            </g>
            <rect width="12" fill="none" height="200"/>
        </g>
    </g>
</svg>
