<?xml version="1.0" encoding="UTF-8"?>
<svg xmlns="http://www.w3.org/2000/svg" xmlns:xlink="http://www.w3.org/1999/xlink" contentScriptType="text/ecmascript" width="44" baseProfile="tiny" zoomAndPan="magnify" contentStyleType="text/css" viewBox="0 0 44 44" height="44" preserveAspectRatio="xMidYMid meet" version="1.1">
    <path fill="#ffffff" d="M 26.5 23.127 C 28.544 19.995 29.57 17.378 29.57 15.278001 C 29.57 12.986001 28.771 11.193001 27.171 9.910001 C 25.57 8.618001 23.359 7.969001 20.526 7.969001 C 18.828 7.969001 17.273998 8.406001 15.872 9.281001 C 14.467 10.150002 13.437 11.242001 12.782 12.557001 L 16.078999 15.151001 C 17.244999 13.141001 18.790998 12.136001 20.706999 12.136001 C 23.216 12.136001 24.468998 13.181001 24.468998 15.266001 C 24.468998 17.028 23.597998 19.197 21.851997 21.761002 L 13.12 34.652 L 13.12 36.087 L 31.217 36.087 L 31.217 31.756002 L 20.848 31.756002 L 26.5 23.127 z "/>
</svg>
