<?xml version="1.0" encoding="UTF-8"?>
<svg xmlns="http://www.w3.org/2000/svg" xmlns:xlink="http://www.w3.org/1999/xlink" contentScriptType="text/ecmascript" width="83.766" baseProfile="tiny" zoomAndPan="magnify" contentStyleType="text/css" viewBox="-0.112 -0.185 83.766 57.837" height="57.837" preserveAspectRatio="xMidYMid meet" version="1.1">
    <g>
        <g>
            <path fill="#ffffff" d="M 21.121 28.118 C 21.121 41.142998 31.718 51.740997 44.745003 51.740997 C 57.770004 51.740997 68.367004 41.141 68.367004 28.117998 C 68.367004 15.091998 57.770004 4.492998 44.745003 4.492998 C 31.719 4.493 21.121 15.091 21.121 28.118 z "/>
            <g>
                <g>
                    <g>
                        <g>
                            <g>
                                <radialGradient gradientTransform="matrix(1.1905 0 0 -1.1905 875.6733 1344.7948)" gradientUnits="userSpaceOnUse" xlink:type="simple" r="36.1246" xlink:actuate="onLoad" cx="-694.1606" id="XMLID_9_" cy="1118.5771" xlink:show="other">
                                    <stop stop-color="#ffffff" offset="0"/>
                                    <stop stop-color="#a2c2dd" offset="0.5337"/>
                                    <stop stop-color="#6c83bb" offset="0.8652"/>
                                    <stop stop-color="#003d6d" offset="1"/>
                                </radialGradient>
                                <circle fill="url(#XMLID_9_)" r="23.243" cx="44.706" cy="28.142"/>
                                <g>
                                    <radialGradient gradientTransform="matrix(1.1905 0 0 -1.1905 875.6733 1344.7948)" gradientUnits="userSpaceOnUse" xlink:type="simple" r="25.5116" xlink:actuate="onLoad" cx="-696.6914" id="XMLID_10_" cy="1113.8447" xlink:show="other">
                                        <stop stop-color="#a2c2dd" offset="0"/>
                                        <stop stop-color="#a2c2dd" offset="0.1"/>
                                        <stop stop-color="#6c83bb" offset="0.7135"/>
                                        <stop stop-color="#003d6d" offset="0.9888"/>
                                        <stop stop-color="#003d6d" offset="1"/>
                                    </radialGradient>
                                    <path fill="url(#XMLID_10_)" d="M 35.334 8.129 C 35.431 8.325 35.748 8.373 36.418 8.160999 C 36.912 8.117 38.202 6.997999 38.876 7.2209992 C 39.552998 7.446999 40.107 6.9939995 40.732998 6.590999 C 42.039997 6.705999 43.432 5.556999 43.698997 5.556999 C 43.968998 5.556999 44.982998 5.742999 45.206997 5.3849993 C 45.206997 5.3849993 47.657997 5.9619994 49.895996 5.4809995 C 48.225998 5.1019993 46.487995 4.8979993 44.705997 4.8979993 C 42.406 4.8979993 40.185997 5.234999 38.087997 5.8549995 C 37.502 6.42 36.873 7.187 35.334 8.129 z "/>
                                    <radialGradient gradientTransform="matrix(1.1905 0 0 -1.1905 875.6733 1344.7948)" gradientUnits="userSpaceOnUse" xlink:type="simple" r="25.497" xlink:actuate="onLoad" cx="-696.6904" id="XMLID_11_" cy="1113.8516" xlink:show="other">
                                        <stop stop-color="#a2c2dd" offset="0"/>
                                        <stop stop-color="#a2c2dd" offset="0.1"/>
                                        <stop stop-color="#6c83bb" offset="0.7135"/>
                                        <stop stop-color="#003d6d" offset="0.9888"/>
                                        <stop stop-color="#003d6d" offset="1"/>
                                    </radialGradient>
                                    <path fill="url(#XMLID_11_)" d="M 63.339 35.533 L 62.581 36.734 C 62.581 36.734 61.444 37.093002 61.4 37.453003 C 61.379 37.605003 60.524002 39.506004 60.524002 39.506004 C 60.524002 39.506004 60.183002 40.567005 61.149002 40.250004 C 63.151 39.596 64.461 35.309 63.339 35.533 z "/>
                                    <radialGradient gradientTransform="matrix(1.1905 0 0 -1.1905 875.6733 1344.7948)" gradientUnits="userSpaceOnUse" xlink:type="simple" r="25.5003" xlink:actuate="onLoad" cx="-696.6914" id="XMLID_12_" cy="1113.8525" xlink:show="other">
                                        <stop stop-color="#a2c2dd" offset="0"/>
                                        <stop stop-color="#a2c2dd" offset="0.1"/>
                                        <stop stop-color="#6c83bb" offset="0.7135"/>
                                        <stop stop-color="#003d6d" offset="0.9888"/>
                                        <stop stop-color="#003d6d" offset="1"/>
                                    </radialGradient>
                                    <path fill="url(#XMLID_12_)" d="M 27.148 37.898 C 27.476 37.898 28.322 38.002 28.423 37.692997 C 28.43 37.558 28.548 34.379997 28.548 34.379997 L 29.815 32.696 L 29.815 31.354 L 26.52 29.223 L 25.092001 27.673 C 25.092001 27.679 24.537 26.001 24.019001 25.529 C 23.584002 25.133 23.617 24.261 23.154001 23.622 C 22.736002 23.041 22.400002 22.716 22.130001 22.586 C 20.007002 31.19 23.300001 38.501 26.385002 42.446 C 26.826002 41.813 27.176003 41.11 27.446003 40.485 C 27.726 39.848 26.045 38.941 27.148 37.898 z "/>
                                    <radialGradient gradientTransform="matrix(1.1905 0 0 -1.1905 875.6733 1344.7948)" gradientUnits="userSpaceOnUse" xlink:type="simple" r="25.4966" xlink:actuate="onLoad" cx="-696.6934" id="XMLID_13_" cy="1113.8506" xlink:show="other">
                                        <stop stop-color="#a2c2dd" offset="0"/>
                                        <stop stop-color="#a2c2dd" offset="0.1"/>
                                        <stop stop-color="#6c83bb" offset="0.7135"/>
                                        <stop stop-color="#003d6d" offset="0.9888"/>
                                        <stop stop-color="#003d6d" offset="1"/>
                                    </radialGradient>
                                    <path fill="url(#XMLID_13_)" d="M 29.682 11.255 C 29.682 10.838 30.368 10.629 30.368 10.629 L 30.458 10.958 L 31.083 11.226 C 31.083 11.226 31.829 10.422 31.978 10.212999 C 32.126 10.004 32.395 9.197999 32.395 9.197999 L 33.696 7.665999 C 30.776 9.239999 28.230999 11.421999 26.227999 14.039999 C 27.03 13.407 29.682 11.673 29.682 11.255 z "/>
                                    <radialGradient gradientTransform="matrix(1.1905 0 0 -1.1905 875.6733 1344.7948)" gradientUnits="userSpaceOnUse" xlink:type="simple" r="4.3147" xlink:actuate="onLoad" cx="-699.8989" id="XMLID_14_" cy="1121.7324" xlink:show="other">
                                        <stop stop-color="#a2c2dd" offset="0"/>
                                        <stop stop-color="#a2c2dd" offset="0.1"/>
                                        <stop stop-color="#6c83bb" offset="0.7135"/>
                                        <stop stop-color="#003d6d" offset="0.9888"/>
                                        <stop stop-color="#003d6d" offset="1"/>
                                    </radialGradient>
                                    <path fill="url(#XMLID_14_)" d="M 41.978 7.577 C 42.272 7.5220003 42.942 7.208 42.942 7.208 C 42.942 7.208 42.607002 7.065 42.229 7.124 C 41.853 7.1800003 41.307 6.895 41.014 7.0360003 C 41.263 7.35 41.684 7.634 41.978 7.577 z "/>
                                    <radialGradient gradientTransform="matrix(1.1905 0 0 -1.1905 875.6733 1344.7948)" gradientUnits="userSpaceOnUse" xlink:type="simple" r="23.2507" xlink:actuate="onLoad" cx="-693.8169" id="XMLID_15_" cy="1116.8926" xlink:show="other">
                                        <stop stop-color="#e6eef4" offset="0"/>
                                        <stop stop-color="#4a9900" offset="0.4438"/>
                                        <stop stop-color="#0e4e58" offset="0.9382"/>
                                        <stop stop-color="#0e4e58" offset="1"/>
                                    </radialGradient>
                                    <path fill="url(#XMLID_15_)" d="M 55.408 7.507 C 54.693 7.706 54.107 7.86 53.97 7.86 C 53.565002 7.86 53.674 7.5160003 53.312 7.473 C 52.954 7.427 49.954 6.653 49.551 7.055 C 49.146 7.46 47.566998 7.8729997 47.204998 7.9189997 C 46.848 7.9639997 47.323997 9.052 48.274998 9.7369995 C 48.145996 9.872 46.010998 11.052 46.010998 10.2439995 C 46.010998 9.433999 45.593998 8.842999 44.939 8.605 C 44.343 8.752 43.658 9.377 44.611 10.2439995 C 45.205 10.78 44.616 10.851999 44.574 11.007999 C 44.397003 11.66 46.003002 12.289999 45.237 12.768999 C 44.515 12.831999 43.875 12.701999 43.756 12.634999 C 42.625 12.000999 42.369 14.511999 42.369 14.511999 L 43.6 15.120999 L 41.541 17.126999 C 41.541 17.126999 38.517002 19.225998 38.471 19.494999 C 38.426003 19.765999 37.128002 23.247 37.578 24.279 C 38.027 25.313 40.354 28.102 41.432 28.188 C 42.837997 28.303 46.905 27.492 46.905 27.492 C 46.996998 27.717001 47.411 28.618 49.409 28.989 C 49.48 29.004 48.547 30.79 49.096 31.560001 C 50.289 33.23 50.886 34.947002 50.23 35.724003 C 48.666 38.072002 49.864998 38.249004 50.245 39.480003 C 50.383 39.839005 49.453 43.048004 52.541 43.919003 C 53.651 44.017002 54.229 43.841003 55.171 42.626003 C 55.444 42.403004 57.031002 40.780003 58.077 40.435005 C 58.421 40.414005 57.748 39.490005 58.433 38.513004 C 59.170998 38.224003 61.161 36.882004 61.161 36.882004 C 61.251 34.913002 60.19 32.487003 62.166 31.093004 C 63.438 29.798004 63.621002 29.952003 64.43 27.976004 C 64.656 27.393003 65.426 25.305004 64.075 25.801004 C 63.180996 26.129004 62.956997 26.114004 62.672997 26.023005 C 62.591995 25.294004 62.436996 24.996004 61.632996 24.281004 C 61.213997 23.298004 60.200996 21.599005 60.200996 21.599005 L 58.768997 19.424006 L 58.948997 18.977005 L 62.045998 23.195005 C 62.328 24.013006 62.524998 24.393005 62.747997 25.354006 C 64.518 24.927006 66.045 22.621006 65.329994 20.744005 C 65.298 20.708006 64.854996 20.798006 64.20799 20.753006 C 63.20299 20.021006 62.603992 18.476006 62.603992 18.476006 L 64.88099 20.395006 L 65.99499 20.483006 L 66.70199 21.885006 C 66.89999 22.016006 67.03899 22.102005 67.03899 22.102005 C 67.03899 22.102005 67.080986 22.109005 67.15698 22.111006 C 65.451 15.756 61.126 10.479 55.408 7.507 z M 50.446 8.43 C 50.261 7.953 51.0 7.772 51.0 7.772 C 51.0 7.772 51.734 8.841 51.617 9.544 C 51.502 10.2439995 50.723 9.815 50.487 9.606999 C 50.259 9.4 50.635 8.91 50.446 8.43 z M 57.136 17.381 C 56.371002 17.381 55.313004 17.378 54.659 16.931 C 54.009 16.483 53.775 17.124 53.343002 17.574999 C 53.063004 17.866999 50.135002 16.419998 50.135002 16.419998 L 49.701004 15.159998 L 47.031006 14.980998 L 45.329006 15.487998 L 43.671005 15.226998 L 45.510006 14.571999 C 45.510006 14.571999 46.832005 13.329999 47.309006 12.924998 C 47.710007 12.582998 49.322006 12.791998 49.322006 12.791998 L 51.161007 14.265998 C 51.161007 14.265998 51.034008 14.938998 50.86701 15.160997 C 51.535007 15.116998 52.03901 14.252997 52.03901 14.252997 C 50.548008 12.942997 50.55801 12.623998 50.55801 12.623998 L 52.47601 13.706998 L 52.61501 14.265998 C 52.61501 14.265998 53.382008 15.582998 54.11701 15.636998 C 54.42901 15.659998 54.17201 14.400998 54.17201 14.400998 L 54.563007 14.344998 C 55.334007 16.128998 58.055008 15.950998 58.55301 16.368998 C 58.578 18.217 57.455 17.472 57.136 17.381 z M 57.647 14.196 C 56.961 13.928 56.255 14.061 56.255 14.061 C 56.103 14.364 55.0 14.051 55.221 13.379 C 55.443 12.709 56.165 13.238999 56.493 12.874 C 56.826 12.507 57.296 12.264999 57.513 12.61 C 57.262 12.94 57.734 13.2 58.06 13.375 C 58.983 13.873 59.587 14.585 57.647 14.196 z M 61.437 15.837 C 61.091 15.528 61.315 15.166 60.793 14.679 C 60.044 13.979 59.635 13.6779995 60.065 12.914 C 60.795998 12.566999 60.362 13.381 60.638 13.7699995 C 60.783 13.976999 61.444 14.634999 62.068 15.478 C 62.59 16.179 61.78 16.145 61.437 15.837 z "/>
                                </g>
                            </g>
                        </g>
                    </g>
                    <g>
                        <path fill="#ffffff" d="M 35.262 49.342 C 33.924 44.321 28.042002 18.182999 46.278 4.938999 C 46.278 4.938999 45.586 4.840999 45.04 4.888999 C 34.9 12.720999 32.592003 24.488998 32.459 33.080997 C 32.35 40.169 33.674 46.295998 34.361 48.976997 C 34.522 49.053 35.02 49.232 35.262 49.342 z "/>
                        <path fill="#ffffff" d="M 55.885 48.523 C 55.58 48.43 25.457 39.225 22.875 20.2 C 22.781 20.395 22.427 21.266 22.358 21.768002 C 23.938 29.229002 29.782 36.160004 39.399002 41.915 C 47.341003 46.671 54.982002 48.95 55.06 48.972 L 55.885 48.523 z "/>
                        <path fill="#ffffff" d="M 67.749 24.925 C 65.657 23.880999 60.065002 21.312 52.905 19.751999 C 44.749 17.974998 32.878998 17.188 21.991999 23.230999 C 21.916998 23.443998 21.88 23.842 21.805998 24.230999 C 41.240997 12.969999 64.514 24.134998 67.853 25.852999 C 67.854 25.652 67.794 25.141 67.749 24.925 z "/>
                        <path fill="#ffffff" d="M 23.444 37.486 C 24.853 35.343 37.969 16.563 64.550995 16.014 C 64.452995 15.815 64.258995 15.452 64.065994 15.25 C 49.463993 15.668 39.048996 21.538 32.848995 26.427 C 27.432995 30.699 24.213995 34.992 23.098995 36.607002 C 23.167 36.813 23.326 37.236 23.444 37.486 z "/>
                        <path fill="#ffffff" d="M 28.478 44.744 C 32.545002 43.088 47.996002 36.109 53.088 23.987999 C 55.434002 18.394 55.301003 12.437999 52.692 6.2679996 C 52.142002 6.0409994 51.681 5.9309998 51.681 5.9309998 C 54.578 12.219 54.745 18.025 52.371 23.685 C 47.257 35.867 31.322998 42.777 27.884998 44.146 C 28.039 44.326 28.343 44.596 28.478 44.744 z "/>
                        <path fill="#ffffff" d="M 34.255 48.951 C 39.277 48.219 56.446 44.969 67.270996 33.824 C 67.368 33.642002 67.577995 32.363003 67.577995 32.363003 C 56.15 45.02 36.344 47.924 33.188 48.311 C 33.455 48.469 33.878 48.711 34.255 48.951 z "/>
                        <path fill="#ffffff" d="M 46.388 17.5 C 47.267002 17.5 47.976 18.21 47.976 19.087 C 47.976 19.962 47.267002 20.673 46.388 20.673 C 45.514 20.673 44.803 19.962 44.803 19.087 C 44.803 18.21 45.514 17.5 46.388 17.5 z "/>
                        <circle fill="#ffffff" r="1.585" cx="54.26" cy="16.366"/>
                        <circle fill="#ffffff" r="1.587" cx="54.009" cy="20.592"/>
                        <circle fill="#ffffff" r="1.589" cx="27.835" cy="31.716"/>
                    </g>
                </g>
                <g>
                    <path fill="#ffffff" d="M 12.384 34.42 C 9.478 34.42 5.4979997 35.108997 4.49 41.072 L 4.337 41.968 C 4.337 41.968 11.031 41.968 11.827 41.968 C 12.065 42.401997 12.424 43.045998 12.651 43.458 C 12.424 43.868 12.066 44.515 11.827 44.942 C 11.032 44.942 4.337 44.942 4.337 44.942 L 4.49 45.842003 C 5.4979997 51.803 9.478 52.492004 12.384 52.492004 C 14.674999 52.492004 16.717 50.570004 18.355 49.025005 C 19.243 48.189007 20.08 47.404007 20.521 47.404007 L 41.023003 47.404007 L 41.251003 47.150005 C 41.692005 46.666004 42.713005 45.341003 42.735004 43.484005 L 42.735004 43.421005 C 42.714005 41.566006 41.691006 40.241005 41.251003 39.755005 L 41.023003 39.505005 L 20.521 39.505005 C 20.08 39.505005 19.243 38.720005 18.357 37.886005 C 16.716 36.342 14.675 34.42 12.384 34.42 z "/>
                </g>
                <linearGradient x1="-726.3613" gradientTransform="matrix(1.1905 0 0 -1.1905 875.6733 1344.7948)" y1="1104.7344" x2="-707.7927" gradientUnits="userSpaceOnUse" y2="1082.3961" xlink:type="simple" xlink:actuate="onLoad" id="XMLID_16_" xlink:show="other">
                    <stop stop-color="#e6eef4" offset="0"/>
                    <stop stop-color="#9646ac" offset="0.4438"/>
                    <stop stop-color="#3d013f" offset="0.9382"/>
                    <stop stop-color="#3d013f" offset="1"/>
                </linearGradient>
                <path fill="url(#XMLID_16_)" d="M 41.945 43.52 C 41.945 43.512 41.947998 43.504 41.947998 43.499 L 41.942997 43.499 C 41.923996 41.884 41.000996 40.718002 40.658997 40.345 C 40.225 40.345 20.498997 40.345 20.498997 40.345 C 19.747997 40.345 18.934998 39.575 17.802998 38.515 C 16.263998 37.062 14.345998 35.255 12.358997 35.255 C 9.133997 35.255 6.0829973 36.204002 5.2279973 41.265 C 6.439997 41.265 12.2579975 41.265 12.2579975 41.265 L 13.506997 43.521 L 12.2579975 45.779 C 12.2579975 45.779 6.4399977 45.779 5.2279973 45.779 C 6.0829973 50.842 9.134997 51.789 12.358997 51.789 C 14.345997 51.789 16.264997 49.980003 17.802998 48.529003 C 18.934998 47.468002 19.747997 46.701004 20.498997 46.701004 C 20.498997 46.701004 40.225 46.701004 40.658997 46.701004 C 40.998997 46.326004 41.924995 45.160004 41.942997 43.545006 L 41.947998 43.545006 C 41.948 43.535 41.945 43.529 41.945 43.52 z "/>
            </g>
        </g>
        <rect x="-0.112" width="83.766" fill="none" y="-0.185" height="57.837"/>
    </g>
</svg>
