<?xml version="1.0" encoding="UTF-8"?>
<svg xmlns="http://www.w3.org/2000/svg" xmlns:xlink="http://www.w3.org/1999/xlink" contentScriptType="text/ecmascript" width="60" baseProfile="tiny" zoomAndPan="magnify" contentStyleType="text/css" viewBox="0 0 60 60" height="60" preserveAspectRatio="xMidYMid meet" version="1.1">
    <path fill="#47c30e" d="M 20.362 29.171 C 20.734999 28.711 21.116999 28.281 21.527 27.925 C 20.989 27.318998 20.524 26.651 20.121 25.942 L 16.216 25.942 C 13.91 25.942 11.632999 31.338999 10.066999 35.877 C 8.500999 40.412 7.6909995 43.707 7.6909995 43.707 L 11.362999 43.707 C 11.362999 43.137 12.118999 40.143 13.361999 36.471 C 14.711999 32.852 15.714998 30.68 16.828999 29.172 L 20.362 29.171 L 20.362 29.171 z M 19.276 24.089 C 18.860998 22.914001 18.626 21.656 18.616 20.344002 C 17.255 19.486002 16.341 17.979002 16.341 16.254002 C 16.341 13.585002 18.514 11.410002 21.184 11.410002 C 21.646 11.410002 22.084 11.496002 22.508 11.618002 C 23.453999 10.776002 24.532 10.078002 25.717 9.581002 C 24.422998 8.700003 22.862999 8.183002 21.182999 8.183002 C 16.730999 8.183002 13.109999 11.804003 13.109999 16.255001 C 13.111 20.047 15.744 23.229 19.276 24.089 z M 29.362 33.172 C 29.734999 32.711002 30.118 32.281002 30.528 31.926 C 29.99 31.321001 29.525 30.653 29.122 29.943 L 25.217 29.943 C 22.911 29.943 20.633999 35.34 19.067999 39.877 C 17.501999 44.412 16.692 47.707 16.692 47.707 L 20.363998 47.707 C 20.363998 47.137 21.119999 44.143 22.362999 40.471 C 23.713 36.852 24.716 34.68 25.829998 33.172 L 29.362 33.172 z M 22.111 20.254 C 22.111 24.046999 24.743 27.229 28.276001 28.089 C 27.861 26.914001 27.626001 25.656 27.616001 24.344002 C 26.255001 23.486002 25.341002 21.979002 25.341002 20.254002 C 25.341002 17.585001 27.514002 15.410002 30.184002 15.410002 C 30.646002 15.410002 31.084002 15.496002 31.508001 15.618002 C 32.454002 14.776002 33.532 14.078002 34.717003 13.581002 C 33.424004 12.700003 31.863003 12.183002 30.184002 12.183002 C 25.732 12.182 22.111 15.803 22.111 20.254 z M 31.111 24.254 C 31.111 28.705 34.732 32.326 39.183 32.326 C 43.632 32.326 47.255997 28.705 47.255997 24.254002 C 47.255997 19.803001 43.631996 16.182003 39.183 16.182003 C 34.732 16.182 31.111 19.803 31.111 24.254 z M 39.184 19.41 C 41.853996 19.41 44.028 21.584 44.028 24.254 C 44.028 26.924 41.854 29.097 39.184 29.097 C 36.513996 29.097 34.339996 26.924 34.339996 24.254 C 34.339996 21.584 36.514 19.41 39.184 19.41 z M 50.176 43.877 C 48.612 39.34 46.331997 33.943 44.028 33.943 L 39.247 33.943 L 34.217003 33.943 C 31.911003 33.943 29.633003 39.339 28.068003 43.877 C 26.502003 48.412 25.692003 51.707 25.692003 51.707 L 29.364002 51.707 C 29.364002 51.137 30.120003 48.143 31.363003 44.471 C 32.715004 40.852 33.717003 38.68 34.832005 37.172 L 39.249004 37.172 L 43.418003 37.172 C 44.532 38.68 45.535004 40.852 46.885002 44.471 C 48.128002 48.143 48.884003 51.137 48.884003 51.707 L 52.557003 51.707 C 52.552 51.707 51.743 48.412 50.176 43.877 z "/>
    <rect width="60" fill="none" height="60"/>
</svg>
