<?xml version="1.0" encoding="UTF-8"?>
<svg xmlns="http://www.w3.org/2000/svg" xmlns:xlink="http://www.w3.org/1999/xlink" contentScriptType="text/ecmascript" width="58" baseProfile="tiny" zoomAndPan="magnify" contentStyleType="text/css" viewBox="57 -17 58 57.999" height="57.999" preserveAspectRatio="xMidYMid meet" version="1.1">
    <g>
        <g>
            <g>
                <rect x="57" width="58" fill="none" y="-17" height="57.999"/>
                <g>
                    <path d="M 58.793 11.035 C 58.793 25.501 70.563995 37.271 85.033 37.271 C 99.502 37.271 111.270996 25.5 111.270996 11.035 C 111.270996 -3.434 99.5 -15.204 85.033 -15.204 C 70.564 -15.204 58.793 -3.434 58.793 11.035 z " fill-opacity="0.01"/>
                    <path d="M 59.939 11.035 C 59.939 24.869999 71.195 36.126 85.033 36.126 C 98.870995 36.126 110.129 24.869999 110.129 11.035 C 110.129 -2.802 98.870995 -14.056999 85.033 -14.056999 C 71.195 -14.056999 59.939 -2.802 59.939 11.035 z " fill-opacity="0.02"/>
                    <path d="M 61.082 11.035 C 61.082 24.236 71.828 34.98 85.033005 34.98 C 98.240005 34.98 108.98 24.236 108.98 11.035 C 108.98 -2.1739998 98.240005 -12.912001 85.033005 -12.912001 C 71.828 -12.913 61.082 -2.174 61.082 11.035 z " fill-opacity="0.04"/>
                    <path d="M 62.048 11.035 C 62.048 23.706 72.36 34.012 85.031 34.012 C 97.699 34.012 108.009 23.706001 108.009 11.035002 C 108.009 -1.6369982 97.699005 -11.944998 85.031006 -11.944998 C 72.359 -11.946 62.048 -1.637 62.048 11.035 z " fill-opacity="0.07"/>
                </g>
                <linearGradient x1="-1303.2529" gradientTransform="matrix(1 0 0 1 1389.252 -792.3545)" y1="826.6963" x2="-1303.2529" gradientUnits="userSpaceOnUse" y2="790.9459" xlink:type="simple" xlink:actuate="onLoad" id="XMLID_5_" xlink:show="other">
                    <stop stop-color="#000000" offset="0"/>
                    <stop stop-color="#000000" offset="0.3933"/>
                    <stop stop-color="#52a2a5" offset="0.9944"/>
                    <stop stop-color="#52a2a5" offset="1"/>
                </linearGradient>
                <path fill="url(#XMLID_5_)" d="M 86.0 -10.903 C 73.369 -10.903 63.092 -0.6300001 63.092 11.999001 C 63.092 24.627 73.369 34.9 86.0 34.9 C 98.629 34.9 108.906 24.628002 108.906 11.999002 C 108.906 -0.629 98.629 -10.903 86.0 -10.903 z "/>
                <linearGradient x1="-1303.2529" gradientTransform="matrix(1 0 0 1 1389.252 -792.3545)" y1="778.7217" x2="-1303.2529" gradientUnits="userSpaceOnUse" y2="825.2836" xlink:type="simple" xlink:actuate="onLoad" id="XMLID_6_" xlink:show="other">
                    <stop stop-color="#000000" offset="0"/>
                    <stop stop-color="#000000" offset="0.3933"/>
                    <stop stop-color="#52a2a5" offset="0.9944"/>
                    <stop stop-color="#52a2a5" offset="1"/>
                </linearGradient>
                <path fill="url(#XMLID_6_)" d="M 86.0 -9.029 C 74.4 -9.029 64.966995 0.4069996 64.966995 12.002999 C 64.966995 23.593998 74.40099 33.024998 86.0 33.024998 C 97.598 33.024998 107.031 23.592999 107.031 12.002998 C 107.031 0.406 97.598 -9.029 86.0 -9.029 z "/>
                <linearGradient x1="-1303.252" gradientTransform="matrix(1 0 0 1 1389.252 -792.3545)" y1="823.9121" x2="-1303.252" gradientUnits="userSpaceOnUse" y2="779.504" xlink:type="simple" xlink:actuate="onLoad" id="XMLID_7_" xlink:show="other">
                    <stop stop-color="#000000" offset="0"/>
                    <stop stop-color="#000000" offset="0.3933"/>
                    <stop stop-color="#52a2a5" offset="0.9944"/>
                    <stop stop-color="#52a2a5" offset="1"/>
                </linearGradient>
                <path fill="url(#XMLID_7_)" d="M 86.0 -7.799 C 75.08 -7.799 66.197 1.0840006 66.197 12.004 C 66.197 22.918 75.08 31.801 86.0 31.801 C 96.918 31.801 105.805 22.917 105.805 12.004 C 105.804 1.083 96.918 -7.799 86.0 -7.799 z "/>
                <linearGradient x1="-608.625" gradientTransform="matrix(1 0 0 -1 694.626 1031.9688)" y1="1020.7607" x2="-608.625" gradientUnits="userSpaceOnUse" y2="992.6611" xlink:type="simple" xlink:actuate="onLoad" id="XMLID_8_" xlink:show="other">
                    <stop stop-color="#ffffff" offset="0"/>
                    <stop stop-color="#7fd3ff" offset="1"/>
                </linearGradient>
                <path fill="url(#XMLID_8_)" d="M 104.658 12.001 C 104.658 22.303001 96.306 30.652 86.0 30.652 C 75.694 30.652 67.344 22.302 67.344 12.001001 C 67.344 1.696001 75.694 -6.657999 86.0 -6.657999 C 96.306 -6.657999 104.658 1.697 104.658 12.001 z "/>
            </g>
        </g>
    </g>
    <g stroke-opacity="0.25" fill-opacity="0.25">
        <path d="M 100.576 16.614 L 96.528 16.625 L 96.502 4.002 C 96.494995 1.9179997 95.04 0.46699977 92.965996 0.47199988 L 75.788 0.516 C 71.529 0.534 72.267 5.4969997 72.267 6.582 L 76.309 6.568 L 76.34 19.196 C 76.348 21.276999 77.801994 22.73 79.882996 22.72 L 97.05699 22.678999 C 100.87 22.685 100.605 18.951 100.576 16.614 z M 74.278 4.557 C 74.278 4.557 74.073 2.9170003 75.337 2.6140003 C 76.424995 2.8940003 76.304 4.557 76.304 4.557 L 74.278 4.557 z M 80.897 20.696 C 80.897 20.696 78.362 21.133999 78.362 19.196999 L 78.325 4.293 C 78.325 3.6350002 78.201996 3.045 77.980995 2.532 L 92.965996 2.482 C 93.936 2.4880002 94.488 3.0370002 94.488 4.009 L 94.518 16.630001 L 82.402 16.665 C 82.436 18.705 82.761 20.761 80.897 20.696 z M 97.058 20.661 L 84.106995 20.696 C 84.46999 20.206 84.42899 18.976 84.42899 18.669998 L 98.55799 18.638998 C 98.557 19.352 98.562 20.661 97.058 20.661 z "/>
        <rect x="80.351" width="12.114" y="4.53" height="2.012"/>
        <rect x="80.36" width="12.11" y="8.568" height="2.021"/>
        <polygon points="80.363,12.622 80.372,14.643 92.494,14.615 92.478,12.59  "/>
    </g>
</svg>
