<?xml version="1.0" encoding="UTF-8"?>
<svg xmlns="http://www.w3.org/2000/svg" xmlns:xlink="http://www.w3.org/1999/xlink" contentScriptType="text/ecmascript" width="40" baseProfile="tiny" zoomAndPan="magnify" contentStyleType="text/css" viewBox="0 0 40 50" height="50" preserveAspectRatio="xMidYMid meet" version="1.1">
    <g>
        <rect x="-0.5" width="40" fill="none" y="0.146" height="50"/>
        <g>
            <linearGradient x1="-675.126" gradientTransform="matrix(1 0 0 -1 694.626 1045.9688)" y1="1045.8232" x2="-675.126" gradientUnits="userSpaceOnUse" y2="996.8213" xlink:type="simple" xlink:actuate="onLoad" id="XMLID_2_" xlink:show="other">
                <stop stop-color="#4c9743" offset="0"/>
                <stop stop-color="#55a2a3" offset="0.0056"/>
                <stop stop-color="#0e807a" offset="0.264"/>
                <stop stop-color="#020202" offset="1"/>
            </linearGradient>
            <path fill="url(#XMLID_2_)" d="M 37.699 49.646 L 1.301 49.646 C 0.582 49.646 0.0 48.934 0.0 48.055 L 0.042 2.2350006 C 0.042 1.3570006 0.62299997 0.6450006 1.342 0.6450006 L 31.201 0.6450006 C 31.917 0.6450006 32.501 1.3570006 32.501 2.2350006 L 39.0 48.055 C 39.0 48.934 38.416 49.646 37.699 49.646 L 37.699 49.646 z "/>
            <path d="M 32.501 2.235 C 32.501 1.3569999 31.917 0.64499986 31.201 0.64499986 L 1.342 0.64499986 C 0.623 0.64499986 0.042000055 1.3569999 0.042000055 2.235 L 0.0 48.055 C 0.0 48.934002 0.582 49.647 1.301 49.647 L 37.698997 49.647 C 38.415997 49.647 38.999996 48.934 38.999996 48.055 L 32.501 2.235 z M 1.301 48.055 L 1.342 2.2350006 L 31.201 2.2350006 L 37.699 48.055 L 1.301 48.055 z " fill-opacity="0.25" stroke-opacity="0.25"/>
            <path fill="#ffffff" d="M 38.166 50.146 L 0.834 50.146 C 0.09799999 50.146 -0.5 49.418 -0.5 48.523 L -0.457 1.7679977 C -0.457 0.87299776 0.13900003 0.14599776 0.8759999 0.14599776 L 31.501 0.14599776 C 32.234 0.14599776 32.835 0.87399775 32.835 1.7679977 L 39.5 48.521 C 39.5 49.419 38.9 50.146 38.166 50.146 L 38.166 50.146 z " fill-opacity="0.5" display="none"/>
        </g>
    </g>
</svg>
