<?xml version="1.0" encoding="UTF-8"?>
<svg xmlns="http://www.w3.org/2000/svg" xmlns:xlink="http://www.w3.org/1999/xlink" contentScriptType="text/ecmascript" width="29" baseProfile="tiny" zoomAndPan="magnify" contentStyleType="text/css" viewBox="0 0 29 25" height="25" preserveAspectRatio="xMidYMid meet" version="1.1">
    <g>
        <path fill="#ffffff" d="M 3.386 12.568 C 3.386 18.736 8.403 23.753 14.568999 23.753 C 20.734999 23.753 25.751 18.736 25.751 12.568 C 25.751 6.401 20.734 1.3859997 14.568999 1.3859997 C 8.402 1.386 3.386 6.401 3.386 12.568 z M 4.069 12.568 C 4.069 6.7799997 8.778999 2.0699997 14.569 2.0699997 C 20.358 2.0699997 25.069 6.778 25.069 12.568 C 25.069 18.36 20.358 23.07 14.569 23.07 C 8.78 23.07 4.069 18.359 4.069 12.568 z "/>
        <radialGradient gradientTransform="matrix(3.4483 0 0 -3.4483 3089.0396 4528.0337)" gradientUnits="userSpaceOnUse" xlink:type="simple" r="5.8171" xlink:actuate="onLoad" cx="-890.9756" id="XMLID_4_" cy="1311.5117" xlink:show="other">
            <stop stop-color="#ffffff" offset="0"/>
            <stop stop-color="#a2c2dd" offset="0.53"/>
            <stop stop-color="#6c83bb" offset="0.87"/>
            <stop stop-color="#003d6d" offset="1"/>
        </radialGradient>
        <path fill="url(#XMLID_4_)" d="M 25.411 12.568 C 25.411 18.556 20.555 23.413 14.568999 23.413 C 8.581999 23.413 3.7279997 18.556 3.7279997 12.568 C 3.7279997 6.581 8.583 1.7279997 14.568999 1.7279997 C 20.554 1.728 25.411 6.581 25.411 12.568 z "/>
        <radialGradient gradientTransform="matrix(3.4483 0 0 -3.4483 3089.0396 4528.0337)" gradientUnits="userSpaceOnUse" xlink:type="simple" r="4.4701" xlink:actuate="onLoad" cx="-892.0415" id="XMLID_5_" cy="1311.1465" xlink:show="other">
            <stop stop-color="#e6eef4" offset="0"/>
            <stop stop-color="#4a9900" offset="0.44"/>
            <stop stop-color="#0e4e58" offset="0.94"/>
            <stop stop-color="#0e4e58" offset="1"/>
        </radialGradient>
        <path fill="url(#XMLID_5_)" d="M 19.944 3.572 L 20.506 4.7860003 L 21.809 5.256 C 21.809 5.256 22.136 5.652 22.244 5.745 C 22.407999 6.469 22.768 7.248 22.84 7.285 C 22.913 7.3209996 23.239 7.429 23.351 7.411 C 23.421999 7.809 23.314 7.809 23.314 7.809 L 22.789 7.556 L 23.007 8.444 L 24.02 10.163 C 23.894001 10.434 23.405 12.0460005 23.405 12.0460005 C 23.405 12.0460005 24.04 12.627001 23.952002 13.26 C 23.859001 13.893001 23.515001 13.5130005 23.424002 13.459001 C 23.335001 13.404 23.042002 13.677001 23.042002 13.677001 C 23.042002 13.677001 22.337002 13.242001 22.285002 13.060001 C 21.902002 12.445002 21.397001 12.644001 21.251001 12.953001 C 20.549002 14.448001 20.512001 14.299001 20.618002 15.253001 C 21.001001 15.816001 20.779001 15.959002 20.653002 15.868001 C 20.528002 15.778001 20.328001 15.706001 20.146002 15.706001 C 19.964003 15.706001 19.764002 15.143002 19.603003 14.765001 C 19.439003 14.382001 18.660002 13.786001 18.514002 13.495001 C 18.371002 13.206001 17.843002 13.206001 17.843002 13.206001 C 17.843002 13.206001 16.341002 13.296001 16.448002 13.405002 C 17.173002 13.913002 16.883001 14.274002 16.883001 14.274002 L 15.744001 15.289002 C 15.744001 15.289002 14.784001 15.724003 14.494001 15.797003 C 13.968001 16.123003 14.548001 16.251003 15.125001 16.105003 C 15.706001 15.959003 15.652001 16.196003 15.561001 16.429003 C 15.236001 17.224003 14.655001 17.733004 14.277 17.878002 C 13.481001 18.437002 13.298 19.272003 13.678 19.613003 C 13.678 19.613003 13.715 20.429003 13.443001 20.449003 C 13.172001 20.468002 12.792001 20.753004 12.792001 20.881002 C 12.792001 21.010002 12.503001 21.533003 12.393001 21.624002 C 12.0130005 22.114002 11.524 22.058002 11.307001 21.951002 C 10.3080015 22.144003 9.478001 20.540003 9.424001 20.393002 C 9.371 20.250002 8.646001 19.888002 8.882001 19.239002 C 9.116001 18.585003 8.536001 17.642002 8.502001 17.571003 C 8.463001 17.498003 8.135001 16.168003 7.4320006 15.559003 C 7.357001 15.496003 6.5820007 15.303003 6.165001 15.1760025 C 5.748001 15.049003 5.567001 14.054003 5.386001 13.636003 C 5.2060013 13.219003 5.694001 11.609003 5.7130013 11.500003 C 5.7310014 11.391003 6.3820014 10.827003 6.3820014 10.827003 L 7.7580013 9.927003 L 7.684 9.293 C 7.684 9.293 7.883 9.059 7.956 8.951 C 8.028 8.842 8.337 8.407001 8.463 8.698 C 8.59 8.987 9.224 8.932 9.17 8.516 C 9.113 8.1 9.26 7.9 9.422 7.882 C 9.585 7.864 9.44 7.521 9.241 7.267 C 9.042 7.013 9.547 6.94 9.876 6.632 C 10.202001 6.324 9.966001 7.303 9.966001 7.6289997 C 9.966001 7.9539995 11.071001 7.0849996 11.125001 7.0309997 C 10.999001 6.397 11.505001 6.2349997 11.649001 6.2159996 C 11.795001 6.1969995 12.446001 5.819 12.609001 5.6529994 C 12.771001 5.4899993 13.224001 5.4899993 13.369001 5.5099993 C 13.514002 5.5269995 14.165001 6.0529995 14.328001 6.0529995 C 14.492001 6.0529995 15.777001 5.7089996 15.813001 5.4729996 C 15.849001 5.2389994 15.976001 5.1099997 16.212 5.0189996 C 16.446 4.9309998 16.483 4.167 16.483 4.167 C 16.483 4.167 16.762 4.054 16.882 4.0959997 C 17.441 4.2889996 17.571 3.9159997 17.734 3.8609998 C 17.896 3.807 17.754 3.481 17.699 3.336 C 17.897 2.901 16.865 2.4759998 17.244999 2.503 C 18.731 2.612 19.78 3.318 19.944 3.572 z M 7.918 9.983 L 8.064 10.164 C 8.064 10.164 8.812 10.24 9.553 10.528 C 9.667001 10.642 9.531 11.1779995 9.531 11.1779995 C 9.531 11.1779995 10.328 12.264 10.49 12.066 C 10.653999 11.867 10.870999 11.686 11.124 11.867 C 11.377 12.047999 11.993 12.264 12.302 12.264 C 12.429 12.301 13.062 12.499 13.044 11.54 C 12.794 11.194 12.156 11.25 12.047 11.16 C 11.94 11.069 11.721 10.415999 11.721 10.415999 L 11.505 10.471 C 11.505 10.471 11.468 10.924 11.341001 10.924 C 11.215 10.924 10.942 10.236 10.942 10.236 L 10.9800005 9.874001 L 10.563001 9.366 C 10.563001 9.366 10.292001 9.493 10.816001 10.162001 C 10.816001 10.162001 10.452001 10.541 10.182001 10.56 C 10.254001 10.47 10.418001 10.053 10.418001 10.053 L 10.074001 9.548 C 10.074001 9.548 9.590001 9.030001 9.423001 9.168 C 9.224001 9.331 8.643002 9.637 8.643002 9.637 L 8.264 9.965 L 7.918 9.983 z M 12.302 6.615 C 11.913 7.243 11.346 7.4209995 11.396 7.646 C 11.416 7.737 11.959 7.865 12.048 7.611 C 12.14 7.357 12.465 7.303 12.465 7.1940002 C 12.465 7.085 12.352 6.534 12.302 6.615 z M 13.044 9.711 C 12.9539995 9.675 12.771999 9.349001 12.554999 9.584001 C 12.339 9.820001 12.065999 10.345 12.339 10.382001 C 12.61 10.417001 13.007999 10.272001 13.098 10.345001 C 13.188 10.417001 13.882 10.702002 13.986 10.345001 C 14.163 9.737 13.044 9.711 13.044 9.711 z M 12.682 12.988 C 12.675 13.098 13.136 14.186 13.136 14.186 C 13.136 14.186 13.098 14.547 13.188 14.674 C 13.28 14.8029995 13.605 15.469 13.967 15.58 C 14.491 14.977 13.479 14.184999 13.479 14.184999 L 13.441 13.877999 C 13.442 13.876 12.717 12.482 12.682 12.988 z M 15.108 12.664 L 15.127 12.971 L 15.778 13.693999 C 15.778 13.693999 16.378 13.638 16.266 13.205999 L 15.742001 13.025999 L 15.378 12.678999 L 15.108 12.664 z "/>
        <radialGradient gradientTransform="matrix(3.4483 0 0 -3.4483 3089.0396 4528.0337)" gradientUnits="userSpaceOnUse" xlink:type="simple" r="7.6048" xlink:actuate="onLoad" cx="-890.604" id="XMLID_6_" cy="1312.6367" xlink:show="other">
            <stop stop-color="#a2c2dd" offset="0"/>
            <stop stop-color="#a2c2dd" offset="0.1"/>
            <stop stop-color="#6c83bb" offset="0.71"/>
            <stop stop-color="#003d6d" offset="0.99"/>
            <stop stop-color="#003d6d" offset="1"/>
        </radialGradient>
        <path fill="url(#XMLID_6_)" d="M 9.118 3.176 C 8.547 3.521 7.626 4.185 7.313 4.684 C 7.088 5.039 7.566 4.79 7.667 4.658 C 7.8339996 4.435 8.205999 4.37 8.437 4.148 C 8.734 3.8629997 9.116 3.7179997 9.416 3.4349997 C 9.753 3.1119998 10.073 3.3399997 10.439 3.2849996 C 10.804 3.2299995 11.907001 2.3739996 12.287001 2.6959996 C 12.462001 2.8429997 10.253 3.5919995 10.117001 3.6689997 C 9.854 3.817 9.579 3.991 9.368 4.204 C 9.101 4.478 9.97 4.263 10.099 4.263 C 10.318 4.263 10.558 4.263 10.767 4.334 C 11.155001 4.459 11.357 4.117 11.6970005 4.13 C 12.124001 4.143 12.456 3.756 12.875 3.704 C 13.2630005 3.656 13.304 3.269 13.3880005 2.958 C 13.463 2.681 13.345 2.393 13.678 2.266 C 13.89 2.183 14.068001 1.98 14.209001 1.807 C 11.929 1.71 9.909 2.769 9.118 3.176 "/>
        <rect width="29" fill="none" height="25"/>
    </g>
</svg>
