<?xml version="1.0" encoding="UTF-8"?>
<svg xmlns="http://www.w3.org/2000/svg" xmlns:xlink="http://www.w3.org/1999/xlink" contentScriptType="text/ecmascript" width="58" baseProfile="tiny" zoomAndPan="magnify" contentStyleType="text/css" viewBox="194 -70 58 58" height="58" preserveAspectRatio="xMidYMid meet" version="1.1">
    <g>
        <g>
            <g>
                <rect x="194" width="58" fill="none" y="-70" height="58"/>
                <g>
                    <path d="M 195.794 -41.967 C 195.794 -27.498999 207.56601 -15.730999 222.033 -15.730999 C 236.502 -15.730999 248.27101 -27.501 248.27101 -41.967 C 248.27101 -56.434998 236.50002 -68.205 222.033 -68.205 C 207.566 -68.205 195.794 -56.435 195.794 -41.967 z " fill-opacity="0.01"/>
                    <path d="M 196.939 -41.967 C 196.939 -28.13 208.19499 -16.873999 222.03299 -16.873999 C 235.872 -16.873999 247.129 -28.129997 247.129 -41.967 C 247.129 -55.803 235.872 -67.058 222.03299 -67.058 C 208.195 -67.058 196.939 -55.803 196.939 -41.967 z " fill-opacity="0.02"/>
                    <path d="M 198.083 -41.967 C 198.083 -28.765999 208.82799 -18.022 222.03299 -18.022 C 235.241 -18.022 245.98 -28.765999 245.98 -41.967 C 245.98 -55.175 235.23999 -65.914 222.03299 -65.914 C 208.829 -65.914 198.083 -55.174 198.083 -41.967 z " fill-opacity="0.04"/>
                    <path d="M 199.05 -41.967 C 199.05 -29.293999 209.36 -18.987999 222.033 -18.987999 C 234.70201 -18.987999 245.01201 -29.293999 245.01201 -41.967 C 245.01201 -54.638 234.70201 -64.946 222.033 -64.946 C 209.359 -64.946 199.05 -54.638 199.05 -41.967 z " fill-opacity="0.07"/>
                </g>
                <linearGradient x1="-1166.252" gradientTransform="matrix(1 0 0 1 1389.252 -792.3545)" y1="773.6963" x2="-1166.252" gradientUnits="userSpaceOnUse" y2="737.9459" xlink:type="simple" xlink:actuate="onLoad" id="XMLID_5_" xlink:show="other">
                    <stop stop-color="#000000" offset="0"/>
                    <stop stop-color="#000000" offset="0.3933"/>
                    <stop stop-color="#52a2a5" offset="0.9944"/>
                    <stop stop-color="#52a2a5" offset="1"/>
                </linearGradient>
                <path fill="url(#XMLID_5_)" d="M 223.0 -63.903 C 210.369 -63.903 200.092 -53.63 200.092 -41.001 C 200.092 -28.371998 210.369 -18.1 223.0 -18.1 C 235.63 -18.1 245.907 -28.372002 245.907 -41.001 C 245.907 -53.629997 235.63 -63.903 223.0 -63.903 z " fill-opacity="0.25"/>
                <linearGradient x1="-1166.252" gradientTransform="matrix(1 0 0 1 1389.252 -792.3545)" y1="725.7217" x2="-1166.252" gradientUnits="userSpaceOnUse" y2="772.2827" xlink:type="simple" xlink:actuate="onLoad" id="XMLID_6_" xlink:show="other">
                    <stop stop-color="#000000" offset="0"/>
                    <stop stop-color="#000000" offset="0.3933"/>
                    <stop stop-color="#52a2a5" offset="0.9944"/>
                    <stop stop-color="#52a2a5" offset="1"/>
                </linearGradient>
                <path fill="url(#XMLID_6_)" d="M 223.0 -62.029 C 211.4 -62.029 201.967 -52.593 201.967 -40.997 C 201.967 -29.404001 211.401 -19.975002 223.0 -19.975002 C 234.59799 -19.975002 244.032 -29.407001 244.032 -40.997 C 244.032 -52.595 234.598 -62.029 223.0 -62.029 z " fill-opacity="0.25"/>
                <linearGradient x1="-1166.25" gradientTransform="matrix(1 0 0 1 1389.252 -792.3545)" y1="770.9111" x2="-1166.25" gradientUnits="userSpaceOnUse" y2="726.5063" xlink:type="simple" xlink:actuate="onLoad" id="XMLID_7_" xlink:show="other">
                    <stop stop-color="#000000" offset="0"/>
                    <stop stop-color="#000000" offset="0.3933"/>
                    <stop stop-color="#52a2a5" offset="0.9944"/>
                    <stop stop-color="#52a2a5" offset="1"/>
                </linearGradient>
                <path fill="url(#XMLID_7_)" d="M 223.0 -60.799 C 212.081 -60.799 203.198 -51.917 203.198 -40.997 C 203.198 -30.083002 212.081 -21.2 223.0 -21.2 C 233.919 -21.2 242.805 -30.083 242.805 -40.997 C 242.805 -51.917 233.919 -60.799 223.0 -60.799 z " fill-opacity="0.25"/>
                <linearGradient x1="-471.624" gradientTransform="matrix(1 0 0 -1 694.626 1031.9688)" y1="1073.7598" x2="-471.624" gradientUnits="userSpaceOnUse" y2="1045.6613" xlink:type="simple" xlink:actuate="onLoad" id="XMLID_8_" xlink:show="other">
                    <stop stop-color="#ffffff" offset="0"/>
                    <stop stop-color="#6b6b6b" offset="1"/>
                </linearGradient>
                <path fill="url(#XMLID_8_)" d="M 241.659 -40.999 C 241.659 -30.695 233.306 -22.348001 223.0 -22.348001 C 212.694 -22.348001 204.344 -30.698002 204.344 -40.999 C 204.344 -51.304 212.69499 -59.658 223.0 -59.658 C 233.307 -59.658 241.659 -51.304 241.659 -40.999 z "/>
            </g>
        </g>
    </g>
    <path d="M 223.089 -56.606 C 214.811 -56.606 207.552 -49.864998 207.552 -41.073997 C 207.552 -32.503998 214.523 -25.528997 223.089 -25.528997 C 231.658 -25.528997 238.63 -32.503998 238.63 -41.073997 C 238.626 -49.742 231.695 -56.606 223.089 -56.606 z M 211.044 -46.281 C 223.38 -50.065 222.44601 -51.982998 221.52 -54.128998 C 223.106 -54.314 224.283 -54.267 225.789 -53.948997 C 225.715 -52.843998 227.851 -50.601997 227.37 -49.909996 C 224.676 -50.116997 221.767 -48.898994 220.03299 -45.730995 C 219.83598 -45.364994 220.01 -42.911995 219.75198 -42.911995 C 218.66199 -42.911995 216.95099 -40.786995 219.50198 -40.353996 C 221.80698 -42.541996 221.15099 -42.911995 225.06299 -40.353996 C 225.87299 -40.170998 225.85199 -42.370995 227.387 -41.786995 C 230.428 -40.628994 227.577 -37.932995 224.528 -38.921993 C 217.726 -42.962994 214.777 -36.11899 216.296 -33.708992 C 217.552 -31.374992 220.423 -32.09199 222.03601 -31.564991 C 223.09901 -31.20899 223.55402 -29.24599 223.74 -27.93699 C 214.048 -26.949 207.156 -37.834 211.044 -46.281 z M 230.132 -29.971 C 230.229 -30.211 233.126 -35.325 233.33301 -37.482002 C 233.51501 -39.278004 231.84702 -41.443 234.589 -40.536003 C 235.087 -40.374004 235.554 -39.085003 236.06201 -38.948 C 235.445 -35.176 233.233 -31.945 230.132 -29.971 z " fill-opacity="0.25" stroke-opacity="0.25"/>
</svg>
