<?xml version="1.0" encoding="UTF-8"?>
<svg xmlns="http://www.w3.org/2000/svg" xmlns:xlink="http://www.w3.org/1999/xlink" contentScriptType="text/ecmascript" width="40" baseProfile="tiny" zoomAndPan="magnify" contentStyleType="text/css" viewBox="-0.5 0.146 40 50" height="50" preserveAspectRatio="xMidYMid meet" version="1.1">
    <rect x="-0.5" width="40" fill="none" y="0.146" height="50"/>
    <path fill="#333333" d="M 37.698 0.646 L 1.301 0.646 C 0.583 0.646 0.0 1.357 0.0 2.235 L 6.497 48.055 C 6.497 48.932 7.0800004 49.645 7.7980003 49.645 L 31.128 49.645 C 31.848 49.645 32.43 48.932 32.43 48.055 L 39.0 2.235 C 39.0 1.357 38.415 0.646 37.698 0.646 L 37.698 0.646 z "/>
    <path d="M 8.498 49.055 L 8.498 48.985 L 8.488 48.917 L 2.002 3.179 C 2.02 2.853 2.204 2.647 2.301 2.647 L 38.697998 2.647 C 38.749996 2.647 38.841 2.726 38.91 2.862 L 39.0 2.235 C 39.0 1.3569999 38.415 0.6459999 37.697998 0.6459999 L 1.301 0.6459999 C 0.583 0.646 0.0 1.357 0.0 2.235 L 6.497 48.055 C 6.497 48.932 7.0800004 49.645 7.7980003 49.645 L 8.797 49.645 C 8.71 49.645 8.498 49.439 8.498 49.055 z " fill-opacity="0.25"/>
</svg>
