<?xml version="1.0" encoding="UTF-8"?>
<svg xmlns="http://www.w3.org/2000/svg" xmlns:xlink="http://www.w3.org/1999/xlink" contentScriptType="text/ecmascript" width="43.939" baseProfile="tiny" zoomAndPan="magnify" contentStyleType="text/css" viewBox="0 0 43.939 43.945" height="43.945" preserveAspectRatio="xMidYMid meet" version="1.1">
    <radialGradient gradientTransform="matrix(1 0 0 -1 694.626 1039.9136)" gradientUnits="userSpaceOnUse" xlink:type="simple" r="42.2791" xlink:actuate="onLoad" cx="-678.1858" id="XMLID_96_" cy="1040.5125" xlink:show="other">
        <stop stop-color="#e6eef4" offset="0"/>
        <stop stop-color="#c6dcc1" offset="0.08"/>
        <stop stop-color="#91c06f" offset="0.21"/>
        <stop stop-color="#6bab33" offset="0.32"/>
        <stop stop-color="#539e0e" offset="0.4"/>
        <stop stop-color="#4a9900" offset="0.44"/>
        <stop stop-color="#398419" offset="0.56"/>
        <stop stop-color="#22663b" offset="0.75"/>
        <stop stop-color="#135550" offset="0.9"/>
        <stop stop-color="#0e4e58" offset="1"/>
    </radialGradient>
    <path fill="url(#XMLID_96_)" d="M 35.772 11.706 C 34.892998 10.386001 33.846 9.583 33.137 9.041 C 31.11 7.4920006 22.91 5.8740005 14.435001 14.351 C 9.293001 19.504 7.8470016 24.529999 7.8470016 28.131 C 7.8470016 30.459 8.451001 32.195 9.051002 32.984 C 9.681002 33.801003 10.461001 34.82 11.791001 35.704002 C 12.185001 35.966003 12.865002 36.2 13.601002 36.332 L 13.769002 36.341 C 15.101002 36.256 16.570002 35.232998 18.533 33.017998 C 19.179 32.288 21.285002 29.767998 21.285002 27.999998 C 21.285002 27.999998 21.275002 27.787998 21.273003 27.738998 C 21.256002 27.696999 21.242002 27.652998 21.242002 27.652998 C 21.221003 27.582998 20.994003 26.935997 19.982002 26.136997 C 19.355001 25.637997 18.422003 25.284998 17.209002 25.087997 L 16.633001 24.995998 L 16.638 24.411999 C 16.662 21.491 21.574001 16.579998 24.482 16.565998 L 25.062 16.563997 L 25.158 17.138998 C 25.351002 18.348999 25.703001 19.284998 26.205002 19.917997 C 26.943003 20.849997 27.570002 21.122997 27.883001 21.213997 C 29.066002 21.326998 31.006 20.296997 33.078003 18.463997 C 35.293003 16.508997 36.318005 15.033997 36.404003 13.681997 C 36.404003 13.681997 36.408005 13.6399975 36.410004 13.597998 C 36.404003 13.558998 36.400005 13.522998 36.400005 13.522998 C 36.325 13.094 36.118 12.227 35.772 11.706 z "/>
</svg>
