<?xml version="1.0" encoding="UTF-8"?>
<svg xmlns="http://www.w3.org/2000/svg" xmlns:xlink="http://www.w3.org/1999/xlink" contentScriptType="text/ecmascript" zoomAndPan="magnify" baseProfile="tiny" contentStyleType="text/css" version="1.1" width="25.999px" preserveAspectRatio="xMidYMid meet" viewBox="0 0 25.999 26" height="26px" x="0px" y="0px">
    <g>
        <path fill="#ffffff" d="M 7.894 18.719 L 11.57 18.719 L 11.57 7.281 L 7.894 7.281 L 7.894 18.719 z M 14.429 7.281 L 14.429 18.719 L 18.107 18.719 L 18.107 7.281 L 14.429 7.281 z " fill-opacity="0.3" stroke-opacity="0.3"/>
        <rect width="25.999" fill="none" height="26"/>
        <path d="M 7.077 19.535 L 12.386 19.535 L 12.386 6.464 L 7.077 6.464 L 7.077 19.535 z M 7.894 7.281 L 11.57 7.281 L 11.57 18.719 L 7.894 18.719 L 7.894 7.281 z M 13.612 6.464 L 13.612 19.535 L 18.924 19.535 L 18.924 6.464 L 13.612 6.464 z M 18.106 18.719 L 14.428001 18.719 L 14.428001 7.281 L 18.106 7.281 L 18.106 18.719 z " fill-opacity="0.3" stroke-opacity="0.3"/>
    </g>
</svg>
