<?xml version="1.0" encoding="UTF-8"?>
<svg xmlns="http://www.w3.org/2000/svg" xmlns:xlink="http://www.w3.org/1999/xlink" contentScriptType="text/ecmascript" width="44" baseProfile="tiny" zoomAndPan="magnify" contentStyleType="text/css" viewBox="-37.47 -52.765 44 32" height="32" preserveAspectRatio="xMidYMid meet" version="1.1">
    <g>
        <path fill="#656b6b" d="M -35.47 -52.766 L -35.47 -45.600998 C -35.47 -34.015 -26.595001 -23.765999 -14.622002 -23.765999 C -14.518002 -23.765999 -6.626002 -23.765999 6.529999 -23.765999 L 6.529999 -52.766 L -35.47 -52.766 z " fill-opacity="0.01"/>
        <path fill="#656b6b" d="M -34.47 -52.766 L -34.47 -45.600998 C -34.47 -34.150997 -25.595001 -24.765999 -14.5720005 -24.765999 C -14.066001 -24.765999 -6.2610006 -24.765999 6.529999 -24.765999 L 6.529999 -52.766 L -34.47 -52.766 z " fill-opacity="0.02"/>
        <path fill="#656b6b" d="M -33.47 -52.766 L -33.47 -45.600998 C -33.47 -34.816998 -25.220001 -25.765999 -14.521002 -25.765999 C -14.4330015 -25.765999 -6.580002 -25.765999 6.529999 -25.765999 L 6.529999 -52.766 L -33.47 -52.766 z " fill-opacity="0.03"/>
        <path fill="#656b6b" d="M -32.47 -52.766 L -32.47 -45.600998 C -32.47 -35.663 -24.970001 -26.761997 -14.345001 -26.765999 C -14.245001 -26.765999 -6.4620013 -26.765999 6.529999 -26.765999 L 6.529999 -52.766 L -32.47 -52.766 z " fill-opacity="0.06"/>
        <path fill="#656b6b" d="M -31.468 -52.766 L -31.468 -45.600998 C -31.468 -36.163 -24.095001 -27.765999 -14.345001 -27.765999 L 6.53 -27.765999 L 6.53 -52.766 L -31.468 -52.766 z " fill-opacity="0.05"/>
        <path fill="#656b6b" d="M -30.469 -52.766 L -30.469 -46.663998 C -30.47 -36.947 -23.97 -28.763998 -13.391001 -28.765997 L 6.53 -28.765997 L 6.53 -52.766 L -30.469 -52.766 z " fill-opacity="0.1"/>
        <path fill="#656b6b" d="M -29.469 -52.766 L -29.469 -47.731 C -29.47 -38.143997 -24.345 -29.765999 -12.362999 -29.765999 C -12.284999 -29.765999 -5.278999 -29.765999 6.5300007 -29.765999 L 6.5300007 -52.766 L -29.469 -52.766 z " fill-opacity="0.1"/>
        <path fill="#656b6b" d="M -28.469 -52.766 L -28.469 -48.787 C -28.47 -39.343 -24.595 -30.765999 -11.344999 -30.765999 L 6.53 -30.765999 L 6.53 -52.766 L -28.469 -52.766 z " fill-opacity="0.1"/>
        <path fill="#52a1a4" d="M -30.97 -52.766 L -30.97 -50.177 C -30.97 -40.204998 -23.335 -32.266 -13.913 -32.266 L 6.53 -32.266 L 6.53 -52.766 L -30.97 -52.766 z "/>
        <path fill="#52a1a4" d="M -13.913 -32.766 C -23.045 -32.766 -30.47 -40.577 -30.47 -50.177 L -30.47 -52.766 L -31.467 -52.766 L -31.467 -50.177 C -31.467 -40.028 -23.592999 -31.765999 -13.912998 -31.765999 L 6.53 -31.765999 L 6.53 -32.766 L -13.913 -32.766 z "/>
        <rect x="-37.47" width="44" fill="none" y="-52.766" height="32"/>
    </g>
</svg>
