<?xml version="1.0" encoding="UTF-8"?>
<svg xmlns="http://www.w3.org/2000/svg" xmlns:xlink="http://www.w3.org/1999/xlink" contentScriptType="text/ecmascript" width="44" baseProfile="tiny" zoomAndPan="magnify" contentStyleType="text/css" viewBox="-1.979 1.139 44 32" height="32" preserveAspectRatio="xMidYMid meet" version="1.1">
    <g>
        <path fill="#656b6b" d="M 0.021 1.139 L 0.021 6.639 L 0.045 7.604 C 0.368 22.098 8.274 31.48 20.679 32.088 L 21.611 32.139 L 42.021 32.139 L 42.021 1.1389999 L 0.021 1.1389999 z " fill-opacity="0.01"/>
        <path fill="#656b6b" d="M 1.021 1.139 L 1.021 6.639 L 1.044 7.578 C 1.355 21.5 8.898 30.51 20.728 31.088 L 21.658 31.139 L 42.021004 31.139 L 42.021004 1.1389999 L 1.021 1.1389999 z " fill-opacity="0.02"/>
        <path fill="#656b6b" d="M 2.021 1.139 L 2.021 6.639 L 2.044 7.553 C 2.3409998 20.903 9.519 29.539 20.777 30.09 L 21.705 30.139 L 42.021 30.139 L 42.021 1.1389999 L 2.021 1.1389999 z " fill-opacity="0.03"/>
        <path fill="#656b6b" d="M 3.021 1.139 L 3.021 6.639 L 3.044 7.528 C 3.3279998 20.305 10.142 28.569 20.826 29.091 L 21.75 29.139 L 42.021 29.139 L 42.021 1.1389999 L 3.021 1.1389999 z " fill-opacity="0.05"/>
        <path fill="#656b6b" d="M 4.021 1.139 L 4.021 6.639 L 4.0429997 7.502 C 4.3149996 19.707 10.764999 27.598 20.875 28.092 L 21.795 28.139 L 42.022 28.139 L 42.022 1.1389999 L 4.021 1.1389999 z " fill-opacity="0.06"/>
        <path fill="#656b6b" d="M 5.021 1.139 L 5.021 6.639 L 5.042 7.475 C 5.302 19.11 11.3880005 26.627 20.923 27.092001 L 21.839 27.139002 L 42.021 27.139002 L 42.021 1.1390018 L 5.021 1.1390018 z " fill-opacity="0.1"/>
        <path fill="#656b6b" d="M 6.021 1.139 L 6.021 6.639 L 6.042 7.45 C 6.2879996 18.513 12.01 25.657001 20.972 26.096 L 21.884 26.140001 L 42.021 26.140001 L 42.021 1.1400013 L 6.021 1.139 L 6.021 1.139 z " fill-opacity="0.1"/>
        <path fill="#656b6b" d="M 7.021 1.139 L 7.021 6.639 C 7.021 6.9049997 7.038 7.164 7.042 7.426 C 7.2549996 16.965 11.709 24.641 21.021 25.094 C 21.31 25.11 21.585 25.139 21.884 25.139 L 42.021 25.139 L 42.021 1.1389999 L 7.021 1.1389999 z " fill-opacity="0.1"/>
        <path fill="#52a1a4" d="M 21.521 23.139 C 12.423 23.139 5.021 15.7369995 5.021 6.639 L 5.021 1.1389999 L 4.021 1.1389999 L 4.021 6.639 C 4.021 16.305 11.857 24.139 21.521 24.139 L 42.021 24.139 L 42.021 23.139 L 21.521 23.139 z "/>
        <path fill="#52a1a4" d="M 5.021 1.139 L 5.021 6.639 C 5.021 15.7369995 12.423 23.139 21.521 23.139 L 42.021 23.139 L 42.021 1.1389999 L 5.021 1.1389999 z "/>
        <rect x="-1.979" width="44" fill="none" y="1.139" height="32"/>
    </g>
</svg>
