<?xml version="1.0" encoding="UTF-8"?>
<svg xmlns="http://www.w3.org/2000/svg" xmlns:xlink="http://www.w3.org/1999/xlink" contentScriptType="text/ecmascript" width="44" baseProfile="tiny" zoomAndPan="magnify" contentStyleType="text/css" viewBox="-1.979 1.139 44 60" height="60" preserveAspectRatio="xMidYMid meet" version="1.1">
    <g>
        <path fill="#656b6b" d="M 40.021 61.139 L 40.021 23.0 L 39.962 21.726 C 39.363 9.369 29.975 1.46 15.464 1.139 L -1.979 1.139 L -1.979 61.139 L 40.021 61.139 z " fill-opacity="0.01"/>
        <path fill="#656b6b" d="M 39.021 61.139 L 39.021 23.0 L 38.964 21.785 C 38.392 9.995 29.378 2.45 15.443 2.139 L -1.979 2.139 L -1.979 61.139 L 39.021 61.139 z " fill-opacity="0.02"/>
        <path fill="#656b6b" d="M 38.021 61.139 L 38.021 23.0 L 37.966 21.847 C 37.421 10.622 28.783 3.435 15.419 3.139 L -1.979 3.139 L -1.979 61.139 L 38.021 61.139 z " fill-opacity="0.03"/>
        <path fill="#656b6b" d="M 37.021 61.139 L 37.021 23.0 L 36.969 21.906 C 36.451 11.25 28.185 4.424 15.398 4.139 L -1.979 4.139 L -1.979 61.139 L 37.021 61.139 z " fill-opacity="0.05"/>
        <path fill="#656b6b" d="M 36.021 61.139 L 36.021 23.0 L 35.971 21.968 C 35.48 11.878 27.587 5.41 15.375 5.139 L -1.979 5.139 L -1.979 61.139 L 36.021 61.139 z " fill-opacity="0.06"/>
        <path fill="#656b6b" d="M 35.021 61.139 L 35.021 23.0 L 34.973 22.028 C 34.509 12.505 26.992 6.398 15.352999 6.1379995 L -1.979 6.1379995 L -1.979 61.138 L 35.021 61.138 z " fill-opacity="0.1"/>
        <path fill="#656b6b" d="M 34.021 61.139 L 34.021 23.0 L 33.975 22.091 C 33.538 13.127999 26.394999 7.384 15.330999 7.1379995 L -1.979 7.1379995 L -1.979 61.138 L 34.021 61.138 z " fill-opacity="0.1"/>
        <path fill="#656b6b" d="M 33.021 61.139 L 33.021 23.0 C 33.021 22.702 32.99 22.427 32.976 22.138 C 32.523003 12.825001 24.847002 8.351001 15.308002 8.1380005 C 15.25 8.137 8.516 8.137 -1.979 8.137 L -1.979 61.139 L 33.021 61.139 z " fill-opacity="0.1"/>
        <path fill="#52a1a4" d="M 14.521 6.139 C 23.619 6.139 31.021 13.54 31.021 22.639 L 31.021 61.139 L 32.021 61.139 L 32.021 22.639 C 32.021 12.975 24.187 5.139 14.521 5.139 L -1.9790001 5.139 L -1.9790001 6.139 C 8.103 6.139 14.521 6.139 14.521 6.139 z "/>
        <path fill="#52a1a4" d="M 31.021 61.139 L 31.021 22.639 C 31.021 13.54 23.619 6.139 14.521 6.139 C 14.521 6.139 8.103 6.139 -1.9790001 6.139 L -1.9790001 61.139 L 31.021 61.139 z "/>
        <rect x="-1.979" width="44" fill="none" y="1.139" height="60"/>
    </g>
</svg>
