<?xml version="1.0" encoding="UTF-8"?>
<svg xmlns="http://www.w3.org/2000/svg" xmlns:xlink="http://www.w3.org/1999/xlink" contentScriptType="text/ecmascript" width="24" baseProfile="tiny" zoomAndPan="magnify" contentStyleType="text/css" viewBox="-0.5 0 24 24" height="24" preserveAspectRatio="xMidYMid meet" version="1.0">
    <g stroke-opacity="0.7" fill-opacity="0.7">
        <path fill="#656b6b" d="M 2.5 0.0 L 2.5 6.0 C 2.5 10.962999 6.537 15.0 11.5 15.0 L 23.5 15.0 L 23.5 0.0 L 2.5 0.0 z " fill-opacity="0.01"/>
        <path fill="#656b6b" d="M 3.5 0.0 L 3.5 6.0 C 3.5 10.412001 7.089 14.0 11.5 14.0 L 23.5 14.0 L 23.5 0.0 L 3.5 0.0 z " fill-opacity="0.03"/>
        <path fill="#656b6b" d="M 4.5 0.0 L 4.5 6.0 C 4.5 9.858 7.641 13.0 11.5 13.0 L 23.5 13.0 L 23.5 0.0 L 4.5 0.0 z " fill-opacity="0.05"/>
        <path fill="#656b6b" d="M 5.5 0.0 L 5.5 6.0 C 5.5 9.309999 8.191 12.0 11.5 12.0 L 23.5 12.0 L 23.5 0.0 L 5.5 0.0 z " fill-opacity="0.07"/>
        <path fill="#656b6b" d="M 6.5 0.0 L 6.5 6.0 C 6.5 8.7630005 8.738 11.0 11.5 11.0 L 23.5 11.0 L 23.5 0.0 L 6.5 0.0 z " fill-opacity="0.11"/>
        <rect x="5.5" width="18" fill="#5f9ea0" height="10"/>
    </g>
</svg>
