<?xml version="1.0" encoding="UTF-8"?>
<svg xmlns="http://www.w3.org/2000/svg" xmlns:xlink="http://www.w3.org/1999/xlink" contentScriptType="text/ecmascript" width="44" baseProfile="tiny" zoomAndPan="magnify" contentStyleType="text/css" viewBox="-1.5 -1.501 44 32" height="32" preserveAspectRatio="xMidYMid meet" version="1.1">
    <path fill="#656b6b" d="M 40.5 30.499 L 40.5 29.599 C 40.5 23.960001 38.302002 18.661001 34.311 14.673001 C 30.317001 10.686001 25.012001 8.492001 19.373001 8.500002 L -1.5 8.500002 L -1.5 30.500002 L 40.5 30.499 L 40.5 30.499 z " fill-opacity="0.01"/>
    <path fill="#656b6b" d="M 39.5 30.499 L 39.5 29.599 C 39.5 24.228 37.406 19.179 33.604 15.380001 C 29.799 11.582001 24.748001 9.493001 19.375 9.500001 L -1.5 9.500001 L -1.5 30.5 L 39.5 30.499 L 39.5 30.499 z " fill-opacity="0.02"/>
    <path fill="#656b6b" d="M 38.5 30.499 L 38.5 29.599 C 38.5 24.495 36.51 19.699001 32.896 16.089 C 29.281 12.479001 24.478 10.494001 19.372 10.5 L -1.5 10.5 L -1.5 30.5 L 38.5 30.499 L 38.5 30.499 z " fill-opacity="0.03"/>
    <path fill="#656b6b" d="M 37.5 30.499 L 37.5 29.599 C 37.5 24.763 35.613 20.216 32.189 16.796001 C 28.762999 13.375002 24.21 11.494001 19.373 11.500002 L -1.5 11.500002 L -1.5 30.500002 L 37.5 30.499 L 37.5 30.499 z " fill-opacity="0.06"/>
    <path fill="#656b6b" d="M 36.5 30.499 L 36.5 29.599 C 36.5 20.148 28.822 12.489 19.375 12.499001 L -1.5 12.499001 L -1.5 30.499 L 36.5 30.499 z " fill-opacity="0.05"/>
    <path fill="#656b6b" d="M 35.5 30.499 L 35.5 29.599 C 35.5 20.148 27.75 13.499001 18.75 13.499001 L -1.5 13.499001 L -1.5 30.499 L 35.5 30.499 z " fill-opacity="0.1"/>
    <path fill="#656b6b" d="M 34.5 30.499 L 34.5 29.599 C 34.5 20.148 26.75 14.499001 17.75 14.499001 L -1.5 14.499001 L -1.5 30.499 L 34.5 30.499 z " fill-opacity="0.1"/>
    <path fill="#656b6b" d="M 33.5 30.499 L 33.5 29.599 C 33.5 20.148 25.5 15.499001 16.875 15.499001 L -1.5 15.499001 L -1.5 30.499 L 33.5 30.499 z " fill-opacity="0.1"/>
    <path fill="#52a1a4" d="M 32.5 30.499 L 32.5 29.599 C 32.5 20.148 24.842 12.489 15.395 12.499001 L -1.5 12.499001 L -1.5 30.499 L 32.5 30.499 z "/>
</svg>
