<?xml version="1.0" encoding="UTF-8"?>
<svg xmlns="http://www.w3.org/2000/svg" xmlns:xlink="http://www.w3.org/1999/xlink" contentScriptType="text/ecmascript" width="34" baseProfile="tiny" zoomAndPan="magnify" contentStyleType="text/css" viewBox="-1 -1 34 86" height="86" preserveAspectRatio="xMidYMid meet" version="1.1">
    <g>
        <rect x="-1" width="34" fill="none" y="-1" height="86"/>
        <path fill="#ffffff" d="M 13.527 39.819 C 13.892 39.765 14.573 39.739 15.573 39.739 C 18.625 39.739 20.956 41.276997 22.57 44.331997 C 24.183 47.391 24.992 51.785995 24.992 57.526997 C 24.992 70.631996 21.547 77.183 14.661 77.183 C 12.769 77.183 10.706 76.597 8.464001 75.417 L 8.464001 69.446 C 11.069 70.717 12.992001 71.356 14.235001 71.356 C 16.357 71.356 17.93 70.295006 18.956001 68.170006 C 19.980001 66.047005 20.494001 62.571007 20.494001 57.756004 C 20.494001 49.620003 18.273 45.563004 13.831001 45.563004 C 12.698001 45.563004 11.219002 45.707005 9.395001 45.992004 L 9.395001 18.278 L 24.323002 18.278 L 24.323002 24.14 L 13.527 24.14 L 13.527 39.819 z "/>
    </g>
</svg>
