<?xml version="1.0" encoding="UTF-8"?>
<svg xmlns="http://www.w3.org/2000/svg" xmlns:xlink="http://www.w3.org/1999/xlink" contentScriptType="text/ecmascript" width="100" baseProfile="tiny" zoomAndPan="magnify" contentStyleType="text/css" viewBox="7 -62 100 112" height="112" preserveAspectRatio="xMidYMid meet" version="1.1">
    <g>
        <g>
            <path fill="#52a2a5" d="M 7.877 -12.418 C 7.877 24.008 36.704998 37.582 54.877 37.582 C 68.211 37.582 80.763 32.375 90.216995 22.922 C 99.67 13.469001 104.877 0.9180012 104.877 -12.413998 C 104.877 -30.585999 91.303 -59.413998 54.877 -59.413998 C 28.961 -59.417 7.877 -38.334 7.877 -12.418 z " fill-opacity="0.01"/>
            <path fill="#52a2a5" d="M 8.877 -12.418 C 8.877 23.279 37.092 36.582 54.877 36.582 C 67.945 36.582 80.244 31.478 89.509995 22.215 C 98.774994 12.949 103.87699 0.651001 103.87699 -12.416 C 103.87699 -30.201 90.57299 -58.416 54.87699 -58.416 C 29.513 -58.417 8.877 -37.781 8.877 -12.418 z " fill-opacity="0.04"/>
            <path fill="#52a2a5" d="M 9.877 -12.416 C 9.877 22.553001 37.48 35.584 54.877 35.584 C 81.345 35.584 102.877 14.050999 102.877 -12.416 C 102.877 -29.814001 89.851 -57.416 54.877 -57.416 C 30.064 -57.416 9.877 -37.229 9.877 -12.416 z " fill-opacity="0.08"/>
            <path fill="#52a2a5" d="M 10.877 -12.416 C 10.877 21.824001 37.865 34.584 54.877 34.584 C 80.793 34.584 101.877 13.5 101.877 -12.416 C 101.877 -29.428 89.117 -56.416 54.877 -56.416 C 30.614 -56.416 10.877 -36.678 10.877 -12.416 z " fill-opacity="0.12"/>
            <path fill="#52a2a5" d="M 11.877 -12.416 C 11.877 21.096 38.252 33.584 54.877 33.584 C 80.241 33.584 100.877 12.9470005 100.877 -12.416 C 100.877 -29.041 88.394 -55.416 54.877 -55.416 C 31.166 -55.416 11.877 -36.125 11.877 -12.416 z " fill-opacity="0.16"/>
            <path fill="#52a2a5" d="M 12.877 -12.416 C 12.877 18.584 36.752 32.584 54.877 32.584 C 79.752 32.584 99.877 12.459 99.877 -12.416 C 99.877 -30.416 85.877 -54.416 54.877 -54.416 C 31.752 -54.416 12.877 -35.541 12.877 -12.416 z " fill-opacity="0.2"/>
            <g>
                <circle r="44" cx="56.377" cy="-10.916"/>
                <g>
                    <rect x="90.377" y="-11.416" fill-opacity="0.6" fill="#52a2a5" width="8" height="1"/>
                    <rect x="14.377" y="-11.416" fill-opacity="0.6" fill="#52a2a5" width="8" height="1"/>
                </g>
                <g>
                    <rect x="55.877" y="-52.916" fill-opacity="0.8" fill="#52a2a5" width="1" height="8"/>
                    <rect x="55.877" y="23.084" fill-opacity="0.6" fill="#52a2a5" width="1" height="8"/>
                </g>
            </g>
        </g>
        <rect x="7" width="100" fill="none" y="-62" height="112"/>
    </g>
</svg>
