<?xml version="1.0" encoding="UTF-8"?>
<svg xmlns="http://www.w3.org/2000/svg" xmlns:xlink="http://www.w3.org/1999/xlink" contentScriptType="text/ecmascript" width="44" baseProfile="tiny" zoomAndPan="magnify" contentStyleType="text/css" viewBox="-1 -1 44 32" height="32" preserveAspectRatio="xMidYMid meet" version="1.0">
    <g stroke-opacity="0.7" fill-opacity="0.7">
        <path fill="#656b6b" d="M 10.875 30.999 L 12.279 30.980001 L 13.437 30.841002 C 17.333 30.068 20.0 26.849 20.0 22.999 C 20.0 22.999 20.0 22.347 20.0 21.739 C 31.278 20.649 40.0 11.267 40.0 -0.11599922 L 40.0 -1.0 L -1.0 -1.0 L -1.0 22.001 C 0.57000005 22.001 1.5209999 22.001 1.76 22.001 C 2.309 22.55 10.875 30.999 10.875 30.999 z " fill-opacity="0.01"/>
        <path fill="#656b6b" d="M 11.284 30.111 L 12.14 29.991 L 13.318001 29.848999 C 16.695002 29.175 19.002 26.366 19.002 22.998999 C 19.002 22.998999 19.002 21.766998 19.002 20.883999 C 30.107 20.292 39.002 11.117999 39.002 -0.11600113 L 39.002 -1.0 L -1.0 -1.0 L -1.0 21.001 C 1.0179999 21.001 2.121 21.001 2.174 21.001 C 2.723 21.55 11.284 30.111 11.284 30.111 z " fill-opacity="0.03"/>
        <path fill="#656b6b" d="M 11.639 29.052 L 12.002 29.001 L 13.198 28.855 C 16.025 28.292 18.001999 25.882 18.001999 23.001 C 18.001999 23.001 18.001999 21.111 18.001999 19.991 C 29.038998 19.928999 38.002 10.94 38.002 -0.11400032 L 38.002 -1.0 L -1.0 -1.0 L -1.0 20.001 C 1.2750001 20.001 2.532 20.001 2.588 20.001 C 3.137 20.55 11.639 29.052 11.639 29.052 z " fill-opacity="0.05"/>
        <path fill="#656b6b" d="M 12.002 28.001 C 12.002 28.001 12.377 28.001 13.002 27.876 C 15.502 27.376 17.001999 25.251 17.001999 23.001 C 17.001999 22.001 17.001999 19.001 17.001999 19.001 L 17.897 19.001 C 28.432 19.001 37.002 10.426999 37.002 -0.11400032 L 37.002 -1.0 L -1.0 -1.0 L -1.0 19.001 L 3.0019999 19.001 L 12.002 28.001 z " fill-opacity="0.07"/>
        <path fill="#656b6b" d="M 12.377 27.001 C 12.377 27.001 12.881 26.901999 13.002 26.876 C 14.127 26.626 16.001999 25.376 16.001999 23.001 C 16.001999 22.001 16.001999 18.001 16.001999 18.001 L 17.897 18.001 C 27.879 18.001 36.002 9.874 36.002 -0.11400032 L 36.002 -1.0 L -1.0 -1.0 L -1.0 18.001 L 3.3769999 18.001 L 12.377 27.001 z " fill-opacity="0.11"/>
        <path fill="#5f9ea0" d="M 13.003 29.001 L 15.002 29.001 L 15.002 17.014 L 17.897 17.014 C 27.342999 17.014 35.002 9.355 35.002 -0.09799957 L 35.002 -1.0 L -1.0 -1.0 L -1.0 17.001 L 1.003 17.001 L 13.003 29.001 z "/>
    </g>
</svg>
