<?xml version="1.0" encoding="UTF-8"?>
<svg xmlns="http://www.w3.org/2000/svg" xmlns:xlink="http://www.w3.org/1999/xlink" contentScriptType="text/ecmascript" width="44" baseProfile="tiny" zoomAndPan="magnify" contentStyleType="text/css" viewBox="-0.501 -0.501 44 32" height="32" preserveAspectRatio="xMidYMid meet" version="1.1">
    <path fill="#656b6b" d="M 7.683 15.675 C 3.6950002 19.659 1.4990001 24.96 1.4990001 30.598 L 1.4990001 31.498 L 43.499 31.498 L 43.499 9.497999 L 42.524002 9.497999 L 32.448 -0.5020008 L 22.499 -0.5020008 L 21.499 -0.5020008 C 21.499 -0.5020008 21.499 8.121999 21.499 9.61 C 16.276 9.882 11.394 11.967 7.683 15.675 z " fill-opacity="0.01"/>
    <path fill="#656b6b" d="M 43.499 10.499 L 42.112 10.499 L 32.036 0.4989996 L 22.499 0.4989996 C 22.499 0.4989996 22.499 8.903999 22.499 10.509 C 17.169 10.538 12.160001 12.613 8.39 16.382 C 4.5910006 20.177 2.4990005 25.226 2.4990005 30.598999 L 2.4990005 31.498999 L 43.499 31.498999 L 43.499 10.499 z " fill-opacity="0.02"/>
    <path fill="#656b6b" d="M 43.499 11.499 L 41.701 11.499 L 31.624 1.4989996 L 23.499 1.4989996 C 23.499 1.4989996 23.499 9.848 23.499 11.499 C 23.054 11.499 22.606 11.499 22.606 11.499 C 17.501001 11.499 12.704 13.483999 9.093001 17.088 C 5.486001 20.696 3.4970012 25.493 3.4970012 30.598999 L 3.4970012 31.498999 L 43.497 31.498999 L 43.499 11.499 L 43.499 11.499 z " fill-opacity="0.03"/>
    <path fill="#656b6b" d="M 43.499 12.499 L 41.288002 12.499 L 31.249002 2.4989996 L 24.499002 2.4989996 C 24.499002 2.4989996 24.499002 10.818 24.499002 12.499 C 23.644003 12.499 22.606003 12.499 22.606003 12.499 C 17.768003 12.499 13.221003 14.379999 9.800003 17.796999 C 6.3810034 21.213999 4.497003 25.761 4.497003 30.598999 L 4.497003 31.498999 L 43.497 31.498999 L 43.499 12.499 L 43.499 12.499 z " fill-opacity="0.06"/>
    <path fill="#656b6b" d="M 43.499 13.499 L 40.874 13.499 L 30.874 3.4989996 L 25.499 3.4989996 L 25.499 13.499 L 22.729 13.499 C 13.282001 13.499 5.4990005 21.147 5.4990005 30.598999 L 5.4990005 31.498999 L 43.499 31.498999 L 43.499 13.499 z " fill-opacity="0.05"/>
    <path fill="#656b6b" d="M 43.499 14.499 L 40.499 14.499 L 30.499 4.4989996 L 26.499 4.4989996 L 26.499 14.499 L 22.729 14.499 C 13.282001 14.499 6.4990005 21.147 6.4990005 30.598999 L 6.4990005 31.498999 L 43.499 31.498999 L 43.499 14.499 z " fill-opacity="0.1"/>
    <path fill="#656b6b" d="M 43.499 15.499 L 40.124 15.499 L 30.124 5.4989996 L 27.499 5.4989996 L 27.499 15.499 L 22.729 15.499 C 13.282001 15.499 7.4990005 21.147 7.4990005 30.598999 L 7.4990005 31.498999 L 43.499 31.498999 L 43.499 15.499 z " fill-opacity="0.1"/>
    <path fill="#656b6b" d="M 43.499 16.499 L 39.624 16.499 L 29.624 6.4990005 L 28.499 6.4990005 L 28.499 16.499 L 23.749 16.499 C 14.301001 16.499 8.499001 21.147 8.499001 30.599 L 8.499001 31.499 L 43.499 31.499 L 43.499 16.499 z " fill-opacity="0.1"/>
    <path fill="#52a1a4" d="M 43.499 13.499 L 39.499 13.499 L 27.498001 1.4989996 L 25.499 1.4989996 L 25.499 13.499 L 22.604 13.499 C 13.157001 13.499 5.4990005 21.147 5.4990005 30.598999 L 5.4990005 31.498999 L 43.499 31.498999 L 43.499 13.499 z "/>
</svg>
