<?xml version="1.0" encoding="UTF-8"?>
<svg xmlns="http://www.w3.org/2000/svg" xmlns:xlink="http://www.w3.org/1999/xlink" contentScriptType="text/ecmascript" width="44" baseProfile="tiny" zoomAndPan="magnify" contentStyleType="text/css" viewBox="-0.5 -0.5 44 32" height="32" preserveAspectRatio="xMidYMid meet" version="1.1">
    <path fill="#656b6b" d="M 20.49 24.908 C 32.5 23.002 41.498 12.594 41.498 0.385 L 41.498 -0.5 L -0.5 -0.5 L -0.5 25.5 C 0.07999998 25.5 0.39999998 25.5 0.42799997 25.5 C 0.965 26.039 6.498 31.5 6.498 31.5 L 9.805 31.5 C 14.637 31.332 18.743 29.363 20.49 24.908 z " fill-opacity="0.01"/>
    <path fill="#656b6b" d="M 19.771 24.045 C 31.623001 22.461 40.498 12.431 40.498 0.3770008 L 40.498 -0.5 L -0.5 -0.5 L -0.5 24.492 C 0.348 24.492 0.809 24.492 0.842 24.492 C 1.38 25.031 7.85 31.5 7.85 31.5 L 9.8 31.49 C 14.406 31.33 18.311 28.357 19.771 24.045 z " fill-opacity="0.02"/>
    <path fill="#656b6b" d="M 8.262 30.498 L 9.795 30.49 C 14.198999 30.338 17.869999 27.359 19.025 23.179 C 30.736 21.937 39.498 12.290001 39.498 0.37400055 L 39.498 -0.5 L -0.5 -0.5 L -0.5 23.492 C 0.61300004 23.492 1.218 23.492 1.256 23.492 C 1.793 24.031 8.262 30.498 8.262 30.498 z " fill-opacity="0.03"/>
    <path fill="#656b6b" d="M 8.674 29.5 L 9.789 29.494 C 14.014 29.348 17.421999 26.365 18.242 22.306 C 29.654 21.449 38.498 12.005 38.498 0.37800026 L 38.498 -0.5 L -0.5 -0.5 L -0.5 22.496 C 0.873 22.496 1.6270001 22.496 1.6700001 22.496 C 2.208 23.035 8.674 29.5 8.674 29.5 z " fill-opacity="0.06"/>
    <path fill="#656b6b" d="M 9.086 28.5 L 9.784 28.496 C 13.795 28.355 16.964 25.314001 17.408 21.418 C 28.549 20.99 37.498 11.754 37.498 0.38299942 L 37.498 -0.5 L -0.5 -0.5 L -0.5 21.498 C 1.139 21.498 2.037 21.498 2.084 21.498 C 2.621 22.037 9.086 28.5 9.086 28.5 z " fill-opacity="0.05"/>
    <path fill="#656b6b" d="M 9.498 27.492 C 9.498 27.492 9.666 27.494001 9.748 27.492 C 13.507 27.359001 16.498001 24.287 16.498001 20.492 L 16.623001 20.492 C 27.498001 20.492 36.498 11.469001 36.498 0.3770008 L 36.498 -0.5 L -0.5 -0.5 L -0.5 20.492 L 2.498 20.492 L 9.498 27.492 z " fill-opacity="0.1"/>
    <path fill="#656b6b" d="M 8.998 26.494 L 9.498 26.494 C 13.123 26.494 15.498 23.494 15.498 20.492 C 15.498 19.494001 15.498 19.492 15.498 19.492 L 16.393 19.492 C 26.928 19.492 35.498 10.918 35.498 0.3770008 L 35.498 -0.5 L -0.5 -0.5 L -0.5 19.492 C 1.127 19.492 1.9979999 19.492 1.9979999 19.492 L 8.998 26.494 z " fill-opacity="0.1"/>
    <path fill="#656b6b" d="M 9.623 25.492 C 9.623 25.492 9.836 25.484001 9.998 25.471 C 12.927 25.205 14.498 22.625 14.498 20.494 C 14.498 19.491999 14.498 18.491999 14.498 18.491999 L 16.393 18.491999 C 26.376 18.491999 34.498 10.364999 34.498 0.3769989 L 34.498 -0.5 L -0.5 -0.5 L -0.5 18.492 L 2.623 18.492 L 9.623 25.492 z " fill-opacity="0.1"/>
    <path fill="#52a1a4" d="M 11.499 29.492 L 13.497999 29.492 L 13.497999 17.492 L 16.393 17.492 C 25.84 17.492 33.498 9.846001 33.498 0.39100075 L 33.498 -0.5 L -0.5 -0.5 L -0.5 17.494 L 9.497 27.49 L 11.499 29.492 z "/>
</svg>
