<?xml version="1.0" encoding="UTF-8"?>
<svg xmlns="http://www.w3.org/2000/svg" xmlns:xlink="http://www.w3.org/1999/xlink" contentScriptType="text/ecmascript" width="44" baseProfile="tiny" zoomAndPan="magnify" contentStyleType="text/css" viewBox="-1.979 1.139 44 32" height="32" preserveAspectRatio="xMidYMid meet" version="1.1">
    <g>
        <path fill="#656b6b" d="M -1.979 30.139 C 8.682 30.139 14.916 30.139 14.916 30.139 C 28.76 30.139 40.021 18.806 40.021 4.054001 L 40.021 1.139 L -1.9790001 1.139 L -1.9790001 30.139 z " fill-opacity="0.01"/>
        <path fill="#656b6b" d="M -1.979 29.139 C 8.682 29.139 14.916 29.139 14.916 29.139 C 28.209 29.139 39.021 18.218 39.021 4.054001 L 39.021 1.139 L -1.9790001 1.139 L -1.9790001 29.139 z " fill-opacity="0.02"/>
        <path fill="#656b6b" d="M -1.979 28.139 C 8.682 28.139 14.916 28.139 14.916 28.139 C 27.656 28.139 38.021 17.631 38.021 4.054001 L 38.021 1.139 L -1.9790001 1.139 L -1.9790001 28.139 z " fill-opacity="0.03"/>
        <path fill="#656b6b" d="M -1.979 27.139 C 8.682 27.139 14.916 27.139 14.916 27.139 C 27.105 27.139 37.021 17.041 37.021 4.054001 L 37.021 1.139 L -1.9790001 1.139 L -1.9790001 27.139 z " fill-opacity="0.06"/>
        <path fill="#656b6b" d="M -1.979 26.139 L 14.916 26.139 C 26.554 26.139 36.021 16.453 36.021 4.054001 L 36.021 1.139 L -1.9790001 1.139 L -1.9790001 26.139 z " fill-opacity="0.05"/>
        <path fill="#656b6b" d="M -1.979 25.139 L 14.916 25.139 C 26.002 25.139 35.021 15.868 35.021 4.054001 L 35.021 1.139 L -1.9790001 1.139 L -1.9790001 25.139 z " fill-opacity="0.1"/>
        <path fill="#656b6b" d="M -1.979 24.139 C 8.679 24.139 14.916 24.139 14.916 24.139 C 25.451 24.139 34.021 15.284 34.021 4.054001 L 34.021 1.139 L -1.9790001 1.139 L -1.9790001 24.139 z " fill-opacity="0.1"/>
        <path fill="#656b6b" d="M -1.979 23.139 L 14.916 23.139 C 24.899 23.139 33.021 14.694 33.021 4.054001 L 33.021 1.139 L -1.9790001 1.139 L -1.9790001 23.139 z " fill-opacity="0.1"/>
        <path fill="#52a1a4" d="M -1.979 21.639 L 14.466 21.639 C 23.883999 21.639 31.521 13.7 31.521 3.7280006 L 31.521 1.139 L -1.9790001 1.139 L -1.9790001 21.639 z "/>
        <path fill="#52a1a4" d="M 31.021 3.727 C 31.021 13.33 23.596 21.137999 14.466 21.137999 L -1.979 21.137999 L -1.979 22.137999 L 14.466 22.137999 C 24.144001 22.137999 32.021 13.8759985 32.021 3.7269993 L 32.021 1.139 L 31.021 1.139 L 31.021 3.727 z "/>
        <rect x="-1.979" width="44" fill="none" y="1.139" height="32"/>
    </g>
</svg>
