<?xml version="1.0" encoding="UTF-8"?>
<svg xmlns="http://www.w3.org/2000/svg" xmlns:xlink="http://www.w3.org/1999/xlink" contentScriptType="text/ecmascript" width="24" baseProfile="tiny" zoomAndPan="magnify" contentStyleType="text/css" viewBox="-0.5 -0.5 24 24" height="24" preserveAspectRatio="xMidYMid meet" version="1.1">
    <path fill="#656b6b" d="M 1.5 -0.5 L 1.5 5.5 C 1.5 12.117001 6.883 17.5 13.5 17.5 L 23.5 17.5 L 23.5 -0.5 L 1.5 -0.5 z " fill-opacity="0.01"/>
    <path fill="#656b6b" d="M 2.5 -0.5 L 2.5 5.5 C 2.5 11.566 7.436 16.5 13.5 16.5 L 23.5 16.5 L 23.5 -0.5 L 2.5 -0.5 z " fill-opacity="0.02"/>
    <path fill="#656b6b" d="M 3.5 -0.5 L 3.5 5.5 C 3.5 11.014 7.986 15.5 13.5 15.5 L 23.5 15.5 L 23.5 -0.5 L 3.5 -0.5 z " fill-opacity="0.03"/>
    <path fill="#656b6b" d="M 4.5 -0.5 L 4.5 5.5 C 4.5 10.462999 8.537001 14.5 13.5 14.5 L 23.5 14.5 L 23.5 -0.5 L 4.5 -0.5 z " fill-opacity="0.06"/>
    <path fill="#656b6b" d="M 5.5 -0.5 L 5.5 5.5 C 5.5 9.912001 9.09 13.5 13.5 13.5 L 23.5 13.5 L 23.5 -0.5 L 5.5 -0.5 z " fill-opacity="0.05"/>
    <path fill="#656b6b" d="M 6.5 -0.5 L 6.5 5.5 C 6.5 9.359 9.641 12.5 13.5 12.5 L 23.5 12.5 L 23.5 -0.5 L 6.5 -0.5 z " fill-opacity="0.1"/>
    <path fill="#656b6b" d="M 7.5 -0.5 L 7.5 5.5 C 7.5 8.809 10.191 11.5 13.5 11.5 L 23.5 11.5 L 23.5 -0.5 L 7.5 -0.5 z " fill-opacity="0.1"/>
    <path fill="#656b6b" d="M 8.5 -0.5 L 8.5 5.5 C 8.5 8.262 10.738 10.5 13.5 10.5 L 23.5 10.5 L 23.5 -0.5 L 8.5 -0.5 z " fill-opacity="0.1"/>
    <rect x="4.5" y="-0.5" fill-opacity="0.05" fill="#656b6b" width="19" height="11"/>
    <rect x="5.5" width="18" fill="#52a1a4" y="-0.5" height="10"/>
</svg>
