<?xml version="1.0" encoding="UTF-8"?>
<svg xmlns="http://www.w3.org/2000/svg" xmlns:xlink="http://www.w3.org/1999/xlink" contentScriptType="text/ecmascript" width="34" baseProfile="tiny" zoomAndPan="magnify" contentStyleType="text/css" viewBox="-1 -1 34 86" height="86" preserveAspectRatio="xMidYMid meet" version="1.1">
    <g>
        <rect x="-1" width="34" fill="none" y="-1" height="86"/>
        <path fill="#ffffff" d="M 25.927 77.184 L 8.072 77.184 L 8.072 73.74 C 8.072 71.004 8.254 68.395996 8.620999 65.931 C 8.988999 63.46 9.518 61.161 10.209 59.038 C 10.898999 56.91 11.693999 54.996998 12.589 53.302 C 13.485 51.602997 14.764 49.439 16.428 46.8 C 18.642 43.298 20.007 40.687 20.521 38.931 C 21.037 37.184 21.292 35.503 21.292 33.883 C 21.292 30.649 20.81 28.189999 19.842 26.518 C 18.876 24.848 17.491 24.014 15.685999 24.014 C 13.781999 24.014 11.546 24.901 8.978999 26.676 L 8.978999 20.566 C 11.518999 18.976 14.014999 18.183 16.467999 18.183 C 19.543999 18.183 21.887 19.477001 23.501999 22.058 C 25.116999 24.642 25.925 28.431 25.925 33.408 C 25.925 35.634003 25.696 37.754 25.237 39.768 C 24.778 41.792 24.094 43.733 23.184 45.589 C 22.274 47.442 20.958 49.692 19.241 52.318 C 17.434 55.139 16.095 57.421 15.219999 59.149002 C 14.344999 60.891003 13.655999 62.792004 13.146999 64.846 C 12.638999 66.91 12.362999 69.034004 12.322 71.229004 L 25.924 71.229004 L 25.924 77.18201 L 25.927 77.18201 z "/>
    </g>
</svg>
