<?xml version="1.0" encoding="UTF-8"?>
<svg xmlns="http://www.w3.org/2000/svg" xmlns:xlink="http://www.w3.org/1999/xlink" contentScriptType="text/ecmascript" width="44" baseProfile="tiny" zoomAndPan="magnify" contentStyleType="text/css" viewBox="-1 -1 44 32" height="32" preserveAspectRatio="xMidYMid meet" version="1.0">
    <g stroke-opacity="0.7" fill-opacity="0.7">
        <path fill="#656b6b" d="M 40.0 31.0 L 40.0 30.109 C 40.0 24.731998 37.906 19.678999 34.104 15.879999 C 30.305 12.0859995 25.258 10.000999 19.890999 10.007999 L -1.0 10.007999 L -1.0 31.0 L 40.0 31.0 z " fill-opacity="0.01"/>
        <path fill="#656b6b" d="M 39.0 31.0 L 39.0 30.109 C 39.0 25.0 37.01 20.197998 33.396 16.588 C 29.788 12.983999 24.992 11.001999 19.89 11.007999 L -1.0 11.007999 L -1.0 31.0 L 39.0 31.0 z " fill-opacity="0.03"/>
        <path fill="#656b6b" d="M 38.0 31.0 L 38.0 30.109 C 38.0 25.266998 36.113 20.715 32.689 17.296 C 29.269 13.879999 24.723999 12.002999 19.891998 12.008999 L -1.0 12.008999 L -1.0 31.0 L 38.0 31.0 z " fill-opacity="0.05"/>
        <path fill="#656b6b" d="M 37.0 31.0 L 37.0 30.109 C 37.0 20.657 29.342 12.997999 19.895 13.007999 L -1.0 13.007999 L -1.0 31.0 L 37.0 31.0 z " fill-opacity="0.07"/>
        <path fill="#656b6b" d="M 36.0 31.0 L 36.0 30.109 C 36.0 20.657 28.342 13.987 18.895 14.0 L -1.0 14.0 L -1.0 31.0 L 36.0 31.0 z " fill-opacity="0.11"/>
        <path fill="#5f9ea0" d="M 35.0 31.0 L 35.0 30.1 C 35.0 20.649 27.342 12.99 17.895 13.0 L -1.0 13.0 L -1.0 31.0 L 35.0 31.0 z "/>
    </g>
</svg>
