<?xml version="1.0" encoding="UTF-8"?>
<svg xmlns="http://www.w3.org/2000/svg" xmlns:xlink="http://www.w3.org/1999/xlink" contentScriptType="text/ecmascript" width="44" baseProfile="tiny" zoomAndPan="magnify" contentStyleType="text/css" viewBox="-1 0.646 44 60" height="60" preserveAspectRatio="xMidYMid meet" version="1.1">
    <g>
        <polygon fill="#656b6b" fill-opacity="0.01" points="-1,31.646 -1,60.646 43,60.646 43,0.646 36.348,0.646 1.346,31.646  "/>
        <polygon fill="#656b6b" fill-opacity="0.02" points="43,60.646 43,1.646 36.727,1.646 1.725,32.646 -1,32.646 -1,60.646  "/>
        <polygon fill="#656b6b" fill-opacity="0.03" points="43,60.646 43,2.646 37.105,2.646 2.104,33.646 -1,33.646 -1,60.646  "/>
        <polygon fill="#656b6b" fill-opacity="0.05" points="43,60.646 43,3.646 37.484,3.646 2.482,34.646 -1,34.646 -1,60.646  "/>
        <path fill="#656b6b" d="M 43.0 60.646 L 43.0 4.646 L 37.863 4.646 C 37.863 4.646 3.4199982 35.152 2.861 35.646 C 2.7840002 35.646 1.396 35.646 -1.0 35.646 L -1.0 60.646 L 43.0 60.646 z " fill-opacity="0.06"/>
        <path fill="#656b6b" d="M 43.0 60.646 L 43.0 5.646 L 38.242 5.646 C 38.242 5.646 3.7999992 36.152 3.2410011 36.646 C 3.160001 36.646 1.6380011 36.646 -0.99999905 36.646 L -0.99999905 60.646 L 43.0 60.646 z " fill-opacity="0.1"/>
        <path fill="#656b6b" d="M 43.0 60.646 L 43.0 6.646 L 38.621 6.646 C 38.621 6.646 4.1799965 37.152 3.6209984 37.646 C 3.5359983 37.646 1.8699983 37.646 -1.0000014 37.646 L -1.0000014 60.646 L 43.0 60.646 z " fill-opacity="0.1"/>
        <path fill="#656b6b" d="M 43.0 60.646 L 43.0 7.646 C 40.441 7.646 39.0 7.646 39.0 7.646 L 4.0 38.646 C 3.2979999 38.646 1.5569999 38.646 -1.0 38.646 L -1.0 60.646 L 43.0 60.646 z " fill-opacity="0.1"/>
        <path fill="#52a1a4" d="M 3.242 36.646 C 3.242 36.646 37.681 6.1410007 38.241 5.646 C 38.322002 5.646 40.031002 5.646 43.0 5.646 L 43.0 4.646 L 37.861 4.646 L 2.861 35.646 L -1.0 35.646 L -1.0 36.646 L 3.242 36.646 z "/>
        <path fill="#52a1a4" d="M 43.0 60.646 L 43.0 5.646 C 40.031 5.646 38.322 5.646 38.241 5.646 C 37.683002 6.141 3.2420006 36.646 3.2420006 36.646 L -1.0 36.646 L -1.0 60.646 L 43.0 60.646 z "/>
        <rect x="-1" width="44" fill="none" y="0.646" height="60"/>
    </g>
</svg>
