<?xml version="1.0" encoding="UTF-8"?>
<svg xmlns="http://www.w3.org/2000/svg" xmlns:xlink="http://www.w3.org/1999/xlink" contentScriptType="text/ecmascript" width="44" baseProfile="tiny" zoomAndPan="magnify" contentStyleType="text/css" viewBox="-1.479 0.993 44 32" height="32" preserveAspectRatio="xMidYMid meet" version="1.1">
    <g>
        <path fill="#656b6b" d="M 0.021 1.139 L 0.021 8.304 C 0.021 19.89 8.896 30.139 20.869 30.139 C 20.973 30.139 28.865 30.139 42.021 30.139 L 42.021 1.1389999 L 0.021 1.1389999 z " fill-opacity="0.01"/>
        <path fill="#656b6b" d="M 1.021 1.139 L 1.021 8.304 C 1.021 19.754 9.896 29.139 20.919 29.139 C 21.425001 29.139 29.23 29.139 42.021 29.139 L 42.021 1.1389999 L 1.021 1.1389999 z " fill-opacity="0.02"/>
        <path fill="#656b6b" d="M 2.021 1.139 L 2.021 8.304 C 2.021 19.088001 10.271 28.139 20.97 28.139 C 21.057999 28.139 28.911 28.139 42.021 28.139 L 42.021 1.1389999 L 2.021 1.1389999 z " fill-opacity="0.03"/>
        <path fill="#656b6b" d="M 3.021 1.139 L 3.021 8.304 C 3.021 18.242 10.521 27.143002 21.146 27.139 C 21.246 27.139 29.029 27.139 42.021 27.139 L 42.021 1.1389999 L 3.021 1.1389999 z " fill-opacity="0.06"/>
        <path fill="#656b6b" d="M 4.023 1.139 L 4.023 8.304 C 4.023 17.742 11.396 26.139 21.146 26.139 L 42.021 26.139 L 42.021 1.1389999 L 4.023 1.1389999 z " fill-opacity="0.05"/>
        <path fill="#656b6b" d="M 5.022 1.139 L 5.022 7.24 C 5.021 16.957 11.521 25.14 22.099998 25.138 L 42.020996 25.138 L 42.020996 1.1380005 L 5.022 1.1380005 z " fill-opacity="0.1"/>
        <path fill="#656b6b" d="M 6.022 1.139 L 6.022 6.174 C 6.021 15.761 11.146 24.139 23.128 24.139 C 23.206 24.139 30.212 24.139 42.021 24.139 L 42.021 1.1389999 L 6.022 1.1389999 z " fill-opacity="0.1"/>
        <path fill="#656b6b" d="M 7.022 1.139 L 7.022 5.118 C 7.021 14.562 10.896 23.139 24.146 23.139 L 42.021 23.139 L 42.021 1.1389999 L 7.022 1.1389999 z " fill-opacity="0.1"/>
        <path fill="#52a1a4" d="M 4.521 1.139 L 4.521 3.7280002 C 4.521 13.700001 12.156 21.639 21.578 21.639 L 42.021 21.639 L 42.021 1.1389999 L 4.521 1.1389999 z "/>
        <path fill="#52a1a4" d="M 21.578 21.139 C 12.445999 21.139 5.021 13.328 5.021 3.7280006 L 5.021 1.139 L 4.024 1.139 L 4.024 3.7280002 C 4.024 13.877001 11.898001 22.139 21.578001 22.139 L 42.021004 22.139 L 42.021004 21.139 L 21.578 21.139 z "/>
        <rect x="-1.979" width="44" fill="none" y="1.139" height="32"/>
    </g>
</svg>
