<?xml version="1.0" encoding="UTF-8"?>
<svg xmlns="http://www.w3.org/2000/svg" xmlns:xlink="http://www.w3.org/1999/xlink" contentScriptType="text/ecmascript" width="44" baseProfile="tiny" zoomAndPan="magnify" contentStyleType="text/css" viewBox="-1.979 1.139 44 60" height="60" preserveAspectRatio="xMidYMid meet" version="1.1">
    <g>
        <path fill="#656b6b" d="M 42.021 32.139 L 21.521 32.139 C 9.667 32.139 0.020999908 41.785 0.020999908 53.639 L 0.020999908 61.139 L 42.021 61.139 L 42.021 32.139 z " fill-opacity="0.01"/>
        <path fill="#656b6b" d="M 42.021 33.139 L 21.521 33.139 C 10.217 33.139 1.0209999 42.336 1.0209999 53.639 L 1.0209999 61.139 L 42.021 61.139 L 42.021 33.139 z " fill-opacity="0.02"/>
        <path fill="#656b6b" d="M 42.021 34.139 L 21.521 34.139 C 10.769 34.139 2.021 42.887 2.021 53.639 L 2.021 61.139 L 42.021 61.139 L 42.021 34.139 z " fill-opacity="0.03"/>
        <path fill="#656b6b" d="M 42.021 35.139 L 21.521 35.139 C 11.32 35.139 3.021 43.438 3.021 53.639 L 3.021 61.139 L 42.021 61.139 L 42.021 35.139 z " fill-opacity="0.05"/>
        <path fill="#656b6b" d="M 42.021 36.139 C 29.777 36.139 21.521 36.139 21.521 36.139 C 11.872 36.139 4.021 43.991 4.021 53.639 L 4.021 61.139 L 42.021 61.139 L 42.021 36.139 z " fill-opacity="0.06"/>
        <path fill="#656b6b" d="M 42.021 37.139 C 29.774 37.139 21.521 37.139 21.521 37.139 C 12.422 37.139 5.021 44.541 5.021 53.639 L 5.021 61.139 L 42.021 61.139 L 42.021 37.139 z " fill-opacity="0.1"/>
        <path fill="#656b6b" d="M 42.021 38.139 C 29.771 38.139 21.521 38.139 21.521 38.139 C 12.974 38.139 6.021 45.092 6.021 53.639 L 6.021 61.139 L 42.021 61.139 L 42.021 38.139 z " fill-opacity="0.1"/>
        <path fill="#656b6b" d="M 42.021 39.139 C 29.761 39.139 21.521 39.139 21.521 39.139 C 13.526 39.139 7.021 45.645 7.021 53.639 L 7.021 61.139 L 42.021 61.139 L 42.021 39.139 z " fill-opacity="0.1"/>
        <path fill="#52a1a4" d="M 5.021 53.639 C 5.021 44.541 12.422 37.139 21.521 37.139 L 42.021 37.139 L 42.021 36.139 L 21.521 36.139 C 11.856 36.139 4.021 43.975 4.021 53.639 L 4.021 61.139 L 5.021 61.139 L 5.021 53.639 z "/>
        <path fill="#52a1a4" d="M 42.021 37.139 L 21.521 37.139 C 12.422 37.139 5.021 44.541 5.021 53.639 L 5.021 61.139 L 42.021 61.139 L 42.021 37.139 z "/>
        <rect x="-1.979" width="44" fill="none" y="1.139" height="60"/>
    </g>
</svg>
