<?xml version="1.0" encoding="UTF-8"?>
<svg xmlns="http://www.w3.org/2000/svg" xmlns:xlink="http://www.w3.org/1999/xlink" contentScriptType="text/ecmascript" width="44" baseProfile="tiny" zoomAndPan="magnify" contentStyleType="text/css" viewBox="-1.479 0.993 44 60" height="60" preserveAspectRatio="xMidYMid meet" version="1.1">
    <g>
        <path fill="#656b6b" d="M 40.021 61.139 L 40.021 23.0 L 39.962 21.727 C 39.362003 9.367999 29.975002 1.4609985 15.464003 1.1389999 L -1.979 1.1389999 L -1.979 61.139 L 40.021 61.139 z " fill-opacity="0.01"/>
        <path fill="#656b6b" d="M 39.021 61.139 L 39.021 23.0 L 38.964 21.785 C 38.392 9.994 29.378 2.451 15.443 2.139 L -1.979 2.139 L -1.979 61.139 L 39.021 61.139 z " fill-opacity="0.02"/>
        <path fill="#656b6b" d="M 38.021 61.139 L 38.021 23.0 L 37.966 21.847 C 37.421 10.621 28.783 3.435 15.419 3.139 L -1.979 3.139 L -1.979 61.139 L 38.021 61.139 z " fill-opacity="0.03"/>
        <path fill="#656b6b" d="M 37.021 61.139 L 37.021 23.0 L 36.969 21.906 C 36.451 11.25 28.185 4.424 15.398 4.139 L -1.979 4.139 L -1.979 61.139 L 37.021 61.139 z " fill-opacity="0.05"/>
        <path fill="#656b6b" d="M 36.021 61.139 L 36.021 23.0 L 35.971 21.969 C 35.48 11.877 27.587 5.41 15.375 5.139 L -1.979 5.139 L -1.979 61.139 L 36.021 61.139 z " fill-opacity="0.06"/>
        <path fill="#656b6b" d="M 35.021 61.139 L 35.021 23.0 L 34.973 22.027 C 34.509 12.5060005 26.992 6.3980007 15.352999 6.137 L -1.979 6.137 L -1.979 61.137 L 35.021 61.139 L 35.021 61.139 z " fill-opacity="0.1"/>
        <path fill="#656b6b" d="M 34.021 61.139 L 34.021 23.0 L 33.975 22.092 C 33.538 13.126999 26.394999 7.3849993 15.330999 7.138999 L -1.979 7.138999 L -1.979 61.139 L 34.021 61.139 z " fill-opacity="0.1"/>
        <path fill="#656b6b" d="M 33.021 61.139 L 33.021 23.0 C 33.021 22.701 32.99 22.427 32.976 22.139 C 32.523003 12.826 24.847002 8.352 15.308002 8.139 C 15.25 8.138 8.516 8.137 -1.979 8.137 L -1.979 61.139 L 33.021 61.139 z " fill-opacity="0.1"/>
        <path fill="#52a1a4" d="M 32.021 61.139 L 32.021 22.639 C 32.021 12.974 24.187 5.139 14.521 5.139 L -1.9790001 5.139 L -1.9790001 61.139 L 32.021 61.139 z "/>
        <rect x="-1.979" width="44" fill="none" y="1.139" height="60"/>
    </g>
</svg>
