<?xml version="1.0" encoding="UTF-8"?>
<svg xmlns="http://www.w3.org/2000/svg" xmlns:xlink="http://www.w3.org/1999/xlink" contentScriptType="text/ecmascript" width="24" baseProfile="tiny" zoomAndPan="magnify" contentStyleType="text/css" viewBox="-1 0 24 24" height="24" preserveAspectRatio="xMidYMid meet" version="1.0">
    <g stroke-opacity="0.7" fill-opacity="0.7">
        <path fill="#656b6b" d="M 2.0 0.0 L 2.0 6.0 C 2.0 10.962999 6.037 15.0 11.0 15.0 L 23.0 15.0 L 23.0 0.0 L 2.0 0.0 z " fill-opacity="0.01"/>
        <path fill="#656b6b" d="M 3.0 0.0 L 3.0 6.0 C 3.0 10.412001 6.5889997 14.0 11.0 14.0 L 23.0 14.0 L 23.0 0.0 L 3.0 0.0 z " fill-opacity="0.03"/>
        <path fill="#656b6b" d="M 4.0 0.0 L 4.0 6.0 C 4.0 9.859 7.141 13.0 11.0 13.0 L 23.0 13.0 L 23.0 0.0 L 4.0 0.0 z " fill-opacity="0.05"/>
        <path fill="#656b6b" d="M 5.0 0.0 L 5.0 6.0 C 5.0 9.309 7.691 12.0 11.0 12.0 L 23.0 12.0 L 23.0 0.0 L 5.0 0.0 z " fill-opacity="0.07"/>
        <path fill="#656b6b" d="M 6.0 0.0 L 6.0 6.0 C 6.0 8.762 8.238 11.0 11.0 11.0 L 23.0 11.0 L 23.0 0.0 L 6.0 0.0 z " fill-opacity="0.11"/>
        <rect x="5" width="18" fill="#5f9ea0" height="10"/>
    </g>
</svg>
