<?xml version="1.0" encoding="UTF-8"?>
<svg xmlns="http://www.w3.org/2000/svg" xmlns:xlink="http://www.w3.org/1999/xlink" contentScriptType="text/ecmascript" width="100" baseProfile="tiny" zoomAndPan="magnify" contentStyleType="text/css" viewBox="7 -62 100 112" height="112" preserveAspectRatio="xMidYMid meet" version="1.1">
    <path fill="#52a2a5" d="M 7.812 -12.187 C 7.812 24.237999 36.64 37.813 54.812 37.813 C 68.145996 37.813 80.698 32.606 90.152 23.153 C 99.605 13.7 104.812 1.1490002 104.812 -12.182999 C 104.812 -30.355 91.238 -59.183 54.811996 -59.183 C 28.896 -59.187 7.812 -38.104 7.812 -12.187 z " fill-opacity="0.01"/>
    <path fill="#52a2a5" d="M 8.813 -12.187 C 8.813 23.509998 37.028 36.813 54.813 36.813 C 67.881 36.813 80.18 31.709 89.445 22.446 C 98.71 13.179999 103.812 0.8809986 103.812 -12.186001 C 103.812 -29.971 90.508995 -58.186 54.811996 -58.186 C 29.448 -58.187 8.813 -37.551 8.813 -12.187 z " fill-opacity="0.04"/>
    <path fill="#52a2a5" d="M 9.813 -12.187 C 9.813 22.780998 37.415 35.813 54.813 35.813 C 81.28 35.813 102.813 14.279999 102.813 -12.187 C 102.813 -29.585001 89.786 -57.187 54.813004 -57.187 C 30.0 -57.187 9.813 -37.0 9.813 -12.187 z " fill-opacity="0.08"/>
    <path fill="#52a2a5" d="M 10.813 -12.187 C 10.813 22.053001 37.801003 34.813 54.813 34.813 C 80.729004 34.813 101.813 13.729 101.813 -12.187 C 101.813 -29.199 89.053 -56.187 54.813004 -56.187 C 30.55 -56.187 10.813 -36.45 10.813 -12.187 z " fill-opacity="0.12"/>
    <path fill="#52a2a5" d="M 11.813 -12.187 C 11.813 21.324001 38.188 33.813 54.813 33.813 C 80.177 33.813 100.813 13.176001 100.813 -12.187 C 100.813 -28.812 88.329 -55.187 54.813004 -55.187 C 31.102 -55.187 11.813 -35.897 11.813 -12.187 z " fill-opacity="0.16"/>
    <path fill="#52a2a5" d="M 12.813 -12.187 C 12.813 18.813 36.688 32.813 54.813 32.813 C 79.688 32.813 99.813 12.688 99.813 -12.187 C 99.813 -30.187 85.813 -54.187 54.813004 -54.187 C 31.688 -54.187 12.813 -35.312 12.813 -12.187 z " fill-opacity="0.2"/>
    <circle r="44" cx="56.313" cy="-10.687"/>
    <rect x="54.5" y="-54" fill-opacity="0.8" fill="#52a2a5" width="1" height="8"/>
    <rect x="89" y="-12.5" fill-opacity="0.6" fill="#52a2a5" width="8" height="1"/>
    <rect x="13" y="-12.5" fill-opacity="0.6" fill="#52a2a5" width="8" height="1"/>
    <rect x="54.5" y="22" fill-opacity="0.6" fill="#52a2a5" width="1" height="8"/>
    <rect x="7" width="100" fill="none" y="-62" height="112"/>
</svg>
