<?xml version="1.0" encoding="UTF-8"?>
<svg xmlns="http://www.w3.org/2000/svg" xmlns:xlink="http://www.w3.org/1999/xlink" contentScriptType="text/ecmascript" width="44" baseProfile="tiny" zoomAndPan="magnify" contentStyleType="text/css" viewBox="-1 -1 44 32" height="32" preserveAspectRatio="xMidYMid meet" version="1.0">
    <g stroke-opacity="0.7" fill-opacity="0.7">
        <path fill="#656b6b" d="M 2.0 -1.0 L 2.0 1.885 C 2.0 12.198 9.691 20.754 19.908 21.867 C 19.924002 21.871 20.375 21.875 22.006 21.997 L 43.0 21.997 L 43.0 -1.0 L 2.0 -1.0 z " fill-opacity="0.01"/>
        <path fill="#656b6b" d="M 3.0 -1.0 L 3.0 1.885 C 3.0 11.7300005 10.374001 19.906 20.152 20.901001 L 22.056 20.999 L 43.0 20.999 L 43.0 -1.0 L 3.0 -1.0 z " fill-opacity="0.03"/>
        <path fill="#656b6b" d="M 4.0 -1.0 L 4.0 1.885 C 4.0 11.215 10.988 18.963 20.254 19.906 C 20.258999 19.906 22.108 20.0 22.108 20.0 L 43.0 20.0 L 43.0 -1.0 L 4.0 -1.0 z " fill-opacity="0.05"/>
        <path fill="#656b6b" d="M 5.0 -1.0 L 5.0 1.885 C 5.0 10.744 11.73 18.033 20.355 18.911 C 20.931 18.967 21.515 19.0 22.105 19.0 L 43.0 19.0 L 43.0 -1.0 L 5.0 -1.0 z " fill-opacity="0.07"/>
        <path fill="#656b6b" d="M 6.0 -1.0 L 6.0 0.885 C 6.0 9.744 12.73 17.033 21.355 17.911 C 21.931 17.967 22.515 18.0 23.105 18.0 L 43.0 18.0 L 43.0 -1.0 L 6.0 -1.0 z " fill-opacity="0.11"/>
        <path fill="#5f9ea0" d="M 5.0 -1.0 L 5.0 -0.11500001 C 5.0 9.335 12.659 17.0 22.105 17.0 L 43.0 17.0 L 43.0 -1.0 L 5.0 -1.0 z "/>
    </g>
</svg>
