<?xml version="1.0" encoding="UTF-8"?>
<svg xmlns="http://www.w3.org/2000/svg" xmlns:xlink="http://www.w3.org/1999/xlink" contentScriptType="text/ecmascript" width="44" baseProfile="tiny" zoomAndPan="magnify" contentStyleType="text/css" viewBox="-1 -1 44 32" height="32" preserveAspectRatio="xMidYMid meet" version="1.0">
    <g stroke-opacity="0.7" fill-opacity="0.7">
        <path fill="#656b6b" d="M 43.0 10.01 L 41.617 10.01 L 31.625 0.0 L 22.0 0.0 C 22.0 0.0 22.0 8.344 22.0 10.009 C 10.963 10.069 2.0 19.057 2.0 30.109 L 2.0 31.0 L 43.0 31.0 L 43.0 10.01 z " fill-opacity="0.01"/>
        <path fill="#656b6b" d="M 43.0 11.01 L 41.203 11.01 L 31.25 1.0 L 23.0 1.0 C 23.0 1.0 23.0 9.317 23.0 10.998 C 22.555 10.998 22.105 10.998 22.105 10.998 C 11.57 10.998 3.0 19.57 3.0 30.109 L 3.0 31.0 L 43.0 31.0 L 43.0 11.01 z " fill-opacity="0.03"/>
        <path fill="#656b6b" d="M 43.0 12.01 L 40.789 12.01 L 30.75 2.0 L 24.0 2.0 C 24.0 2.0 24.0 10.317 24.0 11.998 C 23.145 11.998 22.105 11.998 22.105 11.998 C 12.123 11.998 4.0 20.123 4.0 30.109 L 4.0 31.0 L 43.0 31.0 L 43.0 12.01 z " fill-opacity="0.05"/>
        <path fill="#656b6b" d="M 43.0 13.01 L 40.375 13.01 L 30.375 3.0 L 25.0 3.0 L 25.0 12.998 L 22.105 12.998 C 12.659 12.998 5.0 20.657 5.0 30.109 L 5.0 31.0 L 43.0 31.0 L 43.0 13.01 z " fill-opacity="0.07"/>
        <path fill="#656b6b" d="M 43.0 14.0 L 40.0 14.0 L 30.0 4.0 L 25.0 4.0 L 25.0 12.998 L 23.105 12.998 C 13.659 12.998 6.0 20.657 6.0 30.109 L 6.0 31.0 L 43.0 31.0 L 43.0 14.0 z " fill-opacity="0.11"/>
        <path fill="#5f9ea0" d="M 43.0 13.0 L 38.999 13.0 L 26.999 1.0 L 25.0 1.0 L 25.0 12.987 L 22.105 12.987 C 12.659 12.987 5.0 20.646 5.0 30.1 L 5.0 31.0 L 43.0 31.0 L 43.0 13.0 z "/>
    </g>
</svg>
