<?xml version="1.0" encoding="UTF-8"?>
<svg xmlns="http://www.w3.org/2000/svg" xmlns:xlink="http://www.w3.org/1999/xlink" contentScriptType="text/ecmascript" width="264" baseProfile="tiny" zoomAndPan="magnify" contentStyleType="text/css" viewBox="-1.479 0.993 264 32" height="32" preserveAspectRatio="xMidYMid meet" version="1.1">
    <g>
        <path fill="#656b6b" d="M -1.979 1.139 L -1.979 30.139 C 54.917 30.139 210.42299 30.139 262.021 30.139 L 262.021 1.1389999 L -1.979 1.1389999 z " fill-opacity="0.01"/>
        <path fill="#656b6b" d="M -1.979 1.139 L -1.979 29.139 C 54.896 29.139 210.42099 29.139 262.021 29.139 L 262.021 1.1389999 L -1.979 1.1389999 z " fill-opacity="0.02"/>
        <path fill="#656b6b" d="M -1.979 1.139 L -1.979 28.139 C 54.817 28.139 210.40799 28.139 262.021 28.139 L 262.021 1.1389999 L -1.979 1.1389999 z " fill-opacity="0.03"/>
        <path fill="#656b6b" d="M -1.979 1.139 L -1.979 27.139 C 54.645 27.139 210.37599 27.139 262.021 27.139 L 262.021 1.1389999 L -1.979 1.1389999 z " fill-opacity="0.06"/>
        <rect x="-1.979" y="1.139" fill-opacity="0.05" fill="#656b6b" width="264" height="25"/>
        <rect x="-1.979" y="1.139" fill-opacity="0.1" fill="#656b6b" width="264" height="24"/>
        <path fill="#656b6b" d="M -1.979 1.139 L -1.979 24.139 C 52.614 24.139 210.03299 24.139 262.021 24.139 L 262.021 1.1389999 L -1.979 1.1389999 z " fill-opacity="0.1"/>
        <rect x="-1.979" y="1.139" fill-opacity="0.1" fill="#656b6b" width="264" height="22"/>
        <rect x="-1.979" width="264" fill="#52a1a4" y="1.139" height="20.5"/>
        <rect x="-1.979" width="264" fill="#52a1a4" y="21.139" height="1"/>
        <rect x="-1.979" width="264" fill="none" y="1.139" height="32"/>
    </g>
</svg>
