<?xml version="1.0" encoding="UTF-8"?>
<svg xmlns="http://www.w3.org/2000/svg" xmlns:xlink="http://www.w3.org/1999/xlink" contentScriptType="text/ecmascript" width="44" baseProfile="tiny" zoomAndPan="magnify" contentStyleType="text/css" viewBox="-0.5 0.5 44 32" height="32" preserveAspectRatio="xMidYMid meet" version="1.1">
    <g>
        <path fill="#656b6b" d="M -0.999 31.646 L 15.501 31.646 L 16.78 31.588 C 29.929 30.967999 40.332 20.55 40.955 7.354 L 41.001003 6.416 L 41.001003 0.646 L -0.99899673 0.646 L -0.99899673 31.646 z " fill-opacity="0.01"/>
        <path fill="#656b6b" d="M -0.999 30.646 L 15.501 30.646 L 16.724 30.59 C 29.359001 29.994 39.355003 19.984001 39.955 7.3059998 L 39.943 7.304 C 39.95 7.269 40.001 6.367 40.001 6.367 L 40.001 0.646 L -0.99900055 0.646 L -0.99900055 30.646 z " fill-opacity="0.02"/>
        <path fill="#656b6b" d="M -0.999 29.646 L 15.501 29.646 L 16.664 29.593 C 28.79 29.021 38.381 19.419 38.955 7.257 L 39.001003 6.321 L 39.001003 0.646 L -0.99899673 0.646 L -0.99899673 29.646 z " fill-opacity="0.03"/>
        <path fill="#656b6b" d="M -0.999 28.646 L 15.501 28.646 L 16.605 28.595 C 28.22 28.045 37.405 18.853 37.955 7.2089996 L 37.935 7.2049994 C 37.943 7.157 38.0 6.276 38.0 6.276 L 38.0 0.6459999 L -1.0 0.6459999 L -0.999 28.646 L -0.999 28.646 z " fill-opacity="0.05"/>
        <path fill="#656b6b" d="M -0.999 27.646 L 15.501 27.646 L 16.545 27.597 C 27.649 27.074 36.432 18.286999 36.955 7.1620007 L 36.973003 6.916001 L 37.001003 6.232001 L 37.001003 0.646 L -0.99899673 0.646 L -0.99899673 27.646 z " fill-opacity="0.06"/>
        <path fill="#656b6b" d="M -0.999 26.646 L 15.501 26.646 L 16.485 26.598999 C 27.077 26.098999 35.454002 17.722 35.955 7.1189995 L 36.001003 6.1899996 L 36.001003 0.646 L -0.99899673 0.646 L -0.99899673 26.646 z " fill-opacity="0.1"/>
        <path fill="#656b6b" d="M -0.999 25.646 L 15.501 25.646 L 16.425001 25.601 C 26.514 25.123 34.481003 17.158 34.955 7.0690002 C 34.955 7.0730004 35.001003 6.1450005 35.001003 6.1450005 L 35.001003 0.64500046 L -0.99899673 0.64500046 L -0.99899673 25.646 z " fill-opacity="0.1"/>
        <path fill="#656b6b" d="M -0.999 24.646 L 15.501 24.646 C 15.797001 24.646 16.085001 24.615 16.378 24.601 C 25.878 24.152 33.508 16.522 33.956 7.0219994 C 33.973 6.728999 34.001 6.4409995 34.001 6.1449995 L 34.001 0.6449995 L -0.99900055 0.6449995 L -0.99900055 24.646 z " fill-opacity="0.1"/>
        <path fill="#52a1a4" d="M -0.999 23.646 L 15.501 23.646 C 25.166 23.646 33.001 15.811 33.001 6.146 L 33.001 0.6459999 L -0.99900055 0.6459999 L -0.99900055 23.646 z "/>
        <rect x="-0.999" width="44" fill="none" y="0.646" height="32"/>
    </g>
</svg>
