<?xml version="1.0" encoding="UTF-8"?>
<svg xmlns="http://www.w3.org/2000/svg" xmlns:xlink="http://www.w3.org/1999/xlink" contentScriptType="text/ecmascript" width="44" baseProfile="tiny" zoomAndPan="magnify" contentStyleType="text/css" viewBox="-1.979 1.139 44 32" height="32" preserveAspectRatio="xMidYMid meet" version="1.1">
    <g>
        <path fill="#656b6b" d="M -1.979 32.139 L 14.521 32.139 L 15.8 32.082 C 28.95 31.463001 39.352 21.043001 39.975 7.8480015 L 40.021 6.9100013 L 40.021 1.139 L -1.9790001 1.139 L -1.9790001 32.139 z " fill-opacity="0.01"/>
        <path fill="#656b6b" d="M -1.979 31.139 L 14.521 31.139 L 15.7439995 31.084 C 28.38 30.488 38.376 20.478 38.975 7.801 L 38.963997 7.7990003 C 38.969997 7.7640004 39.020996 6.861 39.020996 6.861 L 39.020996 1.139 L -1.9790039 1.139 L -1.9790039 31.139 z " fill-opacity="0.02"/>
        <path fill="#656b6b" d="M -1.979 30.139 L 14.521 30.139 L 15.684 30.086 C 27.81 29.514 37.401 19.912 37.975 7.752 L 38.021 6.816 L 38.021 1.139 L -1.9790001 1.139 L -1.9790001 30.139 z " fill-opacity="0.03"/>
        <path fill="#656b6b" d="M -1.979 29.139 L 14.521 29.139 L 15.625 29.088 C 27.24 28.539 36.427002 19.348 36.978 7.702999 L 36.957 7.698999 C 36.965 7.653999 37.021 6.770999 37.021 6.770999 L 37.021 1.139 L -1.9790001 1.139 L -1.9790001 29.139 z " fill-opacity="0.05"/>
        <path fill="#656b6b" d="M -1.979 28.139 L 14.521 28.139 L 15.565 28.09 C 26.668999 27.567 35.451 18.781 35.975 7.656 L 35.991997 7.412 L 36.020996 6.7260003 L 36.020996 1.139 L -1.9790039 1.139 L -1.9790039 28.139 z " fill-opacity="0.06"/>
        <path fill="#656b6b" d="M -1.979 27.139 L 14.521 27.139 L 15.505 27.092 C 26.097 26.592 34.474 18.217 34.975 7.612999 L 35.021 6.682999 L 35.021 1.139 L -1.9790001 1.139 L -1.9790001 27.139 z " fill-opacity="0.1"/>
        <path fill="#656b6b" d="M -1.979 26.139 L 14.521 26.139 L 15.445 26.094 C 25.533 25.617 33.5 17.65 33.975 7.564 C 33.975 7.566 34.021 6.638 34.021 6.638 L 34.021 1.138 L -1.9790001 1.138 L -1.9790001 26.139 z " fill-opacity="0.1"/>
        <path fill="#656b6b" d="M -1.979 25.139 L 14.521 25.139 C 14.816999 25.139 15.105 25.11 15.398 25.095 C 24.897999 24.647 32.528 17.015999 32.975998 7.515999 C 32.991997 7.223999 33.020996 6.935999 33.020996 6.638999 L 33.020996 1.138999 L -1.9790039 1.138999 L -1.9790039 25.139 z " fill-opacity="0.1"/>
        <path fill="#52a1a4" d="M 31.021 6.639 C 31.021 15.739 23.619 23.139 14.521 23.139 L -1.9790001 23.139 L -1.9790001 24.139 L 14.521 24.139 C 24.186 24.139 32.021 16.305 32.021 6.639 L 32.021 1.1389999 L 31.021 1.1389999 L 31.021 6.639 z "/>
        <path fill="#52a1a4" d="M -1.979 23.139 L 14.521 23.139 C 23.619 23.139 31.021 15.739 31.021 6.639 L 31.021 1.1389999 L -1.9790001 1.1389999 L -1.9790001 23.139 z "/>
        <rect x="-1.979" width="44" fill="none" y="1.139" height="32"/>
    </g>
</svg>
