<?xml version="1.0" encoding="UTF-8"?>
<svg xmlns="http://www.w3.org/2000/svg" xmlns:xlink="http://www.w3.org/1999/xlink" contentScriptType="text/ecmascript" width="44" baseProfile="tiny" zoomAndPan="magnify" contentStyleType="text/css" viewBox="-1.479 0.993 44 32" height="32" preserveAspectRatio="xMidYMid meet" version="1.1">
    <g>
        <path fill="#656b6b" d="M 42.021 8.139 L 20.021 8.139 C 14.798 8.4279995 9.916 10.268 6.205 14.217 C 2.217 18.461 0.020999908 24.108 0.020999908 30.112999 L 0.020999908 33.138 L 42.021 33.138 L 42.021 8.139 z " fill-opacity="0.01"/>
        <path fill="#656b6b" d="M 42.021 9.139 L 21.021 9.139 C 15.691 9.17 10.682 10.955 6.9119997 14.971 C 3.1129997 19.012 1.0209999 24.390999 1.0209999 30.113998 L 1.0209999 33.139 L 42.021 33.139 L 42.021 9.139 z " fill-opacity="0.02"/>
        <path fill="#656b6b" d="M 42.021 10.139 L 22.021 10.139 C 21.576 10.139 21.128 10.139 21.128 10.139 C 16.023 10.139 11.226 11.885 7.6150007 15.724 C 4.009001 19.567 2.020001 24.675999 2.020001 30.114 L 2.020001 33.139 L 42.02 33.139 L 42.02 10.139 z " fill-opacity="0.03"/>
        <path fill="#656b6b" d="M 42.021 11.139 L 23.021 11.139 C 22.166 11.139 21.128 11.139 21.128 11.139 C 16.29 11.139 11.743 12.838 8.3220005 16.479 C 4.9040003 20.118 3.0200005 24.961 3.0200005 30.114 L 3.0200005 33.139 L 42.02 33.139 L 42.02 11.139 z " fill-opacity="0.06"/>
        <path fill="#656b6b" d="M 42.021 12.139 L 24.021 12.139 L 21.251 12.139 C 11.021 12.139 4.021 20.045 4.021 30.114 L 4.021 33.139 L 42.021 33.139 L 42.021 12.139 z " fill-opacity="0.05"/>
        <path fill="#656b6b" d="M 42.021 13.139 L 25.021 13.139 L 21.251 13.139 C 11.804 13.139 5.021 20.045 5.021 30.114 L 5.021 33.139 L 42.021 33.139 L 42.021 13.139 z " fill-opacity="0.1"/>
        <path fill="#656b6b" d="M 42.021 14.139 L 26.021 14.139 L 21.251 14.139 C 11.804 14.139 6.021 20.639 6.021 30.114 L 6.021 33.139 L 42.021 33.139 L 42.021 14.139 z " fill-opacity="0.1"/>
        <path fill="#656b6b" d="M 42.021 15.139 L 27.021 15.139 L 22.271 15.139 C 12.823 15.139 7.021 20.045 7.021 30.114 L 7.021 33.139 L 42.021 33.139 L 42.021 15.139 z " fill-opacity="0.1"/>
        <path fill="#52a1a4" d="M 42.021 12.639 L 21.578 12.639 C 11.499999 12.639 4.521 20.47 4.521 30.442 L 4.521 33.139 L 42.021 33.139 L 42.021 12.639 z "/>
        <path fill="#52a1a4" d="M 21.578 12.141 C 11.020999 12.138 4.0239983 19.837 4.0239983 30.440998 L 4.0239983 33.137997 L 5.020998 33.137997 L 5.020998 30.440996 C 5.023998 20.137997 11.520998 13.137997 21.577997 13.134996 L 42.020996 13.134996 L 42.020996 12.140996 L 21.578 12.140996 z "/>
        <rect x="-1.979" width="44" fill="none" y="1.139" height="32"/>
    </g>
</svg>
