<?xml version="1.0" encoding="UTF-8"?>
<svg xmlns="http://www.w3.org/2000/svg" xmlns:xlink="http://www.w3.org/1999/xlink" contentScriptType="text/ecmascript" width="44" baseProfile="tiny" zoomAndPan="magnify" contentStyleType="text/css" viewBox="-1.979 1.139 44 32" height="32" preserveAspectRatio="xMidYMid meet" version="1.1">
    <g>
        <path fill="#656b6b" d="M 40.021 33.139 L 40.021 30.114 C 40.021 24.108 37.822998 18.464 33.832 14.218 C 29.838001 9.968 24.533 8.132 18.891 8.14 L -1.979 8.14 L -1.979 33.14 L 40.021 33.14 z " fill-opacity="0.01"/>
        <path fill="#656b6b" d="M 39.021 33.139 L 39.021 30.114 C 39.021 24.393 36.927 19.015 33.125 14.969 C 29.32 10.922 24.267 9.132 18.894001 9.139 L -1.979 9.139 L -1.979 33.139 L 39.021 33.139 z " fill-opacity="0.02"/>
        <path fill="#656b6b" d="M 38.021 33.139 L 38.021 30.114 C 38.021 24.678001 36.031 19.567001 32.417 15.723001 C 28.802 11.875 23.999 10.133 18.893 10.139 L -1.979 10.139 L -1.979 33.139 L 38.021 33.139 z " fill-opacity="0.03"/>
        <path fill="#656b6b" d="M 37.021 33.139 L 37.021 30.114 C 37.021 24.966 35.134 20.119999 31.71 16.477001 C 28.283998 12.831001 23.731998 11.133001 18.894 11.139002 L -1.979 11.139002 L -1.979 33.139 L 37.021 33.139 z " fill-opacity="0.06"/>
        <path fill="#656b6b" d="M 36.021 33.139 L 36.021 30.114 C 36.021 20.048 28.343 12.128 18.896 12.139 L -1.979 12.139 L -1.979 33.139 L 36.021 33.139 z " fill-opacity="0.05"/>
        <path fill="#656b6b" d="M 35.021 33.139 L 35.021 30.114 C 35.021 20.048 27.271 13.139 18.271 13.139 L -1.9790001 13.139 L -1.9790001 33.139 L 35.021 33.139 z " fill-opacity="0.1"/>
        <path fill="#656b6b" d="M 34.021 33.139 L 34.021 30.114 C 34.021 20.048 26.271 14.139 17.271 14.139 L -1.9790001 14.139 L -1.9790001 33.139 L 34.021 33.139 z " fill-opacity="0.1"/>
        <path fill="#656b6b" d="M 33.021 33.139 L 33.021 30.114 C 33.021 20.048 25.021 15.139 16.396 15.139 L -1.979 15.139 L -1.979 33.139 L 33.021 33.139 z " fill-opacity="0.1"/>
        <path fill="#52a1a4" d="M 31.521 33.139 L 31.521 30.442 C 31.521 20.47 23.883999 12.625999 14.466 12.639 L -1.979 12.639 L -1.979 33.139 L 31.521 33.139 z "/>
        <path fill="#52a1a4" d="M 14.466 13.136 C 18.778 13.129 22.851 14.823999 25.936 17.904999 C 29.216002 21.182 31.021 25.633999 31.021 30.441998 L 31.021 33.138996 L 32.021 33.138996 L 32.021 30.441996 C 32.021 25.367996 30.107 20.666996 26.638 17.203995 C 23.365 13.932995 19.042 12.135995 14.464001 12.140995 L -1.979 12.140995 L -1.979 13.137995 L 14.466 13.136 L 14.466 13.136 z "/>
        <rect x="-1.979" width="44" fill="none" y="1.139" height="32"/>
    </g>
</svg>
