<?xml version="1.0" encoding="UTF-8"?>
<svg xmlns="http://www.w3.org/2000/svg" xmlns:xlink="http://www.w3.org/1999/xlink" contentScriptType="text/ecmascript" width="24" baseProfile="tiny" zoomAndPan="magnify" contentStyleType="text/css" viewBox="-0.5 0 24 24" height="24" preserveAspectRatio="xMidYMid meet" version="1.0">
    <g stroke-opacity="0.7" fill-opacity="0.7">
        <path fill="#656b6b" d="M -0.5 15.0 L 9.5 15.0 C 14.462999 15.0 18.5 10.962999 18.5 6.0 L 18.5 0.0 L -0.5 0.0 L -0.5 15.0 z " fill-opacity="0.01"/>
        <path fill="#656b6b" d="M -0.5 14.0 L 9.5 14.0 C 13.910999 14.0 17.5 10.412 17.5 6.0 L 17.5 0.0 L -0.5 0.0 L -0.5 14.0 z " fill-opacity="0.03"/>
        <path fill="#656b6b" d="M -0.5 13.0 L 9.5 13.0 C 13.359 13.0 16.5 9.858 16.5 6.0 L 16.5 0.0 L -0.5 0.0 L -0.5 13.0 z " fill-opacity="0.05"/>
        <path fill="#656b6b" d="M -0.5 12.0 L 9.5 12.0 C 12.809 12.0 15.5 9.309999 15.5 6.0 L 15.5 0.0 L -0.5 0.0 L -0.5 12.0 z " fill-opacity="0.07"/>
        <path fill="#656b6b" d="M -0.5 11.0 L 9.5 11.0 C 12.262 11.0 14.5 8.7630005 14.5 6.0 L 14.5 0.0 L -0.5 0.0 L -0.5 11.0 z " fill-opacity="0.11"/>
        <rect x="-0.5" width="14" fill="#5f9ea0" height="10"/>
    </g>
</svg>
