<?xml version="1.0" encoding="UTF-8"?>
<svg xmlns="http://www.w3.org/2000/svg" xmlns:xlink="http://www.w3.org/1999/xlink" contentScriptType="text/ecmascript" width="44" baseProfile="tiny" zoomAndPan="magnify" contentStyleType="text/css" viewBox="-1.979 1.139 44 32" height="32" preserveAspectRatio="xMidYMid meet" version="1.1">
    <g>
        <path fill="#656b6b" d="M 0.021 1.139 L 0.021 6.639 L 0.044 7.604 C 0.368 22.098 8.273 31.48 20.679 32.086 L 21.611 32.139 L 42.021 32.139 L 42.021 1.1389999 L 0.021 1.1389999 z " fill-opacity="0.01"/>
        <path fill="#656b6b" d="M 1.021 1.139 L 1.021 6.639 L 1.044 7.577 C 1.355 21.5 8.897 30.51 20.728 31.088 L 21.658 31.139 L 42.021004 31.139 L 42.021004 1.1389999 L 1.021 1.1389999 z " fill-opacity="0.02"/>
        <path fill="#656b6b" d="M 2.021 1.139 L 2.021 6.639 L 2.044 7.553 C 2.3409998 20.903 9.5199995 29.539 20.777 30.088 L 21.705 30.139 L 42.021 30.139 L 42.021 1.1389999 L 2.021 1.1389999 z " fill-opacity="0.03"/>
        <path fill="#656b6b" d="M 3.021 1.139 L 3.021 6.639 L 3.044 7.5299997 C 3.329 20.305 10.142 28.569 20.826 29.092999 L 21.75 29.140999 L 42.021 29.140999 L 42.021 1.1409988 L 3.021 1.139 L 3.021 1.139 z " fill-opacity="0.05"/>
        <path fill="#656b6b" d="M 4.021 1.139 L 4.021 6.639 L 4.042 7.5 C 4.3139997 19.705 10.764 27.598 20.875 28.091 L 21.795 28.139 L 42.022 28.139 L 42.022 1.1389999 L 4.021 1.1389999 z " fill-opacity="0.06"/>
        <path fill="#656b6b" d="M 5.021 1.139 L 5.021 6.639 L 5.042 7.475 C 5.302 19.11 11.386999 26.627 20.923 27.092001 L 21.839 27.139002 L 42.021 27.139002 L 42.021 1.1390018 L 5.021 1.1390018 z " fill-opacity="0.1"/>
        <path fill="#656b6b" d="M 6.021 1.139 L 6.021 6.639 L 6.042 7.45 C 6.2879996 18.513 12.009 25.657001 20.972 26.096 L 21.884 26.141 L 42.021 26.141 L 42.021 1.1410007 L 6.021 1.139 L 6.021 1.139 z " fill-opacity="0.1"/>
        <path fill="#656b6b" d="M 7.021 1.139 L 7.021 6.639 C 7.021 6.907 7.0369997 7.1619997 7.042 7.426 C 7.2549996 16.965 11.708 24.641 21.021 25.094 C 21.309 25.108 21.585 25.139 21.884 25.139 L 42.021 25.139 L 42.021 1.1389999 L 7.021 1.1389999 z " fill-opacity="0.1"/>
        <path fill="#52a1a4" d="M 4.021 1.139 L 4.021 6.639 C 4.021 16.304 11.856 24.139 21.521 24.139 L 42.021 24.139 L 42.021 1.1389999 L 4.021 1.1389999 z "/>
        <rect x="-1.979" width="44" fill="none" y="1.139" height="32"/>
    </g>
</svg>
