<?xml version="1.0" encoding="UTF-8"?>
<svg xmlns="http://www.w3.org/2000/svg" xmlns:xlink="http://www.w3.org/1999/xlink" contentScriptType="text/ecmascript" width="24" baseProfile="tiny" zoomAndPan="magnify" contentStyleType="text/css" viewBox="-0.5 0.5 24 24" height="24" preserveAspectRatio="xMidYMid meet" version="1.0">
    <path d="M 18.5 24.5 L 18.5 9.5 C 18.5 4.536 14.462999 0.5 9.5 0.5 L -0.5 0.5 L -0.5 24.5 L 18.5 24.5 z " fill-opacity="0.01"/>
    <path d="M 17.5 24.5 L 17.5 9.5 C 17.5 5.09 13.911 1.4989996 9.5 1.4989996 L -0.5 1.4989996 L -0.5 24.5 L 17.5 24.5 z " fill-opacity="0.03"/>
    <path d="M 16.5 24.5 L 16.5 9.5 C 16.5 5.641 13.359 2.499 9.5 2.499 L -0.5 2.499 L -0.5 24.5 L 16.5 24.5 z " fill-opacity="0.05"/>
    <path d="M 15.5 24.5 L 15.5 9.5 C 15.5 6.19 12.809 3.5 9.5 3.5 L -0.5 3.5 L -0.5 24.5 L 15.5 24.5 z " fill-opacity="0.07"/>
    <path d="M 14.5 24.5 L 14.5 9.5 C 14.5 6.737 12.262 4.499 9.5 4.499 L -0.5 4.499 L -0.5 24.5 L 14.5 24.5 z " fill-opacity="0.11"/>
    <rect x="-0.5" y="3.5" fill-opacity="0.6" fill="#5f9ea0" width="14" height="21"/>
</svg>
