<?xml version="1.0" encoding="UTF-8"?>
<svg xmlns="http://www.w3.org/2000/svg" xmlns:xlink="http://www.w3.org/1999/xlink" contentScriptType="text/ecmascript" width="24" baseProfile="tiny" zoomAndPan="magnify" contentStyleType="text/css" viewBox="-1 0 24 24" height="24" preserveAspectRatio="xMidYMid meet" version="1.0">
    <g stroke-opacity="0.7" fill-opacity="0.7">
        <path fill="#656b6b" d="M -1.0 15.0 L 9.0 15.0 C 13.962999 15.0 18.0 10.962999 18.0 6.0 L 18.0 0.0 L -1.0 0.0 L -1.0 15.0 z " fill-opacity="0.01"/>
        <path fill="#656b6b" d="M -1.0 14.0 L 9.0 14.0 C 13.410999 14.0 17.0 10.412 17.0 6.0 L 17.0 0.0 L -1.0 0.0 L -1.0 14.0 z " fill-opacity="0.03"/>
        <path fill="#656b6b" d="M -1.0 13.0 L 9.0 13.0 C 12.859 13.0 16.0 9.859 16.0 6.0 L 16.0 0.0 L -1.0 0.0 L -1.0 13.0 z " fill-opacity="0.05"/>
        <path fill="#656b6b" d="M -1.0 12.0 L 9.0 12.0 C 12.309 12.0 15.0 9.309 15.0 6.0 L 15.0 0.0 L -1.0 0.0 L -1.0 12.0 z " fill-opacity="0.07"/>
        <path fill="#656b6b" d="M -1.0 11.0 L 9.0 11.0 C 11.762 11.0 14.0 8.762 14.0 6.0 L 14.0 0.0 L -1.0 0.0 L -1.0 11.0 z " fill-opacity="0.11"/>
        <rect x="-1" width="14" fill="#5f9ea0" height="10"/>
    </g>
</svg>
