<?xml version="1.0" encoding="UTF-8"?>
<svg xmlns="http://www.w3.org/2000/svg" xmlns:xlink="http://www.w3.org/1999/xlink" contentScriptType="text/ecmascript" width="34" baseProfile="tiny" zoomAndPan="magnify" contentStyleType="text/css" viewBox="-1 -1 34 86" height="86" preserveAspectRatio="xMidYMid meet" version="1.1">
    <g>
        <rect x="-1" width="34" fill="none" y="-1" height="86"/>
        <path fill="#ffffff" d="M 9.322 25.901 L 9.322 20.06 C 11.627999 18.847 13.837999 18.24 15.952999 18.24 C 21.937 18.24 24.93 22.987 24.93 32.479 C 24.93 35.703 24.448 38.523 23.479 40.938 C 22.512001 43.346 21.182 45.016 19.495 45.949 C 21.349 46.549 22.787 48.04 23.809002 50.439003 C 24.830002 52.839005 25.342003 55.845 25.342003 59.455 C 25.342003 71.268005 21.882004 77.184006 14.964003 77.184006 C 12.781002 77.184006 10.631002 76.578 8.5180025 75.369 L 8.5180025 69.524 C 11.333002 70.783005 13.495003 71.416 15.005003 71.416 C 18.861004 71.416 20.792004 67.687 20.792004 60.229 C 20.792004 56.955 20.447004 54.514 19.764004 52.915 C 19.076004 51.319 18.067003 50.233 16.735004 49.666 C 15.403005 49.101 13.467005 48.812 10.927004 48.812 L 10.927004 43.282 C 13.316004 43.282 15.152004 43.056 16.435003 42.599003 C 17.721003 42.15 18.697002 41.190002 19.370003 39.72 C 20.042004 38.251 20.379004 36.108 20.379004 33.292 C 20.379004 27.102 18.662003 24.006 15.231004 24.006 C 13.805 24.005 11.834 24.638 9.322 25.901 z "/>
    </g>
</svg>
