<?xml version="1.0" encoding="UTF-8"?>
<svg xmlns="http://www.w3.org/2000/svg" xmlns:xlink="http://www.w3.org/1999/xlink" contentScriptType="text/ecmascript" width="7" baseProfile="tiny" zoomAndPan="magnify" contentStyleType="text/css" viewBox="46.5 46.146 7 7" height="7" preserveAspectRatio="xMidYMid meet" version="1.1">
    <g>
        <path fill="#ffffff" d="M 47.5 51.146 C 47.5 48.937 49.291 47.146 51.5 47.146 L 53.5 47.146 L 53.5 46.146 L 50.5 46.146 C 48.291 46.146 46.5 47.937 46.5 50.146 L 46.5 53.146 L 47.5 53.146 L 47.5 51.146 z " fill-opacity="0.2" stroke-opacity="0.2"/>
        <path fill="#ffffff" d="M 53.5 47.146 L 51.5 47.146 C 49.291 47.146 47.5 48.937 47.5 51.146 L 47.5 53.146 L 53.5 53.146 L 53.5 47.146 z " fill-opacity="0.2" stroke-opacity="0.2"/>
        <linearGradient x1="50.5" y1="76.4854" x2="50.5" gradientUnits="userSpaceOnUse" y2="45.7536" xlink:type="simple" xlink:actuate="onLoad" id="XMLID_2_" xlink:show="other">
            <stop stop-color="#4c9743" offset="0"/>
            <stop stop-color="#55a2a3" offset="0.0056"/>
            <stop stop-color="#0e807a" offset="0.264"/>
            <stop stop-color="#020202" offset="1"/>
        </linearGradient>
        <path fill="url(#XMLID_2_)" d="M 53.5 47.146 L 51.5 47.146 C 49.291 47.146 47.5 48.937 47.5 51.146 L 47.5 53.146 L 53.5 53.146 L 53.5 47.146 z "/>
    </g>
</svg>
