<?xml version="1.0" encoding="UTF-8"?>
<svg xmlns="http://www.w3.org/2000/svg" xmlns:xlink="http://www.w3.org/1999/xlink" contentScriptType="text/ecmascript" width="88" baseProfile="tiny" zoomAndPan="magnify" contentStyleType="text/css" viewBox="0 -1 88 88" height="88" preserveAspectRatio="xMidYMid meet" version="1.1">
    <g>
        <rect width="88" fill="none" y="-1" height="88"/>
        <path fill="#ffffff" d="M 14.178 6.0 C 10.22 6.0 7.0 9.221 7.0 13.18 L 7.0 72.822 C 7.0 76.78 10.22 80.001 14.1779995 80.001 L 73.823 80.001 C 77.78 80.001 81.002 76.78 81.002 72.822 L 81.002 13.18 C 81.002 9.221001 77.78 6.0000005 73.823 6.0000005 L 14.178 6.0000005 z " fill-opacity="0.3" stroke-opacity="0.3"/>
        <linearGradient x1="-672.3945" gradientTransform="matrix(1 0 0 1 694.7637 -1753.3945)" y1="1833.8613" x2="-629.1323" gradientUnits="userSpaceOnUse" y2="1758.9291" xlink:type="simple" xlink:actuate="onLoad" id="XMLID_17_" xlink:show="other">
            <stop stop-color="#000000" offset="0"/>
            <stop stop-color="#000000" offset="0.6461"/>
            <stop stop-color="#52a2a5" offset="0.9944"/>
            <stop stop-color="#52a2a5" offset="1"/>
        </linearGradient>
        <path fill="url(#XMLID_17_)" d="M 77.0 71.037 C 77.0 73.777 74.777 76.0 72.037 76.0 L 15.965 76.0 C 13.225 76.0 11.0 73.777 11.0 71.037 L 11.0 14.966 C 11.0 12.223 13.225 10.0 15.965 10.0 L 72.037 10.0 C 74.777 10.0 77.0 12.223 77.0 14.966 L 77.0 71.037 z "/>
        <g>
            <path fill="#ffffff" d="M 72.264 27.265 C 72.086 27.223 72.075 27.22 71.897 27.177 C 71.149 25.443 69.848 24.221 68.157005 23.824 C 66.469 23.428 64.69 23.869999 63.219006 24.984999 C 62.467007 23.369999 61.210007 22.230999 59.602005 21.846998 C 57.907005 21.442999 56.120007 21.899998 54.643005 23.037998 C 53.715004 22.815998 50.946007 22.151999 50.946007 22.151999 L 43.46 33.151 C 30.095 51.068 19.06 58.033 18.950998 58.102 L 13.520998 61.438 C 13.520998 61.438 19.867998 63.526 21.973999 64.217 C 21.581 64.776 19.980999 67.042 19.980999 67.042 C 19.980999 67.042 22.085999 67.875 22.261 67.943 C 22.485 68.771 23.031 70.786 23.031 70.786 L 34.695 75.943 L 72.591 75.943 C 75.069 75.665 77.00101 73.588 77.00101 71.036 L 77.00101 25.931 C 75.361 25.663 73.669 26.151 72.264 27.265 z "/>
            <polygon fill="#ffffff" points="77.083,64.922 77.083,32.394 52.527,26.061 24.564,65.674 50.537,75.943 70.607,75.943   "/>
            <linearGradient x1="-656.25" gradientTransform="matrix(1 0 0 1 694.7637 -1753.3945)" y1="1822.6895" x2="-658.6207" gradientUnits="userSpaceOnUse" y2="1828.1145" xlink:type="simple" xlink:actuate="onLoad" id="XMLID_18_" xlink:show="other">
                <stop stop-color="#ffffff" offset="0"/>
                <stop stop-color="#496da2" offset="0.71"/>
                <stop stop-color="#235487" offset="0.99"/>
                <stop stop-color="#235487" offset="1"/>
            </linearGradient>
            <polygon fill="url(#XMLID_18_)" points="24.685,65.582 25.515,68.65 42.011,75.943 51.061,75.943   "/>
            <linearGradient x1="-622.2461" gradientTransform="matrix(1 0 0 1 694.7637 -1753.3945)" y1="1822.2949" x2="-616.7885" gradientUnits="userSpaceOnUse" y2="1826.5413" xlink:type="simple" xlink:actuate="onLoad" id="XMLID_19_" xlink:show="other">
                <stop stop-color="#dee9f3" offset="0"/>
                <stop stop-color="#235487" offset="1"/>
            </linearGradient>
            <path fill="url(#XMLID_19_)" d="M 77.0 63.346 L 69.947 75.944 L 72.59 75.944 C 73.021996 75.895 73.439995 75.805 73.829994 75.653 L 77.0 69.773 L 77.0 63.346 z "/>
            <linearGradient x1="-2248.3174" gradientTransform="matrix(1.1364 0 0 1.1364 2575.4861 -3400.6187)" y1="3036.9775" x2="-2210.3145" gradientUnits="userSpaceOnUse" y2="3036.9775" xlink:type="simple" xlink:actuate="onLoad" id="XMLID_20_" xlink:show="other">
                <stop stop-color="#cadcec" offset="0"/>
                <stop stop-color="#87a8cb" offset="1"/>
            </linearGradient>
            <path fill="url(#XMLID_20_)" d="M 52.302 25.64 C 35.428 51.493 20.499 60.62 20.499 60.62 C 28.594002 63.117 63.686 75.568 63.686 75.568 L 52.302 25.64 z "/>
            <linearGradient x1="-662.4146" gradientTransform="matrix(1 0 0 1 694.7637 -1753.3945)" y1="1824.7422" x2="-636.1755" gradientUnits="userSpaceOnUse" y2="1803.4393" xlink:type="simple" xlink:actuate="onLoad" id="XMLID_21_" xlink:show="other">
                <stop stop-color="#ffffff" offset="0"/>
                <stop stop-color="#ffffff" offset="0.15"/>
                <stop stop-color="#cfdce6" offset="1"/>
            </linearGradient>
            <path fill="url(#XMLID_21_)" d="M 52.238 25.505 L 26.885 62.75 C 38.802002 67.441 63.685997 75.572 63.685997 75.572 C 68.526 71.89 73.08099 66.754 77.082 61.375 L 77.082 31.462 L 52.238 25.505 z "/>
            <linearGradient x1="-614.6797" gradientTransform="matrix(1 0 0 1 694.7637 -1753.3945)" y1="1813.1016" x2="-637.09" gradientUnits="userSpaceOnUse" y2="1784.1464" xlink:type="simple" xlink:actuate="onLoad" id="XMLID_22_" xlink:show="other">
                <stop stop-color="#ffffff" offset="0"/>
                <stop stop-color="#496da2" offset="0.71"/>
                <stop stop-color="#235487" offset="0.99"/>
                <stop stop-color="#235487" offset="1"/>
            </linearGradient>
            <polygon fill="url(#XMLID_22_)" points="50.971,35.096 50.6,35.963 77.083,43.341 77.083,41.477   "/>
            <linearGradient x1="-615.5723" gradientTransform="matrix(1 0 0 1 694.7637 -1753.3945)" y1="1820.5439" x2="-641.0947" gradientUnits="userSpaceOnUse" y2="1787.5677" xlink:type="simple" xlink:actuate="onLoad" id="XMLID_23_" xlink:show="other">
                <stop stop-color="#ffffff" offset="0"/>
                <stop stop-color="#496da2" offset="0.71"/>
                <stop stop-color="#235487" offset="0.99"/>
                <stop stop-color="#235487" offset="1"/>
            </linearGradient>
            <polygon fill="url(#XMLID_23_)" points="47.555,40.499 47.148,41.355 77.083,50.831 77.083,48.816   "/>
            <linearGradient x1="-2199.0366" gradientTransform="matrix(1.1364 0 0 1.1364 2575.4861 -3400.6187)" y1="3056.9863" x2="-2223.3" gradientUnits="userSpaceOnUse" y2="3025.637" xlink:type="simple" xlink:actuate="onLoad" id="XMLID_24_" xlink:show="other">
                <stop stop-color="#ffffff" offset="0"/>
                <stop stop-color="#496da2" offset="0.71"/>
                <stop stop-color="#235487" offset="0.99"/>
                <stop stop-color="#235487" offset="1"/>
            </linearGradient>
            <polygon fill="url(#XMLID_24_)" points="44.037,46.018 43.606,46.862 75.594,58.268 75.594,56.146   "/>
            <linearGradient x1="-2207.3481" gradientTransform="matrix(1.1364 0 0 1.1364 2575.4861 -3400.6187)" y1="3063.4258" x2="-2231.616" gradientUnits="userSpaceOnUse" y2="3032.0706" xlink:type="simple" xlink:actuate="onLoad" id="XMLID_25_" xlink:show="other">
                <stop stop-color="#ffffff" offset="0"/>
                <stop stop-color="#496da2" offset="0.71"/>
                <stop stop-color="#235487" offset="0.99"/>
                <stop stop-color="#235487" offset="1"/>
            </linearGradient>
            <polyline fill="url(#XMLID_25_)" points="54.533,57.075 40.725,52.641 40.293,53.482 51.779,57.579 54.533,57.075   "/>
            <path fill="#3f5aa6" d="M 54.779 28.411 C 53.496998 29.188 53.683 31.016998 54.892 31.736 C 56.792 32.874 59.088997 30.869 57.991997 29.05 C 58.462997 27.995998 59.572 27.279999 59.866997 27.335 L 60.969997 27.564999 C 60.076 23.866 54.779 28.411 54.779 28.411 z "/>
            <linearGradient x1="-2215.7871" gradientTransform="matrix(1.1364 0 0 1.1364 2575.4861 -3400.6187)" y1="3018.5898" x2="-2214.8679" gradientUnits="userSpaceOnUse" y2="3014.6003" xlink:type="simple" xlink:actuate="onLoad" id="XMLID_26_" xlink:show="other">
                <stop stop-color="#87a8cb" offset="0"/>
                <stop stop-color="#cadcec" offset="0.5"/>
                <stop stop-color="#87a8cb" offset="1"/>
            </linearGradient>
            <path fill="url(#XMLID_26_)" d="M 56.502 30.708 C 55.886997 30.819 55.126 30.602 54.815998 29.803 C 54.045998 24.552 60.350998 22.495998 60.991997 27.564999 C 59.85 25.076 56.652 26.355 56.502 30.708 z "/>
            <path fill="#3f5aa6" d="M 63.27 30.469 C 61.963 31.26 62.151 33.125 63.386 33.861 C 65.328 35.018 67.668 32.974 66.548004 31.118 C 67.026 30.044 68.158005 29.313 68.461006 29.368 L 69.58301 29.605 C 68.674 25.832 63.27 30.469 63.27 30.469 z "/>
            <linearGradient x1="-2208.2461" gradientTransform="matrix(1.1364 0 0 1.1364 2575.4861 -3400.6187)" y1="3020.3242" x2="-2207.3271" gradientUnits="userSpaceOnUse" y2="3016.3367" xlink:type="simple" xlink:actuate="onLoad" id="XMLID_27_" xlink:show="other">
                <stop stop-color="#87a8cb" offset="0"/>
                <stop stop-color="#cadcec" offset="0.5"/>
                <stop stop-color="#87a8cb" offset="1"/>
            </linearGradient>
            <path fill="url(#XMLID_27_)" d="M 65.025 32.811 C 64.398 32.924 63.624 32.7 63.306 31.885 C 62.523 26.53 68.953 24.432 69.607 29.605 C 68.443 27.065 65.182 28.37 65.025 32.811 z "/>
            <path fill="#3f5aa6" d="M 72.398 32.707 C 71.066 33.517002 71.255005 35.416 72.515 36.168 C 74.495 37.346 76.881 35.267 75.742 33.371998 C 76.050995 32.678997 76.625 32.128 77.083 31.829998 L 77.083 30.330997 C 75.141 30.363 72.398 32.707 72.398 32.707 z "/>
            <linearGradient x1="-620.5" gradientTransform="matrix(1 0 0 1 694.7637 -1753.3945)" y1="1786.9775" x2="-619.4584" gradientUnits="userSpaceOnUse" y2="1782.4573" xlink:type="simple" xlink:actuate="onLoad" id="XMLID_28_" xlink:show="other">
                <stop stop-color="#87a8cb" offset="0"/>
                <stop stop-color="#cadcec" offset="0.5"/>
                <stop stop-color="#87a8cb" offset="1"/>
            </linearGradient>
            <path fill="url(#XMLID_28_)" d="M 72.439 34.153 C 72.757 34.985 73.548004 35.211998 74.189 35.097 C 74.293 32.134 75.75201 30.55 77.083 30.528 L 77.083 29.008999 C 74.975 28.108 71.873 30.294 72.439 34.153 z "/>
            <polygon fill="#ffffff" points="62.613,48.167 49.432,57.451 65.299,62.115   "/>
            <linearGradient x1="-638.8525" gradientTransform="matrix(1 0 0 1 694.7637 -1753.3945)" y1="1803.9307" x2="-622.8604" gradientUnits="userSpaceOnUse" y2="1807.8269" xlink:type="simple" xlink:actuate="onLoad" id="XMLID_29_" xlink:show="other">
                <stop stop-color="#d7b5d3" offset="0"/>
                <stop stop-color="#d7b5d3" offset="0.0056"/>
                <stop stop-color="#bc1a8c" offset="0.4719"/>
                <stop stop-color="#9a3875" offset="1"/>
            </linearGradient>
            <polygon fill="url(#XMLID_29_)" points="61.923,51.934 62.966,58.422 77.083,56.391 77.083,49.527   "/>
            <linearGradient x1="-637.5352" gradientTransform="matrix(1 0 0 1 694.7637 -1753.3945)" y1="1813.0391" x2="-614.2997" gradientUnits="userSpaceOnUse" y2="1812.3901" xlink:type="simple" xlink:actuate="onLoad" id="XMLID_30_" xlink:show="other">
                <stop stop-color="#d7b5d3" offset="0"/>
                <stop stop-color="#d7b5d3" offset="0.0056"/>
                <stop stop-color="#bc1a8c" offset="0.4719"/>
                <stop stop-color="#9a3875" offset="1"/>
            </linearGradient>
            <polygon fill="url(#XMLID_30_)" points="62.966,58.422 65.299,62.115 77.083,60.602 77.083,56.391   "/>
            <linearGradient x1="-632.3203" gradientTransform="matrix(1 0 0 1 694.7637 -1753.3945)" y1="1803.2275" x2="-607.2081" gradientUnits="userSpaceOnUse" y2="1799.4241" xlink:type="simple" xlink:actuate="onLoad" id="XMLID_31_" xlink:show="other">
                <stop stop-color="#d7b5d3" offset="0"/>
                <stop stop-color="#d7b5d3" offset="0.0056"/>
                <stop stop-color="#bc1a8c" offset="0.4719"/>
                <stop stop-color="#9a3875" offset="1"/>
            </linearGradient>
            <polygon fill="url(#XMLID_31_)" points="62.613,48.167 61.923,51.934 77.083,49.527 77.083,45.594   "/>
            <linearGradient x1="-2219.8335" gradientTransform="matrix(1.1364 0 0 1.1364 2575.4861 -3400.6187)" y1="3043.626" x2="-2220.4587" gradientUnits="userSpaceOnUse" y2="3039.0649" xlink:type="simple" xlink:actuate="onLoad" id="XMLID_32_" xlink:show="other">
                <stop stop-color="#235487" offset="0"/>
                <stop stop-color="#496da2" offset="0.5"/>
                <stop stop-color="#235487" offset="1"/>
            </linearGradient>
            <path fill="url(#XMLID_32_)" d="M 55.818 52.971 L 49.07 57.358 L 56.744 59.553 C 55.879 58.417 55.393 54.96 55.818 52.971 z "/>
        </g>
    </g>
</svg>
