<?xml version="1.0" encoding="UTF-8"?>
<svg xmlns="http://www.w3.org/2000/svg" xmlns:xlink="http://www.w3.org/1999/xlink" contentScriptType="text/ecmascript" width="88" baseProfile="tiny" zoomAndPan="magnify" contentStyleType="text/css" viewBox="-1 -1 88 88" height="88" preserveAspectRatio="xMidYMid meet" version="1.1">
    <rect x="-1" width="88" fill="none" y="-1" height="88"/>
    <path fill="#ffffff" d="M 13.178 6.0 C 9.219 6.0 5.9990005 9.221 5.9990005 13.18 L 5.9990005 72.823 C 5.9990005 76.78 9.219001 80.003 13.178 80.003 L 72.823 80.003 C 76.78 80.003 80.003 76.78 80.003 72.823 L 80.003 13.18 C 80.003 9.221001 76.78 6.0000005 72.823 6.0000005 L 13.178 6.0000005 z " fill-opacity="0.3" stroke-opacity="0.3"/>
    <linearGradient x1="-1817.5791" gradientTransform="matrix(1 0 0 1 1838.9697 -1498.0977)" y1="1578.4785" x2="-1774.3589" gradientUnits="userSpaceOnUse" y2="1503.6189" xlink:type="simple" xlink:actuate="onLoad" id="XMLID_9_" xlink:show="other">
        <stop stop-color="#000000" offset="0"/>
        <stop stop-color="#000000" offset="0.6461"/>
        <stop stop-color="#52a2a5" offset="0.9944"/>
        <stop stop-color="#52a2a5" offset="1"/>
    </linearGradient>
    <path fill="url(#XMLID_9_)" d="M 76.0 70.946 C 76.0 73.679 73.775 75.901 71.037 75.901 L 14.965 75.901 C 12.225 75.901 10.0 73.679 10.0 70.946 L 10.0 14.959 C 10.0 12.219 12.225 10.0 14.965 10.0 L 71.037 10.0 C 73.775 10.0 76.0 12.219 76.0 14.959 L 76.0 70.946 z "/>
    <path fill="#ffffff" d="M 54.369 70.604 L 52.271 69.518 C 47.215 66.905 42.571 58.799995 43.708 50.905 L 44.014 48.802998 L 32.106 51.185997 L 31.933998 52.206997 C 30.196999 62.53 35.218998 71.511 41.474 75.888 L 47.482 75.888 L 54.369 70.604 z "/>
    <path fill="#ffffff" d="M 30.927 52.523 L 31.165 50.586 L 19.526001 52.19 L 19.333 53.26 C 17.507 63.406 20.16 70.864 23.409 75.877 L 40.047 75.877 C 33.161 70.323 29.782 61.832 30.927 52.523 z "/>
    <path fill="#ffffff" d="M 54.818 48.77 L 55.295002 46.364002 L 44.482002 49.45 L 44.311 50.362 C 43.154 56.537 45.922 65.03 53.455 69.315 L 54.263 69.772 L 55.034 69.258 C 61.722 64.796005 61.722 64.796005 61.888 64.225006 L 62.201 63.139008 L 61.244 62.535007 C 55.82 59.141 54.201 51.88 54.818 48.77 z "/>
    <path fill="#ffffff" d="M 67.41 35.401 C 63.029003 36.443 59.234005 39.541 57.259003 43.687 C 56.230003 45.692 55.703003 47.946 55.703003 50.269 C 55.703003 51.679 55.895004 53.118 56.287003 54.54 C 57.992004 60.689003 63.254 65.285 69.100006 65.755005 C 71.146 66.115005 73.187004 66.06801 75.16701 65.59601 C 75.37301 65.547005 75.574005 65.48601 75.77501 65.42801 L 75.77501 35.979 C 73.128 34.965 70.238 34.725 67.41 35.401 z "/>
    <path fill="#ffffff" d="M 62.945 61.837 C 63.251 62.065002 63.564 62.275 63.885 62.475002 C 63.564 62.275 63.249 62.064 62.945 61.837 z "/>
    <path fill="#ffffff" d="M 74.818 64.137 C 73.796 64.38 72.766 64.495 71.746 64.495 C 70.919 64.495 70.099 64.41901 69.289 64.269005 C 67.393 64.129005 65.546005 63.498005 63.89 62.470005 C 63.911 62.485004 63.934 62.501003 63.953 62.515003 L 63.951 62.517002 C 63.93 62.503002 63.908 62.487003 63.888 62.472004 C 63.567 62.275005 63.25 62.064003 62.948 61.835003 C 62.942 61.831 62.937 61.828003 62.933002 61.824 L 62.932003 61.823 C 60.526005 60.027 58.624004 57.354004 57.735004 54.137 C 57.380005 52.846 57.209003 51.559002 57.206005 50.307 C 57.204006 48.152 57.700005 46.101997 58.612003 44.329 C 60.348003 40.684 63.663002 37.829 67.758 36.855 C 68.755005 36.617 69.745 36.503 70.72401 36.503 C 72.492004 36.503 74.19701 36.892 75.77901 37.580997 L 75.77901 34.372997 C 74.15401 33.812996 72.45301 33.503998 70.72401 33.503998 C 69.50001 33.503998 68.271 33.649998 67.064 33.937996 C 64.642006 34.513996 62.334003 35.669994 60.389004 37.280994 C 58.515003 38.833996 56.970005 40.812996 55.917004 43.009995 C 55.616005 43.600994 55.368004 44.216995 55.146004 44.839996 L 55.147003 44.839996 L 52.525 45.587997 L 45.717003 47.527996 L 45.808002 46.907997 L 41.644 47.739 L 32.831 49.504997 L 32.814003 49.51 L 32.897003 48.833 L 29.033003 49.363 L 20.404003 50.554 L 18.247004 50.853 L 17.861004 52.997 C 16.720003 59.339 17.144005 65.288 19.121004 70.682 C 19.789003 72.504 20.632004 74.237 21.627005 75.88 L 25.211004 75.88 C 22.329004 71.783 20.224005 66.432 20.235004 59.718998 C 20.239004 57.769997 20.420004 55.704998 20.812004 53.529 L 29.441004 52.34 C 29.284004 53.615 29.207005 54.879 29.207005 56.115 C 29.208004 63.911003 32.279003 70.854004 37.749004 75.882 L 39.062004 75.882 C 39.061005 75.881004 39.061005 75.881004 39.060005 75.880005 L 42.566006 75.880005 C 39.055004 73.47201 36.284004 70.29101 34.519005 66.59701 C 32.537006 62.44901 31.810005 57.64401 32.417004 52.70401 L 32.811005 49.51501 L 32.814003 49.51501 L 32.420002 52.70301 C 31.813002 57.64101 32.538002 62.44401 34.522003 66.59701 C 36.287003 70.29001 39.058002 73.47201 42.569004 75.879005 L 49.952003 75.879005 L 53.409004 73.228004 L 57.159004 70.353004 L 52.961006 68.18301 C 52.422005 67.90501 52.422005 67.90401 52.961006 68.18301 L 56.557007 70.04001 C 57.15801 69.64001 58.06801 69.02901 58.988007 68.41501 C 59.771008 67.89001 60.555008 67.36201 61.144005 66.96601 C 61.445004 66.76301 61.697006 66.59301 61.873005 66.47201 C 62.199005 66.24601 62.643005 65.93301 62.977005 65.40401 C 62.977005 65.40401 62.978004 65.40301 62.978004 65.40201 C 64.838005 66.42901 66.865005 67.073006 68.906006 67.24901 C 69.84601 67.41201 70.80201 67.49401 71.75001 67.49401 C 73.02101 67.49401 74.28501 67.34801 75.52101 67.05301 C 75.61001 67.032005 75.69401 67.00501 75.78201 66.98401 L 75.78201 63.86601 C 75.462 63.966 75.146 64.059 74.818 64.137 z "/>
    <g>
        <linearGradient x1="-1013.5605" gradientTransform="matrix(1 0 0 1 1080.1465 -1498.3711)" y1="1563.417" x2="-1013.3914" gradientUnits="userSpaceOnUse" y2="1535.0378" xlink:type="simple" xlink:actuate="onLoad" id="XMLID_10_" xlink:show="other">
            <stop stop-color="#ffffff" offset="0"/>
            <stop stop-color="#cfdce6" offset="0.35"/>
            <stop stop-color="#83a0bb" offset="0.7"/>
            <stop stop-color="#4e657a" offset="1"/>
        </linearGradient>
        <path fill="url(#XMLID_10_)" d="M 67.966 36.673 C 60.694004 38.403 55.871002 46.074 58.002003 53.557 C 60.137 61.024 67.757 65.684 75.025 63.948997 C 75.281 63.886997 75.527 63.810997 75.775 63.736996 L 75.775 37.301 C 73.375 36.305 70.695 36.021 67.966 36.673 z "/>
        <linearGradient x1="-1021.2129" gradientTransform="matrix(1 0 0 1 1080.1465 -1498.3711)" y1="1568.7988" x2="-1010.1463" gradientUnits="userSpaceOnUse" y2="1546.2185" xlink:type="simple" xlink:actuate="onLoad" id="XMLID_11_" xlink:show="other">
            <stop stop-color="#ffffff" offset="0"/>
            <stop stop-color="#ffffff" offset="0.15"/>
            <stop stop-color="#cfdce6" offset="1"/>
        </linearGradient>
        <path fill="url(#XMLID_11_)" d="M 65.812 38.516 C 59.539997 40.038998 56.012997 46.954 57.943996 53.954 C 59.876995 60.924 66.535995 65.35 72.81699 63.819 C 73.88999 63.556 74.87899 63.129 75.77799 62.577 L 75.77799 40.913 C 72.925 38.653 69.312 37.656 65.812 38.516 z "/>
        <radialGradient gradientTransform="matrix(1 0 0 1 1080.1465 -1498.3711)" gradientUnits="userSpaceOnUse" xlink:type="simple" r="15.8329" xlink:actuate="onLoad" cx="-1015.1543" id="XMLID_12_" cy="1555.6729" xlink:show="other">
            <stop stop-color="#ffffff" offset="0"/>
            <stop stop-color="#cfdce6" offset="0.309"/>
            <stop stop-color="#83a0bb" offset="0.87"/>
            <stop stop-color="#4e657a" offset="1"/>
        </radialGradient>
        <path fill="url(#XMLID_12_)" d="M 66.335 40.411 C 61.002 41.708 58.008 47.585 59.647 53.536 C 61.29 59.459 66.954 63.224 72.293 61.925 C 73.608 61.604 74.78 61.001 75.778 60.191998 L 75.778 43.316 C 73.238 40.797 69.727 39.58 66.335 40.411 z "/>
        <linearGradient x1="-1438.7021" gradientTransform="matrix(1 0 0 -1 1461.5947 1084.2441)" y1="1031.2764" x2="-1430.5629" gradientUnits="userSpaceOnUse" y2="1010.0372" xlink:type="simple" xlink:actuate="onLoad" id="XMLID_13_" xlink:show="other">
            <stop stop-color="#e6eef4" offset="0"/>
            <stop stop-color="#b94994" offset="0.44"/>
            <stop stop-color="#3d012e" offset="0.94"/>
            <stop stop-color="#3d012e" offset="1"/>
        </linearGradient>
        <path fill="url(#XMLID_13_)" d="M 29.648 52.152 L 21.019001 53.341 C 19.255001 63.146 21.76 70.585 25.552002 75.88 L 38.175003 75.88 C 31.692 70.053 28.488 61.568 29.648 52.152 z "/>
        <linearGradient x1="-1416.6162" gradientTransform="matrix(1 0 0 -1 1461.5947 1084.2441)" y1="1008.3643" x2="-1416.6145" gradientUnits="userSpaceOnUse" y2="1008.3597" xlink:type="simple" xlink:actuate="onLoad" id="XMLID_14_" xlink:show="other">
            <stop stop-color="#ffffff" offset="0"/>
            <stop stop-color="#9f58b4" offset="0.5"/>
            <stop stop-color="#ffffff" offset="1"/>
        </linearGradient>
        <polygon fill="url(#XMLID_14_)" points="44.984,75.883 44.973,75.883 44.979,75.887  "/>
        <linearGradient x1="-1424.8003" gradientTransform="matrix(1 0 0 -1 1461.5947 1084.2441)" y1="1033.748" x2="-1416.3369" gradientUnits="userSpaceOnUse" y2="1011.6703" xlink:type="simple" xlink:actuate="onLoad" id="XMLID_15_" xlink:show="other">
            <stop stop-color="#e6eef4" offset="0"/>
            <stop stop-color="#b94994" offset="0.44"/>
            <stop stop-color="#3d012e" offset="0.94"/>
            <stop stop-color="#3d012e" offset="1"/>
        </linearGradient>
        <path fill="url(#XMLID_15_)" d="M 51.792 70.662 C 46.469 67.908005 41.169 59.284004 42.438 50.502003 L 33.625 52.268 C 31.694 63.744003 38.678 72.936005 44.974 75.884 L 44.987 75.884 L 51.792 70.662 z "/>
        <linearGradient x1="-3321.4551" gradientTransform="matrix(1.1364 0 0 -1.1364 3823.2642 274.1244)" y1="198.7666" x2="-3315.4827" gradientUnits="userSpaceOnUse" y2="183.1893" xlink:type="simple" xlink:actuate="onLoad" id="XMLID_16_" xlink:show="other">
            <stop stop-color="#e6eef4" offset="0"/>
            <stop stop-color="#b94994" offset="0.44"/>
            <stop stop-color="#3d012e" offset="0.94"/>
            <stop stop-color="#3d012e" offset="1"/>
        </linearGradient>
        <path fill="url(#XMLID_16_)" d="M 53.556 48.291 L 45.994 50.448 C 44.864998 56.469 47.815998 64.074005 54.404 67.82201 C 54.404 67.82201 60.635998 63.665005 60.649998 63.620007 C 54.787 59.945 52.775 52.225 53.556 48.291 z "/>
    </g>
</svg>
