<?xml version="1.0" encoding="UTF-8"?>
<svg xmlns="http://www.w3.org/2000/svg" xmlns:xlink="http://www.w3.org/1999/xlink" contentScriptType="text/ecmascript" width="88" baseProfile="tiny" zoomAndPan="magnify" contentStyleType="text/css" viewBox="-1 -1 88 88" height="88" preserveAspectRatio="xMidYMid meet" version="1.1">
    <rect x="-1" width="88" fill="none" y="-1" height="88"/>
    <path fill="#ffffff" d="M 13.178 6.0 C 9.22 6.0 6.0 9.221 6.0 13.18 L 6.0 72.823 C 6.0 76.78 9.22 80.002 13.1779995 80.002 L 72.824 80.002 C 76.782 80.002 80.002 76.78 80.002 72.823 L 80.002 13.18 C 80.002 9.221001 76.782 6.0000005 72.824 6.0000005 L 13.178 6.0000005 z " fill-opacity="0.2" stroke-opacity="0.2"/>
    <linearGradient x1="-673.3945" gradientTransform="matrix(1 0 0 1 694.7637 -2035.709)" y1="2116.1748" x2="-630.1326" gradientUnits="userSpaceOnUse" y2="2041.2429" xlink:type="simple" xlink:actuate="onLoad" id="XMLID_16_" xlink:show="other">
        <stop stop-color="#000000" offset="0"/>
        <stop stop-color="#000000" offset="0.6461"/>
        <stop stop-color="#52a2a5" offset="0.9944"/>
        <stop stop-color="#52a2a5" offset="1"/>
    </linearGradient>
    <path fill="url(#XMLID_16_)" d="M 76.0 71.035 C 76.0 73.775 73.777 76.0 71.038 76.0 L 14.964 76.0 C 12.224 76.0 10.0 73.775 10.0 71.035 L 10.0 14.966 C 10.0 12.221 12.224 10.0 14.964 10.0 L 71.035995 10.0 C 73.774994 10.0 75.99899 12.222 75.99899 14.966 L 76.0 71.035 L 76.0 71.035 z "/>
    <g>
        <g>
            <path fill="none" d="M 24.511 60.839 C 21.823 61.738 19.366 61.86 17.24 61.024002 C 15.039 60.159 13.305 58.382004 12.211 55.897003 C 11.708 54.963005 11.4470005 53.953003 11.4470005 52.885002 C 11.4470005 51.468002 11.905001 50.001003 12.771001 48.644 C 15.237001 44.780003 20.44 42.370003 25.201 42.807 C 25.22 42.791 25.338 42.695 25.338 42.695 L 25.401 42.653 C 29.099998 40.182 34.607998 40.006 38.697 42.077 C 39.789997 38.8 46.483997 18.717 46.483997 18.717 C 46.483997 18.717 49.915997 20.008999 51.267 20.516998 C 51.829998 19.339998 53.252 16.376 53.252 16.376 C 53.252 16.376 58.062 18.869 59.597 19.664999 C 60.021 19.116 61.195 17.593998 61.195 17.593998 L 76.0 23.761 L 76.0 14.967 C 76.0 12.223 73.777 10.000999 71.037 10.000999 L 14.964 10.000999 C 12.224 10.000999 10.0 12.221999 10.0 14.966999 L 10.0 71.035995 C 10.0 73.774994 12.224 76.00099 14.964001 76.00099 L 45.52 76.00099 L 24.954 63.918 C 24.954 63.918 24.676 61.99 24.511 60.839 z "/>
            <path fill="none" d="M 75.443 56.646 C 75.376 56.736 64.637 71.163 61.036 76.0 L 71.038 76.0 C 73.777 76.0 76.0 73.775 76.0 71.035 L 75.999 71.035 L 75.999 56.021 C 75.711 56.346 75.48 56.604 75.443 56.646 z "/>
            <path fill="#ffffff" d="M 75.999 23.76 L 75.999 56.024002 "/>
            <path fill="#ffffff" d="M 61.036 76.0 L 45.52 76.0 "/>
            <path fill="#ffffff" d="M 75.999 56.021 L 75.999 23.759 L 61.193 17.592001 C 61.193 17.592001 60.019 19.114 59.597 19.663002 C 58.06 18.867002 53.251 16.374002 53.251 16.374002 C 53.251 16.374002 51.829 19.337002 51.265 20.515003 C 49.913 20.007004 46.482 18.715004 46.482 18.715004 C 46.482 18.715004 39.788998 38.798004 38.695 42.075005 C 34.606 40.004005 29.098 40.180004 25.399 42.651005 L 25.336 42.693005 C 25.336 42.693005 25.218 42.789005 25.199001 42.805004 C 20.438002 42.367004 15.235002 44.778004 12.769001 48.642006 C 11.903001 49.999004 11.445001 51.466007 11.445001 52.883007 C 11.445001 53.949005 11.706 54.961006 12.209001 55.89401 C 13.304001 58.38001 15.037001 60.15701 17.238 61.022007 C 19.364 61.858006 21.821001 61.739006 24.509 60.837006 C 24.674002 61.988007 24.951 63.916004 24.951 63.916004 L 45.52 76.0 L 61.038002 76.0 C 64.64 71.162 75.378006 56.736 75.446 56.646 C 75.48 56.604 75.711 56.346 75.999 56.021 z M 26.239 60.23 L 26.239 60.23 L 26.239 60.23 z "/>
        </g>
        <g>
            <polygon fill="#cadcec" points="41.909,46.625 54.551,20.257 70.395,28.471   "/>
            <polygon fill="#cfdce6" points="40.186,46.622 48.25,22.424 65.49,28.91   "/>
            <linearGradient x1="-2212.0273" gradientTransform="matrix(1.1364 0 0 1.1364 2577.0027 -3684.5005)" y1="3257.2646" x2="-2228.3728" gradientUnits="userSpaceOnUse" y2="3283.2598" xlink:type="simple" xlink:actuate="onLoad" id="XMLID_17_" xlink:show="other">
                <stop stop-color="#ffffff" offset="0"/>
                <stop stop-color="#ffffff" offset="0.05"/>
                <stop stop-color="#cfdce6" offset="1"/>
            </linearGradient>
            <polygon fill="url(#XMLID_17_)" points="52.713,24.092 42.421,45.148 62.68,27.699   "/>
            <linearGradient x1="-608.8477" gradientTransform="matrix(1 0 0 1 694.7637 -2035.709)" y1="2079.2139" x2="-653.6266" gradientUnits="userSpaceOnUse" y2="2122.5" xlink:type="simple" xlink:actuate="onLoad" id="XMLID_18_" xlink:show="other">
                <stop stop-color="#ffffff" offset="0"/>
                <stop stop-color="#cfdce6" offset="0.35"/>
                <stop stop-color="#83a0bb" offset="0.7"/>
                <stop stop-color="#4e657a" offset="1"/>
            </linearGradient>
            <polygon fill="url(#XMLID_18_)" points="75.988,51.752 75.988,48.095 55.343,73.64 55.427,75.97 57.509,75.97 73.23,54.849   "/>
            <linearGradient x1="-651.7871" gradientTransform="matrix(1 0 0 1 694.7637 -2035.709)" y1="2098.7695" x2="-656.1407" gradientUnits="userSpaceOnUse" y2="2108.7229" xlink:type="simple" xlink:actuate="onLoad" id="XMLID_19_" xlink:show="other">
                <stop stop-color="#ffffff" offset="0"/>
                <stop stop-color="#cfdce6" offset="0.35"/>
                <stop stop-color="#83a0bb" offset="0.7"/>
                <stop stop-color="#4e657a" offset="1"/>
            </linearGradient>
            <polygon fill="url(#XMLID_19_)" points="55.343,73.64 27.009,58.176 27.581,62.154 51.095,75.97 55.436,75.97   "/>
            <linearGradient x1="-636.4365" gradientTransform="matrix(1 0 0 1 694.7637 -2035.709)" y1="2113.2695" x2="-643.8841" gradientUnits="userSpaceOnUse" y2="2074.9141" xlink:type="simple" xlink:actuate="onLoad" id="XMLID_20_" xlink:show="other">
                <stop stop-color="#ffffff" offset="0"/>
                <stop stop-color="#ffffff" offset="0.15"/>
                <stop stop-color="#cfdce6" offset="1"/>
            </linearGradient>
            <polygon fill="url(#XMLID_20_)" points="62.117,21.063 47.781,39.667 27.059,58.209 55.343,73.64 73.493,52.182 75.988,48.919     75.988,26.84   "/>
            <linearGradient x1="-678.2651" gradientTransform="matrix(1 0 0 1 694.7637 -2035.709)" y1="2045.4912" x2="-584.2119" gradientUnits="userSpaceOnUse" y2="2096.3252" xlink:type="simple" xlink:actuate="onLoad" id="XMLID_21_" xlink:show="other">
                <stop stop-color="#ffffff" offset="0"/>
                <stop stop-color="#cfdce6" offset="0.35"/>
                <stop stop-color="#83a0bb" offset="0.7"/>
                <stop stop-color="#4e657a" offset="1"/>
            </linearGradient>
            <polygon fill="url(#XMLID_21_)" points="60.941,22.624 47.781,39.667 71.239,51.146 75.988,44.939 75.988,28.958   "/>
            <linearGradient x1="-2220.5127" gradientTransform="matrix(1.1364 0 0 1.1364 2577.0027 -3684.5005)" y1="3259.8232" x2="-2224.4512" gradientUnits="userSpaceOnUse" y2="3294.8672" xlink:type="simple" xlink:actuate="onLoad" id="XMLID_22_" xlink:show="other">
                <stop stop-color="#ffffff" offset="0"/>
                <stop stop-color="#ffffff" offset="0.05"/>
                <stop stop-color="#cfdce6" offset="1"/>
            </linearGradient>
            <polygon fill="url(#XMLID_22_)" points="28.398,56.973 54.342,70.941 71.168,51.1 47.781,39.667   "/>
            <linearGradient x1="-2254.5571" gradientTransform="matrix(1.1364 0 0 1.1364 2577.0027 -3684.5005)" y1="3251.1846" x2="-2161.2412" gradientUnits="userSpaceOnUse" y2="3367.7014" xlink:type="simple" xlink:actuate="onLoad" id="XMLID_23_" xlink:show="other">
                <stop stop-color="#ffffff" offset="0"/>
                <stop stop-color="#cfdce6" offset="0.35"/>
                <stop stop-color="#83a0bb" offset="0.7"/>
                <stop stop-color="#4e657a" offset="1"/>
            </linearGradient>
            <polygon fill="url(#XMLID_23_)" points="32.653,57.461 49.177,42.249 54.405,45.268 55.201,44.494 60.789,48.183 61.26,47.717     69.456,53.057 54.462,70.808   "/>
            <polygon fill="#496da2" points="54.462,70.808 44.938,63.982 45.111,64.922 38.582,60.587 38.716,61.386 32.658,57.382     32.958,59.263   "/>
            <linearGradient x1="-640.4668" gradientTransform="matrix(1 0 0 1 694.7637 -2035.709)" y1="2053.5566" x2="-607.129" gradientUnits="userSpaceOnUse" y2="2111.9539" xlink:type="simple" xlink:actuate="onLoad" id="XMLID_24_" xlink:show="other">
                <stop stop-color="#ffffff" offset="0"/>
                <stop stop-color="#cfdce6" offset="0.35"/>
                <stop stop-color="#83a0bb" offset="0.7"/>
                <stop stop-color="#4e657a" offset="1"/>
            </linearGradient>
            <polygon fill="url(#XMLID_24_)" points="63.676,24.369 52.001,39.23 71.466,50.855 75.988,44.845 75.988,30.441   "/>
            <polygon fill="#496da2" points="71.305,50.855 71.209,50.334 51.787,39.352 53.059,41.491   "/>
            <linearGradient x1="-2207.0132" gradientTransform="matrix(1.1364 0 0 1.1364 2577.0027 -3684.5005)" y1="3255.4512" x2="-2259.7856" gradientUnits="userSpaceOnUse" y2="3339.9893" xlink:type="simple" xlink:actuate="onLoad" id="XMLID_25_" xlink:show="other">
                <stop stop-color="#e6eef4" offset="0"/>
                <stop stop-color="#2f8e9a" offset="0.44"/>
                <stop stop-color="#4e657a" offset="0.94"/>
                <stop stop-color="#4e657a" offset="1"/>
            </linearGradient>
            <path fill="url(#XMLID_25_)" d="M 53.475 46.115 L 49.657997 44.148003 C 49.107998 43.869003 48.327995 44.101 47.910995 44.674004 L 38.096996 58.109005 C 37.680996 58.680004 37.785995 59.373005 38.333996 59.652004 L 39.147995 60.072002 L 53.475 46.115 z "/>
            <linearGradient x1="-2204.2075" gradientTransform="matrix(1.1364 0 0 1.1364 2577.0027 -3684.5005)" y1="3268.5459" x2="-2236.5034" gradientUnits="userSpaceOnUse" y2="3306.7573" xlink:type="simple" xlink:actuate="onLoad" id="XMLID_26_" xlink:show="other">
                <stop stop-color="#e6eef4" offset="0"/>
                <stop stop-color="#2f8e9a" offset="0.44"/>
                <stop stop-color="#4e657a" offset="0.94"/>
                <stop stop-color="#4e657a" offset="1"/>
            </linearGradient>
            <path fill="url(#XMLID_26_)" d="M 59.995 49.006 L 57.107 47.334 C 56.628 47.059 55.782997 47.29 55.227997 47.849 L 42.163 60.605 C 41.608997 61.128998 41.551 61.788 42.031998 62.072 L 45.053997 63.888 L 59.995 49.006 z "/>
            <linearGradient x1="-2233.5815" gradientTransform="matrix(1.1364 0 0 1.1364 2577.0027 -3684.5005)" y1="3287.8213" x2="-2244.2068" gradientUnits="userSpaceOnUse" y2="3287.8291" xlink:type="simple" xlink:actuate="onLoad" id="XMLID_27_" xlink:show="other">
                <stop stop-color="#e2e6e4" offset="0"/>
                <stop stop-color="#a3740a" offset="1"/>
            </linearGradient>
            <path fill="url(#XMLID_27_)" d="M 24.887 47.742 C 24.546 50.266 24.786 55.924 33.031998 55.831 C 41.975998 55.732002 40.573997 48.408 40.573997 48.408 L 24.887 47.742 z "/>
            <linearGradient x1="-658.9907" gradientTransform="matrix(1 0 0 -1 694.626 1083.9688)" y1="1040.4326" x2="-664.9018" gradientUnits="userSpaceOnUse" y2="1030.1942" xlink:type="simple" xlink:actuate="onLoad" id="XMLID_28_" xlink:show="other">
                <stop stop-color="#e2e6e4" offset="0"/>
                <stop stop-color="#a3740a" offset="1"/>
            </linearGradient>
            <path fill="url(#XMLID_28_)" d="M 38.375 52.29 C 35.35 54.309002 30.347 54.318 27.202 52.31 C 24.056 50.303 23.959 47.039 26.984 45.02 C 30.008999 43.001 35.011 42.995 38.156998 45.001 C 41.303 47.011 41.399 50.273 38.375 52.29 z "/>
            <linearGradient x1="-2242.4482" gradientTransform="matrix(1.1364 0 0 1.1364 2577.0027 -3684.5005)" y1="3287.6777" x2="-2252.167" gradientUnits="userSpaceOnUse" y2="3291.9624" xlink:type="simple" xlink:actuate="onLoad" id="XMLID_29_" xlink:show="other">
                <stop stop-color="#e2e6e4" offset="0"/>
                <stop stop-color="#a3740a" offset="1"/>
            </linearGradient>
            <path fill="url(#XMLID_29_)" d="M 14.353 53.511 C 15.059 55.959 17.553999 61.037003 25.066 57.636 C 33.211998 53.946003 28.982 47.807 28.982 47.807 L 14.353 53.511 z "/>
            <linearGradient x1="-2254.9697" gradientTransform="matrix(1.1364 0 0 1.1364 2577.0027 -3684.5005)" y1="3299.9326" x2="-2248.0227" gradientUnits="userSpaceOnUse" y2="3286.4641" xlink:type="simple" xlink:actuate="onLoad" id="XMLID_30_" xlink:show="other">
                <stop stop-color="#e2e6e4" offset="0"/>
                <stop stop-color="#a3740a" offset="1"/>
            </linearGradient>
            <path fill="url(#XMLID_30_)" d="M 28.529 52.24 C 26.573 55.306 21.998 57.329002 18.31 56.759003 C 14.622 56.184002 13.219 53.24 15.172999 50.174004 C 17.130999 47.108 21.71 45.086002 25.396 45.658005 C 29.086 46.23 30.489 49.183 28.529 52.24 z "/>
        </g>
    </g>
</svg>
