<?xml version="1.0" encoding="UTF-8"?>
<svg xmlns="http://www.w3.org/2000/svg" xmlns:xlink="http://www.w3.org/1999/xlink" contentScriptType="text/ecmascript" width="88" baseProfile="tiny" zoomAndPan="magnify" contentStyleType="text/css" viewBox="-1 -1 88 88" height="88" preserveAspectRatio="xMidYMid meet" version="1.1">
    <polyline fill="none" points="76.083,18.526 76.083,13.276 76.083,18.526 "/>
    <path fill="#ffffff" d="M 13.178 6.001 C 9.22 6.001 6.0 9.222 6.0 13.181 L 6.0 72.823 C 6.0 76.781 9.22 80.004 13.1779995 80.004 L 72.823 80.004 C 76.781 80.004 80.001 76.781 80.001 72.823 L 80.001 13.181 C 80.001 9.222 76.781 6.001 72.823 6.001 L 13.178 6.001 z " fill-opacity="0.3" stroke-opacity="0.3"/>
    <linearGradient x1="-1808.7529" gradientTransform="matrix(1 0 0 1 1830.1436 -1492.9336)" y1="1573.3145" x2="-1765.5327" gradientUnits="userSpaceOnUse" y2="1498.4548" xlink:type="simple" xlink:actuate="onLoad" id="XMLID_16_" xlink:show="other">
        <stop stop-color="#000000" offset="0"/>
        <stop stop-color="#000000" offset="0.6461"/>
        <stop stop-color="#52a2a5" offset="0.9944"/>
        <stop stop-color="#52a2a5" offset="1"/>
    </linearGradient>
    <path fill="url(#XMLID_16_)" d="M 76.0 70.945 C 76.0 73.679 73.778 75.901 71.037 75.901 L 14.965 75.901 C 12.225 75.901 10.0 73.679 10.0 70.945 L 10.0 14.959 C 10.0 12.22 12.225 10.0 14.965 10.0 L 71.037 10.0 C 73.778 10.0 76.0 12.22 76.0 14.959 L 76.0 70.945 z "/>
    <polygon fill="#ffffff" points="72.538,12.929 71.369,10.082 68.553,11.324 48.691,20.083 41.52,17.929 36.243,25.208   33.654,26.208 11.04,52.54 10.084,53.639 11.842,59.342 12.998,59.876 47.404,75.777 69.313,75.777 76.083,64.303 76.083,21.563 "/>
    <linearGradient x1="-1769.5273" gradientTransform="matrix(1 0 0 1 1830.1436 -1492.9336)" y1="1513.5332" x2="-1774.3197" gradientUnits="userSpaceOnUse" y2="1528.2974" xlink:type="simple" xlink:actuate="onLoad" id="XMLID_17_" xlink:show="other">
        <stop stop-color="#cadcec" offset="0"/>
        <stop stop-color="#496da2" offset="0.7022"/>
        <stop stop-color="#496da2" offset="1"/>
    </linearGradient>
    <polygon fill="url(#XMLID_17_)" points="69.766,14.069 35.187,29.319 32.658,33.815 75.979,46.188 75.979,29.204 "/>
    <linearGradient x1="-1780.7158" gradientTransform="matrix(1 0 0 1 1830.1436 -1492.9336)" y1="1528.8867" x2="-1780.7158" gradientUnits="userSpaceOnUse" y2="1500.5464" xlink:type="simple" xlink:actuate="onLoad" id="XMLID_18_" xlink:show="other">
        <stop stop-color="#ffffff" offset="0"/>
        <stop stop-color="#cfdce6" offset="0.53"/>
        <stop stop-color="#83a0bb" offset="0.87"/>
        <stop stop-color="#4e657a" offset="1"/>
    </linearGradient>
    <polygon fill="url(#XMLID_18_)" points="22.812,48.854 65.84,67.521 76.042,51.932 76.042,31.433 42.697,21.414 "/>
    <linearGradient x1="-1768.2881" gradientTransform="matrix(1 0 0 1 1830.1436 -1492.9336)" y1="1500.874" x2="-1777.1724" gradientUnits="userSpaceOnUse" y2="1543.1427" xlink:type="simple" xlink:actuate="onLoad" id="XMLID_19_" xlink:show="other">
        <stop stop-color="#ffffff" offset="0"/>
        <stop stop-color="#cfdce6" offset="0.53"/>
        <stop stop-color="#83a0bb" offset="0.87"/>
        <stop stop-color="#4e657a" offset="1"/>
    </linearGradient>
    <polygon fill="url(#XMLID_19_)" points="44.702,46.125 34.86,29.472 41.27,60.205 76.042,47.336 76.042,45.663 52.12,48.311 "/>
    <linearGradient x1="-1768.7979" gradientTransform="matrix(1 0 0 1 1830.1436 -1492.9336)" y1="1522.1592" x2="-1780.6772" gradientUnits="userSpaceOnUse" y2="1541.0116" xlink:type="simple" xlink:actuate="onLoad" id="XMLID_20_" xlink:show="other">
        <stop stop-color="#ffffff" offset="0"/>
        <stop stop-color="#ffffff" offset="0.15"/>
        <stop stop-color="#cfdce6" offset="1"/>
    </linearGradient>
    <polygon fill="url(#XMLID_20_)" points="75.979,46.11 52.359,50.329 44.212,47.594 35.061,29.472 13.305,54.506 61.652,75.777   64.123,75.777 75.979,55.805 "/>
    <linearGradient x1="-3321.7529" gradientTransform="matrix(1.1364 0 0 -1.1364 3811.8716 294.1771)" y1="178.9863" x2="-3330.2837" gradientUnits="userSpaceOnUse" y2="219.5732" xlink:type="simple" xlink:actuate="onLoad" id="XMLID_21_" xlink:show="other">
        <stop stop-color="#ffffff" offset="0"/>
        <stop stop-color="#cfdce6" offset="0.53"/>
        <stop stop-color="#83a0bb" offset="0.87"/>
        <stop stop-color="#4e657a" offset="1"/>
    </linearGradient>
    <polygon fill="url(#XMLID_21_)" points="13.305,54.506 42.857,45.25 44.061,47.594 "/>
    <linearGradient x1="-1768.3643" gradientTransform="matrix(1 0 0 1 1830.1436 -1492.9336)" y1="1536.2842" x2="-1776.7328" gradientUnits="userSpaceOnUse" y2="1576.1014" xlink:type="simple" xlink:actuate="onLoad" id="XMLID_22_" xlink:show="other">
        <stop stop-color="#dee9f3" offset="0"/>
        <stop stop-color="#235487" offset="1"/>
    </linearGradient>
    <polygon fill="url(#XMLID_22_)" points="55.956,49.672 52.165,50.329 62.998,75.777 63.11,75.777 "/>
    <linearGradient x1="-1769.1494" gradientTransform="matrix(1 0 0 1 1830.1436 -1492.9336)" y1="1566.2168" x2="-1745.3977" gradientUnits="userSpaceOnUse" y2="1547.7504" xlink:type="simple" xlink:actuate="onLoad" id="XMLID_23_" xlink:show="other">
        <stop stop-color="#dee9f3" offset="0"/>
        <stop stop-color="#235487" offset="1"/>
    </linearGradient>
    <polygon fill="url(#XMLID_23_)" points="75.979,55.381 63.592,75.777 65.827,75.777 75.979,58.576 "/>
    <linearGradient x1="-1780.3311" gradientTransform="matrix(1 0 0 1 1830.1436 -1492.9336)" y1="1586.2695" x2="-1805.6117" gradientUnits="userSpaceOnUse" y2="1528.4154" xlink:type="simple" xlink:actuate="onLoad" id="XMLID_24_" xlink:show="other">
        <stop stop-color="#ffffff" offset="0"/>
        <stop stop-color="#496da2" offset="0.71"/>
        <stop stop-color="#235487" offset="0.99"/>
        <stop stop-color="#235487" offset="1"/>
    </linearGradient>
    <polygon fill="url(#XMLID_24_)" points="13.334,54.498 14.258,57.152 54.561,75.777 61.883,75.777 "/>
    <linearGradient x1="-1753.7588" gradientTransform="matrix(1 0 0 1 1830.1436 -1492.9336)" y1="1542.2119" x2="-1779.7068" gradientUnits="userSpaceOnUse" y2="1527.9425" xlink:type="simple" xlink:actuate="onLoad" id="XMLID_25_" xlink:show="other">
        <stop stop-color="#e6eef4" offset="0"/>
        <stop stop-color="#bc1a8c" offset="0.44"/>
        <stop stop-color="#732957" offset="0.94"/>
        <stop stop-color="#732957" offset="1"/>
    </linearGradient>
    <polygon fill="url(#XMLID_25_)" fill-opacity="0.4" points="75.979,45.663 75.979,36.593 51.963,48.311 "/>
    <linearGradient x1="-1750.5137" gradientTransform="matrix(1 0 0 1 1830.1436 -1492.9336)" y1="1558.4609" x2="-1785.4797" gradientUnits="userSpaceOnUse" y2="1539.2324" xlink:type="simple" xlink:actuate="onLoad" id="XMLID_26_" xlink:show="other">
        <stop stop-color="#e6eef4" offset="0"/>
        <stop stop-color="#bc1a8c" offset="0.44"/>
        <stop stop-color="#732957" offset="0.94"/>
        <stop stop-color="#732957" offset="1"/>
    </linearGradient>
    <path fill="url(#XMLID_26_)" d="M 53.13 50.186 L 53.045002 49.895 C 53.045002 49.895 33.574 56.653 33.4 57.533 C 35.707 57.925 43.443 55.235 45.584 54.412003 C 48.272 55.821003 52.313 56.616 54.96 56.516003 C 55.918 56.486004 56.913 56.381004 57.932 56.227 C 63.017998 55.439003 70.163 52.253002 75.984 47.998 L 75.984 46.095 L 56.128 49.675003 L 53.13 50.186 z " fill-opacity="0.4"/>
    <linearGradient x1="-1768.4775" gradientTransform="matrix(1 0 0 1 1830.1436 -1492.9336)" y1="1549.9277" x2="-1771.4364" gradientUnits="userSpaceOnUse" y2="1525.9093" xlink:type="simple" xlink:actuate="onLoad" id="XMLID_27_" xlink:show="other">
        <stop stop-color="#e6eef4" offset="0"/>
        <stop stop-color="#bc1a8c" offset="0.44"/>
        <stop stop-color="#732957" offset="0.94"/>
        <stop stop-color="#732957" offset="1"/>
    </linearGradient>
    <path fill="url(#XMLID_27_)" d="M 53.771 40.628 L 49.228 45.278 L 49.308002 43.985 L 43.792004 52.71 C 50.603004 57.258 64.021 54.689 76.037 43.771 L 76.037 32.854 C 65.513 37.963 53.727005 41.963 53.727005 41.963 L 53.771 40.628 z "/>
    <linearGradient x1="-1773.7627" gradientTransform="matrix(1 0 0 1 1830.1436 -1492.9336)" y1="1530.1104" x2="-1768.5028" gradientUnits="userSpaceOnUse" y2="1536.7422" xlink:type="simple" xlink:actuate="onLoad" id="XMLID_28_" xlink:show="other">
        <stop stop-color="#e3dfe4" offset="0"/>
        <stop stop-color="#bc1a8c" offset="1"/>
    </linearGradient>
    <path fill="url(#XMLID_28_)" d="M 49.148 47.696 C 49.803997 45.356 52.420998 42.239998 53.759 40.571 C 52.878998 41.139 52.071 41.735 51.314 42.36 C 48.994 45.132 47.293 48.487 47.293 48.487 C 47.781 46.906998 48.651 45.166 49.318 43.946 C 45.88 47.232998 43.951 51.332 43.99 51.371 C 48.775 55.564 62.758003 53.75 75.978004 42.036 L 75.978004 32.067 C 67.23801 35.742 58.361004 37.670002 55.517006 39.709 C 51.645 43.397 49.148 47.696 49.148 47.696 z "/>
    <linearGradient x1="-1765.6563" gradientTransform="matrix(1 0 0 1 1830.1436 -1492.9336)" y1="1547.2051" x2="-1783.2882" gradientUnits="userSpaceOnUse" y2="1533.2852" xlink:type="simple" xlink:actuate="onLoad" id="XMLID_29_" xlink:show="other">
        <stop stop-color="#e6eef4" offset="0"/>
        <stop stop-color="#bc1a8c" offset="0.44"/>
        <stop stop-color="#732957" offset="0.94"/>
        <stop stop-color="#732957" offset="1"/>
    </linearGradient>
    <path fill="url(#XMLID_29_)" d="M 39.454 55.08 C 48.136997 51.252003 62.366997 45.831 75.667 36.248 L 75.667 34.958 C 58.692 45.33 32.221 56.938 32.221 56.938 L 39.454 55.08 z "/>
    <linearGradient x1="-1771.835" gradientTransform="matrix(1 0 0 1 1830.1436 -1492.9336)" y1="1530.1279" x2="-1766.9028" gradientUnits="userSpaceOnUse" y2="1519.8708" xlink:type="simple" xlink:actuate="onLoad" id="XMLID_30_" xlink:show="other">
        <stop stop-color="#e3dfe4" offset="0"/>
        <stop stop-color="#bc1a8c" offset="1"/>
    </linearGradient>
    <path fill="url(#XMLID_30_)" d="M 38.185 54.717 C 47.814003 50.419 62.873 44.197998 75.667 35.65 L 75.667 34.97 C 61.271 43.809002 43.596 50.524002 32.434 56.449 C 34.25 56.104 36.195 55.467 38.185 54.717 z "/>
    <path fill="#334ea2" d="M 36.832 54.108 C 38.187 53.482002 39.454002 55.08 39.454002 55.08 C 39.454002 55.08 32.254 57.846 31.827003 56.771004 C 31.827 56.771 34.035 55.398 36.832 54.108 z "/>
    <rect x="-1" width="88" fill="none" y="-1" height="88"/>
</svg>
