<?xml version="1.0" encoding="UTF-8"?>
<svg xmlns="http://www.w3.org/2000/svg" xmlns:xlink="http://www.w3.org/1999/xlink" contentScriptType="text/ecmascript" width="88" baseProfile="tiny" zoomAndPan="magnify" contentStyleType="text/css" viewBox="-1 -1 88 88" height="88" preserveAspectRatio="xMidYMid meet" version="1.1">
    <rect x="-1" width="88" fill="none" y="-1" height="88"/>
    <path fill="#ffffff" d="M 13.179 6.0 C 9.22 6.0 6.0 9.221 6.0 13.18 L 6.0 72.822 C 6.0 76.779 9.22 80.001 13.179 80.001 L 72.825 80.001 C 76.783 80.001 80.003 76.779 80.003 72.822 L 80.003 13.18 C 80.003 9.221001 76.783 6.0000005 72.825 6.0000005 L 13.179 6.0000005 z " fill-opacity="0.3" stroke-opacity="0.3"/>
    <linearGradient x1="-1432.7324" gradientTransform="matrix(1 0 0 -1 1454.123 1088.4102)" y1="1008.0303" x2="-1389.5128" gradientUnits="userSpaceOnUse" y2="1082.889" xlink:type="simple" xlink:actuate="onLoad" id="XMLID_10_" xlink:show="other">
        <stop stop-color="#000000" offset="0"/>
        <stop stop-color="#000000" offset="0.6461"/>
        <stop stop-color="#52a2a5" offset="0.9944"/>
        <stop stop-color="#52a2a5" offset="1"/>
    </linearGradient>
    <path fill="url(#XMLID_10_)" d="M 76.0 70.945 C 76.0 73.677 73.777 75.9 71.037 75.9 L 14.965 75.9 C 12.225 75.9 10.0 73.677 10.0 70.945 L 10.0 14.959 C 10.0 12.219 12.225 10.0 14.965 10.0 L 71.037 10.0 C 73.777 10.0 76.0 12.219 76.0 14.959 L 76.0 70.945 z "/>
    <path fill="#ffffff" d="M 72.282 25.832 L 71.222 25.484001 C 71.222 25.484001 71.144 25.594002 71.116 25.637001 C 71.093994 25.445002 71.07 25.240002 71.07 25.240002 L 70.109 25.001001 C 54.486 20.055 34.327 26.713001 25.171001 39.847 L 24.797 40.382 C 24.797 40.382 25.393002 43.146 25.807001 45.063 C 23.665 44.366 19.998001 43.169 19.998001 43.169 L 19.361002 44.080997 C 15.3670025 49.809998 13.873002 56.184998 15.153002 62.029 L 15.119001 61.89 C 15.596002 65.533 17.529001 70.97 21.500002 75.879 L 71.593 75.879 C 74.843 75.395996 75.968 72.426994 75.999 71.534996 L 75.999 27.364998 C 74.818 26.785 73.586 26.26 72.282 25.832 z "/>
    <rect x="38.01" width="0.001" fill="#ffffff" y="75.303" height="0.209"/>
    <polygon fill="#ffffff" points="60.695,51.962 76.002,56.77 76.002,56.77 "/>
    <rect x="75.993" y="56.829" transform="matrix(0.9538 0.3005 -0.3005 0.9538 20.6016 -20.2705)" fill="#ffffff" width="0.393" height="0.002"/>
    <path fill="#ffffff" d="M 74.684 25.111 L 72.74 26.1 C 72.715996 25.911001 72.675995 25.736 72.627 25.579 L 72.493 24.322 L 72.139 24.206001 L 72.093 24.077002 L 71.631004 23.923002 L 68.41601 22.967003 C 65.45601 22.235003 62.32301 21.864002 59.07401 21.864002 C 52.361008 21.863003 45.52501 23.428001 39.30301 26.389002 C 32.86301 29.453001 27.55101 33.81 23.943008 38.988003 L 23.196009 40.06 L 23.471008 41.337 L 23.792007 42.824 L 21.524008 42.087 L 19.407007 41.396004 L 18.133007 43.222004 C 15.662007 46.765003 14.096006 50.555004 13.491007 54.335003 L 13.244007 59.106003 C 13.303007 60.111004 13.432007 61.104004 13.634007 62.086002 C 14.108007 65.700005 15.928007 70.979004 19.601007 75.879005 L 23.466007 75.879005 C 19.029007 70.842 17.061007 65.147 16.609007 61.692005 L 16.621006 61.705006 C 16.292006 60.203007 16.156006 58.649006 16.221006 57.062004 C 16.383007 53.099003 17.799006 48.946003 20.595007 44.935005 L 24.525007 46.216003 L 24.975008 46.362003 L 27.827007 47.293003 L 68.892006 26.195004 C 69.148 26.269003 69.40201 26.346003 69.657005 26.426004 L 69.69301 26.373005 L 69.70101 26.438005 C 69.72001 26.444006 69.74001 26.449005 69.75801 26.456005 C 69.76101 26.457005 69.74301 26.485004 69.71201 26.534004 L 69.736015 26.747004 L 70.082016 29.726004 L 71.80302 27.269003 L 71.81702 27.251003 C 72.17101 27.367002 72.516014 27.488003 72.860016 27.614004 C 73.97501 28.028004 75.01202 28.508003 76.00601 29.027004 L 76.00601 25.694004 C 75.568 25.496 75.135 25.292 74.684 25.111 z "/>
    <polygon fill="#ffffff" points="60.639,51.944 57.775,51.046 60.695,51.962 60.639,51.944 "/>
    <rect x="38.09" width="0.004" fill="#ffffff" y="75.316" height="0.178"/>
    <polygon fill="#ffffff" points="47.738,57.666 47.932,60.632 49.573,58.319 49.641,58.227 49.669,58.188 50.688,56.753   51.378,55.778 47.527,54.403 47.623,55.885 "/>
    <polygon fill="#ffffff" points="38.226,75.338 38.121,75.493 38.264,75.493 "/>
    <linearGradient x1="-2962.8887" gradientTransform="matrix(1.1364 0 0 1.1364 3385.6782 -2654.5005)" y1="2400.5703" x2="-2934.6624" gradientUnits="userSpaceOnUse" y2="2363.3555" xlink:type="simple" xlink:actuate="onLoad" id="XMLID_11_" xlink:show="other">
        <stop stop-color="#ffffff" offset="0"/>
        <stop stop-color="#ffffff" offset="0.1"/>
        <stop stop-color="#d1e1ee" offset="0.7"/>
        <stop stop-color="#cfdce6" offset="1"/>
    </linearGradient>
    <path fill="url(#XMLID_11_)" d="M 69.913 26.479 C 54.960003 21.689 35.414 28.019001 26.559002 40.722 L 53.777 49.596 C 53.777 49.596 69.995 26.507 69.913 26.479 z "/>
    <linearGradient x1="-2921.9316" gradientTransform="matrix(1.1364 0 0 1.1364 3385.6782 -2654.5005)" y1="2350.2451" x2="-2927.064" gradientUnits="userSpaceOnUse" y2="2389.7241" xlink:type="simple" xlink:actuate="onLoad" id="XMLID_12_" xlink:show="other">
        <stop stop-color="#cfdce6" offset="0"/>
        <stop stop-color="#cfdce6" offset="0.1"/>
        <stop stop-color="#83a0bb" offset="0.71"/>
        <stop stop-color="#4e657a" offset="0.99"/>
        <stop stop-color="#4e657a" offset="1"/>
    </linearGradient>
    <polygon fill="url(#XMLID_12_)" points="53.994,56.77 70.505,32.065 69.842,26.396 53.521,49.532 "/>
    <linearGradient x1="-2939.9307" gradientTransform="matrix(1.1364 0 0 1.1364 3385.6782 -2654.5005)" y1="2347.8711" x2="-2945.0513" gradientUnits="userSpaceOnUse" y2="2387.2605" xlink:type="simple" xlink:actuate="onLoad" id="XMLID_13_" xlink:show="other">
        <stop stop-color="#cfdce6" offset="0"/>
        <stop stop-color="#cfdce6" offset="0.1"/>
        <stop stop-color="#83a0bb" offset="0.71"/>
        <stop stop-color="#4e657a" offset="0.99"/>
        <stop stop-color="#4e657a" offset="1"/>
    </linearGradient>
    <polygon fill="url(#XMLID_13_)" points="53.602,49.407 26.31,40.597 27.765,47.305 54.072,56.645 "/>
    <path fill="#bc1a8c" d="M 16.515 61.589 C 16.967 65.068 18.931 70.805 23.355999 75.882 L 30.782 75.882 L 16.515 61.589 z "/>
    <linearGradient x1="-1052.4033" gradientTransform="matrix(1 0 0 1 1077.124 -1501.4297)" y1="1547.9238" x2="-1037.7567" gradientUnits="userSpaceOnUse" y2="1571.9662" xlink:type="simple" xlink:actuate="onLoad" id="XMLID_14_" xlink:show="other">
        <stop stop-color="#e3dfe4" offset="0"/>
        <stop stop-color="#bc1a8c" offset="1"/>
    </linearGradient>
    <path fill="url(#XMLID_14_)" d="M 47.72 53.742 L 20.5 44.834 C 12.065 56.98 16.157 70.469 29.487999 75.882996 L 32.072 75.882996 L 47.72 53.742 z "/>
    <polygon fill="#bc1a8c" points="48.102,60.921 47.633,53.645 32.068,75.882 38.056,75.882 "/>
    <linearGradient x1="-1038.2046" gradientTransform="matrix(1 0 0 1 1077.124 -1501.4297)" y1="1589.6709" x2="-1006.5249" gradientUnits="userSpaceOnUse" y2="1547.9031" xlink:type="simple" xlink:actuate="onLoad" id="XMLID_15_" xlink:show="other">
        <stop stop-color="#ffffff" offset="0"/>
        <stop stop-color="#ffffff" offset="0.1"/>
        <stop stop-color="#d1e1ee" offset="0.7"/>
        <stop stop-color="#cfdce6" offset="1"/>
    </linearGradient>
    <path fill="url(#XMLID_15_)" d="M 71.97 27.275 L 55.793 50.393 L 76.002 56.739002 L 76.002 28.975 C 74.75 28.33 73.418 27.75 71.97 27.275 z "/>
    <linearGradient x1="-1006.5459" gradientTransform="matrix(1 0 0 1 1077.124 -1501.4297)" y1="1522.6855" x2="-1011.6757" gradientUnits="userSpaceOnUse" y2="1562.1462" xlink:type="simple" xlink:actuate="onLoad" id="XMLID_16_" xlink:show="other">
        <stop stop-color="#cfdce6" offset="0"/>
        <stop stop-color="#cfdce6" offset="0.1"/>
        <stop stop-color="#83a0bb" offset="0.71"/>
        <stop stop-color="#4e657a" offset="0.99"/>
        <stop stop-color="#4e657a" offset="1"/>
    </linearGradient>
    <polygon fill="url(#XMLID_16_)" points="55.793,50.393 56.182,57.563 76.002,64.137 76.002,56.739 "/>
    <linearGradient x1="-1003.5928" gradientTransform="matrix(1 0 0 1 1077.124 -1501.4297)" y1="1545.3066" x2="-1026.0662" gradientUnits="userSpaceOnUse" y2="1585.9945" xlink:type="simple" xlink:actuate="onLoad" id="XMLID_17_" xlink:show="other">
        <stop stop-color="#ffffff" offset="0"/>
        <stop stop-color="#cfdce6" offset="0.53"/>
        <stop stop-color="#83a0bb" offset="0.87"/>
        <stop stop-color="#4e657a" offset="1"/>
    </linearGradient>
    <path fill="url(#XMLID_17_)" d="M 38.231 74.998 L 38.451 75.883 L 71.502 75.866005 C 74.861 75.428 75.971 72.553 75.971 71.414 L 76.002 62.467003 L 38.231 74.998 z "/>
    <linearGradient x1="-1035.3926" gradientTransform="matrix(1 0 0 1 1077.124 -1501.4297)" y1="1591.7705" x2="-1004.9209" gradientUnits="userSpaceOnUse" y2="1551.5951" xlink:type="simple" xlink:actuate="onLoad" id="XMLID_18_" xlink:show="other">
        <stop stop-color="#ffffff" offset="0"/>
        <stop stop-color="#ffffff" offset="0.1"/>
        <stop stop-color="#d1e1ee" offset="0.7"/>
        <stop stop-color="#cfdce6" offset="1"/>
    </linearGradient>
    <path fill="url(#XMLID_18_)" d="M 54.429 52.198 L 38.231003 74.998 C 39.360004 75.358 40.514004 75.646 41.685 75.883 L 56.264 75.883 C 63.559 74.533005 70.579 71.268005 76.001 66.561005 L 76.001 58.985004 L 54.429 52.198 z "/>
</svg>
