<?xml version="1.0" encoding="UTF-8"?>
<svg xmlns="http://www.w3.org/2000/svg" xmlns:xlink="http://www.w3.org/1999/xlink" contentScriptType="text/ecmascript" width="88" baseProfile="tiny" zoomAndPan="magnify" contentStyleType="text/css" viewBox="0 -1 88 88" height="88" preserveAspectRatio="xMidYMid meet" version="1.1">
    <g>
        <rect width="88" fill="none" y="-1" height="88"/>
        <path fill="#ffffff" d="M 14.178 6.0 C 10.22 6.0 7.0 9.221 7.0 13.18 L 7.0 72.822 C 7.0 76.78 10.22 80.001 14.1779995 80.001 L 73.823 80.001 C 77.78 80.001 81.002 76.78 81.002 72.822 L 81.002 13.18 C 81.002 9.221001 77.78 6.0000005 73.823 6.0000005 L 14.178 6.0000005 z " fill-opacity="0.3" stroke-opacity="0.3"/>
        <linearGradient x1="-672.3936" gradientTransform="matrix(1 0 0 1 694.7637 -1711.0283)" y1="1791.4961" x2="-629.1313" gradientUnits="userSpaceOnUse" y2="1716.5638" xlink:type="simple" xlink:actuate="onLoad" id="XMLID_12_" xlink:show="other">
            <stop stop-color="#000000" offset="0"/>
            <stop stop-color="#000000" offset="0.6461"/>
            <stop stop-color="#52a2a5" offset="0.9944"/>
            <stop stop-color="#52a2a5" offset="1"/>
        </linearGradient>
        <path fill="url(#XMLID_12_)" d="M 77.0 71.037 C 77.0 73.777 74.777 76.0 72.037 76.0 L 15.965 76.0 C 13.225 76.0 11.0 73.777 11.0 71.037 L 11.0 14.966 C 11.0 12.223 13.225 10.0 15.965 10.0 L 72.037 10.0 C 74.777 10.0 77.0 12.223 77.0 14.966 L 77.0 71.037 z "/>
        <g>
            <path fill="#ffffff" d="M 76.917 71.632 L 76.917 21.361 C 68.703 19.157 52.771 14.886 52.75 14.923 C 51.635 15.277 35.448997 20.596 35.672 20.908 C 34.3 22.584002 21.112 38.279 21.112 38.279 L 37.371002 75.943 L 69.815 75.943 C 72.232 74.475 74.633 73.02 76.917 71.632 z "/>
            <linearGradient x1="-620.2813" gradientTransform="matrix(1 0 0 1 694.7637 -1711.0283)" y1="1713.9873" x2="-646.9001" gradientUnits="userSpaceOnUse" y2="1759.3796" xlink:type="simple" xlink:actuate="onLoad" id="XMLID_13_" xlink:show="other">
                <stop stop-color="#ffffff" offset="0"/>
                <stop stop-color="#b1cfe6" offset="0.53"/>
                <stop stop-color="#5e8ebb" offset="0.87"/>
                <stop stop-color="#417eb5" offset="1"/>
            </linearGradient>
            <polygon fill="url(#XMLID_13_)" points="52.76,17.949 37.512,22.79 56.928,50.014 76.917,42.021 76.917,24.653   "/>
            <linearGradient x1="-626.8672" gradientTransform="matrix(1 0 0 1 694.7637 -1711.0283)" y1="1726.9863" x2="-637.7971" gradientUnits="userSpaceOnUse" y2="1759.0189" xlink:type="simple" xlink:actuate="onLoad" id="XMLID_14_" xlink:show="other">
                <stop stop-color="#ffffff" offset="0"/>
                <stop stop-color="#b1cfe6" offset="0.53"/>
                <stop stop-color="#5e8ebb" offset="0.87"/>
                <stop stop-color="#417eb5" offset="1"/>
            </linearGradient>
            <polygon fill="url(#XMLID_14_)" points="52.783,17.731 45.146,31.217 48.107,34.58 73.895,41.923 76.917,40.934 76.917,24.43       "/>
            <linearGradient x1="-633.875" gradientTransform="matrix(1 0 0 1 694.7637 -1711.0283)" y1="1795.7324" x2="-640.3857" gradientUnits="userSpaceOnUse" y2="1767.942" xlink:type="simple" xlink:actuate="onLoad" id="XMLID_15_" xlink:show="other">
                <stop stop-color="#ffffff" offset="0"/>
                <stop stop-color="#b1cfe6" offset="0.53"/>
                <stop stop-color="#5e8ebb" offset="0.87"/>
                <stop stop-color="#417eb5" offset="1"/>
            </linearGradient>
            <polygon fill="url(#XMLID_15_)" points="71.986,63.648 37.66,53.977 42.992,75.943 57.582,75.943   "/>
            <linearGradient x1="-630.6182" gradientTransform="matrix(1 0 0 1 694.7637 -1711.0283)" y1="1798.0469" x2="-621.9944" gradientUnits="userSpaceOnUse" y2="1756.0062" xlink:type="simple" xlink:actuate="onLoad" id="XMLID_16_" xlink:show="other">
                <stop stop-color="#ffffff" offset="0"/>
                <stop stop-color="#b1cfe6" offset="0.53"/>
                <stop stop-color="#5e8ebb" offset="0.87"/>
                <stop stop-color="#417eb5" offset="1"/>
            </linearGradient>
            <polygon fill="url(#XMLID_16_)" points="76.917,67.836 76.917,62.516 71.986,63.648 57.582,75.943 63.09,75.943   "/>
            <linearGradient x1="-631.8359" gradientTransform="matrix(1 0 0 1 694.7637 -1711.0283)" y1="1799.2871" x2="-684.1232" gradientUnits="userSpaceOnUse" y2="1745.7633" xlink:type="simple" xlink:actuate="onLoad" id="XMLID_17_" xlink:show="other">
                <stop stop-color="#ffffff" offset="0"/>
                <stop stop-color="#b1cfe6" offset="0.53"/>
                <stop stop-color="#5e8ebb" offset="0.87"/>
                <stop stop-color="#417eb5" offset="1"/>
            </linearGradient>
            <polygon fill="url(#XMLID_17_)" points="37.66,53.977 24.564,38.799 40.946,75.943 42.992,75.943   "/>
            <linearGradient x1="-2205.6904" gradientTransform="matrix(1.1364 0 0 1.1364 2573.5144 -3344.3638)" y1="3022.5928" x2="-2232.6914" gradientUnits="userSpaceOnUse" y2="2920.2595" xlink:type="simple" xlink:actuate="onLoad" id="XMLID_18_" xlink:show="other">
                <stop stop-color="#ffffff" offset="0"/>
                <stop stop-color="#b1cfe6" offset="0.53"/>
                <stop stop-color="#5e8ebb" offset="0.87"/>
                <stop stop-color="#417eb5" offset="1"/>
            </linearGradient>
            <polygon fill="url(#XMLID_18_)" points="47.807,34.647 37.66,53.977 71.986,63.648 73.873,42.138   "/>
            <linearGradient x1="-615.9141" gradientTransform="matrix(1 0 0 1 694.7637 -1711.0283)" y1="1803.2773" x2="-624.0406" gradientUnits="userSpaceOnUse" y2="1729.641" xlink:type="simple" xlink:actuate="onLoad" id="XMLID_19_" xlink:show="other">
                <stop stop-color="#ffffff" offset="0"/>
                <stop stop-color="#cfdce6" offset="0.35"/>
                <stop stop-color="#83a0bb" offset="0.7"/>
                <stop stop-color="#4e657a" offset="1"/>
            </linearGradient>
            <polygon fill="url(#XMLID_19_)" points="73.873,42.138 71.986,63.648 76.917,62.516 76.917,41.147   "/>
            <linearGradient x1="-670.062" gradientTransform="matrix(1 0 0 -1 694.626 1083.9688)" y1="1045.5352" x2="-646.8193" gradientUnits="userSpaceOnUse" y2="1045.5352" xlink:type="simple" xlink:actuate="onLoad" id="XMLID_20_" xlink:show="other">
                <stop stop-color="#ffffff" offset="0"/>
                <stop stop-color="#b1cfe6" offset="0.53"/>
                <stop stop-color="#5e8ebb" offset="0.87"/>
                <stop stop-color="#417eb5" offset="1"/>
            </linearGradient>
            <polygon fill="url(#XMLID_20_)" points="37.588,22.891 24.564,38.799 37.66,53.977 47.807,34.647   "/>
            <linearGradient x1="-2253.9258" gradientTransform="matrix(1.1364 0 0 1.1364 2573.5144 -3344.3638)" y1="2989.3027" x2="-2225.0947" gradientUnits="userSpaceOnUse" y2="2979.4624" xlink:type="simple" xlink:actuate="onLoad" id="XMLID_21_" xlink:show="other">
                <stop stop-color="#ffffff" offset="0"/>
                <stop stop-color="#b1cfe6" offset="0.53"/>
                <stop stop-color="#5e8ebb" offset="0.87"/>
                <stop stop-color="#417eb5" offset="1"/>
            </linearGradient>
            <polygon fill="url(#XMLID_21_)" points="45.045,31.469 47.793,34.637 37.646,53.961 24.558,38.786   "/>
            <linearGradient x1="-608.7207" gradientTransform="matrix(1 0 0 1 694.7637 -1711.0283)" y1="1779.959" x2="-634.3837" gradientUnits="userSpaceOnUse" y2="1743.4783" xlink:type="simple" xlink:actuate="onLoad" id="XMLID_22_" xlink:show="other">
                <stop stop-color="#ffffff" offset="0"/>
                <stop stop-color="#b1cfe6" offset="0.53"/>
                <stop stop-color="#5e8ebb" offset="0.87"/>
                <stop stop-color="#417eb5" offset="1"/>
            </linearGradient>
            <polygon fill="url(#XMLID_22_)" points="73.922,42.23 72.043,63.732 76.917,62.613 76.917,41.253   "/>
        </g>
    </g>
</svg>
