<?xml version="1.0" encoding="UTF-8"?>
<svg xmlns="http://www.w3.org/2000/svg" xmlns:xlink="http://www.w3.org/1999/xlink" contentScriptType="text/ecmascript" width="88" baseProfile="tiny" zoomAndPan="magnify" contentStyleType="text/css" viewBox="-1 -1 88 88" height="88" preserveAspectRatio="xMidYMid meet" version="1.1">
    <g>
        <rect x="-1" width="88" fill="none" y="-1" height="88"/>
        <path fill="#ffffff" d="M 13.178 6.0 C 9.22 6.0 6.0 9.221 6.0 13.18 L 6.0 72.822 C 6.0 76.779 9.22 80.002 13.1779995 80.002 L 72.823 80.002 C 76.78 80.002 80.002 76.779 80.002 72.822 L 80.002 13.18 C 80.002 9.221001 76.78 6.0000005 72.823 6.0000005 L 13.178 6.0000005 z " fill-opacity="0.3" stroke-opacity="0.3"/>
        <linearGradient x1="-673.373" gradientTransform="matrix(1 0 0 1 694.7637 -1723.6729)" y1="1804.1514" x2="-630.1526" gradientUnits="userSpaceOnUse" y2="1729.2914" xlink:type="simple" xlink:actuate="onLoad" id="XMLID_13_" xlink:show="other">
            <stop stop-color="#000000" offset="0"/>
            <stop stop-color="#000000" offset="0.6461"/>
            <stop stop-color="#52a2a5" offset="0.9944"/>
            <stop stop-color="#52a2a5" offset="1"/>
        </linearGradient>
        <path fill="url(#XMLID_13_)" d="M 76.0 71.045 C 76.0 73.779 73.777 76.0 71.037 76.0 L 14.965 76.0 C 12.225 76.0 10.0 73.779 10.0 71.045 L 10.0 15.057 C 10.0 12.317 12.225 10.098 14.965 10.098 L 71.037 10.098 C 73.777 10.098 76.0 12.316999 76.0 15.056999 L 76.0 71.045 z "/>
        <g>
            <path fill="#ffffff" d="M 75.997 71.072 L 75.997 31.608 C 73.609 28.538 71.169 25.526001 69.156 23.34 L 68.525 22.655 L 67.574005 22.424 L 33.482006 14.643 L 27.049006 16.725 C 27.049006 16.725 28.539005 64.042 28.618006 66.528 C 27.482006 67.645 21.941006 73.102 18.999004 75.999 L 71.035 75.999 C 73.77 76.0 75.98 73.795 75.997 71.072 z "/>
            <g>
                <linearGradient x1="-629.8809" gradientTransform="matrix(1 0 0 -1 694.626 1083.9688)" y1="1058.665" x2="-660.0391" gradientUnits="userSpaceOnUse" y2="1006.4295" xlink:type="simple" xlink:actuate="onLoad" id="XMLID_14_" xlink:show="other">
                    <stop stop-color="#ffffff" offset="0"/>
                    <stop stop-color="#ffffff" offset="0.05"/>
                    <stop stop-color="#cfdce6" offset="1"/>
                </linearGradient>
                <path fill="url(#XMLID_14_)" d="M 68.177 27.286 L 30.111 18.734 L 31.92 76.0 L 71.038 76.0 C 73.769005 76.0 75.982 73.795 75.998 71.072 L 75.998 37.722 C 73.414 34.091 70.746 30.449 68.177 27.286 z "/>
                <polygon fill="#dee9f3" points="30.053,18.902 33.619,17.752 66.964,25.362 64.344,27.214    "/>
                <linearGradient x1="-631.4971" gradientTransform="matrix(1 0 0 -1 694.626 1083.9688)" y1="1050.0898" x2="-627.4692" gradientUnits="userSpaceOnUse" y2="1050.0898" xlink:type="simple" xlink:actuate="onLoad" id="XMLID_15_" xlink:show="other">
                    <stop stop-color="#cfdce6" offset="0"/>
                    <stop stop-color="#83a0bb" offset="1"/>
                </linearGradient>
                <path fill="url(#XMLID_15_)" d="M 64.309 27.193 C 65.916 31.585001 64.047 38.054 63.128998 42.417 C 65.009995 36.819 68.021996 27.643 66.922 25.339 L 64.309 27.193 z "/>
            </g>
            <g>
                <linearGradient x1="-624.9521" gradientTransform="matrix(1 0 0 -1 694.626 1083.9688)" y1="1041.7314" x2="-625.8351" gradientUnits="userSpaceOnUse" y2="1036.7238" xlink:type="simple" xlink:actuate="onLoad" id="XMLID_16_" xlink:show="other">
                    <stop stop-color="#cfdce6" offset="0"/>
                    <stop stop-color="#83a0bb" offset="1"/>
                </linearGradient>
                <polygon fill="url(#XMLID_16_)" points="65.063,41.423 61.822,46.016 75.997,47.127 75.997,43.633    "/>
                <linearGradient x1="-618.8711" gradientTransform="matrix(1 0 0 1 694.7637 -1723.6729)" y1="1740.5146" x2="-625.7135" gradientUnits="userSpaceOnUse" y2="1768.4211" xlink:type="simple" xlink:actuate="onLoad" id="XMLID_17_" xlink:show="other">
                    <stop stop-color="#ffffff" offset="0"/>
                    <stop stop-color="#ffffff" offset="0.05"/>
                    <stop stop-color="#cfdce6" offset="1"/>
                </linearGradient>
                <path fill="url(#XMLID_17_)" d="M 66.922 25.342 C 67.179 29.474998 63.478996 41.321 63.128998 42.420998 C 64.173996 42.476997 70.727 43.596996 75.996994 44.493996 L 75.996994 36.538994 C 72.962 32.538 69.529 28.169 66.922 25.342 z "/>
            </g>
            <g>
                <linearGradient x1="-931.4111" gradientTransform="matrix(1.2914 0 0 1.2914 1240.5571 -108.2612)" y1="122.4678" x2="-905.8042" gradientUnits="userSpaceOnUse" y2="122.4678" xlink:type="simple" xlink:actuate="onLoad" id="XMLID_18_" xlink:show="other">
                    <stop stop-color="#496da2" offset="0"/>
                    <stop stop-color="#87a8cb" offset="1"/>
                </linearGradient>
                <polygon fill="url(#XMLID_18_)" points="37.733,44.396 37.733,47.379 70.802,55.391 70.802,52.408    "/>
                <linearGradient x1="-931.4111" gradientTransform="matrix(1.2914 0 0 1.2914 1240.5571 -108.2612)" y1="130.5869" x2="-905.8042" gradientUnits="userSpaceOnUse" y2="130.5869" xlink:type="simple" xlink:actuate="onLoad" id="XMLID_19_" xlink:show="other">
                    <stop stop-color="#496da2" offset="0"/>
                    <stop stop-color="#87a8cb" offset="1"/>
                </linearGradient>
                <polygon fill="url(#XMLID_19_)" points="37.733,54.881 37.733,57.861 70.802,65.875 70.802,62.891    "/>
                <linearGradient x1="-657.0308" gradientTransform="matrix(1 0 0 1 694.7637 -1723.6729)" y1="1794.3535" x2="-623.9619" gradientUnits="userSpaceOnUse" y2="1794.3535" xlink:type="simple" xlink:actuate="onLoad" id="XMLID_20_" xlink:show="other">
                    <stop stop-color="#496da2" offset="0"/>
                    <stop stop-color="#87a8cb" offset="1"/>
                </linearGradient>
                <polygon fill="url(#XMLID_20_)" points="70.802,73.375 37.733,65.361 37.733,68.346 69.322,76 70.802,76    "/>
            </g>
            <g>
                <path fill="#ffffff" d="M 51.855 66.492 L 55.039 57.413998 L 50.406002 53.529 L 41.968002 57.597 C 41.994 62.57 47.133 67.221 51.855 66.492 z "/>
                <linearGradient x1="-657.9351" gradientTransform="matrix(1 0 0 -1 694.626 1083.9688)" y1="1019.8438" x2="-652.2327" gradientUnits="userSpaceOnUse" y2="1009.9669" xlink:type="simple" xlink:actuate="onLoad" id="XMLID_21_" xlink:show="other">
                    <stop stop-color="#d7b5d3" offset="0"/>
                    <stop stop-color="#d7b5d3" offset="0.0056"/>
                    <stop stop-color="#bc1a8c" offset="0.4719"/>
                    <stop stop-color="#9a3875" offset="1"/>
                </linearGradient>
                <polygon fill="url(#XMLID_21_)" points="50.127,63.066 45.59,58.986 29.501,76 38.931,76    "/>
                <linearGradient x1="-660.1929" gradientTransform="matrix(1 0 0 -1 694.626 1083.9688)" y1="1026.375" x2="-660.1929" gradientUnits="userSpaceOnUse" y2="1007.9688" xlink:type="simple" xlink:actuate="onLoad" id="XMLID_22_" xlink:show="other">
                    <stop stop-color="#d7b5d3" offset="0"/>
                    <stop stop-color="#d7b5d3" offset="0.0056"/>
                    <stop stop-color="#bc1a8c" offset="0.4719"/>
                    <stop stop-color="#9a3875" offset="1"/>
                </linearGradient>
                <polygon fill="url(#XMLID_22_)" points="45.59,58.986 41.967,57.594 23.276,76 29.501,76    "/>
                <linearGradient x1="-649.2334" gradientTransform="matrix(1 0 0 -1 694.626 1083.9688)" y1="1020.9023" x2="-649.2334" gradientUnits="userSpaceOnUse" y2="1007.9688" xlink:type="simple" xlink:actuate="onLoad" id="XMLID_23_" xlink:show="other">
                    <stop stop-color="#d7b5d3" offset="0"/>
                    <stop stop-color="#d7b5d3" offset="0.0056"/>
                    <stop stop-color="#bc1a8c" offset="0.4719"/>
                    <stop stop-color="#9a3875" offset="1"/>
                </linearGradient>
                <polygon fill="url(#XMLID_23_)" points="51.855,66.492 50.127,63.066 38.931,76 44.507,76    "/>
                <linearGradient x1="1145.543" gradientTransform="matrix(0.0222 -1.291 1.291 0.0222 -5353.2524 1437.6902)" y1="4167.7168" x2="1142.296" gradientUnits="userSpaceOnUse" y2="4170.8389" xlink:type="simple" xlink:actuate="onLoad" id="XMLID_24_" xlink:show="other">
                    <stop stop-color="#235487" offset="0"/>
                    <stop stop-color="#235487" offset="0.0056"/>
                    <stop stop-color="#496da2" offset="0.4888"/>
                    <stop stop-color="#235487" offset="1"/>
                </linearGradient>
                <path fill="url(#XMLID_24_)" d="M 54.809 58.266 L 57.260998 50.445 L 49.655 53.82 C 51.326 54.131 54.184 56.744 54.809 58.266 z "/>
            </g>
        </g>
    </g>
</svg>
