<?xml version="1.0" encoding="UTF-8"?>
<svg xmlns="http://www.w3.org/2000/svg" xmlns:xlink="http://www.w3.org/1999/xlink" contentScriptType="text/ecmascript" width="88" baseProfile="tiny" zoomAndPan="magnify" contentStyleType="text/css" viewBox="0 -1 88 88" height="88" preserveAspectRatio="xMidYMid meet" version="1.1">
    <g>
        <rect width="88" fill="none" y="-1" height="88"/>
        <path fill="#ffffff" d="M 14.178 6.0 C 10.22 6.0 7.0 9.221 7.0 13.18 L 7.0 72.823 C 7.0 76.78 10.22 80.003 14.1779995 80.003 L 73.823 80.003 C 77.78 80.003 81.001 76.78 81.001 72.823 L 81.001 13.18 C 81.0 9.221 77.779 6.0 73.822 6.0 L 14.178 6.0 z " fill-opacity="0.3" stroke-opacity="0.3"/>
        <linearGradient x1="-672.394" gradientTransform="matrix(1 0 0 1 694.7637 -1749.709)" y1="1830.1758" x2="-629.1315" gradientUnits="userSpaceOnUse" y2="1755.243" xlink:type="simple" xlink:actuate="onLoad" id="XMLID_16_" xlink:show="other">
            <stop stop-color="#000000" offset="0"/>
            <stop stop-color="#000000" offset="0.6461"/>
            <stop stop-color="#52a2a5" offset="0.9944"/>
            <stop stop-color="#52a2a5" offset="1"/>
        </linearGradient>
        <path fill="url(#XMLID_16_)" d="M 77.0 71.037 C 77.0 73.777 74.777 76.0 72.037 76.0 L 15.965 76.0 C 13.225 76.0 11.0 73.777 11.0 71.037 L 11.0 14.966 C 11.0 12.223 13.225 10.0 15.965 10.0 L 72.037 10.0 C 74.777 10.0 77.0 12.223 77.0 14.966 L 77.0 71.037 z "/>
        <g>
            <path fill="#ffffff" d="M 35.737 10.95 L 30.708 17.553 C 30.708 17.553 36.178 21.199999 40.029 23.767 C 35.940998 23.229 31.555 22.652 31.555 22.652 L 20.563 24.304 C 20.563 24.304 20.907 32.276 20.991 34.207 C 20.036999 34.464 17.689 35.098 17.689 35.098 L 20.662998 75.999 L 72.037994 75.999 C 74.77899 75.999 77.00099 73.775 77.00099 71.036 L 77.00099 28.633 C 69.78199 27.682999 61.13299 26.545 60.745995 26.494 C 60.171 26.137 35.737 10.95 35.737 10.95 z "/>
            <linearGradient x1="-636.4951" gradientTransform="matrix(1 0 0 1 694.7637 -1749.709)" y1="1776.7324" x2="-639.3492" gradientUnits="userSpaceOnUse" y2="1781.5425" xlink:type="simple" xlink:actuate="onLoad" id="XMLID_17_" xlink:show="other">
                <stop stop-color="#808183" offset="0"/>
                <stop stop-color="#231f20" offset="1"/>
            </linearGradient>
            <polygon fill="url(#XMLID_17_)" points="36.47,14.938 35.03,16.829 77,44.813 77,40.129   "/>
            <linearGradient x1="-650.6577" gradientTransform="matrix(1 0 0 1 694.7637 -1749.709)" y1="1801.0508" x2="-640.5111" gradientUnits="userSpaceOnUse" y2="1783.4763" xlink:type="simple" xlink:actuate="onLoad" id="XMLID_18_" xlink:show="other">
                <stop stop-color="#ffffff" offset="0"/>
                <stop stop-color="#808183" offset="1"/>
            </linearGradient>
            <polygon fill="url(#XMLID_18_)" points="32.501,34.209 20.859,37.352 76.264,48.844 77,48.62 77,42.638   "/>
            <linearGradient x1="-632.8438" gradientTransform="matrix(1 0 0 1 694.7637 -1749.709)" y1="1779.7373" x2="-656.8288" gradientUnits="userSpaceOnUse" y2="1825.3035" xlink:type="simple" xlink:actuate="onLoad" id="XMLID_19_" xlink:show="other">
                <stop stop-color="#ffffff" offset="0"/>
                <stop stop-color="#808183" offset="1"/>
            </linearGradient>
            <path fill="url(#XMLID_19_)" d="M 20.859 37.352 L 23.67 76.0 L 72.037 76.0 C 73.637 76.0 75.042 75.23 75.950005 74.058 L 75.818 48.699997 L 20.859 37.352 z "/>
            <linearGradient x1="-648.3906" gradientTransform="matrix(1 0 0 1 694.7637 -1749.709)" y1="1788.3926" x2="-640.8326" gradientUnits="userSpaceOnUse" y2="1773.2767" xlink:type="simple" xlink:actuate="onLoad" id="XMLID_20_" xlink:show="other">
                <stop stop-color="#ffffff" offset="0"/>
                <stop stop-color="#808183" offset="1"/>
            </linearGradient>
            <polygon fill="url(#XMLID_20_)" points="31.582,25.682 23.676,26.871 77,34.641 77,31.659   "/>
            <linearGradient x1="-668.729" gradientTransform="matrix(1 0 0 -1 694.626 1083.9688)" y1="1050.8945" x2="-662.5488" gradientUnits="userSpaceOnUse" y2="1050.8945" xlink:type="simple" xlink:actuate="onLoad" id="XMLID_21_" xlink:show="other">
                <stop stop-color="#808183" offset="0"/>
                <stop stop-color="#231f20" offset="1"/>
            </linearGradient>
            <polygon fill="url(#XMLID_21_)" points="32.077,35.318 31.781,29.064 25.897,29.544 26.489,37.084   "/>
            <linearGradient x1="-635.0273" gradientTransform="matrix(1 0 0 1 694.7637 -1749.709)" y1="1768.9814" x2="-648.1166" gradientUnits="userSpaceOnUse" y2="1793.8619" xlink:type="simple" xlink:actuate="onLoad" id="XMLID_22_" xlink:show="other">
                <stop stop-color="#ffffff" offset="0"/>
                <stop stop-color="#808183" offset="1"/>
            </linearGradient>
            <polygon fill="url(#XMLID_22_)" points="23.676,26.871 24.098,36.636 26.464,37.084 26.224,30.915 76.273,39.577 76.322,47.223     77,47.398 77,34.573   "/>
            <linearGradient x1="-610.7969" gradientTransform="matrix(1 0 0 1 694.7637 -1749.709)" y1="1793.2021" x2="-627.1051" gradientUnits="userSpaceOnUse" y2="1829.441" xlink:type="simple" xlink:actuate="onLoad" id="XMLID_23_" xlink:show="other">
                <stop stop-color="#808183" offset="0"/>
                <stop stop-color="#231f20" offset="1"/>
            </linearGradient>
            <path fill="url(#XMLID_23_)" d="M 75.826 74.207 C 76.548 73.346 77.0 72.249 77.0 71.037 L 77.0 48.542 L 75.621 48.936 L 75.826 74.207 z "/>
            <linearGradient x1="-636.9043" gradientTransform="matrix(1 0 0 1 694.7637 -1749.709)" y1="1822.2178" x2="-636.6218" gradientUnits="userSpaceOnUse" y2="1824.9514" xlink:type="simple" xlink:actuate="onLoad" id="XMLID_24_" xlink:show="other">
                <stop stop-color="#808183" offset="0"/>
                <stop stop-color="#231f20" offset="1"/>
            </linearGradient>
            <path fill="url(#XMLID_24_)" d="M 57.264 72.709 C 55.471 72.811 54.389 74.255 54.639 76.027 L 61.811 76.027 C 61.206 74.078 59.197 72.595 57.264 72.709 z "/>
            <linearGradient x1="-637.7441" gradientTransform="matrix(1 0 0 1 694.7637 -1749.709)" y1="1823.5176" x2="-637.3812" gradientUnits="userSpaceOnUse" y2="1825.7225" xlink:type="simple" xlink:actuate="onLoad" id="XMLID_25_" xlink:show="other">
                <stop stop-color="#ffffff" offset="0"/>
                <stop stop-color="#808183" offset="1"/>
            </linearGradient>
            <path fill="url(#XMLID_25_)" d="M 56.66 74.097 C 55.478 74.171 54.765 74.914 54.722 76.028 L 60.046 76.028 C 59.379 74.761 57.958 74.015 56.66 74.097 z "/>
            <linearGradient x1="-650.0938" gradientTransform="matrix(1 0 0 1 694.7637 -1749.709)" y1="1835.4746" x2="-661.2156" gradientUnits="userSpaceOnUse" y2="1784.6368" xlink:type="simple" xlink:actuate="onLoad" id="XMLID_26_" xlink:show="other">
                <stop stop-color="#808183" offset="0"/>
                <stop stop-color="#231f20" offset="1"/>
            </linearGradient>
            <path fill="url(#XMLID_26_)" d="M 53.121 62.476 C 52.420998 53.595 45.628998 45.663002 37.947 44.757004 C 30.269 43.841003 24.606998 50.298004 25.304998 59.175003 C 25.898998 66.735 30.918 73.589005 37.138 76.028 L 46.329002 76.028 C 50.813 73.998 53.623 68.873 53.121 62.476 z "/>
            <linearGradient x1="-2236.5283" gradientTransform="matrix(1.1364 0 0 1.1364 2574.9548 -3392.9946)" y1="3026.8242" x2="-2227.5286" gradientUnits="userSpaceOnUse" y2="3048.4937" xlink:type="simple" xlink:actuate="onLoad" id="XMLID_27_" xlink:show="other">
                <stop stop-color="#808183" offset="0"/>
                <stop stop-color="#231f20" offset="1"/>
            </linearGradient>
            <path fill="url(#XMLID_27_)" d="M 50.438 62.58 C 50.994 69.689 46.5 74.867004 40.417 74.133 C 34.329 73.403 28.944 67.049 28.394001 59.938004 C 27.84 52.831005 32.329002 47.653004 38.413002 48.382004 C 44.501 49.109 49.882 55.463 50.438 62.58 z "/>
            <linearGradient x1="-638.5332" gradientTransform="matrix(1 0 0 -1 694.626 1083.9688)" y1="1026.1504" x2="-621.334" gradientUnits="userSpaceOnUse" y2="1026.1504" xlink:type="simple" xlink:actuate="onLoad" id="XMLID_28_" xlink:show="other">
                <stop stop-color="#ffffff" offset="0"/>
                <stop stop-color="#ffffff" offset="0.1"/>
                <stop stop-color="#d1e1ee" offset="0.7"/>
                <stop stop-color="#cfdce6" offset="1"/>
            </linearGradient>
            <polygon fill="url(#XMLID_28_)" points="73.292,63.591 73.193,55.713 56.093,52.045 56.216,59.352   "/>
            <linearGradient x1="-638.582" gradientTransform="matrix(1 0 0 -1 694.626 1083.9688)" y1="1028.2773" x2="-636.6396" gradientUnits="userSpaceOnUse" y2="1028.2773" xlink:type="simple" xlink:actuate="onLoad" id="XMLID_29_" xlink:show="other">
                <stop stop-color="#808183" offset="0"/>
                <stop stop-color="#231f20" offset="1"/>
            </linearGradient>
            <polygon fill="url(#XMLID_29_)" points="57.986,58.795 57.85,52.402 56.044,51.992 56.234,59.392   "/>
            <linearGradient x1="-638.3799" gradientTransform="matrix(1 0 0 -1 694.626 1083.9688)" y1="1022.7754" x2="-621.333" gradientUnits="userSpaceOnUse" y2="1022.7754" xlink:type="simple" xlink:actuate="onLoad" id="XMLID_30_" xlink:show="other">
                <stop stop-color="#ffffff" offset="0"/>
                <stop stop-color="#808183" offset="1"/>
            </linearGradient>
            <polygon fill="url(#XMLID_30_)" points="57.986,58.795 73.293,62.351 73.292,63.591 56.246,59.416   "/>
        </g>
    </g>
</svg>
