<?xml version="1.0" encoding="UTF-8"?>
<svg xmlns="http://www.w3.org/2000/svg" xmlns:xlink="http://www.w3.org/1999/xlink" contentScriptType="text/ecmascript" width="60" baseProfile="tiny" zoomAndPan="magnify" contentStyleType="text/css" viewBox="0 0 60 80" height="80" preserveAspectRatio="xMidYMid meet" version="1.1">
    <g>
        <path fill="#ffffff" d="M 26.142 13.056 C 17.859001 13.651999 12.005 16.222 12.005 19.283 L 14.305 63.924 C 14.305 63.924 19.502 75.311 39.689003 69.281 C 39.689003 69.281 45.131004 67.56 45.614002 64.743996 C 45.631 64.697 47.968002 19.284996 47.968002 19.284996 C 47.968002 16.180996 42.021004 13.602996 33.503002 13.018996 C 32.757004 12.747996 31.371002 12.574996 29.894003 12.574996 C 28.385 12.573 26.983 12.753 26.142 13.056 z "/>
        <linearGradient x1="-739.4082" gradientTransform="matrix(1.25 0 0 -1.25 947.751 1440.2539)" y1="1115.623" x2="-719.7284" gradientUnits="userSpaceOnUse" y2="1115.7751" xlink:type="simple" xlink:actuate="onLoad" id="XMLID_13_" xlink:show="other">
            <stop stop-color="#ffffff" offset="0"/>
            <stop stop-color="#ffffff" offset="0.05"/>
            <stop stop-color="#a2c2dd" offset="1"/>
        </linearGradient>
        <path fill="url(#XMLID_13_)" d="M 46.955 20.856 L 45.34 64.008 C 45.453 70.41 19.522 74.942 14.967001 64.053 L 13.108001 20.858002 L 46.955 20.856 L 46.955 20.856 z "/>
        <linearGradient x1="-735.9941" gradientTransform="matrix(1.25 0 0 -1.25 947.751 1440.2539)" y1="1116.6279" x2="-754.0423" gradientUnits="userSpaceOnUse" y2="1116.6279" xlink:type="simple" xlink:actuate="onLoad" id="XMLID_14_" xlink:show="other">
            <stop stop-color="#ffffff" offset="0"/>
            <stop stop-color="#ffffff" offset="0.05"/>
            <stop stop-color="#a2c2dd" offset="1"/>
        </linearGradient>
        <path fill="url(#XMLID_14_)" d="M 23.027 24.079 L 23.402 69.588 C 23.402 69.588 19.683 68.49 17.722 67.084 C 15.761 65.676 14.663 63.715 14.663 63.715 L 12.386 19.355 C 13.121 19.78 20.743 23.503 23.027 24.079 z "/>
        <linearGradient x1="-729.4106" gradientTransform="matrix(1.25 0 0 -1.25 947.751 1440.2539)" y1="1116.8457" x2="-720.0151" gradientUnits="userSpaceOnUse" y2="1116.8457" xlink:type="simple" xlink:actuate="onLoad" id="XMLID_15_" xlink:show="other">
            <stop stop-color="#ffffff" offset="0"/>
            <stop stop-color="#ffffff" offset="0.05"/>
            <stop stop-color="#a2c2dd" offset="1"/>
        </linearGradient>
        <path fill="url(#XMLID_15_)" d="M 39.564 69.033 L 45.268997 64.642 L 47.572 19.358997 C 47.572 19.358997 41.356 22.857998 40.294 23.340998 L 39.564 69.033 z "/>
        <linearGradient x1="-737.6411" gradientTransform="matrix(1.25 0 0 -1.25 947.751 1440.2539)" y1="1137.4678" x2="-706.0562" gradientUnits="userSpaceOnUse" y2="1102.4945" xlink:type="simple" xlink:actuate="onLoad" id="XMLID_16_" xlink:show="other">
            <stop stop-color="#e6eef4" offset="0"/>
            <stop stop-color="#4a9900" offset="0.44"/>
            <stop stop-color="#0e4e58" offset="0.94"/>
            <stop stop-color="#0e4e58" offset="1"/>
        </linearGradient>
        <path fill="url(#XMLID_16_)" d="M 47.495 20.062 C 44.985 23.165 38.107998 25.391 30.022999 25.391 C 21.743 25.391 14.734999 23.058 12.380999 19.841 L 12.801998 26.557999 C 14.992998 29.746998 21.871998 32.077 30.022999 32.077 C 38.077 32.077 44.854 29.892 47.134 26.76 L 47.495 20.062 z "/>
        <linearGradient x1="-743.3105" gradientTransform="matrix(1.25 0 0 -1.25 947.751 1440.2539)" y1="1143.0596" x2="-745.1947" gradientUnits="userSpaceOnUse" y2="1112.4231" xlink:type="simple" xlink:actuate="onLoad" id="XMLID_17_" xlink:show="other">
            <stop stop-color="#dce8e4" offset="0"/>
            <stop stop-color="#43910a" offset="1"/>
        </linearGradient>
        <path fill="url(#XMLID_17_)" d="M 23.008 24.894 L 12.384 19.814 L 12.805 26.530998 C 14.202001 28.696 18.929 30.919998 23.092 31.478998 L 23.008 24.894 z "/>
        <linearGradient x1="-726.0469" gradientTransform="matrix(1.25 0 0 -1.25 947.751 1440.2539)" y1="1131.8994" x2="-720.2046" gradientUnits="userSpaceOnUse" y2="1131.8994" xlink:type="simple" xlink:actuate="onLoad" id="XMLID_18_" xlink:show="other">
            <stop stop-color="#dce8e4" offset="0"/>
            <stop stop-color="#43910a" offset="1"/>
        </linearGradient>
        <path fill="url(#XMLID_18_)" d="M 40.192 30.725 C 43.476 29.87 46.212 28.028 47.134003 26.762001 L 47.494003 20.037 L 40.332005 23.975 L 40.192 30.725 z " fill-opacity="0.5"/>
        <radialGradient gradientTransform="matrix(1.25 0 0 -1.25 947.751 1440.2539)" gradientUnits="userSpaceOnUse" xlink:type="simple" r="10.5284" xlink:actuate="onLoad" cx="-734.2114" id="XMLID_19_" cy="1136.7773" xlink:show="other">
            <stop stop-color="#ffffff" offset="0"/>
            <stop stop-color="#ffffff" offset="0.05"/>
            <stop stop-color="#a2c2dd" offset="1"/>
        </radialGradient>
        <path fill="url(#XMLID_19_)" d="M 47.599 19.283 C 47.599 22.605001 39.716 25.300001 29.987 25.300001 C 20.261 25.300001 12.375 22.605001 12.375 19.283 C 12.375 15.963001 20.261 13.267001 29.987 13.267001 C 39.716 13.266 47.599 15.963 47.599 19.283 z "/>
        <linearGradient x1="-746.7563" gradientTransform="matrix(1.25 0 0 -1.25 947.751 1440.2539)" y1="1137.2031" x2="-721.3657" gradientUnits="userSpaceOnUse" y2="1137.2031" xlink:type="simple" xlink:actuate="onLoad" id="XMLID_20_" xlink:show="other">
            <stop stop-color="#ffffff" offset="0"/>
            <stop stop-color="#ffffff" offset="0.05"/>
            <stop stop-color="#a2c2dd" offset="1"/>
        </linearGradient>
        <path fill="url(#XMLID_20_)" d="M 30.174 13.841 C 21.411 13.841 14.304999 16.039999 14.304999 18.747 C 14.304999 21.46 21.41 23.659 30.174 23.659 C 38.938 23.659 46.044 21.461 46.044 18.747 C 46.044 16.041 38.939 13.841 30.174 13.841 z "/>
        <radialGradient gradientTransform="matrix(1.25 0 0 -1.25 947.751 1440.2539)" gradientUnits="userSpaceOnUse" xlink:type="simple" r="4.673" xlink:actuate="onLoad" cx="-734.2603" id="XMLID_21_" cy="1137.1855" xlink:show="other">
            <stop stop-color="#ffffff" offset="0"/>
            <stop stop-color="#ffffff" offset="0.05"/>
            <stop stop-color="#a2c2dd" offset="1"/>
        </radialGradient>
        <ellipse rx="7.797" ry="2.731" fill="url(#XMLID_21_)" cx="29.925" cy="18.772"/>
        <linearGradient x1="-731.8281" gradientTransform="matrix(1.25 0 0 -1.25 947.751 1440.2539)" y1="1139.3271" x2="-708.3295" gradientUnits="userSpaceOnUse" y2="1126.7286" xlink:type="simple" xlink:actuate="onLoad" id="XMLID_22_" xlink:show="other">
            <stop stop-color="#dce8e4" offset="0"/>
            <stop stop-color="#43910a" offset="1"/>
        </linearGradient>
        <path fill="url(#XMLID_22_)" d="M 30.976 19.291 L 40.313 24.065 C 44.221 23.207 47.225998 21.444 47.595 19.681 L 34.530003 17.963 C 34.223 18.384 31.92 18.965 30.976 19.291 z "/>
        <linearGradient x1="-739.6943" gradientTransform="matrix(1.25 0 0 -1.25 947.751 1440.2539)" y1="1138.3379" x2="-729.9518" gradientUnits="userSpaceOnUse" y2="1138.566" xlink:type="simple" xlink:actuate="onLoad" id="XMLID_23_" xlink:show="other">
            <stop stop-color="#ffffff" offset="0"/>
            <stop stop-color="#a2c2dd" offset="0.35"/>
            <stop stop-color="#6c83bb" offset="0.7"/>
            <stop stop-color="#003d6d" offset="1"/>
        </linearGradient>
        <path fill="url(#XMLID_23_)" d="M 35.747 18.34 C 35.747 19.331 33.041 20.473 29.797 20.473 C 26.544 20.473 23.961 19.33 23.961 18.34 L 25.54 13.974 L 34.181 13.974 L 35.747 18.34 z "/>
        <linearGradient x1="-736.6528" gradientTransform="matrix(1.25 0 0 -1.25 947.751 1440.2539)" y1="1141.291" x2="-731.0256" gradientUnits="userSpaceOnUse" y2="1140.5729" xlink:type="simple" xlink:actuate="onLoad" id="XMLID_24_" xlink:show="other">
            <stop stop-color="#ffffff" offset="0"/>
            <stop stop-color="#ffffff" offset="0.05"/>
            <stop stop-color="#a2c2dd" offset="1"/>
        </linearGradient>
        <path fill="url(#XMLID_24_)" d="M 34.215 13.949 C 34.215 14.5060005 32.262 15.122001 29.878 15.122001 C 27.494 15.122001 25.572 14.507001 25.572 13.949 C 25.572 13.391001 27.508001 12.942 29.894001 12.942 C 32.279 12.942 34.215 13.391 34.215 13.949 z "/>
        <rect width="60" fill="none" height="80"/>
    </g>
</svg>
