<?xml version="1.0" encoding="UTF-8"?>
<svg xmlns="http://www.w3.org/2000/svg" xmlns:xlink="http://www.w3.org/1999/xlink" contentScriptType="text/ecmascript" width="60" baseProfile="tiny" zoomAndPan="magnify" contentStyleType="text/css" viewBox="0 0 60 80" height="80" preserveAspectRatio="xMidYMid meet" version="1.1">
    <g>
        <path fill="#ffffff" d="M 34.67 11.498 C 33.377 11.498 32.176 11.654 31.454998 11.9140005 C 24.373999 12.422001 19.363998 14.629001 19.363998 17.262001 L 19.384998 17.454 C 19.384998 17.454 21.026 45.605 21.061998 46.258003 C 18.579998 46.456005 13.498999 47.462 12.598998 52.380005 C 12.528998 52.765003 12.494998 53.122005 12.494998 53.473003 C 12.494998 57.578003 17.166998 59.396004 21.326998 61.016003 C 29.180998 64.074005 30.109997 65.559006 30.109997 66.239006 C 30.109997 66.369 30.074997 66.467 30.047997 66.547005 C 29.585997 67.866005 26.630997 69.384 20.415997 68.282005 C 20.419996 68.16601 20.424997 68.05401 20.427996 67.927 C 20.516996 63.174004 18.173996 61.412003 18.173996 61.412003 L 9.544996 59.376003 L 5.721 61.02 C 5.721 61.02 5.741 61.62 5.749 61.952 C 5.182 61.822 3.849 61.516 3.849 61.516 L 0.951 62.746 L 1.106 65.007996 C 1.106 65.007996 5.427 66.12499 5.881 66.243996 C 5.887 66.454994 5.893 66.64 5.902 66.94499 C 5.3199997 66.81199 3.873 66.47599 3.873 66.47599 L 0.93499994 67.64099 L 1.08 69.89 C 1.08 69.89 5.58 71.076 6.032 71.194 C 6.045 71.614 6.111 73.775 6.111 73.775 L 14.679 76.557 L 18.586 73.976 C 19.274 73.211 19.768 72.069 20.085001 70.733 C 25.043001 71.647 31.2 70.423004 32.255 67.315 C 32.337 67.077 32.45 66.726006 32.45 66.284004 C 32.45 64.763 31.082 62.111004 22.192001 58.853004 C 17.311 57.065006 14.864001 55.721004 14.864001 53.275005 C 14.864001 53.082005 14.880001 52.879005 14.910001 52.670006 C 15.299001 50.063007 18.348001 48.879005 21.196001 48.601006 C 21.232 49.234005 21.567001 55.517006 21.567001 55.517006 L 21.648 55.767006 C 23.476 60.847008 32.46 62.679005 39.739 61.464005 C 44.996 60.583004 48.155 58.343006 48.197998 55.473003 L 50.128 17.276005 C 50.128 14.607005 45.032997 12.393005 37.746998 11.893005 C 37.12 11.647 35.937 11.499 34.67 11.498 L 34.67 11.498 z "/>
        <linearGradient x1="-747.9263" gradientTransform="matrix(1.25 0 0 -1.25 947.751 1440.2539)" y1="1103.1211" x2="-732.5259" gradientUnits="userSpaceOnUse" y2="1103.1211" xlink:type="simple" xlink:actuate="onLoad" id="XMLID_19_" xlink:show="other">
            <stop stop-color="#ffffff" offset="0"/>
            <stop stop-color="#a2c2dd" offset="0.35"/>
            <stop stop-color="#6c83bb" offset="0.7"/>
            <stop stop-color="#003d6d" offset="1"/>
        </linearGradient>
        <path fill="url(#XMLID_19_)" d="M 22.079 59.17 C 16.85 57.248997 14.101 55.773 14.575001 52.605 C 15.200001 48.409 21.748001 47.964 23.319 48.236 L 23.523 46.606 C 21.494001 46.354 14.017001 46.585 12.942 52.444 C 12.117001 56.941 16.606 58.8 21.455 60.692 C 30.513 64.22 30.696 65.752 30.383 66.656 C 29.826 68.249 26.559 69.798 20.071 68.578995 C 20.199999 66.187 19.651 63.550995 17.960999 61.672997 L 14.633999 63.395996 L 14.633999 76.16699 L 18.403 73.68199 C 19.039 72.95799 19.555 71.75799 19.843 70.355995 C 24.956001 71.399994 30.956001 70.079994 31.932 67.19199 C 32.283 66.146 33.026 63.179 22.079 59.17 z "/>
        <linearGradient x1="-757.1592" gradientTransform="matrix(1.25 0 0 -1.25 947.751 1440.2539)" y1="1100.4609" x2="-751.8579" gradientUnits="userSpaceOnUse" y2="1100.4609" xlink:type="simple" xlink:actuate="onLoad" id="XMLID_20_" xlink:show="other">
            <stop stop-color="#ffffff" offset="0"/>
            <stop stop-color="#ffffff" offset="0.05"/>
            <stop stop-color="#a2c2dd" offset="1"/>
        </linearGradient>
        <polygon fill="url(#XMLID_20_)" points="7.838,64.556 7.928,66.403 1.44,64.723 1.302,62.952  "/>
        <linearGradient x1="-757.9404" gradientTransform="matrix(1.25 0 0 -1.25 947.751 1440.2539)" y1="1105.873" x2="-748.1139" gradientUnits="userSpaceOnUse" y2="1096.6577" xlink:type="simple" xlink:actuate="onLoad" id="XMLID_21_" xlink:show="other">
            <stop stop-color="#ffffff" offset="0"/>
            <stop stop-color="#a2c2dd" offset="0.35"/>
            <stop stop-color="#6c83bb" offset="0.7"/>
            <stop stop-color="#003d6d" offset="1"/>
        </linearGradient>
        <polygon fill="url(#XMLID_21_)" points="8.046,64.569 1.325,62.952 3.888,61.859 10.552,63.404  "/>
        <linearGradient x1="-757.1216" gradientTransform="matrix(1.25 0 0 -1.25 947.751 1440.2539)" y1="1096.5254" x2="-751.8145" gradientUnits="userSpaceOnUse" y2="1096.5254" xlink:type="simple" xlink:actuate="onLoad" id="XMLID_22_" xlink:show="other">
            <stop stop-color="#ffffff" offset="0"/>
            <stop stop-color="#ffffff" offset="0.05"/>
            <stop stop-color="#a2c2dd" offset="1"/>
        </linearGradient>
        <polygon fill="url(#XMLID_22_)" points="7.928,69.523 7.982,71.336 1.422,69.608 1.348,67.86  "/>
        <linearGradient x1="-759.9126" gradientTransform="matrix(1.25 0 0 -1.25 947.751 1440.2539)" y1="1103.7705" x2="-750.087" gradientUnits="userSpaceOnUse" y2="1094.556" xlink:type="simple" xlink:actuate="onLoad" id="XMLID_23_" xlink:show="other">
            <stop stop-color="#ffffff" offset="0"/>
            <stop stop-color="#a2c2dd" offset="0.35"/>
            <stop stop-color="#6c83bb" offset="0.7"/>
            <stop stop-color="#003d6d" offset="1"/>
        </linearGradient>
        <polygon fill="url(#XMLID_23_)" points="8.064,69.541 1.3,67.86 3.906,66.831 10.573,68.369  "/>
        <polygon fill="#cedff2" points="6.083,61.23 9.587,59.719 18.028,61.69 14.671,63.366  "/>
        <linearGradient x1="-753.0669" gradientTransform="matrix(1.25 0 0 -1.25 947.751 1440.2539)" y1="1108.8086" x2="-746.4866" gradientUnits="userSpaceOnUse" y2="1087.1469" xlink:type="simple" xlink:actuate="onLoad" id="XMLID_24_" xlink:show="other">
            <stop stop-color="#ffffff" offset="0"/>
            <stop stop-color="#a2c2dd" offset="0.35"/>
            <stop stop-color="#6c83bb" offset="0.7"/>
            <stop stop-color="#003d6d" offset="1"/>
        </linearGradient>
        <path fill="url(#XMLID_24_)" d="M 6.458 73.511 L 6.083 61.23 L 14.634 63.388 C 15.988 64.986 16.942 69.45 14.634 76.161 L 6.458 73.511 z "/>
        <linearGradient x1="-746.2305" gradientTransform="matrix(1.25 0 0 -1.25 947.751 1440.2539)" y1="1142.2832" x2="-708.093" gradientUnits="userSpaceOnUse" y2="1096.1293" xlink:type="simple" xlink:actuate="onLoad" id="XMLID_25_" xlink:show="other">
            <stop stop-color="#ffffff" offset="0"/>
            <stop stop-color="#ffffff" offset="0.05"/>
            <stop stop-color="#a2c2dd" offset="1"/>
        </linearGradient>
        <path fill="url(#XMLID_25_)" d="M 49.239 18.605 L 47.857 55.451 C 47.748997 62.951 24.687998 63.949 21.918 55.489 L 20.331 18.605 L 49.239 18.605 z "/>
        <linearGradient x1="-729.2593" gradientTransform="matrix(1.25 0 0 -1.25 947.751 1440.2539)" y1="1119.5098" x2="-750.1956" gradientUnits="userSpaceOnUse" y2="1123.0018" xlink:type="simple" xlink:actuate="onLoad" id="XMLID_26_" xlink:show="other">
            <stop stop-color="#ffffff" offset="0"/>
            <stop stop-color="#ffffff" offset="0.05"/>
            <stop stop-color="#a2c2dd" offset="1"/>
        </linearGradient>
        <path fill="url(#XMLID_26_)" d="M 28.814 21.487 L 29.137 60.345 C 29.137 60.345 27.141998 60.235 24.918999 58.671 C 22.696 57.112 21.963 55.619003 21.963 55.619003 L 19.729 17.455002 C 20.354 17.813 26.864 20.993 28.814 21.487 z "/>
        <linearGradient x1="-715.5825" gradientTransform="matrix(1.25 0 0 -1.25 947.751 1440.2539)" y1="1121.665" x2="-725.0908" gradientUnits="userSpaceOnUse" y2="1121.165" xlink:type="simple" xlink:actuate="onLoad" id="XMLID_27_" xlink:show="other">
            <stop stop-color="#ffffff" offset="0"/>
            <stop stop-color="#ffffff" offset="0.05"/>
            <stop stop-color="#a2c2dd" offset="1"/>
        </linearGradient>
        <path fill="url(#XMLID_27_)" d="M 42.927 59.745 C 45.628 58.759 47.813 57.072 47.843998 55.166 L 49.767998 17.330002 C 49.767998 17.330002 44.461 20.317001 43.552998 20.730001 L 42.927 59.745 z "/>
        <linearGradient x1="-729.5615" gradientTransform="matrix(1.25 0 0 -1.25 947.751 1440.2539)" y1="1092.0752" x2="-729.7838" gradientUnits="userSpaceOnUse" y2="1098.0597" xlink:type="simple" xlink:actuate="onLoad" id="XMLID_28_" xlink:show="other">
            <stop stop-color="#dce8e4" offset="0"/>
            <stop stop-color="#43910a" offset="1"/>
        </linearGradient>
        <path fill="url(#XMLID_28_)" d="M 45.735 53.948 C 45.744 58.048 28.254 62.279003 23.640001 53.611 L 23.243002 45.901 L 46.181 45.892002 L 45.735 53.948 z "/>
        <linearGradient x1="-730.4429" gradientTransform="matrix(1.25 0 0 -1.25 947.751 1440.2539)" y1="1099.1406" x2="-730.4429" gradientUnits="userSpaceOnUse" y2="1121.5144" xlink:type="simple" xlink:actuate="onLoad" id="XMLID_29_" xlink:show="other">
            <stop stop-color="#dce8e4" offset="0"/>
            <stop stop-color="#43910a" offset="1"/>
        </linearGradient>
        <path fill="url(#XMLID_29_)" d="M 23.252 45.87 C 27.475 53.369 45.856003 50.14 46.190002 45.856 L 46.565002 37.79 L 22.83 37.703 L 23.252 45.87 z "/>
        <linearGradient x1="-730.4517" gradientTransform="matrix(1.25 0 0 -1.25 947.751 1440.2539)" y1="1137.7842" x2="-730.4517" gradientUnits="userSpaceOnUse" y2="1111.1241" xlink:type="simple" xlink:actuate="onLoad" id="XMLID_30_" xlink:show="other">
            <stop stop-color="#dce8e4" offset="0"/>
            <stop stop-color="#43910a" offset="1"/>
        </linearGradient>
        <path fill="url(#XMLID_30_)" d="M 46.55 37.831 C 45.298 41.894 28.366999 44.795002 22.816 37.743 L 22.411 29.457 L 46.961998 29.523 L 46.55 37.831 z "/>
        <linearGradient x1="-730.4609" gradientTransform="matrix(1.25 0 0 -1.25 947.751 1440.2539)" y1="1140.1572" x2="-730.4609" gradientUnits="userSpaceOnUse" y2="1097.1094" xlink:type="simple" xlink:actuate="onLoad" id="XMLID_31_" xlink:show="other">
            <stop stop-color="#dce8e4" offset="0"/>
            <stop stop-color="#43910a" offset="1"/>
        </linearGradient>
        <path fill="url(#XMLID_31_)" d="M 46.974 29.487 C 46.19 32.875 28.473999 36.104 22.425 29.421999 L 21.972 22.234 C 29.035 26.637 43.85 24.743 47.377 22.300999 L 46.974 29.487 z "/>
        <radialGradient gradientTransform="matrix(1.25 0 0 -1.25 947.751 1440.2539)" gradientUnits="userSpaceOnUse" xlink:type="simple" r="8.9908" xlink:actuate="onLoad" cx="-730.4014" id="XMLID_32_" cy="1138.3945" xlink:show="other">
            <stop stop-color="#ffffff" offset="0"/>
            <stop stop-color="#ffffff" offset="0.05"/>
            <stop stop-color="#a2c2dd" offset="1"/>
        </radialGradient>
        <ellipse rx="15.04" ry="5.138" fill="url(#XMLID_32_)" cx="34.749" cy="17.261"/>
        <linearGradient x1="-741.3315" gradientTransform="matrix(1.25 0 0 -1.25 947.751 1440.2539)" y1="1138.6182" x2="-719.6509" gradientUnits="userSpaceOnUse" y2="1138.6182" xlink:type="simple" xlink:actuate="onLoad" id="XMLID_33_" xlink:show="other">
            <stop stop-color="#ffffff" offset="0"/>
            <stop stop-color="#ffffff" offset="0.05"/>
            <stop stop-color="#a2c2dd" offset="1"/>
        </linearGradient>
        <ellipse rx="13.55" ry="4.193" fill="url(#XMLID_33_)" cx="34.638" cy="16.981"/>
        <radialGradient gradientTransform="matrix(1.25 0 0 -1.25 947.751 1440.2539)" gradientUnits="userSpaceOnUse" xlink:type="simple" r="3.9899" xlink:actuate="onLoad" cx="-730.4419" id="XMLID_34_" cy="1138.7422" xlink:show="other">
            <stop stop-color="#ffffff" offset="0"/>
            <stop stop-color="#ffffff" offset="0.05"/>
            <stop stop-color="#a2c2dd" offset="1"/>
        </radialGradient>
        <ellipse rx="6.655" ry="2.333" fill="url(#XMLID_34_)" cx="34.698" cy="16.826"/>
        <linearGradient x1="-735.0835" gradientTransform="matrix(1.25 0 0 -1.25 947.751 1440.2539)" y1="1139.7227" x2="-726.7497" gradientUnits="userSpaceOnUse" y2="1139.921" xlink:type="simple" xlink:actuate="onLoad" id="XMLID_35_" xlink:show="other">
            <stop stop-color="#ffffff" offset="0"/>
            <stop stop-color="#a2c2dd" offset="0.35"/>
            <stop stop-color="#6c83bb" offset="0.7"/>
            <stop stop-color="#003d6d" offset="1"/>
        </linearGradient>
        <path fill="url(#XMLID_35_)" d="M 39.669 16.457 C 40.181 18.263 30.526 19.466002 29.605 16.457 L 30.952 12.728001 L 38.331 12.728001 L 39.669 16.457 z "/>
        <linearGradient x1="-733.4146" gradientTransform="matrix(1.25 0 0 -1.25 947.751 1440.2539)" y1="1141.9824" x2="-727.5122" gradientUnits="userSpaceOnUse" y2="1141.9824" xlink:type="simple" xlink:actuate="onLoad" id="XMLID_36_" xlink:show="other">
            <stop stop-color="#ffffff" offset="0"/>
            <stop stop-color="#ffffff" offset="0.05"/>
            <stop stop-color="#a2c2dd" offset="1"/>
        </linearGradient>
        <path fill="url(#XMLID_36_)" d="M 38.36 12.707 C 38.36 13.182 36.690002 13.709 34.657 13.709 C 32.619003 13.709 30.982002 13.183 30.982002 12.707 C 30.982002 12.229 32.634003 11.844999 34.672 11.844999 C 36.708 11.844 38.36 12.23 38.36 12.707 z "/>
        <rect width="60" fill="none" height="80"/>
    </g>
</svg>
