<?xml version="1.0" encoding="UTF-8"?>
<svg xmlns="http://www.w3.org/2000/svg" xmlns:xlink="http://www.w3.org/1999/xlink" contentScriptType="text/ecmascript" width="60" baseProfile="tiny" zoomAndPan="magnify" contentStyleType="text/css" viewBox="0 0 60 80" height="80" preserveAspectRatio="xMidYMid meet" version="1.1">
    <g>
        <g>
            <path fill="#ffffff" d="M 24.842 11.674 C 24.842 11.674 24.918999 13.305 24.939999 13.736 C 23.467 14.099 15.869999 16.085 14.553999 16.715 C 13.091999 17.418 12.300999 18.64 12.207999 20.346 L 13.056999 28.357 C 13.056999 28.357 14.214999 29.194 14.459 29.372 C 14.483 29.695 17.071 63.486 17.071 63.486 C 17.640999 65.513 18.984999 67.072 21.077 68.195 C 25.649 70.639 32.858 70.369 37.614998 68.842 C 37.614998 68.842 39.874996 67.950005 39.887997 67.94 C 42.312996 66.755005 43.643997 65.200005 43.643997 63.546 C 43.643997 63.498 45.991997 30.022003 46.012997 29.713001 C 46.815998 29.323002 47.330997 28.381 47.330997 28.381 L 48.288998 20.03 L 48.288998 20.01 C 48.288998 19.53 48.061996 18.251 45.979996 16.747 C 44.905994 15.976 36.966995 13.9869995 35.713997 13.752 C 35.725998 13.408999 35.750996 12.372 35.750996 12.372 L 27.943996 10.842999 L 24.842 11.674 z "/>
            <linearGradient x1="-738.8301" gradientTransform="matrix(1.25 0 0 -1.25 947.751 1440.2539)" y1="1113.4658" x2="-720.7075" gradientUnits="userSpaceOnUse" y2="1113.6038" xlink:type="simple" xlink:actuate="onLoad" id="XMLID_19_" xlink:show="other">
                <stop stop-color="#ffffff" offset="0"/>
                <stop stop-color="#ffffff" offset="0.05"/>
                <stop stop-color="#a2c2dd" offset="1"/>
            </linearGradient>
            <path fill="url(#XMLID_19_)" d="M 45.834 27.204 L 43.285 63.416 C 43.599 70.05 20.217 73.288 17.425 63.458 L 14.648999 27.203999 L 45.834 27.203999 z "/>
            <linearGradient x1="-749.4897" gradientTransform="matrix(1.25 0 0 -1.25 947.751 1440.2539)" y1="1138.4102" x2="-715.9379" gradientUnits="userSpaceOnUse" y2="1131.4987" xlink:type="simple" xlink:actuate="onLoad" id="XMLID_20_" xlink:show="other">
                <stop stop-color="#ffffff" offset="0"/>
                <stop stop-color="#ffffff" offset="0.05"/>
                <stop stop-color="#a2c2dd" offset="1"/>
            </linearGradient>
            <path fill="url(#XMLID_20_)" d="M 45.772 17.037 C 44.415 16.059 37.551 14.662001 37.168 14.577001 C 34.694 13.586 29.27 12.755001 24.096 14.405001 C 23.323 14.570001 16.217001 16.312 14.708001 17.037 C 12.511002 18.092001 12.588001 20.185001 12.555001 20.473001 C 16.506 24.166002 31.314003 29.717003 31.314003 29.717003 L 47.929 20.159004 C 47.928 20.158 48.222 18.801 45.772 17.037 z "/>
            <linearGradient x1="-738.4663" gradientTransform="matrix(1.25 0 0 -1.25 947.751 1440.2539)" y1="1136.0986" x2="-717.4321" gradientUnits="userSpaceOnUse" y2="1122.6248" xlink:type="simple" xlink:actuate="onLoad" id="XMLID_21_" xlink:show="other">
                <stop stop-color="#ffffff" offset="0"/>
                <stop stop-color="#a2c2dd" offset="0.35"/>
                <stop stop-color="#6c83bb" offset="0.7"/>
                <stop stop-color="#003d6d" offset="1"/>
            </linearGradient>
            <path fill="url(#XMLID_21_)" d="M 47.928 20.158 C 39.665 25.893002 29.715002 25.474 20.713001 23.797 L 12.555001 20.471 L 13.333001 27.742 L 29.987 32.988 L 46.986 28.189 L 47.928 20.158 z "/>
            <linearGradient x1="-735.6587" gradientTransform="matrix(1.25 0 0 -1.25 947.751 1440.2539)" y1="1112.5781" x2="-750.447" gradientUnits="userSpaceOnUse" y2="1113.7382" xlink:type="simple" xlink:actuate="onLoad" id="XMLID_22_" xlink:show="other">
                <stop stop-color="#ffffff" offset="0"/>
                <stop stop-color="#ffffff" offset="0.05"/>
                <stop stop-color="#a2c2dd" offset="1"/>
            </linearGradient>
            <path fill="url(#XMLID_22_)" d="M 21.352 31.519 L 22.567 65.877 L 24.932 69.152 C 24.932 69.152 21.366999 68.571 19.279 66.503 C 17.932 65.219 17.424 63.458 17.424 63.458 L 14.763 28.605 L 21.352 31.519 z "/>
            <linearGradient x1="-753.748" gradientTransform="matrix(1.25 0 0 -1.25 947.751 1440.2539)" y1="1138.8018" x2="-732.4625" gradientUnits="userSpaceOnUse" y2="1122.3346" xlink:type="simple" xlink:actuate="onLoad" id="XMLID_23_" xlink:show="other">
                <stop stop-color="#ffffff" offset="0"/>
                <stop stop-color="#ffffff" offset="0.05"/>
                <stop stop-color="#a2c2dd" offset="1"/>
            </linearGradient>
            <polygon fill="url(#XMLID_23_)" points="20.738,23.877 12.8,19.562 13.313,27.358 21.012,30.875   "/>
            <linearGradient x1="-748.0073" gradientTransform="matrix(1.25 0 0 -1.25 947.751 1440.2539)" y1="1135.957" x2="-737.457" gradientUnits="userSpaceOnUse" y2="1135.957" xlink:type="simple" xlink:actuate="onLoad" id="XMLID_24_" xlink:show="other">
                <stop stop-color="#ffffff" offset="0"/>
                <stop stop-color="#ffffff" offset="0.05"/>
                <stop stop-color="#a2c2dd" offset="1"/>
            </linearGradient>
            <path fill="url(#XMLID_24_)" d="M 20.697 23.877 L 25.929 17.525002 L 23.42 16.737001 L 12.803 19.311 C 12.035 21.804 18.689 23.867 20.697 23.877 z "/>
            <linearGradient x1="-728.9497" gradientTransform="matrix(1.25 0 0 -1.25 947.751 1440.2539)" y1="1116.667" x2="-705.3923" gradientUnits="userSpaceOnUse" y2="1116.667" xlink:type="simple" xlink:actuate="onLoad" id="XMLID_25_" xlink:show="other">
                <stop stop-color="#ffffff" offset="0"/>
                <stop stop-color="#a2c2dd" offset="0.35"/>
                <stop stop-color="#6c83bb" offset="0.7"/>
                <stop stop-color="#003d6d" offset="1"/>
            </linearGradient>
            <path fill="url(#XMLID_25_)" d="M 47.928 20.158 L 42.978 22.137001 L 40.164 65.67 C 39.455 67.573 37.642002 68.547 37.023003 68.683 C 40.665 67.621 43.125004 65.756996 43.285004 63.760998 L 45.673 29.1 L 46.982002 28.278 L 47.928 20.158 z "/>
            <linearGradient x1="-726.5239" gradientTransform="matrix(1.25 0 0 -1.25 947.751 1440.2539)" y1="1136.3379" x2="-715.4282" gradientUnits="userSpaceOnUse" y2="1140.2555" xlink:type="simple" xlink:actuate="onLoad" id="XMLID_26_" xlink:show="other">
                <stop stop-color="#ffffff" offset="0"/>
                <stop stop-color="#ffffff" offset="0.05"/>
                <stop stop-color="#a2c2dd" offset="1"/>
            </linearGradient>
            <path fill="url(#XMLID_26_)" d="M 42.92 22.871 C 44.96 22.039 46.496 21.517 48.025997 20.043 L 37.646996 16.309 L 35.987995 17.372 L 42.92 22.871 z "/>
            <linearGradient x1="-745.8223" gradientTransform="matrix(1.25 0 0 -1.25 947.751 1440.2539)" y1="1128.3994" x2="-727.0106" gradientUnits="userSpaceOnUse" y2="1128.7239" xlink:type="simple" xlink:actuate="onLoad" id="XMLID_27_" xlink:show="other">
                <stop stop-color="#d6e4f3" offset="0"/>
                <stop stop-color="#337ce5" offset="1"/>
            </linearGradient>
            <path fill="url(#XMLID_27_)" d="M 47.251 26.247 C 39.898 33.008 19.826 32.419 13.089001 26.112999 L 13.464001 28.192 C 25.811 37.498 45.373 31.527 46.985 28.279 L 47.251 26.247 z "/>
            <linearGradient x1="-739.7705" gradientTransform="matrix(1.25 0 0 -1.25 947.751 1440.2539)" y1="1140.2139" x2="-725.2109" gradientUnits="userSpaceOnUse" y2="1138.3726" xlink:type="simple" xlink:actuate="onLoad" id="XMLID_28_" xlink:show="other">
                <stop stop-color="#e6eef4" offset="0"/>
                <stop stop-color="#337ce5" offset="0.44"/>
                <stop stop-color="#003d6d" offset="0.94"/>
                <stop stop-color="#003d6d" offset="1"/>
            </linearGradient>
            <path fill="url(#XMLID_28_)" d="M 22.531 15.714 C 22.531 17.213 26.961 18.435 30.479 18.435 C 34.53 18.435 38.481 17.213999 38.481 15.714 C 38.481 14.216 34.347 13.532 30.505999 13.532 C 26.664 13.532 22.531 14.214 22.531 15.714 z M 23.586 15.38 C 23.586 14.985 25.906 13.53 30.505001 13.53 C 35.105 13.53 37.581 14.448999 37.533 15.38 C 37.512 15.977 35.078003 17.304 30.478 17.304 C 25.879 17.306 23.591 15.977 23.586 15.38 z "/>
            <linearGradient x1="-736.7441" gradientTransform="matrix(1.25 0 0 -1.25 947.751 1440.2539)" y1="1144.1396" x2="-732.7452" gradientUnits="userSpaceOnUse" y2="1137.1639" xlink:type="simple" xlink:actuate="onLoad" id="XMLID_29_" xlink:show="other">
                <stop stop-color="#d6e4f3" offset="0"/>
                <stop stop-color="#337ce5" offset="1"/>
            </linearGradient>
            <polygon fill="url(#XMLID_29_)" points="25.329,14.444 25.21,11.944 32.854,13.637 32.854,16.409   "/>
            <polygon fill="#cedff2" points="35.327,12.701 32.854,13.637 25.21,11.944 27.96,11.209   "/>
            <linearGradient x1="-730.9263" gradientTransform="matrix(1.25 0 0 -1.25 947.751 1440.2539)" y1="1144.918" x2="-730.9263" gradientUnits="userSpaceOnUse" y2="1137.4309" xlink:type="simple" xlink:actuate="onLoad" id="XMLID_30_" xlink:show="other">
                <stop stop-color="#e6eef4" offset="0"/>
                <stop stop-color="#337ce5" offset="0.44"/>
                <stop stop-color="#003d6d" offset="0.94"/>
                <stop stop-color="#003d6d" offset="1"/>
            </linearGradient>
            <polygon fill="url(#XMLID_30_)" points="35.323,15.02 35.386,12.666 32.8,13.628 32.81,16.409   "/>
            <linearGradient x1="-748.4761" gradientTransform="matrix(1.25 0 0 -1.25 947.751 1440.2539)" y1="1133.1475" x2="-740.0634" gradientUnits="userSpaceOnUse" y2="1124.3292" xlink:type="simple" xlink:actuate="onLoad" id="XMLID_31_" xlink:show="other">
                <stop stop-color="#d6e4f3" offset="0"/>
                <stop stop-color="#337ce5" offset="1"/>
            </linearGradient>
            <path fill="url(#XMLID_31_)" d="M 13.09 26.112 L 13.393001 28.163 C 15.723001 30.183 18.958 31.102 21.365002 31.865 L 20.920002 29.964 C 14.26 27.936 13.09 26.112 13.09 26.112 z "/>
            <linearGradient x1="-734.564" gradientTransform="matrix(1.25 0 0 -1.25 947.751 1440.2539)" y1="1121.6377" x2="-734.564" gradientUnits="userSpaceOnUse" y2="1093.1235" xlink:type="simple" xlink:actuate="onLoad" id="XMLID_32_" xlink:show="other">
                <stop stop-color="#e6eef4" offset="0"/>
                <stop stop-color="#337ce5" offset="0.44"/>
                <stop stop-color="#003d6d" offset="0.94"/>
                <stop stop-color="#003d6d" offset="1"/>
            </linearGradient>
            <polygon fill="url(#XMLID_32_)" points="28.96,35.584 29.07,66.92 30.132,66.951 30.021,35.627   "/>
            <linearGradient x1="-739.4419" gradientTransform="matrix(1.25 0 0 -1.25 947.751 1440.2539)" y1="1121.6367" x2="-739.4419" gradientUnits="userSpaceOnUse" y2="1093.1229" xlink:type="simple" xlink:actuate="onLoad" id="XMLID_33_" xlink:show="other">
                <stop stop-color="#e6eef4" offset="0"/>
                <stop stop-color="#337ce5" offset="0.44"/>
                <stop stop-color="#003d6d" offset="0.94"/>
                <stop stop-color="#003d6d" offset="1"/>
            </linearGradient>
            <polygon fill="url(#XMLID_33_)" points="22.338,34.621 23.482,65.953 24.559,66.264 23.409,34.871   "/>
            <linearGradient x1="-729.3032" gradientTransform="matrix(1.25 0 0 -1.25 947.751 1440.2539)" y1="1121.6377" x2="-729.3032" gradientUnits="userSpaceOnUse" y2="1093.1245" xlink:type="simple" xlink:actuate="onLoad" id="XMLID_34_" xlink:show="other">
                <stop stop-color="#e6eef4" offset="0"/>
                <stop stop-color="#337ce5" offset="0.44"/>
                <stop stop-color="#003d6d" offset="0.94"/>
                <stop stop-color="#003d6d" offset="1"/>
            </linearGradient>
            <path fill="url(#XMLID_34_)" d="M 36.051 35.254 L 35.127 66.352005 C 35.492 66.26401 35.85 66.16901 36.205997 66.07101 L 37.116997 35.070007 L 36.051 35.254 z "/>
            <linearGradient x1="-743.0337" gradientTransform="matrix(1.25 0 0 -1.25 947.751 1440.2539)" y1="1121.6367" x2="-743.0337" gradientUnits="userSpaceOnUse" y2="1093.1238" xlink:type="simple" xlink:actuate="onLoad" id="XMLID_35_" xlink:show="other">
                <stop stop-color="#e6eef4" offset="0"/>
                <stop stop-color="#337ce5" offset="0.44"/>
                <stop stop-color="#003d6d" offset="0.94"/>
                <stop stop-color="#003d6d" offset="1"/>
            </linearGradient>
            <path fill="url(#XMLID_35_)" d="M 17.466 32.846 L 19.336 63.861 C 19.671 64.132 20.042 64.384 20.452 64.626 L 18.563 33.362 C 18.182 33.199 17.82 33.025 17.466 32.846 z "/>
            <linearGradient x1="-724.5093" gradientTransform="matrix(1.25 0 0 -1.25 947.751 1440.2539)" y1="1121.6367" x2="-724.5093" gradientUnits="userSpaceOnUse" y2="1093.1238" xlink:type="simple" xlink:actuate="onLoad" id="XMLID_36_" xlink:show="other">
                <stop stop-color="#e6eef4" offset="0"/>
                <stop stop-color="#337ce5" offset="0.44"/>
                <stop stop-color="#003d6d" offset="0.94"/>
                <stop stop-color="#003d6d" offset="1"/>
            </linearGradient>
            <path fill="url(#XMLID_36_)" d="M 42.509 33.362 L 40.619 64.626 C 41.029 64.385 41.399998 64.133 41.739 63.861 L 43.608997 32.846 C 43.248 33.025 42.889 33.199 42.509 33.362 z "/>
        </g>
        <rect width="60" fill="none" height="80"/>
    </g>
</svg>
