<?xml version="1.0" encoding="UTF-8"?>
<svg xmlns="http://www.w3.org/2000/svg" xmlns:xlink="http://www.w3.org/1999/xlink" contentScriptType="text/ecmascript" zoomAndPan="magnify" baseProfile="tiny" contentStyleType="text/css" version="1.1" width="93px" preserveAspectRatio="xMidYMid meet" viewBox="0 0 93 93" height="93px" x="0px" y="0px">
    <g>
        <path d="M 92.628 31.231 C 91.737 28.498001 89.418 26.543001 86.574 26.130001 L 78.161995 24.906002 L 74.396996 17.278002 C 73.12399 14.703002 70.546 13.102001 67.673 13.102001 C 65.41499 13.102001 63.351997 14.100001 61.947 15.774001 L 61.947 15.498001 C 61.947 9.984001 57.461998 5.498001 51.947998 5.498001 L 12.447998 5.498001 C 6.933998 5.498001 2.447998 9.984001 2.447998 15.498001 L 2.447998 77.498 C 2.447998 83.013 6.933998 87.498 12.447998 87.498 L 51.947998 87.498 C 57.461998 87.498 61.947 83.013 61.947 77.498 L 61.947 60.195 L 67.673 57.185 L 75.201 61.144 C 76.272995 61.706 77.478 62.002003 78.685 62.002003 C 80.279 62.002003 81.801994 61.507004 83.090996 60.568 C 85.385994 58.902 86.558 56.02 86.075 53.232002 L 84.63699 44.855003 L 90.72499 38.921005 C 92.788 36.92 93.517 33.975 92.628 31.231 z " fill-opacity="0.5"/>
        <path d="M 52.253 62.569 C 49.931 60.882 48.787 58.073 49.271 55.238 L 50.709 46.856 L 47.954 44.17 L 47.954 62.997997 C 47.954 64.102 47.058 64.998 45.954 64.998 L 18.453999 64.998 C 17.349998 64.998 16.453999 64.102 16.453999 62.998 L 16.453999 23.498001 C 16.453999 22.394001 17.349998 21.498001 18.453999 21.498001 L 45.954 21.498001 C 47.058 21.498001 47.954 22.394001 47.954 23.498001 L 47.954 28.309002 C 48.225 28.239002 48.496998 28.171001 48.777 28.130001 L 56.953 26.942001 L 56.953 17.5 C 56.953 14.738 54.715 12.5 51.953 12.5 L 12.452999 12.5 C 9.690999 12.5 7.452999 14.738 7.452999 17.5 L 7.452999 79.5 C 7.452999 82.263 9.690999 84.5 12.452999 84.5 L 51.953 84.5 C 54.715 84.5 56.953 82.263 56.953 79.5 L 56.953 63.985 C 56.857 63.989002 56.761997 64.004 56.665 64.004 C 55.069 64.004 53.544 63.508 52.253 62.569 z M 25.453 75.5 C 25.453 76.604 24.557 77.5 23.453 77.5 L 18.453 77.5 C 17.348999 77.5 16.453 76.604 16.453 75.5 L 16.453 73.0 C 16.453 71.896 17.348999 71.0 18.453 71.0 L 23.453 71.0 C 24.557 71.0 25.453 71.896 25.453 73.0 L 25.453 75.5 z M 36.703 75.5 C 36.703 76.604 35.807 77.5 34.703 77.5 L 29.703 77.5 C 28.598999 77.5 27.703 76.604 27.703 75.5 L 27.703 73.0 C 27.703 71.896 28.598999 71.0 29.703 71.0 L 34.703 71.0 C 35.807 71.0 36.703 71.896 36.703 73.0 L 36.703 75.5 z M 47.953 75.5 C 47.953 76.604 47.057 77.5 45.953 77.5 L 40.953 77.5 C 39.849 77.5 38.953 76.604 38.953 75.5 L 38.953 73.0 C 38.953 71.896 39.849 71.0 40.953 71.0 L 45.953 71.0 C 47.057 71.0 47.953 71.896 47.953 73.0 L 47.953 75.5 z "/>
        <path d="M 87.876 34.78 C 87.581 33.875 86.798 33.217 85.856 33.079 L 74.841 31.477 L 69.91701 21.498 C 69.49501 20.644999 68.62601 20.104 67.67501 20.104 C 66.72501 20.104 65.85601 20.644001 65.43401 21.498001 L 60.508015 31.477001 L 49.495014 33.079002 C 48.555016 33.217003 47.770016 33.875004 47.477013 34.780003 C 47.182014 35.685 47.428013 36.678 48.110012 37.343002 L 56.07801 45.112003 L 54.19701 56.08 C 54.03701 57.018 54.42201 57.968002 55.19101 58.525 C 55.96201 59.087 56.98401 59.159 57.82401 58.716003 L 67.67601 53.535004 L 77.52601 58.716003 C 77.89101 58.906002 78.29301 59.003002 78.69001 59.003002 C 79.20901 59.003002 79.72301 58.841003 80.16001 58.524002 C 80.931015 57.965004 81.31501 57.017002 81.15301 56.079002 L 79.272 45.11 L 87.244 37.341 C 87.925 36.68 88.169 35.685 87.876 34.78 z "/>
        <linearGradient x1="23.8003" gradientTransform="matrix(1 0 0 -1 8.3999 69.1602)" y1="58.6602" x2="23.8003" gradientUnits="userSpaceOnUse" y2="-13.3394" xlink:type="simple" xlink:actuate="onLoad" id="SVGID_1_" xlink:show="other">
            <stop stop-color="#47e6eb" offset="0"/>
            <stop stop-color="#007cba" offset="1"/>
        </linearGradient>
        <path fill="url(#SVGID_1_)" d="M 52.251 60.569 C 49.929 58.882 48.785 56.073 49.269 53.238 L 50.707 44.856 L 47.952 42.17 L 47.952 60.997997 C 47.952 62.101997 47.056 62.997997 45.952 62.997997 L 18.452 62.997997 C 17.348 62.997997 16.452 62.101997 16.452 60.997997 L 16.452 21.497997 C 16.452 20.393997 17.348 19.497997 18.452 19.497997 L 45.952 19.497997 C 47.056 19.497997 47.952 20.393997 47.952 21.497997 L 47.952 26.308998 C 48.223 26.238998 48.495 26.170998 48.775 26.129997 L 56.951 24.941998 L 56.951 15.5 C 56.951 12.738 54.713 10.5 51.951 10.5 L 12.451 10.5 C 9.689 10.5 7.451 12.738 7.451 15.5 L 7.451 77.5 C 7.451 80.263 9.689 82.5 12.451 82.5 L 51.951 82.5 C 54.713 82.5 56.951 80.263 56.951 77.5 L 56.951 61.985 C 56.855 61.989002 56.76 62.004 56.663002 62.004 C 55.067 62.004 53.542 61.508 52.251 60.569 z M 25.451 73.5 C 25.451 74.604 24.555 75.5 23.451 75.5 L 18.451 75.5 C 17.347 75.5 16.451 74.604 16.451 73.5 L 16.451 71.0 C 16.451 69.896 17.347 69.0 18.451 69.0 L 23.451 69.0 C 24.555 69.0 25.451 69.896 25.451 71.0 L 25.451 73.5 z M 36.701 73.5 C 36.701 74.604 35.805 75.5 34.701 75.5 L 29.701 75.5 C 28.597 75.5 27.701 74.604 27.701 73.5 L 27.701 71.0 C 27.701 69.896 28.597 69.0 29.701 69.0 L 34.701 69.0 C 35.805 69.0 36.701 69.896 36.701 71.0 L 36.701 73.5 z M 47.951 73.5 C 47.951 74.604 47.055 75.5 45.951 75.5 L 40.951 75.5 C 39.847 75.5 38.951 74.604 38.951 73.5 L 38.951 71.0 C 38.951 69.896 39.847 69.0 40.951 69.0 L 45.951 69.0 C 47.055 69.0 47.951 69.896 47.951 71.0 L 47.951 73.5 z "/>
        <linearGradient x1="59.2734" gradientTransform="matrix(1 0 0 -1 8.3999 69.1602)" y1="51.0557" x2="59.2734" gradientUnits="userSpaceOnUse" y2="12.1577" xlink:type="simple" xlink:actuate="onLoad" id="SVGID_2_" xlink:show="other">
            <stop stop-color="#ee4261" offset="0"/>
            <stop stop-color="#ac1e31" offset="1"/>
        </linearGradient>
        <path fill="url(#SVGID_2_)" d="M 87.874 32.78 C 87.579 31.874998 86.796 31.217 85.854004 31.078999 L 74.84 29.478 L 69.916 19.499 C 69.494 18.646 68.625 18.105 67.674 18.105 C 66.72401 18.105 65.855 18.645 65.43301 19.499 L 60.506004 29.478 L 49.493004 31.08 C 48.552002 31.218 47.767002 31.876 47.474003 32.781 C 47.179005 33.685997 47.425003 34.678997 48.107002 35.343998 L 56.076004 43.113 L 54.194004 54.081 C 54.035004 55.019 54.420006 55.969 55.188004 56.526 C 55.959003 57.088 56.981003 57.16 57.821003 56.717003 L 67.674 51.536003 L 77.525 56.717003 C 77.89 56.907 78.291 57.004 78.689 57.004 C 79.207 57.004 79.722 56.842003 80.158005 56.525 C 80.928 55.966003 81.314 55.018 81.15201 54.08 L 79.271 43.11 L 87.242004 35.341 C 87.923 34.68 88.167 33.685 87.874 32.78 z "/>
    </g>
</svg>
