<?xml version="1.0" encoding="UTF-8"?>
<svg xmlns="http://www.w3.org/2000/svg" xmlns:xlink="http://www.w3.org/1999/xlink" contentScriptType="text/ecmascript" zoomAndPan="magnify" baseProfile="tiny" contentStyleType="text/css" version="1.1" width="75.854px" preserveAspectRatio="xMidYMid meet" viewBox="0 0 75.854 75.816" height="75.816px" x="0px" y="0px">
    <path d="M 65.761 3.791 L 36.961002 3.791 C 34.064003 3.791 31.624002 5.759 30.891003 8.424999 L 10.093 8.424999 C 6.6190004 8.424999 3.7930002 11.252999 3.7930002 14.727999 L 3.7930002 36.328 C 3.7930002 37.802 4.3050003 39.155 5.1520004 40.228 C 4.3010006 41.3 3.7930005 42.656002 3.7930005 44.125 L 3.7930005 65.728 C 3.7930005 69.201996 6.6200004 72.028 10.093 72.028 L 31.693 72.028 C 33.381 72.028 34.915 71.358 36.047 70.274 C 37.179 71.358 38.709 72.028 40.396 72.028 L 62.0 72.028 C 65.474 72.028 68.3 69.202 68.3 65.728 L 68.3 44.657997 C 70.515 43.678997 72.068 41.466995 72.068 38.893997 L 72.068 10.091 C 72.061 6.617 69.234 3.791 65.761 3.791 " fill-opacity="0.3"/>
    <path d="M 38.749 67.526 C 38.749 68.517 39.566 69.326004 40.57 69.326004 L 62.441 69.326004 C 63.442 69.326004 64.263 68.517006 64.263 67.526 L 64.263 46.991 L 38.751 46.991 L 38.749 67.526 L 38.749 67.526 z "/>
    <path d="M 31.689 44.126 L 10.093 44.126 C 9.102 44.126 8.293 44.939 8.293 45.926 L 8.293 67.529 C 8.293 68.52 9.103001 69.329 10.093 69.329 L 31.693 69.329 C 32.682 69.329 33.496002 68.520004 33.496002 67.529 L 33.496002 45.948997 C 32.775 45.469 32.159 44.849 31.689 44.126 "/>
    <path d="M 31.689 15.207 L 10.093 15.207 C 9.102 15.207 8.293 16.02 8.293 17.007 L 8.293 38.61 C 8.293 39.601 9.103001 40.41 10.093 40.41 L 31.693 40.41 C 32.682 40.41 33.496002 39.600998 33.496002 38.61 L 33.496002 17.03 C 32.775 16.55 32.159 15.93 31.689 15.207 "/>
    <path d="M 65.761 10.091 L 36.961002 10.091 C 35.971 10.091 35.161003 10.903999 35.161003 11.893999 L 35.161003 40.694 C 35.161003 41.684002 35.972004 42.495 36.961002 42.495 L 65.761 42.495 C 66.752 42.495 67.561005 41.684 67.561005 40.694 L 67.561005 11.894001 C 67.561 10.901 66.752 10.091 65.761 10.091 M 63.061 35.291 C 63.061 35.786 62.659 36.191 62.165 36.191 L 40.561 36.191 C 40.067 36.191 39.665 35.786003 39.665 35.291 L 39.665 13.691 C 39.665 13.196 40.067 12.791 40.561 12.791 L 62.165 12.791 C 62.659 12.791 63.061 13.196 63.061 13.691 L 63.061 35.291 z "/>
    <linearGradient x1="1162.0012" gradientTransform="matrix(1 0 0 1 -1110.6406 -1534.207)" y1="1542.4978" x2="1162.0012" gradientUnits="userSpaceOnUse" y2="1574.9001" xlink:type="simple" xlink:actuate="onLoad" id="SVGID_1_" xlink:show="other">
        <stop stop-color="#009ad9" offset="0"/>
        <stop stop-color="#006e9c" offset="1"/>
    </linearGradient>
    <path fill="url(#SVGID_1_)" d="M 65.761 8.291 L 36.961002 8.291 C 35.971 8.291 35.161003 9.103001 35.161003 10.091001 L 35.161003 38.894 C 35.161003 39.881 35.972004 40.694 36.961002 40.694 L 65.761 40.694 C 66.752 40.694 67.561005 39.881 67.561005 38.894 L 67.561005 10.091 C 67.561 9.1 66.752 8.291 65.761 8.291 M 63.061 35.291 C 63.061 35.786 62.659 36.191 62.165 36.191 L 40.561 36.191 C 40.067 36.191 39.665 35.786003 39.665 35.291 L 39.665 13.691 C 39.665 13.196 40.067 12.791 40.561 12.791 L 62.165 12.791 C 62.659 12.791 63.061 13.196 63.061 13.691 L 63.061 35.291 z "/>
    <linearGradient x1="591.4661" gradientTransform="matrix(1 0 0 1 -555.3203 -767.1035)" y1="780.0603" x2="591.4661" gradientUnits="userSpaceOnUse" y2="834.7185" xlink:type="simple" xlink:actuate="onLoad" id="SVGID_2_" xlink:show="other">
        <stop stop-color="#009ad9" offset="0"/>
        <stop stop-color="#006e9c" offset="1"/>
    </linearGradient>
    <path fill="url(#SVGID_2_)" d="M 31.909 12.957 L 10.127 12.957 C 9.129 12.957 8.312 13.7699995 8.312 14.757 L 8.312 36.359 C 8.312 37.349003 9.129001 38.16 10.127001 38.16 L 31.91 38.16 C 32.91 38.16 33.723 37.349 33.723 36.359 L 33.723 14.757 C 33.724 13.768 32.907 12.957 31.909 12.957 z M 31.682 41.745 L 9.9 41.745 C 8.901 41.745 8.0859995 42.557 8.0859995 43.545 L 8.0859995 65.146996 C 8.0859995 66.134995 8.900999 66.947 9.9 66.947 L 31.682 66.947 C 32.681 66.947 33.496998 66.135 33.496998 65.146996 L 33.496998 43.545 C 33.497 42.554 32.681 41.745 31.682 41.745 z M 62.39 42.413 L 40.609 42.413 C 39.611 42.413 38.796 43.225998 38.796 44.212997 L 38.796 65.814995 C 38.796 66.80299 39.611 67.616 40.609 67.616 L 62.39 67.616 C 63.389 67.616 64.206 66.805 64.206 65.814995 L 64.206 44.213 C 64.206 43.223 63.389 42.413 62.39 42.413 z "/>
</svg>
