<?xml version="1.0" encoding="UTF-8"?>
<svg xmlns="http://www.w3.org/2000/svg" xmlns:xlink="http://www.w3.org/1999/xlink" contentScriptType="text/ecmascript" zoomAndPan="magnify" baseProfile="tiny" contentStyleType="text/css" version="1.1" width="88px" preserveAspectRatio="xMidYMid meet" viewBox="0 0 88 88" height="88px" x="0px" y="0px">
    <g>
        <path d="M 44.0 79.815 C 41.997 79.815 40.034 79.003006 38.617 77.586 L 9.745 48.713 C 7.557 46.525 6.91 43.266003 8.097 40.41 C 9.276 37.56 12.036 35.716 15.128 35.716 L 21.949001 35.716 L 21.949001 23.799 C 21.949001 19.6 25.365002 16.185 29.563002 16.185 L 58.437004 16.185 C 62.635002 16.185 66.051 19.599998 66.051 23.799 L 66.051 35.716 L 72.871 35.716 C 75.963005 35.716 78.725006 37.562 79.905 40.418 C 81.09 43.266 80.442 46.524 78.256 48.712997 L 49.385 77.587 C 47.967 79.004 46.004 79.815 44.0 79.815 L 44.0 79.815 z " fill-opacity="0.5"/>
        <path d="M 41.799 77.034 C 42.383 77.618996 43.176 77.948 44.0 77.948 C 44.825 77.948 45.618 77.618996 46.203 77.034 L 75.073 48.161995 C 75.963 47.271996 76.230995 45.932995 75.748 44.767994 C 75.268 43.604996 74.131004 42.845993 72.873 42.845993 L 61.551 42.845993 L 61.551 26.43 C 61.551 24.711 60.155 23.317001 58.438 23.317001 L 29.563 23.317001 C 27.843 23.317001 26.449 24.713001 26.449 26.43 L 26.449 42.848 L 15.127 42.848 C 13.868 42.848 12.732 43.607 12.250999 44.77 C 11.768 45.934002 12.035999 47.274002 12.926 48.164 L 41.799 77.034 z "/>
        <linearGradient x1="35.6001" gradientTransform="matrix(1 0 0 -1 8.3999 64.1602)" y1="42.8438" x2="35.6001" gradientUnits="userSpaceOnUse" y2="-11.7881" xlink:type="simple" xlink:actuate="onLoad" id="SVGID_1_" xlink:show="other">
            <stop stop-color="#edf5b3" offset="0"/>
            <stop stop-color="#7fa608" offset="1"/>
        </linearGradient>
        <path fill="url(#SVGID_1_)" d="M 41.799 75.034 C 42.383 75.618996 43.176 75.948 44.0 75.948 C 44.825 75.948 45.618 75.618996 46.203 75.034 L 75.073 46.161995 C 75.963 45.271996 76.230995 43.932995 75.748 42.767994 C 75.268 41.604996 74.131004 40.845993 72.873 40.845993 L 61.551 40.845993 L 61.551 24.43 C 61.551 22.711 60.155 21.317001 58.438 21.317001 L 29.563 21.317001 C 27.843 21.317001 26.449 22.713001 26.449 24.43 L 26.449 40.848 L 15.127 40.848 C 13.868 40.848 12.732 41.607 12.250999 42.77 C 11.768 43.934002 12.035999 45.274002 12.926 46.164 L 41.799 75.034 z "/>
    </g>
</svg>
