<?xml version="1.0" encoding="UTF-8"?>
<svg xmlns="http://www.w3.org/2000/svg" xmlns:xlink="http://www.w3.org/1999/xlink" contentScriptType="text/ecmascript" zoomAndPan="magnify" baseProfile="tiny" contentStyleType="text/css" version="1.1" width="352px" preserveAspectRatio="xMidYMid meet" viewBox="0 0 352 126" height="126px" x="0px" y="0px">
    <g>
        <g>
            <path d="M 13.52 2.413 C 6.8930006 2.413 1.5030003 8.287001 1.5030003 15.508 L 1.5030003 109.357 C 1.5030003 116.578 6.893 122.453 13.52 122.453 L 337.98 122.453 C 344.60297 122.453 349.99695 116.578 349.99695 109.357 L 349.99695 15.508 C 349.99695 8.286 344.60297 2.413 337.98 2.413 L 13.52 2.413 z " fill-opacity="0.01"/>
            <path d="M 13.52 3.504 C 7.4460006 3.504 2.504001 8.89 2.504001 15.507999 L 2.504001 109.356995 C 2.504001 115.977 7.4450006 121.35999 13.52 121.35999 L 337.98 121.35999 C 344.05 121.35999 348.99597 115.97699 348.99597 109.356995 L 348.99597 15.508 C 348.99597 8.889 344.05096 3.504001 337.98 3.504001 L 13.52 3.504001 z " fill-opacity="0.03"/>
            <path d="M 13.52 4.595 C 7.9980006 4.595 3.5060005 9.490999 3.5060005 15.507999 L 3.5060005 109.356995 C 3.5060005 115.37399 7.996 120.269 13.52 120.269 L 337.98 120.269 C 343.50095 120.269 347.994 115.373 347.994 109.356995 L 347.994 15.508 C 347.994 9.49 343.502 4.5950003 337.98 4.5950003 L 13.52 4.5950003 z " fill-opacity="0.04"/>
            <path d="M 13.52 5.687 C 8.550001 5.687 4.507001 10.093 4.507001 15.508999 L 4.507001 109.358 C 4.507001 114.773 8.550001 119.179 13.52 119.179 L 337.98 119.179 C 342.95 119.179 346.99295 114.773 346.99295 109.358 L 346.99295 15.508 C 346.99295 10.092001 342.95 5.686001 337.98 5.686001 L 13.52 5.686001 z " fill-opacity="0.09"/>
            <path d="M 13.52 6.778 C 9.103001 6.778 5.5080004 10.695 5.5080004 15.507999 L 5.5080004 109.356995 C 5.5080004 114.171 9.102 118.086 13.52 118.086 L 337.98 118.086 C 342.394 118.086 345.99097 114.171 345.99097 109.356995 L 345.99097 15.508 C 345.99097 10.694 342.394 6.778001 337.98 6.778001 L 13.52 6.778001 z " fill-opacity="0.08"/>
            <path d="M 13.52 7.869 C 9.655001 7.869 6.51 11.297 6.51 15.509 L 6.51 109.358 C 6.51 113.569 9.655001 116.997 13.52 116.997 L 337.98 116.997 C 341.84097 116.997 344.99 113.569 344.99 109.358 L 344.99 15.508 C 344.99 11.297001 341.842 7.868001 337.98 7.868001 L 13.52 7.868001 z " fill-opacity="0.1"/>
            <path d="M 13.52 8.96 C 10.204 8.96 7.5110006 11.896 7.5110006 15.507999 L 7.5110006 109.356995 C 7.5110006 112.966995 10.203001 115.90399 13.52 115.90399 L 337.98 115.90399 C 341.29297 115.90399 343.988 112.966995 343.988 109.356995 L 343.988 15.508 C 343.988 11.896 341.29297 8.960001 337.98 8.960001 L 13.52 8.960001 z " fill-opacity="0.11"/>
            <path d="M 342.988 109.357 C 342.988 112.37 340.747 114.813 337.98105 114.813 L 13.52 114.813 C 10.751 114.813 8.5130005 112.37 8.5130005 109.357 L 8.5130005 15.508 C 8.5130005 12.493 10.752001 10.051001 13.52 10.051001 L 337.98 10.051001 C 340.74597 10.051001 342.98697 12.493 342.98697 15.508 L 342.98697 109.357 z " fill-opacity="0.1"/>
            <polygon points="341.986,5.687 4.507,5.687 4.507,114.813 342.988,114.813 342.988,5.687   " fill-opacity="0.03"/>
            <linearGradient x1="88.7522" gradientTransform="matrix(1 0 0 1 84.9951 -717.833)" y1="831.5566" x2="88.7522" gradientUnits="userSpaceOnUse" y2="724.6113" xlink:type="simple" xlink:actuate="onLoad" id="SVGID_1_" xlink:show="other">
                <stop stop-color="#ffffff" offset="0"/>
                <stop stop-color="#ffffff" offset="0.3626"/>
                <stop stop-color="#dcdcdc" offset="0.9231"/>
                <stop stop-color="#ededed" offset="1"/>
            </linearGradient>
            <rect x="5.509" width="336.477" fill="url(#SVGID_1_)" y="6.778" height="106.945"/>
            <rect x="-0.5" width="352.5" fill="none" y="-8.5" height="137.5"/>
        </g>
    </g>
</svg>
