<?xml version="1.0" encoding="UTF-8"?>
<svg xmlns="http://www.w3.org/2000/svg" xmlns:xlink="http://www.w3.org/1999/xlink" contentScriptType="text/ecmascript" zoomAndPan="magnify" baseProfile="tiny" contentStyleType="text/css" version="1.1" width="76.666px" preserveAspectRatio="xMidYMid meet" viewBox="0 0 76.666 76.666" height="76.666px" x="0px" y="0px">
    <g>
        <g stroke-opacity="0.5" fill-opacity="0.5">
            <path d="M 49.325 5.554 L 17.33 5.554 C 12.862 5.554 9.23 9.188 9.23 13.654 L 9.23 63.874 C 9.23 68.341 12.862 71.975 17.33 71.975 L 49.326 71.975 C 49.704 71.975 50.073 71.94 50.439 71.888 C 51.085 71.945 51.738 71.976 52.399 71.976 C 65.227 71.976 75.667 61.538 75.667 48.71 C 75.667 37.607 67.845 28.306 57.426003 26.002 L 57.426003 13.654 C 57.425 9.188 53.79 5.554 49.325 5.554 "/>
        </g>
        <path fill="none" d="M 26.239 56.989 L 22.189 56.989 C 21.294 56.989 20.568998 57.715 20.568998 58.608997 L 20.568998 60.634 C 20.568998 61.529 21.294 62.253 22.189 62.253 L 26.238998 62.253 C 27.134 62.253 27.859 61.528 27.859 60.634 L 27.859 58.608997 C 27.859 57.715 27.133 56.989 26.239 56.989 z "/>
        <path fill="none" d="M 29.682 58.609 L 29.682 60.634003 C 29.682 61.529003 30.407 62.253 31.302 62.253 L 33.5 62.253 C 32.365 60.674004 31.421 58.946003 30.707 57.106003 C 30.105 57.344 29.682 57.926 29.682 58.609 z "/>
        <path d="M 33.5 63.874 L 31.302 63.874 C 30.407 63.874 29.682 63.148 29.682 62.254 L 29.682 60.229 C 29.682 59.547 30.105 58.965 30.706 58.726 C 30.092 57.144 29.642 55.479 29.386 53.749 L 22.189 53.749 C 21.294 53.749 20.568998 53.023 20.568998 52.129 L 20.568998 20.135 C 20.568998 19.241 21.294 18.514 22.189 18.514 L 44.463997 18.514 C 45.358 18.514 46.082996 19.241 46.082996 20.135 L 46.082996 27.942 C 48.092995 27.374 50.209995 27.064 52.396996 27.064 C 52.724995 27.064 53.048996 27.075 53.373997 27.087002 L 53.373997 15.274 C 53.373997 13.037001 51.560997 11.224 49.323997 11.224 L 17.33 11.224 C 15.093 11.224 13.28 13.037 13.28 15.274 L 13.28 65.495 C 13.28 67.732 15.092999 69.545006 17.33 69.545006 L 39.298 69.545006 C 37.05 68.007 35.088 66.084 33.5 63.874 z M 27.859 62.254 C 27.859 63.149 27.133 63.874 26.238998 63.874 L 22.189 63.874 C 21.294 63.874 20.568998 63.148 20.568998 62.254 L 20.568998 60.229 C 20.568998 59.336 21.294 58.61 22.189 58.61 L 26.238998 58.61 C 27.134 58.61 27.859 59.337 27.859 60.229 L 27.859 62.254 z "/>
        <path d="M 52.398 31.114 C 41.803 31.114 33.181 39.734 33.181 50.33 C 33.181 60.927 41.803 69.547 52.398 69.547 C 62.994 69.547 71.615 60.927 71.615 50.33 C 71.615 39.732 62.994 31.114 52.398 31.114 z M 52.398 65.726 C 43.911 65.726 37.003 58.818996 37.003 50.33 C 37.003 41.841 43.911 34.935 52.398 34.935 C 60.887 34.935 67.793 41.839996 67.793 50.33 C 67.793 58.818 60.888 65.726 52.398 65.726 z M 61.307 40.677 L 49.146 46.756996 C 49.009 46.824997 48.896 46.939995 48.827 47.075996 L 42.744 59.236996 C 42.607 59.511997 42.66 59.845997 42.88 60.064995 C 43.099003 60.282993 43.431 60.33699 43.706 60.19799 L 55.866 54.117996 C 55.937 54.082996 55.999 54.036995 56.052 53.983997 C 56.106003 53.929996 56.153004 53.866997 56.187 53.797997 L 62.268 41.636997 C 62.406 41.359997 62.353 41.028996 62.133003 40.809 C 61.916 40.594 61.582 40.539 61.307 40.677 z M 54.026 51.958 C 53.185 52.797 51.825 52.797 50.986 51.958 C 50.147 51.119 50.147 49.757 50.986 48.917 C 51.825 48.078 53.185 48.078 54.026 48.917 C 54.866 49.757 54.866 51.119 54.026 51.958 z "/>
        <linearGradient x1="24.9272" gradientTransform="matrix(1 0 0 -1 8.3999 52.8262)" y1="43.2217" x2="24.9272" gradientUnits="userSpaceOnUse" y2="-15.0972" xlink:type="simple" xlink:actuate="onLoad" id="SVGID_1_" xlink:show="other">
            <stop stop-color="#47e6eb" offset="0"/>
            <stop stop-color="#007cba" offset="1"/>
        </linearGradient>
        <path fill="url(#SVGID_1_)" d="M 33.5 62.254 L 31.302 62.254 C 30.407 62.254 29.682 61.529003 29.682 60.635 L 29.682 58.61 C 29.682 57.926003 30.105 57.344 30.706 57.107 C 30.092 55.523003 29.642 53.859 29.386 52.129 L 22.189 52.129 C 21.294 52.129 20.568998 51.404003 20.568998 50.51 L 20.568998 18.514 C 20.568998 17.62 21.294 16.894 22.189 16.894 L 44.463997 16.894 C 45.358 16.894 46.082996 17.62 46.082996 18.514 L 46.082996 26.322 C 48.092995 25.754 50.209995 25.444 52.396996 25.444 C 52.724995 25.444 53.048996 25.456 53.373997 25.468 L 53.373997 13.654 C 53.373997 11.417 51.560997 9.604 49.323997 9.604 L 17.33 9.604 C 15.093 9.604 13.28 11.417 13.28 13.654 L 13.28 63.874 C 13.28 66.112 15.092999 67.924 17.33 67.924 L 39.298 67.924 C 37.05 66.386 35.088 64.463 33.5 62.254 z M 27.859 60.635 C 27.859 61.53 27.133 62.254 26.238998 62.254 L 22.189 62.254 C 21.294 62.254 20.568998 61.529 20.568998 60.635 L 20.568998 58.609997 C 20.568998 57.714996 21.294 56.99 22.189 56.99 L 26.238998 56.99 C 27.134 56.99 27.859 57.716 27.859 58.609997 L 27.859 60.635 z "/>
        <linearGradient x1="43.998" gradientTransform="matrix(1 0 0 -1 8.3999 52.8262)" y1="23.3315" x2="43.998" gradientUnits="userSpaceOnUse" y2="-15.1016" xlink:type="simple" xlink:actuate="onLoad" id="SVGID_2_" xlink:show="other">
            <stop stop-color="#ff7bac" offset="0"/>
            <stop stop-color="#b33464" offset="1"/>
        </linearGradient>
        <path fill="url(#SVGID_2_)" d="M 52.398 29.495 C 41.803 29.495 33.181 38.113 33.181 48.711 C 33.181 59.306 41.803 67.92799 52.398 67.92799 C 62.994 67.92799 71.615 59.305992 71.615 48.710995 C 71.615 38.113 62.994 29.495 52.398 29.495 z M 52.398 64.104 C 43.911 64.104 37.003 57.199997 37.003 48.708996 C 37.003 40.219994 43.911 33.313995 52.398 33.313995 C 60.887 33.313995 67.793 40.219994 67.793 48.708996 C 67.793 57.2 60.888 64.104 52.398 64.104 z M 61.307 39.057 L 49.146 45.136 C 49.009 45.205997 48.896 45.318996 48.827 45.457996 L 42.744 57.617996 C 42.607 57.893997 42.66 58.227997 42.88 58.443996 C 43.099003 58.661995 43.431 58.715996 43.706 58.58 L 55.866 52.497997 C 55.937 52.462997 55.999 52.419 56.052 52.364 C 56.106003 52.309 56.153004 52.247997 56.187 52.177 L 62.268 40.017 C 62.406 39.740997 62.353 39.41 62.133003 39.19 C 61.916 38.974 61.582 38.919 61.307 39.057 z M 54.026 50.337 C 53.185 51.178 51.825 51.178 50.986 50.337 C 50.147 49.499 50.147 48.139 50.986 47.298 C 51.825 46.458 53.185 46.458 54.026 47.298 C 54.866 48.139 54.866 49.499 54.026 50.337 z "/>
    </g>
</svg>
