<?xml version="1.0" encoding="UTF-8"?>
<svg xmlns="http://www.w3.org/2000/svg" xmlns:xlink="http://www.w3.org/1999/xlink" contentScriptType="text/ecmascript" zoomAndPan="magnify" baseProfile="tiny" contentStyleType="text/css" version="1.1" width="88px" preserveAspectRatio="xMidYMid meet" viewBox="0 0 88 88" height="88px" x="0px" y="0px">
    <g>
        <path d="M 72.739 5.835 L 67.855995 5.835 L 65.090996 5.835 L 56.33 5.835 L 49.949 5.835 L 49.396 5.835 L 43.013 5.835 L 17.26 5.835 C 11.51 5.835 6.832 10.5130005 6.832 16.262001 L 6.832 16.388 L 6.832 22.769001 L 6.832 40.509003 L 6.832 46.892002 L 6.832 66.138 L 6.832 68.903 L 6.832 71.74 C 6.832 77.489 11.51 82.167 17.26 82.167 L 65.092 82.167 L 67.857 82.167 L 72.740005 82.167 C 78.490005 82.167 83.16901 77.489 83.16901 71.74 L 83.16901 68.903 L 83.16901 66.138 L 83.16901 55.636 L 83.16901 49.254 L 83.16901 22.768 L 83.16901 16.388 L 83.16901 16.262001 C 83.168 10.513 78.489 5.835 72.739 5.835 z " fill-opacity="0.5"/>
        <path d="M 44.397 19.768 L 11.833 19.768 L 11.833 18.261 C 11.833 15.276 14.276 12.833 17.261 12.833 L 44.398 12.833 L 44.397 19.768 L 44.397 19.768 z M 52.974 73.138 L 11.834 73.138 L 11.834 73.74 C 11.834 76.725 14.276999 79.167 17.262 79.167 L 62.858 79.167 L 62.858 73.139 L 54.25 73.139 C 54.039 73.156 53.828 73.183 53.613 73.183 C 53.396 73.182 53.187 73.154 52.974 73.138 z M 16.053 47.509 L 11.833 47.509 L 11.833 65.904 L 16.054 65.904 L 16.053 47.509 L 16.053 47.509 z M 51.332 12.835 L 48.016 12.835 L 48.016 19.769001 L 51.332 19.769001 L 51.332 12.835 z M 51.332 23.388 L 48.016 23.388 L 48.016 27.611 L 51.332 27.611 L 51.332 23.388 z M 44.397 31.018 L 44.397 29.418 L 44.397 27.608 L 44.397 23.387 L 19.672 23.387 L 19.672 43.891 L 22.688002 43.891 C 25.647001 43.891 26.598001 46.579 27.293001 48.542 C 28.219002 51.155 28.867 52.635 31.432001 52.635 L 39.147003 52.635 C 38.008003 49.434 37.273003 46.566998 37.273003 44.499 C 37.273 38.906 40.101 33.966 44.397 31.018 z M 16.053 23.388 L 11.833 23.388 L 11.833 43.892 L 16.054 43.892 L 16.053 23.388 L 16.053 23.388 z M 70.092 52.636 L 78.166 52.636 L 78.166 23.388 L 70.092 23.388 L 70.092 52.636 z M 72.739 12.835 L 70.093 12.835 L 70.093 19.769001 L 78.167 19.769001 L 78.167 18.262001 C 78.168 15.275 75.724 12.835 72.739 12.835 z M 70.092 65.902 L 78.166 65.902 L 78.166 56.254 L 70.092 56.254 L 70.092 65.902 z M 31.433 56.254 C 26.187 56.254 24.745 52.183002 23.884 49.75 C 23.419 48.438 23.062 47.509 22.689001 47.509 L 19.673 47.509 L 19.673 65.904 L 44.96 65.904 C 43.411 62.787 41.851997 59.447 40.541 56.256 L 31.433 56.254 L 31.433 56.254 z M 62.856 23.388 L 54.95 23.388 L 54.95 28.227001 C 57.869 28.465002 60.571 29.465002 62.856003 31.039001 L 62.856003 23.388 z M 62.856 12.835 L 54.95 12.835 L 54.95 19.769001 L 62.856003 19.769001 L 62.856003 12.835 z M 70.092 79.166 L 72.73801 79.166 C 75.72201 79.166 78.16601 76.726 78.16601 73.739 L 78.16601 73.137 L 70.09201 73.137 L 70.09201 79.166 L 70.092 79.166 z "/>
        <path d="M 53.612 33.158 C 47.356 33.158 42.273 38.246002 42.273 44.5 C 42.273 49.422 48.85 62.591 50.865997 66.507 C 51.396996 67.533005 52.456997 68.18301 53.611996 68.18301 C 54.765995 68.18301 55.827995 67.535 56.353996 66.507 C 58.372997 62.591003 64.952995 49.422005 64.952995 44.500004 C 64.953 38.246 59.866 33.158 53.612 33.158 z M 53.612 39.446 C 55.849 39.446 57.662 41.259 57.662 43.498 C 57.662 45.732002 55.849 47.547 53.612 47.547 C 51.375 47.547 49.561 45.734 49.561 43.498 C 49.562 41.259 51.375 39.446 53.612 39.446 z "/>
        <linearGradient x1="36.6011" gradientTransform="matrix(1 0 0 -1 8.3999 64.1602)" y1="53.3271" x2="36.6011" gradientUnits="userSpaceOnUse" y2="-13.0054" xlink:type="simple" xlink:actuate="onLoad" id="SVGID_1_" xlink:show="other">
            <stop stop-color="#f53f60" offset="0"/>
            <stop stop-color="#ad132f" offset="1"/>
        </linearGradient>
        <path fill="url(#SVGID_1_)" d="M 44.397 17.768 L 11.833 17.768 L 11.833 16.261 C 11.833 13.276 14.276 10.833 17.261 10.833 L 44.398 10.833 L 44.397 17.768 L 44.397 17.768 z M 52.974 71.138 L 11.834 71.138 L 11.834 71.74 C 11.834 74.725 14.276999 77.167 17.262 77.167 L 62.858 77.167 L 62.858 71.139 L 54.25 71.139 C 54.039 71.156 53.828 71.183 53.613 71.183 C 53.396 71.182 53.187 71.154 52.974 71.138 z M 16.053 45.509 L 11.833 45.509 L 11.833 63.904 L 16.054 63.904 L 16.053 45.509 L 16.053 45.509 z M 51.332 10.835 L 48.016 10.835 L 48.016 17.769001 L 51.332 17.769001 L 51.332 10.835 z M 51.332 21.388 L 48.016 21.388 L 48.016 25.611 L 51.332 25.611 L 51.332 21.388 z M 44.397 29.018 L 44.397 27.418 L 44.397 25.608 L 44.397 21.387 L 19.672 21.387 L 19.672 41.891 L 22.688002 41.891 C 25.647001 41.891 26.598001 44.579 27.293001 46.542 C 28.219002 49.155 28.867 50.635 31.432001 50.635 L 39.147003 50.635 C 38.008003 47.434 37.273003 44.566998 37.273003 42.499 C 37.273 36.906 40.101 31.966 44.397 29.018 z M 16.053 21.388 L 11.833 21.388 L 11.833 41.892 L 16.054 41.892 L 16.053 21.388 L 16.053 21.388 z M 70.092 50.636 L 78.166 50.636 L 78.166 21.388 L 70.092 21.388 L 70.092 50.636 z M 72.739 10.835 L 70.093 10.835 L 70.093 17.769001 L 78.167 17.769001 L 78.167 16.262001 C 78.168 13.275 75.724 10.835 72.739 10.835 z M 70.092 63.902 L 78.166 63.902 L 78.166 54.254 L 70.092 54.254 L 70.092 63.902 z M 31.433 54.254 C 26.187 54.254 24.745 50.183002 23.884 47.75 C 23.419 46.438 23.062 45.509 22.689001 45.509 L 19.673 45.509 L 19.673 63.904 L 44.96 63.904 C 43.411 60.787 41.851997 57.447 40.541 54.256 L 31.433 54.254 L 31.433 54.254 z M 62.856 21.388 L 54.95 21.388 L 54.95 26.227001 C 57.869 26.465002 60.571 27.465002 62.856003 29.039001 L 62.856003 21.388 z M 62.856 10.835 L 54.95 10.835 L 54.95 17.769001 L 62.856003 17.769001 L 62.856003 10.835 z M 70.092 77.166 L 72.73801 77.166 C 75.72201 77.166 78.16601 74.726 78.16601 71.739 L 78.16601 71.137 L 70.09201 71.137 L 70.09201 77.166 L 70.092 77.166 z "/>
        <linearGradient x1="45.2129" gradientTransform="matrix(1 0 0 -1 8.3999 64.1602)" y1="33.002" x2="45.2129" gradientUnits="userSpaceOnUse" y2="-2.0225" xlink:type="simple" xlink:actuate="onLoad" id="SVGID_2_" xlink:show="other">
            <stop stop-color="#ffcf76" offset="0"/>
            <stop stop-color="#ba6d29" offset="1"/>
        </linearGradient>
        <path fill="url(#SVGID_2_)" d="M 53.612 31.158 C 47.356 31.158 42.273 36.246002 42.273 42.5 C 42.273 47.422 48.85 60.591 50.865997 64.507 C 51.396996 65.533005 52.456997 66.18301 53.611996 66.18301 C 54.765995 66.18301 55.827995 65.535 56.353996 64.507 C 58.372997 60.591003 64.952995 47.422005 64.952995 42.500004 C 64.953 36.246 59.866 31.158 53.612 31.158 z M 53.612 37.446 C 55.849 37.446 57.662 39.259 57.662 41.498 C 57.662 43.732002 55.849 45.547 53.612 45.547 C 51.375 45.547 49.561 43.734 49.561 41.498 C 49.562 39.259 51.375 37.446 53.612 37.446 z "/>
    </g>
</svg>
