<?xml version="1.0" encoding="UTF-8"?>
<svg xmlns="http://www.w3.org/2000/svg" xmlns:xlink="http://www.w3.org/1999/xlink" contentScriptType="text/ecmascript" zoomAndPan="magnify" baseProfile="tiny" contentStyleType="text/css" version="1.1" width="87.002px" preserveAspectRatio="xMidYMid meet" viewBox="0 0 87.002 87.672" height="87.672px" x="0px" y="0px">
    <g>
        <path d="M 86.667 28.955 C 85.867 26.493 83.778 24.732 81.218 24.359 L 73.671005 23.264 C 73.65101 23.238 73.631004 23.212 73.60901 23.187 L 70.25801 16.395 C 69.11201 14.077001 66.79201 12.636001 64.20601 12.636001 C 61.62001 12.636001 59.30001 14.077001 58.152008 16.398 L 56.2 20.354 L 12.354 20.354 C 8.022 20.354 4.5 23.877 4.5 28.207 L 4.5 66.182 C 4.5 70.512 8.022 74.035 12.354 74.035 L 67.57601 74.035 C 71.907005 74.035 75.43001 70.51199 75.43001 66.182 L 75.43001 56.502 C 76.38301 56.313 77.28501 55.935 78.086006 55.354 C 80.18101 53.833 81.21001 51.302 80.771 48.752 L 79.477005 41.212997 L 84.95601 35.872997 C 86.811 34.068 87.468 31.417 86.667 28.955 z " fill-opacity="0.5" stroke-opacity="0.5"/>
        <path fill="none" d="M 15.526 29.255 C 14.571 28.602 13.269 28.842 12.613 29.796 C 11.957 30.75 12.2 32.055 13.154 32.711 L 31.284 45.165 L 13.477 62.987 C 12.985001 63.478 12.987 64.274 13.477 64.765 C 13.722 65.011 14.043 65.134 14.363 65.134 C 14.684 65.134 15.009 65.01 15.252 64.765 L 33.389 46.612 L 38.784 50.317 C 39.14 50.563 39.554 50.684 39.969 50.684 C 40.384003 50.684 40.797 50.563004 41.154003 50.316 L 46.547005 46.61 L 47.797005 47.861 L 48.937004 41.214 L 48.138004 40.436 L 39.970005 46.048 L 15.526 29.255 z "/>
        <path fill="none" d="M 65.575 65.135 C 65.896996 65.135 66.218994 65.012 66.465 64.766 C 66.954994 64.275 66.954994 63.481 66.465 62.988 L 58.69099 55.21 L 57.435993 55.87 C 57.062992 56.065 56.665993 56.215 56.26499 56.337997 L 64.68299 64.767 C 64.931 65.011 65.253 65.135 65.575 65.135 z "/>
        <path d="M 58.691 57.01 L 66.465004 64.787994 C 66.955 65.27999 66.955 66.075 66.465004 66.56699 C 66.219 66.811 65.898 66.93399 65.575005 66.93399 C 65.255005 66.93399 64.93001 66.81099 64.685005 66.56699 L 56.26701 58.137993 C 55.629005 58.331993 54.966007 58.44599 54.297005 58.44599 C 52.861004 58.44599 51.488007 57.998993 50.329006 57.15499 C 48.236008 55.63399 47.204006 53.103992 47.645004 50.55299 L 47.798004 49.66099 L 46.548004 48.41099 L 41.155003 52.116993 C 40.798004 52.36299 40.385 52.483994 39.97 52.483994 C 39.555 52.483994 39.14 52.362995 38.785 52.116993 L 33.39 48.41299 L 15.256 66.567 C 15.013 66.811005 14.688 66.934 14.367 66.934 C 14.047 66.934 13.724999 66.812 13.481 66.567 C 12.991 66.076004 12.989 65.28 13.481 64.788 L 31.29 46.965 L 13.160002 34.511 C 12.206001 33.856003 11.965002 32.551003 12.619001 31.596 C 13.274001 30.642 14.579001 30.402 15.5320015 31.055 L 39.974 47.847 L 48.142 42.236 L 43.46 37.673 C 41.608 35.869 40.954 33.217 41.754 30.755 C 42.365 28.877 43.726 27.411 45.476997 26.655 L 12.361 26.655 C 10.517 26.655 9.009 28.164 9.009 30.008 L 9.009 67.983 C 9.009 69.828 10.517 71.336 12.361 71.336 L 67.585 71.336 C 69.429 71.336 70.937 69.828 70.937 67.983 L 70.937 57.646 L 64.213 54.112 L 58.691 57.01 z "/>
        <linearGradient x1="23.1729" gradientTransform="matrix(1 0 0 1 16.7998 656.5898)" y1="-631.7344" x2="23.1728" gradientUnits="userSpaceOnUse" y2="-587.0537" xlink:type="simple" xlink:actuate="onLoad" id="SVGID_1_" xlink:show="other">
            <stop stop-color="#ffcf75" offset="0"/>
            <stop stop-color="#ba6b16" offset="1"/>
        </linearGradient>
        <path fill="url(#SVGID_1_)" d="M 58.691 55.21 L 66.465004 62.988 C 66.955 63.48 66.955 64.274 66.465004 64.766 C 66.219 65.011 65.898 65.133995 65.575005 65.133995 C 65.255005 65.133995 64.93001 65.010994 64.685005 64.766 L 56.26701 56.337 C 55.629005 56.531 54.966007 56.644997 54.297005 56.644997 C 52.861004 56.644997 51.488007 56.198 50.329006 55.354996 C 48.236008 53.833996 47.204006 51.303997 47.645004 48.751995 L 47.798004 47.860996 L 46.548004 46.610996 L 41.155003 50.31599 C 40.798004 50.561993 40.385 50.68399 39.97 50.68399 C 39.555 50.68399 39.14 50.561993 38.785 50.31599 L 33.39 46.612995 L 15.256 64.767 C 15.013 65.012 14.688 65.134995 14.367 65.134995 C 14.047 65.134995 13.724999 65.01299 13.481 64.767 C 12.991 64.277 12.989 63.481 13.481 62.989 L 31.29 45.165 L 13.160002 32.711 C 12.206001 32.056 11.965002 30.751 12.619001 29.795998 C 13.274001 28.841995 14.579001 28.601995 15.5320015 29.254995 L 39.974 46.046997 L 48.142 40.435997 L 43.46 35.872997 C 41.608 34.067997 40.954 31.416998 41.754 28.954998 C 42.365 27.076998 43.726 25.610998 45.476997 24.853998 L 12.361 24.853998 C 10.517 24.853998 9.009 26.363 9.009 28.207998 L 9.009 66.183 C 9.009 68.027 10.517 69.536 12.361 69.536 L 67.585 69.536 C 69.429 69.536 70.937 68.02699 70.937 66.183 L 70.937 55.846 L 64.213 52.312 L 58.691 55.21 z "/>
        <path d="M 82.222 32.144 C 81.958 31.329 81.254 30.735 80.407 30.613 L 70.493 29.173 L 66.059 20.191 C 65.68 19.423 64.898994 18.936 64.041 18.936 C 63.185 18.936 62.402 19.422 62.023 20.191 L 57.588997 29.173 L 47.678997 30.613 C 46.829 30.736 46.124996 31.329 45.859997 32.144 C 45.595997 32.959 45.815 33.854 46.430996 34.45 L 53.603996 41.441 L 51.911995 51.314003 C 51.765995 52.158005 52.113995 53.01 52.806995 53.515003 C 53.497993 54.018 54.420994 54.084003 55.17699 53.684 L 64.04099 49.025 L 72.909 53.684 C 73.236 53.859 73.597 53.944 73.952995 53.944 C 74.423 53.944 74.884995 53.798 75.27799 53.515 C 75.97099 53.01 76.314995 52.158 76.174 51.314 L 74.480995 41.441 L 81.65299 34.449997 C 82.266 33.854 82.487 32.959 82.222 32.144 z "/>
        <linearGradient x1="47.2412" gradientTransform="matrix(1 0 0 1 16.7998 656.5898)" y1="-639.4536" x2="47.2412" gradientUnits="userSpaceOnUse" y2="-604.4453" xlink:type="simple" xlink:actuate="onLoad" id="SVGID_2_" xlink:show="other">
            <stop stop-color="#f53f60" offset="0"/>
            <stop stop-color="#ad132f" offset="1"/>
        </linearGradient>
        <path fill="url(#SVGID_2_)" d="M 82.222 30.344 C 81.958 29.53 81.254 28.935 80.407 28.813 L 70.493 27.373 L 66.059 18.391 C 65.68 17.623 64.898994 17.137 64.041 17.137 C 63.185 17.137 62.402 17.623 62.023 18.391 L 57.588997 27.373 L 47.678997 28.813 C 46.829 28.936 46.124996 29.529 45.859997 30.344 C 45.595997 31.159 45.815 32.054 46.430996 32.65 L 53.603996 39.642 L 51.911995 49.515003 C 51.765995 50.359005 52.113995 51.211 52.806995 51.715004 C 53.497993 52.21901 54.420994 52.285004 55.17699 51.885 L 64.04099 47.225 L 72.909 51.885 C 73.236 52.059 73.597 52.145 73.952995 52.145 C 74.423 52.145 74.884995 51.999 75.27799 51.715 C 75.97099 51.211 76.314995 50.359 76.174 49.515 L 74.480995 39.642 L 81.65299 32.649998 C 82.266 32.054 82.487 31.159 82.222 30.344 z "/>
    </g>
</svg>
