<?xml version="1.0" encoding="UTF-8"?>
<svg xmlns="http://www.w3.org/2000/svg" xmlns:xlink="http://www.w3.org/1999/xlink" contentScriptType="text/ecmascript" zoomAndPan="magnify" baseProfile="tiny" contentStyleType="text/css" version="1.1" width="88px" preserveAspectRatio="xMidYMid meet" viewBox="0 0 88 88" height="88px" x="0px" y="0px">
    <g>
        <path d="M 86.653 19.414 C 85.823 16.861 83.657 15.035 81.001 14.649 L 72.493 13.412001 C 72.22199 12.669001 71.84 12.0060005 71.364 11.433001 L 68.448 5.5260005 C 67.26 3.122 64.854 1.63 62.174 1.63 C 59.494003 1.63 57.088 3.123 55.897 5.53 L 54.117 9.141001 L 17.497002 9.141001 C 13.778002 9.141001 11.093002 11.662001 10.774002 15.432001 C 10.745002 15.663001 10.727002 15.899001 10.727002 16.141 L 10.727002 77.371 C 10.727002 81.23 13.868002 84.371 17.727 84.371 L 65.975006 84.371 C 69.83301 84.371 72.975006 81.23 72.975006 77.371 L 72.975006 49.514 C 73.04401 49.516 73.117004 49.527 73.186005 49.527 C 74.674 49.527 76.09601 49.064 77.299 48.19 C 79.47301 46.613 80.538 43.989 80.08501 41.342 L 78.60401 32.704998 L 84.879005 26.589998 C 86.804 24.717 87.481 21.967 86.653 19.414 z " fill-opacity="0.5"/>
        <path d="M 54.437 50.772 C 53.439 51.297 52.312 51.576 51.181 51.576 C 49.691 51.576 48.267 51.113 47.062 50.236 C 46.724 49.991 46.424 49.715 46.141 49.423 L 30.997 49.423 C 29.616 49.423 28.497 48.304 28.497 46.923 C 28.497 45.541 29.616 44.423 30.997 44.423 L 44.181 44.423 C 44.19 44.08 44.22 43.735 44.28 43.392 L 45.048 38.923004 L 30.998 38.923004 C 29.617 38.923004 28.498 37.804005 28.498 36.423004 C 28.498 35.041004 29.617 33.923004 30.998 33.923004 L 44.906 33.923004 L 39.487003 28.640003 C 37.565 26.768003 36.885 24.018003 37.715004 21.465004 C 38.544003 18.910004 40.710003 17.086004 43.367004 16.699005 L 50.305004 15.690005 L 17.747 15.690005 L 17.517 15.690005 C 16.363 15.690005 15.389 16.204006 15.273001 17.934006 C 15.264001 18.019005 15.248001 18.102003 15.248001 18.190006 L 15.248001 79.421005 C 15.248001 80.802 16.367 81.921005 17.748 81.921005 C 17.748 81.921005 35.617 81.920006 47.264 81.91901 C 57.388 81.920006 65.995 81.921005 65.995 81.921005 C 67.376 81.921005 68.495 80.802 68.495 79.421005 L 68.495 50.009 L 62.192 46.695 L 54.437 50.772 z M 52.745 59.923 L 50.615997 59.923 L 44.124996 59.923 L 30.997 59.923 C 29.616 59.923 28.497 58.804 28.497 57.423 C 28.497 56.041 29.616 54.923 30.997 54.923 L 37.921 54.923 L 45.821 54.923 L 52.746 54.923 C 54.127 54.923 55.246 56.041 55.246 57.423 C 55.245 58.804 54.126 59.923 52.745 59.923 z "/>
        <path d="M 82.36 22.756 C 82.065 21.851 81.282 21.192 80.34001 21.055 L 69.32601 19.452 L 64.4 9.473 C 63.978 8.619 63.111 8.077999 62.158 8.077999 C 61.207 8.077999 60.339 8.617999 59.916 9.473 L 54.99 19.452 L 43.977 21.055 C 43.035 21.192 42.252003 21.851 41.958 22.756 C 41.664 23.66 41.909 24.653 42.591 25.318 L 50.561 33.088 L 48.68 44.056 C 48.519 44.994 48.906 45.943 49.674 46.5 C 50.445 47.062 51.467 47.135 52.307 46.691 L 62.157997 41.511 L 72.01 46.691 C 72.37499 46.882004 72.77599 46.978 73.173 46.978 C 73.69199 46.978 74.20699 46.816 74.643 46.499 C 75.412994 45.94 75.798 44.992 75.637 44.055 L 73.756004 33.086998 L 81.726006 25.316998 C 82.409 24.653 82.653 23.659 82.36 22.756 z "/>
        <linearGradient x1="33.4526" gradientTransform="matrix(1 0 0 -1 8.3999 64.1602)" y1="50.5195" x2="33.4526" gradientUnits="userSpaceOnUse" y2="-15.7104" xlink:type="simple" xlink:actuate="onLoad" id="SVGID_1_" xlink:show="other">
            <stop stop-color="#cdd9dd" offset="0"/>
            <stop stop-color="#909090" offset="1"/>
        </linearGradient>
        <path fill="url(#SVGID_1_)" d="M 54.417 48.723 C 53.419 49.247 52.292 49.527 51.161 49.527 C 49.671 49.527 48.247 49.064 47.042 48.187 C 46.704 47.942 46.405 47.665 46.121 47.373 L 30.978 47.373 C 29.597 47.373 28.478 46.255 28.478 44.873 C 28.478 43.492 29.597 42.373 30.978 42.373 L 44.163 42.373 C 44.173 42.031 44.202003 41.686 44.263 41.343 L 45.029 36.873 L 30.979 36.873 C 29.598 36.873 28.479 35.755 28.479 34.373 C 28.479 32.992 29.598 31.873 30.979 31.873 L 44.887 31.873 L 39.467003 26.591002 C 37.545 24.719002 36.865 21.969002 37.696003 19.415 C 38.524 16.861 40.69 15.036001 43.348003 14.650002 L 50.286003 13.641002 L 17.728 13.641002 L 17.498 13.641002 C 16.344002 13.641002 15.371001 14.155002 15.254002 15.885002 C 15.246001 15.970002 15.229002 16.053001 15.229002 16.141003 L 15.229002 77.371 C 15.229002 78.753006 16.348001 79.871 17.729002 79.871 C 17.729002 79.871 35.598 79.87 47.246 79.869 C 57.371 79.87 65.977005 79.871 65.977005 79.871 C 67.358 79.871 68.477005 78.753006 68.477005 77.371 L 68.477005 47.958 L 62.174004 44.645 L 54.417 48.723 z M 52.726 57.872 L 50.599003 57.872 L 44.107 57.872 L 30.978 57.872 C 29.597 57.872 28.478 56.754 28.478 55.372 C 28.478 53.991 29.597 52.872 30.978 52.872 L 37.902 52.872 L 45.802 52.872 L 52.726 52.872 C 54.107 52.872 55.226 53.991 55.226 55.372 C 55.226 56.754 54.106 57.872 52.726 57.872 z "/>
        <linearGradient x1="53.7402" gradientTransform="matrix(1 0 0 -1 8.3999 64.1602)" y1="58.1309" x2="53.7402" gradientUnits="userSpaceOnUse" y2="19.2329" xlink:type="simple" xlink:actuate="onLoad" id="SVGID_2_" xlink:show="other">
            <stop stop-color="#ee4261" offset="0"/>
            <stop stop-color="#ac1e31" offset="1"/>
        </linearGradient>
        <path fill="url(#SVGID_2_)" d="M 82.341 20.705 C 82.046005 19.801 81.263 19.142 80.32101 19.005 L 69.30601 17.402 L 64.382 7.4229984 C 63.959003 6.5689983 63.091003 6.0279984 62.140003 6.0279984 C 61.189003 6.0279984 60.321003 6.5679984 59.898003 7.4229984 L 54.972004 17.402 L 43.958004 19.005 C 43.01701 19.141998 42.23301 19.801 41.939003 20.705 C 41.644005 21.61 41.890003 22.603 42.572 23.268 L 50.54 31.037 L 48.659 42.005997 C 48.499 42.943996 48.885 43.893 49.653 44.449997 C 50.424 45.011997 51.446 45.083996 52.286 44.641 L 62.139 39.461 L 71.99 44.641 C 72.354 44.830997 72.756 44.928 73.154 44.928 C 73.672 44.928 74.186 44.766 74.623 44.448997 C 75.393 43.89 75.779 42.942 75.617004 42.004997 L 73.73601 31.035995 L 81.70701 23.266998 C 82.39 22.604 82.634 21.609 82.341 20.705 z "/>
    </g>
</svg>
