<?xml version="1.0" encoding="UTF-8"?>
<svg xmlns="http://www.w3.org/2000/svg" xmlns:xlink="http://www.w3.org/1999/xlink" contentScriptType="text/ecmascript" zoomAndPan="magnify" baseProfile="tiny" contentStyleType="text/css" version="1.1" width="98.855px" preserveAspectRatio="xMidYMid meet" viewBox="0 0 98.855 88" height="88px" x="0px" y="0px">
    <path d="M 83.648 21.13 C 83.674 19.370998 82.985 17.65 81.753006 16.4 C 80.521 15.146 78.80501 14.429999 77.05 14.429999 L 65.773 14.429999 C 62.135002 14.429999 59.174004 17.387999 59.174004 21.028 L 59.174004 37.216 L 36.247 24.346 C 35.261 23.79 34.143 23.498001 33.010002 23.498001 C 31.843002 23.498001 30.696003 23.806002 29.681002 24.398 C 27.666002 25.577002 26.411001 27.763 26.411001 30.097 L 26.411001 32.193 L 16.076 32.138 C 14.323 32.138 12.675 32.815 11.454 34.026 C 10.193001 35.259003 9.473001 36.977 9.473001 38.737 L 9.473001 50.014 C 9.473001 53.653 12.43 56.614998 16.071001 56.614998 L 26.413002 56.614998 L 26.413002 58.703 C 26.413002 61.032997 27.661001 63.217 29.665003 64.392 C 30.679003 64.987 31.837002 65.303 33.010002 65.303 L 33.011 65.303 C 34.131 65.303 35.236 65.015 36.216003 64.47 L 59.175003 51.716003 L 59.175003 67.441 C 59.149002 69.209 59.847004 70.941 61.051003 72.15 C 62.284004 73.416 64.006004 74.141 65.773 74.141 L 77.05 74.141 C 80.689 74.141 83.65 71.183 83.65 67.543 L 83.648 21.13 z " fill-opacity="0.5" stroke-opacity="0.5"/>
    <path d="M 32.456 31.347 C 32.120003 31.545 31.912 31.906 31.912 32.293 L 31.912 39.922 L 16.091 39.838 C 15.797 39.834 15.511 39.945 15.301 40.153 C 15.089 40.359 14.971 40.64 14.971 40.937 L 14.971 52.214 C 14.971 52.821 15.4609995 53.315002 16.069 53.315002 L 31.909 53.315002 L 31.91 60.904003 C 31.91 61.293003 32.118 61.654003 32.451 61.848003 C 32.787 62.048004 33.202 62.053005 33.542 61.863003 L 59.153 47.634003 C 59.499 47.440002 59.717 47.073 59.718 46.674004 L 59.718 46.673004 C 59.718 46.275005 59.503 45.910004 59.156998 45.715004 L 33.546 31.336 C 33.209 31.146 32.793 31.149 32.456 31.347 z "/>
    <path d="M 64.675 23.228 C 64.675 22.621 65.167 22.130001 65.774 22.130001 L 77.051 22.130001 C 77.349 22.130001 77.628006 22.246 77.835 22.459002 C 78.044 22.668001 78.154 22.956001 78.15 23.250002 L 78.15 69.747 C 78.15 70.355 77.658005 70.845 77.05 70.845 L 65.773 70.845 C 65.478004 70.845 65.199005 70.73 64.989006 70.513 C 64.782005 70.307 64.671005 70.021 64.675 69.726 L 64.675 23.228 L 64.675 23.228 z "/>
    <linearGradient x1="4518.7793" gradientTransform="matrix(0 -1 1 0 -9323.9727 4547.7773)" y1="9361.3184" x2="4487.9736" gradientUnits="userSpaceOnUse" y2="9361.3184" xlink:type="simple" xlink:actuate="onLoad" id="SVGID_1_" xlink:show="other">
        <stop stop-color="#edf5b3" offset="0"/>
        <stop stop-color="#7fa608" offset="1"/>
    </linearGradient>
    <path fill="url(#SVGID_1_)" d="M 32.456 29.147 C 32.120003 29.345 31.912 29.706 31.912 30.094 L 31.912 37.723 L 16.091 37.639 C 15.797 37.635 15.511 37.746 15.301 37.954 C 15.089 38.16 14.971 38.441998 14.971 38.738 L 14.971 50.015 C 14.971 50.621998 15.4609995 51.116 16.069 51.116 L 31.909 51.116 L 31.91 58.705 C 31.91 59.094 32.118 59.455 32.451 59.649002 C 32.787 59.849003 33.202 59.854004 33.542 59.665 L 59.153 45.436 C 59.499 45.242 59.717 44.874 59.718 44.477 L 59.718 44.476 C 59.718 44.078003 59.503 43.713 59.156998 43.518 L 33.544 29.138 C 33.209 28.946 32.793 28.95 32.456 29.147 z "/>
    <linearGradient x1="866.5056" gradientTransform="matrix(1 0 0 1 -795.0918 612.917)" y1="-592.9868" x2="866.5056" gradientUnits="userSpaceOnUse" y2="-544.2725" xlink:type="simple" xlink:actuate="onLoad" id="SVGID_2_" xlink:show="other">
        <stop stop-color="#47e6eb" offset="0"/>
        <stop stop-color="#007cba" offset="1"/>
    </linearGradient>
    <path fill="url(#SVGID_2_)" d="M 64.675 21.028 C 64.675 20.421 65.167 19.93 65.774 19.93 L 77.051 19.93 C 77.349 19.93 77.628006 20.046 77.835 20.259 C 78.044 20.468 78.154 20.755001 78.15 21.050001 L 78.15 67.546 C 78.15 68.154 77.658005 68.645 77.05 68.645 L 65.773 68.645 C 65.478004 68.645 65.199005 68.529 64.989006 68.312996 C 64.782005 68.105995 64.671005 67.82 64.675 67.524994 L 64.675 21.028 L 64.675 21.028 z "/>
</svg>
