<?xml version="1.0" encoding="UTF-8"?>
<svg xmlns="http://www.w3.org/2000/svg" xmlns:xlink="http://www.w3.org/1999/xlink" contentScriptType="text/ecmascript" width="60" baseProfile="tiny" zoomAndPan="magnify" contentStyleType="text/css" viewBox="-0.511 0.483 60 52" height="52" preserveAspectRatio="xMidYMid meet" version="1.0">
    <linearGradient x1="29.49" y1="7.68" x2="29.49" gradientUnits="userSpaceOnUse" y2="46.08" xlink:type="simple" xlink:actuate="onLoad" id="_4" xlink:show="other">
        <stop stop-color="#a0a0a0" offset="0"/>
        <stop stop-color="#3c3c3c" offset="0.73"/>
        <stop stop-color="#3c3c3c" offset="1"/>
    </linearGradient>
    <path fill="url(#_4)" d="M 51.229 6.483 L 7.748 6.483 C 6.5030003 6.483 5.4890003 7.497 5.4890003 8.742 L 5.4890003 44.223 C 5.4890003 45.469 6.5030003 46.483 7.748 46.483 L 51.229 46.483 C 52.475 46.483 53.489 45.469 53.489 44.223 L 53.489 8.742 C 53.489 7.497 52.476 6.483 51.229 6.483 z M 52.489 44.224 C 52.489 44.918 51.924 45.483997 51.229 45.483997 L 7.748 45.483997 C 7.054 45.483997 6.4890003 44.919 6.4890003 44.224 L 6.4890003 8.742 C 6.4890003 8.047999 7.053001 7.483 7.748 7.483 L 51.229 7.483 C 51.923 7.483 52.489 8.047 52.489 8.742 L 52.489 44.224 z "/>
    <g stroke-opacity="0.7" fill-opacity="0.7">
        <linearGradient x1="29.49" y1="51.03" x2="29.49" gradientUnits="userSpaceOnUse" y2="5.9" xlink:type="simple" xlink:actuate="onLoad" id="_5" xlink:show="other">
            <stop stop-color="#a0a0a0" offset="0"/>
            <stop stop-color="#a0a0a0" offset="0.03"/>
            <stop stop-color="#e6e6e6" offset="0.26"/>
            <stop stop-color="#ffffff" offset="0.72"/>
            <stop stop-color="#ffffff" offset="1"/>
        </linearGradient>
        <path fill="url(#_5)" d="M 51.229 7.483 L 7.748 7.483 C 7.054 7.483 6.4890003 8.047 6.4890003 8.742 L 6.4890003 44.223 C 6.4890003 44.917 7.053001 45.483 7.748 45.483 L 51.229 45.483 C 51.923 45.483 52.489 44.918 52.489 44.223 L 52.489 8.742 C 52.489 8.048 51.924 7.483 51.229 7.483 z "/>
    </g>
    <path fill="#ffffff" d="M 52.107 7.86 C 51.864 7.608 51.578 7.483 51.229 7.483 L 7.748 7.483 C 7.054 7.483 6.4890003 8.047 6.4890003 8.742001 L 6.4890003 44.223 C 6.4890003 44.569 6.6320004 44.875 6.861001 45.096 C 6.864 45.109 7.489 44.468 7.489 44.468 L 7.489 8.483 L 51.488 8.483 L 52.107 7.86 z "/>
    <linearGradient x1="29.68" y1="12.62" x2="29.68" gradientUnits="userSpaceOnUse" y2="52.09" xlink:type="simple" xlink:actuate="onLoad" id="_6" xlink:show="other">
        <stop stop-color="#f5f5f5" offset="0"/>
        <stop stop-color="#5a5a5a" offset="1"/>
    </linearGradient>
    <path fill="url(#_6)" d="M 6.871 45.105 C 7.114 45.357 7.4 45.482 7.749 45.482 L 51.23 45.482 C 51.924 45.482 52.489 44.918 52.489 44.223 L 52.489 8.742 C 52.489 8.396 52.345997 8.089999 52.116997 7.869 C 52.114 7.856 51.489 8.497 51.489 8.497 C 51.489 8.497 51.489 43.703003 51.489 44.482 C 50.751 44.482 7.489998 44.482 7.489998 44.482 L 6.871 45.105 z "/>
    <rect x="19.489" width="20" fill="#3c3c3c" y="24.598" height="3.771"/>
    <circle fill="#3c3c3c" r="3.15" cx="29.489" cy="18.633"/>
    <circle fill="#3c3c3c" r="3.15" cx="29.489" cy="34.334"/>
</svg>
