<?xml version="1.0" encoding="UTF-8"?>
<svg xmlns="http://www.w3.org/2000/svg" xmlns:xlink="http://www.w3.org/1999/xlink" contentScriptType="text/ecmascript" width="60" baseProfile="tiny" zoomAndPan="magnify" contentStyleType="text/css" viewBox="-0.078 0.345 60 52" height="52" preserveAspectRatio="xMidYMid meet" version="1.0">
    <linearGradient x1="29.92" y1="45.15" x2="29.92" gradientUnits="userSpaceOnUse" y2="6.75" xlink:type="simple" xlink:actuate="onLoad" id="_5" xlink:show="other">
        <stop stop-color="#282828" offset="0"/>
        <stop stop-color="#282828" offset="0.71"/>
        <stop stop-color="#282828" offset="1"/>
    </linearGradient>
    <path fill="url(#_5)" d="M 8.181 6.346 C 6.936 6.346 5.922 7.36 5.922 8.6050005 L 5.922 44.086 C 5.922 45.331997 6.936 46.345997 8.181 46.345997 L 51.662 46.345997 C 52.907997 46.345997 53.921997 45.331997 53.921997 44.086 L 53.921997 8.604 C 53.921997 7.359 52.907997 6.3450003 51.662 6.3450003 L 8.181 6.3450003 z "/>
    <g stroke-opacity="0.9" fill-opacity="0.9">
        <linearGradient x1="29.92" y1="1.8" x2="29.92" gradientUnits="userSpaceOnUse" y2="46.93" xlink:type="simple" xlink:actuate="onLoad" id="_6" xlink:show="other">
            <stop stop-color="#a0a0a0" offset="0"/>
            <stop stop-color="#a0a0a0" offset="0.09"/>
            <stop stop-color="#dcdcdc" offset="0.37"/>
            <stop stop-color="#dcdcdc" offset="0.69"/>
            <stop stop-color="#dcdcdc" offset="1"/>
        </linearGradient>
        <path fill="url(#_6)" d="M 6.922 44.086 L 6.922 8.604 C 6.922 7.91 7.486 7.345 8.181 7.345 L 51.662 7.345 C 52.356 7.345 52.921997 7.909001 52.921997 8.604 L 52.921997 44.085 C 52.921997 44.779 52.357 45.344997 51.662 45.344997 L 8.181 45.344997 C 7.486 45.346 6.922 44.78 6.922 44.086 z "/>
    </g>
    <linearGradient x1="29.73" y1="43.13" x2="29.73" gradientUnits="userSpaceOnUse" y2="10.73" xlink:type="simple" xlink:actuate="onLoad" id="_7" xlink:show="other">
        <stop stop-color="#e6e6e6" offset="0"/>
        <stop stop-color="#a0a0a0" offset="1"/>
    </linearGradient>
    <path fill="url(#_7)" d="M 52.54 7.723 C 52.297 7.471 52.011 7.346 51.662003 7.346 L 8.181 7.346 C 7.487 7.346 6.922 7.91 6.922 8.6050005 L 6.922 44.086 C 6.922 44.432 7.065 44.738 7.294 44.959 C 7.297 44.972 7.922 44.331 7.922 44.331 L 7.922 8.346 L 51.921 8.346 L 52.54 7.723 z "/>
    <linearGradient x1="30.11" y1="40.6" x2="30.11" gradientUnits="userSpaceOnUse" y2="1.13" xlink:type="simple" xlink:actuate="onLoad" id="_8" xlink:show="other">
        <stop stop-color="#f5f5f5" offset="0"/>
        <stop stop-color="#282828" offset="1"/>
    </linearGradient>
    <path fill="url(#_8)" d="M 7.304 44.968 C 7.547 45.219997 7.833 45.344997 8.182 45.344997 L 51.663 45.344997 C 52.357 45.344997 52.921997 44.781 52.921997 44.086 L 52.921997 8.604 C 52.921997 8.258 52.778996 7.952 52.549995 7.731 C 52.546997 7.718 51.921997 8.359 51.921997 8.359 C 51.921997 8.359 51.921997 43.565 51.921997 44.344 C 51.184 44.344 7.922997 44.344 7.922997 44.344 L 7.304 44.968 z "/>
    <polygon fill="#282828" points="38.326,20.607 35.66,17.941 29.922,23.678 24.184,17.941 21.518,20.607 27.256,26.345 21.518,32.084 24.184,34.75 29.922,29.012 35.66,34.75 38.326,32.084 32.588,26.345 "/>
</svg>
