<?xml version="1.0" encoding="UTF-8"?>
<svg xmlns="http://www.w3.org/2000/svg" xmlns:xlink="http://www.w3.org/1999/xlink" contentScriptType="text/ecmascript" width="60" baseProfile="tiny" zoomAndPan="magnify" contentStyleType="text/css" viewBox="-0.393 0.104 60 52" height="52" preserveAspectRatio="xMidYMid meet" version="1.0">
    <linearGradient x1="29.61" y1="44.91" x2="29.61" gradientUnits="userSpaceOnUse" y2="6.51" xlink:type="simple" xlink:actuate="onLoad" id="_5" xlink:show="other">
        <stop stop-color="#282828" offset="0"/>
        <stop stop-color="#282828" offset="0.71"/>
        <stop stop-color="#282828" offset="1"/>
    </linearGradient>
    <path fill="url(#_5)" d="M 7.866 6.105 C 6.6210003 6.105 5.6070004 7.119 5.6070004 8.364 L 5.6070004 43.845 C 5.6070004 45.091 6.6210003 46.105 7.866 46.105 L 51.347 46.105 C 52.593 46.105 53.607 45.091 53.607 43.845 L 53.607 8.364 C 53.607 7.119001 52.593 6.1050005 51.347 6.1050005 L 7.866 6.1050005 z "/>
    <g stroke-opacity="0.9" fill-opacity="0.9">
        <linearGradient x1="29.61" y1="1.56" x2="29.61" gradientUnits="userSpaceOnUse" y2="46.69" xlink:type="simple" xlink:actuate="onLoad" id="_6" xlink:show="other">
            <stop stop-color="#a0a0a0" offset="0"/>
            <stop stop-color="#a0a0a0" offset="0.09"/>
            <stop stop-color="#dcdcdc" offset="0.37"/>
            <stop stop-color="#dcdcdc" offset="0.69"/>
            <stop stop-color="#dcdcdc" offset="1"/>
        </linearGradient>
        <path fill="url(#_6)" d="M 6.607 43.846 L 6.607 8.364 C 6.607 7.67 7.171 7.105001 7.866 7.105001 L 51.347 7.105001 C 52.041 7.105001 52.607 7.6690006 52.607 8.364 L 52.607 43.845 C 52.607 44.539 52.042 45.105 51.347 45.105 L 7.866 45.105 C 7.172 45.105 6.607 44.54 6.607 43.846 z "/>
    </g>
    <linearGradient x1="29.42" y1="42.89" x2="29.42" gradientUnits="userSpaceOnUse" y2="10.48" xlink:type="simple" xlink:actuate="onLoad" id="_7" xlink:show="other">
        <stop stop-color="#e6e6e6" offset="0"/>
        <stop stop-color="#a0a0a0" offset="1"/>
    </linearGradient>
    <path fill="url(#_7)" d="M 52.226 7.482 C 51.983 7.23 51.697 7.105 51.348003 7.105 L 7.866 7.105 C 7.172 7.105 6.6070004 7.669 6.6070004 8.364 L 6.6070004 43.845 C 6.6070004 44.191 6.750001 44.497 6.9790006 44.718 C 6.982001 44.731003 7.607001 44.090004 7.607001 44.090004 L 7.607001 8.105 L 51.606003 8.105 L 52.226 7.482 z "/>
    <linearGradient x1="29.8" y1="40.36" x2="29.8" gradientUnits="userSpaceOnUse" y2="0.89" xlink:type="simple" xlink:actuate="onLoad" id="_8" xlink:show="other">
        <stop stop-color="#f5f5f5" offset="0"/>
        <stop stop-color="#282828" offset="1"/>
    </linearGradient>
    <path fill="url(#_8)" d="M 6.989 44.728 C 7.232 44.98 7.518 45.105 7.867 45.105 L 51.348 45.105 C 52.042 45.105 52.607 44.541 52.607 43.846 L 52.607 8.364 C 52.607 8.018001 52.463997 7.712001 52.234997 7.491 C 52.232 7.478 51.607 8.119 51.607 8.119 C 51.607 8.119 51.607 43.325 51.607 44.104 C 50.869 44.104 7.607998 44.104 7.607998 44.104 L 6.989 44.728 z "/>
    <path fill="#282828" d="M 20.024 23.564 L 22.691 26.23 C 22.691 26.23 27.732 21.189 29.607 19.314 C 31.482 21.189 36.524 26.23 36.524 26.23 L 39.191 23.564 L 29.607002 13.98 L 20.024 23.564 z "/>
    <path fill="#282828" d="M 20.024 33.564 L 22.691 36.23 C 22.691 36.23 27.732 31.189 29.607 29.314 C 31.482 31.189 36.524 36.23 36.524 36.23 L 39.191 33.564 L 29.607002 23.98 L 20.024 33.564 z "/>
</svg>
