<?xml version="1.0" encoding="UTF-8"?>
<svg xmlns="http://www.w3.org/2000/svg" xmlns:xlink="http://www.w3.org/1999/xlink" contentScriptType="text/ecmascript" zoomAndPan="magnify" baseProfile="tiny" contentStyleType="text/css" version="1.1" width="98.855px" preserveAspectRatio="xMidYMid meet" viewBox="0 0 98.855 88" height="88px" x="0px" y="0px">
    <path d="M 49.467 4.018 C 38.169 4.018 19.217 9.182 19.217 43.768 C 19.217 78.355 38.169 83.518005 49.467 83.518005 C 63.267 83.518005 79.716995 76.62201 79.716995 43.768005 C 79.717 10.914 63.266 4.018 49.467 4.018 z " fill-opacity="0.5" stroke-opacity="0.5"/>
    <g>
        <polygon points="50.494,64.068 57.383,56.578 50.494,49.891  "/>
        <polygon points="50.494,39.736 57.261,33.034 50.494,26.728  "/>
        <path d="M 49.467 11.018 C 35.522 11.018 24.217 19.768 24.217 45.767998 C 24.217 72.268 35.522 80.518 49.467 80.518 C 63.41 80.518 74.716995 72.768 74.716995 45.767998 C 74.717 19.019 63.411 11.018 49.467 11.018 z M 62.611 54.687 C 63.583 55.628 63.629 57.173 62.712 58.170002 L 49.837 72.17 C 49.355003 72.695 48.683002 72.979996 47.994003 72.979996 C 47.689003 72.979996 47.384003 72.923 47.089005 72.809 C 46.129005 72.435 45.495003 71.507996 45.495003 70.479996 L 45.495003 51.724 L 36.881004 60.253998 C 35.900005 61.226997 34.318005 61.221996 33.346004 60.237 C 32.372005 59.256 32.382004 57.673 33.364006 56.702 L 45.319008 44.862 L 33.38101 33.272 C 32.390007 32.309 32.36401 30.726 33.326008 29.737 C 34.28801 28.747 35.87301 28.720999 36.861008 29.684 L 45.495007 38.066 L 45.495007 20.978 C 45.495007 19.983 46.087006 19.082 46.998005 18.685001 C 47.910004 18.289001 48.975006 18.472002 49.699005 19.148 L 62.574005 31.148 C 63.072006 31.613 63.359005 32.258 63.370007 32.939 C 63.382008 33.621 63.112007 34.276 62.63101 34.752 L 52.458 44.824 L 62.611 54.687 z "/>
    </g>
    <linearGradient x1="32.6663" gradientTransform="matrix(1 0 0 1 16.7998 656.5898)" y1="-647.5718" x2="32.6663" gradientUnits="userSpaceOnUse" y2="-578.0713" xlink:type="simple" xlink:actuate="onLoad" id="SVGID_1_" xlink:show="other">
        <stop stop-color="#47e6eb" offset="0"/>
        <stop stop-color="#007cba" offset="1"/>
    </linearGradient>
    <path fill="url(#SVGID_1_)" d="M 50.494 47.891 L 57.384 54.579 L 50.494 62.069 L 50.494 47.891 z M 50.494 37.736 L 57.263 31.034 L 50.494 24.727001 L 50.494 37.736 z M 74.717 43.769 C 74.717 70.769 63.410004 78.519 49.467003 78.519 C 35.522003 78.519 24.217003 70.269 24.217003 43.768997 C 24.217003 17.768997 35.522003 9.018997 49.467003 9.018997 C 63.411 9.018 74.717 17.019 74.717 43.769 z M 52.457 42.828 L 62.63 32.756 C 63.111 32.277 63.381 31.622 63.369 30.943 C 63.357998 30.264 63.071 29.617 62.572998 29.152 L 49.697998 17.152 C 48.970997 16.476 47.908997 16.295 46.996998 16.689001 C 46.086 17.085001 45.494 17.987001 45.494 18.982 L 45.494 36.07 L 36.86 27.688 C 35.871002 26.725 34.287003 26.75 33.325 27.741 C 32.363 28.73 32.387 30.313 33.38 31.276 L 45.318 42.865997 L 33.363 54.705997 C 32.384 55.677998 32.374 57.26 33.344997 58.240997 C 34.317997 59.222996 35.899 59.227997 36.879997 58.257996 L 45.493996 49.727997 L 45.493996 68.48399 C 45.493996 69.51399 46.127995 70.438995 47.087997 70.812996 C 47.382996 70.92799 47.690998 70.98399 47.992996 70.98399 C 48.680996 70.98399 49.350998 70.701996 49.835995 70.173996 L 62.710995 56.173996 C 63.627995 55.177998 63.581993 53.631996 62.609993 52.690994 L 52.457 42.828 z "/>
</svg>
