<?xml version="1.0" encoding="UTF-8"?>
<svg xmlns="http://www.w3.org/2000/svg" xmlns:xlink="http://www.w3.org/1999/xlink" contentScriptType="text/ecmascript" zoomAndPan="magnify" baseProfile="tiny" contentStyleType="text/css" version="1.1" width="87.002px" preserveAspectRatio="xMidYMid meet" viewBox="0 0 87.002 87.672" height="87.672px" x="0px" y="0px">
    <g>
        <path d="M 12.689 72.319 C 8.758 72.319 5.564 69.123 5.564 65.194 L 5.564 22.444 C 5.564 18.516 8.758 15.319 12.689 15.319 L 76.814 15.319 C 80.743004 15.319 83.939 18.516 83.939 22.444 L 83.939 65.194 C 83.939 69.123 80.743004 72.319 76.814 72.319 L 12.689 72.319 z " fill-opacity="0.5" stroke-opacity="0.5"/>
        <path d="M 76.814 21.969 L 12.689 21.969 C 11.376 21.969 10.314 23.032 10.314 24.344 L 10.314 67.094 C 10.314 68.406 11.376 69.469 12.689 69.469 L 76.814 69.469 C 78.126 69.469 79.189 68.406 79.189 67.094 L 79.189 24.344002 C 79.189 23.033 78.126 21.969 76.814 21.969 z M 61.299 47.938 L 35.649002 60.763 C 35.313004 60.93 34.95 61.013 34.587 61.013 C 34.153004 61.013 33.719 60.895 33.338 60.659 C 32.64 60.226 32.212 59.462 32.212 58.638 L 32.212 32.988 C 32.212 32.166 32.636 31.401999 33.338 30.967 C 34.038002 30.535 34.913002 30.497 35.651 30.865 L 61.301003 43.69 C 62.106003 44.092 62.614002 44.913998 62.614002 45.813 C 62.614002 46.712 62.104 47.536 61.299 47.938 z "/>
        <linearGradient x1="27.9517" gradientTransform="matrix(1 0 0 1 16.7998 656.5898)" y1="-636.5205" x2="27.9517" gradientUnits="userSpaceOnUse" y2="-589.0205" xlink:type="simple" xlink:actuate="onLoad" id="SVGID_1_" xlink:show="other">
            <stop stop-color="#ff7bac" offset="0"/>
            <stop stop-color="#b33464" offset="1"/>
        </linearGradient>
        <path fill="url(#SVGID_1_)" d="M 76.814 20.069 L 12.689 20.069 C 11.376 20.069 10.314 21.132 10.314 22.444 L 10.314 65.194 C 10.314 66.506 11.376 67.569 12.689 67.569 L 76.814 67.569 C 78.126 67.569 79.189 66.506 79.189 65.194 L 79.189 22.444 C 79.189 21.132 78.126 20.069 76.814 20.069 z M 61.299 46.038 L 35.649002 58.863 C 35.313004 59.03 34.95 59.114 34.587 59.114 C 34.153004 59.114 33.719 58.995 33.338 58.76 C 32.64 58.326 32.212 57.561996 32.212 56.739 L 32.212 31.088999 C 32.212 30.266998 32.636 29.502998 33.338 29.067999 C 34.038002 28.636 34.913002 28.598 35.651 28.966 L 61.301003 41.791 C 62.106003 42.193 62.614002 43.015 62.614002 43.914 C 62.613 44.813 62.104 45.636 61.299 46.038 z "/>
    </g>
</svg>
