<?xml version="1.0" encoding="UTF-8"?>
<svg xmlns="http://www.w3.org/2000/svg" xmlns:xlink="http://www.w3.org/1999/xlink" contentScriptType="text/ecmascript" zoomAndPan="magnify" baseProfile="tiny" contentStyleType="text/css" version="1.1" width="102px" preserveAspectRatio="xMidYMid meet" viewBox="1 0 102 103" height="103px" x="0px" y="0px">
    <g>
        <path d="M 76.279 11.0 C 69.3 11.0 63.624 16.961 63.624 24.288 C 63.624 26.865 64.337 29.264 65.551 31.304 C 63.569004 31.895 61.901 33.276 60.865 35.102 C 59.011 30.673 54.800003 27.568 49.905003 27.568 C 44.012 27.568 39.111004 32.068 38.127003 37.964 C 36.814003 36.901 35.169003 36.264 33.384003 36.264 L 33.168003 36.264 C 34.439003 34.191 35.189003 31.733 35.189003 29.09 C 35.189003 21.763 29.508003 15.804 22.534004 15.804 C 15.555004 15.804 9.878004 21.764 9.878004 29.09 C 9.878004 31.826 10.671004 34.37 12.026004 36.487 C 8.577 37.339 6.0 40.588 6.0 44.462 L 6.0 66.565 C 6.0 70.149 8.203 73.206 11.26 74.315 L 11.26 88.364 C 11.26 92.915 14.786 96.617 19.12 96.617 L 28.073002 96.617 C 32.407 96.617 35.933002 92.91499 35.933002 88.364 L 35.933002 74.314 C 36.621002 74.066 37.263004 73.701004 37.851 73.269005 C 38.432003 73.72401 39.08 74.087006 39.778 74.34701 L 39.778 88.892006 C 39.778 93.15001 43.077 96.615005 47.132 96.615005 L 54.815 96.615005 C 58.871 96.615005 62.169 93.15001 62.169 88.892006 L 62.169 74.348 C 63.27 73.946 64.232 73.264 65.018 72.395 L 65.018 88.365 C 65.018 92.916 68.54 96.618 72.874 96.618 L 81.827 96.618 C 86.161 96.618 89.685005 92.91599 89.685005 88.365 L 89.685005 72.344 C 92.74801 71.178 94.94501 68.087006 94.94501 64.471 L 94.94501 39.352 C 94.94301 34.814003 91.48401 31.115002 87.18901 30.992 C 88.29301 29.021 88.93701 26.735 88.93701 24.288 C 88.936 16.961 83.256 11.0 76.279 11.0 " fill-opacity="0.5"/>
    </g>
    <path d="M 22.531 39.229 C 26.759 39.229 30.186 35.631 30.186 31.19 C 30.186 26.751 26.755001 23.154 22.531 23.154 C 18.307 23.154 14.875 26.751999 14.875 31.189999 C 14.875 35.631 18.303 39.229 22.531 39.229 "/>
    <path d="M 33.384 43.614 L 28.072998 43.614 L 19.12 43.614 L 13.810001 43.614 C 12.264002 43.614 11.000002 44.94 11.000002 46.561996 L 11.000002 68.663994 C 11.000002 70.286995 12.268002 71.61499 13.813002 71.61499 L 16.260002 71.61499 L 16.260002 90.46099 C 16.260002 92.11299 17.547003 93.46499 19.120003 93.46499 L 28.073002 93.46499 C 29.646002 93.46499 30.933002 92.11299 30.933002 90.46099 L 30.933002 71.615 L 33.38 71.615 C 34.929 71.615 36.193 70.286995 36.193 68.664 L 36.193 46.562 C 36.193 44.94 34.929 43.614 33.384 43.614 "/>
    <path d="M 76.279 34.427 C 80.507996 34.427 83.933 30.828 83.933 26.388998 C 83.933 21.949997 80.503 18.349998 76.279 18.349998 C 72.05 18.349998 68.623 21.947998 68.623 26.387999 C 68.623 30.828 72.051 34.427 76.279 34.427 "/>
    <path d="M 86.969 38.33 L 67.723 38.33 C 66.084 38.33 64.745 39.735 64.745 41.452003 L 64.745 66.57201 C 64.745 68.29001 66.084 69.69501 67.723 69.69501 L 70.006 69.69501 L 70.006 90.462006 C 70.006 92.114006 71.293 93.466 72.865 93.466 L 81.818 93.466 C 83.39 93.466 84.677 92.114006 84.677 90.462006 L 84.677 69.691 L 86.959 69.691 C 88.599 69.691 89.937 68.287 89.937 66.57 L 89.937 41.452 C 89.941 39.735 88.604 38.33 86.969 38.33 "/>
    <path d="M 49.905 49.554 C 53.753998 49.554 56.874 46.280003 56.874 42.236 C 56.874 38.194 53.754 34.919 49.905 34.919 C 46.056 34.919 42.934998 38.195 42.934998 42.236 C 42.935 46.28 46.056 49.554 49.905 49.554 "/>
    <path d="M 59.813 52.738 L 42.129 52.738 C 40.945 52.738 39.979 53.757 39.979 54.997997 L 39.979 69.35 C 39.979 70.596 40.949 71.614 42.129 71.614 L 44.778 71.614 L 44.778 90.993996 C 44.778 92.35 45.836998 93.466995 47.132 93.466995 L 54.815 93.466995 C 56.107998 93.466995 57.169 92.356995 57.169 90.993996 L 57.169 71.615 L 59.816998 71.615 C 61.003 71.615 61.965996 70.593994 61.965996 69.353 L 61.965996 54.999 C 61.967 53.757 60.998 52.738 59.813 52.738 "/>
    <g>
        <g>
            <linearGradient x1="431.5879" gradientTransform="matrix(1 0 0 -1 -381.1191 -1419.9023)" y1="-1436.1523" x2="431.5879" gradientUnits="userSpaceOnUse" y2="-1511.2695" xlink:type="simple" xlink:actuate="onLoad" id="SVGID_1_" xlink:show="other">
                <stop stop-color="#f53f60" offset="0"/>
                <stop stop-color="#ad132f" offset="1"/>
            </linearGradient>
            <path fill="url(#SVGID_1_)" d="M 22.531 37.129 C 26.759 37.129 30.186 33.531002 30.186 29.091002 C 30.186 24.652 26.755001 21.054 22.531 21.054 C 18.307 21.054 14.875 24.652 14.875 29.091 C 14.875 33.532 18.303 37.129 22.531 37.129 z M 33.384 41.514 L 13.81 41.514 C 12.264 41.514 11.0 42.84 11.0 44.461998 L 11.0 66.565 C 11.0 68.186005 12.268 69.516 13.813 69.516 L 16.26 69.516 L 16.26 88.364 C 16.26 90.012 17.547 91.367 19.12 91.367 L 28.073002 91.367 C 29.646002 91.367 30.933002 90.013 30.933002 88.364 L 30.933002 69.516 L 33.38 69.516 C 34.929 69.516 36.193 68.187996 36.193 66.565 L 36.193 44.462 C 36.193 42.84 34.929 41.514 33.384 41.514 z M 76.279 32.327 C 80.507996 32.327 83.933 28.728 83.933 24.289 C 83.933 19.849998 80.504 16.25 76.279 16.25 C 72.05 16.25 68.623 19.848 68.623 24.288 C 68.623 28.728 72.051 32.327 76.279 32.327 z M 86.969 36.23 L 67.723 36.23 C 66.084 36.23 64.745 37.635 64.745 39.352 L 64.745 64.473 C 64.745 66.19 66.084 67.594 67.723 67.594 L 70.006 67.594 L 70.006 88.365005 C 70.006 90.01401 71.293 91.368004 72.865 91.368004 L 81.818 91.368004 C 83.39 91.368004 84.677 90.01401 84.677 88.365005 L 84.677 67.592 L 86.959 67.592 C 88.599 67.592 89.937 66.188 89.937 64.471 L 89.937 39.352 C 89.941 37.635 88.604 36.23 86.969 36.23 z M 49.905 47.454 C 53.753998 47.454 56.874 44.18 56.874 40.135998 C 56.874 36.093998 53.754 32.817997 49.905 32.817997 C 46.056 32.817997 42.934998 36.093998 42.934998 40.135998 C 42.935 44.18 46.056 47.454 49.905 47.454 z M 59.813 50.638 L 42.129 50.638 C 40.945 50.638 39.979 51.657 39.979 52.898 L 39.979 67.249 C 39.979 68.495 40.949 69.512 42.129 69.512 L 44.778 69.512 L 44.778 88.893005 C 44.778 90.25101 45.836998 91.367004 47.132 91.367004 L 54.815 91.367004 C 56.107998 91.367004 57.169 90.255005 57.169 88.893005 L 57.169 69.516 L 59.816998 69.516 C 61.003 69.516 61.965996 68.494995 61.965996 67.254 L 61.965996 52.898 C 61.967 51.657 60.998 50.638 59.813 50.638 z "/>
        </g>
    </g>
</svg>
