<?xml version="1.0" encoding="UTF-8"?>
<svg xmlns="http://www.w3.org/2000/svg" xmlns:xlink="http://www.w3.org/1999/xlink" contentScriptType="text/ecmascript" zoomAndPan="magnify" baseProfile="tiny" contentStyleType="text/css" version="1.1" width="87.002px" preserveAspectRatio="xMidYMid meet" viewBox="0 0 87.002 87.672" height="87.672px" x="0px" y="0px">
    <g>
        <path d="M 83.091 27.796 L 82.961006 27.714 L 47.652 8.588 C 46.362 7.824001 44.896 7.42 43.393 7.42 C 41.893 7.42 40.427 7.825 39.137 8.588 L 3.828 27.715 L 3.699 27.797 C -0.196 30.23 -1.384 35.38 1.05 39.274 C 2.5819998 41.726997 5.224 43.19 8.116 43.19 C 9.611 43.19 11.075001 42.788 12.362 42.025997 L 14.0 41.147 C 13.999 41.173 13.994 41.203 13.994 41.23 L 13.994 74.55 C 13.994 78.605 17.291 81.901 21.344 81.901 L 65.443 81.901 C 69.497 81.901 72.794 78.605 72.794 74.55 L 72.794 41.23 C 72.794 41.203 72.79 41.173 72.788 41.146 L 74.426 42.026 C 75.711006 42.788 77.175 43.19 78.672005 43.19 C 81.564 43.19 84.205 41.727 85.73801 39.276 C 88.171 35.381 86.984 30.232 83.091 27.796 z " fill-opacity="0.5" stroke-opacity="0.5"/>
        <g>
            <path d="M 66.705 41.09 L 44.655003 29.82 C 43.88 29.353 42.909004 29.353 42.134003 29.82 L 20.084003 41.09 C 19.346004 41.532 18.894005 42.33 18.894005 43.191 L 18.894005 76.511 C 18.894005 77.865 19.991005 78.961 21.344004 78.961 L 30.654003 78.961 C 32.008003 78.961 33.104004 77.864 33.104004 76.511 L 33.104004 59.361 L 45.844 59.361 L 45.844 76.51 C 45.844 77.864 46.941 78.96 48.294003 78.96 L 65.443 78.96 C 66.798004 78.96 67.893 77.863 67.893 76.51 L 67.893 43.19 C 67.896 42.331 67.443 41.533 66.705 41.09 z "/>
            <path d="M 80.492 33.914 L 45.212 14.804001 C 44.098 14.107 42.69 14.107 41.575996 14.804001 L 6.2959976 33.914 C 4.6899977 34.916 4.2019978 37.033 5.2059975 38.639 C 6.209997 40.246 8.326998 40.734 9.932998 39.729 L 43.396 21.756 L 76.858 39.729 C 77.422005 40.083 78.052 40.25 78.674 40.25 C 79.817 40.25 80.934006 39.678 81.58501 38.637 C 82.586 37.032 82.098 34.916 80.492 33.914 z "/>
        </g>
        <linearGradient x1="34.9941" gradientTransform="matrix(1 0 0 -1 8.3999 63.832)" y1="51.5107" x2="34.9941" gradientUnits="userSpaceOnUse" y2="-13.1665" xlink:type="simple" xlink:actuate="onLoad" id="SVGID_1_" xlink:show="other">
            <stop stop-color="#48f0d6" offset="0"/>
            <stop stop-color="#007c80" offset="1"/>
        </linearGradient>
        <path fill="url(#SVGID_1_)" d="M 67.896 41.229 L 67.896 74.549 C 67.896 75.90299 66.799 76.99899 65.44601 76.99899 L 48.296 76.99899 C 46.941 76.99899 45.846 75.90199 45.846 74.549 L 45.846 57.399 L 33.105 57.399 L 33.105 74.548 C 33.105 75.90199 32.008 76.99799 30.655 76.99799 L 21.344995 76.99799 C 19.990995 76.99799 18.894997 75.90099 18.894997 74.548 L 18.894997 41.227997 C 18.894997 40.368996 19.346996 39.572 20.083996 39.126995 L 42.133995 27.856997 C 42.907993 27.389996 43.87899 27.389996 44.654995 27.856997 L 66.704994 39.126995 C 67.443 39.573 67.896 40.371 67.896 41.229 z M 81.583 36.679 C 80.933 37.719 79.814 38.291 78.672 38.291 C 78.05 38.291 77.422 38.123 76.856 37.77 L 43.394 19.795 L 9.932 37.77 C 8.325 38.774 6.209 38.286 5.205 36.679 C 4.2019997 35.073 4.69 32.956 6.295 31.955002 L 41.574997 12.845001 C 42.688995 12.147001 44.097996 12.147001 45.212 12.845001 L 80.492 31.955002 C 82.098 32.956 82.586 35.072 81.583 36.679 z "/>
    </g>
</svg>
