<?xml version="1.0" encoding="UTF-8"?>
<svg xmlns="http://www.w3.org/2000/svg" xmlns:xlink="http://www.w3.org/1999/xlink" contentScriptType="text/ecmascript" zoomAndPan="magnify" baseProfile="tiny" contentStyleType="text/css" version="1.1" width="40px" preserveAspectRatio="xMidYMid meet" viewBox="0 0 40 40" height="40px" x="0px" y="0px">
    <rect width="40" height="40"/>
    <g>
        <path fill="#282828" d="M 1.0 37.75 C 1.0 38.854 1.896 39.75 3.0 39.75 L 37.0 39.75 C 38.104 39.75 39.0 38.854 39.0 37.75 L 39.0 3.75 C 39.0 2.646 38.104 1.75 37.0 1.75 L 3.0 1.75 C 1.896 1.75 1.0 2.646 1.0 3.75 L 1.0 37.75 z "/>
    </g>
    <g>
        <path fill="#505050" d="M 1.0 37.25 C 1.0 38.354 1.896 39.25 3.0 39.25 L 37.0 39.25 C 38.104 39.25 39.0 38.354 39.0 37.25 L 39.0 3.25 C 39.0 2.146 38.104 1.25 37.0 1.25 L 3.0 1.25 C 1.896 1.25 1.0 2.146 1.0 3.25 L 1.0 37.25 z "/>
    </g>
    <g>
        <path fill="#787878" d="M 1.0 36.75 C 1.0 37.854 1.896 38.75 3.0 38.75 L 37.0 38.75 C 38.104 38.75 39.0 37.854 39.0 36.75 L 39.0 2.75 C 39.0 1.646 38.104 0.75 37.0 0.75 L 3.0 0.75 C 1.896 0.75 1.0 1.646 1.0 2.75 L 1.0 36.75 z "/>
    </g>
    <g>
        <path fill="#a0a0a0" d="M 1.0 36.25 C 1.0 37.354 1.896 38.25 3.0 38.25 L 37.0 38.25 C 38.104 38.25 39.0 37.354 39.0 36.25 L 39.0 2.25 C 39.0 1.146 38.104 0.25 37.0 0.25 L 3.0 0.25 C 1.896 0.25 1.0 1.146 1.0 2.25 L 1.0 36.25 z "/>
    </g>
</svg>
