<?xml version="1.0" encoding="UTF-8"?>
<svg xmlns="http://www.w3.org/2000/svg" xmlns:xlink="http://www.w3.org/1999/xlink" contentScriptType="text/ecmascript" zoomAndPan="magnify" baseProfile="tiny" contentStyleType="text/css" version="1.1" width="98.855px" preserveAspectRatio="xMidYMid meet" viewBox="0 0 98.855 88" height="88px" x="0px" y="0px">
    <path d="M 25.106 77.859 C 19.592001 77.859 15.106001 73.373 15.106001 67.859 L 15.106001 19.359001 C 15.106001 13.846001 19.592001 9.359001 25.106 9.359001 L 73.606 9.359001 C 79.12 9.359001 83.606 13.846001 83.606 19.359001 L 83.606 67.859 C 83.606 73.373 79.12 77.859 73.606 77.859 L 25.106 77.859 z " fill-opacity="0.5" stroke-opacity="0.5"/>
    <path d="M 73.606 16.359 L 25.106003 16.359 C 22.344002 16.359 20.106003 18.598 20.106003 21.359 L 20.106003 69.859 C 20.106003 72.621 22.344002 74.859 25.106003 74.859 L 73.606 74.859 C 76.368004 74.859 78.606 72.621 78.606 69.859 L 78.606 21.359001 C 78.606 18.599 76.367 16.359 73.606 16.359 z M 69.636 49.975 L 69.327 50.132 L 67.867004 49.243 L 67.867004 48.077 L 50.189 48.077 C 50.364998 48.26 50.545998 48.44 50.732 48.626 C 51.023 48.917 51.322 49.218998 51.619 49.53 C 51.891 49.815 52.178 50.167 52.473 50.531 C 53.061 51.257 53.727 52.079998 54.315 52.328 C 54.642998 52.466 55.035 52.527 55.586 52.527 C 55.945 52.527 56.322 52.503002 56.718998 52.477 C 57.193996 52.447002 57.690998 52.414 58.206997 52.414 C 58.253998 52.414 58.297997 52.414 58.341995 52.414 C 58.323994 52.116 58.309994 51.809002 58.347996 51.501003 L 59.339996 50.624004 L 64.754 50.624004 L 65.754 51.624004 L 65.754 57.037003 L 64.754 58.037003 L 59.339996 58.037003 L 58.339996 57.037003 L 58.339996 56.324 C 57.825996 56.370003 57.340996 56.395 56.882996 56.395 C 52.786995 56.395 51.024994 54.519 49.153996 52.533 C 48.827995 52.186 48.489994 51.827 48.129997 51.464 C 47.690998 51.026 47.295998 50.556 46.912 50.098 C 46.098 49.12 45.324997 48.199 44.462997 48.067 C 43.934 47.984 43.294 47.947002 42.51 47.947002 C 41.619 47.947002 40.663998 47.996002 39.656 48.047 C 38.600998 48.104 37.510998 48.156002 36.447 48.156002 C 36.0 48.156002 35.59 48.146004 35.197998 48.127003 C 34.113 50.571003 32.427 51.765003 30.062998 51.765003 L 29.856998 51.760002 C 26.39 51.656002 24.564 48.711002 24.605 45.993004 C 24.643 43.427002 26.347 40.664005 30.0 40.664005 L 30.121 40.664005 C 32.55 40.707005 34.371002 42.075005 35.207 44.451004 C 35.52 44.488003 35.818 44.506004 36.100002 44.506004 C 38.319004 44.506004 39.304 43.333004 40.553 41.849003 C 40.823 41.528004 41.096 41.203003 41.386 40.882004 L 41.903 40.311005 C 43.86 38.126003 45.71 36.067005 50.209 36.067005 C 50.802 36.067005 51.439 36.104004 52.114998 36.171005 C 52.135998 36.150005 52.152996 36.126007 52.175 36.105003 C 52.764 35.409004 53.495 34.542004 54.79 34.391003 C 54.978 34.370003 55.161 34.361004 55.336002 34.361004 C 57.776 34.361004 58.891003 36.269005 58.891003 38.043003 C 58.891003 39.902004 57.689003 41.879 55.456 41.879 C 54.911003 41.879 54.341 41.753002 53.757 41.505 C 52.95 41.163002 52.554 40.583 52.2 40.07 C 52.182 40.046 52.165 40.019 52.146 39.993 C 51.969 40.0 51.794 40.003 51.624 40.003 C 51.103 40.003 50.603 39.976997 50.122 39.947 C 49.722 39.924 49.336002 39.900997 48.968002 39.900997 C 48.489002 39.900997 48.123 39.940998 47.818 40.027996 C 47.115 40.229996 46.359 41.167995 45.752 41.919994 C 45.5 42.232994 45.261997 42.527996 45.029 42.778996 C 44.607 43.234997 44.184998 43.642994 43.781 44.037994 C 43.674 44.141994 43.564 44.245995 43.461 44.348995 L 67.889 44.348995 C 67.886 44.257996 67.881 44.170994 67.877 44.097996 C 67.861 43.762997 67.846 43.415997 67.88 43.079994 L 69.284996 42.270996 C 70.309 42.733997 71.228 43.286995 72.118996 43.822998 C 72.951996 44.324997 73.739 44.799 74.601 45.199997 L 74.799995 46.888996 C 73.288 48.085 71.178 49.178 69.636 49.975 z "/>
    <linearGradient x1="32.5559" gradientTransform="matrix(1 0 0 1 16.7998 656.5898)" y1="-642.2305" x2="32.5559" gradientUnits="userSpaceOnUse" y2="-583.7305" xlink:type="simple" xlink:actuate="onLoad" id="SVGID_1_" xlink:show="other">
        <stop stop-color="#47e6eb" offset="0"/>
        <stop stop-color="#007cba" offset="1"/>
    </linearGradient>
    <path fill="url(#SVGID_1_)" d="M 73.606 14.359 L 25.106003 14.359 C 22.344002 14.359 20.106003 16.598 20.106003 19.359001 L 20.106003 67.859 C 20.106003 70.621 22.344002 72.859 25.106003 72.859 L 73.606 72.859 C 76.368004 72.859 78.606 70.621 78.606 67.859 L 78.606 19.359001 C 78.606 16.599 76.367 14.359 73.606 14.359 z M 69.636 47.975 L 69.327 48.132 L 67.867004 47.243 L 67.867004 46.077 L 50.189 46.077 C 50.364998 46.26 50.545998 46.44 50.732 46.626 C 51.023 46.917 51.322 47.218998 51.619 47.53 C 51.891 47.815 52.178 48.167 52.473 48.531 C 53.061 49.257 53.727 50.079998 54.315 50.328 C 54.642998 50.466 55.035 50.527 55.586 50.527 C 55.945 50.527 56.322 50.503002 56.718998 50.477 C 57.193996 50.447002 57.690998 50.414 58.206997 50.414 C 58.253998 50.414 58.297997 50.414 58.341995 50.414 C 58.323994 50.116 58.309994 49.809002 58.347996 49.501003 L 59.339996 48.624004 L 64.754 48.624004 L 65.754 49.624004 L 65.754 55.037003 L 64.754 56.037003 L 59.339996 56.037003 L 58.339996 55.037003 L 58.339996 54.324 C 57.825996 54.370003 57.340996 54.395 56.882996 54.395 C 52.786995 54.395 51.024994 52.519 49.153996 50.533 C 48.827995 50.186 48.489994 49.827 48.129997 49.464 C 47.690998 49.026 47.295998 48.556 46.912 48.098 C 46.098 47.12 45.324997 46.199 44.462997 46.067 C 43.934 45.984 43.294 45.947002 42.51 45.947002 C 41.619 45.947002 40.663998 45.996002 39.656 46.047 C 38.600998 46.104 37.510998 46.156002 36.447 46.156002 C 36.0 46.156002 35.59 46.146004 35.197998 46.127003 C 34.113 48.571003 32.427 49.765003 30.062998 49.765003 L 29.856998 49.760002 C 26.39 49.656002 24.564 46.711002 24.605 43.993004 C 24.643 41.427002 26.347 38.664005 30.0 38.664005 L 30.121 38.664005 C 32.55 38.707005 34.371002 40.075005 35.207 42.451004 C 35.52 42.488003 35.818 42.506004 36.100002 42.506004 C 38.319004 42.506004 39.304 41.333004 40.553 39.849003 C 40.823 39.528004 41.096 39.203003 41.386 38.882004 L 41.903 38.311005 C 43.86 36.126003 45.71 34.067005 50.209 34.067005 C 50.802 34.067005 51.439 34.104004 52.114998 34.171005 C 52.135998 34.150005 52.152996 34.126007 52.175 34.105003 C 52.764 33.409004 53.495 32.542004 54.79 32.391003 C 54.978 32.370003 55.161 32.361004 55.336002 32.361004 C 57.776 32.361004 58.891003 34.269005 58.891003 36.043003 C 58.891003 37.902004 57.689003 39.879 55.456 39.879 C 54.911003 39.879 54.341 39.753002 53.757 39.505 C 52.95 39.163002 52.554 38.583 52.2 38.07 C 52.182 38.046 52.165 38.019 52.146 37.993 C 51.969 38.0 51.794 38.003 51.624 38.003 C 51.103 38.003 50.603 37.976997 50.122 37.947 C 49.722 37.924 49.336002 37.900997 48.968002 37.900997 C 48.489002 37.900997 48.123 37.940998 47.818 38.027996 C 47.115 38.229996 46.359 39.167995 45.752 39.919994 C 45.5 40.232994 45.261997 40.527996 45.029 40.778996 C 44.607 41.234997 44.184998 41.642994 43.781 42.037994 C 43.674 42.141994 43.564 42.245995 43.461 42.348995 L 67.889 42.348995 C 67.886 42.257996 67.881 42.170994 67.877 42.097996 C 67.861 41.762997 67.846 41.415997 67.88 41.079994 L 69.284996 40.270996 C 70.309 40.733997 71.228 41.286995 72.118996 41.822998 C 72.951996 42.324997 73.739 42.799 74.601 43.199997 L 74.799995 44.888996 C 73.288 46.085 71.178 47.178 69.636 47.975 z "/>
</svg>
