<?xml version="1.0" encoding="UTF-8"?>
<svg xmlns="http://www.w3.org/2000/svg" xmlns:xlink="http://www.w3.org/1999/xlink" contentScriptType="text/ecmascript" zoomAndPan="magnify" baseProfile="tiny" contentStyleType="text/css" version="1.1" width="75.854px" preserveAspectRatio="xMidYMid meet" viewBox="0 0 75.854 75.816" height="75.816px" x="0px" y="0px">
    <path d="M 68.499 26.621 C 69.372 25.141 69.87 23.42 69.87 21.581001 C 69.87 16.086002 65.398 11.614001 59.903004 11.614001 C 55.625004 11.614001 51.978004 14.330002 50.566 18.124 L 47.722 18.124 L 49.042 16.791 C 51.565998 14.248 51.549 10.123 49.001 7.5960007 C 47.776 6.3830004 46.151 5.7150006 44.428 5.7150006 C 42.679 5.7150006 41.039 6.3980007 39.809002 7.6350007 L 32.099003 15.410001 L 27.370003 10.682001 C 26.143003 9.454001 24.510002 8.778001 22.773003 8.778001 C 21.036003 8.778001 19.404003 9.454 18.178003 10.681001 C 16.949003 11.910001 16.273003 13.542001 16.273003 15.280001 C 16.273003 16.28 16.498003 17.247002 16.924004 18.122002 L 10.316004 18.122002 C 6.7310038 18.122002 3.813004 21.037003 3.813004 24.624 L 3.813004 62.0 C 3.813004 65.585 6.729004 68.502 10.316004 68.502 L 53.924004 68.502 C 57.508003 68.502 60.424004 65.588 60.424004 62.0 L 60.424004 55.586998 L 67.907005 55.586998 C 71.268005 55.586998 74.006004 52.850998 74.006004 49.488 L 74.006004 32.693 C 74.008 29.528 71.586 26.92 68.499 26.621 z " fill-opacity="0.5" stroke-opacity="0.5"/>
    <path fill="none" d="M 41.579 44.0 L 27.14 51.22 C 26.952 51.313 26.746 51.361 26.543 51.361 C 26.300999 51.361 26.053999 51.295 25.838999 51.161 C 25.443998 50.92 25.207998 50.486 25.207998 50.023 L 25.207998 35.584 C 25.207998 35.119 25.446 34.69 25.838999 34.442 C 26.234999 34.201 26.725998 34.178 27.140999 34.384003 L 41.579998 41.604004 C 42.033997 41.831005 42.317997 42.292004 42.317997 42.800003 C 42.319 43.308 42.033 43.773 41.579 44.0 z "/>
    <path d="M 42.319 44.346 C 42.319 44.852 42.034 45.316 41.58 45.541 L 27.14 52.762 C 26.952 52.855 26.746 52.903 26.543 52.903 C 26.300999 52.903 26.053999 52.836998 25.838999 52.704 C 25.443998 52.462997 25.207998 52.029 25.207998 51.565998 L 25.207998 37.127 C 25.207998 36.662 25.446 36.232998 25.838999 35.986 C 26.234999 35.744 26.725998 35.721 27.140999 35.927002 L 41.579998 43.147003 C 42.033 43.377 42.319 43.838 42.319 44.346 z M 51.06 57.007 L 51.06 58.588 C 51.06 59.121002 50.627003 59.548 50.101 59.548 L 14.115 59.548 C 13.584 59.548 13.156 59.121002 13.156 58.588 L 13.156 29.443 C 13.156 28.912 13.585 28.484001 14.115 28.484001 L 50.100998 28.484001 C 50.14 28.484001 50.172997 28.500002 50.213997 28.505001 C 50.572 28.374 50.945995 28.273 51.333996 28.212002 C 50.513996 26.829002 50.020996 25.232002 49.950996 23.524002 L 38.464 23.524002 L 46.305 15.621002 C 47.333 14.583002 47.325 12.909002 46.289 11.880002 C 45.251003 10.853003 43.576 10.864002 42.549 11.897002 L 32.113 22.423 L 24.641998 14.956 C 23.608997 13.923 21.935999 13.923 20.904999 14.956 C 19.873 15.987 19.873 17.661 20.904999 18.693 L 25.737 23.526001 L 10.316 23.526001 C 8.855 23.526001 7.671 24.710001 7.671 26.170002 L 7.671 63.547 C 7.671 65.007 8.855 66.191 10.316 66.191 L 53.924004 66.191 C 55.383003 66.191 56.566 65.007 56.566 63.547 L 56.566 57.134003 L 52.29 57.134003 C 51.869 57.131 51.456 57.089 51.06 57.007 z "/>
    <path d="M 53.795 23.124 C 53.795 19.752 56.53 17.016 59.903 17.016 C 63.28 17.016 66.011 19.752 66.011 23.124 C 66.011 26.499 63.280003 29.232 59.903 29.232 C 56.531 29.232 53.795 26.498 53.795 23.124 z M 65.951 53.273 L 67.907 53.273 C 69.143 53.273 70.148994 52.263 70.148994 51.031998 L 70.148994 34.237 C 70.148994 33.0 69.13899 31.994 67.907 31.994 L 63.670998 31.994 L 56.525997 31.994 L 52.29 31.994 C 51.058002 31.994 50.05 33.003 50.05 34.237 L 50.05 51.031998 C 50.05 52.266 51.059998 53.273 52.29 53.273 L 54.246002 53.273 L 65.951 53.273 z "/>
    <linearGradient x1="6.9187" gradientTransform="matrix(1 0 0 -1 25.1997 708.5659)" y1="698.9929" x2="6.9187" gradientUnits="userSpaceOnUse" y2="643.9187" xlink:type="simple" xlink:actuate="onLoad" id="SVGID_1_" xlink:show="other">
        <stop stop-color="#ffcf75" offset="0"/>
        <stop stop-color="#ba6b16" offset="1"/>
    </linearGradient>
    <path fill="url(#SVGID_1_)" d="M 42.319 42.802 C 42.319 43.308 42.034 43.773 41.58 43.998997 L 27.141003 51.218998 C 26.953003 51.311996 26.747004 51.359997 26.544003 51.359997 C 26.302002 51.359997 26.055002 51.293995 25.840002 51.159996 C 25.445002 50.918995 25.209002 50.484997 25.209002 50.021996 L 25.209002 35.584 C 25.209002 35.119 25.447002 34.69 25.840002 34.442 C 26.236002 34.201 26.727001 34.178 27.142002 34.384003 L 41.581 41.604004 C 42.033 41.834 42.319 42.295 42.319 42.802 z M 51.06 55.463 L 51.06 57.045002 C 51.06 57.578003 50.627003 58.005 50.101 58.005 L 14.115 58.005 C 13.584 58.005 13.156 57.578003 13.156 57.045002 L 13.156 27.899 C 13.156 27.367 13.585 26.94 14.115 26.94 L 50.100998 26.94 C 50.14 26.94 50.172997 26.956001 50.213997 26.960001 C 50.572 26.829 50.945995 26.730001 51.333996 26.667002 C 50.513996 25.285002 50.020996 23.687002 49.950996 21.981003 L 38.464 21.981003 L 46.305 14.078003 C 47.333 13.039003 47.325 11.366003 46.289 10.337003 C 45.251003 9.310003 43.576 9.321003 42.549 10.354003 L 32.113 20.879 L 24.641998 13.413 C 23.608997 12.38 21.935999 12.38 20.904999 13.413 C 19.873 14.444 19.873 16.118 20.904999 17.149 L 25.737 21.982 L 10.316 21.982 C 8.855 21.982 7.671 23.165 7.671 24.626 L 7.671 62.002 C 7.671 63.464 8.855 64.646996 10.316 64.646996 L 53.924004 64.646996 C 55.383003 64.646996 56.566 63.463997 56.566 62.001995 L 56.566 55.59 L 52.29 55.59 C 51.869 55.588 51.456 55.545 51.06 55.463 z "/>
    <linearGradient x1="34.9001" gradientTransform="matrix(1 0 0 -1 25.1997 708.5659)" y1="693.0945" x2="34.9001" gradientUnits="userSpaceOnUse" y2="656.8357" xlink:type="simple" xlink:actuate="onLoad" id="SVGID_2_" xlink:show="other">
        <stop stop-color="#f53f60" offset="0"/>
        <stop stop-color="#ad132f" offset="1"/>
    </linearGradient>
    <path fill="url(#SVGID_2_)" d="M 53.795 21.581 C 53.795 18.208 56.53 15.471999 59.903 15.471999 C 63.28 15.471999 66.011 18.208 66.011 21.581 C 66.011 24.956 63.280003 27.689 59.903 27.689 C 56.531 27.689 53.795 24.955 53.795 21.581 z M 65.951 51.73 L 67.907 51.73 C 69.143 51.73 70.148994 50.72 70.148994 49.489 L 70.148994 32.693 C 70.148994 31.456001 69.13899 30.45 67.907 30.45 L 63.670998 30.45 L 56.525997 30.45 L 52.29 30.45 C 51.058002 30.45 50.05 31.458 50.05 32.693 L 50.05 49.489 C 50.05 50.722 51.059998 51.73 52.29 51.73 L 54.246002 51.73 L 65.951 51.73 z "/>
</svg>
