<?xml version="1.0" encoding="UTF-8"?>
<svg xmlns="http://www.w3.org/2000/svg" xmlns:xlink="http://www.w3.org/1999/xlink" contentScriptType="text/ecmascript" zoomAndPan="magnify" baseProfile="tiny" contentStyleType="text/css" version="1.1" width="87.002px" preserveAspectRatio="xMidYMid meet" viewBox="0 0 87.002 87.672" height="87.672px" x="0px" y="0px">
    <g>
        <path d="M 78.953 28.892 C 79.971 27.166 80.552 25.157 80.552 23.014 C 80.552 16.605 75.336 11.39 68.925 11.39 C 62.516003 11.39 57.301003 16.605 57.301003 23.014 C 57.301003 25.117 57.865 27.087 58.844 28.788 L 46.891 28.788 L 39.709 21.607 C 38.374 20.27 36.597 19.531 34.707 19.531 L 11.564 19.531 C 7.665 19.531 4.493 22.702 4.493 26.601 L 4.493 68.256 C 4.493 72.156 7.665 75.326 11.564 75.326 L 67.103004 75.326 C 71.00101 75.326 74.171005 72.156 74.171005 68.256 L 74.171005 62.677 L 78.26 62.677 C 82.184006 62.677 85.375 59.487 85.375 55.563 L 85.375 35.973 C 85.378 32.282 82.554 29.241 78.953 28.892 z " fill-opacity="0.5" stroke-opacity="0.5"/>
        <path d="M 52.933 57.363 L 52.933 37.772 C 52.933 36.822 53.125 35.916 53.465 35.087997 L 45.027 35.087997 L 36.523003 26.585999 C 36.042004 26.103998 35.387 25.831 34.706 25.831 L 11.564 25.831 C 10.144 25.831 8.993 26.981998 8.993 28.401 L 8.993 70.056 C 8.993 71.476 10.143 72.626 11.564 72.626 L 67.103004 72.626 C 68.521 72.626 69.671005 71.475 69.671005 70.056 L 69.671005 64.477 L 60.044006 64.477 C 56.124 64.477 52.933 61.286 52.933 57.363 z "/>
        <path d="M 61.802 24.813 C 61.802 20.879 64.992 17.688 68.925995 17.688 C 72.864 17.688 76.05299 20.878 76.05299 24.813 C 76.05299 28.749 72.86399 31.938 68.925995 31.938 C 64.992 31.938 61.802 28.749 61.802 24.813 z M 75.98 59.977 L 78.261 59.977 C 79.702 59.977 80.876 58.802002 80.876 57.364002 L 80.876 37.772 C 80.876 36.333 79.7 35.158 78.261 35.158 L 73.32 35.158 L 64.987 35.158 L 60.045998 35.158 C 58.607998 35.158 57.434 36.334 57.434 37.772 L 57.434 57.363 C 57.434 58.802998 58.611 59.975998 60.045998 59.975998 L 62.326996 59.975998 L 75.98 59.975998 z "/>
        <linearGradient x1="22.5327" gradientTransform="matrix(1 0 0 1 16.7998 656.5898)" y1="-632.5586" x2="22.5327" gradientUnits="userSpaceOnUse" y2="-585.7637" xlink:type="simple" xlink:actuate="onLoad" id="SVGID_1_" xlink:show="other">
            <stop stop-color="#ffcf75" offset="0"/>
            <stop stop-color="#ba6b16" offset="1"/>
        </linearGradient>
        <path fill="url(#SVGID_1_)" d="M 52.933 55.563 L 52.933 35.973 C 52.933 35.023 53.125 34.117 53.465 33.288 L 45.027 33.288 L 36.523003 24.786999 C 36.042004 24.304998 35.387 24.032 34.706 24.032 L 11.564 24.032 C 10.144 24.032 8.993 25.182999 8.993 26.602 L 8.993 68.256996 C 8.993 69.676994 10.143 70.826996 11.564 70.826996 L 67.103004 70.826996 C 68.521 70.826996 69.671005 69.675995 69.671005 68.256996 L 69.671005 62.677998 L 60.044006 62.677998 C 56.124 62.677 52.933 59.486 52.933 55.563 z "/>
        <linearGradient x1="52.3555" gradientTransform="matrix(1 0 0 1 16.7998 656.5898)" y1="-640.7007" x2="52.3555" gradientUnits="userSpaceOnUse" y2="-598.4131" xlink:type="simple" xlink:actuate="onLoad" id="SVGID_2_" xlink:show="other">
            <stop stop-color="#f53f60" offset="0"/>
            <stop stop-color="#ad132f" offset="1"/>
        </linearGradient>
        <path fill="url(#SVGID_2_)" d="M 61.802 23.013 C 61.802 19.079 64.992 15.889 68.925995 15.889 C 72.864 15.889 76.05299 19.079 76.05299 23.013 C 76.05299 26.949001 72.86399 30.138 68.925995 30.138 C 64.992 30.138 61.802 26.949 61.802 23.013 z M 75.98 58.177 L 78.261 58.177 C 79.702 58.177 80.876 57.002 80.876 55.563 L 80.876 35.973 C 80.876 34.533 79.7 33.359 78.261 33.359 L 73.32 33.359 L 64.987 33.359 L 60.045998 33.359 C 58.607998 33.359 57.434 34.535 57.434 35.973 L 57.434 55.563 C 57.434 57.003 58.611 58.177 60.045998 58.177 L 62.326996 58.177 L 75.98 58.177 z "/>
    </g>
</svg>
