<?xml version="1.0" encoding="UTF-8"?>
<svg xmlns="http://www.w3.org/2000/svg" xmlns:xlink="http://www.w3.org/1999/xlink" contentScriptType="text/ecmascript" zoomAndPan="magnify" baseProfile="tiny" contentStyleType="text/css" version="1.1" width="86.113px" preserveAspectRatio="xMidYMid meet" viewBox="0 0 86.113 86" height="86px" x="0px" y="0px">
    <g>
        <g>
            <g stroke-opacity="0.5" fill-opacity="0.5">
                <path fill="#000000" d="M 41.053 8.07 L 24.753002 8.07 C 21.287004 8.07 18.471004 10.889 18.471004 14.353 L 18.471004 17.727 C 16.776003 18.905 15.665003 20.863998 15.665003 23.08 L 15.665003 29.645 C 13.441003 30.767 11.911003 33.074 11.911003 35.732 L 11.911003 73.664 C 11.911003 77.42 14.969004 80.477005 18.726004 80.477005 L 69.296005 80.477005 C 73.05301 80.477005 76.11001 77.41901 76.11001 73.664 L 76.11001 44.161 C 76.11001 41.708 74.80701 39.552 72.85501 38.354 L 72.85501 30.439 C 72.85501 28.27 71.79001 26.345 70.15301 25.161 L 70.15301 20.872 C 70.15301 17.407 67.337006 14.59 63.87101 14.59 L 50.175 14.59 L 45.495 9.91 C 44.327 8.741 42.707 8.07 41.053 8.07 "/>
            </g>
            <path d="M 40.584 18.333 L 22.944 18.333 L 22.944 15.512 C 22.944 14.512 23.755 13.701 24.755 13.701 L 41.055 13.701 C 41.534 13.701 41.995 13.892 42.334 14.231 L 48.323997 20.222 L 63.873997 20.222 C 64.875 20.222 65.687 21.031 65.687 22.031 L 65.687 25.694 L 50.389 25.694 L 44.754 20.06 C 43.657 18.962 42.136 18.333 40.584 18.333 z M 44.184 32.506 L 50.795 39.117 L 68.38699 39.117 L 68.38699 31.598 C 68.38699 30.469 67.47199 29.556 66.34 29.556 L 48.789 29.556 L 42.028 22.792 C 41.646 22.41 41.126 22.194 40.584 22.194 L 22.184 22.194 C 21.054 22.194 20.139 23.109 20.139 24.238 L 20.139 30.688 L 39.797 30.688 C 41.456 30.689 43.012 31.334 44.184 32.506 z M 16.384 36.891 C 16.384 35.599 17.433 34.55 18.728 34.55 L 39.799 34.55 C 40.42 34.55 41.017 34.797 41.455 35.236 L 49.196 42.981 L 69.3 42.981 C 70.593 42.981 71.643005 44.029 71.643005 45.322 L 71.643005 74.823 C 71.643005 76.115 70.593 77.164 69.3 77.164 L 18.727 77.164 C 17.433 77.164 16.383 76.115 16.383 74.823 L 16.383 36.891 z "/>
            <linearGradient x1="-66.7268" gradientTransform="matrix(1 0 0 1 110.7397 -752.7998)" y1="765.3428" x2="-66.7268" gradientUnits="userSpaceOnUse" y2="828.8047" xlink:type="simple" xlink:actuate="onLoad" id="SVGID_1_" xlink:show="other">
                <stop stop-color="#ffcf75" offset="0"/>
                <stop stop-color="#ba6b16" offset="1"/>
            </linearGradient>
            <path fill="url(#SVGID_1_)" d="M 40.584 17.175 L 22.944 17.175 L 22.944 14.353999 C 22.944 13.353999 23.755 12.542999 24.755 12.542999 L 41.055 12.542999 C 41.534 12.542999 41.995 12.733999 42.334 13.072999 L 48.323997 19.063 L 63.873997 19.063 C 64.875 19.063 65.687 19.873 65.687 20.873 L 65.687 24.536 L 50.389 24.536 L 44.754 18.901 C 43.657 17.805 42.136 17.175 40.584 17.175 z M 44.184 31.348 L 50.795 37.96 L 68.38699 37.96 L 68.38699 30.440998 C 68.38699 29.311998 67.47199 28.398 66.34 28.398 L 48.789 28.398 L 42.028 21.634998 C 41.646 21.252998 41.126 21.037 40.584 21.037 L 22.184 21.037 C 21.054 21.037 20.139 21.952 20.139 23.081 L 20.139 29.530998 L 39.797 29.530998 C 41.456 29.531 43.012 30.176 44.184 31.348 z M 16.384 35.732 C 16.384 34.44 17.433 33.39 18.728 33.39 L 39.799 33.39 C 40.42 33.39 41.017 33.638 41.455 34.077 L 49.196 41.822 L 69.3 41.822 C 70.593 41.822 71.643005 42.87 71.643005 44.162 L 71.643005 73.664 C 71.643005 74.956 70.593 76.005005 69.3 76.005005 L 18.727 76.005005 C 17.433 76.005005 16.383 74.956 16.383 73.664 L 16.383 35.732 z "/>
        </g>
    </g>
</svg>
