<?xml version="1.0" encoding="UTF-8"?>
<svg xmlns="http://www.w3.org/2000/svg" xmlns:xlink="http://www.w3.org/1999/xlink" contentScriptType="text/ecmascript" width="60" baseProfile="tiny" zoomAndPan="magnify" contentStyleType="text/css" viewBox="-0.97 1.13 60 52" height="52" preserveAspectRatio="xMidYMid meet" version="1.0">
    <linearGradient x1="29.03" y1="45.93" x2="29.03" gradientUnits="userSpaceOnUse" y2="7.53" xlink:type="simple" xlink:actuate="onLoad" id="_5" xlink:show="other">
        <stop stop-color="#282828" offset="0"/>
        <stop stop-color="#282828" offset="0.71"/>
        <stop stop-color="#282828" offset="1"/>
    </linearGradient>
    <path fill="url(#_5)" d="M 7.289 7.131 C 6.044 7.131 5.0299997 8.145 5.0299997 9.39 L 5.0299997 44.871 C 5.0299997 46.116997 6.0439997 47.130997 7.289 47.130997 L 50.77 47.130997 C 52.016 47.130997 53.03 46.116997 53.03 44.871 L 53.03 9.39 C 53.03 8.145 52.016 7.131001 50.77 7.131001 L 7.289 7.131001 z "/>
    <g stroke-opacity="0.9" fill-opacity="0.9">
        <linearGradient x1="29.03" y1="2.59" x2="29.03" gradientUnits="userSpaceOnUse" y2="47.72" xlink:type="simple" xlink:actuate="onLoad" id="_6" xlink:show="other">
            <stop stop-color="#a0a0a0" offset="0"/>
            <stop stop-color="#a0a0a0" offset="0.09"/>
            <stop stop-color="#dcdcdc" offset="0.37"/>
            <stop stop-color="#dcdcdc" offset="0.69"/>
            <stop stop-color="#dcdcdc" offset="1"/>
        </linearGradient>
        <path fill="url(#_6)" d="M 6.03 44.871 L 6.03 9.39 C 6.03 8.696 6.5940003 8.1310005 7.289 8.1310005 L 50.77 8.1310005 C 51.464 8.1310005 52.03 8.695001 52.03 9.39 L 52.03 44.871 C 52.03 45.565 51.465 46.130997 50.77 46.130997 L 7.289 46.130997 C 6.595 46.131 6.03 45.565 6.03 44.871 z "/>
    </g>
    <linearGradient x1="28.84" y1="43.92" x2="28.84" gradientUnits="userSpaceOnUse" y2="11.51" xlink:type="simple" xlink:actuate="onLoad" id="_7" xlink:show="other">
        <stop stop-color="#e6e6e6" offset="0"/>
        <stop stop-color="#a0a0a0" offset="1"/>
    </linearGradient>
    <path fill="url(#_7)" d="M 51.648 8.508 C 51.405 8.2560005 51.119 8.1310005 50.77 8.1310005 L 7.289 8.1310005 C 6.5950003 8.1310005 6.03 8.695001 6.03 9.39 L 6.03 44.871 C 6.03 45.217 6.1730003 45.523 6.4020004 45.744 C 6.405 45.757 7.0300007 45.116 7.0300007 45.116 L 7.0300007 9.131 L 51.029 9.131 L 51.648 8.508 z "/>
    <linearGradient x1="29.22" y1="41.38" x2="29.22" gradientUnits="userSpaceOnUse" y2="1.91" xlink:type="simple" xlink:actuate="onLoad" id="_8" xlink:show="other">
        <stop stop-color="#f5f5f5" offset="0"/>
        <stop stop-color="#282828" offset="1"/>
    </linearGradient>
    <path fill="url(#_8)" d="M 6.412 45.753 C 6.655 46.004997 6.941 46.129997 7.29 46.129997 L 50.771 46.129997 C 51.465 46.129997 52.03 45.566 52.03 44.871 L 52.03 9.39 C 52.03 9.044001 51.886997 8.738 51.657997 8.517 C 51.655 8.504001 51.03 9.145 51.03 9.145 C 51.03 9.145 51.03 44.351 51.03 45.13 C 50.292 45.13 7.030998 45.13 7.030998 45.13 L 6.412 45.753 z "/>
    <polygon fill="#282828" points="24.018,29.72 22.477,29.72 20.06,25.325 20.06,35.844 16.918,35.844 16.918,18.407 18.513,18.407 23.246,26.952 27.982,18.407 29.575,18.407 29.575,35.844 26.419,35.844 26.419,25.419 "/>
    <path fill="#282828" d="M 42.884 35.844 L 39.253 35.844 L 36.303997 28.469002 L 35.625996 28.469002 L 35.625996 35.844 L 32.47 35.844 L 32.47 18.407 L 36.875 18.407 C 40.952 18.407 42.063 20.078 42.063 23.342 C 42.063 25.493 41.351 27.293 39.417 28.032 L 42.884 35.844 z M 35.626 26.875 L 36.747 26.875 C 38.179996 26.875 38.907 25.966 38.907 23.345 C 38.907 20.931 38.279 20.0 36.747 20.0 L 35.626 20.0 L 35.626 26.875 z "/>
</svg>
