<?xml version="1.0" encoding="UTF-8"?>
<svg xmlns="http://www.w3.org/2000/svg" xmlns:xlink="http://www.w3.org/1999/xlink" contentScriptType="text/ecmascript" zoomAndPan="magnify" baseProfile="tiny" contentStyleType="text/css" version="1.1" width="76.666px" preserveAspectRatio="xMidYMid meet" viewBox="0 0 76.666 76.666" height="76.666px" x="0px" y="0px">
    <g stroke-opacity="0.5" fill-opacity="0.5">
        <path d="M 38.333 3.833 C 19.309 3.833 3.8330002 19.31 3.8330002 38.333 C 3.8330002 57.356003 19.310001 72.833 38.333 72.833 C 57.356003 72.833 72.833 57.356 72.833 38.333 C 72.833 19.309 57.356 3.833 38.333 3.833 "/>
    </g>
    <path d="M 38.333 10.133 C 21.765 10.133 8.333 23.565 8.333 40.133 C 8.333 56.701 21.764 70.132996 38.333 70.132996 C 54.901 70.132996 68.333 56.700996 68.333 40.132996 C 68.333 23.565 54.901 10.133 38.333 10.133 M 37.551 60.903 C 35.229 60.903 33.338997 59.012 33.338997 56.69 C 33.338997 54.369 35.228996 52.479 37.550995 52.479 C 39.871994 52.479 41.760994 54.369 41.760994 56.69 C 41.761 59.013 39.872 60.903 37.551 60.903 M 41.438 43.625 L 41.438 45.569 C 41.438 47.727 39.815 49.295002 37.549 49.295002 C 35.118 49.295002 33.661 47.730003 33.661 45.569 L 33.661 40.169 C 33.661 38.225998 35.82 37.900997 38.035 37.307 C 40.193 36.712997 42.355 35.849 42.355 32.717 C 42.355 30.342 40.142 28.612999 37.874 28.612999 C 33.338 28.612999 32.637 33.958 29.181 33.958 C 27.237 33.958 25.887 32.446 25.887 30.069 C 25.887 24.4 33.016 21.16 37.874 21.16 C 44.84 21.16 50.779 25.48 50.779 32.716 C 50.778 38.711 47.001 42.222 41.438 43.625 "/>
    <linearGradient x1="307.5938" gradientTransform="matrix(1 0 0 1 -269.2603 -1142.1338)" y1="1150.4668" x2="307.5938" gradientUnits="userSpaceOnUse" y2="1210.4668" xlink:type="simple" xlink:actuate="onLoad" id="SVGID_1_" xlink:show="other">
        <stop stop-color="#ff7bac" offset="0"/>
        <stop stop-color="#b33464" offset="1"/>
    </linearGradient>
    <path fill="url(#SVGID_1_)" d="M 38.333 8.333 C 21.765 8.333 8.333 21.764 8.333 38.333 C 8.333 54.901 21.764 68.333 38.333 68.333 C 54.901 68.333 68.333 54.901 68.333 38.333 C 68.333 21.765 54.901 8.333 38.333 8.333 M 37.551 59.104 C 35.229 59.104 33.338997 57.212 33.338997 54.891 C 33.338997 52.569 35.228996 50.677998 37.550995 50.677998 C 39.871994 50.677998 41.760994 52.568996 41.760994 54.891 C 41.761 57.213 39.872 59.104 37.551 59.104 M 41.438 41.825 L 41.438 43.768 C 41.438 45.927002 39.815 47.495003 37.549 47.495003 C 35.118 47.495003 33.661 45.929 33.661 43.768 L 33.661 38.369003 C 33.661 36.426003 35.82 36.101 38.035 35.507004 C 40.193 34.913002 42.355 34.049004 42.355 30.917004 C 42.355 28.541004 40.142 26.813004 37.874 26.813004 C 33.338 26.813004 32.637 32.158005 29.181 32.158005 C 27.237 32.158005 25.887 30.646006 25.887 28.270004 C 25.887 22.601004 33.016 19.361004 37.874 19.361004 C 44.84 19.361004 50.779 23.681004 50.779 30.917004 C 50.778 36.911 47.001 40.421 41.438 41.825 "/>
</svg>
