<?xml version="1.0" encoding="UTF-8"?>
<svg xmlns="http://www.w3.org/2000/svg" xmlns:xlink="http://www.w3.org/1999/xlink" contentScriptType="text/ecmascript" width="12" baseProfile="tiny" zoomAndPan="magnify" contentStyleType="text/css" viewBox="0 0 12 32" height="32" preserveAspectRatio="xMidYMid meet" version="1.0">
    <g>
        <g>
            <linearGradient x1="6.5" y1="27.0488" x2="6.5" gradientUnits="userSpaceOnUse" y2="19" xlink:type="simple" xlink:actuate="onLoad" id="XMLID_3_" xlink:show="other">
                <stop stop-color="#ffffff" offset="0"/>
                <stop stop-color="#e1e1e1" offset="0.8202"/>
                <stop stop-color="#e1e1e1" offset="1"/>
            </linearGradient>
            <path fill="url(#XMLID_3_)" d="M 6.5 27.049 C 4.016 27.049 2.0 25.846 2.0 23.383 L 2.0 22.711 C 2.0 20.248 4.016 19.0 6.5 19.0 L 6.5 19.0 C 8.986 19.0 11.0 20.248 11.0 22.711 L 11.0 23.383 C 11.0 25.846 8.986 27.049 6.5 27.049 L 6.5 27.049 z "/>
            <linearGradient x1="6.5" y1="19" x2="6.5" gradientUnits="userSpaceOnUse" y2="23" xlink:type="simple" xlink:actuate="onLoad" id="XMLID_4_" xlink:show="other">
                <stop stop-color="#ffffff" offset="0"/>
                <stop stop-color="#f5f5f5" offset="0.105"/>
                <stop stop-color="#ebebeb" offset="1"/>
            </linearGradient>
            <path fill="url(#XMLID_4_)" d="M 10.99 22.625 C 10.941 20.223 8.956 19.0 6.5 19.0 C 4.046 19.0 2.058 20.223 2.0089998 22.625 L 2.0 22.625 L 2.0 23.0 L 3.0 23.0 C 3.0 20.735 4.568 20.453 6.5 20.453 C 8.434 20.453 10.0 20.75 10.0 23.0 L 11.0 23.0 L 11.0 22.625 L 10.99 22.625 z "/>
            <path fill="#a0a0a0" d="M 1.0 22.711 L 1.0 23.383 C 1.0 26.395 3.467 28.0 6.5 28.0 C 9.531 28.0 12.0 26.395 12.0 23.383 L 12.0 22.711 C 12.0 19.7 9.531 18.0 6.5 18.0 C 3.467 18.0 1.0 19.7 1.0 22.711 z M 2.0 23.383 L 2.0 22.711 C 2.0 20.252 4.018 19.0 6.5 19.0 C 8.98 19.0 11.0 20.252 11.0 22.711 L 11.0 23.383 C 11.0 25.844002 8.98 27.049002 6.5 27.049002 C 4.018 27.049 2.0 25.844 2.0 23.383 z " fill-opacity="0.7" stroke-opacity="0.7"/>
            <path fill="#e1e1e1" d="M 10.0 23.375 C 10.0 25.29 8.434 26.049 6.5 26.049 C 4.566 26.049 3.0 25.29 3.0 23.375 L 3.0 23.0 L 2.0 23.0 L 2.0 23.383 C 2.0 25.846 4.016 27.049 6.5 27.049 C 8.986 27.049 11.0 25.846 11.0 23.383 L 11.0 23.0 L 10.0 23.0 L 10.0 23.375 z " fill-opacity="0.8" stroke-opacity="0.8"/>
        </g>
        <rect width="12" fill="none" height="32"/>
    </g>
</svg>
