<?xml version="1.0" encoding="UTF-8"?>
<svg xmlns="http://www.w3.org/2000/svg" xmlns:xlink="http://www.w3.org/1999/xlink" contentScriptType="text/ecmascript" zoomAndPan="magnify" baseProfile="tiny" contentStyleType="text/css" version="1.1" width="98.855px" preserveAspectRatio="xMidYMid meet" viewBox="0 0 98.855 88" height="88px" x="0px" y="0px">
    <g>
        <path d="M 57.12 13.646 L 57.118 13.644 C 56.888 13.415 56.552002 13.328 56.237 13.415 L 33.1 19.915 C 32.793 20.001001 32.557 20.243 32.474 20.553001 C 32.392 20.862001 32.483997 21.19 32.71 21.414001 L 37.077 25.784 L 33.052 29.807 L 32.693996 30.16 C 32.686996 30.167 32.682995 30.178999 32.675995 30.184 L 22.095995 40.763 L 15.674995 34.343002 C 15.422996 34.090004 15.078996 33.948 14.7199955 33.948 C 14.361996 33.948 14.017996 34.09 13.764996 34.343002 L 7.8589954 40.249 C 7.6059957 40.5 7.4649954 40.847 7.4649954 41.203 C 7.4649954 41.561 7.605995 41.905 7.8589954 42.161 L 18.187996 52.487 C 19.227997 53.531 20.615995 54.104 22.094995 54.104 C 23.573996 54.104 24.961996 53.529 26.000996 52.486 L 44.888996 33.6 L 49.258995 37.970997 C 49.483994 38.194996 49.810993 38.285995 50.117996 38.206997 C 50.427998 38.124996 50.669994 37.889996 50.757996 37.582996 L 57.342995 14.533997 C 57.436 14.214 57.349 13.876 57.12 13.646 z "/>
        <path d="M 92.252 32.622 C 92.196 33.415 91.798 34.145 91.160995 34.623 L 77.156 41.353 C 76.067 42.170002 74.541 42.065002 73.578995 41.101 L 69.44599 36.972 C 68.16099 38.058 63.61899 41.68 59.29699 46.005 C 54.24899 51.050003 51.34499 54.875 50.26399 56.166 L 54.389988 60.289 C 55.35399 61.253002 55.46499 62.776 54.64599 63.866 L 48.161987 77.434 C 47.683987 78.069 46.956985 78.465996 46.16699 78.522995 C 46.099987 78.52599 46.03399 78.532 45.968987 78.52799 C 45.248985 78.53199 41.47899 77.413994 40.96599 76.896996 C 40.96599 76.896996 31.555988 66.313995 55.63799 42.235996 C 79.109985 18.760996 90.18599 27.675995 90.18599 27.675995 C 90.75 28.238 92.309 31.833 92.252 32.622 z "/>
        <path d="M 93.373 22.697 L 93.202 22.524 L 93.012 22.372 C 92.461 21.928 89.43 19.716 83.892 19.716 C 75.612 19.716 66.236 24.492 55.981 33.887 L 61.673 13.9660015 C 62.21 12.094002 61.692 10.069001 60.32 8.682001 L 59.795 8.152001 L 59.515 8.011002 C 58.627 7.4070015 57.579 7.0810018 56.482998 7.0810018 C 55.989 7.0810018 55.496 7.1480017 55.022 7.2850018 L 31.897 13.78 C 30.057999 14.29 28.613998 15.757 28.123 17.61 C 27.636 19.462 28.178 21.454 29.529 22.798 L 30.715 23.985 L 29.903 24.796001 L 29.512 25.179 L 29.091 25.603 L 29.086 25.612001 L 22.096 32.603 L 18.855001 29.364 C 17.751001 28.258 16.284 27.651001 14.719002 27.651001 C 13.154003 27.651001 11.687002 28.26 10.583002 29.364 L 4.677002 35.27 C 3.571002 36.374 2.965002 37.843002 2.965002 39.405 C 2.965002 40.968 3.573002 42.435997 4.677002 43.543 L 15.004002 53.867 C 16.895002 55.761 19.412003 56.805 22.094002 56.805 C 24.778002 56.805 27.297 55.760002 29.182001 53.869 L 44.889 38.163 L 46.077 39.350998 C 46.884 40.156998 47.901 40.673996 49.003998 40.853996 C 27.065998 64.773994 36.407997 76.748 37.601997 78.09 L 37.686996 78.183 L 37.775997 78.276 C 39.517998 80.024 44.344997 81.114 45.781998 81.222 L 45.781998 81.226 L 46.011997 81.233 C 46.114 81.233 46.219997 81.228004 46.343 81.222 L 46.484997 81.214 C 48.570995 81.065994 50.491997 80.02 51.753998 78.34499 L 52.024998 77.98499 L 58.558 64.315994 C 60.357 61.489994 59.972 57.709995 57.57 55.308994 L 56.329998 54.068993 C 57.803997 52.324993 59.829 50.038994 62.477997 47.387993 C 64.826996 45.037994 67.27599 42.878994 69.172 41.263992 L 70.392 42.479992 C 71.756996 43.84999 73.576 44.604992 75.509995 44.604992 C 76.908 44.604992 78.243996 44.212994 79.409 43.463993 L 93.505 36.690994 L 93.857994 36.426994 C 95.54499 35.164993 96.593994 33.235992 96.73799 31.148994 C 96.912 28.798 94.704 24.028 93.373 22.697 z " fill-opacity="0.5" stroke-opacity="0.5"/>
        <linearGradient x1="15.6243" gradientTransform="matrix(1 0 0 1 16.7998 656.5898)" y1="-645.0078" x2="15.6243" gradientUnits="userSpaceOnUse" y2="-604.2871" xlink:type="simple" xlink:actuate="onLoad" id="SVGID_1_" xlink:show="other">
            <stop stop-color="#47e6eb" offset="0"/>
            <stop stop-color="#007cba" offset="1"/>
        </linearGradient>
        <path fill="url(#SVGID_1_)" d="M 57.121 11.846 L 57.12 11.844 C 56.89 11.615 56.554 11.528 56.239 11.615 L 33.101997 18.114 C 32.795 18.2 32.559 18.442 32.475998 18.752 C 32.393997 19.061 32.485996 19.388 32.711 19.613 L 37.079 23.983002 L 33.053997 28.005001 L 32.694996 28.359001 C 32.687996 28.366001 32.684998 28.378 32.676994 28.382002 L 22.097994 38.962 L 15.676994 32.542 C 15.424994 32.289 15.080995 32.147 14.720994 32.147 C 14.363994 32.147 14.019994 32.288998 13.765994 32.542 L 7.86 38.448 C 7.6070004 38.699 7.466 39.047 7.466 39.403004 C 7.466 39.761005 7.607 40.104004 7.86 40.360004 L 18.189001 50.686005 C 19.229 51.729004 20.617 52.303005 22.096 52.303005 C 23.575 52.303005 24.963001 51.728004 26.002 50.685005 L 44.89 31.798 L 49.26 36.169 C 49.484997 36.392998 49.811996 36.482998 50.119 36.404 C 50.429 36.322 50.670998 36.086998 50.759 35.781 L 57.343998 12.731998 C 57.437 12.414 57.35 12.076 57.121 11.846 z "/>
        <linearGradient x1="48.9055" gradientTransform="matrix(1 0 0 1 16.7998 656.5898)" y1="-632.374" x2="48.9055" gradientUnits="userSpaceOnUse" y2="-579.8599" xlink:type="simple" xlink:actuate="onLoad" id="SVGID_2_" xlink:show="other">
            <stop stop-color="#edf5b3" offset="0"/>
            <stop stop-color="#7fa608" offset="1"/>
        </linearGradient>
        <path fill="url(#SVGID_2_)" d="M 92.254 30.822 C 92.198 31.614 91.801994 32.345 91.165 32.823 L 77.158005 39.554 C 76.06901 40.371002 74.54301 40.266003 73.581 39.302002 L 69.448 35.173 C 68.162994 36.259 63.621 39.88 59.298996 44.205 C 54.250996 49.25 51.346996 53.076004 50.265995 54.366 L 54.391994 58.49 C 55.354996 59.454002 55.466995 60.977 54.647995 62.067 L 48.162994 75.635 C 47.684994 76.270004 46.957993 76.667 46.167995 76.724 C 46.101994 76.727 46.035995 76.733 45.969994 76.729 C 45.249992 76.732994 41.480995 75.615 40.967995 75.098 C 40.967995 75.098 31.556995 64.515 55.639996 40.437 C 79.112 16.962 90.189995 25.876999 90.189995 25.876999 C 90.752 26.438 92.311 30.032 92.254 30.822 z "/>
    </g>
</svg>
