<?xml version="1.0" encoding="UTF-8"?>
<svg xmlns="http://www.w3.org/2000/svg" xmlns:xlink="http://www.w3.org/1999/xlink" contentScriptType="text/ecmascript" zoomAndPan="magnify" baseProfile="tiny" contentStyleType="text/css" version="1.1" width="87.002px" preserveAspectRatio="xMidYMid meet" viewBox="0 0 87.002 87.672" height="87.672px" x="0px" y="0px">
    <g>
        <path d="M 67.219 83.33 C 66.703 83.33 66.188 83.276 65.683 83.165 L 20.515999 73.409004 C 18.053 72.87601 16.118 71.14101 15.258999 68.906006 C 13.699999 67.77801 12.605999 66.059006 12.305999 64.105 L 5.665 20.519 C 5.371 18.598999 5.847 16.675 7.002 15.102999 C 8.156 13.531999 9.851 12.505999 11.773 12.214998 L 57.454998 5.2529984 C 57.816998 5.1979985 58.184998 5.1679983 58.552 5.1679983 C 62.121998 5.1679983 65.222 7.829998 65.759995 11.361998 L 67.618 23.561996 L 78.06799 25.818996 C 81.99899 26.668997 84.50299 30.557997 83.65299 34.485996 L 74.343994 77.576996 C 73.628 80.912 70.63 83.33 67.219 83.33 L 67.219 83.33 z " fill-opacity="0.5" stroke-opacity="0.5"/>
        <g>
            <path d="M 77.216 31.401 L 64.036 28.550999 L 61.758003 13.590999 C 61.49 11.830998 59.829002 10.607999 58.067 10.8759985 L 12.385002 17.837997 C 10.624002 18.106997 9.403002 19.766998 9.670002 21.528997 L 16.310001 65.112 C 16.517002 66.472 17.555002 67.501 18.825 67.78 C 18.77 69.317 19.819 70.734 21.371 71.069 L 66.541 80.827 C 68.281 81.203 70.016 80.087006 70.392 78.345 L 79.701 35.254 C 80.074 33.51 78.957 31.778 77.216 31.401 z M 14.282 24.924 C 14.013 23.161 15.233999 21.5 16.998 21.230999 L 54.671997 15.490999 C 56.434998 15.223 58.094997 16.443998 58.363 18.206999 L 59.8 27.639 L 32.05 21.643 C 30.307999 21.265999 28.574 22.383999 28.196999 24.126 L 20.101 61.61 C 19.907999 61.275 19.767 60.904 19.705 60.501 L 14.282 24.924 z M 74.884 38.355 L 71.524 53.912 L 58.989 40.351 L 40.925 51.074 L 37.82 41.761 L 27.406 46.969 L 31.3 28.94 C 31.678 27.198 33.409 26.08 35.153 26.457 L 60.453 31.923 L 60.453 31.923 L 64.688995 32.838 L 64.688995 32.838 L 72.399994 34.505 C 74.144 34.88 75.261 36.614 74.884 38.355 z "/>
            <circle r="3.51" cx="48.502" cy="37.651"/>
        </g>
        <linearGradient x1="27.9019" gradientTransform="matrix(1 0 0 1 16.7998 656.5898)" y1="-647.3706" x2="27.9019" gradientUnits="userSpaceOnUse" y2="-577.3091" xlink:type="simple" xlink:actuate="onLoad" id="SVGID_1_" xlink:show="other">
            <stop stop-color="#edf5b3" offset="0"/>
            <stop stop-color="#7fa608" offset="1"/>
        </linearGradient>
        <path fill="url(#SVGID_1_)" d="M 77.216 29.78 L 64.036 26.931 L 61.758003 11.971 C 61.49 10.21 59.829002 8.9869995 58.067 9.256 L 12.385002 16.217 C 10.624002 16.485998 9.403002 18.147 9.670002 19.908998 L 16.310001 63.491997 C 16.517002 64.851 17.555002 65.879 18.825 66.159 C 18.77 67.696 19.819 69.113 21.371 69.449 L 66.541 79.207 C 68.281 79.583 70.016 78.465004 70.392 76.724 L 79.701 33.633 C 80.074 31.89 78.957 30.158 77.216 29.78 z M 14.282 23.304 C 14.013 21.541 15.233999 19.880001 16.998 19.611 L 54.671997 13.871 C 56.434998 13.603001 58.094997 14.824 58.363 16.587 L 59.8 26.018 L 32.05 20.022 C 30.307999 19.644999 28.574 20.762999 28.196999 22.505 L 20.101 59.99 C 19.907999 59.654003 19.767 59.283 19.705 58.88 L 14.282 23.304 z M 74.884 36.735 L 71.524 52.291 L 58.99 38.731 L 40.925 49.454 L 37.82 40.141 L 27.406 45.348 L 31.3 27.319 C 31.678 25.578001 33.409 24.460001 35.153 24.836 L 60.453 30.303001 L 60.453 30.303001 L 64.688995 31.218002 L 64.688995 31.218002 L 72.399994 32.885002 C 74.144 33.26 75.261 34.993 74.884 36.735 z M 52.013 36.031 C 52.013 37.969997 50.442 39.539997 48.502 39.539997 C 46.564 39.539997 44.990997 37.969997 44.990997 36.031 C 44.990997 34.091 46.562996 32.519997 48.502 32.519997 C 50.441 32.519997 52.013 34.092 52.013 36.031 z "/>
    </g>
</svg>
