<?xml version="1.0" encoding="UTF-8"?>
<svg xmlns="http://www.w3.org/2000/svg" xmlns:xlink="http://www.w3.org/1999/xlink" contentScriptType="text/ecmascript" zoomAndPan="magnify" baseProfile="tiny" contentStyleType="text/css" version="1.1" width="98.855px" preserveAspectRatio="xMidYMid meet" viewBox="0 0 98.855 88" height="88px" x="0px" y="0px">
    <g>
        <path fill="none" d="M 57.917 60.996 C 57.655 58.76 57.167 56.427998 56.479 54.067997 C 54.104 55.273 51.416 56.526997 48.424 57.768997 L 50.599 63.247997 C 53.312 62.248 55.758 61.523 57.917 60.996 z "/>
        <path fill="none" d="M 40.197 68.029 C 42.130997 66.931 44.399998 65.784996 47.052998 64.657 L 44.878998 59.182 C 41.769997 60.374 38.989998 61.330997 36.53 62.099 C 37.649 64.262 38.888 66.26 40.197 68.029 z "/>
        <path fill="none" d="M 34.56 57.77 C 34.671 58.049 34.786003 58.329002 34.904003 58.607002 C 37.390003 57.842003 40.236004 56.875004 43.47 55.633003 L 38.931 44.195004 C 36.217 45.196003 33.774 45.918003 31.612999 46.443005 C 32.036 50.063 33.037 53.932 34.56 57.77 z "/>
        <path fill="none" d="M 34.333 32.619 C 32.787 34.139 31.771 36.815 31.472 40.307 C 31.409 41.036 31.386 41.791 31.386 42.563 C 33.221 42.093 35.273 41.468 37.521 40.644 L 34.333 32.619 z "/>
        <path fill="none" d="M 41.069 39.234 C 41.974 38.847 42.82 38.459 43.632 38.072002 C 41.185 36.116 39.278 33.785004 38.011 31.217003 C 37.968002 31.217003 37.923 31.206003 37.881 31.205004 L 41.069 39.234 z "/>
        <path fill="none" d="M 58.635 48.574 C 62.314 46.493 64.861 44.731003 66.248 43.705 C 65.447 43.818 64.634 43.902 63.806 43.956 L 58.336998 47.822002 C 58.397 47.968002 58.456997 48.113003 58.517998 48.261 C 58.56 48.365 58.594 48.469 58.635 48.574 z "/>
        <path fill="none" d="M 47.017 54.219 C 50.098 52.941 52.839996 51.645 55.242996 50.406002 C 55.197998 50.292004 55.156998 50.177002 55.115997 50.063004 C 54.128 50.668003 53.003998 51.006004 51.825996 51.006004 C 50.827995 51.006004 49.830997 50.768005 48.942997 50.313004 C 46.843998 49.235004 45.531 47.100002 45.514996 44.739002 L 45.493996 41.411003 C 44.543995 41.868004 43.551994 42.328003 42.477997 42.784004 L 47.017 54.219 z "/>
        <path fill="none" d="M 27.667 39.979 C 27.773 38.74 27.958 37.583 28.217 36.505 C 26.036 38.604 24.264 41.118 22.991 43.954002 C 24.095 43.892002 25.647 43.735 27.587 43.391003 C 27.561 42.223 27.573 41.076 27.667 39.979 z "/>
        <path fill="none" d="M 42.676 71.021 C 45.695 74.243004 48.882 76.192 51.649 76.23601 L 48.461998 68.20601 C 46.257 69.148 44.334 70.102 42.676 71.021 z "/>
        <path fill="none" d="M 31.012 59.178 C 29.411999 55.157 28.359 51.081 27.870998 47.229 C 24.999998 47.716 22.913998 47.818 21.755999 47.818 C 21.711998 47.818 21.679998 47.816 21.638998 47.816 C 20.492998 52.254 20.656998 56.911003 22.136997 61.305 C 23.615997 61.216 26.558998 60.874 31.204998 59.659 C 31.143 59.498 31.076 59.341 31.012 59.178 z "/>
        <path fill="none" d="M 59.906 52.247 C 60.738 54.947002 61.331997 57.629 61.656998 60.213 C 64.633995 59.705 66.758995 59.619 67.891 59.626 C 68.931 55.586 68.89 51.371 67.761 47.334 C 66.088 48.529 63.466 50.27 59.906 52.247 z "/>
        <path fill="none" d="M 61.864 67.461 C 61.759 68.7 61.569 69.856995 61.314 70.936 C 63.494 68.836 65.265 66.325 66.537 63.488 C 65.434006 63.549 63.883003 63.705997 61.943 64.049995 C 61.971 65.219 61.956 66.365 61.864 67.461 z "/>
        <path fill="none" d="M 55.195 74.821 C 56.742 73.304 57.758 70.625 58.058 67.132996 C 58.12 66.404 58.143997 65.647995 58.143997 64.87499 C 56.309998 65.34799 54.257996 65.97099 52.01 66.79499 L 55.195 74.821 z "/>
        <path fill="none" d="M 32.798 63.188 C 28.694 64.292 25.725 64.787 23.743 64.997 C 25.718 68.687004 28.559 71.724 31.975 73.89 C 32.793 73.108 34.4 71.708 36.913002 70.037 C 35.428 67.994 34.037 65.693 32.798 63.188 z "/>
        <path fill="none" d="M 39.33 73.028 C 37.684002 74.107 36.445004 75.06 35.601 75.773 C 38.369003 76.916 41.376003 77.548004 44.512 77.584 C 42.745 76.424 40.998 74.885 39.33 73.028 z "/>
        <path d="M 87.206 23.571 C 87.206 12.294999 75.768005 3.119999 61.702003 3.119999 C 48.014004 3.119999 36.809006 11.8169985 36.228004 22.682999 C 35.101006 22.994999 33.984005 23.360998 32.885006 23.794998 C 24.894005 26.969997 18.614006 33.065998 15.204006 40.958 C 11.798006 48.854 11.668006 57.604 14.841006 65.596 C 19.739006 77.943 31.488007 85.918 44.772007 85.918 C 48.765007 85.918 52.688007 85.181 56.435005 83.723 L 56.646004 83.659996 L 56.679005 83.644 L 56.933006 83.564995 L 57.103004 83.451996 C 64.87501 80.230995 70.98 74.22099 74.32101 66.477 C 77.73 58.580997 77.85901 49.830997 74.686005 41.838997 C 74.614006 41.656 74.526 41.484997 74.451004 41.305996 C 82.11 37.795 87.206 31.203 87.206 23.571 z " fill-opacity="0.5" stroke-opacity="0.5"/>
        <path d="M 58.678 50.277 C 58.637 50.173 58.604 50.068 58.561 49.964 C 58.502003 49.818 58.440002 49.673 58.38 49.526 L 55.514 51.55 C 55.401 51.632 55.277 51.694 55.16 51.765 C 55.201 51.878 55.243 51.994 55.287 52.109 C 52.886997 53.346 50.142998 54.642002 47.060997 55.922 L 42.521996 44.485 C 43.593994 44.03 44.586994 43.57 45.537994 43.113 L 45.525993 41.12 C 44.878994 40.695 44.262993 40.243 43.67499 39.774 C 42.86199 40.161 42.01799 40.546997 41.11199 40.936996 L 37.923992 32.906998 C 37.96699 32.908997 38.00999 32.919 38.053993 32.92 C 37.428993 31.654999 36.960995 30.332998 36.657993 28.970999 C 35.965992 29.186998 35.273994 29.421 34.594994 29.692999 C 27.721992 32.421997 22.322994 37.663998 19.391994 44.453 C 16.459995 51.242 16.348995 58.767 19.078995 65.641 C 23.293995 76.257996 33.394997 83.119995 44.816994 83.119995 C 48.305992 83.119995 51.734993 82.462 55.005993 81.16599 C 55.010994 81.162994 55.017994 81.162994 55.02299 81.15899 C 55.02899 81.15699 55.034992 81.15299 55.04299 81.150986 C 61.90599 78.42098 67.301994 73.18298 70.229996 66.39899 C 73.161995 59.609985 73.272995 52.084988 70.544 45.210987 C 70.456 44.993988 70.354996 44.788986 70.264 44.57599 C 68.987 44.92999 67.661 45.21599 66.296 45.40999 C 64.904 46.436 62.357 48.197 58.678 50.277 z M 56.524 55.772 C 57.211998 58.128998 57.700996 60.46 57.961998 62.698997 C 55.801 63.225998 53.356 63.950996 50.643997 64.951996 L 48.468998 59.472996 C 51.463 58.23 54.149 56.978 56.524 55.772 z M 47.097 66.361 C 44.444 67.49 42.172 68.633 40.241 69.732 C 38.932 67.961 37.693 65.964005 36.577 63.801003 C 39.037 63.035004 41.814 62.077003 44.926 60.884003 L 47.097 66.361 z M 38.975 45.9 L 43.514 57.338 C 40.28 58.578003 37.434 59.548 34.947998 60.313 C 34.829998 60.035 34.716 59.755 34.603996 59.475998 C 33.080997 55.635 32.080997 51.769997 31.656996 48.151997 C 33.818 47.623 36.261 46.902 38.975 45.9 z M 31.516 42.01 C 31.817001 38.522 32.83 35.841 34.379 34.322 L 37.563004 42.347 C 35.316 43.170002 33.264004 43.794 31.429005 44.266 C 31.429 43.496 31.453 42.74 31.516 42.01 z M 28.26 38.211 C 28.003 39.288998 27.819 40.442997 27.712 41.685997 C 27.615 42.782997 27.605 43.927998 27.632 45.097996 C 25.693 45.443996 24.139 45.599995 23.034 45.660995 C 24.307 42.824 26.081 40.309 28.26 38.211 z M 21.684 49.518 C 21.724 49.518 21.756 49.52 21.8 49.52 C 22.958 49.52 25.043999 49.419 27.914999 48.932 C 28.4 52.786 29.456 56.862 31.056 60.881 C 31.119 61.043 31.187 61.199 31.249 61.36 C 26.603 62.577 23.66 62.918 22.181 63.006 C 20.7 58.613 20.539 53.959 21.684 49.518 z M 23.788 66.701 C 25.767 66.49 28.737 65.996994 32.843002 64.892 C 34.081 67.395996 35.474003 69.697 36.960003 71.74 C 34.445004 73.411995 32.842003 74.809 32.022003 75.591995 C 28.605 73.426 25.761 70.392 23.788 66.701 z M 35.646 77.478 C 36.49 76.764 37.725998 75.812 39.375 74.732994 C 41.044 76.58699 42.79 78.12799 44.56 79.287994 C 41.424 79.254 38.413 78.62 35.646 77.478 z M 42.719 72.723 C 44.379 71.806 46.300003 70.852 48.505 69.909 L 51.692 77.939995 C 48.926 77.895 45.738 75.946 42.719 72.723 z M 58.102 68.838 C 57.801003 72.327995 56.786003 75.009995 55.239002 76.526 L 52.054 68.501 C 54.302002 67.675 56.354 67.053 58.188 66.582 C 58.188 67.352 58.164 68.107 58.102 68.838 z M 61.358 72.637 C 61.613003 71.559 61.799004 70.405 61.907 69.163 C 62.001003 68.066 62.014 66.92 61.987003 65.75 C 63.925003 65.404 65.478004 65.248 66.581 65.188 C 65.309 68.025 63.537 70.541 61.358 72.637 z M 67.935 61.33 C 66.800995 61.322002 64.674995 61.409 61.701996 61.916 C 61.375996 59.333 60.781998 56.65 59.949997 53.951 C 63.511997 51.972 66.133995 50.232 67.805 49.037 C 68.934 53.074 68.975 57.291 67.935 61.33 z "/>
        <path d="M 40.751 25.275 C 40.751 30.673 44.190998 35.558 50.018997 38.517 L 50.067997 46.412 C 50.072 47.084 50.449997 47.698997 51.046997 48.004997 C 51.309998 48.141 51.589996 48.204 51.871 48.204 C 52.238 48.204 52.602997 48.093998 52.913 47.872997 L 62.330997 41.212997 C 73.64 40.98 82.743 33.92 82.743 25.275 C 82.743 16.484 73.323 9.332 61.746994 9.332 C 50.17099 9.332 40.751 16.484 40.751 25.275 z M 66.989 25.068 C 66.989 23.35 68.385 21.956001 70.1 21.956001 C 71.819 21.956001 73.212 23.352001 73.212 25.068 C 73.212 26.784 71.815994 28.177 70.1 28.177 C 68.384 28.177 66.989 26.786 66.989 25.068 z M 58.989 25.068 C 58.989 23.35 60.385 21.956001 62.1 21.956001 C 63.815 21.956001 65.209 23.352001 65.209 25.068 C 65.209 26.784 63.815 28.177 62.1 28.177 C 60.385 28.177 58.989 26.786 58.989 25.068 z M 50.989 25.068 C 50.989 23.35 52.385 21.956001 54.1 21.956001 C 55.815 21.956001 57.209 23.352001 57.209 25.068 C 57.209 26.784 55.815 28.177 54.1 28.177 C 52.385 28.177 50.989 26.786 50.989 25.068 z "/>
        <linearGradient x1="27.968" gradientTransform="matrix(1 0 0 1 16.7998 656.5898)" y1="-629.3203" x2="27.968" gradientUnits="userSpaceOnUse" y2="-575.1738" xlink:type="simple" xlink:actuate="onLoad" id="SVGID_1_" xlink:show="other">
            <stop stop-color="#ecefb4" offset="0"/>
            <stop stop-color="#7ea53f" offset="1"/>
        </linearGradient>
        <path fill="url(#SVGID_1_)" d="M 58.635 48.574 C 58.593998 48.469 58.560997 48.365 58.517998 48.261 C 58.459 48.114002 58.397 47.97 58.336998 47.823 L 55.470997 49.850002 C 55.357998 49.931004 55.233997 49.991 55.116997 50.063004 C 55.157997 50.177002 55.198997 50.292004 55.243996 50.406002 C 52.843994 51.643 50.098995 52.939003 47.017998 54.219 L 42.478996 42.783 C 43.549995 42.327 44.543995 41.867 45.494995 41.41 L 45.481995 39.417 C 44.835995 38.992 44.219994 38.541 43.631996 38.072 C 42.818996 38.459 41.974995 38.847 41.068996 39.233997 L 37.880997 31.204998 C 37.922997 31.205997 37.968 31.217999 38.010998 31.217999 C 37.385998 29.953 36.918 28.630999 36.614998 27.269999 C 35.922997 27.484999 35.231 27.720999 34.552 27.991 C 27.679998 30.72 22.280998 35.96 19.349998 42.751 C 16.418 49.54 16.307 57.064 19.036999 63.939 C 23.251999 74.557 33.351997 81.418 44.775 81.418 C 48.264 81.418 51.692 80.763 54.964 79.465 C 54.969 79.461 54.975002 79.461 54.981 79.45699 C 54.987 79.45599 54.993 79.451996 55.001 79.44899 C 61.864 76.719986 67.26 71.48099 70.187 64.69699 C 73.119995 57.90899 73.230995 50.38399 70.501 43.51099 C 70.414 43.29199 70.312996 43.08699 70.222 42.87399 C 68.945 43.22999 67.618 43.515987 66.254 43.70699 C 64.86 44.731 62.313 46.493 58.635 48.574 z M 56.48 54.068 C 57.168 56.427002 57.656998 58.757 57.918 60.996002 C 55.759 61.523003 53.314 62.248 50.601997 63.248 L 48.427 57.769 C 51.417 56.527 54.105 55.273 56.48 54.068 z M 47.053 64.657 C 44.4 65.784996 42.126 66.931 40.197002 68.029 C 38.888 66.257996 37.649002 64.261 36.533 62.099 C 38.993 61.330997 41.77 60.374 44.882 59.182 L 47.053 64.657 z M 38.931 44.197 L 43.47 55.635 C 40.236 56.873997 37.39 57.843998 34.904 58.608997 C 34.786 58.330997 34.672 58.051 34.559998 57.771996 C 33.038 53.933994 32.037 50.065994 31.612997 46.447994 C 33.774 45.92 36.218 45.198 38.931 44.197 z M 31.471 40.307 C 31.773 36.815998 32.786 34.137 34.332 32.619 L 37.52 40.642998 C 35.272 41.466 33.22 42.089996 31.385 42.561996 C 31.385 41.793 31.408 41.036 31.471 40.307 z M 28.217 36.508 C 27.957998 37.585 27.776 38.739998 27.667 39.982 C 27.572 41.079 27.562 42.225 27.589 43.394997 C 25.650002 43.740997 24.096 43.896996 22.991001 43.957996 C 24.263 41.121 26.037 38.604 28.217 36.508 z M 21.639 47.814 C 21.68 47.814 21.712 47.815998 21.756 47.815998 C 22.914001 47.815998 25.0 47.713997 27.871 47.226997 C 28.356 51.080997 29.412 55.156998 31.012001 59.177 C 31.075 59.337997 31.143002 59.495 31.205002 59.656 C 26.559002 60.872997 23.616001 61.214996 22.137001 61.302 C 20.656 56.909 20.495 52.255 21.639 47.814 z M 23.744 64.997 C 25.723 64.787 28.692999 64.293 32.799 63.188004 C 34.037 65.693 35.43 67.994 36.916 70.037 C 34.401 71.708 32.797 73.105 31.978 73.89 C 28.561 71.722 25.718 68.688 23.744 64.997 z M 35.602 75.773 C 36.446003 75.060005 37.682 74.107 39.331 73.028 C 40.999 74.884 42.746002 76.423996 44.516003 77.584 C 41.38 77.551 38.369 76.916 35.602 75.773 z M 42.676 71.021 C 44.336 70.102005 46.257 69.149 48.461998 68.206 L 51.649 76.236 C 48.882 76.191 45.694 74.242 42.676 71.021 z M 58.058 67.135 C 57.757 70.625 56.741997 73.307 55.195 74.823006 L 52.01 66.799 C 54.258 65.975006 56.309998 65.352005 58.143997 64.879005 C 58.144 65.647 58.12 66.404 58.058 67.135 z M 61.314 70.934 C 61.569 69.855995 61.756 68.701 61.864 67.459 C 61.956997 66.363 61.970997 65.217 61.942997 64.046 C 63.880997 63.700996 65.434 63.544 66.536995 63.483997 C 65.265 66.322 63.493 68.836 61.314 70.934 z M 67.891 59.626 C 66.756 59.619 64.631 59.704998 61.656998 60.213 C 61.331997 57.629 60.738 54.947002 59.906 52.247 C 63.468 50.269 66.09 48.529003 67.761 47.334 C 68.89 51.371 68.931 55.586 67.891 59.626 z "/>
        <linearGradient x1="44.9026" gradientTransform="matrix(1 0 0 1 16.7998 656.5898)" y1="-648.96" x2="44.9026" gradientUnits="userSpaceOnUse" y2="-610.0898" xlink:type="simple" xlink:actuate="onLoad" id="SVGID_2_" xlink:show="other">
            <stop stop-color="#ffcf76" offset="0"/>
            <stop stop-color="#ba6d29" offset="1"/>
        </linearGradient>
        <path fill="url(#SVGID_2_)" d="M 40.708 23.571 C 40.708 28.972 44.148 33.854 49.975 36.813 L 50.024998 44.709 C 50.029 45.381 50.406998 45.995 51.003998 46.301 C 51.263996 46.438 51.545998 46.5 51.824997 46.5 C 52.190998 46.5 52.556995 46.389 52.866997 46.17 L 62.284996 39.51 C 73.59599 39.278 82.698 32.216 82.698 23.571999 C 82.698 14.780998 73.279 7.629998 61.701996 7.629998 C 50.125 7.629 40.708 14.78 40.708 23.571 z M 66.946 23.365 C 66.946 21.646 68.342 20.251999 70.057 20.251999 C 71.776 20.251999 73.169 21.647999 73.169 23.364998 C 73.169 25.081997 71.772995 26.473997 70.057 26.473997 C 68.341 26.473997 66.946 25.082 66.946 23.365 z M 58.946 23.365 C 58.946 21.646 60.342 20.251999 62.057 20.251999 C 63.772 20.251999 65.166 21.647999 65.166 23.364998 C 65.166 25.081997 63.772 26.473997 62.057 26.473997 C 60.342 26.473997 58.946 25.082 58.946 23.365 z M 50.945 23.365 C 50.945 21.646 52.341 20.251999 54.056 20.251999 C 55.771 20.251999 57.164 21.647999 57.164 23.364998 C 57.164 25.081997 55.771 26.473997 54.056 26.473997 C 52.339 26.475 50.945 25.082 50.945 23.365 z "/>
    </g>
</svg>
