<?xml version="1.0" encoding="UTF-8"?>
<svg xmlns="http://www.w3.org/2000/svg" xmlns:xlink="http://www.w3.org/1999/xlink" contentScriptType="text/ecmascript" zoomAndPan="magnify" baseProfile="tiny" contentStyleType="text/css" version="1.1" width="87.002px" preserveAspectRatio="xMidYMid meet" viewBox="0 0 87.002 87.672" height="87.672px" x="0px" y="0px">
    <g>
        <path d="M 70.806 25.112 C 72.055 23.178999 72.781 20.879 72.781 18.411999 C 72.781 11.589998 67.228 6.0389986 60.405 6.0389986 C 53.582 6.0389986 48.031998 11.589998 48.031998 18.411999 C 48.031998 20.876999 48.756996 23.177998 50.002 25.109 C 48.969997 25.151 47.990997 25.413 47.106 25.84 L 47.106 21.531 C 47.106 12.499001 39.79 5.094 30.713 4.969 L 30.542 4.969 C 21.498001 5.061 14.146999 12.48 14.146999 21.531 L 14.146999 33.802002 C 13.716 33.725002 13.268 33.684002 12.815 33.684002 C 8.655 33.684002 5.2689996 37.069 5.2689996 41.228 L 5.2689996 45.582 C 5.2689996 54.958 10.535 63.136 18.404999 67.177 C 14.972999 68.823006 13.068998 71.277 13.068998 74.288 C 13.068998 80.791 21.835 83.701004 30.523998 83.701004 C 39.206997 83.701004 47.972 80.791 47.972 74.288 C 47.972 71.326004 46.122 68.9 42.781 67.252 C 44.815998 66.216995 46.678997 64.895996 48.333 63.356 L 48.333 75.498 C 48.333 79.602005 51.672 82.94 55.775 82.94 L 64.985 82.94 C 69.088 82.94 72.425 79.601006 72.425 75.498 L 72.425 61.264 C 75.542 60.397 77.83501 57.533 77.83501 54.145 L 77.83501 32.491 C 77.833 28.539 74.712 25.299 70.806 25.112 z " fill-opacity="0.5" stroke-opacity="0.5"/>
        <path d="M 73.333 33.842 L 73.333 55.495 C 73.333 57.084 72.035 58.385 70.444 58.385 L 67.923004 58.385 L 67.923004 76.85 C 67.923004 78.465996 66.600006 79.794 64.983 79.794 L 55.773003 79.794 C 54.156002 79.794 52.832 78.466995 52.832 76.85 L 52.832 59.104 C 54.948 55.5 56.172 51.334 56.172 46.933 L 56.172 42.58 C 56.172 38.421 52.788002 35.036003 48.628002 35.036003 C 48.217003 35.036003 47.815002 35.079002 47.418003 35.142002 L 47.418003 33.844 C 47.418003 32.254 48.719 30.955002 50.311005 30.955002 L 55.771004 30.955002 L 64.981 30.955002 L 70.441 30.955002 C 72.034 30.953 73.333 32.252 73.333 33.842 z M 60.404 27.638 C 64.755 27.638 68.28 24.112 68.28 19.762001 C 68.28 15.415001 64.755 11.8880005 60.404 11.8880005 C 56.056 11.8880005 52.531 15.4140005 52.531 19.762001 C 52.531 24.112 56.057 27.638 60.404 27.638 z "/>
        <path d="M 30.714 56.454 L 30.544 56.454 C 37.205 56.454 42.608 51.053997 42.608 44.391 L 42.608 22.883 C 42.608 16.219 37.205 10.82 30.544003 10.82 L 30.714003 10.82 C 24.050003 10.82 18.649002 16.22 18.649002 22.883 L 18.649002 44.391 C 18.648 51.054 24.049 56.454 30.714 56.454 z M 35.392 20.805 C 35.392 19.605 36.364 18.632 37.565 18.632 C 38.767998 18.632 39.738 19.605999 39.738 20.805 L 39.738 34.241 C 39.738 35.442 38.767998 36.414 37.565 36.414 C 36.364 36.414 35.392 35.442 35.392 34.241 L 35.392 20.805 z M 28.434 20.805 C 28.434 19.605 29.408 18.632 30.61 18.632 C 31.810001 18.632 32.781002 19.605999 32.781002 20.805 L 32.781002 34.241 C 32.781002 35.442 31.809002 36.414 30.610003 36.414 C 29.407003 36.414 28.434002 35.442 28.434002 34.241 L 28.434002 20.805 z M 21.478 20.805 C 21.478 19.605 22.452 18.632 23.651001 18.632 C 24.854 18.632 25.825 19.605999 25.825 20.805 L 25.825 34.241 C 25.825 35.442 24.853 36.414 23.651001 36.414 C 22.451 36.414 21.478 35.442 21.478 34.241 L 21.478 20.805 z M 51.672 42.579 L 51.672 46.932 C 51.672 57.244 43.737 65.737 33.651 66.629 L 33.651 70.876 C 39.291 71.409 43.47 73.334 43.47 75.64 C 43.47 78.354996 37.675003 80.553 30.522001 80.553 C 23.368002 80.553 17.567001 78.355 17.567001 75.64 C 17.567001 73.315 21.835001 71.371 27.561 70.862 L 27.561 66.61 C 17.584 65.612 9.767 57.168 9.767 46.931 L 9.767 42.578 C 9.767 40.897 11.132 39.534 12.813 39.534 C 14.49 39.534 15.855 40.898 15.855 42.578 L 15.855 46.931 C 15.855 54.481 21.999 60.624 29.549 60.624 L 31.890999 60.624 C 39.444 60.624 45.586 54.48 45.586 46.931 L 45.586 42.578 C 45.586 40.897 46.947998 39.534 48.628 39.534 C 50.309 39.534 51.672 40.897 51.672 42.579 z "/>
        <linearGradient x1="35.1753" gradientTransform="matrix(1 0 0 -1 25.1997 720.4219)" y1="709.8838" x2="35.1753" gradientUnits="userSpaceOnUse" y2="641.9785" xlink:type="simple" xlink:actuate="onLoad" id="SVGID_1_" xlink:show="other">
            <stop stop-color="#f53f60" offset="0"/>
            <stop stop-color="#ad132f" offset="1"/>
        </linearGradient>
        <path fill="url(#SVGID_1_)" d="M 73.333 32.492 L 73.333 54.145 C 73.333 55.734 72.035 57.035 70.444 57.035 L 67.923004 57.035 L 67.923004 75.499 C 67.923004 77.115 66.600006 78.443 64.983 78.443 L 55.773003 78.443 C 54.156002 78.443 52.832 77.117004 52.832 75.499 L 52.832 57.754 C 54.948 54.151 56.172 49.984 56.172 45.584 L 56.172 41.23 C 56.172 37.071 52.788002 33.686 48.628002 33.686 C 48.217003 33.686 47.815002 33.729 47.418003 33.792 L 47.418003 32.494 C 47.418003 30.904 48.719 29.605 50.311005 29.605 L 55.771004 29.605 L 64.981 29.605 L 70.441 29.605 C 72.034 29.603 73.333 30.903 73.333 32.492 z M 60.404 26.289 C 64.755 26.289 68.28 22.763 68.28 18.411999 C 68.28 14.064999 64.755 10.538999 60.404 10.538999 C 56.056 10.538999 52.531 14.064999 52.531 18.411999 C 52.531 22.762 56.057 26.289 60.404 26.289 z "/>
        <linearGradient x1="5.52" gradientTransform="matrix(1 0 0 -1 25.1997 720.4219)" y1="710.9531" x2="5.52" gradientUnits="userSpaceOnUse" y2="641.2188" xlink:type="simple" xlink:actuate="onLoad" id="SVGID_2_" xlink:show="other">
            <stop stop-color="#cedade" offset="0"/>
            <stop stop-color="#919191" offset="1"/>
        </linearGradient>
        <path fill="url(#SVGID_2_)" d="M 30.714 55.104 L 30.544 55.104 C 37.205 55.104 42.608 49.704 42.608 43.041 L 42.608 21.533 C 42.608 14.869001 37.205 9.470001 30.544003 9.470001 L 30.714003 9.470001 C 24.050003 9.470001 18.649002 14.870001 18.649002 21.533 L 18.649002 43.041 C 18.648 49.704 24.049 55.104 30.714 55.104 z M 35.392 19.455 C 35.392 18.255 36.364 17.281 37.565 17.281 C 38.767998 17.281 39.738 18.255001 39.738 19.455 L 39.738 32.891 C 39.738 34.092 38.767998 35.064 37.565 35.064 C 36.364 35.064 35.392 34.092 35.392 32.891 L 35.392 19.455 z M 28.434 19.455 C 28.434 18.255 29.408 17.281 30.61 17.281 C 31.810001 17.281 32.781002 18.255001 32.781002 19.455 L 32.781002 32.891 C 32.781002 34.092 31.809002 35.064 30.610003 35.064 C 29.407003 35.064 28.434002 34.092 28.434002 32.891 L 28.434002 19.455 z M 21.478 19.455 C 21.478 18.255 22.452 17.281 23.651001 17.281 C 24.854 17.281 25.825 18.255001 25.825 19.455 L 25.825 32.891 C 25.825 34.092 24.853 35.064 23.651001 35.064 C 22.451 35.064 21.478 34.092 21.478 32.891 L 21.478 19.455 z M 51.672 41.229 L 51.672 45.583 C 51.672 55.895 43.737 64.388 33.651 65.28 L 33.651 69.527 C 39.291 70.06 43.47 71.985 43.47 74.291 C 43.47 77.006 37.675003 79.204 30.522001 79.204 C 23.368002 79.204 17.567001 77.006004 17.567001 74.291 C 17.567001 71.965004 21.835001 70.021 27.561 69.512 L 27.561 65.262 C 17.584 64.264 9.767 55.819 9.767 45.583 L 9.767 41.229 C 9.767 39.548 11.132 38.185 12.813 38.185 C 14.49 38.185 15.855 39.548 15.855 41.229 L 15.855 45.583 C 15.855 53.133 21.999 59.276 29.549 59.276 L 31.890999 59.276 C 39.444 59.276 45.586 53.132 45.586 45.583 L 45.586 41.229 C 45.586 39.548 46.947998 38.185 48.628 38.185 C 50.309 38.185 51.672 39.547 51.672 41.229 z "/>
    </g>
</svg>
