<?xml version="1.0" encoding="UTF-8"?>
<svg xmlns="http://www.w3.org/2000/svg" xmlns:xlink="http://www.w3.org/1999/xlink" contentScriptType="text/ecmascript" zoomAndPan="magnify" baseProfile="tiny" contentStyleType="text/css" version="1.1" width="98.855px" preserveAspectRatio="xMidYMid meet" viewBox="0 0 98.855 88" height="88px" x="0px" y="0px">
    <g>
        <path d="M 96.867 34.929 C 95.755 33.421 93.968994 32.523003 92.09599 32.523003 L 71.487 32.523003 C 69.746 32.523003 68.099 33.285004 66.957 34.624004 C 65.828 35.958004 65.346 37.710003 65.631004 39.418003 L 67.77701 52.535004 C 67.323006 52.506004 66.86101 52.488003 66.39901 52.488003 C 65.85801 52.488003 65.32501 52.509003 64.80001 52.551003 C 64.93501 51.494003 65.01301 50.432003 65.01301 49.369003 C 65.01301 47.654003 64.37101 46.086 63.31701 44.891003 C 64.37201 43.698 65.01301 42.129 65.01301 40.413 C 65.01301 26.814005 53.95001 15.750002 40.350006 15.750002 C 39.460007 15.750002 38.60801 15.926002 37.83001 16.242002 C 37.270004 13.069002 34.501007 10.651003 31.170006 10.651003 C 14.833006 10.651003 1.543005 23.944004 1.543005 40.280003 C 1.543005 43.501003 3.805005 46.197 6.822005 46.878 C 6.618005 47.524 6.5070047 48.208004 6.5070047 48.918003 C 6.5070047 62.518005 17.571005 73.582 31.171003 73.582 C 32.823006 73.582 34.342007 72.986 35.516006 71.999 C 36.747005 73.254 38.458008 74.033 40.348007 74.033 C 44.88501 74.033 49.293007 72.776 53.15601 70.418 C 55.771008 73.982 60.662006 76.343 66.40001 76.343 C 74.96301 76.343 81.671005 71.10401 81.671005 64.414 C 81.671005 64.020004 81.671005 63.646 80.22401 54.956 L 89.020004 54.949 C 91.61301 54.912003 93.86101 53.22 94.619 50.723 L 97.773 40.186 C 98.319 38.402 97.981 36.438 96.867 34.929 z " fill-opacity="0.5" stroke-opacity="0.5"/>
        <path d="M 31.167 17.003 C 17.32 17.003 6.052 28.27 6.052 42.120003 C 6.052 43.366 7.062 44.376003 8.308001 44.376003 L 31.166 44.376003 C 32.413002 44.376003 33.422 43.366005 33.422 42.120003 L 33.422 19.26 C 33.424 18.014 32.414 17.003 31.167 17.003 z "/>
        <path d="M 33.424 50.758 L 33.424 68.654 C 33.424 69.9 32.414 70.910995 31.168 70.910995 C 20.057 70.910995 11.017 61.87199 11.017 50.758995 C 11.017 49.512997 12.027 48.501995 13.273001 48.501995 L 31.168 48.501995 C 32.414 48.501 33.424 49.512 33.424 50.758 z M 40.347 44.511 L 58.242 44.511 C 59.489 44.511 60.499 43.501003 60.499 42.255 C 60.499 31.144 51.46 22.104002 40.348 22.104002 C 39.102 22.104002 38.092 23.114002 38.092 24.360004 L 38.092 42.255005 C 38.092 43.501 39.102 44.511 40.347 44.511 z M 60.064 55.375 C 60.346 54.03 60.497997 52.638 60.497997 51.209 C 60.497997 49.963 59.488 48.953 58.240997 48.953 L 40.346 48.953 C 39.1 48.953 38.09 49.962997 38.09 51.209 L 38.09 69.105 C 38.09 70.352 39.1 71.36099 40.346 71.36099 C 44.391 71.36099 48.159 70.16 51.319 68.09799 C 51.205 67.49799 51.126 66.885994 51.126 66.25499 C 51.128 61.346 54.75 57.224 60.064 55.375 z "/>
        <path d="M 93.24 39.451 C 92.971 39.088 92.545 38.873 92.093994 38.873 L 71.486 38.873 C 71.069 38.873 70.672 39.058 70.401 39.375 C 70.13 39.695 70.012 40.115 70.083 40.527 L 73.37 60.613 C 71.491005 59.509 69.061005 58.839 66.399 58.839 C 60.459003 58.839 55.639 62.16 55.639 66.254 C 55.639 70.35 60.458 73.669 66.399 73.669 C 72.34001 73.669 77.156006 70.35 77.156006 66.254 C 77.156006 65.735 74.893005 52.285995 74.893005 52.285995 L 88.954 52.274994 C 89.573006 52.265995 90.114006 51.860992 90.292 51.26799 L 93.455 40.710995 C 93.589 40.282 93.509 39.815 93.24 39.451 z "/>
        <linearGradient x1="2.9392" gradientTransform="matrix(1 0 0 1 16.7998 656.5898)" y1="-641.4243" x2="2.9392" gradientUnits="userSpaceOnUse" y2="-614.0518" xlink:type="simple" xlink:actuate="onLoad" id="SVGID_1_" xlink:show="other">
            <stop stop-color="#f17ba9" offset="0"/>
            <stop stop-color="#b33464" offset="1"/>
        </linearGradient>
        <path fill="url(#SVGID_1_)" d="M 31.169 15.166 C 17.32 15.166 6.052 26.433 6.052 40.282 C 6.052 41.529 7.062 42.538 8.308001 42.538 L 31.168 42.538 C 32.414 42.538 33.424 41.528 33.424 40.282 L 33.424 17.421995 C 33.426 16.175 32.415 15.166 31.169 15.166 z "/>
        <linearGradient x1="18.9587" gradientTransform="matrix(1 0 0 1 16.7998 656.5898)" y1="-636.3247" x2="18.9587" gradientUnits="userSpaceOnUse" y2="-587.0674" xlink:type="simple" xlink:actuate="onLoad" id="SVGID_2_" xlink:show="other">
            <stop stop-color="#cdd9dd" offset="0"/>
            <stop stop-color="#909090" offset="1"/>
        </linearGradient>
        <path fill="url(#SVGID_2_)" d="M 33.426 48.92 L 33.426 66.815 C 33.426 68.06201 32.416 69.07201 31.169998 69.07201 C 20.058998 69.07201 11.016998 60.033005 11.016998 48.921005 C 11.016998 47.674004 12.0269985 46.664005 13.272999 46.664005 L 31.169 46.664005 C 32.415 46.663 33.426 47.673 33.426 48.92 z M 40.347 42.672 L 58.243 42.672 C 59.489 42.672 60.5 41.662003 60.5 40.416 C 60.5 29.305 51.459 20.265 40.347 20.265 C 39.101 20.265 38.091 21.275002 38.091 22.521002 L 38.091 40.416 C 38.092 41.663 39.102 42.672 40.347 42.672 z M 60.064 53.537 C 60.348 52.191 60.5 50.801 60.5 49.371 C 60.5 48.125 59.489 47.115 58.243 47.115 L 40.346 47.115 C 39.1 47.115 38.09 48.124996 38.09 49.371 L 38.09 67.267 C 38.09 68.513 39.1 69.522995 40.346 69.522995 C 44.391 69.522995 48.16 68.32099 51.319 66.259995 C 51.205 65.659 51.128 65.048 51.128 64.41599 C 51.13 59.507 54.752 55.386 60.064 53.537 z "/>
        <linearGradient x1="57.78" gradientTransform="matrix(1 0 0 1 16.7998 656.5898)" y1="-619.5552" x2="57.78" gradientUnits="userSpaceOnUse" y2="-584.7578" xlink:type="simple" xlink:actuate="onLoad" id="SVGID_3_" xlink:show="other">
            <stop stop-color="#f17ba9" offset="0"/>
            <stop stop-color="#b33464" offset="1"/>
        </linearGradient>
        <path fill="url(#SVGID_3_)" d="M 93.242 37.613 C 92.97099 37.251 92.545 37.035 92.09499 37.035 L 71.486 37.035 C 71.069 37.035 70.673 37.22 70.402 37.537 C 70.131 37.856 70.012 38.277 70.083 38.69 L 73.37 58.775 C 71.494 57.671 69.061005 57.001 66.399 57.001 C 60.459003 57.001 55.640003 60.323 55.640003 64.416 C 55.640003 68.513 60.458004 71.832 66.399 71.832 C 72.34 71.832 77.158005 68.513 77.158005 64.416 C 77.158005 63.898 74.893005 50.45 74.893005 50.45 L 88.954 50.439 C 89.573006 50.43 90.115005 50.023 90.294 49.43 L 93.457 38.874 C 93.589 38.444 93.51 37.977 93.242 37.613 z "/>
    </g>
</svg>
