<?xml version="1.0" encoding="UTF-8"?>
<svg xmlns="http://www.w3.org/2000/svg" xmlns:xlink="http://www.w3.org/1999/xlink" contentScriptType="text/ecmascript" zoomAndPan="magnify" baseProfile="tiny" contentStyleType="text/css" version="1.1" width="92.979px" preserveAspectRatio="xMidYMid meet" viewBox="0 0 92.979 98" height="98px" x="0px" y="0px">
    <g>
        <path d="M 22.762 85.999 C 21.068998 85.999 19.415998 85.309 18.231 84.099 C 17.047 82.896 16.383999 81.234 16.414 79.54 L 16.435 78.409004 L 11.237 78.409004 C 8.994 78.409004 6.894 77.207 5.7579994 75.270004 C 4.62 73.325 4.6 70.905 5.698 68.949 L 24.878 34.789997 C 26.0 32.789997 28.121 31.548998 30.415 31.548998 C 32.727 31.555998 34.847 32.806 35.964 34.811996 L 54.943 68.97499 C 56.031 70.93699 56.002 73.35099 54.866 75.28099 C 53.728 77.20999 51.633 78.41099 49.391003 78.41099 L 44.153004 78.41099 L 44.153004 79.650986 C 44.153004 83.151985 41.304005 86.000984 37.802 86.000984 L 22.762 85.999 L 22.762 85.999 z " fill-opacity="0.5" stroke-opacity="0.5"/>
        <path d="M 31.698 39.141 C 31.438 38.676 30.951 38.39 30.42 38.386 L 30.417 38.386 C 29.888 38.386 29.397 38.671997 29.14 39.134 L 9.959999 73.294 C 9.704999 73.747 9.709999 74.303 9.972999 74.752 C 10.235998 75.2 10.7179985 75.479 11.237999 75.479 L 21.412998 75.479 L 21.301 81.578 C 21.294 81.97199 21.444998 82.349 21.721 82.632 C 21.995 82.912994 22.373 83.07 22.766 83.07 L 37.808 83.069 C 38.618 83.069 39.274 82.414 39.274 81.60401 L 39.274 75.47901 L 49.397 75.478004 C 49.917 75.478004 50.397 75.204 50.66 74.756004 C 50.925 74.30801 50.931 73.753006 50.68 73.3 L 31.698 39.141 z "/>
        <path d="M 64.369 68.308 C 62.059 68.299 59.939003 67.048996 58.823 65.044 L 39.843 30.88 C 38.754997 28.919 38.785 26.504 39.921 24.576 C 41.058 22.644 43.152996 21.444 45.394997 21.444 L 50.632996 21.444 L 50.632996 20.205 C 50.632996 16.702 53.48299 13.853 56.984997 13.853 L 72.026 13.853 C 73.719 13.853 75.373 14.545 76.557 15.756 C 77.742 16.958 78.405 18.621 78.375 20.314 L 78.354 21.443998 L 83.550995 21.443998 C 85.795 21.443998 87.895 22.646996 89.03 24.582 C 90.167 26.529 90.187 28.947998 89.089 30.905998 L 69.91 65.063 C 68.788 67.063 66.666 68.305 64.373 68.305 L 64.369 68.305 L 64.369 68.308 z " fill-opacity="0.5" stroke-opacity="0.5"/>
        <path d="M 84.816 29.011 C 84.553 28.562 84.071 28.285 83.551 28.285 L 73.377 28.285 L 73.489 22.186 C 73.496 21.791 73.344 21.413 73.069 21.131 C 72.794 20.851 72.417 20.693 72.023 20.693 L 56.983 20.693 C 56.172 20.693 55.516003 21.349 55.516003 22.159 L 55.516003 28.285 L 45.393 28.285 C 44.874 28.285 44.393 28.56 44.13 29.008 C 43.866 29.456 43.859 30.008 44.111 30.463 L 63.089 64.621 C 63.348 65.086 63.836 65.374 64.367004 65.374 L 64.37 65.374 C 64.899 65.374 65.388 65.091 65.647 64.627 L 84.827 30.468 C 85.084 30.013 85.079 29.458 84.816 29.011 z "/>
        <linearGradient x1="21.9163" gradientTransform="matrix(1 0 0 -1 8.3999 74.1602)" y1="37.7266" x2="21.9163" gradientUnits="userSpaceOnUse" y2="-6.9551" xlink:type="simple" xlink:actuate="onLoad" id="SVGID_1_" xlink:show="other">
            <stop stop-color="#47e6eb" offset="0"/>
            <stop stop-color="#007cba" offset="1"/>
        </linearGradient>
        <path fill="url(#SVGID_1_)" d="M 31.698 37.188 C 31.438 36.724 30.951 36.436 30.42 36.434 L 30.417 36.434 C 29.888 36.434 29.397 36.718 29.14 37.181 L 9.959 71.34 C 9.704 71.794 9.709 72.349 9.971999 72.798 C 10.234999 73.246994 10.716999 73.524994 11.237 73.524994 L 21.412 73.524994 L 21.3 79.62499 C 21.293 80.01799 21.443998 80.397 21.72 80.67799 C 21.994 80.95699 22.372 81.116 22.765 81.116 L 37.807 81.116 C 38.617 81.116 39.273 80.459 39.273 79.649994 L 39.273 73.524994 L 49.396 73.524994 C 49.916 73.524994 50.396 73.24899 50.659 72.8 C 50.924 72.354 50.93 71.8 50.679 71.34499 L 31.698 37.188 z "/>
        <linearGradient x1="56.0715" gradientTransform="matrix(1 0 0 -1 8.3999 74.1602)" y1="55.4209" x2="56.0715" gradientUnits="userSpaceOnUse" y2="10.7417" xlink:type="simple" xlink:actuate="onLoad" id="SVGID_2_" xlink:show="other">
            <stop stop-color="#edf5b3" offset="0"/>
            <stop stop-color="#7fa608" offset="1"/>
        </linearGradient>
        <path fill="url(#SVGID_2_)" d="M 84.816 27.056 C 84.553 26.609 84.071 26.329 83.551 26.329 L 73.377 26.329 L 73.489 20.231 C 73.496 19.836 73.344 19.457 73.069 19.176 C 72.794 18.895 72.417 18.738 72.023 18.738 L 56.983 18.738 C 56.172 18.738 55.516003 19.392 55.516003 20.203 L 55.516003 26.327002 L 45.393 26.328 C 44.874 26.328 44.393 26.603 44.13 27.05 C 43.866 27.498 43.859 28.053 44.111 28.505 L 63.089 62.664 C 63.348 63.128 63.836 63.417 64.367004 63.418003 L 64.37 63.418003 C 64.899 63.418003 65.388 63.132004 65.647 62.67 L 84.827 28.512 C 85.084 28.061 85.079 27.507 84.816 27.056 z "/>
    </g>
</svg>
