<?xml version="1.0" encoding="UTF-8"?>
<svg xmlns="http://www.w3.org/2000/svg" xmlns:xlink="http://www.w3.org/1999/xlink" contentScriptType="text/ecmascript" zoomAndPan="magnify" baseProfile="tiny" contentStyleType="text/css" version="1.1" width="75.854px" preserveAspectRatio="xMidYMid meet" viewBox="0 0 75.854 75.816" height="75.816px" x="0px" y="0px">
    <path d="M 65.703 4.182 L 37.313 4.182 C 34.457 4.182 32.051 6.1210003 31.332 8.75 L 10.828 8.75 C 7.401 8.75 4.617 11.536 4.617 14.96 L 4.617 36.251 C 4.617 37.703 5.122 39.038 5.961 40.099 C 5.1219997 41.157997 4.617 42.492 4.617 43.941 L 4.617 65.235 C 4.617 68.659004 7.402001 71.446 10.828 71.446 L 32.118 71.446 C 33.784 71.446 35.292 70.784 36.408 69.715 C 37.521 70.784 39.034 71.446 40.693 71.446 L 61.986 71.446 C 65.411 71.446 68.195 68.659 68.195 65.235 L 68.195 44.464 C 70.381 43.499 71.912 41.318 71.912 38.781 L 71.912 10.391003 C 71.914 6.969 69.128 4.182 65.703 4.182 z " fill-opacity="0.5"/>
    <g>
        <path d="M 10.828 40.029 L 31.101002 40.029 L 31.101002 15.19 L 10.828 15.19 C 9.849 15.19 9.053 15.988999 9.053 16.962 L 9.053 38.253 C 9.053 39.23 9.851 40.029 10.828 40.029 z "/>
        <path d="M 38.923 67.237 C 38.923 68.213 39.723 69.009 40.694 69.009 L 61.986 69.009 C 62.964 69.009 63.76 68.21 63.76 67.237 L 63.76 46.994 L 38.92 46.994 L 38.923 67.237 L 38.923 67.237 z "/>
        <path d="M 32.114 44.169 L 10.827 44.169 C 9.848 44.169 9.052 44.969 9.052 45.944 L 9.052 67.236 C 9.052 68.213 9.85 69.008 10.827 69.008 L 32.117 69.008 C 33.094 69.008 33.89 68.207 33.89 67.236 L 33.89 45.962 C 33.510998 45.712 33.161 45.42 32.848 45.094 C 32.576 44.81 32.33 44.501 32.114 44.169 z "/>
        <path d="M 65.703 10.619 L 37.313 10.619 C 36.336 10.619 35.542 11.419001 35.542 12.394 L 35.542 40.783 C 35.542 41.759003 36.34 42.557 37.313 42.557 L 65.705 42.557 C 66.681 42.557 67.477005 41.755 67.477005 40.783 L 67.477005 12.394 C 67.478 11.419 66.678 10.619 65.703 10.619 z M 63.041 37.234 C 63.041 37.721 62.642 38.122 62.152 38.122 L 40.862 38.122 C 40.376 38.122 39.975 37.726 39.975 37.234 L 39.975 15.943 C 39.975 15.455999 40.372997 15.055 40.862 15.055 L 62.155 15.055 C 62.641 15.055 63.044 15.452001 63.044 15.943001 L 63.041 37.234 L 63.041 37.234 z "/>
    </g>
    <g>
        <linearGradient x1="-5.1223" gradientTransform="matrix(1 0 0 -1 25.1997 -712.8872)" y1="-721.4675" x2="-5.1223" gradientUnits="userSpaceOnUse" y2="-780.3183" xlink:type="simple" xlink:actuate="onLoad" id="SVGID_1_" xlink:show="other">
            <stop stop-color="#47e6eb" offset="0"/>
            <stop stop-color="#007cba" offset="1"/>
        </linearGradient>
        <path fill="url(#SVGID_1_)" d="M 10.828 38.029 L 31.101002 38.029 L 31.101002 13.19 L 10.828 13.19 C 9.849 13.19 9.053 13.988999 9.053 14.962 L 9.053 36.253 C 9.053 37.23 9.851 38.029 10.828 38.029 z "/>
        <linearGradient x1="26.1414" gradientTransform="matrix(1 0 0 -1 25.1997 -712.8872)" y1="-721.4656" x2="26.1414" gradientUnits="userSpaceOnUse" y2="-780.319" xlink:type="simple" xlink:actuate="onLoad" id="SVGID_2_" xlink:show="other">
            <stop stop-color="#47e6eb" offset="0"/>
            <stop stop-color="#007cba" offset="1"/>
        </linearGradient>
        <path fill="url(#SVGID_2_)" d="M 38.923 65.237 C 38.923 66.213 39.723 67.009 40.694 67.009 L 61.986 67.009 C 62.964 67.009 63.76 66.21 63.76 65.237 L 63.76 44.994 L 38.92 44.994 L 38.923 65.237 L 38.923 65.237 z "/>
        <linearGradient x1="26.3093" gradientTransform="matrix(1 0 0 -1 25.1997 -712.8872)" y1="-721.467" x2="26.3093" gradientUnits="userSpaceOnUse" y2="-780.3193" xlink:type="simple" xlink:actuate="onLoad" id="SVGID_3_" xlink:show="other">
            <stop stop-color="#47e6eb" offset="0"/>
            <stop stop-color="#007cba" offset="1"/>
        </linearGradient>
        <path fill="url(#SVGID_3_)" d="M 65.703 8.619 L 37.313 8.619 C 36.336 8.619 35.542 9.419001 35.542 10.394 L 35.542 38.783 C 35.542 39.759003 36.34 40.557 37.313 40.557 L 65.705 40.557 C 66.681 40.557 67.477005 39.756 67.477005 38.783 L 67.477005 10.394 C 67.478 9.419 66.678 8.619 65.703 8.619 z M 63.041 35.234 C 63.041 35.721 62.642 36.122 62.152 36.122 L 40.862 36.122 C 40.376 36.122 39.975 35.726 39.975 35.234 L 39.975 13.943 C 39.975 13.455999 40.372997 13.055 40.862 13.055 L 62.155 13.055 C 62.641 13.055 63.044 13.452001 63.044 13.943001 L 63.041 35.234 L 63.041 35.234 z "/>
    </g>
    <linearGradient x1="13.0715" gradientTransform="matrix(1 0 0 -1 8.3999 51.9761)" y1="43.4011" x2="13.0715" gradientUnits="userSpaceOnUse" y2="-15.4564" xlink:type="simple" xlink:actuate="onLoad" id="SVGID_4_" xlink:show="other">
        <stop stop-color="#47e6eb" offset="0"/>
        <stop stop-color="#007cba" offset="1"/>
    </linearGradient>
    <path fill="url(#SVGID_4_)" d="M 32.114 42.169 L 30.520998 42.169 L 10.827 42.169 C 9.848 42.169 9.052 42.969 9.052 43.944 L 9.052 65.236 C 9.052 66.213 9.85 67.008 10.827 67.008 L 32.117 67.008 C 33.094 67.008 33.89 66.207 33.89 65.236 L 33.89 45.158 L 33.89 43.962 L 33.89 42.169003 L 32.114 42.169003 z "/>
</svg>
