<?xml version="1.0" encoding="UTF-8"?>
<svg xmlns="http://www.w3.org/2000/svg" xmlns:xlink="http://www.w3.org/1999/xlink" contentScriptType="text/ecmascript" zoomAndPan="magnify" baseProfile="tiny" contentStyleType="text/css" version="1.1" width="86.113px" preserveAspectRatio="xMidYMid meet" viewBox="0 0 86.113 86" height="86px" x="0px" y="0px">
    <g stroke-opacity="0.5" fill-opacity="0.5">
        <path d="M 61.915 10.456 C 61.393 10.456 60.865 10.503 60.352 10.599 L 6.2520027 20.564 C 4.210003 20.939999 2.4510026 22.012 1.2980027 23.584 C 0.15000272 25.152 -0.25799727 27.029999 0.16000271 28.867 L 7.776003 62.347 C 8.509003 65.578 11.686003 67.931 15.346003 67.966 C 15.878002 71.379005 19.137003 74.019005 23.075003 74.019005 L 78.3 74.019005 C 82.611 74.019005 86.11301 70.866005 86.11301 66.98601 L 86.11301 32.809 C 86.114006 28.930998 82.60901 25.775997 78.3 25.775997 L 71.77901 25.775997 L 69.573006 16.079998 C 68.831 12.821 65.608 10.456 61.915 10.456 "/>
    </g>
    <path d="M 78.3 31.398 L 23.076 31.398 C 21.233 31.398 19.723 32.756 19.723 34.418 L 19.723 68.593 C 19.723 70.254005 21.232 71.614 23.076 71.614 L 78.300995 71.614 C 80.146996 71.614 81.65399 70.256996 81.65399 68.593 L 81.65399 34.416 C 81.651 32.756 80.144 31.398 78.3 31.398 M 77.501 38.467 L 59.374 49.677 L 77.185 65.718 C 77.673996 66.16 77.673996 66.877 77.185 67.319 C 76.939995 67.543 76.618996 67.649 76.294 67.649 C 75.975 67.649 75.647995 67.542 75.406 67.319 L 57.265 50.979 L 51.869 54.313 C 51.515 54.537 51.098 54.645 50.683 54.645 C 50.267998 54.645 49.855 54.537 49.495 54.315 L 44.099 50.979 L 25.97 67.318 C 25.727 67.539 25.403 67.648 25.08 67.648 C 24.757 67.648 24.436 67.54 24.19 67.318 C 23.7 66.879 23.699001 66.161 24.19 65.715004 L 42.0 49.675003 L 23.874 38.468 C 22.92 37.877 22.681 36.703 23.332 35.845997 C 23.988 34.986996 25.291 34.770996 26.247002 35.357998 L 50.687004 50.470997 L 75.125 35.358997 C 76.08 34.768997 77.385 34.985996 78.038 35.845997 C 78.697 36.702 78.456 37.877 77.501 38.467 "/>
    <path d="M 67.623 29.135 L 65.202 18.49 C 64.83501 16.864 63.053005 15.802 61.248005 16.137 L 7.145 26.103 C 5.336 26.435001 4.165 28.04 4.533 29.666 L 12.149 63.146 C 12.517 64.770996 14.297 65.832 16.104 65.499 L 17.209 65.295 L 17.209 34.416 C 17.209 31.504 19.841 29.134 23.073 29.134 L 67.623 29.135 L 67.623 29.135 z M 56.881 19.096 L 60.735 18.314001 C 61.182 18.222002 61.632 18.478 61.737 18.882002 L 62.841 23.293001 C 62.945 23.698002 62.658 24.103 62.209 24.194 L 58.356 24.976 C 57.906998 25.067999 57.454998 24.810999 57.353 24.407 L 56.249 19.998 C 56.147 19.594 56.43 19.188 56.881 19.096 "/>
    <g>
        <g>
            <linearGradient x1="34.6584" gradientTransform="matrix(1 0 0 -1 8.3999 62.1602)" y1="47.6885" x2="34.6584" gradientUnits="userSpaceOnUse" y2="7.4747" xlink:type="simple" xlink:actuate="onLoad" id="SVGID_1_" xlink:show="other">
                <stop stop-color="#ffcf75" offset="0"/>
                <stop stop-color="#ba6b16" offset="1"/>
            </linearGradient>
            <path fill="url(#SVGID_1_)" d="M 78.3 29.792 L 23.076 29.792 C 21.233 29.792 19.723 31.149 19.723 32.81 L 19.723 66.986 C 19.723 68.646 21.232 70.006 23.076 70.006 L 78.300995 70.006 C 80.146996 70.006 81.65399 68.648994 81.65399 66.986 L 81.65399 32.809 C 81.651 31.15 80.144 29.792 78.3 29.792 z M 77.501 36.861 L 59.374 48.07 L 77.185 64.111 C 77.673996 64.554 77.673996 65.269 77.185 65.713 C 76.939995 65.936 76.618996 66.044 76.294 66.044 C 75.975 66.044 75.647995 65.934 75.406 65.713 L 57.265 49.374 L 51.869 52.709 C 51.515 52.93 51.098 53.04 50.684 53.04 C 50.268997 53.04 49.856 52.93 49.496 52.71 L 44.1 49.375 L 25.97 65.711 C 25.727 65.932 25.403 66.042 25.08 66.042 C 24.757 66.042 24.436 65.934 24.19 65.711 C 23.7 65.27 23.699001 64.555 24.19 64.109 L 42.0 48.068 L 23.874 36.861 C 22.92 36.272 22.681 35.097 23.332 34.24 C 23.988 33.382 25.291 33.166 26.247002 33.754 L 50.687004 48.867 L 75.125 33.755 C 76.08 33.165 77.385 33.382 78.038 34.24 C 78.697 35.097 78.456 36.272 77.501 36.861 z M 67.623 27.53 L 65.2 16.884 C 64.833 15.258 63.049995 14.200001 61.244995 14.533001 L 7.142 24.499 C 5.334 24.831001 4.162 26.434 4.531 28.060001 L 12.147 61.543003 C 12.515 63.169003 14.295 64.227005 16.102001 63.895004 L 17.207 63.690002 L 17.207 32.81 C 17.207 29.899002 19.839 27.53 23.071001 27.53 L 67.623 27.53 L 67.623 27.53 z M 56.881 17.49 L 60.735 16.708 C 61.182 16.616001 61.632 16.873001 61.737 17.277 L 62.841 21.687 C 62.945 22.092001 62.658 22.499 62.209 22.589 L 58.356 23.369001 C 57.906998 23.461 57.454998 23.206001 57.353 22.801 L 56.249 18.392 C 56.147 17.987 56.43 17.582 56.881 17.49 z "/>
        </g>
    </g>
</svg>
