<?xml version="1.0" encoding="UTF-8"?>
<svg xmlns="http://www.w3.org/2000/svg" xmlns:xlink="http://www.w3.org/1999/xlink" contentScriptType="text/ecmascript" zoomAndPan="magnify" baseProfile="tiny" contentStyleType="text/css" version="1.1" width="98.855px" preserveAspectRatio="xMidYMid meet" viewBox="0 0 98.855 88" height="88px" x="0px" y="0px">
    <g>
        <path d="M 96.75 32.807 C 95.571 31.211 93.681 30.257 91.695 30.257 L 75.558 30.257 L 74.033 27.771 C 69.06 19.673 60.288 14.133 47.96 11.307 C 44.466 10.504 40.909 10.098001 37.388 10.098001 C 22.414 10.098001 10.259001 17.357 4.854 24.548 C 1.997 28.352 0.993 32.105 1.947 35.403 C 4.5 44.208 13.04 44.991 18.692 45.512 C 20.364 45.665 23.111 45.918 23.954 46.392 C 24.471998 47.627003 24.065998 48.598003 21.871998 51.654003 C 19.856998 54.458004 16.483997 59.153004 19.739998 64.392006 C 22.775995 69.272 34.271996 73.396 44.849 73.396 L 44.849 73.396 C 46.21 73.396 47.57 73.333 48.897 73.205 L 51.659 72.939 C 54.635 75.598 59.019 77.26 64.003 77.26 C 73.169 77.26 80.35 71.664 80.35 64.521 C 80.35 64.118004 80.35 63.701004 78.77 54.213005 L 88.393 54.208004 C 91.139 54.160004 93.516 52.366005 94.31 49.732 L 97.711 38.376003 C 98.284 36.482 97.925 34.402 96.75 32.807 z " fill-opacity="0.5" stroke-opacity="0.5"/>
        <path fill="none" d="M 47.918 32.471 C 50.464 32.471 52.529 30.406 52.529 27.862 C 52.529 25.316 50.462997 23.251 47.918 23.251 C 45.374 23.251 43.309 25.316 43.309 27.862 C 43.308 30.406 45.374 32.471 47.918 32.471 z "/>
        <circle fill="none" r="4.61" cx="20.189" cy="30.421"/>
        <circle fill="none" r="4.609" cx="33.946" cy="25.812"/>
        <path fill="none" d="M 39.395 42.028 C 35.415 42.028 32.187 44.091 32.187 46.637 C 32.187 49.18 35.414 51.245003 39.395 51.245003 C 43.372 51.245003 46.602 49.180004 46.602 46.637 C 46.602 44.091 43.371 42.028 39.395 42.028 z "/>
        <path d="M 63.994 53.677 C 64.54 53.677 65.082 53.698 65.614 53.737 L 63.278 39.459 C 62.982 37.633 63.496 35.781 64.688 34.376 C 65.884 32.966 67.630005 32.156998 69.481 32.156998 L 69.976006 32.156998 C 66.22201 26.044998 59.120007 20.641998 46.88801 17.836998 C 23.122 12.383 4.43 28.839 6.501 35.979 C 9.427 46.075 25.23 39.929 28.156 46.075 C 31.856 53.849 20.4 58.369 23.766 63.782 C 25.532 66.624 36.541 71.519005 48.431 70.374 C 47.927 69.133 47.648 67.807 47.648 66.418 C 47.649 59.274 54.831 53.677 63.994 53.677 z M 20.183 36.931 C 17.639 36.931 15.576 34.866 15.576 32.322 C 15.576 29.777 17.639 27.711 20.183 27.711 C 22.73 27.711 24.795 29.776 24.795 32.322 C 24.795 34.866 22.73 36.931 20.183 36.931 z M 47.914 25.151 C 50.460003 25.151 52.523003 27.216 52.523003 29.762 C 52.523003 32.306 50.460003 34.371 47.914 34.371 C 45.368 34.371 43.303 32.306 43.303 29.761995 C 43.305 27.216 45.368 25.151 47.914 25.151 z M 29.331 27.711 C 29.331 25.165 31.396 23.102 33.94 23.102 C 36.486 23.102 38.551 25.165 38.551 27.711002 C 38.551 30.257002 36.486 32.322002 33.94 32.322002 C 31.396 32.322 29.331 30.258 29.331 27.711 z M 39.39 53.146 C 35.411 53.146 32.183 51.081 32.183 48.536 C 32.183 45.99 35.41 43.927 39.39 43.927 C 43.368 43.927 46.597 45.99 46.597 48.536 C 46.596 51.081 43.368 53.146 39.39 53.146 z "/>
        <path d="M 92.924 37.529 C 92.637 37.137 92.178 36.908 91.691 36.908 L 69.482 36.908 C 69.031006 36.908 68.602005 37.106003 68.311005 37.449 C 68.020004 37.792 67.895004 38.245003 67.967 38.691 L 71.51 60.34 C 69.486 59.149 66.866005 58.427 63.995003 58.427 C 57.594 58.427 52.4 62.004 52.4 66.418 C 52.4 70.833 57.595 74.408 63.995003 74.408 C 70.4 74.408 75.592 70.833 75.592 66.418 C 75.592 65.858 73.153 51.365 73.153 51.365 L 88.306 51.355 C 88.974 51.343 89.559 50.905 89.751 50.266 L 93.159 38.89 C 93.301 38.425 93.213 37.92 92.924 37.529 z "/>
        <linearGradient x1="21.366" gradientTransform="matrix(1 0 0 1 16.7998 656.5898)" y1="-641.7417" x2="21.366" gradientUnits="userSpaceOnUse" y2="-587.9448" xlink:type="simple" xlink:actuate="onLoad" id="SVGID_1_" xlink:show="other">
            <stop stop-color="#ffcf76" offset="0"/>
            <stop stop-color="#ba6d29" offset="1"/>
        </linearGradient>
        <path fill="url(#SVGID_1_)" d="M 64.0 51.777 C 64.544 51.777 65.087 51.797 65.62 51.836 L 63.282 37.559 C 62.986 35.733 63.501003 33.880997 64.692 32.475998 C 65.888 31.065998 67.636 30.256998 69.484 30.256998 L 69.984 30.256998 C 66.228004 24.145 59.124 18.741997 46.892 15.935998 C 23.126 10.483 4.437 26.939 6.504 34.08 C 9.43 44.175003 25.235 38.030003 28.161 44.175003 C 31.859 51.949005 20.403 56.47 23.769 61.882004 C 25.537998 64.725006 36.546 69.62 48.434 68.475006 C 47.931 67.23401 47.653 65.907005 47.653 64.519005 C 47.654 57.375 54.835 51.777 64.0 51.777 z M 20.189 35.031 C 17.644 35.031 15.577999 32.966 15.577999 30.421995 C 15.577999 27.875998 17.643 25.810995 20.189 25.810995 C 22.735 25.810995 24.798 27.875998 24.798 30.421995 C 24.799 32.966 22.735 35.031 20.189 35.031 z M 47.918 23.251 C 50.464 23.251 52.529 25.316 52.529 27.862 C 52.529 30.406 50.462997 32.471 47.918 32.471 C 45.374 32.471 43.309 30.406 43.309 27.862 C 43.308 25.315 45.374 23.251 47.918 23.251 z M 29.337 25.812 C 29.337 23.266 31.4 21.203 33.944 21.203 C 36.489 21.203 38.556 23.266 38.556 25.812 C 38.556 28.358002 36.489 30.423 33.944 30.423 C 31.4 30.422 29.337 28.357 29.337 25.812 z M 39.395 51.246 C 35.415 51.246 32.187 49.181 32.187 46.636997 C 32.187 44.090996 35.414 42.027996 39.395 42.027996 C 43.372 42.027996 46.602 44.090996 46.602 46.636997 C 46.602 49.181 43.371 51.246 39.395 51.246 z "/>
        <linearGradient x1="56.0203" gradientTransform="matrix(1 0 0 1 16.7998 656.5898)" y1="-621.582" x2="56.0203" gradientUnits="userSpaceOnUse" y2="-584.082" xlink:type="simple" xlink:actuate="onLoad" id="SVGID_2_" xlink:show="other">
            <stop stop-color="#f17ba9" offset="0"/>
            <stop stop-color="#b33464" offset="1"/>
        </linearGradient>
        <path fill="url(#SVGID_2_)" d="M 92.928 35.629 C 92.639 35.237003 92.18 35.008003 91.694 35.008003 L 69.484 35.008003 C 69.034004 35.008003 68.605 35.206005 68.314 35.549004 C 68.023 35.892 67.898 36.345005 67.972 36.791004 L 71.514 58.44 C 69.492 57.250004 66.869 56.528004 64.001 56.528004 C 57.601997 56.528004 52.407997 60.105003 52.407997 64.519005 C 52.407997 68.93301 57.601 72.508 64.001 72.508 C 70.404 72.508 75.598 68.93301 75.598 64.519005 C 75.598 63.958004 73.158 49.465004 73.158 49.465004 L 88.314 49.456005 C 88.98 49.443005 89.562 49.006004 89.757 48.366005 L 93.16499 36.990005 C 93.306 36.525 93.219 36.02 92.928 35.629 z "/>
    </g>
</svg>
