<?xml version="1.0" encoding="UTF-8"?>
<svg xmlns="http://www.w3.org/2000/svg" xmlns:xlink="http://www.w3.org/1999/xlink" contentScriptType="text/ecmascript" zoomAndPan="magnify" baseProfile="tiny" contentStyleType="text/css" version="1.1" width="87.002px" preserveAspectRatio="xMidYMid meet" viewBox="0 0 87.002 87.672" height="87.672px" x="0px" y="0px">
    <path d="M 43.54 3.854 C 32.242 3.854 13.290001 9.018 13.290001 43.604 C 13.290001 78.191 32.242 83.354004 43.54 83.354004 C 57.34 83.354004 73.79 76.45801 73.79 43.604004 C 73.79 10.75 57.34 3.854 43.54 3.854 z " fill-opacity="0.5" stroke-opacity="0.5"/>
    <g>
        <polygon points="44.567,63.904 51.456,56.414 44.567,49.727  "/>
        <polygon points="44.567,39.572 51.335,32.87 44.567,26.563  "/>
        <path d="M 43.54 10.854 C 29.595001 10.854 18.29 19.604 18.29 45.604 C 18.29 72.104004 29.595001 80.354004 43.54 80.354004 C 57.483 80.354004 68.79 72.604004 68.79 45.604004 C 68.79 18.854 57.484 10.854 43.54 10.854 z M 56.685 54.522 C 57.657 55.462997 57.703003 57.008 56.786003 58.005 L 43.911003 72.005005 C 43.429005 72.53001 42.757004 72.815 42.068005 72.815 C 41.763004 72.815 41.458004 72.758 41.163006 72.644005 C 40.203007 72.270004 39.569004 71.343 39.569004 70.315 L 39.569004 51.56 L 30.955004 60.09 C 29.974003 61.063 28.392004 61.058 27.420004 60.073 C 26.446003 59.092003 26.456003 57.509003 27.438004 56.538002 L 39.393005 44.698 L 27.455006 33.108 C 26.464006 32.145 26.438005 30.562002 27.400005 29.573002 C 28.362005 28.583002 29.947006 28.557001 30.935005 29.520002 L 39.569004 37.902 L 39.569004 20.813 C 39.569004 19.817999 40.161003 18.917 41.072002 18.52 C 41.984 18.124 43.049004 18.307001 43.773003 18.983 L 56.648003 30.983 C 57.146004 31.448 57.433002 32.093 57.444004 32.774 C 57.456005 33.455997 57.186005 34.111 56.705006 34.586998 L 46.531 44.66 L 56.685 54.522 z "/>
    </g>
    <linearGradient x1="26.7397" gradientTransform="matrix(1 0 0 1 16.7998 656.5898)" y1="-647.7358" x2="26.7397" gradientUnits="userSpaceOnUse" y2="-578.2354" xlink:type="simple" xlink:actuate="onLoad" id="SVGID_1_" xlink:show="other">
        <stop stop-color="#47e6eb" offset="0"/>
        <stop stop-color="#007cba" offset="1"/>
    </linearGradient>
    <path fill="url(#SVGID_1_)" d="M 44.567 47.727 L 51.457 54.415 L 44.567 61.905 L 44.567 47.727 z M 44.567 37.572 L 51.336002 30.869999 L 44.567 24.563 L 44.567 37.572 z M 68.79 43.604 C 68.79 70.604004 57.483 78.354004 43.54 78.354004 C 29.595001 78.354004 18.29 70.104004 18.29 43.604004 C 18.29 17.604004 29.595001 8.854004 43.54 8.854004 C 57.484 8.854 68.79 16.854 68.79 43.604 z M 46.53 42.664 L 56.703 32.592003 C 57.184 32.113003 57.454 31.458002 57.441998 30.779003 C 57.430996 30.100002 57.143997 29.453003 56.645996 28.988003 L 43.770996 16.988003 C 43.043995 16.312002 41.981995 16.131002 41.069996 16.525003 C 40.158997 16.921003 39.566998 17.823004 39.566998 18.818003 L 39.566998 35.907005 L 30.932999 27.525005 C 29.943998 26.562006 28.359999 26.587006 27.397999 27.578005 C 26.435999 28.567005 26.46 30.150005 27.453 31.113005 L 39.391 42.703003 L 27.435999 54.543003 C 26.456999 55.515003 26.446999 57.097004 27.418 58.078003 C 28.390999 59.06 29.972 59.065002 30.953 58.095 L 39.567 49.565002 L 39.567 68.321 C 39.567 69.351 40.201 70.276 41.161003 70.65 C 41.456 70.765 41.764004 70.821 42.066 70.821 C 42.754 70.821 43.424004 70.539 43.909 70.011 L 56.784 56.011 C 57.701 55.015003 57.655 53.469 56.683 52.528 L 46.53 42.664 z "/>
</svg>
