<?xml version="1.0" encoding="UTF-8"?>
<svg xmlns="http://www.w3.org/2000/svg" xmlns:xlink="http://www.w3.org/1999/xlink" contentScriptType="text/ecmascript" zoomAndPan="magnify" baseProfile="tiny" contentStyleType="text/css" version="1.1" width="98.855px" preserveAspectRatio="xMidYMid meet" viewBox="0 0 98.855 88" height="88px" x="0px" y="0px">
    <g>
        <path d="M 84.421 23.673 L 84.421 16.316 C 84.421 11.766 80.723 8.066 76.171 8.066 L 19.713 8.066 C 15.160999 8.066 11.462999 11.766 11.462999 16.316 L 11.462999 72.775 C 11.462999 77.325005 15.160999 81.025 19.713 81.025 L 76.171 81.025 C 80.723 81.025 84.421 77.325005 84.421 72.775 L 84.421 48.369 C 86.798 47.384 88.479 45.045 88.479 42.315 L 88.479 29.728 C 88.478 26.998 86.798 24.655 84.421 23.673 z " fill-opacity="0.5" stroke-opacity="0.5"/>
        <path d="M 46.091 50.154 L 46.091 50.166 L 46.091 62.742 C 46.091 63.319 45.618 63.793 45.042 63.793 L 32.455 63.793 C 31.879002 63.793 31.407001 63.319 31.407001 62.742 L 31.407001 50.155 C 31.407001 49.579998 31.880001 49.107998 32.455 49.107998 L 45.038002 49.107998 L 45.042004 49.107998 C 45.618 49.107 46.091 49.577 46.091 50.154 z M 50.158 50.154 L 50.158 62.742 C 50.158 63.317 50.631 63.792 51.208 63.792 L 63.794 63.792 C 64.368996 63.792 64.841995 63.317 64.841995 62.742 L 64.841995 50.154 C 64.841995 49.578 64.368996 49.107 63.793995 49.107 L 51.208 49.107 C 50.631 49.107 50.158 49.577 50.158 50.154 z M 73.421 72.225 L 22.463 72.225 L 22.463 21.265 L 73.421 21.265 L 73.421 25.376999 L 78.921 25.376999 L 78.921 18.515 C 78.921 16.994 77.692 15.764999 76.171 15.764999 L 19.713 15.764999 C 18.192 15.764999 16.963 16.994 16.963 18.515 L 16.963 74.975 C 16.963 76.494995 18.192 77.725 19.713 77.725 L 76.171 77.725 C 77.692 77.725 78.921 76.494995 78.921 74.975 L 78.921 51.063 L 73.421 51.063 L 73.421 72.225 z M 45.041 30.876 L 32.454 30.876 C 31.877998 30.876 31.405998 31.348 31.405998 31.925 L 31.405998 44.513 C 31.405998 45.087 31.878998 45.561 32.454 45.561 L 45.04 45.561 C 45.616 45.561 46.088 45.087 46.088 44.513 L 46.088 31.926 C 46.091 31.349 45.618 30.876 45.041 30.876 z "/>
        <path d="M 81.929 30.876 L 69.342 30.876 C 68.768005 30.876 68.295006 31.348999 68.295006 31.925 L 68.295006 44.513 C 68.295006 45.087 68.768005 45.561 69.342 45.561 L 81.93 45.561 C 82.506 45.561 82.979004 45.087 82.979004 44.513 L 82.979004 31.926 C 82.978 31.35 82.506 30.876 81.929 30.876 z "/>
        <linearGradient x1="31.1418" gradientTransform="matrix(1 0 0 1 16.7998 656.5898)" y1="-643.0249" x2="31.1418" gradientUnits="userSpaceOnUse" y2="-581.0654" xlink:type="simple" xlink:actuate="onLoad" id="SVGID_1_" xlink:show="other">
            <stop stop-color="#ffcf76" offset="0"/>
            <stop stop-color="#ba6d29" offset="1"/>
        </linearGradient>
        <path fill="url(#SVGID_1_)" d="M 46.091 47.954 L 46.091 47.966 L 46.091 60.542 C 46.091 61.119 45.618 61.593 45.042 61.593 L 32.455 61.593 C 31.879002 61.593 31.407001 61.119 31.407001 60.542 L 31.407001 47.955 C 31.407001 47.38 31.880001 46.908 32.455 46.908 L 45.038002 46.908 L 45.042004 46.908 C 45.618 46.907 46.091 47.378 46.091 47.954 z M 50.158 47.954 L 50.158 60.542 C 50.158 61.118 50.631 61.592 51.208 61.592 L 63.794 61.592 C 64.368996 61.592 64.841995 61.118 64.841995 60.542 L 64.841995 47.954 C 64.841995 47.378998 64.368996 46.906998 63.793995 46.906998 L 51.208 46.906998 C 50.631 46.907 50.158 47.378 50.158 47.954 z M 73.421 70.024 L 22.463 70.024 L 22.463 19.065 L 73.421 19.065 L 73.421 23.176 L 78.921 23.176 L 78.921 16.315 C 78.921 14.794001 77.692 13.565001 76.171 13.565001 L 19.713 13.565001 C 18.192 13.565001 16.963 14.794001 16.963 16.315 L 16.963 72.774 C 16.963 74.294 18.192 75.524 19.713 75.524 L 76.171 75.524 C 77.692 75.524 78.921 74.294 78.921 72.774 L 78.921 48.863 L 73.421 48.863 L 73.421 70.024 z M 45.041 28.676 L 32.454 28.676 C 31.877998 28.676 31.405998 29.148 31.405998 29.726 L 31.405998 42.313 C 31.405998 42.888 31.878998 43.361 32.454 43.361 L 45.04 43.361 C 45.616 43.361 46.088 42.888 46.088 42.313 L 46.088 29.726 C 46.091 29.148 45.618 28.676 45.041 28.676 z "/>
        <linearGradient x1="58.8367" gradientTransform="matrix(1 0 0 1 16.7998 656.5898)" y1="-627.9136" x2="58.8367" gradientUnits="userSpaceOnUse" y2="-613.2285" xlink:type="simple" xlink:actuate="onLoad" id="SVGID_2_" xlink:show="other">
            <stop stop-color="#ee4261" offset="0"/>
            <stop stop-color="#ac1e31" offset="1"/>
        </linearGradient>
        <path fill="url(#SVGID_2_)" d="M 81.929 28.676 L 69.342 28.676 C 68.768005 28.676 68.295006 29.149 68.295006 29.726 L 68.295006 42.313 C 68.295006 42.888 68.768005 43.361 69.342 43.361 L 81.93 43.361 C 82.506 43.361 82.979004 42.888 82.979004 42.313 L 82.979004 29.726 C 82.978 29.149 82.506 28.676 81.929 28.676 z "/>
    </g>
</svg>
