<?xml version="1.0" encoding="UTF-8"?>
<svg xmlns="http://www.w3.org/2000/svg" xmlns:xlink="http://www.w3.org/1999/xlink" contentScriptType="text/ecmascript" width="170" baseProfile="tiny" zoomAndPan="magnify" contentStyleType="text/css" viewBox="-0.89 0.076 170 20" height="20" preserveAspectRatio="xMidYMid meet" version="1.0">
    <linearGradient x1="84.15" y1="28.44" x2="84.15" gradientUnits="userSpaceOnUse" y2="1.11" xlink:type="simple" xlink:actuate="onLoad" id="_2" xlink:show="other">
        <stop stop-color="#e6e6e6" offset="0"/>
        <stop stop-color="#828282" offset="1"/>
    </linearGradient>
    <polygon fill="url(#_2)" fill-opacity="0.7" points="169.062,17.463 167.27,19.588 1.32,19.588 -0.756,17.629 -0.756,2.796 1.82,0.159 166.562,0.159 169.062,2.448 "/>
    <path fill="#404040" d="M 7.11 17.076 L 7.11 19.076 L 161.101 19.076 L 161.101 17.076 C 158.321 17.076 9.656 17.076 7.11 17.076 z " fill-opacity="0.15"/>
    <path fill="#ffffff" d="M 7.11 1.076 L 7.11 3.076 C 9.65 3.076 158.309 3.076 161.101 3.076 L 161.101 1.076 L 7.11 1.076 z " fill-opacity="0.3"/>
    <rect x="7.11" width="153.991" fill="#6e6e6e" y="0.076" height="1"/>
    <rect x="7.11" width="153.991" fill="#6e6e6e" y="19.076" height="1"/>
    <path fill="#404040" d="M 0.11 17.076 L 0.11 17.787 C 0.11 18.498 0.778 19.076 1.598 19.076 L 7.11 19.076 L 7.11 17.076 C 2.601 17.076 0.11 17.076 0.11 17.076 z " fill-opacity="0.15"/>
    <path fill="#ffffff" d="M 1.599 1.076 C 0.779 1.076 0.11099994 1.654 0.11099994 2.365 L 0.11099994 17.787 C 0.11099994 18.498 0.7789999 19.076 1.599 19.076 L 2.11 19.076 C 2.11 19.076 2.11 4.8010006 2.11 3.0760002 C 2.255 3.0760002 4.006 3.0760002 7.11 3.0760002 L 7.11 1.0760002 L 1.599 1.0760002 z " fill-opacity="0.3"/>
    <path fill="#6e6e6e" d="M 1.599 19.076 C 0.779 19.076 0.11099994 18.498 0.11099994 17.787 L 0.11099994 2.365 C 0.11099994 1.654 0.7789999 1.076 1.599 1.076 L 7.11 1.076 L 7.11 0.075999975 L 1.599 0.075999975 C 0.22599997 0.075999975 -0.88899994 1.102 -0.88899994 2.365 L -0.88899994 17.787 C -0.88899994 19.05 0.22600009 20.076 1.599 20.076 L 7.11 20.076 L 7.11 19.076 L 1.599 19.076 z "/>
    <path fill="#404040" d="M 168.102 17.787 L 168.102 2.365 C 168.102 1.654 167.434 1.076 166.614 1.076 L 166.102 1.076 C 166.102 1.076 166.102 15.351 166.102 17.076 C 165.95601 17.076 164.20401 17.076 161.102 17.076 L 161.102 19.076 L 166.614 19.076 C 167.434 19.076 168.102 18.498 168.102 17.787 z " fill-opacity="0.15"/>
    <path fill="#ffffff" d="M 168.102 2.365 C 168.102 1.654 167.434 1.076 166.614 1.076 L 161.102 1.076 L 161.102 3.076 C 165.612 3.076 168.102 3.076 168.102 3.076 L 168.102 2.365 z " fill-opacity="0.3"/>
    <path fill="#6e6e6e" d="M 166.613 0.076 L 161.10101 0.076 L 161.10101 1.076 L 166.613 1.076 C 167.43301 1.076 168.101 1.654 168.101 2.365 L 168.101 17.787 C 168.101 18.498 167.43301 19.076 166.613 19.076 L 161.10101 19.076 L 161.10101 20.076 L 166.613 20.076 C 167.984 20.076 169.101 19.05 169.101 17.787 L 169.101 2.365 C 169.102 1.103 167.984 0.076 166.613 0.076 z "/>
</svg>
