<?xml version="1.0" encoding="UTF-8"?>
<svg xmlns="http://www.w3.org/2000/svg" xmlns:xlink="http://www.w3.org/1999/xlink" contentScriptType="text/ecmascript" zoomAndPan="magnify" baseProfile="tiny" contentStyleType="text/css" version="1.1" width="87.002px" preserveAspectRatio="xMidYMid meet" viewBox="0 0 87.002 87.672" height="87.672px" x="0px" y="0px">
    <g>
        <path d="M 85.663 29.643 C 84.329 27.788 82.165 26.68 79.878006 26.68 L 60.529 26.68 C 58.458 26.68 56.498 27.575 55.147 29.135 C 53.791 30.697 53.182 32.765 53.473 34.811 L 55.077 46.04 C 54.053 46.07 53.058 46.182 52.102 46.36 L 52.102 34.571 L 52.102 16.368 C 52.102 13.809 50.697002 11.471001 48.443 10.264 C 47.441 9.73 46.311 9.444 45.176003 9.444 C 43.804 9.444 42.473003 9.849 41.334003 10.611 L 41.036003 10.808 L 21.365 28.705 L 11.053 28.705 C 7.2330008 28.705 4.1280003 31.813 4.1280003 35.631 L 4.1280003 51.919 C 4.1280003 55.739 7.234 58.844997 11.053 58.844997 L 21.366001 58.844997 L 41.034 76.74 L 41.327 76.937 C 42.468 77.702995 43.801 78.104996 45.179 78.104996 C 46.316 78.104996 47.449 77.821 48.45 77.283 C 50.703 76.076 52.104 73.738 52.104 71.18 L 52.104 69.626 C 53.25 69.839 54.449 69.956 55.688 69.956 C 64.205 69.956 70.876 64.701004 70.876 57.995003 L 70.878 57.755 C 70.89 56.545002 70.881996 55.913002 70.805 55.374 L 70.122 50.603 L 76.652 50.603 C 79.718 50.603 82.437 48.647 83.411 45.731 L 86.636 36.056 C 87.36 33.89 86.995 31.491 85.663 29.643 z " fill-opacity="0.5" stroke-opacity="0.5"/>
        <path d="M 40.503 59.894 C 40.503 55.632 43.204998 51.967003 47.353996 49.853 L 47.353996 18.268 C 47.353996 17.467 46.911995 16.730999 46.205997 16.351 C 45.496 15.972 44.638996 16.015 43.970997 16.458 L 23.205 35.354 L 11.053 35.354 C 9.85 35.354 8.878 36.329 8.878 37.529 L 8.878 53.818 C 8.878 55.022 9.85 55.993 11.053 55.993 L 23.205002 55.993 L 43.97 74.89 C 44.333 75.132996 44.753002 75.254 45.178 75.254 C 45.530003 75.254 45.883003 75.17 46.204002 74.995995 C 46.909004 74.618996 47.352 73.88 47.352 73.078995 L 47.352 69.937996 C 43.204 67.826 40.503 64.156 40.503 59.894 z "/>
        <path d="M 81.806 34.316 C 81.36 33.695004 80.643 33.33 79.879 33.33 L 60.529 33.33 C 59.84 33.33 59.186 33.627003 58.732998 34.148003 C 58.282997 34.668003 58.079998 35.356003 58.176 36.037003 L 60.677 53.546005 C 59.184 52.997005 57.488 52.681004 55.689 52.681004 C 49.836998 52.681004 45.253998 55.848003 45.253998 59.894005 C 45.253998 63.936005 49.836998 67.106 55.689 67.106 C 61.543 67.106 66.127 63.936005 66.127 59.894005 C 66.127 59.571003 66.151 58.289005 66.103 57.945004 L 64.648994 47.754005 L 76.65499 47.754005 C 77.676994 47.754005 78.58499 47.101006 78.90899 46.130005 L 82.13399 36.455006 C 82.372 35.732 82.251 34.935 81.806 34.316 z "/>
        <linearGradient x1="11.3169" gradientTransform="matrix(1 0 0 1 16.7998 656.5898)" y1="-642.3955" x2="11.3169" gradientUnits="userSpaceOnUse" y2="-583.2354" xlink:type="simple" xlink:actuate="onLoad" id="SVGID_1_" xlink:show="other">
            <stop stop-color="#cdd9dd" offset="0"/>
            <stop stop-color="#909090" offset="1"/>
        </linearGradient>
        <path fill="url(#SVGID_1_)" d="M 40.504 57.994 C 40.504 53.731 43.206 50.067 47.355003 47.953 L 47.355003 16.368 C 47.355003 15.566 46.913002 14.831 46.206005 14.451 C 45.498005 14.0720005 44.640007 14.115 43.972004 14.558001 L 23.206 33.453 L 11.054 33.453 C 9.851 33.453 8.879 34.427998 8.879 35.628998 L 8.879 51.917 C 8.879 53.121 9.851 54.093 11.054 54.093 L 23.206001 54.093 L 43.971 72.989 C 44.335 73.231995 44.755 73.354 45.179 73.354 C 45.531002 73.354 45.884003 73.269 46.205 73.09599 C 46.910004 72.717995 47.353 71.979996 47.353 71.17799 L 47.353 68.036995 C 43.204 65.926 40.504 62.257 40.504 57.994 z "/>
        <linearGradient x1="46.9551" gradientTransform="matrix(1 0 0 1 16.7998 656.5898)" y1="-625.1597" x2="46.9551" gradientUnits="userSpaceOnUse" y2="-591.3848" xlink:type="simple" xlink:actuate="onLoad" id="SVGID_2_" xlink:show="other">
            <stop stop-color="#ff7bac" offset="0"/>
            <stop stop-color="#b33464" offset="1"/>
        </linearGradient>
        <path fill="url(#SVGID_2_)" d="M 81.807 32.416 C 81.361 31.795 80.643 31.43 79.88 31.43 L 60.53 31.43 C 59.841 31.43 59.187 31.727001 58.733997 32.248 C 58.283997 32.768 58.080997 33.456 58.177 34.137 L 60.677 51.646004 C 59.184998 51.096004 57.489 50.780003 55.69 50.780003 C 49.837997 50.780003 45.253998 53.948 45.253998 57.994003 C 45.253998 62.036003 49.837997 65.205 55.69 65.205 C 61.544 65.205 66.128 62.036003 66.128 57.994003 C 66.128 57.670002 66.152 56.388004 66.104 56.045002 L 64.65 45.853 L 76.656 45.853 C 77.678 45.853 78.586 45.2 78.909996 44.229 L 82.134995 34.554 C 82.373 33.832 82.252 33.035 81.807 32.416 z "/>
    </g>
</svg>
