<?xml version="1.0" encoding="UTF-8"?>
<svg xmlns="http://www.w3.org/2000/svg" xmlns:xlink="http://www.w3.org/1999/xlink" contentScriptType="text/ecmascript" zoomAndPan="magnify" baseProfile="tiny" contentStyleType="text/css" version="1.1" width="94.484px" preserveAspectRatio="xMidYMid meet" viewBox="0 0 94.484 84.119" height="84.119px" x="0px" y="0px">
    <path d="M 83.631 39.902 C 83.649994 39.51 83.655 39.133 83.655 38.76 C 83.655 19.708002 67.32 4.2060013 47.242 4.2060013 C 27.163 4.2060013 10.829002 19.707 10.829002 38.761 C 10.829002 39.134003 10.837003 39.511 10.853003 39.903 C 6.9320025 44.025 4.7240024 49.491 4.7240024 55.233 C 4.7240024 67.512 14.7160015 77.503006 26.994003 77.503006 L 27.363005 77.503006 C 28.832005 78.989006 30.870005 79.91401 33.120003 79.91401 L 34.957005 79.91401 C 39.423004 79.91401 43.057007 76.281006 43.057007 71.81401 L 43.057007 39.727 C 43.057007 35.26 39.424007 31.627 34.95701 31.627 L 33.12 31.627 C 31.481 31.627 29.956 32.121002 28.681 32.96 L 28.089 32.96 C 30.801 25.697998 38.443 20.405 47.243 20.405 C 56.045 20.405 63.686 25.697998 66.398 32.96 L 65.803 32.96 C 64.526 32.119 63.002003 31.627 61.362 31.627 L 59.526 31.627 C 55.06 31.627 51.426003 35.26 51.426003 39.726997 L 51.426003 71.813 C 51.426003 76.28 55.06 79.912994 59.526 79.912994 L 61.362 79.912994 C 63.613 79.912994 65.651 78.98899 67.119 77.50199 L 67.490005 77.50199 C 79.769005 77.50199 89.76001 67.510994 89.76001 55.23199 C 89.76 49.491 87.552 44.024 83.631 39.902 " fill-opacity="0.3"/>
    <path d="M 61.363 37.927 L 59.525997 37.927 C 57.546997 37.927 55.926 39.547997 55.926 41.526997 L 55.926 73.61299 C 55.926 75.592995 57.546 77.21299 59.525997 77.21299 L 61.363 77.21299 C 63.342 77.21299 64.964 75.59399 64.964 73.61299 L 64.964 41.527 C 64.964 39.547 63.342 37.927 61.363 37.927 "/>
    <path d="M 78.984 43.492 C 79.085 42.516 79.155 41.54 79.155 40.559 C 79.155 23.987 64.84 10.505001 47.241997 10.505001 C 29.645996 10.505001 15.328997 23.987 15.328997 40.56 C 15.328997 41.541 15.398996 42.518 15.499996 43.492 C 11.664996 46.751 9.223996 51.604 9.223996 57.032 C 9.223996 66.846 17.179996 74.803 26.993996 74.803 L 26.993996 39.26 C 25.455996 39.26 23.972996 39.476 22.548996 39.843 C 22.960997 27.572998 33.875996 17.706 47.241997 17.706 C 60.608 17.706 71.522995 27.572998 71.935 39.844 C 70.512 39.477 69.029 39.261 67.491 39.261 L 67.491 74.803 C 77.304 74.803 85.261 66.845 85.261 57.032 C 85.26 51.604 82.819 46.751 78.984 43.492 "/>
    <path d="M 34.957 37.927 L 33.12 37.927 C 31.141 37.927 29.52 39.547997 29.52 41.526997 L 29.52 73.61299 C 29.52 75.592995 31.141 77.21299 33.12 77.21299 L 34.957 77.21299 C 36.937 77.21299 38.557 75.59399 38.557 73.61299 L 38.557 41.527 C 38.557 39.547 36.938 37.927 34.957 37.927 "/>
    <g>
        <g>
            <g>
                <linearGradient x1="174.9021" gradientTransform="matrix(1 0 0 -1 -127.6602 -317.8408)" y1="-326.5469" x2="174.9021" gradientUnits="userSpaceOnUse" y2="-393.2539" xlink:type="simple" xlink:actuate="onLoad" id="SVGID_1_" xlink:show="other">
                    <stop stop-color="#edf5b3" offset="0"/>
                    <stop stop-color="#7fa608" offset="1"/>
                </linearGradient>
                <path fill="url(#SVGID_1_)" d="M 61.363 36.127 L 59.525997 36.127 C 57.546997 36.127 55.926 37.747 55.926 39.726997 L 55.926 71.813 C 55.926 73.79199 57.546 75.412994 59.525997 75.412994 L 61.363 75.412994 C 63.342 75.412994 64.964 73.79299 64.964 71.813 L 64.964 39.727 C 64.964 37.747 63.342 36.127 61.363 36.127 z M 78.984 41.692 C 79.085 40.717003 79.155 39.741 79.155 38.76 C 79.155 22.188002 64.84 8.706001 47.241997 8.706001 C 29.645996 8.706001 15.328997 22.188002 15.328997 38.761 C 15.328997 39.742 15.398996 40.719 15.499996 41.693 C 11.664996 44.951 9.223996 49.805 9.223996 55.233 C 9.223996 65.047005 17.179996 73.003006 26.993996 73.003006 L 26.993996 37.46 C 25.455996 37.46 23.972996 37.676 22.548996 38.043 C 22.960997 25.773 33.875996 15.904999 47.241997 15.904999 C 60.608 15.904999 71.522995 25.773 71.935 38.044 C 70.512 37.676 69.029 37.461 67.491 37.461 L 67.491 73.002 C 77.304 73.002 85.261 65.045 85.261 55.232 C 85.26 49.805 82.819 44.951 78.984 41.692 z M 34.957 36.127 L 33.12 36.127 C 31.141 36.127 29.52 37.747 29.52 39.726997 L 29.52 71.813 C 29.52 73.79199 31.141 75.412994 33.12 75.412994 L 34.957 75.412994 C 36.937 75.412994 38.557 73.79299 38.557 71.813 L 38.557 39.727 C 38.557 37.747 36.938 36.127 34.957 36.127 z "/>
            </g>
        </g>
    </g>
</svg>
