<?xml version="1.0" encoding="UTF-8"?>
<svg xmlns="http://www.w3.org/2000/svg" xmlns:xlink="http://www.w3.org/1999/xlink" contentScriptType="text/ecmascript" zoomAndPan="magnify" baseProfile="tiny" contentStyleType="text/css" version="1.1" width="87.221px" preserveAspectRatio="xMidYMid meet" viewBox="0 0 87.221 83.18" height="83.18px" x="0px" y="0px">
    <path d="M 52.993 79.596 C 49.217 79.596 45.856 77.774 43.748 74.962 C 41.639 77.773994 38.279 79.596 34.503002 79.596 L 17.188 79.596 C 10.82 79.596 5.6379995 74.414 5.6379995 68.046 L 5.6379995 50.731 C 5.6379995 47.068 7.3529997 43.795998 10.024 41.68 C 7.3550005 39.562 5.638 36.291 5.638 32.627 L 5.638 15.312 C 5.638 8.942 10.82 3.762 17.188 3.762 L 34.503998 3.762 C 38.279 3.762 41.639 5.585 43.748997 8.396 C 45.857 5.585 49.217995 3.762 52.993996 3.762 L 70.308 3.762 C 76.675995 3.762 81.858 8.943001 81.858 15.312 L 81.858 32.626 C 81.858 36.291 80.144005 39.562 77.473 41.679 C 80.143 43.796 81.858 47.067 81.858 50.73 L 81.858 68.045 C 81.858 74.412994 76.676 79.595 70.308 79.595 L 52.993 79.596 L 52.993 79.596 z " fill-opacity="0.5"/>
    <path d="M 34.504 11.537 L 17.188 11.537 C 14.0 11.537 11.414 14.122999 11.414 17.311 L 11.414 34.625 C 11.414 37.814 13.999 40.399002 17.188 40.399002 L 34.503998 40.399002 C 37.692997 40.399002 40.278 37.815002 40.278 34.625 L 40.278 17.312 C 40.279 14.123 37.694 11.537 34.504 11.537 z M 33.121 28.894 L 28.598 28.894 L 28.598 33.417 C 28.598 35.013 27.305 36.305 25.71 36.305 C 24.114998 36.305 22.821 35.013 22.821 33.417 L 22.821 28.894001 L 18.3 28.894001 C 16.705 28.894001 15.412999 27.602001 15.412999 26.007 C 15.412999 24.411999 16.705 23.119 18.3 23.119 L 22.821999 23.119 L 22.821999 18.596 C 22.821999 17.001001 24.114998 15.708 25.710999 15.708 C 27.304998 15.708 28.598999 17.001 28.598999 18.596 L 28.598999 23.119 L 33.121998 23.119 C 34.716 23.119 36.009 24.411999 36.009 26.007 C 36.009 27.602001 34.715 28.894 33.121 28.894 z M 70.309 46.956 L 52.993 46.956 C 49.803 46.956 47.218 49.542 47.218 52.729 L 47.218 70.044 C 47.218 73.233 49.802998 75.817 52.993 75.817 L 70.307 75.817 C 73.497 75.817 76.082 73.233 76.082 70.044 L 76.082 52.731 C 76.084 49.542 73.499 46.956 70.309 46.956 z M 69.361 68.839 L 54.539 68.839 C 52.942 68.839 51.65 67.547 51.65 65.951 C 51.65 64.354 52.942 63.061996 54.539 63.061996 L 69.359 63.061996 C 70.955 63.061996 72.248 64.354 72.248 65.951 C 72.248 67.547 70.955 68.839 69.361 68.839 z M 69.361 60.247 L 54.539 60.247 C 52.942 60.247 51.65 58.955 51.65 57.358 C 51.65 55.763 52.942 54.47 54.539 54.47 L 69.359 54.47 C 70.955 54.47 72.248 55.763 72.248 57.358 C 72.248 58.955 70.955 60.247 69.361 60.247 z M 34.504 46.956 L 17.188 46.956 C 14.0 46.956 11.414 49.542 11.414 52.729 L 11.414 70.044 C 11.414 73.233 13.999 75.817 17.188 75.817 L 34.503998 75.817 C 37.692997 75.817 40.278 73.233 40.278 70.044 L 40.278 52.731 C 40.279 49.542 37.694 46.956 34.504 46.956 z M 32.991 64.487 C 34.120003 65.616 34.120003 67.443 32.991 68.57 C 32.428 69.133 31.686 69.416 30.949001 69.416 C 30.209002 69.416 29.470001 69.135 28.907001 68.57 L 25.707 65.372 L 22.51 68.57 C 21.946001 69.133 21.208 69.416 20.468 69.416 C 19.73 69.416 18.991001 69.135 18.426 68.57 C 17.297 67.442 17.297 65.615 18.426 64.487 L 21.625 61.288 L 18.426 58.088997 C 17.297 56.959995 17.297 55.131996 18.426 54.004997 C 19.554 52.875996 21.382 52.875996 22.509 54.004997 L 25.708 57.205997 L 28.908 54.004997 C 30.036001 52.875996 31.862001 52.875996 32.991 54.004997 C 34.119 55.131996 34.119 56.962997 32.991 58.088997 L 29.791 61.288 L 32.991 64.487 z M 70.309 11.537 L 52.993 11.537 C 49.803 11.537 47.218 14.122999 47.218 17.311 L 47.218 34.625 C 47.218 37.814 49.802998 40.399002 52.993 40.399002 L 70.307 40.399002 C 73.497 40.399002 76.082 37.815002 76.082 34.625 L 76.082 17.312 C 76.084 14.123 73.499 11.537 70.309 11.537 z M 69.361 28.894 L 54.539 28.894 C 52.942 28.894 51.65 27.602 51.65 26.007 C 51.65 24.412 52.942 23.119 54.539 23.119 L 69.359 23.119 C 70.955 23.119 72.248 24.411999 72.248 26.007 C 72.248 27.602001 70.955 28.894 69.361 28.894 z "/>
    <linearGradient x1="26.948" gradientTransform="matrix(1 0 0 1 16.7998 -757.5)" y1="767.0364" x2="26.948" gradientUnits="userSpaceOnUse" y2="831.3176" xlink:type="simple" xlink:actuate="onLoad" id="SVGID_1_" xlink:show="other">
        <stop stop-color="#ffcf75" offset="0"/>
        <stop stop-color="#ba6b16" offset="1"/>
    </linearGradient>
    <path fill="url(#SVGID_1_)" d="M 34.504 9.537 L 17.188 9.537 C 14.0 9.537 11.414 12.122999 11.414 15.311 L 11.414 32.625 C 11.414 35.814 13.999 38.399002 17.188 38.399002 L 34.503998 38.399002 C 37.692997 38.399002 40.278 35.815002 40.278 32.625 L 40.278 15.312 C 40.279 12.123 37.694 9.537 34.504 9.537 z M 33.121 26.894 L 28.598 26.894 L 28.598 31.417 C 28.598 33.013 27.305 34.305 25.71 34.305 C 24.114998 34.305 22.821 33.013 22.821 31.417 L 22.821 26.894001 L 18.3 26.894001 C 16.705 26.894001 15.412999 25.602001 15.412999 24.007 C 15.412999 22.411999 16.705 21.119 18.3 21.119 L 22.821999 21.119 L 22.821999 16.596 C 22.821999 15.001 24.114998 13.708 25.710999 13.708 C 27.304998 13.708 28.598999 15.001 28.598999 16.596 L 28.598999 21.119 L 33.121998 21.119 C 34.716 21.119 36.009 22.411999 36.009 24.007 C 36.009 25.602001 34.715 26.894 33.121 26.894 z M 70.309 44.956 L 52.993 44.956 C 49.803 44.956 47.218 47.542 47.218 50.729 L 47.218 68.044 C 47.218 71.233 49.802998 73.817 52.993 73.817 L 70.307 73.817 C 73.497 73.817 76.082 71.233 76.082 68.044 L 76.082 50.731 C 76.084 47.542 73.499 44.956 70.309 44.956 z M 69.361 66.839 L 54.539 66.839 C 52.942 66.839 51.65 65.547 51.65 63.950996 C 51.65 62.353996 52.942 61.061996 54.539 61.061996 L 69.359 61.061996 C 70.955 61.061996 72.248 62.353996 72.248 63.950996 C 72.248 65.547 70.955 66.839 69.361 66.839 z M 69.361 58.247 L 54.539 58.247 C 52.942 58.247 51.65 56.955 51.65 55.358 C 51.65 53.763 52.942 52.47 54.539 52.47 L 69.359 52.47 C 70.955 52.47 72.248 53.763 72.248 55.358 C 72.248 56.955 70.955 58.247 69.361 58.247 z M 34.504 44.956 L 17.188 44.956 C 14.0 44.956 11.414 47.542 11.414 50.729 L 11.414 68.044 C 11.414 71.233 13.999 73.817 17.188 73.817 L 34.503998 73.817 C 37.692997 73.817 40.278 71.233 40.278 68.044 L 40.278 50.731 C 40.279 47.542 37.694 44.956 34.504 44.956 z M 32.991 62.487 C 34.120003 63.616 34.120003 65.443 32.991 66.57 C 32.428 67.133 31.686 67.416 30.949001 67.416 C 30.209002 67.416 29.470001 67.135 28.907001 66.57 L 25.707 63.372 L 22.51 66.57 C 21.946001 67.133 21.208 67.416 20.468 67.416 C 19.73 67.416 18.991001 67.135 18.426 66.57 C 17.297 65.442 17.297 63.614998 18.426 62.487 L 21.625 59.288 L 18.426 56.088997 C 17.297 54.959995 17.297 53.131996 18.426 52.004997 C 19.554 50.875996 21.382 50.875996 22.509 52.004997 L 25.708 55.205997 L 28.908 52.004997 C 30.036001 50.875996 31.862001 50.875996 32.991 52.004997 C 34.119 53.131996 34.119 54.962997 32.991 56.088997 L 29.791 59.288 L 32.991 62.487 z M 70.309 9.537 L 52.993 9.537 C 49.803 9.537 47.218 12.122999 47.218 15.311 L 47.218 32.625 C 47.218 35.814 49.802998 38.399002 52.993 38.399002 L 70.307 38.399002 C 73.497 38.399002 76.082 35.815002 76.082 32.625 L 76.082 15.312 C 76.084 12.123 73.499 9.537 70.309 9.537 z M 69.361 26.894 L 54.539 26.894 C 52.942 26.894 51.65 25.602 51.65 24.007 C 51.65 22.412 52.942 21.119 54.539 21.119 L 69.359 21.119 C 70.955 21.119 72.248 22.411999 72.248 24.007 C 72.248 25.602001 70.955 26.894 69.361 26.894 z "/>
</svg>
