<?xml version="1.0" encoding="UTF-8"?>
<svg xmlns="http://www.w3.org/2000/svg" xmlns:xlink="http://www.w3.org/1999/xlink" contentScriptType="text/ecmascript" zoomAndPan="magnify" baseProfile="tiny" contentStyleType="text/css" version="1.1" width="98.855px" preserveAspectRatio="xMidYMid meet" viewBox="0 0 98.855 88" height="88px" x="0px" y="0px">
    <path d="M 76.374 7.337 L 22.664 7.337 C 18.115002 7.337 14.414001 11.037 14.414001 15.587 L 14.414001 72.047 C 14.414001 76.59599 18.115002 80.297 22.664 80.297 L 76.374 80.297 C 80.92301 80.297 84.624 76.596 84.624 72.047 L 84.624 15.586998 C 84.624 11.037 80.923 7.337 76.374 7.337 z " fill-opacity="0.5" stroke-opacity="0.5"/>
    <path d="M 34.368 62.015 L 34.368 49.426 C 34.368 48.851 34.843 48.379997 35.417 48.379997 L 48.001 48.379997 L 48.005 48.379997 C 48.579 48.379997 49.054 48.851 49.054 49.426 L 49.054 49.439 L 49.054 62.016 C 49.054 62.592 48.579 63.065 48.005 63.065 L 35.417 63.065 C 34.843 63.063 34.368 62.592 34.368 62.015 z M 53.124 49.426 L 53.124 62.015 C 53.124 62.59 53.597 63.064 54.171 63.064 L 59.915 63.064 C 60.02 61.294 60.145 59.339 60.275 57.327 C 60.446003 54.645 60.665 51.265 60.817 48.379 L 54.171 48.379 C 53.596 48.38 53.124 48.851 53.124 49.426 z M 35.417 44.835 L 48.005 44.835 C 48.579 44.835 49.054 44.362 49.054 43.786 L 49.054 31.2 C 49.054 30.621 48.579 30.149 48.005 30.149 L 35.417 30.149 C 34.843 30.149 34.368 30.621 34.368 31.2 L 34.368 43.786003 C 34.368 44.361 34.843 44.835 35.417 44.835 z M 59.906 71.497 L 25.425 71.497 L 25.425 20.537004 L 55.906 20.537004 C 56.386 19.621002 56.953 18.739002 57.627 17.906002 C 57.627 17.906002 58.513 16.510002 60.517 15.037003 L 22.675 15.037003 C 21.155998 15.037003 19.925 16.267002 19.925 17.787004 L 19.925 74.247 C 19.925 75.766 21.155998 76.997 22.675 76.997 L 62.805 76.997 C 61.667 75.848 60.771 74.439 60.226 72.84001 C 60.099 72.462 59.992 71.992 59.906 71.497 z "/>
    <path d="M 78.871 30.052 C 79.922005 27.905 79.744 24.501 78.358 22.069 C 76.783005 19.297 73.943 17.678 70.86801 17.45 L 73.87 25.218 L 70.635 29.69 L 65.096 28.576 L 61.906 21.364 C 59.439003 24.413 58.881 28.615 60.834003 32.051003 C 61.322 32.904003 61.928005 33.65 62.624004 34.276 C 63.26701 35.021 66.19601 38.599 66.47401 42.103 C 66.75101 45.668 65.226006 63.712 65.15501 68.843 C 65.13801 69.082 65.27801 70.596 65.434006 71.060005 C 66.41401 73.921005 69.521 75.441 72.379005 74.47001 C 74.991005 73.574005 76.268005 70.91801 75.978004 68.26301 C 75.711006 61.576008 73.57601 44.572006 73.97201 41.91501 C 74.559 37.949 77.823 32.192 78.871 30.052 z M 70.68 71.119 C 69.51 71.119 68.564 70.174 68.564 69.003006 C 68.564 67.83501 69.509 66.88901 70.68 66.88901 C 71.849 66.88901 72.79801 67.83501 72.79801 69.003006 C 72.799 70.174 71.849 71.119 70.68 71.119 z "/>
    <linearGradient x1="24.553" gradientTransform="matrix(1 0 0 1 16.7998 656.5898)" y1="-643.7529" x2="24.553" gradientUnits="userSpaceOnUse" y2="-581.793" xlink:type="simple" xlink:actuate="onLoad" id="SVGID_1_" xlink:show="other">
        <stop stop-color="#ffcf76" offset="0"/>
        <stop stop-color="#ba6d29" offset="1"/>
    </linearGradient>
    <path fill="url(#SVGID_1_)" d="M 34.357 59.814 L 34.357 47.226 C 34.357 46.651 34.83 46.18 35.405 46.18 L 47.99 46.18 L 47.994003 46.18 C 48.568005 46.18 49.042004 46.651 49.042004 47.226 L 49.042004 47.24 L 49.042004 59.816 C 49.042004 60.392 48.567005 60.865 47.994003 60.865 L 35.405 60.865 C 34.828 60.863 34.357 60.392 34.357 59.814 z M 53.109 47.226 L 53.109 59.815 C 53.109 60.390003 53.584 60.864 54.159 60.864 L 59.9 60.864 C 60.007 59.094 60.131 57.139004 60.261 55.127003 C 60.434 52.445004 60.651 49.066 60.805 46.179 L 54.159 46.179 C 53.583 46.18 53.109 46.65 53.109 47.226 z M 35.405 42.635 L 47.994 42.635 C 48.568 42.635 49.04 42.162 49.04 41.587 L 49.04 29.0 C 49.04 28.422 48.567 27.95 47.994 27.95 L 35.405 27.95 C 34.829 27.95 34.357 28.422 34.357 29.0 L 34.357 41.586 C 34.357 42.162 34.828 42.635 35.405 42.635 z M 59.892 69.297 L 25.413 69.297 L 25.413 18.336998 L 55.893 18.336998 C 56.372 17.421995 56.941 16.538998 57.615 15.705997 C 57.615 15.705997 58.501 14.309998 60.504997 12.836998 L 22.663 12.836998 C 21.144 12.836998 19.913 14.066998 19.913 15.586998 L 19.913 72.047 C 19.913 73.565994 21.144 74.797 22.663 74.797 L 62.793 74.797 C 61.655 73.648 60.758 72.239 60.211 70.64 C 60.086 70.262 59.98 69.791 59.892 69.297 z "/>
    <linearGradient x1="52.7888" gradientTransform="matrix(1 0 0 1 16.7998 656.5898)" y1="-641.3408" x2="52.7888" gradientUnits="userSpaceOnUse" y2="-584.0278" xlink:type="simple" xlink:actuate="onLoad" id="SVGID_2_" xlink:show="other">
        <stop stop-color="#cdd9dd" offset="0"/>
        <stop stop-color="#909090" offset="1"/>
    </linearGradient>
    <path fill="url(#SVGID_2_)" d="M 78.859 27.852 C 79.91 25.705 79.732 22.3 78.346 19.868 C 76.771 17.096 73.931 15.478001 70.85401 15.249001 L 73.857 23.017 L 70.619 27.489 L 65.083 26.375 L 61.893 19.163 C 59.426003 22.212 58.868 26.414 60.821003 29.849 C 61.308 30.702 61.913 31.447998 62.611004 32.075 C 63.253 32.82 66.18301 36.398003 66.461006 39.902 C 66.73801 43.468 65.211006 61.511 65.142006 66.642 C 65.12201 66.881 65.26501 68.395 65.421005 68.859 C 66.399 71.718 69.508 73.24 72.364006 72.270004 C 74.976006 71.373 76.253006 68.717 75.96501 66.062004 C 75.698006 59.375004 73.563 42.372 73.95801 39.714005 C 74.548 35.749 77.811 29.992 78.859 27.852 z M 70.667 68.919 C 69.499 68.919 68.553 67.974 68.553 66.803 C 68.553 65.635 69.498 64.689 70.667 64.689 C 71.837 64.689 72.787 65.635 72.787 66.803 C 72.786 67.974 71.837 68.919 70.667 68.919 z "/>
</svg>
