<?xml version="1.0" encoding="UTF-8"?>
<svg xmlns="http://www.w3.org/2000/svg" xmlns:xlink="http://www.w3.org/1999/xlink" contentScriptType="text/ecmascript" zoomAndPan="magnify" baseProfile="tiny" contentStyleType="text/css" version="1.1" width="98.855px" preserveAspectRatio="xMidYMid meet" viewBox="0 0 98.855 88" height="88px" x="0px" y="0px">
    <path d="M 83.256 25.056 C 82.662994 24.017 81.934 23.081 81.102 22.255 L 81.102 21.185999 C 81.102 15.669999 76.616 11.185999 71.102 11.185999 L 22.601997 11.185999 C 17.087997 11.185999 12.601997 15.669999 12.601997 21.185999 L 12.601997 69.687 C 12.601997 75.201 17.087997 79.687 22.601997 79.687 L 68.13899 79.687 C 69.300995 80.158 70.55599 80.432 71.86399 80.432 L 71.86499 80.432 C 72.95899 80.432 74.04199 80.25 75.093994 79.894 C 79.465996 78.394 82.175995 74.001 81.73499 69.172 C 81.646996 67.133995 81.39399 64.213 81.10299 61.115997 L 81.10299 42.62 C 81.81899 40.976997 82.66599 39.324997 83.20399 38.288 C 83.472984 37.773 83.69799 37.330997 83.87099 36.977997 C 85.574 33.488 85.328 28.694 83.256 25.056 z " fill-opacity="0.5" stroke-opacity="0.5"/>
    <path d="M 61.909 71.981 L 61.907 71.981 C 61.935 69.911 62.196003 65.864006 62.472 61.58 C 62.778 56.836002 63.24 49.667 63.118 48.131 C 63.037 47.109 61.993 45.318 60.976 44.081 C 60.061 43.206 59.276 42.202 58.638 41.09 C 58.359 40.601 58.12 40.095 57.909 39.579 L 55.261 40.852997 C 54.785 41.184998 54.233 41.360996 53.653 41.360996 C 52.903 41.360996 52.197998 41.068996 51.671 40.538998 L 49.307003 38.176 C 47.994003 39.264 45.328003 41.474 42.786003 44.014 C 39.845 46.954 37.959003 49.282 36.945004 50.535 L 39.312004 52.902 C 40.272003 53.86 40.401005 55.388 39.626003 56.491 L 35.030003 66.105 L 34.978004 66.172005 C 34.488003 66.826004 33.743004 67.234 32.932003 67.288 L 32.763004 67.293 L 32.700005 67.291 C 32.111004 67.291 29.181004 66.49 28.575005 65.883 C 28.249004 65.518005 21.537004 57.543003 38.969006 40.113003 C 47.740005 31.342003 54.187004 28.842003 58.335007 28.443003 C 58.802006 27.501003 59.376007 26.591003 60.064007 25.742002 C 60.064007 25.742002 61.683006 23.179003 65.55201 21.492002 C 69.41901 19.806002 72.47201 20.342003 72.47201 20.342003 C 73.531006 20.421003 74.55701 20.627003 75.54001 20.932003 C 74.71601 19.309004 73.046005 18.186003 71.102005 18.186003 L 22.602005 18.186003 C 19.838005 18.186003 17.602005 20.422003 17.602005 23.186003 L 17.602005 71.687004 C 17.602005 74.449005 19.838005 76.687004 22.602005 76.687004 L 62.836006 76.687004 C 62.686005 76.36101 62.542007 76.03001 62.426006 75.68301 C 62.083 74.671 61.901 72.935 61.909 71.981 z "/>
    <path d="M 79.38 36.786 C 80.335 34.833 80.173 31.738998 78.910995 29.527 C 77.479 27.006 74.896996 25.538 72.102 25.33 L 74.83099 32.393 L 71.88999 36.457 L 66.854996 35.445 L 63.954994 28.888 C 61.714993 31.659 61.204994 35.48 62.979996 38.603 C 63.424995 39.376 63.973995 40.056 64.606995 40.624 C 65.190994 41.302002 67.854996 44.556 68.106995 47.739 C 68.35899 50.98 66.97199 67.384995 66.908 72.048996 C 66.892 72.268 67.019 73.644 67.161995 74.065994 C 68.05299 76.66699 70.879 78.046 73.475 77.163994 C 75.85 76.35099 77.01 73.937 76.747 71.522995 C 76.506004 65.44499 74.562004 49.985992 74.924 47.569996 C 75.458 43.965 78.427 38.73 79.38 36.786 z M 71.932 74.12 C 70.868996 74.12 70.01 73.26 70.01 72.195 C 70.01 71.134 70.867004 70.274 71.932 70.274 C 72.995 70.274 73.858 71.133 73.858 72.195 C 73.858 73.26 72.994 74.12 71.932 74.12 z "/>
    <linearGradient x1="29.7678" gradientTransform="matrix(1 0 0 1 16.7998 656.5898)" y1="-640.4043" x2="29.7678" gradientUnits="userSpaceOnUse" y2="-581.9033" xlink:type="simple" xlink:actuate="onLoad" id="SVGID_1_" xlink:show="other">
        <stop stop-color="#ecefb4" offset="0"/>
        <stop stop-color="#7ea53f" offset="1"/>
    </linearGradient>
    <path fill="url(#SVGID_1_)" d="M 61.906 69.981 L 61.904 69.981 C 61.932 67.911 62.193 63.864002 62.468998 59.58 C 62.774998 54.836002 63.237 47.667 63.114998 46.131 C 63.033997 45.109 61.989998 43.318 60.973 42.081 C 60.058 41.206 59.273 40.202 58.635 39.09 C 58.356 38.601 58.116997 38.095 57.906 37.579 L 55.258 38.852997 C 54.781998 39.184998 54.23 39.360996 53.649998 39.360996 C 52.899998 39.360996 52.194996 39.068996 51.666996 38.538998 L 49.303997 36.176 C 47.990997 37.264 45.324997 39.474 42.782997 42.014 C 39.841995 44.954 37.955997 47.282 36.941998 48.535 L 39.309 50.902 C 40.268997 51.86 40.398 53.388 39.622997 54.491 L 35.026997 64.105 L 34.975 64.172005 C 34.484997 64.826004 33.739998 65.234 32.928997 65.288 L 32.76 65.293 L 32.697 65.291 C 32.107998 65.291 29.177998 64.49 28.571999 63.883 C 28.245998 63.517998 21.533998 55.543 38.966 38.113 C 47.737 29.342 54.184 26.842 58.332 26.442999 C 58.799 25.501 59.373 24.591 60.061 23.741999 C 60.061 23.741999 61.68 21.178999 65.549 19.491999 C 69.416 17.805998 72.469 18.342 72.469 18.342 C 73.528 18.421 74.554 18.626999 75.537 18.932 C 74.711006 17.309 73.043 16.185999 71.099 16.185999 L 22.598999 16.185999 C 19.835 16.185999 17.598999 18.421999 17.598999 21.185999 L 17.598999 69.687 C 17.598999 72.449 19.835 74.687 22.598999 74.687 L 62.833 74.687 C 62.683 74.361 62.539 74.03 62.422 73.683 C 62.08 72.671 61.897 70.935 61.906 69.981 z "/>
    <linearGradient x1="54.1482" gradientTransform="matrix(1 0 0 1 16.7998 656.5898)" y1="-633.2598" x2="54.1482" gradientUnits="userSpaceOnUse" y2="-581.1592" xlink:type="simple" xlink:actuate="onLoad" id="SVGID_2_" xlink:show="other">
        <stop stop-color="#cdd9dd" offset="0"/>
        <stop stop-color="#909090" offset="1"/>
    </linearGradient>
    <path fill="url(#SVGID_2_)" d="M 79.375 34.786 C 80.33 32.833 80.17 29.738998 78.908 27.527 C 77.476 25.006 74.894 23.538 72.099 23.33 L 74.828 30.393 L 71.887 34.457 L 66.852005 33.445 L 63.952003 26.888 C 61.710003 29.659 61.202003 33.48 62.977005 36.603 C 63.422005 37.376 63.971004 38.056 64.604004 38.624 C 65.188 39.302002 67.852005 42.556 68.104004 45.739 C 68.356 48.98 66.969 65.384995 66.90501 70.048996 C 66.88901 70.268 67.01601 71.644 67.159004 72.065994 C 68.05 74.66699 70.87601 76.046 73.47201 75.163994 C 75.84701 74.35099 77.00701 71.937 76.74301 69.522995 C 76.50301 63.444996 74.55901 47.985992 74.92101 45.569996 C 75.455 41.965 78.423 36.73 79.375 34.786 z M 71.928 72.12 C 70.865 72.12 70.006004 71.26 70.006004 70.195 C 70.006004 69.134 70.86301 68.274 71.928 68.274 C 72.991005 68.274 73.854004 69.133 73.854004 70.195 C 73.854 71.26 72.99 72.12 71.928 72.12 z "/>
</svg>
