<?xml version="1.0" encoding="UTF-8"?>
<svg xmlns="http://www.w3.org/2000/svg" xmlns:xlink="http://www.w3.org/1999/xlink" contentScriptType="text/ecmascript" zoomAndPan="magnify" baseProfile="tiny" contentStyleType="text/css" version="1.1" width="98.855px" preserveAspectRatio="xMidYMid meet" viewBox="0 0 98.855 88" height="88px" x="0px" y="0px">
    <path d="M 97.033 19.805 C 95.952995 17.955 93.951996 16.809 91.81 16.809 L 89.574 16.809 L 89.614 11.8029995 C 89.638 10.188 89.004 8.605 87.885 7.4709997 C 86.755005 6.319 85.181 5.658 83.568 5.658 L 72.81 5.658 C 69.474 5.658 66.761 8.371 66.761 11.705999 L 66.761 16.81 L 64.521 16.810999 C 62.750004 16.810999 61.081005 17.606998 59.947002 18.918 C 58.379 18.050999 56.732002 17.292 55.015003 16.66 C 55.479004 15.653 55.744003 14.532 55.744003 13.351999 C 55.744003 8.973 52.182003 5.4109993 47.805004 5.4109993 L 37.582 5.4109993 C 33.203 5.4109993 29.639 8.973999 29.639 13.351999 C 29.639 14.539999 29.904 15.674999 30.375 16.689999 C 30.01 16.829998 29.645 16.973 29.281 17.126 C 27.893 16.048 26.196 15.457999 24.41 15.457999 C 22.287 15.457999 20.295 16.282999 18.795 17.786 C 17.297 19.285 16.473 21.279999 16.473 23.402 C 16.473 24.245 16.604 25.068 16.855999 25.848 C 10.855999 32.36 7.480999 40.899 7.480999 49.817 C 7.480999 69.343 23.369999 85.233 42.898 85.233 C 54.828 85.233 65.743 79.337006 72.347 69.43 C 72.347 69.43 77.037 63.294 77.991 53.326 C 78.028 53.328 78.062 53.333 78.098 53.333 C 80.277 53.333 82.295 52.152 83.369 50.246002 L 97.082 25.822002 C 98.129 23.961 98.113 21.654 97.033 19.805 z M 47.771 67.854 C 46.565998 66.673 44.917 65.945 43.105 65.945 C 41.251 65.945 39.572 66.709 38.364 67.932 C 31.749998 66.251 26.454998 60.961 24.776999 54.347 C 26.005999 53.138 26.763998 51.456 26.763998 49.603 C 26.763998 47.788002 26.034998 46.14 24.852999 44.937 C 26.64 38.292 31.977999 33.148003 38.708 31.614 C 39.88 32.645 41.419 33.266 43.104 33.266 C 44.729 33.266 46.225 32.678997 47.383 31.703 L 48.399998 31.952 L 48.399998 43.447998 C 46.992996 42.214996 45.149998 41.461 43.130997 41.461 C 38.713997 41.461 35.118996 45.055 35.118996 49.471 C 35.118996 53.356 37.893997 56.603 41.563995 57.33 L 50.704994 66.471 C 50.772995 66.538 50.850994 66.601 50.921993 66.662 C 49.912 67.148 48.864 67.559 47.771 67.854 z " fill-opacity="0.5" stroke-opacity="0.5"/>
    <path fill="none" d="M 46.612 49.471 C 46.612 49.617 46.588 49.754 46.568 49.897 L 56.923 60.25 C 57.753002 61.08 57.753002 62.431 56.923 63.265 C 56.506 63.677998 55.96 63.889 55.414 63.889 C 54.870003 63.889 54.325 63.678 53.909 63.265 L 43.555 52.91 C 43.416 52.926 43.278 52.953 43.131 52.953 C 41.211002 52.953 39.652 51.397 39.652 49.474 C 39.652 47.554 41.213 45.995 43.131 45.995 C 45.049 45.995 46.612 47.551 46.612 49.471 z "/>
    <path d="M 39.654 51.286 C 39.654 53.207 41.215 54.765 43.133 54.765 C 43.279 54.765 43.416 54.738 43.557 54.724 L 53.911 65.074 C 54.327 65.49 54.871998 65.698 55.416 65.698 C 55.960003 65.698 56.508 65.49 56.925 65.074 C 57.755 64.243 57.755 62.894997 56.925 62.064 L 46.57 51.71 C 46.59 51.569 46.614 51.433 46.614 51.287 C 46.614 49.362 45.053997 47.808 43.135 47.808 C 41.216 47.808 39.654 49.361 39.654 51.286 z "/>
    <path d="M 45.234 74.729 L 45.234 74.418 C 45.234 73.239 44.281002 72.289 43.105 72.289 C 41.928 72.289 40.975998 73.239 40.975998 74.418 L 40.975998 74.759 C 29.700998 73.83 20.688997 64.82 19.761997 53.545002 L 20.102997 53.545002 C 21.280996 53.545002 22.233997 52.593002 22.233997 51.413002 C 22.233997 50.239002 21.280998 49.283 20.102997 49.283 L 19.791996 49.283 C 20.907 38.209 29.849 29.412 40.982 28.5 C 41.026997 29.637 41.956997 30.543 43.102997 30.543 C 44.237995 30.543 45.159996 29.65 45.221996 28.529999 C 46.307995 28.64 47.362995 28.842999 48.398994 29.098 L 48.398994 21.251 C 47.706993 21.123 47.002995 21.017 46.296993 20.935999 L 46.296993 18.57 L 47.795994 18.57 C 49.680992 18.57 51.202995 17.045 51.202995 15.163 C 51.202995 13.28 49.680996 11.757 47.795994 11.757 L 37.574 11.757 C 35.692 11.757 34.165 13.28 34.165 15.163 C 34.165 17.045 35.692 18.57 37.574 18.57 L 39.482002 18.57 L 39.482002 20.935999 C 35.505 21.373999 31.761002 22.57 28.386002 24.372 L 26.814001 22.803 C 25.484001 21.473999 23.324001 21.473999 21.995 22.803 C 20.664001 24.133 20.664001 26.291 21.995 27.619999 L 22.683 28.307999 C 16.15 33.975 12.006 42.325 12.006 51.63 C 12.006 68.658005 25.861 82.514 42.892 82.514 C 53.961 82.514 63.687996 76.655 69.141 67.874 L 63.503 62.238 C 59.988 69.057 53.21 73.925 45.234 74.729 z "/>
    <linearGradient x1="31.801" gradientTransform="matrix(1 0 0 1 16.7998 656.5898)" y1="-646.6445" x2="31.801" gradientUnits="userSpaceOnUse" y2="-575.8851" xlink:type="simple" xlink:actuate="onLoad" id="SVGID_1_" xlink:show="other">
        <stop stop-color="#47e6eb" offset="0"/>
        <stop stop-color="#007cba" offset="1"/>
    </linearGradient>
    <path fill="url(#SVGID_1_)" d="M 39.654 49.471 C 39.654 51.396 41.215 52.95 43.133 52.95 C 43.279 52.95 43.416 52.923 43.557 52.907 L 53.911 63.26 C 54.327 63.674 54.871998 63.884 55.416 63.884 C 55.960003 63.884 56.508 63.674 56.925 63.26 C 57.755 62.426 57.755 61.077 56.925 60.246998 L 46.57 49.894 C 46.59 49.751 46.614 49.615 46.614 49.466 C 46.614 47.546 45.053997 45.989 43.135 45.989 C 41.216 45.989 39.654 47.551 39.654 49.471 z "/>
    <linearGradient x1="23.7727" gradientTransform="matrix(1 0 0 1 16.7998 656.5898)" y1="-646.6455" x2="23.7727" gradientUnits="userSpaceOnUse" y2="-575.8887" xlink:type="simple" xlink:actuate="onLoad" id="SVGID_2_" xlink:show="other">
        <stop stop-color="#47e6eb" offset="0"/>
        <stop stop-color="#007cba" offset="1"/>
    </linearGradient>
    <path fill="url(#SVGID_2_)" d="M 45.234 72.916 L 45.234 72.607 C 45.234 71.431 44.281002 70.479004 43.105 70.479004 C 41.928 70.479004 40.975998 71.43101 40.975998 72.607 L 40.975998 72.949005 C 29.700998 72.019005 20.688997 63.009007 19.761997 51.734005 L 20.102997 51.734005 C 21.280996 51.734005 22.233997 50.782005 22.233997 49.603004 C 22.233997 48.426003 21.280998 47.474003 20.102997 47.474003 L 19.791996 47.474003 C 20.907 36.396 29.849 27.6 40.982 26.688 C 41.026997 27.826 41.956997 28.733 43.102997 28.733 C 44.237995 28.733 45.159996 27.839 45.221996 26.719 C 46.307995 26.826 47.362995 27.032 48.398994 27.284 L 48.398994 19.44 C 47.706993 19.314001 47.002995 19.203001 46.296993 19.125 L 46.296993 16.759 L 47.795994 16.759 C 49.680992 16.759 51.202995 15.234001 51.202995 13.354001 C 51.202995 11.469001 49.680996 9.945002 47.795994 9.945002 L 37.574 9.945002 C 35.692 9.945002 34.165 11.469002 34.165 13.354002 C 34.165 15.234002 35.692 16.759003 37.574 16.759003 L 39.482002 16.759003 L 39.482002 19.125002 C 35.505 19.564001 31.761002 20.758001 28.386002 22.562002 L 26.814001 20.990002 C 25.484001 19.661001 23.324001 19.659002 21.995 20.991001 C 20.664001 22.323002 20.664001 24.479 21.995 25.811 L 22.683 26.496 C 16.150002 32.163002 12.005 40.515 12.005 49.819 C 12.005 66.847 25.86 80.701996 42.891 80.701996 C 53.96 80.701996 63.686996 74.841995 69.14 66.062996 L 63.502 60.426994 C 59.988 67.242 53.21 72.113 45.234 72.916 z "/>
    <path d="M 59.338 27.844 C 58.914 27.077 58.68 26.24 58.611 25.39 C 56.854 24.348 54.998 23.455 53.039 22.777 L 53.039 45.66 L 71.289 63.91 C 72.676 60.644 73.523 57.097 73.701004 53.366 C 73.407005 53.039 73.13901 52.684002 72.91801 52.292 L 59.338 27.844 z "/>
    <linearGradient x1="46.4641" gradientTransform="matrix(1 0 0 1 16.7998 656.5898)" y1="-635.8633" x2="46.4641" gradientUnits="userSpaceOnUse" y2="-594.7305" xlink:type="simple" xlink:actuate="onLoad" id="SVGID_3_" xlink:show="other">
        <stop stop-color="#f53f60" offset="0"/>
        <stop stop-color="#ad132f" offset="1"/>
    </linearGradient>
    <path fill="url(#SVGID_3_)" d="M 59.232 25.795 C 58.808 25.027 58.572 24.19 58.503 23.338 C 56.746 22.296 54.892 21.404999 52.933 20.727 L 52.933 43.61 L 71.183 61.86 C 72.57 58.592 73.415 55.045002 73.595 51.317 C 73.301 50.989002 73.032 50.632 72.812004 50.242 L 59.232 25.795 z "/>
    <path d="M 92.713 24.327 C 92.524994 24.006 92.182 23.808 91.811 23.808 L 84.534996 23.808 L 84.616 13.724001 C 84.619995 13.443001 84.512 13.169001 84.314995 12.970001 C 84.118 12.770001 83.84799 12.6570015 83.56699 12.6570015 L 72.808 12.6570015 C 72.229996 12.6570015 71.756996 13.127002 71.756996 13.705002 L 71.756996 23.81 L 64.519 23.810999 C 64.147995 23.810999 63.802 24.005 63.616997 24.327 C 63.427998 24.647999 63.423996 25.043 63.602997 25.368 L 77.173 49.799 C 77.361 50.131 77.708 50.336998 78.088 50.339 L 78.090996 50.339 C 78.468994 50.339 78.81999 50.134 79.003 49.804 L 92.724 25.37 C 92.906 25.045 92.903 24.648 92.713 24.327 z "/>
    <linearGradient x1="2971.1492" gradientTransform="matrix(1 0 0 1 -2892.9844 -6118.1348)" y1="6128.792" x2="2971.1492" gradientUnits="userSpaceOnUse" y2="6166.4727" xlink:type="simple" xlink:actuate="onLoad" id="SVGID_4_" xlink:show="other">
        <stop stop-color="#edf5b3" offset="0"/>
        <stop stop-color="#7fa608" offset="1"/>
    </linearGradient>
    <path fill="url(#SVGID_4_)" d="M 92.713 22.327 C 92.524994 22.006 92.182 21.808 91.811 21.808 L 84.534996 21.808 L 84.616 11.724001 C 84.619995 11.443001 84.512 11.169001 84.314995 10.970001 C 84.118 10.770001 83.84799 10.6570015 83.56699 10.6570015 L 72.808 10.6570015 C 72.229996 10.6570015 71.756996 11.127002 71.756996 11.705002 L 71.756996 21.81 L 64.519 21.810999 C 64.147995 21.810999 63.802 22.005 63.616997 22.327 C 63.427998 22.647999 63.423996 23.043 63.602997 23.368 L 77.173 47.799 C 77.361 48.131 77.708 48.336998 78.088 48.339 L 78.090996 48.339 C 78.468994 48.339 78.81999 48.134 79.003 47.804 L 92.724 23.37 C 92.906 23.045 92.903 22.648 92.713 22.327 z "/>
</svg>
