<?xml version="1.0" encoding="UTF-8"?>
<svg xmlns="http://www.w3.org/2000/svg" xmlns:xlink="http://www.w3.org/1999/xlink" contentScriptType="text/ecmascript" zoomAndPan="magnify" baseProfile="tiny" contentStyleType="text/css" version="1.1" width="85px" preserveAspectRatio="xMidYMid meet" viewBox="0 0 85 91.994" height="91.994px" x="0px" y="0px">
    <g>
        <path d="M 30.105 8.656 L 14.948 8.656 L 13.842 28.576 L 13.656 33.202 L 16.295 33.202 L 16.295 47.728 C 14.223 48.196 12.459 49.581 11.495 51.455 C 9.911 52.799004 8.94 54.797 8.94 56.926003 L 8.94 78.07201 C 8.94 79.911 9.629 81.618004 10.813 82.91 C 11.427 86.233 14.349 88.756004 17.847 88.756004 L 27.21 88.756004 C 30.709 88.756004 33.628 86.231 34.244 82.91 C 35.427 81.614006 36.117 79.911 36.117 78.07201 L 36.117 56.926 C 36.118 54.799 35.147 52.801 33.564 51.454998 C 32.598 49.582996 30.833 48.196 28.762 47.728996 L 28.762 33.204 L 31.473 33.204 L 30.105 8.656 " fill-opacity="0.5"/>
        <path d="M 51.163 4.772 L 57.157997 20.284 L 55.511997 22.560001 L 52.468998 21.947 L 45.858997 7.005 L 41.344997 12.581 C 36.501 18.566 35.734997 26.582 39.389996 33.003002 C 40.260994 34.533 41.348995 35.913002 42.628994 37.111 C 44.214993 39.0 46.766994 42.753 47.003994 45.758 C 47.200993 48.287 46.596992 55.446 46.061993 61.763 C 45.581993 67.412 45.128994 72.75 45.081993 76.194 L 45.083992 76.194 C 45.073994 77.278 45.309994 79.681 45.721992 80.894 C 47.430992 85.876 52.11299 89.218994 57.36999 89.218994 C 58.72599 89.218994 60.067993 88.993996 61.359993 88.55399 C 66.78099 86.7 70.12799 81.17999 69.535995 75.09999 C 69.336 70.34699 68.531 64.065994 67.81899 58.512993 C 67.20799 53.769993 66.37899 47.26699 66.58599 45.784992 C 67.19299 41.699993 70.49899 35.302994 72.274994 31.865993 C 72.68199 31.073994 73.034 30.393993 73.298996 29.857994 C 75.491 25.372993 75.131996 18.927994 72.425995 14.183994 C 69.51399 9.064995 64.147995 5.739994 58.077995 5.2879944 L 51.163 4.772 " fill-opacity="0.5"/>
    </g>
    <path d="M 29.938 56.079 C 29.75 54.738 28.6 53.691998 27.208 53.691998 L 24.375 53.691998 L 24.375 32.271 C 24.845 31.055 26.826 30.573 26.826 30.573 L 26.835001 30.573 L 25.958 14.792 L 19.093 14.792 L 18.216 30.573 L 18.288 30.573 C 18.288 30.573 20.12 31.019 20.676 32.136 L 20.676 53.692 L 17.844 53.692 C 16.453 53.692 15.302 54.736 15.114 56.081 C 14.070001 56.486 13.321 57.499 13.321 58.683002 L 13.321 79.829 C 13.321 80.999 14.049 82.003006 15.076 82.417 L 15.076 83.359 C 15.076 84.883 16.321001 86.131004 17.845001 86.131004 L 27.208 86.131004 C 28.733 86.131004 29.978 84.885 29.978 83.359 L 29.978 82.417 C 31.002 82.003 31.731 80.998 31.731 79.829 L 31.731 58.681 C 31.732 57.499 30.984 56.487 29.938 56.079 "/>
    <path d="M 69.36 29.685 C 70.881004 26.573 70.629 21.636 68.615 18.106998 C 66.329994 14.0929985 62.207996 11.744999 57.752 11.412998 L 62.107998 22.677998 L 57.413 29.167997 L 49.378 27.549997 L 44.751 17.089996 C 41.172 21.508997 40.362 27.607996 43.197 32.587997 C 43.904 33.829 44.784 34.907997 45.794 35.818996 C 46.723 36.896996 50.971 42.087997 51.377 47.166996 C 51.78 52.336998 49.566998 70.56699 49.466 78.008995 C 49.439 78.35999 49.64 80.55499 49.868 81.228 C 51.289 85.37299 55.795 87.582 59.941 86.16499 C 63.730003 84.868 65.579 81.020996 65.162 77.17099 C 64.772 67.47099 61.675003 50.75099 62.252003 46.89599 C 63.104 41.141 67.839 32.787 69.36 29.685 M 57.48 81.311 C 55.787 81.311 54.413 79.936 54.413 78.242 C 54.413 76.548 55.787 75.173 57.48 75.173 C 59.175 75.173 60.55 76.548 60.55 78.242 C 60.55 79.936 59.176 81.311 57.48 81.311 "/>
    <linearGradient x1="561.0469" gradientTransform="matrix(1 0 0 1 -538.5195 -1499.6113)" y1="1512.6494" x2="561.0469" gradientUnits="userSpaceOnUse" y2="1583.9883" xlink:type="simple" xlink:actuate="onLoad" id="SVGID_1_" xlink:show="other">
        <stop stop-color="#cedade" offset="0"/>
        <stop stop-color="#919191" offset="1"/>
    </linearGradient>
    <path fill="url(#SVGID_1_)" d="M 29.938 54.326 C 29.75 52.986 28.6 51.939 27.208 51.939 L 24.375 51.939 L 24.375 30.518 C 24.845 29.303999 26.826 28.819 26.826 28.819 L 26.835001 28.819 L 25.958 13.0390005 L 19.093 13.0390005 L 18.216 28.819 L 18.288 28.819 C 18.288 28.819 20.12 29.267 20.676 30.384 L 20.676 51.939003 L 17.844 51.939003 C 16.453 51.939003 15.302 52.983 15.114 54.327003 C 14.070001 54.731003 13.321 55.746002 13.321 56.927002 L 13.321 78.074005 C 13.321 79.243004 14.049 80.24801 15.076 80.663 L 15.076 81.605 C 15.076 83.128006 16.321001 84.37701 17.845001 84.37701 L 27.208 84.37701 C 28.733 84.37701 29.978 83.130005 29.978 81.605 L 29.978 80.663 C 31.002 80.248 31.731 79.243004 31.731 78.074005 L 31.731 56.926 C 31.732 55.743 30.984 54.732 29.938 54.326 "/>
    <linearGradient x1="594.4346" gradientTransform="matrix(1 0 0 1 -538.5195 -1499.6113)" y1="1509.2715" x2="594.4345" gradientUnits="userSpaceOnUse" y2="1584.4502" xlink:type="simple" xlink:actuate="onLoad" id="SVGID_2_" xlink:show="other">
        <stop stop-color="#cedade" offset="0"/>
        <stop stop-color="#919191" offset="1"/>
    </linearGradient>
    <path fill="url(#SVGID_2_)" d="M 69.36 27.932 C 70.881004 24.819 70.629 19.882 68.615 16.354 C 66.33 12.34 62.208 9.992 57.752 9.66 L 62.107998 20.925 L 57.413 27.414 L 49.380997 25.796999 L 44.753 15.336999 C 41.174 19.755 40.364 25.854 43.198997 30.834 C 43.906 32.076 44.786 33.152 45.795998 34.065 C 46.725 35.143997 50.974 40.333 51.377 45.412 C 51.781 50.582 49.568 68.812 49.466 76.253 C 49.44 76.602 49.64 78.798996 49.869 79.472 C 51.291 83.618 55.797 85.826004 59.942 84.409 C 63.732002 83.111 65.579 79.265 65.163 75.416 C 64.774 65.716 61.676003 48.997 62.252003 45.14 C 63.104 39.388 67.839 31.034 69.36 27.932 M 57.48 79.557 C 55.787 79.557 54.413 78.181 54.413 76.488 C 54.413 74.794 55.787 73.421 57.48 73.421 C 59.175 73.421 60.55 74.794 60.55 76.488 C 60.551 78.181 59.176 79.557 57.48 79.557 "/>
</svg>
