<?xml version="1.0" encoding="UTF-8"?>
<svg xmlns="http://www.w3.org/2000/svg" xmlns:xlink="http://www.w3.org/1999/xlink" contentScriptType="text/ecmascript" zoomAndPan="magnify" baseProfile="tiny" contentStyleType="text/css" version="1.1" width="88px" preserveAspectRatio="xMidYMid meet" viewBox="0 0 88 88" height="88px" x="0px" y="0px">
    <g>
        <path d="M 33.198 82.063 C 31.114002 82.063 29.152002 81.25201 27.675003 79.77901 L 3.381 55.484 C 1.1370001 53.252003 0.4690001 49.903 1.686 46.964 C 2.9 44.031002 5.7349997 42.14 8.91 42.14 L 9.51 42.14 C 9.283 41.821 9.079 41.482 8.899 41.12 C 7.566 38.465 7.8320003 35.341 9.594 32.954998 L 16.618 23.462997 C 18.076 21.483997 20.428 20.295998 22.903 20.295998 L 47.697998 20.295998 L 47.697998 13.312998 C 47.697998 10.138998 49.593 7.304998 52.524 6.0919976 C 53.486 5.6939974 54.489 5.496998 55.517 5.496998 C 57.605 5.496998 59.567997 6.309998 61.045 7.785998 L 85.334 32.073997 C 87.58 34.318996 88.243 37.665997 87.026 40.6 C 85.815 43.524 82.978004 45.417 79.805 45.417 L 79.202 45.417 C 79.426 45.735 79.632 46.072 79.80801 46.428 C 81.146 49.089 80.881004 52.216003 79.117004 54.601 L 72.095 64.091 C 70.627 66.076004 68.278 67.26 65.808 67.26 L 41.015 67.26 L 41.015 74.241005 C 41.015 77.41 39.123 80.242004 36.2 81.46001 C 35.212 81.867 34.217 82.063 33.198 82.063 L 33.198 82.063 z " fill-opacity="0.5" stroke-opacity="0.5"/>
        <path d="M 74.681 50.681 C 75.032 51.374 74.959 52.214 74.495 52.841 L 67.476006 62.331 C 67.08501 62.856003 66.468 63.169003 65.812004 63.169003 L 35.265 63.169003 L 35.265 75.899 C 35.265 76.737 34.762 77.490005 33.991 77.808 C 33.733 77.915 33.467003 77.966995 33.199 77.966995 C 32.66 77.966995 32.132 77.757996 31.738 77.363 L 7.45 53.077 C 6.858 52.482998 6.6819997 51.595 7.002 50.821 C 7.3199997 50.049 8.076 49.544 8.911 49.544 L 72.833 49.544 C 73.614 49.541 74.328 49.981 74.681 50.681 z M 81.271 37.794 L 56.981 13.507 C 56.388 12.914 55.503998 12.739 54.726997 13.058 C 53.954998 13.377999 53.451996 14.134 53.451996 14.969999 L 53.451996 27.701 L 22.906 27.701 C 22.25 27.701 21.632 28.013 21.244 28.538 L 14.223 38.028 C 13.759 38.655 13.686 39.489 14.039 40.189 C 14.391 40.885 15.106 41.325 15.884 41.325 L 79.807 41.325 C 80.645996 41.325 81.398 40.82 81.718 40.049 C 82.04 39.277 81.862 38.387 81.271 37.794 z "/>
        <linearGradient x1="27.5605" gradientTransform="matrix(1 0 0 1 16.7998 656.5898)" y1="-645.3438" x2="27.5605" gradientUnits="userSpaceOnUse" y2="-580.2773" xlink:type="simple" xlink:actuate="onLoad" id="SVGID_1_" xlink:show="other">
            <stop stop-color="#74c9c1" offset="0"/>
            <stop stop-color="#007d80" offset="1"/>
        </linearGradient>
        <path fill="url(#SVGID_1_)" d="M 74.681 49.024 C 75.032 49.723 74.959 50.558 74.495 51.19 L 67.476006 60.675 C 67.08501 61.202 66.468 61.512 65.812004 61.512 L 35.265 61.512 L 35.265 74.243004 C 35.265 75.078 34.762 75.833 33.991 76.15401 C 33.733 76.25901 33.467003 76.311005 33.199 76.311005 C 32.66 76.311005 32.132 76.09901 31.738 75.705 L 7.45 51.419 C 6.858 50.828 6.6819997 49.938 7.002 49.163998 C 7.3199997 48.392 8.076 47.891 8.911 47.891 L 72.833 47.891 C 73.614 47.889 74.328 48.328 74.681 49.024 z M 81.271 36.14 L 56.981 11.852 C 56.388 11.259 55.503998 11.084001 54.726997 11.403 C 53.954998 11.722 53.451996 12.479 53.451996 13.312 L 53.451996 26.045 L 22.906 26.045 C 22.25 26.045 21.632 26.355 21.244 26.883 L 14.223 36.371 C 13.759 36.996998 13.686 37.835 14.039 38.531998 C 14.391 39.23 15.106 39.668 15.884 39.668 L 79.807 39.668 C 80.645996 39.668 81.398 39.165 81.718 38.395 C 82.04 37.622 81.862 36.732 81.271 36.14 z "/>
    </g>
</svg>
