<?xml version="1.0" encoding="UTF-8"?>
<svg xmlns="http://www.w3.org/2000/svg" xmlns:xlink="http://www.w3.org/1999/xlink" contentScriptType="text/ecmascript" zoomAndPan="magnify" baseProfile="tiny" contentStyleType="text/css" version="1.1" width="26px" preserveAspectRatio="xMidYMid meet" viewBox="0 0 26 26" height="26px" x="0px" y="0px">
    <g>
        <path fill="none" d="M 15.633 12.334 C 15.633 12.250999 15.629001 12.17 15.621 12.087 C 15.567 11.445 15.308001 10.861 14.905001 10.404 C 14.809001 10.294001 14.706 10.189 14.593 10.094 C 14.133 9.702 13.551001 9.45 12.912001 9.404 C 12.840001 9.400001 12.766001 9.394 12.691001 9.394 C 12.618001 9.394 12.545001 9.4 12.471001 9.404 C 11.832001 9.451 11.250001 9.703 10.790001 10.094 C 10.678 10.189 10.574001 10.292 10.477001 10.404 C 10.078001 10.861 9.817001 11.445001 9.763001 12.087 C 9.755001 12.17 9.751001 12.250999 9.751001 12.334 C 9.751001 12.398 9.753001 12.462 9.758001 12.525 C 9.800001 13.172999 10.054001 13.766 10.450002 14.233999 C 10.546001 14.343999 10.647001 14.448999 10.759002 14.546999 C 11.224002 14.952999 11.819002 15.216999 12.470001 15.263999 C 12.542001 15.271999 12.616001 15.275999 12.6900015 15.275999 C 12.764002 15.275999 12.837002 15.271999 12.911001 15.263999 C 13.562001 15.216999 14.1570015 14.952999 14.622002 14.546999 C 14.731002 14.448999 14.835002 14.345999 14.931002 14.233999 C 15.327002 13.765999 15.581001 13.172999 15.623002 12.525 C 15.63 12.462 15.633 12.398 15.633 12.334 z "/>
        <linearGradient x1="10.1831" gradientTransform="matrix(1 0 0 -1 8.3999 2.1602)" y1="-3.7617" x2="10.1831" gradientUnits="userSpaceOnUse" y2="-9.9268" xlink:type="simple" xlink:actuate="onLoad" id="SVGID_1_" xlink:show="other">
            <stop stop-color="#47e6eb" offset="0"/>
            <stop stop-color="#007cba" offset="1"/>
        </linearGradient>
        <path fill="url(#SVGID_1_)" d="M 19.389 5.922 L 15.218 10.093 C 15.6970005 10.633 16.006 11.324 16.062 12.087 L 21.949001 12.087 C 21.89 9.699 20.928 7.533 19.389 5.922 z "/>
        <linearGradient x1="7.5967" gradientTransform="matrix(1 0 0 -1 8.3999 2.1602)" y1="-0.8926" x2="7.5967" gradientUnits="userSpaceOnUse" y2="-7.625" xlink:type="simple" xlink:actuate="onLoad" id="SVGID_2_" xlink:show="other">
            <stop stop-color="#47e6eb" offset="0"/>
            <stop stop-color="#007cba" offset="1"/>
        </linearGradient>
        <path fill="url(#SVGID_2_)" d="M 12.914 8.965 C 13.672999 9.014 14.363 9.317 14.903999 9.785 L 19.078999 5.612 C 17.467 4.073 15.300999 3.109 12.913999 3.053 L 12.913999 8.965 z "/>
        <linearGradient x1="-1.5942" gradientTransform="matrix(1 0 0 -1 8.3999 2.1602)" y1="-3.7607" x2="-1.5942" gradientUnits="userSpaceOnUse" y2="-9.9258" xlink:type="simple" xlink:actuate="onLoad" id="SVGID_3_" xlink:show="other">
            <stop stop-color="#edf5b3" offset="0"/>
            <stop stop-color="#7fa608" offset="1"/>
        </linearGradient>
        <path fill="url(#SVGID_3_)" d="M 10.171 10.092 L 6.0 5.921 C 4.461 7.533 3.497 9.699 3.44 12.086 L 9.327 12.086 C 9.383 11.324 9.69 10.633 10.171 10.092 z "/>
        <linearGradient x1="0.9912" gradientTransform="matrix(1 0 0 -1 8.3999 2.1602)" y1="-12.6973" x2="0.9912" gradientUnits="userSpaceOnUse" y2="-19.3994" xlink:type="simple" xlink:actuate="onLoad" id="SVGID_4_" xlink:show="other">
            <stop stop-color="#f53f60" offset="0"/>
            <stop stop-color="#ad132f" offset="1"/>
        </linearGradient>
        <path fill="url(#SVGID_4_)" d="M 12.474 15.703 C 11.702 15.652 10.997 15.343 10.453 14.857 L 6.308 19.002 C 7.92 20.54 10.086 21.503 12.473 21.560001 L 12.473 15.703 z "/>
        <linearGradient x1="7.5967" gradientTransform="matrix(1 0 0 -1 8.3999 2.1602)" y1="-12.6973" x2="7.5967" gradientUnits="userSpaceOnUse" y2="-19.3984" xlink:type="simple" xlink:actuate="onLoad" id="SVGID_5_" xlink:show="other">
            <stop stop-color="#ffcf75" offset="0"/>
            <stop stop-color="#ba6b16" offset="1"/>
        </linearGradient>
        <path fill="url(#SVGID_5_)" d="M 12.914 15.703 L 12.914 21.558 C 15.301 21.501001 17.467 20.538 19.078999 19.0 L 14.933998 14.856 C 14.39 15.342 13.687 15.652 12.914 15.703 z "/>
        <linearGradient x1="10.1963" gradientTransform="matrix(1 0 0 -1 8.3999 2.1602)" y1="-10.3652" x2="10.1963" gradientUnits="userSpaceOnUse" y2="-16.5313" xlink:type="simple" xlink:actuate="onLoad" id="SVGID_6_" xlink:show="other">
            <stop stop-color="#ffcf75" offset="0"/>
            <stop stop-color="#ba6b16" offset="1"/>
        </linearGradient>
        <path fill="url(#SVGID_6_)" d="M 15.244 14.546 L 19.389 18.692 C 20.928 17.077 21.891 14.912999 21.949 12.525999 L 16.067 12.525999 C 16.021 13.296 15.719 13.998 15.244 14.546 z "/>
        <linearGradient x1="0.9912" gradientTransform="matrix(1 0 0 -1 8.3999 2.1602)" y1="-0.8936" x2="0.9912" gradientUnits="userSpaceOnUse" y2="-7.625" xlink:type="simple" xlink:actuate="onLoad" id="SVGID_7_" xlink:show="other">
            <stop stop-color="#edf5b3" offset="0"/>
            <stop stop-color="#7fa608" offset="1"/>
        </linearGradient>
        <path fill="url(#SVGID_7_)" d="M 12.474 8.965 L 12.474 3.054 C 10.087 3.11 7.921 4.074 6.309 5.613 L 10.483 9.785 C 11.023 9.314 11.716 9.013 12.474 8.965 z "/>
        <linearGradient x1="-1.6079" gradientTransform="matrix(1 0 0 -1 8.3999 2.1602)" y1="-10.3652" x2="-1.6079" gradientUnits="userSpaceOnUse" y2="-16.5313" xlink:type="simple" xlink:actuate="onLoad" id="SVGID_8_" xlink:show="other">
            <stop stop-color="#f53f60" offset="0"/>
            <stop stop-color="#ad132f" offset="1"/>
        </linearGradient>
        <path fill="url(#SVGID_8_)" d="M 10.144 14.546 C 9.668 13.997999 9.366 13.296 9.3220005 12.525 L 3.44 12.525 C 3.496 14.912 4.461 17.076 6.0 18.691 L 10.144 14.546 z "/>
        <path fill="#344036" d="M 12.693 2.612 C 7.348 2.612 3.0 6.962 3.0 12.307 C 3.0 17.652 7.349 22.0 12.693 22.0 C 18.039 22.0 22.387001 17.652 22.387001 12.307 C 22.388 6.962 18.039 2.612 12.693 2.612 z M 16.061 12.087 C 16.005001 11.323999 15.698001 10.632999 15.217001 10.093 L 19.388 5.9220004 C 20.927 7.5330005 21.890001 9.699 21.948 12.087 L 16.061 12.087 z M 14.625 14.547 C 14.16 14.953 13.565001 15.217 12.914 15.264 C 12.842 15.272 12.768 15.276 12.693999 15.276 C 12.619999 15.276 12.546999 15.272 12.473 15.264 C 11.822 15.217 11.226999 14.953 10.761999 14.547 C 10.652999 14.449 10.548999 14.346 10.452999 14.234 C 10.056999 13.766 9.8029995 13.173 9.760999 12.525001 C 9.755999 12.462001 9.753999 12.398001 9.753999 12.334001 C 9.753999 12.251 9.757998 12.170001 9.765999 12.087001 C 9.819999 11.445001 10.078999 10.861001 10.480999 10.404001 C 10.577999 10.294002 10.679999 10.189001 10.792999 10.094001 C 11.252999 9.702001 11.834999 9.450001 12.473999 9.404001 C 12.545999 9.400002 12.619999 9.394001 12.694999 9.394001 C 12.767999 9.394001 12.840999 9.400001 12.914999 9.404001 C 13.553999 9.451001 14.135999 9.703001 14.595999 10.094001 C 14.706999 10.189001 14.811998 10.292001 14.9089985 10.404001 C 15.308998 10.861001 15.570998 11.445002 15.623999 12.087001 C 15.631999 12.170001 15.635999 12.251 15.635999 12.334001 C 15.635999 12.398001 15.632998 12.462001 15.628999 12.525001 C 15.586999 13.173 15.332998 13.766001 14.936998 14.234 C 14.838 14.345 14.734 14.449 14.625 14.547 z M 14.905 9.785 C 14.363999 9.314 13.672999 9.014 12.914 8.965 L 12.914 3.054 C 15.301 3.11 17.467 4.074 19.078999 5.613 L 14.905 9.785 z M 12.474 3.053 L 12.474 8.964 C 11.715 9.013 11.024 9.315 10.483 9.783 L 6.309 5.611 C 7.922 4.073 10.088 3.109 12.474 3.053 z M 6.0 5.922 L 10.171 10.093 C 9.691999 10.633 9.382999 11.324 9.327 12.087 L 3.44 12.087 C 3.497 9.699 4.461 7.533 6.0 5.922 z M 9.322 12.525 C 9.365999 13.296 9.669 13.997999 10.143 14.546 L 5.9979997 18.692 C 4.4589996 17.077 3.4949996 14.912999 3.4379997 12.525999 L 9.322 12.525999 z M 10.453 14.857 C 10.998 15.341001 11.701 15.652 12.474 15.703 L 12.474 21.558 C 10.087 21.501001 7.921 20.538 6.309 19.0 L 10.453 14.857 z M 12.914 21.559 L 12.914 15.704 C 13.686 15.653001 14.391 15.344001 14.934999 14.858001 L 19.08 19.003 C 17.467 20.54 15.301 21.503 12.914 21.559 z M 19.389 18.691 L 15.2439995 14.545 C 15.719 13.997 16.021 13.295 16.064999 12.524 L 21.946999 12.524 C 21.89 14.912 20.928 17.076 19.389 18.691 z "/>
    </g>
</svg>
