<?xml version="1.0" encoding="UTF-8"?>
<svg xmlns="http://www.w3.org/2000/svg" xmlns:xlink="http://www.w3.org/1999/xlink" contentScriptType="text/ecmascript" zoomAndPan="magnify" baseProfile="tiny" contentStyleType="text/css" version="1.1" width="98.855px" preserveAspectRatio="xMidYMid meet" viewBox="0 0 98.855 88" height="88px" x="0px" y="0px">
    <g>
        <path d="M 85.518 28.416 C 86.647 26.498 87.292 24.266 87.292 21.884 C 87.292 14.762001 81.497 8.968 74.374 8.968 C 69.858 8.968 65.893 11.307 63.587 14.829 C 62.944 14.700001 62.282 14.631 61.605003 14.631 L 17.105003 14.631 C 11.591003 14.631 7.1050034 19.117 7.1050034 24.631 L 7.1050034 69.131 C 7.1050034 74.646 11.591003 79.131 17.105003 79.131 L 61.605003 79.131 C 67.12 79.131 71.605 74.646 71.605 69.131 L 71.605 65.954994 L 84.75 65.954994 C 89.109 65.954994 92.656 62.408993 92.656 58.050995 L 92.656 36.283 C 92.656 32.184 89.518 28.804 85.518 28.416 z " fill-opacity="0.5" stroke-opacity="0.5"/>
        <path fill="none" d="M 52.942 46.381 C 52.331 46.381 46.849003 46.499 42.741 50.607 C 42.6 50.749 42.478 50.889004 42.347 51.031 L 42.347 48.577003 C 48.035 47.589005 52.377 42.627003 52.377 36.659004 L 52.377 29.288004 C 52.377 28.511003 51.945 27.801004 51.258 27.444004 C 50.57 27.087004 49.737 27.143003 49.104 27.592005 L 44.973 33.013004 L 41.596 27.632004 C 40.852 26.996004 39.77 26.969004 38.99 27.559004 L 35.253 32.904003 L 31.493002 27.556004 C 30.863005 27.080004 30.018002 27.000004 29.314005 27.352003 C 28.608004 27.703005 28.162004 28.422005 28.162004 29.211002 L 28.162004 36.658 C 28.162004 42.626 32.508003 47.587 38.194 48.576 L 38.194 54.132 C 38.0 53.913 37.805 53.695 37.59 53.478 C 33.306 49.193 27.58 49.069 26.917 49.069 L 26.916 49.069 C 26.131 49.074 25.413 49.525 25.065 50.233 C 24.72 50.941 24.803 51.784 25.283 52.408 C 25.315 52.449 28.468 56.578003 30.099 60.299 C 31.45 63.369 33.883 65.061 36.953003 65.061 C 37.398003 65.061 37.814003 65.024994 38.191 64.966995 L 38.191 67.05299 C 38.191 68.199 39.123 69.12899 40.268 69.12899 C 41.414 69.12899 42.344 68.19899 42.344 67.05299 L 42.344 61.724995 C 42.674004 61.76799 43.030003 61.798996 43.407 61.798996 C 46.374 61.798996 48.72 60.166996 50.023003 57.206997 C 51.567 53.692 54.56 49.761997 54.591003 49.722996 C 55.070004 49.095997 55.151005 48.248997 54.800003 47.540997 C 54.456 46.829 53.732 46.381 52.942 46.381 z "/>
        <path d="M 56.605 60.051 L 56.605 38.283 C 56.605 34.345 59.5 31.071 63.273 30.475 C 62.122997 28.544 61.46 26.289 61.46 23.883 C 61.46 23.115 61.54 22.367 61.669 21.637 C 61.648 21.636 61.627 21.63 61.606 21.63 L 17.106 21.63 C 14.343999 21.63 12.105999 23.868 12.105999 26.63 L 12.105999 71.13 C 12.105999 73.892 14.343999 76.13 17.106 76.13 L 61.606 76.13 C 64.368 76.13 66.606 73.892 66.606 71.13 L 66.606 67.952995 L 64.51 67.952995 C 60.152 67.955 56.605 64.409 56.605 60.051 z M 54.597 51.719 C 54.566 51.76 51.573 55.691 50.029 59.204 C 48.726 62.164 46.38 63.795 43.413 63.795 C 43.032997 63.795 42.679996 63.766003 42.35 63.723003 L 42.35 69.051 C 42.35 70.19701 41.42 71.126 40.274 71.126 C 39.128 71.126 38.197 70.196 38.197 69.051 L 38.197 66.965004 C 37.82 67.022 37.404 67.059006 36.959 67.059006 C 33.889 67.059006 31.453 65.368004 30.105 62.29501 C 28.471 58.575005 25.321 54.446007 25.289 54.405006 C 24.81 53.78101 24.727 52.938007 25.071 52.230007 C 25.419 51.522007 26.134 51.071007 26.922 51.06601 L 26.922998 51.06601 C 27.586 51.06601 33.311996 51.190006 37.596 55.474007 C 37.814 55.694008 38.006 55.912006 38.2 56.12801 L 38.2 50.57301 C 32.512 49.584007 28.168 44.623005 28.168 38.655006 L 28.168 31.208006 C 28.168 30.419006 28.614 29.699003 29.320002 29.349009 C 30.024002 28.997007 30.869 29.078009 31.499 29.553007 L 35.259 34.90101 L 38.996 29.55601 C 39.775997 28.96601 40.858 28.994007 41.601997 29.62901 L 44.978996 35.01001 L 49.109997 29.58901 C 49.746 29.14001 50.575996 29.08301 51.263996 29.44101 C 51.951996 29.79701 52.382996 30.50701 52.382996 31.28501 L 52.382996 38.65601 C 52.382996 44.62401 48.038994 49.58501 42.352997 50.57401 L 42.352997 53.028008 C 42.483997 52.88501 42.605995 52.74601 42.747 52.604008 C 46.854996 48.49801 52.337 48.377007 52.948 48.377007 C 53.738 48.377007 54.462997 48.826008 54.811996 49.535007 C 55.156 50.246 55.076 51.094 54.597 51.719 z "/>
        <path d="M 66.459 23.884 C 66.459 19.513 70.006 15.968 74.375 15.968 C 78.75 15.968 82.293 19.513 82.293 23.884 C 82.293 28.257 78.75 31.8 74.375 31.8 C 70.006 31.8 66.459 28.257 66.459 23.884 z M 82.215 62.955 L 84.74799 62.955 C 86.34999 62.955 87.65399 61.65 87.65399 60.051003 L 87.65399 38.283 C 87.65399 36.685 86.34699 35.379 84.74799 35.379 L 79.26 35.379 L 69.998 35.379 L 64.51 35.379 C 62.912003 35.379 61.606003 36.686 61.606003 38.283 L 61.606003 60.051003 C 61.606003 61.652004 62.915 62.955 64.51 62.955 L 67.045006 62.955 L 82.215 62.955 z "/>
        <linearGradient x1="22.5564" gradientTransform="matrix(1 0 0 1 16.7998 656.5898)" y1="-636.9595" x2="22.5564" gradientUnits="userSpaceOnUse" y2="-582.459" xlink:type="simple" xlink:actuate="onLoad" id="SVGID_1_" xlink:show="other">
            <stop stop-color="#ffcf76" offset="0"/>
            <stop stop-color="#ba6d29" offset="1"/>
        </linearGradient>
        <path fill="url(#SVGID_1_)" d="M 56.605 58.051 L 56.605 36.283 C 56.605 32.345 59.5 29.071 63.273 28.475 C 62.122997 26.544 61.46 24.289 61.46 21.883 C 61.46 21.115 61.54 20.367 61.669 19.637 C 61.648 19.636 61.627 19.63 61.606 19.63 L 17.106 19.63 C 14.343999 19.63 12.105999 21.868 12.105999 24.63 L 12.105999 69.13 C 12.105999 71.892 14.343999 74.13 17.106 74.13 L 61.606 74.13 C 64.368 74.13 66.606 71.892 66.606 69.13 L 66.606 65.952995 L 64.51 65.952995 C 60.152 65.955 56.605 62.409 56.605 58.051 z M 54.597 49.719 C 54.566 49.76 51.573 53.691 50.029 57.204 C 48.726 60.164 46.38 61.795 43.413 61.795 C 43.032997 61.795 42.679996 61.766003 42.35 61.723003 L 42.35 67.051 C 42.35 68.19701 41.42 69.126 40.274 69.126 C 39.128 69.126 38.197 68.196 38.197 67.051 L 38.197 64.965004 C 37.82 65.022 37.404 65.059006 36.959 65.059006 C 33.889 65.059006 31.453 63.368004 30.105 60.29501 C 28.471 56.575005 25.321 52.446007 25.289 52.405006 C 24.81 51.78101 24.727 50.938007 25.071 50.230007 C 25.419 49.522007 26.134 49.071007 26.922 49.06601 L 26.922998 49.06601 C 27.586 49.06601 33.311996 49.190006 37.596 53.474007 C 37.814 53.694008 38.006 53.912006 38.2 54.12801 L 38.2 48.57301 C 32.512 47.584007 28.168 42.623005 28.168 36.655006 L 28.168 29.208006 C 28.168 28.419006 28.614 27.699003 29.320002 27.349009 C 30.024002 26.997007 30.869 27.078009 31.499 27.553007 L 35.259 32.90101 L 38.996 27.55601 C 39.775997 26.96601 40.858 26.994007 41.601997 27.62901 L 44.978996 33.01001 L 49.109997 27.58901 C 49.746 27.14001 50.575996 27.08301 51.263996 27.44101 C 51.951996 27.79701 52.382996 28.50701 52.382996 29.28501 L 52.382996 36.65601 C 52.382996 42.62401 48.038994 47.58501 42.352997 48.57401 L 42.352997 51.028008 C 42.483997 50.88501 42.605995 50.74601 42.747 50.604008 C 46.854996 46.49801 52.337 46.377007 52.948 46.377007 C 53.738 46.377007 54.462997 46.826008 54.811996 47.535007 C 55.156 48.246 55.076 49.094 54.597 49.719 z "/>
        <linearGradient x1="57.8298" gradientTransform="matrix(1 0 0 1 16.7998 656.5898)" y1="-642.6216" x2="57.8298" gradientUnits="userSpaceOnUse" y2="-595.6348" xlink:type="simple" xlink:actuate="onLoad" id="SVGID_2_" xlink:show="other">
            <stop stop-color="#ee4261" offset="0"/>
            <stop stop-color="#ac1e31" offset="1"/>
        </linearGradient>
        <path fill="url(#SVGID_2_)" d="M 66.459 21.884 C 66.459 17.513 70.006 13.968 74.375 13.968 C 78.75 13.968 82.293 17.513 82.293 21.884 C 82.293 26.257 78.75 29.8 74.375 29.8 C 70.006 29.8 66.459 26.257 66.459 21.884 z M 82.215 60.955 L 84.74799 60.955 C 86.34999 60.955 87.65399 59.65 87.65399 58.051003 L 87.65399 36.283 C 87.65399 34.685 86.34699 33.379 84.74799 33.379 L 79.26 33.379 L 69.998 33.379 L 64.51 33.379 C 62.912003 33.379 61.606003 34.686 61.606003 36.283 L 61.606003 58.051003 C 61.606003 59.652004 62.915 60.955 64.51 60.955 L 67.045006 60.955 L 82.215 60.955 z "/>
    </g>
</svg>
