<?xml version="1.0" encoding="UTF-8"?>
<svg xmlns="http://www.w3.org/2000/svg" xmlns:xlink="http://www.w3.org/1999/xlink" contentScriptType="text/ecmascript" zoomAndPan="magnify" baseProfile="tiny" contentStyleType="text/css" version="1.1" width="34px" preserveAspectRatio="xMidYMid meet" viewBox="0 0 34 26" height="26px" x="0px" y="0px">
    <g>
        <g>
            <linearGradient x1="-0.2998" gradientTransform="matrix(1 0 0 1 16.7998 -815.9805)" y1="792.04" x2="-0.2998" gradientUnits="userSpaceOnUse" y2="841.9689" xlink:type="simple" xlink:actuate="onLoad" id="SVGID_1_" xlink:show="other">
                <stop stop-color="#b4b4b4" offset="0"/>
                <stop stop-color="#a0a0a0" offset="0.7329"/>
                <stop stop-color="#787878" offset="1"/>
            </linearGradient>
            <path fill="url(#SVGID_1_)" d="M 32.5 24.249 C 32.5 24.943 31.936 25.509 31.24 25.509 L 1.759 25.509 C 1.0649999 25.509 0.5 24.944 0.5 24.249 L 0.5 0.509 L -0.5 0.509 L -0.5 24.249 C -0.5 25.495 0.51400006 26.509 1.759 26.509 L 31.24 26.509 C 32.486 26.509 33.5 25.495 33.5 24.249 L 33.5 0.509 L 32.5 0.509 L 32.5 24.249 z "/>
            <g>
                <linearGradient x1="-0.2998" gradientTransform="matrix(1 0 0 1 16.7998 -815.9805)" y1="849.2393" x2="-0.2998" gradientUnits="userSpaceOnUse" y2="782.9905" xlink:type="simple" xlink:actuate="onLoad" id="SVGID_2_" xlink:show="other">
                    <stop stop-color="#b4b4b4" offset="0"/>
                    <stop stop-color="#c8c8c8" offset="0.0337"/>
                    <stop stop-color="#fafafa" offset="0.264"/>
                    <stop stop-color="#fafafa" offset="0.7247"/>
                    <stop stop-color="#fafafa" offset="1"/>
                </linearGradient>
                <path fill="url(#SVGID_2_)" d="M 1.759 25.509 L 31.24 25.509 C 31.933 25.509 32.5 24.944 32.5 24.249 L 32.5 0.509 L 0.5 0.509 L 0.5 24.249 C 0.5 24.943 1.064 25.509 1.759 25.509 z " fill-opacity="0.7"/>
            </g>
            <linearGradient x1="-0.1089" gradientTransform="matrix(1 0 0 1 16.7998 -815.9805)" y1="798.1299" x2="-0.1089" gradientUnits="userSpaceOnUse" y2="850.2024" xlink:type="simple" xlink:actuate="onLoad" id="SVGID_3_" xlink:show="other">
                <stop stop-color="#fafafa" offset="0"/>
                <stop stop-color="#b4b4b4" offset="1"/>
            </linearGradient>
            <path fill="url(#SVGID_3_)" d="M 1.501 24.508 L 0.882 25.131 C 1.125 25.383 1.411 25.508 1.76 25.508 L 31.241 25.508 C 31.935 25.508 32.5 24.944 32.5 24.249 L 32.5 0.509 L 31.5 0.509 C 31.5 12.314 31.5 24.121 31.5 24.508 C 30.762 24.508 1.501 24.508 1.501 24.508 z "/>
            <polygon fill="#8c8c8c" points="23.43,8.634 9.57,8.634 16.5,17.874   "/>
            <path fill="#fafafa" d="M 0.872 25.132 C 0.875 25.145 1.5 24.504 1.5 24.504 L 1.5 1.509 L 31.499 1.509 L 32.118 0.8859999 C 31.875 0.63399994 31.589 0.50899994 31.24 0.50899994 L 1.5 0.50899994 L 0.5 0.50899994 L 0.5 24.259 C 0.5 24.604 0.643 24.911 0.872 25.132 z "/>
        </g>
        <rect x="-0.5" width="34" fill="none" y="0.509" height="26"/>
    </g>
</svg>
