<?xml version="1.0" encoding="UTF-8"?>
<svg xmlns="http://www.w3.org/2000/svg" xmlns:xlink="http://www.w3.org/1999/xlink" contentScriptType="text/ecmascript" zoomAndPan="magnify" baseProfile="tiny" contentStyleType="text/css" version="1.1" width="98.855px" preserveAspectRatio="xMidYMid meet" viewBox="0 0 98.855 88" height="88px" x="0px" y="0px">
    <g>
        <path fill="none" d="M 32.35 58.063 L 27.624998 58.063 C 26.580997 58.063 25.734999 58.909 25.734999 59.953 L 25.734999 62.315 C 25.734999 63.357998 26.581 64.206 27.624998 64.206 L 32.35 64.206 C 33.392 64.206 34.239998 63.358 34.239998 62.315002 L 34.239998 59.953003 C 34.24 58.908 33.394 58.063 32.35 58.063 z "/>
        <path fill="none" d="M 42.98 66.567 L 38.255 66.567 C 37.212 66.567 36.366 67.413 36.366 68.457 L 36.366 70.819 C 36.366 71.862 37.213 72.71 38.255 72.71 L 42.98 72.71 C 44.024 72.71 44.871 71.862 44.871 70.819 L 44.871 68.457 C 44.871 67.413 44.025 66.567 42.98 66.567 z "/>
        <path fill="none" d="M 32.35 66.567 L 27.624998 66.567 C 26.580997 66.567 25.734999 67.413 25.734999 68.457 L 25.734999 70.819 C 25.734999 71.862 26.581 72.71 27.624998 72.71 L 32.35 72.71 C 33.392 72.71 34.239998 71.862 34.239998 70.819 L 34.239998 68.457 C 34.24 67.413 33.394 66.567 32.35 66.567 z "/>
        <path fill="none" d="M 53.612 66.567 L 48.887 66.567 C 47.844 66.567 46.997 67.413 46.997 68.457 L 46.997 70.819 C 46.997 71.862 47.843002 72.71 48.887 72.71 L 53.612 72.71 C 54.655 72.71 55.503 71.862 55.503 70.819 L 55.503 68.457 C 55.503 67.413 54.656 66.567 53.612 66.567 z "/>
        <path fill="none" d="M 53.612 58.063 L 48.887 58.063 C 47.844 58.063 46.997 58.909 46.997 59.953 L 46.997 62.315 C 46.997 63.357998 47.843002 64.206 48.887 64.206 L 53.612 64.206 C 54.655 64.206 55.503 63.358 55.503 62.315002 L 55.503 59.953003 C 55.503 58.908 54.656 58.063 53.612 58.063 z "/>
        <path d="M 92.126 41.433 L 78.985 28.295 C 77.824 27.132 76.28 26.492 74.634 26.492 C 73.826004 26.492 73.034004 26.649 72.285 26.959 C 69.98 27.914 68.493004 30.142 68.493004 32.634 L 68.493004 33.062 L 67.637 33.062 L 67.637 16.482 C 67.637 11.272 63.397003 7.0320005 58.187 7.0320005 L 20.86 7.0320005 C 15.648001 7.0320005 11.410001 11.272 11.410001 16.482 L 11.410001 75.072 C 11.410001 80.283 15.648001 84.521996 20.86 84.521996 L 58.188 84.521996 C 63.398 84.521996 67.638 80.283 67.638 75.072 L 67.638 58.491997 L 68.494 58.491997 L 68.494 58.921997 C 68.494 61.413998 69.981 63.639996 72.286 64.597 C 73.035 64.907 73.826004 65.064 74.635 65.064 L 74.636 65.064 C 76.279 65.064 77.824005 64.422005 78.982 63.266003 L 92.126 50.12 C 93.287 48.96 93.923996 47.418 93.923996 45.777 C 93.925 44.136 93.287 42.596 92.126 41.433 z " fill-opacity="0.5" stroke-opacity="0.5"/>
        <path d="M 88.88 48.67 C 89.145996 48.405 89.295 48.043 89.295 47.667 C 89.295 47.292 89.145996 46.931 88.88 46.663 L 75.734 33.522 C 75.33 33.114998 74.72 32.993 74.189 33.215 C 73.66 33.435 73.315 33.952 73.315 34.526 L 73.315 39.679 L 65.840004 39.679 C 65.05801 39.679 64.423004 40.314 64.423004 41.096 L 64.423004 54.24 C 64.423004 55.022003 65.05801 55.657 65.840004 55.657 L 73.315 55.657 L 73.315 60.811 C 73.315 61.382 73.66 61.899002 74.189 62.121002 C 74.72 62.342003 75.33 62.219 75.734 61.813004 L 88.88 48.67 z "/>
        <path d="M 59.699 54.24 L 59.699 41.096 C 59.699 38.732002 61.043003 36.679 63.007 35.652 L 63.007 18.372 C 63.007 15.763 60.892 13.646999 58.282 13.646999 L 20.954 13.646999 C 18.344 13.646999 16.229 15.761999 16.229 18.372 L 16.229 76.963 C 16.229 79.572 18.344 81.687996 20.954 81.687996 L 58.281998 81.687996 C 60.891 81.687996 63.006996 79.573 63.006996 76.963 L 63.006996 59.685 C 61.043 58.657 59.699 56.604 59.699 54.24 z M 33.239 73.182 C 33.239 74.225 32.392998 75.073 31.348999 75.073 L 26.623999 75.073 C 25.581999 75.073 24.734 74.225 24.734 73.182 L 24.734 70.82 C 24.734 69.776 25.581 68.93 26.623999 68.93 L 31.348999 68.93 C 32.392998 68.93 33.239 69.776 33.239 70.82 L 33.239 73.182 z M 43.87 73.182 C 43.87 74.225 43.024 75.073 41.98 75.073 L 37.255 75.073 C 36.212 75.073 35.365 74.225 35.365 73.182 L 35.365 70.82 C 35.365 69.776 36.212 68.93 37.255 68.93 L 41.98 68.93 C 43.024 68.93 43.87 69.776 43.87 70.82 L 43.87 73.182 z M 54.501 73.182 C 54.501 74.225 53.655 75.073 52.611 75.073 L 47.886 75.073 C 46.843002 75.073 45.996002 74.225 45.996002 73.182 L 45.996002 70.82 C 45.996002 69.776 46.843002 68.93 47.886 68.93 L 52.611 68.93 C 53.655 68.93 54.501 69.776 54.501 70.82 L 54.501 73.182 z M 54.501 60.425 C 54.501 61.468 53.655 62.315 52.611 62.315 L 26.624 62.315 C 25.582 62.315 24.734001 61.468 24.734001 60.425 L 24.734001 24.042 C 24.734001 22.999 25.581001 22.152 26.624 22.152 L 52.611 22.152 C 53.655 22.152 54.501 22.999 54.501 24.042 L 54.501 60.425 z "/>
        <linearGradient x1="3311.6902" gradientTransform="matrix(0 -1 1 0 -7436.0898 3342.906)" y1="7512.8545" x2="3282.5662" gradientUnits="userSpaceOnUse" y2="7512.8545" xlink:type="simple" xlink:actuate="onLoad" id="SVGID_1_" xlink:show="other">
            <stop stop-color="#edf5b3" offset="0"/>
            <stop stop-color="#7fa608" offset="1"/>
        </linearGradient>
        <path fill="url(#SVGID_1_)" d="M 88.785 46.779 C 89.051 46.515 89.198006 46.153 89.198006 45.777 C 89.198006 45.402 89.051 45.041 88.785 44.773 L 75.64 31.632 C 75.235 31.225 74.625 31.103 74.095 31.324 C 73.564 31.545 73.218 32.061 73.218 32.635 L 73.218 37.788 L 65.747 37.788 C 64.964005 37.788 64.329 38.422997 64.329 39.204998 L 64.329 52.35 C 64.329 53.133 64.964005 53.767998 65.747 53.767998 L 73.218 53.767998 L 73.218 58.921997 C 73.218 59.492996 73.564 60.01 74.095 60.232 C 74.625 60.453 75.235 60.329998 75.64 59.924 L 88.785 46.779 z "/>
        <linearGradient x1="22.7239" gradientTransform="matrix(1 0 0 1 16.7998 656.5898)" y1="-644.8325" x2="22.7239" gradientUnits="userSpaceOnUse" y2="-576.792" xlink:type="simple" xlink:actuate="onLoad" id="SVGID_2_" xlink:show="other">
            <stop stop-color="#47e6eb" offset="0"/>
            <stop stop-color="#007cba" offset="1"/>
        </linearGradient>
        <path fill="url(#SVGID_2_)" d="M 59.604 52.35 L 59.604 39.206 C 59.604 36.842003 60.949 34.789 62.913002 33.762 L 62.913002 16.482 C 62.913002 13.872001 60.797 11.757 58.187004 11.757 L 20.86 11.757 C 18.248001 11.757 16.135 13.872 16.135 16.482 L 16.135 75.072 C 16.135 77.682 18.248001 79.798 20.86 79.798 L 58.188 79.798 C 60.797 79.798 62.914 77.683 62.914 75.072 L 62.914 57.795 C 60.949 56.768 59.604 54.715 59.604 52.35 z M 33.145 71.292 C 33.145 72.335 32.298 73.182 31.255001 73.182 L 26.53 73.182 C 25.487001 73.182 24.640001 72.335 24.640001 71.292 L 24.640001 68.93 C 24.640001 67.886 25.486002 67.04 26.53 67.04 L 31.255001 67.04 C 32.298 67.04 33.145 67.886 33.145 68.93 L 33.145 71.292 z M 43.776 71.292 C 43.776 72.335 42.928 73.182 41.886 73.182 L 37.161003 73.182 C 36.118004 73.182 35.271004 72.335 35.271004 71.292 L 35.271004 68.93 C 35.271004 67.886 36.117004 67.04 37.161003 67.04 L 41.886 67.04 C 42.928 67.04 43.776 67.886 43.776 68.93 L 43.776 71.292 z M 54.407 71.292 C 54.407 72.335 53.56 73.182 52.517002 73.182 L 47.792004 73.182 C 46.749004 73.182 45.902004 72.335 45.902004 71.292 L 45.902004 68.93 C 45.902004 67.886 46.749004 67.04 47.792004 67.04 L 52.517002 67.04 C 53.56 67.04 54.407 67.886 54.407 68.93 L 54.407 71.292 z M 54.407 58.535 C 54.407 59.578 53.56 60.425 52.517002 60.425 L 26.53 60.425 C 25.487001 60.425 24.640001 59.578 24.640001 58.535 L 24.640001 22.152 C 24.640001 21.108 25.486002 20.262001 26.53 20.262001 L 52.518 20.262001 C 53.561 20.262001 54.408 21.108002 54.408 22.152 L 54.408 58.535 z "/>
    </g>
</svg>
