<?xml version="1.0" encoding="UTF-8"?>
<svg xmlns="http://www.w3.org/2000/svg" xmlns:xlink="http://www.w3.org/1999/xlink" contentScriptType="text/ecmascript" zoomAndPan="magnify" baseProfile="tiny" contentStyleType="text/css" version="1.1" width="98.855px" preserveAspectRatio="xMidYMid meet" viewBox="0 0 98.855 88" height="88px" x="0px" y="0px">
    <path d="M 93.23 28.598 C 91.441 26.806 75.051 11.091 50.762005 11.091 C 26.157003 11.091 8.630005 27.781 7.902004 28.487 C 4.561004 31.713 4.4670043 37.055 7.689005 40.397 C 9.269005 42.037 11.482004 42.976997 13.759005 42.976997 C 14.489004 42.976997 15.208005 42.875996 15.899005 42.696 C 15.669005 43.443 15.540005 44.223 15.526005 45.026 C 15.488005 47.277 16.328005 49.41 17.891005 51.025 C 19.470003 52.662003 21.681004 53.6 23.955006 53.6 C 24.678003 53.6 25.390003 53.499 26.074003 53.323 C 24.548004 56.424004 25.025003 60.279003 27.559006 62.904003 C 29.138006 64.542 31.348003 65.479004 33.623005 65.479004 C 35.820004 65.479004 37.900005 64.638 39.44101 63.148003 C 39.460007 63.129 40.268005 62.393 41.619007 61.514004 C 39.96401 63.519005 38.968006 66.090004 38.968006 68.888 C 38.968006 75.288 44.175007 80.495 50.575005 80.495 C 56.977005 80.495 62.18401 75.288 62.18401 68.888 C 62.18401 65.907 61.04501 63.193 59.189007 61.135 C 60.772007 62.116 61.715008 62.996 61.715008 62.996 C 63.30901 64.596 65.43101 65.476006 67.68801 65.476006 C 69.932014 65.476006 72.04201 64.604004 73.63601 63.020004 C 75.23401 61.433 76.11201 59.31601 76.11701 57.067005 C 76.12001 55.785004 75.83201 54.55201 75.29501 53.429005 C 75.83901 53.539005 76.39401 53.592003 76.960014 53.592003 C 79.20502 53.592003 81.31401 52.721004 82.90701 51.138004 C 85.20301 48.850006 85.89801 45.562004 85.000015 42.663 C 85.72801 42.866 86.48402 42.976 87.26002 42.976 C 89.49602 42.976 91.60602 42.108 93.21202 40.517 C 96.502 37.24 96.51 31.893 93.23 28.598 z " fill-opacity="0.5" stroke-opacity="0.5"/>
    <path d="M 87.261 39.829 C 86.446 39.829 85.627 39.517 85.007 38.893 C 84.871 38.755997 70.653 24.795998 50.761005 24.795998 C 30.918003 24.795998 16.107006 38.797997 15.961006 38.94 C 14.694006 40.154 12.686007 40.119 11.466006 38.852997 C 10.249006 37.590996 10.2850065 35.581997 11.546006 34.364 C 12.219007 33.712997 28.287006 18.440998 50.761005 18.440998 C 73.35901 18.440998 88.864006 33.755997 89.51401 34.407 C 90.754005 35.651997 90.74701 37.664 89.504005 38.904 C 88.884 39.519 88.072 39.829 87.261 39.829 L 87.261 39.829 z "/>
    <path d="M 23.954 50.448 C 23.121 50.448 22.291 50.122 21.665 49.476 C 20.447 48.214 20.479 46.201 21.742 44.981003 C 22.241 44.503 34.076 33.251003 50.639 33.251003 C 67.294 33.251003 78.734 44.544003 79.213 45.025 C 80.451 46.269 80.446 48.281 79.202 49.521 C 77.95699 50.758 75.94399 50.753 74.70599 49.509 C 74.61199 49.416 64.593994 39.607 50.638992 39.607 C 36.616993 39.607 26.264992 49.454 26.159992 49.552 C 25.544 50.149 24.748 50.448 23.954 50.448 L 23.954 50.448 z "/>
    <path d="M 33.621 62.328 C 32.788 62.328 31.957998 62.004997 31.332 61.358 C 30.114998 60.094 30.147 58.082996 31.409998 56.865 C 31.742998 56.541996 39.675 49.009 50.770996 49.009 C 61.944996 49.009 69.617 56.586 69.94 56.907997 C 71.17999 58.152996 71.174995 60.164997 69.93099 61.401997 C 68.68399 62.639996 66.67099 62.636997 65.43599 61.392 C 65.38299 61.338997 59.244987 55.364 50.77099 55.364 C 42.21499 55.364 35.890987 61.377 35.827988 61.435 C 35.213 62.033 34.417 62.328 33.621 62.328 L 33.621 62.328 z "/>
    <circle r="6.357" cx="50.574" cy="70.989"/>
    <linearGradient x1="33.8098" gradientTransform="matrix(1 0 0 1 16.7998 656.5898)" y1="-640.249" x2="33.8098" gradientUnits="userSpaceOnUse" y2="-581.3438" xlink:type="simple" xlink:actuate="onLoad" id="SVGID_1_" xlink:show="other">
        <stop stop-color="#e6e6e6" offset="0"/>
        <stop stop-color="#a0a0a0" offset="1"/>
    </linearGradient>
    <path fill="url(#SVGID_1_)" d="M 87.362 37.729 C 86.547 37.729 85.73 37.417 85.109 36.793 C 84.97 36.656 70.753 22.696 50.863003 22.696 C 31.018003 22.696 16.209003 36.697 16.060001 36.838997 C 14.794002 38.053 12.785002 38.018 11.568001 36.751995 C 10.351001 35.48999 10.387001 33.480995 11.646001 32.263996 C 12.321001 31.612995 28.386002 16.340996 50.863 16.340996 C 73.459 16.340996 88.966 31.655994 89.616 32.306995 C 90.854 33.551994 90.849 35.563995 89.604 36.803997 C 88.984 37.418 88.174 37.729 87.362 37.729 L 87.362 37.729 z M 24.054 48.349 C 24.847 48.349 25.644 48.05 26.263 47.453 C 26.367 47.354 36.721 37.508 50.74 37.508 C 64.695 37.508 74.714 47.317 74.807 47.41 C 76.049 48.654 78.063 48.658 79.303 47.421 C 80.547005 46.181 80.55 44.169003 79.314 42.924 C 78.83501 42.443 67.398 31.151 50.740005 31.151 C 34.181007 31.151 22.341003 42.404 21.845003 42.881 C 20.582005 44.101 20.548004 46.115 21.768003 47.376 C 22.391 48.023 23.222 48.349 24.054 48.349 L 24.054 48.349 z M 33.722 60.229 C 34.517 60.229 35.313 59.934 35.93 59.335 C 35.995 59.274 42.317 53.264 50.873 53.264 C 59.347 53.264 65.485 59.241 65.538 59.292 C 66.777 60.537 68.79 60.54 70.033005 59.303 C 71.27701 58.063 71.282005 56.051003 70.04201 54.809 C 69.72101 54.486 62.04701 46.909 50.87301 46.909 C 39.778008 46.909 31.846008 54.444 31.512009 54.766 C 30.252008 55.983997 30.217009 57.995 31.436008 59.259 C 32.059 59.904 32.889 60.229 33.722 60.229 L 33.722 60.229 z M 50.674 62.53 C 47.163 62.53 44.317 65.378 44.317 68.888 C 44.317 72.398 47.164 75.245 50.674 75.245 C 54.187 75.245 57.033 72.398 57.033 68.888 C 57.032 65.378 54.185 62.53 50.674 62.53 z "/>
</svg>
