<?xml version="1.0" encoding="UTF-8"?>
<svg xmlns="http://www.w3.org/2000/svg" xmlns:xlink="http://www.w3.org/1999/xlink" contentScriptType="text/ecmascript" zoomAndPan="magnify" baseProfile="tiny" contentStyleType="text/css" version="1.1" width="98.855px" preserveAspectRatio="xMidYMid meet" viewBox="0 0 98.855 88" height="88px" x="0px" y="0px">
    <path d="M 85.623 28.926 L 80.734 28.926 C 80.718 28.892 80.71 28.858 80.695 28.823 C 74.732 13.795 60.431 4.084 44.261 4.084 C 39.31 4.084 34.448 5.0160003 29.811 6.858 C 20.085 10.718 12.44 18.14 8.294 27.749 C 4.1449995 37.357002 3.9869995 48.009003 7.8479996 57.736 C 11.511 66.965 18.318 74.183 26.769 78.382 C 28.133 80.79301 30.712 82.427 33.674 82.427 L 42.434998 82.427 C 43.048996 82.456 43.663 82.476006 44.281998 82.476006 C 44.914997 82.476006 45.547997 82.45801 46.177998 82.427 L 85.623 82.427 C 89.996 82.427 93.552 78.87 93.552 74.498 L 93.552 36.853 C 93.552 32.482 89.995 28.926 85.623 28.926 z " fill-opacity="0.5" stroke-opacity="0.5"/>
    <path fill="none" d="M 41.426 29.674 L 41.563 30.017 C 42.769 29.309 44.135 28.926 45.563 28.926 L 52.281998 28.926 C 51.531 27.719 50.755997 26.563 49.954998 25.482 C 47.55 26.845 44.725 28.27 41.426 29.674 z "/>
    <path fill="none" d="M 27.91 34.232 C 28.2 36.68 28.704 39.222 29.406 41.799 L 37.797 33.405 L 37.015 31.435999 C 33.64 32.678 30.599 33.575 27.91 34.232 z "/>
    <path fill="none" d="M 15.65 35.934 C 15.594 35.934 15.554 35.933 15.504999 35.933 C 14.081999 41.455997 14.282999 47.246 16.125 52.713997 C 17.781 52.614998 20.926 52.253998 25.747 51.081997 L 25.747 48.737995 C 25.747 48.097996 25.835 47.465996 25.987999 46.849995 C 24.654999 42.907993 23.735998 38.970993 23.259998 35.199997 C 19.689 35.811 17.094 35.934 15.65 35.934 z "/>
    <path fill="none" d="M 25.747 66.48 L 25.747 55.967 C 22.476 56.721 19.955 57.111 18.126 57.307 C 20.052 60.916 22.659 64.009 25.747 66.48 z "/>
    <path fill="none" d="M 60.177 18.193 C 59.16 19.164001 57.158997 20.904001 54.031 22.982 C 55.359997 24.805 56.625 26.799 57.804996 28.926 L 70.242 28.926 C 67.801 24.483 64.326 20.825 60.177 18.193 z "/>
    <path fill="none" d="M 31.297 17.031 C 29.374 18.917 28.109001 22.251 27.736 26.591 C 27.658 27.499 27.63 28.441 27.628 29.397999 C 29.911 28.814999 32.462 28.036999 35.259 27.012999 L 31.297 17.031 z "/>
    <path fill="none" d="M 23.003 26.185 C 23.138 24.646 23.369 23.206999 23.688 21.868 C 20.977 24.473999 18.77 27.605 17.188 31.133 C 18.558 31.056 20.494 30.862 22.906 30.432 C 22.871 28.978 22.886 27.551 23.003 26.185 z "/>
    <path fill="none" d="M 51.029 19.261 C 53.081 17.918 54.62 16.732 55.669 15.848 C 52.229 14.427 48.483997 13.636 44.587997 13.594999 C 46.784 15.037 48.956 16.951 51.029 19.261 z "/>
    <path fill="none" d="M 46.869 21.762 C 43.114 17.751999 39.15 15.328999 35.707 15.270999 L 39.673 25.262 C 42.416 24.087 44.806 22.902 46.869 21.762 z "/>
    <path d="M 18.124 59.23 C 19.955 59.034 22.473 58.642998 25.745 57.889 L 25.745 53.003 C 20.924 54.174 17.779001 54.533997 16.123001 54.636997 C 14.281001 49.168 14.080001 43.378998 15.503001 37.854996 C 15.554001 37.854996 15.594001 37.856995 15.648002 37.856995 C 17.091002 37.856995 19.687002 37.733994 23.258001 37.123993 C 23.734001 40.894993 24.652 44.829994 25.986002 48.772995 C 26.331001 47.373997 27.046001 46.073994 28.073002 45.050995 L 29.402002 43.721996 C 28.701002 41.144997 28.194002 38.602997 27.907001 36.153996 C 30.596 35.498997 33.636 34.600994 37.011 33.356995 L 37.793003 35.327995 L 39.948 33.170994 C 40.439003 32.683994 40.980003 32.278996 41.558002 31.937994 L 41.422 31.596994 C 44.721 30.191994 47.545002 28.765995 49.949 27.404995 C 50.75 28.485994 51.525 29.640995 52.276 30.849995 L 57.799 30.849995 C 56.621 28.721994 55.358 26.728994 54.028 24.906994 C 57.155 22.826994 59.154 21.086994 60.173 20.117994 C 64.32 22.746994 67.795 26.406994 70.238 30.849995 L 75.549995 30.849995 C 69.94499 18.592995 57.861996 10.756994 44.257996 10.756994 C 39.908997 10.756994 35.638996 11.576994 31.562996 13.194994 C 23.013996 16.588993 16.296997 23.107994 12.651997 31.553993 C 9.007 40.0 8.867 49.357 12.262 57.907 C 15.011 64.832 19.787 70.454 25.744999 74.254 L 25.744999 68.405 C 22.657 65.933 20.051 62.84 18.124 59.23 z M 55.665 17.772 C 54.618 18.654999 53.079002 19.841 51.027 21.184 C 48.953 18.872 46.781002 16.961 44.586 15.517 C 48.482 15.561 52.225 16.349 55.665 17.772 z M 46.867 23.685 C 44.803 24.824999 42.414 26.012 39.672 27.185 L 35.706 17.196 C 39.15 17.25 43.113 19.674 46.867 23.685 z M 27.735 28.516 C 28.108 24.175001 29.373001 20.842001 31.296001 18.954 L 35.258003 28.938 C 32.461002 29.964 29.910004 30.739 27.627003 31.324 C 27.628 30.366 27.657 29.425 27.735 28.516 z M 23.685 23.792 C 23.364 25.131 23.135 26.569 23.0 28.109 C 22.883 29.473 22.866 30.9 22.901 32.355 C 20.491 32.785 18.556 32.98 17.182999 33.058 C 18.767 29.528 20.973 26.398 23.685 23.792 z "/>
    <path d="M 85.621 35.6 L 45.559 35.6 C 44.713997 35.6 43.906998 35.935997 43.309 36.53 L 31.425 48.42 C 30.828999 49.014 30.495998 49.822 30.495998 50.661 L 30.495998 76.421 C 30.495998 78.18 31.918999 79.603 33.671997 79.603 L 85.623 79.603 C 87.380005 79.603 88.803 78.18 88.803 76.421 L 88.803 38.774 C 88.801 37.024 87.377 35.6 85.621 35.6 z M 84.762 73.767 C 84.762 74.816 83.91 75.667 82.863 75.667 L 68.613 75.667 C 67.563995 75.667 66.714 74.815 66.714 73.767 L 66.714 70.44 C 66.714 69.392006 67.564995 68.541 68.613 68.541 L 82.863 68.541 C 83.910995 68.541 84.762 69.393 84.762 70.44 L 84.762 73.767 z M 84.762 64.22 C 84.762 65.269005 83.91 66.119 82.863 66.119 L 68.613 66.119 C 67.563995 66.119 66.714 65.268005 66.714 64.22 L 66.714 60.894 C 66.714 59.843002 67.564995 58.994 68.613 58.994 L 82.863 58.994 C 83.910995 58.994 84.762 59.843998 84.762 60.894 L 84.762 64.22 z M 84.762 54.672 C 84.762 55.721 83.91 56.572002 82.863 56.572002 L 68.613 56.572002 C 67.563995 56.572002 66.714 55.72 66.714 54.672 L 66.714 51.347 C 66.714 50.297 67.564995 49.448 68.613 49.448 L 82.863 49.448 C 83.910995 49.448 84.762 50.298 84.762 51.347 L 84.762 54.672 z M 84.762 45.172 C 84.762 46.221 83.91 47.072002 82.863 47.072002 L 68.613 47.072002 C 67.563995 47.072002 66.714 46.22 66.714 45.172 L 66.714 41.845 C 66.714 40.795002 67.564995 39.945 68.613 39.945 L 82.863 39.945 C 83.910995 39.945 84.762 40.795 84.762 41.845 L 84.762 45.172 z "/>
    <linearGradient x1="25.884" gradientTransform="matrix(1 0 0 1 16.7998 656.5898)" y1="-647.7544" x2="25.884" gradientUnits="userSpaceOnUse" y2="-578.8629" xlink:type="simple" xlink:actuate="onLoad" id="SVGID_1_" xlink:show="other">
        <stop stop-color="#edf5b3" offset="0"/>
        <stop stop-color="#7fa608" offset="1"/>
    </linearGradient>
    <path fill="url(#SVGID_1_)" d="M 18.126 57.307 C 19.956999 57.111 22.474998 56.723 25.747 55.967 L 25.747 51.082 C 20.925999 52.252 17.781 52.614002 16.125 52.714 C 14.283 47.245003 14.082 41.456 15.505 35.934 C 15.556 35.934 15.596 35.934 15.650001 35.934 C 17.093 35.934 19.689001 35.810997 23.26 35.202 C 23.736 38.972 24.654 42.91 25.988 46.851997 C 26.333 45.454 27.047 44.152996 28.075 43.128998 L 29.404001 41.801 C 28.703001 39.224 28.196001 36.68 27.908 34.235 C 30.598001 33.578 33.637 32.679 37.012 31.437 L 37.794003 33.407 L 39.949 31.250002 C 40.440002 30.764002 40.981003 30.358002 41.559002 30.018002 L 41.423 29.675001 C 44.722 28.27 47.546 26.845001 49.95 25.484001 C 50.751 26.564001 51.526 27.720001 52.277 28.928001 L 57.8 28.928001 C 56.621998 26.800001 55.359 24.806002 54.028 22.984001 C 57.156 20.905 59.155 19.165 60.174 18.195002 C 64.321 20.827002 67.795 24.484001 70.239 28.928001 L 75.550995 28.928001 C 69.947 16.671 57.865 8.835 44.26 8.835 C 39.911 8.835 35.641 9.655 31.564999 11.273 C 23.015999 14.665 16.299 21.187 12.653999 29.631 C 9.007999 38.077 8.8689995 47.435 12.263 55.984 C 15.011999 62.911003 19.788 68.533005 25.745998 72.331 L 25.745998 66.481 C 22.659 64.009 20.052 60.916 18.126 57.307 z M 55.668 15.848 C 54.619 16.732 53.079998 17.918 51.028 19.261 C 48.954 16.951 46.782 15.037 44.586998 13.594 C 48.484 13.636 52.227 14.427 55.668 15.848 z M 46.869 21.762 C 44.805 22.901999 42.416 24.088 39.675 25.262 L 35.707 15.270999 C 39.151 15.327 43.115 17.752 46.869 21.762 z M 27.737 26.592 C 28.109999 22.251999 29.375 18.918999 31.298 17.031998 L 35.260002 27.014997 C 32.463 28.038998 29.912003 28.816998 27.629002 29.399998 C 27.63 28.442 27.658 27.5 27.737 26.592 z M 23.687 21.868 C 23.368 23.207 23.137001 24.646 23.002 26.185 C 22.885 27.550999 22.869001 28.977 22.904001 30.432 C 20.494001 30.862999 18.558 31.057 17.186 31.133 C 18.769 27.605 20.975 24.474 23.687 21.868 z "/>
    <linearGradient x1="42.8508" gradientTransform="matrix(1 0 0 1 16.7998 656.5898)" y1="-622.9136" x2="42.8508" gradientUnits="userSpaceOnUse" y2="-578.9121" xlink:type="simple" xlink:actuate="onLoad" id="SVGID_2_" xlink:show="other">
        <stop stop-color="#47e6eb" offset="0"/>
        <stop stop-color="#007cba" offset="1"/>
    </linearGradient>
    <path fill="url(#SVGID_2_)" d="M 85.623 33.676 L 45.561 33.676 C 44.716 33.676 43.909 34.013 43.31 34.607 L 31.427 46.495 C 30.831 47.089 30.497 47.899 30.497 48.738 L 30.497 74.499 C 30.497 76.257 31.92 77.678 33.674 77.678 L 85.625 77.678 C 87.382 77.678 88.805 76.257 88.805 74.499 L 88.805 36.852 C 88.802 35.101 87.379 33.676 85.623 33.676 z M 84.764 71.843 C 84.764 72.891 83.912 73.742004 82.864 73.742004 L 68.615 73.742004 C 67.565994 73.742004 66.715996 72.89001 66.715996 71.843 L 66.715996 68.518005 C 66.715996 67.467 67.56699 66.618004 68.615 66.618004 L 82.864 66.618004 C 83.913 66.618004 84.764 67.468 84.764 68.518005 L 84.764 71.843 z M 84.764 62.295 C 84.764 63.344997 83.912 64.195 82.864 64.195 L 68.615 64.195 C 67.565994 64.195 66.715996 63.343998 66.715996 62.295 L 66.715996 58.968998 C 66.715996 57.920998 67.56699 57.07 68.615 57.07 L 82.864 57.07 C 83.913 57.07 84.764 57.922 84.764 58.968998 L 84.764 62.295 z M 84.764 52.748 C 84.764 53.797 83.912 54.647 82.864 54.647 L 68.615 54.647 C 67.565994 54.647 66.715996 53.795998 66.715996 52.748 L 66.715996 49.423 C 66.715996 48.374 67.56699 47.523 68.615 47.523 L 82.864 47.523 C 83.913 47.523 84.764 48.375 84.764 49.423 L 84.764 52.748 z M 84.764 43.248 C 84.764 44.297 83.912 45.147 82.864 45.147 L 68.615 45.147 C 67.565994 45.147 66.715996 44.295998 66.715996 43.248 L 66.715996 39.921 C 66.715996 38.873 67.56699 38.021 68.615 38.021 L 82.864 38.021 C 83.913 38.021 84.764 38.873 84.764 39.921 L 84.764 43.248 z "/>
</svg>
