<?xml version="1.0" encoding="UTF-8"?>
<svg xmlns="http://www.w3.org/2000/svg" xmlns:xlink="http://www.w3.org/1999/xlink" contentScriptType="text/ecmascript" zoomAndPan="magnify" baseProfile="tiny" contentStyleType="text/css" version="1.1" width="40px" preserveAspectRatio="xMidYMid meet" viewBox="0 0 40 2.6" height="2.6px" x="0px" y="0px">
    <g>
        <g>
            <g>
                <g>
                    <g>
                        <g>
                            <g>
                                <linearGradient x1="0.1997" gradientTransform="matrix(1 0 0 -1 0 2.6001)" y1="-5.1902" x2="0.1997" gradientUnits="userSpaceOnUse" y2="-5.8774" xlink:type="simple" xlink:actuate="onLoad" id="SVGID_1_" xlink:show="other">
                                    <stop stop-color="#cddd54" offset="0"/>
                                    <stop stop-color="#a5b344" offset="1"/>
                                </linearGradient>
                                <path fill="url(#SVGID_1_)" d="M 0.1 7.8 L 0.1 8.3 C 0.1 8.400001 0.2 8.5 0.3 8.5 "/>
                            </g>
                        </g>
                    </g>
                </g>
            </g>
        </g>
    </g>
    <linearGradient x1="19.9507" y1="2.5999" x2="19.9507" gradientUnits="userSpaceOnUse" y2="7.324219e-004" xlink:type="simple" xlink:actuate="onLoad" id="SVGID_2_" xlink:show="other">
        <stop stop-color="#a5b344" offset="0"/>
        <stop stop-color="#cddd54" offset="1"/>
    </linearGradient>
    <path fill="url(#SVGID_2_)" d="M 39.6 0.0 L 0.3 0.0 C 0.1 0.0 0.0 0.1 0.0 0.3 L 0.0 2.3 C 0.0 2.5 0.1 2.6 0.3 2.6 L 39.6 2.6 C 39.8 2.6 39.900997 2.5 39.900997 2.3 L 39.900997 0.29999995 C 39.9 0.1 39.8 0.0 39.6 0.0 z "/>
    <g stroke-opacity="0.25" fill-opacity="0.25">
        <g>
            <g>
                <g>
                    <g>
                        <g>
                            <g>
                                <g>
                                    <path d="M 4.4 2.5 L 6.8 0.099999905 L 5.0 0.099999905 L 2.6 2.5 L 4.4 2.5 z M 8.1 2.5 L 10.5 0.099999905 L 8.6 0.099999905 L 6.3 2.5 L 8.1 2.5 z M 11.8 2.5 L 14.1 0.099999905 L 12.3 0.099999905 L 9.9 2.5 L 11.8 2.5 z M 15.4 2.5 L 17.8 0.099999905 L 15.9 0.099999905 L 13.599999 2.5 L 15.4 2.5 z M 19.1 2.5 L 21.4 0.099999905 L 19.6 0.099999905 L 17.300001 2.5 L 19.1 2.5 z M 22.7 2.5 L 25.1 0.1 L 23.300001 0.1 L 20.9 2.5 L 22.7 2.5 z M 26.4 2.5 L 28.8 0.1 L 26.9 0.1 L 24.6 2.5 L 26.4 2.5 z M 30.1 2.5 L 32.4 0.1 L 30.6 0.1 L 28.2 2.5 L 30.1 2.5 z M 33.7 2.5 L 36.1 0.1 L 34.2 0.1 L 31.900002 2.5 L 33.7 2.5 z M 35.6 2.5 L 35.7 2.4 L 35.6 2.4 L 35.6 2.5 z M 37.6 2.4 L 39.9 0.1 C 39.799 0.1 39.799 0.1 39.799 0.1 L 38.0 0.1 L 35.7 2.3999999 L 37.6 2.3999999 z M 0.7 2.5 L 3.1000001 0.099999905 L 1.3 0.099999905 L 0.1 1.3 L 0.1 2.3 C 0.1 2.3999999 0.2 2.5 0.3 2.5 L 0.7 2.5 z M 39.9 2.3 L 39.9 1.8 L 39.2 2.5 L 39.7 2.5 C 39.8 2.5 39.9 2.4 39.9 2.3 z "/>
                                </g>
                            </g>
                        </g>
                    </g>
                </g>
            </g>
        </g>
    </g>
</svg>
