<?xml version="1.0" encoding="UTF-8"?>
<svg xmlns="http://www.w3.org/2000/svg" xmlns:xlink="http://www.w3.org/1999/xlink" contentScriptType="text/ecmascript" zoomAndPan="magnify" baseProfile="tiny" contentStyleType="text/css" version="1.1" width="88px" preserveAspectRatio="xMidYMid meet" viewBox="0 0 88 88" height="88px" x="0px" y="0px">
    <path d="M 43.905 85.5 C 21.158998 85.5 2.6539993 66.995 2.6539993 44.25 C 2.654 21.506 21.159 3.0 43.905 3.0 C 66.65 3.0 85.154 21.506 85.154 44.25 C 85.154 66.995 66.65 85.5 43.905 85.5 L 43.905 85.5 z " fill-opacity="0.5" stroke-opacity="0.5"/>
    <linearGradient x1="35.5044" gradientTransform="matrix(1 0 0 -1 8.3999 64.1602)" y1="56.1602" x2="35.5044" gradientUnits="userSpaceOnUse" y2="-16.3394" xlink:type="simple" xlink:actuate="onLoad" id="SVGID_1_" xlink:show="other">
        <stop stop-color="#47e6eb" offset="0"/>
        <stop stop-color="#007cba" offset="1"/>
    </linearGradient>
    <path fill="url(#SVGID_1_)" d="M 43.905 8.0 C 23.917 8.0 7.654 24.264 7.654 44.25 C 7.654 64.238 23.917 80.5 43.905 80.5 C 63.892 80.5 80.154 64.238 80.154 44.25 C 80.154 24.263 63.894 8.0 43.905 8.0 z M 46.654 71.361 L 46.654 71.0 C 46.654 69.619 45.536 68.5 44.154 68.5 C 42.773 68.5 41.654 69.619 41.654 71.0 L 41.654 71.399 C 28.422 70.312 17.843 59.733 16.756 46.5 L 17.154001 46.5 C 18.536001 46.5 19.654001 45.382 19.654001 44.0 C 19.654001 42.619 18.536001 41.5 17.154001 41.5 L 16.794 41.5 C 18.103 28.497 28.594002 18.171 41.665 17.101 C 41.719 18.434 42.809002 19.5 44.154 19.5 C 45.488 19.5 46.567 18.453 46.64 17.139 C 59.486 18.426 69.729996 28.668999 71.016 41.515 C 69.701996 41.588 68.654 42.666 68.654 44.0 C 68.654 45.348 69.72 46.438 71.054 46.49 C 69.985 59.562 59.657 70.053 46.654 71.361 z M 54.923 51.232 C 55.9 52.208 55.9 53.793 54.923 54.766 C 54.435 55.254997 53.795002 55.499 53.154 55.499 C 52.514 55.499 51.876 55.255 51.385998 54.766 L 45.03 48.411 C 44.747997 48.468998 44.454998 48.5 44.154 48.5 C 41.67 48.5 39.654 46.485 39.654 44.0 C 39.654 42.396 40.502 40.996 41.765 40.199 C 41.701 39.975002 41.654 39.745003 41.654 39.5 L 41.654 26.0 C 41.654 24.619 42.773 23.5 44.154 23.5 C 45.536 23.5 46.654 24.619 46.654 26.0 L 46.654 39.5 C 46.654 39.745 46.607998 39.977 46.544 40.199 C 47.809 40.996002 48.654 42.395 48.654 44.0 C 48.654 44.301 48.623 44.594 48.565 44.877 L 54.923 51.232 z "/>
</svg>
