<?xml version="1.0" encoding="UTF-8"?>
<svg xmlns="http://www.w3.org/2000/svg" xmlns:xlink="http://www.w3.org/1999/xlink" contentScriptType="text/ecmascript" width="12" baseProfile="tiny" zoomAndPan="magnify" contentStyleType="text/css" viewBox="0 0 12 32" height="32" preserveAspectRatio="xMidYMid meet" version="1.0">
    <g>
        <g>
            <g>
                <linearGradient x1="6.5" y1="27.0488" x2="6.5" gradientUnits="userSpaceOnUse" y2="17" xlink:type="simple" xlink:actuate="onLoad" id="XMLID_3_" xlink:show="other">
                    <stop stop-color="#ffffff" offset="0"/>
                    <stop stop-color="#e1e1e1" offset="0.8202"/>
                    <stop stop-color="#e1e1e1" offset="1"/>
                </linearGradient>
                <path fill="url(#XMLID_3_)" d="M 6.5 27.049 C 4.016 27.049 2.0 25.338 2.0 22.875 L 2.0 21.25 C 2.0 18.787 4.016 17.0 6.5 17.0 L 6.5 17.0 C 8.986 17.0 11.0 18.787 11.0 21.25 L 11.0 22.875 C 11.0 25.338 8.986 27.049 6.5 27.049 L 6.5 27.049 z "/>
                <g>
                    <linearGradient x1="6.5" y1="17" x2="6.5" gradientUnits="userSpaceOnUse" y2="21.6641" xlink:type="simple" xlink:actuate="onLoad" id="XMLID_4_" xlink:show="other">
                        <stop stop-color="#ffffff" offset="0"/>
                        <stop stop-color="#ffffff" offset="0.3258"/>
                        <stop stop-color="#f5f5f5" offset="0.3966"/>
                        <stop stop-color="#ebebeb" offset="1"/>
                    </linearGradient>
                    <path fill="url(#XMLID_4_)" d="M 6.5 17.0 C 4.016 17.0 2.0 18.787 2.0 21.25 L 2.0 21.347 L 3.0 21.347 L 3.0 21.664 C 3.0 19.748 4.566 18.453 6.5 18.453 C 8.434 18.453 10.0 19.748 10.0 21.664 L 10.0 21.347 L 11.0 21.347 L 11.0 21.25 C 11.0 18.787 8.986 17.0 6.5 17.0 z "/>
                </g>
                <path fill="#a0a0a0" d="M 1.0 21.25 L 1.0 22.875 C 1.0 25.887 3.467 28.0 6.5 28.0 C 9.531 28.0 12.0 25.887 12.0 22.875 L 12.0 21.25 C 12.0 18.238 9.531 16.0 6.5 16.0 C 3.467 16.0 1.0 18.238 1.0 21.25 z M 2.0 22.875 L 2.0 21.25 C 2.0 18.79 4.018 17.0 6.5 17.0 C 8.98 17.0 11.0 18.79 11.0 21.25 L 11.0 22.875 C 11.0 25.335 8.98 27.049 6.5 27.049 C 4.018 27.049 2.0 25.335 2.0 22.875 z " fill-opacity="0.7" stroke-opacity="0.7"/>
            </g>
            <path fill="#e1e1e1" d="M 10.0 22.867 C 10.0 24.781 8.434 26.049 6.5 26.049 C 4.566 26.049 3.0 24.781 3.0 22.867 L 3.0 21.299 L 2.0 21.299 L 2.0 22.875 C 2.0 25.338 4.016 27.049 6.5 27.049 C 8.986 27.049 11.0 25.338 11.0 22.875 L 11.0 21.299 L 10.0 21.299 L 10.0 22.867 z " fill-opacity="0.8" stroke-opacity="0.8"/>
        </g>
        <rect width="12" fill="none" height="32"/>
    </g>
</svg>
