<?xml version="1.0" encoding="UTF-8"?>
<svg xmlns="http://www.w3.org/2000/svg" xmlns:xlink="http://www.w3.org/1999/xlink" contentScriptType="text/ecmascript" zoomAndPan="magnify" baseProfile="tiny" contentStyleType="text/css" version="1.1" width="88px" preserveAspectRatio="xMidYMid meet" viewBox="0 0 88 88" height="88px" x="0px" y="0px">
    <path d="M 44.382 81.939 C 23.245 81.939 6.049 64.743004 6.049 43.606003 C 6.049 22.469004 23.245 5.2730026 44.382 5.2730026 C 65.519 5.2730026 82.715 22.469002 82.715 43.606003 C 82.715 64.743 65.519 81.939 44.382 81.939 L 44.382 81.939 z " fill-opacity="0.5" stroke-opacity="0.5"/>
    <path d="M 44.382 12.274 C 25.973 12.274 11.049 27.198 11.049 45.607 C 11.049 64.015 25.973 78.94 44.382 78.94 C 62.791 78.94 77.715 64.017 77.715 45.607 C 77.715 27.197006 62.791 12.274 44.382 12.274 z M 49.133 63.34 C 49.133 65.963 47.006 68.09 44.383 68.09 C 41.76 68.09 39.633 65.963 39.633 63.339996 L 39.633 39.756 C 39.633 37.133 41.76 35.006 44.383 35.006 C 47.006 35.006 49.133 37.133 49.133 39.756 L 49.133 63.34 z M 44.481 33.173 C 41.303 33.173 38.726997 30.597 38.726997 27.418 C 38.726997 24.241 41.303 21.664 44.481 21.664 C 47.659 21.664 50.236 24.241 50.236 27.418 C 50.236 30.597 47.658 33.173 44.481 33.173 z "/>
    <linearGradient x1="27.5815" gradientTransform="matrix(1 0 0 1 16.7998 656.5898)" y1="-646.3154" x2="27.5815" gradientUnits="userSpaceOnUse" y2="-579.6494" xlink:type="simple" xlink:actuate="onLoad" id="SVGID_1_" xlink:show="other">
        <stop stop-color="#47e6eb" offset="0"/>
        <stop stop-color="#007cba" offset="1"/>
    </linearGradient>
    <path fill="url(#SVGID_1_)" d="M 44.382 10.274 C 25.973 10.274 11.049 25.198 11.049 43.607 C 11.049 62.015003 25.973 76.94 44.382 76.94 C 62.791 76.94 77.715 62.015003 77.715 43.607 C 77.715 25.198 62.791 10.274 44.382 10.274 z M 49.133 61.34 C 49.133 63.963 47.006 66.09 44.383 66.09 C 41.76 66.09 39.633 63.962997 39.633 61.339996 L 39.633 37.756 C 39.633 35.133 41.76 33.006 44.383 33.006 C 47.006 33.006 49.133 35.133 49.133 37.756 L 49.133 61.34 z M 44.481 31.173 C 41.303 31.173 38.726997 28.597 38.726997 25.418 C 38.726997 22.241 41.303 19.664 44.481 19.664 C 47.659 19.664 50.236 22.241 50.236 25.418 C 50.236 28.597 47.658 31.173 44.481 31.173 z "/>
</svg>
