<?xml version="1.0" encoding="UTF-8"?>
<svg xmlns="http://www.w3.org/2000/svg" xmlns:xlink="http://www.w3.org/1999/xlink" contentScriptType="text/ecmascript" zoomAndPan="magnify" baseProfile="tiny" contentStyleType="text/css" version="1.1" width="98.855px" preserveAspectRatio="xMidYMid meet" viewBox="0 0 98.855 88" height="88px" x="0px" y="0px">
    <g>
        <path d="M 85.519 25.605 C 86.647995 23.687 87.294 21.455 87.294 19.073 C 87.294 11.951 81.497 6.1569996 74.376 6.1569996 C 69.858 6.1569996 65.894 8.495999 63.586998 12.018 C 62.943996 11.889 62.281998 11.82 61.605 11.82 L 17.105 11.82 C 11.591 11.82 7.1049995 16.306 7.1049995 21.82 L 7.1049995 66.32 C 7.1049995 71.834 11.591 76.32 17.105 76.32 L 61.605 76.32 C 67.121 76.32 71.604996 71.834 71.604996 66.32 L 71.604996 63.144 L 84.75099 63.144 C 89.107994 63.144 92.65499 59.597 92.65499 55.239002 L 92.65499 33.472 C 92.656 29.373 89.519 25.993 85.519 25.605 z " fill-opacity="0.5" stroke-opacity="0.5"/>
        <path fill="none" d="M 43.469 36.657 C 42.582 38.036003 41.959003 39.491 41.588 40.944 C 41.465 39.59 40.994 38.553 40.309002 38.061 C 40.389004 33.069 42.282 29.615002 43.989002 29.615002 C 44.534 29.615002 44.975002 29.174002 44.975002 28.630001 C 44.975002 28.086 44.534 27.645 43.989002 27.645 C 42.005 27.645 40.319 29.398 39.317 32.172 C 38.315002 29.398 36.629 27.645 34.645 27.645 C 34.100002 27.645 33.659 28.086 33.659 28.630001 C 33.659 29.174002 34.100002 29.615002 34.645 29.615002 C 36.358 29.615002 38.260002 33.096 38.325 38.121002 C 37.761 38.571003 37.348 39.406002 37.179 40.487003 C 36.814 38.962 36.175 37.430004 35.243 35.981003 C 32.782 32.143 28.901001 29.757004 25.112 29.757004 C 23.546 29.757004 22.112 30.166004 20.855999 30.971004 C 16.488998 33.772003 15.835999 40.575005 19.403 46.137005 C 21.815 49.901005 25.594 52.262005 29.311 52.352005 C 28.901001 52.676006 28.516 53.045006 28.17 53.463005 C 27.145 54.693005 26.547 56.172005 26.486 57.621006 C 26.425 59.168007 26.974 60.506004 28.031 61.387005 C 28.797 62.022003 29.76 62.356007 30.82 62.356007 C 32.611 62.356007 34.47 61.406006 35.799 59.811005 C 36.975 58.399006 37.528 56.715004 37.463 55.188004 C 37.920002 55.996002 38.533 56.506004 39.333 56.506004 C 40.251 56.506004 40.93 55.832005 41.396 54.807003 C 40.949 56.575005 41.454998 58.737003 42.908 60.485004 C 44.234 62.080006 46.097 63.032005 47.887 63.032005 C 48.949 63.032005 49.912003 62.696007 50.676003 62.061005 C 51.735 61.182003 52.281002 59.844006 52.221 58.297005 C 52.16 56.846004 51.565002 55.369003 50.539 54.137005 C 50.191 53.721004 49.809002 53.350006 49.396 53.026005 C 51.923 52.965004 54.466 51.838005 56.600998 49.951004 L 56.600998 33.472 C 56.600998 32.666 56.727997 31.891 56.954998 31.159 C 55.927998 30.68 54.804996 30.432001 53.598 30.432001 C 49.812 30.433 45.929 32.817 43.469 36.657 z "/>
        <path d="M 56.605 57.239 L 56.605 51.95 C 54.47 53.837 51.927 54.966 49.4 55.025 C 49.81 55.349003 50.195 55.72 50.543003 56.136 C 51.566 57.368 52.164 58.845 52.225002 60.296 C 52.287003 61.843002 51.739002 63.181 50.680004 64.06 C 49.916004 64.696 48.951004 65.031 47.891003 65.031 C 46.102 65.031 44.239002 64.078995 42.912003 62.483997 C 41.459003 60.736996 40.953003 58.573997 41.4 56.805996 C 40.933002 57.830997 40.255 58.504997 39.338 58.504997 C 38.537003 58.504997 37.924 57.992996 37.467003 57.186996 C 37.531002 58.713997 36.979004 60.397995 35.803 61.809998 C 34.477 63.405 32.615 64.354996 30.824001 64.354996 C 29.763 64.354996 28.801 64.020996 28.035002 63.385994 C 26.978003 62.504993 26.431002 61.166992 26.490002 59.619995 C 26.551003 58.170994 27.146002 56.691994 28.174002 55.461994 C 28.520002 55.043995 28.903002 54.674995 29.315002 54.350994 C 25.598003 54.260994 21.819002 51.899994 19.407001 48.135994 C 15.843001 42.573994 16.493002 35.770996 20.86 32.969994 C 22.116001 32.164993 23.548 31.755993 25.116001 31.755993 C 28.905 31.755993 32.786003 34.141994 35.247 37.979992 C 36.179 39.428993 36.815002 40.95999 37.183002 42.485992 C 37.353 41.40499 37.763004 40.569992 38.329002 40.11999 C 38.266003 35.095993 36.362003 31.61399 34.649002 31.61399 C 34.104004 31.61399 33.663002 31.17299 33.663002 30.62899 C 33.663002 30.08499 34.104004 29.64399 34.649002 29.64399 C 36.633003 29.64399 38.319 31.39699 39.321003 34.17099 C 40.323 31.39699 42.009003 29.64399 43.993004 29.64399 C 44.538002 29.64399 44.979004 30.08499 44.979004 30.62899 C 44.979004 31.17299 44.538002 31.61399 43.993004 31.61399 C 42.286003 31.61399 40.393005 35.06799 40.313004 40.05999 C 41.001003 40.55199 41.469 41.58799 41.592003 42.94299 C 41.965004 41.48999 42.587 40.03499 43.473003 38.65599 C 45.934002 34.81599 49.817 32.430992 53.604004 32.430992 C 54.811005 32.430992 55.934006 32.677994 56.962006 33.157993 C 57.835007 30.307993 60.275005 28.136993 63.275005 27.663994 C 62.125004 25.732994 61.462006 23.477993 61.462006 21.071995 C 61.462006 20.303995 61.541004 19.555994 61.671005 18.825994 C 61.650005 18.824995 61.630005 18.818995 61.608006 18.818995 L 17.108006 18.818995 C 14.346005 18.818995 12.108006 21.056995 12.108006 23.818995 L 12.108006 68.31899 C 12.108006 71.08099 14.346005 73.31899 17.108006 73.31899 L 61.608006 73.31899 C 64.37 73.31899 66.608 71.08099 66.608 68.31899 L 66.608 65.14299 L 64.512 65.14299 C 60.152 65.145 56.605 61.6 56.605 57.239 z "/>
        <path d="M 66.459 21.073 C 66.459 16.702 70.006 13.157 74.375 13.157 C 78.75 13.157 82.293 16.702 82.293 21.073 C 82.293 25.446 78.75 28.989 74.375 28.989 C 70.006 28.989 66.459 25.446 66.459 21.073 z M 82.215 60.145 L 84.74799 60.145 C 86.34999 60.145 87.65399 58.839 87.65399 57.24 L 87.65399 35.472 C 87.65399 33.874 86.34699 32.568 84.74799 32.568 L 79.26 32.568 L 69.998 32.568 L 64.51 32.568 C 62.912003 32.568 61.606003 33.875 61.606003 35.472 L 61.606003 57.239 C 61.606003 58.84 62.915 60.143997 64.51 60.143997 L 67.045006 60.143997 L 82.215 60.143997 z "/>
        <linearGradient x1="22.5574" gradientTransform="matrix(1 0 0 1 16.7998 656.5898)" y1="-639.7695" x2="22.5574" gradientUnits="userSpaceOnUse" y2="-585.2695" xlink:type="simple" xlink:actuate="onLoad" id="SVGID_1_" xlink:show="other">
            <stop stop-color="#ffcf76" offset="0"/>
            <stop stop-color="#ba6d29" offset="1"/>
        </linearGradient>
        <path fill="url(#SVGID_1_)" d="M 56.605 55.239 L 56.605 49.95 C 54.47 51.837 51.927 52.966 49.4 53.025 C 49.81 53.349003 50.195 53.72 50.543003 54.136 C 51.566 55.368 52.164 56.845 52.225002 58.296 C 52.287003 59.843002 51.739002 61.181 50.680004 62.06 C 49.916004 62.696003 48.951004 63.031002 47.891003 63.031002 C 46.102 63.031002 44.239002 62.079002 42.912003 60.484 C 41.459003 58.737 40.953003 56.574 41.4 54.806 C 40.933002 55.831 40.255 56.505 39.338 56.505 C 38.537003 56.505 37.924 55.993 37.467003 55.187 C 37.531002 56.714 36.979004 58.398 35.803 59.81 C 34.477 61.405003 32.615 62.355003 30.824001 62.355003 C 29.763 62.355003 28.801 62.021004 28.035002 61.386 C 26.978003 60.505 26.431002 59.167 26.490002 57.620003 C 26.551003 56.171 27.146002 54.692 28.174002 53.462 C 28.520002 53.044003 28.903002 52.675003 29.315002 52.351 C 25.598003 52.261 21.819002 49.9 19.407001 46.136 C 15.843001 40.574 16.493002 33.771004 20.86 30.970001 C 22.116001 30.165 23.548 29.756 25.116001 29.756 C 28.905 29.756 32.786003 32.142002 35.247 35.98 C 36.179 37.429 36.815002 38.96 37.183002 40.486 C 37.353 39.405 37.763004 38.57 38.329002 38.12 C 38.266003 33.096 36.362003 29.613998 34.649002 29.613998 C 34.104004 29.613998 33.663002 29.172998 33.663002 28.628998 C 33.663002 28.084997 34.104004 27.643997 34.649002 27.643997 C 36.633003 27.643997 38.319 29.396997 39.321003 32.170998 C 40.323 29.396997 42.009003 27.643997 43.993004 27.643997 C 44.538002 27.643997 44.979004 28.084997 44.979004 28.628998 C 44.979004 29.172998 44.538002 29.613998 43.993004 29.613998 C 42.286003 29.613998 40.393005 33.067997 40.313004 38.059998 C 41.001003 38.552 41.469 39.587997 41.592003 40.942997 C 41.965004 39.489998 42.587 38.034996 43.473003 36.656 C 45.934002 32.815998 49.817 30.430998 53.604004 30.430998 C 54.811005 30.430998 55.934006 30.677998 56.962006 31.157997 C 57.835007 28.307997 60.275005 26.136997 63.275005 25.663998 C 62.125004 23.732998 61.462006 21.477997 61.462006 19.071999 C 61.462006 18.303999 61.541004 17.555998 61.671005 16.825998 C 61.650005 16.824999 61.630005 16.818998 61.608006 16.818998 L 17.108006 16.818998 C 14.346005 16.818998 12.108006 19.057 12.108006 21.818998 L 12.108006 66.319 C 12.108006 69.081 14.346005 71.319 17.108006 71.319 L 61.608006 71.319 C 64.37 71.319 66.608 69.081 66.608 66.319 L 66.608 63.143 L 64.512 63.143 C 60.152 63.145 56.605 59.6 56.605 55.239 z "/>
        <linearGradient x1="57.8298" gradientTransform="matrix(1 0 0 1 16.7998 656.5898)" y1="-645.4326" x2="57.8298" gradientUnits="userSpaceOnUse" y2="-598.4453" xlink:type="simple" xlink:actuate="onLoad" id="SVGID_2_" xlink:show="other">
            <stop stop-color="#ee4261" offset="0"/>
            <stop stop-color="#ac1e31" offset="1"/>
        </linearGradient>
        <path fill="url(#SVGID_2_)" d="M 66.459 19.073 C 66.459 14.702 70.006 11.157 74.375 11.157 C 78.75 11.157 82.293 14.702 82.293 19.073 C 82.293 23.446 78.75 26.989 74.375 26.989 C 70.006 26.989 66.459 23.446 66.459 19.073 z M 82.215 58.145 L 84.74799 58.145 C 86.34999 58.145 87.65399 56.839 87.65399 55.24 L 87.65399 33.472 C 87.65399 31.874 86.34699 30.568 84.74799 30.568 L 79.26 30.568 L 69.998 30.568 L 64.51 30.568 C 62.912003 30.568 61.606003 31.875 61.606003 33.472 L 61.606003 55.239 C 61.606003 56.84 62.915 58.143997 64.51 58.143997 L 67.045006 58.143997 L 82.215 58.143997 z "/>
    </g>
</svg>
