<?xml version="1.0" encoding="UTF-8"?>
<svg xmlns="http://www.w3.org/2000/svg" xmlns:xlink="http://www.w3.org/1999/xlink" contentScriptType="text/ecmascript" zoomAndPan="magnify" baseProfile="tiny" contentStyleType="text/css" version="1.1" width="98.855px" preserveAspectRatio="xMidYMid meet" viewBox="0 0 98.855 88" height="88px" x="0px" y="0px">
    <g>
        <path d="M 49.161 3.688 C 52.28 3.6959999 55.142 5.383 56.648 8.091 L 82.270996 54.213 C 83.74 56.86 83.699 60.119003 82.16599 62.727 C 80.631996 65.332 77.80399 66.954 74.77699 66.954 L 67.704994 66.954 L 67.704994 79.426 C 67.704994 84.154 63.856995 88.001 59.128994 88.001 L 38.823 88.001 C 36.538002 88.001 34.305 87.064 32.707 85.433 C 31.106 83.809 30.211 81.568 30.252 79.279 L 30.279001 66.955 L 23.264002 66.955 C 20.234001 66.955 17.398003 65.331 15.8670025 62.716003 C 14.332003 60.089005 14.304003 56.825005 15.788002 54.183002 L 41.682 8.067 C 43.197 5.3670006 46.061 3.6900005 49.156998 3.6900005 L 49.161 3.688 L 49.161 3.688 z " fill-opacity="0.5" stroke-opacity="0.5"/>
        <path d="M 21.558 62.139 C 21.912 62.745 22.564001 63.119 23.266 63.119 L 37.0 63.119 L 36.849 82.151 C 36.84 82.686005 37.045 83.192 37.416 83.575005 C 37.788002 83.955 38.296 84.16801 38.828 84.16801 L 59.133 84.16801 C 60.229 84.16801 61.114998 83.282005 61.114998 82.18901 L 61.114998 63.119 L 74.781 63.119 C 75.479996 63.119 76.131 62.748 76.485 62.141 C 76.841 61.537 76.85 60.789997 76.51 60.176 L 50.89 14.066 C 50.541 13.436 49.882 13.049 49.163998 13.045 L 49.159996 13.045 C 48.445995 13.045 47.785995 13.43 47.434998 14.055 L 21.544 60.169 C 21.196 60.783 21.202 61.532 21.558 62.139 z "/>
        <linearGradient x1="-5657.2402" gradientTransform="matrix(-1 0 0 -1 -5608.2168 5300.5996)" y1="5290.3154" x2="-5657.2402" gradientUnits="userSpaceOnUse" y2="5219.1943" xlink:type="simple" xlink:actuate="onLoad" id="SVGID_1_" xlink:show="other">
            <stop stop-color="#47e6eb" offset="0"/>
            <stop stop-color="#007cba" offset="1"/>
        </linearGradient>
        <path fill="url(#SVGID_1_)" d="M 21.558 59.375 C 21.912 59.981 22.564001 60.358 23.266 60.358 L 37.0 60.358 L 36.849 79.39 C 36.84 79.92 37.045 80.432 37.416 80.811 C 37.788002 81.190994 38.296 81.405 38.828 81.405 L 59.133 81.405 C 60.229 81.405 61.114998 80.519 61.114998 79.427 L 61.114998 60.358 L 74.781 60.356003 C 75.479996 60.356003 76.131 59.987003 76.485 59.38 C 76.841 58.776 76.85 58.027 76.51 57.415 L 50.89 11.303 C 50.541 10.677 49.882 10.288 49.163998 10.284 L 49.159996 10.284 C 48.445995 10.284 47.785995 10.67 47.434998 11.292001 L 21.544 57.408 C 21.196 58.021 21.202 58.769 21.558 59.375 z "/>
    </g>
</svg>
