<?xml version="1.0" encoding="UTF-8"?>
<svg xmlns="http://www.w3.org/2000/svg" xmlns:xlink="http://www.w3.org/1999/xlink" contentScriptType="text/ecmascript" zoomAndPan="magnify" baseProfile="tiny" contentStyleType="text/css" version="1.1" width="87.002px" preserveAspectRatio="xMidYMid meet" viewBox="0 0 87.002 87.672" height="87.672px" x="0px" y="0px">
    <g>
        <path fill="none" d="M 15.764 29.981 C 14.856 29.358002 13.618 29.588001 12.996 30.493 C 12.373 31.401001 12.604 32.639 13.511001 33.262 L 30.734001 45.093002 L 13.815 62.026 C 13.348 62.494 13.349 63.251 13.815 63.716 C 14.047 63.947998 14.353999 64.066 14.658999 64.066 C 14.962999 64.066 15.271 63.949 15.502 63.716003 L 32.732 46.471 L 37.857 49.99 C 38.195 50.221 38.587997 50.339 38.982 50.339 C 39.377 50.339 39.771 50.222 40.108997 49.988 L 45.232 46.469997 L 62.463997 63.715996 C 62.693996 63.947994 63.001995 64.06699 63.305996 64.06699 C 63.611996 64.06699 63.916996 63.948994 64.15199 63.715992 C 64.618 63.249992 64.618996 62.492992 64.15199 62.025993 L 47.233 45.094 L 50.457 42.878002 L 50.457 41.138 L 48.561 41.138 C 47.844 41.138 47.155003 40.998 46.509003 40.761 L 38.979004 45.936 L 15.764 29.981 z "/>
        <path d="M 84.25 30.945 L 68.515 15.209 C 67.403 14.099999 65.866 13.464 64.296 13.464 C 62.725 13.464 61.185997 14.101999 60.072998 15.212999 L 53.762997 21.525 L 12.752 21.525 C 8.639 21.525 5.2929997 24.872 5.2929997 28.987999 L 5.2929997 65.063 C 5.2929997 69.176 8.639999 72.523 12.752 72.523 L 65.213 72.523 C 69.326996 72.523 72.673 69.176 72.673 65.063 L 72.673 51.756 C 75.727 51.495 78.132996 48.93 78.132996 45.809002 L 78.132996 41.14 L 80.02799 41.14 C 82.44999 41.14 84.61399 39.694 85.54199 37.46 C 86.473 35.216 85.966 32.662 84.25 30.945 z " fill-opacity="0.5" stroke-opacity="0.5"/>
        <path d="M 50.429 47.517 L 50.429 44.587997 L 47.204002 46.804996 L 64.123 63.738 C 64.590004 64.206 64.589005 64.962 64.123 65.427 C 63.892002 65.658005 63.584 65.777 63.278 65.777 C 62.974 65.777 62.667 65.659004 62.435 65.427 L 45.204 48.18 L 40.079998 51.699 C 39.741997 51.932003 39.35 52.050003 38.954998 52.050003 C 38.559998 52.050003 38.167 51.933002 37.828 51.701004 L 32.703 48.182003 L 15.475 65.427 C 15.243 65.658005 14.935 65.776 14.6310005 65.776 C 14.326 65.776 14.021001 65.659004 13.787001 65.427 C 13.321001 64.961 13.320001 64.205 13.787001 63.738003 L 30.705 46.805 L 13.484 34.973 C 12.576 34.349 12.348001 33.109 12.968 32.204 C 13.591001 31.298998 14.829 31.069998 15.736 31.690998 L 38.956 47.642 L 46.485 42.469997 C 44.948 41.907997 43.676003 40.740997 43.022 39.164997 C 42.092 36.914997 42.604 34.361996 44.321 32.650997 L 49.461 27.508997 L 12.724 27.508997 C 10.973 27.508997 9.539 28.944998 9.539 30.696997 L 9.539 66.77 C 9.539 68.522995 10.971999 69.95699 12.723999 69.95699 L 65.186005 69.95699 C 66.938 69.95699 68.37 68.521996 68.37 66.77 L 68.37 53.49 L 56.403 53.49 C 53.107 53.49 50.429 50.813 50.429 47.517 z "/>
        <path d="M 65.464 19.945 C 65.146996 19.629 64.713 19.449 64.265 19.449 C 63.815 19.449 63.382 19.629 63.065998 19.945 L 47.338 35.679 C 46.853 36.16 46.707 36.892002 46.97 37.528 C 47.233 38.159 47.848 38.572998 48.536003 38.572998 L 54.706 38.572998 L 54.706 47.517 C 54.706 48.455997 55.465 49.216 56.399002 49.216 L 72.131004 49.216 C 73.067 49.216 73.824005 48.454 73.824005 47.517 L 73.824005 38.572998 L 79.994 38.572998 C 80.68 38.572998 81.297005 38.161 81.561005 37.528 C 81.825005 36.892 81.678 36.161 81.19301 35.679 L 65.464 19.945 z "/>
        <linearGradient x1="22.187" gradientTransform="matrix(1 0 0 1 16.7998 656.5898)" y1="-630.792" x2="22.187" gradientUnits="userSpaceOnUse" y2="-588.3438" xlink:type="simple" xlink:actuate="onLoad" id="SVGID_1_" xlink:show="other">
            <stop stop-color="#ffcf75" offset="0"/>
            <stop stop-color="#ba6b16" offset="1"/>
        </linearGradient>
        <path fill="url(#SVGID_1_)" d="M 50.461 45.807 L 50.461 42.878 L 47.236 45.093998 L 64.155 62.027 C 64.621 62.495 64.621 63.252 64.155 63.717 C 63.920998 63.948997 63.615997 64.067 63.309998 64.067 C 63.004997 64.067 62.697998 63.95 62.465996 63.717003 L 45.235 46.471 L 40.112 49.989002 C 39.774 50.222004 39.381 50.340004 38.986 50.340004 C 38.592 50.340004 38.198 50.223003 37.86 49.991005 L 32.736 46.472004 L 15.5060005 63.717003 C 15.275001 63.949 14.966001 64.066 14.663 64.066 C 14.357 64.066 14.053 63.95 13.819 63.717003 C 13.353001 63.251003 13.352 62.494003 13.819 62.027004 L 30.737 45.094 L 13.514 33.263 C 12.607 32.639 12.38 31.399 12.999 30.494 C 13.622999 29.588999 14.86 29.361 15.766999 29.982 L 38.986 45.933 L 46.516 40.759 C 44.979 40.197998 43.707 39.03 43.054 37.454 C 42.124 35.204998 42.636 32.650997 44.353 30.939 L 49.492 25.796999 L 12.756 25.796999 C 11.004 25.796999 9.570999 27.234 9.570999 28.984999 L 9.570999 65.06 C 9.570999 66.812996 11.003999 68.246994 12.755999 68.246994 L 65.218 68.246994 C 66.97 68.246994 68.404 66.812 68.404 65.06 L 68.404 51.78 L 56.436 51.78 C 53.14 51.78 50.461 49.103 50.461 45.807 z "/>
        <linearGradient x1="47.4971" gradientTransform="matrix(1 0 0 1 16.7998 656.5898)" y1="-638.8511" x2="47.4971" gradientUnits="userSpaceOnUse" y2="-609.084" xlink:type="simple" xlink:actuate="onLoad" id="SVGID_2_" xlink:show="other">
            <stop stop-color="#47e6eb" offset="0"/>
            <stop stop-color="#007cba" offset="1"/>
        </linearGradient>
        <path fill="url(#SVGID_2_)" d="M 65.495 18.235 C 65.178 17.92 64.746 17.739 64.296005 17.739 C 63.84601 17.739 63.413006 17.92 63.098007 18.235 L 47.369 33.969 C 46.884 34.449 46.738 35.181004 46.999 35.817 C 47.264 36.448 47.881 36.862 48.566 36.862 L 54.737003 36.862 L 54.737003 45.806 C 54.737003 46.745 55.496002 47.505 56.431004 47.505 L 72.162 47.505 C 73.098 47.505 73.856 46.743 73.856 45.806 L 73.856 36.862 L 80.025 36.862 C 80.711 36.862 81.328 36.449 81.591 35.817 C 81.856 35.181 81.709 34.449 81.22401 33.969 L 65.495 18.235 z "/>
    </g>
</svg>
