<?xml version="1.0" encoding="UTF-8"?>
<svg xmlns="http://www.w3.org/2000/svg" xmlns:xlink="http://www.w3.org/1999/xlink" contentScriptType="text/ecmascript" width="60" baseProfile="tiny" zoomAndPan="magnify" contentStyleType="text/css" viewBox="-0.785 0.161 60 52" height="52" preserveAspectRatio="xMidYMid meet" version="1.0">
    <linearGradient x1="29.21" y1="7.36" x2="29.21" gradientUnits="userSpaceOnUse" y2="45.76" xlink:type="simple" xlink:actuate="onLoad" id="_4" xlink:show="other">
        <stop stop-color="#a0a0a0" offset="0"/>
        <stop stop-color="#3c3c3c" offset="0.73"/>
        <stop stop-color="#3c3c3c" offset="1"/>
    </linearGradient>
    <path fill="url(#_4)" d="M 50.955 6.162 L 7.475 6.162 C 6.229 6.162 5.215 7.176 5.215 8.4210005 L 5.215 43.902 C 5.215 45.148 6.229 46.162 7.475001 46.162 L 50.955 46.162 C 52.201 46.162 53.215 45.148 53.215 43.902 L 53.215 8.421 C 53.215 7.176 52.201 6.162 50.955 6.162 z M 52.215 43.902 C 52.215 44.596 51.651 45.162 50.955 45.162 L 7.475 45.162 C 6.78 45.162 6.215 44.597 6.215 43.902 L 6.215 8.421 C 6.215 7.7269993 6.779 7.162 7.475001 7.162 L 50.955 7.162 C 51.65 7.162 52.215 7.726 52.215 8.421 L 52.215 43.902 z "/>
    <g stroke-opacity="0.7" fill-opacity="0.7">
        <linearGradient x1="29.22" y1="50.7" x2="29.22" gradientUnits="userSpaceOnUse" y2="5.58" xlink:type="simple" xlink:actuate="onLoad" id="_5" xlink:show="other">
            <stop stop-color="#a0a0a0" offset="0"/>
            <stop stop-color="#a0a0a0" offset="0.03"/>
            <stop stop-color="#e6e6e6" offset="0.26"/>
            <stop stop-color="#ffffff" offset="0.72"/>
            <stop stop-color="#ffffff" offset="1"/>
        </linearGradient>
        <path fill="url(#_5)" d="M 50.955 7.162 L 7.475 7.162 C 6.78 7.162 6.215 7.726 6.215 8.4210005 L 6.215 43.902 C 6.215 44.596 6.779 45.162 7.475001 45.162 L 50.955 45.162 C 51.65 45.162 52.215 44.597 52.215 43.902 L 52.215 8.421 C 52.215 7.727 51.65 7.162 50.955 7.162 z "/>
    </g>
    <path fill="#ffffff" d="M 51.834 7.539 C 51.59 7.287 51.305 7.162 50.955 7.162 L 7.475 7.162 C 6.78 7.162 6.215 7.726 6.215 8.4210005 L 6.215 43.902 C 6.215 44.248 6.3580003 44.554 6.5880003 44.775 C 6.59 44.788 7.215 44.147003 7.215 44.147003 L 7.215 8.162 L 51.215 8.162 L 51.834 7.539 z "/>
    <linearGradient x1="29.41" y1="12.3" x2="29.41" gradientUnits="userSpaceOnUse" y2="51.77" xlink:type="simple" xlink:actuate="onLoad" id="_6" xlink:show="other">
        <stop stop-color="#f5f5f5" offset="0"/>
        <stop stop-color="#5a5a5a" offset="1"/>
    </linearGradient>
    <path fill="url(#_6)" d="M 6.598 44.784 C 6.84 45.036 7.127 45.161 7.475 45.161 L 50.956997 45.161 C 51.65 45.161 52.214996 44.597 52.214996 43.902 L 52.214996 8.421 C 52.214996 8.075 52.071995 7.769 51.844 7.5479994 C 51.839996 7.5349994 51.214996 8.176 51.214996 8.176 C 51.214996 8.176 51.214996 43.382 51.214996 44.161 C 50.476997 44.161 7.2169952 44.161 7.2169952 44.161 L 6.598 44.784 z "/>
    <rect x="27.331" y="16.162" transform="matrix(0.7072 0.707 -0.707 0.7072 27.0496 -12.9963)" fill="#3c3c3c" width="3.771" height="20"/>
    <circle fill="#3c3c3c" r="3.15" cx="23.665" cy="20.611"/>
    <circle fill="#3c3c3c" r="3.15" cx="34.766" cy="31.712"/>
</svg>
