<?xml version="1.0" encoding="UTF-8"?>
<svg xmlns="http://www.w3.org/2000/svg" xmlns:xlink="http://www.w3.org/1999/xlink" contentScriptType="text/ecmascript" zoomAndPan="magnify" baseProfile="tiny" contentStyleType="text/css" version="1.1" width="98.855px" preserveAspectRatio="xMidYMid meet" viewBox="0 0 98.855 88" height="88px" x="0px" y="0px">
    <g>
        <path d="M 87.451 50.387 C 87.451 34.633003 77.591995 20.556002 62.852997 15.139999 C 63.346996 14.072 63.626995 12.882 63.626995 11.625999 C 63.626995 6.9719996 59.842995 3.1879997 55.189995 3.1879997 L 44.329994 3.1879997 C 39.676994 3.1879997 35.891994 6.9719996 35.891994 11.625999 C 35.891994 12.891 36.172993 14.091999 36.674995 15.172999 C 36.281994 15.318999 35.897995 15.471 35.513996 15.634 C 34.038998 14.486 32.234997 13.86 30.337996 13.86 C 28.080996 13.86 25.964996 14.736 24.368996 16.333 C 22.776997 17.926 21.900995 20.046 21.900995 22.3 C 21.900995 23.196 22.041996 24.071 22.306995 24.901 C 15.933995 31.817999 12.351995 40.889 12.351995 50.364 C 12.351995 71.11 29.228996 87.989 49.977997 87.989 C 62.650997 87.989 74.24899 81.726 81.263 71.2 C 81.264 71.2 87.451 63.155 87.451 50.387 z M 50.206 67.497 C 48.236 67.497 46.451 68.309 45.168 69.609 C 38.143997 67.824 32.516 62.204002 30.734 55.175003 C 32.038998 53.891003 32.845 52.107002 32.845 50.135002 C 32.845 48.206 32.069 46.457 30.817001 45.177002 C 32.712 38.122 38.384003 32.655003 45.534 31.025002 C 46.778 32.119003 48.414 32.779003 50.205 32.779003 C 51.931004 32.779003 53.519 32.155003 54.75 31.118004 L 55.83 31.385004 L 55.83 43.597004 C 54.333 42.286003 52.374 41.484005 50.232002 41.484005 C 45.541 41.484005 41.719 45.303005 41.719 49.995003 C 41.719 54.120003 44.671 57.568 48.569 58.345 L 58.277 68.058 C 58.355 68.128 58.432 68.193 58.508 68.261 C 57.434 68.777 56.32 69.214005 55.158 69.528 C 53.882 68.272 52.134 67.497 50.206 67.497 z " fill-opacity="0.5" stroke-opacity="0.5"/>
        <path fill="none" d="M 53.929 49.995 C 53.929 50.148 53.899002 50.3 53.883 50.447 L 64.881 61.444 C 65.765 62.326 65.765 63.760002 64.881 64.645 C 64.439995 65.086 63.859997 65.308 63.279995 65.308 C 62.704994 65.308 62.125996 65.086 61.685993 64.645 L 50.685993 53.645996 C 50.538994 53.663998 50.391994 53.689995 50.23699 53.689995 C 48.19699 53.689995 46.538994 52.035995 46.538994 49.991997 C 46.538994 47.952995 48.192993 46.298996 50.23699 46.298996 C 52.281 46.299 53.929 47.957 53.929 49.995 z "/>
        <path d="M 46.538 51.924 C 46.538 53.966 48.192997 55.617 50.236 55.617 C 50.389 55.617 50.54 55.59 50.686 55.575 L 61.685 66.569 C 62.127003 67.012 62.705 67.232 63.280003 67.232 C 63.859 67.232 64.441 67.012 64.881004 66.569 C 65.76301 65.687 65.76301 64.255 64.881004 63.372 L 53.883003 52.372 C 53.902004 52.223003 53.929005 52.075 53.929005 51.924 C 53.929005 49.878998 52.273006 48.225998 50.230003 48.225998 C 48.187 48.226 46.538 49.879 46.538 51.924 z "/>
        <path d="M 52.467 76.828 L 52.467 76.5 C 52.467 75.249 51.454998 74.239 50.205997 74.239 C 48.954998 74.239 47.944996 75.249 47.944996 76.5 L 47.944996 76.861 C 35.966995 75.877 26.389996 66.301 25.408997 54.326 L 25.770996 54.326 C 27.021996 54.326 28.033997 53.314 28.033997 52.062 C 28.033997 50.815 27.021997 49.799 25.770996 49.799 L 25.442997 49.799 C 26.624996 38.034 36.121998 28.689 47.953995 27.718 C 48.002995 28.925001 48.989994 29.889 50.207996 29.889 C 51.413998 29.889 52.395996 28.942 52.461998 27.751999 C 53.614 27.866999 54.735996 28.081999 55.836 28.355999 L 55.836 20.021 C 55.101997 19.885 54.357 19.769 53.607 19.686 L 53.607 17.171001 L 55.198997 17.171001 C 57.201996 17.171001 58.822998 15.552002 58.822998 13.554001 C 58.822998 11.551001 57.202 9.932001 55.198997 9.932001 L 44.341 9.932001 C 42.341 9.932001 40.718 11.551001 40.718 13.554001 C 40.718 15.553 42.341 17.171001 44.341 17.171001 L 46.367 17.171001 L 46.367 19.686 C 42.142002 20.151001 38.161 21.42 34.579002 23.334002 L 32.909004 21.665 C 31.494003 20.252 29.200005 20.252 27.789005 21.665 C 26.375006 23.080002 26.375006 25.373001 27.789005 26.787 L 28.518005 27.514 C 21.574005 33.535 17.176006 42.406 17.176006 52.292 C 17.176006 70.384 31.896008 85.101 49.990005 85.101 C 61.750008 85.101 72.082 78.874 77.873 69.548996 L 71.887 63.564995 C 68.139 70.803 60.94 75.975 52.467 76.828 z "/>
        <path d="M 80.033 65.081 C 81.701 61.155003 82.63699 56.847 82.63699 52.315002 C 82.63699 37.997 73.44899 25.832003 60.649994 21.382002 L 60.649994 45.691 L 80.033 65.081 z "/>
        <linearGradient x1="39.2405" gradientTransform="matrix(1 0 0 1 16.7998 656.5898)" y1="-648.5874" x2="39.2405" gradientUnits="userSpaceOnUse" y2="-573.4137" xlink:type="simple" xlink:actuate="onLoad" id="SVGID_1_" xlink:show="other">
            <stop stop-color="#6dcad7" offset="0"/>
            <stop stop-color="#037db9" offset="1"/>
        </linearGradient>
        <path fill="url(#SVGID_1_)" d="M 46.538 49.995 C 46.538 52.04 48.192997 53.690998 50.236 53.690998 C 50.389 53.690998 50.54 53.663998 50.686 53.646 L 61.685 64.645996 C 62.127003 65.086 62.705 65.309 63.280003 65.309 C 63.859 65.309 64.441 65.086 64.881004 64.645996 C 65.76301 63.759995 65.76301 62.327995 64.881004 61.445995 L 53.883 50.449 C 53.902 50.300003 53.929 50.149002 53.929 49.995003 C 53.929 47.957 52.273003 46.301003 50.23 46.301003 C 48.187 46.301 46.538 47.957 46.538 49.995 z "/>
        <linearGradient x1="30.7244" gradientTransform="matrix(1 0 0 1 16.7998 656.5898)" y1="-648.583" x2="30.7244" gradientUnits="userSpaceOnUse" y2="-573.4141" xlink:type="simple" xlink:actuate="onLoad" id="SVGID_2_" xlink:show="other">
            <stop stop-color="#47e6eb" offset="0"/>
            <stop stop-color="#007cba" offset="1"/>
        </linearGradient>
        <path fill="url(#SVGID_2_)" d="M 52.467 74.902 L 52.467 74.573 C 52.467 73.326 51.454998 72.312996 50.205997 72.312996 C 48.954998 72.312996 47.944996 73.326 47.944996 74.573 L 47.944996 74.937 C 35.968 73.948 26.39 64.379 25.409 52.4 L 25.771 52.4 C 27.022 52.4 28.034 51.387 28.034 50.135002 C 28.034 48.889004 27.022001 47.874 25.771 47.874 L 25.443 47.874 C 26.625 36.108 36.122 26.76 47.954002 25.792 C 48.003002 26.999 48.99 27.963 50.208004 27.963 C 51.414005 27.963 52.396004 27.015999 52.462006 25.826 C 53.614006 25.942 54.736004 26.157 55.836006 26.427 L 55.836006 18.094 C 55.102005 17.961 54.357006 17.843 53.607006 17.76 L 53.607006 15.247 L 55.199005 15.247 C 57.202003 15.247 58.823006 13.623 58.823006 11.625999 C 58.823006 9.625999 57.202007 8.004999 55.199005 8.004999 L 44.341 8.004999 C 42.341 8.004999 40.718 9.626999 40.718 11.625999 C 40.718 13.622999 42.341 15.247 44.341 15.247 L 46.367 15.247 L 46.367 17.76 C 42.142002 18.227001 38.161 19.493 34.579002 21.408 L 32.909004 19.739 C 31.494003 18.325 29.200005 18.324001 27.789005 19.739 C 26.375006 21.154 26.375006 23.447 27.789005 24.861 L 28.518005 25.589 C 21.574005 31.609001 17.176006 40.482002 17.176006 50.366 C 17.176006 68.458 31.896008 83.175 49.990005 83.175 C 61.750008 83.175 72.082 76.948006 77.873 67.624 L 71.887 61.64 C 68.139 68.877 60.94 74.051 52.467 74.902 z "/>
        <linearGradient x1="54.8435" gradientTransform="matrix(1 0 0 1 16.7998 656.5898)" y1="-637.1338" x2="54.8435" gradientUnits="userSpaceOnUse" y2="-593.4346" xlink:type="simple" xlink:actuate="onLoad" id="SVGID_3_" xlink:show="other">
            <stop stop-color="#f53f60" offset="0"/>
            <stop stop-color="#ad132f" offset="1"/>
        </linearGradient>
        <path fill="url(#SVGID_3_)" d="M 80.033 63.155 C 81.701 59.229 82.63699 54.920998 82.63699 50.385998 C 82.63699 36.07 73.44899 23.904997 60.649994 19.454998 L 60.649994 43.765 L 80.033 63.155 z "/>
    </g>
</svg>
