<?xml version="1.0" encoding="UTF-8"?>
<svg xmlns="http://www.w3.org/2000/svg" xmlns:xlink="http://www.w3.org/1999/xlink" contentScriptType="text/ecmascript" zoomAndPan="magnify" baseProfile="tiny" contentStyleType="text/css" version="1.1" width="98.855px" preserveAspectRatio="xMidYMid meet" viewBox="0 0 98.855 88" height="88px" x="0px" y="0px">
    <g>
        <path d="M 76.605 49.803 C 78.069 49.803 79.44701 49.234 80.51 48.179 C 81.913 46.769 82.446 44.703 81.906006 42.805 L 74.617004 16.848 C 74.091 14.976999 72.59601 13.506 70.699005 13.004 C 70.24901 12.888 69.783005 12.83 69.32001 12.83 C 67.86901 12.83 66.448006 13.417 65.422005 14.446 L 63.666004 16.198 L 59.569004 12.101 C 55.463005 7.996 49.994003 5.733 44.175003 5.733 C 38.354004 5.733 32.886 7.9969997 28.781002 12.104 C 20.730003 20.153 20.328003 32.983 27.552002 41.531 L 24.847002 40.757 C 24.357002 40.621 23.851002 40.55 23.342003 40.55 C 21.874002 40.55 20.493004 41.12 19.454002 42.155 L 18.933002 42.676 L 18.801003 42.942997 C 17.887003 44.274 17.593002 45.961998 18.039003 47.545998 L 25.323004 73.479 C 25.840004 75.367 27.341003 76.847 29.232004 77.34 C 29.690004 77.462 30.161005 77.523994 30.634005 77.523994 C 32.090004 77.523994 33.512005 76.92899 34.528004 75.907 L 36.283005 74.153 L 40.379005 78.25 C 44.486004 82.357 49.952003 84.618 55.773006 84.618 C 61.59401 84.618 67.063 82.354 71.16901 78.24799 C 79.22101 70.19599 79.618004 57.364994 72.394005 48.819992 L 75.090004 49.589993 C 75.581 49.73 76.091 49.803 76.605 49.803 z M 62.365 47.461 L 56.13 53.697 C 53.703003 56.121998 53.701 60.066998 56.127003 62.496 C 56.321003 62.69 56.322002 63.018997 56.128002 63.212997 C 56.030003 63.310997 55.909 63.359997 55.769 63.359997 C 55.63 63.359997 55.508 63.310997 55.412003 63.213997 L 51.316 59.115997 L 53.097 57.335 C 54.466 55.962997 55.015 53.940998 54.532 52.072998 C 54.050003 50.191998 52.59 48.689 50.710003 48.147 L 36.118004 43.976997 C 36.649002 43.694996 37.143005 43.326996 37.579002 42.888996 L 43.817 36.652996 C 44.994003 35.478996 45.64 33.915997 45.641003 32.252995 C 45.641003 30.588995 44.994003 29.028996 43.821003 27.851994 C 43.723003 27.755993 43.674004 27.633993 43.674004 27.494993 C 43.674004 27.353992 43.722004 27.235992 43.819004 27.137993 C 43.916004 27.041992 44.036003 26.991993 44.178005 26.991993 C 44.318005 26.991993 44.438004 27.042994 44.535004 27.137993 L 48.631004 31.233994 L 46.845005 33.018993 C 45.476006 34.397995 44.929005 36.420994 45.417004 38.276993 C 45.900005 40.157993 47.360004 41.658993 49.238003 42.200993 L 63.831 46.36899 C 63.298 46.657 62.805 47.022 62.365 47.461 z " fill-opacity="0.5" stroke-opacity="0.5"/>
        <path d="M 65.549 52.315 L 59.311005 58.557 C 58.638004 59.228 58.638004 60.316998 59.311005 60.989998 C 61.262005 62.941998 61.264004 66.116 59.312004 68.069 C 57.359005 70.023 54.181004 70.023 52.230003 68.069 L 48.132004 63.971 L 44.959003 60.782 L 49.909004 55.833 C 50.161003 55.58 50.261005 55.214 50.172005 54.866 C 50.083004 54.519 49.817005 54.25 49.472004 54.149002 L 23.618004 46.762 C 23.263004 46.663002 22.886003 46.760002 22.629004 47.017002 L 22.628004 47.019 C 22.370005 47.277 22.271004 47.653 22.370005 48.003002 L 29.660004 73.96001 C 29.755003 74.30601 30.029003 74.57201 30.375004 74.661 C 30.722004 74.755005 31.090004 74.651 31.343004 74.397 L 36.268005 69.472 L 39.493004 72.673 L 43.560005 76.74 C 50.291004 83.472 61.249004 83.471 67.98701 76.739 C 74.72001 70.006996 74.71801 59.05 67.98501 52.314 C 67.309 51.643 66.221 51.643 65.549 52.315 z "/>
        <path d="M 34.395 41.383 L 40.635002 35.145 C 41.307003 34.474 41.307003 33.382 40.636 32.711 C 38.683002 30.758999 38.682003 27.582998 40.634003 25.631998 C 42.587 23.676998 45.765003 23.676998 47.716003 25.630999 L 51.814003 29.727 L 54.985004 32.916 L 50.036003 37.865 C 49.785004 38.120003 49.683002 38.487003 49.773003 38.832 C 49.863003 39.178 50.129 39.449 50.472004 39.548 L 76.328 46.936 C 76.681 47.037003 77.05801 46.938 77.317 46.681 L 77.318 46.681 C 77.575005 46.421 77.673004 46.046 77.575005 45.695 L 70.285 19.741 C 70.189 19.394 69.91801 19.125 69.57001 19.036 C 69.22301 18.946 68.854004 19.046999 68.603004 19.300999 L 63.674004 24.227 L 60.449005 21.022 L 56.386005 16.958 C 49.651005 10.225 38.694008 10.225 31.958006 16.959 C 25.226006 23.689999 25.226006 34.648 31.958006 41.384 C 32.634 42.058 33.722 42.058 34.395 41.383 z "/>
        <linearGradient x1="4359.6719" gradientTransform="matrix(0.7071 -0.7071 0.7071 0.7071 -5446.0596 716.7548)" y1="3409.7266" x2="4334.876" gradientUnits="userSpaceOnUse" y2="3434.5225" xlink:type="simple" xlink:actuate="onLoad" id="SVGID_1_" xlink:show="other">
            <stop stop-color="#47e6eb" offset="0"/>
            <stop stop-color="#007cba" offset="1"/>
        </linearGradient>
        <path fill="url(#SVGID_1_)" d="M 65.549 50.643 L 59.311005 56.883003 C 58.638004 57.554005 58.638004 58.642002 59.311005 59.316 C 61.262005 61.267002 61.264004 64.444 59.312004 66.395004 C 57.359005 68.34901 54.181004 68.34901 52.230003 66.397 L 48.132004 62.299004 L 44.959003 59.108 L 49.909004 54.158 C 50.161003 53.908 50.261005 53.54 50.172005 53.194 C 50.083004 52.846 49.817005 52.574 49.472004 52.476 L 23.618004 45.088 C 23.263004 44.988003 22.886003 45.086002 22.629004 45.343002 L 22.628004 45.346 C 22.370005 45.603 22.271004 45.979 22.370005 46.331 L 29.660004 72.286 C 29.755003 72.631004 30.029003 72.899 30.375004 72.98801 C 30.722004 73.08101 31.090004 72.977005 31.343004 72.72401 L 36.268005 67.797005 L 39.493004 71.00101 L 43.560005 75.06601 C 50.291004 81.79701 61.249004 81.79701 67.98701 75.06401 C 74.72001 68.33201 74.71801 57.37601 67.98501 50.64101 C 67.309 49.971 66.221 49.971 65.549 50.643 z "/>
        <linearGradient x1="-9561.1982" gradientTransform="matrix(-0.7071 0.7071 -0.7071 -0.7071 257.5946 13737.0186)" y1="9851.5898" x2="-9536.4033" gradientUnits="userSpaceOnUse" y2="9826.7949" xlink:type="simple" xlink:actuate="onLoad" id="SVGID_2_" xlink:show="other">
            <stop stop-color="#edf5b3" offset="0"/>
            <stop stop-color="#7fa608" offset="1"/>
        </linearGradient>
        <path fill="url(#SVGID_2_)" d="M 34.395 39.711 L 40.635002 33.471 C 41.307003 32.8 41.307003 31.711 40.636 31.038 C 38.683002 29.086 38.682003 25.909 40.634003 23.96 C 42.587 22.005 45.765003 22.005 47.716003 23.956999 L 51.814003 28.053999 L 54.985004 31.244999 L 50.036003 36.191998 C 49.785004 36.446 49.683002 36.814 49.773003 37.158997 C 49.863003 37.504997 50.129 37.777996 50.472004 37.874996 L 76.328 45.260998 C 76.681 45.362 77.05801 45.266 77.317 45.008 L 77.318 45.008 C 77.575005 44.75 77.673004 44.374 77.575005 44.02 L 70.285 18.066 C 70.189 17.719 69.91801 17.452 69.57001 17.361 C 69.22301 17.272 68.854004 17.375 68.603004 17.626 L 63.674004 22.553999 L 60.45 19.35 L 56.387 15.286 C 49.652 8.554001 38.695 8.554001 31.959002 15.287001 C 25.227001 22.019001 25.227001 32.977 31.959002 39.711 C 32.634 40.384 33.722 40.384 34.395 39.711 z "/>
    </g>
</svg>
