<?xml version="1.0" encoding="UTF-8"?>
<svg xmlns="http://www.w3.org/2000/svg" xmlns:xlink="http://www.w3.org/1999/xlink" contentScriptType="text/ecmascript" width="96" baseProfile="tiny" zoomAndPan="magnify" contentStyleType="text/css" viewBox="0 0 96 16" height="16" preserveAspectRatio="xMidYMid meet" version="1.0">
    <rect width="96" fill="none" height="16"/>
    <path fill="#282828" d="M 64.0 2.791 C 66.872 2.791 69.21 5.1289997 69.21 8.0 C 69.21 10.871 66.872 13.209 64.0 13.209 C 61.128 13.209 58.79 10.871 58.79 8.0 C 58.79 5.1289997 61.128 2.791 64.0 2.791 M 64.0 1.791 C 60.576 1.791 57.79 4.576 57.79 8.0 C 57.79 11.424 60.576 14.209 64.0 14.209 C 67.424 14.209 70.21 11.424 70.21 8.0 C 70.21 4.576 67.424 1.791 64.0 1.791 L 64.0 1.791 z "/>
    <path fill="#b4b4b4" d="M 64.0 13.209 C 61.128 13.209 58.79 10.870999 58.79 8.0 C 58.79 5.1289997 61.128 2.791 64.0 2.791 C 66.872 2.791 69.21 5.129 69.21 8.0 C 69.21 10.871 66.872 13.209 64.0 13.209 L 64.0 13.209 z "/>
    <path fill="#282828" d="M 48.0 2.791 C 50.872 2.791 53.21 5.1289997 53.21 8.0 C 53.21 10.871 50.872 13.209 48.0 13.209 C 45.128 13.209 42.79 10.871 42.79 8.0 C 42.79 5.1289997 45.128 2.791 48.0 2.791 M 48.0 1.791 C 44.576 1.791 41.79 4.576 41.79 8.0 C 41.79 11.424 44.576 14.209 48.0 14.209 C 51.424 14.209 54.21 11.424 54.21 8.0 C 54.21 4.576 51.424 1.791 48.0 1.791 L 48.0 1.791 z "/>
    <path fill="#b4b4b4" d="M 48.0 13.209 C 45.128 13.209 42.79 10.870999 42.79 8.0 C 42.79 5.1289997 45.128 2.791 48.0 2.791 C 50.872 2.791 53.21 5.129 53.21 8.0 C 53.21 10.871 50.872 13.209 48.0 13.209 L 48.0 13.209 z "/>
    <path fill="#b4b4b4" d="M 32.0 1.709 C 35.469 1.709 38.291 4.531 38.291 8.0 C 38.291 11.469 35.469 14.291 32.0 14.291 C 28.53 14.291 25.707 11.469 25.707 8.0 C 25.707 4.531 28.53 1.709 32.0 1.709 M 32.0 0.5 C 27.864 0.5 24.5 3.863 24.5 8.0 C 24.5 12.135 27.864 15.5 32.0 15.5 C 36.135 15.5 39.5 12.135 39.5 8.0 C 39.5 3.863 36.135 0.5 32.0 0.5 L 32.0 0.5 z "/>
    <path fill="#282828" d="M 32.0 14.291 C 28.53 14.291 25.707 11.469 25.707 8.0 C 25.707 4.531 28.53 1.709 32.0 1.709 C 35.469 1.709 38.291 4.531 38.291 8.0 C 38.291 11.469 35.469 14.291 32.0 14.291 L 32.0 14.291 z "/>
</svg>
