<?xml version="1.0" encoding="UTF-8"?>
<svg xmlns="http://www.w3.org/2000/svg" xmlns:xlink="http://www.w3.org/1999/xlink" contentScriptType="text/ecmascript" zoomAndPan="magnify" baseProfile="tiny" contentStyleType="text/css" version="1.1" width="98.855px" preserveAspectRatio="xMidYMid meet" viewBox="0 0 98.855 88" height="88px" x="0px" y="0px">
    <g>
        <path d="M 37.742 84.417 C 35.658 84.417 33.696 83.606 32.219 82.137 L 7.926 57.841 C 5.682 55.607 5.014 52.259 6.229 49.321 C 7.445 46.39 10.278 44.495 13.452 44.495 L 14.054999 44.495 C 13.827999 44.177998 13.624 43.839 13.443999 43.479 C 12.11 40.824 12.376999 37.695 14.138 35.312 L 21.164 25.822 C 22.621 23.841 24.973 22.651001 27.448 22.651001 L 52.246002 22.651001 L 52.246002 15.672001 C 52.246002 12.497001 54.138 9.662001 57.069 8.449001 C 58.031002 8.053001 59.034 7.854001 60.064 7.854001 C 62.149 7.854001 64.113 8.666001 65.59 10.143002 L 89.88 34.43 C 92.127 36.676 92.791 40.025 91.572 42.956 C 90.36 45.882 87.525 47.776 84.353 47.776 L 83.749 47.776 C 83.975 48.09 84.179 48.427002 84.358 48.787003 C 85.695 51.446003 85.428 54.575005 83.664 56.956 L 76.643005 66.448 C 75.173004 68.435 72.824005 69.617 70.357 69.617 L 45.56 69.617 L 45.56 76.598 C 45.56 79.765 43.669003 82.602 40.745003 83.817 C 39.758 84.222 38.76 84.417 37.742 84.417 L 37.742 84.417 z " fill-opacity="0.5" stroke-opacity="0.5"/>
        <path d="M 79.225 53.037 C 79.576 53.73 79.503 54.571 79.039 55.197 L 72.020004 64.684 C 71.62601 65.21 71.012 65.521996 70.356 65.521996 L 39.81 65.521996 L 39.81 78.253 C 39.81 79.090996 39.307003 79.845 38.536003 80.164 C 38.278004 80.269005 38.012005 80.321 37.744003 80.321 C 37.205 80.321 36.677002 80.112 36.283005 79.717 L 11.994 55.429 C 11.400001 54.838 11.226001 53.951 11.543 53.174 C 11.863 52.402 12.619 51.901 13.455 51.901 L 77.377 51.901 C 78.159 51.898 78.871 52.338 79.225 53.037 z M 85.814 40.151 L 61.525 15.864 C 60.934002 15.269 60.050003 15.096001 59.271 15.413 C 58.499 15.734 57.998 16.489 57.998 17.324 L 57.998 30.055 L 27.449 30.055 C 26.796 30.055 26.178 30.366001 25.789 30.893 L 18.767 40.384 C 18.303 41.011997 18.232 41.846 18.583 42.544 C 18.937 43.239998 19.652 43.681 20.43 43.681 L 84.353 43.681 C 85.190994 43.681 85.945 43.178 86.264 42.408 C 86.583 41.631 86.407 40.744 85.814 40.151 z "/>
        <linearGradient x1="32.1047" gradientTransform="matrix(1 0 0 1 16.7998 656.5898)" y1="-642.9863" x2="32.1047" gradientUnits="userSpaceOnUse" y2="-577.9238" xlink:type="simple" xlink:actuate="onLoad" id="SVGID_1_" xlink:show="other">
            <stop stop-color="#48f0d6" offset="0"/>
            <stop stop-color="#007c80" offset="1"/>
        </linearGradient>
        <path fill="url(#SVGID_1_)" d="M 79.225 51.382 C 79.576 52.078 79.503 52.915 79.039 53.542 L 72.020004 63.029 C 71.62601 63.557 71.012 63.868 70.356 63.868 L 39.81 63.868 L 39.81 76.6 C 39.81 77.437996 39.307003 78.189995 38.536003 78.511 C 38.278004 78.615 38.012005 78.666 37.744003 78.666 C 37.205 78.666 36.677002 78.457 36.283005 78.063 L 11.994 53.774 C 11.400001 53.185997 11.226001 52.295 11.543 51.521 C 11.863 50.749 12.619 50.244 13.455 50.244 L 77.377 50.244 C 78.159 50.242 78.871 50.683 79.225 51.382 z M 85.814 38.496 L 61.525 14.208 C 60.934002 13.617001 60.050003 13.440001 59.271 13.761001 C 58.499 14.080001 57.998 14.835001 57.998 15.670001 L 57.998 28.399002 L 27.449 28.399002 C 26.796 28.399002 26.178 28.711002 25.789 29.239002 L 18.767 38.724003 C 18.303 39.353004 18.232 40.186005 18.583 40.887 C 18.937 41.583 19.652 42.024002 20.43 42.024002 L 84.353 42.024002 C 85.190994 42.024002 85.945 41.52 86.264 40.748 C 86.585 39.977 86.407 39.088 85.814 38.496 z "/>
    </g>
</svg>
