<?xml version="1.0" encoding="UTF-8"?>
<svg xmlns="http://www.w3.org/2000/svg" xmlns:xlink="http://www.w3.org/1999/xlink" contentScriptType="text/ecmascript" zoomAndPan="magnify" baseProfile="tiny" contentStyleType="text/css" version="1.1" width="98.855px" preserveAspectRatio="xMidYMid meet" viewBox="0 0 98.855 88" height="88px" x="0px" y="0px">
    <g>
        <path d="M 84.912 30.342 C 82.793 26.615 78.961 24.168 74.605 23.696 L 74.605 13.799999 C 74.605 8.285999 70.119 3.7999992 64.605 3.7999992 L 25.105003 3.7999992 C 19.591003 3.7999992 15.105003 8.285999 15.105003 13.799999 L 15.105003 75.8 C 15.105003 81.316 19.591003 85.8 25.105003 85.8 L 64.605 85.8 C 64.852005 85.8 65.091 85.783005 65.334 85.754005 L 71.126 85.427 C 71.897 85.617004 72.698 85.72 73.520996 85.72 C 74.616 85.72 75.698 85.539 76.75 85.183 C 81.122 83.683 83.832 79.29 83.394 74.461 C 83.273994 71.686 82.848 67.272995 82.437 63.006996 C 82.046 58.976997 81.461 52.908997 81.536995 51.514996 C 81.90099 49.310997 83.896996 45.447994 84.86299 43.576996 C 85.12899 43.061996 85.356995 42.619995 85.52899 42.266994 C 87.233 38.774 86.986 33.98 84.912 30.342 z " fill-opacity="0.5" stroke-opacity="0.5"/>
        <path d="M 38.11 73.748 C 38.11 74.852 37.214 75.748 36.11 75.748 L 31.11 75.748 C 30.006 75.748 29.11 74.852 29.11 73.748 L 29.11 71.248 C 29.11 70.144005 30.006 69.248 31.11 69.248 L 36.11 69.248 C 37.214 69.248 38.11 70.144005 38.11 71.248 L 38.11 73.748 z M 49.36 73.748 C 49.36 74.852 48.464 75.748 47.36 75.748 L 42.36 75.748 C 41.256 75.748 40.36 74.852 40.36 73.748 L 40.36 71.248 C 40.36 70.144005 41.256 69.248 42.36 69.248 L 47.36 69.248 C 48.464 69.248 49.36 70.144005 49.36 71.248 L 49.36 73.748 z M 60.61 73.748 C 60.61 74.852 59.714 75.748 58.61 75.748 L 53.61 75.748 C 52.506 75.748 51.61 74.852 51.61 73.748 L 51.61 71.248 C 51.61 70.144005 52.506 69.248 53.61 69.248 L 58.61 69.248 C 59.714 69.248 60.61 70.144005 60.61 71.248 L 60.61 73.748 z M 20.11 77.748 C 20.11 80.51 22.348 82.748 25.11 82.748 L 64.61 82.748 C 64.715004 82.748 64.813 82.726 64.917 82.719 C 64.591 82.155 64.307 81.556 64.09 80.918 C 63.742996 79.906 63.561996 78.17 63.568996 77.217 L 63.565998 77.217 C 63.594997 75.149 63.856 71.103004 64.129 66.818 C 64.437 62.074 64.898994 54.904 64.777 53.369 C 64.695 52.345 63.651 50.556 62.634 49.319 C 61.853 48.572 61.188 47.713 60.607998 46.791 L 60.607998 61.251 C 60.607998 62.355 59.711998 63.251 58.607998 63.251 L 31.107998 63.251 C 30.003998 63.251 29.107998 62.355 29.107998 61.251 L 29.107998 21.751 C 29.107998 20.647 30.003998 19.751 31.107998 19.751 L 58.607998 19.751 C 59.711998 19.751 60.607998 20.647 60.607998 21.751 L 60.607998 32.572998 C 60.940998 32.025997 61.309 31.492998 61.721996 30.981998 C 61.721996 30.981998 63.406 28.741 66.842995 27.102999 C 67.77 26.661999 68.69399 26.350998 69.607994 26.131998 L 69.607994 15.748 C 69.607994 12.986 67.369995 10.748 64.607994 10.748 L 25.107994 10.748 C 22.345993 10.748 20.107994 12.986 20.107994 15.748 L 20.11 77.748 L 20.11 77.748 z "/>
        <path d="M 81.037 42.021 C 81.991005 40.068 81.83 36.974 80.57 34.761 C 79.137 32.241 76.555 30.772001 73.76 30.564001 L 76.489 37.626 L 73.547 41.692 L 68.514 40.679 L 65.614 34.121002 C 63.371998 36.893 62.863 40.714 64.639 43.836002 C 65.081 44.612003 65.631 45.289 66.266 45.859 C 66.849 46.536 69.511 49.789 69.765 52.974 C 70.018 56.212997 68.629 72.619 68.567 77.283 C 68.548004 77.501 68.675 78.877 68.821 79.298996 C 69.709 81.90099 72.534996 83.281 75.132996 82.398994 C 77.506996 81.58499 78.66699 79.17 78.406 76.756 C 78.163 70.67899 76.219 55.219997 76.581 52.803997 C 77.117 49.2 80.083 43.966 81.037 42.021 z M 73.591 79.355 C 72.528 79.355 71.666 78.495 71.666 77.429 C 71.666 76.367004 72.526 75.507 73.591 75.507 C 74.65401 75.507 75.517006 76.367004 75.517006 77.429 C 75.516 78.495 74.653 79.355 73.591 79.355 z "/>
        <linearGradient x1="28.054" gradientTransform="matrix(1 0 0 1 16.7998 656.5898)" y1="-647.791" x2="28.054" gradientUnits="userSpaceOnUse" y2="-575.791" xlink:type="simple" xlink:actuate="onLoad" id="SVGID_1_" xlink:show="other">
            <stop stop-color="#6dcad7" offset="0"/>
            <stop stop-color="#037db9" offset="1"/>
        </linearGradient>
        <path fill="url(#SVGID_1_)" d="M 38.106 71.799 C 38.106 72.903 37.21 73.799 36.106 73.799 L 31.105999 73.799 C 30.001999 73.799 29.105999 72.903 29.105999 71.799 L 29.105999 69.299 C 29.105999 68.19501 30.001999 67.299 31.105999 67.299 L 36.106 67.299 C 37.21 67.299 38.106 68.19501 38.106 69.299 L 38.106 71.799 z M 49.356 71.799 C 49.356 72.903 48.46 73.799 47.356 73.799 L 42.356 73.799 C 41.252 73.799 40.356 72.903 40.356 71.799 L 40.356 69.299 C 40.356 68.19501 41.252 67.299 42.356 67.299 L 47.356 67.299 C 48.46 67.299 49.356 68.19501 49.356 69.299 L 49.356 71.799 z M 60.606 71.799 C 60.606 72.903 59.71 73.799 58.606 73.799 L 53.606 73.799 C 52.502 73.799 51.606 72.903 51.606 71.799 L 51.606 69.299 C 51.606 68.19501 52.502 67.299 53.606 67.299 L 58.606 67.299 C 59.71 67.299 60.606 68.19501 60.606 69.299 L 60.606 71.799 z M 20.106 75.799 C 20.106 78.563 22.344002 80.799 25.106 80.799 L 64.606 80.799 C 64.71 80.799 64.809006 80.777 64.913 80.771 C 64.585 80.206 64.303 79.607 64.084 78.969 C 63.739 77.957 63.558 76.221 63.564 75.268005 L 63.561 75.268005 C 63.59 73.200005 63.851 69.15301 64.124 64.869 C 64.432 60.125004 64.894 52.955 64.772 51.420002 C 64.69 50.398003 63.646004 48.607002 62.627003 47.370003 C 61.848003 46.623 61.183002 45.764004 60.603004 44.842003 L 60.603004 59.302002 C 60.603004 60.406002 59.707005 61.302002 58.603004 61.302002 L 31.103004 61.302002 C 29.999004 61.302002 29.103004 60.406002 29.103004 59.302002 L 29.103004 19.802002 C 29.103004 18.698002 29.999004 17.802002 31.103004 17.802002 L 58.603004 17.802002 C 59.707005 17.802002 60.603004 18.698002 60.603004 19.802002 L 60.603004 30.624 C 60.936005 30.077 61.304005 29.544 61.716003 29.034 C 61.716003 29.034 63.401005 26.792 66.836006 25.154 C 67.76501 24.713 68.689 24.401999 69.603004 24.184 L 69.603004 13.799 C 69.603004 11.037 67.365005 8.799 64.603004 8.799 L 25.103004 8.799 C 22.340004 8.799 20.103004 11.037 20.103004 13.799 L 20.106 75.799 L 20.106 75.799 z "/>
        <linearGradient x1="55.8044" gradientTransform="matrix(1 0 0 1 16.7998 656.5898)" y1="-627.9746" x2="55.8044" gradientUnits="userSpaceOnUse" y2="-575.873" xlink:type="simple" xlink:actuate="onLoad" id="SVGID_2_" xlink:show="other">
            <stop stop-color="#cdd9dd" offset="0"/>
            <stop stop-color="#909090" offset="1"/>
        </linearGradient>
        <path fill="url(#SVGID_2_)" d="M 81.033 40.072 C 81.987 38.119 81.826 35.024998 80.565994 32.813 C 79.132996 30.292 76.550995 28.823 73.754 28.615 L 76.483 35.678 L 73.541 39.743 L 68.506 38.73 L 65.607994 32.172 C 63.365993 34.944 62.856995 38.766 64.631 41.888 C 65.075 42.662 65.625 43.34 66.257996 43.91 C 66.840996 44.586998 69.505 47.84 69.756996 51.025 C 70.01199 54.266003 68.62299 70.67 68.561 75.334 C 68.542 75.553 68.669 76.928 68.814995 77.351 C 69.702995 79.951996 72.52899 81.332 75.12699 80.45 C 77.50099 79.63699 78.66099 77.22099 78.399994 74.808 C 78.157 68.730995 76.213 53.272 76.575 50.856 C 77.114 47.251 80.08 42.017 81.033 40.072 z M 73.587 77.406 C 72.523994 77.406 71.661995 76.546 71.661995 75.480995 C 71.661995 74.41799 72.521996 73.56 73.587 73.56 C 74.65 73.56 75.513 74.418 75.513 75.480995 C 75.512 76.546 74.649 77.406 73.587 77.406 z "/>
    </g>
</svg>
