<?xml version="1.0" encoding="UTF-8"?>
<svg xmlns="http://www.w3.org/2000/svg" xmlns:xlink="http://www.w3.org/1999/xlink" contentScriptType="text/ecmascript" width="96" baseProfile="tiny" zoomAndPan="magnify" contentStyleType="text/css" viewBox="0 0 96 16" height="16" preserveAspectRatio="xMidYMid meet" version="1.0">
    <rect width="96" fill="none" height="16"/>
    <path fill="#282828" d="M 64.0 2.791 C 66.872 2.791 69.21 5.1289997 69.21 8.0 C 69.21 10.871 66.872 13.209 64.0 13.209 C 61.128 13.209 58.79 10.871 58.79 8.0 C 58.79 5.1289997 61.128 2.791 64.0 2.791 M 64.0 1.791 C 60.576 1.791 57.79 4.576 57.79 8.0 C 57.79 11.424 60.576 14.209 64.0 14.209 C 67.424 14.209 70.21 11.424 70.21 8.0 C 70.21 4.576 67.424 1.791 64.0 1.791 L 64.0 1.791 z "/>
    <path fill="#b4b4b4" d="M 64.0 13.209 C 61.128 13.209 58.79 10.870999 58.79 8.0 C 58.79 5.1289997 61.128 2.791 64.0 2.791 C 66.872 2.791 69.21 5.129 69.21 8.0 C 69.21 10.871 66.872 13.209 64.0 13.209 L 64.0 13.209 z "/>
    <path fill="#282828" d="M 32.0 2.791 C 34.872 2.791 37.21 5.1289997 37.21 8.0 C 37.21 10.871 34.872 13.209 32.0 13.209 C 29.128002 13.209 26.79 10.871 26.79 8.0 C 26.79 5.1289997 29.128 2.791 32.0 2.791 M 32.0 1.791 C 28.576 1.791 25.79 4.576 25.79 8.0 C 25.79 11.424 28.576 14.209 32.0 14.209 C 35.424 14.209 38.21 11.424 38.21 8.0 C 38.21 4.576 35.424 1.791 32.0 1.791 L 32.0 1.791 z "/>
    <path fill="#b4b4b4" d="M 32.0 13.209 C 29.128 13.209 26.79 10.870999 26.79 8.0 C 26.79 5.1289997 29.128 2.791 32.0 2.791 C 34.872 2.791 37.21 5.129 37.21 8.0 C 37.21 10.871 34.872 13.209 32.0 13.209 L 32.0 13.209 z "/>
    <path fill="#b4b4b4" d="M 48.0 1.709 C 51.469 1.709 54.291 4.531 54.291 8.0 C 54.291 11.469 51.469 14.291 48.0 14.291 C 44.53 14.291 41.707 11.469 41.707 8.0 C 41.707 4.531 44.53 1.709 48.0 1.709 M 48.0 0.5 C 43.864 0.5 40.5 3.863 40.5 8.0 C 40.5 12.135 43.864 15.5 48.0 15.5 C 52.135 15.5 55.5 12.135 55.5 8.0 C 55.5 3.863 52.135 0.5 48.0 0.5 L 48.0 0.5 z "/>
    <path fill="#282828" d="M 48.0 14.291 C 44.53 14.291 41.707 11.469 41.707 8.0 C 41.707 4.531 44.53 1.709 48.0 1.709 C 51.469 1.709 54.291 4.531 54.291 8.0 C 54.291 11.469 51.469 14.291 48.0 14.291 L 48.0 14.291 z "/>
</svg>
