<?xml version="1.0" encoding="UTF-8"?>
<svg xmlns="http://www.w3.org/2000/svg" xmlns:xlink="http://www.w3.org/1999/xlink" contentScriptType="text/ecmascript" zoomAndPan="magnify" baseProfile="tiny" contentStyleType="text/css" version="1.1" width="87.002px" preserveAspectRatio="xMidYMid meet" viewBox="0 0 87.002 87.672" height="87.672px" x="0px" y="0px">
    <g>
        <path d="M 81.33 28.47 L 81.205 28.390999 L 47.156 9.948 C 45.912 9.21 44.498 8.82 43.05 8.82 C 41.604 8.82 40.19 9.21 38.946 9.947 L 4.897 28.391 L 4.772 28.47 C 1.0169997 30.817 -0.12800026 35.781998 2.2189999 39.538 C 3.6959999 41.904 6.245 43.315 9.033 43.315 C 10.474 43.315 11.887 42.927998 13.127 42.191998 L 14.705999 41.344997 C 14.704999 41.37 14.700999 41.399 14.700999 41.426 L 14.700999 73.556 C 14.700999 77.465 17.880999 80.644 21.789 80.644 L 64.314 80.644 C 68.222 80.644 71.401 77.465 71.401 73.556 L 71.401 41.426 C 71.401 41.399998 71.397 41.371998 71.396 41.343998 L 72.975006 42.192997 C 74.215004 42.927998 75.62501 43.315998 77.07001 43.315998 C 79.85901 43.315998 82.406006 41.905 83.88301 39.542 C 86.228 35.783 85.084 30.817 81.33 28.47 z " fill-opacity="0.5"/>
        <g>
            <path d="M 65.528 41.289 L 44.266 30.421 C 43.518997 29.970999 42.582 29.970999 41.836 30.421 L 20.573 41.289 C 19.861 41.715 19.425 42.486 19.425 43.315002 L 19.425 75.44501 C 19.425 76.74901 20.483 77.80701 21.786999 77.80701 L 30.765 77.80701 C 32.071 77.80701 33.127 76.74801 33.127 75.44501 L 33.127 58.907 L 45.412 58.907 L 45.412 75.445 C 45.412 76.749 46.469997 77.807 47.774 77.807 L 64.312 77.807 C 65.618996 77.807 66.673996 76.748 66.673996 75.445 L 66.673996 43.315 C 66.677 42.485 66.241 41.715 65.528 41.289 z "/>
            <path d="M 78.823 34.368 L 44.802998 15.941 C 43.727997 15.269 42.37 15.269 41.296997 15.941 L 7.277 34.368 C 5.7279997 35.334 5.258 37.376 6.226 38.923 C 7.194 40.474 9.235 40.943 10.784 39.974 L 43.052002 22.641998 L 75.318 39.974 C 75.863 40.315 76.471 40.476997 77.07 40.476997 C 78.173 40.476997 79.25 39.926 79.878 38.921997 C 80.843 37.376 80.372 35.336 78.823 34.368 z "/>
        </g>
        <linearGradient x1="26.2505" gradientTransform="matrix(1 0 0 1 16.7998 -753.0078)" y1="766.5547" x2="26.2505" gradientUnits="userSpaceOnUse" y2="828.9248" xlink:type="simple" xlink:actuate="onLoad" id="SVGID_1_" xlink:show="other">
            <stop stop-color="#48f0d6" offset="0"/>
            <stop stop-color="#007c80" offset="1"/>
        </linearGradient>
        <path fill="url(#SVGID_1_)" d="M 66.677 41.423 L 66.677 73.553 C 66.677 74.857 65.619 75.916 64.315 75.916 L 47.777 75.916 C 46.469 75.916 45.414 74.856 45.414 73.553 L 45.414 57.017 L 33.128 57.017 L 33.128 73.554 C 33.128 74.858 32.07 75.917 30.765999 75.917 L 21.787998 75.917 C 20.481998 75.917 19.425 74.857 19.425 73.554 L 19.425 41.424 C 19.425 40.593998 19.861 39.826 20.571999 39.399 L 41.835 28.53 C 42.582 28.08 43.517998 28.08 44.265 28.53 L 65.528 39.398003 C 66.241 39.825 66.677 40.595 66.677 41.423 z M 79.876 37.034 C 79.247 38.038002 78.17 38.589 77.067 38.589 C 76.468 38.589 75.862 38.426003 75.315 38.086002 L 43.05 20.754 L 10.783 38.086 C 9.233 39.053997 7.193 38.584 6.225 37.035 C 5.258 35.485 5.7279997 33.445 7.276 32.479 L 41.296 14.052 C 42.371002 13.379 43.728 13.379 44.803 14.052 L 78.823 32.479 C 80.372 33.444 80.843 35.485 79.876 37.034 z "/>
    </g>
</svg>
