<?xml version="1.0" encoding="UTF-8"?>
<svg xmlns="http://www.w3.org/2000/svg" xmlns:xlink="http://www.w3.org/1999/xlink" contentScriptType="text/ecmascript" zoomAndPan="magnify" baseProfile="tiny" contentStyleType="text/css" version="1.1" width="98.855px" preserveAspectRatio="xMidYMid meet" viewBox="0 0 98.855 88" height="88px" x="0px" y="0px">
    <path d="M 70.09 24.755 C 71.339 22.823 72.062996 20.522 72.062996 18.055 C 72.062996 11.232 66.509995 5.6810007 59.686996 5.6810007 C 56.124996 5.6810007 52.92 7.2020006 50.662994 9.619 C 46.24 5.895 38.668 3.039 30.996 6.695 C 26.651001 8.764 24.526001 11.598 24.526001 11.598 C 19.95 17.254 19.239 24.859 22.725 30.987999 C 23.529001 32.392998 24.522001 33.662 25.677 34.766 C 26.963 36.328 28.282 38.588997 28.385 39.884 C 28.536 41.822998 27.952 50.884 27.566 56.883 C 27.216 62.295 26.889 67.406 26.851 70.026 L 26.855 70.026 C 26.841 71.227 27.074999 73.422 27.511 74.702 C 29.254 79.802 34.047 83.229004 39.436 83.229004 C 40.82 83.229004 42.190002 83.00201 43.516 82.549 C 45.582 81.840004 47.354 80.619 48.735 79.051 C 50.048 81.168 52.389 82.584 55.057 82.584 L 64.265 82.584 C 68.369 82.584 71.707 79.246 71.707 75.145 L 71.707 60.91 C 74.823 60.041 77.117004 57.18 77.117004 53.791 L 77.117004 32.137 C 77.118 28.182 73.997 24.943 70.09 24.755 z " fill-opacity="0.5" stroke-opacity="0.5"/>
    <path d="M 72.66 33.424 L 72.66 55.08 C 72.66 56.668003 71.36 57.969 69.771 57.969 L 67.25 57.969 L 67.25 76.432 C 67.25 78.048996 65.927 79.375 64.308 79.375 L 55.1 79.375 C 53.482998 79.375 52.156998 78.047 52.156998 76.432 L 52.156998 57.967 L 50.947 57.967 C 50.878998 57.25 50.810997 56.529 50.741997 55.816998 C 50.250996 50.720997 49.511997 43.057 49.601997 41.294 C 50.065 38.507 52.583996 33.628 53.804996 31.266998 C 53.941998 31.003998 54.062996 30.765999 54.180996 30.534998 L 55.098995 30.534998 L 64.30699 30.534998 L 69.76999 30.534998 C 71.359 30.535 72.66 31.835 72.66 33.424 z M 59.729 11.47 C 57.314 11.47 55.154 12.56 53.71 14.274 C 52.554 15.643 51.854 17.41 51.854 19.344 C 51.854 22.251999 53.434002 24.786 55.779 26.149 C 56.940998 26.826 58.287 27.219 59.726997 27.219 C 64.077995 27.219 67.603 23.693 67.603 19.343 C 67.605 14.996 64.08 11.47 59.729 11.47 z "/>
    <path d="M 48.971 26.838 C 50.179 24.369999 49.974 20.462 48.383 17.666 C 46.57 14.485001 43.308 12.624001 39.778 12.363001 L 43.225998 21.282001 L 39.506996 26.420002 L 33.144997 25.141003 L 29.481997 16.857002 C 26.648996 20.362003 26.005997 25.187002 28.250996 29.135002 C 28.811996 30.114002 29.506996 30.970001 30.306995 31.693003 C 31.041996 32.549004 34.409996 36.658005 34.726997 40.683002 C 35.045998 44.777 33.294 65.504 33.211998 71.398 C 33.192997 71.673004 33.351997 73.412 33.532997 73.945 C 34.656 77.228 38.225998 78.978 41.507996 77.859 C 44.508995 76.83 45.975994 73.781 45.646996 70.732 C 45.337997 63.052002 42.884995 43.517002 43.339996 40.465004 C 44.019 35.91 47.768 29.295 48.971 26.838 z M 39.563 74.012 C 38.22 74.012 37.133 72.928 37.133 71.582 C 37.133 70.242004 38.22 69.154 39.563 69.154 C 40.903 69.154 41.995 70.242 41.995 71.582 C 41.995 72.928 40.904 74.012 39.563 74.012 z "/>
    <linearGradient x1="44.2854" gradientTransform="matrix(1 0 0 1 16.7998 656.5898)" y1="-672.9175" x2="44.2854" gradientUnits="userSpaceOnUse" y2="-578.506" xlink:type="simple" xlink:actuate="onLoad" id="SVGID_1_" xlink:show="other">
        <stop stop-color="#f53f60" offset="0"/>
        <stop stop-color="#ad132f" offset="1"/>
    </linearGradient>
    <path fill="url(#SVGID_1_)" d="M 50.906 56.676 C 50.837997 55.961 50.767998 55.241997 50.699997 54.525997 C 50.207996 49.434 49.470997 41.767998 49.560997 40.004997 C 50.021996 37.216995 52.542995 32.336998 53.763996 29.975998 C 53.899998 29.712997 54.020996 29.475998 54.139996 29.245998 L 55.056995 29.245998 L 64.26599 29.245998 L 69.72799 29.245998 C 71.316986 29.245998 72.61699 30.543999 72.61699 32.135 L 72.61699 53.788998 C 72.61699 55.378998 71.316986 56.676 69.72799 56.676 L 67.206985 56.676 L 67.206985 75.145 C 67.206985 76.759995 65.88199 78.086 64.264984 78.086 L 55.056984 78.086 C 53.439983 78.086 52.113983 76.76 52.113983 75.145 M 59.688 10.181 C 57.272 10.181 55.113 11.273 53.668 12.985 C 52.513 14.355 51.813 16.125 51.813 18.055 C 51.813 20.964 53.393 23.498001 55.738 24.862 C 56.899998 25.536999 58.246 25.931 59.685997 25.931 C 64.036995 25.931 67.562 22.406 67.562 18.055 C 67.564 13.708 64.039 10.181 59.688 10.181 z "/>
    <linearGradient x1="21.4802" gradientTransform="matrix(1 0 0 1 16.7998 656.5898)" y1="-645.5181" x2="21.4802" gradientUnits="userSpaceOnUse" y2="-579.6802" xlink:type="simple" xlink:actuate="onLoad" id="SVGID_2_" xlink:show="other">
        <stop stop-color="#cedade" offset="0"/>
        <stop stop-color="#919191" offset="1"/>
    </linearGradient>
    <path fill="url(#SVGID_2_)" d="M 48.929 25.548 C 50.136 23.08 49.932 19.172 48.341 16.378 C 46.529 13.196 43.266 11.335 39.736 11.0720005 L 43.184 19.995 L 39.463997 25.134 L 33.102997 23.854 L 29.438997 15.57 C 26.605997 19.074 25.962997 23.899 28.208998 27.846 C 28.769999 28.826 29.464998 29.681 30.263998 30.403 C 30.999998 31.258 34.367996 35.371 34.684 39.394 C 35.003998 43.49 33.252 64.216 33.17 70.11 C 33.149998 70.385 33.309998 72.124 33.490997 72.657 C 34.611996 75.942 38.184 77.689995 41.465996 76.573 C 44.465996 75.542 45.932995 72.494995 45.604996 69.444 C 45.295998 61.764 42.843994 42.231003 43.297997 39.178 C 43.976 34.62 47.726 28.006 48.929 25.548 z M 39.52 72.723 C 38.179 72.723 37.091 71.637 37.091 70.293 C 37.091 68.953 38.178 67.865 39.52 67.865 C 40.862 67.865 41.954002 68.952995 41.954002 70.293 C 41.953 71.637 40.863 72.723 39.52 72.723 z "/>
</svg>
