<?xml version="1.0" encoding="UTF-8"?>
<svg xmlns="http://www.w3.org/2000/svg" xmlns:xlink="http://www.w3.org/1999/xlink" contentScriptType="text/ecmascript" zoomAndPan="magnify" baseProfile="tiny" contentStyleType="text/css" version="1.1" width="27px" preserveAspectRatio="xMidYMid meet" viewBox="10.5 -1.416 27 44.575" height="44.575px" x="0px" y="0px">
    <g stroke-opacity="0.25" fill-opacity="0.25">
        <g>
            <path fill="#000026" d="M 7.0 40.0 C 7.0 40.553 7.448 41.0 8.0 41.0 L 205.9 41.0 C 206.453 41.0 206.9 40.553 206.9 40.0 L 206.9 2.0 C 206.9 1.448 206.453 1.0 205.9 1.0 L 8.0 1.0 C 7.448 1.0 7.0 1.448 7.0 2.0 L 7.0 40.0 z "/>
        </g>
    </g>
    <g stroke-opacity="0.25" fill-opacity="0.25">
        <g>
            <path fill="#000026" d="M 7.0 41.0 C 7.0 41.553 7.448 42.0 8.0 42.0 L 205.9 42.0 C 206.453 42.0 206.9 41.553 206.9 41.0 L 206.9 3.0 C 206.9 2.448 206.453 2.0 205.9 2.0 L 8.0 2.0 C 7.448 2.0 7.0 2.448 7.0 3.0 L 7.0 41.0 z "/>
        </g>
    </g>
    <g stroke-opacity="0.25" fill-opacity="0.25">
        <g>
            <path fill="#000026" d="M 7.0 42.0 C 7.0 42.553 7.448 43.0 8.0 43.0 L 205.9 43.0 C 206.453 43.0 206.9 42.553 206.9 42.0 L 206.9 4.0 C 206.9 3.448 206.453 3.0 205.9 3.0 L 8.0 3.0 C 7.448 3.0 7.0 3.448 7.0 4.0 L 7.0 42.0 z "/>
        </g>
    </g>
    <g>
        <g>
            <linearGradient x1="-688.4717" gradientTransform="matrix(1 0 0 -1 795.4219 -4261.5635)" y1="-4261.4897" x2="-688.4717" gradientUnits="userSpaceOnUse" y2="-4301.5605" xlink:type="simple" xlink:actuate="onLoad" id="SVGID_1_" xlink:show="other">
                <stop stop-color="#2d2d2d" offset="0"/>
                <stop stop-color="#1e1e1e" offset="1"/>
            </linearGradient>
            <path fill="url(#SVGID_1_)" d="M 7.0 39.0 C 7.0 39.553 7.448 40.0 8.0 40.0 L 205.9 40.0 C 206.453 40.0 206.9 39.553 206.9 39.0 L 206.9 1.0 C 206.9 0.448 206.453 0.0 205.9 0.0 L 8.0 0.0 C 7.448 0.0 7.0 0.448 7.0 1.0 L 7.0 39.0 z "/>
        </g>
    </g>
    <rect x="7" width="3.9" fill="none" y="35.5" height="4.5"/>
    <rect x="10.9" width="192.398" fill="none" y="35.5" height="4.5"/>
</svg>
