<?xml version="1.0" encoding="UTF-8"?>
<svg xmlns="http://www.w3.org/2000/svg" xmlns:xlink="http://www.w3.org/1999/xlink" contentScriptType="text/ecmascript" zoomAndPan="magnify" baseProfile="tiny" contentStyleType="text/css" version="1.1" width="109px" preserveAspectRatio="xMidYMid meet" viewBox="0 0 109 113.725" height="113.725px" x="0px" y="0px">
    <g>
        <path fill="#000000" d="M 56.495 7.63 L 54.296997 7.63 C 42.408997 7.63 32.738 17.303 32.738 29.192 L 32.738 45.029 C 32.563 45.02 32.391 45.006 32.214 45.006 C 26.798 45.006 22.394 49.412003 22.394 54.823 L 22.394 60.488003 C 22.394 72.688 29.240002 83.328 39.478 88.591 C 35.017 90.736 32.546 93.927 32.546 97.847 C 32.546 106.311 43.953003 110.099 55.259003 110.099 C 66.563 110.099 77.971 106.311 77.971 97.847 C 77.971 93.989 75.565 90.834 71.221 88.688 C 81.555 83.425 88.641 72.628006 88.641 60.491005 L 88.641 54.825005 C 88.641 49.412003 84.233 45.007004 78.817 45.007004 C 78.559 45.007004 78.307 45.026005 78.053 45.043003 L 78.053 29.193005 C 78.055 17.303 68.382 7.63 56.495 7.63 " fill-opacity="0.5"/>
    </g>
    <path d="M 55.507 75.298 L 55.284 75.298 C 63.952 75.298 70.984 68.27 70.984 59.597996 L 70.984 31.611 C 70.984 22.941 63.952 15.912 55.284 15.912 L 55.507 15.912 C 46.834 15.912 39.806 22.941 39.806 31.611 L 39.806 59.598 C 39.806 68.27 46.833 75.298 55.507 75.298 z M 61.593 28.909 C 61.593 27.346 62.859997 26.08 64.422 26.08 C 65.986 26.08 67.25 27.347 67.25 28.909 L 67.25 46.389 C 67.25 47.952 65.986 49.218 64.422 49.218 C 62.858997 49.218 61.593 47.951 61.593 46.389 L 61.593 28.909 z M 52.542 28.909 C 52.542 27.346 53.806 26.08 55.371 26.08 C 56.934 26.08 58.197 27.347 58.197 28.909 L 58.197 46.389 C 58.197 47.952 56.931 49.218 55.371 49.218 C 53.807 49.218 52.542 47.951 52.542 46.389 L 52.542 28.909 z M 43.487 28.909 C 43.487 27.346 44.754 26.08 46.316 26.08 C 47.879997 26.08 49.143997 27.347 49.143997 28.909 L 49.143997 46.389 C 49.143997 47.952 47.879997 49.218 46.316 49.218 C 44.753 49.218 43.487 47.951 43.487 46.389 L 43.487 28.909 z M 82.779 57.242 L 82.779 62.908 C 82.779 76.329 72.455 87.376 59.331 88.541 L 59.331 94.066 C 66.665 94.755005 72.109 97.266 72.109 100.263 C 72.109 103.794 64.566 106.652 55.256 106.652 C 45.95 106.652 38.403 103.796 38.403 100.263 C 38.403 97.236 43.959 94.70101 51.408 94.041 L 51.408 88.516 C 38.425003 87.216 28.252 76.228 28.252 62.907997 L 28.252 57.241997 C 28.252 55.053997 30.025002 53.283997 32.211002 53.283997 C 34.398003 53.283997 36.169003 55.056995 36.169003 57.241997 L 36.169003 62.907997 C 36.169003 72.732 44.161003 80.724 53.99 80.724 L 57.04 80.724 C 66.862 80.724 74.858 72.734 74.858 62.907997 L 74.858 57.241997 C 74.858 55.053997 76.630005 53.283997 78.817 53.283997 C 81.005 53.281 82.779 55.055 82.779 57.242 z "/>
    <linearGradient x1="21.9165" gradientTransform="matrix(1 0 0 1 33.5996 -1453.9102)" y1="1467.4006" x2="21.9165" gradientUnits="userSpaceOnUse" y2="1558.1438" xlink:type="simple" xlink:actuate="onLoad" id="SVGID_1_" xlink:show="other">
        <stop stop-color="#cedade" offset="0"/>
        <stop stop-color="#919191" offset="1"/>
    </linearGradient>
    <path fill="url(#SVGID_1_)" d="M 55.507 72.878 L 55.284 72.878 C 63.952 72.878 70.984 65.849 70.984 57.178 L 70.984 29.192 C 70.984 20.521 63.952 13.492 55.284 13.492 L 55.507 13.492 C 46.834 13.492 39.806 20.521 39.806 29.192 L 39.806 57.179 C 39.806 65.849 46.833 72.878 55.507 72.878 z M 61.593 26.49 C 61.593 24.927 62.859997 23.662 64.422 23.662 C 65.986 23.662 67.25 24.929 67.25 26.489998 L 67.25 43.969997 C 67.25 45.532997 65.986 46.798996 64.422 46.798996 C 62.858997 46.798996 61.593 45.532 61.593 43.969997 L 61.593 26.49 z M 52.542 26.49 C 52.542 24.927 53.806 23.662 55.371 23.662 C 56.934 23.662 58.197 24.929 58.197 26.489998 L 58.197 43.969997 C 58.197 45.532997 56.931 46.798996 55.371 46.798996 C 53.807 46.798996 52.542 45.532 52.542 43.969997 L 52.542 26.49 z M 43.487 26.49 C 43.487 24.927 44.754 23.662 46.316 23.662 C 47.879997 23.662 49.143997 24.929 49.143997 26.489998 L 49.143997 43.969997 C 49.143997 45.532997 47.879997 46.798996 46.316 46.798996 C 44.753 46.798996 43.487 45.532 43.487 43.969997 L 43.487 26.49 z M 82.779 54.823 L 82.779 60.489 C 82.779 73.91 72.455 84.957 59.331 86.121 L 59.331 91.648 C 66.665 92.336006 72.109 94.847 72.109 97.844 C 72.109 101.375 64.566 104.234 55.256 104.234 C 45.95 104.234 38.403 101.377 38.403 97.844 C 38.403 94.817 43.959 92.282005 51.408 91.622 L 51.408 86.096 C 38.425003 84.796 28.252 73.808 28.252 60.489 L 28.252 54.823 C 28.252 52.635 30.025002 50.865 32.211002 50.865 C 34.398003 50.865 36.169003 52.636997 36.169003 54.823 L 36.169003 60.489 C 36.169003 70.313 44.161003 78.305 53.99 78.305 L 57.04 78.305 C 66.862 78.305 74.858 70.315 74.858 60.489 L 74.858 54.823 C 74.858 52.635 76.630005 50.865 78.817 50.865 C 81.005 50.862 82.779 52.635 82.779 54.823 z "/>
</svg>
