<?xml version="1.0" encoding="UTF-8"?>
<svg xmlns="http://www.w3.org/2000/svg" xmlns:xlink="http://www.w3.org/1999/xlink" contentScriptType="text/ecmascript" zoomAndPan="magnify" baseProfile="tiny" contentStyleType="text/css" version="1.1" width="160px" preserveAspectRatio="xMidYMid meet" viewBox="20 0 160 40" height="40px" x="0px" y="0px">
    <linearGradient x1="1001.5488" gradientTransform="matrix(1 0 0 1 -901.5977 -3094.7588)" y1="3134.832" x2="1001.5488" gradientUnits="userSpaceOnUse" y2="3094.7632" xlink:type="simple" xlink:actuate="onLoad" id="SVGID_1_" xlink:show="other">
        <stop stop-color="#a5b344" offset="0"/>
        <stop stop-color="#cddd54" offset="1"/>
    </linearGradient>
    <path fill="url(#SVGID_1_)" d="M 0.0 36.5 C 0.0 38.5 1.6 40.0 3.5 40.0 L 196.4 40.0 C 198.299 40.0 199.9 38.4 199.9 36.5 L 199.9 3.5 C 199.9 1.5 198.299 0.0 196.4 0.0 L 3.5 0.0 C 1.6 0.0 0.0 1.6 0.0 3.5 L 0.0 36.5 z "/>
    <linearGradient x1="-83.7749" gradientTransform="matrix(0 -42.6724 -42.6724 0 14271.7842 -3574.8716)" y1="332.1084" x2="-84.7129" gradientUnits="userSpaceOnUse" y2="332.1084" xlink:type="simple" xlink:actuate="onLoad" id="SVGID_2_" xlink:show="other">
        <stop stop-color="#ffffff" offset="0"/>
        <stop stop-color="#000000" offset="1"/>
    </linearGradient>
    <path fill="url(#SVGID_2_)" d="M 3.5 39.2 C 2.0 39.2 0.9000001 38.099 0.9000001 36.7 L 0.9000001 3.6 C 0.9 2.2 2.0 1.0 3.5 1.0 L 196.4 1.0 C 197.9 1.0 199.0 2.1 199.0 3.5 L 199.0 36.6 C 199.0 38.0 197.9 39.1 196.4 39.1 L 3.5 39.1 M 196.4 0.0 L 3.5 0.0 C 1.6 0.0 0.0 1.6 0.0 3.5 L 0.0 36.6 C 0.0 38.6 1.6 40.1 3.5 40.1 L 196.4 40.1 C 198.299 40.1 199.9 38.5 199.9 36.6 L 199.9 3.5999985 C 199.9 1.6 198.4 0.0 196.4 0.0 " fill-opacity="0.5"/>
    <rect x="3.9" width="192.4" fill="none" y="35.5" height="4.5"/>
    <rect x="20" width="160" fill="none" height="40"/>
</svg>
