<?xml version="1.0" encoding="UTF-8"?>
<svg xmlns="http://www.w3.org/2000/svg" xmlns:xlink="http://www.w3.org/1999/xlink" contentScriptType="text/ecmascript" zoomAndPan="magnify" baseProfile="tiny" contentStyleType="text/css" version="1.1" width="87.002px" preserveAspectRatio="xMidYMid meet" viewBox="0 0 87.002 87.672" height="87.672px" x="0px" y="0px">
    <g>
        <path d="M 8.676 80.94 C 6.5709996 80.94 4.5919995 80.121 3.1039996 78.629005 C 0.03099966 75.55801 0.031999588 70.55801 3.1039996 67.483 L 9.603 60.983 C 5.5469995 52.344 7.21 41.980003 14.184 35.005 C 15.468 33.723 17.176 33.015 18.994999 33.015 C 20.81 33.015 22.516998 33.723 23.803999 35.005 L 23.835 35.035 L 27.046999 31.822 C 28.672998 30.197 30.832998 29.301 33.131 29.301 C 35.078 29.301 36.928 29.947 38.436 31.131 L 41.214 28.355 L 41.184002 28.324 C 38.533 25.674 38.533 21.359 41.184002 18.709 C 45.517002 14.374 51.286003 11.987999 57.426003 11.987999 C 60.832 11.987999 64.133 12.716999 67.155 14.129999 L 73.659 7.6269994 C 75.148994 6.1409993 77.13 5.3179994 79.231995 5.3179994 C 81.337 5.3179994 83.315994 6.1379995 84.80399 7.6269994 C 87.87699 10.700999 87.87599 15.701 84.80399 18.772999 L 78.30599 25.272 C 82.36199 33.909 80.69899 44.276 73.72499 51.249 C 72.43799 52.536 70.73099 53.241 68.91599 53.241 C 67.10099 53.241 65.39399 52.536 64.105995 51.253002 L 64.073 51.221 L 60.859997 54.434002 C 59.236996 56.059002 57.079 56.955 54.777996 56.955 C 52.831997 56.955 50.979996 56.311 49.471996 55.125 L 46.694996 57.902 L 46.724995 57.933 C 49.374996 60.587997 49.372993 64.904 46.724995 67.548 C 42.390995 71.881996 36.622993 74.27 30.482994 74.27 L 30.48 74.27 C 27.074999 74.27 23.774 73.538994 20.751999 72.126 L 14.247999 78.629 C 12.759 80.121 10.779 80.94 8.676 80.94 L 8.676 80.94 z " fill-opacity="0.5" stroke-opacity="0.5"/>
        <path d="M 81.266 17.241 L 72.045 26.461998 C 77.118996 33.496998 76.514 43.392 70.187 49.716995 C 69.482994 50.419994 68.342995 50.419994 67.639 49.716995 L 64.075 46.153996 L 57.326996 52.901997 C 55.920998 54.306995 53.638996 54.306995 52.229996 52.901997 C 50.825996 51.494995 50.825996 49.213997 52.229996 47.806995 L 58.978996 41.056995 L 53.375996 35.452995 L 46.626995 42.202995 C 45.219994 43.607994 42.938995 43.607994 41.532997 42.202995 C 40.125996 40.796997 40.125996 38.514996 41.532997 37.107994 L 48.281998 30.358994 L 44.715996 26.792994 C 44.012997 26.089994 44.012997 24.950993 44.715996 24.247993 C 51.042995 17.919994 60.934998 17.311993 67.968994 22.388994 L 77.190994 13.165995 C 78.31699 12.040995 80.14099 12.040995 81.26599 13.165995 C 82.391 14.293 82.391 16.116 81.266 17.241 z M 41.277 48.061 L 34.528 54.811 L 28.924 49.207 L 35.673 42.458 C 37.08 41.051 37.08 38.771 35.673 37.364 C 34.266 35.956997 31.985 35.956997 30.578001 37.364 L 23.830002 44.114 L 20.264002 40.546997 C 19.561003 39.843998 18.420002 39.843998 17.717003 40.546997 C 11.390003 46.873997 10.784002 56.767 15.859003 63.800995 L 6.637003 73.024994 C 5.512003 74.149994 5.512003 75.97199 6.637003 77.09999 C 7.762003 78.22499 9.586002 78.22499 10.712003 77.09999 L 19.934002 67.87599 C 26.968002 72.94999 36.86 72.343994 43.188004 66.01799 C 43.891003 65.31599 43.890003 64.17399 43.188004 63.46999 L 39.624004 59.90599 L 46.372005 53.15799 C 47.777004 51.75199 47.777004 49.46999 46.373005 48.063988 C 44.965 46.654 42.685 46.654 41.277 48.061 z "/>
        <linearGradient x1="27.1519" gradientTransform="matrix(1 0 0 1 16.7998 656.5898)" y1="-646.2676" x2="27.1519" gradientUnits="userSpaceOnUse" y2="-580.6475" xlink:type="simple" xlink:actuate="onLoad" id="SVGID_1_" xlink:show="other">
            <stop stop-color="#47e6eb" offset="0"/>
            <stop stop-color="#007cba" offset="1"/>
        </linearGradient>
        <path fill="url(#SVGID_1_)" d="M 81.266 15.241 L 72.045 24.462 C 77.118996 31.497 76.514 41.392 70.187 47.717 C 69.482994 48.42 68.342995 48.42 67.639 47.717 L 64.075 44.154 L 57.326996 50.902 C 55.920998 52.307 53.638996 52.307 52.229996 50.902 C 50.825996 49.495 50.825996 47.214 52.229996 45.807 L 58.978996 39.057 L 53.375996 33.453 L 46.626995 40.203 C 45.219994 41.607998 42.938995 41.607998 41.532997 40.203 C 40.125996 38.797 40.125996 36.515 41.532997 35.107998 L 48.281998 28.358997 L 44.715996 24.792997 C 44.012997 24.089998 44.012997 22.950996 44.715996 22.247997 C 51.042995 15.919997 60.934998 15.311997 67.968994 20.388998 L 77.190994 11.165998 C 78.31699 10.040998 80.14099 10.040998 81.26599 11.165998 C 82.391 12.293 82.391 14.116 81.266 15.241 z M 41.277 46.061 L 34.528 52.811 L 28.924 47.207 L 35.673 40.458 C 37.08 39.051 37.08 36.771 35.673 35.364 C 34.266 33.956997 31.985 33.956997 30.578001 35.364 L 23.830002 42.114 L 20.264002 38.546997 C 19.561003 37.843998 18.420002 37.843998 17.717003 38.546997 C 11.390003 44.873997 10.784002 54.767 15.859003 61.800995 L 6.637003 71.024994 C 5.512003 72.149994 5.512003 73.97199 6.637003 75.09999 C 7.762003 76.22499 9.586002 76.22499 10.712003 75.09999 L 19.934002 65.87599 C 26.968002 70.94999 36.86 70.343994 43.188004 64.01799 C 43.891003 63.31599 43.890003 62.17399 43.188004 61.46999 L 39.624004 57.90599 L 46.372005 51.15799 C 47.777004 49.75199 47.777004 47.46999 46.373005 46.063988 C 44.965 44.654 42.685 44.654 41.277 46.061 z "/>
    </g>
</svg>
