<?xml version="1.0" encoding="UTF-8"?>
<svg xmlns="http://www.w3.org/2000/svg" xmlns:xlink="http://www.w3.org/1999/xlink" contentScriptType="text/ecmascript" zoomAndPan="magnify" baseProfile="tiny" contentStyleType="text/css" version="1.1" width="98.855px" preserveAspectRatio="xMidYMid meet" viewBox="0 0 98.855 88" height="88px" x="0px" y="0px">
    <g>
        <path d="M 19.412 73.389 C 15.075001 73.389 11.547001 69.863 11.547001 65.526 L 11.551001 65.324 C 11.5720005 64.862 12.037001 54.521996 17.862 45.465996 C 17.682999 45.478996 17.501 45.484997 17.321999 45.484997 C 15.350999 45.484997 13.449999 44.774 11.9679985 43.485996 C 11.782998 43.321995 11.640999 43.186996 11.508999 43.052998 C 10.704999 42.251 7.462999 37.267 7.470999 34.367996 L 7.470999 34.221996 L 7.480999 34.073997 C 7.599999 32.027996 9.810999 14.078997 49.872997 14.078997 C 88.817 14.078997 91.85 31.797997 92.06999 33.819996 L 92.09999 34.100994 L 92.09999 34.382996 C 92.09999 36.458996 90.09899 41.913994 88.12799 43.628998 C 86.68599 44.873997 84.87099 45.576996 82.98699 45.626 C 88.508995 54.517998 88.46499 64.455 88.43799 65.609 C 88.39499 69.909004 84.88399 73.393 80.57999 73.393 L 19.411 73.393 L 19.412 73.389 L 19.412 73.389 z " fill-opacity="0.5" stroke-opacity="0.5"/>
        <path d="M 84.682 41.708 C 84.041 42.261 83.193 42.515 82.356 42.393 L 66.74 36.914 C 65.304 36.711002 64.236 35.480003 64.236 34.031002 L 64.236 27.811003 C 62.45 27.661003 56.299 26.968002 49.786 26.968002 C 42.188 26.968002 37.119 27.661003 35.334 27.818003 L 35.334 34.032 C 35.334 35.482002 34.271 36.713 32.832 36.915 L 17.734 42.25 C 16.893 42.369 16.046 42.121 15.408999 41.568 C 15.355 41.52 15.304 41.473 15.256999 41.426003 C 14.713999 40.882004 12.716 37.204002 12.7179985 36.428 C 12.7179985 36.428 13.599998 21.375 49.868 21.375 C 85.222 21.375 86.846 36.428 86.846 36.428 C 86.847 37.275 85.317 41.155 84.682 41.708 z M 58.256 53.878 C 58.256 58.486 54.503002 62.235 49.895 62.235 C 45.285 62.235 41.538002 58.486 41.538002 53.878 C 41.538002 49.267998 45.285004 45.518997 49.895004 45.518997 C 54.503 45.519 58.256 49.27 58.256 53.878 z M 77.779 49.308 C 83.529 57.54 83.188995 67.573 83.188995 67.573 C 83.188995 69.017 82.02 70.189995 80.578995 70.189995 L 19.412 70.189995 C 17.968 70.189995 16.797 69.017 16.797 67.573 C 16.797 67.573 17.201 57.173996 23.233002 48.961 C 29.244001 40.781998 41.368004 37.575996 41.368004 37.575996 L 41.368004 34.638996 C 41.368004 33.194996 42.539005 32.023994 43.983006 32.023994 L 56.006004 32.023994 C 57.450005 32.023994 58.621006 33.194996 58.621006 34.638996 L 58.621006 37.575996 C 58.622 37.575 72.027 41.073 77.779 49.308 z M 62.79 53.878 C 62.79 46.768997 57.005 40.981 49.895 40.981 C 42.785 40.981 37.001 46.768997 37.001 53.878 C 37.001 60.986 42.787 66.772995 49.895 66.772995 C 57.006 66.774 62.79 60.986 62.79 53.878 z "/>
        <linearGradient x1="32.9817" gradientTransform="matrix(1 0 0 1 16.7998 656.5898)" y1="-637.2637" x2="32.9817" gradientUnits="userSpaceOnUse" y2="-588.4512" xlink:type="simple" xlink:actuate="onLoad" id="SVGID_1_" xlink:show="other">
            <stop stop-color="#ecefb4" offset="0"/>
            <stop stop-color="#7ea53f" offset="1"/>
        </linearGradient>
        <path fill="url(#SVGID_1_)" d="M 84.682 39.663 C 84.041 40.216 83.193 40.467 82.356 40.344997 L 66.74 34.867 C 65.304 34.664 64.236 33.434002 64.236 31.984001 L 64.236 25.764002 C 62.45 25.614002 56.299 24.919003 49.786 24.919003 C 42.188 24.919003 37.119 25.614002 35.334 25.768002 L 35.334 31.984001 C 35.334 33.434002 34.271 34.665 32.832 34.867 L 17.734001 40.201 C 16.893002 40.32 16.046001 40.074 15.409001 39.521 C 15.355001 39.474 15.304002 39.427 15.257001 39.379 C 14.714001 38.836002 12.7160015 35.157 12.718 34.379 C 12.718 34.379 13.6 19.326 49.868004 19.326 C 85.222 19.326 86.84601 34.379 86.84601 34.379 C 86.847 35.229 85.317 39.109 84.682 39.663 z M 58.256 51.83 C 58.256 56.441 54.503002 60.188004 49.895 60.188004 C 45.285 60.188004 41.538002 56.441 41.538002 51.83 C 41.538002 47.221 45.285004 43.471 49.895004 43.471 C 54.503 43.471 58.256 47.221 58.256 51.83 z M 77.779 47.26 C 83.529 55.490997 83.188995 65.526 83.188995 65.526 C 83.188995 66.969 82.02 68.139 80.578995 68.139 L 19.412 68.139 C 17.968 68.139 16.797 66.969 16.797 65.526 C 16.797 65.526 17.201 55.124 23.233002 46.912003 C 29.244001 38.734 41.368004 35.526 41.368004 35.526 L 41.368004 32.589 C 41.368004 31.147001 42.539005 29.977001 43.983006 29.977001 L 56.006004 29.977001 C 57.450005 29.977001 58.621006 31.147001 58.621006 32.589 L 58.621006 35.526 C 58.622 35.526 72.027 39.025 77.779 47.26 z M 62.79 51.83 C 62.79 44.721 57.005 38.934002 49.895 38.934002 C 42.785 38.934002 37.001 44.72 37.001 51.83 C 37.001 58.938004 42.787 64.724 49.895 64.724 C 57.006 64.724 62.79 58.94 62.79 51.83 z "/>
    </g>
</svg>
