<?xml version="1.0" encoding="UTF-8"?>
<svg xmlns="http://www.w3.org/2000/svg" xmlns:xlink="http://www.w3.org/1999/xlink" contentScriptType="text/ecmascript" zoomAndPan="magnify" baseProfile="tiny" contentStyleType="text/css" version="1.1" width="98.855px" preserveAspectRatio="xMidYMid meet" viewBox="0 0 98.855 88" height="88px" x="0px" y="0px">
    <g>
        <g>
            <path d="M 62.222 2.718 C 59.699 2.718 57.368 3.58 55.438 5.111 C 53.508 3.581 51.178 2.7180002 48.656 2.7180002 C 46.132 2.7180002 43.801 3.5800002 41.873997 5.1120005 C 39.943996 3.5810003 37.612995 2.7180004 35.090996 2.7180004 C 30.575996 2.7180004 26.634995 5.5600004 24.557995 9.992001 L 22.802996 9.992001 C 18.804996 9.992001 15.553995 13.243 15.553995 17.241001 L 15.553995 80.256 C 15.553995 84.254 18.804995 87.506996 22.802996 87.506996 L 74.001 87.506996 C 77.997 87.506996 81.251 84.256 81.251 80.256996 L 81.251 17.241 C 81.251 13.2439995 77.998 9.991999 74.001 9.991999 L 72.757996 9.991999 C 70.676 5.563 66.738 2.718 62.222 2.718 " fill-opacity="0.5"/>
        </g>
        <path d="M 74.004 17.078 L 69.072 17.078 C 68.354996 12.860999 65.605995 9.803999 62.222 9.803999 C 58.935 9.803999 56.247 12.691999 55.442 16.723999 C 54.631 12.693998 51.944 9.803999 48.657 9.803999 C 45.370003 9.803999 42.683002 12.691999 41.876 16.723999 C 41.065 12.693998 38.378 9.803999 35.091 9.803999 C 31.709 9.803999 28.959 12.8619995 28.24 17.078 L 22.802 17.078 C 21.593 17.078 20.613 18.059 20.613 19.265999 L 20.613 82.28 C 20.613 83.492 21.593 84.47 22.802 84.47 L 74.003 84.47 C 75.211 84.47 76.189995 83.491005 76.189995 82.28 L 76.189995 19.266 C 76.19 18.057 75.211 17.078 74.004 17.078 z M 62.222 14.176 C 63.114 14.176 64.108 15.344 64.589 17.076 L 59.857 17.076 C 60.336 15.347 61.332 14.176 62.222 14.176 z M 57.099 25.803 C 58.371998 27.609999 60.179 28.726 62.222 28.726 C 63.431 28.726 64.41 27.747 64.41 26.539 C 64.41 25.331 63.431004 24.352 62.222004 24.352 C 61.412003 24.352 60.520004 23.389 60.003002 21.918999 C 60.638 21.628998 61.342003 21.467 62.085003 21.467 C 64.869 21.467 67.123 23.722 67.123 26.505999 C 67.123 29.287998 64.869 31.544998 62.085 31.544998 C 59.300995 31.544998 57.045998 29.289997 57.045998 26.505999 C 57.047 26.266 57.067 26.03 57.099 25.803 z M 48.656 14.176 C 49.55 14.176 50.539997 15.344 51.023 17.076 L 46.288998 17.076 C 46.769 15.347 47.764 14.176 48.656 14.176 z M 43.645 25.971 C 44.914 27.68 46.677002 28.728 48.656002 28.728 C 49.866 28.728 50.845 27.749 50.845 26.54 C 50.845 25.331001 49.865 24.353 48.656002 24.353 C 47.859 24.353 46.978 23.415 46.456 21.975 C 47.123 21.653 47.867 21.465 48.656002 21.465 C 51.439003 21.465 53.696003 23.721 53.696003 26.504 C 53.696003 29.286999 51.440002 31.543999 48.656002 31.543999 C 45.873 31.543999 43.617 29.287998 43.617 26.503998 C 43.618 26.323 43.63 26.146 43.645 25.971 z M 35.09 14.176 C 35.984 14.176 36.974 15.344 37.46 17.076 L 32.724 17.076 C 33.206 15.347 34.198 14.176 35.09 14.176 z M 30.081 25.97 C 31.348999 27.68 33.112 28.727999 35.09 28.727999 C 36.299 28.727999 37.279 27.748999 37.279 26.539999 C 37.279 25.331 36.3 24.352999 35.09 24.352999 C 34.293 24.352999 33.413002 23.414999 32.89 21.974998 C 33.556 21.651999 34.301 21.464998 35.09 21.464998 C 37.872 21.464998 40.131 23.720999 40.131 26.503998 C 40.131 29.286999 37.874 31.543999 35.09 31.543999 C 32.306 31.543999 30.052 29.287998 30.052 26.503998 C 30.053 26.323 30.061 26.146 30.081 25.97 z M 66.26 71.51 L 30.542 71.51 C 29.144 71.51 28.011 70.378006 28.011 68.981 C 28.011 67.583 29.144 66.450005 30.542 66.450005 L 66.26 66.450005 C 67.658005 66.450005 68.789 67.58401 68.789 68.981 C 68.79 70.377 67.659 71.51 66.26 71.51 z M 66.26 58.353 L 30.542 58.353 C 29.144 58.353 28.011 57.221 28.011 55.824 C 28.011 54.427002 29.144 53.293003 30.542 53.293003 L 66.26 53.293003 C 67.658005 53.293003 68.789 54.427002 68.789 55.824 C 68.79 57.22 67.659 58.353 66.26 58.353 z M 66.26 45.701 L 30.542 45.701 C 29.144 45.701 28.011 44.569 28.011 43.171 C 28.011 41.774002 29.144 40.642002 30.542 40.642002 L 66.26 40.642002 C 67.658005 40.642002 68.789 41.775 68.789 43.171 C 68.79 44.567 67.659 45.701 66.26 45.701 z "/>
        <linearGradient x1="23.2014" gradientTransform="matrix(1 0 0 -1 25.1997 -662.7949)" y1="-670.5728" x2="23.2014" gradientUnits="userSpaceOnUse" y2="-745.2432" xlink:type="simple" xlink:actuate="onLoad" id="SVGID_1_" xlink:show="other">
            <stop stop-color="#ffcf75" offset="0"/>
            <stop stop-color="#ba6b16" offset="1"/>
        </linearGradient>
        <path fill="url(#SVGID_1_)" d="M 74.004 15.053 L 69.072 15.053 C 68.354996 10.837 65.605995 7.7780004 62.222 7.7780004 C 58.935 7.7780004 56.247 10.667 55.442 14.6970005 C 54.631 10.669001 51.944 7.7780004 48.657 7.7780004 C 45.370003 7.7780004 42.683002 10.667 41.876 14.6970005 C 41.065 10.669001 38.378 7.7780004 35.091 7.7780004 C 31.709 7.7780004 28.959 10.837 28.24 15.053 L 22.802 15.053 C 21.593 15.053 20.613 16.033 20.613 17.241001 L 20.613 80.257 C 20.613 81.467 21.593 82.448006 22.802 82.448006 L 74.003 82.448006 C 75.211 82.448006 76.189995 81.467 76.189995 80.257 L 76.189995 17.241 C 76.19 16.032 75.211 15.053 74.004 15.053 z M 62.222 12.152 C 63.114 12.152 64.108 13.320001 64.589 15.052 L 59.857 15.052 C 60.336 13.323 61.332 12.152 62.222 12.152 z M 57.099 23.778 C 58.371998 25.585 60.179 26.703 62.222 26.703 C 63.431 26.703 64.41 25.723 64.41 24.515999 C 64.41 23.307999 63.431004 22.328999 62.222004 22.328999 C 61.412003 22.328999 60.520004 21.366999 60.003002 19.894999 C 60.638 19.605999 61.342003 19.442 62.085003 19.442 C 64.869 19.442 67.123 21.696999 67.123 24.481998 C 67.123 27.265 64.869 29.522 62.085 29.522 C 59.300995 29.522 57.045998 27.265999 57.045998 24.481998 C 57.047 24.24 57.067 24.007 57.099 23.778 z M 48.656 12.152 C 49.55 12.152 50.539997 13.320001 51.023 15.052 L 46.288998 15.052 C 46.769 13.323 47.764 12.152 48.656 12.152 z M 43.645 23.948 C 44.914 25.657 46.677002 26.704 48.656002 26.704 C 49.866 26.704 50.845 25.724 50.845 24.517 C 50.845 23.309 49.865 22.33 48.656002 22.33 C 47.859 22.33 46.978 21.391 46.456 19.952 C 47.123 19.63 47.867 19.442 48.656002 19.442 C 51.439003 19.442 53.696003 21.696999 53.696003 24.481998 C 53.696003 27.263998 51.440002 29.520998 48.656002 29.520998 C 45.873 29.520998 43.617 27.265999 43.617 24.481998 C 43.618 24.298 43.63 24.123 43.645 23.948 z M 35.09 12.152 C 35.984 12.152 36.974 13.320001 37.46 15.052 L 32.724 15.052 C 33.206 13.323 34.198 12.152 35.09 12.152 z M 30.081 23.947 C 31.348999 25.658 33.112 26.705 35.09 26.705 C 36.299 26.705 37.279 25.725 37.279 24.518 C 37.279 23.31 36.3 22.331 35.09 22.331 C 34.293 22.331 33.413002 21.392 32.89 19.953 C 33.556 19.63 34.301 19.442999 35.09 19.442999 C 37.872 19.442999 40.131 21.697998 40.131 24.482998 C 40.131 27.264997 37.874 29.521997 35.09 29.521997 C 32.306 29.521997 30.052 27.266998 30.052 24.482998 C 30.053 24.298 30.061 24.122 30.081 23.947 z M 66.26 69.485 L 30.542 69.485 C 29.144 69.485 28.011 68.353 28.011 66.956 C 28.011 65.558 29.144 64.425 30.542 64.425 L 66.26 64.425 C 67.658005 64.425 68.789 65.559006 68.789 66.956 C 68.791 68.354 67.659 69.485 66.26 69.485 z M 66.26 56.328 L 30.542 56.328 C 29.144 56.328 28.011 55.195 28.011 53.798 C 28.011 52.401 29.144 51.268 30.542 51.268 L 66.26 51.268 C 67.658005 51.268 68.789 52.403 68.789 53.798 C 68.791 55.195 67.659 56.328 66.26 56.328 z M 66.26 43.677 L 30.542 43.677 C 29.144 43.677 28.011 42.545 28.011 41.148 C 28.011 39.75 29.144 38.618 30.542 38.618 L 66.26 38.618 C 67.658005 38.618 68.789 39.751 68.789 41.148 C 68.791 42.545 67.659 43.677 66.26 43.677 z "/>
    </g>
</svg>
