<?xml version="1.0" encoding="UTF-8"?>
<svg xmlns="http://www.w3.org/2000/svg" xmlns:xlink="http://www.w3.org/1999/xlink" contentScriptType="text/ecmascript" zoomAndPan="magnify" baseProfile="tiny" contentStyleType="text/css" version="1.1" width="98.855px" preserveAspectRatio="xMidYMid meet" viewBox="0 0 98.855 88" height="88px" x="0px" y="0px">
    <g>
        <path d="M 20.317 82.009 C 15.765999 82.009 12.066999 78.310005 12.066999 73.759 L 12.066999 17.299004 C 12.066999 12.750004 15.765999 9.049004 20.317 9.049004 L 76.777 9.049004 C 81.326004 9.049004 85.027 12.750004 85.027 17.299004 L 85.027 73.759 C 85.027 78.310005 81.326004 82.009 76.777 82.009 L 20.317 82.009 z " fill-opacity="0.5" stroke-opacity="0.5"/>
        <path d="M 46.696 51.139 L 46.696 51.15 L 46.696 63.727 C 46.696 64.303 46.223 64.777 45.648 64.777 L 33.061 64.777 C 32.485 64.777 32.012 64.303 32.012 63.727 L 32.012 51.139 C 32.012 50.565 32.485 50.093 33.061 50.093 L 45.643 50.093 L 45.647003 50.093 C 46.223 50.091 46.696 50.563 46.696 51.139 z M 64.399 50.091 L 51.813 50.091 C 51.236 50.091 50.763 50.564 50.763 51.139 L 50.763 63.725998 C 50.763 64.303 51.236 64.776 51.813 64.776 L 64.399 64.776 C 64.974 64.776 65.447 64.303 65.447 63.726 L 65.447 51.139 C 65.448 50.563 64.976 50.091 64.399 50.091 z M 45.646 31.861 L 33.059 31.861 C 32.482998 31.861 32.010998 32.334 32.010998 32.91 L 32.010998 45.498 C 32.010998 46.073 32.483997 46.546 33.059 46.546 L 45.645996 46.546 C 46.221996 46.546 46.693996 46.073 46.693996 45.498 L 46.693996 32.91 C 46.696 32.333 46.223 31.861 45.646 31.861 z M 64.399 31.861 L 51.813 31.861 C 51.236 31.861 50.763 32.334 50.763 32.91 L 50.763 45.498 C 50.763 46.073 51.236 46.546 51.813 46.546 L 64.399 46.546 C 64.974 46.546 65.447 46.073 65.447 45.498 L 65.447 32.91 C 65.448 32.333 64.976 31.861 64.399 31.861 z M 76.777 78.709 L 20.317001 78.709 C 18.798 78.709 17.567001 77.478 17.567001 75.959 L 17.567001 19.499 C 17.567001 17.98 18.798 16.749 20.317001 16.749 L 76.777 16.749 C 78.296 16.749 79.527 17.98 79.527 19.499 L 79.527 75.959 C 79.527 77.478 78.296 78.709 76.777 78.709 L 76.777 78.709 z M 23.067 73.209 L 74.027 73.209 L 74.027 22.249 L 23.067001 22.249 L 23.067001 73.209 L 23.067 73.209 z "/>
        <linearGradient x1="31.7473" gradientTransform="matrix(1 0 0 1 16.7998 656.5898)" y1="-642.041" x2="31.7473" gradientUnits="userSpaceOnUse" y2="-580.0811" xlink:type="simple" xlink:actuate="onLoad" id="SVGID_1_" xlink:show="other">
            <stop stop-color="#ffcf76" offset="0"/>
            <stop stop-color="#ba6d29" offset="1"/>
        </linearGradient>
        <path fill="url(#SVGID_1_)" d="M 46.696 48.938 L 46.696 48.949 L 46.696 61.526 C 46.696 62.102 46.223 62.576 45.648 62.576 L 33.061 62.576 C 32.485 62.576 32.012 62.102 32.012 61.526 L 32.012 48.938 C 32.012 48.364 32.485 47.892 33.061 47.892 L 45.643 47.892 L 45.647003 47.892 C 46.223 47.891 46.696 48.362 46.696 48.938 z M 64.399 47.891 L 51.813 47.891 C 51.236 47.891 50.763 48.364 50.763 48.939 L 50.763 61.526 C 50.763 62.103 51.236 62.576 51.813 62.576 L 64.399 62.576 C 64.974 62.576 65.447 62.103 65.447 61.526 L 65.447 48.938 C 65.448 48.362 64.976 47.891 64.399 47.891 z M 45.646 29.661 L 33.059 29.661 C 32.482998 29.661 32.010998 30.133999 32.010998 30.71 L 32.010998 43.298 C 32.010998 43.873 32.483997 44.345 33.059 44.345 L 45.645996 44.345 C 46.221996 44.345 46.693996 43.872 46.693996 43.298 L 46.693996 30.71 C 46.696 30.134 46.223 29.661 45.646 29.661 z M 64.399 29.661 L 51.813 29.661 C 51.236 29.661 50.763 30.133999 50.763 30.71 L 50.763 43.298 C 50.763 43.873 51.236 44.345 51.813 44.345 L 64.399 44.345 C 64.974 44.345 65.447 43.872 65.447 43.298 L 65.447 30.71 C 65.448 30.134 64.976 29.661 64.399 29.661 z M 76.777 76.509 L 20.317001 76.509 C 18.798 76.509 17.567001 75.278 17.567001 73.759 L 17.567001 17.299004 C 17.567001 15.780004 18.798 14.549004 20.317001 14.549004 L 76.777 14.549004 C 78.296 14.549004 79.527 15.780004 79.527 17.299004 L 79.527 73.759 C 79.527 75.277 78.296 76.509 76.777 76.509 L 76.777 76.509 z M 23.067 71.009 L 74.027 71.009 L 74.027 20.049004 L 23.067001 20.049004 L 23.067001 71.009 L 23.067 71.009 z "/>
    </g>
</svg>
