<?xml version="1.0" encoding="UTF-8"?>
<svg xmlns="http://www.w3.org/2000/svg" xmlns:xlink="http://www.w3.org/1999/xlink" contentScriptType="text/ecmascript" zoomAndPan="magnify" baseProfile="tiny" contentStyleType="text/css" version="1.1" width="88px" preserveAspectRatio="xMidYMid meet" viewBox="0 0 88 88" height="88px" x="0px" y="0px">
    <g>
        <g>
            <path d="M 31.29 14.92 C 15.290001 14.92 2.2710018 25.307 2.2710018 38.073997 C 2.2710018 45.223 6.2470016 51.81 13.046001 56.147995 L 13.087002 62.637993 C 13.100001 65.15499 14.4990015 67.438995 16.736002 68.59 C 17.686005 69.079994 18.753002 69.338 19.822002 69.338 C 21.223003 69.338 22.567 68.910995 23.711002 68.102 L 33.526 61.158997 C 35.248 61.057995 36.92 60.830997 38.539 60.504997 C 43.18 65.384995 50.288 68.667 58.480003 69.179 L 67.700005 75.7 C 68.844 76.510994 70.19 76.94 71.59601 76.94 C 72.66201 76.94 73.72801 76.68299 74.671005 76.19599 C 76.911 75.04599 78.315 72.76699 78.33101 70.246994 L 78.36801 64.27599 C 84.81701 60.096992 88.58601 53.78799 88.58601 46.94599 C 88.58601 34.650993 76.08801 24.645992 60.723015 24.645992 C 58.865013 24.645992 57.049015 24.791992 55.290016 25.074991 C 50.063 18.951 41.257 14.92 31.29 14.92 " fill-opacity="0.5"/>
        </g>
        <path d="M 60.723 31.295 C 47.98 31.295 37.61 39.169 37.61 48.848 C 37.61 58.367 47.632 66.135 60.08 66.394 L 70.449005 73.729 C 70.789 73.97099 71.191 74.092995 71.59501 74.092995 C 71.90401 74.092995 72.21401 74.022 72.50201 73.87399 C 73.158005 73.536995 73.57601 72.86099 73.58001 72.119 L 73.63701 63.430996 C 80.04901 60.16999 83.83501 54.795 83.83501 48.849995 C 83.836 39.169 73.466 31.295 60.723 31.295 z M 51.527 52.044 C 49.634 52.044 48.102 50.511 48.102 48.62 C 48.102 46.73 49.634003 45.196 51.527 45.196 C 53.417 45.196 54.951 46.73 54.951 48.62 C 54.951 50.511 53.417 52.044 51.527 52.044 z M 60.334 52.044 C 58.442 52.044 56.908 50.511 56.908 48.62 C 56.908 46.73 58.442 45.196 60.334 45.196 C 62.223 45.196 63.758 46.73 63.758 48.62 C 63.761 50.511 62.224 52.044 60.334 52.044 z M 69.144 52.044 C 67.251 52.044 65.718994 50.511 65.718994 48.62 C 65.718994 46.73 67.25099 45.196 69.144 45.196 C 71.033 45.196 72.56699 46.73 72.56699 48.62 C 72.566 50.511 71.032 52.044 69.144 52.044 z "/>
        <path d="M 50.0 28.265 C 45.546 24.178 38.812 21.57 31.292 21.57 C 17.91 21.57 7.0230007 29.826 7.0230007 39.973 C 7.0230007 46.219 11.018001 51.869 17.78 55.282 L 17.839 64.513 C 17.843 65.254 18.258 65.929 18.917 66.269 C 19.204 66.415 19.514 66.488 19.824 66.488 C 20.227 66.488 20.63 66.365 20.97 66.124 L 31.932 58.371 C 33.086998 58.349003 34.22 58.26 35.330997 58.116 C 33.74 55.297 32.857998 52.159 32.857998 48.844 C 32.859 39.589 39.943 31.633 50.0 28.265 z M 21.86 43.079 C 19.968 43.079 18.435 41.546 18.435 39.655 C 18.435 37.764 19.968002 36.23 21.86 36.23 C 23.751 36.23 25.284 37.764 25.284 39.655 C 25.286 41.545 23.752 43.079 21.86 43.079 z M 30.669 43.079 C 28.777 43.079 27.244 41.546 27.244 39.655 C 27.244 37.764 28.778002 36.23 30.669 36.23 C 32.56 36.23 34.093 37.764 34.093 39.655 C 34.094 41.545 32.56 43.079 30.669 43.079 z "/>
        <linearGradient x1="35.5229" gradientTransform="matrix(1 0 0 -1 25.1997 -662.7949)" y1="-692.1904" x2="35.5229" gradientUnits="userSpaceOnUse" y2="-734.9883" xlink:type="simple" xlink:actuate="onLoad" id="SVGID_1_" xlink:show="other">
            <stop stop-color="#ffcf75" offset="0"/>
            <stop stop-color="#ba6b16" offset="1"/>
        </linearGradient>
        <path fill="url(#SVGID_1_)" d="M 60.723 29.396 C 47.98 29.396 37.61 37.27 37.61 46.948997 C 37.61 56.468 47.632 64.236 60.08 64.494995 L 70.449005 71.829994 C 70.789 72.07199 71.191 72.19399 71.59501 72.19399 C 71.90401 72.19399 72.21401 72.12299 72.50201 71.97499 C 73.158005 71.63799 73.57601 70.96299 73.58001 70.22099 L 73.63701 61.532993 C 80.04901 58.272995 83.83501 52.896996 83.83501 46.951992 C 83.836 37.269 73.466 29.396 60.723 29.396 z M 51.527 50.145 C 49.634 50.145 48.102 48.611 48.102 46.72 C 48.102 44.83 49.634003 43.296 51.527 43.296 C 53.417 43.296 54.951 44.83 54.951 46.72 C 54.951 48.61 53.417 50.145 51.527 50.145 z M 60.334 50.145 C 58.442 50.145 56.908 48.611 56.908 46.72 C 56.908 44.83 58.442 43.296 60.334 43.296 C 62.223 43.296 63.758 44.83 63.758 46.72 C 63.761 48.61 62.224 50.145 60.334 50.145 z M 69.144 50.145 C 67.251 50.145 65.718994 48.611 65.718994 46.72 C 65.718994 44.83 67.25099 43.296 69.144 43.296 C 71.033 43.296 72.56699 44.83 72.56699 46.72 C 72.566 48.61 71.032 50.145 69.144 50.145 z "/>
        <linearGradient x1="3.312" gradientTransform="matrix(1 0 0 -1 25.1997 -662.7949)" y1="-682.4644" x2="3.312" gradientUnits="userSpaceOnUse" y2="-727.3818" xlink:type="simple" xlink:actuate="onLoad" id="SVGID_2_" xlink:show="other">
            <stop stop-color="#ffcf75" offset="0"/>
            <stop stop-color="#ba6b16" offset="1"/>
        </linearGradient>
        <path fill="url(#SVGID_2_)" d="M 50.0 26.365 C 45.546 22.277 38.812 19.67 31.292 19.67 C 17.91 19.67 7.0230007 27.926 7.0230007 38.073 C 7.0230007 44.32 11.018001 49.968 17.78 53.380997 L 17.839 62.613 C 17.843 63.353 18.258 64.029 18.917 64.368 C 19.204 64.514 19.514 64.587 19.824 64.587 C 20.227 64.587 20.63 64.464 20.97 64.223 L 31.932 56.47 C 33.086998 56.448 34.22 56.36 35.330997 56.216 C 33.74 53.397 32.857998 50.259 32.857998 46.943 C 32.859 37.689 39.943 29.733 50.0 26.365 z M 21.86 41.179 C 19.968 41.179 18.435 39.646 18.435 37.755 C 18.435 35.864 19.968002 34.33 21.86 34.33 C 23.751 34.33 25.284 35.865 25.284 37.755 C 25.286 39.645 23.752 41.179 21.86 41.179 z M 30.669 41.179 C 28.777 41.179 27.244 39.646 27.244 37.755 C 27.244 35.864 28.778002 34.33 30.669 34.33 C 32.56 34.33 34.093 35.865 34.093 37.755 C 34.093 39.645 32.56 41.179 30.669 41.179 z "/>
    </g>
</svg>
