<?xml version="1.0" encoding="UTF-8"?>
<svg xmlns="http://www.w3.org/2000/svg" xmlns:xlink="http://www.w3.org/1999/xlink" contentScriptType="text/ecmascript" zoomAndPan="magnify" baseProfile="tiny" contentStyleType="text/css" version="1.1" width="87.002px" preserveAspectRatio="xMidYMid meet" viewBox="0 0 87.002 87.672" height="87.672px" x="0px" y="0px">
    <g>
        <path d="M 83.589 39.204 C 82.184 37.254997 79.907 36.091 77.504 36.091 L 67.543 36.091 L 67.061 34.572998 C 62.795 21.175 50.479996 12.174997 36.414997 12.174997 C 18.683996 12.174997 4.256996 26.604998 4.256996 44.336998 C 4.256996 62.024998 18.649996 76.449 36.339996 76.494 L 39.092995 76.50101 C 41.973995 79.63401 46.649994 81.647 52.040993 81.647 C 61.006992 81.647 68.02699 76.117004 68.02699 69.053 L 68.02899 68.79 C 68.04599 67.519 68.03499 66.854004 67.952995 66.293 L 67.23599 61.274 L 74.10899 61.274 C 77.339 61.274 80.19799 59.212997 81.22299 56.146 L 84.61899 45.961 C 85.378 43.69 84.995 41.167 83.589 39.204 z " fill-opacity="0.5" stroke-opacity="0.5"/>
        <path d="M 79.531 44.128 C 79.061 43.477997 78.306 43.091 77.505 43.091 L 57.134 43.091 C 56.406 43.091 55.722 43.404 55.244 43.953 C 54.77 44.5 54.556 45.226997 54.656 45.944 L 57.29 64.37 C 55.72 63.793003 53.933002 63.458004 52.039 63.458004 C 45.882 63.458004 41.055 66.79401 41.055 71.053 C 41.055 75.311005 45.882 78.647 52.039 78.647 C 58.201 78.647 63.025 75.311005 63.025 71.053 C 63.025 70.712 63.054 69.363 63.002003 69.001 L 61.471004 58.274 L 74.11 58.274 C 75.187004 58.274 76.14 57.585 76.481 56.565 L 79.877 46.377 C 80.129 45.619 79.998 44.78 79.531 44.128 z "/>
        <path d="M 36.412 19.175 C 21.411999 19.175 9.253998 31.335 9.253998 46.336998 C 9.253998 61.314 21.378998 73.45599 36.35 73.493996 C 36.161 72.70599 36.053997 71.89 36.053997 71.05299 C 36.053997 64.159996 42.741997 58.727993 51.396996 58.469994 L 49.708996 46.651993 C 49.400997 44.496994 50.040997 42.319992 51.470997 40.67499 C 52.892 39.03199 54.954998 38.090992 57.135 38.090992 L 62.297997 38.090992 C 58.803 27.122 48.536 19.175 36.412 19.175 z M 37.038 51.708 C 33.725 51.708 31.037998 49.022 31.037998 45.708 C 31.037998 42.395 33.725998 39.708 37.038 39.708 C 40.351997 39.708 43.037 42.396 43.037 45.708 C 43.037 49.022 40.354 51.708 37.038 51.708 z "/>
        <linearGradient x1="43.729" gradientTransform="matrix(1 0 0 1 16.7998 656.5898)" y1="-615.499" x2="43.729" gradientUnits="userSpaceOnUse" y2="-579.9434" xlink:type="simple" xlink:actuate="onLoad" id="SVGID_1_" xlink:show="other">
            <stop stop-color="#ff7bac" offset="0"/>
            <stop stop-color="#b33464" offset="1"/>
        </linearGradient>
        <path fill="url(#SVGID_1_)" d="M 79.531 42.128 C 79.061 41.477997 78.306 41.091 77.505 41.091 L 57.134 41.091 C 56.406 41.091 55.722 41.404 55.244 41.953 C 54.77 42.5 54.556 43.226997 54.656 43.944 L 57.29 62.37 C 55.72 61.793 53.933002 61.458 52.039 61.458 C 45.882 61.458 41.055 64.794 41.055 69.053 C 41.055 73.311005 45.882 76.647 52.039 76.647 C 58.201 76.647 63.025 73.311005 63.025 69.053 C 63.025 68.712 63.054 67.363 63.002003 67.001 L 61.471004 56.274 L 74.11 56.274 C 75.187004 56.274 76.14 55.585 76.481 54.565 L 79.877 44.377 C 80.13 43.619 79.999 42.78 79.531 42.128 z "/>
        <linearGradient x1="18.9761" gradientTransform="matrix(1 0 0 1 16.7998 656.5898)" y1="-639.415" x2="18.9761" gradientUnits="userSpaceOnUse" y2="-585.0957" xlink:type="simple" xlink:actuate="onLoad" id="SVGID_2_" xlink:show="other">
            <stop stop-color="#cdd9dd" offset="0"/>
            <stop stop-color="#909090" offset="1"/>
        </linearGradient>
        <path fill="url(#SVGID_2_)" d="M 36.413 17.175 C 21.412998 17.175 9.254997 29.335 9.254997 44.336998 C 9.254997 59.314 21.379997 71.45599 36.350998 71.493996 C 36.162 70.70599 36.054996 69.89 36.054996 69.05299 C 36.054996 62.159992 42.742996 56.727993 51.397995 56.469994 L 49.71 44.651 C 49.401 42.496002 50.041 40.319 51.471 38.674 C 52.892002 37.031 54.955 36.09 57.135002 36.09 L 62.298004 36.09 C 58.804 25.122 48.537 17.175 36.413 17.175 z M 37.039 49.708 C 33.726 49.708 31.039001 47.022 31.039001 43.708 C 31.039001 40.395 33.727 37.708 37.039 37.708 C 40.353 37.708 43.038002 40.396 43.038002 43.708 C 43.038 47.022 40.354 49.708 37.039 49.708 z "/>
    </g>
</svg>
