<?xml version="1.0" encoding="UTF-8"?>
<svg xmlns="http://www.w3.org/2000/svg" xmlns:xlink="http://www.w3.org/1999/xlink" contentScriptType="text/ecmascript" zoomAndPan="magnify" baseProfile="tiny" contentStyleType="text/css" version="1.1" width="98.855px" preserveAspectRatio="xMidYMid meet" viewBox="0 0 98.855 88" height="88px" x="0px" y="0px">
    <g>
        <path d="M 14.602 81.104 C 12.497 81.104 10.518 80.284996 9.030001 78.793 C 5.9570007 75.722 5.9580007 70.722 9.030001 67.647 L 15.529001 61.147003 C 11.4730015 52.508003 13.136002 42.144005 20.11 35.169003 C 21.394001 33.887 23.102001 33.179 24.921001 33.179 C 26.736002 33.179 28.443 33.887 29.730001 35.169003 L 29.761002 35.199 L 32.973 31.986002 C 34.599 30.361002 36.759 29.465002 39.057 29.465002 C 41.003998 29.465002 42.854 30.111002 44.362 31.295002 L 47.14 28.519001 L 47.11 28.488 C 44.459 25.838001 44.459 21.523 47.11 18.873001 C 51.443 14.538001 57.212 12.152 63.352 12.152 C 66.758 12.152 70.059 12.8810005 73.081 14.294001 L 79.585 7.791001 C 81.075 6.305001 83.056 5.482001 85.158 5.482001 C 87.263 5.482001 89.242 6.302001 90.729996 7.791001 C 93.80299 10.865001 93.801994 15.865002 90.729996 18.937 L 84.231995 25.436 C 88.287994 34.073 86.62499 44.440002 79.65099 51.413002 C 78.36399 52.7 76.65699 53.405003 74.841995 53.405003 C 73.02699 53.405003 71.31999 52.7 70.032 51.417004 L 69.999 51.385002 L 66.786 54.598003 C 65.163 56.223003 63.005005 57.119003 60.704002 57.119003 C 58.758003 57.119003 56.906002 56.475002 55.398003 55.289 L 52.621002 58.066 L 52.651 58.097 C 55.301003 60.752 55.299 65.068 52.651 67.712 C 48.317 72.046 42.549 74.434 36.409 74.434 L 36.407 74.434 C 33.002003 74.434 29.701002 73.702995 26.679 72.29 L 20.175001 78.793 C 18.685 80.285 16.706 81.104 14.602 81.104 L 14.602 81.104 z " fill-opacity="0.5" stroke-opacity="0.5"/>
        <path d="M 87.192 17.405 L 77.971 26.626 C 83.045 33.661 82.44 43.556 76.113 49.880997 C 75.409 50.583996 74.269 50.583996 73.565 49.880997 L 70.001 46.317997 L 63.253 53.065998 C 61.847 54.470997 59.565 54.470997 58.156 53.065998 C 56.752 51.658997 56.752 49.378 58.156 47.970997 L 64.905 41.220997 L 59.302 35.616997 L 52.552998 42.366997 C 51.145996 43.771996 48.864998 43.771996 47.459 42.366997 C 46.052 40.961 46.052 38.678997 47.459 37.271996 L 54.208 30.522995 L 50.642 26.956995 C 49.939 26.253996 49.939 25.114994 50.642 24.411995 C 56.968998 18.083996 66.861 17.475994 73.895 22.552996 L 83.117 13.329996 C 84.243 12.204996 86.06699 12.204996 87.19199 13.329996 C 88.317 14.457 88.317 16.28 87.192 17.405 z M 47.204 48.225 L 40.454998 54.975 L 34.850998 49.371 L 41.6 42.621998 C 43.007 41.214996 43.007 38.934998 41.6 37.528 C 40.192997 36.121002 37.912 36.121 36.504997 37.528 L 29.756996 44.278 L 26.190996 40.711 C 25.487997 40.008 24.346996 40.008 23.643997 40.711 C 17.316998 47.038 16.710997 56.931 21.785997 63.964996 L 12.563997 73.188995 C 11.438997 74.313995 11.438997 76.135994 12.563997 77.26399 C 13.688997 78.38899 15.512997 78.38899 16.638996 77.26399 L 25.860996 68.03999 C 32.894997 73.11399 42.786995 72.507996 49.114998 66.18199 C 49.817997 65.47999 49.816998 64.33799 49.114998 63.63399 L 45.551 60.069992 L 52.299 53.32199 C 53.704 51.915993 53.704 49.63399 52.3 48.22799 C 50.891 46.818 48.611 46.818 47.204 48.225 z "/>
        <linearGradient x1="33.0784" gradientTransform="matrix(1 0 0 1 16.7998 656.5898)" y1="-646.1035" x2="33.0784" gradientUnits="userSpaceOnUse" y2="-580.4834" xlink:type="simple" xlink:actuate="onLoad" id="SVGID_1_" xlink:show="other">
            <stop stop-color="#47e6eb" offset="0"/>
            <stop stop-color="#007cba" offset="1"/>
        </linearGradient>
        <path fill="url(#SVGID_1_)" d="M 87.192 15.405 L 77.971 24.626 C 83.045 31.661 82.44 41.556 76.113 47.880997 C 75.409 48.583996 74.269 48.583996 73.565 47.880997 L 70.001 44.317997 L 63.253 51.065998 C 61.847 52.470997 59.565 52.470997 58.156 51.065998 C 56.752 49.658997 56.752 47.378 58.156 45.970997 L 64.905 39.220997 L 59.302 33.616997 L 52.552998 40.366997 C 51.145996 41.771996 48.864998 41.771996 47.459 40.366997 C 46.052 38.961 46.052 36.678997 47.459 35.271996 L 54.208 28.522995 L 50.642 24.956995 C 49.939 24.253996 49.939 23.114994 50.642 22.411995 C 56.968998 16.083996 66.861 15.475995 73.895 20.552996 L 83.117 11.329996 C 84.243 10.204996 86.06699 10.204996 87.19199 11.329996 C 88.317 12.457 88.317 14.28 87.192 15.405 z M 47.204 46.225 L 40.454998 52.975 L 34.850998 47.371 L 41.6 40.621998 C 43.007 39.214996 43.007 36.934998 41.6 35.528 C 40.192997 34.121002 37.912 34.121 36.504997 35.528 L 29.756996 42.278 L 26.190996 38.711 C 25.487997 38.008 24.346996 38.008 23.643997 38.711 C 17.316998 45.038 16.710997 54.931 21.785997 61.964996 L 12.563997 71.188995 C 11.438997 72.313995 11.438997 74.135994 12.563997 75.26399 C 13.688997 76.38899 15.512997 76.38899 16.638996 75.26399 L 25.860996 66.03999 C 32.894997 71.11399 42.786995 70.507996 49.114998 64.18199 C 49.817997 63.479992 49.816998 62.33799 49.114998 61.63399 L 45.551 58.069992 L 52.299 51.32199 C 53.704 49.915993 53.704 47.63399 52.3 46.22799 C 50.891 44.818 48.611 44.818 47.204 46.225 z "/>
    </g>
</svg>
