<?xml version="1.0" encoding="UTF-8"?>
<svg xmlns="http://www.w3.org/2000/svg" xmlns:xlink="http://www.w3.org/1999/xlink" contentScriptType="text/ecmascript" zoomAndPan="magnify" baseProfile="tiny" contentStyleType="text/css" version="1.1" width="87.002px" preserveAspectRatio="xMidYMid meet" viewBox="0 0 87.002 87.672" height="87.672px" x="0px" y="0px">
    <g>
        <path d="M 66.669 25.883 C 67.921 23.945 68.645996 21.639 68.645996 19.164999 C 68.645996 12.324999 63.078995 6.756999 56.235996 6.756999 C 49.393997 6.756999 43.827995 12.324999 43.827995 19.164999 C 43.827995 21.637 44.557995 23.942999 45.806995 25.880999 C 42.349995 26.020998 39.495995 28.543 38.845997 31.845999 L 38.438995 24.913998 C 39.105995 23.975998 39.628994 22.797998 39.824997 21.393997 C 40.100998 19.412998 39.559998 17.861998 39.164997 16.730997 C 38.949997 16.112997 38.818996 15.726997 38.771996 15.315997 C 38.774994 15.311997 38.776997 15.305997 38.779995 15.301997 C 39.357994 14.390997 41.114994 11.622997 39.203995 8.108997 C 37.872993 5.6639977 35.019997 4.2039976 31.573994 4.2039976 C 27.983994 4.2039976 25.067993 5.8809977 23.965994 8.584997 C 22.635994 11.844997 24.025993 14.241997 24.618994 15.262997 C 24.675993 15.362997 24.750994 15.489997 24.796993 15.579997 C 24.809994 16.269997 24.656994 16.844997 24.466993 17.568996 C 24.184994 18.636997 23.837994 19.963997 24.098993 21.560997 C 24.311993 22.880997 24.853992 23.954998 25.435993 24.779997 L 25.259993 32.336 C 20.311993 33.737 14.674993 37.335 14.674993 44.878 C 14.674993 46.081997 15.000993 47.401997 15.3799925 48.928997 C 15.585993 49.767998 15.897992 51.03 15.922993 51.498997 C 15.9979925 53.039997 15.388992 54.033997 14.118993 55.956997 C 12.863993 57.854996 11.302993 60.221996 10.723993 63.615997 L 10.702993 63.733997 C 9.631993 69.972 11.317993 75.366 15.709993 79.756996 C 19.075993 83.121994 26.433994 84.32 32.198994 84.32 L 32.199993 84.32 C 35.684994 84.32 41.433994 83.877 46.083992 81.418 C 47.450993 82.92 49.41299 83.871 51.59899 83.871 L 60.830994 83.871 C 64.94699 83.871 68.29499 80.523 68.29499 76.406006 L 68.29499 62.136 C 71.41999 61.266003 73.71999 58.393 73.71999 54.996002 L 73.71999 33.283 C 73.717 29.319 70.586 26.072 66.669 25.883 z " fill-opacity="0.5" stroke-opacity="0.5"/>
        <path d="M 48.355 20.518 C 48.355 16.159 51.891 12.622999 56.251 12.622999 C 60.613 12.622999 64.147 16.158998 64.147 20.518 C 64.147 24.881 60.613003 28.417 56.251003 28.417 C 51.892 28.417 48.355 24.881 48.355 20.518 z M 66.319 31.74 L 60.844 31.74 L 51.608 31.74 L 46.13 31.74 C 44.536 31.74 43.232002 33.044 43.232002 34.637 L 43.232002 35.643 C 46.644 37.677002 49.500004 40.964 49.500004 45.991 C 49.499004 48.361 49.021004 50.08 48.672005 51.34 C 48.369003 52.436 48.325005 52.677002 48.388004 52.97 C 48.584003 53.894 49.263004 54.931 50.048004 56.133003 C 50.528004 56.870003 51.079002 57.707005 51.581005 58.630005 C 54.775005 64.477005 56.217007 73.582 49.800007 80.078 C 50.302006 80.473 50.925007 80.719 51.60901 80.719 L 60.84401 80.719 C 62.46601 80.719 63.79301 79.387 63.79301 77.766 L 63.79301 59.25 L 66.321014 59.25 C 67.917015 59.25 69.21701 57.946 69.21701 56.354 L 69.21701 34.637 C 69.216 33.044 67.913 31.74 66.319 31.74 z "/>
        <path d="M 47.619 60.79 C 46.315998 58.408 44.516 56.481003 43.971 53.899002 C 43.406002 51.218002 44.985 49.72 44.987 45.988003 C 44.987 38.445004 34.456 37.391003 34.456 37.391003 L 33.893 24.478003 C 33.893 24.478003 35.135002 23.819002 35.371002 22.128002 C 35.628002 20.276003 34.223003 18.963001 34.259003 16.210003 C 34.283 14.201003 36.364002 13.654003 35.255 11.619003 C 34.149002 9.585003 29.029001 9.513003 28.162 11.639004 C 27.292 13.763004 29.208 14.3270035 29.315 16.585003 C 29.443 19.251003 28.334 20.778004 28.564001 22.178003 C 28.793001 23.579002 29.983002 24.410004 29.983002 24.410004 L 29.746002 37.475002 C 29.746002 37.475002 19.197002 38.009003 19.197002 46.228004 C 19.197002 47.561005 20.350002 50.846004 20.439003 52.630005 C 20.715002 58.242004 16.111004 60.266006 15.182003 65.725006 C 14.890003 67.45801 13.822003 72.83201 18.912003 77.922005 C 22.690002 81.699005 40.394005 83.09901 46.535004 76.956 C 52.352 71.146 48.845 63.03 47.619 60.79 z M 32.379 55.694 C 29.424002 55.694 27.025002 53.3 27.025002 50.34 C 27.025002 47.385002 29.421001 44.989 32.38 44.989 C 35.333 44.989 37.732002 47.385 37.732002 50.339996 C 37.732 53.298 35.335 55.694 32.379 55.694 z "/>
        <linearGradient x1="31.0146" gradientTransform="matrix(1 0 0 -1 25.1997 720.4219)" y1="709.1533" x2="31.0146" gradientUnits="userSpaceOnUse" y2="641.0566" xlink:type="simple" xlink:actuate="onLoad" id="SVGID_1_" xlink:show="other">
            <stop stop-color="#f53f60" offset="0"/>
            <stop stop-color="#ad132f" offset="1"/>
        </linearGradient>
        <path fill="url(#SVGID_1_)" d="M 48.342 19.165 C 48.342 14.806001 51.878 11.269001 56.238 11.269001 C 60.6 11.269001 64.135 14.805001 64.135 19.165 C 64.135 23.528 60.600002 27.063 56.238003 27.063 C 51.878 27.063 48.342 23.527 48.342 19.165 z M 66.308 30.386 L 60.83 30.386 L 51.598 30.386 L 46.119 30.386 C 44.526 30.386 43.222 31.69 43.222 33.284 L 43.222 34.29 C 46.632 36.324 49.488 39.611 49.488 44.637 C 49.487 47.008 49.009 48.727 48.662 49.986 C 48.357 51.083 48.312 51.323 48.376 51.617 C 48.571 52.54 49.25 53.578 50.035 54.779 C 50.518 55.517 51.068 56.354 51.569 57.277 C 54.765 63.123 56.203 72.228 49.788002 78.725 C 50.291 79.119995 50.914 79.366 51.599003 79.366 L 60.831 79.366 C 62.453003 79.366 63.782 78.034 63.782 76.412994 L 63.782 57.896 L 66.311005 57.896 C 67.90401 57.896 69.207 56.591 69.207 55.0 L 69.207 33.284 C 69.204 31.69 67.899 30.386 66.308 30.386 z "/>
        <linearGradient x1="7.1255" gradientTransform="matrix(1 0 0 -1 25.1997 720.4219)" y1="711.7061" x2="7.1255" gradientUnits="userSpaceOnUse" y2="640.6133" xlink:type="simple" xlink:actuate="onLoad" id="SVGID_2_" xlink:show="other">
            <stop stop-color="#47e6eb" offset="0"/>
            <stop stop-color="#007cba" offset="1"/>
        </linearGradient>
        <path fill="url(#SVGID_2_)" d="M 47.606 59.437 C 46.302998 57.054 44.502 55.128 43.957 52.546 C 43.393 49.865 44.971 48.367 44.973 44.635002 C 44.973 37.092003 34.443 36.037003 34.443 36.037003 L 33.879 23.124002 C 33.879 23.124002 35.121002 22.466003 35.358 20.775002 C 35.615 18.923002 34.208 17.61 34.244003 14.857001 C 34.270004 12.8480015 36.348003 12.301002 35.243004 10.266001 C 34.135002 8.233001 29.015003 8.160001 28.147003 10.287001 C 27.280003 12.411001 29.196003 12.975 29.304003 15.233001 C 29.429003 17.898 28.322002 19.426 28.552002 20.826 C 28.782001 22.227001 29.972002 23.059 29.972002 23.059 L 29.732002 36.124 C 29.732002 36.124 19.186003 36.658 19.186003 44.877 C 19.186003 46.21 20.340002 49.495 20.428003 51.279 C 20.701004 56.891 16.101004 58.915 15.171003 64.374 C 14.877004 66.107 13.812003 71.481 18.899004 76.571 C 22.679005 80.348 40.384003 81.747 46.524002 75.604996 C 52.338 69.793 48.831 61.677 47.606 59.437 z M 32.365 54.341 C 29.414001 54.341 27.014002 51.947 27.014002 48.987 C 27.014002 46.031998 29.410002 43.635 32.367 43.635 C 35.323 43.635 37.721 46.031 37.721 48.987 C 37.719 51.944 35.323 54.341 32.365 54.341 z "/>
    </g>
</svg>
