<?xml version="1.0" encoding="UTF-8"?>
<svg xmlns="http://www.w3.org/2000/svg" xmlns:xlink="http://www.w3.org/1999/xlink" contentScriptType="text/ecmascript" zoomAndPan="magnify" baseProfile="tiny" contentStyleType="text/css" version="1.1" width="215.033px" preserveAspectRatio="xMidYMid meet" viewBox="0 0 215.033 113.725" height="113.725px" x="0px" y="0px">
    <g>
        <path d="M 85.407 91.031 L 85.407 91.025 C 83.81 90.906 78.447 89.695 76.511 87.75 L 76.412 87.65 L 76.319 87.546005 C 74.927 85.982 63.574 71.41701 92.823 42.175007 C 105.752 29.245007 117.502 22.689007 127.746 22.689007 C 133.90201 22.689007 137.267 25.148006 137.88 25.640007 L 138.09201 25.810007 L 138.283 26.001007 C 139.761 27.481007 142.214 32.782005 142.02501 35.390007 C 141.865 37.708008 140.69801 39.851006 138.824 41.255005 L 138.433 41.546005 L 122.771996 49.073006 C 121.477 49.903008 119.992 50.339005 118.438995 50.339005 C 116.288994 50.339005 114.268 49.501003 112.75099 47.980003 L 111.397995 46.628002 C 109.288994 48.423 106.56899 50.821003 103.95799 53.433002 C 101.01499 56.374 98.76399 58.915 97.12699 60.857002 L 98.50499 62.234 C 101.17399 64.902 101.60199 69.101 99.60299 72.242004 L 92.34399 87.43001 L 92.041985 87.83001 C 90.639984 89.69101 88.50598 90.85301 86.18799 91.01801 L 86.02899 91.028015 C 85.89299 91.03401 85.77599 91.03802 85.660995 91.03802 L 85.407 91.031 z " fill-opacity="0.5" stroke-opacity="0.5"/>
        <path d="M 137.039 37.031 C 136.978 37.91 136.536 38.722 135.829 39.252 L 120.267 46.731 C 119.057 47.639 117.362 47.522 116.292 46.45 L 111.701996 41.862 C 110.273994 43.071 105.227 47.093998 100.423 51.899 C 94.814995 57.503998 91.587 61.755997 90.385994 63.187996 L 94.97099 67.771996 C 96.04099 68.84 96.16499 70.535995 95.25499 71.744995 L 88.05 86.82 C 87.519005 87.525 86.711006 87.968 85.833 88.031 C 85.759 88.033 85.686 88.039 85.615 88.034996 C 84.814995 88.038994 80.625 86.795 80.056 86.224 C 80.056 86.224 69.6 74.464 96.359 47.71 C 122.438 21.627998 134.746 31.533998 134.746 31.533998 C 135.37 32.16 137.103 36.152 137.039 37.031 z "/>
        <linearGradient x1="107.5425" y1="27.6885" x2="107.5425" gradientUnits="userSpaceOnUse" y2="86.0361" xlink:type="simple" xlink:actuate="onLoad" id="SVGID_1_" xlink:show="other">
            <stop stop-color="#edf5b3" offset="0"/>
            <stop stop-color="#7fa608" offset="1"/>
        </linearGradient>
        <path fill="url(#SVGID_1_)" d="M 137.039 35.031 C 136.978 35.91 136.536 36.722 135.829 37.252 L 120.267 44.731 C 119.057 45.639 117.362 45.522 116.292 44.45 L 111.701996 39.862 C 110.273994 41.071 105.227 45.093998 100.423 49.899 C 94.814995 55.503998 91.587 59.755997 90.385994 61.187996 L 94.97099 65.771996 C 96.04099 66.84 96.16499 68.535995 95.25499 69.744995 L 88.05 84.82 C 87.519005 85.525 86.711006 85.968 85.833 86.031 C 85.759 86.033 85.686 86.039 85.615 86.034996 C 84.814995 86.038994 80.625 84.795 80.056 84.224 C 80.056 84.224 69.6 72.464 96.359 45.71 C 122.438 19.627998 134.746 29.533998 134.746 29.533998 C 135.37 30.16 137.103 34.152 137.039 35.031 z "/>
    </g>
</svg>
