<?xml version="1.0" encoding="UTF-8"?>
<svg xmlns="http://www.w3.org/2000/svg" xmlns:xlink="http://www.w3.org/1999/xlink" contentScriptType="text/ecmascript" zoomAndPan="magnify" baseProfile="tiny" contentStyleType="text/css" version="1.1" width="84px" preserveAspectRatio="xMidYMid meet" viewBox="0 0 84 81" height="81px" x="0px" y="0px">
    <g stroke-opacity="0.5" fill-opacity="0.5">
        <path d="M 35.025 49.5 C 26.961002 49.5 20.400002 42.939 20.400002 34.875 C 20.400002 26.811 26.961002 20.25 35.025 20.25 C 43.089 20.25 49.65 26.811 49.65 34.875 C 49.65 42.939 43.089 49.5 35.025 49.5 M 35.025 4.05 C 18.028 4.05 4.2 17.878 4.2 34.875 C 4.2 51.872 18.028 65.7 35.025 65.7 C 40.504 65.7 45.758003 64.283 50.422 61.572 L 62.9 74.048 C 64.767 75.92 67.254 76.95 69.9 76.95 C 72.544 76.95 75.032 75.92 76.898 74.049995 C 78.769005 72.18199 79.798004 69.69399 79.798004 67.049995 C 79.798004 64.406 78.769005 61.918995 76.9 60.050995 L 63.507 46.655 C 65.045 42.933 65.85 38.92 65.85 34.875 C 65.85 17.878 52.023 4.05 35.025 4.05 "/>
    </g>
    <path d="M 73.718 65.032 L 58.068 49.384 C 60.156002 45.613 61.349 41.281 61.349 36.675 C 61.349 22.159 49.538 10.349998 35.022 10.349998 C 20.51 10.35 8.7 22.159 8.7 36.675 C 8.7 51.191 20.51 63.0 35.025 63.0 C 41.027 63.0 46.563004 60.977 50.996002 57.582 L 66.082 72.668 C 67.137 73.723 68.520004 74.25 69.9 74.25 C 71.279 74.25 72.663 73.723 73.715004 72.668 C 75.827 70.559 75.827 67.143 73.718 65.032 M 35.025 55.8 C 24.48 55.8 15.9 47.221 15.9 36.675 C 15.9 26.128998 24.48 17.55 35.025 17.55 C 45.57 17.55 54.15 26.129 54.15 36.675 C 54.15 47.221 45.57 55.8 35.025 55.8 "/>
    <linearGradient x1="33.6001" gradientTransform="matrix(1 0 0 -1 8.3999 57.1602)" y1="48.6104" x2="33.6001" gradientUnits="userSpaceOnUse" y2="-15.2896" xlink:type="simple" xlink:actuate="onLoad" id="SVGID_1_" xlink:show="other">
        <stop stop-color="#47e6eb" offset="0"/>
        <stop stop-color="#007cba" offset="1"/>
    </linearGradient>
    <path fill="url(#SVGID_1_)" d="M 73.718 63.232 L 58.068 47.584 C 60.156002 43.813 61.349 39.481 61.349 34.875 C 61.349 20.359001 49.538 8.549999 35.022 8.549999 C 20.51 8.55 8.7 20.359 8.7 34.875 C 8.7 49.391 20.51 61.2 35.025 61.2 C 41.027 61.2 46.563004 59.177002 50.996002 55.782 L 66.082 70.868004 C 67.137 71.923004 68.520004 72.450005 69.9 72.450005 C 71.279 72.450005 72.663 71.923004 73.715004 70.868004 C 75.827 68.759 75.827 65.342 73.718 63.232 M 35.025 54.0 C 24.48 54.0 15.9 45.421 15.9 34.875 C 15.9 24.328999 24.48 15.75 35.025 15.75 C 45.57 15.75 54.15 24.329 54.15 34.875 C 54.15 45.420998 45.57 54.0 35.025 54.0 "/>
</svg>
