<?xml version="1.0" encoding="UTF-8"?>
<svg xmlns="http://www.w3.org/2000/svg" xmlns:xlink="http://www.w3.org/1999/xlink" contentScriptType="text/ecmascript" zoomAndPan="magnify" baseProfile="tiny" contentStyleType="text/css" version="1.1" width="76.666px" preserveAspectRatio="xMidYMid meet" viewBox="0 0 76.666 76.666" height="76.666px" x="0px" y="0px">
    <g>
        <g stroke-opacity="0.5" fill-opacity="0.5">
            <path fill="#000000" d="M 45.419 8.9 L 33.54 8.9 C 30.187 8.9 27.170002 10.763 25.671 13.763 L 24.142002 16.819 L 9.78 16.819 C 4.9269996 16.819 0.97999954 20.767 0.97999954 25.619 L 0.97999954 57.299 C 0.97999954 62.153 4.9269996 66.099 9.78 66.099 L 65.217 66.099 C 70.07 66.099 74.018005 62.153 74.018005 57.299 L 74.018005 25.619 C 74.018005 20.766998 70.07001 16.819 65.217 16.819 L 54.815 16.819 L 53.289 13.763 C 51.788 10.763 48.774 8.9 45.419 8.9 "/>
        </g>
        <path d="M 65.22 22.981 L 52.098 22.981 L 49.356 17.493 C 48.608997 16.003 47.087 15.061 45.419 15.061 L 33.541 15.061 C 31.874 15.061 30.351 16.001999 29.605 17.493 L 26.86 22.981 L 9.78 22.981 C 7.349 22.981 5.3799996 24.95 5.3799996 27.381 L 5.3799996 59.060997 C 5.3799996 61.490997 7.349 63.461 9.78 63.461 L 65.22 63.461 C 67.65 63.461 69.619 61.49 69.619 59.060997 L 69.619 27.380997 C 69.619 24.951 67.649 22.981 65.22 22.981 z M 39.479 56.421 C 32.081 56.421 26.06 50.4 26.06 43.001 C 26.06 35.601 32.081 29.582 39.479 29.582 C 46.88 29.582 52.9 35.602 52.9 43.001 C 52.899 50.4 46.88 56.421 39.479 56.421 z M 47.619 43.001 C 47.619 47.489 43.968 51.142 39.478 51.142 C 34.99 51.142 31.339 47.49 31.339 43.001 C 31.339 38.511 34.99 34.862 39.478 34.862 C 43.968 34.862 47.619 38.511 47.619 43.001 z "/>
        <linearGradient x1="29.0996" gradientTransform="matrix(1 0 0 -1 8.3999 52.8262)" y1="39.5273" x2="29.0996" gradientUnits="userSpaceOnUse" y2="-8.8726" xlink:type="simple" xlink:actuate="onLoad" id="SVGID_1_" xlink:show="other">
            <stop stop-color="#ffcf75" offset="0"/>
            <stop stop-color="#ba6b16" offset="1"/>
        </linearGradient>
        <path fill="url(#SVGID_1_)" d="M 65.22 21.219 L 52.098 21.219 L 49.356 15.732 C 48.608997 14.242001 47.087 13.299 45.419 13.299 L 33.541 13.299 C 31.874 13.299 30.351 14.241 29.605 15.732 L 26.86 21.219 L 9.78 21.219 C 7.349 21.219 5.3799996 23.189 5.3799996 25.619 L 5.3799996 57.299 C 5.3799996 59.73 7.349 61.699 9.78 61.699 L 65.22 61.699 C 67.65 61.699 69.619 59.729 69.619 57.299 L 69.619 25.619 C 69.619 23.189 67.649 21.219 65.22 21.219 z M 39.479 54.658 C 32.081 54.658 26.06 48.639 26.06 41.239 C 26.06 33.841003 32.081 27.819002 39.479 27.819002 C 46.88 27.819002 52.9 33.840004 52.9 41.239 C 52.899 48.64 46.88 54.658 39.479 54.658 z M 47.619 41.239 C 47.619 45.728996 43.968 49.379 39.478 49.379 C 34.99 49.379 31.339 45.73 31.339 41.239 C 31.339 36.751 34.99 33.099 39.478 33.099 C 43.968 33.099 47.619 36.751 47.619 41.239 z "/>
    </g>
</svg>
