<?xml version="1.0" encoding="UTF-8"?>
<svg xmlns="http://www.w3.org/2000/svg" xmlns:xlink="http://www.w3.org/1999/xlink" contentScriptType="text/ecmascript" zoomAndPan="magnify" baseProfile="tiny" contentStyleType="text/css" version="1.1" width="98.855px" preserveAspectRatio="xMidYMid meet" viewBox="0 0 98.855 88" height="88px" x="0px" y="0px">
    <g>
        <path d="M 21.927 77.29 C 17.885 77.29 14.576 75.57 12.846 72.576004 C 11.115999 69.579 11.282 65.854004 13.304 62.354004 L 40.985 14.408005 C 43.006 10.9050045 46.15 8.898005 49.609 8.898005 C 53.07 8.898005 56.211002 10.9050045 58.235 14.409004 L 85.918 62.352005 C 87.938995 65.856 88.103 69.58101 86.375 72.578 C 84.646 75.571 81.335 77.29 77.295 77.29 L 21.927 77.29 L 21.927 77.29 z " fill-opacity="0.5" stroke-opacity="0.5"/>
        <path d="M 81.151 67.302 L 53.468 19.359 C 51.343998 15.675999 47.871998 15.675999 45.747997 19.359 L 18.067 67.302 C 15.941999 70.982 17.678 73.990005 21.927 73.990005 L 77.292 73.990005 C 81.539 73.99 83.275 70.981 81.151 67.302 z M 49.611 69.674 C 47.319 69.674 45.464 67.818 45.464 65.526 C 45.464 63.235 47.319 61.378002 49.611 61.378002 C 51.902 61.378002 53.759 63.235 53.759 65.526 C 53.759 67.817 51.902 69.674 49.611 69.674 z M 53.754 55.193 C 53.754 57.483 51.898003 59.339 49.607002 59.339 C 47.320004 59.339 45.461002 57.483 45.461002 55.193 L 44.155003 34.614 C 44.155003 31.381998 47.321003 30.468998 49.608 30.468998 C 51.898003 30.468998 55.063004 31.486998 55.063004 34.614 L 53.754 55.193 z "/>
        <linearGradient x1="32.8088" gradientTransform="matrix(1 0 0 1 16.7998 656.5898)" y1="-642.1929" x2="32.8088" gradientUnits="userSpaceOnUse" y2="-584.7998" xlink:type="simple" xlink:actuate="onLoad" id="SVGID_1_" xlink:show="other">
            <stop stop-color="#f53f60" offset="0"/>
            <stop stop-color="#ad132f" offset="1"/>
        </linearGradient>
        <path fill="url(#SVGID_1_)" d="M 81.151 65.103 L 53.468 17.159 C 51.343998 13.477 47.871998 13.477 45.747997 17.159 L 18.067 65.103 C 15.941999 68.782 17.678 71.791 21.927 71.791 L 77.292 71.791 C 81.539 71.79 83.275 68.781 81.151 65.103 z M 49.611 67.474 C 47.319 67.474 45.464 65.618996 45.464 63.326 C 45.464 61.035 47.319 59.178 49.611 59.178 C 51.902 59.178 53.759 61.035 53.759 63.326 C 53.76 65.617 51.902 67.474 49.611 67.474 z M 53.754 52.993 C 53.754 55.284 51.898003 57.139 49.607002 57.139 C 47.320004 57.139 45.461002 55.285 45.461002 52.994 L 44.155003 32.415 C 44.155003 29.183 47.321003 28.269001 49.608 28.269001 C 51.898003 28.269001 55.063004 29.288002 55.063004 32.415 L 53.754 52.993 z "/>
    </g>
</svg>
