<?xml version="1.0" encoding="UTF-8"?>
<svg xmlns="http://www.w3.org/2000/svg" xmlns:xlink="http://www.w3.org/1999/xlink" contentScriptType="text/ecmascript" zoomAndPan="magnify" baseProfile="tiny" contentStyleType="text/css" version="1.1" width="87.002px" preserveAspectRatio="xMidYMid meet" viewBox="0 0 87.002 87.672" height="87.672px" x="0px" y="0px">
    <g>
        <path d="M 85.906 26.783 C 84.854996 25.367 83.175995 24.522001 81.410995 24.522001 L 65.690994 24.522001 L 66.20799 22.802002 C 66.77799 20.928001 66.425995 18.870003 65.25399 17.284002 C 64.08699 15.707003 62.21699 14.766003 60.25099 14.766003 L 28.783 14.766003 C 26.951 14.766003 25.222 15.566003 24.037 16.963003 C 22.856 18.358004 22.348001 20.188004 22.640001 21.997004 L 26.538002 45.821003 C 24.749002 45.450005 22.888002 45.260002 21.010002 45.260002 C 9.527002 45.260002 0.53100204 52.011 0.53100204 60.632004 C 0.53100204 69.253006 9.527 76.004 21.01 76.004 C 30.380001 76.004 38.092003 71.507996 40.614 65.173996 C 43.425 68.313995 48.122997 70.338 53.557 70.338 C 62.369 70.338 69.268 65.029 69.268 58.253998 C 69.268 57.899 69.268 57.467 67.548 47.164997 L 78.069 47.156 C 80.512 47.115997 82.628 45.518997 83.337 43.175 L 86.758995 31.751 C 87.275 30.061 86.958 28.209 85.906 26.783 z M 53.563 46.162 C 47.832 46.162 42.919 48.417 40.181 51.854 C 39.819 49.644 39.357998 46.86 38.77 43.344 L 55.574 43.334003 L 56.063 46.308002 C 55.242 46.211 54.409 46.162 53.563 46.162 z " fill-opacity="0.5" stroke-opacity="0.5"/>
        <path d="M 54.6 27.706 C 55.512997 26.629 56.843998 26.012 58.251 26.012 L 61.503 26.012 L 62.330997 23.24 C 62.531998 22.582 62.411 21.869 61.997997 21.31 C 61.588997 20.758 60.938995 20.432 60.250996 20.432 L 28.783 20.432 C 28.143002 20.432 27.536001 20.713 27.123001 21.199999 C 26.711 21.685 26.534 22.327 26.637001 22.959 L 31.655 53.633 C 28.788 51.945 25.074001 50.92 21.009 50.92 C 11.940001 50.92 4.58 55.990997 4.58 62.244 C 4.58 68.498 11.939 73.563995 21.009 73.563995 C 30.083 73.563995 37.440002 68.49799 37.440002 62.243996 C 37.440002 61.448997 33.980003 40.913994 33.980003 40.913994 L 55.058002 40.901993 L 53.530003 31.566994 C 53.306 30.182 53.694 28.774 54.6 27.706 z "/>
        <path d="M 82.649 30.815 C 82.362 30.424 81.898 30.19 81.411 30.19 L 59.079 30.19 C 58.622997 30.19 58.194 30.388 57.899998 30.734001 C 57.607998 31.081001 57.482 31.534 57.554996 31.983002 L 61.115997 53.752 C 59.080997 52.555 56.444996 51.829 53.559998 51.829 C 47.123997 51.829 41.899998 55.427 41.899998 59.864998 C 41.899998 64.30299 47.121998 67.897995 53.559998 67.897995 C 59.998997 67.897995 65.221 64.30299 65.221 59.864994 C 65.221 59.301994 62.765 44.727993 62.765 44.727993 L 78.004 44.717995 C 78.675995 44.703995 79.263 44.263996 79.458 43.619995 L 82.883 32.178993 C 83.029 31.717 82.941 31.21 82.649 30.815 z "/>
        <linearGradient x1="8.3042" gradientTransform="matrix(1 0 0 -1 25.1997 720.4219)" y1="701.6104" x2="8.3042" gradientUnits="userSpaceOnUse" y2="648.4785" xlink:type="simple" xlink:actuate="onLoad" id="SVGID_1_" xlink:show="other">
            <stop stop-color="#ff7bac" offset="0"/>
            <stop stop-color="#b33464" offset="1"/>
        </linearGradient>
        <path fill="url(#SVGID_1_)" d="M 54.6 26.086 C 55.514 25.009 56.845997 24.392 58.254997 24.392 L 61.504997 24.392 L 62.332996 21.62 C 62.532997 20.962002 62.413 20.249 62.001995 19.69 C 61.590996 19.138 60.940994 18.812 60.252995 18.812 L 28.784 18.812 C 28.145 18.812 27.537 19.093 27.125 19.579 C 26.713 20.065 26.536 20.706001 26.639 21.338001 L 31.656 52.012 C 28.791 50.324 25.078 49.300003 21.01 49.300003 C 11.940001 49.300003 4.5809994 54.371002 4.5809994 60.623 C 4.5809994 66.878 11.94 71.943 21.01 71.943 C 30.084 71.943 37.441 66.878 37.441 60.623 C 37.441 59.829002 33.981003 39.294 33.981003 39.294 L 55.059002 39.281 L 53.532 29.946 C 53.308 28.562 53.697 27.154 54.6 26.086 z "/>
        <linearGradient x1="37.229" gradientTransform="matrix(1 0 0 -1 25.1997 720.4219)" y1="691.8525" x2="37.229" gradientUnits="userSpaceOnUse" y2="654.1426" xlink:type="simple" xlink:actuate="onLoad" id="SVGID_2_" xlink:show="other">
            <stop stop-color="#47e6eb" offset="0"/>
            <stop stop-color="#007cba" offset="1"/>
        </linearGradient>
        <path fill="url(#SVGID_2_)" d="M 82.651 29.195 C 82.364 28.803 81.899 28.57 81.413 28.57 L 59.081 28.57 C 58.626 28.57 58.195 28.769 57.902 29.114 C 57.61 29.461 57.484 29.914 57.557 30.362 L 61.117 52.132 C 59.082 50.935 56.447 50.209 53.563 50.209 C 47.126 50.209 41.902 53.808 41.902 58.244 C 41.902 62.683 47.124 66.279 53.563 66.279 C 60.002 66.279 65.224 62.684 65.224 58.244 C 65.224 57.683 62.768997 43.108 62.768997 43.108 L 78.007996 43.097 C 78.67899 43.084 79.267 42.644 79.461 42.0 L 82.886 30.559 C 83.031 30.097 82.943 29.59 82.651 29.195 z "/>
    </g>
</svg>
