<?xml version="1.0" encoding="UTF-8"?>
<svg xmlns="http://www.w3.org/2000/svg" xmlns:xlink="http://www.w3.org/1999/xlink" contentScriptType="text/ecmascript" zoomAndPan="magnify" baseProfile="tiny" contentStyleType="text/css" version="1.1" width="87.002px" preserveAspectRatio="xMidYMid meet" viewBox="0 0 87.002 87.672" height="87.672px" x="0px" y="0px">
    <g>
        <path d="M 76.179 45.228 L 64.772 45.228 L 64.767006 12.285 C 64.767006 8.27 62.079006 5.463 58.228004 5.463 L 14.598 5.463 C 10.872999 5.463 7.8479996 8.491 7.8479996 12.212999 L 7.8479996 67.32 C 7.8479996 71.044 10.872999 74.07 14.598 74.07 L 14.598 74.07 L 33.929 74.068 L 33.929 76.363 C 33.929 80.035995 36.917 83.022995 40.59 83.022995 L 76.179 83.022995 C 79.853004 83.022995 82.837 80.036995 82.837 76.36299 L 82.837 51.892 C 82.839 48.218 79.853 45.228 76.179 45.228 z " fill-opacity="0.5" stroke-opacity="0.5"/>
        <path fill="none" d="M 26.524 40.32 L 46.1 40.32 C 47.342 40.32 48.35 39.314 48.35 38.07 C 48.35 36.827 47.342 35.82 46.1 35.82 L 26.524 35.82 C 25.279 35.82 24.274 36.827 24.274 38.07 C 24.274 39.313 25.281 40.32 26.524 40.32 z "/>
        <path fill="none" d="M 26.524 30.87 L 46.1 30.87 C 47.342 30.87 48.35 29.865002 48.35 28.62 C 48.35 27.377 47.342 26.37 46.1 26.37 L 26.524 26.37 C 25.279 26.37 24.274 27.377 24.274 28.62 C 24.274 29.863 25.281 30.87 26.524 30.87 z "/>
        <path fill="none" d="M 24.274 47.52 C 24.274 48.764 25.279 49.77 26.524 49.77 L 34.279 49.77 C 35.093 47.355 37.253 45.553 39.863 45.27 L 26.522999 45.27 C 25.281 45.27 24.274 46.276 24.274 47.52 z "/>
        <path d="M 34.281 51.569 L 26.525997 51.569 C 25.280996 51.569 24.275997 50.564 24.275997 49.319 C 24.275997 48.077 25.280996 47.069 26.525997 47.069 L 39.865997 47.069 C 40.104996 47.047 40.345997 47.027 40.592 47.027 L 60.274 47.027 C 60.271 31.754002 60.268997 14.084 60.268997 14.084 C 60.268997 12.268 59.336998 11.761999 58.229996 11.761999 L 14.599 11.761999 C 13.354 11.761999 12.349 12.768999 12.349 14.011999 L 12.349 69.118996 C 12.349 70.364 13.354 71.368996 14.599 71.368996 C 14.599 71.368996 23.792 71.368 33.93 71.368 L 33.93 53.689 C 33.93 52.947 34.058 52.235 34.281 51.569 z M 26.524 28.169 L 46.1 28.169 C 47.342 28.169 48.35 29.176 48.35 30.419 C 48.35 31.664001 47.342 32.669 46.1 32.669 L 26.524 32.669 C 25.279 32.669 24.274 31.664 24.274 30.418999 C 24.274 29.177 25.281 28.169 26.524 28.169 z M 26.524 37.62 L 46.1 37.62 C 47.342 37.62 48.35 38.627 48.35 39.87 C 48.35 41.114998 47.342 42.12 46.1 42.12 L 26.524 42.12 C 25.279 42.12 24.274 41.114998 24.274 39.87 C 24.274 38.627 25.281 37.62 26.524 37.62 z "/>
        <path d="M 76.179 51.527 L 40.59 51.527 C 39.402 51.527 38.43 52.501 38.43 53.689 L 38.43 78.16 C 38.43 79.34801 39.402 80.32001 40.59 80.32001 L 76.178 80.32001 C 77.365 80.32001 78.337 79.34801 78.337 78.16 L 78.337 53.689 C 78.339 52.501 77.366 51.527 76.179 51.527 z M 75.666 56.59 L 63.985 64.616 L 75.462 76.105995 C 75.78 76.421 75.778 76.934 75.462 77.24899 C 75.301994 77.409996 75.097 77.48999 74.887 77.48999 C 74.681 77.48999 74.473 77.40999 74.316 77.24899 L 62.626003 65.55299 L 59.152004 67.940994 C 58.920006 68.09899 58.654003 68.175995 58.387005 68.175995 C 58.119003 68.175995 57.853004 68.09899 57.622005 67.940994 L 54.144005 65.55299 L 42.457 77.249 C 42.299 77.41 42.093002 77.49 41.882 77.49 C 41.676 77.49 41.469 77.409996 41.311 77.249 C 40.993 76.935 40.993 76.422 41.311 76.106 L 52.788002 64.616005 L 41.105 56.59 C 40.489998 56.170002 40.336998 55.328 40.755 54.713 C 41.178 54.098 42.019 53.944 42.632 54.366 L 58.386 65.184 L 74.136 54.365997 C 74.753 53.94 75.591 54.096996 76.013 54.712997 C 76.436 55.326 76.28 56.17 75.666 56.59 z "/>
        <linearGradient x1="19.5112" gradientTransform="matrix(1 0 0 1 16.7998 656.5898)" y1="-646.6274" x2="19.5112" gradientUnits="userSpaceOnUse" y2="-587.0205" xlink:type="simple" xlink:actuate="onLoad" id="SVGID_1_" xlink:show="other">
            <stop stop-color="#cedade" offset="0"/>
            <stop stop-color="#919191" offset="1"/>
        </linearGradient>
        <path fill="url(#SVGID_1_)" d="M 34.281 49.77 L 26.525997 49.77 C 25.280996 49.77 24.275997 48.764 24.275997 47.52 C 24.275997 46.277 25.280996 45.27 26.525997 45.27 L 39.865997 45.27 C 40.104996 45.247 40.345997 45.228 40.592 45.228 L 60.274 45.228 C 60.271 29.954 60.268997 12.285 60.268997 12.285 C 60.268997 10.469 59.336998 9.962999 58.229996 9.962999 L 14.599 9.962999 C 13.354 9.962999 12.349 10.969999 12.349 12.212999 L 12.349 67.32 C 12.349 68.565 13.354 69.57 14.599 69.57 C 14.599 69.57 23.792 69.568 33.93 69.568 L 33.93 51.89 C 33.93 51.147 34.058 50.436 34.281 49.77 z M 26.524 26.37 L 46.1 26.37 C 47.342 26.37 48.35 27.377 48.35 28.62 C 48.35 29.865002 47.342 30.87 46.1 30.87 L 26.524 30.87 C 25.279 30.87 24.274 29.865002 24.274 28.62 C 24.274 27.377 25.281 26.37 26.524 26.37 z M 26.524 35.82 L 46.1 35.82 C 47.342 35.82 48.35 36.827 48.35 38.07 C 48.35 39.314 47.342 40.32 46.1 40.32 L 26.524 40.32 C 25.279 40.32 24.274 39.314 24.274 38.07 C 24.274 36.827 25.281 35.82 26.524 35.82 z "/>
        <linearGradient x1="41.584" gradientTransform="matrix(1 0 0 1 16.7998 656.5898)" y1="-606.8623" x2="41.584" gradientUnits="userSpaceOnUse" y2="-578.0693" xlink:type="simple" xlink:actuate="onLoad" id="SVGID_2_" xlink:show="other">
            <stop stop-color="#ffcf75" offset="0"/>
            <stop stop-color="#ba6b16" offset="1"/>
        </linearGradient>
        <path fill="url(#SVGID_2_)" d="M 76.179 49.728 L 40.59 49.728 C 39.402 49.728 38.43 50.702 38.43 51.89 L 38.43 76.36 C 38.43 77.548004 39.402 78.520004 40.59 78.520004 L 76.178 78.520004 C 77.365 78.520004 78.337 77.547005 78.337 76.36 L 78.337 51.89 C 78.339 50.701 77.366 49.728 76.179 49.728 z M 75.666 54.79 L 63.985 62.816 L 75.462 74.306 C 75.78 74.62 75.778 75.134 75.462 75.449 C 75.301994 75.61 75.097 75.689995 74.887 75.689995 C 74.681 75.689995 74.473 75.60999 74.316 75.449 L 62.626003 63.753 L 59.152004 66.14 C 58.920006 66.298 58.654003 66.376 58.387005 66.376 C 58.119003 66.376 57.853004 66.298 57.622005 66.14 L 54.144005 63.753 L 42.457 75.449 C 42.299 75.61 42.093002 75.689995 41.882 75.689995 C 41.676 75.689995 41.469 75.60999 41.311 75.449 C 40.993 75.134995 40.993 74.620995 41.311 74.306 L 52.788002 62.816 L 41.105 54.79 C 40.489998 54.370003 40.336998 53.527 40.755 52.912003 C 41.178 52.297 42.019 52.144 42.632 52.566 L 58.386 63.384003 L 74.136 52.566 C 74.753 52.140003 75.591 52.296 76.013 52.912003 C 76.436 53.526 76.28 54.37 75.666 54.79 z "/>
    </g>
</svg>
