<?xml version="1.0" encoding="UTF-8"?>
<svg xmlns="http://www.w3.org/2000/svg" xmlns:xlink="http://www.w3.org/1999/xlink" contentScriptType="text/ecmascript" zoomAndPan="magnify" baseProfile="tiny" contentStyleType="text/css" version="1.1" width="88px" preserveAspectRatio="xMidYMid meet" viewBox="0 0 88 88" height="88px" x="0px" y="0px">
    <g>
        <path d="M 75.858 24.686 C 75.557 24.158 75.219 23.66 74.859 23.18 L 74.859 13.258 C 74.859 9.267 71.613 6.0210004 67.623 6.0210004 L 41.793 6.0210004 C 38.253998 6.0210004 35.302 8.573 34.677 11.934 C 34.355 11.889 34.026997 11.865 33.693996 11.865 L 14.32 11.865 C 10.33 11.865 7.0829997 15.1119995 7.0829997 19.103 L 7.0829997 38.475998 C 7.0829997 40.103996 7.6229997 41.607 8.533999 42.816998 C 7.6219993 44.027996 7.082999 45.531 7.082999 47.159996 L 7.082999 66.531 C 7.082999 70.520996 10.329999 73.77 14.32 73.77 L 33.695 73.77 C 35.51 73.77 37.169 73.098 38.440998 71.993 C 39.711998 73.098 41.371998 73.77 43.185997 73.77 L 51.947998 73.77 C 51.932 74.213 51.922997 74.619995 51.918 74.968994 L 51.92 74.968994 C 51.906998 76.04099 52.116997 77.99999 52.503 79.121994 C 54.05 83.647995 58.302998 86.690994 63.086998 86.690994 L 63.087997 86.690994 C 64.31699 86.690994 65.534 86.48899 66.711 86.087 C 71.616 84.407 74.659 79.479996 74.163 74.065994 C 74.03 70.96199 73.553 66.032 73.094 61.264996 C 72.658005 56.749996 72.003 49.958996 72.086 48.392998 C 72.492 45.927998 74.726 41.608997 75.804 39.519997 C 76.104004 38.942997 76.358 38.448997 76.547 38.061996 C 78.461 34.144 78.186 28.767 75.858 24.686 z " fill-opacity="0.5" stroke-opacity="0.5"/>
        <path fill="none" d="M 64.396 15.68 L 45.021 15.68 C 44.578 15.68 44.213 16.043001 44.213 16.488 L 44.213 35.86 C 44.213 36.304 44.577 36.667 45.021 36.667 L 46.771 36.667 C 45.625 32.093 46.694 27.131 49.86 23.215 L 55.028 16.826 L 54.901 16.497 L 55.274002 16.525 L 55.65 16.057 L 55.877003 16.568998 L 63.771004 17.158998 C 64.256004 17.194998 64.732 17.274998 65.202 17.353998 L 65.202 16.485998 C 65.201 16.042 64.839 15.68 64.396 15.68 z "/>
        <path d="M 33.7 47.793 L 33.695 47.793 L 14.327 47.793 C 13.438999 47.793 12.7109995 48.521 12.7109995 49.409 L 12.7109995 68.779 C 12.7109995 69.669 13.438 70.395 14.327 70.395 L 33.7 70.395 C 34.588 70.395 35.316 69.67 35.316 68.779 L 35.316 49.425 L 35.316 49.409 C 35.313 48.521 34.587 47.793 33.7 47.793 z "/>
        <path d="M 53.276 50.536 C 53.219 49.829 52.756 48.802 52.141003 47.793 L 43.189003 47.793 C 42.301003 47.793 41.574 48.521 41.574 49.409 L 41.574 68.779 C 41.574 69.669 42.300003 70.395 43.189003 70.395 L 52.248 70.395 C 52.34 68.884995 52.443 67.272995 52.551003 65.621994 C 52.892 60.301 53.412 52.255 53.276 50.536 z "/>
        <path d="M 33.7 19.736 L 14.326 19.736 C 13.439 19.736 12.712 20.462 12.712 21.351 L 12.712 40.724 C 12.712 41.612 13.438 42.339 14.326 42.339 L 33.7 42.339 C 34.588 42.339 35.315002 41.612 35.315002 40.724 L 35.315002 21.351 C 35.313 20.461 34.587 19.736 33.7 19.736 z "/>
        <path d="M 46.775 38.915 L 45.027 38.915 C 44.582 38.915 44.218002 38.552002 44.218002 38.108 L 44.218002 18.737 C 44.218002 18.291 44.581 17.928999 45.027 17.928999 L 64.399 17.928999 C 64.844 17.928999 65.207 18.290998 65.207 18.737 L 65.207 19.604 C 66.622 19.842001 67.981 20.249 69.244 20.843 L 69.244 15.509001 C 69.244 14.621 68.517006 13.894001 67.629005 13.894001 L 41.798 13.894001 C 40.911 13.894001 40.183 14.620001 40.183 15.509001 L 40.183 41.34 C 40.183 42.227 40.91 42.956 41.798 42.956 L 48.462 42.956 C 48.4 42.855 48.327003 42.768 48.269 42.668003 C 47.588 41.468 47.1 40.206 46.775 38.915 z "/>
        <path d="M 71.499 37.835 C 72.568 35.652 72.386 32.188 70.976 29.713 C 69.372 26.896 66.486 25.248999 63.357998 25.015 L 66.409996 32.916 L 63.117996 37.469 L 57.483997 36.335003 L 54.236 29.0 C 51.73 32.1 51.161 36.375 53.147 39.869 C 53.644 40.738 54.26 41.495 54.966 42.133 C 55.619 42.892 58.599 46.529 58.878 50.093 C 59.163 53.720997 57.611 72.073 57.539997 77.294 C 57.519997 77.541 57.662 79.08 57.823997 79.552 C 58.816998 82.462006 61.979996 84.01 64.887 83.017 C 67.545 82.105995 68.844 79.408 68.551 76.707 C 68.279 69.906 66.107 52.604 66.508 49.904 C 67.113 45.869 70.434 40.012 71.499 37.835 z M 63.165 79.611 C 61.977 79.611 61.014 78.65 61.014 77.458 C 61.014 76.271 61.977 75.309 63.165 75.309 C 64.354004 75.309 65.321 76.271996 65.321 77.458 C 65.321 78.65 64.354 79.611 63.165 79.611 z "/>
        <linearGradient x1="15.6089" gradientTransform="matrix(1 0 0 -1 8.3999 64.1602)" y1="52.5176" x2="15.6089" gradientUnits="userSpaceOnUse" y2="-3.9847" xlink:type="simple" xlink:actuate="onLoad" id="SVGID_1_" xlink:show="other">
            <stop stop-color="#ffcf75" offset="0"/>
            <stop stop-color="#ba6b16" offset="1"/>
        </linearGradient>
        <path fill="url(#SVGID_1_)" d="M 33.695 45.544 L 33.69 45.544 L 14.322 45.544 C 13.434 45.544 12.707999 46.272 12.707999 47.159 L 12.707999 66.531 C 12.707999 67.419 13.433 68.146996 14.322 68.146996 L 33.696 68.146996 C 34.584 68.146996 35.309998 67.42 35.309998 66.531 L 35.309998 47.176 L 35.309998 47.159 C 35.309 46.271 34.583 45.544 33.695 45.544 z "/>
        <linearGradient x1="39.0322" gradientTransform="matrix(1 0 0 -1 8.3999 64.1602)" y1="52.5176" x2="39.0322" gradientUnits="userSpaceOnUse" y2="-3.9847" xlink:type="simple" xlink:actuate="onLoad" id="SVGID_2_" xlink:show="other">
            <stop stop-color="#ffcf75" offset="0"/>
            <stop stop-color="#ba6b16" offset="1"/>
        </linearGradient>
        <path fill="url(#SVGID_2_)" d="M 53.272 48.287 C 53.215 47.581997 52.751 46.552998 52.135 45.544 L 43.184 45.544 C 42.296997 45.544 41.57 46.272 41.57 47.159 L 41.57 66.531 C 41.57 67.419 42.296 68.146996 43.184 68.146996 L 52.244 68.146996 C 52.336 66.635994 52.439 65.023994 52.545998 63.372993 C 52.888 58.051 53.406 50.006 53.272 48.287 z "/>
        <linearGradient x1="15.6089" gradientTransform="matrix(1 0 0 -1 8.3999 64.1602)" y1="52.5156" x2="15.6089" gradientUnits="userSpaceOnUse" y2="-3.9816" xlink:type="simple" xlink:actuate="onLoad" id="SVGID_3_" xlink:show="other">
            <stop stop-color="#ffcf75" offset="0"/>
            <stop stop-color="#ba6b16" offset="1"/>
        </linearGradient>
        <path fill="url(#SVGID_3_)" d="M 33.695 17.487 L 14.322 17.487 C 13.434 17.487 12.707999 18.212 12.707999 19.101 L 12.707999 38.474 C 12.707999 39.363 13.433 40.089 14.322 40.089 L 33.696 40.089 C 34.584 40.089 35.309998 39.362 35.309998 38.474 L 35.309998 19.102 C 35.309 18.212 34.583 17.487 33.695 17.487 z "/>
        <path fill="none" d="M 64.396 15.68 L 45.021 15.68 C 44.578 15.68 44.213 16.043001 44.213 16.488 L 44.213 35.86 C 44.213 36.304 44.577 36.667 45.021 36.667 L 46.771 36.667 C 45.625 32.093 46.694 27.131 49.86 23.215 L 55.028 16.826 L 54.901 16.497 L 55.274002 16.525 L 55.65 16.057 L 55.877003 16.568998 L 63.771004 17.158998 C 64.256004 17.194998 64.732 17.274998 65.202 17.353998 L 65.202 16.485998 C 65.201 16.042 64.839 15.68 64.396 15.68 z "/>
        <linearGradient x1="46.3086" gradientTransform="matrix(1 0 0 -1 8.3999 64.1602)" y1="52.5166" x2="46.3086" gradientUnits="userSpaceOnUse" y2="-3.9854" xlink:type="simple" xlink:actuate="onLoad" id="SVGID_4_" xlink:show="other">
            <stop stop-color="#ffcf75" offset="0"/>
            <stop stop-color="#ba6b16" offset="1"/>
        </linearGradient>
        <path fill="url(#SVGID_4_)" d="M 46.771 36.666 L 45.023 36.666 C 44.578 36.666 44.212997 36.303 44.212997 35.859 L 44.212997 16.487 C 44.212997 16.042 44.576996 15.679 45.023 15.679 L 64.395 15.679 C 64.84 15.679 65.202995 16.042 65.202995 16.487 L 65.202995 17.354 C 66.616 17.592001 67.977 17.999 69.239 18.593 L 69.239 13.259001 C 69.239 12.372001 68.512 11.644001 67.625 11.644001 L 41.794 11.644001 C 40.906 11.644001 40.178997 12.370001 40.178997 13.259001 L 40.178997 39.089 C 40.178997 39.977 40.905 40.705 41.794 40.705 L 48.457 40.705 C 48.396 40.604 48.322002 40.517002 48.265 40.418003 C 47.582 39.219 47.096 37.957 46.771 36.666 z "/>
        <linearGradient x1="53.6621" gradientTransform="matrix(1 0 0 -1 8.3999 64.1602)" y1="41.3945" x2="53.6621" gradientUnits="userSpaceOnUse" y2="-16.9082" xlink:type="simple" xlink:actuate="onLoad" id="SVGID_5_" xlink:show="other">
            <stop stop-color="#cedade" offset="0"/>
            <stop stop-color="#919191" offset="1"/>
        </linearGradient>
        <path fill="url(#SVGID_5_)" d="M 71.493 35.586 C 72.561 33.403 72.381 29.939 70.97099 27.463999 C 69.368 24.647 66.480995 22.999998 63.352993 22.765999 L 66.40599 30.667 L 63.11399 35.22 L 57.47899 34.085003 L 54.23299 26.751003 C 51.72599 29.850002 51.15599 34.126003 53.14299 37.620003 C 53.63999 38.489002 54.25599 39.246002 54.96299 39.884003 C 55.61499 40.644 58.59499 44.281002 58.87499 47.844 C 59.15999 51.473003 57.60799 69.824005 57.536987 75.045 C 57.515987 75.292 57.657986 76.83 57.820988 77.302 C 58.813988 80.212006 61.975986 81.76 64.88399 80.767 C 67.541985 79.858 68.84199 77.159 68.54899 74.457 C 68.27499 67.657 66.10199 50.355003 66.50599 47.654 C 67.108 43.62 70.428 37.763 71.493 35.586 z M 63.161 77.362 C 61.973 77.362 61.01 76.4 61.01 75.209 C 61.01 74.022 61.973 73.059 63.161 73.059 C 64.35 73.059 65.316 74.022995 65.316 75.209 C 65.316 76.4 64.351 77.362 63.161 77.362 z "/>
    </g>
</svg>
