<?xml version="1.0" encoding="UTF-8"?>
<svg xmlns="http://www.w3.org/2000/svg" xmlns:xlink="http://www.w3.org/1999/xlink" contentScriptType="text/ecmascript" zoomAndPan="magnify" baseProfile="tiny" contentStyleType="text/css" version="1.1" width="40px" preserveAspectRatio="xMidYMid meet" viewBox="0 0 40 2.6" height="2.6px" x="0px" y="0px">
    <linearGradient x1="19.9507" y1="2.5999" x2="19.9507" gradientUnits="userSpaceOnUse" y2="7.324219e-004" xlink:type="simple" xlink:actuate="onLoad" id="SVGID_1_" xlink:show="other">
        <stop stop-color="#a5b344" offset="0"/>
        <stop stop-color="#cddd54" offset="1"/>
    </linearGradient>
    <path fill="url(#SVGID_1_)" d="M 39.6 0.0 L 0.3 0.0 C 0.1 0.0 0.0 0.1 0.0 0.3 L 0.0 2.3 C 0.0 2.5 0.1 2.6 0.3 2.6 L 39.6 2.6 C 39.8 2.6 39.900997 2.5 39.900997 2.3 L 39.900997 0.29999995 C 39.9 0.1 39.8 0.0 39.6 0.0 z "/>
    <g stroke-opacity="0.25" fill-opacity="0.25">
        <g>
            <g>
                <g>
                    <g>
                        <g>
                            <g>
                                <g>
                                    <path d="M 5.5 2.5 L 7.8 0.099999905 L 6.0 0.099999905 L 3.7 2.5 L 5.5 2.5 z M 9.1 2.5 L 11.5 0.099999905 L 9.7 0.099999905 L 7.3 2.5 L 9.1 2.5 z M 12.8 2.5 L 15.200001 0.099999905 L 13.300001 0.099999905 L 11.0 2.5 L 12.8 2.5 z M 16.5 2.5 L 18.8 0.099999905 L 17.0 0.099999905 L 14.6 2.5 L 16.5 2.5 z M 20.1 2.5 L 22.5 0.099999905 L 20.7 0.099999905 L 18.300001 2.5 L 20.1 2.5 z M 23.8 2.5 L 26.099998 0.099999905 L 24.3 0.099999905 L 22.0 2.5 L 23.8 2.5 z M 27.4 2.5 L 29.8 0.1 L 28.0 0.1 L 25.6 2.5 L 27.4 2.5 z M 31.1 2.5 L 33.5 0.099999905 L 31.6 0.099999905 L 29.300001 2.5 L 31.1 2.5 z M 34.8 2.5 L 37.1 0.099999905 L 35.3 0.099999905 L 32.9 2.5 L 34.8 2.5 z M 1.712 2.511 L 4.171 0.08 L 2.43 0.052 L 0.1 2.4 C 0.1 2.4 0.2 2.5010002 0.3 2.5010002 L 1.712 2.511 z M 0.1 0.5 L 0.5 0.099999994 L 0.3 0.099999994 C 0.2 0.1 0.1 0.2 0.1 0.3 L 0.1 0.5 z M 39.9 1.0 L 39.9 0.3 C 39.9 0.201 39.799 0.10000001 39.7 0.10000001 L 39.0 0.10000001 L 36.7 2.3999999 L 38.5 2.3999999 L 39.9 1.0 z M 36.6 2.5 L 36.7 2.4 L 36.6 2.4 L 36.6 2.5 z "/>
                                </g>
                            </g>
                        </g>
                    </g>
                </g>
            </g>
        </g>
    </g>
</svg>
