<?xml version="1.0" encoding="UTF-8"?>
<svg xmlns="http://www.w3.org/2000/svg" xmlns:xlink="http://www.w3.org/1999/xlink" contentScriptType="text/ecmascript" zoomAndPan="magnify" baseProfile="tiny" contentStyleType="text/css" version="1.1" width="40px" preserveAspectRatio="xMidYMid meet" viewBox="0 0 40 40" height="40px" x="0px" y="0px">
    <g>
        <path d="M 21.772 12.812 L 21.772 11.312 L 19.324999 11.312 C 15.845999 11.313001 13.025999 14.669001 13.024999 18.812 L 13.024999 51.5 L 28.071 51.5 L 28.071 18.812 C 28.07 14.669001 25.251999 11.313 21.771 11.312 L 21.771 12.812 L 21.771 14.312 C 22.819 14.313001 23.755 14.813001 24.444 15.63 C 25.131 16.449 25.55 17.565 25.551 18.812 L 25.551 48.5 L 15.545 48.5 L 15.545 18.812 C 15.545 17.565 15.966 16.449001 16.652 15.63 C 17.34 14.814 18.277 14.313 19.324001 14.312 L 21.77 14.312 L 21.772 12.812 L 21.772 12.812 z " fill-opacity="0.25"/>
    </g>
    <g>
        <path d="M 13.445 50.999 L 13.445 18.812 C 13.445 14.945 16.078 11.813 19.325 11.811001 L 19.325 11.811001 L 21.771 11.811001 L 21.771 12.812001 L 21.771 13.812001 L 19.325 13.812001 C 17.004002 13.816001 15.129001 16.050001 15.124001 18.812 L 15.124001 18.812 L 15.124001 48.998 L 25.971 48.998 L 25.971 18.812 C 25.966002 16.05 24.09 13.816 21.772001 13.812 L 21.772001 13.812 L 21.772001 12.812 L 21.772001 11.811 C 25.02 11.813 27.651001 14.945 27.651001 18.812 L 27.651001 18.812 L 27.651001 50.999 L 13.445 50.999 L 13.445 50.999 z " fill-opacity="0.25"/>
    </g>
    <g>
        <path d="M 13.865 50.499 L 13.865 18.813 C 13.865 15.222 16.31 12.313 19.325 12.313 L 19.325 12.313 L 21.771 12.313 L 21.771 12.813 L 21.771 13.311999 L 19.325 13.311999 C 16.773 13.317999 14.709001 15.775 14.705001 18.813 L 14.705001 18.813 L 14.704 49.5 L 26.392 49.5 L 26.392 18.813 C 26.386 15.774 24.322 13.318 21.771 13.312 L 21.771 13.312 L 21.771 12.813001 L 21.771 12.312 C 24.788 12.314 27.230999 15.223001 27.230999 18.814 L 27.230999 18.814 L 27.230999 50.501 L 13.865 50.501 L 13.865 50.499 z " fill-opacity="0.25"/>
    </g>
    <path fill="#def164" d="M 21.772 12.812 L 19.324999 12.812 C 16.542 12.812 14.284999 15.499001 14.284999 18.812 L 14.284999 50.0 L 26.812 50.0 L 26.812 18.812 C 26.813 15.499 24.555 12.812 21.772 12.812 z "/>
</svg>
