<?xml version="1.0" encoding="UTF-8"?>
<svg xmlns="http://www.w3.org/2000/svg" xmlns:xlink="http://www.w3.org/1999/xlink" contentScriptType="text/ecmascript" zoomAndPan="magnify" baseProfile="tiny" contentStyleType="text/css" version="1.1" width="9px" preserveAspectRatio="xMidYMid meet" viewBox="0 0 9 9" height="9px" x="0px" y="0px">
    <rect width="9" fill="none" height="9"/>
    <path fill="#cddd54" d="M 3.0 0.0 L 2.998 0.0 C 2.996 1.654 1.654 2.994 0.0 2.998 L 0.0 8.998 C 4.97 8.998 8.996 4.973 9.0 0.0 L 3.0 0.0 z " fill-opacity="0.08" stroke-opacity="0.08"/>
    <path fill="#cddd54" d="M 8.498 0.0 L 3.5 0.0 L 3.498 0.0 C 3.496 1.932 1.93 3.494 0.0 3.498 L 0.0 8.5 C 4.695 8.496 8.498 4.695 8.501 0.0 L 8.498 0.0 z " fill-opacity="0.12" stroke-opacity="0.12"/>
    <path fill="#cddd54" d="M 7.998 0.0 L 4.001 0.0 L 3.998 0.0 C 3.994 2.209 2.209 3.994 0.0 3.998 L 0.0 7.998 C 4.421 7.996 7.998 4.418 8.001 0.0 L 7.998 0.0 z " fill-opacity="0.16" stroke-opacity="0.16"/>
    <path fill="#cddd54" d="M 7.498 0.0 L 4.499 0.0 C 4.494 2.482 2.484 4.494 0.0 4.498 L 0.0 7.498 C 4.144 7.496 7.498 4.141 7.501 0.0 L 7.498 0.0 z "/>
</svg>
