<?xml version="1.0" encoding="UTF-8"?>
<svg xmlns="http://www.w3.org/2000/svg" xmlns:xlink="http://www.w3.org/1999/xlink" contentScriptType="text/ecmascript" zoomAndPan="magnify" baseProfile="tiny" contentStyleType="text/css" version="1.1" width="34px" preserveAspectRatio="xMidYMid meet" viewBox="0 0 34 86" height="86px" x="0px" y="0px">
    <path d="M 17.188 59.539 C 10.389 59.539 6.8309994 54.193 6.8309994 48.913002 C 6.8309994 45.907 8.082999 43.260002 10.190999 41.628002 C 8.838999 40.103 8.220999 38.29 8.220999 35.946003 C 8.220999 30.543003 12.731998 27.715004 17.189 27.715004 C 21.644 27.715004 26.154 30.543003 26.154 35.946003 C 26.154 38.290005 25.535 40.102005 24.185 41.628002 C 26.289999 43.259003 27.543999 45.907 27.543999 48.913002 C 27.543 54.192 23.987 59.539 17.188 59.539 L 17.188 59.539 z M 17.188 45.535 C 14.485 45.535 14.349999 48.478 14.349999 49.068 C 14.349999 51.589 15.775 52.718002 17.188 52.718002 C 18.603 52.718002 20.026 51.589 20.026 49.068 C 20.028 48.479 19.891 45.535 17.188 45.535 L 17.188 45.535 z M 17.188 34.536 C 15.605 34.536 15.274 35.66 15.274 36.604 C 15.274 37.566 15.606 38.711 17.188 38.711 C 18.77 38.711 19.102 37.565 19.102 36.604 C 19.102 35.66 18.77 34.536 17.188 34.536 L 17.188 34.536 z "/>
    <path fill="#ffffff" d="M 17.188 58.238 C 11.2439995 58.238 8.132999 53.545998 8.132999 48.913 C 8.132999 45.686996 9.776999 43.002 12.3359995 41.847 C 10.33 40.296 9.523 38.556 9.523 35.947998 C 9.523 31.397999 13.38 29.016998 17.189 29.016998 C 20.998 29.016998 24.855999 31.397 24.855999 35.947998 C 24.855999 38.554996 24.049 40.295998 22.043 41.847 C 24.602999 43.003 26.245998 45.688 26.245998 48.913002 C 26.242 53.546 23.133 58.238 17.188 58.238 M 17.188 44.232 C 14.328 44.232 13.046 46.661 13.046 49.067997 C 13.046 52.468998 15.193 54.018997 17.188 54.018997 C 19.181 54.018997 21.328999 52.469997 21.328999 49.067997 C 21.329 46.661 20.048 44.232 17.188 44.232 M 17.188 33.235 C 15.2039995 33.235 13.973 34.527 13.973 36.605 C 13.973 38.708 15.205 40.014 17.188 40.014 C 19.17 40.014 20.402 38.708 20.402 36.605 C 20.402 34.526 19.17 33.235 17.188 33.235 "/>
</svg>
