<?xml version="1.0" encoding="UTF-8"?>
<svg xmlns="http://www.w3.org/2000/svg" xmlns:xlink="http://www.w3.org/1999/xlink" contentScriptType="text/ecmascript" zoomAndPan="magnify" baseProfile="tiny" contentStyleType="text/css" version="1.1" width="40px" preserveAspectRatio="xMidYMid meet" viewBox="0 0 40 40" height="40px" x="0px" y="0px">
    <g>
        <path d="M 19.324 20.0 L 19.324 21.5 L 21.771 21.5 C 25.251999 21.5 28.071 18.144001 28.071 14.0 L 28.071 -18.688 L 13.024 -18.688 L 13.024 14.0 C 13.024 18.144001 15.844 21.5 19.324001 21.5 L 19.324001 20.0 L 19.324001 18.5 C 18.277 18.5 17.340002 18.0 16.652 17.183 C 15.965 16.364 15.545 15.248001 15.545 14.0 L 15.545 -15.688 L 25.550999 -15.688 L 25.550999 14.0 C 25.550999 15.248 25.13 16.362999 24.446 17.183 C 23.758 17.998001 22.818998 18.5 21.772 18.5 L 19.324999 18.5 L 19.324999 20.0 z " fill-opacity="0.25"/>
    </g>
    <g>
        <path d="M 27.651 -18.187 L 27.651 14.0 C 27.651 17.867 25.016998 21.0 21.769999 21.001999 L 21.769999 21.001999 L 19.323997 21.001999 L 19.323997 20.0 L 19.323997 19.0 L 21.769997 19.0 C 24.091997 18.996 25.965996 16.763 25.971996 14.0 L 25.971996 14.0 L 25.971996 -16.186 L 15.125 -16.186 L 15.125 14.0 C 15.13 16.763 17.006 18.996 19.325 19.0 L 19.325 19.0 L 19.325 20.0 L 19.325 21.002 C 16.078 21.0 13.445 17.867 13.445 14.0 L 13.445 14.0 L 13.445 -18.187 L 27.651 -18.187 L 27.651 -18.187 z " fill-opacity="0.25"/>
    </g>
    <g>
        <path d="M 27.231 -17.687 L 27.231 14.0 C 27.231 17.59 24.788 20.5 21.771 20.5 L 21.771 20.5 L 19.325 20.5 L 19.325 20.0 L 19.325 19.5 L 21.771 19.5 C 24.323 19.494 26.386 17.037 26.390999 14.0 L 26.390999 14.0 L 26.393 -16.688 L 14.706 -16.688 L 14.706 14.0 C 14.711 17.039 16.775 19.494 19.326 19.5 L 19.326 19.5 L 19.326 20.0 L 19.326 20.5 C 16.31 20.498 13.866 17.59 13.866 13.998 L 13.866 13.998 L 13.866 -17.689 L 27.232 -17.689 L 27.232 -17.687 z " fill-opacity="0.25"/>
    </g>
    <path fill="#def164" d="M 19.324 20.0 L 21.771 20.0 C 24.555 20.0 26.811 17.313 26.811 14.0 L 26.811 -17.188 L 14.285 -17.188 L 14.285 14.0 C 14.285 17.313 16.542 20.0 19.324 20.0 z "/>
</svg>
