<?xml version="1.0" encoding="UTF-8"?>
<!DOCTYPE svg PUBLIC "-//W3C//DTD SVG 1.1 Tiny//EN" "http://www.w3.org/Graphics/SVG/1.1/DTD/svg11-tiny.dtd">
<svg baseProfile="tiny" version="1.1" xmlns="http://www.w3.org/2000/svg" xmlns:xlink="http://www.w3.org/1999/xlink" width="44" height="32" viewBox="-1.479 0.993 44 32">
<g>
<path fill="#656B6B" fill-opacity="0.01" d="M40.521,0.993v5.5l-0.023,0.965c-0.324,14.494-8.229,23.877-20.635,24.483 l-0.932,0.052h-20.41v-31H40.521z"/>
<path fill="#656B6B" fill-opacity="0.02" d="M39.521,0.993v5.5l-0.023,0.938c-0.311,13.923-7.853,22.933-19.684,23.511l-0.93,0.051 H-1.479v-30H39.521z"/>
<path fill="#656B6B" fill-opacity="0.03" d="M38.521,0.993v5.5l-0.023,0.914c-0.297,13.35-7.476,21.986-18.732,22.536l-0.928,0.05 H-1.479v-29H38.521z"/>
<path fill="#656B6B" fill-opacity="0.05" d="M37.521,0.993v5.5l-0.023,0.89c-0.285,12.776-7.098,21.04-17.781,21.563l-0.924,0.048 H-1.479v-28H37.521z"/>
<path fill="#656B6B" fill-opacity="0.06" d="M36.521,0.993v5.5l-0.021,0.862c-0.272,12.204-6.722,20.097-16.832,20.59l-0.92,0.048 H-1.479v-27H36.521z"/>
<path fill="#656B6B" fill-opacity="0.1" d="M35.521,0.993v5.5l-0.021,0.836c-0.26,11.634-6.345,19.152-15.881,19.617l-0.916,0.047 H-1.479v-26H35.521z"/>
<path fill="#656B6B" fill-opacity="0.1" d="M34.521,0.993v5.5l-0.021,0.81c-0.246,11.063-5.967,18.208-14.93,18.646l-0.912,0.045 H-1.479v-25H34.521z"/>
<path fill="#656B6B" fill-opacity="0.1" d="M33.521,0.993v5.5c0,0.267-0.016,0.524-0.021,0.787 c-0.213,9.539-4.666,17.215-13.979,17.668c-0.288,0.014-0.564,0.045-0.863,0.045H-1.479v-24H33.521z"/>
<path fill="#FFFFFF" fill-opacity="0.8" d="M36.521,0.993v5.5c0,9.665-7.835,17.5-17.5,17.5h-20.5v-23H36.521z"/>
<rect x="-1.479" y="0.993" fill="none" width="44" height="32"/>
</g>
</svg>
