<?xml version="1.0" encoding="UTF-8"?>
<svg xmlns="http://www.w3.org/2000/svg" xmlns:xlink="http://www.w3.org/1999/xlink" contentScriptType="text/ecmascript" zoomAndPan="magnify" baseProfile="tiny" contentStyleType="text/css" version="1.1" width="136px" preserveAspectRatio="xMidYMid meet" viewBox="0 0 136 70" height="70px" x="0px" y="0px">
    <g>
        <g>
            <path d="M 67.992 69.021 C 48.956997 69.021 33.470997 53.535004 33.470997 34.500004 C 33.470997 15.465004 48.956 -0.021 67.992 -0.021 C 87.024994 -0.021 102.513 15.465 102.513 34.5 C 102.513 53.535 87.025 69.021 67.992 69.021 " fill-opacity="0.5"/>
        </g>
    </g>
    <path d="M 99.198 36.307 C 99.198 53.508 85.253 67.453 68.052 67.453 C 50.850002 67.453 36.905003 53.509003 36.905003 36.307003 C 36.905003 19.104004 50.850002 5.1600037 68.052 5.1600037 C 85.253 5.159 99.198 19.104 99.198 36.307 "/>
    <linearGradient x1="344.0811" gradientTransform="matrix(1 0 0 -1 -277.6602 -331.96)" y1="-335.1616" x2="347.3412" gradientUnits="userSpaceOnUse" y2="-397.3707" xlink:type="simple" xlink:actuate="onLoad" id="SVGID_1_" xlink:show="other">
        <stop stop-color="#edf5f7" offset="0"/>
        <stop stop-color="#d9d9d9" offset="1"/>
    </linearGradient>
    <path fill="url(#SVGID_1_)" d="M 99.198 34.306 C 99.198 51.508 85.253 65.451996 68.052 65.451996 C 50.849003 65.451996 36.905003 51.507996 36.905003 34.305996 C 36.905003 17.103996 50.85 3.159 68.053 3.159 C 85.253 3.159 99.198 17.104 99.198 34.306 "/>
    <path d="M 42.932 22.517 C 42.433 22.517 42.03 22.113 42.03 21.616001 C 42.03 21.118002 42.433 20.713001 42.932 20.713001 C 43.43 20.713001 43.835 21.118002 43.835 21.616001 C 43.835 22.112 43.429 22.517 42.932 22.517 "/>
    <path d="M 52.408 12.59 C 51.909 12.59 51.506 12.185 51.506 11.687 C 51.506 11.190001 51.91 10.786 52.408 10.786 C 52.906002 10.786 53.311 11.190001 53.311 11.687 C 53.311 12.185 52.906 12.59 52.408 12.59 "/>
    <path d="M 93.523 22.517 C 93.025 22.517 92.622 22.113 92.622 21.616001 C 92.622 21.118002 93.025 20.713001 93.523 20.713001 C 94.019005 20.713001 94.424 21.118002 94.424 21.616001 C 94.425 22.112 94.021 22.517 93.523 22.517 "/>
    <path d="M 42.932 47.787 C 42.433 47.787 42.03 47.383 42.03 46.885 C 42.03 46.385998 42.433 45.982998 42.932 45.982998 C 43.43 45.982998 43.835 46.385998 43.835 46.885 C 43.834 47.383 43.429 47.787 42.932 47.787 "/>
    <path d="M 93.523 47.787 C 93.025 47.787 92.622 47.383 92.622 46.885 C 92.622 46.385998 93.025 45.982998 93.523 45.982998 C 94.019005 45.982998 94.424 46.385998 94.424 46.885 C 94.426 47.383 94.021 47.787 93.523 47.787 "/>
    <path d="M 83.545 12.59 C 83.046 12.59 82.643 12.185 82.643 11.687 C 82.643 11.190001 83.046 10.786 83.545 10.786 C 84.042 10.786 84.445 11.190001 84.445 11.687 C 84.445 12.185 84.042 12.59 83.545 12.59 "/>
    <path d="M 52.408 58.617 C 51.909 58.617 51.506 58.213 51.506 57.715 C 51.506 57.217 51.91 56.813 52.408 56.813 C 52.906002 56.813 53.311 57.217 53.311 57.715 C 53.311 58.213 52.906 58.617 52.408 58.617 "/>
    <path d="M 83.545 58.617 C 83.046 58.617 82.643 58.213 82.643 57.715 C 82.643 57.217 83.046 56.813 83.545 56.813 C 84.042 56.813 84.445 57.217 84.445 57.715 C 84.445 58.213 84.042 58.617 83.545 58.617 "/>
    <g>
        <path d="M 96.498 36.4 C 96.141 36.4 95.840004 36.252003 95.606 35.957 C 95.37701 35.674 95.245 35.301003 95.215004 34.851 L 95.20901 34.762 L 95.296005 34.745003 L 95.75201 34.663002 L 95.855 34.644 L 95.87 34.747 C 95.920006 35.088 96.00201 35.332 96.118004 35.476 C 96.22301 35.612003 96.34801 35.678 96.50001 35.678 C 96.68201 35.678 96.83201 35.589 96.964005 35.407 C 97.09801 35.217003 97.16601 34.979 97.16601 34.697002 C 97.16601 34.425003 97.10401 34.208004 96.98001 34.032 C 96.863014 33.872 96.71601 33.791 96.53701 33.791 C 96.48501 33.791 96.39201 33.804 96.25001 33.855 L 96.102005 33.911 L 96.117004 33.753998 L 96.16801 33.197 L 96.17701 33.106 L 96.34201 33.112 C 96.51101 33.112 96.65901 33.05 96.80001 32.926 C 96.932014 32.806 97.00001 32.611 97.00001 32.348 C 97.00001 32.138 96.950005 31.966 96.84801 31.83 C 96.755005 31.702 96.63901 31.641 96.491005 31.641 C 96.345 31.641 96.225006 31.704 96.128006 31.832 C 96.019005 31.973001 95.948006 32.191 95.91801 32.482002 L 95.90501 32.595 L 95.79401 32.568 L 95.336006 32.455 L 95.24901 32.434002 L 95.26201 32.343002 C 95.32201 31.900002 95.45801 31.549002 95.66601 31.305002 C 95.88301 31.049002 96.15501 30.919003 96.48101 30.919003 C 96.70601 30.919003 96.91401 30.985003 97.09901 31.117002 C 97.283005 31.247002 97.42701 31.429003 97.52701 31.655003 C 97.62201 31.874002 97.670006 32.113003 97.670006 32.361004 C 97.670006 32.596004 97.62401 32.817005 97.531006 33.013004 C 97.463005 33.158005 97.37 33.281006 97.255005 33.382004 C 97.420006 33.473003 97.55801 33.613003 97.659004 33.799004 C 97.787 34.031002 97.850006 34.329002 97.850006 34.680004 C 97.850006 35.153004 97.725006 35.559006 97.477005 35.887005 C 97.22 36.229 96.89 36.4 96.498 36.4 L 96.498 36.4 z "/>
        <path d="M 95.314 34.846 L 95.771 34.761 C 95.823006 35.120003 95.912 35.38 96.039 35.538002 C 96.164 35.696003 96.318 35.776 96.5 35.776 C 96.715 35.776 96.896 35.672 97.044 35.465 C 97.191 35.258 97.266 35.002 97.266 34.696 C 97.266 34.405 97.198 34.165 97.061 33.975 C 96.923996 33.784996 96.749 33.690998 96.537994 33.690998 C 96.451996 33.690998 96.34499 33.713997 96.215996 33.760998 L 96.267 33.204 C 96.298 33.209 96.322 33.211 96.340996 33.211 C 96.534996 33.211 96.71 33.141 96.866 33.0 C 97.020996 32.858 97.099 32.642 97.099 32.348 C 97.099 32.116 97.041 31.921999 96.928 31.77 C 96.815 31.617 96.668 31.541 96.49 31.541 C 96.312 31.541 96.165 31.618 96.046 31.773 C 95.928 31.928001 95.852 32.161 95.817 32.471 L 95.36 32.359 C 95.417 31.933 95.544 31.603 95.741 31.37 C 95.938995 31.137001 96.185 31.019001 96.479 31.019001 C 96.682 31.019001 96.869995 31.080002 97.04099 31.201 C 97.21199 31.321999 97.342995 31.487 97.43299 31.696001 C 97.523994 31.905 97.56999 32.128002 97.56999 32.362 C 97.56999 32.586 97.52699 32.788998 97.439995 32.972 C 97.353 33.155 97.226 33.301 97.05599 33.409 C 97.27699 33.48 97.44799 33.626 97.56999 33.848 C 97.690994 34.07 97.75299 34.348 97.75299 34.682 C 97.75299 35.133 97.634995 35.515 97.39799 35.829 C 97.16099 36.142 96.861984 36.3 96.499985 36.3 C 96.17298 36.3 95.900986 36.163998 95.68698 35.894 C 95.468 35.626 95.344 35.275 95.314 34.846 z "/>
    </g>
    <g>
        <path d="M 39.566 36.399 C 39.245003 36.399 38.980003 36.273 38.776 36.024998 C 38.578 35.786 38.457 35.448997 38.420002 35.023 L 38.410004 34.927998 L 38.507004 34.914997 L 38.947002 34.857998 L 39.046 34.843 L 39.059002 34.944 C 39.094 35.212 39.158 35.405 39.250004 35.518 C 39.334003 35.624 39.441006 35.674 39.577003 35.674 C 39.694004 35.674 39.793003 35.639 39.881004 35.565 C 39.976006 35.484997 40.052006 35.378 40.115005 35.243 C 40.177006 35.102 40.230007 34.913 40.278004 34.66 C 40.309002 34.485 40.329002 34.315 40.338005 34.14 C 40.276005 34.216 40.207005 34.286 40.130005 34.345 C 39.953007 34.485 39.760006 34.557003 39.554005 34.557003 C 39.212006 34.557003 38.923004 34.386 38.688004 34.049004 C 38.464005 33.720005 38.351 33.288002 38.351 32.764004 C 38.351 32.221004 38.47 31.777004 38.703003 31.440004 C 38.944004 31.094004 39.254 30.918005 39.622 30.918005 C 39.888 30.918005 40.134003 31.019005 40.352 31.216005 C 40.566 31.407005 40.728 31.683006 40.837 32.034004 C 40.946003 32.382004 41.0 32.867004 41.0 33.519005 C 41.0 34.185005 40.947 34.724007 40.842 35.121006 C 40.731 35.537006 40.572 35.843006 40.357 36.061005 C 40.129 36.286 39.864 36.399 39.566 36.399 L 39.566 36.399 z M 39.677 31.646 C 39.509 31.646 39.363 31.743 39.231 31.947 C 39.091 32.161 39.022 32.442 39.022 32.786 C 39.022 33.093 39.088 33.343998 39.218998 33.53 C 39.343 33.709 39.489 33.795998 39.664997 33.795998 C 39.840996 33.795998 39.985996 33.708996 40.104996 33.531998 C 40.228996 33.344997 40.289997 33.075996 40.289997 32.733997 C 40.289997 32.391 40.226997 32.117996 40.096996 31.921997 C 39.975 31.735 39.839 31.646 39.677 31.646 L 39.677 31.646 z "/>
        <path d="M 38.52 35.015 L 38.959 34.958 C 38.996 35.245 39.067 35.453 39.172 35.582 C 39.277 35.712 39.412003 35.776 39.576 35.776 C 39.716 35.776 39.839 35.731003 39.945 35.642002 C 40.051 35.552002 40.137 35.433002 40.204998 35.284 C 40.272995 35.135 40.329998 34.933 40.374996 34.68 C 40.420998 34.426 40.443996 34.167 40.443996 33.905 C 40.443996 33.877 40.442997 33.835 40.440998 33.778 C 40.35 33.98 40.225 34.144 40.066998 34.269 C 39.908997 34.395 39.736996 34.458 39.552998 34.458 C 39.245 34.458 38.984997 34.303 38.770996 33.992 C 38.556995 33.681 38.450996 33.273 38.450996 32.765 C 38.450996 32.241 38.561996 31.819 38.783997 31.498999 C 39.006996 31.178999 39.284996 31.019999 39.619995 31.019999 C 39.861996 31.019999 40.082996 31.109999 40.283997 31.290998 C 40.483997 31.471998 40.636997 31.728998 40.740997 32.064 C 40.844997 32.399 40.896996 32.883 40.896996 33.517998 C 40.896996 34.178997 40.844997 34.704998 40.741997 35.095997 C 40.638996 35.486996 40.484997 35.784996 40.281998 35.989998 C 40.078 36.193996 39.838997 36.296997 39.565 36.296997 C 39.274 36.296997 39.036 36.184998 38.851997 35.959995 C 38.667995 35.734993 38.557 35.421 38.52 35.015 z M 40.39 32.733 C 40.39 32.369003 40.32 32.08 40.181 31.866001 C 40.041 31.652 39.873 31.546001 39.677 31.546001 C 39.474 31.546001 39.296997 31.661001 39.146 31.891 C 38.996 32.121002 38.92 32.420002 38.92 32.787003 C 38.92 33.116 38.990997 33.384003 39.134 33.590004 C 39.277 33.795006 39.453 33.899002 39.663 33.899002 C 39.873997 33.899002 40.047997 33.795002 40.184 33.590004 C 40.322 33.383 40.39 33.098 40.39 32.733 z "/>
    </g>
    <g>
        <path d="M 67.132 9.64 L 67.031006 9.64 L 66.574005 9.64 L 66.47301 9.64 L 66.47301 9.539 L 66.47301 5.767 C 66.393005 5.8500004 66.30501 5.932 66.20601 6.012 C 66.02101 6.162 65.85401 6.275 65.70601 6.349 L 65.560005 6.423 L 65.560005 6.261 L 65.560005 5.647 C 65.850006 5.4049997 66.06801 5.2079997 66.253006 4.9769998 C 66.436005 4.751 66.56701 4.529 66.64101 4.317 L 66.66601 4.25 L 66.73601 4.25 L 67.03001 4.25 L 67.131004 4.25 L 67.131004 4.351 L 67.131004 9.539 L 67.131004 9.64 L 67.132 9.64 z "/>
        <path d="M 67.032 9.54 L 66.575 9.54 L 66.575 5.496 C 66.465 5.6419997 66.321 5.7869997 66.142 5.934 C 65.964 6.08 65.803 6.189 65.660995 6.261 L 65.660995 5.647 C 65.91599 5.48 66.13999 5.278 66.33099 5.041 C 66.521996 4.804 66.65699 4.573 66.73699 4.351 L 67.03099 4.351 L 67.03099 9.54 z "/>
        <path d="M 70.705 9.64 L 70.603004 9.64 L 68.144005 9.64 L 68.047005 9.64 L 68.04301 9.541 C 68.03901 9.3810005 68.060005 9.223001 68.101006 9.0720005 C 68.16401 8.832001 68.269005 8.593 68.41401 8.361 C 68.55401 8.1310005 68.75701 7.861 69.02301 7.563 C 69.419014 7.1080003 69.69101 6.7460003 69.82901 6.4870005 C 69.96301 6.2360005 70.02901 5.9940004 70.02901 5.7710004 C 70.02901 5.5390005 69.97301 5.3500004 69.85601 5.1930003 C 69.74501 5.0460005 69.60701 4.9750004 69.43001 4.9750004 C 69.242004 4.9750004 69.09701 5.0510006 68.98201 5.2070003 C 68.86301 5.374 68.80301 5.61 68.80001 5.9100003 L 68.79801 6.025 L 68.68601 6.0090003 L 68.21701 5.9430003 L 68.12401 5.9300003 L 68.13 5.84 C 68.165 5.323 68.293 4.941 68.519 4.669 C 68.745995 4.392 69.05299 4.25 69.437996 4.25 C 69.825 4.25 70.13699 4.402 70.368 4.7 C 70.589 4.9919996 70.699 5.358 70.699 5.786 C 70.699 6.0059996 70.667 6.22 70.602 6.424 C 70.538994 6.634 70.434 6.856 70.288994 7.08 C 70.145 7.3059998 69.90399 7.614 69.575 8.000999 C 69.306 8.316999 69.131996 8.528999 69.05299 8.643 C 69.01199 8.705 68.97499 8.769 68.940994 8.830999 L 70.604 8.830999 L 70.70599 8.830999 L 70.70599 8.931999 L 70.70599 9.539999 L 70.70599 9.64 L 70.705 9.64 z "/>
        <path d="M 70.604 8.93 L 70.604 9.54 L 68.145 9.54 C 68.142 9.387 68.159996 9.24 68.198 9.099 C 68.261 8.867 68.361 8.638 68.499 8.412 C 68.638 8.184999 68.837 7.9249997 69.097 7.6289997 C 69.501 7.1679997 69.775 6.804 69.917 6.5339994 C 70.06 6.2649994 70.13 6.0109997 70.13 5.7709994 C 70.13 5.5189996 70.065994 5.306999 69.937 5.1339993 C 69.807 4.9609995 69.63799 4.8749995 69.42999 4.8749995 C 69.20999 4.8749995 69.03399 4.9669995 68.90199 5.1489997 C 68.76999 5.3329997 68.702995 5.587 68.701996 5.911 L 68.231995 5.844 C 68.26399 5.358 68.384995 4.988 68.59499 4.732 C 68.80399 4.4769998 69.08599 4.35 69.439995 4.35 C 69.797 4.35 70.079994 4.488 70.288994 4.762 C 70.495995 5.037 70.60099 5.3780003 70.60099 5.784 C 70.60099 5.9909997 70.57099 6.194 70.50999 6.394 C 70.44799 6.593 70.347984 6.804 70.205986 7.025 C 70.06399 7.2460003 69.828 7.551 69.5 7.936 C 69.226 8.256 69.049 8.473 68.972 8.5859995 C 68.895 8.7 68.83 8.814 68.779 8.93 L 70.604 8.93 z "/>
    </g>
    <g>
        <path d="M 68.028 64.477 C 67.613 64.477 67.270996 64.267 67.011 63.847996 C 66.761 63.441998 66.637 62.776997 66.637 61.870995 C 66.637 60.840996 66.771 60.112995 67.048004 59.640995 C 67.298004 59.214996 67.642006 58.998997 68.07101 58.998997 C 68.393005 58.998997 68.661 59.123997 68.867004 59.375996 C 69.065 59.621994 69.187004 59.955997 69.22401 60.376995 L 69.23401 60.473995 L 69.13501 60.484997 L 68.68301 60.534996 L 68.590004 60.544994 L 68.573006 60.451996 C 68.536 60.218994 68.482 60.049995 68.41401 59.948997 C 68.31301 59.795998 68.18901 59.720997 68.04001 59.720997 C 67.92201 59.720997 67.81901 59.768997 67.72801 59.861996 C 67.59601 59.993996 67.49101 60.195995 67.41201 60.457996 C 67.35401 60.656 67.31501 60.922997 67.29701 61.250996 C 67.36901 61.159996 67.44901 61.083996 67.53401 61.022995 C 67.70701 60.899994 67.89501 60.836994 68.09101 60.836994 C 68.42901 60.836994 68.71801 61.008995 68.95101 61.346992 C 69.17601 61.676994 69.28901 62.101994 69.28901 62.609993 C 69.28901 62.941994 69.23801 63.25799 69.13501 63.548992 C 69.02601 63.84399 68.87501 64.07199 68.68701 64.231995 C 68.499 64.395 68.276 64.477 68.028 64.477 L 68.028 64.477 z M 68.004 61.595 C 67.831 61.595 67.686 61.684002 67.56 61.863003 C 67.425995 62.053 67.36 62.299004 67.36 62.614002 C 67.36 62.819004 67.393 63.019 67.457 63.211002 C 67.519 63.393 67.603004 63.533 67.708 63.626003 C 67.809 63.713005 67.913 63.756004 68.02 63.756004 C 68.17899 63.756004 68.312996 63.665005 68.433 63.478004 C 68.56 63.282005 68.627 63.003006 68.627 62.650005 C 68.627 62.316006 68.562996 62.049004 68.438995 61.862007 C 68.319 61.681 68.177 61.595 68.004 61.595 L 68.004 61.595 z "/>
        <path d="M 69.127 60.386 L 68.673996 60.435 C 68.632996 60.186 68.575 60.005 68.49999 59.893 C 68.37699 59.711002 68.22499 59.622 68.04299 59.622 C 67.89699 59.622 67.76999 59.678 67.65999 59.791 C 67.51599 59.937 67.402985 60.149002 67.31999 60.429 C 67.23699 60.709 67.19399 61.108 67.190994 61.624 C 67.300995 61.392002 67.436 61.219 67.593994 61.105 C 67.75299 60.993 67.91999 60.936 68.093994 60.936 C 68.398994 60.936 68.658 61.092 68.87299 61.403 C 69.08599 61.715 69.19299 62.117 69.19299 62.611 C 69.19299 62.935 69.14199 63.237 69.04299 63.515 C 68.940994 63.793 68.80299 64.006 68.62699 64.155 C 68.45199 64.303 68.25199 64.378 68.02799 64.378 C 67.647995 64.378 67.33699 64.183 67.09599 63.794 C 66.855995 63.405 66.73599 62.764 66.73599 61.871 C 66.73599 60.871998 66.868996 60.144997 67.133995 59.691998 C 67.366 59.295998 67.67799 59.099 68.07099 59.099 C 68.36299 59.099 68.60299 59.212997 68.78999 59.440998 C 68.979 59.669 69.09 59.983 69.127 60.386 z M 67.262 62.613 C 67.262 62.832 67.296 63.042 67.363 63.240997 C 67.43 63.440998 67.523 63.593998 67.643 63.697998 C 67.76299 63.802 67.889 63.853996 68.020996 63.853996 C 68.214 63.853996 68.379 63.746998 68.519 63.529995 C 68.658 63.313995 68.727 63.019997 68.727 62.648994 C 68.727 62.291996 68.659 62.009995 68.521996 61.803993 C 68.383995 61.597992 68.212 61.494995 68.003 61.494995 C 67.796 61.494995 67.622 61.597996 67.478 61.803993 C 67.334 62.011 67.262 62.28 67.262 62.613 z "/>
    </g>
</svg>
