<?xml version="1.0" encoding="UTF-8"?>
<svg xmlns="http://www.w3.org/2000/svg" xmlns:xlink="http://www.w3.org/1999/xlink" contentScriptType="text/ecmascript" zoomAndPan="magnify" baseProfile="tiny" contentStyleType="text/css" version="1.1" width="40px" preserveAspectRatio="xMidYMid meet" viewBox="0 0 40 40" height="40px" x="0px" y="0px">
    <g>
        <path d="M 21.772 -62.096 L 21.772 -66.5 L 19.325 -66.5 C 15.845999 -66.497 13.025999 -56.644 13.024999 -44.479 L 13.024999 51.5 L 28.071 51.5 L 28.071 -44.478996 C 28.07 -56.643997 25.252 -66.49799 21.771 -66.5 L 21.771 -62.096 L 21.771 -57.692 C 22.819 -57.689003 23.755 -56.221 24.444 -53.822 C 25.131 -51.416004 25.55 -48.140003 25.551 -44.479004 L 25.551 42.69099 L 15.545 42.69099 L 15.545 -44.479004 C 15.545 -48.141003 15.966 -51.417004 16.652 -53.822006 C 17.34 -56.218006 18.277 -57.689007 19.324 -57.692005 L 21.77 -57.692005 L 21.772 -62.096 L 21.772 -62.096 z " fill-opacity="0.25"/>
    </g>
    <g>
        <path d="M 13.445 50.029 L 13.445 -44.479004 C 13.445 -55.834003 16.078 -65.02901 19.325 -65.035 L 19.325 -65.035 L 21.771 -65.035 L 21.771 -62.096004 L 21.771 -59.160004 L 19.325 -59.160004 C 17.004002 -59.148003 15.129001 -52.589005 15.124001 -44.479004 L 15.124001 -44.479004 L 15.124001 44.151993 L 25.971 44.151993 L 25.971 -44.479004 C 25.966002 -52.589005 24.09 -59.148003 21.772 -59.160004 L 21.772 -59.160004 L 21.772 -62.096004 L 21.772 -65.035 C 25.02 -65.02901 27.651 -55.834003 27.651 -44.479004 L 27.651 -44.479004 L 27.651 50.029 L 13.445 50.029 L 13.445 50.029 z " fill-opacity="0.25"/>
    </g>
    <g>
        <path d="M 13.865 48.561 L 13.865 -44.475 C 13.865 -55.018 16.31 -63.56 19.325 -63.56 L 19.325 -63.56 L 21.771 -63.56 L 21.771 -62.092003 L 21.771 -60.627003 L 19.325 -60.627003 C 16.773 -60.610004 14.709001 -53.396004 14.705001 -44.475 L 14.705001 -44.475 L 14.704 45.62899 L 26.392 45.62899 L 26.392 -44.475 C 26.386 -53.398003 24.322 -60.61 21.771 -60.627003 L 21.771 -60.627003 L 21.771 -62.092003 L 21.771 -63.563004 C 24.788 -63.557003 27.231 -55.015003 27.231 -44.472004 L 27.231 -44.472004 L 27.231 48.567 L 13.865 48.567 L 13.865 48.561 z " fill-opacity="0.25"/>
    </g>
    <path fill="#d2d2d2" d="M 21.772 -62.096 L 19.325 -62.096 C 16.542 -62.096 14.284999 -54.206 14.284999 -44.479 L 14.284999 47.095997 L 26.812 47.095997 L 26.812 -44.479 C 26.813 -54.206 24.555 -62.096 21.772 -62.096 z "/>
</svg>
