<?xml version="1.0" encoding="UTF-8"?>
<svg xmlns="http://www.w3.org/2000/svg" xmlns:xlink="http://www.w3.org/1999/xlink" contentScriptType="text/ecmascript" zoomAndPan="magnify" baseProfile="tiny" contentStyleType="text/css" version="1.1" width="34px" preserveAspectRatio="xMidYMid meet" viewBox="0 0 34 86" height="86px" x="0px" y="0px">
    <path d="M 16.635 59.539 C 10.725 59.539 6.4370003 54.745003 6.4370003 48.143 C 6.4370003 38.964 12.865 32.177002 16.694 28.947002 C 17.427 28.338003 18.33 27.720003 19.529 27.720003 C 21.137 27.720003 22.861 29.136003 22.861 31.244003 C 22.861 32.746002 21.793 33.686005 20.85 34.517002 C 19.747 35.503002 18.813 36.436 17.869 37.676003 C 17.946 37.676003 18.022999 37.674004 18.1 37.674004 C 23.334 37.674004 26.990002 42.186005 26.990002 48.648003 C 26.99 54.854 22.538 59.539 16.635 59.539 L 16.635 59.539 z M 16.597 44.49 C 14.092 44.49 13.716 46.995003 13.716 48.487003 C 13.716 49.981003 14.091 52.488003 16.597 52.488003 C 19.102001 52.488003 19.478 49.981003 19.478 48.487003 C 19.478 44.966 18.021 44.49 16.597 44.49 L 16.597 44.49 z "/>
    <path fill="#ffffff" d="M 16.635 58.238 C 11.479 58.238 7.736 53.990997 7.736 48.142 C 7.736 39.487 13.874001 33.024 17.534 29.939999 C 18.199001 29.385998 18.793001 29.017998 19.531 29.017998 C 20.382 29.017998 21.561 29.789997 21.561 31.241997 C 21.561 32.096996 20.969002 32.678997 19.992 33.538998 C 18.177 35.163998 16.784 36.673996 15.141001 39.404 C 15.954 39.147 16.909 38.973 18.101002 38.973 C 22.571001 38.973 25.691002 42.949 25.691002 48.643997 C 25.69 54.112 21.797 58.238 16.635 58.238 M 16.597 43.19 C 12.719 43.19 12.417 47.245 12.417 48.487 C 12.417 49.731 12.719 53.787 16.597 53.787 C 20.475 53.787 20.778 49.731 20.778 48.487 C 20.777 44.976 19.371 43.19 16.597 43.19 "/>
</svg>
