<?xml version="1.0" encoding="UTF-8"?>
<svg xmlns="http://www.w3.org/2000/svg" xmlns:xlink="http://www.w3.org/1999/xlink" contentScriptType="text/ecmascript" zoomAndPan="magnify" baseProfile="tiny" contentStyleType="text/css" version="1.1" width="34px" preserveAspectRatio="xMidYMid meet" viewBox="0 0 34 86" height="86px" x="0px" y="0px">
    <path d="M 23.642 59.244 L 10.33 59.244 C 7.838 59.244 6.5360003 57.565998 6.5360003 55.912 C 6.5360003 54.851997 6.9890003 54.136997 7.6310005 53.239 L 17.147 40.511997 C 18.195 39.149 18.767 37.840996 18.767 36.812996 C 18.767 35.413998 17.795 34.472996 16.349 34.472996 C 13.424001 34.472996 13.275002 38.028996 13.275002 38.740997 C 13.275002 40.795998 11.857001 42.228996 9.828001 42.228996 C 8.087001 42.228996 6.2250013 41.170998 6.2250013 38.201996 C 6.2250013 33.120995 9.573002 27.654995 16.927002 27.654995 C 23.002003 27.654995 26.279003 32.173996 26.279003 36.426994 C 26.279003 38.295994 26.103003 40.521996 23.989002 43.280994 L 17.116001 52.426994 L 23.641 52.426994 C 25.519001 52.426994 27.048 53.955994 27.048 55.835995 C 27.049 57.714 25.52 59.244 23.642 59.244 L 23.642 59.244 z "/>
    <path fill="#ffffff" d="M 10.33 57.944 C 8.606 57.944 7.835 56.922 7.835 55.912 C 7.835 55.258 8.108 54.807 8.689 53.995 L 18.187 41.288998 C 19.418 39.689 20.066 38.143997 20.066 36.812996 C 20.066 34.703995 18.503 33.172997 16.348 33.172997 C 13.1189995 33.172997 11.974999 36.172997 11.974999 38.741997 C 11.974999 40.090996 11.153 40.927998 9.827999 40.927998 C 8.967999 40.927998 7.525999 40.574997 7.525999 38.201996 C 7.525999 33.747997 10.466 28.954996 16.925999 28.954996 C 22.154999 28.954996 24.979 32.804996 24.979 36.427998 C 24.979 38.159996 24.823 40.055996 22.956 42.490997 L 14.511999 53.725 L 23.640999 53.725 C 24.803 53.725 25.748 54.670998 25.748 55.833 C 25.748 56.997 24.803 57.943 23.640999 57.943 L 10.33 57.943 z "/>
</svg>
