<?xml version="1.0" encoding="UTF-8"?>
<svg xmlns="http://www.w3.org/2000/svg" xmlns:xlink="http://www.w3.org/1999/xlink" contentScriptType="text/ecmascript" zoomAndPan="magnify" baseProfile="tiny" contentStyleType="text/css" version="1.1" width="92.979px" preserveAspectRatio="xMidYMid meet" viewBox="0 0 92.979 98" height="98px" x="0px" y="0px">
    <g>
        <path d="M 73.508 95.588 C 72.903 95.588 72.298004 95.522995 71.705 95.395 L 18.732 83.952 C 15.842 83.327 13.574 81.29301 12.565001 78.670006 C 10.738001 77.350006 9.453001 75.33101 9.103001 73.03901 L 1.314 21.921 C 0.97 19.668999 1.527 17.411999 2.882 15.568999 C 4.237 13.726999 6.224 12.522999 8.479 12.181 L 62.056 4.0149994 C 62.482 3.9519994 62.913 3.9169993 63.342 3.9169993 C 67.53 3.9169993 71.164 7.0389996 71.795 11.179999 L 73.975 25.488998 L 86.233 28.137 C 90.842 29.133 93.781 33.695 92.785 38.301 L 81.866 88.841 C 81.023 92.752 77.507 95.588 73.508 95.588 L 73.508 95.588 z " fill-opacity="0.5" stroke-opacity="0.5"/>
        <g>
            <path d="M 85.233 34.683 L 69.775 31.342999 L 67.102005 13.797998 C 66.788 11.732998 64.840004 10.298998 62.773006 10.613998 L 9.194 18.777 C 7.129 19.091 5.695 21.04 6.01 23.107 L 13.798 74.223 C 14.042001 75.817 15.258 77.023 16.748001 77.352 C 16.683 79.154 17.913002 80.814995 19.733002 81.209 L 72.71 92.653 C 74.751 93.094 76.784996 91.784 77.227 89.741 L 88.144 39.200996 C 88.584 37.157 87.275 35.126 85.233 34.683 z M 11.422 27.087 C 11.107 25.021 12.539 23.072 14.607 22.757 L 58.794 16.025 C 60.858997 15.7109995 62.807 17.143 63.121998 19.21 L 64.807 30.272 L 32.259 23.24 C 30.217 22.798 28.183998 24.109 27.741999 26.152 L 18.245998 70.115005 C 18.019999 69.72101 17.852999 69.287 17.781998 68.814 L 11.422 27.087 z M 82.497 42.84 L 78.556 61.085 L 63.856 45.18 L 42.668 57.759 L 39.027 46.835 L 26.813 52.941998 L 31.381 31.795998 C 31.823 29.753998 33.855 28.441998 35.897 28.883997 L 65.571 35.295998 L 65.571 35.295998 L 70.54 36.368996 L 70.54 36.368996 L 79.585 38.323997 C 81.629 38.764 82.939 40.796 82.497 42.84 z "/>
            <circle r="4.116" cx="51.556" cy="42.014"/>
        </g>
        <linearGradient x1="38.698" gradientTransform="matrix(1 0 0 -1 8.3999 74.1602)" y1="65.4902" x2="38.698" gradientUnits="userSpaceOnUse" y2="-16.6777" xlink:type="simple" xlink:actuate="onLoad" id="SVGID_1_" xlink:show="other">
            <stop stop-color="#edf5b3" offset="0"/>
            <stop stop-color="#7fa608" offset="1"/>
        </linearGradient>
        <path fill="url(#SVGID_1_)" d="M 85.233 32.783 L 69.775 29.443 L 67.102005 11.897001 C 66.788 9.832001 64.840004 8.399001 62.773006 8.714001 L 9.194 16.877 C 7.129 17.191 5.695 19.140001 6.01 21.207 L 13.798 72.324005 C 14.042001 73.91801 15.258 75.12401 16.748001 75.452 C 16.683 77.255005 17.913002 78.915 19.733002 79.309006 L 72.71 90.753 C 74.751 91.194 76.784996 89.883995 77.227 87.840996 L 88.144 37.300995 C 88.584 35.257 87.275 33.226 85.233 32.783 z M 11.422 25.187 C 11.107 23.121 12.539 21.172 14.607 20.857 L 58.794 14.125 C 60.858997 13.811 62.807 15.243 63.121998 17.31 L 64.807 28.372 L 32.259 21.34 C 30.217 20.897 28.183998 22.209 27.741999 24.252 L 18.245998 68.214005 C 18.019999 67.82001 17.852999 67.387 17.781998 66.913 L 11.422 25.187 z M 82.497 40.94 L 78.556 59.184998 L 63.856 43.28 L 42.668 55.858 L 39.027 44.935 L 26.813 51.042 L 31.381 29.897 C 31.823 27.855 33.855 26.543 35.897 26.984999 L 65.571 33.397 L 65.571 33.397 L 70.54 34.468998 L 70.54 34.468998 L 79.585 36.424 C 81.629 36.864 82.939 38.896 82.497 40.94 z M 55.672 40.113 C 55.672 42.386997 53.828 44.23 51.556 44.23 C 49.281 44.23 47.439 42.387 47.439 40.113 C 47.439 37.838997 49.281 35.996 51.556 35.996 C 53.827 35.996 55.672 37.84 55.672 40.113 z "/>
    </g>
</svg>
