<?xml version="1.0" encoding="UTF-8"?>
<svg xmlns="http://www.w3.org/2000/svg" xmlns:xlink="http://www.w3.org/1999/xlink" contentScriptType="text/ecmascript" zoomAndPan="magnify" baseProfile="tiny" contentStyleType="text/css" version="1.1" width="93px" preserveAspectRatio="xMidYMid meet" viewBox="0 0 93 93" height="93px" x="0px" y="0px">
    <g>
        <path d="M 90.25 28.165 C 89.102 25.394001 86.423 23.603 83.423996 23.603 L 80.770996 23.603 L 80.771996 17.397001 C 80.769 13.327002 77.453995 10.015001 73.38 10.010001 L 53.285995 10.011002 C 50.115997 10.011002 47.413994 12.023002 46.365997 14.832002 C 45.182 12.002002 42.385998 10.009002 39.134 10.009002 L 15.621 10.009002 C 11.298 10.009002 7.7840004 13.525002 7.7840004 17.846 L 7.7840004 41.358 C 7.7840004 43.493 8.64 45.43 10.028 46.844 C 8.639999 48.260002 7.784 50.198 7.784 52.33 L 7.784 75.843 C 7.784 80.166 11.298 83.681 15.621 83.681 L 39.134003 83.681 C 41.693 83.681 43.974003 82.446 45.404003 80.541 C 46.834003 82.445 49.115 83.681 51.675003 83.681 L 75.188 83.681 C 79.51 83.681 83.025 80.166 83.025 75.843 L 83.025 52.332 C 83.025 49.491 81.502 47.008 79.236 45.635002 L 88.65 36.218002 C 90.766 34.101 91.397 30.942 90.25 28.165 z " fill-opacity="0.5" stroke-opacity="0.5"/>
        <path d="M 68.563 58.398 L 75.153 51.808 L 75.19 51.808 C 76.632 51.808 77.802 52.976997 77.802 54.420998 L 77.802 77.933 C 77.802 79.377 76.632 80.546 75.19 80.546 L 51.677 80.546 C 50.232 80.546 49.065 79.377 49.065 77.933 L 49.065 54.422 C 49.065 53.026 50.16 51.898003 51.534 51.825 L 58.108 58.398003 C 59.501003 59.792004 61.354 60.561005 63.328003 60.563004 L 63.336002 60.563004 L 63.349003 60.563004 C 65.313 60.562 67.164 59.794 68.563 58.398 z M 39.135 51.809 L 15.623 51.809 C 14.178 51.809 13.01 52.977997 13.01 54.421997 L 13.01 77.934 C 13.01 79.378 14.178 80.547 15.623 80.547 L 39.135 80.547 C 40.578 80.547 41.747997 79.378 41.747997 77.934 L 41.747997 54.422 C 41.748 52.979 40.579 51.809 39.135 51.809 z M 36.42 30.246 C 37.369 27.957 39.379997 26.35 41.75 25.862 L 41.75 19.935999 C 41.75 18.494 40.581 17.324 39.137 17.324 L 15.625 17.324 C 14.18 17.324 13.012 18.494 13.012 19.935999 L 13.012 43.448997 C 13.012 44.893997 14.179 46.060997 15.625 46.060997 L 39.137 46.060997 C 40.58 46.060997 41.75 44.893997 41.75 43.448997 L 41.75 42.037 L 38.022 38.309998 C 35.895 36.183 35.266 33.019 36.42 30.246 z "/>
        <path d="M 75.547 19.491 L 75.546 30.917 L 83.424995 30.917 C 84.300995 30.917 85.09 31.445 85.425995 32.254 C 85.757996 33.063004 85.576 33.993 84.954994 34.615 L 64.868 54.705 C 64.46 55.112003 63.909996 55.339 63.334995 55.34 C 62.759995 55.339 62.208996 55.111 61.800995 54.705 L 41.712 34.617 C 41.092003 33.996002 40.905003 33.065002 41.241 32.255 C 41.577 31.446001 42.366 30.920002 43.242 30.918001 L 51.121002 30.918001 L 51.121002 19.492 C 51.121002 18.297 52.091003 17.327 53.287003 17.327 L 73.378006 17.327 C 74.574 17.324 75.546 18.297 75.547 19.491 z "/>
        <linearGradient x1="28.605" gradientTransform="matrix(1 0 0 1 16.7998 656.5898)" y1="-641.3555" x2="28.605" gradientUnits="userSpaceOnUse" y2="-578.1328" xlink:type="simple" xlink:actuate="onLoad" id="SVGID_1_" xlink:show="other">
            <stop stop-color="#ffcf76" offset="0"/>
            <stop stop-color="#ba6d29" offset="1"/>
        </linearGradient>
        <path fill="url(#SVGID_1_)" d="M 68.561 56.309 L 75.152 49.719997 L 75.189 49.719997 C 76.631004 49.719997 77.801 50.886997 77.801 52.331997 L 77.801 75.845 C 77.801 77.287 76.631004 78.457 75.189 78.457 L 51.676 78.457 C 50.231 78.457 49.064 77.287 49.064 75.845 L 49.064 52.332 C 49.064 50.936 50.159 49.807 51.533 49.734 L 58.107002 56.308002 C 59.499 57.702003 61.353 58.47 63.326004 58.472004 L 63.336002 58.472004 L 63.347004 58.472004 C 65.313 58.471 67.162 57.704 68.561 56.309 z M 39.135 49.72 L 15.622 49.72 C 14.177 49.72 13.01 50.887 13.01 52.332 L 13.01 75.845 C 13.01 77.287 14.177 78.457 15.622 78.457 L 39.135002 78.457 C 40.578003 78.457 41.747 77.287 41.747 75.845 L 41.747 52.332 C 41.747 50.889 40.578 49.72 39.135 49.72 z M 36.419 28.156 C 37.368 25.867 39.378998 24.26 41.749 23.772 L 41.749 17.847 C 41.749 16.404 40.58 15.234 39.136 15.234 L 15.624 15.234 C 14.179 15.234 13.011 16.403 13.011 17.847 L 13.011 41.359 C 13.011 42.804 14.179 43.972 15.624 43.972 L 39.135998 43.972 C 40.579 43.972 41.748997 42.805 41.748997 41.359 L 41.748997 39.947002 L 38.020996 36.22 C 35.894 34.094 35.265 30.929 36.419 28.156 z "/>
        <linearGradient x1="46.5317" gradientTransform="matrix(1 0 0 1 16.7998 656.5898)" y1="-641.3535" x2="46.5317" gradientUnits="userSpaceOnUse" y2="-603.3379" xlink:type="simple" xlink:actuate="onLoad" id="SVGID_2_" xlink:show="other">
            <stop stop-color="#ecefb4" offset="0"/>
            <stop stop-color="#7ea53f" offset="1"/>
        </linearGradient>
        <path fill="url(#SVGID_2_)" d="M 75.546 17.401 L 75.545 28.828 L 83.423996 28.828 C 84.299995 28.828 85.089 29.355 85.424995 30.164999 C 85.756 30.973 85.575 31.904 84.953995 32.526 L 64.866 52.616 C 64.458 53.023003 63.909996 53.251 63.333996 53.252003 C 62.758995 53.251003 62.207996 53.022003 61.799995 52.616 L 41.711 32.527 C 41.091 31.905 40.904 30.975 41.240997 30.165 C 41.575996 29.355001 42.364998 28.829 43.241997 28.828001 L 51.119995 28.828001 L 51.119995 17.402 C 51.119995 16.207 52.090996 15.236 53.286995 15.236 L 73.377 15.236 C 74.574 15.234 75.545 16.207 75.546 17.401 z "/>
    </g>
</svg>
