<?xml version="1.0" encoding="UTF-8"?>
<svg xmlns="http://www.w3.org/2000/svg" xmlns:xlink="http://www.w3.org/1999/xlink" contentScriptType="text/ecmascript" zoomAndPan="magnify" baseProfile="tiny" contentStyleType="text/css" version="1.1" width="88px" preserveAspectRatio="xMidYMid meet" viewBox="0 0 88 88" height="88px" x="0px" y="0px">
    <g>
        <path d="M 45.057 75.866 C 44.906998 75.866 44.753998 75.861 44.600998 75.852 C 41.802998 75.712 39.340996 74.132996 38.045998 71.681 C 37.673996 71.283 35.492996 69.294 28.942997 69.294 C 21.551998 69.294 19.086998 71.875 18.818996 72.183 C 17.384996 74.435 14.842997 75.837 12.152996 75.837 C 11.444996 75.837 10.740996 75.741 10.060996 75.553 C 6.654996 74.603004 4.280996 71.492004 4.280996 67.988 L 4.280996 28.575 C 4.280996 27.465 4.509996 26.388 4.958996 25.375 C 5.469996 24.227 10.468996 14.133 28.211996 14.133 C 35.770996 14.133 41.128 15.959001 44.799995 18.083 C 48.333996 15.950001 53.550995 14.133 61.054993 14.133 C 78.326996 14.133 84.12399 23.665 84.72699 24.752 C 85.37699 25.928001 85.71699 27.247002 85.71699 28.576 L 85.71699 67.989 C 85.71699 71.681 83.095985 74.922 79.485985 75.692 C 78.943985 75.806 78.39398 75.864 77.84199 75.864 C 74.942986 75.864 72.264984 74.248 70.903984 71.714 C 70.583984 71.354 68.45198 69.296 61.785984 69.296 C 54.624985 69.296 52.059982 71.748 51.681984 72.159 C 50.265 74.448 47.756 75.865 45.057 75.866 L 45.057 75.866 z " fill-opacity="0.5"/>
        <path d="M 65.943 47.624 C 66.133 48.276 66.227 48.97 66.227 49.703 C 66.227 50.437 66.132996 51.131 65.943 51.782997 C 65.752 52.434 65.474 53.005997 65.108 53.495 C 64.741005 53.983997 64.285 54.371 63.742 54.656 C 63.196 54.940998 62.573 55.084 61.867 55.084 C 61.16 55.084 60.535 54.940998 59.991 54.656 C 59.448 54.371 58.992 53.982998 58.625 53.495 C 58.259 53.006 57.979 52.434 57.789 51.782997 C 57.598 51.130997 57.505 50.436996 57.505 49.702995 C 57.505 48.969994 57.600002 48.275993 57.789 47.623997 C 57.979 46.972996 58.259003 46.401997 58.625 45.910995 C 58.992 45.421997 59.448 45.035995 59.991 44.750996 C 60.535 44.465996 61.16 44.322994 61.867 44.322994 C 62.573 44.322994 63.198 44.465996 63.742 44.750996 C 64.285 45.035995 64.741 45.423996 65.108 45.910995 C 65.475 46.402 65.752 46.973 65.943 47.624 z M 80.469 30.675 L 80.469 70.088 C 80.469 71.327995 79.603004 72.398994 78.391 72.657 C 78.206 72.696 78.023 72.713 77.844 72.713 C 76.840004 72.713 75.906 72.137 75.469 71.202995 C 75.317 70.909996 72.685005 66.144 61.787003 66.144 C 50.511 66.144 47.323 71.312 47.295002 71.364 C 46.813004 72.234 45.927002 72.779 44.883003 72.711 C 43.891003 72.668 43.006004 72.064995 42.602005 71.155 C 42.523006 71.002 39.947006 66.144 28.943005 66.144 C 17.747005 66.144 14.558004 71.190994 14.428004 71.405 C 13.818005 72.412 12.600004 72.909996 11.465004 72.595 C 10.330004 72.278 9.532004 71.266 9.532004 70.088 L 9.532004 30.675 C 9.532004 30.309 9.608005 29.946 9.758004 29.609999 C 9.906004 29.277998 13.542004 21.482998 28.214005 21.482998 C 37.151005 21.482998 42.249004 24.360998 44.889004 26.650997 C 47.361004 24.324997 52.197002 21.482998 61.056004 21.482998 C 75.574005 21.482998 79.96001 29.078999 80.14101 29.401999 C 80.355 29.792 80.469 30.231 80.469 30.675 z M 40.138 58.102 C 40.138 57.858 40.123 57.620003 40.097 57.389 C 40.07 57.158 40.022 56.886 39.954 56.572998 C 39.886997 56.260998 39.791 55.900997 39.669 55.494 C 39.546997 55.086 39.377 54.598 39.16 54.027 L 32.799 36.862 C 32.5 36.048 32.202 35.279 31.903 34.559 C 31.604 33.837997 31.251 33.206997 30.842 32.664997 C 30.433998 32.12 29.938 31.683996 29.353998 31.358997 C 28.767998 31.031998 28.055998 30.869997 27.212997 30.869997 C 26.397997 30.869997 25.703997 31.031998 25.134998 31.358997 C 24.564 31.684998 24.073997 32.121 23.666998 32.664997 C 23.258999 33.206997 22.904999 33.837997 22.606998 34.559 C 22.307999 35.28 22.008999 36.047997 21.710999 36.862 L 15.349998 54.027 C 15.131998 54.597 14.963999 55.087 14.840999 55.494 C 14.718999 55.902 14.623999 56.262 14.555999 56.572998 C 14.488998 56.885998 14.440999 57.158997 14.412999 57.389 C 14.385999 57.618 14.371999 57.857 14.371999 58.102 C 14.371999 58.918 14.663999 59.569 15.248999 60.059002 C 15.832998 60.548 16.600998 60.793003 17.550999 60.793003 C 18.095 60.793003 18.550999 60.711002 18.916998 60.548004 C 19.283998 60.385006 19.596998 60.160004 19.854998 59.874004 C 20.111998 59.590004 20.329998 59.250004 20.506998 58.855003 C 20.682999 58.460003 20.852999 58.034004 21.015999 57.571003 L 21.831 54.962 L 32.674 54.962 L 33.489 57.571003 C 33.651997 58.033005 33.822 58.461002 33.997997 58.855003 C 34.174995 59.250004 34.392 59.588005 34.650997 59.874004 C 34.907997 60.159004 35.220997 60.384003 35.588997 60.548004 C 35.955997 60.712006 36.409996 60.793003 36.954998 60.793003 C 37.905 60.793003 38.674 60.548004 39.256996 60.059002 C 39.844 59.568 40.138 58.919 40.138 58.102 z M 46.05 31.195 C 46.05 30.614 45.579998 30.145 45.0 30.145 C 44.420002 30.145 43.951 30.615 43.951 31.195 L 43.951 65.733 C 43.951 66.313 44.420002 66.782005 45.0 66.782005 C 45.579998 66.782005 46.05 66.313 46.05 65.733 L 46.05 31.195 z M 72.589 41.917 C 72.589 40.993 72.298 40.211998 71.713 39.572998 C 71.127 38.934998 70.36 38.614998 69.409996 38.614998 C 68.620995 38.614998 67.982994 38.834 67.493 39.267 C 67.005 39.702 66.649994 40.163998 66.432 40.651997 C 65.726 39.781998 64.946 39.157997 64.088 38.776997 C 63.232998 38.397995 62.191998 38.205997 60.968998 38.205997 C 59.584 38.205997 58.290997 38.504997 57.096996 39.102997 C 55.901997 39.699997 54.861996 40.515995 53.977997 41.548996 C 53.093998 42.580997 52.400997 43.798996 51.899998 45.197994 C 51.395996 46.596992 51.144997 48.097996 51.144997 49.701996 C 51.144997 51.305996 51.395996 52.807995 51.899998 54.206997 C 52.402996 55.607 53.095997 56.823997 53.977997 57.855995 C 54.861996 58.888996 55.901997 59.705994 57.096996 60.300995 C 58.293 60.9 59.585 61.2 60.97 61.2 C 62.194 61.2 63.233 61.009 64.089005 60.63 C 64.94601 60.25 65.728004 59.624 66.43301 58.755 C 66.65101 59.244 67.005005 59.706 67.494 60.14 C 67.984 60.573997 68.622 60.793 69.411 60.793 C 70.361 60.793 71.130005 60.472 71.714005 59.834 C 72.299 59.196 72.590004 58.413 72.590004 57.489998 L 72.590004 41.917 z M 27.336 38.207 L 23.79 48.848 L 30.721 48.848 L 27.417 38.207 L 27.336 38.207 z "/>
        <linearGradient x1="36.6006" gradientTransform="matrix(1 0 0 -1 8.3999 64.1602)" y1="44.7773" x2="36.6006" gradientUnits="userSpaceOnUse" y2="-6.4565" xlink:type="simple" xlink:actuate="onLoad" id="SVGID_1_" xlink:show="other">
            <stop stop-color="#f17ba9" offset="0"/>
            <stop stop-color="#b33464" offset="1"/>
        </linearGradient>
        <path fill="url(#SVGID_1_)" d="M 65.943 45.524 C 66.133 46.175 66.227 46.869 66.227 47.602997 C 66.227 48.336994 66.132996 49.031 65.943 49.681995 C 65.752 50.332996 65.474 50.905994 65.108 51.394997 C 64.741005 51.883995 64.285 52.270996 63.742 52.554996 C 63.196 52.839996 62.573 52.982998 61.867 52.982998 C 61.16 52.982998 60.535 52.839996 59.991 52.554996 C 59.448 52.270996 58.992 51.882996 58.625 51.394997 C 58.259 50.906 57.979 50.332996 57.789 49.681995 C 57.598 49.030994 57.505 48.336994 57.505 47.602997 C 57.505 46.869 57.600002 46.174995 57.789 45.524 C 57.979 44.872997 58.259003 44.302 58.625 43.810997 C 58.992 43.322 59.448 42.935997 59.991 42.649998 C 60.535 42.364998 61.16 42.221996 61.867 42.221996 C 62.573 42.221996 63.198 42.364998 63.742 42.649998 C 64.285 42.934998 64.741 43.322998 65.108 43.810997 C 65.475 44.303 65.752 44.873 65.943 45.524 z M 80.469 28.575 L 80.469 67.988 C 80.469 69.227 79.603004 70.298996 78.391 70.556 C 78.206 70.595 78.023 70.613 77.844 70.613 C 76.840004 70.613 75.906 70.037 75.469 69.102 C 75.317 68.81 72.685005 64.044 61.787003 64.044 C 50.511 64.044 47.323 69.212 47.295002 69.263 C 46.813004 70.134 45.927002 70.678 44.883003 70.611 C 43.891003 70.568 43.006004 69.965 42.602005 69.055 C 42.523006 68.902 39.947006 64.044 28.943005 64.044 C 17.747005 64.044 14.558004 69.090996 14.428004 69.304 C 13.818005 70.311005 12.600004 70.81 11.465004 70.494 C 10.330004 70.178 9.532004 69.165 9.532004 67.98801 L 9.532004 28.575 C 9.532004 28.209002 9.608005 27.846 9.758004 27.51 C 9.906004 27.178 13.542004 19.383 28.214005 19.383 C 37.151005 19.383 42.249004 22.261 44.889004 24.550999 C 47.361004 22.224998 52.197002 19.383 61.056004 19.383 C 75.574005 19.383 79.96001 26.979 80.14101 27.302 C 80.355 27.691 80.469 28.131 80.469 28.575 z M 40.138 56.001 C 40.138 55.758 40.123 55.52 40.097 55.288998 C 40.07 55.057 40.022 54.784996 39.954 54.473 C 39.886997 54.161 39.791 53.8 39.669 53.392998 C 39.546997 52.984997 39.377 52.496998 39.16 51.927 L 32.799 34.761997 C 32.5 33.947998 32.202 33.178997 31.903 32.458996 C 31.604 31.737995 31.251 31.106997 30.842 30.564995 C 30.433998 30.019995 29.938 29.583994 29.353998 29.258995 C 28.767998 28.931995 28.055998 28.769995 27.212997 28.769995 C 26.397997 28.769995 25.703997 28.931995 25.134998 29.258995 C 24.564 29.584995 24.073997 30.020994 23.666998 30.564995 C 23.258999 31.106995 22.904999 31.737995 22.606998 32.458996 C 22.307999 33.179996 22.008999 33.947994 21.710999 34.761997 L 15.349998 51.927 C 15.131998 52.496998 14.963999 52.986 14.840999 53.392998 C 14.718999 53.801 14.623999 54.162 14.555999 54.473 C 14.488998 54.786 14.440999 55.058 14.412999 55.289 C 14.385999 55.518 14.371999 55.757 14.371999 56.001003 C 14.371999 56.817 14.663999 57.469 15.248999 57.959003 C 15.832998 58.448 16.600998 58.693005 17.550999 58.693005 C 18.095 58.693005 18.550999 58.611004 18.916998 58.448006 C 19.283998 58.285007 19.596998 58.060005 19.854998 57.774006 C 20.111998 57.490005 20.329998 57.149006 20.506998 56.754005 C 20.682999 56.360004 20.852999 55.933006 21.015999 55.471004 L 21.831 52.861004 L 32.674 52.861004 L 33.489 55.471004 C 33.651997 55.932003 33.822 56.361004 33.997997 56.754005 C 34.174995 57.149006 34.392 57.488007 34.650997 57.774006 C 34.907997 58.059006 35.220997 58.284004 35.588997 58.448006 C 35.955997 58.612007 36.409996 58.693005 36.954998 58.693005 C 37.905 58.693005 38.674 58.448006 39.256996 57.959003 C 39.844 57.469 40.138 56.818 40.138 56.001 z M 46.05 29.095 C 46.05 28.514 45.579998 28.045 45.0 28.045 C 44.420002 28.045 43.951 28.514 43.951 29.095 L 43.951 63.634003 C 43.951 64.214005 44.420002 64.68301 45.0 64.68301 C 45.579998 64.68301 46.05 64.214005 46.05 63.634007 L 46.05 29.095 z M 72.589 39.817 C 72.589 38.893 72.298 38.111 71.713 37.473 C 71.127 36.835 70.36 36.515 69.409996 36.515 C 68.620995 36.515 67.982994 36.732998 67.493 37.167 C 67.005 37.602 66.649994 38.064 66.432 38.552 C 65.726 37.682 64.946 37.058 64.088 36.677 C 63.232998 36.297997 62.191998 36.106 60.968998 36.106 C 59.584 36.106 58.290997 36.405 57.096996 37.003 C 55.901997 37.6 54.861996 38.415997 53.977997 39.448997 C 53.093998 40.481 52.400997 41.698997 51.899998 43.097996 C 51.395996 44.496994 51.144997 45.998997 51.144997 47.601997 C 51.144997 49.204998 51.395996 50.706997 51.899998 52.107 C 52.402996 53.507 53.095997 54.723 53.977997 55.755997 C 54.861996 56.788998 55.901997 57.605995 57.096996 58.200996 C 58.291996 58.798996 59.583996 59.097996 60.968998 59.097996 C 62.192997 59.097996 63.232 58.905994 64.088 58.527996 C 64.945 58.146996 65.727 57.521996 66.432 56.651997 C 66.65 57.140995 67.004 57.603996 67.493 58.038 C 67.982994 58.471996 68.620995 58.690998 69.409996 58.690998 C 70.35999 58.690998 71.129 58.37 71.713 57.732 C 72.298 57.093998 72.589 56.310997 72.589 55.387997 L 72.589 39.817 z M 27.336 36.107 L 23.79 46.746998 L 30.721 46.746998 L 27.417 36.107 L 27.336 36.107 z "/>
    </g>
</svg>
