<?xml version="1.0" encoding="UTF-8"?>
<svg xmlns="http://www.w3.org/2000/svg" xmlns:xlink="http://www.w3.org/1999/xlink" contentScriptType="text/ecmascript" zoomAndPan="magnify" baseProfile="tiny" contentStyleType="text/css" version="1.1" width="94.484px" preserveAspectRatio="xMidYMid meet" viewBox="0 0 94.484 84.119" height="84.119px" x="0px" y="0px">
    <path d="M 21.835 77.414 C 9.551999 77.414 -0.07100105 70.291 -0.07100105 61.196 C -0.07100105 52.1 9.551999 44.975 21.835 44.975 C 24.322998 44.975 26.782 45.288 29.100998 45.882 L 24.540998 18.018 C 24.255999 16.265999 24.748999 14.49 25.892998 13.142 C 27.040998 11.788 28.718998 11.014 30.495998 11.014 L 65.54 11.014 C 67.446 11.014 69.261 11.927 70.391 13.452 C 71.525 14.988 71.868 16.986 71.315 18.800999 L 65.94 36.741 C 65.174 39.265 62.898003 40.989002 60.264004 41.032 L 40.548004 41.048 C 43.745003 60.116 43.745003 60.864998 43.745003 61.195 C 43.745 70.291 34.122 77.414 21.835 77.414 L 21.835 77.414 z M 92.469 22.994 C 91.47 21.646 89.865005 20.842 88.188 20.842 L 70.699 20.842 L 65.937 36.743 C 65.182 39.241 62.942997 40.945 60.345997 41.026 L 61.039997 45.276 C 59.788 45.054 58.491997 44.942 57.169 44.942 C 50.587997 44.942 45.032997 47.709 42.333 51.811 C 43.743 60.436 43.745 60.945 43.745 61.196 C 43.745 62.330997 43.594997 63.43 43.309998 64.492 C 46.253 67.870995 51.309998 70.055 57.167 70.055 C 66.477 70.055 73.766 64.54 73.766 57.498 C 73.766 57.162003 73.766 56.671 71.686 44.245003 L 84.453995 44.236004 C 86.77899 44.200005 88.797 42.674004 89.47299 40.444004 L 93.28499 27.718004 C 93.775 26.116 93.471 24.353 92.469 22.994 z " fill-opacity="0.5"/>
    <g>
        <path d="M 59.002 25.105 C 60.002 23.93 61.452 23.26 62.989 23.26 L 66.538 23.26 L 67.444 20.231 C 67.664 19.511002 67.53 18.732 67.08 18.123001 C 66.635 17.519001 65.925 17.165 65.171005 17.165 L 30.811 17.165 C 30.113 17.165 29.447 17.472 28.996 18.002 C 28.545 18.532001 28.355 19.233002 28.465 19.923 L 33.949 53.418 C 30.817001 51.572998 26.763 50.457 22.323002 50.457 C 12.419002 50.457 4.385002 55.992 4.385002 62.821 C 4.385002 69.652 12.418002 75.183 22.323002 75.183 C 32.231003 75.183 40.264 69.649 40.264 62.821 C 40.264 61.954 36.488 39.528 36.488 39.528 L 59.499 39.515 L 57.835 29.321999 C 57.587 27.809 58.013 26.274 59.002 25.105 z "/>
    </g>
    <path d="M 88.729 27.477 C 88.412994 27.05 87.909 26.797998 87.37399 26.797998 L 62.989 26.797998 C 62.493 26.797998 62.022 27.013998 61.702 27.391998 C 61.383 27.766998 61.244 28.265999 61.324 28.755999 L 65.214005 52.524998 C 62.992004 51.217 60.114006 50.422997 56.964005 50.422997 C 49.935005 50.422997 44.235004 54.351997 44.235004 59.197 C 44.235004 64.042 49.933006 67.968 56.964005 67.968 C 63.996006 67.968 69.69701 64.042 69.69701 59.197002 C 69.69701 58.583004 67.01601 42.669003 67.01601 42.669003 L 83.657005 42.657 C 84.38801 42.644 85.031006 42.165 85.244 41.462 L 88.983 28.967003 C 89.142 28.461 89.048 27.907 88.729 27.477 z "/>
    <g>
        <linearGradient x1="2.3665" gradientTransform="matrix(1 0 0 1 33.5996 -1513.1211)" y1="1528.3262" x2="2.3665" gradientUnits="userSpaceOnUse" y2="1586.3438" xlink:type="simple" xlink:actuate="onLoad" id="SVGID_1_" xlink:show="other">
            <stop stop-color="#ff7bac" offset="0"/>
            <stop stop-color="#b33464" offset="1"/>
        </linearGradient>
        <path fill="url(#SVGID_1_)" d="M 59.002 23.146 C 60.002 21.971 61.452 21.301 62.989 21.301 L 66.538 21.301 L 67.444 18.272001 C 67.664 17.552002 67.53 16.773 67.08 16.164001 C 66.635 15.560001 65.925 15.206001 65.171005 15.206001 L 30.811 15.206001 C 30.113 15.206001 29.447 15.513001 28.996 16.043001 C 28.545 16.573002 28.355 17.274002 28.465 17.964 L 33.949 51.458 C 30.817001 49.614 26.763 48.498 22.323002 48.498 C 12.419002 48.498 4.385002 54.033 4.385002 60.862 C 4.385002 67.693 12.418002 73.223 22.323002 73.223 C 32.231003 73.223 40.264 67.69 40.264 60.862 C 40.264 59.995 36.488 37.569 36.488 37.569 L 59.499 37.556 L 57.835 27.362999 C 57.587 25.849 58.013 24.314 59.002 23.146 z "/>
    </g>
    <linearGradient x1="33.0471" gradientTransform="matrix(1 0 0 1 33.5996 -1513.1211)" y1="1537.959" x2="33.0471" gradientUnits="userSpaceOnUse" y2="1579.1299" xlink:type="simple" xlink:actuate="onLoad" id="SVGID_2_" xlink:show="other">
        <stop stop-color="#47e6eb" offset="0"/>
        <stop stop-color="#007cba" offset="1"/>
    </linearGradient>
    <path fill="url(#SVGID_2_)" d="M 88.729 25.517 C 88.412994 25.09 87.909 24.838 87.37399 24.838 L 62.989 24.838 C 62.493 24.838 62.022 25.053 61.702 25.432 C 61.383 25.807 61.244 26.307 61.324 26.796999 L 65.214005 50.565998 C 62.992004 49.258 60.114006 48.463997 56.964005 48.463997 C 49.935005 48.463997 44.235004 52.392998 44.235004 57.238 C 44.235004 62.083 49.933006 66.009 56.964005 66.009 C 63.996006 66.009 69.69701 62.083004 69.69701 57.238003 C 69.69701 56.624004 67.01601 40.709003 67.01601 40.709003 L 83.657005 40.698 C 84.38801 40.685 85.031006 40.206 85.244 39.503002 L 88.983 27.009003 C 89.142 26.501 89.048 25.947 88.729 25.517 z "/>
</svg>
