<?xml version="1.0" encoding="UTF-8"?>
<svg xmlns="http://www.w3.org/2000/svg" xmlns:xlink="http://www.w3.org/1999/xlink" contentScriptType="text/ecmascript" zoomAndPan="magnify" baseProfile="tiny" contentStyleType="text/css" version="1.1" width="93px" preserveAspectRatio="xMidYMid meet" viewBox="0 0 93 93" height="93px" x="0px" y="0px">
    <g>
        <path d="M 83.172 60.671 L 81.42799 60.671 L 81.42799 58.928 C 81.42799 56.826 80.30499 54.857002 78.482994 53.779 C 77.564995 53.239 76.518 52.954 75.45599 52.954 C 74.783 52.954 74.11199 53.067997 73.480995 53.288998 C 73.94199 52.434998 74.199 51.462997 74.201 50.454 C 74.201 48.289997 73.028 46.291 71.148994 45.243 L 65.62799 42.142 L 65.62799 14.924 C 65.62799 9.41 61.14199 4.924 55.62799 4.924 L 16.12799 4.924 C 10.611991 4.924 6.1279907 9.41 6.1279907 14.924 L 6.1279907 76.923996 C 6.1279907 82.439995 10.611991 86.923996 16.12799 86.923996 L 55.62799 86.923996 C 58.37199 86.923996 60.85699 85.814995 62.666992 84.02 L 72.520996 89.550995 C 73.41499 90.05499 74.426994 90.32099 75.453995 90.32099 C 76.507996 90.32099 77.548996 90.04099 78.479996 89.49799 C 80.298 88.43099 81.42899 86.453995 81.42899 84.34699 L 81.42899 82.64499 L 83.16899 82.64699 C 84.74099 82.64699 86.22999 82.040985 87.35499 80.93999 C 88.49499 79.82499 89.14799 78.26699 89.14799 76.66899 L 89.14799 66.648 C 89.147 63.352 86.467 60.671 83.172 60.671 z " fill-opacity="0.5" stroke-opacity="0.5"/>
        <path fill="none" d="M 42.627 70.424 L 42.627 72.924 C 42.627 74.028 43.523 74.924 44.627 74.924 L 47.773 74.924 C 47.107 73.94701 46.722 72.787 46.722 71.57001 C 46.726 70.561005 46.98 69.59101 47.441 68.73501 C 46.81 68.95601 46.142002 69.07001 45.47 69.07001 C 44.816 69.07001 44.173 68.950005 43.558002 68.741005 C 43.0 69.094 42.627 69.714 42.627 70.424 z "/>
        <path fill="none" d="M 27.127 68.424 L 22.127 68.424 C 21.023 68.424 20.127 69.32001 20.127 70.424 L 20.127 72.924 C 20.127 74.028 21.023 74.924 22.127 74.924 L 27.127 74.924 C 28.231 74.924 29.127 74.028 29.127 72.924 L 29.127 70.424 C 29.127 69.32 28.231 68.424 27.127 68.424 z "/>
        <path fill="none" d="M 49.627 18.924 L 22.126999 18.924 C 21.022999 18.924 20.126999 19.82 20.126999 20.924 L 20.126999 60.424 C 20.126999 61.528 21.022999 62.424 22.126999 62.424 L 39.491997 62.424 L 39.491997 61.350998 L 38.083996 61.350998 C 34.784996 61.350998 32.104996 58.668 32.104996 55.371998 L 32.104996 45.351997 C 32.104996 43.767998 32.750996 42.217 33.879997 41.101997 C 35.004997 39.989998 36.495 39.373997 38.082996 39.373997 L 39.488995 39.392 L 39.488995 37.674 C 39.488995 35.558 40.627995 33.578 42.453995 32.512 C 43.361996 31.983002 44.406994 31.699001 45.467995 31.699001 C 46.488995 31.699001 47.498993 31.964 48.393993 32.464 L 51.622993 34.278 L 51.622993 20.924 C 51.627 19.82 50.731 18.924 49.627 18.924 z "/>
        <path fill="none" d="M 38.377 68.424 L 33.377 68.424 C 32.273 68.424 31.376999 69.32001 31.376999 70.424 L 31.376999 72.924 C 31.376999 74.028 32.273 74.924 33.377 74.924 L 38.377 74.924 C 39.481 74.924 40.377 74.028 40.377 72.924 L 40.377 70.424 C 40.377 69.32 39.481 68.424 38.377 68.424 z "/>
        <path d="M 47.906 77.221 L 44.76 77.221 C 43.656 77.221 42.76 76.325 42.76 75.221 L 42.76 72.721 C 42.76 72.009 43.133 71.391 43.691998 71.033 C 43.298996 70.899994 42.919 70.739 42.557 70.52599 C 40.758 69.467995 39.627 67.495995 39.627 65.383995 L 39.627 64.715996 L 22.261 64.715996 C 21.157 64.715996 20.261 63.819996 20.261 62.715996 L 20.261 23.215996 C 20.261 22.111996 21.157 21.215996 22.261 21.215996 L 49.761 21.215996 C 50.865 21.215996 51.761 22.111996 51.761 23.215996 L 51.761 36.570995 L 60.761 41.623997 L 60.761 17.217 C 60.761 14.454999 58.523003 12.216999 55.761 12.216999 L 16.261002 12.216999 C 13.4990015 12.216999 11.261002 14.454999 11.261002 17.217 L 11.261002 79.216995 C 11.261002 81.980995 13.4990015 84.216995 16.261002 84.216995 L 55.761 84.216995 C 56.589 84.216995 57.359 83.995995 58.046 83.643 L 49.905003 79.073 C 49.092 78.614 48.418 77.971 47.906 77.221 z M 29.262 75.221 C 29.262 76.325 28.366 77.221 27.262 77.221 L 22.262 77.221 C 21.157999 77.221 20.262 76.325 20.262 75.221 L 20.262 72.721 C 20.262 71.617004 21.157999 70.721 22.262 70.721 L 27.262 70.721 C 28.366 70.721 29.262 71.617004 29.262 72.721 L 29.262 75.221 z M 40.512 75.221 C 40.512 76.325 39.616 77.221 38.512 77.221 L 33.512 77.221 C 32.408 77.221 31.512001 76.325 31.512001 75.221 L 31.512001 72.721 C 31.512001 71.617004 32.408 70.721 33.512 70.721 L 38.512 70.721 C 39.616 70.721 40.512 71.617004 40.512 72.721 L 40.512 75.221 z "/>
        <path d="M 46.08 66.241 C 45.775 66.409 45.406002 66.405 45.109 66.228 C 44.81 66.051994 44.629 65.73399 44.629 65.38699 L 44.629 58.644993 L 38.219 58.644993 C 37.68 58.644993 37.24 58.206993 37.24 57.665993 L 37.24 47.645992 C 37.24 47.38499 37.345 47.13399 37.531002 46.950993 C 37.719 46.76599 37.972004 46.666992 38.232002 46.672993 L 44.628002 46.745995 L 44.628002 39.972996 C 44.628002 39.623997 44.812 39.304996 45.11 39.127995 C 45.41 38.952995 45.778 38.948994 46.083 39.118996 L 68.835 51.892998 C 69.144 52.065998 69.333 52.392 69.333 52.745 L 69.333 52.746998 C 69.333 53.100998 69.14 53.427 68.831 53.6 L 46.08 66.241 z M 76.08 87.482 C 76.379005 87.306 76.562004 86.985 76.562004 86.638 L 76.562004 79.93 L 83.289 79.939 C 83.553 79.943 83.805 79.840004 83.99 79.66 C 84.178 79.476006 84.281 79.225006 84.281 78.963005 L 84.281 68.943 C 84.281 68.404 83.845 67.965004 83.304 67.965004 L 76.562004 67.965004 L 76.560005 61.224003 C 76.560005 60.876003 76.37601 60.558002 76.08101 60.38 C 75.782005 60.204002 75.41501 60.2 75.11001 60.368 L 52.35801 73.008 C 52.04901 73.18301 51.85601 73.506004 51.854008 73.862 L 51.854008 73.863 C 51.854008 74.215996 52.04501 74.541 52.354008 74.714 L 75.107 87.49 C 75.41 87.66 75.778 87.657 76.08 87.482 z "/>
        <linearGradient x1="19.0771" gradientTransform="matrix(1 0 0 1 16.7998 656.5898)" y1="-646.668" x2="19.0771" gradientUnits="userSpaceOnUse" y2="-574.668" xlink:type="simple" xlink:actuate="onLoad" id="SVGID_1_" xlink:show="other">
            <stop stop-color="#47e6eb" offset="0"/>
            <stop stop-color="#007cba" offset="1"/>
        </linearGradient>
        <path fill="url(#SVGID_1_)" d="M 47.772 74.924 L 44.626 74.924 C 43.522 74.924 42.626 74.028 42.626 72.924 L 42.626 70.424 C 42.626 69.714005 42.999 69.094 43.558 68.73801 C 43.164997 68.605 42.782997 68.44401 42.423 68.231 C 40.624 67.173004 39.491 65.201004 39.491 63.088 L 39.491 62.421 L 22.127 62.421 C 21.023 62.421 20.127 61.525 20.127 60.421 L 20.127 20.921001 C 20.127 19.817001 21.023 18.921001 22.127 18.921001 L 49.627 18.921001 C 50.731 18.921001 51.627 19.817001 51.627 20.921001 L 51.627 34.276 L 60.627 39.329002 L 60.627 14.922 C 60.627 12.16 58.389 9.922 55.627 9.922 L 16.126999 9.922 C 13.362999 9.922 11.126999 12.16 11.126999 14.922 L 11.126999 76.922 C 11.126999 79.686 13.362999 81.922 16.126999 81.922 L 55.627 81.922 C 56.454998 81.922 57.225 81.701 57.912 81.348 L 49.771 76.778 C 48.957 76.317 48.281 75.674 47.772 74.924 z M 29.127 72.924 C 29.127 74.028 28.231 74.924 27.127 74.924 L 22.127 74.924 C 21.023 74.924 20.127 74.028 20.127 72.924 L 20.127 70.424 C 20.127 69.32001 21.023 68.424 22.127 68.424 L 27.127 68.424 C 28.231 68.424 29.127 69.32001 29.127 70.424 L 29.127 72.924 z M 40.377 72.924 C 40.377 74.028 39.481 74.924 38.377 74.924 L 33.377 74.924 C 32.273 74.924 31.376999 74.028 31.376999 72.924 L 31.376999 70.424 C 31.376999 69.32001 32.273 68.424 33.377 68.424 L 38.377 68.424 C 39.481 68.424 40.377 69.32001 40.377 70.424 L 40.377 72.924 z "/>
        <linearGradient x1="43.8267" gradientTransform="matrix(1 0 0 1 16.7998 656.5898)" y1="-619.8916" x2="43.8267" gradientUnits="userSpaceOnUse" y2="-571.271" xlink:type="simple" xlink:actuate="onLoad" id="SVGID_2_" xlink:show="other">
            <stop stop-color="#ff7bac" offset="0"/>
            <stop stop-color="#b33464" offset="1"/>
        </linearGradient>
        <path fill="url(#SVGID_2_)" d="M 45.944 63.944 C 45.641 64.112 45.272 64.108 44.975 63.931 C 44.676 63.754 44.493 63.437 44.493 63.088 L 44.493 56.348 L 38.085 56.348 C 37.545998 56.348 37.106 55.91 37.106 55.369 L 37.106 45.349 C 37.106 45.086 37.211 44.836 37.397 44.654 C 37.585 44.468998 37.838 44.37 38.098 44.374 L 44.493 44.449 L 44.493 37.674 C 44.493 37.327 44.679 37.006 44.977 36.831 C 45.275 36.656002 45.645 36.652 45.948 36.822002 L 68.7 49.598 C 69.010994 49.771 69.198 50.096 69.198 50.45 L 69.198 50.452 C 69.198 50.806 69.006996 51.13 68.696 51.303 L 45.944 63.944 z M 75.944 85.186 C 76.243004 85.007996 76.428 84.688995 76.428 84.340996 L 76.428 77.631 L 83.153 77.642 C 83.419 77.645996 83.671 77.543 83.856 77.363 C 84.04401 77.177 84.147 76.926 84.147 76.666 L 84.147 66.646 C 84.147 66.107 83.711006 65.66801 83.170006 65.66801 L 76.42801 65.66801 L 76.42601 58.925007 C 76.42601 58.579006 76.24201 58.259007 75.94601 58.083008 C 75.647 57.90701 75.28001 57.903008 74.977005 58.071007 L 52.225006 70.711006 C 51.916008 70.884 51.723007 71.20901 51.721004 71.565 L 51.721004 71.566 C 51.721004 71.919 51.912006 72.244 52.221004 72.417 L 74.97301 85.192 C 75.274 85.363 75.645 85.36 75.944 85.186 z "/>
    </g>
</svg>
