<?xml version="1.0" encoding="UTF-8"?>
<svg xmlns="http://www.w3.org/2000/svg" xmlns:xlink="http://www.w3.org/1999/xlink" contentScriptType="text/ecmascript" zoomAndPan="magnify" baseProfile="tiny" contentStyleType="text/css" version="1.1" width="93px" preserveAspectRatio="xMidYMid meet" viewBox="0 0 93 93" height="93px" x="0px" y="0px">
    <g>
        <path d="M 85.597 62.684 L 84.103 62.684 L 84.103 61.19 C 84.103 59.386997 83.138 57.698997 81.578 56.775 C 80.78999 56.312996 79.893 56.067997 78.98 56.067997 C 78.406 56.067997 77.83199 56.166996 77.29099 56.353996 C 77.688 55.620995 77.90599 54.789997 77.90599 53.923996 C 77.90599 52.069996 76.90199 50.358997 75.28999 49.455997 L 71.62999 47.400997 L 71.62999 29.952 C 71.62999 25.825 68.27499 22.471 64.14899 22.471 L 11.541 22.471 C 7.416001 22.471 4.0600004 25.825 4.0600004 29.952 L 4.0600004 66.128 C 4.0600004 70.252 7.416001 73.609 11.541 73.609 L 54.607 73.609 C 54.999 74.816 55.824 75.86 56.961 76.497 L 76.46 87.446 C 77.225 87.878 78.097 88.105 78.979 88.105 C 79.883 88.105 80.772995 87.866 81.574 87.398994 C 83.134 86.482 84.102 84.78999 84.102 82.982994 L 84.102 81.524994 L 85.591 81.52599 C 86.935 81.52599 88.209 81.007 89.182 80.063 C 90.160995 79.105 90.72 77.769 90.72 76.398994 L 90.72 67.80899 C 90.722 64.982 88.424 62.684 85.597 62.684 z " fill-opacity="0.5"/>
        <path d="M 48.149 66.474 L 48.149 64.983 L 46.939 64.983 C 44.113 64.983 41.814 62.683 41.814 59.858 L 41.814 51.265 C 41.814 51.096 41.822 50.925 41.839 50.754 L 38.972 52.723 C 38.633 52.958 38.24 53.074 37.845 53.074 C 37.449 53.074 37.055 52.959 36.715 52.725 L 31.576 49.196003 L 14.301 66.489 C 14.066999 66.721 13.757999 66.840996 13.453 66.840996 C 13.146 66.840996 12.84 66.725 12.606 66.489 C 12.139 66.021996 12.138 65.264 12.606 64.795 L 29.571 47.816 L 12.304 35.951 C 11.393 35.327 11.165 34.084 11.786 33.175 C 12.411 32.267 13.652 32.037 14.561001 32.66 L 37.846 48.658 L 61.128 32.661003 C 62.037 32.036003 63.279 32.267002 63.900997 33.176003 C 64.523994 34.086 64.295 35.329 63.382996 35.951004 L 56.54499 40.648003 L 67.33699 46.705 L 67.33699 31.661 C 67.33699 29.904 65.899994 28.466 64.14199 28.466 L 11.538 28.466 C 9.782 28.466 8.345 29.904 8.345 31.661 L 8.345 67.837 C 8.345 69.595 9.782001 71.031 11.538 71.031 L 50.959 71.031 C 50.859 70.976 50.753 70.933 50.655 70.875 C 49.122 69.981 48.149 68.286 48.149 66.474 z "/>
        <path d="M 53.681 67.206 C 53.421 67.35 53.107 67.346 52.85 67.193 C 52.594 67.043 52.438 66.771 52.438 66.471 L 52.438 60.692 L 46.94 60.692 C 46.479 60.692 46.104 60.317 46.104 59.853 L 46.104 51.262 C 46.104 51.037003 46.192 50.823 46.354 50.666 C 46.514 50.506 46.73 50.422 46.955 50.426 L 52.439003 50.49 L 52.439003 44.681 C 52.439003 44.384 52.596004 44.108 52.853004 43.958 C 53.111004 43.808 53.42701 43.806 53.686005 43.951 L 73.191 54.902 C 73.456 55.051 73.619 55.331 73.619 55.633 L 73.619 55.635 C 73.619 55.938 73.452 56.216 73.189 56.365 L 53.681 67.206 z M 79.401 85.418 C 79.657 85.265 79.816 84.991 79.816 84.693 L 79.816 78.94 L 85.582 78.948006 C 85.808 78.953 86.023 78.864006 86.185 78.70901 C 86.346 78.55101 86.434 78.33501 86.434 78.11101 L 86.434 69.52201 C 86.434 69.06101 86.059 68.683014 85.595 68.683014 L 79.817 68.683014 L 79.815 62.902016 C 79.815 62.606014 79.656006 62.330017 79.404 62.180016 C 79.147 62.029015 78.832 62.027016 78.572 62.169018 L 59.065 73.009 C 58.801 73.15501 58.634 73.434006 58.632 73.740005 L 58.632 73.741005 C 58.632 74.04401 58.795 74.32201 59.061 74.47 L 78.568 85.42301 C 78.828 85.57 79.144 85.567 79.401 85.418 z "/>
        <linearGradient x1="12.6421" gradientTransform="matrix(1 0 0 -1 25.1997 725.75)" y1="699" x2="12.6421" gradientUnits="userSpaceOnUse" y2="656.4365" xlink:type="simple" xlink:actuate="onLoad" id="SVGID_1_" xlink:show="other">
            <stop stop-color="#ffcf75" offset="0"/>
            <stop stop-color="#ba6b16" offset="1"/>
        </linearGradient>
        <path fill="url(#SVGID_1_)" d="M 48.149 64.76 L 48.149 63.268 L 46.939 63.268 C 44.113 63.268 41.814 60.969 41.814 58.142 L 41.814 49.55 C 41.814 49.379 41.822 49.211 41.839 49.04 L 38.972 51.009003 C 38.633 51.243004 38.24 51.360004 37.845 51.360004 C 37.449 51.360004 37.055 51.244003 36.715 51.011005 L 31.576 47.48201 L 14.301 64.774 C 14.066999 65.007 13.757999 65.125 13.453 65.125 C 13.146 65.125 12.84 65.008 12.606 64.774 C 12.139 64.307 12.138 63.549004 12.606 63.08 L 29.572 46.1 L 12.304 34.235 C 11.393 33.611 11.165 32.368 11.786 31.46 C 12.411 30.551 13.652 30.322 14.561001 30.945002 L 37.846 46.942 L 61.128 30.946 C 62.037 30.321 63.28 30.551 63.900997 31.461 C 64.526 32.371002 64.295 33.615 63.385 34.235 L 56.545 38.932 L 67.337 44.99 L 67.337 29.945 C 67.337 28.189 65.9 26.75 64.144 26.75 L 11.538 26.75 C 9.782 26.75 8.345 28.189 8.345 29.945 L 8.345 66.119 C 8.345 67.878006 9.782001 69.313 11.538 69.313 L 50.959 69.313 C 50.859 69.26 50.753 69.217 50.655 69.158005 C 49.122 68.267 48.149 66.571 48.149 64.76 z "/>
        <linearGradient x1="41.0698" gradientTransform="matrix(1 0 0 -1 25.1997 725.75)" y1="683.6191" x2="41.0698" gradientUnits="userSpaceOnUse" y2="641.9336" xlink:type="simple" xlink:actuate="onLoad" id="SVGID_2_" xlink:show="other">
            <stop stop-color="#ff7bac" offset="0"/>
            <stop stop-color="#b33464" offset="1"/>
        </linearGradient>
        <path fill="url(#SVGID_2_)" d="M 53.681 65.49 C 53.421 65.634995 53.107 65.631 52.85 65.479 C 52.594 65.326996 52.438 65.056 52.438 64.756 L 52.438 58.976997 L 46.94 58.976997 C 46.479 58.976997 46.104 58.6 46.104 58.137997 L 46.104 49.546 C 46.104 49.321 46.192 49.107 46.354 48.950996 C 46.514 48.790997 46.73 48.706997 46.955 48.710995 L 52.439003 48.774994 L 52.439003 42.966995 C 52.439003 42.66999 52.596004 42.393993 52.853004 42.244995 C 53.111004 42.094994 53.42701 42.090996 53.686005 42.236996 L 73.192 53.186996 C 73.456 53.334995 73.619 53.615997 73.619 53.92 L 73.619 53.921997 C 73.619 54.222996 73.454 54.502 73.189 54.650997 L 53.681 65.49 z M 79.401 83.703 C 79.657 83.551 79.816 83.277 79.816 82.978004 L 79.816 77.225006 L 85.582 77.23301 C 85.808 77.239006 86.025 77.15001 86.185 76.99601 C 86.346 76.83701 86.437 76.62101 86.437 76.39601 L 86.437 67.807014 C 86.437 67.34502 86.061 66.96802 85.597 66.96802 L 79.817 66.96802 L 79.815 61.18802 C 79.815 60.89002 79.656006 60.61802 79.404 60.46602 C 79.147 60.316017 78.832 60.31202 78.574 60.455017 L 59.067 71.293 C 58.801003 71.441 58.634003 71.721 58.634003 72.026 L 58.634003 72.027 C 58.634003 72.33 58.795 72.608 59.063004 72.756 L 78.57 83.711 C 78.828 83.854 79.146 83.853 79.401 83.703 z "/>
    </g>
</svg>
