<?xml version="1.0" encoding="UTF-8"?>
<svg xmlns="http://www.w3.org/2000/svg" xmlns:xlink="http://www.w3.org/1999/xlink" contentScriptType="text/ecmascript" zoomAndPan="magnify" baseProfile="tiny" contentStyleType="text/css" version="1.1" width="88px" preserveAspectRatio="xMidYMid meet" viewBox="0 0 88 88" height="88px" x="0px" y="0px">
    <g>
        <path d="M 79.447 69.619 L 63.276 46.25 C 61.582 43.951 58.785 42.631 55.606003 42.631 C 54.967003 42.631 54.333004 42.684 53.711 42.787 L 49.434 36.974 L 57.22 38.268 L 57.606003 38.355 L 57.858 38.355 C 58.056004 38.373 58.255 38.38 58.454 38.38 C 61.763 38.38 64.558 36.011 65.100006 32.748 C 65.712006 29.083 63.227005 25.603 59.558006 24.988 L 53.206005 23.931002 L 58.185005 20.22 C 61.164005 17.994 61.775005 13.761002 59.558006 10.793001 C 58.292007 9.090001 56.270004 8.076001 54.14901 8.076001 C 52.69101 8.076001 51.300007 8.535001 50.120007 9.412001 L 44.139008 13.871 L 44.488007 9.155001 C 44.757008 5.4520006 41.96401 2.2160006 38.243008 1.9390006 C 38.083008 1.9270006 37.925007 1.9210006 37.76701 1.9210006 C 34.255005 1.9210006 31.299006 4.6630006 31.039003 8.166 L 30.325005 17.854 C 30.278004 18.482 30.327003 19.095 30.448004 19.685 L 26.984003 22.233 C 26.111004 21.613 25.099005 21.206 24.011003 21.058 L 14.391004 19.723 C 14.085004 19.681 13.772003 19.659 13.463003 19.659 C 10.118003 19.659 7.248003 22.159 6.787003 25.479 C 6.280003 29.16 8.861003 32.57 12.541003 33.081 L 17.215004 33.729 L 11.778004 37.783 C 10.333004 38.86 9.395004 40.434 9.1360035 42.217003 C 8.878003 44.000004 9.3270035 45.777004 10.408004 47.225 C 11.555004 48.757004 13.305004 49.735 15.179004 49.9 C 15.389004 49.921 15.599004 49.929 15.812004 49.929 C 17.272003 49.929 18.666004 49.467 19.837004 48.593 L 24.486004 45.129 L 23.533005 50.719 C 23.232004 52.494003 23.638004 54.282 24.680004 55.75 C 25.722004 57.22 27.273005 58.195 29.053003 58.496 C 29.426004 58.559 29.806004 58.593 30.183004 58.593 C 31.697004 58.593 33.183006 58.073 34.362003 57.14 C 35.672005 56.104 36.548004 54.626 36.826004 52.985 L 37.944004 46.434 L 41.759003 51.618004 C 40.184 54.764004 39.996 58.675003 42.245003 61.732 L 59.74 84.123 C 61.56 86.553 64.451004 88.0 67.489 88.0 L 67.49 88.0 C 69.564 88.0 71.546 87.349 73.218 86.119 L 77.343994 83.08501 C 81.616 79.934 82.551 73.911 79.447 69.619 z " fill-opacity="0.5"/>
        <path d="M 36.898 21.286 C 36.948 21.289 36.997997 21.290998 37.046997 21.290998 C 38.08 21.290998 38.954 20.492 39.032 19.446 L 39.747 9.761999 C 39.827 8.664999 39.004 7.709999 37.906 7.6279993 C 36.809 7.550999 35.853996 8.370999 35.772 9.468999 L 35.058 19.154 C 34.979 20.25 35.801 21.205 36.898 21.286 z "/>
        <path d="M 48.542 32.961 L 58.121 34.556 C 58.123 34.556 58.125004 34.557 58.128 34.557 C 59.209003 34.733997 60.233 34.001 60.412003 32.918 C 60.594 31.833 59.860004 30.807 58.775 30.625 L 49.195 29.031 C 49.193 29.031 49.191 29.03 49.189 29.03 C 48.107 28.853 47.084 29.586 46.904 30.669 C 46.724 31.753 47.457 32.78 48.542 32.961 z "/>
        <path d="M 29.844 42.888 L 28.213 52.462 C 28.029 53.547 28.758 54.576 29.841 54.76 C 30.423 54.86 30.986 54.697 31.414 54.358 C 31.786 54.063004 32.055 53.635 32.141 53.131 L 33.774 43.559 C 33.957996 42.474003 33.229 41.445004 32.143997 41.261 C 31.059 41.075 30.031 41.804 29.844 42.888 z "/>
        <path d="M 22.398 36.734 L 14.613001 42.539 C 13.73 43.197 13.550001 44.446003 14.206001 45.327003 C 14.559001 45.799004 15.078001 46.071003 15.622002 46.120003 C 16.093002 46.164 16.585001 46.039 16.994 45.733 L 24.78 39.93 C 25.661 39.272 25.843 38.024 25.185 37.142 C 24.529 36.259 23.283 36.076 22.398 36.734 z "/>
        <path d="M 52.956 14.171 L 45.172 19.976 C 44.289 20.634 44.109 21.883 44.765 22.763 C 45.119 23.235 45.638 23.508 46.181 23.556 C 46.652 23.6 47.145 23.475 47.553 23.17 L 55.338 17.367 C 56.219 16.709 56.402 15.461 55.743 14.579 C 55.088 13.696 53.842 13.514 52.956 14.171 z "/>
        <path d="M 23.766 30.555 C 24.434 30.308 24.949 29.712 25.055 28.957 C 25.205 27.867 24.443 26.859 23.354 26.71 L 13.735 25.377 C 12.643 25.226002 11.639 25.986 11.488 27.076 C 11.339 28.166 12.099 29.173 13.189 29.323 L 22.808 30.656 C 23.143 30.702 23.468 30.663 23.766 30.555 z "/>
        <path d="M 51.981 49.405 L 40.983 34.456 L 41.783 33.874 C 41.988003 33.727 42.125 33.505 42.157 33.255 C 42.183 33.003002 42.099003 32.752003 41.928 32.567 L 34.456 24.537004 C 34.152 24.214005 33.659 24.165005 33.303 24.428003 L 29.445002 27.265003 C 29.094002 27.523005 28.989002 28.005005 29.203 28.388002 L 34.573 38.027 C 34.698 38.247 34.907 38.402 35.154003 38.453 C 35.4 38.51 35.664 38.455997 35.857 38.297 L 36.697 37.675 L 47.666 52.585 C 45.612 54.226997 44.495 57.726 46.068 59.865 L 63.514 82.19 C 65.126 84.381004 68.209 84.851006 70.4 83.240005 L 74.523 80.20801 C 76.714005 78.59501 77.184006 75.51401 75.57201 73.32101 L 59.448 50.02 C 57.866 47.869 54.166 47.897 51.981 49.405 z "/>
        <linearGradient x1="35.6021" gradientTransform="matrix(1 0 0 -1 8.3999 64.1602)" y1="57.4873" x2="35.602" gradientUnits="userSpaceOnUse" y2="-19.0874" xlink:type="simple" xlink:actuate="onLoad" id="SVGID_1_" xlink:show="other">
            <stop stop-color="#ff7bac" offset="0"/>
            <stop stop-color="#b33464" offset="1"/>
        </linearGradient>
        <path fill="url(#SVGID_1_)" d="M 35.061 18.203 L 35.775 8.517999 C 35.857 7.4209986 36.813 6.600999 37.909 6.6779985 C 39.006 6.7599983 39.829 7.7149982 39.75 8.811998 L 39.035 18.495998 C 38.957 19.543 38.083 20.340998 37.051 20.340998 C 37.002 20.340998 36.952 20.337996 36.902 20.334995 C 35.804 20.254 34.98 19.3 35.061 18.203 z M 48.545 32.011 L 58.124 33.606003 C 58.126 33.606003 58.128 33.607 58.131 33.607 C 59.213 33.784 60.235 33.051003 60.415 31.969002 C 60.596 30.884005 59.863003 29.857002 58.777 29.676004 L 49.199 28.082005 C 49.195 28.082005 49.193 28.081003 49.191 28.081003 C 48.11 27.904003 47.087 28.637005 46.907 29.719004 C 46.728 30.803 47.46 31.83 48.545 32.011 z M 29.847 41.938 L 28.216 51.511 C 28.031 52.596 28.761 53.625 29.844 53.809 C 30.426 53.909 30.989 53.746 31.417 53.407 C 31.788 53.113003 32.058 52.684 32.144 52.18 L 33.777 42.609 C 33.96 41.524 33.232002 40.494 32.147 40.311 C 31.061 40.125 30.033 40.854 29.847 41.938 z M 22.401 35.784 L 14.615999 41.589 C 13.733999 42.247 13.553 43.495 14.209999 44.376 C 14.562999 44.848 15.081999 45.122 15.625999 45.169 C 16.097 45.212997 16.588999 45.087997 16.998 44.782997 L 24.783998 38.979996 C 25.665 38.321995 25.847998 37.07299 25.189 36.191994 C 24.531 35.309 23.286 35.126 22.401 35.784 z M 52.96 13.221 L 45.175 19.026 C 44.293 19.683998 44.112 20.932 44.769 21.813 C 45.122 22.285 45.641003 22.558 46.184 22.606 C 46.656 22.65 47.147003 22.525 47.555 22.22 L 55.341 16.417 C 56.222 15.759 56.404 14.51 55.746 13.629 C 55.09 12.746 53.844 12.563 52.96 13.221 z M 23.77 29.605 C 24.437 29.358 24.952 28.762 25.058 28.007 C 25.208 26.917 24.446 25.91 23.357 25.76 L 13.738 24.427 C 12.647 24.276 11.642 25.037 11.491 26.126 C 11.341001 27.216 12.102 28.223 13.192 28.373 L 22.811 29.706 C 23.146 29.751 23.471 29.713 23.77 29.605 z M 51.984 48.456 L 40.986 33.506 L 41.786 32.924 C 41.991 32.777 42.128 32.555 42.159 32.305 C 42.186 32.053 42.101 31.802 41.931 31.617 L 34.459 23.588 C 34.154 23.265 33.661 23.216002 33.306 23.479002 L 29.449 26.316002 C 29.097 26.574 28.993 27.055002 29.206 27.439 L 34.576 37.077 C 34.701 37.297 34.91 37.452 35.156 37.503 C 35.402 37.560997 35.666 37.507 35.859 37.347 L 36.699 36.724 L 47.668 51.634 C 45.614 53.275997 44.497 56.775 46.069 58.914 L 63.515 81.241 C 65.128 83.432 68.211 83.901 70.403 82.29 L 74.526 79.259 C 76.716 77.645004 77.186005 74.565 75.573 72.371 L 59.45 49.07 C 57.868 46.919 54.17 46.947 51.984 48.456 z "/>
    </g>
</svg>
