<?xml version="1.0" encoding="UTF-8"?>
<svg xmlns="http://www.w3.org/2000/svg" xmlns:xlink="http://www.w3.org/1999/xlink" contentScriptType="text/ecmascript" zoomAndPan="magnify" baseProfile="tiny" contentStyleType="text/css" version="1.1" width="75.854px" preserveAspectRatio="xMidYMid meet" viewBox="0 0 75.854 75.816" height="75.816px" x="0px" y="0px">
    <g>
        <path d="M 13.672 73.849 C 9.479 73.849 6.068 70.438 6.068 66.244995 L 6.068 22.529 C 6.068 18.337 9.478 14.925999 13.672 14.925999 L 21.401 14.925999 C 20.904 13.903998 20.64 12.772999 20.64 11.600999 C 20.64 9.567999 21.431002 7.659999 22.869 6.222999 C 24.302002 4.787999 26.211002 3.996999 28.244 3.996999 C 30.275002 3.996999 32.183002 4.787999 33.620003 6.224999 L 39.151 11.753999 L 48.17 2.6609983 C 49.611 1.2099984 51.527 0.41199827 53.570004 0.41199827 C 55.586 0.41199827 57.489 1.1949983 58.923004 2.6139982 C 61.900005 5.5689983 61.919003 10.393998 58.968 13.368999 L 57.426003 14.925999 L 64.674 14.925999 C 68.867004 14.925999 72.278 18.336998 72.278 22.53 L 72.278 66.246 C 72.278 70.439 68.868 73.850006 64.673996 73.850006 L 13.672 73.850006 L 13.672 73.849 z " fill-opacity="0.5" stroke-opacity="0.5"/>
        <path d="M 64.674 21.243 L 46.592 21.243 L 55.764 11.997 C 56.966 10.783999 56.957 8.827 55.746 7.624 C 54.532 6.4229994 52.575996 6.4329996 51.372997 7.643 L 39.163 19.955 L 30.428995 11.221 C 29.221996 10.013 27.264996 10.013 26.057997 11.221 C 24.849997 12.428 24.849997 14.385 26.057997 15.591999 L 31.711996 21.244 L 13.671995 21.244 C 11.962996 21.244 10.579995 22.629 10.579995 24.335 L 10.579995 68.05299 C 10.579995 69.758995 11.962996 71.14299 13.671995 71.14299 L 64.673996 71.14299 C 66.381996 71.14299 67.766 69.75899 67.766 68.05299 L 67.766 24.334 C 67.765 22.627 66.382 21.243 64.674 21.243 z M 61.323 62.255 C 61.323 62.875 60.821003 63.377003 60.203003 63.377003 L 18.114 63.377003 C 17.494 63.377003 16.991 62.875004 16.991 62.255 L 16.991 28.163 C 16.991 27.542 17.494 27.041 18.114 27.041 L 60.202003 27.041 C 60.821003 27.041 61.322 27.543 61.322 28.163 L 61.322 62.255 z M 51.1 45.597 C 51.1 46.188 50.765 46.73 50.234997 46.994 L 33.346 55.44 C 33.128002 55.546997 32.886 55.604 32.649002 55.604 C 32.364002 55.604 32.075 55.527 31.826002 55.371 C 31.363005 55.086 31.086002 54.581997 31.086002 54.040997 L 31.086002 37.152 C 31.086002 36.61 31.364002 36.107 31.826002 35.821 C 32.286003 35.534 32.863003 35.511 33.347004 35.752 L 50.235004 44.196 C 50.765 44.464 51.1 45.003 51.1 45.597 z "/>
        <linearGradient x1="30.7732" gradientTransform="matrix(1 0 0 -1 8.3999 51.9761)" y1="47.0515" x2="30.7732" gradientUnits="userSpaceOnUse" y2="-17.3611" xlink:type="simple" xlink:actuate="onLoad" id="SVGID_1_" xlink:show="other">
            <stop stop-color="#ffcf75" offset="0"/>
            <stop stop-color="#ba6b16" offset="1"/>
        </linearGradient>
        <path fill="url(#SVGID_1_)" d="M 64.674 19.438 L 46.592 19.438 L 55.764 10.193 C 56.966 8.98 56.957 7.022 55.746 5.8199997 C 54.532 4.6179996 52.575996 4.628 51.372997 5.8389997 L 39.163 18.15 L 30.428995 9.415999 C 29.221996 8.207999 27.264996 8.207999 26.057997 9.415999 C 24.849997 10.622999 24.849997 12.58 26.057997 13.786999 L 31.711996 19.439 L 13.671995 19.439 C 11.962996 19.439 10.579995 20.824 10.579995 22.53 L 10.579995 66.246994 C 10.579995 67.952995 11.962996 69.338 13.671995 69.338 L 64.673996 69.338 C 66.381996 69.338 67.766 67.952995 67.766 66.246994 L 67.766 22.53 C 67.765 20.822 66.382 19.438 64.674 19.438 z M 61.323 60.449 C 61.323 61.07 60.821003 61.571003 60.203003 61.571003 L 18.114 61.571003 C 17.494 61.571003 16.991 61.069004 16.991 60.449 L 16.991 26.358 C 16.991 25.738 17.494 25.236 18.114 25.236 L 60.202003 25.236 C 60.821003 25.236 61.322 25.738 61.322 26.358 L 61.322 60.449 z M 51.1 43.792 C 51.1 44.384 50.765 44.926 50.234997 45.191 L 33.346996 53.635 C 33.128998 53.743 32.886997 53.799 32.649998 53.799 C 32.364998 53.799 32.075996 53.722 31.826998 53.566 C 31.363998 53.282 31.086998 52.776997 31.086998 52.234997 L 31.086998 35.346 C 31.086998 34.804 31.364998 34.302 31.826998 34.015 C 32.287 33.729 32.864 33.705 33.348 33.946 L 50.236 42.39 C 50.765 42.658 51.1 43.198 51.1 43.792 z "/>
    </g>
</svg>
