<?xml version="1.0" encoding="UTF-8"?>
<!DOCTYPE svg PUBLIC "-//W3C//DTD SVG 1.1 Tiny//EN" "http://www.w3.org/Graphics/SVG/1.1/DTD/svg11-tiny.dtd">
<svg width="24" height="24" viewBox="-0.5 0.5 24 24">
<path d="M-0.5,0.5h12c4.963,0,9,4.037,9,9v15h-21V0.5z" fill-opacity="0.01"/>
<path d="M-0.5,1.5h12c4.411,0,8,3.59,8,8v15h-20V1.5z" fill-opacity="0.03"/>
<path d="M-0.5,2.5h12c3.859,0,7,3.141,7,7v15h-19V2.5z" fill-opacity="0.05"/>
<path d="M-0.5,3.5h12c3.309,0,6,2.691,6,6v15h-18V3.5z" fill-opacity="0.07"/>
<path d="M-0.5,4.5h12c2.762,0,5,2.238,5,5v15h-17V4.5z" fill-opacity="0.11"/>
<rect fill="#FFFFFF" fill-opacity="0.6" height="21" width="18" x="-0.5" y="3.5"/>
</svg>