<?xml version="1.0" encoding="UTF-8"?>
<svg xmlns="http://www.w3.org/2000/svg" xmlns:xlink="http://www.w3.org/1999/xlink" contentScriptType="text/ecmascript" zoomAndPan="magnify" baseProfile="tiny" contentStyleType="text/css" version="1.1" width="42px" preserveAspectRatio="xMidYMid meet" viewBox="0 0 42 29" height="29px" x="0px" y="0px">
    <g>
        <g>
            <path fill="#ffffff" d="M 13.468 25.188 L 18.673 23.589 C 19.366001 24.322 20.09 24.839 20.882 25.047 C 21.982 25.336 24.59 25.505001 26.84 23.380001 C 28.942 21.397001 29.767 20.109001 31.319 20.047 C 32.361 20.005001 33.179 21.311 33.225 21.422 L 36.084 19.547 C 35.959 19.161001 35.105 17.604 33.739998 16.75 C 32.932 16.245 31.868998 16.062 31.141998 16.094 L 33.222 7.6099997 L 29.493 6.3019996 L 26.806 6.7939997 L 25.647999 2.8809996 L 23.145998 2.0909996 L 15.107998 3.2159996 L 15.162998 5.4129996 L 7.607 6.592 L 13.468 25.188 z "/>
            <polygon fill="#ffffff" points="33.485,22.08 33.48,22.068 33.48,22.068   "/>
        </g>
        <g>
            <path fill="#ffffff" d="M 13.468 25.188 L 18.673 23.589 C 19.366001 24.322 20.09 24.839 20.882 25.047 C 21.982 25.336 24.59 25.505001 26.84 23.380001 C 28.942 21.397001 29.767 20.109001 31.319 20.047 C 32.361 20.005001 33.179 21.311 33.225 21.422 L 36.084 19.547 C 35.959 19.161001 35.105 17.604 33.739998 16.75 C 32.932 16.245 31.868998 16.062 31.141998 16.094 L 33.222 7.6099997 L 29.493 6.3019996 L 26.806 6.7939997 L 25.647999 2.8809996 L 23.145998 2.0909996 L 15.107998 3.2159996 L 15.162998 5.4129996 L 7.607 6.592 L 13.468 25.188 z "/>
            <polygon fill="#ffffff" points="33.485,22.08 33.48,22.068 33.48,22.068   "/>
        </g>
    </g>
    <g>
        <g>
            <g>
                <g>
                    <g>
                        <linearGradient x1="-159.2964" gradientTransform="matrix(-1.1364 0 0 1.1364 -151.2158 -679.9396)" y1="610.2686" x2="-141.8506" gradientUnits="userSpaceOnUse" y2="610.2686" xlink:type="simple" xlink:actuate="onLoad" id="SVGID_1_" xlink:show="other">
                            <stop stop-color="#e0bc6c" offset="0"/>
                            <stop stop-color="#cd9f3d" offset="1"/>
                        </linearGradient>
                        <polygon fill="url(#SVGID_1_)" points="13.965,24.066 9.982,7.961 17.289,6.735 17.232,4.322 25.021,3.074 29.808,19.332             "/>
                        <polygon fill="#eacf5a" points="16.66,11.155 32.512,7.978 29.886,19.322 13.963,23.915      "/>
                        <polygon fill="#9e6434" points="16.66,11.155 32.512,7.978 29.787,6.984 13.979,9.696      "/>
                        <polygon fill="#9e6434" points="17.232,4.322 25.063,3.047 23.301,2.55 15.881,3.637      "/>
                        <polygon fill="#9e6434" points="9.982,7.961 17.289,6.735 15.971,5.995 8.396,7.138      "/>
                        <polygon fill="#ad832f" points="16.66,11.155 13.961,24.189 13.979,9.696      "/>
                        <polygon fill="#ad832f" points="9.982,7.961 13.961,24.189 8.396,7.138      "/>
                        <polygon fill="#ad832f" points="15.881,3.637 15.971,5.995 17.289,6.735 17.232,4.322      "/>
                        <linearGradient x1="-409.5918" gradientTransform="matrix(-1.1364 -0.0713 0 -1.1364 -440.4209 -479.0282)" y1="-417.4541" x2="-403.4325" gradientUnits="userSpaceOnUse" y2="-407.3936" xlink:type="simple" xlink:actuate="onLoad" id="SVGID_2_" xlink:show="other">
                            <stop stop-color="#e0bc6c" offset="0"/>
                            <stop stop-color="#cd9f3d" offset="1"/>
                        </linearGradient>
                        <polygon fill="url(#SVGID_2_)" points="13.961,24.189 16.656,11.252 26.854,9.24 29.808,19.332      "/>
                    </g>
                </g>
            </g>
        </g>
    </g>
    <rect width="42" fill="none" height="29"/>
    <linearGradient x1="-93.8945" gradientTransform="matrix(-1 0 0 1 -60.5195 -693.0195)" y1="712.4805" x2="-79.3112" gradientUnits="userSpaceOnUse" y2="714.8555" xlink:type="simple" xlink:actuate="onLoad" id="SVGID_3_" xlink:show="other">
        <stop stop-color="#b0381e" offset="0"/>
        <stop stop-color="#5c1001" offset="1"/>
    </linearGradient>
    <path fill="url(#SVGID_3_)" d="M 18.973 21.68 C 19.015999 21.766 20.063 23.794 22.182999 24.118 C 23.937998 24.388 25.814 23.423 27.756998 21.256 C 29.217999 19.625 30.570997 18.847 31.673998 19.004 C 32.835 19.171 33.469997 20.355 33.475998 20.368 L 33.471996 20.358 L 35.165997 19.295 C 35.123997 19.209 34.076996 17.184 31.956997 16.857 C 30.202997 16.587 28.326996 17.550001 26.383997 19.720001 C 24.921997 21.351002 23.567997 22.128002 22.466997 21.972002 C 21.303997 21.804003 20.668997 20.620003 20.661997 20.607002 L 20.666996 20.616003 L 18.973 21.68 z "/>
    <linearGradient x1="-75.9551" gradientTransform="matrix(-1 0 0 1 -60.5195 -693.0195)" y1="714.6006" x2="-94.0625" gradientUnits="userSpaceOnUse" y2="713.6639" xlink:type="simple" xlink:actuate="onLoad" id="SVGID_4_" xlink:show="other">
        <stop stop-color="#e0bc6c" offset="0"/>
        <stop stop-color="#7f3c21" offset="1"/>
    </linearGradient>
    <path fill="url(#SVGID_4_)" d="M 18.975 21.68 C 19.018 21.766 20.065 23.794 22.185001 24.118 C 23.94 24.388 25.816002 23.423 27.759 21.256 C 29.220001 19.625 30.574001 18.847 31.676 19.004 C 32.837 19.171 33.472 20.355 33.478 20.368 L 33.474 20.358 L 34.405 19.774 C 34.362 19.686 33.583 18.166 31.818998 17.848 C 30.071999 17.535 28.594997 18.774 26.651999 20.942 C 25.189999 22.573 23.463999 23.119999 22.359999 22.984999 C 20.734999 22.786999 19.857998 21.144999 19.849998 21.130999 L 18.975 21.68 z "/>
</svg>
