<?xml version="1.0" encoding="UTF-8"?>
<!DOCTYPE svg PUBLIC "-//W3C//DTD SVG 1.1 Tiny//EN" "http://www.w3.org/Graphics/SVG/1.1/DTD/svg11-tiny.dtd">
<svg width="24" height="24" viewBox="-0.5 0.5 24 24">
<path d="M20.5,0.5v6c0,4.963-4.037,9-9,9h-12v-15H20.5z" fill-opacity="0.01"/>
<path d="M19.5,0.5v6c0,4.412-3.589,8-8,8h-12v-14H19.5z" fill-opacity="0.03"/>
<path d="M18.5,0.5v6c0,3.859-3.141,7-7,7h-12v-13H18.5z" fill-opacity="0.05"/>
<path d="M17.5,0.5v6c0,3.309-2.691,6-6,6h-12v-12H17.5z" fill-opacity="0.07"/>
<path d="M16.5,0.5v6c0,2.762-2.238,5-5,5h-12v-11H16.5z" fill-opacity="0.11"/>
<rect fill="#FFFFFF" fill-opacity="0.6" height="10" width="18" x="-0.5" y="0.5"/>
</svg>