<?xml version="1.0" encoding="UTF-8"?>
<svg xmlns="http://www.w3.org/2000/svg" xmlns:xlink="http://www.w3.org/1999/xlink" contentScriptType="text/ecmascript" width="352" baseProfile="tiny" zoomAndPan="magnify" contentStyleType="text/css" viewBox="-0.603 -0.194 352 276" height="276" preserveAspectRatio="xMidYMid meet" version="1.0">
    <path fill="#8b0000" d="M 328.397 -0.193 L 318.447 -0.194 L 308.37198 9.806 L 22.529 9.806 C 16.886 9.797999 11.582 11.992 7.5879993 15.98 C 3.5959992 19.967 1.3989992 25.266998 1.3989992 30.905998 L 1.3989992 244.69 C 1.3989992 258.539 12.660999 269.805 26.503998 269.805 C 26.503998 269.805 327.898 269.805 328.551 269.805 C 340.523 269.805 349.398 259.556 349.398 248.68 L 349.398 30.906 C 349.398 25.266 347.2 19.966 343.215 15.982 C 339.503 12.274 334.622 10.189 329.398 9.918 C 329.398 8.43 329.398 -0.19299984 329.398 -0.19299984 L 328.397 -0.19299984 L 328.397 -0.193 z " fill-opacity="0.01"/>
    <path fill="#8b0000" d="M 328.397 0.807 L 318.859 0.806 L 308.782 10.806 L 22.528 10.806 C 17.155 10.799 12.099999 12.888 8.296 16.687 C 4.495 20.486 2.4 25.535 2.4 30.906 L 2.4 244.691 C 2.4 257.988 13.212 268.806 26.504 268.806 C 26.504 268.806 325.272 268.806 328.5 268.806 C 339.521 268.806 348.396 259.431 348.396 248.681 L 348.396 30.907 C 348.396 25.534 346.304 20.485 342.506 16.689999 C 338.735 12.921999 333.72598 10.845999 328.396 10.8169985 C 328.397 9.211 328.397 0.807 328.397 0.807 L 328.397 0.807 z " fill-opacity="0.02"/>
    <path fill="#8b0000" d="M 327.397 1.807 L 319.272 1.806 L 309.195 11.806 L 22.53 11.806 C 17.425 11.8 12.622001 13.785 9.007001 17.395 C 5.392001 21.004 3.4030008 25.802 3.4030008 30.906 L 3.4030008 244.691 C 3.4030008 257.437 13.766001 267.806 26.507 267.806 C 26.507 267.806 327.9 267.806 328.44998 267.806 C 339.149 267.806 347.399 258.806 347.399 248.681 L 347.399 30.907 C 347.399 25.801 345.41095 21.004 341.802 17.397 C 338.192 13.792 333.395 11.806999 328.29102 11.806999 C 328.29102 11.806999 327.842 11.806999 327.39603 11.806999 C 327.397 10.155 327.397 1.807 327.397 1.807 L 327.397 1.807 z " fill-opacity="0.03"/>
    <path fill="#8b0000" d="M 326.397 2.807 L 319.647 2.806 L 309.608 12.806 L 22.529 12.806 C 17.689 12.8 13.138 14.681 9.712999 18.103 C 6.286999 21.523 4.4019995 26.07 4.4019995 30.906002 L 4.4019995 244.691 C 4.4019995 256.884 14.318 266.806 26.506 266.806 C 26.506 266.806 327.65002 266.802 328.27502 266.802 C 338.9 266.806 346.4 258.011 346.4 248.681 L 346.4 30.907 C 346.4 26.069 344.516 21.522 341.09604 18.105 C 337.67703 14.688 333.13004 12.806999 328.29205 12.806999 C 328.29205 12.806999 327.25406 12.806999 326.39706 12.806999 C 326.397 11.126 326.397 2.807 326.397 2.807 L 326.397 2.807 z " fill-opacity="0.06"/>
    <path fill="#8b0000" d="M 5.402 30.906 L 5.402 244.691 C 5.402 256.334 14.867001 265.806 26.506 265.806 L 27.5 265.806 L 328.273 265.806 C 338.023 265.806 345.396 257.54 345.396 248.681 L 345.398 30.906998 C 345.398 21.454 337.61505 13.806997 328.169 13.806997 L 325.398 13.806997 L 325.398 3.8069973 L 320.023 3.8069973 L 310.023 13.806997 L 22.52301 13.806997 C 13.076 13.795 5.398 21.454 5.402 30.906 z " fill-opacity="0.05"/>
    <path fill="#8b0000" d="M 6.4 30.906 L 6.4 244.691 C 6.4 255.783 15.419001 264.806 26.504 264.806 L 327.317 264.804 C 337.896 264.806 344.396 256.806 344.395 247.68098 L 344.396 30.906982 C 344.396 21.453983 337.613 14.806982 328.167 14.806982 L 324.396 14.806982 L 324.396 4.806982 L 320.396 4.806982 L 310.396 14.806982 L 23.148 14.806982 C 14.148 14.807 6.398 21.454 6.4 30.906 z " fill-opacity="0.1"/>
    <path fill="#8b0000" d="M 7.4 30.906 L 7.4 244.691 C 7.4 255.231 15.969 263.806 26.504 263.806 C 26.504 263.806 325.772 263.806 326.291 263.806 C 338.271 263.806 343.396 255.681 343.395 246.681 L 343.396 30.906998 C 343.396 21.454 337.613 15.806997 328.167 15.806997 L 323.396 15.806997 L 323.396 5.8069973 L 320.771 5.8069973 L 310.771 15.806997 L 24.148 15.806997 C 15.148 15.807 7.398 21.454 7.4 30.906 z " fill-opacity="0.1"/>
    <path fill="#8b0000" d="M 8.398 30.906 L 8.398 244.691 C 8.398 254.67902 16.519001 262.806 26.502998 262.806 L 325.272 262.806 C 338.522 262.806 342.397 254.556 342.396 245.691 L 342.397 30.906998 C 342.397 21.454 336.595 16.806995 327.147 16.806995 L 322.397 16.806995 L 322.397 6.806998 L 321.272 6.806998 L 311.272 16.806995 L 25.023 16.806995 C 16.398 16.807 8.398 21.454 8.398 30.906 z " fill-opacity="0.1"/>
    <linearGradient x1="177.4" y1="232.92" x2="177.4" gradientUnits="userSpaceOnUse" y2="62.57" xlink:type="simple" xlink:actuate="onLoad" id="_2" xlink:show="other">
        <stop stop-color="#ffbebe" offset="0"/>
        <stop stop-color="#ffffff" offset="1"/>
    </linearGradient>
    <path fill="url(#_2)" d="M 9.4 30.906 L 9.4 244.691 C 9.4 254.141 17.057 261.806 26.504 261.806 L 328.292 261.806 C 337.738 261.806 345.396 254.141 345.396 244.691 L 345.396 30.907 C 345.396 21.454 337.738 13.806999 328.292 13.806999 L 325.396 13.806999 L 325.396 1.8069992 L 323.397 1.8069992 L 311.396 13.806999 L 26.504 13.806999 C 17.056 13.795 9.398 21.454 9.4 30.906 z "/>
</svg>
