<?xml version="1.0" encoding="UTF-8"?>
<!DOCTYPE svg PUBLIC "-//W3C//DTD SVG 1.1 Tiny//EN" "http://www.w3.org/Graphics/SVG/1.1/DTD/svg11-tiny.dtd">
<svg width="44" height="32" viewBox="-1.479 0.993 44 32">
<path fill="#656B6B" fill-opacity="0.01" d="M42.521,29.993c-10.661,0-16.895,0-16.895,0c-13.844,0-25.105-11.333-25.105-26.085 V0.993h42V29.993z"/>
<path fill="#656B6B" fill-opacity="0.02" d="M42.521,28.993c-10.661,0-16.895,0-16.895,0c-13.293,0-24.105-10.921-24.105-25.085 V0.993h41V28.993z"/>
<path fill="#656B6B" fill-opacity="0.03" d="M42.521,27.993c-10.661,0-16.895,0-16.895,0c-12.74,0-23.105-10.508-23.105-24.085 V0.993h40V27.993z"/>
<path fill="#656B6B" fill-opacity="0.06" d="M42.521,26.993c-10.661,0-16.895,0-16.895,0c-12.189,0-22.105-10.097-22.105-23.085 V0.993h39V26.993z"/>
<path fill="#656B6B" fill-opacity="0.05" d="M42.521,25.993h-15.9h-0.994c-11.638,0-21.105-9.685-21.105-22.085V0.993h38V25.993z"/>
<path fill="#656B6B" fill-opacity="0.1" d="M42.521,24.993H25.626c-11.086,0-20.105-9.271-20.105-21.085V0.993h37V24.993z"/>
<path fill="#656B6B" fill-opacity="0.1" d="M42.521,23.993c-10.658,0-16.895,0-16.895,0c-10.535,0-19.105-8.856-19.105-20.085 V0.993h36V23.993z"/>
<path fill="#656B6B" fill-opacity="0.1" d="M42.521,22.993H25.626c-9.983,0-18.105-8.446-18.105-19.085V0.993h35V22.993z"/>
<path fill="#FFFFFF" fill-opacity="0.8" d="M42.521,21.993H25.626c-9.447,0-17.105-8.019-17.105-18.085V0.993h34V21.993z"/>
</svg>