<?xml version="1.0" encoding="UTF-8"?>
<svg xmlns="http://www.w3.org/2000/svg" xmlns:xlink="http://www.w3.org/1999/xlink" contentScriptType="text/ecmascript" zoomAndPan="magnify" baseProfile="tiny" contentStyleType="text/css" version="1.0" width="92.309px" preserveAspectRatio="xMidYMid meet" viewBox="0 0 92.309 100" height="100px" x="0px" y="0px">
    <g>
        <g>
            <path fill="#822519" d="M 61.777 68.143 L 48.581 53.281 L 55.454002 46.885 L 69.062004 60.923996 C 68.743 63.127 65.224 67.9 61.777 68.143 z "/>
            <g>
                <linearGradient x1="-616.2605" gradientTransform="matrix(-3.8838 -0.2685 0.0588 3.8127 -1983.7511 -113.7327)" y1="-46.8291" x2="-609.7584" gradientUnits="userSpaceOnUse" y2="-43.5779" xlink:type="simple" xlink:actuate="onLoad" id="SVGID_1_" xlink:show="other">
                    <stop stop-color="#b3ddff" offset="0"/>
                    <stop stop-color="#ffffff" offset="1"/>
                </linearGradient>
                <path fill="url(#SVGID_1_)" d="M 34.597 10.926 C 45.658 11.584 56.365997 21.588 57.915 31.779999 C 59.473 41.973 51.762 49.703 40.7 49.045998 C 29.641 48.392 19.415 39.591995 17.86 29.399998 C 16.302 19.204 23.531 10.269 34.597 10.926 z " fill-opacity="0.51"/>
            </g>
            <g>
                <path fill="#e0bc6c" d="M 29.47 13.539 C 43.253 10.415999 59.681 25.639 51.347 42.627 C 53.589 30.208 41.25 15.146 29.47 13.539 z " fill-opacity="0.8"/>
            </g>
            <path fill="#5c1001" d="M 33.393 6.731 C 41.966003 6.008 57.181 14.731 59.915 27.242 C 63.519 43.75 54.165 56.189003 41.266 56.550003 C 24.079998 57.031002 13.202999 44.65 12.015999 32.200005 C 10.802 19.446 21.224 7.754 33.393 6.731 z M 17.861 29.17 C 19.416 39.362 29.642 48.158 40.701 48.816 C 51.763 49.473003 59.474 41.738003 57.916 31.550001 C 56.366 21.358 45.9 10.273 34.839 9.615 C 23.773 8.958 16.302 18.969 17.861 29.17 z "/>
            <path fill="#b0381e" d="M 65.489 55.008 L 86.539 74.738 C 87.5 80.912 80.315 85.756996 74.604004 84.813995 L 55.312 63.031 L 56.066 61.753998 C 59.704002 61.052998 64.116005 58.531 63.916 55.488 L 65.489 55.008 z "/>
            <path fill="#9e6434" d="M 55.312 63.031 L 55.447 61.046997 C 59.607998 60.798996 62.835 57.749996 63.32 54.983997 L 65.485 55.003998 C 65.467 60.465 58.724 64.068 55.312 63.031 z "/>
            <path fill="#822519" d="M 55.339 60.834 L 55.313 63.031 C 57.578 63.722 60.901 62.146 61.186 61.837997 L 60.198 59.377 C 59.12 60.047 57.016 61.035 55.339 60.834 z "/>
            <path fill="#5c1001" d="M 55.312 63.031 L 74.681 84.916 C 77.273 84.874 79.843 84.461 81.189 83.52 L 61.185 61.838 C 59.273 62.83 56.885 63.273 55.312 63.031 z "/>
            <path fill="#822519" d="M 74.608 84.92 C 85.016 87.687996 89.146 81.818 86.535 74.738 C 86.277 83.139 78.377 84.908 74.608 84.92 z "/>
            <path fill="#5c1001" d="M 60.199 59.377 L 51.545002 50.481 C 49.562 51.68 49.566 54.440998 49.566 54.440998 L 55.351 60.92 C 57.094 61.05 59.72 59.715 60.199 59.377 z "/>
            <g>
                <path fill="#5c1001" d="M 39.804 50.877 C 45.333 50.793 50.365 50.207 53.988 46.468998 C 62.223 37.973 61.052998 24.714998 51.357 15.306997 C 41.661 5.9039974 29.572998 5.145997 21.294998 13.618998 C 14.486998 20.591997 13.2839985 34.184 22.980999 43.587997 C 28.055 48.512 33.224 50.984 39.804 50.877 z M 39.758 49.873 C 34.186 49.957 28.495998 47.592003 24.147 43.373 C 15.973999 35.446 14.816999 23.315 21.574999 16.342001 C 28.348 9.365001 40.504997 10.142001 48.682 18.073002 C 56.859 26.008001 58.01 38.136 51.244 45.108 C 48.335 48.111 44.259 49.804 39.758 49.873 z "/>
            </g>
            <g>
                <path fill="none" d="M 25.555 42.15 C 29.9 46.369003 35.588 48.735 41.161 48.65 C 45.661 48.581 49.740997 46.889 52.649 43.885002 C 59.414997 36.912003 58.260998 24.785002 50.084 16.850002 C 41.911 8.919003 29.749 8.146002 22.98 15.119002 C 16.224 22.092 17.377 34.219 25.555 42.15 z "/>
                <path fill="#b0381e" d="M 22.877 44.912 C 27.952 49.834 34.64 52.596 41.225 52.496 C 46.75 52.412 51.788998 50.299 55.413 46.560997 C 63.650997 38.064995 62.462997 23.495996 52.764 14.087997 C 43.067 4.68 28.47 3.942 20.22 12.442 C 11.984 20.938 13.178 35.504 22.877 44.912 z M 22.981 15.119 C 29.75 8.142 41.912003 8.919001 50.085 16.85 C 58.263 24.785 59.416 36.912003 52.649998 43.885002 C 49.739 46.889004 45.662 48.581 41.162 48.65 C 35.588997 48.735 29.901 46.369003 25.556 42.15 C 17.377 34.219 16.224 22.092 22.981 15.119 z "/>
            </g>
            <rect x="0" width="92.309" fill="none" height="100"/>
        </g>
    </g>
</svg>
