<?xml version="1.0" encoding="UTF-8"?>
<svg xmlns="http://www.w3.org/2000/svg" xmlns:xlink="http://www.w3.org/1999/xlink" contentScriptType="text/ecmascript" width="44" baseProfile="tiny" zoomAndPan="magnify" contentStyleType="text/css" viewBox="-1.479 0.993 44 32" height="32" preserveAspectRatio="xMidYMid meet" version="1.0">
    <path fill="#656b6b" d="M 0.521 32.993 L 0.521 29.968 C 0.521 23.962 2.719 18.317 6.71 14.071 C 10.704 9.8220005 16.008999 7.986 21.651 7.994 L 42.52 7.994 L 42.52 32.994 L 0.521 32.994 z " fill-opacity="0.01"/>
    <path fill="#656b6b" d="M 1.521 32.993 L 1.521 29.968 C 1.521 24.247 3.615 18.869 7.417 14.823 C 11.222 10.776 16.276001 8.986 21.649 8.993 L 42.52 8.993 L 42.52 32.993 L 1.521 32.993 z " fill-opacity="0.02"/>
    <path fill="#656b6b" d="M 2.521 32.993 L 2.521 29.968 C 2.521 24.532 4.5109997 19.421 8.125 15.577001 C 11.74 11.7300005 16.543 9.987 21.649 9.993 L 42.521 9.993 L 42.521 32.993 L 2.521 32.993 z " fill-opacity="0.03"/>
    <path fill="#656b6b" d="M 3.521 32.993 L 3.521 29.968 C 3.521 24.819 5.408 19.974 8.832 16.331001 C 12.257999 12.685001 16.809 10.987001 21.648 10.993002 L 42.520996 10.993002 L 42.520996 32.993004 L 3.521 32.993004 z " fill-opacity="0.06"/>
    <path fill="#656b6b" d="M 4.521 32.993 L 4.521 29.968 C 4.521 19.901 12.198999 11.981001 21.646 11.993 L 42.521 11.993 L 42.521 32.993 L 4.521 32.993 z " fill-opacity="0.05"/>
    <path fill="#656b6b" d="M 5.521 32.993 L 5.521 29.968 C 5.521 19.901 13.271 12.993 22.271 12.993 L 42.521 12.993 L 42.521 32.993 L 5.521 32.993 z " fill-opacity="0.1"/>
    <path fill="#656b6b" d="M 6.521 32.993 L 6.521 29.968 C 6.521 19.901 14.271 13.993 23.271 13.993 L 42.521 13.993 L 42.521 32.993 L 6.521 32.993 z " fill-opacity="0.1"/>
    <path fill="#656b6b" d="M 7.521 32.993 L 7.521 29.968 C 7.521 19.901 15.521 14.993 24.146 14.993 L 42.521 14.993 L 42.521 32.993 L 7.521 32.993 z " fill-opacity="0.1"/>
    <path fill="#ffffff" d="M 8.521 32.993 L 8.521 29.968 C 8.521 19.901 16.179 11.981001 25.626 11.993 L 42.521 11.993 L 42.521 32.993 L 8.521 32.993 z " fill-opacity="0.8"/>
</svg>
