<?xml version="1.0" encoding="UTF-8"?>
<!DOCTYPE svg PUBLIC "-//W3C//DTD SVG 1.1 Tiny//EN" "http://www.w3.org/Graphics/SVG/1.1/DTD/svg11-tiny.dtd">
<svg width="44" height="32" viewBox="-1.479 0.993 44 32">
<path fill="#656B6B" fill-opacity="0.01" d="M40.521,0.993v7.165c0,11.586-8.875,21.835-20.848,21.835c-0.104,0-7.996,0-21.152,0 v-29H40.521z"/>
<path fill="#656B6B" fill-opacity="0.02" d="M39.521,0.993v7.165c0,11.451-8.875,20.835-19.898,20.835c-0.506,0-8.311,0-21.102,0 v-28H39.521z"/>
<path fill="#656B6B" fill-opacity="0.03" d="M38.521,0.993v7.165c0,10.785-8.25,19.835-18.949,19.835c-0.088,0-7.941,0-21.051,0 v-27H38.521z"/>
<path fill="#656B6B" fill-opacity="0.06" d="M37.521,0.993v7.165c0,9.938-7.5,18.839-18.125,18.835c-0.1,0-7.883,0-20.875,0v-26 H37.521z"/>
<path fill="#656B6B" fill-opacity="0.05" d="M36.519,0.993v7.165c0,9.438-7.373,17.835-17.123,17.835H-1.479v-25H36.519z"/>
<path fill="#656B6B" fill-opacity="0.1" d="M35.52,0.993v6.101c0.001,9.719-6.499,17.901-17.078,17.899H-1.479v-24H35.52z"/>
<path fill="#656B6B" fill-opacity="0.1" d="M34.52,0.993v5.035c0.001,9.587-5.124,17.965-17.106,17.965c-0.078,0-7.084,0-18.893,0 v-23H34.52z"/>
<path fill="#656B6B" fill-opacity="0.1" d="M33.52,0.993v3.979c0.001,9.443-3.874,18.021-17.124,18.021H-1.479v-22H33.52z"/>
<path fill="#FFFFFF" fill-opacity="0.8" d="M36.521,0.993v2.915c0,10.066-7.658,18.085-17.105,18.085H-1.479v-21H36.521z"/>
</svg>