<?xml version="1.0" encoding="UTF-8"?>
<!DOCTYPE svg PUBLIC "-//W3C//DTD SVG 1.1 Tiny//EN" "http://www.w3.org/Graphics/SVG/1.1/DTD/svg11-tiny.dtd">
<svg width="44" height="32" viewBox="-1.479 0.993 44 32">
<path fill="#656B6B" fill-opacity="0.01" d="M-1.479,7.993h22c5.223,0.289,10.105,2.129,13.816,6.078 c3.988,4.244,6.184,9.89,6.184,15.896v3.025h-42V7.993z"/>
<path fill="#656B6B" fill-opacity="0.02" d="M-1.479,8.993h21c5.33,0.031,10.339,1.817,14.109,5.832 c3.799,4.041,5.891,9.42,5.891,15.143v3.025h-41V8.993z"/>
<path fill="#656B6B" fill-opacity="0.03" d="M-1.479,9.993h20.893c5.105,0,9.902,1.746,13.512,5.585 c3.607,3.843,5.596,8.952,5.596,14.39v3.025h-40V9.993z"/>
<path fill="#656B6B" fill-opacity="0.06" d="M-1.479,10.993h20.893c4.838,0,9.385,1.699,12.805,5.34 c3.419,3.639,5.303,8.482,5.303,13.635v3.025h-39V10.993z"/>
<path fill="#656B6B" fill-opacity="0.05" d="M-1.479,11.993h20.77c10.23,0,17.23,7.907,17.23,17.975v3.025h-38V11.993z"/>
<path fill="#656B6B" fill-opacity="0.1" d="M-1.479,12.993h20.77c9.447,0,16.23,6.907,16.23,16.975v3.025h-37V12.993z"/>
<path fill="#656B6B" fill-opacity="0.1" d="M-1.479,13.993h20.77c8.73,0,15.23,5.907,15.23,15.975v3.025h-36V13.993z"/>
<path fill="#656B6B" fill-opacity="0.1" d="M-1.479,14.993h19.75c9.448,0,15.25,4.907,15.25,14.975v3.025h-35V14.993z"/>
<path fill="#FFFFFF" fill-opacity="0.8" d="M-1.479,11.993h20.895c10.105,0,17.105,8,17.105,17.975v3.025h-38V11.993z"/>
</svg>