<?xml version="1.0" encoding="UTF-8"?>
<svg xmlns="http://www.w3.org/2000/svg" xmlns:xlink="http://www.w3.org/1999/xlink" contentScriptType="text/ecmascript" width="16" baseProfile="tiny" zoomAndPan="magnify" contentStyleType="text/css" viewBox="0 0 16 16" height="16" preserveAspectRatio="xMidYMid meet" version="1.1">
    <g>
        <rect width="16" fill="none" height="16"/>
        <rect width="16" fill="none" height="16"/>
        <linearGradient x1="3" y1="0.4819" x2="3" gradientUnits="userSpaceOnUse" y2="17.167" xlink:type="simple" xlink:actuate="onLoad" id="XMLID_8_" xlink:show="other">
            <stop stop-color="#e62020" offset="0"/>
            <stop stop-color="#e62020" offset="0.0787"/>
            <stop stop-color="#e62020" offset="0.5674"/>
            <stop stop-color="#e62020" offset="1"/>
        </linearGradient>
        <path fill="url(#XMLID_8_)" d="M 5.0 11.75 C 5.0 12.164 4.735 12.5 4.125 12.5 L 1.875 12.5 C 1.264 12.5 1.0 12.164 1.0 11.75 L 1.0 11.75 C 1.0 11.336 1.264 11.0 1.875 11.0 L 4.125 11.0 C 4.735 11.0 5.0 11.336 5.0 11.75 L 5.0 11.75 z "/>
        <linearGradient x1="2.5" y1="0.4819" x2="2.5" gradientUnits="userSpaceOnUse" y2="17.167" xlink:type="simple" xlink:actuate="onLoad" id="XMLID_9_" xlink:show="other">
            <stop stop-color="#e62020" offset="0"/>
            <stop stop-color="#e62020" offset="0.0787"/>
            <stop stop-color="#e62020" offset="0.5674"/>
            <stop stop-color="#e62020" offset="1"/>
        </linearGradient>
        <path fill="url(#XMLID_9_)" d="M 4.0 13.75 C 4.0 14.164 3.735 14.5 3.125 14.5 L 1.875 14.5 C 1.264 14.5 1.0 14.164 1.0 13.75 L 1.0 13.75 C 1.0 13.336 1.264 13.0 1.875 13.0 L 3.125 13.0 C 3.735 13.0 4.0 13.336 4.0 13.75 L 4.0 13.75 z "/>
        <linearGradient x1="3.5" y1="0.4819" x2="3.5" gradientUnits="userSpaceOnUse" y2="17.167" xlink:type="simple" xlink:actuate="onLoad" id="XMLID_10_" xlink:show="other">
            <stop stop-color="#e62020" offset="0"/>
            <stop stop-color="#e62020" offset="0.0787"/>
            <stop stop-color="#e62020" offset="0.5674"/>
            <stop stop-color="#e62020" offset="1"/>
        </linearGradient>
        <path fill="url(#XMLID_10_)" d="M 6.0 9.75 C 6.0 10.164 5.738 10.5 5.1280003 10.5 L 1.8780004 10.5 C 1.267 10.5 1.0 10.164 1.0 9.75 L 1.0 9.75 C 1.0 9.336 1.267 9.0 1.878 9.0 L 5.1280003 9.0 C 5.738 9.0 6.0 9.336 6.0 9.75 L 6.0 9.75 z "/>
        <linearGradient x1="3.9961" y1="0.4819" x2="3.9961" gradientUnits="userSpaceOnUse" y2="17.167" xlink:type="simple" xlink:actuate="onLoad" id="XMLID_11_" xlink:show="other">
            <stop stop-color="#e62020" offset="0"/>
            <stop stop-color="#e62020" offset="0.0787"/>
            <stop stop-color="#e62020" offset="0.5674"/>
            <stop stop-color="#e62020" offset="1"/>
        </linearGradient>
        <path fill="url(#XMLID_11_)" d="M 7.0 7.75 C 7.0 8.164 6.738 8.5 6.128 8.5 L 1.8779998 8.5 C 1.2659998 8.5 0.9919998 8.164 0.9919998 7.75 L 0.9919998 7.75 C 0.992 7.336 1.266 7.0 1.878 7.0 L 6.1280003 7.0 C 6.738 7.0 7.0 7.336 7.0 7.75 L 7.0 7.75 z "/>
        <linearGradient x1="4.9966" y1="0.4819" x2="4.9966" gradientUnits="userSpaceOnUse" y2="17.167" xlink:type="simple" xlink:actuate="onLoad" id="XMLID_12_" xlink:show="other">
            <stop stop-color="#e62020" offset="0"/>
            <stop stop-color="#e62020" offset="0.0787"/>
            <stop stop-color="#e62020" offset="0.5674"/>
            <stop stop-color="#e62020" offset="1"/>
        </linearGradient>
        <path fill="url(#XMLID_12_)" d="M 9.0 3.752 C 9.0 4.166 8.738 4.502 8.128 4.502 L 1.8780004 4.502 C 1.2670002 4.502 0.99400026 4.166 0.99400026 3.752 L 0.99400026 3.752 C 0.99400026 3.3379998 1.2660003 3.002 1.8780004 3.002 L 8.128 3.002 C 8.738 3.002 9.0 3.338 9.0 3.752 L 9.0 3.752 z "/>
        <linearGradient x1="5.4966" y1="0.4819" x2="5.4966" gradientUnits="userSpaceOnUse" y2="17.167" xlink:type="simple" xlink:actuate="onLoad" id="XMLID_13_" xlink:show="other">
            <stop stop-color="#e62020" offset="0"/>
            <stop stop-color="#e62020" offset="0.0787"/>
            <stop stop-color="#e62020" offset="0.5674"/>
            <stop stop-color="#e62020" offset="1"/>
        </linearGradient>
        <path fill="url(#XMLID_13_)" d="M 10.0 1.75 C 10.0 2.164 9.738 2.5 9.128 2.5 L 1.8780004 2.5 C 1.2670002 2.5 0.99400026 2.164 0.99400026 1.75 L 0.99400026 1.75 C 0.994 1.336 1.267 1.0 1.878 1.0 L 9.128 1.0 C 9.738 1.0 10.0 1.336 10.0 1.75 L 10.0 1.75 z "/>
        <linearGradient x1="4.4961" y1="0.4819" x2="4.4961" gradientUnits="userSpaceOnUse" y2="17.167" xlink:type="simple" xlink:actuate="onLoad" id="XMLID_14_" xlink:show="other">
            <stop stop-color="#e62020" offset="0"/>
            <stop stop-color="#e62020" offset="0.0787"/>
            <stop stop-color="#e62020" offset="0.5674"/>
            <stop stop-color="#e62020" offset="1"/>
        </linearGradient>
        <path fill="url(#XMLID_14_)" d="M 8.0 5.75 C 8.0 6.164 7.739 6.5 7.128 6.5 L 1.8779998 6.5 C 1.2659998 6.5 0.9919998 6.164 0.9919998 5.75 L 0.9919998 5.75 C 0.992 5.336 1.266 5.0 1.878 5.0 L 7.128 5.0 C 7.739 5.0 8.0 5.336 8.0 5.75 L 8.0 5.75 z "/>
    </g>
</svg>
