<?xml version="1.0" encoding="UTF-8"?>
<svg xmlns="http://www.w3.org/2000/svg" xmlns:xlink="http://www.w3.org/1999/xlink" contentScriptType="text/ecmascript" zoomAndPan="magnify" baseProfile="tiny" contentStyleType="text/css" version="1.1" width="84px" preserveAspectRatio="xMidYMid meet" viewBox="0 0 84 72" height="72px" x="0px" y="0px">
    <g>
        <polygon fill="#ffffff" points="42.916,60.337 46.666,63.753 73.416,56.337 74.729,31.581 70.311,30.165 66.668,30.759    69.021,21.122 60.324,18.069 54.059,19.218 51.358,10.091 45.521,8.247 26.771,10.872 26.896,15.997 9.271,18.747 22.938,62.122    42.815,56.007  "/>
        <g>
            <g>
                <g>
                    <g>
                        <g>
                            <linearGradient x1="-144.1177" gradientTransform="matrix(-1.1364 0 0 1.1364 -103.4881 -636.9406)" y1="591.1709" x2="-104.7534" gradientUnits="userSpaceOnUse" y2="591.1709" xlink:type="simple" xlink:actuate="onLoad" id="SVGID_1_" xlink:show="other">
                                <stop stop-color="#e0bc6c" offset="0"/>
                                <stop stop-color="#cd9f3d" offset="1"/>
                            </linearGradient>
                            <polygon fill="url(#SVGID_1_)" points="24.535,58.551 15.553,22.208 32.039,19.443 31.91,13.998 49.483,11.182 60.286,47.865               "/>
                            <polygon fill="#eacf5a" points="30.618,29.417 66.387,22.249 60.462,47.846 24.532,58.207       "/>
                            <polygon fill="#9e6434" points="30.618,29.417 66.387,22.249 60.237,20.006 24.568,26.125       "/>
                            <polygon fill="#9e6434" points="31.91,13.998 49.581,11.122 45.604,10 28.861,12.453       "/>
                            <polygon fill="#9e6434" points="15.553,22.208 32.039,19.443 29.064,17.774 11.975,20.353       "/>
                            <polygon fill="#ad832f" points="30.618,29.417 24.529,58.829 24.568,26.125       "/>
                            <polygon fill="#ad832f" points="15.553,22.208 24.529,58.829 11.975,20.353       "/>
                            <polygon fill="#ad832f" points="28.861,12.453 29.064,17.774 32.039,19.443 31.91,13.998       "/>
                            <linearGradient x1="-389.125" gradientTransform="matrix(-1.1364 -0.0713 0 -1.1364 -392.6932 -433.0338)" y1="-409.1411" x2="-375.2267" gradientUnits="userSpaceOnUse" y2="-386.4396" xlink:type="simple" xlink:actuate="onLoad" id="SVGID_2_" xlink:show="other">
                                <stop stop-color="#e0bc6c" offset="0"/>
                                <stop stop-color="#cd9f3d" offset="1"/>
                            </linearGradient>
                            <polygon fill="url(#SVGID_2_)" points="24.529,58.829 30.609,29.636 53.62,25.095 60.286,47.865       "/>
                        </g>
                    </g>
                </g>
            </g>
        </g>
        <rect width="84" fill="none" height="72"/>
        <g>
            <g>
                <polygon fill="#eacf5a" points="72.246,55.066 46.905,62.191 46.625,37.616 73.305,32.253    "/>
                <polygon fill="#f1de84" points="72.383,51.719 73.055,36.294 46.684,41.609 46.881,58.404    "/>
                <polygon fill="#f1de84" points="46.565,37.749 73.262,32.233 70.449,31.394 43.914,36.536    "/>
                <path fill="#9e6434" d="M 72.242 55.188 L 46.902996 62.188 L 46.624996 37.696 L 73.286995 32.232 L 72.242 55.188 z M 48.426 38.652 L 46.614998 39.034 L 46.622997 41.195 L 48.423996 40.806 L 48.426 38.652 z M 51.256 38.014 L 49.762 38.35 L 49.754 40.496 L 51.24 40.150997 L 51.256 38.014 z M 54.097 37.387 L 52.597 37.719 L 52.576 39.852 L 54.067 39.512 L 54.097 37.387 z M 56.949 36.771 L 55.442 37.095 L 55.405003 39.211002 L 56.903004 38.877003 L 56.949 36.771 z M 59.809 36.161 L 58.299 36.479 L 58.246 38.579 L 59.75 38.253 L 59.809 36.161 z M 62.676 35.56 L 61.162 35.876003 L 61.093998 37.962 L 62.601997 37.641003 L 62.676 35.56 z M 65.551 34.969 L 64.033005 35.282 L 63.953003 37.350002 L 65.465004 37.035004 L 65.551 34.969 z M 68.437 34.387 L 66.912994 34.692 L 66.81799 36.749 L 68.33699 36.435 L 68.437 34.387 z M 73.222 33.449 L 72.564 33.576 L 72.441 35.601 L 73.152 35.458 L 73.222 33.449 z M 71.331 33.816 L 69.802 34.117 L 69.693 36.156002 L 71.214005 35.849003 L 71.331 33.816 z M 48.44 58.251 L 46.866997 58.675 L 46.872997 60.836998 L 48.437996 60.404 L 48.44 58.251 z M 51.154 57.495 L 49.722 57.892 L 49.712 60.038998 L 51.138 59.633 L 51.154 57.495 z M 53.878 56.745 L 52.439 57.141 L 52.418 59.274 L 53.85 58.872997 L 53.878 56.745 z M 56.607 56.008 L 55.167 56.399 L 55.13 58.514 L 56.566 58.118 L 56.607 56.008 z M 59.352 55.281 L 57.905003 55.663998 L 57.852 57.767998 L 59.293 57.373997 L 59.352 55.281 z M 62.101 54.563 L 60.65 54.94 L 60.585003 57.03 L 62.031002 56.641 L 62.101 54.563 z M 64.86 53.852 L 63.403 54.227 L 63.324 56.296 L 64.774 55.915 L 64.86 53.852 z M 67.631 53.146 L 66.168 53.515 L 66.074 55.575 L 67.53 55.197002 L 67.631 53.146 z M 70.408 52.454 L 68.94199 52.817997 L 68.83599 54.860996 L 70.29299 54.485996 L 70.408 52.454 z M 72.372 51.986 L 71.722 52.132 L 71.601 54.159 L 72.315994 53.974 L 72.372 51.986 z M 53.407 41.268 L 46.665 42.794003 L 46.796 57.178 L 53.275 55.503002 L 53.407 41.268 z M 68.688 37.958 L 55.225 40.88 L 55.079 55.134003 L 68.103 51.780003 L 68.688 37.958 z M 73.056 37.068 L 70.591 37.566 L 69.931 51.349003 L 72.402 50.705 L 73.056 37.068 z "/>
                <polygon fill="#9e6434" points="46.625,37.695 43.92,36.478 44.678,60.255 46.92,62.212    "/>
                <polygon fill="#eacf5a" points="46.662,41.191 44.041,39.706 43.965,37.632 46.645,39.046    "/>
                <polygon fill="#eacf5a" points="44.58,57.13 44.651,59.072 46.897,60.837 46.869,58.693    "/>
                <polygon fill="#eacf5a" points="44.098,41.275 44.543,55.68 46.844,57.193 46.666,42.794    "/>
            </g>
        </g>
    </g>
</svg>
