<?xml version="1.0" encoding="UTF-8"?>
<svg xmlns="http://www.w3.org/2000/svg" xmlns:xlink="http://www.w3.org/1999/xlink" contentScriptType="text/ecmascript" width="24" baseProfile="tiny" zoomAndPan="magnify" contentStyleType="text/css" viewBox="-0.5 -0.5 24 24" height="24" preserveAspectRatio="xMidYMid meet" version="1.0">
    <path fill="#656b6b" d="M -0.5 17.5 L 9.5 17.5 C 16.117 17.5 21.5 12.117001 21.5 5.5 L 21.5 -0.5 L -0.5 -0.5 L -0.5 17.5 z " fill-opacity="0.01"/>
    <path fill="#656b6b" d="M -0.5 16.5 L 9.5 16.5 C 15.564 16.5 20.5 11.565001 20.5 5.5 L 20.5 -0.5 L -0.5 -0.5 L -0.5 16.5 z " fill-opacity="0.03"/>
    <path fill="#656b6b" d="M -0.5 15.5 L 9.5 15.5 C 15.014 15.5 19.5 11.014999 19.5 5.5 L 19.5 -0.5 L -0.5 -0.5 L -0.5 15.5 z " fill-opacity="0.04"/>
    <path fill="#656b6b" d="M -0.5 14.5 L 9.5 14.5 C 14.462999 14.5 18.5 10.462999 18.5 5.5 L 18.5 -0.5 L -0.5 -0.5 L -0.5 14.5 z " fill-opacity="0.09"/>
    <path fill="#656b6b" d="M -0.5 13.5 L 9.5 13.5 C 13.910999 13.5 17.5 9.912 17.5 5.5 L 17.5 -0.5 L -0.5 -0.5 L -0.5 13.5 z " fill-opacity="0.08"/>
    <path fill="#656b6b" d="M -0.5 12.5 L 9.5 12.5 C 13.359 12.5 16.5 9.358 16.5 5.5 L 16.5 -0.5 L -0.5 -0.5 L -0.5 12.5 z " fill-opacity="0.1"/>
    <path fill="#656b6b" d="M -0.5 11.5 L 9.5 11.5 C 12.809 11.5 15.5 8.809999 15.5 5.5 L 15.5 -0.5 L -0.5 -0.5 L -0.5 11.5 z " fill-opacity="0.11"/>
    <path fill="#656b6b" d="M -0.5 10.5 L 9.5 10.5 C 12.262 10.5 14.5 8.2630005 14.5 5.5 L 14.5 -0.5 L -0.5 -0.5 L -0.5 10.5 z " fill-opacity="0.1"/>
    <rect x="-0.5" y="-0.5" fill-opacity="0.03" fill="#656b6b" width="15" height="11"/>
    <linearGradient x1="6.5" y1="5" x2="6.5" gradientUnits="userSpaceOnUse" y2="-83.5" xlink:type="simple" xlink:actuate="onLoad" id="_2" xlink:show="other">
        <stop stop-color="#ffbebe" offset="0"/>
        <stop stop-color="#ffffff" offset="1"/>
    </linearGradient>
    <rect x="-0.5" width="14" fill="url(#_2)" y="-0.5" height="10"/>
</svg>
