<?xml version="1.0" encoding="UTF-8"?>
<svg xmlns="http://www.w3.org/2000/svg" xmlns:xlink="http://www.w3.org/1999/xlink" contentScriptType="text/ecmascript" width="100" baseProfile="tiny" zoomAndPan="magnify" contentStyleType="text/css" viewBox="0 0 100 69.047" height="69.047" preserveAspectRatio="xMidYMid meet" version="1.1">
    <g>
        <g>
            <path fill="#ffffff" d="M 80.209 26.787 C 80.209 26.787 80.988 46.861 80.742 49.933 C 80.281 55.613 77.369995 57.648 75.419 58.711998 C 75.419 58.711998 67.525 63.058 61.141 63.5 L 38.349 61.106 C 33.205997 60.04 28.414999 54.01 28.222 51.069 C 27.921 46.567 27.146 27.666 27.146 27.666 L 36.842 23.591 C 36.842 23.591 36.278 15.558 37.996 12.415 C 40.559 7.722 48.289997 5.394 52.982998 5.321 C 58.747997 5.231 65.798996 8.891 68.416 15.428 C 69.479004 18.089 69.302 25.808 69.302 25.808 L 80.209 26.787 z M 45.177 24.127 L 60.432 25.456001 C 60.432 25.456001 61.141 18.185001 58.214 15.432001 C 56.425 13.756001 54.401 12.862001 51.208 12.775002 C 49.08 12.715001 46.063 13.571001 45.442 15.788002 C 44.997 17.385 45.177 24.127 45.177 24.127 z "/>
            <g>
                <polygon fill="#eacf5a" points="28.617,28.232 37.499,24.506 78.527,28.097 69.646,31.82    "/>
            </g>
            <path fill="#3e2a08" d="M 51.807 44.918 C 51.807 44.918 53.457 44.277 54.043 41.508 C 54.416 40.656 54.258 35.008 48.714 34.529 C 46.644 34.349 44.345 36.607998 44.345 39.378 C 44.345 42.574997 46.956 44.440998 46.956 44.440998 L 47.252003 52.796997 L 52.038002 53.218 L 51.807 44.918 z "/>
            <path fill="#3e2a08" d="M 78.348 28.118 L 69.6 31.834 L 70.266 52.364998 C 70.266 52.364998 70.887 57.642 65.298996 60.880997 L 74.182 57.222996 C 79.591995 53.982994 79.014 48.824997 79.014 48.824997 L 78.348 28.118 z "/>
            <path fill="#3e2a08" d="M 43.81 25.767 C 46.092003 26.171 46.818 27.057 45.432003 27.744 C 44.045002 28.432999 41.071003 28.661 38.789 28.258999 C 36.507 27.853998 35.781002 26.973 37.167 26.283998 C 38.552 25.593 41.526 25.364 43.81 25.767 z "/>
            <path fill="#3e2a08" d="M 66.965 27.76 C 69.25 28.197 69.98599 29.105 68.60999 29.786 C 67.230995 30.47 64.26399 30.671999 61.978992 30.234999 C 59.691994 29.798998 58.956993 28.890999 60.333992 28.209 C 61.709 27.525 64.68 27.324 66.965 27.76 z "/>
            <path fill="#3e2a08" d="M 43.62 25.767 C 45.904 26.172 46.629997 27.057 45.242 27.745 C 43.856 28.433 40.884003 28.663 38.6 28.259 C 36.317997 27.857 35.592 26.973001 36.976997 26.285 C 38.365 25.593 41.338 25.364 43.62 25.767 z "/>
            <g>
                <path fill="#cd9f3d" d="M 28.617 28.232 L 69.647995 31.821001 C 69.672 32.588 70.15399 47.156002 70.323 52.27 C 70.493 57.377 66.103 62.092 61.544 61.694 L 38.749 59.7 C 34.478 59.326 29.463001 53.789 29.294 48.68 C 29.123 43.564 28.642 28.997 28.617 28.232 z M 51.764 44.945 C 53.229 44.154 54.18 42.461998 54.114 40.416 C 54.014 37.421 51.774 34.809002 49.102997 34.577 C 46.433 34.343 44.351997 36.576 44.450996 39.57 C 44.515995 41.554 45.529995 43.374 46.977997 44.437 L 47.254997 52.796 L 52.040997 53.218002 L 51.764 44.945 "/>
            </g>
            <linearGradient x1="-253.98" gradientTransform="matrix(1.209 -0.0012 -0.0195 1.1723 351.7956 -386.7213)" y1="345.0254" x2="-229.2627" gradientUnits="userSpaceOnUse" y2="345.0254" xlink:type="simple" xlink:actuate="onLoad" id="XMLID_56_" xlink:show="other">
                <stop stop-color="#f1de84" offset="0"/>
                <stop stop-color="#8e6f3a" offset="1"/>
            </linearGradient>
            <path fill="url(#XMLID_56_)" d="M 44.512 26.328 C 43.873 26.809 43.647 26.949 41.797 27.095999 C 39.002 27.315998 38.025 26.532 38.025 26.532 L 38.032 17.909 C 37.814003 14.72 39.888 11.882 42.030003 10.35 C 44.827003 8.351001 49.998 6.162 55.190002 7.0630007 C 61.950005 8.233001 64.692 11.85 66.065 13.994001 C 67.600006 16.394001 67.565 18.62 67.565 18.62 L 67.716 28.401001 C 67.716 28.401001 66.899 29.091002 65.00101 29.191002 C 61.462006 29.367002 61.184006 28.582003 61.184006 28.582003 C 61.184006 28.582003 61.512005 19.415003 60.735004 17.753002 C 60.038006 16.270002 57.538006 12.318003 51.282005 12.044003 C 45.476006 11.787003 44.407005 16.547003 44.407005 16.547003 C 44.419 15.63 44.512 26.328 44.512 26.328 z "/>
            <path fill="#3e2a08" d="M 41.796 27.095 C 41.796 27.095 41.595 18.236 41.938 17.227 C 43.5 12.639999 48.912 12.176999 48.912 12.176999 C 45.314 13.292999 44.760998 15.241999 44.586 16.439 C 44.411 17.634998 44.511997 26.328 44.511997 26.328 C 43.615 27.093 42.945 27.094 41.796 27.095 z "/>
            <path fill="#ffffff" d="M 16.245 40.999 C 12.942001 40.999 8.416 41.784 7.2700005 48.562 L 7.0980005 49.583 C 7.0980005 49.583 14.709001 49.583 15.611 49.583 C 15.883 50.071 16.291 50.806 16.548 51.274002 C 16.291 51.741 15.883 52.475002 15.611 52.962 C 14.707 52.962 7.0980005 52.962 7.0980005 52.962 L 7.2700005 53.984 C 8.416 60.761 12.942 61.547 16.245 61.547 C 18.85 61.547 21.171001 59.361 23.036001 57.606003 C 24.044 56.655003 24.995 55.760002 25.499 55.760002 L 48.81 55.760002 L 49.069 55.475002 C 49.569 54.926003 50.733 53.418003 50.758 51.309002 L 50.758 51.237003 C 50.732998 49.125004 49.569 47.620003 49.069 47.069004 L 48.808 46.784004 L 25.498 46.784004 C 24.995998 46.784004 24.043 45.891003 23.039 44.944004 C 21.17 43.184 18.85 40.999 16.245 40.999 z "/>
            <path fill="#6e8489" d="M 49.883 51.275 C 49.883 51.265003 49.885 51.255 49.885 51.249 L 49.88 51.249 C 49.859 49.413002 48.805 48.087 48.418 47.663002 C 47.926 47.663002 25.497 47.663002 25.497 47.663002 C 24.644 47.663002 23.72 46.788002 22.433 45.581 C 20.682001 43.932003 18.502 41.878002 16.244 41.878002 C 12.577 41.878002 9.106999 42.954002 8.134999 48.709003 C 9.513 48.709003 16.127998 48.709003 16.127998 48.709003 L 17.548998 51.275 L 16.127998 53.841003 C 16.127998 53.841003 9.513998 53.841003 8.134998 53.841003 C 9.106998 59.595005 12.576998 60.671005 16.244 60.671005 C 18.501999 60.671005 20.682999 58.618004 22.432999 56.968006 C 23.72 55.759007 24.644999 54.886005 25.496998 54.886005 C 25.496998 54.886005 47.927 54.886005 48.418 54.886005 C 48.805 54.463005 49.857998 53.138004 49.88 51.300007 L 49.885002 51.300007 C 49.886 51.293 49.883 51.285 49.883 51.275 z "/>
            <g>
                <rect width="100" fill="none" height="69.047"/>
            </g>
        </g>
    </g>
</svg>
