<?xml version="1.0" encoding="UTF-8"?>
<svg xmlns="http://www.w3.org/2000/svg" xmlns:xlink="http://www.w3.org/1999/xlink" contentScriptType="text/ecmascript" width="60" baseProfile="tiny" zoomAndPan="magnify" contentStyleType="text/css" viewBox="0 0 60 60" height="60" preserveAspectRatio="xMidYMid meet" version="1.1">
    <path fill="#47c30e" d="M 21.129 19.994 C 8.84 32.307 12.503 43.249 14.067 45.298 C 14.888 46.368 15.984 47.809 17.836 49.042 C 18.752 49.65 20.133 49.917 20.537 49.982 L 20.74 50.015 L 20.943 50.003 C 22.929998 49.878 25.026 48.455997 27.728 45.393997 C 28.892998 44.076996 31.520998 40.817997 31.520998 38.308 C 31.523 38.202 31.514996 38.097 31.504995 37.990997 L 31.483995 37.788 L 31.420998 37.598 C 31.331997 37.325 30.923998 36.339 29.500998 35.21 C 28.308998 34.261997 26.674995 33.857 25.498997 33.665 C 25.504995 32.603 25.982996 30.54 28.791996 27.639 L 28.751995 27.654 C 31.647997 24.848 33.722996 24.375 34.778996 24.370998 C 34.969997 25.554998 35.372997 27.193998 36.321995 28.388 C 37.455994 29.807 38.434994 30.218 38.710995 30.304998 L 38.901997 30.374 L 39.104996 30.391998 C 41.651997 30.631998 45.129997 27.829 46.51099 26.613 C 49.567993 23.908998 50.98999 21.81 51.116993 19.804 L 51.12899 19.601 L 51.094994 19.401 C 51.02899 18.998 50.762993 17.615 50.15399 16.702 C 48.916992 14.846 47.477993 13.747999 46.52499 13.021999 C 43.652 10.824 32.538 8.586 21.129 19.994 M 19.811 46.075 C 18.456 45.171 17.647 44.109 16.991 43.255 C 16.582 42.721 15.898001 40.952 15.899001 38.359 C 15.899001 34.484 17.421 28.763 23.649002 22.536 C 34.045 12.119001 43.027 14.833001 44.249 15.766001 C 45.218 16.508001 46.282 17.315 47.191 18.674 C 47.285004 18.826 47.426003 19.294 47.521004 19.734 C 47.418003 20.329 46.833004 21.569 44.150005 23.943 C 42.05201 25.792 40.383007 26.624 39.693005 26.779 C 39.546005 26.654 39.349003 26.468 39.109005 26.165998 C 38.490005 25.383 38.202003 23.558998 38.159004 22.794 L 38.099003 21.811998 L 37.238003 21.329 C 36.775 21.075 32.543003 19.027 26.275002 25.093 L 26.254002 25.113998 L 26.232002 25.159998 C 22.715002 28.794 21.916002 31.743998 21.918003 33.67 C 21.918003 35.063 22.334003 35.92 22.439005 36.113 L 22.914003 36.992 L 23.912004 37.045 C 24.674002 37.086 26.497002 37.377003 27.280005 37.998 C 27.581003 38.236 27.769005 38.434 27.894005 38.582 C 27.737003 39.273003 26.911003 40.939 25.057005 43.039 C 22.683002 45.723 21.459003 46.309 20.873005 46.408 C 20.43 46.313 19.964 46.175 19.811 46.075 "/>
    <rect width="60" fill="none" height="60"/>
</svg>
