<?xml version="1.0" encoding="UTF-8"?>
<svg xmlns="http://www.w3.org/2000/svg" xmlns:xlink="http://www.w3.org/1999/xlink" contentScriptType="text/ecmascript" zoomAndPan="magnify" baseProfile="tiny" contentStyleType="text/css" version="1.1" width="84px" preserveAspectRatio="xMidYMid meet" viewBox="0 0 84 72" height="72px" x="0px" y="0px">
    <g>
        <g>
            <g>
                <g>
                    <g>
                        <polygon fill="#ffffff" points="60.361,67.156 75.885,17.888 55.864,14.765 56.006,8.941 34.708,5.961 28.075,8.054        25.008,18.421 17.892,17.117 8.014,20.585 16.062,53.527      "/>
                        <g>
                            <polygon fill="#cd9f3d" points="18.033,51.055 30.322,9.326 50.313,12.529 50.167,18.725 68.924,21.871 58.704,63.213               "/>
                            <polygon fill="#c4a64a" points="58.706,62.818 17.834,51.035 11.094,21.914 51.782,30.07       "/>
                            <polygon fill="#f1de84" points="58.665,26.327 18.088,19.363 11.094,21.914 51.782,30.07       "/>
                            <polygon fill="#f1de84" points="53.781,10.77 34.735,7.98 30.211,9.258 50.313,12.529       "/>
                            <polygon fill="#f1de84" points="72.991,19.758 53.55,16.825 50.167,18.725 68.924,21.871       "/>
                            <polygon fill="#3e2a08" points="58.665,26.327 58.709,63.529 51.782,30.07       "/>
                            <polygon fill="#3e2a08" points="72.991,19.758 58.709,63.529 68.924,21.871       "/>
                            <polygon fill="#3e2a08" points="50.313,12.529 50.167,18.725 53.55,16.825 53.781,10.77       "/>
                            <linearGradient x1="-578.6396" gradientTransform="matrix(8.3335 -0.5222 0 8.3335 4852.4268 44.4007)" y1="-33.855" x2="-576.4837" gradientUnits="userSpaceOnUse" y2="-37.3765" xlink:type="simple" xlink:actuate="onLoad" id="SVGID_1_" xlink:show="other">
                                <stop stop-color="#eacf5a" offset="0"/>
                                <stop stop-color="#cd9f3d" offset="1"/>
                            </linearGradient>
                            <polygon fill="url(#SVGID_1_)" points="18.033,51.055 25.615,25.151 51.794,30.319 58.709,63.529       "/>
                        </g>
                    </g>
                </g>
            </g>
        </g>
        <linearGradient x1="21.6807" y1="18.4238" x2="41.7759" gradientUnits="userSpaceOnUse" y2="59.4512" xlink:type="simple" xlink:actuate="onLoad" id="SVGID_2_" xlink:show="other">
            <stop stop-color="#b0381e" offset="0"/>
            <stop stop-color="#5c1001" offset="1"/>
        </linearGradient>
        <path fill="url(#SVGID_2_)" d="M 41.2 30.646 L 39.293 30.181 L 39.737 32.648 L 37.828 32.170998 L 37.379997 29.718 L 35.468 29.263 L 36.376 34.154 L 26.397 31.693 L 26.75 34.078 L 36.827 36.607 L 39.052 48.958 L 28.687998 46.021 L 26.966995 37.107 C 26.711998 38.363003 25.925997 39.500004 24.698996 40.263 C 24.645998 40.296 24.589998 40.314 24.536997 40.343 L 25.861998 40.693 L 26.332998 43.095 L 24.436998 42.589 L 24.040998 40.593 C 23.492998 40.845 22.923998 41.013 22.342 41.101 L 24.426998 51.661003 L 26.309998 52.212 L 25.841995 49.79 L 27.726995 50.333 L 28.187998 52.759 L 30.065998 53.315 L 29.146996 48.449997 L 39.489 51.445995 L 40.363 56.431995 L 42.232 57.015995 L 41.795 54.502995 L 43.668 55.078995 L 44.098 57.599995 L 45.962 58.189995 L 41.2 30.646 z M 25.378 47.391 L 24.907 44.989 L 26.8 45.507 L 27.262 47.915 L 25.378 47.391 z M 38.279 34.635 L 40.18 35.114 L 40.621 37.593 L 38.723003 37.097 L 38.279 34.635 z M 39.613 42.042 L 39.171 39.566 L 41.066 40.074997 L 41.504 42.56 L 39.613 42.042 z M 40.492 47.012 L 40.054 44.524 L 41.94 45.053 L 42.378 47.555 L 40.492 47.012 z M 41.369 52.003 L 40.93 49.504997 L 42.808 50.054996 L 43.244 52.564995 L 41.369 52.003 z "/>
        <linearGradient x1="16.8242" y1="20.8027" x2="36.9194" gradientUnits="userSpaceOnUse" y2="61.8301" xlink:type="simple" xlink:actuate="onLoad" id="SVGID_3_" xlink:show="other">
            <stop stop-color="#b0381e" offset="0"/>
            <stop stop-color="#5c1001" offset="1"/>
        </linearGradient>
        <path fill="url(#SVGID_3_)" d="M 21.074 25.518 L 22.596 33.52 C 21.551998 33.332 20.360998 33.526 19.425 34.122 C 17.82 35.143 17.585 36.932003 18.648998 38.195 C 19.711998 39.459 22.040998 39.541 23.643995 38.517 C 24.866997 37.738 25.308998 36.546 24.984997 35.463997 L 25.003996 35.465996 C 25.003996 35.465996 24.133995 30.897997 23.740995 28.826996 C 25.153996 29.527996 26.887997 30.385996 26.887997 30.385996 L 27.476995 28.686996 L 21.074 25.518 z "/>
    </g>
</svg>
