<?xml version="1.0" encoding="UTF-8"?>
<svg xmlns="http://www.w3.org/2000/svg" xmlns:xlink="http://www.w3.org/1999/xlink" contentScriptType="text/ecmascript" width="44" baseProfile="tiny" zoomAndPan="magnify" contentStyleType="text/css" viewBox="0 0 44 44" height="44" preserveAspectRatio="xMidYMid meet" version="1.1">
    <path fill="#cc5d15" d="M 35.748 29.885 C 35.748 33.123 33.127003 35.748 29.889 35.748 L 14.111 35.748 C 10.873 35.748 8.25 33.123 8.25 29.885002 L 8.25 14.116 C 8.25 10.876 10.873 8.251 14.111 8.251 L 29.889 8.251 C 33.126 8.251 35.747 10.876 35.747 14.116 L 35.748 29.885 L 35.748 29.885 z "/>
    <path fill="#f49c52" d="M 35.26 29.604 C 35.26 32.727 32.726997 35.260002 29.607998 35.260002 L 14.393 35.260002 C 11.271999 35.260002 8.740999 32.727 8.740999 29.604002 L 8.740999 14.396 C 8.740999 11.273 11.271999 8.742001 14.393 8.742001 L 29.606998 8.742001 C 32.725998 8.742001 35.259 11.273001 35.259 14.396 L 35.259 29.604 z "/>
    <linearGradient x1="33.0361" gradientTransform="matrix(1 0 0 -1 0.1377 42.834)" y1="9.6616" x2="10.6895" gradientUnits="userSpaceOnUse" y2="32.0083" xlink:type="simple" xlink:actuate="onLoad" id="XMLID_8_" xlink:show="other">
        <stop stop-color="#d95b29" offset="0"/>
        <stop stop-color="#de642b" offset="0.11"/>
        <stop stop-color="#ea7c31" offset="0.3"/>
        <stop stop-color="#fb9e3a" offset="0.5"/>
        <stop stop-color="#f69537" offset="0.65"/>
        <stop stop-color="#ea7d31" offset="0.89"/>
        <stop stop-color="#e3702d" offset="1"/>
    </linearGradient>
    <path fill="url(#XMLID_8_)" d="M 34.766 29.322 C 34.766 32.328 32.329998 34.769 29.325998 34.769 L 14.676 34.769 C 11.667999 34.769 9.230999 32.328003 9.230999 29.322 L 9.230999 14.677 C 9.230999 11.671 11.668999 9.23 14.675999 9.23 L 29.323997 9.23 C 32.329998 9.23 34.765 11.671 34.765 14.677 L 34.765 29.322 L 34.766 29.322 z "/>
    <path fill="#ffffff" d="M 18.031 28.365 C 18.031 29.72 16.931 30.82 15.576 30.82 C 14.219 30.82 13.123 29.72 13.123 28.365 C 13.123 27.006 14.219 25.907999 15.576 25.907999 C 16.932 25.908 18.031 27.006 18.031 28.365 z "/>
    <path fill="#ffffff" d="M 13.127 22.175 C 15.424 22.175 17.588 23.071999 19.213 24.705 C 20.84 26.342 21.737999 28.519 21.737999 30.838 L 25.280998 30.838 C 25.280998 24.108 19.828 18.63 13.126998 18.63 L 13.126998 22.175 z "/>
    <path fill="#ffffff" d="M 13.129 15.89 C 21.326 15.89 27.998001 22.599 27.998001 30.844002 L 31.541 30.844002 C 31.541 20.642002 23.281 12.347002 13.129 12.347002 L 13.129 15.89 z "/>
</svg>
