<?xml version="1.0" encoding="UTF-8"?>
<svg xmlns="http://www.w3.org/2000/svg" xmlns:xlink="http://www.w3.org/1999/xlink" contentScriptType="text/ecmascript" width="50" baseProfile="tiny" zoomAndPan="magnify" contentStyleType="text/css" viewBox="0 0 50 50" height="50" preserveAspectRatio="xMidYMid meet" version="1.1">
    <linearGradient x1="24.8638" gradientTransform="matrix(1 0 0 -1 0.1377 48.834)" y1="23.4844" x2="24.8638" gradientUnits="userSpaceOnUse" y2="5.2844" xlink:type="simple" xlink:actuate="onLoad" id="XMLID_108_" xlink:show="other">
        <stop stop-color="#b3ddff" offset="0"/>
        <stop stop-color="#8cc2ea" offset="1"/>
    </linearGradient>
    <path fill="url(#XMLID_108_)" d="M 43.671 25.0 C 43.671 35.311 35.313004 43.669 25.000002 43.669 C 14.687 43.669 6.332 35.311 6.332 25.0 L 5.254 25.0 C 5.254 35.887 14.111 44.743 25.0 44.743 C 35.889 44.743 44.748 35.887 44.748 25.0 L 43.671 25.0 z "/>
    <path d="M 3.215 25.834 C 3.215 38.307 13.363 48.451 25.834 48.451 C 38.307 48.451 48.453 38.305 48.453 25.834 C 48.453 13.361 38.307 3.2129993 25.834 3.2129993 C 13.363 3.213 3.215 13.361 3.215 25.834 z " fill-opacity="0.01"/>
    <path d="M 4.201 25.834 C 4.201 37.762 13.907001 47.465 25.834 47.465 C 37.764 47.465 47.466 37.762 47.466 25.834 C 47.466 13.905 37.764 4.202999 25.834 4.202999 C 13.906 4.203 4.201 13.905 4.201 25.834 z " fill-opacity="0.02"/>
    <path d="M 5.188 25.834 C 5.188 37.215 14.451 46.476997 25.834 46.476997 C 37.221 46.476997 46.476997 37.214996 46.476997 25.833998 C 46.476997 14.446998 37.220997 5.1889973 25.833998 5.1889973 C 14.451 5.189 5.188 14.447 5.188 25.834 z " fill-opacity="0.04"/>
    <path d="M 6.021 25.834 C 6.021 36.757 14.908999 45.642998 25.834 45.642998 C 36.757 45.642998 45.645 36.756996 45.645 25.833998 C 45.645 14.909998 36.757 6.0219975 25.834 6.0219975 C 14.91 6.022 6.021 14.91 6.021 25.834 z " fill-opacity="0.07"/>
    <path d="M 6.855 25.834 C 6.855 36.297 15.368 44.810997 25.834 44.810997 C 36.298 44.810997 44.810997 36.296997 44.810997 25.833998 C 44.810997 15.368998 36.297997 6.8549976 25.833998 6.8549976 C 15.369 6.855 6.855 15.369 6.855 25.834 z " fill-opacity="0.11"/>
    <path d="M 7.688 25.834 C 7.688 35.837997 15.828001 43.976997 25.834 43.976997 C 35.837997 43.976997 43.976997 35.837997 43.976997 25.833998 C 43.976997 15.827998 35.837997 7.6889973 25.833998 7.6889973 C 15.828 7.689 7.688 15.828 7.688 25.834 z " fill-opacity="0.13"/>
    <linearGradient x1="25.0005" y1="6.332" x2="25.0005" gradientUnits="userSpaceOnUse" y2="43.6704" xlink:type="simple" xlink:actuate="onLoad" id="XMLID_109_" xlink:show="other">
        <stop stop-color="#ffffff" offset="0"/>
        <stop stop-color="#b0381e" offset="1"/>
    </linearGradient>
    <circle fill="url(#XMLID_109_)" r="18.669" cx="25.001" cy="25.001"/>
    <ellipse fill-opacity="0.3" fill="#cfecff" rx="16.128" cx="25.001" ry="13.164" cy="25.021"/>
    <linearGradient x1="24.8638" gradientTransform="matrix(1 0 0 -1 0.1377 48.834)" y1="43.2139" x2="24.8638" gradientUnits="userSpaceOnUse" y2="4.4943" xlink:type="simple" xlink:actuate="onLoad" id="XMLID_110_" xlink:show="other">
        <stop stop-color="#b0381e" offset="0"/>
        <stop stop-color="#5c1001" offset="1"/>
    </linearGradient>
    <path fill="url(#XMLID_110_)" d="M 25.0 5.256 C 14.111 5.256 5.2539997 14.113001 5.2539997 25.001001 C 5.2539997 35.887 14.111 44.743004 25.0 44.743004 C 35.889 44.743004 44.748 35.887005 44.748 25.001003 C 44.748 14.113 35.889 5.256 25.0 5.256 z M 25.0 43.668 C 14.687 43.668 6.3320007 35.313 6.3320007 25.001 C 6.332 14.689 14.687 6.33 25.0 6.33 C 35.313 6.33 43.670998 14.689 43.670998 25.001 C 43.671 35.313 35.313 43.668 25.0 43.668 z "/>
    <polygon fill="#800000" points="25.557,18.084 25.557,34.121 36.475,26.089 "/>
    <rect x="18.316" width="4.09" fill="#800000" y="18.091" height="16.028"/>
</svg>
