<?xml version="1.0" encoding="UTF-8"?>
<svg xmlns="http://www.w3.org/2000/svg" xmlns:xlink="http://www.w3.org/1999/xlink" contentScriptType="text/ecmascript" width="40" baseProfile="tiny" zoomAndPan="magnify" contentStyleType="text/css" viewBox="0 0 40 50" height="50" preserveAspectRatio="xMidYMid meet" version="1.1">
    <rect width="40" fill="none" height="50"/>
    <path fill="#ad832f" d="M 38.198 49.5 L 1.801 49.5 C 1.083 49.5 0.5 48.788 0.5 47.91 L 6.997 2.091 C 6.997 1.213 7.58 0.5 8.298 0.5 L 31.628 0.5 C 32.348 0.5 32.93 1.213 32.93 2.091 L 39.5 47.91 C 39.5 48.788 38.915 49.5 38.198 49.5 L 38.198 49.5 z "/>
    <path fill="#eacf5a" d="M 39.421 48.438 L 32.939 3.234 L 32.926 3.164 L 32.926 3.091 C 32.926 2.73 32.73 2.5010002 32.625 2.5010002 L 9.297 2.5010002 C 9.194 2.5010002 8.998 2.7300005 8.998 3.091 L 8.998 3.161 L 8.988 3.231 L 2.502 48.966 C 2.521 49.294 2.704 49.5 2.801 49.5 L 38.198 49.5 C 38.764 49.5 39.242 49.055 39.421 48.438 z "/>
</svg>
