<?xml version="1.0" encoding="UTF-8"?>
<svg xmlns="http://www.w3.org/2000/svg" xmlns:xlink="http://www.w3.org/1999/xlink" contentScriptType="text/ecmascript" width="84" baseProfile="tiny" zoomAndPan="magnify" contentStyleType="text/css" viewBox="0 0 84 58" height="58" preserveAspectRatio="xMidYMid meet" version="1.1">
    <g>
        <g>
            <g>
                <polygon fill="#ffffff" points="22.355,40.663 20.039,6.038 23.764,4.43 72.479,12.38 71.07,49.824 67.243,53.447    "/>
                <polygon fill="#ad832f" points="66.542,51.135 69.066,48.542 70.41,13.592 67.129,15.267    "/>
                <polygon fill="#cd9f3d" points="23.343,39.617 21.405,6.523 67.129,15.267 66.563,51.096    "/>
                <polygon fill="#cd9f3d" points="23.343,39.617 66.463,51.117 47.65,29.26 40.661,27.449    "/>
                <linearGradient x1="-187.356" gradientTransform="matrix(1 0 0 -1 0 57)" y1="375.9863" x2="350.6947" gradientUnits="userSpaceOnUse" y2="-467.8203" xlink:type="simple" xlink:actuate="onLoad" id="XMLID_6_" xlink:show="other">
                    <stop stop-color="#b0381e" offset="0"/>
                    <stop stop-color="#822519" offset="1"/>
                </linearGradient>
                <polygon fill="url(#XMLID_6_)" points="23.363,39.605 40.661,27.449 46.986,28.488 66.563,51.096 45.049,20.676    "/>
                <polygon fill="#eacf5a" points="70.41,13.592 24.134,5.729 21.388,6.531 67.129,15.267    "/>
                <polygon fill="#822519" points="21.473,6.825 40.307,34.617 67.129,15.267 67.184,16.521 41.197,39.852    "/>
                <linearGradient x1="34.3467" gradientTransform="matrix(0.9846 -0.0724 -0.0146 -1.0146 -7.7011 37.0221)" y1="12.0537" x2="58.2627" gradientUnits="userSpaceOnUse" y2="17.3152" xlink:type="simple" xlink:actuate="onLoad" id="XMLID_7_" xlink:show="other">
                    <stop stop-color="#e0bc6c" offset="0"/>
                    <stop stop-color="#cd9f3d" offset="1"/>
                </linearGradient>
                <polygon fill="url(#XMLID_7_)" points="21.388,6.531 40.311,35.122 67.129,15.267    "/>
                <linearGradient x1="46.4805" y1="9.6382" x2="39.6055" gradientUnits="userSpaceOnUse" y2="58.3882" xlink:type="simple" xlink:actuate="onLoad" id="XMLID_8_" xlink:show="other">
                    <stop stop-color="#9e6434" offset="0"/>
                    <stop stop-color="#b0381e" offset="0.5"/>
                    <stop stop-color="#822519" offset="1"/>
                </linearGradient>
                <path fill="url(#XMLID_8_)" d="M 56.448 28.846 C 56.719 30.111 56.552002 32.801003 56.390003 33.327 L 53.523003 32.992 C 53.502003 33.058002 53.279003 33.955 53.209003 34.131 L 55.667004 35.949 C 55.385002 36.969 54.253002 38.797 53.557003 39.486 C 53.530003 39.467 51.264004 37.777 51.184002 37.724 C 51.003002 37.975998 50.407 38.531 50.401 38.537 L 51.737 41.282997 C 50.846 42.053997 48.966 42.947 48.245 43.105995 L 46.932 40.423996 C 46.536 40.573997 46.045998 40.648994 45.68 40.681995 L 45.662 43.550995 C 44.977997 43.648994 42.657997 43.513996 41.709 43.154995 L 41.668 40.266994 C 41.116 40.120995 40.580997 39.795994 40.57 39.787994 L 39.289 42.166996 C 38.698 41.926994 36.377003 40.301994 35.824 39.568996 L 37.08 37.170998 C 36.803 36.930996 36.266003 36.322 36.128002 36.055996 L 33.988003 37.264996 C 33.321003 36.502995 32.207005 34.194996 31.910004 33.106995 L 34.088005 31.883995 C 34.088005 31.875996 33.793007 30.805996 33.787006 30.490995 L 31.124006 30.135996 C 30.995007 28.992996 30.865005 26.214996 30.976006 25.472996 L 33.664005 25.849997 C 33.657005 25.647997 33.886005 24.557997 33.889004 24.543997 L 31.592003 22.670998 C 31.670002 22.186998 32.922005 19.681997 33.532 19.147997 L 35.783 20.836996 C 35.824 20.701996 36.704002 19.959995 36.713 19.949997 L 35.325 17.297997 C 36.062 16.783997 37.75 15.807997 38.823 15.4229965 L 40.260002 18.250996 C 40.268 18.246996 41.151 18.049995 41.378002 18.049995 L 41.339 15.058995 C 42.522 15.077995 44.697002 15.440995 45.505 15.741995 L 45.542 18.700994 C 45.674 18.737995 46.747 19.233994 46.848 19.296995 L 48.221 16.882996 C 49.559002 17.587996 51.61 19.304996 51.862 19.653996 L 50.428 22.090996 C 50.438 22.102995 51.205 23.063995 51.249 23.141996 C 51.332 23.108995 53.699 21.970997 53.723 21.957996 C 54.524 22.936996 55.588 25.106997 55.825 26.050997 L 53.304 27.268997 C 53.273003 27.252996 53.551003 28.407997 53.556 28.480997 L 56.448 28.846 z M 40.975 22.712 C 37.739998 23.809 36.316998 27.85 37.781 31.686 C 39.222 35.49 42.964996 37.561 46.153 36.358 C 49.356 35.175003 50.834 31.256 49.436 27.558002 C 48.027 23.825 44.229 21.637 40.975 22.712 z "/>
                <g>
                    <g>
                        <linearGradient x1="60.6172" y1="15.6074" x2="57.4512" gradientUnits="userSpaceOnUse" y2="22.1904" xlink:type="simple" xlink:actuate="onLoad" id="XMLID_9_" xlink:show="other">
                            <stop stop-color="#9e6434" offset="0"/>
                            <stop stop-color="#b0381e" offset="0.5"/>
                            <stop stop-color="#822519" offset="1"/>
                        </linearGradient>
                        <path fill="url(#XMLID_9_)" d="M 55.075 24.21 L 49.637 28.236 C 50.022 29.598 50.048 30.958 49.739002 32.184 L 49.991 31.956999 L 54.895 37.62 C 55.244 37.016 55.541 36.402 55.667 35.947998 L 53.209 34.129997 C 53.279 33.956997 53.503998 33.059 53.523 32.990997 L 53.792 33.020996 L 51.854 30.281996 L 53.823 28.515995 L 53.553 28.481995 C 53.548 28.410995 53.27 27.253994 53.301003 27.267994 L 55.822002 26.051994 C 55.715 25.62 55.426 24.927 55.075 24.21 z "/>
                    </g>
                    <path fill="#822519" d="M 31.591 22.674 L 32.661 23.551 L 31.761 22.189001 C 31.673 22.401 31.605 22.584 31.591 22.674 z "/>
                </g>
                <g>
                    <linearGradient x1="48.9492" y1="9.9961" x2="45.7832" gradientUnits="userSpaceOnUse" y2="16.5791" xlink:type="simple" xlink:actuate="onLoad" id="XMLID_10_" xlink:show="other">
                        <stop stop-color="#9e6434" offset="0"/>
                        <stop stop-color="#b0381e" offset="0.5"/>
                        <stop stop-color="#822519" offset="1"/>
                    </linearGradient>
                    <path fill="url(#XMLID_10_)" d="M 37.778 31.686 C 37.679 31.432001 37.6 31.175001 37.527 30.918001 L 33.755 25.219002 C 33.704002 25.492002 33.658 25.765001 33.663002 25.858002 L 32.761 25.731 L 34.904003 29.317001 L 33.606003 30.475002 L 33.786003 30.498003 C 33.793003 30.812002 34.088 31.881002 34.088 31.891003 L 31.908 33.112003 C 31.94 33.229004 31.985 33.371002 32.037003 33.512005 L 35.821003 30.854004 L 41.197002 39.854004 L 44.74 36.672005 C 41.927 36.916 39.011 34.938 37.778 31.686 z "/>
                </g>
                <rect width="84" fill="none" height="58"/>
            </g>
        </g>
        <g>
            <path fill="#ffffff" d="M 13.229 34.571 C 10.448 34.571 6.637 35.231 5.672 40.957 L 5.527 41.818 C 5.527 41.818 11.933001 41.818 12.693 41.818 C 12.922 42.234 13.264999 42.851 13.481999 43.248 C 13.264999 43.641003 12.921999 44.258 12.693 44.675003 C 11.933 44.675003 5.527 44.675003 5.527 44.675003 L 5.672 45.537003 C 6.637 51.257004 10.4470005 51.921 13.229 51.921 C 15.421 51.921 17.375 50.076 18.945 48.592003 C 19.796 47.791004 20.595 47.036003 21.018 47.036003 L 40.642 47.036003 L 40.863 46.794003 C 41.282997 46.329002 42.263 45.061 42.285 43.277004 L 42.285 43.214005 C 42.264 41.432003 41.283 40.161003 40.863 39.698006 L 40.642 39.456005 L 21.019 39.456005 C 20.595999 39.456005 19.793999 38.701004 18.949 37.900005 C 17.376 36.415 15.423 34.571 13.229 34.571 z "/>
            <path fill="#6e8489" d="M 41.548 43.248 C 41.548 43.24 41.55 43.23 41.55 43.225002 L 41.545998 43.225002 C 41.525997 41.676003 40.64 40.556004 40.314 40.199 C 39.902 40.199 21.019 40.199 21.019 40.199 C 20.3 40.199 19.522999 39.460003 18.439 38.442 C 16.966 37.046 15.129999 35.312 13.23 35.312 C 10.143999 35.312 7.2199993 36.221 6.4019995 41.081 C 7.5619993 41.081 13.131 41.081 13.131 41.081 L 14.325999 43.249 L 13.131 45.413002 C 13.131 45.413002 7.5629997 45.413002 6.4019995 45.413002 C 7.2199993 50.272003 10.141999 51.183002 13.23 51.183002 C 15.129999 51.183002 16.966 49.448 18.439 48.055004 C 19.522999 47.035004 20.302 46.295006 21.019 46.295006 C 21.019 46.295006 39.902 46.295006 40.314 46.295006 C 40.64 45.940006 41.527 44.818005 41.545998 43.270004 L 41.55 43.270004 C 41.55 43.262 41.548 43.253 41.548 43.248 z "/>
        </g>
    </g>
</svg>
