<?xml version="1.0" encoding="UTF-8"?>
<svg xmlns="http://www.w3.org/2000/svg" xmlns:xlink="http://www.w3.org/1999/xlink" contentScriptType="text/ecmascript" width="332" baseProfile="tiny" zoomAndPan="magnify" contentStyleType="text/css" viewBox="0 0 332 126" height="126" preserveAspectRatio="xMidYMid meet" version="1.1">
    <g>
        <g>
            <path d="M 22.0 10.0 C 16.777 10.271 11.895 12.468 8.183 16.176 C 4.196 20.16 2.0 25.46 2.0 31.1 L 2.0 98.875 C 2.0 109.752 10.875 120.0 22.847 120.0 C 23.5 120.0 304.89398 120.0 304.89398 120.0 C 318.738 120.0 330.0 108.734 330.0 94.885 L 330.0 31.1 C 330.0 25.461 327.802 20.161 323.811 16.174 C 319.818 12.186 314.51102 9.992 308.871 10.0 L 22.0 10.0 z " fill-opacity="0.01"/>
            <path d="M 23.0 11.01 C 17.67 11.0390005 12.661 13.115 8.89 16.883 C 5.092 20.678 3.0 25.727 3.0 31.1 L 3.0 98.875 C 3.0 109.625 11.875 119.0 22.898 119.0 C 26.125 119.0 304.89502 119.0 304.89502 119.0 C 318.188 119.0 329.0 108.182 329.0 94.885 L 329.0 31.1 C 329.0 25.729 326.906 20.68 323.104 16.881 C 319.299 13.082001 314.246 10.993 308.87302 11.0 L 23.0 11.01 z " fill-opacity="0.02"/>
            <path d="M 23.107 12.0 C 18.002 12.0 13.205 13.985 9.596001 17.59 C 5.988 21.197 4.0 25.994 4.0 31.1 L 4.0 98.875 C 4.0 109.0 12.25 118.0 22.949 118.0 C 23.5 118.0 304.894 118.0 304.894 118.0 C 317.635 118.0 328.0 107.631 328.0 94.885 L 328.0 31.1 C 328.0 25.996 326.01 21.198 322.396 17.589 C 318.781 13.979001 313.977 11.994001 308.872 12.0 L 23.107 12.0 z " fill-opacity="0.03"/>
            <path d="M 23.107 13.0 C 18.269001 13.0 13.722 14.8810005 10.303 18.298 C 6.884 21.715 5.0 26.262 5.0 31.1 L 5.0 98.875 C 5.0 108.205 12.5 117.0 23.125 116.996 C 23.75 116.996 304.895 117.0 304.895 117.0 C 317.084 117.0 327.0 107.08 327.0 94.885 L 327.0 31.1 C 327.0 26.264 325.114 21.717 321.689 18.297 C 318.262 14.875001 313.711 12.994001 308.873 13.000001 L 23.107 13.000001 z " fill-opacity="0.06"/>
            <path d="M 308.875 14.0 L 41.375 14.0 L 23.231 14.0 C 13.783 14.0 6.0 21.647 6.0 31.1 L 6.002 98.875 C 6.002 107.734 13.375 116.0 23.125 116.0 L 303.9 116.0 L 304.89398 116.0 C 316.532 116.0 326.0 106.527 326.0 94.885 L 326.0 31.1 C 326.0 21.647 318.322 13.988 308.875 14.0 z " fill-opacity="0.05"/>
            <path d="M 308.25 15.0 L 23.231 15.0 C 13.783 15.0 7.0 21.647 7.0 31.1 L 7.001 97.875 C 7.0 107.0 13.5 115.0 24.079 114.998 L 304.895 115.0 C 315.98 115.0 325.0 105.977 325.0 94.885 L 325.0 31.1 C 325.0 21.647 317.25 15.0 308.25 15.0 z " fill-opacity="0.1"/>
            <path d="M 307.25 16.0 L 23.231 16.0 C 13.783 16.0 8.0 21.647 8.0 31.1 L 8.001 96.875 C 8.0 105.875 13.125 114.0 25.107 114.0 C 25.625 114.0 304.895 114.0 304.895 114.0 C 315.43 114.0 324.0 105.426 324.0 94.885 L 324.0 31.1 C 324.0 21.647 316.25 16.0 307.25 16.0 z " fill-opacity="0.1"/>
            <path d="M 306.375 17.0 L 24.25 17.0 C 14.802 17.0 9.0 21.647 9.0 31.1 L 9.001 95.885 C 9.0 104.75 12.875 113.0 26.125 113.0 L 304.895 113.0 C 314.878 113.0 323.0 104.873 323.0 94.885 L 323.0 31.1 C 323.0 21.647 315.0 17.0 306.375 17.0 z " fill-opacity="0.1"/>
            <linearGradient x1="163.9995" y1="14.5" x2="163.9995" gradientUnits="userSpaceOnUse" y2="106.5" xlink:type="simple" xlink:actuate="onLoad" id="XMLID_2_" xlink:show="other">
                <stop stop-color="#ffffff" offset="0"/>
                <stop stop-color="#ffe7e6" offset="1"/>
            </linearGradient>
            <path fill="url(#XMLID_2_)" d="M 304.895 14.0 L 23.106 14.0 C 13.658 14.0 6.0 21.647 6.0 31.1 L 6.0 94.885 C 6.0 104.336 13.658 112.0 23.106 112.0 L 304.895 112.0 C 314.341 112.0 321.999 104.336 321.999 94.885 L 321.999 31.1 C 322.0 21.647 314.342 13.988 304.895 14.0 z "/>
            <rect width="332" fill="none" height="126"/>
        </g>
    </g>
</svg>
