<?xml version="1.0" encoding="UTF-8"?>
<svg xmlns="http://www.w3.org/2000/svg" xmlns:xlink="http://www.w3.org/1999/xlink" contentScriptType="text/ecmascript" width="84" baseProfile="tiny" zoomAndPan="magnify" contentStyleType="text/css" viewBox="0 0 84 58" height="58" preserveAspectRatio="xMidYMid meet" version="1.1">
    <g>
        <g>
            <g>
                <path fill="#ffffff" d="M 47.591 4.443 L 49.839 6.046 L 49.839 11.064 C 50.75 11.62 52.172 12.625 53.529 13.043 C 58.649998 13.095 66.313995 11.386001 71.726 8.085 L 77.377 7.929 C 77.063995 23.397 74.254 49.543 52.398 52.523003 C 50.413998 52.001003 46.05 48.65 45.187 44.474003 C 45.187 44.474003 44.247 46.984 42.47 48.550003 C 31.39 49.7 22.194 45.102 14.459 31.758 C 13.099999 24.196999 14.1449995 11.3429985 25.747 14.164 C 37.349 16.986 37.244 10.191999 37.244 10.191999 L 41.32 16.881 L 40.693 9.669001 C 40.346 6.255 43.202 4.966 47.591 4.443 z "/>
                <g>
                    <g>
                        <g>
                            <linearGradient x1="4.0601" gradientTransform="matrix(0.9996 0.0266 0.0266 -0.9996 15.285 16.7302)" y1="-15.2534" x2="35.5422" gradientUnits="userSpaceOnUse" y2="-30.0405" xlink:type="simple" xlink:actuate="onLoad" id="XMLID_10_" xlink:show="other">
                                <stop stop-color="#ad832f" offset="0"/>
                                <stop stop-color="#704d18" offset="0.5674"/>
                                <stop stop-color="#3e2a08" offset="1"/>
                            </linearGradient>
                            <path fill="url(#XMLID_10_)" d="M 16.288 23.566 L 42.593002 41.453 L 41.680004 46.166 C 28.593004 48.236 21.042004 39.047 16.534004 31.199001 C 15.97 28.623 16.288 23.566 16.288 23.566 z "/>
                            <path fill="#704d18" d="M 41.68 46.166 C 41.68 46.166 46.219 41.627 46.009 34.467 L 42.454 41.958 L 41.68 46.166 z "/>
                            <radialGradient gradientTransform="matrix(0.7934 0.0686 0.0686 -0.7934 -23.4405 -83.5278)" gradientUnits="userSpaceOnUse" xlink:type="simple" r="30.3377" xlink:actuate="onLoad" cx="93.5957" id="XMLID_11_" cy="-118.1338" xlink:show="other">
                                <stop stop-color="#e0bc6c" offset="0"/>
                                <stop stop-color="#ad832f" offset="1"/>
                            </radialGradient>
                            <path fill="url(#XMLID_11_)" d="M 19.045 17.034 C 23.449 12.530001 35.245003 19.747 37.218002 13.076 C 51.43 34.216 44.771 40.02 42.42 41.98 C 26.986 45.061 16.667 17.984 19.045 17.034 z "/>
                            <path fill="#ad832f" d="M 19.221 16.912 C 23.919 28.113 29.375 36.273 42.42 41.98 C 26.610998 45.648 16.287998 23.564999 16.287998 23.564999 C 16.503 20.624 18.154 17.683 19.221 16.912 z "/>
                        </g>
                        <g>
                            <linearGradient x1="38.9526" gradientTransform="matrix(1 0 0 -1 0 57)" y1="35.5625" x2="26.8315" gradientUnits="userSpaceOnUse" y2="27.7511" xlink:type="simple" xlink:actuate="onLoad" id="XMLID_12_" xlink:show="other">
                                <stop stop-color="#704d18" offset="0"/>
                                <stop stop-color="#3e2a08" offset="1"/>
                            </linearGradient>
                            <path fill="url(#XMLID_12_)" d="M 39.644 30.421 L 33.606003 20.151 C 29.789003 18.778 25.013002 19.997 21.010002 24.111 C 23.907001 21.831 28.835003 19.947 32.353004 21.982 L 35.465004 29.131 C 36.178 30.152 37.854 30.969 39.644 30.421 z "/>
                            <linearGradient x1="36.4175" gradientTransform="matrix(1 0 0 -1 0 57)" y1="39.499" x2="24.2947" gradientUnits="userSpaceOnUse" y2="31.6866" xlink:type="simple" xlink:actuate="onLoad" id="XMLID_13_" xlink:show="other">
                                <stop stop-color="#704d18" offset="0"/>
                                <stop stop-color="#3e2a08" offset="1"/>
                            </linearGradient>
                            <path fill="url(#XMLID_13_)" d="M 31.776 22.204 C 27.929998 21.161001 24.136 22.57 22.491999 26.169 C 24.87 24.032 28.523 22.405 31.776 22.204 z "/>
                            <linearGradient x1="88.292" gradientTransform="matrix(0.9976 -0.0689 -0.0689 -0.9976 -31.49 299.3139)" y1="273.8428" x2="76.1689" gradientUnits="userSpaceOnUse" y2="266.0301" xlink:type="simple" xlink:actuate="onLoad" id="XMLID_14_" xlink:show="other">
                                <stop stop-color="#704d18" offset="0"/>
                                <stop stop-color="#3e2a08" offset="1"/>
                            </linearGradient>
                            <path fill="url(#XMLID_14_)" d="M 36.324 20.82 C 37.576 19.9 39.107002 19.178 40.711002 18.678999 C 40.529003 18.360998 40.329002 18.029999 40.137 17.700998 C 38.667 18.294 37.343 19.364 36.324 20.82 z "/>
                            <linearGradient x1="107.1309" gradientTransform="matrix(0.9967 -0.0812 -0.0812 -0.9967 -37.2905 342.943)" y1="304.874" x2="95.0042" gradientUnits="userSpaceOnUse" y2="297.059" xlink:type="simple" xlink:actuate="onLoad" id="XMLID_15_" xlink:show="other">
                                <stop stop-color="#704d18" offset="0"/>
                                <stop stop-color="#3e2a08" offset="1"/>
                            </linearGradient>
                            <path fill="url(#XMLID_15_)" d="M 33.198 34.498 C 31.348001 34.632 39.077003 39.705 44.103 35.672 L 43.425 31.329 C 40.627 33.186 37.201 34.206 33.198 34.498 z "/>
                        </g>
                    </g>
                    <g>
                        <g>
                            <polygon fill="#704d18" points="43.964,15.568 48.555,12.305 48.551,6.374 44.303,7.171       "/>
                            <linearGradient x1="51.7305" gradientTransform="matrix(1 0 0 -1 0 57)" y1="25.2017" x2="76.229" gradientUnits="userSpaceOnUse" y2="25.3928" xlink:type="simple" xlink:actuate="onLoad" id="XMLID_16_" xlink:show="other">
                                <stop stop-color="#c4a64a" offset="0"/>
                                <stop stop-color="#ad832f" offset="0.209"/>
                                <stop stop-color="#704d18" offset="0.6517"/>
                                <stop stop-color="#7f3c21" offset="1"/>
                            </linearGradient>
                            <path fill="url(#XMLID_16_)" d="M 51.934 49.886 C 66.218994 42.168003 65.915 16.95 65.939995 13.598003 L 50.665993 14.703003 C 48.146 34.645 50.891 48.986 51.934 49.886 z "/>
                            <linearGradient x1="27.3032" gradientTransform="matrix(1 0 0 -1 0 57)" y1="52.0225" x2="51.3429" gradientUnits="userSpaceOnUse" y2="23.9464" xlink:type="simple" xlink:actuate="onLoad" id="XMLID_17_" xlink:show="other">
                                <stop stop-color="#f1de84" offset="0"/>
                                <stop stop-color="#e0bc6c" offset="1"/>
                            </linearGradient>
                            <path fill="url(#XMLID_17_)" d="M 51.934 49.886 C 49.682 37.573 50.03 27.195002 50.679996 14.393002 L 42.347996 8.274002 L 42.347996 8.274002 C 42.132 17.929 42.387 47.934 51.934 49.886 z "/>
                            <linearGradient x1="39.4453" gradientTransform="matrix(1 0 0 -1 0 57)" y1="-4.3257" x2="70.5173" gradientUnits="userSpaceOnUse" y2="35.3406" xlink:type="simple" xlink:actuate="onLoad" id="XMLID_18_" xlink:show="other">
                                <stop stop-color="#b0381e" offset="0"/>
                                <stop stop-color="#822519" offset="1"/>
                            </linearGradient>
                            <path fill="url(#XMLID_18_)" d="M 74.91 9.691 L 65.798004 12.639 C 65.846 14.677 66.594 41.418 51.934006 49.885 C 68.288 50.293 74.953 27.046 74.91 9.691 z "/>
                            <path fill="#e0bc6c" d="M 52.771 14.11 C 40.146 8.639 45.142 6.6899996 48.613 6.4279995 L 47.724 5.8719997 C 43.73 6.4209995 36.468998 8.305 50.638 15.46 L 52.771 14.11 z "/>
                            <path fill="#cd9f3d" d="M 50.639 15.461 C 50.639 15.461 66.231 16.220001 74.938 9.691 L 71.54301 9.859 C 71.54301 9.859 64.11101 14.055 52.772007 14.110001 L 50.639 15.461 z "/>
                        </g>
                        <g>
                            <path fill="#7f3c21" d="M 50.34 22.626 C 54.282 19.245998 61.414 16.807999 68.076996 19.904 C 63.571995 18.495998 55.972996 19.81 52.684998 23.845 L 52.215996 34.356 L 47.805996 37.266 L 50.34 22.626 z "/>
                            <path fill="#7f3c21" d="M 47.189 24.518 C 47.058 22.244999 44.795 19.799 42.454 19.205 C 42.487 20.074 42.523 20.961 42.573997 21.866 C 44.548 22.396 46.309 23.313 47.189 24.518 z "/>
                            <path fill="#7f3c21" d="M 58.875 38.375 C 54.4 41.402 49.678 42.25 45.246002 40.557 C 45.626003 41.878 46.055 43.112 46.536003 44.221 C 51.188 46.604 57.113 42.902 58.875 38.375 z "/>
                            <path fill="#7f3c21" d="M 65.93 24.392 C 62.61 22.941 56.382 23.728 54.245 26.217001 C 55.354 21.034 62.422 19.032 65.93 24.392 z "/>
                        </g>
                    </g>
                </g>
            </g>
            <path fill="#ffffff" d="M 13.708 34.501 C 10.934 34.501 7.132 35.159 6.169 40.854 L 6.0230002 41.712 C 6.0230002 41.712 12.417 41.712 13.175 41.712 C 13.404 42.123 13.745 42.739002 13.962 43.133003 C 13.745 43.526005 13.404 44.141003 13.175 44.552002 C 12.416 44.552002 6.0230002 44.552002 6.0230002 44.552002 L 6.169 45.411003 C 7.132 51.103004 10.934 51.762 13.708 51.762 C 15.896 51.762 17.846 49.928 19.412 48.452 C 20.259 47.652 21.058 46.902 21.480001 46.902 L 41.06 46.902 L 41.279003 46.662 C 41.699 46.199997 42.675003 44.934998 42.697002 43.163 L 42.697002 43.1 C 42.676003 41.328 41.699 40.063 41.279003 39.601997 L 41.06 39.361996 L 21.48 39.361996 C 21.057999 39.361996 20.258 38.609997 19.414 37.814995 C 17.846 36.336 15.896 34.501 13.708 34.501 z "/>
            <path fill="#6e8489" d="M 41.965 43.133 C 41.965 43.125 41.967 43.116 41.967 43.11 L 41.962997 43.11 C 41.944996 41.567 41.059998 40.454002 40.733997 40.098 C 40.322 40.098 21.479998 40.098 21.479998 40.098 C 20.762997 40.098 19.986998 39.364998 18.905998 38.35 C 17.434998 36.962997 15.604998 35.239 13.707998 35.239 C 10.628998 35.239 7.7129984 36.142998 6.8959985 40.976997 C 8.052999 40.976997 13.608998 40.976997 13.608998 40.976997 L 14.802999 43.132996 L 13.608998 45.287994 C 13.608998 45.287994 8.052998 45.287994 6.8959985 45.287994 C 7.7119985 50.121994 10.627998 51.024994 13.707998 51.024994 C 15.604999 51.024994 17.435999 49.299995 18.905998 47.914993 C 19.986998 46.899994 20.762999 46.165993 21.479998 46.165993 C 21.479998 46.165993 40.322 46.165993 40.733997 46.165993 C 41.059 45.811993 41.944996 44.69699 41.962997 43.15399 L 41.967 43.15399 C 41.967 43.146 41.965 43.141 41.965 43.133 z "/>
            <rect width="84" fill="none" height="58"/>
        </g>
    </g>
</svg>
