<?xml version="1.0" encoding="UTF-8"?>
<svg xmlns="http://www.w3.org/2000/svg" xmlns:xlink="http://www.w3.org/1999/xlink" contentScriptType="text/ecmascript" width="44" baseProfile="tiny" zoomAndPan="magnify" contentStyleType="text/css" viewBox="0 0 44 44" height="44" preserveAspectRatio="xMidYMid meet" version="1.1">
    <path fill="#800000" d="M 13.07 4.865 L 13.07 13.721 C 11.995999 13.5859995 10.681 13.891 9.558 14.623 C 7.6379995 15.8810005 7.023 17.9 7.9039993 19.242 C 8.780999 20.58 11.094999 20.482 13.014999 19.222 C 14.136 18.423 14.926999 17.226 14.768999 15.626 L 14.764999 7.4960003 L 18.601 9.411 L 19.269 7.9630003 L 13.07 4.865 z "/>
    <path fill="#800000" d="M 23.285 19.267 L 23.285 17.261 L 20.922 17.261 L 20.922 19.626 L 13.844001 26.717999 L 11.258001 26.717999 L 16.059002 31.461998 L 16.059002 31.442999 L 22.358002 31.442999 L 22.358002 19.267 L 23.285 19.267 z M 20.922 26.718 L 16.192001 26.718 L 20.922 21.989 L 20.922 26.718 z "/>
    <linearGradient x1="-10.1396" gradientTransform="matrix(1 0 0 -1 0.1377 42.833)" y1="37.9917" x2="22.8104" gradientUnits="userSpaceOnUse" y2="-1.9583" xlink:type="simple" xlink:actuate="onLoad" id="XMLID_3_" xlink:show="other">
        <stop stop-color="#ffffcf" offset="0"/>
        <stop stop-color="#f0de80" offset="0.11"/>
        <stop stop-color="#c26e54" offset="0.35"/>
        <stop stop-color="#b0361a" offset="0.48"/>
        <stop stop-color="#ad2621" offset="0.6629"/>
        <stop stop-color="#9c0a00" offset="0.75"/>
        <stop stop-color="#991712" offset="0.82"/>
        <stop stop-color="#8a0000" offset="0.91"/>
        <stop stop-color="#730303" offset="0.99"/>
        <stop stop-color="#730303" offset="1"/>
    </linearGradient>
    <path fill="url(#XMLID_3_)" d="M 9.398 33.869 L 9.398 22.04 C 9.242 22.022001 9.076 22.032001 8.925 22.001001 C 8.308 21.874 7.767 21.63 7.3 21.296 L 7.3 36.026 L 22.357 36.026 L 22.357 33.869 L 9.398 33.869 z "/>
    <linearGradient x1="7.5972" gradientTransform="matrix(1 0 0 -1 0.1377 42.833)" y1="52.6206" x2="40.5469" gradientUnits="userSpaceOnUse" y2="12.6709" xlink:type="simple" xlink:actuate="onLoad" id="XMLID_4_" xlink:show="other">
        <stop stop-color="#ffffcf" offset="0"/>
        <stop stop-color="#f0de80" offset="0.11"/>
        <stop stop-color="#c26e54" offset="0.35"/>
        <stop stop-color="#b0361a" offset="0.48"/>
        <stop stop-color="#ad2621" offset="0.6629"/>
        <stop stop-color="#9c0a00" offset="0.75"/>
        <stop stop-color="#991712" offset="0.82"/>
        <stop stop-color="#8a0000" offset="0.91"/>
        <stop stop-color="#730303" offset="0.99"/>
        <stop stop-color="#730303" offset="1"/>
    </linearGradient>
    <path fill="url(#XMLID_4_)" d="M 16.666 12.11 C 16.666 12.922999 16.666 13.676 16.664 14.268 L 34.601997 14.268 L 34.601997 19.265999 L 36.704998 19.265999 L 36.704998 12.11 L 16.666 12.11 z "/>
    <path fill="#800000" d="M 33.43 23.367 L 27.658 23.367 L 27.658 21.266 L 24.358002 21.266 L 24.358002 36.06 L 27.658 36.06 L 27.658 33.966 L 33.43 33.966 L 33.43 36.06 L 36.703 36.06 L 36.703 21.267 L 33.43 21.267 L 33.43 23.367 z M 25.256 22.128 L 26.613 22.128 L 26.613 23.168 L 25.256 23.168 L 25.256 22.128 z M 26.656 35.167 L 25.299 35.167 L 25.299 34.128 L 26.656 34.128 L 26.656 35.167 z M 26.656 32.707 L 25.299 32.707 L 25.299 31.668001 L 26.656 31.668001 L 26.656 32.707 z M 26.656 30.267 L 25.299 30.267 L 25.299 29.228 L 26.656 29.228 L 26.656 30.267 z M 26.656 27.867 L 25.299 27.867 L 25.299 26.828001 L 26.656 26.828001 L 26.656 27.867 z M 26.656 25.466 L 25.299 25.466 L 25.299 24.427 L 26.656 24.427 L 26.656 25.466 z M 35.758 35.167 L 34.4 35.167 L 34.4 34.128 L 35.756 34.128 L 35.758 35.167 L 35.758 35.167 z M 35.758 32.707 L 34.4 32.707 L 34.4 31.668001 L 35.756 31.668001 L 35.758 32.707 L 35.758 32.707 z M 35.758 30.267 L 34.4 30.267 L 34.4 29.228 L 35.756 29.228 L 35.758 30.267 L 35.758 30.267 z M 35.758 27.867 L 34.4 27.867 L 34.4 26.828001 L 35.756 26.828001 L 35.758 27.867 L 35.758 27.867 z M 35.758 25.466 L 34.4 25.466 L 34.4 24.427 L 35.756 24.427 L 35.758 25.466 L 35.758 25.466 z M 34.357 22.128 L 35.712997 22.128 L 35.712997 23.168 L 34.357 23.168 L 34.357 22.128 z M 33.457 31.867 L 27.656 31.867 L 27.656 25.467001 L 33.457 25.467001 L 33.457 31.867 z "/>
</svg>
