<?xml version="1.0" encoding="UTF-8"?>
<svg xmlns="http://www.w3.org/2000/svg" xmlns:xlink="http://www.w3.org/1999/xlink" contentScriptType="text/ecmascript" width="88" baseProfile="tiny" zoomAndPan="magnify" contentStyleType="text/css" viewBox="0 0 88 88" height="88" preserveAspectRatio="xMidYMid meet" version="1.1">
    <rect width="88" fill="none" height="88"/>
    <path fill="#ffffff" d="M 8.394 17.185 L 4.5550003 23.279 L 4.9930005 29.002998 L 26.625 40.073997 C 26.625 40.073997 27.073 40.121 27.239 40.137997 C 25.442 42.174995 11.563001 57.918 11.563001 57.918 L 63.311 78.195 L 81.963 31.661 L 38.654 27.188 C 38.654 27.188 35.878998 30.335 34.959 31.378 C 34.291 30.482 33.088 28.871 33.088 28.871 L 13.66 14.989 L 8.394 17.185 z "/>
    <path fill="#e0bc6c" d="M 62.863 77.161 L 12.918 57.59 L 38.982 28.027 L 80.825 32.348 L 62.863 77.161 z M 62.863 77.161 L 12.918 57.59 L 38.982 28.027 L 80.825 32.348 L 62.863 77.161 z "/>
    <path fill="#3e2a08" d="M 64.654 54.807 L 59.482 53.726997 L 57.396 39.715996 C 58.472 39.440994 59.335 38.873997 59.656 38.104996 C 60.219997 36.770996 58.948997 35.368996 56.824997 34.974995 C 54.700996 34.580994 52.520996 35.339996 51.957996 36.671993 C 51.685997 37.322994 51.853996 37.988995 52.337997 38.547993 L 37.577995 48.96099 L 32.724995 47.90599 C 32.450996 47.256992 31.669994 46.70399 30.579994 46.499992 C 28.957994 46.199993 27.294994 46.77899 26.866995 47.79499 C 26.439995 48.81099 27.408995 49.88099 29.029995 50.18199 C 30.026995 50.367992 31.032995 50.21899 31.761995 49.839993 L 35.253994 50.601994 L 28.347994 55.847992 L 32.149994 56.804993 L 39.335995 51.48699 L 56.62 55.25 L 57.503 63.559 L 60.714996 64.368 L 59.812996 55.943996 L 64.01199 56.859997 L 64.654 54.807 z M 41.658 49.85 L 54.469 40.809998 L 56.291 53.032997 L 41.658 49.85 z " fill-opacity="0.5"/>
    <polygon fill="#f1de84" points="26.855,39.293 40.969,40.763 32.521,29.451 "/>
    <polygon fill="#704d18" points="5.756,28.494 5.373,23.48 8.936,17.825 13.557,15.899 16.882,27.529 "/>
    <linearGradient x1="9.7373" gradientTransform="matrix(1 0 0 -1 0.1377 86.834)" y1="57.8193" x2="32.3232" gradientUnits="userSpaceOnUse" y2="57.8193" xlink:type="simple" xlink:actuate="onLoad" id="XMLID_3_" xlink:show="other">
        <stop stop-color="#e0bc6c" offset="0"/>
        <stop stop-color="#c1a15b" offset="1"/>
    </linearGradient>
    <polygon fill="url(#XMLID_3_)" points="9.875,26.297 13.355,20.551 32.461,33.469 30.018,37.479 "/>
    <polygon fill="#ad832f" points="13.355,20.551 13.557,15.899 32.521,29.451 32.461,33.469 "/>
    <polygon fill="#8e6f3a" points="9.875,26.297 5.756,28.494 26.855,39.293 30.018,37.479 "/>
    <linearGradient x1="40.0005" y1="36.2612" x2="36.3267" gradientUnits="userSpaceOnUse" y2="42.1221" xlink:type="simple" xlink:actuate="onLoad" id="XMLID_4_" xlink:show="other">
        <stop stop-color="#0046b7" offset="0"/>
        <stop stop-color="#311904" offset="0.0056"/>
        <stop stop-color="#704d18" offset="0.4888"/>
        <stop stop-color="#3e2a08" offset="1"/>
    </linearGradient>
    <path fill="url(#XMLID_4_)" d="M 34.166 40.114 L 40.99 40.758 L 36.839 35.226997 C 36.962 36.701 35.631 39.051 34.166 40.114 z "/>
</svg>
