<?xml version="1.0" encoding="UTF-8"?>
<svg xmlns="http://www.w3.org/2000/svg" xmlns:xlink="http://www.w3.org/1999/xlink" contentScriptType="text/ecmascript" width="44" baseProfile="tiny" zoomAndPan="magnify" contentStyleType="text/css" viewBox="0 0 44 44" height="44" preserveAspectRatio="xMidYMid meet" version="1.1">
    <g>
        <g>
            <path fill="#ffffff" d="M 27.811 37.492 C 27.309 37.492 26.800001 37.416 26.297 37.263 C 25.003 36.876 23.52 35.849 22.766 34.818 L 22.006 33.81 L 19.757 35.31 L 12.714 33.213 C 10.118 32.442 8.507 30.401001 8.407999 27.763 L 7.893 13.988 C 7.8190002 12.023 8.667 10.357 10.217 9.417 C 12.125 7.732 13.696 6.508 16.017 6.508 C 16.434 6.508 16.873001 6.5499997 17.326 6.632 L 29.736 8.615 C 33.257 9.253 36.113 12.851999 36.113 16.643 L 35.934998 29.675 C 35.934998 33.27 33.413998 34.837997 30.491997 36.653 L 29.867996 37.044 C 29.2 37.34 28.521 37.492 27.811 37.492 L 27.811 37.492 z M 26.96 26.49 C 27.196999 26.779 27.549 27.216 27.893 27.646 L 27.881 25.789 C 27.605 26.021 27.301 26.254 26.96 26.49 L 26.96 26.49 z M 16.286 14.03 L 16.373999 16.883999 C 17.418 15.806999 18.307999 15.078999 19.182999 14.605999 L 16.286 14.03 L 16.286 14.03 z "/>
            <linearGradient x1="20.7192" gradientTransform="matrix(1 0 0 -1 0.1377 42.834)" y1="-5.2876" x2="20.7192" gradientUnits="userSpaceOnUse" y2="21.7924" xlink:type="simple" xlink:actuate="onLoad" id="XMLID_27_" xlink:show="other">
                <stop stop-color="#b0381e" offset="0"/>
                <stop stop-color="#5c1001" offset="1"/>
            </linearGradient>
            <path fill="url(#XMLID_27_)" d="M 30.514 30.344 C 29.649 30.104 28.815 29.537 28.196 28.692 C 27.560999 27.842 26.373999 26.407 26.373999 26.407 C 29.994 24.024 29.64 22.453999 29.607998 19.810999 C 29.578999 16.286 27.131998 15.157 23.830997 14.459999 C 20.523998 13.762999 18.673998 14.958999 16.120998 17.726 C 15.079998 18.854 24.851997 35.226997 25.870998 34.591 L 30.514 30.344 z M 11.2 12.594 L 11.325 25.094 C 11.414 27.489 17.21 34.137 19.692 34.873 L 23.227 32.516003 C 22.675999 31.772003 16.169998 23.178001 16.143 22.459003 C 16.122 21.734003 15.837999 12.440003 15.837999 12.440003 L 11.2 12.594 z "/>
            <linearGradient x1="22.395" gradientTransform="matrix(1 0 0 -1 0.1377 42.834)" y1="35.1152" x2="22.395" gradientUnits="userSpaceOnUse" y2="9.1149" xlink:type="simple" xlink:actuate="onLoad" id="XMLID_28_" xlink:show="other">
                <stop stop-color="#f1de84" offset="0"/>
                <stop stop-color="#cd9f3d" offset="0.5056"/>
                <stop stop-color="#704d18" offset="1"/>
            </linearGradient>
            <path fill="url(#XMLID_28_)" d="M 29.652 36.705 C 32.756 34.755 35.537003 33.294003 35.537003 29.668001 L 35.712 16.643002 C 35.712 13.0320015 33.012 9.614002 29.673002 9.012001 L 17.254 7.024 C 13.917 6.421 12.167 8.232 9.353 10.704 L 16.451 11.718 L 28.701 14.218 L 29.951 27.218 L 29.652 36.705 z "/>
            <path fill="#eacf5a" d="M 26.188 11.341 L 14.113 9.164 C 10.771 8.561999 8.169001 10.721999 8.292999 13.973 L 8.807 27.75 C 8.898 30.146 10.348001 32.094 12.83 32.832 L 19.667 34.881 C 19.116 34.137 13.25 26.583 13.25 26.583 C 12.74 25.951 12.6119995 25.545 12.585 24.824 C 12.561 24.097 12.275 14.806 12.275 14.806 C 12.245 13.698999 13.11 12.985 14.219999 13.21 L 26.223999 15.602 C 27.329998 15.821 28.234 16.956 28.241999 18.139 L 28.307999 31.019001 C 28.326998 32.695 27.241999 32.868 26.367998 32.627003 C 25.502998 32.388004 25.251999 31.901003 24.632998 31.058002 C 23.996998 30.207003 22.581997 28.441002 22.581997 28.441002 C 24.676996 28.031002 25.942997 26.572002 25.914997 23.929 C 25.883997 20.406 23.567997 17.519001 20.266998 16.825 C 16.961998 16.127 14.734999 17.93 14.825998 21.29 C 14.865998 22.825 15.482998 24.603 16.911 26.411001 C 16.911 26.411001 22.348 33.583 23.087 34.581 C 23.82 35.584 25.264 36.535 26.411 36.88 C 29.463999 37.79 32.224 35.690002 32.224 32.067 L 32.224 18.972 C 32.225 15.362 29.523 11.943 26.188 11.341 z M 20.41 25.006 C 19.198 24.707 18.206 23.44 18.185 22.183 C 18.157999 20.921001 19.112 20.123001 20.335 20.399 C 21.550999 20.673 22.539 21.944 22.557 23.221 C 22.575 24.508 21.616 25.307 20.41 25.006 z "/>
        </g>
        <rect width="44" fill="none" height="44"/>
    </g>
</svg>
