<?xml version="1.0" encoding="UTF-8"?>
<svg xmlns="http://www.w3.org/2000/svg" xmlns:xlink="http://www.w3.org/1999/xlink" contentScriptType="text/ecmascript" width="84" baseProfile="tiny" zoomAndPan="magnify" contentStyleType="text/css" viewBox="0 0 84 72" height="72" preserveAspectRatio="xMidYMid meet" version="1.1">
    <g>
        <polygon fill="#ffffff" points="41.184,56.007 61.063,62.122 74.729,18.747 57.104,15.997 57.229,10.872 38.479,8.247    32.641,10.091 29.941,19.218 23.676,18.069 14.979,21.122 17.332,30.759 13.689,30.165 9.271,31.581 10.584,56.337 37.334,63.753    41.084,60.337  "/>
        <g>
            <g>
                <g>
                    <g>
                        <g>
                            <linearGradient x1="-10.8706" gradientTransform="matrix(1.1364 0 0 -1.1364 36.0678 129.8415)" y1="83.5811" x2="28.4956" gradientUnits="userSpaceOnUse" y2="83.5811" xlink:type="simple" xlink:actuate="onLoad" id="XMLID_3_" xlink:show="other">
                                <stop stop-color="#e0bc6c" offset="0"/>
                                <stop stop-color="#cd9f3d" offset="1"/>
                            </linearGradient>
                            <polygon fill="url(#XMLID_3_)" points="23.714,47.865 34.516,11.182 52.09,13.998 51.961,19.443 68.448,22.208 59.465,58.551               "/>
                            <polygon fill="#eacf5a" points="59.468,58.207 23.538,47.846 17.613,22.249 53.382,29.417       "/>
                            <polygon fill="#9e6434" points="59.431,26.125 23.762,20.006 17.613,22.249 53.382,29.417       "/>
                            <polygon fill="#9e6434" points="55.139,12.453 38.396,10 34.419,11.122 52.09,13.998       "/>
                            <polygon fill="#9e6434" points="72.025,20.353 54.935,17.774 51.961,19.443 68.448,22.208       "/>
                            <polygon fill="#ad832f" points="59.431,26.125 59.471,58.829 53.382,29.417       "/>
                            <polygon fill="#ad832f" points="72.025,20.353 59.471,58.829 68.448,22.208       "/>
                            <polygon fill="#ad832f" points="52.09,13.998 51.961,19.443 54.935,17.774 55.139,12.453       "/>
                            <linearGradient x1="-255.875" gradientTransform="matrix(1.1364 -0.0713 0 1.1364 325.2729 -403.2142)" y1="391.2646" x2="-241.9767" gradientUnits="userSpaceOnUse" y2="368.5631" xlink:type="simple" xlink:actuate="onLoad" id="XMLID_4_" xlink:show="other">
                                <stop stop-color="#e0bc6c" offset="0"/>
                                <stop stop-color="#cd9f3d" offset="1"/>
                            </linearGradient>
                            <polygon fill="url(#XMLID_4_)" points="23.714,47.865 30.38,25.095 53.39,29.636 59.471,58.829       "/>
                        </g>
                    </g>
                </g>
            </g>
        </g>
        <rect width="84" fill="none" height="72"/>
        <g>
            <g>
                <polygon fill="#eacf5a" points="10.695,32.253 37.375,37.616 37.094,62.191 11.754,55.066    "/>
                <polygon fill="#f1de84" points="37.119,58.405 37.316,41.609 10.945,36.294 11.617,51.718    "/>
                <polygon fill="#f1de84" points="40.086,36.536 13.551,31.394 10.738,32.233 37.434,37.749    "/>
                <path fill="#9e6434" d="M 10.713 32.231 L 37.375 37.695 L 37.096 62.187 L 11.758001 55.187 L 10.713 32.231 z M 35.576 40.807 L 37.377 41.196 L 37.385 39.034 L 35.573997 38.653 L 35.576 40.807 z M 32.76 40.15 L 34.246 40.495003 L 34.238 38.349003 L 32.744 38.013004 L 32.76 40.15 z M 29.932 39.511 L 31.424 39.852 L 31.403 37.718002 L 29.903 37.386 L 29.932 39.511 z M 27.096 38.878 L 28.594 39.211998 L 28.557 37.094997 L 27.050999 36.771996 L 27.096 38.878 z M 24.25 38.253 L 25.754 38.579 L 25.701 36.479 L 24.191 36.161 L 24.25 38.253 z M 21.398 37.641 L 22.906 37.961998 L 22.838 35.876 L 21.324 35.559998 L 21.398 37.641 z M 18.535 37.034 L 20.046999 37.349 L 19.967 35.281998 L 18.449 34.968998 L 18.535 37.034 z M 15.664 36.435 L 17.182 36.749 L 17.088 34.692 L 15.563 34.387 L 15.664 36.435 z M 10.848 35.458 L 11.559 35.601 L 11.436 33.576 L 10.778 33.449 L 10.848 35.458 z M 12.787 35.849 L 14.306999 36.156 L 14.197999 34.116997 L 12.668999 33.815998 L 12.787 35.849 z M 35.561 60.405 L 37.127 60.836998 L 37.133 58.675 L 35.559 58.251 L 35.561 60.405 z M 32.861 59.634 L 34.287 60.039997 L 34.277 57.892998 L 32.845 57.495 L 32.861 59.634 z M 30.15 58.872 L 31.581999 59.273003 L 31.560999 57.140003 L 30.122 56.745003 L 30.15 58.872 z M 27.434 58.118 L 28.87 58.514 L 28.833 56.399 L 27.392 56.008 L 27.434 58.118 z M 24.707 57.374 L 26.148 57.768 L 26.095001 55.664 L 24.648 55.281002 L 24.707 57.374 z M 21.969 56.641 L 23.416 57.03 L 23.35 54.94 L 21.899 54.563 L 21.969 56.641 z M 19.225 55.915 L 20.676 56.296 L 20.596 54.227 L 19.139 53.852 L 19.225 55.915 z M 16.469 55.198 L 17.926 55.575 L 17.832 53.515 L 16.369001 53.146 L 16.469 55.198 z M 13.707 54.486 L 15.164 54.861 L 15.056999 52.818 L 13.591999 52.454002 L 13.707 54.486 z M 11.684 53.975 L 12.399 54.158997 L 12.278 52.131996 L 11.628 51.985996 L 11.684 53.975 z M 30.725 55.503 L 37.204002 57.177 L 37.335003 42.794 L 30.593002 41.267998 L 30.725 55.503 z M 15.896 51.78 L 28.921 55.134 L 28.775 40.88 L 15.311999 37.958 L 15.896 51.78 z M 11.598 50.706 L 14.068999 51.350002 L 13.408999 37.567 L 10.943999 37.069 L 11.598 50.706 z "/>
                <polygon fill="#9e6434" points="37.08,62.212 39.322,60.255 40.08,36.478 37.375,37.695    "/>
                <polygon fill="#eacf5a" points="37.355,39.046 40.035,37.632 39.959,39.706 37.338,41.191    "/>
                <polygon fill="#eacf5a" points="37.131,58.693 37.102,60.837 39.348,59.073 39.42,57.13    "/>
                <polygon fill="#eacf5a" points="37.334,42.794 37.156,57.193 39.457,55.68 39.902,41.275    "/>
            </g>
        </g>
    </g>
</svg>
