<?xml version="1.0" encoding="UTF-8"?>
<svg xmlns="http://www.w3.org/2000/svg" xmlns:xlink="http://www.w3.org/1999/xlink" contentScriptType="text/ecmascript" width="96" baseProfile="tiny" zoomAndPan="magnify" contentStyleType="text/css" viewBox="0 0 96 96" height="96" preserveAspectRatio="xMidYMid meet" version="1.1">
    <path fill="#8b0000" d="M 81.93 14.046 L 60.799 35.179 C 61.643 36.023003 66.473 41.76 66.473 47.996 C 66.473 54.202003 61.698 60.004 60.856 60.848003 L 81.956 81.922005 C 91.012 72.865 96.0 60.82 96.0 48.006 C 96.0 35.179 91.002 23.118 81.93 14.046 z " fill-opacity="0.01"/>
    <path fill="#8b0000" d="M 80.395 15.581 L 60.799 35.179 C 62.052 36.433 66.473 42.114 66.473 47.996 C 66.473 53.816 62.106 59.594 60.856 60.848003 L 80.419 80.387 C 89.066 71.741 93.828 60.241 93.828 48.006 C 93.828 35.759 89.057 24.243 80.395 15.581 z " fill-opacity="0.02"/>
    <path fill="#8b0000" d="M 78.857 17.116 L 60.797005 35.179 C 62.460003 36.842 66.47 42.476 66.47 47.996 C 66.47 53.398003 62.513 59.184 60.855003 60.848003 L 78.883 78.852005 C 87.119 70.616005 91.65501 59.661003 91.65501 48.006004 C 91.657 36.339 87.111 25.368 78.857 17.116 z " fill-opacity="0.04"/>
    <path fill="#8b0000" d="M 77.323 18.652 L 60.799 35.179 C 62.872 37.253 66.473 42.95 66.473 47.996 C 66.473 53.016003 62.924 58.773003 60.856 60.848003 L 77.35 77.316 C 85.176 69.488 89.487 59.079 89.487 48.004 C 89.486 36.918 85.166 26.494 77.323 18.652 z " fill-opacity="0.07"/>
    <path fill="#8b0000" d="M 75.788 20.188 L 60.799 35.179 C 63.282 37.662003 66.473 43.459 66.473 47.996 C 66.473 52.495003 63.332 58.363003 60.856 60.848003 L 75.815 75.782005 C 83.231 68.364006 87.315 58.501007 87.315 48.007004 C 87.314 37.498 83.221 27.619 75.788 20.188 z " fill-opacity="0.11"/>
    <path fill="#8b0000" d="M 85.145 48.006 C 85.145 38.079 81.278 28.745 74.254 21.723 L 60.799 35.179 C 63.692 38.073 66.473 43.903 66.473 47.996 C 66.473 51.93 63.743 57.954 60.856 60.848003 L 74.28 74.246 C 81.285 67.238 85.145 57.919 85.145 48.006 z " fill-opacity="0.13"/>
    <path fill="#ff4747" d="M 65.49 47.988 C 65.49 43.164 63.538 38.796997 60.379997 35.632 L 72.76199 23.275 C 86.41 36.924 86.398994 59.065 72.73699 72.727 L 60.368 60.357 C 63.533 57.191 65.49 52.818 65.49 47.988 z "/>
    <linearGradient x1="61.3545" gradientTransform="matrix(1 0 0 -1 0.1377 94.834)" y1="46.7979" x2="81.9658" gradientUnits="userSpaceOnUse" y2="46.7979" xlink:type="simple" xlink:actuate="onLoad" id="XMLID_3_" xlink:show="other">
        <stop stop-color="#ffffff" offset="0"/>
        <stop stop-color="#ff4747" offset="1"/>
    </linearGradient>
    <path fill="url(#XMLID_3_)" d="M 82.104 48.151 C 82.104 56.899 78.811 65.195 72.987 71.520004 C 71.945 70.49 62.469 60.87 61.52 59.932 C 64.619 56.592 66.296 52.828 66.296 48.266 C 66.296 43.712 64.583 39.444 61.491997 36.104 C 62.441 35.166 71.938995 25.581 72.982 24.552 C 78.988 30.906 82.104 39.416 82.104 48.151 z "/>
    <path fill="#ffffff" d="M 72.982 25.498 C 84.328 38.27 84.31201 57.738 72.982 70.501 L 72.982 71.547 C 85.234 58.339996 85.247 37.672997 72.982 24.451996 L 72.982 25.498 z "/>
    <linearGradient x1="53.9121" gradientTransform="matrix(1 0 0 -1 0.1377 94.834)" y1="46.835" x2="78.2221" gradientUnits="userSpaceOnUse" y2="46.835" xlink:type="simple" xlink:actuate="onLoad" id="XMLID_4_" xlink:show="other">
        <stop stop-color="#ffffff" offset="0"/>
        <stop stop-color="#ff4747" offset="1"/>
    </linearGradient>
    <path fill="url(#XMLID_4_)" d="M 73.005 24.478 C 71.699 25.802 62.584 34.997 61.491997 36.104 C 64.224 39.466 65.788994 43.657 65.788994 48.037 C 65.788994 52.411 64.242 56.572 61.51799 59.933 C 62.611 61.036 71.682 70.2 72.986 71.52 L 72.986 70.53 C 72.035 69.565 62.978 60.403 62.425 59.844 C 65.025 56.414 66.488 52.261997 66.488 48.036 C 66.488 43.807 65.020996 39.648 62.417 36.214 C 63.126 35.497 72.123 26.420002 73.005 25.524002 L 73.005 24.478 z "/>
    <path fill="#ffffff" d="M 67.904 30.887 C 67.904 30.887 72.392 35.984 72.392 48.028 C 72.392 59.008 67.904 65.104004 67.904 65.104004 C 74.586 74.59001 80.866 57.789005 80.866 48.074005 C 80.866 38.36 74.648 21.145 67.904 30.887 z " fill-opacity="0.3"/>
    <polygon fill="#ff4747" points="78.712,45.285 74.607,45.285 74.607,41.183 71.801,41.183 71.801,45.285 67.695,45.285   67.695,48.095 71.801,48.095 71.801,52.202 74.607,52.202 74.607,48.095 78.712,48.095 "/>
    <polygon fill="#8b0000" points="74.607,41.18 71.801,41.18 71.801,41.188 71.798,41.188 71.798,45.301 67.705,45.294 67.705,45.301   67.699,45.301 67.699,48.1 67.705,48.1 67.705,48.106 68.148,48.1 68.148,45.745 72.238,45.745 72.238,41.625 74.607,41.625 "/>
    <rect x="71.799" width="0.439" fill="#8b0000" y="48.073" height="4.121"/>
    <polygon fill="#8b0000" points="74.607,45.301 78.705,45.301 78.711,45.301 78.705,45.745 74.607,45.745 "/>
</svg>
