<?xml version="1.0" encoding="UTF-8"?>
<svg xmlns="http://www.w3.org/2000/svg" xmlns:xlink="http://www.w3.org/1999/xlink" contentScriptType="text/ecmascript" width="16" baseProfile="tiny" zoomAndPan="magnify" contentStyleType="text/css" viewBox="0 0 16 16" height="16" preserveAspectRatio="xMidYMid meet" version="1.1">
    <g>
        <g>
            <rect width="16" fill="none" height="16"/>
            <rect x="1.5" width="13" fill="none" y="1.5" height="13"/>
            <g>
                <polygon fill="#5c1001" points="13.35,2.857 11.779,3.734 11.736,14.458 13.123,13.549    "/>
                <polygon fill="#e0bc6c" points="11.736,14.458 4.547,12.447 4.179,2 11.852,3.628    "/>
                <polygon fill="#f1de84" points="13.35,2.857 5.532,1.556 4.179,2 11.867,3.726    "/>
            </g>
            <g>
                <polygon fill="#5c1001" points="5.556,10.156 10.617,11.682 10.615,11.109 5.527,9.607    "/>
                <polygon fill="#5c1001" points="5.195,7.914 10.771,9.438 10.77,8.871 5.167,7.365    "/>
            </g>
            <g>
                <path fill="#5c1001" d="M 8.564 4.935 C 8.399 4.781 8.171 4.726 7.991 4.778 L 5.096 3.586 L 4.831 4.329 L 7.845 5.364 C 7.8669996 5.395 8.188 5.8129997 8.625 5.547 C 8.82 5.428 8.777 5.13 8.564 4.935 z "/>
                <radialGradient gradientTransform="matrix(0.8726 -0.4885 0.4885 0.8726 2357.2681 -2451.6311)" gradientUnits="userSpaceOnUse" xlink:type="simple" r="2.2834" xlink:actuate="onLoad" cx="-3252.2568" id="XMLID_2_" cy="992.3428" xlink:show="other">
                    <stop stop-color="#f1de84" offset="0"/>
                    <stop stop-color="#cd9f3d" offset="0.5337"/>
                    <stop stop-color="#704d18" offset="1"/>
                </radialGradient>
                <circle fill="url(#XMLID_2_)" r="1.697" cx="4.421" cy="3.56"/>
            </g>
        </g>
    </g>
</svg>
