<?xml version="1.0" encoding="UTF-8"?>
<svg xmlns="http://www.w3.org/2000/svg" xmlns:xlink="http://www.w3.org/1999/xlink" contentScriptType="text/ecmascript" width="84" baseProfile="tiny" zoomAndPan="magnify" contentStyleType="text/css" viewBox="0 0 84 58" height="58" preserveAspectRatio="xMidYMid meet" version="1.1">
    <path fill="#ffffff" d="M 23.831 6.258 C 23.832 7.033 23.882 38.279 23.884 38.998 C 24.565998 39.201 39.882 43.755 39.882 43.755 C 39.882 43.755 38.312 51.526 37.992 53.106003 C 39.549 52.377003 50.3 47.352 50.3 47.352 C 50.3 47.352 61.574997 50.973 62.024 51.119 C 62.397 50.864 68.742 46.516 69.116 46.263 C 69.141 45.783 70.989 12.3810005 71.036995 11.526001 C 70.186 11.373001 32.047997 4.513001 31.852997 4.478001 C 31.668 4.516 24.536 6.101 23.831 6.258 z "/>
    <polygon fill="#8e6f3a" points="61.896,49.631 67.771,45.73 69.605,12.419 62.841,14.184 "/>
    <polygon fill="#eacf5a" points="41.493,42.896 24.938,38.091 24.772,6.732 63.102,14.225 61.91,49.652 49.943,45.794 39.321,51.348   "/>
    <polygon fill="#cd9f3d" points="69.552,12.419 31.402,5.229 24.772,6.732 63.102,14.225 "/>
    <linearGradient x1="58.4316" gradientTransform="matrix(1 0 0 -1 0.1377 56.834)" y1="35.4238" x2="28.6121" gradientUnits="userSpaceOnUse" y2="38.9138" xlink:type="simple" xlink:actuate="onLoad" id="XMLID_3_" xlink:show="other">
        <stop stop-color="#9e6434" offset="0"/>
        <stop stop-color="#5c1001" offset="1"/>
    </linearGradient>
    <polygon fill="url(#XMLID_3_)" points="29.151,15.256 29.111,16.856 60.35,24.33 59.971,21.966 "/>
    <linearGradient x1="58.3623" gradientTransform="matrix(1 0 0 -1 0.1377 56.834)" y1="27.1245" x2="28.6919" gradientUnits="userSpaceOnUse" y2="31.6946" xlink:type="simple" xlink:actuate="onLoad" id="XMLID_4_" xlink:show="other">
        <stop stop-color="#9e6434" offset="0"/>
        <stop stop-color="#5c1001" offset="1"/>
    </linearGradient>
    <polygon fill="url(#XMLID_4_)" points="29.326,22.489 29.228,24.087 60.173,32.693 59.881,30.314 "/>
    <path fill="#ffffff" d="M 13.708 34.501 C 10.934 34.501 7.132 35.159 6.169 40.854 L 6.023 41.712 C 6.023 41.712 12.417 41.712 13.175 41.712 C 13.404 42.123 13.745 42.738003 13.962 43.133003 C 13.745 43.526005 13.404 44.141003 13.175 44.553 C 12.416 44.553 6.023 44.553 6.023 44.553 L 6.169 45.411003 C 7.132 51.103004 10.934 51.762 13.708 51.762 C 15.896 51.762 17.846 49.928 19.412 48.452 C 20.259 47.652 21.058 46.902 21.48 46.902 L 41.06 46.902 L 41.279003 46.662 C 41.699 46.199997 42.675003 44.935 42.697 43.163 L 42.697 43.1 C 42.676003 41.329 41.699 40.063 41.279003 39.601997 L 41.06 39.361996 L 21.48 39.361996 C 21.058 39.361996 20.258 38.609997 19.414 37.814995 C 17.846 36.336 15.896 34.501 13.708 34.501 z "/>
    <path fill="#6e8489" d="M 41.965 43.133 C 41.965 43.125 41.967 43.116 41.967 43.11 L 41.962997 43.11 C 41.944996 41.567 41.06 40.456 40.733997 40.098 C 40.322 40.098 21.479998 40.098 21.479998 40.098 C 20.762997 40.098 19.986998 39.364 18.905998 38.35 C 17.434998 36.962997 15.604998 35.239 13.707998 35.239 C 10.628998 35.239 7.7129984 36.143 6.8959985 40.976997 C 8.052999 40.976997 13.608998 40.976997 13.608998 40.976997 L 14.802999 43.132996 L 13.608998 45.28799 C 13.608998 45.28799 8.052998 45.28799 6.8959985 45.28799 C 7.7119985 50.12199 10.627998 51.024994 13.707998 51.024994 C 15.604999 51.024994 17.436 49.297993 18.905998 47.914993 C 19.986998 46.899994 20.763 46.165993 21.479998 46.165993 C 21.479998 46.165993 40.322 46.165993 40.733997 46.165993 C 41.059 45.811993 41.944996 44.69699 41.962997 43.15399 L 41.967 43.15399 C 41.967 43.146 41.965 43.141 41.965 43.133 z "/>
</svg>
