<?xml version="1.0" encoding="UTF-8"?>
<svg xmlns="http://www.w3.org/2000/svg" xmlns:xlink="http://www.w3.org/1999/xlink" contentScriptType="text/ecmascript" width="60" baseProfile="tiny" zoomAndPan="magnify" contentStyleType="text/css" viewBox="-0.785 0.161 60 52" height="52" preserveAspectRatio="xMidYMid meet" version="1.1">
    <path fill="#bf0000" d="M 7.474 6.162 C 6.229 6.162 5.215 7.176 5.215 8.4210005 L 5.215 43.901 C 5.215 45.147 6.229 46.162003 7.474 46.162003 L 50.955 46.162003 C 52.200996 46.162003 53.214996 45.147003 53.214996 43.901 L 53.214996 8.421 C 53.214996 7.176 52.200996 6.1619997 50.955 6.1619997 L 7.474 6.1619997 z "/>
    <g>
        <path fill="#f4b9ba" d="M 6.215 43.901 L 6.215 8.421 C 6.215 7.7269993 6.779 7.162 7.474 7.162 L 50.955 7.162 C 51.648 7.162 52.214996 7.726 52.214996 8.421 L 52.214996 43.901 C 52.214996 44.596 51.650997 45.162003 50.955 45.162003 L 7.474 45.162003 C 6.779 45.162 6.215 44.597 6.215 43.901 z "/>
    </g>
    <path fill="#8b0000" d="M 51.833 7.539 C 51.59 7.287 51.305 7.162 50.955 7.162 L 7.474 7.162 C 6.78 7.162 6.215 7.726 6.215 8.4210005 L 6.215 43.901 C 6.215 44.248 6.3580003 44.553 6.5870004 44.774 C 6.59 44.788 7.215 44.147003 7.215 44.147003 L 7.215 8.162 L 51.214 8.162 L 51.833 7.539 z "/>
    <path fill="#ffffff" d="M 6.597 44.784 C 6.84 45.036 7.126 45.161 7.475001 45.161 L 50.956 45.161 C 51.65 45.161 52.215 44.597 52.215 43.901 L 52.215 8.421 C 52.215 8.075 52.072 7.769 51.843 7.5479994 C 51.84 7.5349994 51.215 8.176 51.215 8.176 C 51.215 8.176 51.215 43.382 51.215 44.161 C 50.477 44.161 7.216 44.161 7.216 44.161 L 6.597 44.784 z "/>
    <rect x="27.33" y="16.161" transform="matrix(-0.7072 -0.707 0.707 -0.7072 31.3815 65.3178)" fill="#ffffff" width="3.771" height="20"/>
    <circle fill="#ffffff" r="3.15" cx="23.665" cy="20.611"/>
    <circle fill="#ffffff" r="3.15" cx="34.766" cy="31.712"/>
</svg>
