<?xml version="1.0" encoding="UTF-8"?>
<svg xmlns="http://www.w3.org/2000/svg" xmlns:xlink="http://www.w3.org/1999/xlink" contentScriptType="text/ecmascript" width="54" baseProfile="tiny" zoomAndPan="magnify" contentStyleType="text/css" viewBox="0 0 54 54" height="54" preserveAspectRatio="xMidYMid meet" version="1.1">
    <g>
        <g>
            <rect width="54" fill="none" height="54"/>
        </g>
        <path d="M 26.636 17.072 C 21.93 17.072 17.183 19.488 17.183 24.886002 C 17.183 27.365002 19.301 31.331 20.999998 34.517 C 21.806995 36.025 22.677998 37.58 23.585 38.779003 L 24.228998 39.631004 L 24.214 40.375004 L 24.459 40.375004 L 28.734 40.375004 L 29.172 40.375004 L 29.172 39.949005 L 29.506 39.279007 C 29.509998 39.275005 29.620998 39.070007 29.833998 38.73201 C 30.263998 38.044006 31.396996 36.250008 32.092 35.123005 C 33.322998 33.129005 36.594 27.822004 36.594 24.887005 C 36.594 19.516 31.434 17.072 26.636 17.072 L 26.636 17.072 z "/>
        <g>
            <path fill="#ffffff" d="M 40.286 22.92 C 40.068 21.768 39.921 20.488 39.921 20.488 L 46.106 14.267 L 41.469 9.621 L 35.443996 15.693001 C 33.943996 14.681001 32.164997 13.951001 30.177998 13.550001 L 30.177998 4.529 L 23.615995 4.529 L 23.615995 13.466999 C 21.587996 13.823999 19.787998 14.546999 18.276997 15.564999 L 12.372997 9.6259985 L 7.744 14.27 L 13.924 20.489 C 13.924 20.489 13.674 21.878 13.492 22.921 L 4.9419994 22.921 L 4.9419994 29.484 L 14.207 29.484 C 15.007999 31.708 16.215 33.982 17.341 36.091 C 18.057 37.427 18.831 38.821 19.699 40.058 L 19.699 49.477997 L 33.732 49.477997 L 33.732 40.020996 C 33.732 40.020996 35.146 37.768997 35.681 36.903996 C 37.327 34.233994 39.767 29.483995 39.767 29.483995 L 49.056 29.483995 L 49.056 22.92 L 40.286 22.92 z "/>
            <path fill="#840000" d="M 26.669 15.055 C 20.185 15.055 15.156001 18.887 15.156001 25.076 C 15.156001 28.014 17.126 31.746 18.979 35.217 C 19.808 36.772 20.65 38.262 21.581 39.488 C 21.57 39.488 21.558 39.488 21.558 39.488 L 21.558 47.619 L 31.875 47.619 L 31.875 39.488 C 31.877 39.48 33.299 37.224 34.102 35.929 C 36.313 32.345 38.641003 28.168 38.641003 25.075 C 38.641 18.887 33.154 15.055 26.669 15.055 z M 24.684 44.367 L 24.684 42.086 L 28.582 42.086 L 28.582 44.367 L 24.684 44.367 z "/>
            <path fill="#ffffff" d="M 26.669 17.953 C 22.379002 17.953 18.052002 20.154 18.052002 25.074 C 18.052002 27.332 19.983002 30.949 21.531002 33.851997 C 22.266005 35.226997 24.461002 39.192 24.461002 39.192 L 28.979002 39.192 C 28.979002 39.192 31.007002 35.432 31.641005 34.405 C 32.764004 32.588997 35.745003 27.751 35.745003 25.073996 C 35.745 20.178 31.039 17.953 26.669 17.953 L 26.669 17.953 z "/>
            <rect x="25.475" width="2.845" fill="#840000" y="6.387" height="5.57"/>
            <rect x="41.627" width="5.572" fill="#840000" y="24.779" height="2.848"/>
            <rect x="6.8" width="5.573" fill="#840000" y="24.779" height="2.848"/>
            <polygon fill="#840000" points="39.92,17.855 37.912,15.842 41.475,12.258 43.484,14.27   "/>
            <polygon fill="#840000" points="12.371,12.258 10.365,14.271 13.929,17.857 15.938,15.846   "/>
        </g>
    </g>
</svg>
