<?xml version="1.0" encoding="UTF-8"?>
<svg xmlns="http://www.w3.org/2000/svg" xmlns:xlink="http://www.w3.org/1999/xlink" contentScriptType="text/ecmascript" width="44" baseProfile="tiny" zoomAndPan="magnify" contentStyleType="text/css" viewBox="-3.072 -3.562 44 44" height="44" preserveAspectRatio="xMidYMid meet" version="1.1">
    <g>
        <rect x="-3.072" width="44" fill="none" y="-3.562" height="44"/>
    </g>
    <g>
        <g>
            <radialGradient gradientUnits="userSpaceOnUse" xlink:type="simple" r="51.1162" xlink:actuate="onLoad" cx="21.2073" id="XMLID_4_" cy="31.4351" xlink:show="other">
                <stop stop-color="#ad832f" offset="0"/>
                <stop stop-color="#8e6f3a" offset="0.5337"/>
                <stop stop-color="#704d18" offset="1"/>
            </radialGradient>
            <path fill="url(#XMLID_4_)" d="M 22.951 13.332 C 18.462 13.332 14.808001 16.989 14.808001 21.481 C 14.808001 25.141998 17.239 28.246998 20.569 29.269 C 25.773 27.877998 29.709 23.389 30.252 17.891998 C 28.922 15.196 26.153 13.332 22.951 13.332 z M 12.479 21.481 C 12.479 15.705001 17.177 11.008001 22.951 11.008001 C 25.67 11.008001 28.142 12.0580015 30.007 13.763001 C 28.715 7.86 23.464 3.438 17.174 3.438 C 9.914 3.438 4.0289993 9.324 4.0289993 16.584 C 4.0289993 23.606 9.542 29.327 16.474998 29.693 C 14.046 27.774 12.479 24.809 12.479 21.481 z "/>
        </g>
    </g>
    <g>
        <g>
            <radialGradient gradientUnits="userSpaceOnUse" xlink:type="simple" r="11.8786" xlink:actuate="onLoad" cx="17.4607" id="XMLID_5_" cy="15.8228" xlink:show="other">
                <stop stop-color="#f1de84" offset="0"/>
                <stop stop-color="#c4a64a" offset="1"/>
            </radialGradient>
            <path fill="url(#XMLID_5_)" d="M 13.374 14.533 C 13.533 14.533 13.573999 13.979 13.573999 13.979 L 13.839999 13.913 C 13.839999 13.913 14.105999 14.711 14.237999 14.819 C 14.303999 14.875 14.534999 14.886001 14.786999 14.937 C 15.079999 14.572 15.397999 14.23 15.735999 13.908 C 15.238999 13.926 14.805999 13.897 14.592999 13.869 C 14.257999 13.821 14.592999 13.181001 14.858 12.891001 C 15.125 12.602001 15.347 13.002001 15.458 13.0460005 C 15.458 13.0460005 16.012001 13.09 16.353 13.356001 C 18.156 11.889001 20.452 11.0060005 22.952 11.0060005 C 24.87 11.0060005 26.665 11.533001 28.214 12.438001 L 27.657 11.496 L 27.389002 10.409 L 28.034002 10.72 C 28.034002 10.72 28.165005 10.72 28.079002 10.231 C 27.946005 10.257 27.545002 10.123 27.456003 10.08 C 27.368004 10.033 26.190002 7.595 26.190002 7.595 L 24.597 7.02 L 23.91 5.532 C 23.71 5.221 22.424 4.356 20.603 4.222 C 20.136002 4.188 21.398 4.711 21.156 5.243 C 21.222 5.42 21.396 5.819 21.199 5.886 C 21.005 5.954 20.844 6.413 20.158 6.175 C 20.012 6.124 19.669998 6.262 19.669998 6.262 C 19.669998 6.262 19.625998 7.194 19.336998 7.305 C 19.044998 7.415001 18.891998 7.572001 18.846998 7.859 C 18.804 8.149 17.228 8.566 17.027998 8.566 C 16.827995 8.566 16.032997 7.925 15.853998 7.904 C 14.833998 7.932 13.925999 8.746 13.747998 8.766 C 13.570998 8.790999 12.950998 8.992 13.103998 9.764999 C 13.038999 9.830999 11.6849985 10.898999 11.6849985 10.497999 C 11.6849985 10.096999 11.972999 8.897999 11.573998 9.275999 C 11.173999 9.655999 10.554998 9.744 10.798999 10.053999 C 11.040998 10.364999 11.218999 10.784999 11.019999 10.805999 C 10.819999 10.827999 10.641998 11.073998 10.708999 11.581999 C 10.775999 12.093999 9.999999 12.159999 9.843999 11.805999 C 9.689999 11.453999 8.889999 12.534999 8.889999 12.534999 L 8.978999 13.314999 L 7.2929993 14.421999 C 7.2929993 14.421999 6.4939995 15.109999 6.4709992 15.242999 C 6.4499993 15.375999 5.8499994 17.346 6.072999 17.859 C 6.295999 18.369 6.517999 19.59 7.028999 19.742 C 7.5389986 19.897 8.487999 20.127 8.580999 20.204998 C 9.442999 20.948996 9.844999 22.579998 9.890999 22.667995 C 9.933999 22.760998 10.642999 23.911997 10.356998 24.706997 C 10.0669985 25.503998 10.954998 25.950996 11.020998 26.128998 C 11.087998 26.306995 12.103998 28.273 13.327998 28.034998 C 13.577998 28.157995 14.119998 28.218 14.570998 27.729998 C 13.263998 25.982998 12.478998 23.822998 12.478998 21.477997 C 12.478998 19.495996 13.041998 17.646996 14.001998 16.065996 C 13.662998 15.967997 13.301998 15.820996 13.106998 15.682996 C 12.799998 15.462996 12.531999 15.682996 12.332998 15.928996 C 12.133998 16.169996 11.156999 14.842997 11.156999 14.842997 C 11.156999 14.842997 11.321999 14.186996 11.183999 14.046997 C 10.274999 13.693997 9.362 13.598997 9.362 13.598997 L 9.181999 13.378997 L 9.603999 13.355997 L 10.068999 12.956997 C 10.068999 12.956997 10.782 12.579997 11.023999 12.380997 C 11.23 12.211997 12.244999 13.466997 12.244999 13.466997 C 12.244999 13.466997 12.041999 13.978997 11.954999 14.086997 C 12.287999 14.064997 12.730999 13.599997 12.730999 13.599997 C 12.086999 12.781997 12.419999 12.625997 12.419999 12.625997 L 12.933999 13.246997 L 12.886999 13.689997 C 12.887 13.692 13.221 14.533 13.374 14.533 z M 14.551 9.258 C 14.611 9.160001 14.750999 9.832001 14.752 9.967 C 14.752 10.1 14.352 10.166 14.239 10.477 C 14.133 10.791 13.466001 10.633 13.441 10.525001 C 13.379 10.246 14.074 10.028 14.551 9.258 z M 28.145 15.905 C 28.145 15.905 28.216 15.672 28.313 15.362 C 26.878 14.101999 25.004 13.332 22.952 13.332 C 19.808 13.332 17.08 15.128 15.723 17.746 C 15.849999 17.967 15.947 18.15 15.945999 18.15 L 15.990999 18.53 C 15.990999 18.53 17.23 19.496998 16.591 20.235998 C 16.144 20.103 15.745 19.283 15.634999 19.127 C 15.524999 18.971 15.572 18.527 15.572 18.527 C 15.572 18.527 15.528 18.423998 15.467 18.277998 C 15.045 19.261995 14.809 20.344995 14.809 21.481998 C 14.809 22.957998 15.21 24.337996 15.899 25.533998 L 17.921 22.302998 C 17.921 22.302998 18.375 21.687998 18.541 21.276997 C 18.654 20.987995 18.717 20.701996 18.008 20.875998 C 17.298 21.058998 16.59 20.900995 17.235 20.500998 C 17.589998 20.414995 18.763998 19.879995 18.763998 19.879995 L 20.162998 18.640997 C 20.162998 18.640997 20.519 18.198996 19.632998 17.574997 C 19.496998 17.441998 28.058998 17.574997 28.166998 17.642998 C 28.281998 17.706997 28.699997 18.171995 28.812998 17.397997 C 28.921 16.618 28.145 15.905 28.145 15.905 z M 18.806 17.926 L 18.01 17.04 L 17.988 16.665 L 18.316 16.685001 L 18.763 17.106 L 19.407 17.330002 C 19.541 17.862 18.806 17.926 18.806 17.926 z M 8.861 6.91 C 8.904 6.798 9.702 6.396 9.923 6.199 C 10.149 5.9979997 10.481 5.931 10.922 5.5109997 C 11.366 5.0909996 12.744 5.0459995 12.988 4.937 C 13.233 4.825 14.541 4.4459996 14.406 4.6699996 C 14.271 4.891 13.806 5.2449994 12.498 5.5119996 C 12.408 5.5119996 9.967 6.9559994 11.299 6.5329995 C 11.542 6.5119996 12.231999 6.4909997 12.561 6.5989995 C 12.899 6.7089996 15.651 5.799999 15.625 5.2239995 L 16.737 3.5379996 C 15.804 3.4039996 13.559999 4.0059996 13.23 4.0909996 C 13.16 4.158 12.385 4.47 12.385 4.47 C 12.385 4.47 11.275001 5.0239997 10.566 5.2009997 C 9.966 5.556 8.369 6.6879997 8.347 7.132 C 8.325001 7.576 8.814 7.021 8.861 6.91 z "/>
        </g>
    </g>
    <linearGradient x1="-653.2527" gradientTransform="matrix(0 -1 -1 0 160.9695 -645.2229)" y1="151.5308" x2="-679.1297" gradientUnits="userSpaceOnUse" y2="125.6537" xlink:type="simple" xlink:actuate="onLoad" id="XMLID_6_" xlink:show="other">
        <stop stop-color="#ffffcf" offset="0"/>
        <stop stop-color="#f0de80" offset="0.11"/>
        <stop stop-color="#c26e54" offset="0.35"/>
        <stop stop-color="#b0361a" offset="0.48"/>
        <stop stop-color="#ad2621" offset="0.6629"/>
        <stop stop-color="#9c0a00" offset="0.75"/>
        <stop stop-color="#991712" offset="0.82"/>
        <stop stop-color="#8a0000" offset="0.91"/>
        <stop stop-color="#730303" offset="0.99"/>
        <stop stop-color="#730303" offset="1"/>
    </linearGradient>
    <path fill="url(#XMLID_6_)" d="M 14.257 21.727 C 14.257 26.623 18.24 30.606 23.135 30.606 C 24.828 30.606 26.404 30.122 27.751 29.303 L 33.351997 34.896 L 36.382996 32.011 L 30.710997 26.340002 C 31.533997 24.992002 32.017994 23.410002 32.017994 21.727 C 32.017994 16.830002 28.030994 12.8480015 23.134996 12.8480015 C 18.24 12.848 14.257 16.83 14.257 21.727 z M 30.041 21.727 C 30.041 25.533998 26.941 28.634 23.135 28.634 C 19.329 28.634 16.231 25.533 16.231 21.727 C 16.231 17.918 19.329 14.817999 23.135 14.817999 C 26.942 14.818 30.041 17.918 30.041 21.727 z "/>
</svg>
