<?xml version="1.0" encoding="UTF-8"?>
<svg xmlns="http://www.w3.org/2000/svg" xmlns:xlink="http://www.w3.org/1999/xlink" contentScriptType="text/ecmascript" width="100" baseProfile="tiny" zoomAndPan="magnify" contentStyleType="text/css" viewBox="0 0 100 100" height="100" preserveAspectRatio="xMidYMid meet" version="1.1">
    <path fill="#ffffff" d="M 91.621 21.397 C 88.596 24.984 83.736 28.446999 77.101 31.461998 C 76.506 30.017998 69.342995 12.441998 69.342995 12.441998 L 30.979 29.553 L 6.981 57.357 L 8.401 60.954998 L 16.205 64.721 L 16.037 88.414 L 60.332 88.465004 L 60.332 84.88901 L 62.652 86.05101 L 82.892 51.07901 L 83.386 46.867012 C 83.386 46.867012 81.283005 41.63201 81.08 41.13901 C 84.606 37.470013 91.496 26.532011 92.992004 22.146011 C 93.217 21.208 92.07 20.818 91.621 21.397 z "/>
    <polygon fill="#e0bc6c" points="68.923,13.509 31.709,30.042 28.989,34.915 80.699,49.791 82.576,46.988 "/>
    <polygon fill="#f1de84" points="31.465,31.206 82.266,47.938 62.283,62.52 26.204,37.994 "/>
    <polygon fill="#5c1001" points="31.498,30.295 41.944,48.262 49.917,50.633 82.549,46.986 38.259,63.525 "/>
    <polygon fill="#e0bc6c" points="8.007,57.348 31.476,30.209 41.348,49.855 50.136,52.816 82.648,46.986 62.232,81.146 "/>
    <linearGradient x1="-280.0142" gradientTransform="matrix(2.2792 0 0 2.2792 671.9355 -835.1318)" y1="408.8096" x2="-284.6142" gradientUnits="userSpaceOnUse" y2="386.9396" xlink:type="simple" xlink:actuate="onLoad" id="XMLID_60_" xlink:show="other">
        <stop stop-color="#e0bc6c" offset="0"/>
        <stop stop-color="#7f3c21" offset="1"/>
    </linearGradient>
    <polygon fill="url(#XMLID_60_)" points="8.007,57.348 40.182,47.342 41.348,49.855 "/>
    <linearGradient x1="-267.9634" gradientTransform="matrix(2.2792 0 0 2.2792 671.9355 -835.1318)" y1="406.2754" x2="-272.563" gradientUnits="userSpaceOnUse" y2="384.407" xlink:type="simple" xlink:actuate="onLoad" id="XMLID_61_" xlink:show="other">
        <stop stop-color="#e0bc6c" offset="0"/>
        <stop stop-color="#7f3c21" offset="1"/>
    </linearGradient>
    <polygon fill="url(#XMLID_61_)" points="62.223,81.211 54.245,52.105 50.136,52.816 "/>
    <polygon fill="#7f3c21" points="82.576,46.988 62.186,81.104 62.382,84.986 82.124,50.83 "/>
    <linearGradient x1="-278.874" gradientTransform="matrix(2.2792 0 0 2.2792 671.9355 -835.1318)" y1="396.5234" x2="-279.8746" gradientUnits="userSpaceOnUse" y2="398.8148" xlink:type="simple" xlink:actuate="onLoad" id="XMLID_62_" xlink:show="other">
        <stop stop-color="#7f3c21" offset="0"/>
        <stop stop-color="#670000" offset="1"/>
    </linearGradient>
    <polygon fill="url(#XMLID_62_)" points="62.186,81.104 8.037,57.338 9.037,60.215 62.42,84.939 "/>
    <polygon fill="#f1de84" points="17.219,55.699 17.055,87.572 59.191,87.496 59.102,55.834 "/>
    <linearGradient x1="-270.2212" gradientTransform="matrix(2.2792 0 0 2.2792 671.9355 -835.1318)" y1="392.874" x2="-281.0911" gradientUnits="userSpaceOnUse" y2="406.5439" xlink:type="simple" xlink:actuate="onLoad" id="XMLID_63_" xlink:show="other">
        <stop stop-color="#b0381e" offset="0"/>
        <stop stop-color="#5c1001" offset="1"/>
    </linearGradient>
    <path fill="url(#XMLID_63_)" d="M 49.447 64.666 C 59.336998 70.279 52.503998 78.057 42.684998 81.664 L 42.881996 84.883 L 30.92 81.342 L 42.142998 74.204 L 42.307 77.328 C 49.814 74.406 53.969 69.387 49.447 64.666 z "/>
    <linearGradient x1="-271.8721" gradientTransform="matrix(2.2792 0 0 2.2792 671.9355 -835.1318)" y1="390.7227" x2="-291.1633" gradientUnits="userSpaceOnUse" y2="402.7034" xlink:type="simple" xlink:actuate="onLoad" id="XMLID_64_" xlink:show="other">
        <stop stop-color="#b0381e" offset="0"/>
        <stop stop-color="#5c1001" offset="1"/>
    </linearGradient>
    <path fill="url(#XMLID_64_)" d="M 26.555 79.451 C 16.666 73.837 23.498001 66.06 33.318 62.454994 L 33.122 59.233994 L 45.083 62.774994 L 33.858 69.913994 L 33.694 66.786995 C 26.19 69.714 22.038 74.732 26.555 79.451 z "/>
    <linearGradient x1="-256.1006" gradientTransform="matrix(2.2792 0 0 2.2792 671.9355 -835.1318)" y1="382.1777" x2="-277.1606" gradientUnits="userSpaceOnUse" y2="393.7577" xlink:type="simple" xlink:actuate="onLoad" id="XMLID_65_" xlink:show="other">
        <stop stop-color="#e0bc6c" offset="0"/>
        <stop stop-color="#7f3c21" offset="1"/>
    </linearGradient>
    <path fill="url(#XMLID_65_)" d="M 50.095 50.471 L 79.424 47.194 C 79.424 47.194 81.393005 45.389 82.36301 44.404 L 80.41 39.02 L 82.906006 34.25 L 50.095 50.471 z "/>
    <linearGradient x1="-254.4941" gradientTransform="matrix(2.2792 0 0 2.2792 671.9355 -835.1318)" y1="381.3701" x2="-277.6839" gradientUnits="userSpaceOnUse" y2="394.12" xlink:type="simple" xlink:actuate="onLoad" id="XMLID_66_" xlink:show="other">
        <stop stop-color="#e0bc6c" offset="0"/>
        <stop stop-color="#7f3c21" offset="1"/>
    </linearGradient>
    <path fill="url(#XMLID_66_)" d="M 54.438 51.947 L 51.209 52.505997 L 51.117 52.187996 C 51.117 52.187996 30.103 59.536995 29.916 60.490997 C 32.408 60.915997 40.754 57.993996 43.067 57.1 C 45.964 58.635 50.326 59.497997 53.183002 59.389 C 54.216003 59.354 55.292004 59.246 56.390003 59.076 C 62.886 58.061 72.523 53.395 79.179 47.457 L 54.438 51.947 z "/>
    <linearGradient x1="-264.0767" gradientTransform="matrix(2.2792 0 0 2.2792 671.9355 -835.1318)" y1="371.915" x2="-266.8467" gradientUnits="userSpaceOnUse" y2="394.4356" xlink:type="simple" xlink:actuate="onLoad" id="XMLID_67_" xlink:show="other">
        <stop stop-color="#e6eef4" offset="0"/>
        <stop stop-color="#c03a3a" offset="0.44"/>
        <stop stop-color="#302d02" offset="0.94"/>
        <stop stop-color="#302d02" offset="1"/>
    </linearGradient>
    <path fill="url(#XMLID_67_)" d="M 51.895 43.569 L 51.936 42.115 L 47.058002 47.175003 L 47.142002 45.769005 L 41.216003 55.250004 C 52.046005 62.568005 78.451004 52.967003 92.472 21.992004 C 86.795 31.586 51.895 43.569 51.895 43.569 z "/>
    <linearGradient x1="-273.9888" gradientTransform="matrix(2.2792 0 0 2.2792 671.9355 -835.1318)" y1="394.0605" x2="-265.3188" gradientUnits="userSpaceOnUse" y2="383.1405" xlink:type="simple" xlink:actuate="onLoad" id="XMLID_68_" xlink:show="other">
        <stop stop-color="#e0bc6c" offset="0"/>
        <stop stop-color="#7f3c21" offset="1"/>
    </linearGradient>
    <path fill="url(#XMLID_68_)" d="M 92.538 21.673 C 82.105 34.067 58.941 37.422 53.84 41.115 C 49.668 45.126003 46.979 49.803 46.979 49.803 C 47.693 47.257 50.51 43.867 51.947998 42.056 C 51.004997 42.674 50.128 43.324 49.315 44.002 C 46.815 47.017998 44.987 50.66 44.987 50.66 C 45.509 48.945 46.447998 47.049 47.167 45.724 C 43.47 49.298 41.392 53.751 41.431 53.793 C 48.738 60.262 75.984 53.611 92.538 21.673 z "/>
    <linearGradient x1="-255.6372" gradientTransform="matrix(2.2792 0 0 2.2792 671.9355 -835.1318)" y1="374.9434" x2="-279.3878" gradientUnits="userSpaceOnUse" y2="393.6938" xlink:type="simple" xlink:actuate="onLoad" id="XMLID_69_" xlink:show="other">
        <stop stop-color="#e0bc6c" offset="0"/>
        <stop stop-color="#7f3c21" offset="1"/>
    </linearGradient>
    <path fill="url(#XMLID_69_)" d="M 36.497 57.826 L 28.631 59.846 C 28.631 59.846 73.024 40.383003 86.895004 28.203001 C 69.932 44.598 48.406 52.574 36.497 57.826 z "/>
    <path fill="#f1de84" d="M 35.113 57.432 C 32.953 58.245 30.838 58.94 28.861 59.315 C 44.068 51.245 70.391 41.829998 86.893005 28.204998 C 71.706 42.028 48.543 51.439 35.113 57.432 z "/>
    <linearGradient x1="28.0684" gradientTransform="matrix(1 0 0 -1 0.1377 98.834)" y1="40.5586" x2="36.3604" gradientUnits="userSpaceOnUse" y2="40.5586" xlink:type="simple" xlink:actuate="onLoad" id="XMLID_70_" xlink:show="other">
        <stop stop-color="#7f3c21" offset="0"/>
        <stop stop-color="#670000" offset="1"/>
    </linearGradient>
    <path fill="url(#XMLID_70_)" d="M 33.646 56.771 C 35.119 56.09 36.498 57.826 36.498 57.826 C 36.498 57.826 28.667002 60.832 28.206001 59.670002 C 28.203 59.67 30.605 58.174 33.646 56.771 z "/>
    <rect width="100" fill="none" height="100"/>
</svg>
