<?xml version="1.0" encoding="UTF-8"?>
<svg xmlns="http://www.w3.org/2000/svg" xmlns:xlink="http://www.w3.org/1999/xlink" contentScriptType="text/ecmascript" width="100" baseProfile="tiny" zoomAndPan="magnify" contentStyleType="text/css" viewBox="0 0 100 69.047" height="69.047" preserveAspectRatio="xMidYMid meet" version="1.1">
    <path fill="#ffffff" d="M 27.049 10.584 L 28.761 47.531 C 28.761 47.531 29.421 47.713997 29.743 47.802 C 29.529 48.454998 26.096 58.958 26.096 58.958 L 43.489 65.149 C 43.489 65.149 50.143997 60.442 50.427998 60.241 C 50.76 60.358 61.704 64.253 61.704 64.253 L 69.568 58.681 L 73.218 55.474 L 74.447 17.355 L 31.93 9.114 L 27.049 10.584 z "/>
    <polygon fill="#eacf5a" points="27.399,10.809 69.771,19.328 69.328,58.354 29.081,47.04 "/>
    <linearGradient x1="32.6211" gradientTransform="matrix(1 0 0 -1 0.1377 67.8809)" y1="39.3877" x2="72.9911" gradientUnits="userSpaceOnUse" y2="24.6877" xlink:type="simple" xlink:actuate="onLoad" id="XMLID_7_" xlink:show="other">
        <stop stop-color="#f1de84" offset="0"/>
        <stop stop-color="#cd9f3d" offset="1"/>
    </linearGradient>
    <path fill="url(#XMLID_7_)" d="M 33.179 18.309 C 33.179 26.807 33.179 34.197998 33.179 42.850998 L 57.0 49.1 C 57.0 40.44 57.0 31.776 57.0 23.113998 L 33.179 18.309 z "/>
    <linearGradient x1="75.3213" gradientTransform="matrix(1 0 0 -1 0.1377 67.8809)" y1="34.6216" x2="47.0527" gradientUnits="userSpaceOnUse" y2="24.3321" xlink:type="simple" xlink:actuate="onLoad" id="XMLID_8_" xlink:show="other">
        <stop stop-color="#f1de84" offset="0"/>
        <stop stop-color="#cd9f3d" offset="1"/>
    </linearGradient>
    <path fill="url(#XMLID_8_)" d="M 69.678 25.668 L 57.0 23.113 C 57.0 31.775002 57.0 40.438004 57.0 49.098 L 69.365 52.343998 L 69.678 25.668 z "/>
    <linearGradient x1="30.4326" gradientTransform="matrix(1 0 0 -1 0.1377 67.8809)" y1="37.835" x2="65.7526" gradientUnits="userSpaceOnUse" y2="33.615" xlink:type="simple" xlink:actuate="onLoad" id="XMLID_9_" xlink:show="other">
        <stop stop-color="#f1de84" offset="0"/>
        <stop stop-color="#cd9f3d" offset="1"/>
    </linearGradient>
    <path fill="url(#XMLID_9_)" d="M 27.796 17.223 L 28.862 41.723 L 33.177 42.852 C 33.177 34.198 33.177 26.806002 33.177 18.310001 L 27.796 17.223 z "/>
    <linearGradient x1="27.4678" y1="14.4873" x2="74.0762" gradientUnits="userSpaceOnUse" y2="14.4873" xlink:type="simple" xlink:actuate="onLoad" id="XMLID_10_" xlink:show="other">
        <stop stop-color="#7f3c21" offset="0"/>
        <stop stop-color="#670000" offset="1"/>
    </linearGradient>
    <polygon fill="url(#XMLID_10_)" points="74.076,17.611 31.936,9.442 27.468,10.775 69.867,19.533 "/>
    <path fill="#7f3c21" d="M 27.428 10.773 L 69.770996 19.452 L 69.328995 58.348 L 29.087 47.229 L 27.428 10.773 z M 66.913 24.394 L 69.773 25.011 L 69.787 21.576 L 66.911 20.972 L 66.913 24.394 z M 62.441 23.352 L 64.802 23.901999 L 64.786 20.492998 L 62.416004 19.96 L 62.441 23.352 z M 57.952 22.334 L 60.32 22.876 L 60.287 19.486 L 57.904 18.959 L 57.952 22.334 z M 53.445 21.326 L 55.826 21.858 L 55.767002 18.497 L 53.373 17.982 L 53.445 21.326 z M 48.927 20.334 L 51.315 20.852 L 51.231 17.515999 L 48.835 17.011 L 48.927 20.334 z M 44.396 19.365 L 46.792 19.873 L 46.684 16.56 L 44.279 16.06 L 44.396 19.365 z M 39.852 18.402 L 42.251 18.901001 L 42.124 15.619001 L 39.713 15.123001 L 39.852 18.402 z M 35.291 17.451 L 37.702 17.947 L 37.553 14.679001 L 35.131 14.195001 L 35.291 17.451 z M 27.642 15.896 L 28.771 16.125 L 28.575 12.91 L 27.531 12.709 L 27.642 15.896 z M 30.722 16.52 L 33.135002 17.008001 L 32.963 13.770001 L 30.534 13.291001 L 30.722 16.52 z M 66.893 55.52 L 69.377 56.208 L 69.387 52.775 L 66.889 52.1 L 66.893 55.52 z M 62.604 54.295 L 64.87 54.94 L 64.852005 51.53 L 62.579006 50.897 L 62.604 54.295 z M 58.297 53.084 L 60.57 53.718998 L 60.538 50.330997 L 58.253 49.700996 L 58.297 53.084 z M 53.984 51.889 L 56.263 52.518 L 56.204002 49.16 L 53.914 48.539 L 53.984 51.889 z M 49.652 50.703 L 51.940002 51.329998 L 51.858 47.988 L 49.559002 47.378998 L 49.652 50.703 z M 45.305 49.539 L 47.604 50.156002 L 47.5 46.838 L 45.196 46.238003 L 45.305 49.539 z M 40.946 48.389 L 43.25 48.993 L 43.124 45.708 L 40.81 45.109 L 40.946 48.389 z M 36.57 47.252 L 38.884 47.85 L 38.733997 44.579 L 36.412 43.990997 L 36.57 47.252 z M 32.184 46.119 L 34.496998 46.714 L 34.327 43.469 L 32.0 42.895 L 32.184 46.119 z M 28.969 45.307 L 30.105999 45.598 L 29.914 42.381 L 28.883 42.149002 L 28.969 45.307 z M 59.21 47.734 L 69.5 50.392002 L 69.705 27.547003 L 59.0 25.125 L 59.21 47.734 z M 35.66 41.822 L 56.346 47.148 L 56.116 24.511 L 34.732 19.87 L 35.66 41.822 z M 28.834 40.115 L 32.757 41.136 L 31.71 19.246002 L 27.794998 18.454002 L 28.834 40.115 z "/>
    <polygon fill="#3e2a08" points="69.303,58.389 72.863,55.279 74.066,17.521 69.771,19.452 "/>
    <polygon fill="#b18e3b" points="69.74,21.594 73.994,19.35 73.875,22.643 69.711,25.003 "/>
    <polygon fill="#b18e3b" points="69.383,52.799 69.338,56.205 72.906,53.406 73.018,50.318 "/>
    <polygon fill="#b18e3b" points="69.705,27.549 69.422,50.418 73.078,48.014 73.783,25.137 "/>
    <polygon fill="#8e6f3a" points="43.423,64.729 41.195,44.613 47.282,41.089 53.745,57.428 "/>
    <polygon fill="#eacf5a" points="43.423,64.729 41.195,44.613 32.083,41.704 26.522,58.712 "/>
    <polygon fill="#c4a64a" points="47.282,41.089 38.188,39.204 32.083,41.704 41.195,44.613 "/>
    <path fill="#8e6f3a" d="M 36.862 41.497 C 36.862 41.497 37.706 42.505 40.217 42.603 C 41.77 42.665 47.156 41.062 47.156 41.062 L 41.116997 39.849 L 36.862 41.497 z "/>
    <radialGradient gradientTransform="matrix(1 0 0 -1 0.1377 67.8809)" gradientUnits="userSpaceOnUse" xlink:type="simple" r="11.61" xlink:actuate="onLoad" cx="34.5122" id="XMLID_11_" cy="39.4609" xlink:show="other">
        <stop stop-color="#f1de84" offset="0"/>
        <stop stop-color="#cd9f3d" offset="0.5337"/>
        <stop stop-color="#704d18" offset="1"/>
    </radialGradient>
    <ellipse rx="8.062" ry="8.084" fill="url(#XMLID_11_)" cx="39.535" cy="33.825"/>
    <polygon fill="#8e6f3a" points="61.639,63.832 59.969,48.789 64.523,46.148 69.355,58.365 "/>
    <polygon fill="#eacf5a" points="61.639,63.832 59.969,48.789 53.148,46.605 48.994,59.333 "/>
    <polygon fill="#c4a64a" points="64.523,46.148 57.721,44.734 53.148,46.605 59.969,48.789 "/>
    <path fill="#8e6f3a" d="M 56.771 46.454 C 56.771 46.454 57.4 47.205997 59.277 47.281 C 60.439 47.329 64.468 46.128998 64.468 46.128998 L 59.95 45.225 L 56.771 46.454 z "/>
    <radialGradient gradientTransform="matrix(1 0 0 -1 0.1377 67.8809)" gradientUnits="userSpaceOnUse" xlink:type="simple" r="13.5293" xlink:actuate="onLoad" cx="56.2129" id="XMLID_12_" cy="30.4619" xlink:show="other">
        <stop stop-color="#f1de84" offset="0"/>
        <stop stop-color="#cd9f3d" offset="0.5337"/>
        <stop stop-color="#704d18" offset="1"/>
    </radialGradient>
    <ellipse rx="6.027" ry="6.046" fill="url(#XMLID_12_)" cx="58.729" cy="40.712"/>
    <path fill="#ffffff" d="M 15.787 40.662 C 12.36 40.662 7.663 41.477997 6.4729996 48.51 L 6.2969995 49.575996 C 6.2969995 49.575996 14.195999 49.575996 15.132999 49.575996 C 15.414 50.082996 15.837999 50.841995 16.104 51.331997 C 15.832 51.815998 15.4140005 52.577995 15.133 53.086 C 14.196 53.086 6.297 53.086 6.297 53.086 L 6.473 54.149 C 7.663 61.18 12.360001 61.996 15.787001 61.996 C 18.491001 61.996 20.898 59.732998 22.834 57.905 C 23.881 56.92 24.866 55.992 25.389 55.992 L 49.577 55.992 L 49.845 55.694 C 50.367 55.124 51.57 53.561 51.595 51.371002 L 51.595 51.297 C 51.572002 49.105 50.369 47.545002 49.845 46.972 L 49.577 46.677002 L 25.391 46.677002 C 24.869001 46.677002 23.882 45.749 22.837002 44.769 C 20.898 42.936 18.492 40.662 15.787 40.662 z "/>
    <path fill="#6e8489" d="M 50.695 51.326 C 50.695 51.316 50.7 51.306 50.7 51.303 L 50.693 51.303 C 50.670002 49.393 49.576 48.02 49.179 47.579002 C 48.667 47.579002 25.395 47.579002 25.395 47.579002 C 24.509 47.579002 23.546001 46.670002 22.211 45.420002 C 20.398 43.708 18.132 41.576 15.787001 41.576 C 11.986 41.576 8.3810005 42.691 7.375001 48.665 C 8.805001 48.665 15.669001 48.665 15.669001 48.665 L 17.143002 51.324 L 15.669002 53.988003 C 15.669002 53.988003 8.805002 53.988003 7.375002 53.988003 C 8.387002 59.963 11.9850025 61.076004 15.787002 61.076004 C 18.134 61.076004 20.395 58.945004 22.211002 57.234005 C 23.545002 55.978004 24.509003 55.074005 25.395002 55.074005 C 25.395002 55.074005 48.669003 55.074005 49.179 55.074005 C 49.579002 54.635006 50.675 53.260006 50.693 51.351006 L 50.7 51.351006 C 50.699 51.348 50.695 51.338 50.695 51.326 z "/>
</svg>
