<?xml version="1.0" encoding="UTF-8"?>
<svg xmlns="http://www.w3.org/2000/svg" xmlns:xlink="http://www.w3.org/1999/xlink" contentScriptType="text/ecmascript" width="26" baseProfile="tiny" zoomAndPan="magnify" contentStyleType="text/css" viewBox="0 0 26 26" height="26" preserveAspectRatio="xMidYMid meet" version="1.1">
    <g>
        <path fill="#3e2a08" d="M 18.677 22.18 L 15.014 18.543 C 13.959 19.057 12.806 19.324 11.637 19.324 C 7.351 19.324 3.8640003 15.837999 3.8640003 11.553 C 3.8640003 7.269 7.351 3.7839992 11.637 3.7839992 C 15.926001 3.7839992 19.414 7.268999 19.414 11.553 C 19.414 12.827999 19.099 14.075999 18.495 15.202 L 22.162 18.834 L 18.677 22.18 L 18.677 22.18 z M 7.542 13.19 C 7.992 14.309 8.887 15.200999 10.007999 15.646999 L 10.007999 13.19 L 7.542 13.19 L 7.542 13.19 z M 13.287 13.19 L 13.287 15.639 C 14.398 15.19 15.285 14.301 15.731999 13.190001 L 13.287 13.190001 L 13.287 13.19 z M 13.287 9.912 L 15.73 9.912 C 15.280999 8.804999 14.396 7.92 13.287 7.472 L 13.287 9.912 L 13.287 9.912 z M 7.544 9.912 L 10.008 9.912 L 10.008 7.462 C 8.89 7.907 7.995 8.797 7.544 9.912 L 7.544 9.912 z "/>
        <path fill="#b0381e" d="M 17.466 15.336 C 18.177 14.244 18.596 12.953001 18.596 11.554001 C 18.596 7.7210007 15.474998 4.6020007 11.637999 4.6020007 C 7.8019986 4.6020007 4.6799984 7.7210007 4.6799984 11.554001 C 4.6799984 15.388 7.800998 18.508 11.637999 18.508 C 12.924998 18.508 14.1259985 18.151 15.160998 17.537 L 18.687998 21.037 L 20.990995 18.826 L 17.466 15.336 z M 11.636 16.775 C 8.754999 16.775 6.408999 14.433 6.408999 11.553999 C 6.408999 8.675999 8.754999 6.333999 11.636 6.333999 C 14.514999 6.333999 16.863 8.675999 16.863 11.553999 C 16.863 14.434 14.518 16.775 11.636 16.775 z M 12.47 7.67 L 10.825001 7.67 L 10.825001 10.729 L 7.767 10.729 L 7.767 12.374001 L 10.825001 12.374001 L 10.825001 15.434 L 12.470001 15.434 L 12.470001 12.374001 L 15.529001 12.374001 L 15.529001 10.729 L 12.47 10.729 L 12.47 7.67 z "/>
        <rect width="26" fill="none" height="26"/>
    </g>
</svg>
