<?xml version="1.0" encoding="UTF-8"?>
<svg xmlns="http://www.w3.org/2000/svg" xmlns:xlink="http://www.w3.org/1999/xlink" contentScriptType="text/ecmascript" width="54" baseProfile="tiny" zoomAndPan="magnify" contentStyleType="text/css" viewBox="0 0 54 54" height="54" preserveAspectRatio="xMidYMid meet" version="1.1">
    <g>
        <g>
            <rect width="54" fill="none" height="54"/>
        </g>
        <g>
            <path fill="#ffffff" d="M 8.479 21.569 L 15.688 21.569 L 15.688 15.468 L 21.74 15.468 L 21.74 8.257 L 8.477 8.257 L 8.479 21.569 z M 15.797 38.424 L 15.797 32.32 L 8.588 32.32 L 8.583 45.634 L 21.852 45.634 L 21.852 38.424 L 15.797 38.424 z M 45.854 32.54 L 38.645 32.54 L 38.645 38.641 L 32.592 38.641 L 32.592 45.854 L 45.858 45.854 L 45.854 32.54 z M 30.74 34.169 L 30.74 31.145 L 33.765 31.145 L 33.765 23.934998 L 30.74 23.934998 L 30.74 20.903996 L 23.529 20.903996 L 23.529 23.934998 L 20.502 23.934998 L 20.502 31.144997 L 23.529 31.144997 L 23.529 34.168995 L 30.74 34.168995 z M 32.592 8.147 L 32.592 15.357 L 38.645 15.357 L 38.645 21.461 L 45.854 21.461 L 45.858 8.147 L 32.592 8.147 z "/>
            <path fill="#840000" d="M 10.762 10.868 L 10.765 18.96 L 10.765 19.285 L 13.403 19.285 L 13.403 13.181 L 19.458 13.181 L 19.458 10.540999 L 10.7630005 10.540999 L 10.762 10.868 L 10.762 10.868 z M 34.877 10.432 L 34.877 13.074 L 40.93 13.074 L 40.93 19.175 L 43.571 19.175 L 43.571 18.85 L 43.573997 10.76 L 43.573997 10.433001 L 34.877 10.432 L 34.877 10.432 z M 13.512 34.605 L 10.873 34.605 L 10.873 34.931 L 10.867001 43.023 L 10.867001 43.349 L 19.564 43.349 L 19.564 40.705997 L 13.511 40.705997 L 13.512 34.605 L 13.512 34.605 z M 43.568 34.826 L 40.93 34.826 L 40.93 40.926 L 34.876 40.926 L 34.876 43.567 L 43.57 43.567 L 43.57 43.242996 L 43.568 35.150997 L 43.568 34.826 L 43.568 34.826 z M 28.455 23.188 L 25.814 23.188 L 25.814 26.217 L 22.787 26.217 L 22.787 28.86 L 25.814 28.86 L 25.814 31.883 L 28.455 31.883 L 28.455 28.86 L 31.48 28.86 L 31.48 26.217 L 28.455 26.217 L 28.455 23.188 z "/>
        </g>
    </g>
</svg>
