<?xml version="1.0" encoding="UTF-8"?>
<svg xmlns="http://www.w3.org/2000/svg" xmlns:xlink="http://www.w3.org/1999/xlink" contentScriptType="text/ecmascript" width="120" baseProfile="tiny" zoomAndPan="magnify" contentStyleType="text/css" viewBox="0 0 120 120" height="120" preserveAspectRatio="xMidYMid meet" version="1.1">
    <linearGradient x1="-0.2817" gradientTransform="matrix(1 0 0 1 0.2754 -723.1104)" y1="735.9863" x2="63.3577" gradientUnits="userSpaceOnUse" y2="785.888" xlink:type="simple" xlink:actuate="onLoad" id="XMLID_15_" xlink:show="other">
        <stop stop-color="#f1de84" offset="0"/>
        <stop stop-color="#cd9f3d" offset="1"/>
    </linearGradient>
    <path fill="url(#XMLID_15_)" d="M 96.343 18.026 L 96.343 18.026 L 96.348 18.019 C 96.348 18.019 92.63 16.127998 87.934 16.085 L 27.441998 21.157 C 22.086998 21.458 19.919998 23.412 20.005997 25.884 L 20.696997 97.362 C 20.684998 99.694 22.921995 101.174 25.093996 102.969 L 96.343 18.026 z "/>
    <path fill="#ffffff" d="M 91.839 17.28 C 96.634 16.877 99.230995 19.557 99.223 22.094002 C 99.216 24.587002 99.952 80.601 99.994 82.994 C 100.056 86.505005 97.495 88.453 94.681 89.144005 C 92.997 89.55801 33.765 103.30601 31.999 103.634 C 25.123 104.90501 23.782 102.224 23.812 100.18701 C 23.851 97.579 23.233 29.587006 23.215 27.333008 C 23.191 24.372007 25.984 23.049007 31.195 22.514008 C 32.525 22.377 89.209 17.501 91.839 17.28 z "/>
    <linearGradient x1="-1093.1919" gradientTransform="matrix(-0.5936 0 0 -0.3989 -550.2098 -1189.2032)" y1="-3133.9629" x2="-972.1104" gradientUnits="userSpaceOnUse" y2="-3133.9629" xlink:type="simple" xlink:actuate="onLoad" id="XMLID_16_" xlink:show="other">
        <stop stop-color="#e0bc6c" offset="0"/>
        <stop stop-color="#8e6f3a" offset="1"/>
    </linearGradient>
    <path fill="url(#XMLID_16_)" d="M 95.02 87.62 C 96.795 87.18 98.68 86.18 98.708 84.200005 C 98.727 83.01301 98.342 24.977003 98.37 23.186005 C 98.394005 21.606005 96.95101 20.476006 93.373 20.797005 C 92.18 20.904003 33.439003 26.598003 31.918 26.656006 C 28.032 26.804008 26.815 28.773006 26.835 29.903006 C 26.835 29.903006 27.747 95.57701 27.762 98.58301 C 27.773998 100.85901 30.127998 101.35401 33.197 101.04401 C 33.197 101.044 93.605 87.973 95.02 87.62 z "/>
    <radialGradient gradientUnits="userSpaceOnUse" xlink:type="simple" r="26.9239" xlink:actuate="onLoad" cx="64.457" id="XMLID_17_" cy="55" xlink:show="other">
        <stop stop-color="#f1de84" offset="0"/>
        <stop stop-color="#e0bc6c" offset="1"/>
    </radialGradient>
    <path fill="url(#XMLID_17_)" d="M 36.652 42.248 C 36.881 41.233 37.004 41.210003 38.923 41.334 C 39.416 43.454 40.205 43.676 40.664 43.607 C 42.235 45.287 41.43 49.66 42.617 51.075996 C 43.685 52.353996 44.192 53.591995 44.582 54.501995 C 48.15 56.786995 47.612 55.666996 49.548 58.57299 C 49.202 59.76099 49.13 60.861996 50.281 64.77599 C 50.281 64.77599 50.816 61.876995 51.297 65.619995 C 51.776 69.368 51.913 66.475 51.145 67.936 C 50.379 69.395 52.061 68.785 51.102 70.395 C 50.142 72.001 50.85 72.569 50.85 72.569 C 50.894 77.45101 50.749 77.184 52.148003 77.309 C 51.92 76.11 52.825 74.032 52.948 72.957 C 53.577003 71.538 55.583 69.169 55.902 66.971 C 56.859 66.194 57.297 65.377 57.231 63.907 C 58.237 62.085003 58.518 61.442 55.543 59.464 C 54.967 56.939 55.189 59.52 53.613 56.096 C 51.401 55.718 49.708 55.432 49.715 56.819 C 48.144 54.97 49.616 54.986 49.03 53.277 C 48.757 52.48 47.310997 53.691 47.372 54.594 C 45.706997 54.095 46.997 51.854 48.395996 51.252003 C 48.744995 51.746 49.224995 52.765003 49.639996 52.569004 C 49.858997 52.176003 49.512997 51.044003 49.883995 50.761005 C 51.046993 49.875004 51.170994 48.957005 50.720997 48.92701 C 51.269997 48.55901 52.115997 47.592007 51.997997 47.41301 C 51.616997 46.829006 52.299995 46.414005 52.340996 46.444004 C 52.789997 47.02401 53.348995 47.00301 53.348995 47.00301 C 53.348995 47.00301 53.032993 45.533005 53.057995 45.532005 C 53.625996 45.662006 53.740993 45.824005 54.10799 46.241005 C 54.999992 45.597004 53.962994 44.345005 53.68399 44.009007 C 54.450993 44.153008 54.025993 42.636005 52.66299 42.893005 C 52.988995 41.928005 52.661995 40.79501 51.449993 40.980007 C 52.024994 39.72001 53.670994 38.66301 50.852993 35.88101 C 51.04999 35.786007 51.775993 35.473007 51.775993 35.473007 C 52.63999 36.150005 53.316994 37.51301 53.693993 38.13101 C 53.666992 40.230007 56.011993 40.35101 55.88599 41.45601 C 58.013992 37.126007 58.038994 39.49501 59.057995 37.82201 C 59.26099 37.95701 60.604996 38.02801 61.002995 35.66201 C 60.031994 34.77901 61.681995 34.00401 61.603996 33.43601 C 61.508995 32.709007 60.504997 32.923008 59.686996 32.90001 C 55.534996 32.62401 54.575996 32.50601 54.122997 33.305008 C 53.935997 33.21901 53.496 32.65701 53.118996 33.229008 C 50.466995 33.265007 49.465996 33.953007 49.307995 34.946007 C 49.338993 34.63801 49.79499 33.008007 49.004993 33.219006 C 48.095993 33.832005 47.452995 33.959007 47.216995 33.221004 C 47.020996 32.610004 45.384995 33.564003 46.113995 34.342003 C 45.629993 34.516003 45.047997 34.902004 45.384995 36.642 C 44.376995 34.899 43.877995 34.638 42.61499 35.576004 C 42.547993 35.077003 42.21199 34.857 41.159992 35.607 C 42.157993 35.921 40.25199 36.133003 40.129993 37.17 C 38.69799 36.631 37.89199 37.070004 37.327995 36.459003 C 35.459995 35.411003 33.751995 37.764004 33.789993 38.563004 C 33.87199 39.329 33.412994 39.531 33.692993 40.201004 C 34.032993 41.018005 33.999992 41.034004 34.51799 43.876003 C 34.83 42.701 34.879 42.701 36.652 42.248 z M 88.081 63.861 C 87.814 63.036 86.861 62.925 86.861 62.925 C 86.861 62.925 86.323 63.405 85.861 63.515 C 83.478 65.611 83.168 65.687 84.179 70.788 L 85.16 70.095 C 85.313 68.908005 86.62601 69.503 87.151 69.156 C 88.676 70.552 88.10401 70.674 89.44 71.54 C 89.346 71.768 89.108 72.51 89.131004 72.51 C 89.702 73.584 90.703 71.606 90.18001 70.67301 C 90.03901 70.286 90.82601 69.94501 90.77601 69.26601 C 90.63201 67.40501 91.63301 67.28701 89.63501 65.282005 C 89.32201 64.97101 89.54001 63.59401 88.45101 62.416004 C 88.699 62.915 88.296 63.273 88.081 63.861 z M 66.078 41.996 C 66.049 42.005997 65.343 41.282 65.296005 41.341 C 64.44201 42.472 64.18201 40.32 64.26601 39.722 C 64.95801 40.379 64.895004 38.326 66.962006 35.619 C 68.295006 36.356 68.37701 34.781 65.618004 34.779 C 63.982 32.297 71.11301 33.675 67.93701 34.634 C 68.08401 36.791 73.662 37.799 74.86101 35.641 C 72.29401 34.489 74.09701 36.027 72.81201 35.973 C 71.462006 35.379 72.56201 34.695 73.43701 34.224 C 71.286 33.621 71.336006 34.445 70.634 33.322998 C 73.68701 33.499996 73.179 32.495 74.07201 32.912 C 74.601006 33.157997 75.09301 35.071 75.978004 34.941 C 77.49901 34.714996 75.93101 36.003 77.31201 35.299 C 78.429 34.734 78.036 34.092 80.074005 34.177 C 79.98601 33.945 79.51301 33.084 79.77901 32.837997 C 80.296005 32.349 81.45801 34.505997 84.86301 34.56 C 85.55801 32.719997 85.146 34.836 86.73 35.19 C 87.699005 33.798 88.205 33.391 88.37701 35.166 C 90.64901 33.494 88.75201 34.377 91.383 35.285 C 92.52901 36.824 93.95101 35.64 95.04401 35.881 C 95.89001 37.528 93.44201 40.556 92.744 40.166 C 92.649 41.014 91.827 40.764 91.827 40.764 C 91.827 40.764 92.28001 43.501 90.496 43.492 C 91.117004 42.796 90.246 42.174 91.276 39.72 C 90.12 40.349003 89.93 41.692 89.046 40.825 C 89.334 43.209 88.671 44.329 89.007 45.354 C 88.38 44.623 86.754 45.431 86.620995 48.296 C 87.281 47.072 87.634 47.297 88.148994 46.794003 C 88.564995 46.388004 87.92799 45.907 89.354 45.731003 C 89.048 46.342003 88.17999 49.111004 87.932 49.484 C 89.134 51.846 87.016 51.381 86.993 50.024 C 86.477 50.661003 86.184 49.992 85.835 50.714 C 85.526 50.401 85.804 47.9 85.075 47.559 C 83.898994 47.812 86.196 50.676003 84.93 53.055 L 84.32601 52.492 C 81.09001 54.828 83.57101 53.878 82.86 55.508 C 82.295 57.148 81.54801 57.481 81.739 58.805 C 81.739 58.805 82.480995 60.059 82.51 60.9 C 83.417 60.069 83.369 60.002003 82.931 58.872 L 84.494 57.494003 L 84.93301 59.213005 C 84.93301 59.213005 87.35701 58.034004 88.267006 60.01001 C 92.577 59.256004 90.256004 59.919006 91.74901 61.472008 C 93.03401 62.03101 95.31301 63.898006 93.48101 64.99901 C 93.61601 66.30201 93.95201 68.26301 93.95201 68.26301 C 92.78801 68.03701 92.71801 67.18701 92.932014 64.13801 C 91.669014 60.99001 92.973015 64.824005 90.07802 60.92701 C 90.07802 60.92701 89.92102 61.90001 90.11402 62.659008 C 89.83902 62.877007 89.03402 61.71801 89.03402 61.71801 C 89.03402 61.71801 88.15702 62.19801 87.63202 61.26501 C 85.694016 61.07701 85.74102 59.96001 85.74102 59.96001 L 84.32902 60.87201 L 86.51002 61.57701 C 86.51002 61.57701 86.44002 62.235012 84.99502 62.186012 C 85.154015 62.832012 81.17602 63.64501 81.000015 58.62001 C 80.39602 58.14801 80.363014 58.200012 80.60001 55.45301 C 80.60001 55.45301 79.78201 53.665012 79.627014 53.35201 C 77.85401 54.744007 78.50801 57.62901 77.60702 57.58101 C 76.24002 57.50501 76.77502 53.08201 74.097015 52.51201 C 74.181015 54.368008 73.27102 54.680008 72.51102 55.91901 C 72.51102 55.91901 73.18702 56.75301 73.39802 56.96101 C 72.46602 60.74801 69.833015 60.33601 71.67402 63.15501 C 70.85102 64.19001 69.44502 70.88901 68.33002 71.12601 C 66.52002 71.51501 65.60402 65.771 65.68402 65.310005 C 65.067024 64.70901 65.623024 63.904007 65.70902 63.474007 C 65.37402 62.67701 65.43802 61.521008 64.898026 59.930008 C 65.88802 58.618008 64.66903 59.28801 64.00303 58.31101 C 63.96103 58.307007 62.53203 58.90801 62.55603 58.92001 C 63.77703 59.75801 60.23703 59.98701 60.88003 57.99601 C 59.94203 56.11701 58.94603 54.08601 60.301033 52.81401 C 60.270035 52.82101 60.439034 49.91901 60.439034 49.91901 C 62.996033 49.78401 62.499035 47.33401 65.312035 48.46501 C 65.533035 49.79101 66.94604 50.35601 66.94604 50.35601 C 66.94604 50.35601 69.16504 49.45901 69.243034 49.28401 C 69.12003 48.96001 67.79604 49.21001 67.82404 47.928013 C 67.90003 48.506012 67.91904 49.210014 67.480034 49.210014 C 67.230034 48.587013 66.95903 48.422016 65.341034 46.199013 C 65.61204 48.050014 66.65003 46.929012 65.88403 48.651012 C 64.93103 45.810013 63.050034 47.615013 62.754032 47.95301 C 62.239033 50.06701 61.45203 47.59501 61.177032 47.401012 C 61.26903 46.325012 62.634033 45.874012 62.793034 45.371017 C 62.798035 43.475018 61.496033 44.080013 61.390034 43.738014 C 61.095036 42.809013 62.116035 43.301018 62.103035 41.022015 C 62.707035 40.488014 63.127033 40.566013 63.27803 41.210014 C 63.398033 41.755013 63.933033 41.431015 63.935036 43.075016 C 64.12103 42.934017 64.952034 42.723015 66.21803 42.743015 C 67.66703 40.732018 68.86903 40.398018 68.36903 39.444016 C 68.24104 39.737015 66.82803 41.149017 67.48103 38.598015 C 66.35603 39.480015 66.58503 39.315018 66.58503 39.964016 C 67.248 40.037 66.48 41.325 66.078 41.996 z M 72.417 63.623 C 71.148 64.925 71.525 66.482 71.193 65.618004 C 70.861 64.75101 71.197 68.346 71.383 68.36301 C 72.554 67.26501 71.786 66.906006 72.406006 66.51101 C 72.229 64.561 72.986 67.645 72.417 63.623 z M 93.139 72.911 C 92.956 73.19701 93.354 74.247 93.354 74.247 C 93.354 74.247 94.243 72.695 94.559 71.814 C 96.151 71.861 94.842 70.334 94.120995 69.894005 C 94.236 71.191 93.939 71.652 93.139 72.911 z M 85.076 53.724 C 84.784 53.511 83.94299 54.662 84.787994 55.947 C 84.534 56.386997 84.506 56.248997 85.20999 56.899 C 85.28299 57.958 85.90399 58.15 86.18599 57.891 C 86.40299 57.647 85.57999 56.217 85.64099 55.349 C 84.986 55.408 85.363 53.935 85.076 53.724 z M 49.87 52.814 C 49.634 53.142 50.298 53.082 50.244 52.844 C 50.222 52.746 49.94 52.715 49.87 52.814 z M 49.653 53.104 C 49.172 52.729 49.195 54.302 49.525 54.01 C 49.629 53.918 49.652 55.111 49.786003 55.094997 C 49.92 55.078 49.936005 54.645996 49.981003 54.534996 C 50.206 54.67 50.394 53.68 49.653 53.104 z M 50.595 54.037 C 50.626 54.814 50.314003 55.146 50.491 55.212 C 50.666 55.28 51.064003 55.358997 51.102 54.768 C 51.559 54.768 51.583 54.581997 51.599003 54.562996 C 51.609 54.550995 51.654003 55.203995 51.927 55.073997 C 52.292004 53.958996 51.559 54.787 51.385 54.078 C 51.154 54.114 50.635 53.874 50.595 54.037 z M 52.803 54.814 C 52.15 54.696 52.948 56.228 53.224003 55.295 C 52.943 55.172 52.772 55.358 52.803 54.814 z M 46.243 60.205 C 46.468 59.517 47.252 61.087 46.261 61.01 C 46.067 60.784 45.804 60.083 46.243 60.205 z M 35.725 54.55 C 35.671997 54.445 34.848 52.329 34.702 53.272 C 34.566 54.174 34.66 53.913 35.231 54.707 L 35.725 54.55 z M 60.183 38.359 C 60.016 38.573 59.673 38.76 59.406 38.733 C 59.137997 38.705 59.154 40.009003 60.214996 39.480003 C 61.146 39.013 60.352 38.146 60.183 38.359 z M 76.453 60.164 C 76.453 60.164 75.68301 61.341003 76.286 61.471 C 77.18 61.559 76.453 60.164 76.453 60.164 z M 76.495 62.043 C 76.607 62.495 77.843 63.156 77.699005 62.592 C 77.592 62.156 76.385 61.605 76.495 62.043 z M 76.792 57.42 L 76.625 58.862 L 77.125 58.995 L 76.792 57.42 z "/>
    <circle fill="none" r="5.179" cx="46.47" cy="33.955" stroke="#ffffff" stroke-width="0.1813"/>
    <circle fill="none" r="3.966" cx="46.469" cy="33.954" stroke="#ffffff" stroke-width="0.1389"/>
    <circle fill="none" r="2.379" cx="46.47" cy="33.954" stroke="#ffffff" stroke-width="0.0833"/>
    <circle fill="none" r="0.952" cx="46.47" cy="33.954" stroke="#ffffff" stroke-width="0.3556"/>
    <circle fill="none" r="5.179" cx="91.313" cy="37.313" stroke="#ffffff" stroke-width="0.1813"/>
    <circle fill="none" r="3.965" cx="91.313" cy="37.313" stroke="#ffffff" stroke-width="0.1389"/>
    <circle fill="none" r="2.379" cx="91.313" cy="37.313" stroke="#ffffff" stroke-width="0.0833"/>
    <circle fill="none" r="0.953" cx="91.313" cy="37.313" stroke="#ffffff" stroke-width="0.3556"/>
    <circle fill="none" r="5.179" cx="49.775" cy="59.927" stroke="#ffffff" stroke-width="0.1813"/>
    <circle fill="none" r="3.966" cx="49.774" cy="59.926" stroke="#ffffff" stroke-width="0.1389"/>
    <circle fill="none" r="2.379" cx="49.776" cy="59.926" stroke="#ffffff" stroke-width="0.0833"/>
    <circle fill="none" r="0.951" cx="49.775" cy="59.926" stroke="#ffffff" stroke-width="0.3556"/>
    <circle fill="none" r="5.178" cx="63.032" cy="45.424" stroke="#ffffff" stroke-width="0.1813"/>
    <circle fill="none" r="3.966" cx="63.031" cy="45.422" stroke="#ffffff" stroke-width="0.1389"/>
    <circle fill="none" r="2.378" cx="63.032" cy="45.422" stroke="#ffffff" stroke-width="0.0833"/>
    <circle fill="none" r="0.952" cx="63.033" cy="45.422" stroke="#ffffff" stroke-width="0.3556"/>
    <circle fill="none" r="5.179" cx="40.84" cy="45.257" stroke="#ffffff" stroke-width="0.1813"/>
    <circle fill="none" r="3.966" cx="40.84" cy="45.257" stroke="#ffffff" stroke-width="0.1389"/>
    <circle fill="none" r="2.38" cx="40.84" cy="45.257" stroke="#ffffff" stroke-width="0.0833"/>
    <circle fill="none" r="0.953" cx="40.84" cy="45.257" stroke="#ffffff" stroke-width="0.3556"/>
    <circle fill="none" r="5.178" cx="67.137" cy="32.996" stroke="#ffffff" stroke-width="0.1813"/>
    <circle fill="none" r="3.965" cx="67.135" cy="32.996" stroke="#ffffff" stroke-width="0.1389"/>
    <circle fill="none" r="2.379" cx="67.135" cy="32.996" stroke="#ffffff" stroke-width="0.0833"/>
    <circle fill="none" r="0.952" cx="67.135" cy="32.996" stroke="#ffffff" stroke-width="0.3556"/>
    <circle fill="none" r="5.179" cx="85.234" cy="48.85" stroke="#ffffff" stroke-width="0.1813"/>
    <circle fill="none" r="3.965" cx="85.234" cy="48.849" stroke="#ffffff" stroke-width="0.1389"/>
    <circle fill="none" r="2.379" cx="85.234" cy="48.849" stroke="#ffffff" stroke-width="0.0833"/>
    <circle fill="none" r="0.952" cx="85.234" cy="48.849" stroke="#ffffff" stroke-width="0.3556"/>
    <circle fill="none" r="5.179" cx="80.667" cy="32.988" stroke="#ffffff" stroke-width="0.1813"/>
    <circle fill="none" r="3.966" cx="80.666" cy="32.988" stroke="#ffffff" stroke-width="0.1389"/>
    <circle fill="none" r="2.379" cx="80.667" cy="32.988" stroke="#ffffff" stroke-width="0.0833"/>
    <circle fill="none" r="0.952" cx="80.668" cy="32.988" stroke="#ffffff" stroke-width="0.3556"/>
    <circle fill="none" r="5.179" cx="60.341" cy="56.659" stroke="#ffffff" stroke-width="0.1813"/>
    <path fill="none" d="M 64.309 56.659 C 64.309 58.847 62.533997 60.622 60.339996 60.622 C 58.150997 60.622 56.373997 58.848003 56.373997 56.659 C 56.373997 54.468 58.15 52.691 60.339996 52.691 C 62.531 52.691 64.309 54.468 64.309 56.659 z " stroke-width="0.1389" stroke="#ffffff"/>
    <circle fill="none" r="2.379" cx="60.341" cy="56.659" stroke="#ffffff" stroke-width="0.0833"/>
    <path fill="none" d="M 61.293 56.659 C 61.293 57.183 60.867 57.607 60.34 57.607 C 59.818 57.607 59.39 57.183 59.39 56.659 C 59.39 56.132 59.818 55.707 60.34 55.707 C 60.867 55.707 61.293 56.132 61.293 56.659 z " stroke-width="0.3556" stroke="#ffffff"/>
    <circle fill="none" r="5.179" cx="52.479" cy="43.212" stroke="#ffffff" stroke-width="0.1813"/>
    <circle fill="none" r="3.965" cx="52.478" cy="43.211" stroke="#ffffff" stroke-width="0.1389"/>
    <circle fill="none" r="2.38" cx="52.479" cy="43.211" stroke="#ffffff" stroke-width="0.0833"/>
    <circle fill="none" r="0.952" cx="52.479" cy="43.211" stroke="#ffffff" stroke-width="0.3556"/>
    <circle fill="none" r="5.179" cx="89.409" cy="72.876" stroke="#ffffff" stroke-width="0.1813"/>
    <circle fill="none" r="3.965" cx="89.408" cy="72.875" stroke="#ffffff" stroke-width="0.1389"/>
    <path fill="none" d="M 91.786 72.875 C 91.786 74.191 90.723 75.254 89.41 75.254 C 88.094 75.254 87.02901 74.190994 87.02901 72.875 C 87.02901 71.562 88.09201 70.495 89.41 70.495 C 90.723 70.495 91.786 71.563 91.786 72.875 z " stroke-width="0.0833" stroke="#ffffff"/>
    <path fill="none" d="M 90.359 72.875 C 90.359 73.4 89.933 73.829 89.41 73.829 C 88.883 73.829 88.457 73.4 88.457 72.875 C 88.457 72.352 88.883 71.925 89.41 71.925 C 89.936 71.925 90.359 72.352 90.359 72.875 z " stroke-width="0.3556" stroke="#ffffff"/>
    <circle fill="none" r="5.178" cx="50.94" cy="76.24" stroke="#ffffff" stroke-width="0.1813"/>
    <circle fill="none" r="3.966" cx="50.94" cy="76.24" stroke="#ffffff" stroke-width="0.1389"/>
    <circle fill="none" r="2.379" cx="50.941" cy="76.24" stroke="#ffffff" stroke-width="0.0833"/>
    <circle fill="none" r="0.952" cx="50.941" cy="76.24" stroke="#ffffff" stroke-width="0.3556"/>
    <circle fill="none" r="5.179" cx="81.746" cy="59.726" stroke="#ffffff" stroke-width="0.1813"/>
    <circle fill="none" r="3.966" cx="81.745" cy="59.726" stroke="#ffffff" stroke-width="0.1389"/>
    <circle fill="none" r="2.378" cx="81.745" cy="59.726" stroke="#ffffff" stroke-width="0.0833"/>
    <circle fill="none" r="0.952" cx="81.746" cy="59.726" stroke="#ffffff" stroke-width="0.3556"/>
    <path fill="none" d="M 72.866 70.854 C 72.866 73.714 70.548 76.036995 67.687 76.036995 C 64.826 76.036995 62.506996 73.716995 62.506996 70.854 C 62.506996 67.99799 64.824 65.675995 67.687 65.675995 C 70.548 65.676 72.866 67.996 72.866 70.854 z " stroke-width="0.1813" stroke="#ffffff"/>
    <circle fill="none" r="3.966" cx="67.688" cy="70.854" stroke="#ffffff" stroke-width="0.1389"/>
    <circle fill="none" r="2.378" cx="67.688" cy="70.854" stroke="#ffffff" stroke-width="0.0833"/>
    <circle fill="none" r="0.952" cx="67.689" cy="70.854" stroke="#ffffff" stroke-width="0.3556"/>
    <circle fill="none" r="5.179" cx="74.857" cy="43.911" stroke="#ffffff" stroke-width="0.1813"/>
    <circle fill="none" r="3.965" cx="74.857" cy="43.909" stroke="#ffffff" stroke-width="0.1389"/>
    <circle fill="none" r="2.379" cx="74.859" cy="43.909" stroke="#ffffff" stroke-width="0.0833"/>
    <circle fill="none" r="0.951" cx="74.857" cy="43.909" stroke="#ffffff" stroke-width="0.3556"/>
    <circle fill="none" r="5.179" cx="69.602" cy="62.445" stroke="#ffffff" stroke-width="0.1813"/>
    <circle fill="none" r="3.965" cx="69.6" cy="62.443" stroke="#ffffff" stroke-width="0.1389"/>
    <circle fill="none" r="2.378" cx="69.6" cy="62.443" stroke="#ffffff" stroke-width="0.0833"/>
    <circle fill="none" r="0.951" cx="69.6" cy="62.443" stroke="#ffffff" stroke-width="0.3556"/>
    <circle fill="none" r="5.179" cx="35.774" cy="54.348" stroke="#ffffff" stroke-width="0.1813"/>
    <path fill="none" d="M 39.739 54.347 C 39.739 56.537 37.965 58.311 35.769997 58.311 C 33.581997 58.311 31.805996 56.538 31.805996 54.347 C 31.805996 52.156 33.581997 50.381 35.769997 50.381 C 37.965 50.381 39.739 52.155 39.739 54.347 z " stroke-width="0.1389" stroke="#ffffff"/>
    <circle fill="none" r="2.379" cx="35.774" cy="54.347" stroke="#ffffff" stroke-width="0.0833"/>
    <circle fill="none" r="0.952" cx="35.774" cy="54.347" stroke="#ffffff" stroke-width="0.3556"/>
    <radialGradient gradientTransform="matrix(1.8047 -0.373 0.0867 0.4197 -496.8776 -224.091)" gradientUnits="userSpaceOnUse" xlink:type="simple" r="8.4099" xlink:actuate="onLoad" cx="255.3574" id="XMLID_18_" cy="972.4297" xlink:show="other">
        <stop stop-color="#800000" offset="0"/>
        <stop stop-color="#8e6f3a" offset="1"/>
    </radialGradient>
    <path fill="url(#XMLID_18_)" d="M 63.398 85.663 C 63.799 87.611 57.333 90.596 48.953 92.328 C 40.572 94.060005 33.454 93.885 33.051 91.93301 C 32.649 89.98401 39.115 87.00201 47.494 85.271 C 55.876 83.539 62.995 83.713 63.398 85.663 z " fill-opacity="0.99"/>
    <polygon fill="#191e1c" points="42.536,91.387 44.373,90.469 44.318,88.334 42.468,88.848 "/>
    <linearGradient x1="-300.4473" gradientTransform="matrix(1 0 0 -1 346.7754 -397.3633)" y1="-489.5327" x2="-307.5313" gradientUnits="userSpaceOnUse" y2="-486.2923" xlink:type="simple" xlink:actuate="onLoad" id="XMLID_19_" xlink:show="other">
        <stop stop-color="#9c967d" offset="0"/>
        <stop stop-color="#ffffff" offset="0.2458"/>
        <stop stop-color="#ffffff" offset="0.2682"/>
        <stop stop-color="#3d2905" offset="1"/>
    </linearGradient>
    <path fill="url(#XMLID_19_)" d="M 39.43 88.459 L 39.618 90.98 C 39.995 91.253 41.666 91.506 42.557 91.37299 L 42.505 88.52699 C 41.726 88.727 40.241 88.732 39.43 88.459 z "/>
    <linearGradient x1="-307.7744" gradientTransform="matrix(1 0 0 -1 346.7754 -397.3633)" y1="-466.6846" x2="-309.6889" gradientUnits="userSpaceOnUse" y2="-472.8029" xlink:type="simple" xlink:actuate="onLoad" id="XMLID_20_" xlink:show="other">
        <stop stop-color="#9c967d" offset="0"/>
        <stop stop-color="#ffffff" offset="0.2458"/>
        <stop stop-color="#ffffff" offset="0.2682"/>
        <stop stop-color="#3d2905" offset="1"/>
    </linearGradient>
    <path fill="url(#XMLID_20_)" d="M 38.796 74.102 C 38.848 73.337 38.358 72.725 37.674 72.721 C 36.967 72.71 36.318 73.362 36.227 74.167 C 36.136 74.975 36.634003 75.629 37.343 75.639 C 37.462 75.639 37.578003 75.618 37.695004 75.584 C 37.21 75.557 38.807 73.463 38.796 74.102 z "/>
    <linearGradient x1="36.895" y1="74.2979" x2="38.8911" gradientUnits="userSpaceOnUse" y2="74.2979" xlink:type="simple" xlink:actuate="onLoad" id="XMLID_21_" xlink:show="other">
        <stop stop-color="#9c967d" offset="0"/>
        <stop stop-color="#ffffff" offset="0.2458"/>
        <stop stop-color="#ffffff" offset="0.2682"/>
        <stop stop-color="#3d2905" offset="1"/>
    </linearGradient>
    <circle fill="url(#XMLID_21_)" r="0.998" cx="37.893" cy="74.298"/>
    <linearGradient x1="-308.8257" gradientTransform="matrix(1 0 0 -1 346.7754 -397.3633)" y1="-463.8779" x2="-300.7203" gradientUnits="userSpaceOnUse" y2="-468.4231" xlink:type="simple" xlink:actuate="onLoad" id="XMLID_22_" xlink:show="other">
        <stop stop-color="#9c967d" offset="0"/>
        <stop stop-color="#ffffff" offset="0.2458"/>
        <stop stop-color="#ffffff" offset="0.2682"/>
        <stop stop-color="#3d2905" offset="1"/>
    </linearGradient>
    <path fill="url(#XMLID_22_)" d="M 46.116 77.896 L 49.512 72.583 C 51.456 69.556 50.671 66.778 48.57 65.433 C 46.656 64.209 43.795 64.597 41.826 67.669 L 38.031 73.603 C 40.101 73.635 44.805 75.863 46.116 77.896 z "/>
    <linearGradient x1="33.2827" y1="80.459" x2="46.1792" gradientUnits="userSpaceOnUse" y2="80.459" xlink:type="simple" xlink:actuate="onLoad" id="XMLID_23_" xlink:show="other">
        <stop stop-color="#e0bc6c" offset="0"/>
        <stop stop-color="#8e6f3a" offset="1"/>
    </linearGradient>
    <path fill="url(#XMLID_23_)" d="M 46.179 78.305 L 42.557 84.128 C 40.514 87.322 37.518 87.796 35.299 86.379 C 33.287 85.093994 32.391 82.19 34.462 78.945 L 37.669 73.781 C 40.535 73.917 44.392 76.175 46.179 78.305 z "/>
    <linearGradient x1="-310.9502" gradientTransform="matrix(1 0 0 -1 346.7754 -397.3633)" y1="-471.1079" x2="-293.9933" gradientUnits="userSpaceOnUse" y2="-476.6094" xlink:type="simple" xlink:actuate="onLoad" id="XMLID_24_" xlink:show="other">
        <stop stop-color="#9c967d" offset="0"/>
        <stop stop-color="#ffffff" offset="0.2458"/>
        <stop stop-color="#ffffff" offset="0.2682"/>
        <stop stop-color="#3d2905" offset="1"/>
    </linearGradient>
    <path fill="url(#XMLID_24_)" d="M 37.672 73.775 C 40.434 74.165 44.214 75.779 46.089 78.593 L 46.508 77.861 C 45.14 75.89 41.7 73.521 38.196 73.314 L 37.672 73.775 z "/>
    <path fill="#5c1001" d="M 41.154 82.667 C 39.214 85.697 36.522 86.451 34.35 85.537 C 34.622 85.850006 34.93 86.121 35.275997 86.344 C 37.527996 87.782005 40.568996 87.299 42.65 84.049 L 46.086 78.52901 C 45.497 77.88401 45.113 77.37401 44.703 77.05601 L 41.154 82.667 z "/>
    <path fill="#3e2a08" d="M 48.563 65.482 L 48.563 65.482 C 49.798 66.787 50.025 68.995 48.466 71.417 L 44.988 76.74 C 45.007 76.755 45.031 76.771 45.046997 76.791 C 45.51 77.047 45.969 77.252 46.401997 77.4 L 48.952995 73.498 L 49.507996 72.632 C 51.446 69.604 50.669 66.825 48.563 65.482 z "/>
    <path fill="#5c1001" d="M 45.185 76.936 L 46.573 76.230995 C 46.573 76.230995 46.573 81.078995 46.573 83.77 C 46.573 86.462 45.761 88.523994 42.078003 89.313 C 44.568005 88.282 45.146004 86.044 45.087 83.537994 L 45.185 76.936 z "/>
    <linearGradient x1="-717.9292" gradientTransform="matrix(1.1364 0 0 1.1364 857.8411 -720.802)" y1="712.293" x2="-720.5773" gradientUnits="userSpaceOnUse" y2="710.9198" xlink:type="simple" xlink:actuate="onLoad" id="XMLID_25_" xlink:show="other">
        <stop stop-color="#9c967d" offset="0"/>
        <stop stop-color="#ffffff" offset="0.2458"/>
        <stop stop-color="#ffffff" offset="0.2682"/>
        <stop stop-color="#3d2905" offset="1"/>
    </linearGradient>
    <path fill="url(#XMLID_25_)" d="M 37.342 87.125 C 39.108 89.428 41.697 89.077 43.678 88.137 C 41.169 88.512 39.99 87.629 39.353996 86.909004 C 39.049 86.977 38.196 87.109 37.342 87.125 z "/>
    <linearGradient x1="-308.0098" gradientTransform="matrix(1 0 0 -1 346.7754 -397.3633)" y1="-487.4312" x2="-297.9879" gradientUnits="userSpaceOnUse" y2="-472.8125" xlink:type="simple" xlink:actuate="onLoad" id="XMLID_26_" xlink:show="other">
        <stop stop-color="#9c967d" offset="0"/>
        <stop stop-color="#ffffff" offset="0.2458"/>
        <stop stop-color="#ffffff" offset="0.2682"/>
        <stop stop-color="#3d2905" offset="1"/>
    </linearGradient>
    <path fill="url(#XMLID_26_)" d="M 37.522 87.109 C 38.242 87.929 39.649 88.712 40.993 88.752 C 44.421 88.867 44.746 86.004 44.746 83.662 C 44.746 81.318 44.746 76.825005 44.746 76.825005 L 45.184 76.93101 C 45.184 76.93101 45.164997 80.339005 45.164997 83.62301 C 45.164997 86.90701 44.459995 89.69601 40.527996 89.30801 C 38.948997 89.158005 37.548996 88.021 36.826996 87.01301 C 37.166 87.135 37.522 87.109 37.522 87.109 z "/>
    <linearGradient x1="-647.9438" gradientTransform="matrix(1.1031 0.0083 -0.1333 1.1697 851.9888 -719.8359)" y1="684.7158" x2="-647.7786" gradientUnits="userSpaceOnUse" y2="687.0466" xlink:type="simple" xlink:actuate="onLoad" id="XMLID_27_" xlink:show="other">
        <stop stop-color="#9c967d" offset="0"/>
        <stop stop-color="#ffffff" offset="0.2458"/>
        <stop stop-color="#ffffff" offset="0.2682"/>
        <stop stop-color="#3d2905" offset="1"/>
    </linearGradient>
    <path fill="url(#XMLID_27_)" d="M 47.409 77.079 C 47.468 76.141 46.894 75.394005 46.096 75.389 C 45.266 75.38 44.504 76.175 44.399 77.164 C 44.291 78.148 44.877003 78.956 45.705 78.959 C 45.846 78.959 45.985 78.936 46.118 78.896 C 46.118 78.896 47.422 76.298 47.409 77.079 z "/>
    <linearGradient x1="-301.1411" gradientTransform="matrix(1 0 0 -1 346.7754 -397.3633)" y1="-471.4131" x2="-300.1009" gradientUnits="userSpaceOnUse" y2="-476.0723" xlink:type="simple" xlink:actuate="onLoad" id="XMLID_28_" xlink:show="other">
        <stop stop-color="#9c967d" offset="0"/>
        <stop stop-color="#ffffff" offset="0.2458"/>
        <stop stop-color="#ffffff" offset="0.2682"/>
        <stop stop-color="#3d2905" offset="1"/>
    </linearGradient>
    <path fill="url(#XMLID_28_)" d="M 46.349 75.607 C 46.967 75.607 47.468 76.345 47.468 77.259 C 47.468 78.165 46.967 78.904 46.349 78.904 C 45.731 78.904 45.232 78.166 45.232 77.259 C 45.229 76.348 45.73 75.607 46.349 75.607 z "/>
    <rect width="120" fill="none" height="120"/>
</svg>
