<?xml version="1.0" encoding="UTF-8"?>
<svg xmlns="http://www.w3.org/2000/svg" xmlns:xlink="http://www.w3.org/1999/xlink" contentScriptType="text/ecmascript" width="96" baseProfile="tiny" zoomAndPan="magnify" contentStyleType="text/css" viewBox="0 0 96 96" height="96" preserveAspectRatio="xMidYMid meet" version="1.1">
    <path fill="#8b0000" d="M 14.07 81.954 L 35.2 60.82 C 34.356 59.976 29.527 54.24 29.527 48.004 C 29.527 41.797997 34.302 35.996 35.143 35.151997 L 14.045 14.078 C 4.988 23.135 0.0 35.18 0.0 47.994 C 0.0 60.82 4.997 72.882 14.07 81.954 z " fill-opacity="0.01"/>
    <path fill="#8b0000" d="M 15.605 80.419 L 35.2 60.82 C 33.947 59.566 29.527 53.886 29.527 48.004 C 29.527 42.183 33.893 36.406 35.143 35.151997 L 15.579 15.613 C 6.933 24.26 2.171 35.76 2.171 47.994 C 2.171 60.241 6.942 71.757 15.605 80.419 z " fill-opacity="0.02"/>
    <path fill="#8b0000" d="M 17.141 78.885 L 35.2 60.82 C 33.537003 59.158 29.527 53.523 29.527 48.004 C 29.527 42.601 33.484 36.816 35.143 35.151997 L 17.114 17.148 C 8.878 25.386 4.342 36.341 4.342 47.994 C 4.343 59.661 8.888 70.632 17.141 78.885 z " fill-opacity="0.04"/>
    <path fill="#8b0000" d="M 18.676 77.348 L 35.2 60.82 C 33.127 58.747 29.527 53.049 29.527 48.004 C 29.527 42.984997 33.075 37.226997 35.143 35.151997 L 18.649 18.684 C 10.823 26.511 6.5130005 36.921 6.5130005 47.994 C 6.514 59.082 10.832 69.506 18.676 77.348 z " fill-opacity="0.07"/>
    <path fill="#8b0000" d="M 20.211 75.813 L 35.2 60.82 C 32.717 58.338 29.527 52.541 29.527 48.004 C 29.527 43.505997 32.666 37.636 35.143 35.151997 L 20.185 20.219 C 12.769 27.636 8.684 37.5 8.684 47.994 C 8.685 58.502 12.777 68.381 20.211 75.813 z " fill-opacity="0.11"/>
    <path fill="#8b0000" d="M 10.854 47.994 C 10.8550005 57.921 14.722 67.256 21.745 74.277 L 35.2 60.82 C 32.307 57.927 29.527 52.097 29.527 48.004 C 29.527 44.071 32.257 38.046 35.143 35.151997 L 21.721 21.754 C 14.714 28.762 10.854 38.081 10.854 47.994 z " fill-opacity="0.13"/>
    <path fill="#ff4747" d="M 30.508 47.988 C 30.508 43.164 32.461 38.796997 35.619 35.632 L 23.238 23.274 C 9.59 36.924 9.601 59.064 23.263 72.727 L 35.631 60.359997 C 32.466 57.191 30.508 52.818 30.508 47.988 z "/>
    <linearGradient x1="29.3726" gradientTransform="matrix(1 0 0 -1 0.1377 94.834)" y1="46.7983" x2="13.4726" gradientUnits="userSpaceOnUse" y2="46.7983" xlink:type="simple" xlink:actuate="onLoad" id="XMLID_3_" xlink:show="other">
        <stop stop-color="#ffffff" offset="0"/>
        <stop stop-color="#ff4747" offset="1"/>
    </linearGradient>
    <path fill="url(#XMLID_3_)" d="M 13.896 48.151 C 13.896 56.899 17.19 65.195 23.013 71.520004 C 24.054 70.49 33.53 60.87 34.48 59.932 C 31.381 56.592 29.703 52.828 29.703 48.266 C 29.703 43.712 31.415998 39.444 34.507 36.104 C 33.557 35.166 24.059 25.581 23.018 24.552 C 17.01 30.906 13.896 39.416 13.896 48.151 z "/>
    <path fill="#ffffff" d="M 23.017 24.452 C 10.752 37.673 10.765 58.34 23.017 71.547 L 23.017 70.501 C 11.686 57.738 11.672 38.271 23.017 25.498 L 23.017 24.452 z "/>
    <linearGradient x1="41.813" gradientTransform="matrix(1 0 0 -1 0.1377 94.834)" y1="46.8354" x2="17.503" gradientUnits="userSpaceOnUse" y2="46.8354" xlink:type="simple" xlink:actuate="onLoad" id="XMLID_4_" xlink:show="other">
        <stop stop-color="#ffffff" offset="0"/>
        <stop stop-color="#ff4747" offset="1"/>
    </linearGradient>
    <path fill="url(#XMLID_4_)" d="M 22.995 25.523 C 23.876 26.419 32.873 35.497 33.582 36.213 C 30.978 39.648003 29.51 43.806 29.51 48.035 C 29.51 52.26 30.973 56.413 33.573 59.844 C 33.021004 60.401 23.965002 69.565 23.013 70.528 L 23.013 71.52 C 24.317 70.2 33.387 61.036 34.48 59.932 C 31.755 56.573 30.21 52.411 30.21 48.036 C 30.21 43.656 31.773998 39.466 34.506 36.103 C 33.415 34.996 24.3 25.802 22.995 24.478 L 22.995 25.523 z "/>
    <path fill="#ffffff" d="M 27.927 30.887 C 27.927 30.887 23.441 35.984 23.441 48.028 C 23.441 59.008 27.927 65.104004 27.927 65.104004 C 21.246 74.59001 14.965 57.789005 14.965 48.074005 C 14.965 38.36 21.185 21.145 27.927 30.887 z " fill-opacity="0.3"/>
    <rect x="17.293" width="11.017" fill="#ff4747" y="45.288" height="2.812"/>
    <rect x="17.291" width="0.443" fill="#8b0000" y="45.288" height="2.812"/>
    <polygon fill="#8b0000" points="17.295,45.726 17.295,45.288 28.307,45.288 28.307,45.731 "/>
</svg>
