<?xml version="1.0" encoding="UTF-8"?>
<svg xmlns="http://www.w3.org/2000/svg" xmlns:xlink="http://www.w3.org/1999/xlink" contentScriptType="text/ecmascript" width="26" baseProfile="tiny" zoomAndPan="magnify" contentStyleType="text/css" viewBox="0 0 26 26" height="26" preserveAspectRatio="xMidYMid meet" version="1.1">
    <g>
        <rect width="26" fill="none" height="26"/>
        <path fill="#eacf5a" d="M 15.643 7.256 L 15.643 5.362 L 10.025999 5.362 L 10.025999 7.256 L 5.723 7.256 L 5.723 9.19 L 6.77 9.19 L 7.71 20.641 L 17.878 20.641 L 18.921 9.19 L 19.944 9.188999 L 19.944 7.256 L 15.643 7.256 z M 16.143 18.738 L 9.46 18.738 L 8.618 9.19 L 17.076 9.19 L 16.143 18.738 z " fill-opacity="0.3"/>
        <path fill="#5c1001" d="M 9.46 18.738 L 16.143 18.738 L 17.078 9.190001 L 8.618 9.190001 L 9.46 18.738 z M 16.171 10.008 L 15.398999 17.922 L 10.212 17.922 C 10.023 15.699001 9.511 10.008001 9.511 10.008001 L 16.171 10.008001 z M 16.46 6.439 L 16.46 4.546 L 9.208 4.546 L 9.208 6.44 L 4.906 6.44 L 4.906 10.007 L 6.017 10.007 L 6.958 21.457 L 18.625 21.457 L 19.668 10.007001 L 20.763 10.0060005 L 20.763 6.439 L 16.46 6.439 z M 19.945 9.189 L 18.921 9.19 L 17.878 20.641 L 7.71 20.641 L 6.77 9.189 L 5.723 9.189 L 5.723 7.256 L 10.026 7.256 L 10.026 5.362 L 15.643 5.362 L 15.643 7.256 L 19.946 7.256 L 19.945 9.189 L 19.945 9.189 z " fill-opacity="0.3"/>
    </g>
</svg>
