<?xml version="1.0" encoding="UTF-8"?>
<svg xmlns="http://www.w3.org/2000/svg" xmlns:xlink="http://www.w3.org/1999/xlink" contentScriptType="text/ecmascript" width="60" baseProfile="tiny" zoomAndPan="magnify" contentStyleType="text/css" viewBox="0 0 60 60" height="60" preserveAspectRatio="xMidYMid meet" version="1.1">
    <linearGradient x1="34.585" y1="34.3604" x2="35.1777" gradientUnits="userSpaceOnUse" y2="41.1201" xlink:type="simple" xlink:actuate="onLoad" id="XMLID_3_" xlink:show="other">
        <stop stop-color="#ffffcf" offset="0"/>
        <stop stop-color="#f0de80" offset="0.11"/>
        <stop stop-color="#c26e54" offset="0.35"/>
        <stop stop-color="#b0361a" offset="0.48"/>
        <stop stop-color="#ad2621" offset="0.6629"/>
        <stop stop-color="#9c0a00" offset="0.75"/>
        <stop stop-color="#991712" offset="0.82"/>
        <stop stop-color="#8a0000" offset="0.91"/>
        <stop stop-color="#730303" offset="0.99"/>
        <stop stop-color="#730303" offset="1"/>
    </linearGradient>
    <path fill="url(#XMLID_3_)" d="M 36.982 37.828 L 36.983997 35.627 C 35.458996 35.77 33.921997 35.759 32.401997 35.596 L 32.401997 37.792 C 31.239996 37.665 30.083996 37.46 28.946997 37.156 L 28.889996 37.154 L 34.831997 43.095 L 40.768997 37.159 C 39.525 37.493 38.259 37.708 36.982 37.828 z "/>
    <linearGradient x1="22.6978" y1="-0.3706" x2="21.8672" gradientUnits="userSpaceOnUse" y2="31.4136" xlink:type="simple" xlink:actuate="onLoad" id="XMLID_4_" xlink:show="other">
        <stop stop-color="#ffffcf" offset="0"/>
        <stop stop-color="#f0de80" offset="0.11"/>
        <stop stop-color="#c26e54" offset="0.35"/>
        <stop stop-color="#b0361a" offset="0.48"/>
        <stop stop-color="#ad2621" offset="0.6629"/>
        <stop stop-color="#9c0a00" offset="0.75"/>
        <stop stop-color="#991712" offset="0.82"/>
        <stop stop-color="#8a0000" offset="0.91"/>
        <stop stop-color="#730303" offset="0.99"/>
        <stop stop-color="#730303" offset="1"/>
    </linearGradient>
    <path fill="url(#XMLID_4_)" d="M 22.852 12.626 C 22.852 15.354 24.745 17.641 27.284 18.26 C 26.988 17.414 26.817 16.51 26.809 15.567 C 25.832 14.950001 25.174 13.867001 25.174 12.626 C 25.174 10.708 26.737 9.145 28.657 9.145 C 28.987 9.145 29.303 9.207001 29.61 9.294001 C 30.287998 8.688001 31.062998 8.187 31.915 7.830001 C 30.984 7.197001 29.863998 6.825001 28.658 6.825001 C 25.456 6.824 22.852 9.427 22.852 12.626 z M 28.063 21.914 C 28.334 21.583 28.609 21.274 28.902 21.019 C 28.516 20.582998 28.181 20.103 27.89 19.593 L 25.083002 19.593 C 23.426004 19.593 21.788002 23.474 20.663002 26.735 C 19.538002 29.995998 18.955002 32.363 18.955002 32.363 L 21.596004 32.363 C 21.596004 31.954998 22.139002 29.8 23.033005 27.162 C 24.003002 24.56 24.725002 22.998 25.527002 21.913998 L 28.063 21.913998 z M 21.596 19.037 C 21.862 18.707 22.138 18.398 22.432 18.141 C 22.045002 17.706 21.711 17.226 21.421 16.715 L 18.613 16.715 C 16.955002 16.715 15.319001 20.596 14.193001 23.858 C 13.067 27.118 12.485001 29.487 12.485001 29.487 L 15.125001 29.487 C 15.125001 29.078 15.668001 26.924 16.561 24.286 C 17.532 21.683 18.252 20.120998 19.055 19.037 L 21.596 19.037 z M 20.814 15.383 C 20.516998 14.539 20.346 13.634001 20.339998 12.692 C 19.360998 12.073 18.704998 10.990001 18.704998 9.752001 C 18.704998 7.8320007 20.266 6.269001 22.185995 6.269001 C 22.518995 6.269001 22.832996 6.331001 23.138996 6.418001 C 23.819996 5.813001 24.592997 5.312001 25.444996 4.9540014 C 24.514996 4.3200016 23.392996 3.9480016 22.185995 3.9480016 C 18.984997 3.9480016 16.381996 6.5520015 16.381996 9.751001 C 16.382 12.478 18.274 14.766 20.814 15.383 z "/>
    <path fill="#bf111a" d="M 29.325 15.502 C 29.325 18.702 31.925 21.305 35.124 21.305 C 38.325 21.305 40.932 18.702 40.932 15.502001 C 40.932 12.304001 38.328 9.700001 35.124 9.700001 C 31.924 9.7 29.325 12.304 29.325 15.502 z M 35.124 12.021 C 37.048 12.021 38.609 13.584 38.609 15.502 C 38.609 17.423 37.046 18.983 35.124 18.983 C 33.206 18.983 31.645 17.423 31.645 15.502 C 31.643 13.583 33.206 12.021 35.124 12.021 z M 43.027 29.61 C 41.902 26.346 40.263 22.468 38.609 22.468 L 35.171 22.468 L 31.555002 22.468 C 29.896002 22.468 28.259005 26.346 27.131002 29.61 C 26.006002 32.87 25.424002 35.238 25.424002 35.238 L 28.062002 35.238 C 28.062002 34.829 28.608002 32.675 29.501 30.037998 C 30.472002 27.433998 31.193 25.872995 31.993002 24.789995 L 35.171 24.789995 L 38.165 24.789995 C 38.968 25.872995 39.687 27.434998 40.659 30.037998 C 41.552 32.677998 42.097 34.829 42.097 35.238 L 44.738 35.238 C 44.738 35.238 44.154 32.87 43.027 29.61 z "/>
    <path fill="#bf111a" d="M 46.227 50.76 C 46.098 49.778 43.602 44.805 34.884003 44.764 L 34.776 44.764 C 26.062 44.805 23.566002 49.778 23.436 50.76 C 23.34 51.475 23.233002 52.281 23.428 53.275997 C 23.485 53.511997 23.649002 53.900997 23.954002 54.193996 C 24.259005 54.484997 25.384005 54.722996 27.175003 54.643 C 28.966003 54.565 30.080004 54.171 30.515003 53.899 L 30.760004 53.745 L 30.783005 53.453 C 30.800003 53.266 30.795004 53.071 30.766005 52.858 C 30.665005 51.950996 29.673004 50.835 29.662004 50.821 L 29.510004 50.649 L 29.575005 50.426 C 29.603004 50.333 30.313004 48.079 34.831005 47.995 C 39.350006 48.079 40.060005 50.333 40.086006 50.426 L 40.150005 50.649 L 39.999004 50.821 C 39.986004 50.835 38.995003 51.951 38.895004 52.858 C 38.869003 53.071 38.866005 53.266 38.879005 53.453 L 38.900005 53.745 L 39.148006 53.899 C 39.583008 54.171 40.69801 54.565 42.486008 54.643 C 44.277008 54.723 45.402008 54.484997 45.709007 54.193996 C 46.016006 53.900997 46.180008 53.511997 46.23401 53.275997 C 46.43 52.281 46.323 51.475 46.227 50.76 z "/>
    <rect width="60" fill="none" height="60"/>
</svg>
