<?xml version="1.0" encoding="UTF-8"?>
<svg xmlns="http://www.w3.org/2000/svg" xmlns:xlink="http://www.w3.org/1999/xlink" contentScriptType="text/ecmascript" width="44" baseProfile="tiny" zoomAndPan="magnify" contentStyleType="text/css" viewBox="-0.378 -0.019 44 44" height="44" preserveAspectRatio="xMidYMid meet" version="1.1">
    <g>
        <g>
            <g>
                <g>
                    <linearGradient x1="21.0522" y1="1.6358" x2="21.0522" gradientUnits="userSpaceOnUse" y2="32.8863" xlink:type="simple" xlink:actuate="onLoad" id="XMLID_155_" xlink:show="other">
                        <stop stop-color="#ffffcf" offset="0"/>
                        <stop stop-color="#f0de80" offset="0.11"/>
                        <stop stop-color="#c26e54" offset="0.35"/>
                        <stop stop-color="#b0361a" offset="0.48"/>
                        <stop stop-color="#ad2621" offset="0.6629"/>
                        <stop stop-color="#9c0a00" offset="0.75"/>
                        <stop stop-color="#991712" offset="0.82"/>
                        <stop stop-color="#8a0000" offset="0.91"/>
                        <stop stop-color="#730303" offset="0.99"/>
                        <stop stop-color="#730303" offset="1"/>
                    </linearGradient>
                    <path fill="url(#XMLID_155_)" d="M 30.311 28.44 L 35.514 27.479 L 33.766 15.639 L 28.787 16.576 L 28.87 17.223 L 27.574 17.265 L 23.646 14.733 L 23.523 14.691999 C 23.363 14.638999 23.209002 14.606999 23.046 14.584999 C 22.158 14.478999 20.952002 14.599999 19.761002 14.852999 C 19.171 14.983998 18.599 15.150999 18.093002 15.373999 C 17.595003 15.615998 17.106005 15.844998 16.751003 16.498 C 16.682003 16.637999 16.591003 16.834 16.486004 17.061 L 14.677004 17.394 L 14.895004 16.727999 L 10.017004 15.0929985 L 9.692004 16.106998 L 6.5890045 25.742998 L 11.356005 27.482998 L 11.717005 26.391 L 12.000005 26.553 C 11.988005 26.748 11.981005 26.961 12.006004 27.207 C 12.056005 27.599998 12.136004 28.145 12.699004 28.612 C 12.995005 28.841 14.197004 29.658 15.452004 30.518 C 16.674004 31.35 17.958004 32.229 18.022003 32.287 C 18.335005 32.532997 18.706003 32.683 19.079004 32.731 C 19.083004 32.731 19.088003 32.731 19.094004 32.732998 C 19.768003 32.825996 20.456003 32.586 20.952003 32.081997 C 21.153004 32.142998 21.357004 32.187996 21.561005 32.218998 C 23.208002 32.41 24.925003 31.767998 26.386002 30.935995 C 27.681002 30.115995 28.8 29.312998 29.23 28.068996 L 30.205002 27.646996 L 30.311 28.44 z M 32.009 18.106 L 33.14 25.78 L 32.113 25.971 L 31.126 18.269 L 32.009 18.106 z M 10.046 24.765 L 9.215 24.46 L 11.369 17.761 L 12.252001 18.056 L 10.046 24.765 z M 20.69 29.358 L 19.516 30.565 L 19.489 30.604 C 19.46 30.645 19.409 30.659 19.376 30.657 C 19.354 30.651 19.343 30.647 19.325 30.634 C 19.07 30.44 17.901 29.648998 16.644 28.786 C 15.582999 28.061 14.460999 27.292 14.105 27.038 C 14.099 26.975 14.094999 26.887 14.094999 26.79 C 14.914 26.477 15.957999 26.309 16.816 26.43 C 17.006 26.454 17.189 26.491 17.356 26.542 C 17.559 26.653 18.34 27.27 19.009 27.837 C 19.734 28.442 20.385 29.02 20.655 29.231 L 20.656 29.228998 C 20.686 29.252998 20.7 29.294 20.694 29.332998 C 20.694 29.342 20.692 29.351 20.69 29.358 z M 27.186 27.564 C 26.75 28.433 24.28 29.904 22.637 30.138 C 22.704 29.961 22.753 29.783998 22.778002 29.605 C 22.882002 28.855 22.589005 28.072 21.945002 27.572 L 21.301004 28.398 L 21.946005 27.57 C 21.795004 27.456 20.991005 26.755 20.212004 26.105 C 19.818005 25.773 19.420004 25.449 19.072004 25.183 C 18.690004 24.912 18.509005 24.73 18.033005 24.551998 C 17.722004 24.450998 17.406004 24.385998 17.093004 24.344995 C 15.764004 24.176998 14.430004 24.419998 13.290005 24.866997 L 12.395004 24.348995 L 13.936005 19.662998 L 15.457005 19.384 C 15.230004 19.898 15.069004 20.27 15.066005 20.273998 L 14.85 20.77 L 15.129001 21.236 C 15.682001 22.072 16.498001 22.306 17.342 22.44 C 18.655 22.604 20.358002 22.317 21.490002 21.097 L 23.397 21.862 C 23.686 22.154 24.371002 22.872 25.106 23.794 C 26.012 24.915 26.94 26.367998 27.233002 27.48 C 27.226 27.502 27.208 27.528 27.186 27.564 z M 24.72 20.215 L 24.568 20.069 L 20.589998 18.477 L 20.245998 19.332 L 20.227 19.322 C 19.898 20.096 18.612 20.508 17.62 20.362 C 17.522 20.349 17.428 20.33 17.343 20.31 C 17.741 19.408 18.363 18.004 18.62 17.469 C 18.77 17.358 19.572998 16.998 20.401 16.864 C 21.328 16.669 22.39 16.608 22.771 16.665 L 26.988 19.387 L 29.14 19.317 L 29.929 25.478 L 28.896 25.927 C 27.629 22.948 24.749 20.292 24.72 20.215 z "/>
                </g>
            </g>
        </g>
        <g>
            <rect x="-0.378" width="44" fill="none" y="-0.019" height="44"/>
            <g>
                <linearGradient x1="33.6581" y1="1.6358" x2="33.6581" gradientUnits="userSpaceOnUse" y2="32.8863" xlink:type="simple" xlink:actuate="onLoad" id="XMLID_156_" xlink:show="other">
                    <stop stop-color="#ffffcf" offset="0"/>
                    <stop stop-color="#f0de80" offset="0.11"/>
                    <stop stop-color="#c26e54" offset="0.35"/>
                    <stop stop-color="#b0361a" offset="0.48"/>
                    <stop stop-color="#ad2621" offset="0.6629"/>
                    <stop stop-color="#9c0a00" offset="0.75"/>
                    <stop stop-color="#991712" offset="0.82"/>
                    <stop stop-color="#8a0000" offset="0.91"/>
                    <stop stop-color="#730303" offset="0.99"/>
                    <stop stop-color="#730303" offset="1"/>
                </linearGradient>
                <path fill="url(#XMLID_156_)" d="M 37.274 9.488 L 32.805 11.462 L 33.944 14.034 L 38.411 12.059 L 37.274 9.488 z M 30.763 4.933 L 28.906 9.461 L 31.509 10.531 L 33.368 6.001 L 30.763 4.933 z "/>
            </g>
        </g>
    </g>
</svg>
