<?xml version="1.0" encoding="UTF-8"?>
<svg xmlns="http://www.w3.org/2000/svg" xmlns:xlink="http://www.w3.org/1999/xlink" contentScriptType="text/ecmascript" width="50" baseProfile="tiny" zoomAndPan="magnify" contentStyleType="text/css" viewBox="0 0 50 50" height="50" preserveAspectRatio="xMidYMid meet" version="1.1">
    <path fill="#f6a2a0" d="M 1.381 25.002 C 1.381 38.023003 11.976999 48.619003 25.0 48.619003 C 38.023 48.619003 48.619 38.023003 48.619 25.002003 C 48.619 11.977 38.023 1.381 25.0 1.381 C 11.977 1.381 1.381 11.977 1.381 25.002 z " fill-opacity="0.4"/>
    <path fill="#f6a2a0" d="M 2.381 25.002 C 2.381 37.475 12.528999 47.619003 25.0 47.619003 C 37.473 47.619003 47.619 37.473003 47.619 25.002003 C 47.619 12.529 37.473 2.381 25.0 2.381 C 12.529 2.381 2.381 12.529 2.381 25.002 z " fill-opacity="0.4"/>
    <path fill="#f6a2a0" d="M 3.367 25.002 C 3.367 36.93 13.073 46.633003 25.0 46.633003 C 36.93 46.633003 46.632 36.930004 46.632 25.002003 C 46.632 13.073 36.93 3.371 25.0 3.371 C 13.072 3.371 3.367 13.073 3.367 25.002 z " fill-opacity="0.4"/>
    <radialGradient gradientUnits="userSpaceOnUse" xlink:type="simple" r="19.7473" xlink:actuate="onLoad" cx="25.0015" id="XMLID_14_" cy="24.999" xlink:show="other">
        <stop stop-color="#b3ddff" offset="0"/>
        <stop stop-color="#ffffff" offset="0.01"/>
        <stop stop-color="#f2d4e0" offset="0.41"/>
        <stop stop-color="#f6a2a0" offset="0.81"/>
        <stop stop-color="#f6a2a0" offset="1"/>
    </radialGradient>
    <path fill="url(#XMLID_14_)" d="M 5.254 25.0 C 5.254 35.887 14.113001 44.746002 25.003 44.746002 C 35.891 44.746002 44.749 35.887 44.749 25.000002 C 44.749 14.111002 35.891 5.2520027 25.003 5.2520027 C 14.114 5.252 5.254 14.111 5.254 25.0 z "/>
    <linearGradient x1="24.8638" gradientTransform="matrix(1 0 0 -1 0.1377 48.834)" y1="43.2139" x2="24.8638" gradientUnits="userSpaceOnUse" y2="4.4843" xlink:type="simple" xlink:actuate="onLoad" id="XMLID_15_" xlink:show="other">
        <stop stop-color="#b0381e" offset="0"/>
        <stop stop-color="#822519" offset="1"/>
    </linearGradient>
    <path fill="url(#XMLID_15_)" d="M 5.254 25.0 C 5.254 35.887 14.113001 44.746002 25.001999 44.746002 C 35.891 44.746002 44.748 35.887 44.748 25.000002 C 44.748 14.111002 35.891 5.2520027 25.002 5.2520027 C 14.113 5.252 5.254 14.111 5.254 25.0 z M 6.332 25.0 C 6.332 14.687 14.69 6.326 25.002998 6.326 C 35.315998 6.326 43.670998 14.688001 43.670998 25.0 C 43.670998 35.314 35.316998 43.670998 25.002998 43.670998 C 14.69 43.671 6.332 35.314 6.332 25.0 z " fill-opacity="0.5"/>
    <linearGradient x1="24.8647" gradientTransform="matrix(1 0 0 -1 0.1377 48.834)" y1="46.084" x2="24.8647" gradientUnits="userSpaceOnUse" y2="-4.5954" xlink:type="simple" xlink:actuate="onLoad" id="XMLID_16_" xlink:show="other">
        <stop stop-color="#ffffff" offset="0"/>
        <stop stop-color="#b0381e" offset="1"/>
    </linearGradient>
    <path fill="url(#XMLID_16_)" d="M 6.329 25.0 C 6.329 35.314 14.688999 43.672 25.003 43.672 C 35.318 43.672 43.675003 35.315002 43.675003 25.0 C 43.675003 14.687 35.319004 6.3269997 25.003002 6.3269997 C 14.688 6.327 6.329 14.688 6.329 25.0 z " fill-opacity="0.5"/>
    <path fill="#ffffff" d="M 8.871 25.02 C 8.871 42.592003 41.133003 42.592003 41.133003 25.02 C 41.132 7.522 8.871 7.522 8.871 25.02 z " fill-opacity="0.15"/>
    <g>
        <path d="M 31.016 18.072 C 31.387001 18.072 31.686 18.471 31.686 18.964 L 31.686 33.247 C 31.686 33.738003 31.387001 34.139 31.016 34.139 L 28.268002 34.139 C 27.897001 34.139 27.596 33.739 27.596 33.247 L 27.596 18.964 C 27.596 18.471 27.897001 18.072 28.268002 18.072 L 31.016 18.072 z " fill-opacity="0.6"/>
        <path d="M 24.447 19.57 L 24.447 32.573997 C 24.447 33.265 23.720001 33.642 23.159 33.225998 L 14.328 26.712997 C 13.895 26.393997 13.913 25.711998 14.329 25.404997 L 23.161 18.913998 C 23.713 18.507 24.447 18.906 24.447 19.57 z " fill-opacity="0.6"/>
    </g>
    <path fill="#f6a2a0" d="M 12.55 22.991 L 21.383999 16.498999 C 23.022999 15.285998 24.724998 15.780998 25.599998 16.314 C 26.289999 15.532 27.238998 15.072 28.269999 15.072 L 31.015999 15.072 C 33.076 15.072 34.688 16.781 34.688 18.963999 L 34.688 33.246998 C 34.688 35.429996 33.075 37.138996 31.015999 37.138996 L 28.27 37.138996 C 27.235 37.138996 26.241001 36.660995 25.542 35.871998 C 24.103 36.635 22.605 36.548996 21.375 35.641 L 12.546 29.127998 C 10.488 27.611 10.496 24.504 12.55 22.991 z " fill-opacity="0.4"/>
    <path fill="#f6a2a0" d="M 13.143 23.796 L 21.976 17.305 C 23.692 16.034 25.34 17.179 25.883999 17.917 C 25.917 17.154 26.987 16.073 28.268 16.073 L 31.015999 16.073 C 32.514 16.073 33.685997 17.344 33.685997 18.965 L 33.685997 33.248 C 33.685997 34.869 32.513996 36.139 31.015997 36.139 L 28.267998 36.139 C 27.064999 36.139 26.132998 35.266 25.789997 34.344 C 25.194998 35.067 23.547997 36.006 21.968998 34.837 L 13.138998 28.325 C 11.615 27.2 11.65 24.896 13.143 23.796 z " fill-opacity="0.4"/>
    <path fill="#f6a2a0" d="M 25.447 19.57 L 25.447 32.573997 C 25.447 33.762997 23.911001 35.026997 22.564001 34.031 L 13.734001 27.518997 C 12.775002 26.811996 12.762001 25.317997 13.736001 24.600998 L 22.568 18.109997 C 23.712 17.264 25.447 17.999 25.447 19.57 z " fill-opacity="0.4"/>
    <path fill="#f6a2a0" d="M 31.016 17.072 C 31.953001 17.072 32.686 17.903 32.686 18.964 L 32.686 33.247 C 32.686 34.309002 31.953001 35.139 31.016 35.139 L 28.268002 35.139 C 27.330002 35.139 26.596 34.307 26.596 33.247 L 26.596 18.964 C 26.559 17.908 27.264 17.072 28.268002 17.072 L 31.016 17.072 z " fill-opacity="0.4"/>
</svg>
