<?xml version="1.0" encoding="UTF-8"?>
<svg xmlns="http://www.w3.org/2000/svg" xmlns:xlink="http://www.w3.org/1999/xlink" contentScriptType="text/ecmascript" width="50" baseProfile="tiny" zoomAndPan="magnify" contentStyleType="text/css" viewBox="0 0 50 50" height="50" preserveAspectRatio="xMidYMid meet" version="1.1">
    <path d="M 3.215 25.834 C 3.215 38.307 13.363 48.451 25.834 48.451 C 38.307 48.451 48.453 38.305 48.453 25.834 C 48.453 13.361 38.307 3.2129993 25.834 3.2129993 C 13.363 3.213 3.215 13.361 3.215 25.834 z " fill-opacity="0.01"/>
    <path d="M 4.201 25.834 C 4.201 37.762 13.907001 47.465 25.834 47.465 C 37.764 47.465 47.466 37.762 47.466 25.834 C 47.466 13.905 37.764 4.202999 25.834 4.202999 C 13.906 4.203 4.201 13.905 4.201 25.834 z " fill-opacity="0.02"/>
    <path d="M 5.188 25.834 C 5.188 37.215 14.451 46.476997 25.834 46.476997 C 37.221 46.476997 46.476997 37.214996 46.476997 25.833998 C 46.476997 14.446998 37.220997 5.1889973 25.833998 5.1889973 C 14.451 5.189 5.188 14.447 5.188 25.834 z " fill-opacity="0.04"/>
    <path d="M 6.021 25.834 C 6.021 36.757 14.908999 45.642998 25.834 45.642998 C 36.757 45.642998 45.645 36.756996 45.645 25.833998 C 45.645 14.909998 36.757 6.0219975 25.834 6.0219975 C 14.91 6.022 6.021 14.91 6.021 25.834 z " fill-opacity="0.07"/>
    <linearGradient x1="24.8638" gradientTransform="matrix(1 0 0 -1 0.1377 48.834)" y1="43.2139" x2="24.8638" gradientUnits="userSpaceOnUse" y2="4.4943" xlink:type="simple" xlink:actuate="onLoad" id="XMLID_87_" xlink:show="other">
        <stop stop-color="#b0381e" offset="0"/>
        <stop stop-color="#822519" offset="1"/>
    </linearGradient>
    <path fill="url(#XMLID_87_)" d="M 25.0 5.256 C 14.111 5.256 5.2539997 14.113001 5.2539997 25.001001 C 5.2539997 35.887 14.111 44.743004 25.0 44.743004 C 35.889 44.743004 44.748 35.887005 44.748 25.001003 C 44.748 14.113 35.889 5.256 25.0 5.256 z "/>
    <linearGradient x1="24.8638" gradientTransform="matrix(1 0 0 -1 0.1377 48.834)" y1="41.7939" x2="24.8638" gradientUnits="userSpaceOnUse" y2="6.1544" xlink:type="simple" xlink:actuate="onLoad" id="XMLID_88_" xlink:show="other">
        <stop stop-color="#ffffff" offset="0"/>
        <stop stop-color="#b0381e" offset="1"/>
    </linearGradient>
    <circle fill="url(#XMLID_88_)" r="18.669" cx="25.001" cy="25.001"/>
    <ellipse fill-opacity="0.3" fill="#cfecff" rx="16.128" cx="25.001" ry="13.164" cy="25.021"/>
    <rect x="18.867" width="12.27" fill="#800000" y="18.969" height="14.146"/>
</svg>
