<?xml version="1.0" encoding="UTF-8"?>
<svg xmlns="http://www.w3.org/2000/svg" xmlns:xlink="http://www.w3.org/1999/xlink" contentScriptType="text/ecmascript" width="36" baseProfile="tiny" zoomAndPan="magnify" contentStyleType="text/css" viewBox="0 0 36 36" height="36" preserveAspectRatio="xMidYMid meet" version="1.1">
    <path d="M 1.658 18.602 C 1.658 27.944 9.26 35.543 18.598999 35.543 C 27.940998 35.543 35.539 27.942999 35.539 18.602 C 35.539 9.261999 27.938002 1.6619987 18.599 1.6619987 C 9.26 1.6619987 1.658 9.261 1.658 18.602 z " fill-opacity="0.01"/>
    <path d="M 2.397 18.602 C 2.397 27.536999 9.666 34.801 18.599998 34.801 C 27.532997 34.801 34.802 27.536 34.802 18.602 C 34.802 9.667999 27.531998 2.400999 18.599998 2.400999 C 9.666 2.401 2.397 9.668 2.397 18.602 z " fill-opacity="0.02"/>
    <path d="M 3.137 18.602 C 3.137 27.124 10.075001 34.060997 18.598999 34.060997 C 27.126 34.060997 34.059998 27.123997 34.059998 18.601997 C 34.059998 10.072997 27.125998 3.1399975 18.598997 3.1399975 C 10.074 3.139 3.137 10.073 3.137 18.602 z " fill-opacity="0.04"/>
    <path d="M 3.761 18.602 C 3.761 26.785 10.418 33.438 18.599 33.438 C 26.780003 33.438 33.437 26.785 33.437 18.602 C 33.437 10.417999 26.781 3.763999 18.598999 3.763999 C 10.416998 3.763999 3.761 10.418 3.761 18.602 z " fill-opacity="0.07"/>
    <linearGradient x1="17.874" gradientTransform="matrix(1 0 0 -1 0.1377 34.834)" y1="33.4854" x2="17.874" gradientUnits="userSpaceOnUse" y2="-4.4653" xlink:type="simple" xlink:actuate="onLoad" id="XMLID_95_" xlink:show="other">
        <stop stop-color="#b0381e" offset="0"/>
        <stop stop-color="#822519" offset="1"/>
    </linearGradient>
    <path fill="url(#XMLID_95_)" d="M 3.028 18.012 C 3.028 26.272999 9.749001 32.995 18.01 32.995 C 26.274 32.995 32.995 26.272999 32.995 18.012 C 32.995 9.749999 26.271 3.027999 18.009998 3.027999 C 9.749 3.027 3.028 9.75 3.028 18.012 z "/>
    <linearGradient x1="17.8745" gradientTransform="matrix(1 0 0 -1 0.1377 34.834)" y1="30.2246" x2="17.8745" gradientUnits="userSpaceOnUse" y2="-1.0259" xlink:type="simple" xlink:actuate="onLoad" id="XMLID_96_" xlink:show="other">
        <stop stop-color="#ffffff" offset="0"/>
        <stop stop-color="#b0381e" offset="1"/>
    </linearGradient>
    <circle fill="url(#XMLID_96_)" r="13.984" cx="18.012" cy="18.012"/>
    <ellipse fill-opacity="0.3" fill="#cfecff" rx="12.079" cx="18.011" ry="9.86" cy="18.027"/>
    <path fill="#800000" d="M 17.045 14.141 L 17.064 19.258 C 15.200999 18.845999 13.2369995 21.730999 15.402999 22.132 C 16.796 22.325 18.029999 21.028 18.029999 20.219 C 18.029999 20.002 18.023998 16.48 18.023998 16.48 L 20.099998 17.585 L 20.095999 15.873999 L 17.045 14.141 z "/>
    <path fill="#800000" d="M 10.221 10.66 L 8.457 12.669 L 8.48 24.475 L 26.961 24.475 L 26.961 12.156 L 18.202 12.173 L 16.845 10.643001 L 10.221 10.66 z M 16.154 12.197 L 17.508 13.716999 L 25.390999 13.716999 L 25.412998 22.942 L 9.992 22.942 L 9.992 13.254 L 10.92 12.197 L 16.154 12.197 z "/>
</svg>
