<?xml version="1.0" encoding="UTF-8"?>
<svg xmlns="http://www.w3.org/2000/svg" xmlns:xlink="http://www.w3.org/1999/xlink" contentScriptType="text/ecmascript" width="32" baseProfile="tiny" zoomAndPan="magnify" contentStyleType="text/css" viewBox="0 0 32 234" height="234" preserveAspectRatio="xMidYMid meet" version="1.1">
    <g>
        <g>
            <rect width="32" fill="none" height="234"/>
            <rect x="19.784" y="3.959" fill-opacity="0.8" fill="#840000" width="2.909" height="1.2"/>
            <rect x="19.784" y="26.701" fill-opacity="0.8" fill="#840000" width="2.909" height="1.2"/>
            <rect x="19.784" y="48.871" fill-opacity="0.8" fill="#840000" width="2.909" height="1.2"/>
            <rect x="19.784" y="71.328" fill-opacity="0.8" fill="#840000" width="2.909" height="1.2"/>
            <rect x="19.784" y="93.787" fill-opacity="0.8" fill="#840000" width="2.909" height="1.2"/>
            <rect x="19.784" y="116.244" fill-opacity="0.8" fill="#840000" width="2.909" height="1.2"/>
            <rect x="19.784" y="138.702" fill-opacity="0.8" fill="#840000" width="2.909" height="1.2"/>
            <rect x="19.784" y="161.16" fill-opacity="0.8" fill="#840000" width="2.909" height="1.199"/>
            <rect x="19.784" y="183.617" fill-opacity="0.8" fill="#840000" width="2.909" height="1.199"/>
            <rect x="19.784" y="206.076" fill-opacity="0.8" fill="#840000" width="2.909" height="1.199"/>
            <rect x="19.784" y="228.534" fill-opacity="0.8" fill="#840000" width="2.909" height="1.2"/>
            <path fill="#f6c8c7" d="M 10.173 229.426 C 10.173 230.30699 10.379001 231.136 10.754001 231.75899 C 11.130001 232.38199 11.626 232.72299 12.157001 232.72299 L 13.149 232.72299 L 13.28 232.72299 C 13.809999 232.72299 14.309999 232.38199 14.681999 231.75899 C 15.058 231.137 15.263 230.30899 15.263 229.426 L 15.263 5.564 L 15.263 5.564 C 15.263 4.688 15.058 3.861 14.681999 3.2380002 C 14.31 2.611 13.81 2.271 13.28 2.271 L 12.157 2.271 C 11.065 2.271 10.172999 3.748 10.172999 5.5629997 L 10.172999 229.426 "/>
            <linearGradient x1="14.1504" y1="3.4224" x2="10.3926" gradientUnits="userSpaceOnUse" y2="3.4224" xlink:type="simple" xlink:actuate="onLoad" id="XMLID_3_" xlink:show="other">
                <stop stop-color="#ffffff" offset="0"/>
                <stop stop-color="#ffa29e" offset="1"/>
            </linearGradient>
            <path fill="url(#XMLID_3_)" d="M 13.589 2.924 C 14.422 3.922 14.304 5.316 14.236 5.817 C 14.243 5.935 15.413 5.858 15.413 5.858 C 15.413 3.1579998 14.248 0.9629998 12.821 0.9629998 L 12.6380005 0.9629998 C 11.944 0.9629998 11.291 1.4709998 10.805 2.396 C 10.316 3.3209999 10.045 4.549 10.045 5.858 L 10.045 5.858 L 10.933001 5.858 C 10.933001 4.989 11.089001 4.167 11.416 3.5489998 C 11.740001 2.9319997 12.176001 2.5939999 12.6380005 2.5939999 C 12.638 2.594 13.219 2.531 13.589 2.924 z "/>
            <path fill="#840000" d="M 9.305 5.083 C 9.305 2.3560002 10.6 0.13800001 12.186001 0.13800001 L 13.273001 0.13800001 C 14.045001 0.13800001 14.769001 0.656 15.309001 1.588 C 15.852001 2.5210001 16.153002 3.765 16.153002 5.083 L 16.153002 5.083 L 15.193002 5.083 L 15.193002 5.083 C 15.193002 4.202 14.995002 3.3790002 14.630002 2.7530003 C 14.270002 2.13 13.786002 1.7880003 13.273002 1.7880003 L 12.186002 1.7880003 C 11.129002 1.7880003 10.266002 3.2650003 10.266002 5.083 L 9.305 5.083 z " fill-opacity="0.4"/>
            <rect x="10.069" width="0.864" fill="#f6a2a0" y="5.817" height="222.311"/>
            <rect x="14.236" width="0.864" fill="#ffffff" y="5.817" height="222.311"/>
            <linearGradient x1="14.2217" y1="230.3945" x2="10.144" gradientUnits="userSpaceOnUse" y2="230.3945" xlink:type="simple" xlink:actuate="onLoad" id="XMLID_4_" xlink:show="other">
                <stop stop-color="#ffffff" offset="0"/>
                <stop stop-color="#ffa29e" offset="1"/>
            </linearGradient>
            <path fill="url(#XMLID_4_)" d="M 12.661 231.391 C 12.199 231.391 11.7630005 231.05301 11.439 230.436 C 11.111 229.819 10.933001 228.998 10.933001 228.127 L 10.069 228.127 C 10.069 229.441 10.339001 230.669 10.828 231.589 C 11.314 232.51201 11.966 233.024 12.661 233.024 L 12.844 233.024 C 13.539 233.024 14.19 232.51201 14.677 231.592 C 15.165 230.668 15.436 229.43799 15.436 228.12799 C 15.436 228.12799 14.642 227.284 14.262 228.172 C 14.262 229.06 14.173 231.39299 13.194 231.39299 L 12.661 231.39299 L 12.661 231.391 z "/>
            <path fill="#840000" d="M 13.273 232.239 C 13.785999 232.239 14.2699995 231.9 14.63 231.273 C 14.994 230.652 15.193 229.825 15.193 228.943 L 16.153 228.943 C 16.153 230.269 15.852 231.508 15.309 232.439 C 14.769 233.37 14.045 233.885 13.273 233.885 L 12.186 233.885 C 11.414 233.885 10.69 233.36699 10.15 232.441 C 9.606999 231.506 9.304999 230.265 9.304999 228.943 L 10.266 228.943 C 10.266 229.825 10.465 230.652 10.8289995 231.273 C 11.193 231.9 11.672999 232.239 12.186 232.239 L 13.273 232.239 z " fill-opacity="0.4"/>
            <rect x="9.305" y="5.083" fill-opacity="0.4" fill="#840000" width="0.961" height="223.86"/>
            <rect x="15.192" y="5.083" fill-opacity="0.4" fill="#840000" width="0.96" height="223.86"/>
        </g>
    </g>
</svg>
