<?xml version="1.0" encoding="UTF-8"?>
<svg xmlns="http://www.w3.org/2000/svg" xmlns:xlink="http://www.w3.org/1999/xlink" contentScriptType="text/ecmascript" width="60" baseProfile="tiny" zoomAndPan="magnify" contentStyleType="text/css" viewBox="-0.285 0.319 60 52" height="52" preserveAspectRatio="xMidYMid meet" version="1.1">
    <path fill="#bf0000" d="M 51.455 6.319 L 7.974 6.319 C 6.729 6.319 5.715 7.333 5.715 8.578 L 5.715 44.06 C 5.715 45.306 6.729 46.32 7.974 46.32 L 51.455 46.32 C 52.700996 46.32 53.714996 45.306 53.714996 44.06 L 53.714996 8.578 C 53.715 7.333 52.701 6.319 51.455 6.319 z M 52.715 44.06 C 52.715 44.754 52.151 45.32 51.455 45.32 L 7.974 45.32 C 7.28 45.32 6.715 44.755 6.715 44.06 L 6.715 8.578 C 6.715 7.884 7.279 7.319 7.974 7.319 L 51.455 7.319 C 52.148 7.319 52.714996 7.883001 52.714996 8.578 L 52.714996 44.06 L 52.715 44.06 z "/>
    <g>
        <path fill="#f4b9ba" d="M 51.455 7.319 L 7.974 7.319 C 7.28 7.319 6.715 7.883 6.715 8.578 L 6.715 44.06 C 6.715 44.754 7.279 45.32 7.974 45.32 L 51.455 45.32 C 52.148 45.32 52.714996 44.755 52.714996 44.06 L 52.714996 8.578 C 52.715 7.884 52.149 7.319 51.455 7.319 z "/>
    </g>
    <path fill="#ffffff" d="M 52.333 7.696 C 52.09 7.444 51.805 7.319 51.455 7.319 L 7.974 7.319 C 7.28 7.319 6.715 7.883001 6.715 8.578 L 6.715 44.06 C 6.715 44.406 6.858 44.711 7.087001 44.933 C 7.09 44.946003 7.715 44.305004 7.715 44.305004 L 7.715 8.319 L 51.714 8.319 L 52.333 7.696 z "/>
    <path fill="#8b0000" d="M 7.097 44.941 C 7.34 45.193 7.626 45.318 7.975001 45.318 L 51.456 45.318 C 52.15 45.318 52.715 44.755 52.715 44.059 L 52.715 8.578 C 52.715 8.232 52.572 7.926 52.343 7.705 C 52.34 7.692 51.715 8.333 51.715 8.333 C 51.715 8.333 51.715 43.54 51.715 44.318 C 50.977 44.318 7.716 44.318 7.716 44.318 L 7.097 44.941 z "/>
    <rect x="19.715" width="20" fill="#bf0000" y="20.435" height="3.771"/>
    <rect x="19.715" width="20" fill="#bf0000" y="28.435" height="3.771"/>
</svg>
