<?xml version="1.0" encoding="UTF-8"?>
<svg xmlns="http://www.w3.org/2000/svg" xmlns:xlink="http://www.w3.org/1999/xlink" contentScriptType="text/ecmascript" width="44" baseProfile="tiny" zoomAndPan="magnify" contentStyleType="text/css" viewBox="0 0 44 44" height="44" preserveAspectRatio="xMidYMid meet" version="1.1">
    <path fill="#8b0000" d="M 24.998 3.0 C 16.177 3.0 9.002 10.18 9.002 19.0 C 9.002 21.654 9.66 24.152 10.809999 26.359 L 2.172 34.998 L 9.002 41.828003 L 17.638 33.187004 C 19.844 34.335003 22.344 34.998005 24.998 34.998005 C 33.82 34.998 41.0 27.82 41.0 19.0 C 41.0 10.18 33.82 3.0 24.998 3.0 z M 24.998 8.998 C 29.092 8.998 32.611 11.471001 34.16 15.0 L 15.84 15.0 C 17.388 11.471 20.908 8.998 24.998 8.998 z M 24.998 29.0 C 20.908 29.0 17.387 26.523 15.838999 22.998 L 34.16 22.998 C 32.613 26.523 29.092 29.0 24.998 29.0 z "/>
    <rect width="44" fill="none" height="44"/>
    <rect x="17" width="16" fill="#f5f5dc" y="17" height="4"/>
    <path fill="#f5f5dc" d="M 25.0 5.0 C 17.278 5.0 11.0 11.278999 11.0 19.0 C 11.0 21.839 11.854 24.479 13.312 26.688 L 5.0 35.0 L 9.0 39.0 L 17.312 30.687 C 19.521 32.145 22.16 33.0 25.0 33.0 C 32.721 33.0 39.0 26.723 39.0 19.0 C 39.0 11.279 32.721 5.0 25.0 5.0 z M 25.0 31.0 C 18.382 31.0 13.0 25.613 13.0 19.0 C 13.0 12.382999 18.383 7.0 25.0 7.0 C 31.615 7.0 37.0 12.382999 37.0 19.0 C 37.0 25.613 31.616 31.0 25.0 31.0 z "/>
</svg>
