<?xml version="1.0" encoding="UTF-8"?>
<svg xmlns="http://www.w3.org/2000/svg" xmlns:xlink="http://www.w3.org/1999/xlink" contentScriptType="text/ecmascript" width="100" baseProfile="tiny" zoomAndPan="magnify" contentStyleType="text/css" viewBox="-65.098 -924.612 100 69" height="69" preserveAspectRatio="xMidYMid meet" version="1.1">
    <g>
        <g>
            <path fill="#ffffff" d="M -32.275 -912.359 L -31.967 -893.922 C -31.967 -893.922 -24.008 -880.472 -23.554 -879.703 C -24.267 -879.194 -33.79 -872.39 -33.79 -872.39 L -33.315002 -870.429 L -19.390003 -861.629 C -19.390003 -861.629 -8.592003 -870.236 -8.066003 -870.65405 C -7.486003 -870.316 4.407997 -863.3821 4.407997 -863.3821 L 14.738997 -873.44507 L 15.355997 -875.4891 C 15.355997 -875.4891 4.543997 -880.8141 3.685997 -881.23706 C 4.123997 -882.11206 12.225997 -898.3871 12.225997 -898.3871 L -2.3310032 -904.6401 L -4.2570033 -904.65106 C -4.2570033 -904.65106 -5.483003 -902.0331 -5.8040032 -901.3531 C -6.5770035 -901.6861 -11.288004 -903.7091 -11.288004 -903.7091 C -11.288004 -903.7091 -15.414003 -900.9711 -16.246004 -900.4211 C -16.567003 -901.14606 -17.270004 -902.74207 -17.334003 -902.8981 C -17.333004 -903.11707 -17.188004 -919.1631 -17.188004 -919.1631 L -18.931004 -919.7131 L -32.275 -912.359 z "/>
            <g>
                <linearGradient x1="-31.7557" y1="-915.3073" x2="-17.7098" gradientUnits="userSpaceOnUse" y2="-915.3073" xlink:type="simple" xlink:actuate="onLoad" id="XMLID_18_" xlink:show="other">
                    <stop stop-color="#e0bc6c" offset="0"/>
                    <stop stop-color="#8e6f3a" offset="1"/>
                </linearGradient>
                <polygon fill="url(#XMLID_18_)" points="-30.659,-911.473 -17.71,-918.772 -18.879,-919.141 -31.756,-912.041    "/>
                <linearGradient x1="-171.7376" gradientTransform="matrix(1 0 0 1 128.2178 -4665.1729)" y1="3740.135" x2="-145.7882" gradientUnits="userSpaceOnUse" y2="3786.5129" xlink:type="simple" xlink:actuate="onLoad" id="XMLID_19_" xlink:show="other">
                    <stop stop-color="#ad832f" offset="0"/>
                    <stop stop-color="#3e2a08" offset="1"/>
                </linearGradient>
                <polygon fill="url(#XMLID_19_)" points="-31.756,-912.041 -30.659,-911.473 -30.659,-894.886 -22.07,-880.115 -22.744,-879.329      -31.454,-894.052    "/>
                <linearGradient x1="-129.1458" gradientTransform="matrix(1 0 0 1 128.2178 -4665.1729)" y1="3794.5833" x2="-131.1419" gradientUnits="userSpaceOnUse" y2="3799.146" xlink:type="simple" xlink:actuate="onLoad" id="XMLID_20_" xlink:show="other">
                    <stop stop-color="#ad832f" offset="0"/>
                    <stop stop-color="#3e2a08" offset="1"/>
                </linearGradient>
                <polygon fill="url(#XMLID_20_)" points="-8.104,-872.772 -8.114,-871.266 4.324,-864.009 4.358,-865.788    "/>
                <linearGradient x1="-153.4144" gradientTransform="matrix(1 0 0 1 128.2178 -4665.1729)" y1="3795.4075" x2="-155.7437" gradientUnits="userSpaceOnUse" y2="3800.7314" xlink:type="simple" xlink:actuate="onLoad" id="XMLID_21_" xlink:show="other">
                    <stop stop-color="#ad832f" offset="0"/>
                    <stop stop-color="#3e2a08" offset="1"/>
                </linearGradient>
                <polygon fill="url(#XMLID_21_)" points="-33.21,-872.159 -32.866,-870.738 -19.427,-862.247 -19.457,-864.107    "/>
                <linearGradient x1="-127.3797" gradientTransform="matrix(1 0 0 1 128.2178 -4665.1729)" y1="3780.4778" x2="-150.6929" gradientUnits="userSpaceOnUse" y2="3807.5947" xlink:type="simple" xlink:actuate="onLoad" id="XMLID_22_" xlink:show="other">
                    <stop stop-color="#ad832f" offset="0"/>
                    <stop stop-color="#3e2a08" offset="1"/>
                </linearGradient>
                <polygon fill="url(#XMLID_22_)" points="-8.08,-873.008 -19.457,-864.107 -19.427,-862.247 -8.114,-871.266    "/>
                <linearGradient x1="-106.6869" gradientTransform="matrix(1 0 0 1 128.2178 -4665.1729)" y1="3780.5813" x2="-125.4614" gradientUnits="userSpaceOnUse" y2="3803.405" xlink:type="simple" xlink:actuate="onLoad" id="XMLID_23_" xlink:show="other">
                    <stop stop-color="#ad832f" offset="0"/>
                    <stop stop-color="#3e2a08" offset="1"/>
                </linearGradient>
                <polygon fill="url(#XMLID_23_)" points="4.358,-865.788 4.324,-864.009 14.281,-873.708 14.733,-875.208    "/>
                <linearGradient x1="-3.929" y1="-901.029" x2="11.5153" gradientUnits="userSpaceOnUse" y2="-901.029" xlink:type="simple" xlink:actuate="onLoad" id="XMLID_24_" xlink:show="other">
                    <stop stop-color="#e0bc6c" offset="0"/>
                    <stop stop-color="#8e6f3a" offset="1"/>
                </linearGradient>
                <polygon fill="url(#XMLID_24_)" points="-3.929,-904.118 10.442,-897.939 11.515,-898.115 -2.439,-904.111    "/>
                <linearGradient x1="-115.7298" gradientTransform="matrix(1 0 0 1 128.2178 -4665.1729)" y1="3760.0725" x2="-123.6436" gradientUnits="userSpaceOnUse" y2="3781.9736" xlink:type="simple" xlink:actuate="onLoad" id="XMLID_25_" xlink:show="other">
                    <stop stop-color="#ad832f" offset="0"/>
                    <stop stop-color="#3e2a08" offset="1"/>
                </linearGradient>
                <polygon fill="url(#XMLID_25_)" points="2.338,-881.311 10.442,-897.939 11.515,-898.115 2.593,-880.186    "/>
                <g>
                    <g>
                        <g>
                            <linearGradient x1="-121.4344" gradientTransform="matrix(1 0 0 1 128.2178 -4665.1729)" y1="3759.7502" x2="-133.3964" gradientUnits="userSpaceOnUse" y2="3779.8096" xlink:type="simple" xlink:actuate="onLoad" id="XMLID_26_" xlink:show="other">
                                <stop stop-color="#ad832f" offset="0"/>
                                <stop stop-color="#3e2a08" offset="1"/>
                            </linearGradient>
                            <polygon fill="url(#XMLID_26_)" points="-11.414,-888.144 -3.929,-904.118 10.442,-897.939 2.338,-881.311       "/>
                            <linearGradient x1="-149.4515" gradientTransform="matrix(1 0 0 1 128.2178 -4665.1729)" y1="3758.7561" x2="-149.0837" gradientUnits="userSpaceOnUse" y2="3786.5459" xlink:type="simple" xlink:actuate="onLoad" id="XMLID_27_" xlink:show="other">
                                <stop stop-color="#ad832f" offset="0"/>
                                <stop stop-color="#3e2a08" offset="1"/>
                            </linearGradient>
                            <polygon fill="url(#XMLID_27_)" points="-30.659,-894.886 -22.07,-880.115 -11.414,-888.144 -17.853,-902.778       "/>
                            <linearGradient x1="-148.245" gradientTransform="matrix(1 0 0 1 128.2178 -4665.1729)" y1="3736.0315" x2="-160.76" gradientUnits="userSpaceOnUse" y2="3801.1833" xlink:type="simple" xlink:actuate="onLoad" id="XMLID_28_" xlink:show="other">
                                <stop stop-color="#ad832f" offset="0"/>
                                <stop stop-color="#3e2a08" offset="1"/>
                            </linearGradient>
                            <polygon fill="url(#XMLID_28_)" points="-30.659,-894.886 -30.659,-911.473 -17.71,-918.772 -17.853,-902.778       "/>
                            <linearGradient x1="-146.9427" gradientTransform="matrix(1 0 0 1 128.2178 -4665.1729)" y1="3806.3557" x2="-149.7032" gradientUnits="userSpaceOnUse" y2="3786.8486" xlink:type="simple" xlink:actuate="onLoad" id="XMLID_29_" xlink:show="other">
                                <stop stop-color="#f1de84" offset="0"/>
                                <stop stop-color="#cd9f3d" offset="0.5056"/>
                                <stop stop-color="#704d18" offset="1"/>
                            </linearGradient>
                            <polygon fill="url(#XMLID_29_)" points="-33.21,-872.159 -22.07,-880.115 -8.104,-872.772 -19.457,-864.107       "/>
                            <linearGradient x1="-122.7376" gradientTransform="matrix(1 0 0 1 128.2178 -4665.1729)" y1="3803.2942" x2="-127.7058" gradientUnits="userSpaceOnUse" y2="3775.5085" xlink:type="simple" xlink:actuate="onLoad" id="XMLID_30_" xlink:show="other">
                                <stop stop-color="#f1de84" offset="0"/>
                                <stop stop-color="#cd9f3d" offset="0.5056"/>
                                <stop stop-color="#704d18" offset="1"/>
                            </linearGradient>
                            <polygon fill="url(#XMLID_30_)" points="4.358,-865.788 -8.104,-872.772 2.338,-881.311 14.733,-875.208       "/>
                        </g>
                        <g>
                            <linearGradient x1="-150.8895" gradientTransform="matrix(1 0 0 1 128.2178 -4665.1729)" y1="3769.2249" x2="-125.515" gradientUnits="userSpaceOnUse" y2="3769.2249" xlink:type="simple" xlink:actuate="onLoad" id="XMLID_31_" xlink:show="other">
                                <stop stop-color="#ffffff" offset="0"/>
                                <stop stop-color="#cd9f3d" offset="1"/>
                            </linearGradient>
                            <polygon fill="url(#XMLID_31_)" points="-22.672,-895.528 -11.235,-903.112 2.703,-897.122 -8.104,-888.784       "/>
                            <linearGradient x1="-22.6717" y1="-884.1501" x2="-8.1039" gradientUnits="userSpaceOnUse" y2="-884.1501" xlink:type="simple" xlink:actuate="onLoad" id="XMLID_32_" xlink:show="other">
                                <stop stop-color="#cd9f3d" offset="0"/>
                                <stop stop-color="#ad832f" offset="1"/>
                            </linearGradient>
                            <polygon fill="url(#XMLID_32_)" points="-22.672,-895.528 -22.07,-880.115 -8.104,-872.772 -8.104,-888.784       "/>
                            <linearGradient x1="-155.6522" gradientTransform="matrix(1 0 0 1 128.2178 -4665.1729)" y1="3793.4602" x2="-137.9839" gradientUnits="userSpaceOnUse" y2="3784.4419" xlink:type="simple" xlink:actuate="onLoad" id="XMLID_33_" xlink:show="other">
                                <stop stop-color="#f1de84" offset="0"/>
                                <stop stop-color="#cd9f3d" offset="1"/>
                            </linearGradient>
                            <polygon fill="url(#XMLID_33_)" points="-9.744,-889.547 -22.07,-880.115 -8.104,-872.772       "/>
                            <polygon fill="#8e6f3a" points="-8.104,-888.784 -8.104,-872.772 2.338,-881.311 2.703,-897.122       "/>
                            <linearGradient x1="-116.1185" gradientTransform="matrix(1 0 0 1 128.2178 -4665.1729)" y1="3792.9973" x2="-137.4651" gradientUnits="userSpaceOnUse" y2="3784.9006" xlink:type="simple" xlink:actuate="onLoad" id="XMLID_34_" xlink:show="other">
                                <stop stop-color="#e0bc6c" offset="0"/>
                                <stop stop-color="#8e6f3a" offset="1"/>
                            </linearGradient>
                            <polygon fill="url(#XMLID_34_)" points="-7.76,-886.774 -8.104,-872.772 2.338,-881.311       "/>
                        </g>
                    </g>
                </g>
            </g>
        </g>
    </g>
    <g>
        <g>
            <g>
                <path fill="#ffffff" d="M -46.059 -883.186 C -49.53 -883.186 -54.28 -882.3639 -55.483 -875.248 L -55.665997 -874.174 C -55.665997 -874.174 -47.678 -874.174 -46.726997 -874.174 C -46.442 -873.655 -46.011997 -872.89703 -45.747997 -872.4021 C -46.018 -871.91705 -46.442 -871.14105 -46.726997 -870.63104 C -47.676 -870.63104 -55.665997 -870.63104 -55.665997 -870.63104 L -55.483 -869.5621 C -54.28 -862.44305 -49.53 -861.6241 -46.059 -861.6241 C -43.328 -861.6241 -40.886997 -863.9181 -38.929996 -865.7651 C -37.868996 -866.7651 -36.870995 -867.70306 -36.341995 -867.70306 L -11.867994 -867.70306 L -11.594995 -868.00806 C -11.069995 -868.5841 -9.848994 -870.1621 -9.823995 -872.38104 L -9.823995 -872.44904 C -9.848994 -874.668 -11.071995 -876.246 -11.594995 -876.824 L -11.867994 -877.127 L -36.346992 -877.127 C -36.87199 -877.127 -37.87199 -878.065 -38.92699 -879.06 C -40.889 -880.893 -43.324 -883.186 -46.059 -883.186 z "/>
                <path fill="#6e8489" d="M -10.738 -872.395 C -10.738 -872.404 -10.736 -872.416 -10.736 -872.42505 L -10.743 -872.42505 C -10.764 -874.35205 -11.87 -875.744 -12.277 -876.189 C -12.794001 -876.189 -36.343 -876.189 -36.343 -876.189 C -37.238003 -876.189 -38.206 -877.10706 -39.558 -878.377 C -41.4 -880.106 -43.685 -882.273 -46.056004 -882.273 C -49.908005 -882.273 -53.550003 -881.138 -54.572 -875.097 C -53.126003 -875.097 -46.181004 -875.097 -46.181004 -875.097 L -44.685005 -872.403 L -46.181004 -869.715 C -46.181004 -869.715 -53.122 -869.715 -54.572 -869.715 C -53.551003 -863.672 -49.908 -862.53705 -46.056004 -862.53705 C -43.685005 -862.53705 -41.398003 -864.689 -39.558 -866.43207 C -38.206 -867.7001 -37.238003 -868.6181 -36.343 -868.6181 C -36.343 -868.6181 -12.790003 -868.6181 -12.277002 -868.6181 C -11.870003 -869.06104 -10.761003 -870.45605 -10.743002 -872.387 L -10.736002 -872.387 C -10.736 -872.378 -10.738 -872.389 -10.738 -872.395 z "/>
            </g>
        </g>
    </g>
    <rect x="-65.098" width="100" fill="none" y="-924.612" height="69"/>
</svg>
