<?xml version="1.0" encoding="UTF-8"?>
<svg xmlns="http://www.w3.org/2000/svg" xmlns:xlink="http://www.w3.org/1999/xlink" contentScriptType="text/ecmascript" width="43.939" baseProfile="tiny" zoomAndPan="magnify" contentStyleType="text/css" viewBox="0 0 43.939 43.945" height="43.945" preserveAspectRatio="xMidYMid meet" version="1.1">
    <g>
        <g>
            <linearGradient x1="20.8679" y1="1.1262" x2="21.7112" gradientUnits="userSpaceOnUse" y2="34.864" xlink:type="simple" xlink:actuate="onLoad" id="XMLID_11_" xlink:show="other">
                <stop stop-color="#ffffcf" offset="0"/>
                <stop stop-color="#f0de80" offset="0.11"/>
                <stop stop-color="#c26e54" offset="0.35"/>
                <stop stop-color="#b0361a" offset="0.48"/>
                <stop stop-color="#ad2621" offset="0.6629"/>
                <stop stop-color="#9c0a00" offset="0.75"/>
                <stop stop-color="#991712" offset="0.82"/>
                <stop stop-color="#8a0000" offset="0.91"/>
                <stop stop-color="#730303" offset="0.99"/>
                <stop stop-color="#730303" offset="1"/>
            </linearGradient>
            <path fill="url(#XMLID_11_)" d="M 31.401 23.123 L 31.401 20.693 L 29.268 20.693 C 31.106 19.711998 32.372 17.797 32.372 15.570999 C 32.372 12.355999 29.759005 9.754 26.542002 9.741999 C 22.465002 9.726998 21.173002 13.331999 21.13 13.435999 C 21.151 13.138999 19.793 7.940999 14.442001 7.940999 C 10.671001 7.940999 7.6180015 10.995999 7.6180015 14.765999 C 7.6180015 17.322998 9.040002 19.523998 11.118002 20.693 L 10.403002 20.686998 L 10.403002 20.693 L 10.4 24.18 C 10.549 24.02 10.695999 23.86 10.856999 23.699 C 14.209999 20.345 17.428 19.554 19.351 19.428 C 20.028 18.717 20.569 17.877 20.889 16.918 L 20.889 16.921 C 21.167 18.09 21.802 19.108 22.665 19.879 C 23.033 20.023 23.372002 20.186 23.633 20.386 L 23.646002 20.393 L 23.646002 20.394 C 24.097002 20.74 24.850002 21.318998 25.479002 22.266 C 25.623 22.485 25.726002 22.734 25.809002 22.971998 C 27.918 22.971998 29.375002 22.971998 29.375002 22.971998 L 29.372002 32.321 C 29.372002 32.321 24.907 32.321 21.307005 32.321 L 16.811005 32.321 C 16.906002 32.684998 16.871002 33.017 16.817003 33.242 C 16.732004 33.697 16.539003 34.16 16.299004 34.601 L 31.402004 34.601 L 31.402004 31.481005 L 36.504005 31.481005 L 36.504005 21.647003 L 31.401 23.123 z M 14.44 19.246 C 11.966999 19.247 9.959999 17.241 9.959999 14.767 C 9.959999 12.2890005 11.9679985 10.286 14.439999 10.286 C 16.916998 10.286 18.919 12.293 18.919 14.767 C 18.919 17.241 16.915 19.246 14.44 19.246 z M 26.544 18.946 C 24.688 18.946 23.169 17.431 23.169 15.570999 C 23.169 13.710999 24.688 12.195999 26.544 12.195999 C 28.403 12.195999 29.919 13.711 29.919 15.570999 C 29.919 17.431 28.403 18.946 26.544 18.946 z M 34.589 28.94 L 31.407 28.944 L 31.401 25.657 L 34.589 24.694 L 34.589 28.94 z "/>
        </g>
    </g>
    <radialGradient gradientTransform="matrix(1 0 0 -1 0.4131 -756.3872)" gradientUnits="userSpaceOnUse" xlink:type="simple" r="25.632" xlink:actuate="onLoad" cx="12.4255" id="XMLID_12_" cy="-771.7737" xlink:show="other">
        <stop stop-color="#e6eef4" offset="0"/>
        <stop stop-color="#c6dcc1" offset="0.08"/>
        <stop stop-color="#91c06f" offset="0.21"/>
        <stop stop-color="#47b821" offset="0.32"/>
        <stop stop-color="#47bf0e" offset="0.4"/>
        <stop stop-color="#4ac40d" offset="0.44"/>
        <stop stop-color="#47a619" offset="0.56"/>
        <stop stop-color="#22663b" offset="0.75"/>
        <stop stop-color="#135550" offset="0.9"/>
        <stop stop-color="#0e4e58" offset="1"/>
    </radialGradient>
    <path fill="url(#XMLID_12_)" d="M 22.977 21.199 C 21.695 20.329 16.769 19.276 11.622999 24.422 C 8.502999 27.554 7.623999 30.604 7.623999 32.787 C 7.623999 34.201 7.9639993 35.174 8.273999 35.688 C 8.419 35.929 8.962999 36.814 10.02 37.379 C 10.794999 37.802 11.219999 37.769997 11.219999 37.769997 C 12.027999 37.719 12.917999 37.095997 14.112 35.748997 C 14.504 35.31 15.783999 33.776997 15.783999 32.703995 C 15.783999 32.703995 15.790999 32.143993 14.992999 31.572994 C 14.596999 31.289991 14.044999 31.055994 13.307999 30.936996 L 12.953999 30.877996 L 12.958999 30.523994 C 12.976998 28.751995 15.954999 25.769997 17.723 25.761992 L 18.077 25.759993 L 18.134 26.110992 C 18.249998 26.844992 18.464 27.412992 18.772 27.798992 C 19.217 28.361992 19.601 28.528992 19.792 28.584991 C 20.51 28.65199 21.688 28.02699 22.945 26.913992 C 24.291 25.726992 24.913 24.831991 24.964 24.014992 C 24.957 24.018 25.045 22.603 22.977 21.199 z "/>
</svg>
