<?xml version="1.0" encoding="UTF-8"?>
<svg xmlns="http://www.w3.org/2000/svg" xmlns:xlink="http://www.w3.org/1999/xlink" contentScriptType="text/ecmascript" width="84" baseProfile="tiny" zoomAndPan="magnify" contentStyleType="text/css" viewBox="0 0 84 72" height="72" preserveAspectRatio="xMidYMid meet" version="1.1">
    <g>
        <rect width="84" fill="none" height="72"/>
        <path fill="#3e2a08" d="M 76.57 32.196 C 78.638 28.588 80.058 26.099 80.06 26.086 L 80.394 22.054998 L 53.48 14.724 C 53.349 14.688 52.888 15.098 52.665 15.353 C 52.65 14.908 52.641003 14.462 52.641003 14.462 C 52.637 14.323 51.901 13.928 51.901 13.928 C 41.274 9.646 30.291 11.287 30.179 11.303999 C 30.098 11.3169985 28.971 12.545999 28.899 12.626999 C 28.68 12.666999 27.136 12.974998 27.084 13.0339985 L 4.986 37.925 L 6.427 41.048 C 6.427 41.048 9.250999 41.192 9.29 41.332 C 9.329 41.472 7.992 42.82 7.992 42.82 L 8.418 44.853 L 38.006 60.493 L 43.305 52.167 L 60.534 59.861 C 60.578 59.882 63.891 54.195 63.891 54.195 L 67.033 55.95 L 80.166 36.425003 L 80.261 36.283005 L 80.267 36.111004 L 80.328995 34.333004 L 80.343994 33.935005 L 79.982994 33.76701 L 76.57 32.196 z "/>
        <g>
            <polyline fill="#e0bc6c" points="32.787,44.143 60.577,55.195 79.736,22.506 53.279,15.28 32.787,44.143   "/>
            <polygon fill="#704d18" points="79.719,22.405 60.592,55.066 60.498,59.316 79.342,26.158   "/>
            <linearGradient x1="-159.1011" gradientTransform="matrix(1 0 0 -1 214.6577 -663.1855)" y1="-710.1533" x2="-158.7652" gradientUnits="userSpaceOnUse" y2="-715.8693" xlink:type="simple" xlink:actuate="onLoad" id="XMLID_23_" xlink:show="other">
                <stop stop-color="#87a8cb" offset="0"/>
                <stop stop-color="#235487" offset="1"/>
            </linearGradient>
            <polygon fill="url(#XMLID_23_)" points="53.823,52.232 60.592,55.066 60.498,59.316 51.488,55.314   " display="none"/>
        </g>
        <polygon fill="#3e2a08" points="48.717,46.695 61.453,53.523 68.857,41.068 39.196,35.115 32.787,44.143 46.911,49.759  "/>
        <linearGradient x1="-49.3022" gradientTransform="matrix(0.9966 0.0821 0.0821 -0.9966 164.0348 -603.9559)" y1="-650.3652" x2="-54.5157" gradientUnits="userSpaceOnUse" y2="-661.7257" xlink:type="simple" xlink:actuate="onLoad" id="XMLID_24_" xlink:show="other">
            <stop stop-color="#87a8cb" offset="0"/>
            <stop stop-color="#235487" offset="1"/>
        </linearGradient>
        <polygon fill="url(#XMLID_24_)" points="59.277,43.805 61.82,46.121 54.443,54.27 50.943,52.395  " display="none"/>
        <g>
            <linearGradient x1="-185.9609" gradientTransform="matrix(1 0 0 -1 214.6577 -663.1855)" y1="-675.6436" x2="-175.7106" gradientUnits="userSpaceOnUse" y2="-676.0328" xlink:type="simple" xlink:actuate="onLoad" id="XMLID_25_" xlink:show="other">
                <stop stop-color="#ffffff" offset="0"/>
                <stop stop-color="#ffffff" offset="0.05"/>
                <stop stop-color="#a2c2dd" offset="1"/>
            </linearGradient>
            <path fill="url(#XMLID_25_)" d="M 51.646 14.509 L 51.669 14.478 C 41.116997 10.228 30.353 11.903999 30.353 11.903999 L 29.255 13.141999 L 51.646 14.509 z "/>
            <g>
                <g>
                    <polygon fill="#704d18" points="52.189,14.695 39.23,33.019 40.266,33.435 52.238,16.467     "/>
                </g>
                <path fill="#704d18" d="M 18.516 40.695 C 18.516 40.695 9.202001 39.716 7.026001 39.89 L 7.137001 40.613 C 10.283001 40.718 17.405 41.742 17.405 41.742 L 18.516 40.695 z "/>
            </g>
            <path fill="#ad832f" d="M 52.016 14.693 L 38.741 33.187 C 38.741 33.187 22.553 38.064 20.740002 38.816 C 13.057001 37.33 5.6210012 38.148003 5.6210012 38.148003 L 27.496002 13.502003 C 27.496 13.504 41.465 10.445 52.016 14.693 z "/>
            <g>
                <linearGradient x1="-200.0723" gradientTransform="matrix(1 0 0 1 214.6577 -1527.9678)" y1="1559.6816" x2="-166.2511" gradientUnits="userSpaceOnUse" y2="1543.8678" xlink:type="simple" xlink:actuate="onLoad" id="XMLID_26_" xlink:show="other">
                    <stop stop-color="#e0bc6c" offset="0"/>
                    <stop stop-color="#c1a15b" offset="1"/>
                </linearGradient>
                <path fill="url(#XMLID_26_)" d="M 38.366 33.031 L 51.644 14.508999 C 43.416 11.352999 34.372 11.253999 30.352 11.903999 L 8.479 36.547 C 8.479 36.547 17.867 36.751 21.561 38.337 C 23.553 37.564 38.366 33.031 38.366 33.031 z "/>
            </g>
        </g>
        <g>
            <g>
                <g>
                    <g>
                        <path fill="#670000" d="M 53.186 20.833 C 53.76 20.07 53.702 19.15 53.051003 18.781 C 52.405003 18.412 51.413 18.726 50.840004 19.49 C 50.264004 20.251 50.32301 21.167 50.975 21.54 C 51.618 21.91 52.609 21.592 53.186 20.833 z "/>
                        <path fill="#670000" d="M 48.279 18.577 C 48.712997 17.769 48.515 16.909 47.851 16.654999 C 47.181 16.4 46.288 16.846998 45.860996 17.655 C 45.428997 18.461998 45.624996 19.318 46.29499 19.575 C 46.963 19.831 47.854 19.381 48.279 18.577 z "/>
                    </g>
                </g>
                <radialGradient gradientTransform="matrix(1 0 0 1 214.6577 -1527.9678)" gradientUnits="userSpaceOnUse" xlink:type="simple" r="2.8149" xlink:actuate="onLoad" cx="-165.0122" id="XMLID_27_" cy="1546.791" xlink:show="other">
                    <stop stop-color="#b0381e" offset="0"/>
                    <stop stop-color="#822519" offset="1"/>
                </radialGradient>
                <path fill="url(#XMLID_27_)" d="M 52.98 19.963 C 52.46 16.692 49.4 16.078 47.236 17.106 C 46.418 17.554998 46.132 18.342 46.418 18.977 C 47.368 18.088 51.008 18.036 51.409 20.973 C 51.859 21.097 52.818 20.75 52.98 19.963 z "/>
                <path fill="#670000" d="M 46.418 18.929 C 47.225 18.597 49.85 18.049002 51.407 20.972 C 51.738 19.472 49.053 16.461 46.418 18.929 z "/>
            </g>
            <g>
                <g>
                    <g>
                        <path fill="#670000" d="M 44.495 32.958 C 45.07 32.195 45.011997 31.275 44.361 30.906 C 43.714 30.537 42.724 30.851 42.151 31.615 C 41.575 32.376 41.635 33.292 42.286 33.665 C 42.932 34.036 43.922 33.717 44.495 32.958 z "/>
                        <path fill="#670000" d="M 39.594 30.702 C 40.027 29.894 39.829 29.034 39.166 28.78 C 38.496 28.525 37.603 28.971998 37.176 29.78 C 36.744 30.586998 36.938 31.443 37.608 31.7 C 38.276 31.956 39.166 31.506 39.594 30.702 z "/>
                    </g>
                </g>
                <radialGradient gradientTransform="matrix(1 0 0 1 214.6577 -1527.9678)" gradientUnits="userSpaceOnUse" xlink:type="simple" r="2.8152" xlink:actuate="onLoad" cx="-173.7002" id="XMLID_28_" cy="1558.916" xlink:show="other">
                    <stop stop-color="#b0381e" offset="0"/>
                    <stop stop-color="#822519" offset="1"/>
                </radialGradient>
                <path fill="url(#XMLID_28_)" d="M 44.293 32.088 C 43.773 28.817 40.712997 28.203 38.549 29.231 C 37.729 29.68 37.444 30.467 37.729 31.102 C 38.68 30.213 42.319 30.161 42.721 33.098 C 43.174 33.221 44.131 32.875 44.293 32.088 z "/>
                <path fill="#670000" d="M 37.731 31.054 C 38.538 30.722 41.163 30.174002 42.721 33.096 C 43.053 31.597 40.364 28.586 37.731 31.054 z "/>
            </g>
            <g>
                <g>
                    <g>
                        <path fill="#670000" d="M 49.027 26.708 C 49.603 25.945 49.544 25.025 48.894 24.656 C 48.245003 24.287 47.254 24.601 46.681 25.365 C 46.107 26.126 46.164 27.042 46.818 27.415 C 47.463 27.785 48.452 27.467 49.027 26.708 z "/>
                        <path fill="#670000" d="M 44.125 24.452 C 44.557 23.644 44.359 22.784 43.695 22.53 C 43.025 22.275 42.132 22.721998 41.707 23.53 C 41.274 24.336998 41.469 25.193 42.139 25.45 C 42.807 25.706 43.695 25.256 44.125 24.452 z "/>
                    </g>
                </g>
                <radialGradient gradientTransform="matrix(1 0 0 1 214.6577 -1527.9678)" gradientUnits="userSpaceOnUse" xlink:type="simple" r="2.8152" xlink:actuate="onLoad" cx="-169.1699" id="XMLID_29_" cy="1552.666" xlink:show="other">
                    <stop stop-color="#b0381e" offset="0"/>
                    <stop stop-color="#822519" offset="1"/>
                </radialGradient>
                <path fill="url(#XMLID_29_)" d="M 48.823 25.838 C 48.304 22.567 45.243004 21.953 43.079 22.981 C 42.26 23.429998 41.975 24.217 42.26 24.852 C 43.211 23.963 46.852 23.911 47.252003 26.848 C 47.704 26.972 48.661 26.625 48.823 25.838 z "/>
                <path fill="#670000" d="M 42.262 24.804 C 43.07 24.472 45.695 23.924002 47.252 26.847 C 47.584 25.347 44.896 22.336 42.262 24.804 z "/>
            </g>
        </g>
        <g>
            <g>
                <g>
                    <g>
                        <polygon fill="#3e2a08" points="66.986,53.467 40.599,40.033 40.907,41.247 66.91,55.131      "/>
                        <linearGradient x1="-167.3789" gradientTransform="matrix(1 0 0 -1 214.6577 -663.1855)" y1="-694.5728" x2="-155.6282" gradientUnits="userSpaceOnUse" y2="-702.3802" xlink:type="simple" xlink:actuate="onLoad" id="XMLID_30_" xlink:show="other">
                            <stop stop-color="#e0bc6c" offset="0"/>
                            <stop stop-color="#8e6f3a" offset="1"/>
                        </linearGradient>
                        <path fill="url(#XMLID_30_)" d="M 51.794 27.038 L 43.223 37.127 L 48.649 39.725 C 51.579 36.323 53.364 32.372997 56.294 28.941998 L 51.794 27.038 z "/>
                        <linearGradient x1="-166.5215" gradientTransform="matrix(1 0 0 -1 214.6577 -663.1855)" y1="-693.9917" x2="-144.3783" gradientUnits="userSpaceOnUse" y2="-706.8914" xlink:type="simple" xlink:actuate="onLoad" id="XMLID_31_" xlink:show="other">
                            <stop stop-color="#e0bc6c" offset="0"/>
                            <stop stop-color="#8e6f3a" offset="1"/>
                        </linearGradient>
                        <path fill="url(#XMLID_31_)" d="M 56.292 28.942 C 53.363 32.371998 51.575 36.323 48.646 39.725 L 61.286 45.862 C 63.157 41.928 67.351 38.502 69.428 34.589 L 56.292 28.942 z "/>
                        <linearGradient x1="-134.8784" gradientTransform="matrix(1 0 0 -1 214.6577 -663.1855)" y1="-710.9126" x2="-152.7948" gradientUnits="userSpaceOnUse" y2="-701.0225" xlink:type="simple" xlink:actuate="onLoad" id="XMLID_32_" xlink:show="other">
                            <stop stop-color="#e0bc6c" offset="0"/>
                            <stop stop-color="#8e6f3a" offset="1"/>
                        </linearGradient>
                        <path fill="url(#XMLID_32_)" d="M 77.414 38.079 L 69.428 34.587997 C 67.352005 38.501 63.157 41.929996 61.284 45.860996 L 69.622 49.981995 L 77.414 38.079 z "/>
                        <path fill="#704d18" d="M 67.09 53.544 L 40.599 40.031 L 54.630997 23.669 L 79.730995 34.296 L 67.09 53.544 z M 55.868 28.947 L 51.67 27.261 L 43.461 36.9 L 47.865 38.937 L 55.868 28.947 z M 49.029 39.578 L 61.22 45.357 L 68.91 34.519997 L 57.176003 29.404997 L 49.029 39.578 z M 77.734 38.245 L 70.224 35.091 L 62.316 45.955 L 70.045 49.701 L 77.734 38.245 z "/>
                        <polygon fill="#6d5607" points="79.727,34.311 66.953,53.454 66.91,55.131 79.669,36.091      "/>
                    </g>
                    <path fill="#b18e3b" d="M 69.48 49.46 L 69.44701 51.322 L 77.281006 39.791 L 77.23401 38.102 L 69.48 49.46 z M 67.587 54.079 L 68.902 52.208 L 68.953 50.491 L 67.671005 52.29 L 67.587 54.079 z M 79.048 35.272 L 77.857994 37.047 L 77.980995 38.671 L 79.13 36.925003 L 79.048 35.272 z "/>
                </g>
            </g>
            <g>
                <path fill="#f1de84" d="M 49.33 40.988 L 47.837 42.64 L 49.063004 43.228 L 50.550003 41.579 L 49.33 40.988 z M 51.695 42.12 L 50.206 43.757 L 51.439003 44.379 L 52.941 42.713 L 51.695 42.12 z M 54.041 43.227 L 52.583 44.92 L 53.816 45.543003 L 55.289 43.85 L 54.041 43.227 z M 56.443 44.393 L 54.972 46.102 L 56.261 46.725 L 57.734 45.028004 L 56.443 44.393 z M 58.875 45.557 L 57.416 47.285 L 58.706 47.907 L 60.148003 46.168003 L 58.875 45.557 z M 61.316 46.727 L 59.888 48.51 L 61.189 49.133003 L 62.633 47.378 L 61.316 46.727 z M 63.801 47.938 L 62.372997 49.723 L 63.703 50.375 L 65.099 48.577 L 63.801 47.938 z M 66.297 49.152 L 64.912994 50.951 L 66.23799 51.62 L 67.65199 49.789997 L 66.297 49.152 z M 68.673 50.363 L 67.384995 52.094997 L 67.65299 52.253 L 68.94 50.490997 L 68.673 50.363 z "/>
                <path fill="#f1de84" d="M 55.73 25.285 L 54.281 26.982 L 55.497 27.521 L 56.966 25.781 L 55.73 25.285 z M 58.066 26.25 L 56.603 27.965 L 57.867 28.529 L 59.29 26.763 L 58.066 26.25 z M 60.408 27.249 L 58.972 28.99 L 60.228 29.513 L 61.657 27.775 L 60.408 27.249 z M 53.928 24.514 L 52.473 26.205 L 53.19 26.524 L 54.628 24.832 L 53.928 24.514 z M 62.67 28.149 L 61.238 29.873 L 62.507 30.428 L 63.949 28.672 L 62.67 28.149 z M 64.921 29.142 L 63.525 30.922 L 64.791 31.478 L 66.202 29.695 L 64.921 29.142 z M 67.266 30.067 L 65.855995 31.865 L 67.176994 32.415 L 68.588 30.631 L 67.266 30.067 z M 69.605 31.15 L 68.209 32.963 L 69.532 33.517002 L 70.912 31.688002 L 69.605 31.15 z M 71.874 32.086 L 70.512 33.955 L 71.848 34.508 L 73.227 32.663 L 71.874 32.086 z M 74.229 33.176 L 72.868 35.046997 L 74.232994 35.627 L 75.564995 33.744 L 74.229 33.176 z M 76.518 34.157 L 75.198 36.039 L 76.563 36.633003 L 77.909 34.720005 L 76.518 34.157 z M 78.79 35.116 L 77.564 36.928 L 77.838005 37.071003 L 79.06201 35.231003 L 78.79 35.116 z "/>
            </g>
        </g>
        <g display="none">
            <linearGradient x1="-58.1548" gradientTransform="matrix(0.9967 0.0813 0.0813 -0.9967 164.5276 -602.6251)" y1="-658.6753" x2="-55.2847" gradientUnits="userSpaceOnUse" y2="-661.0668" xlink:type="simple" xlink:actuate="onLoad" id="XMLID_33_" xlink:show="other">
                <stop stop-color="#ffffff" offset="0"/>
                <stop stop-color="#496da2" offset="0.7135"/>
                <stop stop-color="#235487" offset="0.9888"/>
                <stop stop-color="#235487" offset="1"/>
            </linearGradient>
            <polygon fill="url(#XMLID_33_)" points="63.016,40.107 47.064,59.389 47.021,62.128 62.225,43.164   " display="inline"/>
            <linearGradient x1="-78.4209" gradientTransform="matrix(0.9967 0.0813 0.0813 -0.9967 164.5276 -602.6251)" y1="-661.8169" x2="-80.2196" gradientUnits="userSpaceOnUse" y2="-665.928" xlink:type="simple" xlink:actuate="onLoad" id="XMLID_34_" xlink:show="other">
                <stop stop-color="#ffffff" offset="0"/>
                <stop stop-color="#496da2" offset="0.7135"/>
                <stop stop-color="#235487" offset="0.9888"/>
                <stop stop-color="#235487" offset="1"/>
            </linearGradient>
            <polygon fill="url(#XMLID_34_)" points="47.116,59.363 15.497,43.979 15.689,45.564 47.05,62.063   " display="inline"/>
            <linearGradient x1="-102.1211" gradientTransform="matrix(0.9967 0.0813 0.0813 -0.9967 164.5276 -602.6251)" y1="-629.6411" x2="-65.7959" gradientUnits="userSpaceOnUse" y2="-657.8696" xlink:type="simple" xlink:actuate="onLoad" id="XMLID_35_" xlink:show="other">
                <stop stop-color="#ffffff" offset="0"/>
                <stop stop-color="#ffffff" offset="0.15"/>
                <stop stop-color="#a2c2dd" offset="1"/>
            </linearGradient>
            <polygon fill="url(#XMLID_35_)" points="32.663,28.456 15.489,43.992 47.109,59.367 63.063,40.111   " display="inline"/>
            <linearGradient x1="-66.7852" gradientTransform="matrix(0.9967 0.0813 0.0813 -0.9967 164.5276 -602.6251)" y1="-665.5298" x2="-78.5599" gradientUnits="userSpaceOnUse" y2="-639.1974" xlink:type="simple" xlink:actuate="onLoad" id="XMLID_36_" xlink:show="other">
                <stop stop-color="#ffffff" offset="0"/>
                <stop stop-color="#ffffff" offset="0.15"/>
                <stop stop-color="#a2c2dd" offset="1"/>
            </linearGradient>
            <polygon fill="url(#XMLID_36_)" points="46.626,57.434 18.074,43.721 33.013,30.01 60.454,40.805   " display="inline"/>
            <linearGradient x1="132.5635" gradientTransform="matrix(0.9504 0.217 0.3237 -0.9783 73.2339 -454.7207)" y1="-504.4702" x2="122.0413" gradientUnits="userSpaceOnUse" y2="-486.5718" xlink:type="simple" xlink:actuate="onLoad" id="XMLID_37_" xlink:show="other">
                <stop stop-color="#ffffff" offset="0"/>
                <stop stop-color="#a2c2dd" offset="0.35"/>
                <stop stop-color="#6c83bb" offset="0.7"/>
                <stop stop-color="#003d6d" offset="1"/>
            </linearGradient>
            <polygon fill="url(#XMLID_37_)" points="20.413,41.646 43.902,54.382 46.598,57.466 18.042,43.748   " display="inline"/>
            <path fill="#ffffff" d="M 28.292 34.334 C 31.504 37.35 39.582 39.186 39.582 39.186 L 42.844 36.637 C 44.106003 33.782 39.543003 33.182 37.741 33.986 C 36.845 31.923 33.197002 32.587 32.934002 33.32 C 32.512 32.929 31.657 32.475 30.613005 32.237 L 28.292 34.334 z " display="inline"/>
            <g display="inline">
                <g>
                    <path fill="#298595" d="M 28.039 45.939 L 43.466 49.414 C 36.532 54.624996 25.684 46.842 25.333 45.955 L 28.039 45.939 z "/>
                    <linearGradient x1="71.9053" gradientTransform="matrix(0.9345 0.2617 0.3668 -0.9673 132.1519 -433.4123)" y1="-474.3477" x2="74.2735" gradientUnits="userSpaceOnUse" y2="-475.7917" xlink:type="simple" xlink:actuate="onLoad" id="XMLID_38_" xlink:show="other">
                        <stop stop-color="#d6e6ec" offset="0"/>
                        <stop stop-color="#298595" offset="1"/>
                    </linearGradient>
                    <path fill="url(#XMLID_38_)" d="M 26.115 43.357 L 28.039 45.939 C 27.606 46.185 26.435 46.607 25.574 46.281 C 24.804 45.51 25.04 44.567997 25.04 44.567997 C 25.04 44.567997 25.429 43.846 26.115 43.357 z "/>
                    <path fill="#bfdae1" d="M 26.102 43.363 L 27.994 45.98 C 29.348 46.697 37.527 51.659 43.467 49.414 C 40.553 48.005 28.939 43.753 26.102 43.363 z "/>
                    <path fill="#115b7e" d="M 28.579 45.803 L 27.135 43.86 C 29.395 44.286 40.215 48.116 42.694 49.319 C 38.087 50.564 31.526 47.441 28.579 45.803 z "/>
                    <g>
                        <polygon fill="#bfdae1" points="31.663,45.613 32.944,47.916 34.915,48.623 33.458,46.182      "/>
                        <polygon fill="#2f8e9a" points="31.506,45.839 32.503,47.714 32.944,47.916 31.665,45.609      "/>
                    </g>
                </g>
                <g>
                    <linearGradient x1="128.9336" gradientTransform="matrix(0.9504 0.217 0.3237 -0.9783 73.2339 -454.7207)" y1="-478.2593" x2="112.0552" gradientUnits="userSpaceOnUse" y2="-480.8312" xlink:type="simple" xlink:actuate="onLoad" id="XMLID_39_" xlink:show="other">
                        <stop stop-color="#2b98a0" offset="0"/>
                        <stop stop-color="#0a4a60" offset="1"/>
                    </linearGradient>
                    <polygon fill="url(#XMLID_39_)" points="33.296,46.66 45.295,35.392 27.53,41.848     "/>
                    <polygon fill="#2f8e9a" points="33.809,47.646 43.229,37.693 39.479,48.805     "/>
                </g>
            </g>
        </g>
        <g>
            <polygon fill="#704d18" points="50.825,36.956 37.673,57.059 37.772,59.83 50.311,40.042   "/>
            <polygon fill="#704d18" points="37.717,57.031 8.837,42.848 9.046,44.484 37.793,59.762   "/>
            <polygon fill="#eacf5a" points="23.546,26.192 8.831,42.861 37.711,57.036 50.867,36.958   "/>
            <linearGradient x1="-106.9814" gradientTransform="matrix(0.9998 0.0194 0.0194 -0.9998 147.507 -626.6301)" y1="-679.2256" x2="-102.1561" gradientUnits="userSpaceOnUse" y2="-657.5108" xlink:type="simple" xlink:actuate="onLoad" id="XMLID_40_" xlink:show="other">
                <stop stop-color="#f1de84" offset="0"/>
                <stop stop-color="#c1a15b" offset="1"/>
            </linearGradient>
            <polygon fill="url(#XMLID_40_)" points="37.179,55.107 11.124,42.465 23.91,27.772 48.604,37.75   "/>
            <linearGradient x1="104.6885" gradientTransform="matrix(0.962 0.1577 0.2625 -0.9965 65.379 -472.9799)" y1="-523.4751" x2="94.353" gradientUnits="userSpaceOnUse" y2="-505.8942" xlink:type="simple" xlink:actuate="onLoad" id="XMLID_41_" xlink:show="other">
                <stop stop-color="#cd9f3d" offset="0"/>
                <stop stop-color="#704d18" offset="1"/>
            </linearGradient>
            <polygon fill="url(#XMLID_41_)" points="13.15,40.219 34.588,52.161 37.155,55.143 11.098,42.495   "/>
            <path fill="#cd9f3d" d="M 19.903 32.371 C 22.843 35.348 30.06 36.914997 30.06 36.914997 L 32.831 34.198997 C 33.814003 31.256998 29.773 30.798998 28.22 31.680998 C 27.349 29.605995 24.165 30.407995 23.96 31.166998 C 23.574 30.780998 22.805 30.343 21.878 30.135998 L 19.903 32.371 z "/>
            <g>
                <g>
                    <path fill="#cd9f3d" d="M 20.067 44.307 L 33.965 47.145 C 27.989 52.785 17.999 45.344 17.656 44.446 L 20.067 44.307 z "/>
                    <linearGradient x1="45.8018" gradientTransform="matrix(0.9489 0.2033 0.3062 -0.9882 125.4972 -455.2746)" y1="-494.4932" x2="48.0756" gradientUnits="userSpaceOnUse" y2="-495.8796" xlink:type="simple" xlink:actuate="onLoad" id="XMLID_42_" xlink:show="other">
                        <stop stop-color="#e0bc6c" offset="0"/>
                        <stop stop-color="#cd9f3d" offset="1"/>
                    </linearGradient>
                    <path fill="url(#XMLID_42_)" d="M 18.268 41.738 L 20.067 44.306 C 19.691 44.578 18.66 45.066 17.881 44.771 C 17.171 44.011 17.352 43.031 17.352 43.031 C 17.352 43.031 17.675 42.27 18.268 41.738 z "/>
                    <path fill="#9e6434" d="M 18.258 41.745 L 20.028 44.351 C 21.26 45.025 28.757 49.71 33.966 47.143997 C 31.302 45.85 20.794 42.023 18.258 41.745 z "/>
                    <path fill="#c1a15b" d="M 20.544 44.143 L 19.192 42.209 C 21.218002 42.548 31.005 45.979 33.27 47.083 C 29.211 48.568 23.23 45.689 20.544 44.143 z "/>
                    <g>
                        <polygon fill="#704d18" points="23.284,43.809 24.512,46.109 26.298,46.74 24.904,44.313      "/>
                        <polygon fill="#cd9f3d" points="23.153,44.049 24.111,45.923 24.512,46.109 23.286,43.807      "/>
                    </g>
                </g>
                <g>
                    <linearGradient x1="100.4248" gradientTransform="matrix(0.962 0.1577 0.2625 -0.9965 65.379 -472.9799)" y1="-497.7222" x2="85.4332" gradientUnits="userSpaceOnUse" y2="-500.0065" xlink:type="simple" xlink:actuate="onLoad" id="XMLID_43_" xlink:show="other">
                        <stop stop-color="#cd9f3d" offset="0"/>
                        <stop stop-color="#704d18" offset="1"/>
                    </linearGradient>
                    <polygon fill="url(#XMLID_43_)" points="24.778,44.809 34.937,32.849 19.478,40.125     "/>
                    <linearGradient x1="25.2739" y1="40.9844" x2="33.2168" gradientUnits="userSpaceOnUse" y2="40.9844" xlink:type="simple" xlink:actuate="onLoad" id="XMLID_44_" xlink:show="other">
                        <stop stop-color="#cd9f3d" offset="0"/>
                        <stop stop-color="#704d18" offset="1"/>
                    </linearGradient>
                    <polygon fill="url(#XMLID_44_)" points="25.274,45.793 33.217,35.259 30.38,46.711     "/>
                </g>
            </g>
        </g>
        <polygon fill="#ffffff" points="76.146,32.662 79.727,34.311 79.667,36.089 66.842,55.156 59.002,50.759  " display="none"/>
    </g>
</svg>
