<?xml version="1.0" encoding="UTF-8"?>
<svg xmlns="http://www.w3.org/2000/svg" xmlns:xlink="http://www.w3.org/1999/xlink" contentScriptType="text/ecmascript" width="84" baseProfile="tiny" zoomAndPan="magnify" contentStyleType="text/css" viewBox="0 0 84 58" height="58" preserveAspectRatio="xMidYMid meet" version="1.1">
    <g>
        <g>
            <g>
                <rect width="84" fill="none" height="58"/>
                <g>
                    <radialGradient gradientTransform="matrix(0.5981 0 0 -0.5982 -71.1985 -95.9005)" gradientUnits="userSpaceOnUse" xlink:type="simple" r="55.3186" xlink:actuate="onLoad" cx="193.8223" id="XMLID_12_" cy="-179.9102" xlink:show="other">
                        <stop stop-color="#c1a15b" offset="0"/>
                        <stop stop-color="#8e6f3a" offset="0.5337"/>
                        <stop stop-color="#704d18" offset="1"/>
                    </radialGradient>
                    <circle fill="url(#XMLID_12_)" r="17.883" cx="41.196" cy="23.255"/>
                    <g>
                        <radialGradient gradientTransform="matrix(0.5981 0 0 -0.5982 -71.1985 -95.9005)" gradientUnits="userSpaceOnUse" xlink:type="simple" r="35.6168" xlink:actuate="onLoad" cx="194.3467" id="XMLID_13_" cy="-182.4927" xlink:show="other">
                            <stop stop-color="#f1de84" offset="0"/>
                            <stop stop-color="#eacf5a" offset="1"/>
                        </radialGradient>
                        <path fill="url(#XMLID_13_)" d="M 33.987 7.855 C 34.059 8.006 34.305 8.042 34.82 7.879 C 35.2 7.8450003 36.193 6.9830003 36.711998 7.156 C 37.232 7.328 37.657997 6.981 38.142 6.67 C 39.147 6.758 40.217 5.874 40.424 5.874 C 40.631 5.874 41.411 6.017 41.583 5.743 C 41.583 5.743 43.469 6.186 45.191 5.817 C 43.906002 5.523 42.570004 5.368 41.195004 5.368 C 39.427002 5.368 37.718002 5.626 36.105003 6.104 C 35.654 6.539 35.171 7.129 33.987 7.855 z "/>
                        <radialGradient gradientTransform="matrix(0.5981 0 0 -0.5982 -71.1985 -95.9005)" gradientUnits="userSpaceOnUse" xlink:type="simple" r="35.6101" xlink:actuate="onLoad" cx="194.3516" id="XMLID_14_" cy="-182.4912" xlink:show="other">
                            <stop stop-color="#f1de84" offset="0"/>
                            <stop stop-color="#eacf5a" offset="1"/>
                        </radialGradient>
                        <path fill="url(#XMLID_14_)" d="M 27.689 30.76 C 27.939999 30.76 28.591 30.841 28.67 30.604 C 28.675 30.501 28.767 28.055 28.767 28.055 L 29.741001 26.76 L 29.741001 25.728 L 27.207 24.087 L 26.107 22.896 C 26.107 22.9 25.68 21.61 25.281 21.247 C 24.947 20.941 24.971 20.271 24.616 19.778 C 24.295 19.332 24.036 19.081 23.828 18.982 C 22.195 25.6 24.727999 31.228 27.101 34.265 C 27.441 33.779 27.709 33.236 27.917 32.756 C 28.133 32.261 26.841 31.564 27.689 30.76 z "/>
                        <radialGradient gradientTransform="matrix(0.5981 0 0 -0.5982 -71.1985 -95.9005)" gradientUnits="userSpaceOnUse" xlink:type="simple" r="35.6124" xlink:actuate="onLoad" cx="194.3496" id="XMLID_15_" cy="-182.4888" xlink:show="other">
                            <stop stop-color="#f1de84" offset="0"/>
                            <stop stop-color="#eacf5a" offset="1"/>
                        </radialGradient>
                        <path fill="url(#XMLID_15_)" d="M 29.638 10.262 C 29.638 9.941 30.165 9.781 30.165 9.781 L 30.234001 10.033 L 30.714 10.239 C 30.714 10.239 31.288 9.619 31.402 9.46 C 31.517 9.299 31.723 8.679 31.723 8.679 L 32.726 7.5 C 30.478003 8.711 28.521002 10.39 26.980001 12.405001 C 27.597 11.916 29.638 10.583 29.638 10.262 z "/>
                        <radialGradient gradientTransform="matrix(0.5981 0 0 -0.5982 -71.1985 -95.9005)" gradientUnits="userSpaceOnUse" xlink:type="simple" r="35.6289" xlink:actuate="onLoad" cx="194.3516" id="XMLID_16_" cy="-182.4976" xlink:show="other">
                            <stop stop-color="#5aa7e0" offset="0"/>
                            <stop stop-color="#0046b7" offset="1"/>
                        </radialGradient>
                        <path fill="url(#XMLID_16_)" d="M 39.098 7.431 C 39.325 7.387 39.841 7.1460004 39.841 7.1460004 C 39.841 7.1460004 39.582 7.0360003 39.291 7.0800004 C 39.001 7.1230006 38.581 6.9040003 38.355 7.0140004 C 38.549 7.256 38.871 7.475 39.098 7.431 z "/>
                        <radialGradient gradientTransform="matrix(0.7791 0 0 -0.7792 -30.9731 -30.5385)" gradientUnits="userSpaceOnUse" xlink:type="simple" r="24.9674" xlink:actuate="onLoad" cx="97.5664" id="XMLID_17_" cy="-55.2363" xlink:show="other">
                            <stop stop-color="#f1de84" offset="0"/>
                            <stop stop-color="#eacf5a" offset="1"/>
                        </radialGradient>
                        <path fill="url(#XMLID_17_)" d="M 49.432 7.376 C 48.882 7.5299997 48.43 7.647 48.325 7.647 C 48.012 7.647 48.096 7.384 47.821 7.349 C 47.543 7.314 45.235 6.719 44.925 7.029 C 44.614 7.342 43.399998 7.66 43.12 7.6949997 C 42.847 7.7299995 43.212997 8.566 43.946 9.092 C 43.843 9.197 42.203 10.106 42.203 9.483 C 42.203 8.86 41.883 8.405 41.378 8.221 C 40.92 8.335 40.392 8.818 41.126 9.483 C 41.583 9.896999 41.128998 9.952 41.097 10.07 C 40.962 10.572 42.196 11.058 41.608 11.426 C 41.053 11.474999 40.56 11.374 40.468002 11.322 C 39.598003 10.832999 39.401 12.766 39.401 12.766 L 40.350002 13.236 L 38.765003 14.778 C 38.765003 14.778 36.439003 16.393 36.404003 16.601 C 36.369003 16.808 35.371002 19.486 35.716003 20.282 C 36.063004 21.076 37.854004 23.22 38.681004 23.289 C 39.763004 23.376 42.893005 22.751999 42.893005 22.751999 C 42.961006 22.925 43.280006 23.617998 44.819004 23.904 C 44.874004 23.914999 44.155003 25.290998 44.579002 25.880999 C 45.496002 27.164999 45.954002 28.488998 45.45 29.085999 C 44.247 30.892998 45.461002 31.977 45.461002 31.977 L 56.375 23.125 C 56.375 23.125 57.14 21.069 56.101 21.451 C 55.413002 21.702 55.242 21.692 55.023003 21.623001 C 54.960003 21.061 54.839005 20.831001 54.22 20.282001 C 53.9 19.524002 53.119 18.217001 53.119 18.217001 L 52.017998 16.545 L 52.155 16.201 L 54.541 19.446 C 54.758 20.075998 54.907 20.366 55.079 21.108 C 56.438 20.778 57.615997 19.004 57.065 17.559 C 57.039997 17.532 56.701 17.6 56.202 17.565 C 55.431 17.002 54.966 15.814 54.966 15.814 L 56.718998 17.29 L 57.579 17.359001 L 58.12 18.438002 C 58.274 18.539001 58.378998 18.605001 58.378998 18.605001 C 58.378998 18.605001 58.414997 18.609001 58.474 18.611002 C 57.158 13.724 53.831 9.664 49.432 7.376 z M 45.615 8.087 C 45.471 7.72 46.04 7.582 46.04 7.582 C 46.04 7.582 46.603 8.403999 46.516003 8.946 C 46.425003 9.483 45.827003 9.154 45.647003 8.993 C 45.471 8.833 45.759 8.455 45.615 8.087 z M 50.762 14.975 C 50.173 14.975 49.358 14.974 48.856003 14.628 C 48.356003 14.283 48.175003 14.777 47.842003 15.123 C 47.625004 15.348001 45.374004 14.236 45.374004 14.236 L 45.041004 13.267 L 42.986004 13.13 L 41.676003 13.52 L 40.4 13.317 L 41.815002 12.812 C 41.815002 12.812 42.834003 11.856 43.199 11.5460005 C 43.509003 11.283001 44.747 11.442 44.747 11.442 L 46.162003 12.576 C 46.162003 12.576 46.064003 13.094 45.933002 13.265 C 46.45 13.2300005 46.836002 12.566 46.836002 12.566 C 45.689003 11.557 45.694004 11.312 45.694004 11.312 L 47.170006 12.146 L 47.276005 12.575 C 47.276005 12.575 47.866005 13.589 48.430004 13.63 C 48.672005 13.648 48.475002 12.679 48.475002 12.679 L 48.774002 12.637 C 49.368004 14.011 51.462 13.874001 51.844 14.195 C 51.869 15.618 51.007 15.044 50.762 14.975 z M 51.152 12.523 C 50.627 12.316999 50.085 12.419 50.085 12.419 C 49.966 12.651999 49.119 12.410999 49.288 11.896 C 49.459 11.378 50.014 11.786 50.267 11.506 C 50.523 11.224 50.884 11.037 51.049 11.304 C 50.857 11.558 51.218 11.757 51.47 11.893 C 52.182 12.275 52.646 12.824 51.152 12.523 z M 54.068 13.786 C 53.802002 13.55 53.974 13.27 53.573 12.894 C 52.998 12.358 52.683002 12.125 53.013 11.538 C 53.576 11.27 53.242 11.897 53.453 12.1970005 C 53.565 12.3550005 54.072 12.862 54.554 13.51 C 54.957 14.051 54.335 14.022 54.068 13.786 z "/>
                    </g>
                </g>
                <g>
                    <linearGradient x1="70.1514" gradientTransform="matrix(1 0 0 -1 0 57)" y1="28.8481" x2="63.1028" gradientUnits="userSpaceOnUse" y2="25.5461" xlink:type="simple" xlink:actuate="onLoad" id="XMLID_18_" xlink:show="other">
                        <stop stop-color="#cd9f3d" offset="0"/>
                        <stop stop-color="#704d18" offset="1"/>
                    </linearGradient>
                    <path fill="url(#XMLID_18_)" d="M 70.061 25.997 L 60.665997 29.85 L 60.061996 30.424 C 60.967995 31.212 63.750996 32.666 65.520996 33.065 C 67.032 32.419 69.606995 29.281998 69.853 28.293999 C 70.132 27.185 70.148 26.557 70.061 25.997 z "/>
                    <linearGradient x1="65.9697" gradientTransform="matrix(1 0 0 -1 0 57)" y1="27.5313" x2="61.5406" gradientUnits="userSpaceOnUse" y2="29.9026" xlink:type="simple" xlink:actuate="onLoad" id="XMLID_19_" xlink:show="other">
                        <stop stop-color="#cd9f3d" offset="0"/>
                        <stop stop-color="#704d18" offset="1"/>
                    </linearGradient>
                    <path fill="url(#XMLID_19_)" d="M 64.552 25.41 L 60.419003 29.671 C 62.068 30.824 64.053 31.689999 65.409004 32.061 L 64.552 25.41 z "/>
                    <linearGradient x1="54.4014" gradientTransform="matrix(1 0 0 -1 0 57)" y1="11.8525" x2="40.5367" gradientUnits="userSpaceOnUse" y2="7.0337" xlink:type="simple" xlink:actuate="onLoad" id="XMLID_20_" xlink:show="other">
                        <stop stop-color="#cd9f3d" offset="0"/>
                        <stop stop-color="#704d18" offset="1"/>
                    </linearGradient>
                    <path fill="url(#XMLID_20_)" d="M 54.672 40.746 L 37.319 46.402 L 37.663002 48.126 C 37.663002 48.126 40.538002 51.398 46.841003 52.459 C 51.057003 49.639 53.776005 45.529 54.509003 43.034 L 54.672 40.746 z "/>
                    <linearGradient x1="48.5518" gradientTransform="matrix(1 0 0 -1 0 57)" y1="9.6265" x2="38.5151" gradientUnits="userSpaceOnUse" y2="14.5542" xlink:type="simple" xlink:actuate="onLoad" id="XMLID_21_" xlink:show="other">
                        <stop stop-color="#eacf5a" offset="0"/>
                        <stop stop-color="#cd9f3d" offset="1"/>
                    </linearGradient>
                    <path fill="url(#XMLID_21_)" d="M 37.298 46.402 C 37.735 42.323 39.848 38.609 39.848 38.609 L 46.25 40.792 L 46.432 50.813 C 41.522 50.076 38.887 47.949 37.298 46.402 z "/>
                    <linearGradient x1="65.9561" gradientTransform="matrix(1 0 0 -1 0 57)" y1="35.4424" x2="38.4618" gradientUnits="userSpaceOnUse" y2="15.9406" xlink:type="simple" xlink:actuate="onLoad" id="XMLID_22_" xlink:show="other">
                        <stop stop-color="#e0bc6c" offset="0"/>
                        <stop stop-color="#cd9f3d" offset="1"/>
                    </linearGradient>
                    <path fill="url(#XMLID_22_)" d="M 39.848 38.609 C 40.814 39.525 43.428 41.191 46.148 40.951 L 67.677 20.578001 C 65.801 19.535002 63.152 19.307001 63.152 19.307001 C 55.828 22.397 46.307 30.046 39.848 38.609 z "/>
                    <path fill="#f1de84" d="M 46.432 50.813 C 45.873 48.742 45.642998 43.223 46.155 40.891 C 52.051 32.262 60.543 24.553 67.639 20.543 C 67.639 20.543 69.643 22.632 70.067 25.987 C 69.571 28.106998 67.112 30.796999 65.405 32.053 C 65.18 31.54 64.408 25.774002 64.408 25.774002 C 62.447998 28.339003 59.351997 31.128002 54.284996 35.93 C 54.620995 37.71 54.672997 40.725 54.672997 40.725 C 53.047 44.646 50.158 48.489 46.432 50.813 z "/>
                </g>
            </g>
        </g>
        <g>
            <path fill="#ffffff" d="M 13.42 34.429 C 10.639 34.429 6.828 35.089 5.863 40.815002 L 5.718 41.676003 C 5.718 41.676003 12.124001 41.676003 12.884 41.676003 C 13.113 42.092003 13.455999 42.709003 13.672999 43.106003 C 13.455999 43.499004 13.112999 44.116 12.884 44.533005 C 12.124 44.533005 5.718 44.533005 5.718 44.533005 L 5.863 45.395004 C 6.828 51.115005 10.6380005 51.779003 13.42 51.779003 C 15.6119995 51.779003 17.566 49.934002 19.136 48.450005 C 19.987 47.649006 20.786 46.894005 21.209 46.894005 L 40.833 46.894005 L 41.053 46.652004 C 41.474003 46.187004 42.453003 44.919003 42.475002 43.135006 L 42.475002 43.072006 C 42.454002 41.290005 41.474003 40.019005 41.053 39.556007 L 40.833 39.314007 L 21.209 39.314007 C 20.786 39.314007 19.984 38.559006 19.139 37.758007 C 17.567 36.272 15.614 34.429 13.42 34.429 z "/>
            <path fill="#6e8489" d="M 41.739 43.105 C 41.739 43.097 41.740997 43.086998 41.740997 43.082 L 41.736996 43.082 C 41.717995 41.533 40.831997 40.413002 40.505997 40.056 C 40.093 40.056 21.209997 40.056 21.209997 40.056 C 20.490997 40.056 19.713997 39.317 18.629997 38.299 C 17.156998 36.903 15.320997 35.169 13.420998 35.169 C 10.334997 35.169 7.4109974 36.078 6.5929976 40.938 C 7.7529974 40.938 13.321998 40.938 13.321998 40.938 L 14.516997 43.106 L 13.321998 45.27 C 13.321998 45.27 7.753998 45.27 6.5929976 45.27 C 7.4109974 50.129 10.332997 51.04 13.420998 51.04 C 15.320997 51.04 17.156998 49.305 18.629997 47.912003 C 19.713997 46.892002 20.492998 46.152004 21.209997 46.152004 C 21.209997 46.152004 40.092995 46.152004 40.505997 46.152004 C 40.831997 45.797005 41.718998 44.675003 41.736996 43.127003 L 41.740997 43.127003 C 41.741 43.119 41.739 43.11 41.739 43.105 z "/>
        </g>
    </g>
</svg>
