<?xml version="1.0" encoding="UTF-8"?>
<svg xmlns="http://www.w3.org/2000/svg" xmlns:xlink="http://www.w3.org/1999/xlink" contentScriptType="text/ecmascript" width="60" baseProfile="tiny" zoomAndPan="magnify" contentStyleType="text/css" viewBox="-0.557 -0.249 60 52" height="52" preserveAspectRatio="xMidYMid meet" version="1.1">
    <path fill="#ff5656" d="M 51.184 5.75 L 7.702 5.75 C 6.4570003 5.75 5.443 6.764 5.443 8.009 L 5.443 43.489 C 5.443 44.734997 6.457 45.75 7.702 45.75 L 51.183 45.75 C 52.428997 45.75 53.442997 44.735 53.442997 43.489 L 53.442997 8.009 C 53.443 6.764 52.43 5.75 51.184 5.75 z M 52.443 43.489 C 52.443 44.184 51.879 44.75 51.183 44.75 L 7.702 44.75 C 7.008001 44.75 6.4430003 44.185 6.4430003 43.489 L 6.4430003 8.009 C 6.4430003 7.315 7.007001 6.75 7.702 6.75 L 51.183 6.75 C 51.876 6.75 52.442997 7.314 52.442997 8.009 L 52.442997 43.489 z " fill-opacity="0.5" stroke-opacity="0.5"/>
    <g>
        <linearGradient x1="-665.183" gradientTransform="matrix(1 0 0 -1 694.626 1047.4707)" y1="997.1807" x2="-665.183" gradientUnits="userSpaceOnUse" y2="1042.3007" xlink:type="simple" xlink:actuate="onLoad" id="XMLID_2_" xlink:show="other">
            <stop stop-color="#c7d9d9" offset="0"/>
            <stop stop-color="#c7d9d9" offset="0.26"/>
            <stop stop-color="#ffffff" offset="0.72"/>
            <stop stop-color="#ffffff" offset="1"/>
        </linearGradient>
        <path fill="url(#XMLID_2_)" d="M 51.184 6.75 L 7.702 6.75 C 7.008001 6.75 6.4430003 7.314 6.4430003 8.009 L 6.4430003 43.489 C 6.4430003 44.184 7.007001 44.75 7.702 44.75 L 51.183 44.75 C 51.876 44.75 52.442997 44.185 52.442997 43.489 L 52.442997 8.009 C 52.443 7.314 51.879 6.75 51.184 6.75 z " fill-opacity="0.5"/>
    </g>
    <path fill="#f4b9ba" d="M 51.184 6.75 L 7.702 6.75 C 7.008001 6.75 6.4430003 7.314 6.4430003 8.009 L 6.4430003 43.489 C 6.4430003 44.184 7.007001 44.75 7.702 44.75 L 51.183 44.75 C 51.876 44.75 52.442997 44.185 52.442997 43.489 L 52.442997 8.009 C 52.443 7.314 51.879 6.75 51.184 6.75 z "/>
    <path fill="#ff5656" d="M 29.442 31.541 C 27.567 29.668 22.526 24.625 22.526 24.625 L 19.86 27.291 L 29.441998 36.875 L 39.025997 27.291 L 36.359997 24.625 C 36.36 24.625 31.317 29.668 29.442 31.541 z " fill-opacity="0.5" stroke-opacity="0.5"/>
    <path fill="#ff5656" d="M 29.442 21.541 C 27.567 19.668 22.526 14.625 22.526 14.625 L 19.86 17.291 L 29.441998 26.875 L 39.025997 17.291 L 36.359997 14.625 C 36.36 14.625 31.317 19.668 29.442 21.541 z " fill-opacity="0.5" stroke-opacity="0.5"/>
</svg>
