<?xml version="1.0" encoding="UTF-8"?>
<svg xmlns="http://www.w3.org/2000/svg" xmlns:xlink="http://www.w3.org/1999/xlink" contentScriptType="text/ecmascript" width="352" baseProfile="tiny" zoomAndPan="magnify" contentStyleType="text/css" viewBox="0 0 352 238" height="238" preserveAspectRatio="xMidYMid meet" version="1.1">
    <g>
        <g>
            <path d="M 23.0 0.0 L 22.0 0.0 C 22.0 0.0 22.0 8.623 22.0 10.111 C 16.777 10.382 11.895 12.467 8.183 16.175 C 4.196 20.16 2.0 25.46 2.0 31.1 L 2.0 210.875 C 2.0 221.751 10.875 232.0 22.847 232.0 C 23.5 232.0 324.89398 232.0 324.89398 232.0 C 338.738 232.0 350.0 220.732 350.0 206.885 L 350.0 31.1 C 350.0 25.461 347.802 20.161 343.811 16.174 C 339.818 12.186 334.51102 9.992 328.871 10.0 L 43.026 10.0 L 32.949 0.0 L 23.0 0.0 z " fill-opacity="0.01"/>
            <path d="M 23.0 1.0 C 23.0 1.0 23.0 9.404 23.0 11.01 C 17.67 11.0390005 12.661 13.115 8.89 16.883 C 5.092 20.678 3.0 25.727 3.0 31.1 L 3.0 210.875 C 3.0 221.625 11.875 231.0 22.898 231.0 C 26.125 231.0 324.894 231.0 324.894 231.0 C 338.188 231.0 349.0 220.182 349.0 206.885 L 349.0 31.1 C 349.0 25.729 346.906 20.68 343.104 16.881 C 339.299 13.082001 334.246 10.993 328.87302 11.0 L 42.614 11.0 L 32.537 1.0 L 23.0 1.0 z " fill-opacity="0.02"/>
            <path d="M 24.0 2.0 C 24.0 2.0 24.0 10.348 24.0 12.0 C 23.555 12.0 23.107 12.0 23.107 12.0 C 18.002 12.0 13.205 13.985 9.596001 17.59 C 5.988 21.197 4.0 25.994 4.0 31.1 L 4.0 210.875 C 4.0 221.0 12.25 230.0 22.949 230.0 C 23.5 230.0 324.893 230.0 324.893 230.0 C 337.633 230.0 347.99802 219.631 347.99802 206.885 L 347.99802 31.1 C 347.99802 25.996 346.00803 21.198 342.394 17.589 C 338.78 13.979001 333.976 11.994001 328.871 12.0 L 42.202 12.0 L 32.125 2.0 L 24.0 2.0 z " fill-opacity="0.03"/>
            <path d="M 25.0 3.0 C 25.0 3.0 25.0 11.319 25.0 13.0 C 24.144 13.0 23.107 13.0 23.107 13.0 C 18.269001 13.0 13.722 14.8810005 10.303 18.298 C 6.884 21.715 5.0 26.262 5.0 31.1 L 5.0 210.875 C 5.0 220.205 12.5 229.0 23.125 228.996 C 23.75 228.996 324.895 229.0 324.895 229.0 C 337.08398 229.0 347.0 219.079 347.0 206.885 L 347.0 31.1 C 347.0 26.264 345.114 21.717 341.689 18.297 C 338.262 14.875001 333.711 12.994001 328.873 13.000001 L 41.789 13.000001 L 31.75 3.0 L 25.0 3.0 z " fill-opacity="0.06"/>
            <path d="M 328.875 14.0 L 41.375 14.0 L 31.375 4.0 L 26.0 4.0 L 26.0 14.0 L 23.230999 14.0 C 13.783 14.0 6.0 21.647 6.0 31.1 L 6.002 210.875 C 6.002 219.734 13.375 228.0 23.125 228.0 L 323.9 228.0 L 324.893 228.0 C 336.532 228.0 345.99802 218.52701 345.99802 206.885 L 345.99802 31.1 C 346.0 21.647 338.322 13.988 328.875 14.0 z " fill-opacity="0.05"/>
            <path d="M 328.25 15.0 L 41.0 15.0 L 31.0 5.0 L 27.0 5.0 L 27.0 15.0 L 23.230999 15.0 C 13.783 15.0 7.0 21.647 7.0 31.1 L 7.001 209.875 C 7.0 219.0 13.5 227.0 24.079 226.998 L 324.895 227.0 C 335.98 227.0 345.0 217.977 345.0 206.885 L 345.0 31.1 C 345.0 21.647 337.25 15.0 328.25 15.0 z " fill-opacity="0.1"/>
            <path d="M 327.25 16.0 L 40.625 16.0 L 30.625 6.0 L 28.0 6.0 L 28.0 16.0 L 23.230999 16.0 C 13.783 16.0 8.0 21.647 8.0 31.1 L 8.001 208.875 C 8.0 217.875 13.125 226.0 25.107 226.0 C 25.625 226.0 324.89398 226.0 324.89398 226.0 C 335.43 226.0 344.0 217.425 344.0 206.885 L 344.0 31.1 C 344.0 21.647 336.25 16.0 327.25 16.0 z " fill-opacity="0.1"/>
            <path d="M 326.375 17.0 L 40.125 17.0 L 30.125 7.0 L 29.0 7.0 L 29.0 17.0 L 24.25 17.0 C 14.802 17.0 9.0 21.647 9.0 31.1 L 9.001 207.88501 C 9.0 216.75 12.875 225.0 26.125 225.0 L 324.895 225.0 C 334.878 225.0 343.0 216.873 343.0 206.885 L 343.0 31.1 C 343.0 21.647 335.0 17.0 326.375 17.0 z " fill-opacity="0.1"/>
            <linearGradient x1="173.9995" y1="15.5" x2="173.9995" gradientUnits="userSpaceOnUse" y2="354.5" xlink:type="simple" xlink:actuate="onLoad" id="XMLID_4_" xlink:show="other">
                <stop stop-color="#ffffff" offset="0"/>
                <stop stop-color="#ffe7e6" offset="1"/>
            </linearGradient>
            <path fill="url(#XMLID_4_)" d="M 324.895 14.0 L 40.0 14.0 L 27.999 2.0 L 26.0 2.0 L 26.0 14.0 L 23.105999 14.0 C 13.658 14.0 6.0 21.647 6.0 31.1 L 6.0 206.88501 C 6.0 216.335 13.658 224.0 23.106 224.0 L 324.89398 224.0 C 334.34097 224.0 341.999 216.335 341.999 206.885 L 341.999 31.1 C 342.0 21.647 334.342 13.988 324.895 14.0 z "/>
            <rect width="352" fill="none" height="238"/>
        </g>
    </g>
</svg>
