<?xml version="1.0" encoding="UTF-8"?>
<svg xmlns="http://www.w3.org/2000/svg" xmlns:xlink="http://www.w3.org/1999/xlink" contentScriptType="text/ecmascript" width="54" baseProfile="tiny" zoomAndPan="magnify" contentStyleType="text/css" viewBox="-2.22 -5.255 54 54" height="54" preserveAspectRatio="xMidYMid meet" version="1.1">
    <rect x="-2.22" width="54" fill="none" y="-5.255" height="54"/>
    <linearGradient x1="25.1613" y1="-9.1046" x2="24.7053" gradientUnits="userSpaceOnUse" y2="47.5634" xlink:type="simple" xlink:actuate="onLoad" id="XMLID_6_" xlink:show="other">
        <stop stop-color="#ffffcf" offset="0"/>
        <stop stop-color="#f0de80" offset="0.11"/>
        <stop stop-color="#c26e54" offset="0.35"/>
        <stop stop-color="#b0361a" offset="0.48"/>
        <stop stop-color="#ad2621" offset="0.6629"/>
        <stop stop-color="#9c0a00" offset="0.75"/>
        <stop stop-color="#991712" offset="0.82"/>
        <stop stop-color="#8a0000" offset="0.91"/>
        <stop stop-color="#730303" offset="0.99"/>
        <stop stop-color="#730303" offset="1"/>
    </linearGradient>
    <path fill="url(#XMLID_6_)" d="M 34.364 23.867 L 25.464 23.867 L 25.464 20.4 L 34.716 20.4 L 39.94 15.178 L 37.328 15.178 L 29.493 7.34 L 29.493 4.729 L 26.882 4.729 L 26.882 7.34 L 25.464 8.76 L 25.464 5.435 L 18.658 5.435 L 18.658 9.162 L 13.872002 9.162 L 13.872002 1.5919995 L 42.726 1.5919995 L 42.726 18.804998 L 44.423 18.804998 L 44.423 0.0 L 12.173 0.0 L 12.173 9.161 L 6.851 9.161 L 6.851 5.435 L 0.0 5.435 L 0.0 35.246 L 6.851 35.246 L 6.851 30.897003 L 18.658 30.897003 L 18.658 35.246 L 25.463 35.246 L 25.463 25.46 L 33.328003 25.46 L 34.364 23.867 z M 29.493 9.951 L 34.716 15.179001 L 29.493 15.179001 L 29.493 9.951 z M 25.464 11.369 L 26.882 9.952001 L 26.882 15.179001 L 25.464 15.179001 L 25.464 11.369 z M 4.968 32.14 L 1.863 32.14 L 1.863 27.793 L 4.967 27.793 L 4.968 32.14 L 4.968 32.14 z M 4.968 25.309 L 1.863 25.309 L 1.863 20.96 L 4.967 20.96 L 4.968 25.309 L 4.968 25.309 z M 4.968 18.477 L 1.863 18.477 L 1.863 14.129 L 4.967 14.129 L 4.968 18.477 L 4.968 18.477 z M 4.968 12.266 L 1.863 12.266 L 1.863 7.919 L 4.967 7.919 L 4.968 12.266 L 4.968 12.266 z M 18.632 26.55 L 6.846 26.55 L 6.846 13.508 L 18.632 13.508 L 18.632 26.55 z M 23.6 32.14 L 20.496 32.14 L 20.496 27.793 L 23.6 27.793 L 23.6 32.14 z M 23.6 25.309 L 20.496 25.309 L 20.496 20.96 L 23.6 20.96 L 23.6 25.309 z M 23.6 18.477 L 20.496 18.477 L 20.496 14.129 L 23.6 14.129 L 23.6 18.477 z M 23.6 12.266 L 20.496 12.266 L 20.496 7.919 L 23.6 7.919 L 23.6 12.266 z M 48.616 24.651 L 44.22 20.804 L 38.749 20.804 L 29.659 34.751 L 30.349 45.744 L 40.092003 43.672 L 49.890003 29.829 L 48.616 24.651 z M 44.374 23.214 L 46.624 24.859 L 38.857 35.967003 L 36.947 34.445004 L 44.374 23.214 z M 40.132 22.442 L 42.851 22.485 L 35.367 33.621 L 32.359 33.951 L 40.132 22.442 z M 34.624 43.073 C 34.548 41.594 33.013 40.346 31.618 40.711 C 31.603 40.715004 31.595 40.730003 31.583 40.732 L 31.404 35.974003 L 34.847 35.552 L 38.291 38.232 L 39.172 41.886 C 39.175 41.888 34.624 43.089 34.624 43.073 z M 40.62 40.097 L 39.891 37.299 L 47.374 26.484 L 48.134 29.409 L 40.62 40.097 z "/>
</svg>
