<?xml version="1.0" encoding="UTF-8"?>
<svg xmlns="http://www.w3.org/2000/svg" xmlns:xlink="http://www.w3.org/1999/xlink" contentScriptType="text/ecmascript" zoomAndPan="magnify" baseProfile="tiny" contentStyleType="text/css" version="1.1" width="84px" preserveAspectRatio="xMidYMid meet" viewBox="0 0 84 72" height="72px" x="0px" y="0px">
    <g>
        <path fill="#7f3c21" d="M 54.63 10.799 C 46.581 10.580999 38.886 15.575 34.701 20.166 L 35.18 21.21 L 35.686 20.709002 L 37.711 22.827002 L 36.477 24.032 L 36.997 25.161 L 49.281 25.7 L 54.117996 35.128 L 55.727997 33.642 L 57.840996 35.704 L 56.963997 36.506 L 59.943996 37.178 C 65.473 31.741 69.253 29.379002 79.561 28.986 L 54.63 10.799 z "/>
        <path fill="#7f3c21" d="M 49.82 40.956 L 44.421 30.291 L 32.405 29.615 L 30.398 24.379 C 24.238 30.263 18.063 36.374 6.754999 36.497 L 22.8 62.736 C 39.605 61.97 46.212 50.781 55.087 42.058 L 49.82 40.956 z "/>
        <linearGradient x1="-85.8809" gradientTransform="matrix(1 0 0 -1 102.52 -50.0195)" y1="-101.0083" x2="-47.5009" gradientUnits="userSpaceOnUse" y2="-76.6483" xlink:type="simple" xlink:actuate="onLoad" id="SVGID_1_" xlink:show="other">
            <stop stop-color="#f1de84" offset="0"/>
            <stop stop-color="#cd9f3d" offset="1"/>
        </linearGradient>
        <path fill="url(#SVGID_1_)" d="M 9.986 41.873 L 19.561 57.684 C 26.952 57.780003 35.807 53.411003 41.257 47.428 L 29.497 33.443 C 21.683 41.251 13.332 41.988 9.986 41.873 z "/>
        <polygon fill="#eacf5a" points="7.682,38.154 10.162,38.094 11.64,40.582 9.354,40.855  "/>
        <polygon fill="#eacf5a" points="12.751,37.688 14.415,40.236 17.059,39.594 15.354,37.09  "/>
        <polygon fill="#eacf5a" points="17.555,36.293 19.299,38.805 21.6,37.721 19.8,35.264  "/>
        <polygon fill="#eacf5a" points="21.674,34.161 23.505,36.564 25.51,35.186 23.611,32.787  "/>
        <polygon fill="#eacf5a" points="25.319,31.506 27.214,33.817 29.022,32.18 27.074,29.902  "/>
        <polygon fill="#eacf5a" points="28.622,28.442 30.614,30.73 32.302,28.974 30.335,26.799  "/>
        <polygon fill="#eacf5a" points="20.27,58.752 23.061,58.521 24.675,61.145 21.813,61.357  "/>
        <polygon fill="#eacf5a" points="26.042,58.036 27.71,60.622 30.821,59.725 29.067,57.172  "/>
        <polygon fill="#eacf5a" points="31.593,56.201 34.187,54.852 36.054,57.326 33.382,58.704  "/>
        <polygon fill="#eacf5a" points="36.37,53.479 38.228,55.925 40.524,54.168 38.638,51.768  "/>
        <polygon fill="#eacf5a" points="40.55,50.086 42.479,52.457 44.516,50.467 42.563,48.176  "/>
        <polygon fill="#eacf5a" points="44.361,46.335 46.359,48.613 48.295,46.493 46.266,44.294  "/>
        <polygon fill="#eacf5a" points="48.036,42.438 50.063,44.613 52.004,42.49 49.938,40.37  "/>
        <path fill="#3e2a08" d="M 22.948 62.505 L 21.996 65.561005 C 40.287 65.085 47.34 51.68 57.063 42.544 C 56.298 42.374 55.54 42.185997 54.784 41.976997 C 45.887 50.707 38.349 61.924 22.948 62.505 z "/>
        <polygon fill="#3e2a08" points="22.948,62.505 6.756,36.497 6.699,39.605 21.996,65.561  "/>
        <polygon fill="#eacf5a" points="22.258,61.371 21.377,64.553 19.882,62.021 20.621,58.704  "/>
        <polygon fill="#eacf5a" points="9.494,40.824 9.148,43.736 7.539,41.038 7.779,38.156  "/>
        <polygon fill="#eacf5a" points="55.729,33.642 54.117,35.128 54.546,35.961 56.965,36.505 57.843,35.703  "/>
        <polygon fill="#3e2a08" points="30.398,24.379 32.979,24.721 35.376,29.886 32.405,29.615  "/>
        <polygon fill="#3e2a08" points="44.421,30.291 47.661,30.796 53.195,41.631 49.82,40.956  "/>
        <linearGradient x1="-46.4907" gradientTransform="matrix(1 0 0 -1 102.52 -50.0195)" y1="-71.8394" x2="-67.3307" gradientUnits="userSpaceOnUse" y2="-85.7294" xlink:type="simple" xlink:actuate="onLoad" id="SVGID_2_" xlink:show="other">
            <stop stop-color="#f1de84" offset="0"/>
            <stop stop-color="#cd9f3d" offset="1"/>
        </linearGradient>
        <path fill="url(#SVGID_2_)" d="M 50.766 16.385 C 46.159 16.261 36.995 25.161 36.995 25.161 L 49.281 25.7 L 53.558 33.941 C 55.379 31.510002 60.417 27.757002 64.162994 26.846004 L 50.766 16.385 z "/>
        <linearGradient x1="53.5869" y1="20.1533" x2="74.0879" gradientUnits="userSpaceOnUse" y2="20.1533" xlink:type="simple" xlink:actuate="onLoad" id="SVGID_3_" xlink:show="other">
            <stop stop-color="#f1de84" offset="0"/>
            <stop stop-color="#cd9f3d" offset="1"/>
        </linearGradient>
        <path fill="url(#SVGID_3_)" d="M 59.55 14.389 C 58.798 14.243 53.587 14.971 53.587 14.971 L 67.305 25.937 C 71.145 24.824 74.088 24.924 74.088 24.924 L 59.55 14.389 z "/>
        <path fill="#3e2a08" d="M 79.547 28.95 C 69.564995 28.608002 65.917 31.316 59.945 37.178 L 62.916 37.178 C 68.025 32.375 70.247 31.353 78.85 31.408 L 79.547 28.95 z "/>
        <polygon fill="#eacf5a" points="37.034,19.186 39.091,21.258 40.944,19.716 38.789,17.663  "/>
        <polygon fill="#eacf5a" points="40.544,16.392 42.712,18.377 44.704,17.034 42.577,15.082  "/>
        <polygon fill="#eacf5a" points="44.553,14.056 46.695,15.93 49.085,14.966 46.87,13.103  "/>
        <polygon fill="#eacf5a" points="49.042,12.442 51.322,14.214 54.158,13.71 51.82,11.906  "/>
        <polygon fill="#eacf5a" points="54.264,11.671 56.646,13.473 58.154,13.353 55.656,11.541  "/>
        <polygon fill="#eacf5a" points="57.686,32.047 59.878,34.033 62.195,32.375 59.98,30.428  "/>
        <polygon fill="#eacf5a" points="62.268,29.129 64.509,31.027 67.184,29.741 64.91,27.871  "/>
        <polygon fill="#eacf5a" points="67.521,26.971 69.88,28.806 73.068,28.08 70.715,26.264  "/>
        <polygon fill="#eacf5a" points="73.844,25.903 76.275,27.671 77.73,27.649 75.247,25.838  "/>
        <polygon fill="#eacf5a" points="35.687,20.709 35.181,21.21 36.478,24.032 37.712,22.827  "/>
        <linearGradient x1="-54.2119" gradientTransform="matrix(1 0 0 -1 102.52 -50.0195)" y1="-80.228" x2="-73.3203" gradientUnits="userSpaceOnUse" y2="-94.4069" xlink:type="simple" xlink:actuate="onLoad" id="SVGID_4_" xlink:show="other">
            <stop stop-color="#f1de84" offset="0"/>
            <stop stop-color="#cd9f3d" offset="1"/>
        </linearGradient>
        <path fill="url(#SVGID_4_)" d="M 42.986 45.809 C 45.212 43.282 47.185 41.200996 48.97 39.456997 L 44.328003 30.290997 L 33.327003 29.672997 C 32.497 30.531996 31.720003 31.355995 30.983004 32.110996 L 42.986 45.809 z "/>
    </g>
</svg>
