<?xml version="1.0" encoding="UTF-8"?>
<svg xmlns="http://www.w3.org/2000/svg" xmlns:xlink="http://www.w3.org/1999/xlink" contentScriptType="text/ecmascript" width="42" baseProfile="tiny" zoomAndPan="magnify" contentStyleType="text/css" viewBox="0.019 -0.113 42 29" height="29" preserveAspectRatio="xMidYMid meet" version="1.1">
    <rect x="0.019" width="42" fill="none" y="-0.113" height="29"/>
    <linearGradient x1="3.2031" gradientTransform="matrix(1 0 0 -1 0.1377 27.608)" y1="25.0296" x2="33.4631" gradientUnits="userSpaceOnUse" y2="8.2696" xlink:type="simple" xlink:actuate="onLoad" id="XMLID_98_" xlink:show="other">
        <stop stop-color="#ffffff" offset="0"/>
        <stop stop-color="#e4edf5" offset="0.08"/>
        <stop stop-color="#b4cee4" offset="0.24"/>
        <stop stop-color="#a2c2dd" offset="0.31"/>
        <stop stop-color="#8eabd1" offset="0.45"/>
        <stop stop-color="#6c83bb" offset="0.66"/>
        <stop stop-color="#637db5" offset="0.7"/>
        <stop stop-color="#4c6ea4" offset="0.78"/>
        <stop stop-color="#265689" offset="0.87"/>
        <stop stop-color="#003d6d" offset="0.95"/>
        <stop stop-color="#003d6d" offset="1"/>
    </linearGradient>
    <polygon fill="url(#XMLID_98_)" points="29.071,15.842 29.091,15.291 28.471,15.105 29.063,14.639 29.253,10.721 28.653,10.551   29.253,10.096 29.44,6.202 25.826,5.279 25.277,5.629 25.3,5.089 21.628,4.219 20.985,4.605 21.001,4.055 17.655,3.211   15.382,4.287 15.456,8.061 16.122,8.254 15.464,8.627 15.541,12.4 16.203,12.608 15.551,12.972 15.626,16.742 19.106,17.926   19.747,17.412 19.749,18.041 20.444,18.285 19.753,18.67 19.764,22.506 23.134,23.783 24.594,22.448 24.599,24.263 30.185,26.377   33.688,23.24 33.794,17.477 "/>
    <path fill="#ffffff" d="M 30.095 26.609 L 24.509 24.497 C 24.411 24.46 24.349998 24.368 24.349998 24.265 L 24.349998 24.265 L 24.345 23.013 L 23.302 23.965998 C 23.232 24.030998 23.134 24.049995 23.044 24.017998 L 23.044 24.017998 L 19.673 22.741997 C 19.578 22.704996 19.513 22.612995 19.513 22.509996 L 19.513 22.509996 L 19.503 18.671995 C 19.501 18.579998 19.551 18.495996 19.631 18.452995 L 19.631 18.452995 L 19.836 18.337996 L 19.664 18.276997 C 19.565 18.241997 19.498 18.146996 19.498 18.042995 L 19.498 18.042995 L 19.495998 17.934998 L 19.259998 18.122995 C 19.193998 18.177998 19.104998 18.191998 19.026 18.165997 L 19.026 18.165997 L 15.546 16.980995 C 15.445999 16.946997 15.377999 16.853996 15.375999 16.751997 L 15.375999 16.751997 L 15.301999 12.980997 C 15.299999 12.886997 15.347999 12.802997 15.428999 12.755997 L 15.428999 12.755997 L 15.574999 12.674996 L 15.466999 12.642997 C 15.364999 12.608996 15.293999 12.515997 15.291999 12.408997 L 15.291999 12.408997 L 15.214999 8.637997 C 15.212999 8.543997 15.261999 8.459996 15.341 8.412996 L 15.341 8.412996 L 15.485 8.331996 L 15.387 8.305996 C 15.283 8.273996 15.209 8.180996 15.207 8.071996 L 15.207 8.071996 L 15.132999 4.298996 C 15.131 4.198996 15.188 4.108996 15.275999 4.066996 L 15.275999 4.066996 L 17.547 2.991996 L 17.717 2.9739962 L 21.065 3.818996 C 21.178 3.847996 21.256 3.949996 21.252998 4.0689964 L 21.252998 4.0689964 L 21.25 4.159 L 21.501 4.009 L 21.688 3.98 L 25.362 4.85 C 25.477 4.878 25.558 4.9839997 25.552 5.105 L 25.552 5.105 L 25.546 5.16 L 25.691 5.068 L 25.888 5.0369997 L 29.503 5.9589996 C 29.616 5.9869995 29.693 6.094 29.691 6.2139997 L 29.691 6.2139997 L 29.503 10.108 L 29.404 10.296 L 29.204 10.447 L 29.321 10.478999 C 29.432 10.511999 29.509 10.616999 29.502998 10.731999 L 29.502998 10.731999 L 29.312998 14.648999 L 29.218 14.836 L 29.002998 15.004 L 29.162998 15.052 C 29.270998 15.084 29.344995 15.189 29.340998 15.302 L 29.340998 15.302 L 29.326998 15.666 L 33.873997 17.24 C 33.977997 17.273 34.043995 17.373 34.043995 17.48 L 34.043995 17.48 L 33.937996 23.244 L 33.854996 23.427 L 30.349997 26.564 C 30.303995 26.606 30.245996 26.627 30.184994 26.627 L 30.184994 26.627 C 30.155 26.627 30.124 26.621 30.095 26.609 L 30.095 26.609 z "/>
    <polygon fill="#3e2a08" points="23.19,19.879 24.957,18.697 24.892,22.176 23.134,23.783 "/>
    <polygon fill="#cd9f3d" points="19.753,18.67 21.72,17.578 24.957,18.697 23.19,19.879 "/>
    <polygon fill="#eacf5a" points="23.19,19.879 23.134,23.783 19.764,22.506 19.753,18.67 "/>
    <polygon fill="#3e2a08" points="19.095,14.089 20.885,12.891 20.862,16.521 19.106,17.926 "/>
    <polygon fill="#cd9f3d" points="15.551,12.972 17.55,11.858 20.885,12.891 19.095,14.089 "/>
    <polygon fill="#eacf5a" points="19.095,14.089 19.106,17.926 15.626,16.742 15.551,12.972 "/>
    <polygon fill="#3e2a08" points="23.246,15.346 25.046,14.129 24.96,17.821 23.187,19.252 "/>
    <polygon fill="#cd9f3d" points="19.739,14.203 21.748,13.072 25.046,14.129 23.246,15.346 "/>
    <polygon fill="#eacf5a" points="23.246,15.346 23.187,19.252 19.749,18.041 19.739,14.203 "/>
    <polygon fill="#3e2a08" points="27.278,16.627 29.091,15.291 28.957,19.047 27.15,20.6 "/>
    <polygon fill="#cd9f3d" points="23.817,15.461 25.835,14.315 29.091,15.291 27.278,16.627 "/>
    <polygon fill="#eacf5a" points="27.278,16.627 27.15,20.6 23.759,19.367 23.817,15.461 "/>
    <polygon fill="#3e2a08" points="19.075,9.677 20.901,8.444 20.877,12.075 19.085,13.516 "/>
    <polygon fill="#cd9f3d" points="15.464,8.627 17.501,7.475 20.901,8.444 19.075,9.677 "/>
    <polygon fill="#eacf5a" points="19.075,9.677 19.085,13.516 15.541,12.4 15.464,8.627 "/>
    <polygon fill="#3e2a08" points="23.302,10.859 25.14,9.608 25.05,13.303 23.244,14.766 "/>
    <polygon fill="#cd9f3d" points="19.728,9.785 21.774,8.615 25.14,9.608 23.302,10.859 "/>
    <polygon fill="#eacf5a" points="23.302,10.859 23.244,14.766 19.737,13.623 19.728,9.785 "/>
    <polygon fill="#3e2a08" points="27.415,12.066 29.253,10.721 29.063,14.639 27.287,16.039 "/>
    <polygon fill="#cd9f3d" points="23.882,10.967 25.939,9.781 29.253,10.721 27.415,12.066 "/>
    <polygon fill="#eacf5a" points="27.415,12.066 27.287,16.039 23.824,14.873 23.882,10.967 "/>
    <polygon fill="#3e2a08" points="19.058,5.271 21.001,4.055 20.894,7.635 19.067,9.111 "/>
    <polygon fill="#cd9f3d" points="15.382,4.287 17.655,3.211 21.001,4.055 19.058,5.271 "/>
    <polygon fill="#eacf5a" points="19.058,5.271 19.067,9.111 15.456,8.061 15.382,4.287 "/>
    <polygon fill="#3e2a08" points="23.359,6.378 25.3,5.089 25.144,8.787 23.298,10.285 "/>
    <polygon fill="#cd9f3d" points="19.718,5.369 21.628,4.219 25.3,5.089 23.359,6.378 "/>
    <polygon fill="#eacf5a" points="23.359,6.378 23.298,10.285 19.726,9.21 19.718,5.369 "/>
    <polygon fill="#3e2a08" points="27.552,7.508 29.44,6.202 29.253,10.096 27.421,11.484 "/>
    <polygon fill="#cd9f3d" points="23.949,6.476 25.826,5.279 29.44,6.202 27.552,7.508 "/>
    <polygon fill="#eacf5a" points="27.552,7.508 27.421,11.484 23.89,10.385 23.949,6.476 "/>
    <linearGradient x1="30.185" y1="21.927" x2="33.7944" gradientUnits="userSpaceOnUse" y2="21.927" xlink:type="simple" xlink:actuate="onLoad" id="XMLID_99_" xlink:show="other">
        <stop stop-color="#7f3c21" offset="0"/>
        <stop stop-color="#670000" offset="1"/>
    </linearGradient>
    <polygon fill="url(#XMLID_99_)" points="30.277,19.907 33.794,17.477 33.688,23.24 30.185,26.377 "/>
    <linearGradient x1="21.1626" gradientTransform="matrix(1 0 0 -1 0.1377 27.608)" y1="8.9471" x2="33.9212" gradientUnits="userSpaceOnUse" y2="10.3669" xlink:type="simple" xlink:actuate="onLoad" id="XMLID_100_" xlink:show="other">
        <stop stop-color="#ffffff" offset="0"/>
        <stop stop-color="#b0381e" offset="1"/>
    </linearGradient>
    <polygon fill="url(#XMLID_100_)" points="24.582,17.902 28.431,15.621 33.794,17.477 30.277,19.907 "/>
    <polygon fill="#b0381e" points="30.277,19.907 30.185,26.377 24.599,24.263 24.582,17.902 "/>
    <linearGradient x1="23.351" gradientTransform="matrix(1 0 0 -1 0.1377 27.608)" y1="0.701" x2="29.3999" gradientUnits="userSpaceOnUse" y2="3.8703" xlink:type="simple" xlink:actuate="onLoad" id="XMLID_101_" xlink:show="other">
        <stop stop-color="#ffffff" offset="0"/>
        <stop stop-color="#e0c4bd" offset="0.11"/>
        <stop stop-color="#c26e45" offset="0.35"/>
        <stop stop-color="#cf4530" offset="0.48"/>
        <stop stop-color="#ad0000" offset="0.7"/>
        <stop stop-color="#9c0000" offset="0.75"/>
        <stop stop-color="#990000" offset="0.82"/>
        <stop stop-color="#8a0000" offset="0.91"/>
        <stop stop-color="#730303" offset="0.99"/>
        <stop stop-color="#730303" offset="1"/>
    </linearGradient>
    <polygon fill="url(#XMLID_101_)" points="28.69,21.281 30.162,26.313 24.628,24.246 "/>
    <linearGradient x1="36.3716" gradientTransform="matrix(1 0 0 -1 0.1377 27.608)" y1="1.2991" x2="29.7025" gradientUnits="userSpaceOnUse" y2="3.8288" xlink:type="simple" xlink:actuate="onLoad" id="XMLID_102_" xlink:show="other">
        <stop stop-color="#822519" offset="0"/>
        <stop stop-color="#670000" offset="1"/>
    </linearGradient>
    <polygon fill="url(#XMLID_102_)" points="30.321,21.715 30.274,26.189 33.554,23.213 "/>
    <path fill="#ffffff" d="M 6.63 17.088 C 5.191 17.088 3.2180002 17.43 2.7180002 20.383 L 2.644 20.83 C 2.644 20.83 5.961 20.83 6.355 20.83 C 6.472 21.043 6.651 21.362 6.763 21.567 C 6.65 21.77 6.472 22.089 6.355 22.303 C 5.961 22.303 2.644 22.303 2.644 22.303 L 2.718 22.747 C 3.218 25.702 5.191 26.042 6.63 26.042 C 7.765 26.042 8.776 25.094 9.589001 24.325 C 10.028001 23.911 10.443001 23.52 10.662001 23.52 L 20.821 23.52 L 20.933 23.395 C 21.153 23.157 21.658 22.5 21.667 21.581 L 21.667 21.551 C 21.657 20.628 21.151 19.975 20.933 19.735 L 20.821 19.61 L 10.662 19.61 C 10.441999 19.61 10.028 19.221 9.59 18.807 C 8.776 18.041 7.765 17.088 6.63 17.088 z "/>
    <path fill="#6e8489" d="M 21.289 21.566 C 21.289 21.562 21.291 21.558 21.291 21.556 L 21.288 21.556 C 21.278 20.752 20.82 20.174 20.653 19.993 C 20.438 19.993 10.663 19.993 10.663 19.993 C 10.291 19.993 9.887 19.611 9.326 19.087 C 8.565001 18.368 7.613 17.472 6.629 17.472 C 5.031 17.472 3.5190003 17.941 3.0950005 20.449 C 3.6960003 20.449 6.578 20.449 6.578 20.449 L 7.197 21.568 L 6.578 22.686998 C 6.578 22.686998 3.695 22.686998 3.095 22.686998 C 3.52 25.194998 5.032 25.663998 6.6289997 25.663998 C 7.613 25.663998 8.563999 24.768995 9.326 24.050997 C 9.887 23.524998 10.291 23.143995 10.663 23.143995 C 10.663 23.143995 20.438 23.143995 20.653 23.143995 C 20.821 22.958998 21.28 22.380997 21.288 21.580996 L 21.291 21.580996 C 21.291 21.574 21.289 21.57 21.289 21.566 z "/>
</svg>
