<?xml version="1.0" encoding="UTF-8"?>
<svg xmlns="http://www.w3.org/2000/svg" xmlns:xlink="http://www.w3.org/1999/xlink" contentScriptType="text/ecmascript" width="84" baseProfile="tiny" zoomAndPan="magnify" contentStyleType="text/css" viewBox="0 0 84 58" height="58" preserveAspectRatio="xMidYMid meet" version="1.1">
    <g>
        <g>
            <rect width="84" fill="none" height="58"/>
        </g>
    </g>
    <g>
        <path fill="#ffffff" d="M 58.47 47.926 C 60.255 40.408997 62.572002 24.621998 61.31 14.684998 C 60.100002 12.842998 55.608 10.953998 55.608 10.953998 L 56.553 6.2219977 C 56.765003 3.1749978 50.088 3.1239977 50.192 5.6439977 L 50.379 9.588998 C 47.066 9.1659975 39.920002 9.692998 34.089 12.319998 C 33.246002 26.191998 34.402 35.445 36.032 46.689995 C 43.283 54.310993 51.743004 53.629993 51.743004 53.629993 C 54.634 52.368 57.262 49.473 58.47 47.926 z "/>
        <g>
            <path fill="#704d18" d="M 38.266 12.976 C 41.219997 11.915 45.48 10.985 46.472 11.013 C 49.993 10.884 55.921 11.386 59.746002 15.230999 L 54.589 17.633 C 52.185 14.998 43.664 11.906 38.266 12.976 z "/>
            <linearGradient x1="-424.1875" gradientTransform="matrix(2.5 0 0 2.5 1118 -327.7734)" y1="138.0527" x2="-424.8043" gradientUnits="userSpaceOnUse" y2="147.3425" xlink:type="simple" xlink:actuate="onLoad" id="XMLID_16_" xlink:show="other">
                <stop stop-color="#8e6f3a" offset="0"/>
                <stop stop-color="#704d18" offset="1"/>
            </linearGradient>
            <path fill="url(#XMLID_16_)" d="M 54.589 17.637 C 54.455 25.417 53.871002 38.878 53.114002 49.756996 C 54.072002 49.319996 54.938004 49.019997 55.641003 48.451996 C 56.709003 47.588997 57.389004 46.506996 57.389004 46.506996 C 58.819004 40.219997 60.662003 24.409996 59.736004 15.185997 L 54.589 17.637 z "/>
            <linearGradient x1="-429.4565" gradientTransform="matrix(2.5 0 0 2.5 1118 -327.7734)" y1="136.2041" x2="-426.634" gradientUnits="userSpaceOnUse" y2="137.2671" xlink:type="simple" xlink:actuate="onLoad" id="XMLID_17_" xlink:show="other">
                <stop stop-color="#f1de84" offset="0"/>
                <stop stop-color="#cd9f3d" offset="1"/>
            </linearGradient>
            <path fill="url(#XMLID_17_)" d="M 35.48 13.1 C 38.596 11.985001 43.092 10.999001 44.133 11.027 C 47.85 10.901 53.652 11.269 58.135 15.43 L 52.699997 18.015 C 50.167 15.236 41.174 11.971 35.48 13.1 z "/>
            <path fill="#cd9f3d" d="M 52.7 18.016 C 52.558002 26.226002 52.295002 40.308 51.496002 51.787003 C 54.043003 50.611004 55.639004 48.450005 55.639004 48.450005 C 57.141003 41.816006 59.106003 25.166004 58.134003 15.435005 L 52.7 18.016 z "/>
            <linearGradient x1="-426.9419" gradientTransform="matrix(2.5 0 0 2.5 1118 -327.7734)" y1="136.9219" x2="-425.1392" gradientUnits="userSpaceOnUse" y2="136.9219" xlink:type="simple" xlink:actuate="onLoad" id="XMLID_18_" xlink:show="other">
                <stop stop-color="#cd9f3d" offset="0"/>
                <stop stop-color="#8e6f3a" offset="1"/>
            </linearGradient>
            <path fill="url(#XMLID_18_)" d="M 55.142 14.31 C 55.257 15.042001 54.297997 15.596001 53.023 15.652 C 51.742 15.713 50.625 15.276 50.646 14.402 C 50.659 13.843 51.488 13.464001 52.764 13.408 C 54.043 13.351 55.051 13.764 55.142 14.31 z "/>
            <linearGradient x1="-426.3613" gradientTransform="matrix(2.5 0 0 2.5 1118 -327.7734)" y1="135.2803" x2="-425.3522" gradientUnits="userSpaceOnUse" y2="135.2803" xlink:type="simple" xlink:actuate="onLoad" id="XMLID_19_" xlink:show="other">
                <stop stop-color="#c4a64a" offset="0"/>
                <stop stop-color="#c1a15b" offset="1"/>
            </linearGradient>
            <path fill="url(#XMLID_19_)" d="M 51.306 5.846 L 51.576 14.5060005 C 51.867 15.123 53.891 15.249001 54.202 14.431001 L 55.442 6.156001 C 54.672 7.187 51.528 6.559 51.306 5.846 z "/>
            <path fill="#8e6f3a" d="M 35.48 13.1 C 39.207 11.884001 47.111 12.894 52.699997 18.016 C 53.355995 27.194 52.824997 43.143 51.496 51.787003 C 46.984997 51.901 40.619 48.869003 37.253998 45.946003 C 36.15 38.234 34.781 22.332 35.48 13.1 z "/>
            <linearGradient x1="-434.1777" gradientTransform="matrix(2.5 0 0 2.5 1118 -327.7734)" y1="138.4521" x2="-428.8512" gradientUnits="userSpaceOnUse" y2="142.3526" xlink:type="simple" xlink:actuate="onLoad" id="XMLID_20_" xlink:show="other">
                <stop stop-color="#ffffff" offset="0"/>
                <stop stop-color="#c1a15b" offset="1"/>
            </linearGradient>
            <polygon fill="url(#XMLID_20_)" points="37.338,15.327 37.912,34.793 50.378,39.383 50.789,19.194   "/>
            <polygon fill="#3e2a08" points="39.305,33.952 38.946,15.788 37.338,15.327 37.912,34.793   "/>
            <polygon fill="#704d18" points="37.912,34.793 39.305,33.952 50.423,37.798 50.378,39.383   "/>
            <g>
                <linearGradient x1="-421.7334" gradientTransform="matrix(2.5245 -0.049 0.0123 2.4755 1102.887 -299.4133)" y1="127.2295" x2="-415.5377" gradientUnits="userSpaceOnUse" y2="133.3652" xlink:type="simple" xlink:actuate="onLoad" id="XMLID_21_" xlink:show="other">
                    <stop stop-color="#f1de84" offset="0"/>
                    <stop stop-color="#b0381e" offset="1"/>
                </linearGradient>
                <polygon fill="url(#XMLID_21_)" points="46.357,44.493 49.556,45.838 49.683,43.533 46.424,42.187    "/>
                <linearGradient x1="-421.1558" gradientTransform="matrix(2.5245 -0.049 0.0123 2.4755 1102.887 -299.4133)" y1="126.5771" x2="-414.8983" gradientUnits="userSpaceOnUse" y2="132.7741" xlink:type="simple" xlink:actuate="onLoad" id="XMLID_22_" xlink:show="other">
                    <stop stop-color="#f1de84" offset="0"/>
                    <stop stop-color="#b0381e" offset="1"/>
                </linearGradient>
                <polygon fill="url(#XMLID_22_)" points="49.714,42.931 49.839,40.63 46.505,39.39 46.439,41.591    "/>
                <linearGradient x1="-422.2837" gradientTransform="matrix(2.5245 -0.049 0.0123 2.4755 1102.887 -299.4133)" y1="127.8623" x2="-416.1392" gradientUnits="userSpaceOnUse" y2="133.9473" xlink:type="simple" xlink:actuate="onLoad" id="XMLID_23_" xlink:show="other">
                    <stop stop-color="#f1de84" offset="0"/>
                    <stop stop-color="#b0381e" offset="1"/>
                </linearGradient>
                <polygon fill="url(#XMLID_23_)" points="46.337,45.088 46.275,47.171 49.412,48.566 49.526,46.436    "/>
                <linearGradient x1="-422.6079" gradientTransform="matrix(2.5245 -0.049 0.0123 2.4755 1102.887 -299.4133)" y1="127.9844" x2="-416.1688" gradientUnits="userSpaceOnUse" y2="134.3611" xlink:type="simple" xlink:actuate="onLoad" id="XMLID_24_" xlink:show="other">
                    <stop stop-color="#f1de84" offset="0"/>
                    <stop stop-color="#b0381e" offset="1"/>
                </linearGradient>
                <polygon fill="url(#XMLID_24_)" points="41.932,40.372 39.117,39.254 39.263,41.582 42.016,42.695    "/>
                <linearGradient x1="-421.644" gradientTransform="matrix(2.5245 -0.049 0.0123 2.4755 1102.887 -299.4133)" y1="126.9971" x2="-415.2665" gradientUnits="userSpaceOnUse" y2="133.3129" xlink:type="simple" xlink:actuate="onLoad" id="XMLID_25_" xlink:show="other">
                    <stop stop-color="#f1de84" offset="0"/>
                    <stop stop-color="#b0381e" offset="1"/>
                </linearGradient>
                <polygon fill="url(#XMLID_25_)" points="45.816,41.377 45.838,39.183 42.604,38.003 42.645,40.106    "/>
                <linearGradient x1="-422.084" gradientTransform="matrix(2.5245 -0.049 0.0123 2.4755 1102.887 -299.4133)" y1="127.418" x2="-415.6" gradientUnits="userSpaceOnUse" y2="133.8391" xlink:type="simple" xlink:actuate="onLoad" id="XMLID_26_" xlink:show="other">
                    <stop stop-color="#f1de84" offset="0"/>
                    <stop stop-color="#b0381e" offset="1"/>
                </linearGradient>
                <polygon fill="url(#XMLID_26_)" points="41.829,37.679 38.948,36.641 39.077,38.656 41.906,39.772    "/>
                <linearGradient x1="-422.7222" gradientTransform="matrix(2.5245 -0.049 0.0123 2.4755 1102.887 -299.4133)" y1="128.207" x2="-416.4604" gradientUnits="userSpaceOnUse" y2="134.4081" xlink:type="simple" xlink:actuate="onLoad" id="XMLID_27_" xlink:show="other">
                    <stop stop-color="#f1de84" offset="0"/>
                    <stop stop-color="#b0381e" offset="1"/>
                </linearGradient>
                <polygon fill="url(#XMLID_27_)" points="42.753,45.668 45.753,46.978 45.777,44.889 42.71,43.615    "/>
                <linearGradient x1="-423.1147" gradientTransform="matrix(2.5245 -0.049 0.0123 2.4755 1102.887 -299.4133)" y1="128.5566" x2="-416.7422" gradientUnits="userSpaceOnUse" y2="134.8674" xlink:type="simple" xlink:actuate="onLoad" id="XMLID_28_" xlink:show="other">
                    <stop stop-color="#f1de84" offset="0"/>
                    <stop stop-color="#b0381e" offset="1"/>
                </linearGradient>
                <polygon fill="url(#XMLID_28_)" points="42.039,43.299 39.305,42.185 39.428,44.209 42.111,45.355    "/>
                <linearGradient x1="-422.1919" gradientTransform="matrix(2.5245 -0.049 0.0123 2.4755 1102.887 -299.4133)" y1="127.6064" x2="-415.8793" gradientUnits="userSpaceOnUse" y2="133.858" xlink:type="simple" xlink:actuate="onLoad" id="XMLID_29_" xlink:show="other">
                    <stop stop-color="#f1de84" offset="0"/>
                    <stop stop-color="#b0381e" offset="1"/>
                </linearGradient>
                <polygon fill="url(#XMLID_29_)" points="42.659,40.703 42.699,43.014 45.783,44.288 45.807,41.975    "/>
                <linearGradient x1="-423.2266" gradientTransform="matrix(2.5245 -0.049 0.0123 2.4755 1102.887 -299.4133)" y1="128.8018" x2="-417.0175" gradientUnits="userSpaceOnUse" y2="134.9507" xlink:type="simple" xlink:actuate="onLoad" id="XMLID_30_" xlink:show="other">
                    <stop stop-color="#f1de84" offset="0"/>
                    <stop stop-color="#b0381e" offset="1"/>
                </linearGradient>
                <polygon fill="url(#XMLID_30_)" points="42.762,46.277 42.801,48.387 45.724,49.751 45.746,47.582    "/>
            </g>
            <g>
                <path fill="#704d18" d="M 54.517 6.628 L 53.378998 14.209 C 53.214996 14.634999 52.555996 14.801 51.920998 14.78 C 52.617996 15.111 54.059 15.068 54.309 14.405 L 55.546997 6.1289997 C 55.342 6.403 54.964 6.559 54.517 6.628 z "/>
            </g>
            <path fill="#8e6f3a" d="M 55.53 6.27 C 55.364998 6.741 54.278 7.012 53.11 6.876 C 51.947002 6.738 51.158 6.243 51.343002 5.774 C 51.531002 5.302 52.600002 5.031 53.743004 5.1670003 C 54.886 5.301 55.688 5.799 55.53 6.27 z "/>
        </g>
    </g>
</svg>
