<?xml version="1.0" encoding="UTF-8"?>
<svg xmlns="http://www.w3.org/2000/svg" xmlns:xlink="http://www.w3.org/1999/xlink" contentScriptType="text/ecmascript" width="44" baseProfile="tiny" zoomAndPan="magnify" contentStyleType="text/css" viewBox="0 0 44 44" height="44" preserveAspectRatio="xMidYMid meet" version="1.1">
    <linearGradient x1="3.1216" gradientTransform="matrix(1 0 0 -1 0.1377 42.834)" y1="41.1836" x2="28.9619" gradientUnits="userSpaceOnUse" y2="14.0932" xlink:type="simple" xlink:actuate="onLoad" id="XMLID_3_" xlink:show="other">
        <stop stop-color="#ffffcf" offset="0"/>
        <stop stop-color="#f0de80" offset="0.11"/>
        <stop stop-color="#c26e54" offset="0.35"/>
        <stop stop-color="#b0361a" offset="0.48"/>
        <stop stop-color="#ad2621" offset="0.6629"/>
        <stop stop-color="#9c0a00" offset="0.75"/>
        <stop stop-color="#991712" offset="0.82"/>
        <stop stop-color="#8a0000" offset="0.91"/>
        <stop stop-color="#730303" offset="0.99"/>
        <stop stop-color="#730303" offset="1"/>
    </linearGradient>
    <path fill="url(#XMLID_3_)" d="M 31.148 15.654 C 31.148 15.957001 31.148 20.07 31.148 20.07 C 31.148 25.505 27.047 29.928 22.008 29.928 C 16.958 29.928 12.849999 25.505 12.849999 20.07 C 12.849999 20.07 12.849999 15.958 12.849999 15.653999 C 12.575 15.653999 10.497999 15.653999 10.223999 15.653999 C 10.223999 15.957 10.223999 20.07 10.223999 20.07 C 10.505999 31.406 20.685999 32.418 20.685999 32.418 C 20.685999 32.418 20.685999 37.601997 20.685999 37.907997 C 20.96 37.907997 23.036 37.907997 23.310999 37.907997 C 23.310999 37.600998 23.310999 32.392 23.310999 32.392 C 23.310999 32.392 33.225 31.936998 33.772 20.067997 C 33.772 20.067997 33.772 15.955997 33.772 15.651997 C 33.499 15.654 31.424 15.654 31.148 15.654 z "/>
    <linearGradient x1="5.4912" gradientTransform="matrix(1 0 0 -1 0.1377 42.834)" y1="43.4443" x2="31.3316" gradientUnits="userSpaceOnUse" y2="16.3539" xlink:type="simple" xlink:actuate="onLoad" id="XMLID_4_" xlink:show="other">
        <stop stop-color="#ffffcf" offset="0"/>
        <stop stop-color="#f0de80" offset="0.11"/>
        <stop stop-color="#c26e54" offset="0.35"/>
        <stop stop-color="#b0361a" offset="0.48"/>
        <stop stop-color="#ad2621" offset="0.6629"/>
        <stop stop-color="#9c0a00" offset="0.75"/>
        <stop stop-color="#991712" offset="0.82"/>
        <stop stop-color="#8a0000" offset="0.91"/>
        <stop stop-color="#730303" offset="0.99"/>
        <stop stop-color="#730303" offset="1"/>
    </linearGradient>
    <path fill="url(#XMLID_4_)" d="M 22.003 5.929 C 18.221 5.929 15.149 9.159 15.149 13.125 L 15.149 19.985 C 15.149 23.953001 18.221 27.18 22.003 27.18 C 25.782 27.18 28.857 23.952 28.857 19.985 L 28.857 13.125 C 28.855 9.159 25.782 5.929 22.003 5.929 z M 26.415 19.985 C 26.415 22.604 24.436 24.735 22.003 24.735 C 19.57 24.735 17.589 22.604 17.589 19.985 L 17.589 13.125 C 17.589 10.504 19.569 8.373 22.003 8.373 C 24.438 8.373 26.415 10.504 26.415 13.125 L 26.415 19.985 z "/>
</svg>
