<?xml version="1.0" encoding="UTF-8"?>
<svg xmlns="http://www.w3.org/2000/svg" xmlns:xlink="http://www.w3.org/1999/xlink" contentScriptType="text/ecmascript" width="100" baseProfile="tiny" zoomAndPan="magnify" contentStyleType="text/css" viewBox="-0.245 -0.01 100 69" height="69" preserveAspectRatio="xMidYMid meet" version="1.1">
    <rect x="0" width="100.001" fill="none" y="0" height="69.046"/>
    <path fill="#ffffff" d="M 35.258 13.348 L 35.258 13.348 C 35.347 13.403 35.476 13.474999 35.653 13.563 L 35.653 13.563 C 36.133 13.806 36.98 14.172999 38.398 14.645 L 38.398 14.645 C 39.417 14.985999 40.125 15.106 40.619 15.106 L 40.619 15.106 C 41.162 15.102 41.447 14.977 41.715 14.802 L 41.715 14.802 L 42.212 14.877 C 43.151 16.024 44.297 18.008 44.297 20.812 L 44.297 20.812 C 44.297 22.475 43.894 24.416 42.827 26.629 L 42.827 26.629 C 38.693 35.132 35.383 34.406 35.256 41.834 L 35.256 41.834 C 35.145 47.062 33.432 48.066 32.956 48.191 L 32.956 48.191 C 32.79 48.224 32.483 48.254997 32.094 48.254997 L 32.094 48.254997 C 31.835 48.254997 31.552002 48.238 31.277002 48.192 L 31.277002 48.192 C 31.009005 48.164 30.270002 48.06 29.816002 47.212997 L 29.816002 47.212997 C 29.346004 46.380997 29.008 44.912 28.950005 42.025 L 28.950005 42.025 C 28.823002 34.595997 25.512005 35.323 21.379002 26.816998 L 21.379002 26.816998 C 20.311 24.607998 19.907 22.662998 19.907 21.000998 L 19.907 21.000998 C 19.907 18.070995 21.157 16.035997 22.119 14.915997 L 22.119 14.915997 L 22.6 14.84 C 22.848 14.992001 23.126 15.102 23.633 15.104 L 23.633 15.104 C 24.127 15.104 24.833 14.983 25.852 14.645 L 25.852 14.645 C 27.790998 14.0 28.661 13.551001 28.992 13.35 L 28.992 13.35 C 28.943998 13.09 28.888998 12.647 28.888998 11.968 L 28.888998 11.968 C 28.888998 11.918 28.886995 11.857 28.888998 11.803 L 28.888998 11.803 C 28.896996 11.086 28.958998 10.614 29.014996 10.328 L 29.014996 10.328 C 28.530998 10.12 27.493998 9.698 26.410995 9.404 L 26.410995 9.404 C 24.888998 8.987 23.514996 8.7890005 22.980995 8.785 L 22.980995 8.785 C 22.967997 8.787 22.960997 8.785 22.958998 8.785 L 22.958998 8.785 L 22.958998 8.785 L 22.958998 8.785 C 22.956997 8.785 22.954998 8.785 22.954 8.785 L 22.954 8.785 L 22.954 8.783 L 22.944998 8.785 C 22.506998 8.783 21.989998 9.035 21.639996 9.290999 L 21.639996 9.290999 L 21.643995 9.292999 C 21.632998 9.315999 21.617998 9.362999 21.603996 9.424999 L 21.603996 9.424999 C 21.571997 9.548999 21.552996 9.730999 21.541996 9.923999 L 21.541996 9.923999 L 21.364996 10.222999 C 20.960997 10.472999 16.327995 13.472999 16.336996 19.648 L 16.336996 19.648 C 16.336996 20.895998 16.523996 22.278 16.977997 23.801998 L 16.977997 23.801998 C 19.534996 32.514 25.022997 38.281 25.221996 41.047997 L 25.221996 41.047997 C 25.226995 41.153996 25.226995 41.269997 25.226995 41.388996 L 25.226995 41.388996 C 25.226995 42.053997 25.171995 42.970997 25.173996 43.997 L 25.173996 43.997 C 25.169996 45.692 25.320995 47.678 26.042995 49.182 L 26.042995 49.182 C 26.775995 50.682 27.971996 51.723 30.321997 51.74 L 30.321997 51.74 C 30.345997 51.74 30.368996 51.74 30.391994 51.741997 L 30.391994 51.741997 L 30.745996 52.132996 C 30.736994 52.331997 30.729994 52.555996 30.727997 52.820995 L 30.727997 52.820995 C 30.734997 54.326996 30.919994 56.804996 32.195995 59.064995 L 32.195995 59.064995 C 33.413994 61.289993 35.923996 63.203995 39.858994 63.207996 L 39.858994 63.207996 C 39.904995 63.207996 39.94799 63.207996 39.99399 63.207996 L 39.99399 63.207996 C 42.36199 63.205997 45.240993 62.601997 48.80899 61.174995 L 48.80899 61.174995 C 52.67899 59.627995 54.89899 56.768997 56.47699 54.486996 L 56.47699 54.486996 C 57.24099 53.396996 58.54599 50.173996 58.91499 46.985996 L 58.91499 46.985996 C 59.028988 46.039 59.06799 45.040997 59.06799 44.092995 L 59.06799 44.092995 C 59.07199 42.03799 58.86099 40.21199 58.75899 39.782993 L 58.75899 39.782993 C 58.58699 39.03799 55.80999 27.229992 55.80199 24.713991 L 55.80199 24.713991 C 55.80199 24.712994 55.798992 24.700993 55.79999 24.676992 L 55.79999 24.676992 C 55.798992 24.670992 55.798992 24.664991 55.798992 24.655993 L 55.798992 24.655993 C 55.80199 23.888992 55.92699 23.329992 56.18299 22.920992 L 56.18299 22.920992 C 56.35699 22.634993 56.63599 22.351992 57.08899 22.136992 L 57.08899 22.136992 L 57.57499 22.279991 C 58.67999 24.112991 60.53999 25.351992 62.37099 25.34399 L 62.37099 25.34399 C 63.54399 25.35799 65.51999 24.73999 66.34699 23.98299 L 66.34699 23.98299 C 66.395996 23.94199 66.45099 23.86599 66.61099 23.69599 L 66.61099 23.69599 C 68.148 22.58899 69.20599 20.55699 69.20599 18.217987 L 69.20599 18.217987 C 69.204 14.640989 66.76599 11.831989 63.872993 11.8229885 L 63.872993 11.8229885 L 63.872993 11.445989 L 63.872993 11.0729885 C 67.285 11.083988 69.95 14.316988 69.95699 18.217987 L 69.95699 18.217987 C 69.954994 20.78299 68.80499 23.03699 67.11099 24.243988 L 67.11099 24.243988 C 67.051994 24.308989 66.979996 24.422989 66.84499 24.542988 L 66.84499 24.542988 C 65.76299 25.483988 63.76699 26.081987 62.370995 26.095987 L 62.370995 26.095987 C 60.312996 26.087988 58.368996 24.821987 57.131996 22.978989 L 57.131996 22.978989 C 56.983997 23.085987 56.901997 23.191986 56.81599 23.320988 L 56.81599 23.320988 C 56.671993 23.545988 56.549995 23.971989 56.549995 24.656988 L 56.549995 24.656988 L 56.539997 24.656988 L 56.542995 24.713987 L 56.549995 24.713987 C 56.549995 24.713987 56.55199 24.713987 56.549995 24.725986 L 56.549995 24.725986 C 56.548996 27.000986 59.321995 38.918987 59.488995 39.613987 L 59.488995 39.613987 C 59.611996 40.169987 59.812996 41.975983 59.814995 44.092987 L 59.814995 44.092987 C 59.814995 45.058987 59.77399 46.086987 59.659996 47.072987 L 59.659996 47.072987 C 59.257996 50.408985 57.962997 53.640987 57.091995 54.910988 L 57.091995 54.910988 C 55.493996 57.22299 53.166996 60.24099 49.084995 61.871983 L 49.084995 61.871983 C 45.45499 63.318985 42.486996 63.953987 39.998993 63.957985 L 39.998993 63.957985 C 39.948994 63.959984 39.900993 63.959984 39.854992 63.959984 L 39.854992 63.959984 C 35.664993 63.963985 32.865993 61.875984 31.533993 59.429985 L 31.533993 59.429985 C 30.165993 56.994984 29.983994 54.388985 29.974993 52.825985 L 29.974993 52.825985 C 29.974993 52.704987 29.976994 52.593987 29.978992 52.486984 L 29.978992 52.486984 C 27.582993 52.391983 26.119991 51.134983 25.359991 49.507984 L 25.359991 49.507984 C 24.556992 47.814983 24.421991 45.739983 24.418991 44.001984 L 24.418991 44.001984 C 24.418991 42.950985 24.473991 42.020985 24.473991 41.393986 L 24.473991 41.393986 C 24.473991 41.27898 24.471992 41.17398 24.468994 41.08198 L 24.468994 41.08198 C 24.457994 38.99198 18.864994 32.806984 16.251995 24.018982 L 16.251995 24.018982 C 15.779995 22.426985 15.581995 20.973982 15.581995 19.650982 L 15.581995 19.650982 C 15.590995 13.508982 19.837996 10.335982 20.808994 9.690982 L 20.808994 9.690982 C 20.839994 9.323982 20.860994 8.9919815 21.181992 8.696981 L 21.181992 8.696981 C 21.599993 8.396981 22.199991 8.063981 22.881994 8.040981 L 22.881994 8.040981 C 22.912994 8.034982 22.926994 8.036982 22.935995 8.036982 L 22.935995 8.036982 C 22.940994 8.036982 22.944996 8.039982 22.949997 8.036982 L 22.949997 8.036982 C 23.597996 8.039982 24.993996 8.247982 26.604996 8.683982 L 26.604996 8.683982 C 28.163996 9.110982 29.596996 9.770982 29.608995 9.7749815 L 29.608995 9.7749815 L 29.800997 10.249982 C 29.805994 10.251982 29.773994 10.314981 29.730995 10.562982 L 29.730995 10.562982 C 29.687996 10.810982 29.641994 11.213982 29.634996 11.828981 L 29.634996 11.828981 C 29.632994 11.865981 29.632994 11.912981 29.632994 11.972981 L 29.632994 11.972981 C 29.632994 12.510982 29.668991 12.877981 29.704994 13.104981 L 29.704994 13.104981 C 29.738997 13.331982 29.764994 13.393981 29.764994 13.393981 L 29.764994 13.393981 L 29.664991 13.793981 C 29.591991 13.85698 28.970991 14.395981 26.081991 15.36198 L 26.081991 15.36198 C 25.018991 15.713981 24.241993 15.855981 23.627993 15.857981 L 23.627993 15.857981 C 23.166992 15.859981 22.794992 15.77198 22.490992 15.636981 L 22.490992 15.636981 C 21.641994 16.70498 20.650991 18.48698 20.650991 21.00398 L 20.650991 21.00398 C 20.650991 22.54698 21.022991 24.37098 22.047993 26.49598 L 22.047993 26.49598 C 25.979992 34.70698 29.523993 34.20098 29.690992 42.011986 L 29.690992 42.011986 C 29.743992 44.84598 30.101992 46.22798 30.460993 46.844982 L 30.460993 46.844982 C 30.832993 47.441982 31.045992 47.38198 31.398993 47.45798 L 31.398993 47.45798 C 31.613993 47.49498 31.860992 47.511986 32.087994 47.511986 L 32.087994 47.511986 C 32.405994 47.511986 32.699993 47.47898 32.781994 47.46398 L 32.781994 47.46398 C 32.788994 47.45798 32.803993 47.45198 32.824993 47.44298 L 32.824993 47.44298 C 32.865993 47.418983 32.928993 47.379986 33.003994 47.31398 L 33.003994 47.31398 C 33.155994 47.18498 33.361996 46.95798 33.575993 46.56798 L 33.575993 46.56798 C 34.00299 45.79198 34.451992 44.362984 34.50199 41.823982 L 34.50199 41.823982 C 34.66999 34.011986 38.21099 34.515984 42.145992 26.307983 L 42.145992 26.307983 C 43.170994 24.180984 43.540993 22.354984 43.540993 20.814983 L 43.540993 20.814983 C 43.540993 18.414984 42.63999 16.686983 41.82099 15.604983 L 41.82099 15.604983 C 41.506992 15.754983 41.11199 15.860983 40.61399 15.856983 L 40.61399 15.856983 C 39.999992 15.856983 39.22099 15.713984 38.15699 15.360983 L 38.15699 15.360983 C 35.26899 14.393983 34.64699 13.854982 34.57699 13.792983 L 34.57699 13.792983 L 34.474987 13.392983 C 34.460987 13.387983 34.606987 13.048984 34.606987 11.971983 L 34.606987 11.971983 C 34.60399 11.917983 34.60399 11.865983 34.606987 11.812983 L 34.606987 11.812983 C 34.599987 11.213983 34.551987 10.810983 34.508987 10.562983 L 34.508987 10.562983 C 34.46599 10.315983 34.438988 10.249983 34.438988 10.249983 L 34.438988 10.249983 L 34.63099 9.774982 C 34.64299 9.770983 36.07599 9.110983 37.63499 8.683983 L 37.63499 8.683983 C 39.242992 8.245983 40.63699 8.041983 41.28999 8.036983 L 41.28999 8.036983 C 41.29199 8.036983 41.31199 8.036983 41.30399 8.039983 L 41.30399 8.039983 C 42.00699 8.046983 42.62799 8.388983 43.056988 8.696982 L 43.056988 8.696982 C 43.33899 8.948982 43.376987 9.221982 43.411987 9.520983 L 43.411987 9.520983 C 44.428986 10.203982 48.599987 13.375982 48.605988 19.459984 L 48.605988 19.459984 C 48.605988 20.781984 48.40899 22.238983 47.938988 23.826984 L 47.938988 23.826984 C 45.327988 32.615982 39.734985 38.803986 39.723988 40.900986 L 39.723988 40.900986 C 39.71399 41.009987 39.711987 41.136986 39.711987 41.279987 L 39.711987 41.279987 C 39.711987 41.808987 39.738987 42.539986 39.738987 43.36799 L 39.738987 43.36799 C 39.738987 43.70799 39.736988 44.063988 39.724987 44.424988 L 39.724987 44.424988 C 39.719982 46.057987 39.54099 47.869987 38.762985 49.320988 L 38.762985 49.320988 C 37.954987 51.098988 36.364983 52.489983 33.699986 52.47099 L 33.699986 52.47099 C 33.642982 52.47099 33.585987 52.47099 33.565987 52.46899 L 33.565987 52.46899 C 33.558987 52.46999 33.551987 52.47099 33.544987 52.47099 L 33.544987 52.47099 C 33.540985 52.584988 33.538986 52.71599 33.537987 52.869987 L 33.537987 52.869987 C 33.537987 52.869987 33.537987 52.869987 33.537987 52.898987 L 33.537987 52.898987 C 33.532986 54.134987 33.764988 56.171986 34.628983 57.660988 L 34.628983 57.660988 C 35.567986 59.189987 36.774982 60.315987 39.948982 60.390987 L 39.948982 60.390987 C 39.963985 60.389988 39.975983 60.389988 39.984985 60.389988 L 39.984985 60.389988 C 39.990986 60.389988 39.994984 60.389988 39.998985 60.389988 L 39.998985 60.389988 C 41.874985 60.391987 44.427982 59.892982 47.757984 58.56099 L 47.757984 58.56099 C 51.270985 57.15299 52.955982 54.61799 54.155983 52.88499 L 54.155983 52.88499 C 54.676983 52.13599 55.82598 49.57799 56.120983 46.90499 L 56.120983 46.90499 C 56.23498 45.85899 56.28398 44.85599 56.28398 43.92799 L 56.28398 43.92799 C 56.28398 42.22399 56.122986 40.76799 55.93598 39.76399 L 55.93598 39.76399 C 55.648983 38.19499 53.030983 27.896988 52.98498 24.665989 L 52.98498 24.665989 C 52.98498 23.60599 53.15298 22.48799 53.76398 21.468988 L 53.76398 21.468988 C 54.240986 20.669989 54.98098 20.046988 55.86198 19.614988 L 55.86198 19.614988 C 55.82098 19.313988 55.79698 19.007988 55.79698 18.693989 L 55.79698 18.693989 C 55.78498 14.799989 58.18098 12.047989 61.54998 11.338989 L 61.54998 11.338989 C 62.00198 11.243989 62.54098 11.161989 63.05598 11.144989 L 63.05598 11.144989 C 63.31398 11.103989 63.58498 11.074989 63.86898 11.074989 L 63.86898 11.074989 L 63.86898 11.447989 L 63.86898 11.824989 C 63.63798 11.824989 63.40598 11.847989 63.12698 11.890989 L 63.12698 11.890989 C 62.62498 11.908989 62.12198 11.98399 61.70698 12.072989 L 61.70698 12.072989 C 58.65298 12.73899 56.559982 15.11199 56.54798 18.69499 L 56.54798 18.69499 C 56.54798 19.057993 56.58398 19.41699 56.64598 19.77699 L 56.64598 19.77699 L 56.42498 20.182993 C 55.54198 20.566992 54.83498 21.13799 54.40798 21.855991 L 54.40798 21.855991 C 53.890984 22.71499 53.73498 23.681992 53.732983 24.661991 L 53.732983 24.661991 C 53.76398 27.668991 56.369984 38.01799 56.67298 39.62899 L 56.67298 39.62899 C 56.86698 40.68199 57.030983 42.17699 57.030983 43.92899 L 57.030983 43.92899 C 57.030983 44.88399 56.981983 45.90999 56.862984 46.98999 L 56.862984 46.98999 C 56.538982 49.82899 55.391983 52.39999 54.770985 53.30999 L 54.770985 53.30999 C 53.577984 55.03799 51.768986 57.76299 48.034985 59.25899 L 48.034985 59.25899 C 44.640984 60.61399 42.004986 61.14199 39.996983 61.14199 L 39.996983 61.14199 L 39.978985 61.14199 L 39.978985 61.14199 C 36.589985 61.11999 34.972984 59.73799 33.979984 58.04099 L 33.979984 58.04099 C 33.005985 56.34499 32.788986 54.21999 32.784985 52.897987 L 32.784985 52.897987 C 32.784985 52.88199 32.781986 52.842987 32.786983 52.823982 L 32.786983 52.823982 C 32.786983 52.522987 32.798985 52.280987 32.808983 52.089985 L 32.808983 52.089985 L 33.162983 51.741985 C 33.298985 51.733986 33.420982 51.726982 33.538982 51.719982 L 33.538982 51.719982 C 33.591984 51.721985 33.642982 51.721985 33.695984 51.721985 L 33.695984 51.721985 C 36.097984 51.704987 37.320984 50.591984 38.090984 48.983986 L 38.090984 48.983986 C 38.779984 47.709988 38.970985 46.000984 38.972984 44.412987 L 38.972984 44.412987 C 38.984985 44.05599 38.986984 43.705982 38.986984 43.369987 L 38.986984 43.369987 C 38.986984 42.556988 38.959984 41.836987 38.959984 41.280987 L 38.959984 41.280987 C 38.959984 41.125988 38.962982 40.981987 38.971985 40.861988 L 38.971985 40.861988 C 39.168983 38.09599 44.659985 32.32699 47.216984 23.614988 L 47.216984 23.614988 C 47.665985 22.092987 47.851982 20.708988 47.851982 19.460987 L 47.851982 19.460987 C 47.86098 13.413989 43.42298 10.415989 42.858986 10.056989 L 42.858986 10.056989 L 42.694 9.77 C 42.676 9.537001 42.628 9.332001 42.6 9.286 L 42.6 9.286 C 42.259 9.0390005 41.764 8.7960005 41.294 8.784 L 41.294 8.784 L 41.294 8.786 C 40.778 8.784 39.384 8.981 37.836 9.405001 L 37.836 9.405001 C 36.754997 9.699 35.718 10.120001 35.233 10.327001 L 35.233 10.327001 C 35.289 10.613001 35.35 11.088 35.358 11.807001 L 35.358 11.807001 C 35.358 11.862001 35.358 11.916001 35.358 11.968001 L 35.358 11.968001 M 42.6 9.283 L 42.601997 9.283 C 42.601997 9.282 42.601997 9.282 42.601997 9.282 L 42.601997 9.282 C 42.602 9.282 42.601 9.283 42.6 9.283 L 42.6 9.283 z "/>
    <linearGradient x1="31.9674" gradientTransform="matrix(1 0 0 -1 0.1377 67.814)" y1="61.5427" x2="31.9674" gradientUnits="userSpaceOnUse" y2="-6.3047" xlink:type="simple" xlink:actuate="onLoad" id="XMLID_10_" xlink:show="other">
        <stop stop-color="#822519" offset="0"/>
        <stop stop-color="#670000" offset="1"/>
    </linearGradient>
    <path fill="url(#XMLID_10_)" d="M 47.589 23.756 C 50.444 14.092001 43.002 9.731001 43.002 9.731001 L 40.768 14.002001 C 40.768 14.002001 46.526997 18.147 42.492996 26.504002 C 38.458996 34.859 35.032997 34.244003 34.886 41.865 C 34.786 47.021004 33.067997 47.822 32.879997 47.861 C 32.692997 47.902 31.965998 47.968 31.344995 47.861 C 30.724997 47.754 29.437998 47.775 29.326998 42.052 C 29.179998 34.433 25.752998 35.048 21.719995 26.691002 C 17.685995 18.336002 23.444998 14.191002 23.444998 14.191002 L 21.209 9.92 C 21.209 9.92 13.766 14.281 16.621 23.945 C 19.207 32.695 24.747002 38.672 24.852 41.099 C 24.956 43.529 23.575 52.302 30.490002 52.157997 C 31.275002 52.220997 32.972 52.177 33.546 52.129 C 40.462 52.275 39.253 43.339996 39.359 40.909996 C 39.463 38.482 45.004 32.506 47.589 23.756 z "/>
    <path fill="#ffffff" d="M 30.487 51.758 C 23.571 51.904 25.227 43.527 25.123 41.097 C 25.018 38.668 19.477 32.693 16.891998 23.943 C 14.037 14.278 21.48 9.917 21.48 9.917 L 22.036 11.499 C 22.036 11.499 15.432999 18.366 19.468 26.724 C 23.502998 35.081 25.863998 34.576 26.010998 42.195 C 26.120998 47.918 26.072 48.55 27.015997 49.873 C 27.958 51.191 30.487 51.758 30.487 51.758 z " fill-opacity="0.4"/>
    <path fill="#ffffff" d="M 33.894 51.561 C 40.81 51.707 39.154 43.33 39.259003 40.901 C 39.363003 38.471 44.904003 32.495003 47.489 23.745 C 50.345 14.081001 42.902 9.720001 42.902 9.720001 L 42.345 11.302001 C 42.345 11.302001 48.948 18.171 44.913 26.529 C 40.88 34.884003 38.517 34.379 38.370003 41.998 C 38.26 47.722 38.309 48.355 37.366 49.677 C 36.423 50.996 33.894 51.561 33.894 51.561 z " fill-opacity="0.4"/>
    <radialGradient gradientTransform="matrix(1 0 0 -1 0.1377 67.814)" gradientUnits="userSpaceOnUse" xlink:type="simple" r="6.457" xlink:actuate="onLoad" cx="61.7794" id="XMLID_11_" cy="49.1658" xlink:show="other">
        <stop stop-color="#b0381e" offset="0"/>
        <stop stop-color="#5c0a01" offset="1"/>
    </radialGradient>
    <path fill="url(#XMLID_11_)" d="M 65.244 12.004 C 66.858 13.198999 67.600006 16.307 67.600006 18.731 C 67.600006 20.946 67.992004 23.065 66.604004 24.299 C 65.649 25.149 63.664005 25.754 62.377003 25.754 C 59.225 25.754 56.182003 22.469 56.182003 18.731 C 56.182003 14.992999 58.425003 12.429998 61.637 11.742999 C 62.724 11.51 64.368 11.355 65.244 12.004 z "/>
    <radialGradient gradientTransform="matrix(0.8305 0 0 -1 62.6837 67.814)" gradientUnits="userSpaceOnUse" xlink:type="simple" r="28.3207" xlink:actuate="onLoad" cx="-2.6991" id="XMLID_12_" cy="60.1677" xlink:show="other">
        <stop stop-color="#b0381e" offset="0"/>
        <stop stop-color="#5c0a01" offset="1"/>
    </radialGradient>
    <ellipse rx="5.709" ry="6.768" fill="url(#XMLID_12_)" cx="63.879" cy="18.254"/>
    <radialGradient gradientTransform="matrix(0.8305 0 0 -1 62.6837 67.814)" gradientUnits="userSpaceOnUse" xlink:type="simple" r="10.3017" xlink:actuate="onLoad" cx="2.004" id="XMLID_13_" cy="45.5242" xlink:show="other">
        <stop stop-color="#b0381e" offset="0"/>
        <stop stop-color="#5c0a01" offset="1"/>
    </radialGradient>
    <ellipse rx="4.365" ry="5.254" fill="url(#XMLID_13_)" cx="63.819" cy="18.289"/>
    <linearGradient x1="62.9484" gradientTransform="matrix(1 0 0 -1 0.1377 67.814)" y1="18.2815" x2="26.5656" gradientUnits="userSpaceOnUse" y2="36.2434" xlink:type="simple" xlink:actuate="onLoad" id="XMLID_14_" xlink:show="other">
        <stop stop-color="#b0381e" offset="0"/>
        <stop stop-color="#822519" offset="1"/>
    </linearGradient>
    <path fill="url(#XMLID_14_)" d="M 31.87 59.279 C 30.551 56.933 30.367 54.39 30.359 52.859 L 30.359 52.859 C 30.359 52.023003 30.425 51.482 30.43 51.437 L 30.43 51.437 L 30.43 51.439 L 33.223 51.783 C 33.224 51.783 33.213 51.857 33.201 52.045 L 33.201 52.045 C 33.188 52.234 33.175 52.515003 33.175 52.859 L 33.175 52.859 C 33.166 54.13 33.38 56.261 34.319 57.888 L 34.319 57.888 C 35.287 59.501 36.702 60.757 40.001 60.8 L 40.001 60.8 C 41.944 60.802 44.542 60.29 47.91 58.943 L 47.91 58.943 C 51.532 57.492 53.278 54.863 54.475 53.13 L 54.475 53.13 C 55.046 52.302 56.194 49.734 56.503 46.98 C 56.84 43.974 56.611 41.32 56.315 39.73 C 56.02 38.14 53.409 27.816 53.37 24.701 L 53.37 24.701 C 53.371 23.678 53.532997 22.637 54.099 21.697 L 54.099 21.697 C 54.661 20.754 55.622997 20.041 56.808 19.658 L 56.808 19.658 L 57.697 22.330002 C 56.98 22.578 56.708 22.842 56.509 23.156002 L 56.509 23.156002 C 56.313 23.474005 56.188 23.97 56.188 24.701002 L 56.188 24.701002 C 56.149 26.967005 58.964 39.007004 59.134 39.730003 C 59.305 40.453003 59.662 43.984005 59.298 47.062004 C 58.911 50.324005 57.611 53.552 56.794 54.732 L 56.794 54.732 C 55.205997 57.029003 52.932 59.968 48.955997 61.558 L 48.955997 61.558 C 45.357 62.994003 42.434 63.615 40.002 63.617004 L 40.002 63.617004 C 39.957 63.617004 39.912 63.617004 39.867 63.617004 L 39.867 63.617004 C 35.802 63.617 33.146 61.617 31.87 59.279 L 31.87 59.279 z "/>
    <radialGradient gradientTransform="matrix(1 0 0 -1 0.1377 67.814)" gradientUnits="userSpaceOnUse" xlink:type="simple" r="3.854" xlink:actuate="onLoad" cx="25.173" id="XMLID_15_" cy="55.8318" xlink:show="other">
        <stop stop-color="#ad832f" offset="0"/>
        <stop stop-color="#3e2a08" offset="1"/>
    </radialGradient>
    <path fill="url(#XMLID_15_)" d="M 21.412 9.035 C 21.021 9.32 21.205 11.267 21.205 11.267 C 21.205 11.267 21.147 14.182 21.827 14.751 C 22.505 15.321 23.11 15.991 25.973 15.037001 C 28.835 14.083 29.418 13.548 29.418 13.548 C 29.418 13.548 29.252 13.075001 29.268 11.842 C 29.282 10.609 29.459 10.148 29.459 10.148 C 29.459 10.148 28.034 9.494 26.513 9.08 C 24.925 8.647 23.523 8.445 22.947 8.447 C 22.373 8.449 21.801 8.75 21.412 9.035 z "/>
    <radialGradient gradientTransform="matrix(1 0 0 -1 0.1377 67.814)" gradientUnits="userSpaceOnUse" xlink:type="simple" r="2.7675" xlink:actuate="onLoad" cx="25.025" id="XMLID_16_" cy="57.4324" xlink:show="other">
        <stop stop-color="#e0bc6c" offset="0"/>
        <stop stop-color="#8e6f3a" offset="1"/>
    </radialGradient>
    <path fill="url(#XMLID_16_)" d="M 21.777 9.453 C 21.387 9.738 21.578 11.687 21.578 11.687 L 28.789 11.842 L 28.794 10.47 C 28.794 10.47 28.082 9.968 26.562 9.554 C 24.974 9.121 23.57 8.918 22.995 8.921 C 22.419 8.924 22.165 9.168 21.777 9.453 z "/>
    <radialGradient gradientTransform="matrix(-1 0 0 -1 1801.6583 67.814)" gradientUnits="userSpaceOnUse" xlink:type="simple" r="3.854" xlink:actuate="onLoad" cx="1762.712" id="XMLID_17_" cy="55.8318" xlink:show="other">
        <stop stop-color="#ad832f" offset="0"/>
        <stop stop-color="#3e2a08" offset="1"/>
    </radialGradient>
    <path fill="url(#XMLID_17_)" d="M 42.845 9.035 C 43.236 9.32 43.052 11.267 43.052 11.267 C 43.052 11.267 43.11 14.182 42.43 14.751 C 41.752 15.321 41.147 15.991 38.284 15.037001 C 35.422 14.083 34.839 13.548 34.839 13.548 C 34.839 13.548 35.005 13.075001 34.989 11.842 C 34.975 10.609 34.798 10.148 34.798 10.148 C 34.798 10.148 36.223 9.494 37.744 9.08 C 39.332 8.647 40.734 8.445 41.31 8.447 C 41.884 8.449 42.456 8.75 42.845 9.035 z "/>
    <radialGradient gradientTransform="matrix(-1 0 0 -1 1801.6583 67.814)" gradientUnits="userSpaceOnUse" xlink:type="simple" r="2.7678" xlink:actuate="onLoad" cx="1762.5646" id="XMLID_18_" cy="57.4324" xlink:show="other">
        <stop stop-color="#e0bc6c" offset="0"/>
        <stop stop-color="#8e6f3a" offset="1"/>
    </radialGradient>
    <path fill="url(#XMLID_18_)" d="M 42.479 9.453 C 42.869 9.738 42.678 11.687 42.678 11.687 L 35.467003 11.842 L 35.462 10.47 C 35.462 10.47 36.174004 9.968 37.694 9.554 C 39.282 9.121 40.686 8.918 41.261 8.921 C 41.838 8.924 42.092 9.168 42.479 9.453 z "/>
    <path fill="#ffffff" d="M 75.109 31.173 L 70.882 32.074 L 66.79 35.322 L 68.519 37.713 L 59.637997 35.16 C 57.994995 34.699 53.067997 33.31 53.067997 33.31 L 48.498997 34.614 L 48.346996 40.967003 C 48.346996 40.967003 49.498997 41.295 49.962 41.427 C 49.282997 41.598003 47.491997 42.041 47.491997 42.041 L 60.754997 60.345 L 64.918 57.195 L 66.046 55.111 C 66.046 55.111 65.197 53.819 64.596 52.894 C 67.543 53.693 83.159 57.922 83.159 57.922 L 86.09499 55.359 L 86.17099 49.684 C 86.17099 49.684 85.12099 49.396004 84.60799 49.254 C 85.07699 48.896 85.941986 48.268 86.06299 48.174 L 75.109 31.173 z "/>
    <polygon fill="#eacf5a" points="59.066,50.16 64.263,56.672 65.124,55.082 61.466,49.5 "/>
    <polygon fill="#b0381e" points="64.263,56.672 59.922,50.856 82.994,57.105 83.126,51.787 48.437,42.342 60.767,59.313 "/>
    <polygon fill="#eacf5a" points="85.515,50.136 52.931,41.246 48.446,42.352 83.082,51.986 "/>
    <polygon fill="#eacf5a" points="84.134,49.799 52.931,41.246 50.622,41.765 82.837,50.813 "/>
    <polygon fill="#5c1001" points="83.13,51.977 85.521,50.113 85.435,54.973 82.987,57.104 "/>
    <polygon fill="#eacf5a" points="70.888,38.936 52.879,33.881 48.966,34.994 72.923,41.858 "/>
    <polygon fill="#5c1001" points="74.849,31.672 71.605,32.454 82.53,49.905 85.159,47.879 "/>
    <polygon fill="#b0381e" points="67.698,35.426 72.039,41.24 48.966,34.994 48.835,40.31 82.521,49.889 71.605,32.454 "/>
</svg>
