<?xml version="1.0" encoding="UTF-8"?>
<svg xmlns="http://www.w3.org/2000/svg" xmlns:xlink="http://www.w3.org/1999/xlink" contentScriptType="text/ecmascript" width="72" baseProfile="tiny" zoomAndPan="magnify" contentStyleType="text/css" viewBox="0 0 72 66" height="66" preserveAspectRatio="xMidYMid meet" version="1.1">
    <g>
        <g>
            <path d="M 46.305 0.0 C 46.305 0.0 40.834 5.47 40.305 6.0 C 39.506 6.0 18.0 6.0 18.0 6.0 C 8.131 6.0 2.0 12.131 2.0 22.0 L 2.0 48.0 C 2.0 64.246 13.189 66.0 18.0 66.0 L 52.0 66.0 C 63.104 66.0 70.0 59.104 70.0 48.0 L 70.0 23.875 C 70.0 15.426 65.514 9.198 58.0 6.9939995 C 57.996 2.941 55.055 0.0 51.0 0.0 L 46.305 0.0 z " fill-opacity="0.01"/>
            <path d="M 46.719 1.0 C 46.719 1.0 41.249 6.47 40.719 7.0 C 39.92 7.0 18.0 7.0 18.0 7.0 C 8.748 7.0 3.0 12.748 3.0 22.0 L 3.0 48.0 C 3.0 62.791 12.398 65.0 18.0 65.0 L 52.0 65.0 C 62.486 65.0 69.0 58.486 69.0 48.0 L 69.0 23.875 C 69.0 15.537 64.514 9.581 57.0 7.712 C 57.0 7.356 57.0 7.0 57.0 7.0 C 57.0 3.523 54.477 1.0 51.0 1.0 L 46.719 1.0 z " fill-opacity="0.02"/>
            <path d="M 47.133 2.0 C 47.133 2.0 41.662 7.47 41.133 8.0 C 40.333 8.0 18.0 8.0 18.0 8.0 C 9.364 8.0 4.0 13.364 4.0 22.0 L 4.0 48.0 C 4.0 61.225 11.613 64.0 18.0 64.0 L 52.0 64.0 C 61.869 64.0 68.0 57.869 68.0 48.0 L 68.0 23.875 C 68.0 15.657 63.514 9.984 56.0 8.463 C 56.0 7.798 56.0 7.0 56.0 7.0 C 56.0 4.1029997 53.896 2.0 51.0 2.0 L 47.133 2.0 z " fill-opacity="0.04"/>
            <path d="M 47.547 3.0 C 47.547 3.0 42.077 8.469999 41.547 9.0 C 40.746 9.0 18.0 9.0 18.0 9.0 C 9.859 9.0 5.0 13.859 5.0 22.0 L 5.0 48.0 C 5.0 57.953 9.374001 63.0 18.0 63.0 L 52.0 63.0 C 61.252 63.0 67.0 57.252 67.0 48.0 L 67.0 23.875 C 67.0 15.786 62.514 10.411 55.0 9.251 C 55.0 9.09 55.0 7.0 55.0 7.0 C 55.0 4.645 53.355 3.0 51.0 3.0 L 47.547 3.0 z " fill-opacity="0.07"/>
            <path d="M 48.375 4.0 L 47.961 4.0 C 47.961 4.0 42.489998 9.469999 41.961 10.0 C 41.16 10.0 18.0 10.0 18.0 10.0 C 10.375 10.0 6.0 14.375 6.0 22.0 L 6.0 48.0 C 6.0 57.420998 9.926001 62.0 18.0 62.0 L 52.0 62.0 C 60.637 62.0 66.0 56.636 66.0 48.0 L 66.0 23.875 C 66.0 15.929 61.516 10.865 54.0 10.079 C 54.0 9.492 54.0 7.0 54.0 7.0 C 54.0 5.206 52.795 4.0 51.0 4.0 L 48.375 4.0 z " fill-opacity="0.11"/>
            <path d="M 51.0 5.0 C 50.0 5.0 48.375 5.0 48.375 5.0 L 42.375 11.0 L 18.0 11.0 C 11.0 11.0 7.0 15.0 7.0 22.0 L 7.0 48.0 C 7.0 56.141 9.859 61.0 18.0 61.0 L 52.0 61.0 C 60.141 61.0 65.0 56.141 65.0 48.0 L 65.0 23.875 C 65.0 16.086 60.516 11.352 53.0 10.952 C 53.0 10.37 53.0 7.719 53.0 7.0 C 53.0 5.75 52.25 5.0 51.0 5.0 z " fill-opacity="0.13"/>
            <linearGradient x1="34.9995" y1="10.1846" x2="34.9995" gradientUnits="userSpaceOnUse" y2="59.2041" xlink:type="simple" xlink:actuate="onLoad" id="XMLID_2_" xlink:show="other">
                <stop stop-color="#ffffff" offset="0"/>
                <stop stop-color="#ffe7e6" offset="1"/>
            </linearGradient>
            <path fill="url(#XMLID_2_)" d="M 18.0 10.009 L 42.0 10.009 L 50.0 2.0 L 52.0 2.0 L 52.0 10.0 C 59.629 10.0 64.0 16.243 64.0 23.875 L 64.0 48.0 C 64.0 55.631 59.629 60.0 52.0 60.0 L 18.0 60.0 C 10.371 60.0 6.0 55.631 6.0 48.0 L 6.0 22.0 C 6.0 14.368 10.371 10.0 18.0 10.009 z "/>
            <rect width="72" fill="none" height="66"/>
        </g>
    </g>
</svg>
