<?xml version="1.0" encoding="UTF-8"?>
<svg xmlns="http://www.w3.org/2000/svg" xmlns:xlink="http://www.w3.org/1999/xlink" contentScriptType="text/ecmascript" width="44" baseProfile="tiny" zoomAndPan="magnify" contentStyleType="text/css" viewBox="0 0 44 44" height="44" preserveAspectRatio="xMidYMid meet" version="1.1">
    <linearGradient x1="9.083" gradientTransform="matrix(1 0 0 -1 0.1377 42.834)" y1="46.9014" x2="34.931" gradientUnits="userSpaceOnUse" y2="19.8035" xlink:type="simple" xlink:actuate="onLoad" id="XMLID_5_" xlink:show="other">
        <stop stop-color="#ffffcf" offset="0"/>
        <stop stop-color="#f0de80" offset="0.11"/>
        <stop stop-color="#c26e54" offset="0.35"/>
        <stop stop-color="#b0361a" offset="0.48"/>
        <stop stop-color="#ad2621" offset="0.6629"/>
        <stop stop-color="#9c0a00" offset="0.75"/>
        <stop stop-color="#991712" offset="0.82"/>
        <stop stop-color="#8a0000" offset="0.91"/>
        <stop stop-color="#730303" offset="0.99"/>
        <stop stop-color="#730303" offset="1"/>
    </linearGradient>
    <path fill="url(#XMLID_5_)" d="M 33.773 20.07 C 33.773 20.07 33.773 15.958 33.773 15.653999 C 33.499 15.653999 31.421999 15.653999 31.147999 15.653999 C 31.147999 15.957 31.147999 20.07 31.147999 20.07 C 31.147999 21.506 30.855 22.865 30.341 24.096 L 32.297 26.055 C 33.232 24.27 33.773 22.229 33.773 20.07 z "/>
    <linearGradient x1="-3.0825" gradientTransform="matrix(1 0 0 -1 0.1377 42.834)" y1="35.3008" x2="22.7671" gradientUnits="userSpaceOnUse" y2="8.2012" xlink:type="simple" xlink:actuate="onLoad" id="XMLID_6_" xlink:show="other">
        <stop stop-color="#ffffcf" offset="0"/>
        <stop stop-color="#f0de80" offset="0.11"/>
        <stop stop-color="#c26e54" offset="0.35"/>
        <stop stop-color="#b0361a" offset="0.48"/>
        <stop stop-color="#ad2621" offset="0.6629"/>
        <stop stop-color="#9c0a00" offset="0.75"/>
        <stop stop-color="#991712" offset="0.82"/>
        <stop stop-color="#8a0000" offset="0.91"/>
        <stop stop-color="#730303" offset="0.99"/>
        <stop stop-color="#730303" offset="1"/>
    </linearGradient>
    <path fill="url(#XMLID_6_)" d="M 22.01 29.928 C 12.455 29.042 12.852 19.662998 12.852 19.098 L 10.226 16.469 C 10.226 17.753 10.226 20.071 10.226 20.071 C 10.587999 30.463 19.109001 32.251 20.688 32.42 C 20.688 32.42 20.688 37.603996 20.688 37.908997 C 20.962 37.908997 23.038 37.908997 23.313 37.908997 C 23.313 37.600998 23.313 32.393997 23.313 32.393997 C 23.313 32.393997 24.871 32.224 25.626999 31.887997 L 23.522999 29.780996 C 23.027 29.87 22.523 29.977 22.01 29.928 z "/>
    <linearGradient x1="-0.855" gradientTransform="matrix(1 0 0 -1 0.1377 42.834)" y1="37.4268" x2="24.9961" gradientUnits="userSpaceOnUse" y2="10.3256" xlink:type="simple" xlink:actuate="onLoad" id="XMLID_7_" xlink:show="other">
        <stop stop-color="#ffffcf" offset="0"/>
        <stop stop-color="#f0de80" offset="0.11"/>
        <stop stop-color="#c26e54" offset="0.35"/>
        <stop stop-color="#b0361a" offset="0.48"/>
        <stop stop-color="#ad2621" offset="0.6629"/>
        <stop stop-color="#9c0a00" offset="0.75"/>
        <stop stop-color="#991712" offset="0.82"/>
        <stop stop-color="#8a0000" offset="0.91"/>
        <stop stop-color="#730303" offset="0.99"/>
        <stop stop-color="#730303" offset="1"/>
    </linearGradient>
    <path fill="url(#XMLID_7_)" d="M 20.795 27.053 L 15.33 21.58 C 15.938 24.373 18.088 26.543 20.795 27.053 z "/>
    <linearGradient x1="8.9995" gradientTransform="matrix(1 0 0 -1 0.1377 42.834)" y1="46.8252" x2="34.849" gradientUnits="userSpaceOnUse" y2="19.7257" xlink:type="simple" xlink:actuate="onLoad" id="XMLID_8_" xlink:show="other">
        <stop stop-color="#ffffcf" offset="0"/>
        <stop stop-color="#f0de80" offset="0.11"/>
        <stop stop-color="#c26e54" offset="0.35"/>
        <stop stop-color="#b0361a" offset="0.48"/>
        <stop stop-color="#ad2621" offset="0.6629"/>
        <stop stop-color="#9c0a00" offset="0.75"/>
        <stop stop-color="#991712" offset="0.82"/>
        <stop stop-color="#8a0000" offset="0.91"/>
        <stop stop-color="#730303" offset="0.99"/>
        <stop stop-color="#730303" offset="1"/>
    </linearGradient>
    <path fill="url(#XMLID_8_)" d="M 22.003 8.373 C 24.438 8.373 26.415 10.505 26.415 13.125 L 26.415 19.985 C 26.415 20.041 26.402 20.092001 26.398 20.148 L 28.480001 22.231 C 28.705002 21.52 28.855001 20.774 28.855001 19.985 L 28.855001 13.125 C 28.855001 9.159 25.782001 5.929 22.001001 5.929 C 19.395 5.929 17.153002 7.481 15.993002 9.732 L 17.846003 11.586 C 18.445 9.723 20.073 8.373 22.003 8.373 z "/>
    <polygon fill="#800000" points="5.699,8.48 8.496,5.679 38.301,35.521 35.504,38.32 "/>
</svg>
