<?xml version="1.0" encoding="UTF-8"?>
<svg xmlns="http://www.w3.org/2000/svg" xmlns:xlink="http://www.w3.org/1999/xlink" contentScriptType="text/ecmascript" width="84" baseProfile="tiny" zoomAndPan="magnify" contentStyleType="text/css" viewBox="-0.812 -0.619 84 58" height="58" preserveAspectRatio="xMidYMid meet" version="1.1">
    <g>
        <rect x="-0.4" width="84" fill="none" y="-0.35" height="58"/>
    </g>
    <path fill="#496da2" d="M 42.706 21.579 L 41.411003 19.702 C 38.738003 22.649 40.225 27.064 41.366005 28.971 L 42.872005 27.954 C 42.872 27.954 40.617 23.907 42.706 21.579 z M 46.915 23.993 C 46.931 23.929 47.208 22.69 46.273003 22.527 C 45.434 22.418 45.722004 23.721 45.738003 23.79 L 43.598003 36.586 L 42.689003 36.4 L 42.814003 38.275 L 49.439003 39.9 L 49.439003 37.775 L 48.430004 37.567997 L 46.915 23.993 z M 50.315 22.413 C 52.414997 25.468 50.195 28.645 50.178 28.735 L 51.691 30.281 C 52.829 28.77 54.292 24.869 51.599 20.986 L 50.315 22.413 z " fill-opacity="0.8"/>
    <g>
        <path fill="#ffffff" d="M 31.08 4.856 L 31.627 45.295 L 62.652 53.524 L 65.152 51.118 L 66.062004 9.334999 L 34.096004 4.144999 L 31.08 4.856 z "/>
    </g>
    <polygon fill="#9e6434" fill-opacity="0.8" points="62.551,53.139 64.806,50.969 65.706,9.634 63.043,10.448 "/>
    <polygon fill="#eacf5a" points="62.551,53.139 31.974,45.027 31.434,5.132 63.043,10.448 "/>
    <polygon fill="#cd9f3d" points="65.706,9.634 34.109,4.499 31.434,5.132 63.043,10.448 "/>
    <linearGradient x1="39.9126" gradientTransform="matrix(1 0 0 -1 0.1377 55.596)" y1="25.5519" x2="53.1274" gradientUnits="userSpaceOnUse" y2="25.5519" xlink:type="simple" xlink:actuate="onLoad" id="XMLID_3_" xlink:show="other">
        <stop stop-color="#9e6434" offset="0"/>
        <stop stop-color="#5c1001" offset="1"/>
    </linearGradient>
    <path fill="url(#XMLID_3_)" d="M 42.846 21.822 L 41.551003 19.945 C 38.878 22.892 40.365 27.307 41.506004 29.214 L 43.012005 28.197 C 42.995 28.117 40.758 24.15 42.846 21.822 z M 47.055 24.236 C 47.071 24.172 47.348 22.933 46.414 22.77 C 45.574 22.661 45.862003 23.964 45.879 24.033 L 43.738003 36.829 L 42.83 36.642 L 42.955 38.517 L 49.58 40.142 L 49.58 38.017 L 48.570004 37.812 L 47.055 24.236 z M 50.456 22.656 C 52.556 25.711 50.337 28.889 50.319 28.979 L 51.833 30.526 C 52.97 29.014002 54.433 25.112 51.741 21.23 L 50.456 22.656 z "/>
    <g>
        <path fill="#ffffff" d="M 31.08 4.856 L 31.627 45.295 L 62.652 53.524 L 65.152 51.118 L 66.062004 9.334999 L 34.096004 4.144999 L 31.08 4.856 z " fill-opacity="0.44"/>
    </g>
    <g>
        <path fill="#ffffff" d="M 61.952 40.401 C 60.847 39.299 55.804 34.278 55.804 34.278 L 52.382 37.715 C 52.382 37.715 57.403 42.72 58.516 43.826 C 57.405 44.932 52.382 49.936 52.382 49.936 L 55.805 53.374 C 55.805 53.374 60.846 48.352 61.952 47.25 C 63.057 48.352 68.098 53.374 68.098 53.374 L 71.522 49.936 C 71.522 49.936 66.50101 44.932 65.388 43.826 C 66.5 42.72 71.522 37.715 71.522 37.715 L 68.1 34.276 C 68.1 34.277 63.057 39.3 61.952 40.401 z "/>
        <linearGradient x1="61.9175" y1="33.7345" x2="61.98" gradientUnits="userSpaceOnUse" y2="52.2218" xlink:type="simple" xlink:actuate="onLoad" id="XMLID_4_" xlink:show="other">
            <stop stop-color="#b0381e" offset="0"/>
            <stop stop-color="#5c1001" offset="1"/>
        </linearGradient>
        <polygon fill="url(#XMLID_4_)" points="70.108,37.711 68.097,35.692 61.952,41.813 55.806,35.692 53.795,37.711 59.932,43.825    53.795,49.94 55.807,51.96 61.952,45.838 68.096,51.96 70.108,49.94 63.972,43.825  "/>
    </g>
    <path fill="#ffffff" d="M 13.357 34.029 C 10.478001 34.029 6.5330005 34.712997 5.5330005 40.621 L 5.385 41.514 C 5.385 41.514 12.022 41.514 12.807 41.514 C 13.043 41.94 13.401 42.58 13.623 42.989 C 13.396 43.397 13.043 44.037 12.807 44.462997 C 12.022 44.462997 5.385 44.462997 5.385 44.462997 L 5.533 45.358997 C 6.533 51.267 10.478001 51.948997 13.357 51.948997 C 15.628 51.948997 17.650002 50.046997 19.277 48.511 C 20.156 47.685997 20.984 46.907 21.423 46.907 L 41.741 46.907 L 41.966 46.657 C 42.405 46.177 43.415 44.865997 43.438 43.025997 L 43.438 42.962 C 43.417 41.117996 42.407 39.811996 41.966 39.329 L 41.741 39.080997 L 21.424 39.080997 C 20.985 39.080997 20.156 38.302 19.279 37.476997 C 17.65 35.936 15.629 34.029 13.357 34.029 z "/>
    <path fill="#6e8489" d="M 42.604 42.986 C 42.604 42.978 42.608 42.97 42.608 42.965 L 42.602 42.965 C 42.582 41.363 41.666 40.207 41.331 39.838 C 40.901 39.838 21.352 39.838 21.352 39.838 C 20.608002 39.838 19.799002 39.076 18.678 38.024 C 17.155 36.586 15.252001 34.795 13.283001 34.795 C 10.088001 34.795 7.060001 35.733 6.215001 40.75 C 7.416002 40.75 13.182001 40.75 13.182001 40.75 L 14.420001 42.986 L 13.182001 45.224 C 13.182001 45.224 7.416002 45.224 6.215001 45.224 C 7.065001 50.242 10.088001 51.179 13.283001 51.179 C 15.252001 51.179 17.150002 49.388 18.678 47.949 C 19.799002 46.896 20.608002 46.136 21.352 46.136 C 21.352 46.136 40.901 46.136 41.331 46.136 C 41.667 45.767 42.584 44.611 42.602 43.006 L 42.608 43.006 C 42.607 43.0 42.604 42.994 42.604 42.986 z "/>
</svg>
