<?xml version="1.0" encoding="UTF-8"?>
<svg xmlns="http://www.w3.org/2000/svg" xmlns:xlink="http://www.w3.org/1999/xlink" contentScriptType="text/ecmascript" width="84" baseProfile="tiny" zoomAndPan="magnify" contentStyleType="text/css" viewBox="0 0 84 58" height="58" preserveAspectRatio="xMidYMid meet" version="1.1">
    <g>
        <g>
            <g>
                <g>
                    <g>
                        <polygon fill="#ffffff" points="23.84,9.243 25.396,23.011 31.17,25.677 27.505,27.677 29.06,42.111 50.491,53.993        67.709,38.172 69.302,12.345 46.271,4.133 41.386,6.688 34.392,3.801      "/>
                        <g>
                            <g>
                                <polygon fill="#b3ddff" points="46.513,17.536 38.464,22.53 47.809,26.787 55.578,21.143        "/>
                                <polygon fill="#5aa7e0" points="38.464,22.53 39.021,33.819 47.9,38.168 47.809,26.787        "/>
                                <polygon fill="#3366cc" points="55.578,21.143 47.809,26.787 47.9,38.168 55.396,31.689        "/>
                            </g>
                            <g>
                                <polygon fill="#ad832f" points="37.516,22.994 29.002,28.082 38.811,33.264 47.044,27.343        "/>
                                <polygon fill="#eacf5a" points="38.811,33.264 29.002,28.082 30.115,40.666 39.366,45.752        "/>
                                <polygon fill="#b0381e" points="47.044,27.343 38.811,33.264 39.366,45.752 47.137,38.814        "/>
                            </g>
                            <g>
                                <polygon fill="#ad832f" points="66.704,25.886 56.158,21.537 48.479,27.18 58.933,32.085        "/>
                                <polygon fill="#eacf5a" points="48.479,27.18 48.571,38.653 58.84,43.927 58.933,32.085        "/>
                                <polygon fill="#b0381e" points="58.933,32.085 58.84,43.927 66.242,36.987 66.704,25.886        "/>
                            </g>
                            <g>
                                <polygon fill="#ad832f" points="39.55,33.635 47.831,27.666 58.309,32.525 50.281,39.279        "/>
                                <polygon fill="#eacf5a" points="39.55,33.635 40.011,46.124 50.188,51.677 50.281,39.279        "/>
                                <polygon fill="#b0381e" points="50.281,39.279 50.188,51.677 58.146,44.365 58.309,32.525        "/>
                            </g>
                            <path fill="#5aa7e0" d="M 49.241 37.055 "/>
                            <g>
                                <polygon fill="#ad832f" points="37.77,10.156 45.935,5.555 55.534,9.138 47.601,14.251        "/>
                                <polygon fill="#eacf5a" points="37.77,10.156 38.048,21.537 47.484,25.977 47.601,14.251        "/>
                                <polygon fill="#b0381e" points="47.601,14.251 47.484,25.977 55.254,20.333 55.534,9.138        "/>
                            </g>
                            <g>
                                <polygon fill="#ad832f" points="48.386,14.713 58.98,19.501 67.214,13.487 56.204,9.602        "/>
                                <polygon fill="#b0381e" points="59.049,19.41 58.756,31.454 66.47,25.236 67.19,13.487        "/>
                                <polygon fill="#eacf5a" points="48.271,14.713 48.132,26.439 58.756,31.454 59.049,19.41        "/>
                            </g>
                            <g>
                                <polygon fill="#ad832f" points="34.301,5.091 25.095,10.134 35.596,15.083 44.2,9.255        "/>
                                <polygon fill="#eacf5a" points="25.095,10.134 26.205,21.792 36.059,26.927 35.596,15.083        "/>
                                <polygon fill="#b0381e" points="44.2,9.255 35.596,15.083 36.059,26.927 44.2,20.912        "/>
                            </g>
                            <g>
                                <polygon fill="#eacf5a" points="38.88,21.027 39.343,32.871 50.075,38.513 50.075,26.209        "/>
                                <polygon fill="#ad832f" points="38.88,21.027 47.667,15.199 58.378,19.802 50.075,26.209        "/>
                                <polygon fill="#b0381e" points="50.075,26.209 50.075,38.513 58.098,31.95 58.378,19.802        "/>
                            </g>
                        </g>
                        <linearGradient x1="-255.1533" gradientTransform="matrix(1.1364 0 0 1.1364 318.4637 -315.3676)" y1="298.3438" x2="-249.4868" gradientUnits="userSpaceOnUse" y2="296.1643" xlink:type="simple" xlink:actuate="onLoad" id="XMLID_2_" xlink:show="other">
                            <stop stop-color="#b0381e" offset="0"/>
                            <stop stop-color="#ad832f" offset="1"/>
                        </linearGradient>
                        <polygon fill="url(#XMLID_2_)" points="35.973,26.843 26.228,21.846 34.445,15.35 35.556,15.016      "/>
                    </g>
                </g>
            </g>
        </g>
        <rect width="84" fill="none" height="58"/>
        <path fill="#ffffff" d="M 13.789 34.485 C 11.007 34.485 7.1979995 35.133 6.2319994 40.760002 L 6.0869994 41.607002 C 6.0869994 41.607002 12.4939995 41.607002 13.252999 41.607002 C 13.482999 42.015003 13.825999 42.622 14.041999 43.011 C 13.825999 43.398003 13.482999 44.004 13.252999 44.413002 C 12.492999 44.413002 6.0869994 44.413002 6.0869994 44.413002 L 6.2319994 45.261 C 7.1969995 50.882 11.007 51.534 13.789 51.534 C 15.980999 51.534 17.935 49.721 19.505 48.263 C 20.355 47.476 21.154999 46.734 21.578 46.734 L 41.202 46.734 L 41.422 46.497 C 41.843002 46.04 42.822002 44.793003 42.844 43.041 L 42.844 42.979 C 42.823 41.228 41.843002 39.979 41.422 39.524002 L 41.202 39.287003 L 21.578 39.287003 C 21.154999 39.287003 20.352999 38.545002 19.508 37.758003 C 17.936 36.297 15.983 34.485 13.789 34.485 z "/>
        <path fill="#6e8489" d="M 42.107 43.012 C 42.107 43.005 42.108997 42.995003 42.108997 42.99 L 42.104996 42.99 C 42.085995 41.468002 41.199997 40.367 40.873997 40.015003 C 40.461 40.015003 21.577997 40.015003 21.577997 40.015003 C 20.858997 40.015003 20.081997 39.289 18.997997 38.288002 C 17.524998 36.917004 15.688997 35.213 13.788998 35.213 C 10.702997 35.213 7.779998 36.107002 6.9609976 40.882 C 8.121998 40.882 13.689998 40.882 13.689998 40.882 L 14.885998 43.012 L 13.689998 45.139 C 13.689998 45.139 8.121998 45.139 6.9609976 45.139 C 7.779998 49.914 10.701998 50.809 13.788998 50.809 C 15.688997 50.809 17.524998 49.103996 18.997997 47.734997 C 20.081997 46.732998 20.860998 46.005997 21.577997 46.005997 C 21.577997 46.005997 40.461 46.005997 40.873997 46.005997 C 41.199997 45.656 42.086998 44.554996 42.104996 43.031998 L 42.108997 43.031998 C 42.109 43.025 42.107 43.017 42.107 43.012 z "/>
    </g>
</svg>
