<?xml version="1.0" encoding="UTF-8"?>
<svg xmlns="http://www.w3.org/2000/svg" xmlns:xlink="http://www.w3.org/1999/xlink" contentScriptType="text/ecmascript" width="44" baseProfile="tiny" zoomAndPan="magnify" contentStyleType="text/css" viewBox="0 0 44 32" height="32" preserveAspectRatio="xMidYMid meet" version="1.1">
    <g>
        <g>
            <path fill="#840000" d="M 9.24 23.922 C 10.014 24.452002 11.045 24.721 12.334 24.721 C 14.139 24.721 15.4539995 24.231 16.281 23.257 C 17.107 22.285 17.522 20.75 17.522 18.653 C 17.522 17.13 17.157 15.9 16.427 14.972 C 15.698 14.044001 14.669 13.579 13.344 13.579 C 12.573 13.579 11.901 13.699 11.327 13.938001 C 10.754 14.176001 10.306999 14.51 9.986 14.936001 C 9.991 13.895 10.083 12.981001 10.255 12.198001 C 10.427 11.410001 10.747 10.823001 11.215 10.432001 C 11.683001 10.044001 12.261 9.849001 12.949 9.849001 C 13.54 9.849001 14.157001 9.926001 14.797001 10.079 C 15.439001 10.233001 15.938001 10.407001 16.298 10.6 L 16.298 8.152 C 15.952001 8.025001 15.485001 7.9040003 14.894 7.7880006 C 14.302 7.6720004 13.758 7.614001 13.266 7.614001 C 11.491 7.614001 10.172 7.927001 9.311 8.552001 C 8.452 9.178001 7.8409996 10.101001 7.482 11.320001 C 7.1229997 12.542001 6.944 14.064001 6.944 15.890001 C 6.944 18.441002 7.132 20.288002 7.508 21.422 C 7.888 22.557 8.465 23.391 9.24 23.922 z M 10.565 16.561 C 10.95 16.061 11.495 15.813001 12.198 15.813001 C 12.919 15.813001 13.462 16.091002 13.833 16.643002 C 14.204 17.2 14.389 18.032001 14.389 19.151001 C 14.389 20.174002 14.2109995 20.987001 13.856 21.588001 C 13.502 22.189001 12.986 22.485 12.311 22.485 C 11.517 22.485 10.931 22.188 10.5529995 21.592001 C 10.174999 20.995 9.988 20.055 9.988 18.766 C 9.987 17.792 10.179 17.059 10.565 16.561 z "/>
            <g>
                <path fill="#840000" d="M 28.15 25.043 L 26.807999 25.043 L 26.807999 21.205 C 26.807999 20.495 26.564 20.141 26.075998 20.141 C 25.782999 20.141 25.541998 20.27 25.352999 20.53 C 25.164 20.79 25.07 21.163 25.07 21.649 L 25.07 25.045 L 23.732 25.045 L 23.732 21.21 C 23.732 20.855999 23.668001 20.588999 23.539 20.408998 C 23.41 20.229998 23.219 20.14 22.965 20.14 C 22.662 20.14 22.425 20.269 22.252 20.529 C 22.08 20.788 21.994001 21.16 21.994001 21.644 L 21.994001 25.040998 L 20.67 25.040998 L 20.67 20.161999 C 20.67 19.873 20.657 19.596998 20.631 19.331999 L 21.906 19.331999 C 21.941 19.491999 21.969 19.758999 21.994 20.129 C 22.202 19.543 22.652 19.25 23.345999 19.25 C 24.098 19.25 24.612 19.558 24.884998 20.172 C 25.033998 19.888 25.234999 19.660002 25.484999 19.496 C 25.737 19.332 26.071 19.25 26.487 19.25 C 26.968 19.25 27.368 19.416 27.68 19.75 C 27.994 20.084 28.151001 20.532 28.151001 21.097 L 28.151001 25.043 L 28.15 25.043 z "/>
                <path fill="#840000" d="M 33.971 25.043 L 32.653 25.043 L 32.653 21.814 C 32.653 21.195 32.589 20.761 32.456 20.511 C 32.321003 20.258999 32.096 20.132 31.774002 20.132 C 31.461002 20.132 31.221003 20.261 31.061003 20.513 C 30.903002 20.765001 30.825003 21.113 30.825003 21.556 L 30.825003 25.039999 L 29.5 25.039999 L 29.5 20.16 C 29.5 19.862999 29.486 19.588 29.461 19.334 L 30.75 19.334 C 30.775 19.470999 30.801 19.720999 30.824 20.081999 C 30.928 19.838 31.109 19.638998 31.371 19.481998 C 31.631 19.328999 31.943 19.251999 32.31 19.251999 C 32.834 19.251999 33.244003 19.421999 33.536003 19.762 C 33.827003 20.102 33.974003 20.643 33.974003 21.384998 L 33.974003 25.043 L 33.971 25.043 z "/>
                <path fill="#840000" d="M 37.502 19.252 C 38.267998 19.252 38.865997 19.506 39.301 20.014 C 39.737 20.522 39.953 21.244999 39.953 22.186 C 39.953 23.153 39.732 23.885 39.291 24.379002 C 38.850002 24.873003 38.254 25.121002 37.502 25.121002 C 36.749996 25.121002 36.149998 24.873003 35.707 24.379002 C 35.264004 23.885 35.041 23.152002 35.041 22.186 C 35.041 21.229 35.258 20.501001 35.691 20.001001 C 36.127 19.502 36.73 19.252 37.502 19.252 z M 37.502 24.242 C 37.856 24.242 38.128998 24.064001 38.318 23.712 C 38.507004 23.359999 38.605 22.85 38.605 22.186 C 38.605 21.522001 38.507 21.014 38.318 20.665 C 38.129 20.313002 37.855 20.140001 37.502 20.140001 C 37.149998 20.140001 36.877 20.316002 36.682 20.665 C 36.487 21.014 36.389 21.522001 36.389 22.186 C 36.389 23.557 36.76 24.242 37.502 24.242 z "/>
            </g>
        </g>
        <g>
            <rect width="44" fill="none" height="32"/>
        </g>
    </g>
</svg>
