<?xml version="1.0" encoding="UTF-8"?>
<svg xmlns="http://www.w3.org/2000/svg" xmlns:xlink="http://www.w3.org/1999/xlink" contentScriptType="text/ecmascript" zoomAndPan="magnify" baseProfile="tiny" contentStyleType="text/css" version="1.1" width="352px" preserveAspectRatio="xMidYMid meet" viewBox="0 0 352 288" height="288px" x="0px" y="0px">
    <g stroke-opacity="0.7" fill-opacity="0.7">
        <g>
            <linearGradient x1="467.1472" gradientTransform="matrix(1 0 0 1 -172.96 -277.0391)" y1="467.2666" x2="524.9597" gradientUnits="userSpaceOnUse" y2="467.2666" xlink:type="simple" xlink:actuate="onLoad" id="SVGID_1_" xlink:show="other">
                <stop stop-color="#f1de84" offset="0"/>
                <stop stop-color="#cd9f3d" offset="0.5056"/>
                <stop stop-color="#704d18" offset="1"/>
            </linearGradient>
            <path fill="url(#SVGID_1_)" d="M 336.698 154.079 C 313.22 154.079 294.187 170.262 294.187 190.22499 C 294.187 210.18999 313.22 226.374 336.698 226.374 C 342.094 226.374 347.25 225.51 352.0 223.94899 L 352.0 156.5 C 347.248 154.943 342.094 154.079 336.698 154.079 z " fill-opacity="0.2"/>
        </g>
        <rect x="0.001" width="351.995" fill="none" height="288"/>
        <g>
            <linearGradient x1="438.1863" gradientTransform="matrix(1 0 0 1 -172.96 -277.0391)" y1="428.6953" x2="524.9578" gradientUnits="userSpaceOnUse" y2="428.6953" xlink:type="simple" xlink:actuate="onLoad" id="SVGID_2_" xlink:show="other">
                <stop stop-color="#f1de84" offset="0"/>
                <stop stop-color="#cd9f3d" offset="0.5056"/>
                <stop stop-color="#704d18" offset="1"/>
            </linearGradient>
            <path fill="url(#SVGID_2_)" d="M 315.302 109.074 C 287.646 109.074 265.226 128.14 265.226 151.656 C 265.226 175.175 287.64603 194.238 315.302 194.238 C 329.801 194.238 342.85602 188.99501 351.997 180.62001 L 351.997 122.69801 C 342.854 114.322 329.802 109.074 315.302 109.074 z " fill-opacity="0.6"/>
        </g>
        <g>
            <linearGradient x1="449.5242" gradientTransform="matrix(1 0 0 1 -172.96 -277.0391)" y1="406.2471" x2="524.9597" gradientUnits="userSpaceOnUse" y2="406.2471" xlink:type="simple" xlink:actuate="onLoad" id="SVGID_3_" xlink:show="other">
                <stop stop-color="#f1de84" offset="0"/>
                <stop stop-color="#cd9f3d" offset="0.5056"/>
                <stop stop-color="#704d18" offset="1"/>
            </linearGradient>
            <path fill="url(#SVGID_3_)" d="M 330.069 83.711 C 300.519 83.711 276.564 104.08 276.564 129.206 C 276.564 154.334 300.51898 174.704 330.069 174.704 C 337.884 174.704 345.302 173.26599 352.0 170.704 L 352.0 87.709 C 345.303 85.148 337.885 83.711 330.069 83.711 z " fill-opacity="0.2"/>
        </g>
        <g>
            <path fill="#f6a2a0" d="M 245.119 152.551 C 245.119 206.825 291.191 251.98099 352.0 261.473 L 352.0 43.63 C 291.191 53.123 245.119 98.277 245.119 152.551 z " fill-opacity="0.6"/>
        </g>
        <linearGradient x1="225.8347" gradientTransform="matrix(1 0 0 1 -172.96 -277.0391)" y1="431.0215" x2="398.073" gradientUnits="userSpaceOnUse" y2="431.0215" xlink:type="simple" xlink:actuate="onLoad" id="SVGID_4_" xlink:show="other">
            <stop stop-color="#f1de84" offset="0"/>
            <stop stop-color="#cd9f3d" offset="0.5056"/>
            <stop stop-color="#704d18" offset="1"/>
        </linearGradient>
        <path fill="url(#SVGID_4_)" d="M 225.113 153.982 C 225.113 194.423 186.556 227.211 138.99501 227.211 C 91.43201 227.211 52.875008 194.428 52.875008 153.982 C 52.875008 113.54199 91.434006 80.753 138.99501 80.753 C 186.557 80.753 225.113 113.542 225.113 153.982 z " fill-opacity="0.55"/>
        <linearGradient x1="291.6111" gradientTransform="matrix(1 0 0 1 -172.96 -277.0391)" y1="376.4824" x2="443.0906" gradientUnits="userSpaceOnUse" y2="376.4824" xlink:type="simple" xlink:actuate="onLoad" id="SVGID_5_" xlink:show="other">
            <stop stop-color="#f1de84" offset="0"/>
            <stop stop-color="#cd9f3d" offset="0.5056"/>
            <stop stop-color="#704d18" offset="1"/>
        </linearGradient>
        <ellipse fill-opacity="0.8" fill="url(#SVGID_5_)" rx="75.739" cx="194.391" ry="72.827" cy="99.443"/>
        <ellipse fill-opacity="0.6" fill="#ca6769" rx="22.538" cx="37.896" ry="19.166" cy="121.048"/>
        <ellipse fill-opacity="0.6" fill="#f1de84" rx="64.591" cx="110.088" ry="54.922" cy="64.956"/>
        <g>
            <path fill="#9e6434" d="M 83.144 14.542 C 83.144 8.719 86.207 3.512 91.028 0.0 L 44.603 0.0 C 53.307 5.772 58.91 14.77 58.91 24.883 C 58.91 42.310997 42.298 56.434998 21.806 56.434998 C 13.656 56.434998 6.12 54.193996 -0.0020008087 50.404 L -0.0020008087 95.379 C 5.556999 96.398994 11.316999 96.949 17.233 96.949 C 60.240997 96.949 95.438 68.595 98.450005 32.679 C 89.555 30.115 83.144 22.974 83.144 14.542 z " fill-opacity="0.8"/>
        </g>
        <path fill="#5c1001" d="M 194.225 286.846 L 211.98901 286.846 C 206.93602 281.161 203.139 274.631 200.93001 267.547 C 200.055 274.425 197.727 280.93 194.225 286.846 z " fill-opacity="0.7"/>
        <path fill="#b18e3b" d="M 165.669 286.846 L 175.737 286.846 C 173.833 283.22302 172.229 279.463 170.948 275.586 C 170.082 279.684 168.254 283.493 165.669 286.846 z " fill-opacity="0.6"/>
        <path fill="#b18e3b" d="M 99.613 270.119 C 99.613 253.22998 115.713 239.54099 135.57199 239.54099 C 149.381 239.54099 161.36398 246.15898 167.38799 255.86499 C 167.35498 254.98 167.30998 254.09698 167.30998 253.20699 C 167.30998 240.41199 170.73598 228.29399 176.84598 217.47998 C 165.34898 209.47598 150.65298 204.66698 134.62997 204.66698 C 97.795975 204.66698 67.933975 230.06198 67.933975 261.382 C 67.933975 270.542 70.501976 279.189 75.03798 286.847 L 105.47598 286.847 C 101.771 282.038 99.613 276.294 99.613 270.119 z " fill-opacity="0.6"/>
        <path fill="#f1de84" d="M 167.388 255.863 C 170.031 260.122 171.534 264.97 171.534 270.11902 C 171.534 271.984 171.328 273.81003 170.95 275.587 C 172.23 279.46402 173.834 283.223 175.739 286.848 L 194.225 286.848 C 197.729 280.93 200.05501 274.426 200.93001 267.548 C 199.50002 262.971 198.735 258.164 198.735 253.207 C 198.735 251.1 198.881 249.021 199.149 246.975 C 195.528 235.223 187.586 224.95401 176.848 217.481 C 170.735 228.294 167.31001 240.414 167.31001 253.21 C 167.311 254.098 167.355 254.98 167.388 255.863 z " fill-opacity="0.7"/>
        <path fill="#b18e3b" d="M 167.388 255.863 C 170.031 260.122 171.534 264.97 171.534 270.11902 C 171.534 271.984 171.328 273.81003 170.95 275.587 C 172.23 279.46402 173.834 283.223 175.739 286.848 L 194.225 286.848 C 197.729 280.93 200.05501 274.426 200.93001 267.548 C 199.50002 262.971 198.735 258.164 198.735 253.207 C 198.735 251.1 198.881 249.021 199.149 246.975 C 195.528 235.223 187.586 224.95401 176.848 217.481 C 170.735 228.294 167.31001 240.414 167.31001 253.21 C 167.311 254.098 167.355 254.98 167.388 255.863 z " fill-opacity="0.6"/>
        <path fill="#f1de84" d="M 200.93 267.547 C 203.13899 274.631 206.93599 281.161 211.989 286.846 L 316.86 286.846 C 325.17297 277.492 330.11298 265.838 330.11298 253.20601 C 330.11298 222.35701 300.70197 197.35 264.425 197.35 C 230.624 197.35 202.79898 219.061 199.15399 246.975 C 200.57399 251.57901 201.33699 256.405 201.33699 261.385 C 201.33 263.469 201.188 265.523 200.93 267.547 z " fill-opacity="0.7"/>
        <radialGradient gradientTransform="matrix(1 0 0 1 -172.96 -277.0391)" gradientUnits="userSpaceOnUse" xlink:type="simple" r="56.0801" xlink:actuate="onLoad" cx="437.5935" id="SVGID_6_" cy="519.1367" xlink:show="other">
            <stop stop-color="#f1de84" offset="0"/>
            <stop stop-color="#b0381e" offset="1"/>
        </radialGradient>
        <path fill="url(#SVGID_6_)" d="M 200.93 267.547 C 203.13899 274.631 206.93599 281.161 211.989 286.846 L 316.86 286.846 C 325.17297 277.492 330.11298 265.838 330.11298 253.20601 C 330.11298 222.35701 300.70197 197.35 264.425 197.35 C 230.624 197.35 202.79898 219.061 199.15399 246.975 C 200.57399 251.57901 201.33699 256.405 201.33699 261.385 C 201.33 263.469 201.188 265.523 200.93 267.547 z " fill-opacity="0.7"/>
        <linearGradient x1="371.6912" gradientTransform="matrix(1 0 0 1 -172.96 -277.0391)" y1="534.2998" x2="374.2859" gradientUnits="userSpaceOnUse" y2="534.2998" xlink:type="simple" xlink:actuate="onLoad" id="SVGID_7_" xlink:show="other">
            <stop stop-color="#f1de84" offset="0"/>
            <stop stop-color="#ad832f" offset="0.5506"/>
            <stop stop-color="#f1de84" offset="1"/>
        </linearGradient>
        <path fill="url(#SVGID_7_)" d="M 200.93 267.547 C 201.18799 265.524 201.32599 263.469 201.32599 261.385 C 201.32599 256.405 200.56499 251.57701 199.14499 246.975 C 198.87698 249.022 198.73099 251.098 198.73099 253.20601 C 198.734 258.166 199.503 262.971 200.93 267.547 z " fill-opacity="0.7"/>
        <linearGradient x1="371.6912" gradientTransform="matrix(1 0 0 1 -172.96 -277.0391)" y1="534.2998" x2="374.2859" gradientUnits="userSpaceOnUse" y2="534.2998" xlink:type="simple" xlink:actuate="onLoad" id="SVGID_8_" xlink:show="other">
            <stop stop-color="#f1de84" offset="0"/>
            <stop stop-color="#ad832f" offset="0.5506"/>
            <stop stop-color="#f1de84" offset="1"/>
        </linearGradient>
        <path fill="url(#SVGID_8_)" d="M 200.93 267.547 C 201.18799 265.524 201.32599 263.469 201.32599 261.385 C 201.32599 256.405 200.56499 251.57701 199.14499 246.975 C 198.87698 249.022 198.73099 251.098 198.73099 253.20601 C 198.734 258.166 199.503 262.971 200.93 267.547 z " fill-opacity="0.6"/>
        <linearGradient x1="371.6912" gradientTransform="matrix(1 0 0 1 -172.96 -277.0391)" y1="534.2998" x2="374.2859" gradientUnits="userSpaceOnUse" y2="534.2998" xlink:type="simple" xlink:actuate="onLoad" id="SVGID_9_" xlink:show="other">
            <stop stop-color="#f1de84" offset="0"/>
            <stop stop-color="#ad832f" offset="0.5506"/>
            <stop stop-color="#f1de84" offset="1"/>
        </linearGradient>
        <path fill="url(#SVGID_9_)" d="M 200.93 267.547 C 201.18799 265.524 201.32599 263.469 201.32599 261.385 C 201.32599 256.405 200.56499 251.57701 199.14499 246.975 C 198.87698 249.022 198.73099 251.098 198.73099 253.20601 C 198.734 258.166 199.503 262.971 200.93 267.547 z " fill-opacity="0.9"/>
        <path fill="#f1de84" d="M 167.388 255.863 C 161.364 246.15901 149.379 239.539 135.572 239.539 C 115.712006 239.539 99.61301 253.23 99.61301 270.117 C 99.61301 276.295 101.772 282.038 105.476006 286.846 L 165.668 286.846 C 168.253 283.492 170.078 279.682 170.948 275.586 C 168.866 269.285 167.644 262.68 167.388 255.863 z " fill-opacity="0.6"/>
        <path fill="#b18e3b" d="M 167.388 255.863 C 161.364 246.15901 149.379 239.539 135.572 239.539 C 115.712006 239.539 99.61301 253.23 99.61301 270.117 C 99.61301 276.295 101.772 282.038 105.476006 286.846 L 165.668 286.846 C 168.253 283.492 170.078 279.682 170.948 275.586 C 168.866 269.285 167.644 262.68 167.388 255.863 z " fill-opacity="0.3"/>
        <path fill="#f1de84" d="M 171.535 270.119 C 171.535 264.97098 170.031 260.12198 167.389 255.86299 C 167.643 262.679 168.867 269.283 170.95201 275.587 C 171.328 273.809 171.535 271.984 171.535 270.119 z " fill-opacity="0.7"/>
        <path fill="#f1de84" d="M 171.535 270.119 C 171.535 264.97098 170.031 260.12198 167.389 255.86299 C 167.643 262.679 168.867 269.283 170.95201 275.587 C 171.328 273.809 171.535 271.984 171.535 270.119 z " fill-opacity="0.6"/>
        <path fill="#b18e3b" d="M 171.535 270.119 C 171.535 264.97098 170.031 260.12198 167.389 255.86299 C 167.643 262.679 168.867 269.283 170.95201 275.587 C 171.328 273.809 171.535 271.984 171.535 270.119 z " fill-opacity="0.3"/>
        <linearGradient x1="261.9412" gradientTransform="matrix(1 0 0 1 -172.96 -277.0391)" y1="280.4268" x2="304.2185" gradientUnits="userSpaceOnUse" y2="307.2566" xlink:type="simple" xlink:actuate="onLoad" id="SVGID_10_" xlink:show="other">
            <stop stop-color="#ffffff" offset="0"/>
            <stop stop-color="#b0381e" offset="1"/>
        </linearGradient>
        <path fill="url(#SVGID_10_)" d="M 98.685 27.688 C 98.685 29.369 98.59 31.029999 98.452995 32.681 C 100.725 33.336 103.149994 33.706 105.68199 33.706 C 118.12699 33.706 128.21999 25.126001 128.21999 14.543001 C 128.21999 8.720001 125.15598 3.5130014 120.333984 0.001001358 L 91.897 0.001001358 C 96.253 8.479 98.685 17.841 98.685 27.688 z " fill-opacity="0.6"/>
        <path fill="#f1de84" d="M 91.897 0.0 L 91.027 0.0 C 86.208 3.512 83.143 8.719 83.143 14.542 C 83.143 22.973999 89.554 30.117 98.451996 32.68 C 98.590996 31.03 98.684 29.368 98.684 27.687 C 98.685 17.841 96.253 8.479 91.897 0.0 z " fill-opacity="0.8"/>
        <linearGradient x1="257.5945" gradientTransform="matrix(1 0 0 1 -172.96 -277.0391)" y1="287.2764" x2="299.8705" gradientUnits="userSpaceOnUse" y2="314.1052" xlink:type="simple" xlink:actuate="onLoad" id="SVGID_11_" xlink:show="other">
            <stop stop-color="#ffffff" offset="0"/>
            <stop stop-color="#b0381e" offset="1"/>
        </linearGradient>
        <path fill="url(#SVGID_11_)" d="M 91.897 0.0 L 91.027 0.0 C 86.208 3.512 83.143 8.719 83.143 14.542 C 83.143 22.973999 89.554 30.117 98.451996 32.68 C 98.590996 31.03 98.684 29.368 98.684 27.687 C 98.685 17.841 96.253 8.479 91.897 0.0 z " fill-opacity="0.6"/>
        <path fill="#b18e3b" d="M 215.255 114.611 C 263.625 114.611 302.842 81.268005 302.842 40.136 C 302.842 25.349003 297.75302 11.586002 289.02002 0.002002716 L 141.494 0.002002716 C 132.758 11.585003 127.670006 25.351004 127.670006 40.136 C 127.669 81.268 166.883 114.611 215.255 114.611 z " fill-opacity="0.3"/>
        <radialGradient gradientTransform="matrix(1 0 0 1 -172.96 -277.0391)" gradientUnits="userSpaceOnUse" xlink:type="simple" r="26.229" xlink:actuate="onLoad" cx="233.9548" id="SVGID_12_" cy="330.9395" xlink:show="other">
            <stop stop-color="#f1de84" offset="0"/>
            <stop stop-color="#cd9f3d" offset="1"/>
        </radialGradient>
        <ellipse fill-opacity="0.7" fill="url(#SVGID_12_)" rx="28.259" cx="60.995" ry="24.028" cy="53.9"/>
        <linearGradient x1="417.6042" gradientTransform="matrix(1 0 0 1 -172.96 -277.0391)" y1="531.1123" x2="460.4802" gradientUnits="userSpaceOnUse" y2="531.1123" xlink:type="simple" xlink:actuate="onLoad" id="SVGID_13_" xlink:show="other">
            <stop stop-color="#f1de84" offset="0"/>
            <stop stop-color="#cd9f3d" offset="0.5056"/>
            <stop stop-color="#704d18" offset="1"/>
        </linearGradient>
        <ellipse fill-opacity="0.6" fill="url(#SVGID_13_)" rx="21.438" cx="266.082" ry="18.229" cy="254.073" stroke="#d7cee6" stroke-opacity="0.6"/>
        <ellipse fill-opacity="0.6" fill="#f1de84" rx="36.585" cx="171.077" ry="31.109" cy="51.812"/>
        <ellipse fill-opacity="0.6" fill="#f6a2a0" rx="42.876" cx="138.995" ry="36.459" cy="153.982"/>
        <path fill="#cfecff" d="M 5.993 268.05 " fill-opacity="0.6" stroke-opacity="0.6" stroke="#ffffff"/>
        <path fill="#cfecff" d="M 5.993 268.05 " fill-opacity="0.6" stroke-opacity="0.6" stroke="#ffffff"/>
        <g>
            <path fill="#0046b7" d="M 23.466 3.626 C 13.127 3.626 4.195 8.755 0.0 16.183 L 0.0 35.318 C 4.195 42.745003 13.127 47.875 23.466 47.875 C 37.836 47.875 49.487 37.97 49.487 25.752 C 49.484 13.531 37.836 3.626 23.466 3.626 z " fill-opacity="0.3"/>
        </g>
        <g>
            <linearGradient x1="172.9597" gradientTransform="matrix(1 0 0 1 -172.96 -277.0391)" y1="398.4385" x2="252.449" gradientUnits="userSpaceOnUse" y2="398.4385" xlink:type="simple" xlink:actuate="onLoad" id="SVGID_14_" xlink:show="other">
                <stop stop-color="#f1de84" offset="0"/>
                <stop stop-color="#cd9f3d" offset="0.5056"/>
                <stop stop-color="#704d18" offset="1"/>
            </linearGradient>
            <path fill="url(#SVGID_14_)" d="M 38.079 86.187 C 20.992998 86.187 6.3269978 94.988 0.0 107.548 L 0.0 135.25099 C 6.327 147.81099 20.993 156.611 38.079 156.611 C 60.948997 156.611 79.489 140.846 79.489 121.39699 C 79.488 101.953 60.948 86.187 38.079 86.187 z " fill-opacity="0.7"/>
        </g>
        <g>
            <path fill="none" d="M 21.549 192.982 C 22.126999 192.679 22.517 192.23 22.706 191.63199 C 22.897999 191.03899 22.848999 190.45699 22.55 189.88998 C 22.254 189.31998 21.807999 188.94699 21.209 188.76299 C 20.611 188.57898 20.022999 188.64198 19.444 188.94699 C 18.863 189.249 18.478 189.69699 18.286 190.29199 C 18.092999 190.88899 18.144999 191.471 18.442 192.038 C 18.739 192.609 19.185 192.982 19.782999 193.165 C 20.380999 193.34799 20.97 193.286 21.549 192.982 z "/>
            <path fill="none" d="M 17.51 244.992 C 16.985 244.601 16.411 244.453 15.792 244.539 C 15.175 244.627 14.675 244.93001 14.295 245.44301 C 13.913 245.96 13.774 246.52501 13.87 247.14201 C 13.972 247.75801 14.281 248.26302 14.808 248.65001 C 15.33 249.04102 15.903999 249.18901 16.521 249.10301 C 17.14 249.01701 17.64 248.71301 18.021 248.20102 C 18.403 247.68301 18.542 247.11803 18.444 246.50201 C 18.347 245.882 18.035 245.38 17.51 244.992 z "/>
            <path fill="none" d="M 22.338 247.921 C 21.751999 247.63501 21.161 247.591 20.567 247.789 C 19.977999 247.988 19.541 248.376 19.261 248.951 C 18.980999 249.529 18.947 250.11101 19.156 250.7 C 19.366 251.289 19.764 251.726 20.352 252.012 C 20.939999 252.29799 21.531 252.344 22.123 252.14499 C 22.715 251.94798 23.148998 251.55899 23.432999 250.98299 C 23.710999 250.40498 23.745998 249.82098 23.536999 249.23299 C 23.325 248.643 22.928 248.208 22.338 247.921 z "/>
            <path fill="none" d="M 13.294 241.227 C 12.851 240.748 12.315 240.498 11.69 240.47101 C 11.066 240.44402 10.521 240.647 10.049999 241.08601 C 9.582999 241.52402 9.341 242.057 9.322999 242.68001 C 9.308999 243.30501 9.523999 243.858 9.968999 244.33301 C 10.413999 244.81201 10.947999 245.06201 11.572999 245.091 C 12.194999 245.12001 12.742999 244.91501 13.210999 244.479 C 13.681998 244.041 13.921999 243.507 13.939999 242.882 C 13.956 242.257 13.741 241.708 13.294 241.227 z "/>
            <path fill="none" d="M 32.3 189.7 C 32.947998 189.62999 33.472 189.347 33.864 188.86499 C 34.260998 188.381 34.422997 187.818 34.351997 187.17899 C 34.28 186.53998 33.997997 186.03099 33.504997 185.64398 C 33.013996 185.25598 32.443996 185.10098 31.792997 185.17097 C 31.146997 185.24298 30.622997 185.52498 30.229998 186.01097 C 29.833998 186.49097 29.670998 187.05797 29.744997 187.69498 C 29.814997 188.33298 30.098997 188.84497 30.588997 189.22998 C 31.08 189.618 31.65 189.771 32.3 189.7 z "/>
            <path fill="none" d="M 10.166 238.504 C 10.295 237.893 10.187 237.30899 9.831 236.756 C 9.4800005 236.203 9.001 235.86 8.393001 235.716 C 7.785001 235.574 7.2060003 235.67601 6.667001 236.024 C 6.125001 236.37201 5.791001 236.848 5.6620007 237.462 C 5.5330005 238.076 5.6430006 238.654 5.995001 239.20801 C 6.349001 239.76201 6.8270006 240.10501 7.4370008 240.24701 C 8.042001 240.391 8.620001 240.28601 9.161001 239.93901 C 9.702 239.594 10.037 239.117 10.166 238.504 z "/>
            <path fill="none" d="M 33.178 250.889 C 32.527 250.83601 31.958002 251.007 31.480001 251.41 C 30.999 251.808 30.734001 252.33 30.681002 252.97101 C 30.626001 253.61401 30.806002 254.16501 31.212002 254.641 C 31.621002 255.11401 32.15 255.37401 32.805 255.43001 C 33.455 255.48701 34.022 255.313 34.5 254.91 C 34.981 254.51201 35.248 253.988 35.303 253.349 C 35.356003 252.707 35.179 252.152 34.768 251.679 C 34.361 251.207 33.83 250.943 33.178 250.889 z "/>
            <path fill="none" d="M 67.708 211.824 C 67.079 211.94101 66.591 212.26201 66.242 212.783 C 65.895 213.304 65.782 213.88501 65.905 214.52701 C 66.026 215.171 66.341995 215.671 66.854 216.02701 C 67.366 216.386 67.937996 216.505 68.56799 216.386 C 69.19899 216.267 69.687 215.947 70.034 215.427 C 70.381 214.906 70.494995 214.322 70.37299 213.683 C 70.25199 213.037 69.93499 212.537 69.423996 212.181 C 68.911 211.824 68.339 211.706 67.708 211.824 z "/>
            <path fill="none" d="M 27.622 249.909 C 26.99 249.736 26.402 249.803 25.855 250.107 C 25.31 250.41199 24.953999 250.873 24.784 251.49199 C 24.616001 252.11299 24.688 252.693 25.004 253.232 C 25.317999 253.773 25.791 254.12799 26.421999 254.297 C 27.057 254.472 27.644 254.401 28.189 254.103 C 28.734 253.795 29.091 253.332 29.259998 252.717 C 29.429998 252.097 29.357998 251.517 29.041998 250.978 C 28.725 250.439 28.252 250.081 27.622 249.909 z "/>
            <path fill="none" d="M 26.776 190.839 C 27.403 190.651 27.866 190.27701 28.162998 189.731 C 28.461998 189.18001 28.519 188.6 28.332998 187.985 C 28.145998 187.375 27.776 186.922 27.222998 186.631 C 26.665998 186.341 26.076998 186.293 25.451998 186.485 C 24.827997 186.676 24.363998 187.048 24.066998 187.594 C 23.765997 188.14299 23.711998 188.72499 23.898998 189.338 C 24.085 189.952 24.455997 190.401 25.006998 190.692 C 25.561 190.982 26.15 191.029 26.776 190.839 z "/>
            <path fill="none" d="M 6.23 205.318 C 6.78 205.648 7.356 205.734 7.959 205.575 C 8.563 205.418 9.032 205.056 9.369 204.497 C 9.704 203.935 9.799001 203.34999 9.651 202.74199 C 9.505 202.137 9.158 201.66599 8.606 201.33699 C 8.056 201.00699 7.48 200.92299 6.877 201.081 C 6.273 201.23799 5.805 201.59999 5.469 202.15999 C 5.132 202.72299 5.0369997 203.30598 5.185 203.915 C 5.332 204.521 5.682 204.99 6.23 205.318 z "/>
            <path fill="none" d="M 3.998 210.982 C 4.6019998 211.204 5.186 211.183 5.748 210.91699 C 6.3110003 210.648 6.7060003 210.20999 6.936 209.596 C 7.163 208.98299 7.1489997 208.39099 6.8929996 207.819 C 6.6359997 207.251 6.207 206.854 5.6089997 206.631 C 5.0049996 206.407 4.422 206.43399 3.8609996 206.69699 C 3.2969995 206.965 2.9019995 207.40399 2.6729996 208.01498 C 2.4459996 208.62898 2.4619997 209.22198 2.7159996 209.79099 C 2.97 210.363 3.396 210.76 3.998 210.982 z "/>
            <path fill="none" d="M 11.118 200.734 C 11.741 200.687 12.27 200.41899 12.703 199.926 C 13.134 199.435 13.335 198.875 13.307 198.25099 C 13.272 197.62599 13.016 197.103 12.535 196.67899 C 12.056 196.25099 11.504 196.06598 10.88 196.11299 C 10.257 196.15799 9.7300005 196.426 9.295 196.91699 C 8.862 197.409 8.6640005 197.969 8.6970005 198.594 C 8.7300005 199.21599 8.986 199.743 9.467001 200.168 C 9.944 200.59 10.496 200.779 11.118 200.734 z "/>
            <path fill="none" d="M 15.104 196.55 C 15.725 196.617 16.292 196.449 16.807 196.047 C 17.321 195.64299 17.619999 195.129 17.700998 194.51 C 17.781998 193.89299 17.624998 193.32599 17.227999 192.82199 C 16.831999 192.316 16.324 192.02899 15.703999 191.961 C 15.082998 191.893 14.515999 192.061 13.999998 192.463 C 13.483998 192.867 13.188998 193.38 13.105998 194.0 C 13.024998 194.619 13.182998 195.184 13.578998 195.689 C 13.975 196.193 14.482 196.48 15.104 196.55 z "/>
            <path fill="none" d="M 2.846 216.965 C 3.478 217.06999 4.042 216.944 4.549 216.57599 C 5.0559998 216.20798 5.362 215.702 5.474 215.05598 C 5.582 214.40898 5.458 213.82698 5.104 213.31598 C 4.748 212.79997 4.251 212.49298 3.6230001 212.38098 C 2.992 212.27698 2.423 212.40198 1.9180001 212.77498 C 1.4130001 213.14198 1.105 213.64598 0.9950001 214.29398 C 0.88600016 214.93997 1.0090002 215.51797 1.3640001 216.03297 C 1.72 216.546 2.213 216.857 2.846 216.965 z "/>
            <path fill="none" d="M 3.86 229.043 C 4.4909997 228.91699 4.976 228.59 5.314 228.066 C 5.656 227.543 5.763 226.961 5.636 226.318 C 5.5030003 225.672 5.184 225.176 4.668 224.82799 C 4.151 224.47598 3.5770001 224.36299 2.9490004 224.48999 C 2.3200004 224.61499 1.8340003 224.939 1.4930004 225.465 C 1.1530004 225.98799 1.0460004 226.57199 1.1730003 227.21199 C 1.3040004 227.85599 1.6250004 228.35199 2.1430004 228.70299 C 2.66 229.055 3.231 229.168 3.86 229.043 z "/>
            <path fill="none" d="M 7.256 233.507 C 7.497 232.93001 7.493 232.338 7.249 231.733 C 7.005 231.127 6.6 230.698 6.0230002 230.446 C 5.452 230.196 4.868 230.192 4.2730002 230.43 C 3.6780005 230.66798 3.2580004 231.079 3.0220003 231.65799 C 2.7830002 232.23299 2.7870004 232.82799 3.0290003 233.43399 C 3.2750003 234.04099 3.6820002 234.467 4.255 234.719 C 4.826 234.969 5.412 234.97699 6.006 234.735 C 6.602 234.496 7.019 234.086 7.256 233.507 z "/>
            <path fill="none" d="M 2.807 223.049 C 3.448 223.039 3.9819999 222.80899 4.411 222.35399 C 4.842 221.89899 5.054 221.34799 5.042 220.69199 C 5.0299997 220.04 4.805 219.49199 4.3589997 219.04698 C 3.9139998 218.60898 3.3729997 218.39499 2.7319999 218.40398 C 2.087 218.41597 1.5549998 218.64598 1.1249999 219.10098 C 0.6949999 219.55098 0.4849999 220.10698 0.49599987 220.76299 C 0.50599986 221.41298 0.73299986 221.96098 1.1809999 222.40399 C 1.622 222.844 2.164 223.061 2.807 223.049 z "/>
            <path fill="none" d="M 60.137 240.042 C 59.515 240.07901 58.986 240.34201 58.545002 240.826 C 58.107002 241.312 57.9 241.86801 57.93 242.49 C 57.953 243.117 58.204 243.64401 58.682 244.074 C 59.158 244.505 59.705997 244.697 60.328 244.66101 C 60.952 244.62102 61.481 244.35901 61.919 243.87401 C 62.357 243.389 62.565 242.83401 62.536 242.21 C 62.512 241.585 62.260998 241.059 61.781998 240.62701 C 61.311 240.197 60.761 240.001 60.137 240.042 z "/>
            <path fill="none" d="M 67.371 229.875 C 66.771 229.645 66.188 229.661 65.621 229.923 C 65.056 230.184 64.651 230.619 64.419 231.233 C 64.187 231.844 64.192 232.436 64.441 233.01 C 64.689 233.581 65.115005 233.985 65.711 234.21199 C 66.312996 234.441 66.895996 234.42499 67.461 234.165 C 68.028 233.902 68.433 233.469 68.663 232.855 C 68.897 232.243 68.892 231.648 68.642 231.077 C 68.394 230.504 67.969 230.104 67.371 229.875 z "/>
            <path fill="none" d="M 49.441 192.734 C 50.025 193.02899 50.615 193.079 51.210003 192.88599 C 51.807003 192.69499 52.245003 192.30998 52.530003 191.73799 C 52.817 191.165 52.858 190.581 52.655003 189.98999 C 52.452003 189.4 52.057003 188.958 51.472004 188.66699 C 50.888004 188.374 50.296005 188.32199 49.701004 188.51599 C 49.106003 188.706 48.666004 189.09099 48.381004 189.665 C 48.096004 190.236 48.054005 190.81999 48.257004 191.411 C 48.463 192.001 48.857 192.443 49.441 192.734 z "/>
            <path fill="none" d="M 56.101 244.184 C 55.481003 244.11 54.912003 244.27 54.393 244.669 C 53.872 245.06601 53.57 245.574 53.482002 246.19301 C 53.394005 246.81201 53.544003 247.37502 53.932003 247.88101 C 54.324 248.39401 54.828003 248.68501 55.446003 248.76102 C 56.067 248.83401 56.635002 248.67102 57.154003 248.27702 C 57.675003 247.87802 57.977005 247.37003 58.067 246.75203 C 58.155003 246.13503 58.004 245.56802 57.617 245.06303 C 57.225 244.55 56.72 244.26 56.101 244.184 z "/>
            <path fill="none" d="M 51.385 247.518 C 50.790997 247.33 50.200996 247.382 49.618 247.682 C 49.034 247.975 48.642 248.421 48.444 249.014 C 48.243 249.606 48.287 250.188 48.578 250.76001 C 48.869 251.33202 49.312 251.71301 49.909 251.90302 C 50.504 252.09102 51.093002 252.03801 51.68 251.73901 C 52.263 251.44202 52.655 251.001 52.854 250.40501 C 53.055 249.81302 53.007 249.23102 52.716 248.65901 C 52.425 248.085 51.981 247.707 51.385 247.518 z "/>
            <path fill="none" d="M 54.243 195.723 C 54.764 196.119 55.334 196.276 55.953 196.194 C 56.572 196.12 57.073997 195.821 57.461998 195.309 C 57.850998 194.79701 57.995 194.233 57.904 193.61801 C 57.809 193.00002 57.503998 192.49402 56.982998 192.09702 C 56.461998 191.70102 55.89 191.54402 55.270996 191.62401 C 54.653996 191.69801 54.148994 191.99701 53.763996 192.509 C 53.373997 193.02301 53.228996 193.587 53.322994 194.202 C 53.413 194.82 53.721 195.327 54.243 195.723 z "/>
            <path fill="none" d="M 68.59 223.913 C 67.959 223.797 67.392 223.92099 66.878 224.28099 C 66.368996 224.64198 66.058 225.14198 65.939995 225.78899 C 65.82199 226.43599 65.939995 227.01599 66.29099 227.53398 C 66.64399 228.04999 67.132996 228.36497 67.76599 228.47998 C 68.39499 228.59499 68.96599 228.46999 69.47599 228.11098 C 69.98599 227.75197 70.29899 227.24698 70.413994 226.60498 C 70.53099 225.95798 70.413994 225.37598 70.064995 224.86098 C 69.712 224.344 69.222 224.027 68.59 223.913 z "/>
            <path fill="none" d="M 68.67 217.798 C 68.029 217.809 67.493 218.041 67.066 218.49301 C 66.633 218.947 66.423004 219.50201 66.437004 220.156 C 66.44701 220.81201 66.672005 221.35701 67.119 221.79901 C 67.563 222.23701 68.106 222.45302 68.747 222.44402 C 69.39 222.43202 69.922005 222.20401 70.352005 221.75201 C 70.782005 221.29701 70.992004 220.74002 70.981 220.08801 C 70.97 219.43701 70.744 218.88501 70.296005 218.44202 C 69.853 218.003 69.312 217.79 68.67 217.798 z "/>
            <path fill="none" d="M 65.073 235.514 C 64.526 235.17601 63.949997 235.08401 63.344997 235.23901 C 62.739998 235.38701 62.264996 235.74802 61.921997 236.30301 C 61.581997 236.86201 61.482 237.44601 61.617996 238.05301 C 61.760998 238.66101 62.100998 239.13501 62.646996 239.47101 C 63.193996 239.807 63.769997 239.899 64.37499 239.744 C 64.979996 239.59201 65.452995 239.23601 65.79499 238.681 C 66.14099 238.12 66.23799 237.536 66.10299 236.931 C 65.961 236.32 65.62 235.848 65.073 235.514 z "/>
            <path fill="none" d="M 61.507 202.288 C 61.371 202.896 61.478 203.478 61.823 204.03699 C 62.167004 204.594 62.643 204.94499 63.251003 205.096 C 63.856003 205.24199 64.434006 205.14899 64.979004 204.80899 C 65.522 204.469 65.86201 203.99599 65.998 203.383 C 66.132 202.776 66.027 202.192 65.685 201.635 C 65.337 201.077 64.863 200.72699 64.255 200.57799 C 63.649 200.43 63.072 200.523 62.526997 200.86299 C 61.981 201.201 61.644 201.676 61.507 202.288 z "/>
            <path fill="none" d="M 38.634 189.645 C 39.282997 189.70801 39.854 189.541 40.336998 189.145 C 40.82 188.75 41.093 188.235 41.153 187.598 C 41.213 186.95801 41.04 186.399 40.637 185.92201 C 40.233 185.445 39.703003 185.17401 39.054 185.113 C 38.405003 185.05 37.835 185.218 37.352 185.613 C 36.868 186.00601 36.594 186.52101 36.536003 187.16301 C 36.476 187.80301 36.648003 188.35701 37.054005 188.83601 C 37.455 189.313 37.982 189.583 38.634 189.645 z "/>
            <path fill="none" d="M 58.415 199.531 C 58.855 200.015 59.392002 200.27301 60.014 200.308 C 60.638 200.342 61.184 200.144 61.659 199.708 C 62.132 199.27399 62.379 198.747 62.402 198.122 C 62.423 197.499 62.213 196.942 61.773 196.459 C 61.333 195.98 60.798 195.722 60.174 195.685 C 59.55 195.65 59.002 195.849 58.529 196.284 C 58.054 196.716 57.809 197.245 57.788 197.87 C 57.765 198.493 57.975 199.047 58.415 199.531 z "/>
            <path fill="none" d="M 46.134 249.932 C 45.584 249.63501 44.994 249.57901 44.364998 249.764 C 43.738 249.95201 43.269997 250.311 42.963997 250.86 C 42.662 251.405 42.6 251.985 42.775997 252.602 C 42.956997 253.216 43.322998 253.67201 43.872997 253.96901 C 44.424995 254.26201 45.016 254.31902 45.643997 254.13301 C 46.270996 253.949 46.739 253.58401 47.042995 253.03801 C 47.348995 252.492 47.410995 251.912 47.230995 251.296 C 47.05 250.68 46.686 250.223 46.134 249.932 z "/>
            <path fill="none" d="M 64.36 207.311 C 64.116 207.88701 64.112 208.481 64.348 209.09001 C 64.585 209.699 64.989 210.13301 65.558 210.391 C 66.125 210.649 66.709 210.662 67.308 210.42601 C 67.904 210.19402 68.326996 209.78801 68.571 209.21501 C 68.817 208.639 68.82 208.046 68.583 207.43802 C 68.348 206.83002 67.94 206.39302 67.373 206.13503 C 66.806 205.87802 66.224 205.86502 65.623 206.10002 C 65.025 206.332 64.605 206.738 64.36 207.311 z "/>
            <path fill="none" d="M 44.182 190.688 C 44.809 190.87001 45.399 190.807 45.947 190.50801 C 46.495 190.21101 46.856 189.75201 47.035 189.13501 C 47.21 188.518 47.143 187.938 46.834 187.397 C 46.526 186.852 46.059 186.492 45.432 186.311 C 44.801 186.13 44.212997 186.19 43.665 186.489 C 43.115 186.789 42.752003 187.248 42.575 187.862 C 42.4 188.479 42.467 189.059 42.774002 189.604 C 43.081 190.146 43.551 190.507 44.182 190.688 z "/>
            <path fill="none" d="M 40.533 251.331 C 40.049 250.939 39.48 250.775 38.828 250.84 C 38.181 250.90399 37.654 251.178 37.252 251.65799 C 36.855 252.13799 36.689 252.69699 36.747997 253.33598 C 36.811996 253.97699 37.087997 254.48999 37.574997 254.88199 C 38.061996 255.27399 38.630997 255.43599 39.28 255.37 C 39.931 255.305 40.454 255.03299 40.856 254.553 C 41.253 254.07399 41.420998 253.51599 41.358997 252.87599 C 41.296 252.234 41.021 251.723 40.533 251.331 z "/>
            <radialGradient gradientTransform="matrix(3.52 0 0 -3.5261 188.8007 53.1835)" gradientUnits="userSpaceOnUse" xlink:type="simple" r="10.8643" xlink:actuate="onLoad" cx="-43.4832" id="SVGID_15_" cy="-47.3848" xlink:show="other">
                <stop stop-color="#f1de84" offset="0"/>
                <stop stop-color="#cd9f3d" offset="0.5337"/>
                <stop stop-color="#704d18" offset="1"/>
            </radialGradient>
            <path fill="url(#SVGID_15_)" d="M 35.736 181.961 C 19.418 181.961 5.495001 192.201 0.0 206.609 L 0.0 233.922 C 5.495 248.332 19.418 258.568 35.736 258.568 C 56.864 258.568 73.988 241.422 73.988 220.26498 C 73.988 199.111 56.864 181.961 35.736 181.961 z M 13.105 194.002 C 13.188 193.382 13.485 192.869 13.999 192.465 C 14.516999 192.06099 15.082 191.89299 15.7039995 191.961 C 16.324 192.02899 16.833 192.318 17.227999 192.824 C 17.623 193.328 17.780998 193.89 17.699 194.51201 C 17.618 195.13101 17.321 195.643 16.805 196.04901 C 16.287 196.451 15.724 196.61902 15.102 196.55101 C 14.481 196.48302 13.975 196.19601 13.579 195.69002 C 13.184 195.184 13.026 194.622 13.105 194.002 z M 9.293 196.917 C 9.728001 196.42801 10.255 196.158 10.876 196.113 C 11.5 196.06601 12.054001 196.257 12.531 196.679 C 13.014 197.103 13.27 197.626 13.302 198.251 C 13.331 198.875 13.132 199.43501 12.698 199.927 C 12.265 200.41501 11.738 200.687 11.114 200.73401 C 10.492001 200.779 9.942 200.58801 9.461 200.16801 C 8.982 199.74301 8.727 199.21602 8.691 198.59401 C 8.659 197.967 8.86 197.409 9.293 196.917 z M 5.471 202.16 C 5.806 201.597 6.275 201.238 6.8780003 201.08101 C 7.4820004 200.923 8.059 201.007 8.607 201.337 C 9.157001 201.666 9.503 202.13701 9.652 202.742 C 9.798 203.349 9.705001 203.935 9.369 204.49701 C 9.034 205.059 8.563001 205.41801 7.9590006 205.57501 C 7.3560004 205.73401 6.778001 205.64801 6.2300005 205.31801 C 5.6800003 204.99101 5.3310003 204.51901 5.1830006 203.91501 C 5.039 203.307 5.135 202.723 5.471 202.16 z M 2.671 208.016 C 2.9 207.403 3.295 206.96101 3.859 206.696 C 4.422 206.428 5.005 206.405 5.607 206.631 C 6.207 206.859 6.633 207.25 6.891 207.819 C 7.147 208.391 7.161 208.983 6.934 209.596 C 6.705 210.20999 6.3120003 210.65099 5.7460003 210.91699 C 5.183 211.18599 4.6000004 211.204 3.9960003 210.98 C 3.3940003 210.758 2.9700003 210.36299 2.7120004 209.79199 C 2.459 209.223 2.444 208.629 2.671 208.016 z M 0.993 214.294 C 1.1029999 213.647 1.41 213.143 1.9159999 212.77501 C 2.4229999 212.406 2.9899998 212.27701 3.6209998 212.382 C 4.2539997 212.489 4.7469997 212.802 5.104 213.31601 C 5.458 213.83101 5.5820003 214.41101 5.472 215.05602 C 5.3640003 215.70201 5.056 216.20302 4.547 216.57602 C 4.042 216.94102 3.4759998 217.07002 2.8439999 216.96503 C 2.211 216.85803 1.7189999 216.54602 1.3639998 216.03302 C 1.007 215.518 0.883 214.939 0.993 214.294 z M 1.124 219.102 C 1.556 218.647 2.09 218.414 2.731 218.405 C 3.372 218.397 3.914 218.61 4.358 219.051 C 4.799 219.489 5.028 220.038 5.041 220.69699 C 5.051 221.351 4.841 221.90399 4.41 222.359 C 3.9799998 222.814 3.4459999 223.047 2.8059998 223.054 C 2.1609998 223.066 1.6189997 222.851 1.1769998 222.408 C 0.73399985 221.97 0.5029998 221.423 0.4919998 220.768 C 0.484 220.109 0.694 219.555 1.124 219.102 z M 1.177 227.212 C 1.0480001 226.572 1.156 225.988 1.4940001 225.46501 C 1.8320001 224.94202 2.321 224.615 2.95 224.49 C 3.5770001 224.363 4.15 224.476 4.667 224.828 C 5.1829996 225.18001 5.5039997 225.67601 5.633 226.31801 C 5.764 226.96 5.654 227.54301 5.315 228.06601 C 4.974 228.587 4.492 228.917 3.861 229.04301 C 3.232 229.16801 2.661 229.05501 2.144 228.70302 C 1.627 228.352 1.306 227.855 1.177 227.212 z M 4.255 234.719 C 3.686 234.467 3.2770002 234.041 3.0290003 233.43399 C 2.7870002 232.82799 2.7830002 232.23299 3.0220003 231.65799 C 3.2610004 231.083 3.6790004 230.674 4.2730002 230.43 C 4.868 230.19199 5.452 230.196 6.0230002 230.446 C 6.5950003 230.698 7.0020003 231.127 7.249 231.733 C 7.493 232.338 7.497 232.932 7.256 233.507 C 7.021 234.086 6.603 234.49501 6.006 234.735 C 5.412 234.977 4.826 234.969 4.255 234.719 z M 7.438 240.246 C 6.828 240.105 6.347 239.76001 5.9960003 239.207 C 5.643 238.654 5.5340004 238.072 5.663 237.461 C 5.792 236.84999 6.127 236.369 6.668 236.023 C 7.208 235.67299 7.782 235.577 8.394 235.713 C 9.0 235.859 9.483 236.2 9.832 236.75299 C 10.186 237.30798 10.296 237.892 10.167 238.50099 C 10.038 239.10799 9.703 239.59099 9.164 239.939 C 8.621 240.285 8.047 240.387 7.438 240.246 z M 11.577 245.094 C 10.953 245.067 10.419 244.81299 9.973 244.33499 C 9.528 243.85599 9.313 243.30699 9.327 242.68199 C 9.342999 242.05699 9.585 241.52399 10.0529995 241.086 C 10.523 240.647 11.07 240.441 11.693999 240.471 C 12.317999 240.497 12.853 240.74799 13.297999 241.22899 C 13.744999 241.708 13.959999 242.26 13.943999 242.883 C 13.926 243.508 13.688 244.038 13.216999 244.481 C 12.746 244.916 12.199 245.122 11.577 245.094 z M 18.022 248.201 C 17.639 248.71901 17.139 249.017 16.522 249.103 C 15.904999 249.189 15.332999 249.04 14.806999 248.65 C 14.282999 248.263 13.969999 247.75699 13.8689995 247.142 C 13.771 246.525 13.912 245.954 14.292999 245.443 C 14.674999 244.926 15.174999 244.627 15.791999 244.53899 C 16.411 244.45299 16.980999 244.60199 17.506998 244.99199 C 18.030998 245.381 18.345999 245.883 18.444998 246.50198 C 18.543 247.118 18.402 247.684 18.022 248.201 z M 18.442 192.038 C 18.144999 191.471 18.088999 190.88899 18.286 190.29199 C 18.477999 189.69699 18.862999 189.249 19.444 188.94699 C 20.023 188.642 20.611 188.583 21.209 188.76299 C 21.807999 188.94699 22.254 189.32199 22.55 189.88998 C 22.848999 190.45699 22.903 191.03899 22.706 191.63599 C 22.517 192.22998 22.126999 192.67899 21.549 192.98198 C 20.972 193.28598 20.381 193.34499 19.782 193.16498 C 19.185 192.984 18.739 192.609 18.442 192.038 z M 23.431 250.98 C 23.151 251.556 22.713 251.94499 22.121 252.144 C 21.53 252.338 20.938 252.293 20.35 252.007 C 19.762001 251.726 19.364 251.284 19.154001 250.696 C 18.945002 250.106 18.979002 249.522 19.259 248.948 C 19.535 248.371 19.976002 247.981 20.565 247.784 C 21.158 247.58699 21.749 247.633 22.336 247.916 C 22.927 248.203 23.322 248.642 23.534 249.229 C 23.746 249.82 23.71 250.402 23.431 250.98 z M 23.897 189.338 C 23.708 188.72499 23.765 188.14299 24.064999 187.594 C 24.362 187.045 24.826998 186.674 25.449999 186.485 C 26.075998 186.297 26.664999 186.342 27.220999 186.631 C 27.776999 186.92 28.145998 187.371 28.331 187.985 C 28.519 188.6 28.46 189.18001 28.161 189.731 C 27.863998 190.278 27.401 190.651 26.774 190.839 C 26.149 191.02701 25.559 190.983 25.003 190.692 C 24.454 190.402 24.083 189.955 23.897 189.338 z M 29.26 252.719 C 29.092001 253.336 28.734001 253.79999 28.189001 254.10399 C 27.644001 254.413 27.057001 254.47499 26.422 254.303 C 25.791 254.12799 25.318 253.77399 25.004002 253.235 C 24.691002 252.696 24.616001 252.114 24.784002 251.495 C 24.954002 250.87799 25.310001 250.415 25.855001 250.108 C 26.401001 249.801 26.989002 249.739 27.622002 249.914 C 28.253002 250.086 28.726002 250.44 29.042002 250.981 C 29.354 251.52 29.428 252.1 29.26 252.719 z M 29.746 187.695 C 29.674 187.05801 29.837 186.49701 30.231 186.011 C 30.626001 185.52701 31.147001 185.243 31.794 185.171 C 32.445 185.101 33.016 185.25801 33.506 185.64401 C 33.997 186.031 34.277 186.54001 34.353 187.17902 C 34.420002 187.81802 34.258 188.37701 33.865 188.86502 C 33.469 189.34702 32.949 189.63002 32.301003 189.70003 C 31.655003 189.77103 31.080002 189.61803 30.591003 189.23003 C 30.098 188.846 29.816 188.333 29.746 187.695 z M 34.502 254.908 C 34.023 255.304 33.457 255.476 32.807 255.42601 C 32.156 255.37201 31.623 255.11002 31.213999 254.63501 C 30.808998 254.16101 30.627998 253.60802 30.682999 252.96701 C 30.735998 252.328 30.998999 251.809 31.481998 251.406 C 31.960999 251.00801 32.528 250.837 33.18 250.888 C 33.829 250.943 34.363 251.203 34.77 251.679 C 35.181 252.15 35.358 252.703 35.305 253.347 C 35.25 253.988 34.983 254.507 34.502 254.908 z M 70.372 213.684 C 70.494 214.33 70.380005 214.91101 70.033005 215.42801 C 69.686005 215.949 69.198006 216.268 68.567 216.38701 C 67.938 216.50401 67.365 216.38701 66.853004 216.02802 C 66.337006 215.67401 66.025 215.17401 65.90401 214.52802 C 65.78001 213.88202 65.894005 213.30101 66.241005 212.78601 C 66.590004 212.26501 67.078 211.94202 67.70701 211.82701 C 68.338005 211.70901 68.91001 211.82701 69.422005 212.182 C 69.934 212.538 70.251 213.04 70.372 213.684 z M 70.979 220.084 C 70.991 220.738 70.781 221.293 70.35 221.748 C 69.918 222.2 69.386 222.434 68.744995 222.44301 C 68.104 222.45201 67.561 222.238 67.118 221.79701 C 66.674995 221.35901 66.446 220.81302 66.437 220.15201 C 66.423 219.50002 66.631 218.94301 67.063995 218.49101 C 67.493996 218.03902 68.03 217.80402 68.66799 217.796 C 69.31099 217.785 69.85499 218.001 70.29699 218.442 C 70.742 218.879 70.97 219.43 70.979 220.084 z M 67.373 206.135 C 67.94 206.39299 68.348 206.825 68.583 207.43799 C 68.82 208.04599 68.817 208.63899 68.571 209.21498 C 68.326996 209.78798 67.904 210.19398 67.308 210.42598 C 66.709 210.65898 66.125 210.64899 65.558 210.39098 C 64.989 210.13298 64.585 209.70297 64.348 209.08998 C 64.113 208.48099 64.116 207.88698 64.36 207.31097 C 64.606 206.73897 65.025 206.33197 65.623 206.09798 C 66.221 205.865 66.804 205.878 67.373 206.135 z M 64.251 200.578 C 64.858 200.724 65.334 201.077 65.681 201.63501 C 66.027 202.19202 66.129 202.77602 65.994 203.38301 C 65.86 203.994 65.520004 204.46901 64.975006 204.809 C 64.43001 205.149 63.856007 205.246 63.247005 205.09601 C 62.642006 204.949 62.164005 204.59401 61.819004 204.037 C 61.472004 203.478 61.369003 202.896 61.503002 202.28801 C 61.643 201.67801 61.981003 201.201 62.524002 200.863 C 63.069 200.523 63.645 200.43 64.251 200.578 z M 60.173 195.686 C 60.797 195.723 61.328 195.981 61.772 196.462 C 62.21 196.947 62.42 197.502 62.401 198.125 C 62.379 198.75 62.13 199.279 61.658 199.711 C 61.183002 200.145 60.637 200.344 60.013 200.309 C 59.391 200.274 58.858 200.016 58.414 199.533 C 57.976 199.05101 57.767002 198.496 57.787003 197.873 C 57.808002 197.248 58.058002 196.719 58.528004 196.287 C 59.001 195.85 59.549 195.65 60.173 195.686 z M 36.537 187.164 C 36.6 186.523 36.869 186.007 37.352997 185.613 C 37.836 185.218 38.405 185.052 39.054996 185.115 C 39.703995 185.175 40.233997 185.445 40.637997 185.923 C 41.038 186.401 41.209995 186.959 41.153996 187.598 C 41.093994 188.23701 40.820995 188.751 40.337997 189.147 C 39.854996 189.543 39.283997 189.71 38.635 189.647 C 37.987 189.584 37.455997 189.315 37.054996 188.837 C 36.648 188.359 36.479 187.803 36.537 187.164 z M 40.856 254.553 C 40.454 255.032 39.931 255.305 39.28 255.36899 C 38.631 255.43199 38.062 255.26898 37.574997 254.88098 C 37.088997 254.48997 36.811996 253.97498 36.747997 253.33498 C 36.685997 252.69498 36.852997 252.13898 37.252 251.65598 C 37.654 251.17697 38.18 250.90398 38.828 250.83897 C 39.48 250.77597 40.049 250.93997 40.533 251.32997 C 41.019 251.72298 41.296 252.23398 41.36 252.87497 C 41.425 253.514 41.256 254.072 40.856 254.553 z M 42.575 187.861 C 42.75 187.245 43.115 186.786 43.663002 186.48799 C 44.211002 186.189 44.799004 186.13199 45.43 186.31 C 46.059002 186.48999 46.528 186.851 46.834 187.396 C 47.145 187.937 47.21 188.517 47.033 189.133 C 46.856003 189.749 46.495003 190.208 45.947002 190.50499 C 45.397003 190.80598 44.809002 190.85999 44.180004 190.687 C 43.547005 190.504 43.079002 190.146 42.774006 189.603 C 42.465 189.059 42.399 188.479 42.575 187.861 z M 47.043 253.039 C 46.735 253.585 46.272 253.95 45.644 254.135 C 45.017002 254.319 44.425 254.26399 43.873 253.969 C 43.323 253.67299 42.957 253.217 42.776 252.60199 C 42.596 251.98698 42.661 251.40698 42.964 250.85999 C 43.274002 250.31299 43.737 249.95299 44.365 249.76399 C 44.994003 249.57999 45.584003 249.635 46.134003 249.93199 C 46.688004 250.22499 47.050003 250.68199 47.233 251.297 C 47.411 251.913 47.348 252.493 47.043 253.039 z M 48.384 189.664 C 48.670998 189.089 49.113 188.704 49.704998 188.516 C 50.297997 188.32701 50.89 188.37201 51.475998 188.667 C 52.059 188.95801 52.454 189.40001 52.657997 189.99101 C 52.858997 190.58101 52.817997 191.16301 52.531 191.738 C 52.246998 192.31001 51.804996 192.69301 51.212997 192.886 C 50.617996 193.074 50.029 193.02701 49.443996 192.73401 C 48.857998 192.44101 48.464996 192.00201 48.258995 191.40901 C 48.058 190.82 48.099 190.236 48.384 189.664 z M 52.851 250.404 C 52.652 250.998 52.260002 251.44101 51.677002 251.738 C 51.091003 252.035 50.501003 252.091 49.906002 251.90201 C 49.309002 251.714 48.866 251.33301 48.575 250.75601 C 48.284 250.18701 48.24 249.60501 48.441 249.01302 C 48.639004 248.41801 49.030003 247.97401 49.615 247.68102 C 50.198 247.37901 50.787003 247.32701 51.382 247.51701 C 51.982 247.70502 52.422 248.08002 52.713 248.65602 C 53.005 249.23 53.052 249.813 52.851 250.404 z M 53.764 192.506 C 54.151 191.994 54.654 191.69699 55.273 191.621 C 55.892 191.541 56.461 191.697 56.982998 192.092 C 57.503998 192.48999 57.811996 192.99399 57.904 193.61299 C 57.995 194.232 57.849 194.797 57.464 195.308 C 57.075 195.81999 56.573 196.115 55.955 196.193 C 55.334003 196.275 54.767002 196.11499 54.243 195.71999 C 53.722 195.32399 53.415 194.818 53.324 194.19899 C 53.229 193.585 53.377 193.02 53.764 192.506 z M 58.066 246.752 C 57.978 247.372 57.672 247.88 57.155003 248.27899 C 56.634003 248.67499 56.067 248.83899 55.445004 248.76299 C 54.826004 248.68498 54.322002 248.39598 53.932003 247.88599 C 53.540005 247.37099 53.392002 246.81198 53.480003 246.193 C 53.568005 245.57599 53.872 245.066 54.391003 244.66899 C 54.912003 244.27199 55.481003 244.109 56.099003 244.18599 C 56.72 244.26 57.223003 244.553 57.615 245.06299 C 58.004 245.57 58.155 246.135 58.066 246.752 z M 61.922 243.875 C 61.484 244.361 60.955 244.622 60.331 244.66 C 59.709 244.699 59.159 244.505 58.685 244.074 C 58.209 243.642 57.956 243.11801 57.933002 242.492 C 57.907 241.867 58.112003 241.31201 58.548004 240.82701 C 58.986004 240.34401 59.518005 240.07802 60.140003 240.042 C 60.764004 240.001 61.314003 240.197 61.786003 240.628 C 62.265003 241.059 62.515003 241.585 62.540005 242.209 C 62.565 242.833 62.359 243.389 61.922 243.875 z M 65.797 238.68 C 65.457 239.239 64.98399 239.59 64.377 239.743 C 63.774 239.894 63.196 239.805 62.649 239.469 C 62.102997 239.133 61.760998 238.65999 61.621 238.051 C 61.482 237.444 61.583 236.86 61.926 236.301 C 62.27 235.74399 62.739998 235.38899 63.347 235.23799 C 63.951 235.08499 64.53 235.17499 65.076 235.51299 C 65.620995 235.84698 65.965 236.31999 66.105995 236.92899 C 66.24 237.538 66.142 238.122 65.797 238.68 z M 68.665 232.857 C 68.435 233.46399 68.031 233.90399 67.462 234.165 C 66.896996 234.428 66.315994 234.439 65.714 234.21399 C 65.116 233.98499 64.69299 233.583 64.44299 233.012 C 64.19499 232.43599 64.187 231.846 64.42199 231.23299 C 64.65399 230.624 65.05799 230.18599 65.622986 229.92299 C 66.18999 229.661 66.77299 229.64699 67.372986 229.87498 C 67.971985 230.10498 68.39399 230.50699 68.64399 231.07799 C 68.892 231.65 68.897 232.243 68.665 232.857 z M 70.413 226.605 C 70.296005 227.247 69.982 227.75099 69.475 228.111 C 68.962 228.46999 68.394 228.59499 67.763 228.48 C 67.13 228.36499 66.64 228.04599 66.288 227.534 C 65.937004 227.013 65.821 226.433 65.939 225.789 C 66.054 225.143 66.369 224.643 66.87701 224.281 C 67.38901 223.921 67.95601 223.79701 68.589005 223.91301 C 69.22101 224.02701 69.71001 224.34601 70.064 224.86101 C 70.413 225.377 70.53 225.959 70.413 226.605 z " fill-opacity="0.3"/>
        </g>
        <g>
            <path fill="#b0381e" d="M 44.603 0.0 L 0.0 0.0 L 0.0 50.404 C 6.122 54.194 13.655 56.434998 21.808 56.434998 C 42.298 56.434998 58.912003 42.309 58.912003 24.882998 C 58.91 14.77 53.307 5.772 44.603 0.0 z " fill-opacity="0.6"/>
        </g>
        <g>
            <path fill="#f1de84" d="M 15.989 211.379 C 41.968002 211.379 63.031 193.469 63.031 171.377 C 63.031 149.283 41.968 131.375 15.988998 131.375 C 10.373999 131.375 4.9919987 132.219 -1.9073486E-6 133.753 L -1.9073486E-6 209.0 C 4.993 210.534 10.374 211.379 15.989 211.379 z " fill-opacity="0.6"/>
            <path fill="#f1de84" d="M 15.989 114.332 C 10.477 114.332 5.123 114.902 0.0 115.969 L 0.0 133.755 C 4.993 132.22101 10.374 131.375 15.989 131.375 C 41.968002 131.375 63.031 149.285 63.031 171.379 C 63.031 193.469 41.968 211.379 15.988998 211.379 C 10.373999 211.379 4.9919987 210.535 -1.9073486E-6 209.0 L -1.9073486E-6 226.787 C 5.123998 227.853 10.478998 228.423 15.988998 228.423 C 53.036 228.423 83.072 202.88501 83.072 171.377 C 83.072 139.872 53.037 114.332 15.989 114.332 z " fill-opacity="0.3"/>
        </g>
        <g>
            <linearGradient x1="483.1257" gradientTransform="matrix(1 0 0 1 -172.96 -277.0391)" y1="532.6035" x2="524.9597" gradientUnits="userSpaceOnUse" y2="532.6035" xlink:type="simple" xlink:actuate="onLoad" id="SVGID_16_" xlink:show="other">
                <stop stop-color="#ad832f" offset="0"/>
                <stop stop-color="#3e2a08" offset="1"/>
            </linearGradient>
            <path fill="url(#SVGID_16_)" d="M 335.743 233.818 C 321.618 233.818 310.16602 243.55399 310.16602 255.566 C 310.16602 267.577 321.618 277.31 335.743 277.31 C 341.92 277.31 347.58002 275.452 352.0 272.357 L 352.0 238.775 C 347.58 235.678 341.916 233.818 335.743 233.818 z " fill-opacity="0.7"/>
        </g>
        <g>
            <linearGradient x1="349.8074" gradientTransform="matrix(1 0 0 1 -172.96 -277.0391)" y1="505.7773" x2="524.947" gradientUnits="userSpaceOnUse" y2="505.7773" xlink:type="simple" xlink:actuate="onLoad" id="SVGID_17_" xlink:show="other">
                <stop stop-color="#f1de84" offset="0"/>
                <stop stop-color="#cd9f3d" offset="0.5056"/>
                <stop stop-color="#704d18" offset="1"/>
            </linearGradient>
            <path fill="url(#SVGID_17_)" d="M 264.423 170.629 C 225.839 170.629 192.516 189.76399 176.848 217.481 C 187.585 224.96 195.53201 235.223 199.15302 246.979 C 202.79901 219.063 230.626 197.352 264.424 197.352 C 300.70102 197.352 330.112 222.362 330.112 253.209 C 330.112 265.839 325.174 277.49 316.857 286.848 L 351.988 286.848 L 351.988 217.45898 C 336.316 189.752 302.997 170.629 264.423 170.629 z " fill-opacity="0.7"/>
        </g>
        <g>
            <path fill="#f1de84" d="M 15.989 131.375 C 10.374001 131.375 4.9920006 132.221 0.0 133.755 L 0.0 209.0 C 4.993 210.535 10.374 211.379 15.989 211.379 C 41.968002 211.379 63.031 193.469 63.031 171.379 C 63.031 149.286 41.97 131.375 15.989 131.375 z " fill-opacity="0.3"/>
        </g>
        <g>
            <path fill="#f1de84" d="M 15.989 131.375 C 10.374001 131.375 4.9920006 132.221 0.0 133.755 L 0.0 209.0 C 4.993 210.535 10.374 211.379 15.989 211.379 C 41.968002 211.379 63.031 193.469 63.031 171.379 C 63.031 149.286 41.97 131.375 15.989 131.375 z " fill-opacity="0.3"/>
        </g>
        <path fill="none" d="M 23.688 264.273 C 22.75 264.017 21.875 264.117 21.067 264.56802 C 20.255999 265.019 19.727999 265.70602 19.477 266.62503 C 19.226 267.54504 19.331999 268.40604 19.802 269.20804 C 20.27 270.01004 20.971 270.53802 21.906 270.79605 C 22.841 271.05304 23.716 270.95404 24.526001 270.50104 C 25.336 270.05103 25.866001 269.36102 26.117 268.44302 C 26.368 267.523 26.263 266.66403 25.792 265.86102 C 25.327 265.059 24.624 264.529 23.688 264.273 z "/>
        <path fill="none" d="M 30.633 174.885 C 31.598999 174.78 32.374 174.36499 32.959 173.649 C 33.545 172.926 33.786 172.092 33.681 171.149 C 33.576 170.204 33.16 169.44 32.43 168.871 C 31.7 168.301 30.856 168.063 29.89 168.174 C 28.924 168.278 28.151999 168.69499 27.566 169.414 C 26.98 170.133 26.741 170.967 26.846 171.914 C 26.949001 172.858 27.367 173.62 28.097 174.19 C 28.823 174.762 29.67 174.993 30.633 174.885 z "/>
        <path fill="none" d="M 83.202 207.73 C 82.267006 207.909 81.542 208.37599 81.025 209.152 C 80.507 209.92299 80.340004 210.79 80.523 211.745 C 80.702 212.69899 81.16901 213.441 81.932 213.97299 C 82.694 214.50499 83.539 214.68399 84.476 214.50699 C 85.412994 214.329 86.138 213.85799 86.652 213.083 C 87.168 212.312 87.336 211.44699 87.155 210.493 C 86.976 209.538 86.506996 208.79399 85.746 208.26399 C 84.986 207.73 84.139 207.555 83.202 207.73 z "/>
        <path fill="none" d="M 69.404 189.48 C 70.059 190.20099 70.849 190.584 71.774 190.636 C 72.699005 190.687 73.512 190.392 74.212006 189.747 C 74.91501 189.10199 75.281006 188.317 75.316 187.39299 C 75.35 186.46199 75.037 185.64299 74.380005 184.92099 C 73.727005 184.20499 72.939 183.818 72.01201 183.76999 C 71.086006 183.717 70.27501 184.012 69.57201 184.65698 C 68.869 185.29999 68.503006 186.08398 68.46801 187.01099 C 68.437 187.939 68.75 188.764 69.404 189.48 z "/>
        <path fill="none" d="M 73.995 193.572 C 73.79401 194.47601 73.949005 195.343 74.464005 196.171 C 74.98 196.99701 75.686005 197.522 76.58501 197.738 C 77.48401 197.96101 78.338005 197.81601 79.14801 197.31201 C 79.95601 196.81001 80.46101 196.10501 80.66101 195.20001 C 80.86201 194.296 80.70501 193.42801 80.19301 192.60101 C 79.67901 191.77701 78.97101 191.24901 78.07201 191.03401 C 77.171005 190.81201 76.31701 190.95601 75.509 191.46 C 74.7 191.961 74.196 192.667 73.995 193.572 z "/>
        <path fill="none" d="M 84.629 216.602 C 83.68 216.621 82.882996 216.961 82.244995 217.63501 C 81.604996 218.309 81.294 219.13101 81.31 220.106 C 81.326996 221.08 81.663994 221.889 82.324 222.544 C 82.984 223.19301 83.79 223.52 84.741 223.49901 C 85.693 223.48001 86.487 223.145 87.125 222.46701 C 87.766 221.794 88.074 220.973 88.06 219.99701 C 88.044 219.02101 87.706 218.212 87.048 217.559 C 86.387 216.904 85.581 216.586 84.629 216.602 z "/>
        <path fill="none" d="M 78.23 201.034 C 77.867004 201.887 77.86201 202.765 78.212006 203.674 C 78.566 204.579 79.163 205.22499 80.01 205.60399 C 80.856 205.98898 81.72 206.00499 82.607 205.663 C 83.494 205.31299 84.119 204.71799 84.483 203.86 C 84.846 203.006 84.851 202.13 84.499 201.22101 C 84.145004 200.315 83.548004 199.669 82.703 199.28601 C 81.857 198.904 80.991005 198.889 80.106 199.23201 C 79.222 199.581 78.596 200.182 78.23 201.034 z "/>
        <path fill="none" d="M 31.938 265.73 C 30.97 265.648 30.128 265.90402 29.417 266.5 C 28.706 267.092 28.312 267.863 28.230999 268.813 C 28.154 269.762 28.417 270.589 29.022999 271.292 C 29.627998 271.995 30.417 272.38498 31.380999 272.466 C 32.350998 272.545 33.192997 272.289 33.902 271.695 C 34.615 271.101 35.010002 270.33502 35.09 269.38202 C 35.169 268.436 34.902 267.61002 34.298 266.90402 C 33.694 266.2 32.907 265.809 31.938 265.73 z "/>
        <path fill="none" d="M 8.676 256.971 C 7.898 256.397 7.047 256.172 6.1309996 256.299 C 5.2119994 256.428 4.4729996 256.876 3.9049995 257.643 C 3.3399994 258.414 3.1299996 259.25 3.2739995 260.16602 C 3.4199994 261.083 3.8819995 261.829 4.6649995 262.406 C 5.4459996 262.982 6.2939997 263.206 7.2119994 263.079 C 8.129999 262.949 8.870999 262.504 9.44 261.73602 C 10.002999 260.96802 10.212999 260.13004 10.066999 259.21204 C 9.918 258.297 9.457 257.549 8.676 256.971 z "/>
        <path fill="none" d="M 7.631 184.311 C 8.4 183.709 8.839 182.953 8.96 182.032 C 9.079 181.108 8.849 180.274 8.259 179.524 C 7.671 178.774 6.917 178.348 5.995 178.248 C 5.074 178.144 4.23 178.394 3.4669998 178.996 C 2.7019997 179.597 2.2609997 180.35 2.1419997 181.272 C 2.0219998 182.194 2.2529998 183.03 2.8409996 183.778 C 3.4309995 184.53 4.1849995 184.959 5.1069994 185.057 C 6.024 185.159 6.87 184.91 7.631 184.311 z "/>
        <path fill="none" d="M 22.436 176.577 C 23.364 176.29399 24.048 175.747 24.495 174.93 C 24.939001 174.11699 25.021 173.25099 24.745 172.34 C 24.468 171.43 23.918001 170.757 23.099 170.331 C 22.276001 169.9 21.401001 169.827 20.471 170.111 C 19.541 170.394 18.857 170.943 18.41 171.75699 C 17.967 172.56999 17.882 173.43799 18.159 174.34999 C 18.436 175.25899 18.988 175.93 19.809 176.35999 C 20.63 176.788 21.506 176.859 22.436 176.577 z "/>
        <path fill="none" d="M 2.299 256.21 C 2.995 255.56099 3.3569999 254.76999 3.3769999 253.844 C 3.3979998 252.916 3.08 252.09799 2.4169998 251.385 C 1.7549999 250.676 0.9629998 250.301 0.035999775 250.25899 C 0.021999775 250.25899 0.014999775 250.26399 -2.2351742E-7 250.262 L -2.2351742E-7 257.116 C 0.87 257.123 1.64 256.829 2.299 256.21 z "/>
        <path fill="none" d="M 14.671 179.76 C 15.532 179.31099 16.107 178.64499 16.394 177.76 C 16.681 176.877 16.602 176.01399 16.161999 175.168 C 15.723999 174.324 15.058999 173.766 14.171999 173.496 C 13.284999 173.225 12.409999 173.314 11.550999 173.766 C 10.693998 174.216 10.117999 174.88 9.831999 175.766 C 9.544999 176.647 9.622999 177.51201 10.063999 178.356 C 10.501999 179.207 11.166999 179.76001 12.049999 180.03 C 12.938 180.3 13.812 180.209 14.671 179.76 z "/>
        <path fill="none" d="M 1.538 190.07 C 2.183 189.341 2.478 188.511 2.432 187.585 C 2.382 186.65901 1.9999999 185.88101 1.2859999 185.251 C 0.8919999 184.90001 0.4609999 184.671 -1.1920929E-7 184.53401 L -1.1920929E-7 191.09702 C 0.579 190.91 1.096 190.576 1.538 190.07 z "/>
        <path fill="none" d="M 15.845 261.322 C 14.975 260.896 14.097 260.83298 13.22 261.128 C 12.338 261.422 11.694 261.999 11.278 262.857 C 10.863 263.711 10.809999 264.578 11.123 265.452 C 11.436 266.324 12.027 266.974 12.898 267.398 C 13.771 267.82202 14.646 267.88602 15.524 267.588 C 16.404 267.294 17.048 266.72202 17.464 265.859 C 17.880001 265.005 17.934 264.138 17.619001 263.265 C 17.311 262.395 16.718 261.746 15.845 261.322 z "/>
        <path fill="none" d="M 65.969 255.775 C 65.047005 255.663 64.202 255.902 63.432003 256.494 C 62.661003 257.085 62.208004 257.844 62.078003 258.762 C 61.946003 259.68 62.171 260.518 62.750004 261.276 C 63.329006 262.034 64.077 262.464 64.998 262.579 C 65.917 262.686 66.765 262.448 67.533005 261.858 C 68.30501 261.264 68.755005 260.51 68.887 259.589 C 69.018 258.671 68.792 257.83298 68.213 257.078 C 67.637 256.32 66.89 255.887 65.969 255.775 z "/>
        <path fill="none" d="M 40.036 174.803 C 41.002 174.89499 41.848 174.64899 42.564 174.06299 C 43.284 173.47699 43.688 172.70898 43.776 171.762 C 43.865 170.81699 43.611 169.987 43.011 169.278 C 42.411003 168.571 41.629 168.174 40.663002 168.082 C 39.694 167.989 38.853 168.237 38.135002 168.821 C 37.415 169.407 37.011 170.175 36.921 171.125 C 36.832 172.069 37.088 172.897 37.690002 173.606 C 38.288 174.313 39.07 174.713 40.036 174.803 z "/>
        <path fill="none" d="M 71.962 249.623 C 71.036995 249.682 70.25 250.06801 69.602 250.792 C 68.952995 251.516 68.645996 252.337 68.686 253.266 C 68.726 254.192 69.099 254.975 69.805 255.612 C 70.513 256.256 71.326004 256.545 72.25 256.485 C 73.175 256.426 73.964 256.043 74.612 255.31699 C 75.26 254.59398 75.566 253.76999 75.528 252.84398 C 75.488 251.91599 75.115 251.13197 74.409 250.49498 C 73.701 249.855 72.886 249.566 71.962 249.623 z "/>
        <path fill="none" d="M 82.701 234.527 C 81.81 234.189 80.946 234.21399 80.104 234.599 C 79.26199 234.986 78.66599 235.63 78.32 236.54 C 77.973 237.448 77.985 238.327 78.355 239.183 C 78.723 240.035 79.352005 240.625 80.242004 240.967 C 81.131004 241.31 81.995 241.282 82.839005 240.898 C 83.685005 240.511 84.27701 239.86299 84.623 238.957 C 84.972 238.048 84.958 237.169 84.589005 236.314 C 84.218 235.465 83.589 234.87 82.701 234.527 z "/>
        <path fill="none" d="M 84.512 225.678 C 83.574 225.508 82.728004 225.68999 81.97 226.22699 C 81.212 226.762 80.746 227.51 80.574 228.46298 C 80.401 229.41998 80.574 230.28098 81.095 231.05298 C 81.616005 231.82098 82.345 232.28798 83.281 232.45998 C 84.219 232.62898 85.063995 232.44498 85.822 231.91197 C 86.577995 231.37497 87.044 230.62997 87.219 229.67197 C 87.391 228.71696 87.219 227.85597 86.698 227.08496 C 86.177 226.318 85.449 225.85 84.512 225.678 z "/>
        <path fill="none" d="M 79.289 242.9 C 78.479004 242.402 77.625 242.263 76.726 242.48799 C 75.826996 242.71599 75.122 243.24399 74.617 244.06999 C 74.10999 244.898 73.96 245.76099 74.167 246.66899 C 74.375 247.57199 74.884 248.275 75.695 248.773 C 76.506 249.271 77.361 249.40799 78.258 249.181 C 79.15501 248.953 79.862 248.429 80.36301 247.601 C 80.87301 246.775 81.021 245.908 80.81501 245.0 C 80.60902 244.092 80.102 243.396 79.289 242.9 z "/>
        <path fill="none" d="M 48.272 176.35 C 49.204998 176.621 50.078 176.53 50.892998 176.087 C 51.705997 175.643 52.246 174.96301 52.504997 174.04701 C 52.767998 173.13101 52.666996 172.27202 52.21 171.46301 C 51.749 170.656 51.057 170.11902 50.121998 169.85402 C 49.187996 169.58601 48.314 169.67403 47.501 170.12102 C 46.688 170.56102 46.147 171.23901 45.889 172.15802 C 45.626 173.07402 45.727 173.93402 46.184 174.74402 C 46.643 175.546 47.339 176.084 48.272 176.35 z "/>
        <path fill="none" d="M 51.172 264.303 C 50.358 263.86502 49.483 263.782 48.547 264.057 C 47.615 264.329 46.923 264.87 46.473 265.682 C 46.019 266.495 45.923 267.354 46.193 268.27002 C 46.46 269.186 47.005 269.86002 47.821 270.29703 C 48.639 270.73602 49.512 270.81802 50.446 270.545 C 51.378998 270.272 52.071 269.729 52.526 268.92 C 52.978 268.10703 53.071 267.24802 52.8 266.332 C 52.533 265.417 51.992 264.742 51.172 264.303 z "/>
        <path fill="none" d="M 42.858 266.382 C 42.132 265.80298 41.291 265.56097 40.324 265.654 C 39.358 265.75198 38.581 266.156 37.987 266.869 C 37.394 267.58 37.142998 268.412 37.239 269.357 C 37.334 270.306 37.741997 271.07 38.465 271.652 C 39.191 272.232 40.032 272.474 40.997 272.381 C 41.963 272.28403 42.743 271.879 43.336002 271.165 C 43.933002 270.453 44.182003 269.622 44.084003 268.676 C 43.989 267.727 43.582 266.962 42.858 266.382 z "/>
        <path fill="none" d="M 58.97 260.723 C 58.083 260.442 57.208 260.524 56.345 260.961 C 55.479 261.402 54.898003 262.065 54.600002 262.943 C 54.303 263.822 54.371002 264.68698 54.799004 265.538 C 55.234005 266.389 55.891003 266.951 56.774002 267.232 C 57.659 267.507 58.534 267.427 59.4 266.988 C 60.264 266.549 60.847 265.888 61.143 265.009 C 61.438 264.129 61.372 263.266 60.942 262.414 C 60.51 261.566 59.853 261.001 58.97 260.723 z "/>
        <path fill="none" d="M 56.083 179.393 C 56.951 179.83101 57.827 179.903 58.709 179.621 C 59.591 179.336 60.244 178.767 60.668 177.916 C 61.096 177.062 61.156 176.196 60.856 175.319 C 60.552 174.442 59.965 173.789 59.099 173.352 C 58.231 172.916 57.356 172.84001 56.474 173.12401 C 55.59 173.412 54.939 173.97801 54.513 174.83 C 54.086002 175.684 54.027 176.549 54.325 177.425 C 54.63 178.301 55.214 178.959 56.083 179.393 z "/>
        <path fill="none" d="M 63.21 183.825 C 63.985 184.411 64.833 184.646 65.752 184.527 C 66.67 184.411 67.416 183.96999 67.99 183.21399 C 68.563995 182.45499 68.782 181.61299 68.646996 180.69699 C 68.506996 179.77899 68.05399 179.027 67.28 178.439 C 66.505 177.851 65.659 177.62 64.738 177.736 C 63.821 177.853 63.073997 178.29399 62.5 179.05199 C 61.926 179.80998 61.708 180.65 61.847 181.568 C 61.981 182.486 62.437 183.238 63.21 183.825 z "/>
    </g>
</svg>
