<?xml version="1.0" encoding="UTF-8"?>
<svg xmlns="http://www.w3.org/2000/svg" xmlns:xlink="http://www.w3.org/1999/xlink" contentScriptType="text/ecmascript" width="42" baseProfile="tiny" zoomAndPan="magnify" contentStyleType="text/css" viewBox="0 0 42 29" height="29" preserveAspectRatio="xMidYMid meet" version="1.1">
    <rect x="0.028" width="42" fill="none" y="0.028" height="29"/>
    <g>
        <g>
            <path fill="#ffffff" d="M 20.264 3.84 C 20.268 3.839 20.272 3.85 20.274 3.849 C 17.946 4.783 16.534 7.117 16.497 10.087999 L 16.569 16.971 C 16.514 21.579 19.378 25.599998 22.954 25.925 C 23.777 25.999 24.6 25.922998 25.387 25.696 C 28.034 25.05 31.589 23.591 31.749 18.421 L 31.932 11.026999 C 31.869 7.948 30.643002 5.4959993 28.483002 4.1099997 C 26.211 2.655 23.217 2.557 20.264 3.84 z "/>
            <g>
                <g>
                    <linearGradient x1="18.2412" gradientTransform="matrix(1 0 0 1 0.1377 -813.9443)" y1="818.9531" x2="31.7478" gradientUnits="userSpaceOnUse" y2="835.061" xlink:type="simple" xlink:actuate="onLoad" id="XMLID_4_" xlink:show="other">
                        <stop stop-color="#704d18" offset="0"/>
                        <stop stop-color="#3e2a08" offset="0.5"/>
                        <stop stop-color="#311904" offset="1"/>
                    </linearGradient>
                    <path fill="url(#XMLID_4_)" d="M 20.361 4.059 C 25.953 1.6259999 31.555 4.386 31.692 11.021 L 31.509 18.412 C 31.362 23.235998 28.231 24.874998 24.696 25.606998 L 20.361 4.059 z "/>
                    <path fill="#e0bc6c" d="M 23.381 3.754 C 27.565 4.273 29.928 7.702 29.828 12.774 L 29.619 19.352 C 29.566002 23.633 26.398 26.0 22.973 25.69 C 19.358002 25.36 16.754002 21.252 16.806002 16.967 L 16.736002 10.092001 C 16.787 5.813 19.777 3.182 23.381 3.754 z "/>
                    <path d="M 27.387 11.91 L 24.092 14.983999 L 27.367 19.41 L 22.551 23.896 L 22.565 16.408 L 20.231998 18.582 L 19.384 17.369 L 22.332998 14.621001 L 19.401 10.661001 L 20.252 9.8 L 22.572 12.931 L 22.597 5.448 L 27.387 11.91 z M 23.807 9.087 C 23.803 10.546 23.797 11.825 23.789 13.257999 C 24.619 12.49 25.394 11.764 25.627 11.546999 C 25.195 10.965 24.588 10.145 23.807 9.087 M 25.609 19.049 C 25.377 18.735 24.605 17.692 23.783 16.582 C 23.780998 18.018002 23.780998 19.297 23.777 20.754002 C 24.564 20.021 25.174 19.451 25.609 19.049 "/>
                </g>
            </g>
        </g>
    </g>
    <g>
        <path fill="#ffffff" d="M 19.801 8.255 L 21.848 6.209 L 21.819 6.2070003 L 24.923 3.1030002 C 24.059 3.0400002 23.162 3.1050005 22.25 3.308 L 18.519 7.04 L 17.586 7.974 L 17.583998 7.974 L 16.562998 8.996 C 16.502998 9.389 16.462997 9.792 16.458998 10.212 L 16.473997 11.584 L 19.801 8.255 L 19.801 8.255 z " fill-opacity="0.8"/>
        <path fill="#ffffff" d="M 21.857 11.082 L 23.902 9.035999 L 23.873 9.033999 L 28.576 4.3319993 C 28.529 4.300999 28.49 4.2629995 28.441 4.2319994 C 27.967 3.9279995 27.457 3.6979997 26.925 3.5129995 L 20.572 9.865999 L 19.64 10.8 L 19.64 10.8 L 16.497 13.944 L 16.522999 16.415 L 21.856 11.082001 L 21.857 11.082001 z " fill-opacity="0.8"/>
        <path fill="#ffffff" d="M 23.229 12.179 L 22.296 13.113 L 22.294 13.113 L 16.59 18.85 L 16.762001 19.442 C 16.858002 19.901 16.985 20.344002 17.135 20.772 L 24.512 13.397001 L 24.512 13.397001 L 26.559002 11.351002 L 26.530005 11.349002 L 30.905005 6.974002 C 30.629004 6.436002 30.299002 5.942002 29.912004 5.500002 L 23.229 12.179 z " fill-opacity="0.8"/>
        <path fill="#ffffff" d="M 17.837 22.406 L 18.51 23.369 C 18.641 23.543 18.778 23.711 18.918 23.871 L 31.815998 10.916 C 31.782995 10.154 31.735998 9.402 31.561998 8.728001 L 17.837 22.406 z " fill-opacity="0.8"/>
        <path fill="#ffffff" d="M 26.229 19.203 L 25.295 20.137 L 25.293 20.137 L 20.324 25.106 C 20.862 25.461 21.439 25.723 22.044 25.884998 L 27.509 20.418 L 27.509998 20.418 L 29.557 18.373 L 29.528 18.370998 L 31.77 16.128998 L 31.833 13.598998 L 26.229 19.203 z " fill-opacity="0.8"/>
        <path fill="#ffffff" d="M 31.027 21.754 C 31.412 20.899 31.658 19.861 31.705 18.608 L 27.684 22.629 L 26.752 23.563 L 26.75 23.563 L 24.285 26.028 C 24.642 25.985 24.998 25.92 25.348 25.819 C 26.151 25.623 27.037 25.35 27.889 24.923 L 28.965 23.846 L 28.967 23.846 L 30.998 21.815 C 31.000002 21.809 31.004002 21.805 31.006 21.8 L 30.985 21.798 L 31.027 21.754 z " fill-opacity="0.8"/>
    </g>
    <linearGradient x1="32.7969" gradientTransform="matrix(1 0 0 -1 0.1377 27.834)" y1="12.8691" x2="40.2844" gradientUnits="userSpaceOnUse" y2="12.8691" xlink:type="simple" xlink:actuate="onLoad" id="XMLID_5_" xlink:show="other">
        <stop stop-color="#b0381e" offset="0"/>
        <stop stop-color="#822519" offset="1"/>
    </linearGradient>
    <path fill="url(#XMLID_5_)" d="M 33.708 6.138 C 36.37 7.979 40.166 17.84 33.6 23.791 C 38.365 22.754 42.798 10.816 33.708 6.138 z "/>
    <linearGradient x1="16.1494" gradientTransform="matrix(1 0 0 -1 0.1377 27.834)" y1="12.7036" x2="6.9402" gradientUnits="userSpaceOnUse" y2="12.7036" xlink:type="simple" xlink:actuate="onLoad" id="XMLID_6_" xlink:show="other">
        <stop stop-color="#b0381e" offset="0"/>
        <stop stop-color="#822519" offset="1"/>
    </linearGradient>
    <path fill="url(#XMLID_6_)" d="M 14.836 23.957 C 8.271 18.006 12.065001 8.145 14.729 6.304001 C 5.638 10.982 10.07 22.92 14.836 23.957 z "/>
    <path fill="#ffffff" d="M 14.836 23.836 C 8.271 17.887 12.065001 8.025001 14.729 6.184 C 5.638 10.862 10.07 22.799 14.836 23.836 z " fill-opacity="0.4"/>
    <path fill="#ffffff" d="M 14.718 6.151 C 14.705001 6.158 14.694 6.165 14.681001 6.172 C 14.682001 6.174 14.683001 6.1749997 14.685 6.177 C 14.696 6.168 14.707 6.159 14.718 6.151 z M 11.734 11.382 L 11.212 11.904 L 11.24 11.906 L 9.49 13.656 C 9.418 14.432 9.436999 15.212 9.53 15.979 L 11.224 14.29 C 11.301 13.275 11.481 12.295 11.734 11.382 z M 11.717 18.953 C 11.49 18.221 11.339 17.478 11.259 16.737999 L 9.967999 18.033 C 10.172999 18.705 10.429999 19.344 10.731999 19.939 L 10.910999 19.758 L 11.717 18.953 z M 10.536 10.114 L 14.213 6.4360003 C 12.488 7.433 11.293 8.706 10.536 10.114 z M 12.191 20.977 L 11.684 21.485 C 12.04 21.961 12.424 22.377 12.828 22.724998 L 13.362 22.191998 C 13.008 21.716995 12.700001 21.228998 12.441 20.728998 L 12.191 20.977 L 12.191 20.977 z M 14.825 23.803 C 14.722 23.711 14.63 23.614 14.533 23.52 L 14.378 23.674 C 14.526 23.727 14.675 23.771 14.825 23.803 z M 14.593 6.056 L 14.213 6.4360003 C 14.367001 6.347 14.518001 6.2560005 14.681001 6.1710005 C 14.65 6.134 14.625 6.092 14.593 6.056 z " fill-opacity="0.8"/>
    <g>
        <path fill="#f2f2f2" d="M 34.077 6.345 L 34.027 6.3939996 C 34.398 6.7259994 34.779 7.196 35.144 7.775 L 35.572 7.348 C 35.125 6.989 34.628 6.653 34.077 6.345 z " fill-opacity="0.8"/>
        <path fill="#f2f2f2" d="M 36.789 8.515 L 35.973 9.332001 C 36.221 9.896001 36.446 10.514001 36.637 11.167001 L 37.825 9.979001 C 37.539 9.469 37.193 8.981 36.789 8.515 z " fill-opacity="0.8"/>
        <path fill="#f2f2f2" d="M 37.702 12.571 L 37.081 13.192 C 37.195 13.950001 37.254 14.733001 37.241 15.529 L 38.95 13.820001 C 38.896 13.111001 38.769 12.405001 38.558 11.715 L 37.702 12.571 z " fill-opacity="0.8"/>
        <path fill="#f2f2f2" d="M 38.859 16.271 L 36.912003 18.209 C 36.437004 20.199 35.418003 22.146 33.601 23.789 C 33.722 23.763 33.842003 23.726 33.962 23.685 L 37.685 19.949 C 38.247 18.846 38.664 17.588 38.859 16.271 z " fill-opacity="0.8"/>
    </g>
    <path fill="#ffffff" d="M 33.708 6.138 C 36.37 7.979 40.166 17.84 33.6 23.791 C 38.365 22.754 42.798 10.816 33.708 6.138 z " fill-opacity="0.4"/>
    <g>
        <g>
            <path fill="#ffffff" d="M 6.886 17.42 C 5.446 17.42 3.473 17.762 2.973 20.715 L 2.8990002 21.162 C 2.8990002 21.162 6.217 21.162 6.61 21.162 C 6.728 21.375 6.906 21.695 7.019 21.900002 C 6.906 22.103 6.728 22.422 6.61 22.636002 C 6.217 22.636002 2.8990002 22.636002 2.8990002 22.636002 L 2.973 23.080002 C 3.473 26.035002 5.446 26.375002 6.886 26.375002 C 8.021 26.375002 9.032 25.427002 9.845 24.658 C 10.284 24.244 10.699 23.852 10.917 23.852 L 21.077 23.852 L 21.188 23.727 C 21.409 23.490002 21.913 22.832 21.924 21.914 L 21.924 21.883 C 21.914 20.961 21.408 20.308 21.188 20.068 L 21.077 19.943 L 10.917 19.943 C 10.698 19.943 10.283999 19.554 9.844999 19.14 C 9.032 18.373 8.021 17.42 6.886 17.42 z " fill-opacity="0.5"/>
            <path fill="#6e8489" d="M 21.544 21.898 C 21.544 21.894 21.546 21.89 21.546 21.888 L 21.544 21.888 C 21.534 21.084 21.075 20.506 20.909 20.324 C 20.694 20.324 10.919001 20.324 10.919001 20.324 C 10.5460005 20.324 10.142 19.943 9.581 19.418 C 8.821 18.699 7.868 17.803 6.884 17.803 C 5.287 17.803 3.7740004 18.272 3.3500004 20.78 C 3.9520004 20.78 6.833 20.78 6.833 20.78 L 7.452 21.899 L 6.833 23.018 C 6.833 23.018 3.951 23.018 3.35 23.018 C 3.776 25.526 5.288 25.996 6.884 25.996 C 7.868 25.996 8.82 25.1 9.580999 24.383 C 10.141999 23.856998 10.546 23.476 10.919 23.476 C 10.919 23.476 20.694 23.476 20.909 23.476 C 21.077 23.291 21.536 22.713 21.544 21.913 L 21.546 21.913 C 21.546 21.906 21.544 21.902 21.544 21.898 z "/>
        </g>
    </g>
</svg>
