<?xml version="1.0" encoding="UTF-8"?>
<svg xmlns="http://www.w3.org/2000/svg" xmlns:xlink="http://www.w3.org/1999/xlink" contentScriptType="text/ecmascript" width="40" baseProfile="tiny" zoomAndPan="magnify" contentStyleType="text/css" viewBox="0 0 40 50" height="50" preserveAspectRatio="xMidYMid meet" version="1.1">
    <g>
        <rect width="40" fill="none" height="50"/>
        <g>
            <linearGradient x1="39.3623" gradientTransform="matrix(1 0 0 1 0.1377 472.6553)" y1="-447.6553" x2="0.3618" gradientUnits="userSpaceOnUse" y2="-447.6553" xlink:type="simple" xlink:actuate="onLoad" id="XMLID_4_" xlink:show="other">
                <stop stop-color="#e1ebf4" offset="0"/>
                <stop stop-color="#f9fcff" offset="1"/>
            </linearGradient>
            <path fill="url(#XMLID_4_)" d="M 38.198 0.5 L 1.801 0.5 C 1.083 0.5 0.5 1.212 0.5 2.09 L 6.997 47.909 C 6.997 48.786 7.580001 49.5 8.298 49.5 L 31.628 49.5 C 32.348 49.5 32.93 48.787 32.93 47.909 L 39.5 2.09 C 39.5 1.212 38.915 0.5 38.198 0.5 L 38.198 0.5 z "/>
            <linearGradient x1="-1384.6128" gradientTransform="matrix(0.3186 0 0 -0.3186 479.3354 -383.7063)" y1="-1282.8174" x2="-1498.8545" gradientUnits="userSpaceOnUse" y2="-1282.8174" xlink:type="simple" xlink:actuate="onLoad" id="XMLID_5_" xlink:show="other">
                <stop stop-color="#e1ebf4" offset="0"/>
                <stop stop-color="#f9fcff" offset="1"/>
            </linearGradient>
            <polygon fill="url(#XMLID_5_)" points="8.298,47.909 31.628,47.909 38.198,2.09 1.801,2.09   "/>
            <linearGradient x1="86.4473" y1="24.7686" x2="0.8828" gradientUnits="userSpaceOnUse" y2="25.0523" xlink:type="simple" xlink:actuate="onLoad" id="XMLID_6_" xlink:show="other">
                <stop stop-color="#ffa29e" offset="0"/>
                <stop stop-color="#ffc9c9" offset="0.0056"/>
                <stop stop-color="#fff5f5" offset="1"/>
            </linearGradient>
            <path fill="url(#XMLID_6_)" d="M 38.198 0.5 L 1.801 0.5 C 1.083 0.5 0.5 1.212 0.5 2.09 L 6.997 47.909 C 6.997 48.786 7.580001 49.5 8.298 49.5 L 31.628 49.5 C 32.348 49.5 32.93 48.787 32.93 47.909 L 39.5 2.09 C 39.5 1.212 38.915 0.5 38.198 0.5 L 38.198 0.5 z "/>
            <path fill="#ffffff" d="M 38.198 0.5 L 1.801 0.5 C 1.083 0.5 0.5 1.212 0.5 2.09 L 6.997 47.909 C 6.997 48.786 7.580001 49.5 8.298 49.5 L 31.628 49.5 C 32.348 49.5 32.93 48.787 32.93 47.909 L 39.5 2.09 C 39.5 1.212 38.915 0.5 38.198 0.5 L 38.198 0.5 z " fill-opacity="0.7" stroke-opacity="0.7"/>
        </g>
    </g>
</svg>
