<?xml version="1.0" encoding="UTF-8"?>
<svg xmlns="http://www.w3.org/2000/svg" xmlns:xlink="http://www.w3.org/1999/xlink" contentScriptType="text/ecmascript" width="100" baseProfile="tiny" zoomAndPan="magnify" contentStyleType="text/css" viewBox="0 0 100 100" height="100" preserveAspectRatio="xMidYMid meet" version="1.1">
    <path fill="#b0381e" d="M 73.223 60.925 C 73.223 65.162 70.217 68.897 66.27 69.852 L 70.069 74.917 C 75.03 72.785 78.61 68.053 79.108 62.445 L 73.223 60.925 z "/>
    <path fill="#800000" d="M 74.65 81.025 L 79.484 87.474 C 86.994 83.086 92.463 75.615 94.130005 66.785995 L 86.38901 64.546 C 85.284 71.704 80.826 77.76 74.65 81.025 z "/>
    <radialGradient gradientTransform="matrix(1 0 0 -1 0.1377 98.834)" gradientUnits="userSpaceOnUse" xlink:type="simple" r="40.4893" xlink:actuate="onLoad" cx="40.772" id="XMLID_13_" cy="73.9648" xlink:show="other">
        <stop stop-color="#f1de84" offset="0"/>
        <stop stop-color="#ad832f" offset="1"/>
    </radialGradient>
    <path fill="url(#XMLID_13_)" d="M 56.007 69.316 C 35.227 86.296 3.227 67.514 8.154 40.82 C 15.725 -0.18299866 76.746 11.472 65.936005 54.618 C 53.759 53.182 37.978 49.7 37.978 49.7 L 56.007 69.316 "/>
    <path fill="#5c1001" d="M 44.377 35.165 C 43.48 38.025 44.337997 40.841 46.293 41.451 C 48.253 42.062 50.568 40.234 51.457 37.376 C 52.353 34.512 51.49 31.697 49.529 31.088 C 47.579 30.48 45.266 32.299 44.377 35.165 z "/>
    <linearGradient x1="60.1045" gradientTransform="matrix(1 0 0 -1 0.1377 98.834)" y1="27.0952" x2="37.4242" gradientUnits="userSpaceOnUse" y2="50.7755" xlink:type="simple" xlink:actuate="onLoad" id="XMLID_14_" xlink:show="other">
        <stop stop-color="#b0381e" offset="0"/>
        <stop stop-color="#5c1001" offset="1"/>
    </linearGradient>
    <path fill="url(#XMLID_14_)" d="M 34.608 49.07 L 49.371 52.072 C 51.863003 54.75 55.92 63.108997 56.005 69.315994 C 56.025 71.0 41.544 66.178 34.608 49.07 z "/>
    <rect width="100" fill="none" height="100"/>
</svg>
