<?xml version="1.0" encoding="UTF-8"?>
<svg xmlns="http://www.w3.org/2000/svg" xmlns:xlink="http://www.w3.org/1999/xlink" contentScriptType="text/ecmascript" width="96" baseProfile="tiny" zoomAndPan="magnify" contentStyleType="text/css" viewBox="0 0 96 96" height="96" preserveAspectRatio="xMidYMid meet" version="1.1">
    <path fill="#5c1001" d="M 81.93 14.046 L 60.799 35.179 C 61.645 36.023003 66.473 41.760002 66.473 47.996002 C 66.473 54.202003 61.698997 60.004 60.856 60.848003 L 81.956 81.922005 C 91.012 72.865 96.0 60.82 96.0 48.006 C 96.0 35.179 91.003 23.118 81.93 14.046 z " fill-opacity="0.01"/>
    <path fill="#5c1001" d="M 80.395 15.581 L 60.799 35.179 C 62.053 36.433002 66.473 42.114002 66.473 47.996002 C 66.473 53.816 62.108 59.594 60.856 60.848003 L 80.42 80.387 C 89.065994 71.741 93.828995 60.241 93.828995 48.006 C 93.829 35.759 89.059 24.243 80.395 15.581 z " fill-opacity="0.02"/>
    <path fill="#5c1001" d="M 78.859 17.116 L 60.799 35.179 C 62.463 36.842 66.473 42.476 66.473 47.996002 C 66.473 53.398003 62.516 59.184002 60.856 60.848003 L 78.884995 78.852005 C 87.120995 70.616005 91.657 59.661003 91.657 48.006004 C 91.657 36.339 87.111 25.368 78.859 17.116 z " fill-opacity="0.04"/>
    <path fill="#5c1001" d="M 77.324 18.652 L 60.799 35.179 C 62.873 37.253002 66.473 42.95 66.473 47.996002 C 66.473 53.016003 62.924 58.773003 60.856 60.848003 L 77.35 77.316 C 85.177 69.488 89.489 59.079002 89.489 48.004 C 89.486 36.918 85.167 26.494 77.324 18.652 z " fill-opacity="0.07"/>
    <path fill="#5c1001" d="M 75.789 20.188 L 60.799004 35.179 C 63.283005 37.662003 66.47301 43.459 66.47301 47.996002 C 66.47301 52.495003 63.333008 58.363003 60.856007 60.848003 L 75.815 75.782005 C 83.233 68.366005 87.317 58.502007 87.317 48.008003 C 87.314 37.498 83.223 27.619 75.789 20.188 z " fill-opacity="0.11"/>
    <path fill="#5c1001" d="M 85.145 48.006 C 85.145 38.079002 81.278 28.745 74.254 21.723 L 60.799 35.179 C 63.694 38.073 66.473 43.903 66.473 47.996002 C 66.473 51.93 63.744 57.954002 60.856 60.848003 L 74.28 74.246 C 81.286 67.238 85.145 57.919 85.145 48.006 z " fill-opacity="0.13"/>
    <path fill="#3e2a08" d="M 65.491 47.988 C 65.491 43.163998 63.538 38.796997 60.379997 35.632 L 72.76199 23.275 C 86.409996 36.924 86.398994 59.065002 72.73899 72.727 L 60.36899 60.357998 C 63.534 57.191 65.491 52.818 65.491 47.988 z "/>
    <linearGradient x1="66.1621" gradientTransform="matrix(1 0 0 -1 0.1377 94.834)" y1="46.7979" x2="82.2017" gradientUnits="userSpaceOnUse" y2="46.7979" xlink:type="simple" xlink:actuate="onLoad" id="XMLID_29_" xlink:show="other">
        <stop stop-color="#f1de84" offset="0"/>
        <stop stop-color="#cd9f3d" offset="1"/>
    </linearGradient>
    <path fill="url(#XMLID_29_)" d="M 82.104 48.151 C 82.104 56.899002 78.811 65.195 72.987 71.520004 C 71.945 70.491 62.468 60.87 61.52 59.932 C 64.619 56.591 66.296 52.827 66.296 48.265 C 66.296 43.711 64.583 39.443 61.490997 36.103 C 62.440998 35.165 71.938995 25.580002 72.979996 24.552002 C 78.988 30.906 82.104 39.417 82.104 48.151 z "/>
    <path fill="#5c1001" d="M 72.982 25.498 C 84.328 38.27 84.314 57.739998 72.982 70.502 L 72.982 71.547 C 85.234 58.339996 85.247 37.672997 72.982 24.452995 L 72.982 25.498 z "/>
    <linearGradient x1="75.3623" gradientTransform="matrix(1 0 0 -1 0.1377 94.834)" y1="46.8345" x2="61.4323" gradientUnits="userSpaceOnUse" y2="46.8345" xlink:type="simple" xlink:actuate="onLoad" id="XMLID_30_" xlink:show="other">
        <stop stop-color="#b0381e" offset="0"/>
        <stop stop-color="#822519" offset="1"/>
    </linearGradient>
    <path fill="url(#XMLID_30_)" d="M 73.005 24.479 C 71.7 25.802 62.585 34.997 61.491997 36.104 C 64.224 39.466 65.788994 43.658 65.788994 48.037 C 65.788994 52.411 64.243996 56.572 61.518993 59.933 C 62.610992 61.037 71.68099 70.201 72.98599 71.520996 L 72.98599 70.529 C 72.035995 69.564 62.977993 60.402 62.42599 59.845 C 65.024994 56.414 66.48799 52.261 66.48799 48.035 C 66.48799 43.806 65.02099 39.647 62.41799 36.214 C 63.12599 35.496002 72.12299 26.420002 73.00499 25.524002 L 73.00499 24.479 z "/>
    <polygon fill="#9e6434" points="78.713,45.285 74.609,45.285 74.609,41.183 71.802,41.183 71.802,45.285 67.697,45.285   67.697,48.095 71.802,48.095 71.802,52.202 74.609,52.202 74.609,48.095 78.713,48.095 "/>
    <polygon fill="#3e2a08" points="74.609,41.18 71.802,41.18 71.802,41.188 71.799,41.188 71.799,45.301 67.706,45.294 67.706,45.301   67.7,45.301 67.7,48.1 67.706,48.1 67.706,48.106 68.148,48.1 68.148,45.745 72.238,45.745 72.238,41.625 74.609,41.625 "/>
    <rect x="71.8" width="0.438" fill="#3e2a08" y="48.073" height="4.121"/>
    <polygon fill="#3e2a08" points="74.609,45.301 78.705,45.301 78.712,45.301 78.705,45.745 74.609,45.745 "/>
</svg>
