<?xml version="1.0" encoding="UTF-8"?>
<svg xmlns="http://www.w3.org/2000/svg" xmlns:xlink="http://www.w3.org/1999/xlink" contentScriptType="text/ecmascript" width="8" baseProfile="tiny" zoomAndPan="magnify" contentStyleType="text/css" viewBox="0 0 8 8" height="8" preserveAspectRatio="xMidYMid meet" version="1.1">
    <path fill="#840000" d="M 7.123 4.0 C 7.123 5.7209997 5.7250004 7.1219997 3.999 7.1219997 C 2.272 7.123 0.876 5.721 0.876 4.0 C 0.876 2.279 2.272 0.8770001 3.9989998 0.8770001 C 5.725 0.877 7.123 2.279 7.123 4.0 z "/>
    <path fill="#ffffff" d="M 6.623 4.0 C 6.623 5.445 5.445 6.6219997 3.999 6.6219997 C 2.553 6.623 1.376 5.445 1.376 4.0 C 1.376 2.554 2.553 1.3770001 3.999 1.3770001 C 4.699 1.3770001 5.3570004 1.6500001 5.853 2.147 C 6.35 2.643 6.623 3.301 6.623 4.0 z M 4.0 0.377 C 2.001 0.377 0.376 2.002 0.376 4.0 C 0.376 5.9969997 2.001 7.6219997 3.9989998 7.6219997 C 5.9979997 7.6219997 7.623 5.9969997 7.623 3.9999998 C 7.623 3.0339997 7.2460003 2.1249998 6.5600004 1.4389997 C 5.874 0.753 4.967 0.377 4.0 0.377 z "/>
</svg>
