<?xml version="1.0" encoding="UTF-8"?>
<svg xmlns="http://www.w3.org/2000/svg" xmlns:xlink="http://www.w3.org/1999/xlink" contentScriptType="text/ecmascript" width="30" baseProfile="tiny" zoomAndPan="magnify" contentStyleType="text/css" viewBox="0 0 30 40" height="40" preserveAspectRatio="xMidYMid meet" version="1.1">
    <g>
        <g>
            <g>
                <linearGradient x1="15.2876" gradientTransform="matrix(1 0 0 -1 0.1377 38.834)" y1="31.2871" x2="33.114" gradientUnits="userSpaceOnUse" y2="13.4606" xlink:type="simple" xlink:actuate="onLoad" id="XMLID_23_" xlink:show="other">
                    <stop stop-color="#e0bc6c" offset="0"/>
                    <stop stop-color="#7f3c21" offset="1"/>
                </linearGradient>
                <polygon fill="url(#XMLID_23_)" points="27.514,24.102 27.354,24.061 16.828,21.375 16.605,21.316 16.604,21.086 16.494,6.668      16.493,6.478 16.665,6.395 17.195,6.14 17.282,6.102 17.37,6.116 27.938,7.688 28.193,7.725 28.193,7.984 28.135,23.377      28.135,23.503 28.042,23.591 27.633,23.984    "/>
                <linearGradient x1="22.207" gradientTransform="matrix(1 0 0 -1 0.1377 38.834)" y1="30.7012" x2="22.207" gradientUnits="userSpaceOnUse" y2="15.1684" xlink:type="simple" xlink:actuate="onLoad" id="XMLID_24_" xlink:show="other">
                    <stop stop-color="#f1de84" offset="0"/>
                    <stop stop-color="#cd9f3d" offset="0.5056"/>
                    <stop stop-color="#704d18" offset="1"/>
                </linearGradient>
                <polygon fill="url(#XMLID_24_)" points="27.837,23.387 27.427,23.779 16.794,6.678 17.328,6.422 27.896,7.994    "/>
                <linearGradient x1="27.2607" gradientTransform="matrix(1 0 0 -1 0.1377 38.834)" y1="15.0391" x2="17.0665" gradientUnits="userSpaceOnUse" y2="32.696" xlink:type="simple" xlink:actuate="onLoad" id="XMLID_25_" xlink:show="other">
                    <stop stop-color="#ffffff" offset="0"/>
                    <stop stop-color="#cd9f3d" offset="1"/>
                </linearGradient>
                <polygon fill="url(#XMLID_25_)" points="27.427,23.779 16.904,21.096 16.794,6.678 27.427,8.369    "/>
                <g>
                    <linearGradient x1="15.6641" gradientTransform="matrix(1 0 0 -1 0.1377 38.834)" y1="30.2998" x2="26.7901" gradientUnits="userSpaceOnUse" y2="19.1739" xlink:type="simple" xlink:actuate="onLoad" id="XMLID_26_" xlink:show="other">
                        <stop stop-color="#ffffff" offset="0"/>
                        <stop stop-color="#e0c4bd" offset="0.11"/>
                        <stop stop-color="#c26e45" offset="0.35"/>
                        <stop stop-color="#cf4530" offset="0.48"/>
                        <stop stop-color="#ad0000" offset="0.7"/>
                        <stop stop-color="#9c0000" offset="0.75"/>
                        <stop stop-color="#990000" offset="0.82"/>
                        <stop stop-color="#8a0000" offset="0.91"/>
                        <stop stop-color="#730303" offset="0.99"/>
                        <stop stop-color="#730303" offset="1"/>
                    </linearGradient>
                    <path fill="url(#XMLID_26_)" d="M 24.161 10.88 L 20.15 10.132 C 19.043 9.931 18.152 10.7 18.161 11.852 L 18.195 16.721 C 18.202 17.568 18.683 18.224 19.532 18.424 L 21.874 18.987 C 21.687 18.742 19.727 16.223 19.727 16.223 C 19.561 16.011 19.518002 15.870999 19.516 15.619 C 19.514 15.367 19.495 12.112 19.495 12.112 C 19.493 11.723 19.79 11.466999 20.159 11.539 L 24.165 12.323 C 24.533 12.395 24.832 12.78 24.832 13.18 L 24.838 17.533 C 24.839 18.097 24.471 18.172 24.176 18.101002 C 23.878 18.031002 23.796 17.872002 23.584 17.590002 C 23.371 17.311005 22.896 16.726002 22.896 16.726002 C 23.611 16.561 24.04 16.050001 24.038 15.153002 C 24.036 13.957002 23.271 12.984002 22.165 12.760002 C 21.061 12.539002 20.301 13.185002 20.309002 14.355002 C 20.311005 14.886003 20.503002 15.497003 20.981005 16.106003 C 20.981005 16.106003 22.797005 18.490004 23.047005 18.816002 C 23.296003 19.147 23.785004 19.449 24.180002 19.545002 C 25.221004 19.801004 26.168003 19.054005 26.168003 17.842005 L 26.168003 13.453003 C 26.166 12.243 25.268 11.091 24.161 10.88 z M 22.173 15.574 C 21.766 15.485001 21.436 15.06 21.434 14.624001 C 21.432 14.190001 21.76 13.907001 22.168 13.991 C 22.577 14.077001 22.908 14.503 22.908998 14.941 C 22.91 15.381 22.582 15.664 22.173 15.574 z "/>
                </g>
            </g>
            <linearGradient x1="9.1382" gradientTransform="matrix(1 0 0 -1 0.1377 38.834)" y1="16.3042" x2="21.3235" gradientUnits="userSpaceOnUse" y2="24.5726" xlink:type="simple" xlink:actuate="onLoad" id="XMLID_27_" xlink:show="other">
                <stop stop-color="#ffffff" offset="0"/>
                <stop stop-color="#cd9f3d" offset="0.5506"/>
                <stop stop-color="#ebeb87" offset="1"/>
            </linearGradient>
            <path fill="url(#XMLID_27_)" d="M 15.458 12.771 C 12.752 12.338 10.56 14.388 10.56 17.349 C 10.56 20.309998 12.752001 23.15 15.458 23.693 C 18.164 24.235998 20.355 22.186998 20.355 19.113998 C 20.355 16.043 18.164 13.203 15.458 12.771 z M 15.457 22.055 C 13.563 21.686 12.028999 19.697 12.028999 17.613 C 12.028999 15.530001 13.563 14.095001 15.456999 14.410001 C 17.352 14.724001 18.887 16.712002 18.887 18.849 C 18.887 20.986 17.352 22.423 15.457 22.055 z M 15.458 16.047 C 14.377 15.861001 13.498 16.681002 13.498 17.879002 C 13.498 19.074 14.377 20.212002 15.458 20.416002 C 16.539001 20.620005 17.418 19.799002 17.418 18.585005 C 17.418 17.37 16.539 16.233 15.458 16.047 z M 15.458 18.777 C 15.187 18.728 14.968 18.443 14.968 18.143 C 14.968 17.841 15.188001 17.637 15.458 17.685 C 15.729 17.733 15.948 18.017 15.948 18.319 C 15.948 18.621 15.729 18.827 15.458 18.777 z M 15.458 9.495 C 11.129 8.855 7.620001 12.135 7.620001 16.818 C 7.620001 21.501 11.129001 26.047 15.458 26.969002 C 19.787 27.891005 23.296 24.612 23.296 19.645002 C 23.296 14.678 19.787 10.133 15.458 9.495 z M 15.458 25.331 C 11.941 24.602 9.09 20.91 9.09 17.083 C 9.09 13.2560005 11.942 10.592 15.458 11.133 C 18.975 11.673 21.826 15.366 21.826 19.38 C 21.826 23.395 18.975 26.059 15.458 25.331 z " fill-opacity="0.5"/>
            <g>
                <path fill="#ffffff" d="M 10.123 9.691 C 10.123 9.691 10.186 11.684999 10.205 12.295 C 9.601 12.219 7.976 12.015 7.976 12.015 C 7.997 12.032001 6.736 12.023001 6.736 12.023001 C 6.195 12.005001 1.923 13.175001 1.923 13.175001 L 1.903 13.421001 C 1.5439999 18.181002 2.241 26.464 2.827 30.567 L 2.946 30.782 C 4.7679996 32.362003 8.124 33.962 10.583 33.899 L 10.702001 33.895 L 13.044001 32.007 L 13.124001 31.635 C 13.282001 31.514 13.952001 31.003 13.952001 31.003 L 13.979001 30.88 C 14.543001 28.389002 15.336001 22.382 15.336001 17.538002 C 15.336001 16.458002 15.193002 14.395002 15.193002 14.395002 C 15.193002 14.395002 14.3410015 13.432002 12.572001 12.883002 C 12.640001 12.432002 13.015001 9.923002 13.015001 9.923002 C 13.015001 9.923002 13.068002 8.976002 11.779001 8.976002 C 10.258 8.949 10.123 9.691 10.123 9.691 z "/>
                <g>
                    <g>
                        <linearGradient x1="-85.8438" gradientTransform="matrix(1 0 0 -1 102.8457 -2262.1992)" y1="-2279.2661" x2="-96.2682" gradientUnits="userSpaceOnUse" y2="-2273.3518" xlink:type="simple" xlink:actuate="onLoad" id="XMLID_28_" xlink:show="other">
                            <stop stop-color="#f1de84" offset="0"/>
                            <stop stop-color="#cd9f3d" offset="0.5056"/>
                            <stop stop-color="#704d18" offset="1"/>
                        </linearGradient>
                        <path fill="url(#XMLID_28_)" d="M 7.961 12.364 C 7.961 12.364 12.871 12.557 14.857 14.555 L 12.177 15.802 L 7.961 12.364 z "/>
                        <linearGradient x1="-86.7261" gradientTransform="matrix(1 0 0 -1 102.8457 -2262.1992)" y1="-2272.1128" x2="-91.2348" gradientUnits="userSpaceOnUse" y2="-2290.9084" xlink:type="simple" xlink:actuate="onLoad" id="XMLID_29_" xlink:show="other">
                            <stop stop-color="#f1de84" offset="0"/>
                            <stop stop-color="#cd9f3d" offset="0.5056"/>
                            <stop stop-color="#704d18" offset="1"/>
                        </linearGradient>
                        <path fill="url(#XMLID_29_)" d="M 12.18 15.804 L 11.4140005 32.493 L 13.635 30.805 C 14.377 27.536 15.334001 19.326 14.854 14.534 L 12.18 15.804 z "/>
                        <linearGradient x1="-100.0454" gradientTransform="matrix(1 0 0 -1 102.8457 -2262.1992)" y1="-2274.0547" x2="-87.6305" gradientUnits="userSpaceOnUse" y2="-2278.3296" xlink:type="simple" xlink:actuate="onLoad" id="XMLID_30_" xlink:show="other">
                            <stop stop-color="#b3ddff" offset="0"/>
                            <stop stop-color="#f1de84" offset="0.0337"/>
                            <stop stop-color="#c1a15b" offset="0.5"/>
                            <stop stop-color="#ad832f" offset="1"/>
                        </linearGradient>
                        <path fill="url(#XMLID_30_)" d="M 2.252 13.448 C 2.252 13.448 6.207 12.355 6.748 12.373 C 8.678 12.306 11.693001 12.498 14.021 14.659 L 11.198999 16.002 L 2.252 13.448 z "/>
                        <linearGradient x1="-89.7227" gradientTransform="matrix(1 0 0 -1 102.8457 -2262.1992)" y1="-2275.8223" x2="-92.0646" gradientUnits="userSpaceOnUse" y2="-2300.5322" xlink:type="simple" xlink:actuate="onLoad" id="XMLID_31_" xlink:show="other">
                            <stop stop-color="#b3ddff" offset="0"/>
                            <stop stop-color="#f1de84" offset="0.0337"/>
                            <stop stop-color="#c1a15b" offset="0.5"/>
                            <stop stop-color="#ad832f" offset="1"/>
                        </linearGradient>
                        <path fill="url(#XMLID_31_)" d="M 11.197 16.002 L 10.572 33.547 L 12.723999 31.817 C 13.502999 28.37 14.524999 19.715 14.018999 14.663002 L 11.197 16.002 z "/>
                        <linearGradient x1="-94.1338" gradientTransform="matrix(1 0 0 -1 102.8457 -2262.1992)" y1="-2276.2632" x2="-89.566" gradientUnits="userSpaceOnUse" y2="-2276.4971" xlink:type="simple" xlink:actuate="onLoad" id="XMLID_32_" xlink:show="other">
                            <stop stop-color="#f1de84" offset="0"/>
                            <stop stop-color="#cd9f3d" offset="0.5056"/>
                            <stop stop-color="#704d18" offset="1"/>
                        </linearGradient>
                        <path fill="url(#XMLID_32_)" d="M 12.465 14.078 C 12.528 14.458 12.029 14.745 11.365 14.773 C 10.698999 14.804999 10.119 14.579 10.129 14.125 C 10.137 13.835 11.231 13.607 11.231 13.607 C 11.231 13.607 12.42 13.793 12.465 14.078 z "/>
                        <linearGradient x1="-92.5728" gradientTransform="matrix(1 0 0 -1 102.8457 -2262.1992)" y1="-2274.2432" x2="-90.2891" gradientUnits="userSpaceOnUse" y2="-2274.3018" xlink:type="simple" xlink:actuate="onLoad" id="XMLID_33_" xlink:show="other">
                            <stop stop-color="#f1de84" offset="0"/>
                            <stop stop-color="#cd9f3d" offset="0.5056"/>
                            <stop stop-color="#704d18" offset="1"/>
                        </linearGradient>
                        <path fill="url(#XMLID_33_)" d="M 10.473 9.68 L 10.613999 14.18 C 10.763999 14.5 11.816999 14.565001 11.978999 14.141001 L 12.623999 9.841001 L 10.473 9.68 z "/>
                        <path fill="#8e6f3a" d="M 2.252 13.448 C 4.188 12.816 8.293 13.341 11.198999 16.001999 C 11.539 20.773 11.263 29.057 10.573999 33.549 C 8.23 33.61 4.9219995 32.031 3.1739993 30.518 C 2.6 26.506 1.887 18.243 2.252 13.448 z "/>
                        <linearGradient x1="-91.3989" gradientTransform="matrix(1 0 0 -1 102.8457 -2262.1992)" y1="-2290.564" x2="-99.4212" gradientUnits="userSpaceOnUse" y2="-2277.0959" xlink:type="simple" xlink:actuate="onLoad" id="XMLID_34_" xlink:show="other">
                            <stop stop-color="#ffffff" offset="0"/>
                            <stop stop-color="#cd9f3d" offset="1"/>
                        </linearGradient>
                        <polygon fill="url(#XMLID_34_)" points="3.215,14.605 3.516,24.719 9.99,27.105 10.205,16.614      "/>
                        <polygon fill="#3e2a08" points="4.238,24.281 4.051,14.843 3.215,14.605 3.516,24.719      "/>
                        <polygon fill="#704d18" points="3.516,24.719 4.238,24.281 10.014,26.279 9.99,27.105      "/>
                        <path fill="#ad832f" d="M 12.668 9.898 C 12.582 10.142 12.02 10.283999 11.412001 10.212 C 10.807001 10.142 10.396001 9.882999 10.494 9.639 C 10.592 9.394 11.146001 9.253 11.740001 9.326 C 12.334 9.396 12.75 9.654 12.668 9.898 z "/>
                    </g>
                </g>
                <g>
                    <linearGradient x1="-98.1577" gradientTransform="matrix(1 0 0 -1 102.8457 -2262.1992)" y1="-2284.8618" x2="-92.9702" gradientUnits="userSpaceOnUse" y2="-2293.4902" xlink:type="simple" xlink:actuate="onLoad" id="XMLID_35_" xlink:show="other">
                        <stop stop-color="#f1de84" offset="0"/>
                        <stop stop-color="#cd9f3d" offset="1"/>
                    </linearGradient>
                    <polygon fill="url(#XMLID_35_)" points="7.781,29.568 9.516,30.301 9.586,29.051 7.818,28.32     "/>
                    <linearGradient x1="-97.4185" gradientTransform="matrix(1 0 0 -1 102.8457 -2262.1992)" y1="-2284.4116" x2="-92.227" gradientUnits="userSpaceOnUse" y2="-2293.0469" xlink:type="simple" xlink:actuate="onLoad" id="XMLID_36_" xlink:show="other">
                        <stop stop-color="#f1de84" offset="0"/>
                        <stop stop-color="#cd9f3d" offset="1"/>
                    </linearGradient>
                    <polygon fill="url(#XMLID_36_)" points="9.602,28.727 9.67,27.479 7.863,26.805 7.828,27.998     "/>
                    <linearGradient x1="-98.8726" gradientTransform="matrix(1 0 0 -1 102.8457 -2262.1992)" y1="-2285.2949" x2="-93.6869" gradientUnits="userSpaceOnUse" y2="-2293.9204" xlink:type="simple" xlink:actuate="onLoad" id="XMLID_37_" xlink:show="other">
                        <stop stop-color="#f1de84" offset="0"/>
                        <stop stop-color="#cd9f3d" offset="1"/>
                    </linearGradient>
                    <polygon fill="url(#XMLID_37_)" points="7.771,29.893 7.74,31.021 9.438,31.777 9.5,30.627     "/>
                    <linearGradient x1="-100.3872" gradientTransform="matrix(1 0 0 -1 102.8457 -2262.1992)" y1="-2286.1997" x2="-95.1988" gradientUnits="userSpaceOnUse" y2="-2294.8298" xlink:type="simple" xlink:actuate="onLoad" id="XMLID_38_" xlink:show="other">
                        <stop stop-color="#f1de84" offset="0"/>
                        <stop stop-color="#cd9f3d" offset="1"/>
                    </linearGradient>
                    <polygon fill="url(#XMLID_38_)" points="5.385,27.338 3.859,26.732 3.938,27.993 5.432,28.596     "/>
                    <linearGradient x1="-98.6216" gradientTransform="matrix(1 0 0 -1 102.8457 -2262.1992)" y1="-2285.1304" x2="-93.4274" gradientUnits="userSpaceOnUse" y2="-2293.77" xlink:type="simple" xlink:actuate="onLoad" id="XMLID_39_" xlink:show="other">
                        <stop stop-color="#f1de84" offset="0"/>
                        <stop stop-color="#cd9f3d" offset="1"/>
                    </linearGradient>
                    <polygon fill="url(#XMLID_39_)" points="7.49,27.881 7.502,26.693 5.75,26.053 5.77,27.191     "/>
                    <linearGradient x1="-99.7715" gradientTransform="matrix(1 0 0 -1 102.8457 -2262.1992)" y1="-2285.8306" x2="-94.587" gradientUnits="userSpaceOnUse" y2="-2294.4546" xlink:type="simple" xlink:actuate="onLoad" id="XMLID_40_" xlink:show="other">
                        <stop stop-color="#f1de84" offset="0"/>
                        <stop stop-color="#cd9f3d" offset="1"/>
                    </linearGradient>
                    <polygon fill="url(#XMLID_40_)" points="5.33,25.879 3.766,25.316 3.838,26.406 5.371,27.012     "/>
                    <linearGradient x1="-99.959" gradientTransform="matrix(1 0 0 -1 102.8457 -2262.1992)" y1="-2285.9414" x2="-94.77" gradientUnits="userSpaceOnUse" y2="-2294.5728" xlink:type="simple" xlink:actuate="onLoad" id="XMLID_41_" xlink:show="other">
                        <stop stop-color="#f1de84" offset="0"/>
                        <stop stop-color="#cd9f3d" offset="1"/>
                    </linearGradient>
                    <polygon fill="url(#XMLID_41_)" points="5.828,30.209 7.455,30.918 7.467,29.784 5.807,29.096     "/>
                    <linearGradient x1="-100.998" gradientTransform="matrix(1 0 0 -1 102.8457 -2262.1992)" y1="-2286.5664" x2="-95.8092" gradientUnits="userSpaceOnUse" y2="-2295.1973" xlink:type="simple" xlink:actuate="onLoad" id="XMLID_42_" xlink:show="other">
                        <stop stop-color="#f1de84" offset="0"/>
                        <stop stop-color="#cd9f3d" offset="1"/>
                    </linearGradient>
                    <polygon fill="url(#XMLID_42_)" points="5.441,28.924 3.961,28.318 4.029,29.418 5.482,30.039     "/>
                    <linearGradient x1="-99.2964" gradientTransform="matrix(1 0 0 -1 102.8457 -2262.1992)" y1="-2285.5415" x2="-94.1058" gradientUnits="userSpaceOnUse" y2="-2294.1755" xlink:type="simple" xlink:actuate="onLoad" id="XMLID_43_" xlink:show="other">
                        <stop stop-color="#f1de84" offset="0"/>
                        <stop stop-color="#cd9f3d" offset="1"/>
                    </linearGradient>
                    <polygon fill="url(#XMLID_43_)" points="5.777,27.516 5.801,28.77 7.473,29.461 7.484,28.205     "/>
                    <linearGradient x1="-100.5986" gradientTransform="matrix(1 0 0 -1 102.8457 -2262.1992)" y1="-2286.332" x2="-95.412" gradientUnits="userSpaceOnUse" y2="-2294.9595" xlink:type="simple" xlink:actuate="onLoad" id="XMLID_44_" xlink:show="other">
                        <stop stop-color="#f1de84" offset="0"/>
                        <stop stop-color="#cd9f3d" offset="1"/>
                    </linearGradient>
                    <polygon fill="url(#XMLID_44_)" points="5.836,30.539 5.855,31.682 7.439,32.42 7.453,31.246     "/>
                </g>
            </g>
        </g>
    </g>
</svg>
