<?xml version="1.0" encoding="UTF-8"?>
<svg xmlns="http://www.w3.org/2000/svg" xmlns:xlink="http://www.w3.org/1999/xlink" contentScriptType="text/ecmascript" width="40" baseProfile="tiny" zoomAndPan="magnify" contentStyleType="text/css" viewBox="0 0 40 50" height="50" preserveAspectRatio="xMidYMid meet" version="1.1">
    <rect width="40" fill="none" height="50"/>
    <linearGradient x1="0.5" y1="25" x2="39.5" gradientUnits="userSpaceOnUse" y2="25" xlink:type="simple" xlink:actuate="onLoad" id="XMLID_12_" xlink:show="other">
        <stop stop-color="#cd9f3d" offset="0"/>
        <stop stop-color="#ad832f" offset="1"/>
    </linearGradient>
    <path fill="url(#XMLID_12_)" d="M 38.198 0.5 L 1.801 0.5 C 1.083 0.5 0.5 1.212 0.5 2.09 L 6.997 47.909 C 6.997 48.786 7.580001 49.5 8.298 49.5 L 31.628 49.5 C 32.348 49.5 32.93 48.787 32.93 47.909 L 39.5 2.09 C 39.5 1.212 38.915 0.5 38.198 0.5 L 38.198 0.5 z "/>
    <path fill="#eacf5a" d="M 32.93 47.909 L 39.41 2.7159996 C 39.341 2.5799997 39.25 2.5009997 39.198 2.5009997 L 2.801 2.5009997 C 2.704 2.5009997 2.5200002 2.7069998 2.502 3.0329998 L 8.988 48.77 L 8.998 48.84 L 8.998 48.91 C 8.998 49.294 9.21 49.5 9.297 49.5 L 31.627998 49.5 C 32.348 49.5 32.93 48.787 32.93 47.909 z "/>
</svg>
