<?xml version="1.0" encoding="UTF-8"?>
<svg xmlns="http://www.w3.org/2000/svg" xmlns:xlink="http://www.w3.org/1999/xlink" contentScriptType="text/ecmascript" width="42" baseProfile="tiny" zoomAndPan="magnify" contentStyleType="text/css" viewBox="0 0 42 36" height="36" preserveAspectRatio="xMidYMid meet" version="1.1">
    <g>
        <radialGradient gradientTransform="matrix(1 0 0 -1 0.1377 34.834)" id="XMLID_6_" gradientUnits="userSpaceOnUse" xlink:show="other" xlink:type="simple" r="24.351" cx="23.3711" fx="22.9353" cy="25.3506" fy="24.27" xlink:actuate="onLoad">
            <stop stop-color="#c4a64a" offset="0"/>
            <stop stop-color="#ad832f" offset="0.5337"/>
            <stop stop-color="#704d18" offset="1"/>
        </radialGradient>
        <path fill="url(#XMLID_6_)" d="M 24.0 18.0 L 34.07 18.0 C 34.07 17.99 34.073 17.98 34.073 17.971 C 34.073 10.701 28.178995 4.809001 20.912 4.809001 C 13.643999 4.809001 7.7509985 10.701001 7.7509985 17.971 C 7.7509985 25.238 13.643999 31.131 20.912 31.131 C 21.975998 31.131 23.008 30.99 23.999998 30.752 L 23.999998 18.0 z "/>
        <radialGradient gradientTransform="matrix(1 0 0 1 214.6577 -843.9639)" gradientUnits="userSpaceOnUse" xlink:type="simple" r="20.3739" xlink:actuate="onLoad" cx="-193.0024" id="XMLID_7_" cy="860.3662" xlink:show="other">
            <stop stop-color="#f1de84" offset="0"/>
            <stop stop-color="#cd9f3d" offset="1"/>
        </radialGradient>
        <path fill="url(#XMLID_7_)" d="M 14.297 6.572 C 13.698 6.928 12.098 8.061 12.076 8.5060005 C 12.055 8.949 12.535 7.9850006 12.988 8.149 C 13.076 8.149 13.628 7.376001 14.653 6.883001 C 15.098 6.4610004 15.899 6.7050004 15.899 6.7050004 C 15.899 6.7050004 18.275 5.8170004 18.142 6.0390005 C 17.78 6.6450005 15.875 6.994001 15.586 7.127001 C 15.297001 7.2610006 13.698 8.328001 15.031 7.9050007 C 15.276 7.883001 15.964 7.861001 16.298 7.973001 C 16.633 8.083 17.176 7.500001 17.831 7.638001 C 18.099 7.503 18.632002 7.216001 18.765 7.216001 C 18.898 7.216001 19.388 7.171001 19.365002 6.5950007 C 19.365002 6.5950007 19.723 5.7810006 19.832 5.460001 C 20.131 5.378001 20.476 4.905001 20.476 4.905001 C 19.544 4.7720013 17.299 5.373001 16.967 5.460001 C 16.896 5.527 15.008 6.396 14.297 6.572 z "/>
        <radialGradient gradientTransform="matrix(1 0 0 1 214.6577 -843.9639)" gradientUnits="userSpaceOnUse" xlink:type="simple" r="14.9198" xlink:actuate="onLoad" cx="-191.6714" id="XMLID_8_" cy="857.1289" xlink:show="other">
            <stop stop-color="#f1de84" offset="0"/>
            <stop stop-color="#cd9f3d" offset="1"/>
        </radialGradient>
        <path fill="url(#XMLID_8_)" d="M 21.697 27.059 L 21.252 27.372 C 21.252 27.372 20.842 27.378 20.785 27.55 C 20.584 28.165 20.652 28.991 21.139 28.882 C 21.629 28.77 21.762 28.036 21.762 28.036 C 21.762 28.036 22.252 26.947 21.697 27.059 z "/>
        <radialGradient gradientTransform="matrix(1 0 0 -1 214.6577 -699.1855)" id="XMLID_9_" gradientUnits="userSpaceOnUse" xlink:show="other" xlink:type="simple" r="20.4109" cx="-192.8359" fx="-192.4143" cy="-708.1025" fy="-708.1572" xlink:actuate="onLoad">
            <stop stop-color="#f1de84" offset="0"/>
            <stop stop-color="#cd9f3d" offset="1"/>
        </radialGradient>
        <path fill="url(#XMLID_9_)" d="M 27.585 6.861 L 28.273 8.351 L 29.871998 8.927 C 29.871998 8.927 30.272997 9.415 30.405998 9.527 C 30.604998 10.416 31.051 11.371 31.138 11.415001 C 31.224998 11.459002 31.626 11.592001 31.760998 11.570001 C 31.848995 12.06 31.714998 12.06 31.714998 12.06 L 31.071 11.748 L 31.336 12.838 L 32.579998 14.948 C 32.425 15.282 31.823996 17.259 31.823996 17.259 C 31.823996 17.259 32.150997 17.558 32.35 17.981 C 31.25 17.981 24.0 18.0 24.0 18.0 C 24.0 18.0 23.96 18.334 23.96 18.77 C 23.57 18.813 23.234 18.869 23.294 18.928 C 24.183998 19.549002 23.828 19.994 23.828 19.994 L 22.426998 21.238 C 22.426998 21.238 21.249998 21.771 20.895 21.859 C 20.251 22.258 20.961 22.416 21.672 22.238 C 22.383 22.06 22.317 22.349 22.204998 22.638 C 21.804998 23.615 21.094995 24.236 20.627 24.414 C 19.651 25.102 19.426998 26.125002 19.894 26.547 C 19.894 26.547 19.939 27.547 19.605 27.568 C 19.272 27.591002 18.805 27.947 18.805 28.101002 C 18.805 28.257002 18.451 28.902002 18.316 29.011002 C 17.849 29.611002 17.249 29.544004 16.982 29.411 C 15.759001 29.651 14.739 27.679 14.672001 27.501 C 14.606001 27.323002 13.717001 26.88 14.006 26.079 C 14.293 25.278 12.937 23.296 12.227 21.569 C 12.136001 21.491 11.183001 21.256 10.673 21.102 C 10.162001 20.946 9.939 19.725 9.717 19.212002 C 9.495 18.700005 10.095 16.724003 10.117 16.589003 C 10.139 16.456003 12.627999 14.657002 12.627999 14.657002 L 12.537 13.878002 C 12.537 13.878002 13.339 12.790002 13.490999 13.146002 C 13.646999 13.501001 14.426999 13.4330015 14.357999 12.924002 C 14.290998 12.413002 14.470999 12.167002 14.668999 12.146002 C 14.868999 12.123002 14.6919985 11.703002 14.447999 11.390002 C 14.203999 11.079002 14.824999 10.990003 15.226999 10.613002 C 15.627999 10.234002 15.337999 11.435001 15.337999 11.835002 C 15.337999 12.2350025 16.692999 11.168002 16.758999 11.102002 C 16.603998 10.325002 17.227 10.124002 17.404 10.102002 C 17.582 10.080002 18.383 9.613002 18.582 9.412003 C 18.780998 9.214003 19.338 9.214003 19.516 9.2350025 C 19.693 9.256002 20.492 9.901003 20.693 9.901003 C 20.893 9.901003 22.471 9.479003 22.516 9.190002 C 22.561 8.901002 22.714998 8.745003 23.005 8.635002 C 23.293 8.524002 23.338 7.589002 23.338 7.589002 C 23.338 7.589002 24.671 7.279002 24.87 7.2120023 C 25.07 7.1450024 24.891998 6.746002 24.827 6.568002 C 25.07 6.035002 23.805 5.511002 24.269 5.545002 C 26.096 5.684 27.384 6.55 27.585 6.861 z M 12.831 14.727 L 13.009001 14.95 C 13.009001 14.95 13.927001 15.044 14.836 15.396999 C 14.974 15.535999 14.808001 16.194 14.808001 16.194 C 14.808001 16.194 15.785001 17.526 15.985001 17.284 C 16.184 17.038 16.451 16.815 16.762001 17.038 C 17.074 17.26 17.829 17.526 18.207 17.526 C 18.364 17.571 19.139 17.815 19.117 16.639002 C 18.812 16.215002 18.029 16.284002 17.895 16.172 C 17.762 16.060001 17.496 15.260001 17.496 15.260001 L 17.229 15.327002 C 17.229 15.327002 17.185 15.883001 17.03 15.883001 C 16.874 15.883001 16.54 15.039001 16.54 15.039001 L 16.586 14.594002 L 16.075 13.974002 C 16.075 13.974002 15.741001 14.128002 16.386002 14.951002 C 16.386002 14.951002 15.9400015 15.417002 15.609001 15.438002 C 15.698001 15.328002 15.899001 14.817001 15.899001 14.817001 C 15.899001 14.817001 14.883001 13.560001 14.676001 13.729001 C 14.433001 13.928001 13.721001 14.305001 13.721001 14.305001 L 13.254001 14.705001 L 12.831 14.727 z M 18.208 10.594 C 17.73 11.365 17.035 11.584 17.096 11.86 C 17.121 11.973 17.787 12.127999 17.896 11.816999 C 18.009 11.504 18.408 11.438 18.408 11.304999 C 18.408 11.172 18.27 10.494 18.208 10.594 z M 19.119 14.394 C 19.009 14.349 18.786 13.95 18.519 14.237 C 18.252998 14.526 17.919 15.171 18.252998 15.216001 C 18.586 15.261001 19.075 15.083 19.184998 15.171 C 19.297998 15.261001 20.147997 15.610001 20.275995 15.171 C 20.493 14.426 19.119 14.394 19.119 14.394 z M 18.674 18.415 C 18.664 18.551 19.23 19.883 19.23 19.883 C 19.23 19.883 19.184 20.326002 19.297 20.483002 C 19.408998 20.639002 19.807 21.461002 20.252 21.594002 C 20.893 20.854002 19.653 19.883 19.653 19.883 L 19.607 19.504002 C 19.607 19.504 18.719 17.793 18.674 18.415 z M 21.65 18.016 L 21.672 18.393002 L 22.474 19.281002 C 22.474 19.281002 23.207 19.216002 23.074 18.683002 L 22.43 18.46 L 21.65 18.016 z "/>
        <g>
            <rect x="24.999" width="10.565" fill="#eacf5a" y="19.001" height="12.565"/>
            <rect x="33.646" width="0.959" fill="none" y="22.921" height="0.959"/>
            <rect x="33.645" width="0.961" fill="none" y="24.844" height="0.959"/>
            <rect x="33.645" width="0.961" fill="none" y="20.999" height="0.959"/>
            <rect x="25.961" width="0.96" fill="none" y="20.999" height="0.959"/>
            <rect x="33.646" width="0.959" fill="none" y="26.762" height="0.961"/>
            <rect x="25.961" width="0.96" fill="none" y="28.686" height="0.959"/>
            <rect x="33.645" width="0.961" fill="none" y="28.686" height="0.959"/>
            <rect x="25.961" width="0.96" fill="none" y="22.921" height="0.959"/>
            <rect x="25.96" width="0.961" fill="none" y="24.841" height="0.959"/>
            <rect x="25.96" width="0.961" fill="none" y="26.764" height="0.959"/>
            <linearGradient x1="30.2832" y1="31.5703" x2="30.2832" gradientUnits="userSpaceOnUse" y2="19.0049" xlink:type="simple" xlink:actuate="onLoad" id="XMLID_10_" xlink:show="other">
                <stop stop-color="#f1de84" offset="0"/>
                <stop stop-color="#cd9f3d" offset="1"/>
            </linearGradient>
            <polygon fill="url(#XMLID_10_)" points="32.684,31.57 32.684,19.005 27.882,19.005 27.882,31.529   "/>
            <path fill="#7f3c21" d="M 34.604 18.997 L 34.604 20.038 L 33.645 20.038 L 33.645 18.997 L 32.684002 18.997 L 32.684002 19.005 L 32.684002 21.958 L 27.881002 21.958 L 27.881002 19.005 L 27.881002 18.997002 L 26.92 18.997002 L 26.92 20.038002 L 25.96 20.038002 L 25.96 18.997002 L 24.998 18.997002 L 24.998 31.562 L 25.96 31.562 L 25.96 30.603 L 26.919 30.603 L 26.919 31.562 L 27.88 31.562 L 27.88 31.55 L 27.88 28.684 L 32.682 28.684 L 32.682 31.55 L 32.682 31.567 L 33.643 31.567 L 33.643 30.608 L 34.601997 30.608 L 34.601997 31.567 L 35.565 31.567 L 35.565 18.997 L 34.604 18.997 z M 33.646 26.762 L 34.605 26.762 L 34.605 27.723 L 33.646 27.723 L 33.646 26.762 z M 34.604 23.88 L 33.645 23.88 L 33.645 22.921 L 34.604 22.921 L 34.604 23.88 z M 34.604 24.841 L 34.604 25.803 L 33.645 25.803 L 33.645 24.841 L 34.604 24.841 z M 34.604 20.999 L 34.604 21.958 L 33.645 21.958 L 33.645 20.999 L 34.604 20.999 z M 27.882 22.921 L 32.686 22.921 L 32.686 27.724998 L 27.882 27.724998 L 27.882 22.921 z M 26.921 20.999 L 26.921 21.958 L 25.961 21.958 L 25.961 20.999 L 26.921 20.999 z M 25.961 25.803 L 25.961 24.841 L 26.92 24.841 L 26.92 25.803 L 25.961 25.803 L 25.961 25.803 z M 26.921 26.762 L 26.921 27.723 L 25.961 27.723 L 25.961 26.762 L 26.921 26.762 z M 25.961 23.88 L 25.961 22.921 L 26.92 22.921 L 26.92 23.88 L 25.961 23.88 z M 25.961 29.645 L 25.961 28.684 L 26.92 28.684 L 26.92 29.645 L 25.961 29.645 z M 33.646 29.645 L 33.646 28.684 L 34.605 28.684 L 34.605 29.645 L 33.646 29.645 z "/>
        </g>
        <path fill="#ffffff" d="M 24.0 30.703 C 23.008 30.943 21.977 31.086 20.912 31.086 C 13.681001 31.086 7.797001 25.203 7.797001 17.971 C 7.797001 10.738998 13.68 4.853999 20.912 4.853999 C 28.142 4.853999 34.027 10.737999 34.027 17.97 C 34.027 17.98 34.025 17.99 34.025 17.999 L 34.379 17.999 C 34.379 17.988998 34.381 17.978998 34.381 17.97 C 34.381 10.542 28.339 4.499999 20.912 4.499999 C 13.485001 4.499999 7.443001 10.541999 7.443001 17.97 C 7.443001 25.398 13.485001 31.439 20.912 31.439 C 21.975 31.439 23.007 31.302 24.0 31.068 L 24.0 30.703 L 24.0 30.703 z "/>
        <rect width="42" fill="none" height="36"/>
    </g>
</svg>
