<?xml version="1.0" encoding="UTF-8"?>
<svg xmlns="http://www.w3.org/2000/svg" xmlns:xlink="http://www.w3.org/1999/xlink" contentScriptType="text/ecmascript" width="26" baseProfile="tiny" zoomAndPan="magnify" contentStyleType="text/css" viewBox="0 0 26 26" height="26" preserveAspectRatio="xMidYMid meet" version="1.1">
    <g>
        <path fill="#eacf5a" d="M 17.466 15.336 C 18.177 14.244 18.596 12.954 18.596 11.555 C 18.596 7.721 15.474998 4.602 11.637999 4.602 C 7.8019986 4.602 4.6799984 7.721 4.6799984 11.555 C 4.6799984 15.388 7.801998 18.508 11.637999 18.508 C 12.924998 18.508 14.1259985 18.151 15.160998 17.537 L 18.687998 21.037 L 20.990995 18.825998 L 17.466 15.336 z M 11.636 16.775 C 8.754999 16.775 6.408999 14.433 6.408999 11.553999 C 6.408999 8.674998 8.754999 6.3329988 11.636 6.3329988 C 14.517 6.3329988 16.863 8.674999 16.863 11.553999 C 16.863 14.432999 14.518 16.775 11.636 16.775 z M 7.767 12.374 L 15.529 12.374 L 15.529 10.728 L 7.767 10.728 L 7.767 12.374 z " fill-opacity="0.3"/>
        <rect width="26" fill="none" height="26"/>
        <path fill="#5c1001" d="M 18.493 15.204 C 19.096 14.079 19.411 12.83 19.411 11.555 C 19.411 7.271001 15.924 3.7850003 11.636 3.7850003 C 7.35 3.7850003 3.863 7.270001 3.863 11.555 C 3.863 15.84 7.35 19.325 11.636 19.325 C 12.804 19.325 13.959999 19.056002 15.013 18.545 L 18.676 22.18 L 22.158 18.837 L 18.493 15.204 z M 15.159 17.537 C 14.124001 18.150002 12.923 18.508 11.636001 18.508 C 7.8000007 18.508 4.6780005 15.389002 4.6780005 11.555001 C 4.6780005 7.721001 7.8 4.602001 11.636001 4.602001 C 15.474001 4.602001 18.594002 7.721001 18.594002 11.555001 C 18.594002 12.954001 18.176004 14.244001 17.465002 15.336001 L 20.988005 18.826002 L 18.685003 21.037004 L 15.159 17.537 z M 11.636 6.334 C 8.754999 6.334 6.408999 8.676001 6.408999 11.555 C 6.408999 14.433001 8.754999 16.775 11.636 16.775 C 14.517 16.775 16.863 14.433 16.863 11.555 C 16.863 8.676 14.518 6.334 11.636 6.334 z M 11.636 15.958 C 9.783 15.958 8.195 14.812 7.543 13.191 L 15.732 13.191 C 15.079 14.813 13.489 15.958 11.636 15.958 z M 7.767 12.374 L 7.767 10.728 L 15.529 10.728 L 15.529 12.374 L 7.767 12.374 z M 7.545 9.911 C 8.197 8.294 9.786 7.15 11.636 7.15 C 13.487 7.15 15.075 8.294001 15.728 9.911 L 7.545 9.911 z " fill-opacity="0.3"/>
    </g>
</svg>
