<?xml version="1.0" encoding="UTF-8"?>
<svg xmlns="http://www.w3.org/2000/svg" xmlns:xlink="http://www.w3.org/1999/xlink" contentScriptType="text/ecmascript" width="84" baseProfile="tiny" zoomAndPan="magnify" contentStyleType="text/css" viewBox="0 0 84 58" height="58" preserveAspectRatio="xMidYMid meet" version="1.1">
    <g>
        <g>
            <g>
                <g>
                    <radialGradient gradientTransform="matrix(0.5915 0 0 -0.5915 -92.2047 -138.895)" gradientUnits="userSpaceOnUse" xlink:type="simple" r="55.3257" xlink:actuate="onLoad" cx="231.1787" id="XMLID_12_" cy="-254.3955" xlink:show="other">
                        <stop stop-color="#c1a15b" offset="0"/>
                        <stop stop-color="#8e6f3a" offset="0.5337"/>
                        <stop stop-color="#704d18" offset="1"/>
                    </radialGradient>
                    <circle fill="url(#XMLID_12_)" r="17.686" cx="41.047" cy="22.986"/>
                    <g>
                        <radialGradient gradientTransform="matrix(0.5915 0 0 -0.5915 -92.2047 -138.895)" gradientUnits="userSpaceOnUse" xlink:type="simple" r="35.632" xlink:actuate="onLoad" cx="231.7041" id="XMLID_13_" cy="-256.9829" xlink:show="other">
                            <stop stop-color="#f1de84" offset="0"/>
                            <stop stop-color="#eacf5a" offset="1"/>
                        </radialGradient>
                        <path fill="url(#XMLID_13_)" d="M 33.918 7.758 C 33.989998 7.906 34.232 7.944 34.741 7.782 C 35.117 7.748 36.098 6.896 36.612 7.066 C 37.126 7.237 37.548 6.893 38.026 6.587 C 39.02 6.674 40.078 5.8 40.282 5.8 C 40.486 5.8 41.259003 5.9420004 41.428 5.67 C 41.428 5.67 43.294003 6.1080003 44.997 5.742 C 43.726 5.452 42.404003 5.2990003 41.046 5.2990003 C 39.297 5.2990003 37.608 5.5550003 36.013 6.0270004 C 35.567 6.456 35.089 7.04 33.918 7.758 z "/>
                        <radialGradient gradientTransform="matrix(0.5915 0 0 -0.5915 -92.2047 -138.895)" gradientUnits="userSpaceOnUse" xlink:type="simple" r="35.6039" xlink:actuate="onLoad" cx="231.708" id="XMLID_14_" cy="-256.9829" xlink:show="other">
                            <stop stop-color="#5aa7e0" offset="0"/>
                            <stop stop-color="#0046b7" offset="1"/>
                        </radialGradient>
                        <path fill="url(#XMLID_14_)" d="M 55.227 28.611 L 54.649002 29.526001 C 54.649002 29.526001 53.786003 29.797 53.752003 30.071001 C 53.737003 30.188002 53.086002 31.634 53.086002 31.634 C 53.086002 31.634 52.828003 32.440002 53.562004 32.2 C 55.083 31.702 56.08 28.44 55.227 28.611 z "/>
                        <radialGradient gradientTransform="matrix(0.5915 0 0 -0.5915 -92.2047 -138.895)" gradientUnits="userSpaceOnUse" xlink:type="simple" r="35.6103" xlink:actuate="onLoad" cx="231.7051" id="XMLID_15_" cy="-256.98" xlink:show="other">
                            <stop stop-color="#f1de84" offset="0"/>
                            <stop stop-color="#eacf5a" offset="1"/>
                        </radialGradient>
                        <path fill="url(#XMLID_15_)" d="M 27.688 30.409 C 27.938 30.409 28.581999 30.488 28.659 30.255001 C 28.664 30.152 28.754 27.734001 28.754 27.734001 L 29.718 26.453001 L 29.718 25.432001 L 27.212 23.811 L 26.124 22.632 C 26.124 22.637 25.702 21.361 25.308 21.0 C 24.979 20.698 25.002 20.036 24.651001 19.547 C 24.332 19.107 24.076 18.859001 23.872002 18.761002 C 22.256002 25.306002 24.762001 30.871002 27.108002 33.873 C 27.444002 33.393 27.711002 32.855 27.916002 32.383 C 28.127 31.895 26.849 31.203 27.688 30.409 z "/>
                        <radialGradient gradientTransform="matrix(0.5915 0 0 -0.5915 -92.2047 -138.895)" gradientUnits="userSpaceOnUse" xlink:type="simple" r="35.6082" xlink:actuate="onLoad" cx="231.7051" id="XMLID_16_" cy="-256.9761" xlink:show="other">
                            <stop stop-color="#f1de84" offset="0"/>
                            <stop stop-color="#eacf5a" offset="1"/>
                        </radialGradient>
                        <path fill="url(#XMLID_16_)" d="M 29.616 10.137 C 29.616 9.82 30.137 9.661 30.137 9.661 L 30.205 9.911 L 30.681 10.114 C 30.681 10.114 31.248 9.503 31.362 9.343 C 31.473999 9.184 31.678 8.5720005 31.678 8.5720005 L 32.669 7.4060006 C 30.446 8.603001 28.509998 10.2630005 26.985998 12.257 C 27.598 11.773 29.616 10.455 29.616 10.137 z "/>
                        <radialGradient gradientTransform="matrix(0.5915 0 0 -0.5915 -92.2047 -138.895)" gradientUnits="userSpaceOnUse" xlink:type="simple" r="35.603" xlink:actuate="onLoad" cx="231.6992" id="XMLID_17_" cy="-256.9761" xlink:show="other">
                            <stop stop-color="#f1de84" offset="0"/>
                            <stop stop-color="#eacf5a" offset="1"/>
                        </radialGradient>
                        <path fill="url(#XMLID_17_)" d="M 38.972 7.338 C 39.196 7.2949996 39.705 7.0569997 39.705 7.0569997 C 39.705 7.0569997 39.45 6.949 39.163002 6.9919996 C 38.876003 7.0349994 38.461002 6.818 38.237003 6.9259996 C 38.429 7.165 38.748 7.381 38.972 7.338 z "/>
                        <radialGradient gradientTransform="matrix(0.7705 0 0 -0.7705 -22.0749 -37.9738)" gradientUnits="userSpaceOnUse" xlink:type="simple" r="27.339" xlink:actuate="onLoad" cx="86.8584" id="XMLID_18_" cy="-66.2959" xlink:show="other">
                            <stop stop-color="#f1de84" offset="0"/>
                            <stop stop-color="#eacf5a" offset="1"/>
                        </radialGradient>
                        <path fill="url(#XMLID_18_)" d="M 49.191 7.283 C 48.646004 7.436 48.201 7.552 48.095 7.552 C 47.785 7.552 47.868 7.291 47.595 7.257 C 47.322002 7.223 45.038002 6.633 44.732002 6.941 C 44.423004 7.25 43.222004 7.564 42.948 7.598 C 42.676003 7.633 43.039 8.46 43.763 8.981 C 43.661 9.084 42.039 9.982 42.039 9.367 C 42.039 8.752999 41.722 8.302 41.224003 8.12 C 40.770004 8.233 40.248 8.71 40.974003 9.367 C 41.425003 9.776 40.977 9.830999 40.946003 9.948999 C 40.812004 10.443999 42.032 10.926 41.450005 11.289 C 40.901005 11.337999 40.414005 11.238 40.323006 11.186 C 39.463005 10.7039995 39.268005 12.615 39.268005 12.615 L 40.206005 13.08 L 38.638004 14.605 C 38.638004 14.605 36.337006 16.202 36.303005 16.407999 C 36.268005 16.612999 35.281006 19.261 35.622005 20.047998 C 35.964005 20.833998 37.735004 22.954998 38.554005 23.022 C 39.625004 23.109 42.720005 22.491 42.720005 22.491 C 42.789005 22.663 43.105003 23.348 44.625004 23.632 C 44.679005 23.642 43.970005 25.002 44.386005 25.587 C 45.293007 26.857 45.746006 28.166 45.248005 28.756 C 44.058006 30.542 44.970005 30.678001 45.259007 31.613 C 45.363007 31.885 44.656006 34.33 47.00601 34.992 C 47.85101 35.064 48.29001 34.931 49.007008 34.008 C 49.21401 33.838 50.42201 32.606 51.218006 32.341 C 51.480007 32.322998 50.968006 31.621 51.490005 30.879 C 52.052006 30.657 53.563004 29.637 53.563004 29.637 C 53.631004 28.140999 52.827003 26.292 54.33 25.233 C 55.299004 24.247 55.434002 24.365 56.054 22.861 C 56.222 22.417 56.81 20.829 55.782 21.206 C 55.101 21.455 54.931 21.444 54.717003 21.376 C 54.654003 20.82 54.535004 20.594 53.923004 20.05 C 53.606003 19.300999 52.834003 18.008999 52.834003 18.008999 L 51.746002 16.353998 L 51.882004 16.013998 L 54.240005 19.222998 C 54.455006 19.845997 54.601006 20.133997 54.771004 20.865997 C 56.118004 20.540997 57.281002 18.784998 56.736004 17.356997 C 56.712006 17.330997 56.377003 17.397997 55.882004 17.362997 C 55.118004 16.805998 54.658005 15.631997 54.658005 15.631997 L 56.391006 17.091997 L 57.24201 17.158997 L 57.778008 18.224997 C 57.930008 18.324997 58.034008 18.389997 58.034008 18.389997 C 58.034008 18.389997 58.069008 18.395998 58.12801 18.396997 C 56.833 13.561 53.542 9.545 49.191 7.283 z M 45.417 7.987 C 45.273 7.623 45.836998 7.486 45.836998 7.486 C 45.836998 7.486 46.397 8.299 46.307 8.836 C 46.218 9.367001 45.626 9.041 45.448997 8.883 C 45.271 8.725 45.559 8.352 45.417 7.987 z M 50.506 14.799 C 49.925 14.799 49.117 14.797 48.621002 14.455 C 48.126003 14.113 47.948 14.602 47.619003 14.944 C 47.404003 15.167 45.180004 14.066 45.180004 14.066 L 44.850002 13.107 L 42.821003 12.972 L 41.524002 13.357 L 40.261 13.159 L 41.661003 12.660001 C 41.661003 12.660001 42.667004 11.714001 43.028004 11.407001 C 43.335003 11.146001 44.559002 11.305 44.559002 11.305 L 45.957 12.425 C 45.957 12.425 45.861 12.937 45.73 13.107 C 46.242 13.073 46.626 12.418 46.626 12.418 C 45.488 11.42 45.496998 11.177 45.496998 11.177 L 46.955997 12.002 L 47.061996 12.427 C 47.061996 12.427 47.642 13.428 48.202995 13.47 C 48.440994 13.488 48.245995 12.531 48.245995 12.531 L 48.543995 12.488 C 49.129993 13.846 51.199993 13.712 51.577995 14.03 C 51.602 15.435 50.749 14.867 50.506 14.799 z M 50.895 12.374 C 50.374 12.17 49.837 12.2699995 49.837 12.2699995 C 49.721 12.500999 48.883003 12.263 49.050003 11.752 C 49.218002 11.241 49.768 11.6449995 50.020004 11.367 C 50.272003 11.089 50.629005 10.903 50.793003 11.167 C 50.604004 11.419 50.960003 11.616 51.209003 11.75 C 51.91 12.129 52.37 12.671 50.895 12.374 z M 53.777 13.623 C 53.515 13.389 53.685 13.112 53.287 12.741 C 52.718998 12.211 52.406998 11.9800005 52.733997 11.400001 C 53.290997 11.134001 52.961 11.755 53.170998 12.05 C 53.281998 12.207 53.781998 12.709001 54.259 13.35 C 54.654 13.884 54.041 13.856 53.777 13.623 z "/>
                    </g>
                </g>
                <g>
                    <linearGradient x1="53.377" y1="45.2178" x2="60.5156" gradientUnits="userSpaceOnUse" y2="45.2178" xlink:type="simple" xlink:actuate="onLoad" id="XMLID_19_" xlink:show="other">
                        <stop stop-color="#9e6434" offset="0"/>
                        <stop stop-color="#b0381e" offset="0.5"/>
                        <stop stop-color="#822519" offset="1"/>
                    </linearGradient>
                    <rect x="53.377" width="7.139" fill="url(#XMLID_19_)" y="40.107" height="10.221"/>
                    <polygon fill="#eacf5a" points="47.678,37.915 51.68,36.236 70.156,37.854 66.156,39.531     "/>
                    <path fill="#ad832f" d="M 70.074 37.864 L 66.134995 39.537 L 66.436 48.782997 C 66.436 48.782997 66.714 51.157997 64.2 52.616997 L 68.2 50.969997 C 70.638 49.510998 70.376 47.19 70.376 47.19 L 70.074 37.864 z "/>
                    <linearGradient x1="51.2119" y1="37.3662" x2="55.5674" gradientUnits="userSpaceOnUse" y2="37.3662" xlink:type="simple" xlink:actuate="onLoad" id="XMLID_20_" xlink:show="other">
                        <stop stop-color="#9e6434" offset="0"/>
                        <stop stop-color="#b0381e" offset="0.5"/>
                        <stop stop-color="#822519" offset="1"/>
                    </linearGradient>
                    <path fill="url(#XMLID_20_)" d="M 54.521 36.805 C 55.547 36.987 55.875 37.386 55.25 37.696 C 54.626 38.007 53.287 38.11 52.259 37.927 C 51.232998 37.745 50.905 37.348 51.53 37.037 C 52.152 36.727 53.492 36.624 54.521 36.805 z "/>
                    <linearGradient x1="61.6475" y1="38.2598" x2="66.001" gradientUnits="userSpaceOnUse" y2="38.2598" xlink:type="simple" xlink:actuate="onLoad" id="XMLID_21_" xlink:show="other">
                        <stop stop-color="#9e6434" offset="0"/>
                        <stop stop-color="#b0381e" offset="0.5"/>
                        <stop stop-color="#822519" offset="1"/>
                    </linearGradient>
                    <path fill="url(#XMLID_21_)" d="M 64.947 37.703 C 65.976 37.898 66.308 38.307 65.688995 38.615997 C 65.065994 38.923996 63.729996 39.012997 62.700996 38.815998 C 61.671997 38.621 61.339996 38.211998 61.960995 37.905 C 62.581 37.598 63.918 37.506 64.947 37.703 z "/>
                    <path fill="#cd9f3d" d="M 54.837 37.059 C 54.549004 37.275997 54.447002 37.338997 53.613003 37.405 C 52.353004 37.503998 51.915 37.150997 51.915 37.150997 L 51.918 33.267998 C 51.818 31.830997 52.753998 30.551998 53.718 29.864998 C 54.979 28.964998 57.307 27.978998 59.644997 28.384998 C 62.689995 28.911999 63.923996 30.540998 64.543 31.506998 C 65.232 32.586998 65.218 33.588997 65.218 33.588997 L 65.286 37.993996 C 65.286 37.993996 64.91801 38.303997 64.064 38.347996 C 62.468002 38.427998 62.342003 38.074997 62.342003 38.074997 C 62.342003 38.074997 62.49 33.945995 62.140003 33.197998 C 61.827003 32.53 60.701004 30.751999 57.882004 30.627998 C 55.269005 30.512 54.786003 32.656 54.786003 32.656 C 54.795 32.241 54.837 37.059 54.837 37.059 z "/>
                    <linearGradient x1="53.5859" y1="34.0439" x2="56.8164" gradientUnits="userSpaceOnUse" y2="34.0439" xlink:type="simple" xlink:actuate="onLoad" id="XMLID_22_" xlink:show="other">
                        <stop stop-color="#9e6434" offset="0"/>
                        <stop stop-color="#b0381e" offset="0.5"/>
                        <stop stop-color="#822519" offset="1"/>
                    </linearGradient>
                    <path fill="url(#XMLID_22_)" d="M 53.613 37.402 C 53.613 37.402 53.521 33.414 53.676 32.96 C 54.378998 30.897 56.815998 30.685999 56.815998 30.685999 C 55.197 31.189999 54.947998 32.066998 54.87 32.606 C 54.789997 33.145 54.836998 37.059 54.836998 37.059 C 54.434 37.402 54.131 37.402 53.613 37.402 z "/>
                    <path fill="#cd9f3d" d="M 47.678 37.915 L 66.157 39.531002 C 66.169 39.876003 66.385994 46.435 66.461 48.739002 C 66.536995 51.039 64.562996 53.161003 62.507 52.982002 L 52.24 52.084 C 50.316 51.915 48.058002 49.423 47.982002 47.122 C 47.906 44.818 47.688 38.26 47.678 37.915 z M 58.104 45.441 C 58.764 45.085003 59.192 44.320004 59.162 43.4 C 59.117 42.051003 58.106 40.877003 56.905 40.771 C 55.702 40.666 54.764 41.67 54.809 43.019 C 54.837997 43.913002 55.293 44.732002 55.947998 45.21 L 56.072998 48.975998 L 58.226997 49.163998 L 58.104 45.441 "/>
                </g>
                <rect width="84" fill="none" height="58"/>
            </g>
        </g>
        <g>
            <path fill="#ffffff" d="M 13.012 34.371 C 10.231 34.371 6.42 35.031 5.455 40.757 L 5.31 41.618 C 5.31 41.618 11.716 41.618 12.476 41.618 C 12.705 42.034 13.048 42.651 13.264999 43.048 C 13.047999 43.441 12.704999 44.058 12.476 44.475 C 11.716 44.475 5.31 44.475 5.31 44.475 L 5.455 45.336998 C 6.42 51.057 10.23 51.720997 13.012 51.720997 C 15.204 51.720997 17.158 49.875996 18.728 48.392 C 19.579 47.591 20.378 46.836 20.801 46.836 L 40.425003 46.836 L 40.645004 46.593998 C 41.066006 46.128998 42.045006 44.860996 42.067005 43.077 L 42.067005 43.014 C 42.046005 41.232 41.066006 39.961 40.645004 39.498 L 40.425003 39.256 L 20.801 39.256 C 20.378 39.256 19.576 38.501 18.731 37.7 C 17.159 36.215 15.206 34.371 13.012 34.371 z "/>
            <path fill="#6e8489" d="M 41.331 43.048 C 41.331 43.04 41.333 43.03 41.333 43.025 L 41.329 43.025 C 41.309998 41.476 40.424 40.356003 40.098 39.999 C 39.685 39.999 20.802 39.999 20.802 39.999 C 20.083 39.999 19.306 39.260002 18.222 38.242 C 16.749 36.846 14.913 35.112 13.0130005 35.112 C 9.927 35.112 7.0030003 36.021 6.1850004 40.881 C 7.3450003 40.881 12.9140005 40.881 12.9140005 40.881 L 14.109 43.049 L 12.9140005 45.213 C 12.9140005 45.213 7.3460007 45.213 6.1850004 45.213 C 7.0030003 50.072002 9.925 50.983 13.0130005 50.983 C 14.913 50.983 16.749 49.248 18.222 47.855003 C 19.306 46.835003 20.085001 46.095005 20.802 46.095005 C 20.802 46.095005 39.684998 46.095005 40.098 46.095005 C 40.424 45.740005 41.311 44.618004 41.329 43.070004 L 41.333 43.070004 C 41.333 43.062 41.331 43.053 41.331 43.048 z "/>
        </g>
    </g>
</svg>
