<?xml version="1.0" encoding="UTF-8"?>
<svg xmlns="http://www.w3.org/2000/svg" xmlns:xlink="http://www.w3.org/1999/xlink" contentScriptType="text/ecmascript" width="270" baseProfile="tiny" zoomAndPan="magnify" contentStyleType="text/css" viewBox="0 0 270 194" height="194" preserveAspectRatio="xMidYMid meet" version="1.0">
    <linearGradient x1="135" y1="-0.6" x2="135" gradientUnits="userSpaceOnUse" y2="194.41" xlink:type="simple" xlink:actuate="onLoad" id="_1" xlink:show="other">
        <stop stop-color="#f5deb3" offset="0"/>
        <stop stop-color="#cd5c5c" offset="0.52"/>
        <stop stop-color="#f5deb3" offset="1"/>
    </linearGradient>
    <rect width="270" fill="url(#_1)" height="194"/>
    <g xlink:href="#shape39">
        <g id="shape39">
            <path fill="#8b0000" d="M 61.757 136.241 C 59.063 133.194 56.367 130.146 53.672 127.098 C 52.203 125.436 50.732 123.774 49.263 122.112 C 48.414 121.153 46.57 118.131 45.346 117.821 C 43.605 117.379 40.611 119.584 39.016 120.19 C 35.344 121.583 31.440998 122.582 27.573996 123.257 C 24.390997 123.813 22.081997 122.98701 21.079998 126.689 C 20.322 129.483 20.336 132.616 20.802998 135.459 C 21.427998 139.254 22.271996 143.038 20.997995 146.805 C 19.783997 150.392 17.786997 153.68999 15.382998 156.60199 C 12.550998 152.521 9.505998 148.50198 9.207997 143.34799 C 8.863997 137.41199 9.411997 131.45699 10.347998 125.59699 C 11.097998 120.912 12.417997 115.90099 16.421997 112.92999 C 20.282995 110.063 25.454998 109.39299 30.136995 109.47499 C 24.866997 105.45299 19.597998 101.43199 14.328998 97.40999 C 16.556997 96.13199 18.596998 94.32299 21.107998 93.60799 C 23.363998 92.96599 26.165998 93.63099 28.456997 93.90498 C 29.974997 94.08598 32.146996 94.67098 33.597996 93.96698 C 35.359997 93.11198 36.437996 89.90298 37.513996 88.36098 C 37.228996 91.226974 35.587 95.66198 38.589996 97.38098 C 42.911995 99.85698 47.184 102.42598 51.478996 104.95098 C 48.411995 101.097984 45.708996 96.96698 43.258995 92.70098 C 41.069996 88.88798 38.528996 84.21898 39.886993 79.68998 C 32.008995 79.86898 29.153994 86.72698 28.821997 93.63898 C 26.104996 88.43797 25.668997 81.61998 28.395994 76.32998 C 29.673994 73.84798 31.562994 72.90898 33.419994 71.06898 C 35.189995 69.31598 32.974995 65.530975 32.447994 63.574978 C 30.725994 57.168976 29.681992 50.609978 27.900991 44.220978 C 27.049994 41.165977 28.071993 38.165977 28.522991 35.12898 C 29.061993 31.50998 29.599993 27.89198 30.136992 24.27398 C 36.144993 28.07698 41.189995 33.21098 44.536995 39.50898 C 48.362995 46.71098 50.62899 54.60398 53.060997 62.34998 C 54.313995 49.90498 55.241997 37.38298 56.667995 24.962978 C 56.995995 22.109978 60.680996 14.417978 63.279995 20.313978 C 65.479996 25.304976 64.767 31.811975 64.38899 37.089977 C 64.49199 33.48298 64.66499 29.876978 64.97199 26.28198 C 64.993 26.03198 65.81199 20.046978 66.496994 22.01098 C 67.39099 20.140978 69.286995 11.915978 72.05799 15.894979 C 73.71099 18.268978 73.93399 20.862978 74.36399 23.64298 C 74.93199 27.30298 76.10499 30.872978 77.03499 34.45198 C 77.82599 31.56098 78.61499 28.66998 79.40599 25.77998 C 83.22999 37.54798 82.287994 50.156982 81.38399 62.29498 C 76.19999 61.78198 67.73999 60.713978 64.53299 66.03398 C 63.53499 67.68698 63.45699 69.71598 63.22299 71.57998 C 62.91699 74.01998 62.45699 76.44798 62.06999 78.87498 C 61.327988 83.53698 60.460987 88.17798 59.69199 92.83398 C 59.34999 94.90997 60.57599 94.55698 61.58799 95.921974 C 62.90199 97.699974 63.16999 100.03397 63.243988 102.17697 C 63.40999 106.93197 62.26399 111.65997 62.72999 116.41397 C 63.15999 120.78397 66.43599 124.08997 66.81999 128.32896 C 66.96099 129.88797 67.29199 132.77196 66.33599 134.12297 C 65.347 135.523 63.228 135.657 61.757 136.241 z "/>
            <linearGradient x1="36.15" y1="37.35" x2="36.15" gradientUnits="userSpaceOnUse" y2="96.4" xlink:type="simple" xlink:actuate="onLoad" id="shape42_2" xlink:show="other">
                <stop stop-color="#cd5c5c" offset="0"/>
                <stop stop-color="#cc3333" offset="1"/>
            </linearGradient>
            <path fill="url(#shape42_2)" d="M 25.735 31.742 C 26.588 32.202 25.765 35.294 25.637 35.989 C 25.232 38.187004 24.876 40.270004 24.726002 42.521004 C 24.284002 49.137005 24.803 55.874004 27.409002 61.961006 C 29.913002 67.814 34.211 71.66601 38.478004 75.97101 C 43.040005 80.57601 45.874004 86.20601 47.70501 92.61201 C 47.949005 93.46501 48.994007 95.712006 48.341007 96.533005 C 47.579006 97.490005 47.004005 93.996 46.93401 93.656006 C 46.255005 90.38901 44.846004 87.08501 43.272007 84.213005 C 40.31601 78.81801 35.775005 75.212006 31.779009 70.80601 C 23.656006 61.85301 22.796007 48.94201 24.432009 37.14201 C 24.499 36.658 25.291 31.509 25.735 31.742 z "/>
            <linearGradient x1="24.28" y1="29.79" x2="27.37" gradientUnits="userSpaceOnUse" y2="36.09" xlink:type="simple" xlink:actuate="onLoad" id="shape43_2" xlink:show="other">
                <stop stop-color="#f5deb3" offset="0"/>
                <stop stop-color="#cd5c5c" offset="0.5"/>
                <stop stop-color="#cc3333" offset="1"/>
            </linearGradient>
            <path fill="url(#shape43_2)" d="M 23.419 34.447 C 23.806 36.122997 25.451 38.295 26.936 36.379 C 28.183 34.772 28.186 32.350998 27.737 30.419 C 27.350002 28.741 25.707 26.578 24.222002 28.491 C 22.974 30.095 22.971 32.517 23.419 34.447 z "/>
            <path stroke-linecap="round" fill="none" stroke-linejoin="round" d="M 36.389 49.361 C 36.002 53.49 36.688 57.736 38.73 61.295 C 40.702 64.729996 42.845 68.078 43.555 72.123 C 45.03 80.525 44.181 89.579 48.298 97.241 " stroke="#cc3333" stroke-width="1.698"/>
            <linearGradient x1="34.13" y1="40.05" x2="33.13" gradientUnits="userSpaceOnUse" y2="96.6" xlink:type="simple" xlink:actuate="onLoad" id="shape45_2" xlink:show="other">
                <stop stop-color="#cd5c5c" offset="0"/>
                <stop stop-color="#cc3333" offset="1"/>
            </linearGradient>
            <path fill="url(#shape45_2)" d="M 18.577 37.57 C 19.616 37.584 19.745 45.537 19.806 46.495 C 20.161 52.03 21.417 57.823 23.136 63.04 C 24.988 68.663 27.856 73.349 32.318 76.942 C 36.862 80.601 42.688 82.684 45.832 88.069 C 47.238 90.478 48.356 93.438 48.973 96.206 C 49.223 97.327 48.85 99.338 48.081 97.279 C 47.468 95.636 47.29 93.856 46.643 92.22 C 44.573 86.982 40.289 83.819 35.858 81.087 C 26.938002 75.587 22.295002 66.311 20.364002 55.674995 C 20.05 53.952 17.259 37.562 18.577 37.57 z "/>
            <radialGradient gradientUnits="userSpaceOnUse" xlink:type="simple" r="6.54" xlink:actuate="onLoad" cx="16.75" id="shape46_2" cy="35.29" xlink:show="other">
                <stop stop-color="#f5deb3" offset="0"/>
                <stop stop-color="#cd5c5c" offset="0.5"/>
                <stop stop-color="#cc3333" offset="1"/>
            </radialGradient>
            <path fill="url(#shape46_2)" d="M 20.844 35.456 C 21.323 37.523003 21.26 40.038 19.953 41.758003 C 18.456 43.730003 16.692 41.341003 16.308998 39.683 C 15.829998 37.619003 15.893998 35.103004 17.198996 33.384003 C 18.696 31.412 20.459 33.796 20.844 35.456 z "/>
            <path fill="none" d="M 44.442 48.703 C 44.943 47.055 46.366 51.597 46.484 52.212 C 47.401 57.025997 47.345 62.191 47.547 67.089 C 47.957 76.966 47.812 86.864 48.412003 96.735 " stroke-width="1.337" stroke="#cc3333"/>
            <path fill="#cc3333" d="M 45.773 45.63 C 46.173 47.354 45.829 49.351 44.752 50.72 C 43.594997 52.19 41.848 51.352 41.455997 49.652 C 41.055996 47.928 41.395996 45.929 42.476997 44.56 C 43.634 43.091 45.38 43.932 45.773 45.63 z "/>
            <path fill="#cc3333" d="M 37.645 45.693 C 38.042 47.418 37.703 49.418 36.624 50.789 C 35.466 52.258003 33.718 51.419003 33.326 49.718 C 32.928 47.995003 33.269 45.998 34.347 44.629 C 35.503 43.161 37.251 43.992 37.645 45.693 z "/>
        </g>
    </g>
    <g xlink:href="#shape39">
        <path fill="#8b0000" d="M 150.05 160.185 C 153.258 156.297 156.46901 152.408 159.68001 148.518 C 161.429 146.397 163.18102 144.276 164.93001 142.156 C 165.942 140.932 168.138 137.076 169.596 136.68001 C 171.669 136.117 175.23502 138.93001 177.135 139.703 C 181.508 141.481 186.156 142.755 190.762 143.617 C 194.553 144.326 197.303 143.27301 198.496 147.996 C 199.398 151.561 199.383 155.559 198.826 159.186 C 198.082 164.028 197.076 168.857 198.594 173.664 C 200.03902 178.241 202.418 182.449 205.282 186.165 C 208.655 180.957 212.282 175.83 212.63602 169.253 C 213.045 161.679 212.39302 154.08 211.27802 146.60301 C 210.385 140.62502 208.81302 134.23102 204.045 130.44002 C 199.446 126.78202 193.286 125.92702 187.71002 126.03102 C 193.987 120.89902 200.26302 115.76802 206.53802 110.63602 C 203.88402 109.00502 201.45404 106.697014 198.46402 105.78402 C 195.77602 104.96502 192.44102 105.81302 189.71202 106.16302 C 187.90302 106.39402 185.31602 107.141014 183.58902 106.24202 C 181.489 105.15102 180.20602 101.05602 178.92502 99.08902 C 179.26402 102.74602 181.22002 108.40502 177.64302 110.59902 C 172.49602 113.75802 167.40802 117.037025 162.29202 120.258026 C 165.94402 115.34103 169.16402 110.07002 172.08202 104.62703 C 174.68802 99.76203 177.71602 93.80403 176.099 88.02503 C 185.482 88.25403 188.881 97.00403 189.277 105.82404 C 192.513 99.188034 193.033 90.48804 189.785 83.73804 C 188.263 80.57104 186.013 79.37304 183.801 77.02504 C 181.69402 74.78804 184.331 69.95904 184.959 67.46204 C 187.01 59.288036 188.254 50.919037 190.37502 42.767036 C 191.38802 38.86904 190.17102 35.040035 189.63402 31.165035 C 188.99202 26.547035 188.35202 21.931034 187.711 17.314035 C 180.55602 22.167036 174.547 28.718037 170.56102 36.754036 C 166.00401 45.943035 163.30502 56.01504 160.40903 65.89903 C 158.91702 50.01903 157.81102 34.04103 156.11403 18.193031 C 155.72302 14.552032 151.33502 4.737031 148.23903 12.261031 C 145.61803 18.629032 146.46803 26.93203 146.91803 33.66703 C 146.79604 29.06403 146.58904 24.46303 146.22403 19.87603 C 146.19904 19.55703 145.22403 11.920031 144.40804 14.42603 C 143.34404 12.0400305 141.08603 1.5450306 137.78503 6.6220303 C 135.81604 9.651031 135.55104 12.961031 135.03903 16.50803 C 134.36203 21.17803 132.96503 25.73403 131.85703 30.30003 C 130.91603 26.61103 129.97603 22.92203 129.03302 19.235031 C 124.47902 34.25103 125.60102 50.34003 126.67802 65.82803 C 132.85202 65.174034 142.92801 63.811035 146.74802 70.59903 C 147.93602 72.70803 148.02902 75.29703 148.30801 77.67603 C 148.67201 80.79003 149.22101 83.88803 149.682 86.98503 C 150.565 92.93403 151.598 98.85603 152.514 104.79703 C 152.92001 107.44603 151.46101 106.996025 150.255 108.73703 C 148.69 111.00603 148.371 113.98403 148.283 116.71803 C 148.085 122.785034 149.45001 128.81804 148.894 134.88504 C 148.382 140.46104 144.48 144.67905 144.023 150.08804 C 143.855 152.07805 143.45999 155.75705 144.599 157.48204 C 145.775 159.268 148.299 159.439 150.05 160.185 z "/>
        <linearGradient x1="180.55" y1="34" x2="180.55" gradientUnits="userSpaceOnUse" y2="109.35" xlink:type="simple" xlink:actuate="onLoad" id="shape42_3" xlink:show="other">
            <stop stop-color="#cd5c5c" offset="0"/>
            <stop stop-color="#cc3333" offset="1"/>
        </linearGradient>
        <path fill="url(#shape42_3)" d="M 192.952 26.843 C 191.937 27.43 192.916 31.376 193.068 32.262 C 193.55 35.067 193.974 37.725 194.154 40.597 C 194.679 49.039 194.062 57.635 190.95898 65.403 C 187.977 72.872 182.85698 77.787 177.77498 83.28 C 172.34198 89.156 168.96596 96.34 166.78697 104.513 C 166.49597 105.601 165.25197 108.469 166.02898 109.516 C 166.93698 110.737 167.62198 106.279 167.70598 105.844 C 168.51498 101.676 170.192 97.46 172.06598 93.795 C 175.58598 86.910995 180.99498 82.309 185.75398 76.688 C 195.42798 65.26399 196.45198 48.789993 194.50298 33.73299 C 194.426 33.116 193.481 26.547 192.952 26.843 z "/>
        <linearGradient x1="194.68" y1="24.36" x2="191" gradientUnits="userSpaceOnUse" y2="32.4" xlink:type="simple" xlink:actuate="onLoad" id="shape43_3" xlink:show="other">
            <stop stop-color="#f5deb3" offset="0"/>
            <stop stop-color="#cd5c5c" offset="0.5"/>
            <stop stop-color="#cc3333" offset="1"/>
        </linearGradient>
        <path fill="url(#shape43_3)" d="M 195.711 30.296 C 195.25 32.434998 193.291 35.206 191.522 32.760998 C 190.038 30.709995 190.034 27.620998 190.569 25.155 C 191.03 23.013998 192.987 20.253998 194.757 22.695 C 196.241 24.743 196.244 27.832 195.711 30.296 z "/>
        <path stroke-linecap="round" fill="none" stroke-linejoin="round" d="M 180.264 49.326 C 180.725 54.594 179.909 60.013 177.476 64.554 C 175.127 68.936005 172.575 73.209 171.73 78.37 C 169.973 89.092 170.98502 100.643005 166.08202 110.421005 " stroke="#cc3333" stroke-width="1.698"/>
        <linearGradient x1="182.95" y1="37.44" x2="184.14" gradientUnits="userSpaceOnUse" y2="109.61" xlink:type="simple" xlink:actuate="onLoad" id="shape45_3" xlink:show="other">
            <stop stop-color="#cd5c5c" offset="0"/>
            <stop stop-color="#cc3333" offset="1"/>
        </linearGradient>
        <path fill="url(#shape45_3)" d="M 201.479 34.281 C 200.242 34.299 200.088 44.447 200.014 45.67 C 199.592 52.732 198.096 60.124 196.049 66.781 C 193.84302 73.956 190.42702 79.935 185.113 84.519 C 179.701 89.188 172.761 91.847 169.017 98.716995 C 167.343 101.79099 166.011 105.56799 165.277 109.1 C 164.97899 110.531 165.42299 113.097 166.33899 110.47 C 167.06898 108.374 167.28099 106.102005 168.051 104.015 C 170.518 97.331 175.618 93.295 180.897 89.809 C 191.52098 82.79 197.05 70.955 199.35 57.384 C 199.723 55.184 203.047 34.271 201.479 34.281 z "/>
        <radialGradient gradientUnits="userSpaceOnUse" xlink:type="simple" r="8.34" xlink:actuate="onLoad" cx="203.65" id="shape46_3" cy="31.37" xlink:show="other">
            <stop stop-color="#f5deb3" offset="0"/>
            <stop stop-color="#cd5c5c" offset="0.5"/>
            <stop stop-color="#cc3333" offset="1"/>
        </radialGradient>
        <path fill="url(#shape46_3)" d="M 198.778 31.582 C 198.209 34.219 198.283 37.429 199.84 39.624 C 201.623 42.141 203.723 39.091 204.18 36.976 C 204.75 34.342003 204.674 31.133 203.12 28.938002 C 201.336 26.422 199.236 29.465 198.778 31.582 z "/>
        <path fill="none" d="M 170.673 48.486 C 170.076 46.383 168.381 52.178 168.241 52.963 C 167.148 59.106003 167.215 65.697 166.974 71.946 C 166.486 84.549 166.659 97.179 165.944 109.774 " stroke-width="1.337" stroke="#cc3333"/>
        <path fill="#cc3333" d="M 169.087 44.565 C 168.61 46.764 169.021 49.313 170.303 51.06 C 171.682 52.935 173.762 51.865997 174.229 49.697 C 174.706 47.497997 174.301 44.947 173.014 43.198997 C 171.635 41.325 169.555 42.397 169.087 44.565 z "/>
        <path fill="#cc3333" d="M 178.769 44.646 C 178.295 46.846 178.7 49.398 179.985 51.147 C 181.364 53.022 183.446 51.951 183.913 49.781 C 184.388 47.581997 183.981 45.032997 182.697 43.286 C 181.318 41.415 179.237 42.475 178.769 44.646 z "/>
    </g>
    <path fill="#8b0000" d="M 266.316 97.647 C 265.056 97.389 265.918 95.987 266.436 95.44701 C 265.091 95.26001 263.225 95.564 262.887 97.14101 C 262.835 93.42801 262.615 87.87301 259.212 85.477005 C 256.878 83.83201 255.596 88.614006 254.12 89.47401 C 253.251 89.98101 251.169 89.157005 250.163 89.13401 C 248.714 89.10201 247.231 89.50301 246.632 90.96101 C 244.999 94.92601 247.995 99.53501 251.884 100.52402 C 250.523 102.83902 249.091 105.60202 248.728 108.28702 C 248.033 113.42302 256.061 106.99302 257.328 106.112015 C 256.895 108.72501 256.489 111.64902 257.311 114.22901 C 257.614 115.18401 259.246 118.11401 260.556 117.62101 C 261.454 117.28401 261.721 114.72301 261.934 113.92801 C 262.48798 111.84501 262.956 109.74101 263.483 107.65201 C 264.199 104.81501 264.039 102.83201 262.414 100.35601 C 264.16602 100.99901 266.67 101.41401 268.469 100.79301 C 269.317 100.50201 270.047 99.56701 269.54898 98.64101 C 269.006 97.633 267.256 97.838 266.316 97.647 z "/>
    <g xlink:href="#shape28">
        <g id="shape28">
            <path fill="#cd5c5c" d="M 211.805 151.08 C 210.844 145.006 202.914 147.033 199.056 148.607 C 201.272 144.217 204.709 137.344 203.228 132.332 C 202.25 129.034 198.227 129.743 195.985 131.258 C 192.417 133.672 190.372 137.80899 188.163 141.371 C 187.841 137.98401 186.731 128.823 181.767 129.231 C 178.612 129.491 176.729 133.14801 175.722 135.735 C 174.042 140.049 173.874 144.793 173.935 149.368 C 170.785 148.392 166.57199 149.121 165.277 152.545 C 163.571 157.058 166.28699 161.652 169.703 164.50299 C 167.316 166.129 161.61899 171.369 165.22598 174.303 C 169.638 177.891 176.56798 172.914 179.74 169.794 C 178.609 174.56898 177.508 182.637 182.238 185.924 C 186.65 188.991 188.315 179.957 188.514 177.265 C 191.933 179.211 196.78 180.073 199.677 176.746 C 202.292 173.745 201.10698 169.26 198.82698 166.446 C 204.446 163.399 212.289 158.459 211.805 151.08 z "/>
            <path fill="#8b0000" d="M 195.244 163.372 C 197.11 162.055 199.424 160.10199 199.498 157.614 C 199.574 155.094 196.787 154.969 194.939 155.469 C 196.402 153.327 197.727 151.09 198.895 148.77399 C 196.917 149.59799 195.033 150.63899 193.244 151.81499 C 193.791 150.47398 196.21498 144.46399 192.842 144.59198 C 190.894 144.66599 189.197 147.21298 188.19 148.63498 C 188.342 146.30298 188.336 143.95898 188.118 141.63098 C 186.778 143.80598 185.565 146.06097 184.519 148.39098 C 184.112 146.48198 182.809 143.14497 180.391 145.01898 C 178.504 146.47998 178.22198 149.42398 178.03 151.61798 C 176.827 150.69998 175.477 149.96498 174.036 149.49799 C 174.065 151.52599 175.011 153.77998 174.464 155.79099 C 174.206 156.73698 172.88998 156.99298 172.618 158.16498 C 172.276 159.63898 172.937 161.26598 173.896 162.37198 C 172.475 162.92598 171.124 163.65598 169.862 164.51198 C 170.844 165.31598 171.923 166.00697 173.077 166.53297 C 171.55 168.46596 172.79 170.88698 175.351 169.91795 C 176.924 169.32297 178.348 168.32396 179.995 167.91096 C 182.145 167.37297 181.513 172.03296 181.573 173.28397 C 181.69 175.64996 184.081 178.37897 185.347 174.90996 C 186.264 175.79796 187.307 176.55196 188.422 177.16898 C 188.541 175.51295 188.508 173.84496 188.314 172.19698 C 189.284 172.51996 190.402 172.54198 191.354 172.13995 C 192.768 171.53996 192.63098 170.53098 193.161 169.33698 C 193.995 167.45998 197.073 167.27197 198.68 166.41197 C 197.709 165.222 196.541 164.194 195.244 163.372 z "/>
            <path fill="#cc3333" d="M 176.476 161.58 C 177.159 161.419 177.851 161.309 178.549 161.24901 C 178.154 159.684 178.002 158.06902 177.935 156.45801 C 179.265 157.11401 180.447 158.05101 181.444 159.145 C 181.507 158.043 181.689 156.953 181.935 155.879 C 182.368 156.558 182.76 157.263 183.099 157.994 C 183.648 156.543 184.319 155.141 185.045 153.77 C 185.076 155.863 184.957 157.96501 184.565 160.024 C 185.188 158.877 186.023 157.86 186.946 156.94301 C 186.606 158.23401 186.208 159.52501 185.548 160.69402 C 187.036 159.35602 188.727 158.25702 190.487 157.31502 C 189.721 158.62102 188.897 159.89702 187.993 161.11302 C 188.757 161.13702 189.516 161.23802 190.265 161.38702 C 189.57 162.13303 188.869 162.88503 188.036 163.47902 C 189.259 164.01602 190.402 164.74602 191.37 165.67001 C 190.029 166.33601 188.636 166.92601 187.163 167.23302 C 187.427 167.94202 187.632 168.672 187.809 169.407 C 187.089 169.31302 186.359 169.196 185.697 168.879 C 185.775 169.587 185.82 170.297 185.832 171.01 C 184.1 169.92 181.63098 167.915 182.39998 165.561 C 181.93198 167.093 180.96596 168.428 179.85396 169.559 C 180.24995 167.965 180.87296 166.37201 181.99097 165.141 C 180.32996 166.977 177.55396 165.446 175.98796 164.289 C 176.57596 163.973 177.17896 163.692 177.80096 163.449 C 177.254 162.907 176.83 162.258 176.476 161.58 z "/>
        </g>
    </g>
    <g xlink:href="#shape28">
        <path fill="#cd5c5c" d="M 57.302 175.711 C 61.094 172.915 64.769 168.024 63.525 163.221 C 62.400997 158.88899 57.672997 157.99399 53.787 159.116 C 54.423 151.467 54.695 140.455 47.793 137.37799 C 41.776 135.45999 38.842 145.14299 37.94 150.142 C 35.334 145.566 31.235 138.437 25.856998 137.611 C 22.315998 137.06898 20.541998 141.82599 20.555998 145.02399 C 20.580996 150.11598 23.062998 154.37999 24.930998 158.54399 C 21.702995 157.241 12.830997 153.97699 10.222998 159.61699 C 8.565998 163.202 10.714997 167.055 12.429997 169.423 C 15.288998 173.374 19.44 175.87698 23.574997 178.048 C 20.813995 181.023 18.943996 185.997 21.235996 189.09 C 24.257996 193.167 29.999996 192.438 34.601997 190.087 C 34.608997 191.01 34.746 192.52998 34.981 193.911 L 44.754 193.911 C 46.275 189.674 45.945 184.973 45.353996 181.674 C 48.955 185.249 55.52399 190.401 61.303 186.824 C 66.692 183.488 59.595 177.246 57.302 175.711 z "/>
        <path fill="#8b0000" d="M 48.886 161.54 C 48.824 158.84999 48.461 155.359 46.276 154.06099 C 44.063 152.747 42.281 155.73999 41.623 158.00899 C 40.58 155.35799 39.370003 152.81198 37.994 150.39899 C 37.547 152.96999 37.351 155.54399 37.333 158.07999 C 36.459 156.82498 32.526 151.22899 30.62 154.98999 C 29.519 157.161 30.786 160.26498 31.456 162.066 C 29.457 160.75899 27.354 159.61899 25.137 158.721 C 26.284 161.252 27.577002 163.68399 29.039 165.96999 C 27.084002 165.48299 23.314 165.27899 23.545002 168.845 C 23.724005 171.626 26.192 173.376 28.044004 174.65898 C 26.500002 175.52998 25.034002 176.649 23.752005 178.00098 C 25.587002 178.95998 28.172005 179.02596 29.647003 180.60898 C 30.340004 181.35396 29.781004 182.92198 30.668003 183.79298 C 31.785004 184.888 33.638004 184.95898 35.204 184.44798 C 34.85 186.27698 34.694004 188.11398 34.705 189.916 C 36.014 189.233 37.279003 188.38998 38.443 187.38098 C 39.26 189.99998 42.172 189.82396 42.838 186.54398 C 43.248 184.52795 43.205 182.47998 43.821003 180.47298 C 44.627003 177.85298 48.423004 180.82596 49.58 181.37096 C 51.77 182.39896 55.648003 181.11395 53.298 178.02995 C 54.643 177.45895 55.943 176.68497 57.165 175.76295 C 55.752003 174.82396 54.238 174.04295 52.644 173.45096 C 53.514 172.54697 54.204 171.33098 54.414 170.09096 C 54.724003 168.24796 53.738003 167.90295 52.985 166.73997 C 51.802 164.90898 53.478 161.44298 53.67 159.26198 C 52.02 159.743 50.399 160.521 48.886 161.54 z "/>
        <path fill="#cc3333" d="M 36.038 181.233 C 36.303 180.406 36.619 179.593 36.983997 178.798 C 35.344997 178.466 33.807 177.843 32.322998 177.13 C 33.706997 175.993 35.254997 175.156 36.831997 174.598 C 35.881996 173.992 35.014996 173.258 34.199997 172.463 C 35.067997 172.32 35.935 172.234 36.791996 172.22202 C 35.820995 170.91002 34.966995 169.49002 34.173996 168.02202 C 36.067 169.01302 37.879 170.17102 39.488995 171.60704 C 38.833996 170.36302 38.423996 168.95102 38.154995 167.49103 C 39.10799 168.49504 40.025993 169.56404 40.677994 170.85902 C 40.370995 168.57304 40.39899 166.18303 40.609993 163.79303 C 41.32099 165.27103 41.970993 166.79803 42.51799 168.38403 C 42.99699 167.55904 43.542995 166.77504 44.124992 166.02704 C 44.37699 167.15305 44.631992 168.28804 44.663994 169.49403 C 45.877995 168.41504 47.216995 167.51903 48.623993 166.91003 C 48.416992 168.70505 48.110992 170.52203 47.50399 172.28503 C 48.296993 172.34404 49.073994 172.47604 49.837994 172.64104 C 49.321995 173.38403 48.779995 174.12704 48.099995 174.69804 C 48.78099 174.95905 49.443996 175.25703 50.089996 175.59204 C 48.074997 176.95804 44.799995 178.68404 43.151997 176.68904 C 44.243996 177.95103 44.861996 179.66203 45.208996 181.43504 C 44.018 180.22304 42.962997 178.76105 42.53099 176.93304 C 43.180996 179.65105 40.146996 181.94405 38.171993 183.09604 C 38.23999 182.29803 38.35099 181.49704 38.504993 180.69804 C 37.693 181.03 36.858 181.176 36.038 181.233 z "/>
    </g>
    <g xlink:href="#shape32">
        <g id="shape32">
            <path fill="#ffa07a" d="M 104.445 87.26 C 103.859 84.864 101.893 83.366005 99.525 82.955 C 99.072 82.877 97.287 83.073 97.357 82.561005 C 97.466 81.748 97.769005 80.942 98.019005 80.16501 C 99.350006 76.02901 100.843 72.13201 100.269005 67.65901 C 99.718 63.38901 96.753006 59.76401 92.839005 63.20201 C 90.228004 65.49401 88.256004 68.77401 86.786 71.89501 C 85.91801 67.85201 85.357 63.09801 82.475006 59.89801 C 80.675 57.89901 77.574005 56.74601 75.850006 59.40101 C 73.02801 63.744007 73.549 71.02201 74.147 75.95201 C 70.869 73.31901 62.529003 69.03201 60.744003 75.60601 C 59.715004 79.40101 61.842003 84.79601 64.219 87.76801 C 65.354004 89.18401 67.101 90.49501 67.674 92.277016 C 68.045006 93.42802 66.777 93.77302 66.08 94.41302 C 64.865005 95.530014 63.923 97.02002 63.548 98.63502 C 62.045 105.10102 69.631 106.49102 74.242004 105.375015 C 73.531006 107.834015 72.76501 110.96301 73.629005 113.46802 C 74.492004 115.973015 77.311005 115.69002 78.97001 114.20302 C 82.45201 111.084015 84.461006 104.87802 84.95801 100.32802 C 86.76601 103.99602 91.18901 109.444016 95.83001 108.79702 C 101.56101 107.99702 98.32801 100.78202 96.12901 98.05102 C 100.406 96.217 105.045 92.432 104.445 87.26 z "/>
            <path fill="#cd5c5c" d="M 97.52 82.729 C 95.961 82.797 94.424995 83.148994 92.96999 83.7 C 93.59899 81.575 94.496994 77.711 92.19299 76.18 C 90.54399 75.082 88.69199 77.834 87.910995 78.921 C 87.729 76.452995 87.355 74.002 86.823 71.586 C 85.809 73.711 84.978 75.922 84.296 78.176 C 83.821 76.52599 82.808 72.853 80.394 73.53999 C 77.896 74.258 78.378 78.047 78.336 79.99999 C 77.046 78.43299 75.611 76.980995 74.019 75.72099 C 74.314995 78.204994 74.784 80.66999 75.426994 83.08799 C 73.771 82.09599 71.28999 81.80899 70.466 83.96899 C 69.602 86.23199 71.064995 88.83899 72.398 90.595985 C 70.88 91.067986 69.42899 91.75599 68.11099 92.64699 C 69.13999 93.679985 72.48 95.36599 72.287994 96.971985 C 72.008 99.32999 73.452 100.929985 75.90299 100.81299 C 75.162994 102.32099 74.55599 103.89399 74.09999 105.50999 C 75.41099 105.206985 76.68699 104.747986 77.885994 104.138985 C 77.857994 106.07699 79.27599 106.81599 80.782 105.566986 C 82.564 104.08999 83.341 101.55199 83.919 99.41399 C 84.617 96.82999 87.96 100.97498 88.886 101.68398 C 90.991005 103.29498 93.398 101.93498 92.523 99.235985 C 93.819 99.012985 95.085 98.61698 96.29 98.09199 C 95.396 96.95499 94.372 95.92099 93.23 95.03499 C 95.357 93.66899 96.52901 91.47699 95.211006 89.14999 C 94.415 87.742 96.976 84.166 97.52 82.729 z "/>
            <path fill="#8b0000" d="M 94.697 88.767 C 93.738 88.083 92.498 88.120995 91.395 88.319 C 92.050995 86.815 92.589 85.26 93.01199 83.674 C 91.12699 84.389 89.370995 85.427 87.80499 86.692 C 88.147 84.096 88.134995 81.464005 87.92799 78.858 C 86.964 80.41 86.19499 82.075005 85.52899 83.774 C 85.246994 81.869 84.84799 79.982 84.300995 78.135 C 83.50199 80.825005 82.90199 83.575005 82.550995 86.359 C 81.38 84.074 79.961 81.914 78.31799 79.94 C 78.37999 81.926 78.631 83.905 78.99099 85.858 C 77.90999 84.79 76.73199 83.809 75.41199 83.049 C 76.03599 85.41 76.819984 87.732 77.81499 89.963005 C 75.98798 89.829 74.14098 90.053 72.39099 90.592 C 73.25499 91.728004 74.21699 92.787 75.26 93.763 C 74.438 94.193 72.648994 95.024 72.602 96.117004 C 72.541 97.546005 76.426994 98.09901 77.384995 98.274 C 76.84599 99.102005 76.367 99.966 75.87699 100.824005 C 76.815994 100.76401 77.74799 100.59601 78.65499 100.34701 C 78.19399 101.57701 77.84599 102.86801 77.81399 104.18901 C 79.53299 103.294014 81.153984 102.11701 82.417984 100.63601 C 82.80099 100.18701 84.55099 96.41601 84.25798 96.34201 C 85.21798 96.58501 85.87498 98.07601 86.77398 98.56901 C 88.51498 99.52201 90.627975 99.56401 92.53998 99.23601 C 92.12498 98.117004 91.38698 97.15201 90.55698 96.30701 C 91.49798 95.99301 92.39998 95.56801 93.23598 95.034004 C 92.55098 94.50101 91.81998 94.02701 91.058975 93.61301 C 92.513 92.197 93.689 90.522 94.697 88.767 z "/>
            <path fill="#cc3333" d="M 90.897 93.635 C 90.303 93.31201 89.689 93.035 89.053 92.805 C 89.957 91.437 90.66 89.949 91.285 88.436 C 89.786 88.725 88.355 89.314995 87.047005 90.096 C 87.365005 89.051 87.566 87.973 87.71001 86.891 C 87.06801 87.423 86.453 87.99 85.878006 88.594 C 85.86001 87.097 85.71501 85.60401 85.49701 84.122 C 84.75401 86.075005 84.14001 88.084 83.795006 90.147 C 83.605 88.922005 83.157005 87.754005 82.61301 86.645004 C 82.477005 87.936005 82.41601 89.25001 82.63901 90.535 C 81.69301 88.901 80.476006 87.439 79.13901 86.11201 C 79.41301 87.532005 79.75201 88.94201 80.18801 90.32201 C 79.45101 90.15201 78.70001 90.059006 77.947014 90.01201 C 78.34201 90.88701 78.74401 91.77201 79.33002 92.54201 C 77.97501 92.74401 76.64702 93.15501 75.42602 93.781006 C 76.46702 94.75001 77.58802 95.656006 78.861015 96.30301 C 78.36701 96.90501 77.92402 97.54401 77.502014 98.19701 C 78.22601 98.32201 78.95101 98.33001 79.67802 98.225006 C 79.35902 98.87101 79.072014 99.531006 78.81602 100.203 C 80.85502 99.600006 83.79802 98.41901 83.93802 95.914 C 83.84402 97.446 84.29602 98.963005 84.96202 100.32601 C 85.13002 98.75201 85.11402 97.092 84.469025 95.61801 C 85.523026 97.85401 88.664024 96.972 90.43202 96.311005 C 89.98502 95.864006 89.512024 95.450005 89.010025 95.065 C 89.708 94.689 90.329 94.186 90.897 93.635 z "/>
        </g>
    </g>
    <g xlink:href="#shape32">
        <path fill="#ffa07a" d="M 249.991 109.125 C 249.285 106.149 246.916 104.289 244.062 103.778 C 243.516 103.681 241.365 103.924 241.45 103.289 C 241.582 102.279 241.947 101.278 242.248 100.313 C 243.852 95.176 245.652 90.336006 244.959 84.781006 C 244.297 79.477005 240.724 74.975006 236.006 79.245 C 232.86 82.092 230.484 86.165 228.712 90.041 C 227.666 85.020004 226.99 79.115 223.518 75.141 C 221.348 72.658 217.61198 71.226 215.535 74.523 C 212.135 79.917 212.763 88.957 213.483 95.08 C 209.533 91.810005 199.483 86.485 197.333 94.65 C 196.093 99.363 198.655 106.064 201.521 109.755005 C 202.888 111.51401 204.994 113.142006 205.683 115.355 C 206.13 116.785 204.603 117.213005 203.763 118.008 C 202.298 119.396 201.163 121.246 200.712 123.25201 C 198.9 131.283 208.042 133.009 213.598 131.623 C 212.742 134.677 211.818 138.563 212.859 141.674 C 213.9 144.78499 217.297 144.43399 219.296 142.58699 C 223.492 138.713 225.912 131.00499 226.512 125.35399 C 228.69 129.90999 234.02 136.676 239.612 135.87299 C 246.51802 134.87898 242.62302 125.917984 239.973 122.525986 C 245.124 120.249 250.715 115.548 249.991 109.125 z "/>
        <path fill="#cd5c5c" d="M 241.646 103.497 C 239.768 103.581 237.917 104.018005 236.163 104.703 C 236.921 102.064 238.003 97.265 235.227 95.36301 C 233.24 93.99901 231.008 97.41701 230.067 98.767006 C 229.848 95.702 229.397 92.658005 228.75598 89.657005 C 227.53296 92.296005 226.53198 95.04201 225.71098 97.842 C 225.13898 95.793 223.91798 91.231 221.00798 92.084 C 217.998 92.976 218.57898 97.682 218.52898 100.107 C 216.97398 98.161 215.24498 96.357 213.32596 94.793 C 213.68295 97.878 214.24796 100.94 215.02298 103.943 C 213.02698 102.711 210.03798 102.355 209.04398 105.037 C 208.00298 107.848 209.76698 111.085 211.37198 113.268005 C 209.54298 113.85401 207.79498 114.70801 206.20598 115.815 C 207.44598 117.098 211.47198 119.192 211.23898 121.18701 C 210.90198 124.116005 212.64198 126.103004 215.595 125.95801 C 214.703 127.83101 213.97198 129.78401 213.42198 131.79102 C 215.00198 131.41501 216.539 130.84502 217.985 130.08801 C 217.95198 132.49501 219.66 133.41301 221.475 131.86101 C 223.621 130.02701 224.55798 126.87401 225.254 124.21901 C 226.096 121.01001 230.123 126.15801 231.239 127.03801 C 233.775 129.03902 236.676 127.350006 235.622 123.99701 C 237.184 123.72001 238.708 123.22801 240.16 122.57601 C 239.08398 121.16401 237.848 119.88001 236.47398 118.780014 C 239.037 117.083015 240.449 114.361015 238.86198 111.47002 C 237.904 109.723 240.99 105.282 241.646 103.497 z "/>
        <path fill="#8b0000" d="M 238.244 110.996 C 237.09 110.146 235.596 110.194 234.265 110.44 C 235.056 108.57201 235.704 106.641 236.214 104.671005 C 233.943 105.559006 231.826 106.84801 229.939 108.41901 C 230.351 105.19501 230.337 101.92601 230.087 98.68901 C 228.926 100.61701 227.999 102.68501 227.196 104.79501 C 226.856 102.429016 226.376 100.08601 225.717 97.792015 C 224.754 101.13302 224.03 104.54801 223.609 108.00601 C 222.197 105.168015 220.488 102.485016 218.507 100.03401 C 218.582 102.500015 218.884 104.95801 219.31898 107.38401 C 218.016 106.05701 216.59698 104.83901 215.00598 103.89501 C 215.75798 106.82701 216.703 109.71101 217.90198 112.48201 C 215.70096 112.31501 213.47398 112.59401 211.36598 113.26301 C 212.40698 114.67401 213.56598 115.990005 214.82298 117.20101 C 213.832 117.73501 211.677 118.76701 211.621 120.126015 C 211.54698 121.90102 216.229 122.58801 217.384 122.805016 C 216.735 123.833015 216.15698 124.90701 215.567 125.972015 C 216.699 125.89802 217.822 125.68902 218.915 125.38001 C 218.36 126.90801 217.94 128.51102 217.901 130.15102 C 219.973 129.04002 221.92598 127.57802 223.44998 125.738014 C 223.91098 125.180016 226.02 120.49702 225.66698 120.405014 C 226.82298 120.707016 227.61496 122.558014 228.69798 123.17101 C 230.796 124.35501 233.343 124.40701 235.64598 124.000015 C 235.14598 122.610016 234.25598 121.41202 233.25598 120.362015 C 234.39098 119.972015 235.47696 119.444016 236.485 118.78101 C 235.65898 118.11901 234.77798 117.530014 233.86198 117.016014 C 235.611 115.256 237.03 113.176 238.244 110.996 z "/>
        <path fill="#cc3333" d="M 233.666 117.042 C 232.95 116.641 232.211 116.296 231.443 116.011 C 232.533 114.31201 233.381 112.464005 234.132 110.585 C 232.326 110.944 230.602 111.677 229.026 112.647 C 229.41 111.349 229.652 110.01 229.826 108.66599 C 229.052 109.327 228.30998 110.03099 227.618 110.78099 C 227.596 108.92199 227.422 107.06799 227.158 105.22699 C 226.263 107.65299 225.523 110.14799 225.107 112.70999 C 224.878 111.18899 224.339 109.73799 223.683 108.36099 C 223.519 109.96499 223.446 111.59599 223.714 113.19199 C 222.574 111.162994 221.108 109.34699 219.497 107.69899 C 219.827 109.46299 220.23502 111.21399 220.76102 112.92799 C 219.872 112.716995 218.96802 112.602 218.06 112.54299 C 218.53702 113.62999 219.021 114.72899 219.72702 115.68499 C 218.09402 115.93599 216.49402 116.44699 215.02304 117.22399 C 216.27702 118.42799 217.62802 119.55299 219.16202 120.35599 C 218.56702 121.10399 218.03302 121.89699 217.52502 122.708984 C 218.39702 122.86398 219.27104 122.873985 220.14604 122.74399 C 219.76202 123.54599 219.41605 124.36599 219.10805 125.20099 C 221.56503 124.45199 225.11104 122.984985 225.28004 119.873985 C 225.16702 121.776985 225.71104 123.66099 226.51305 125.35399 C 226.71603 123.39899 226.69704 121.33699 225.91904 119.50699 C 227.18904 122.28399 230.97404 121.18699 233.10504 120.36699 C 232.56604 119.81199 231.99704 119.29799 231.39204 118.81999 C 232.232 118.351 232.98 117.727 233.666 117.042 z "/>
    </g>
    <g xlink:href="#shape37">
        <g id="shape37">
            <path fill="#8b0000" d="M 132.474 144.215 C 131.332 140.032 127.192 137.798 123.088 137.569 C 124.961 132.553 126.569 127.272 126.536995 121.868 C 126.51599 118.26 125.88999 113.62399 122.785 111.287994 C 116.947 106.895 110.81799 117.993 108.88699 122.086 C 107.408 116.008995 106.02 105.52 98.922 103.261 C 94.896 101.98 92.999 106.815 92.31699 109.857 C 91.162994 115.008 91.80399 120.36801 92.589 125.522 C 88.977 122.356 78.825 115.10401 75.676994 122.467 C 72.17 130.666 80.44599 140.66501 85.563 146.076 C 81.312 148.448 77.904 153.729 80.628 158.473 C 83.243 163.03001 89.075 163.828 93.831 163.20401 C 92.934 166.50401 91.103004 175.971 96.706 176.262 C 99.78 176.421 102.05 172.927 103.407 170.633 C 105.645 166.854 107.249 162.63602 107.609 158.23502 C 110.036 163.04102 117.006004 172.155 123.532 170.428 C 129.454 168.86002 124.204 159.61002 122.078995 156.86801 C 127.543 155.129 133.436 150.633 132.474 144.215 M 112.066 129.565 C 115.487 126.022 117.934006 130.905 117.955 134.061 C 117.963005 135.36 118.012 137.33301 116.867004 138.23401 C 115.144005 139.59001 112.535 140.07301 110.672005 141.41501 C 111.027 138.0 109.475 132.246 112.066 129.565 M 109.945 145.42 C 111.647 144.592 113.496 144.049 115.384 143.893 C 114.818 145.28 114.43701 146.789 113.552 148.022 C 112.12 150.02 110.394005 147.852 108.605 148.496 C 109.211 147.549 109.633 146.496 109.945 145.42 M 107.221 149.701 C 106.977 150.063 106.71501 150.317 106.461 150.49301 C 106.594 150.227 106.854 149.914 107.221 149.701 M 106.447 150.481 C 105.569 148.922 107.062 147.248 108.26 146.403 C 108.084 147.934 107.055 149.118 106.447 150.481 M 107.869 149.48 C 109.123 149.328 110.213005 150.239 111.172005 150.902 C 109.781006 152.172 107.54101 152.35999 106.494 150.56299 C 107.021 150.288 107.479 149.928 107.869 149.48 M 108.35 143.343 C 106.534 144.858 106.022 147.473 106.08 149.723 C 104.517 145.84601 106.317 141.233 107.683 137.567 C 108.018 139.477 108.271 141.405 108.35 143.343 M 98.301 128.323 C 98.623 123.895 102.271 122.19 104.602005 126.596 C 106.90401 130.95 104.436005 135.909 104.02601 140.403 C 101.992 136.471 97.976 132.901 98.301 128.323 M 99.976 147.489 C 100.657 148.412 101.48 149.243 102.45 149.861 C 101.199 150.23799 100.33099 151.29099 99.505 152.23499 C 97.815994 151.22098 96.328995 149.90898 94.938 148.52498 C 96.537 147.881 98.254 147.556 99.976 147.489 M 99.479 139.223 C 101.839 141.70901 103.671 144.561 104.893 147.768 C 104.07 146.518 102.606995 145.968 101.507 145.024 C 99.883 143.631 99.906 141.155 99.479 139.223 M 103.459 150.706 C 104.053 150.176 104.885 150.866 105.517 150.833 C 105.230995 152.752 103.321 153.66599 101.545 153.16399 C 102.088 152.278 102.681 151.405 103.459 150.706 M 104.209 150.287 C 104.586 150.185 105.619 150.082 105.524 150.768 C 105.047 150.713 104.608 150.553 104.209 150.287 M 103.504 149.721 C 102.888 149.116 102.468994 148.347 102.11 147.569 C 103.681 147.767 105.732 148.487 105.567 150.433 C 104.976 149.993 104.242 149.743 103.504 149.721 M 88.382 135.04 C 89.57001 132.916 93.143005 133.41399 94.58 135.073 C 95.397 136.01399 95.559 137.438 95.882 138.594 C 96.40301 140.45099 97.249 142.26999 98.059006 144.01599 C 96.73601 143.79599 95.393005 143.711 94.05301 143.75899 C 92.90501 143.801 91.31601 144.46498 90.51201 143.316 C 88.872 140.975 87.394 137.94 88.382 135.04 M 96.023 157.482 C 92.909004 157.34299 89.920006 154.50699 91.508 151.312 C 93.428 152.668 95.518005 153.833 97.795006 154.461 C 97.14 155.428 96.551 156.44 96.023 157.482 M 102.246 164.469 C 100.279 166.293 97.143005 163.237 99.645004 161.362 C 102.589005 159.156 105.393005 157.793 106.164 153.788 C 106.623 157.557 105.031 161.889 102.246 164.469 M 106.777 153.95 C 106.416 153.12599 106.384 152.22699 106.293 151.34799 C 106.689 152.155 106.777 153.065 106.777 153.95 M 106.28 151.208 C 106.941 152.2 105.732 153.93799 105.093 154.653 C 103.697 156.213 101.581 156.856 99.589005 157.221 C 100.24901 155.45 101.27701 155.028 102.87601 154.23299 C 104.63801 153.359 105.54001 151.58798 105.81701 149.708 C 106.81601 151.17699 108.11201 152.467 109.98301 152.586 C 111.89901 152.706 113.13301 152.321 114.58101 153.858 C 111.207 154.747 108.33 154.203 106.28 151.208 M 117.474 160.723 C 116.293 163.018 113.398 161.01001 112.055 159.99101 C 109.797 158.27701 108.027 156.184 107.252 153.41402 C 108.803 155.86201 111.506 157.25401 114.326 157.57301 C 116.344 157.801 118.281 158.206 117.474 160.723 M 119.758 151.374 C 119.23 151.86899 118.59901 152.239 117.959 152.571 C 117.053 151.809 116.097 151.106 115.09 150.481 C 116.94299 148.88701 118.41599 146.901 119.663994 144.813 C 121.799 146.436 121.629 149.619 119.758 151.374 "/>
        </g>
    </g>
    <g xlink:href="#shape37">
        <path fill="#8b0000" d="M 265.717 60.743 C 266.161 55.802 262.35202 51.557 257.746 49.448 C 261.994 44.997997 266.049 40.148 268.277 34.421 C 269.763 30.596998 270.988 25.412 268.41 21.530998 C 263.56 14.230998 251.887 23.172998 247.957 26.62 C 248.809 19.523998 251.613 7.8049984 244.426 2.1879995 C 240.348 -0.9980004 236.149 3.2499998 234.092 6.1549997 C 230.612 11.073999 229.1 17.031 227.84 22.836998 C 225.027 17.846998 216.432 5.562998 209.739 11.912998 C 202.285 18.983995 207.58 33.318 211.176 41.365997 C 205.311 41.939 199.193 45.969997 200.326 52.224 C 201.414 58.231 207.764 61.727997 213.47398 63.232 C 211.06398 66.312 204.998 75.485 211.298 78.342 C 214.753 79.909 218.818 77.24799 221.335 75.440994 C 225.483 72.465 229.088 68.73599 231.346 64.24799 C 232.113 70.43199 236.283 83.23699 244.485 84.381 C 251.929 85.418 249.78798 73.252 248.50198 69.38699 C 255.492 70.036 264.129 67.964 265.717 60.743 M 248.469 35.973 C 253.873 33.785 254.631 40.059 253.332 43.405 C 252.797 44.781 252.026 46.889 250.338 47.321 C 247.795 47.969997 244.602 47.293 241.904 47.864 C 243.743 44.416 244.375 37.627 248.469 35.973 M 239.395 51.767 C 241.692 51.665997 244.039 51.934 246.268 52.628 C 245.038 53.836 243.969 55.258 242.438 56.158997 C 239.959 57.618996 238.89 54.541996 236.571 54.408997 C 237.66 53.683 238.586 52.762 239.395 51.767 M 234.478 55.052 C 234.047 55.323 233.641 55.473 233.276 55.543 C 233.54 55.323 233.969 55.11 234.478 55.052 M 233.266 55.524 C 232.912 53.476997 235.325 52.386 237.051 52.038 C 236.208 53.577 234.531 54.36 233.266 55.524 M 235.313 55.113 C 236.814 55.523 237.682 56.982 238.502 58.119 C 236.377 58.829 233.731 58.008 233.285 55.633 C 234.004 55.582 234.68 55.41 235.313 55.113 M 238.436 48.845 C 235.719 49.620003 234.038 52.151 233.163 54.556 C 232.996 49.747 236.991 45.69 240.093 42.436 C 239.675 44.607 239.156 46.76 238.436 48.845 M 233.214 28.397 C 235.438 23.863 240.332 23.72 241.157 29.438 C 241.97 35.087 237.064 39.207 234.712 43.77 C 234.028 38.688 230.922 33.087 233.214 28.397 M 227.102 49.417 C 227.497 50.703 228.09 51.956 228.944 53.05 C 227.352 52.88 225.917 53.597 224.574 54.219 C 223.062 52.378 221.909 50.315 220.893 48.219 C 222.996 48.267 225.102 48.705 227.102 49.417 M 229.996 40.454 C 231.66 44.156 232.565 48.004 232.621 51.949997 C 232.201 50.254 230.756 49.006996 229.891 47.508995 C 228.613 45.297 229.677 42.691 229.996 40.454 M 229.746 54.403 C 230.648 54.112 231.312 55.22 232.051 55.473 C 230.919 57.371 228.347 57.469 226.524 56.13 C 227.516 55.44 228.561 54.787 229.746 54.403 M 230.781 54.301 C 231.255 54.364 232.482 54.725 232.087 55.407 C 231.563 55.133 231.127 54.764 230.781 54.301 M 230.211 53.382 C 229.758 52.462 229.6 51.459 229.515 50.473 C 231.233 51.397 233.282 53.091 232.277 55.073 C 231.783 54.339 231.046 53.741 230.211 53.382 M 219.032 30.984 C 221.283 29.279 225.17 31.431 226.121 33.837997 C 226.663 35.205 226.252 36.782997 226.139 38.152996 C 225.958 40.352997 226.166 42.659996 226.362 44.873997 C 224.93802 44.039997 223.43402 43.337997 221.879 42.778996 C 220.54602 42.300995 218.446 42.279995 218.00702 40.699997 C 217.105 37.479 216.684 33.599 219.032 30.984 M 218.386 58.182 C 214.875 56.618 212.639 52.261 215.797 49.606 C 217.429 51.913 219.336 54.094997 221.682 55.795 C 220.525 56.518 219.428 57.32 218.386 58.182 M 222.59 68.398 C 219.571 69.431 217.258 64.773 220.91 63.930004 C 225.21 62.938004 228.993 62.773003 231.555 58.890003 C 230.5 63.083 226.862 66.938 222.59 68.398 M 232.189 59.341 C 232.12 58.305 232.46 57.341 232.724 56.37 C 232.841 57.404 232.561 58.406 232.189 59.341 M 232.77 56.217 C 233.112 57.566 230.998 58.853 229.967 59.319 C 227.713 60.333 225.019 60.049 222.58202 59.528 C 224.081 57.957 225.43602 57.978 227.60202 57.865 C 229.987 57.742 231.76202 56.281 232.86902 54.421 C 233.39804 56.428 234.34302 58.381 236.437 59.359 C 238.583 60.358 240.158 60.512 241.173 62.796 C 236.932 62.199 233.863 60.315 232.77 56.217 M 241.609 71.367 C 239.295 73.255 236.818 69.815994 235.706 68.127 C 233.838 65.289 232.685 62.271 232.959 58.99 C 233.709 62.282997 236.224 64.984 239.322 66.604996 C 241.539 67.764 243.59 69.074 241.609 71.367 M 248.145 62.525 C 247.332 62.807003 246.454 62.911003 245.582 62.971 C 244.862 61.753 244.061 60.575 243.171 59.457 C 245.961 58.615 248.482 57.186 250.788 55.547 C 252.553 58.234 251.025 61.521 248.145 62.525 "/>
    </g>
    <g xlink:href="#shape50">
        <g id="shape50">
            <path fill="#cc3333" d="M 115.547 43.334 C 113.269 45.414 113.300995 49.18 113.23399 52.016 C 113.133 56.323997 114.00099 60.606 115.368 64.673996 C 113.871994 62.452995 110.891 64.674995 109.53999 65.907 C 114.40099 67.133 107.00099 72.096 106.075 73.758 C 104.743 76.149994 108.238 75.544 109.458 75.10899 C 112.685 73.95599 115.546 71.36399 117.63 68.715 C 117.214 70.746 116.298 72.910995 116.898994 75.0 C 117.46099 76.953 118.88799 78.67 119.97299 80.358 C 121.26599 82.36801 122.648994 84.319 124.11399 86.208 C 125.00399 87.356 126.84799 90.707 128.467 90.803 C 130.616 90.928 131.649 86.366005 131.73099 84.833 C 131.96698 80.387 129.861 75.364 127.64199 71.626 C 130.56499 71.561 140.573 73.026 141.31999 68.644 C 141.655 66.675995 139.79199 64.718994 138.885 63.149 C 137.254 60.329 135.151 59.849 132.512 58.240997 C 135.232 55.339996 137.355 51.748997 137.5 47.685997 C 137.596 44.983 137.416 40.724 134.887 39.064995 C 131.816 37.048996 128.306 40.39899 126.381 42.515995 C 125.363 43.63599 124.48 45.564995 122.724 44.68399 C 120.283 43.459 118.33 42.779 115.547 43.334 z "/>
        </g>
    </g>
    <g xlink:href="#shape50">
        <path fill="#cc3333" d="M 239.547 142.668 C 237.269 144.748 237.301 148.51399 237.234 151.35 C 237.133 155.658 238.001 159.94 239.368 164.00801 C 237.872 161.78702 234.891 164.00902 233.54 165.24101 C 238.401 166.46701 231.001 171.43 230.075 173.092 C 228.743 175.484 232.238 174.878 233.458 174.443 C 236.685 173.29 239.546 170.698 241.63 168.049 C 241.214 170.08002 240.298 172.245 240.899 174.334 C 241.46098 176.28702 242.888 178.004 243.973 179.69202 C 245.266 181.702 246.649 183.65302 248.114 185.54202 C 249.004 186.69002 250.848 190.04102 252.467 190.13702 C 254.616 190.26202 255.649 185.70004 255.731 184.16702 C 255.96698 179.72102 253.861 174.69804 251.64198 170.96002 C 254.565 170.89502 264.573 172.36002 265.31998 167.97804 C 265.65497 166.01003 263.79196 164.05302 262.88498 162.48303 C 261.25397 159.66302 259.15097 159.18303 256.512 157.57503 C 259.232 154.67403 261.35498 151.08302 261.5 147.02002 C 261.596 144.31702 261.416 140.05801 258.887 138.39902 C 255.816 136.38301 252.306 139.73302 250.381 141.85002 C 249.363 142.97002 248.48 144.89902 246.724 144.01802 C 244.283 142.793 242.33 142.113 239.547 142.668 z "/>
    </g>
    <g xlink:href="#shape50">
        <path fill="#cc3333" d="M 100.207 11.52 C 102.228 13.001 102.199 15.683001 102.259 17.702 C 102.349 20.769 101.58 23.818 100.366005 26.715 C 101.69301 25.133 104.338005 26.715 105.536 27.593 C 101.223 28.466 107.787 31.999 108.609 33.183 C 109.791 34.886 106.69 34.454 105.609 34.145 C 102.746 33.324 100.208 31.478 98.36 29.592 C 98.72901 31.038 99.542 32.58 99.008 34.067 C 98.509 35.458 97.24301 36.68 96.281006 37.882 C 95.134 39.313 93.907005 40.702 92.60801 42.047 C 91.81801 42.864 90.18301 45.251 88.74801 45.319 C 86.84101 45.408 85.92601 42.16 85.85301 41.068 C 85.64401 37.902 87.51201 34.326 89.48001 31.665 C 86.88701 31.619 78.01001 32.662003 77.34801 29.542002 C 77.05101 28.141005 78.70301 26.747002 79.50801 25.629002 C 80.95401 23.621002 82.82001 23.279 85.16101 22.134005 C 82.74801 20.069002 80.86501 17.512005 80.737015 14.619003 C 80.65102 12.6950035 80.81101 9.6620035 83.055016 8.481003 C 85.779015 7.046003 88.89201 9.431003 90.599014 10.938003 C 91.502014 11.736003 92.28601 13.109003 93.84402 12.482002 C 96.006 11.609 97.738 11.125 100.207 11.52 z "/>
    </g>
    <g xlink:href="#shape50">
        <path fill="#cc3333" d="M 29.104 94.998 C 27.444 95.349 26.61 97.436005 25.934 98.974 C 24.908 101.312 24.392 103.974 24.187 106.694 C 23.908 104.948 21.85 105.132 20.865 105.339 C 23.126 107.712 18.142 107.863 17.282 108.45599 C 16.046 109.30899 18.008 110.19499 18.742 110.381 C 20.687 110.871994 22.766 110.44299 24.452 109.71 C 23.776 110.684 22.808 111.557 22.65 112.918 C 22.502 114.19 22.859 115.634 23.044 116.943 C 23.265 118.502 23.546 120.059 23.884 121.611 C 24.089 122.554 24.294 125.044 25.117 125.662 C 26.211 126.481 27.780998 124.328 28.169998 123.512 C 29.297998 121.145004 29.333998 117.642 29.02 114.808 C 30.561 115.792 35.454 120.092 36.834 117.938 C 37.454 116.97099 36.923 115.242 36.805 114.061 C 36.592 111.938 35.602 110.938995 34.588 109.132 C 36.663 108.482994 38.583 107.244995 39.577 105.057 C 40.239 103.601 41.107 101.192 40.161 99.395 C 39.014 97.212 36.424 97.833 34.941 98.328 C 34.156 98.59 33.259 99.343994 32.542 98.246 C 31.548 96.72 30.682 95.664 29.104 94.998 z "/>
    </g>
    <path fill="#cd5c5c" d="M 163.207 2.166 C 167.998 2.853 167.754 11.302 167.801 14.784 C 168.158 13.129001 170.119 12.811001 171.53 13.007 C 169.21 15.353 173.478 15.526 174.891 16.143 C 176.48 16.837 175.023 17.794 174.07098 18.166 C 171.87198 19.025 169.51398 18.975 167.30598 18.16 C 168.078 19.34 169.149 20.389 169.15498 21.895 C 169.16298 23.305 168.62398 24.782 168.34898 26.158 C 168.00198 27.897 167.59798 29.624 167.13698 31.337002 C 166.78297 32.651 166.54099 34.795 165.68997 35.881 C 164.68597 37.16 162.52397 34.598 162.25998 33.694 C 161.36098 30.621 161.44698 27.336 161.96498 24.205 C 160.73997 25.057 152.49599 31.66 152.93597 26.779 C 153.19498 23.891 154.79898 20.808 156.25197 18.338 C 152.26797 17.326 148.01596 11.535 151.07797 7.5219994 C 152.96698 5.0489993 155.61497 6.787999 157.90997 7.018999 C 158.97197 7.125999 159.42398 6.004999 159.81998 5.228999 C 160.545 3.812 161.803 2.857 163.207 2.166 z "/>
    <path fill="#ffa07a" d="M 147.818 94.161 C 143.25499 94.827 143.48499 102.86 143.439 106.18201 C 143.10199 104.605 141.234 104.30101 139.89099 104.48801 C 142.59999 107.299 136.79599 106.366005 135.997 107.94001 C 134.704 110.49101 142.819 109.79901 143.911 109.39701 C 140.927 113.95701 143.43399 120.06901 144.909 124.82301 C 145.653 127.21901 147.39499 126.64401 148.517 124.67802 C 149.987 122.10001 149.457 117.92802 148.998 115.153015 C 150.289 116.04902 158.264 122.430016 157.539 117.27502 C 157.166 114.61802 155.789 111.862015 154.437 109.56502 C 158.33 108.57702 162.859 102.28902 158.968 98.82502 C 157.085 97.14902 154.809 98.50402 152.718 98.59502 C 151.843 98.63302 151.292 97.23102 150.839 96.67402 C 150.008 95.651 149.01 94.749 147.818 94.161 z "/>
</svg>
