<?xml version="1.0" encoding="UTF-8"?>
<svg xmlns="http://www.w3.org/2000/svg" xmlns:xlink="http://www.w3.org/1999/xlink" contentScriptType="text/ecmascript" width="84" baseProfile="tiny" zoomAndPan="magnify" contentStyleType="text/css" viewBox="5.948 44.368 84 58" height="58" preserveAspectRatio="xMidYMid meet" version="1.1">
    <g>
        <g>
            <g>
                <g>
                    <path fill="#ffffff" d="M 30.809 90.37 L 30.094 87.084 C 30.094 87.084 30.524 81.988 34.078 76.095 C 38.412 68.919 55.136 52.788002 67.584 48.785004 C 69.488 48.529003 73.81 49.801003 74.823 50.500004 C 76.444 52.355003 80.112 57.217003 77.967995 63.362003 C 77.45999 64.883 73.965996 68.902 71.489 70.362 C 68.505 69.665 63.391 66.363 63.391 66.363 C 62.817997 66.996 56.818 72.856 56.437 73.173996 C 56.626 74.759995 57.644 80.41499 56.882 83.909 C 55.388 87.94199 52.447998 93.83299 45.527 97.709 C 41.081 97.771 33.348 93.677 30.809 90.37 z "/>
                    <g>
                        <linearGradient x1="-229.311" gradientTransform="matrix(1.1905 0 0 1.1905 344.6962 -316.879)" y1="319.8447" x2="-234.5923" gradientUnits="userSpaceOnUse" y2="317.0171" xlink:type="simple" xlink:actuate="onLoad" id="XMLID_13_" xlink:show="other">
                            <stop stop-color="#704d18" offset="0"/>
                            <stop stop-color="#ad832f" offset="1"/>
                        </linearGradient>
                        <polygon fill="url(#XMLID_13_)" points="71.084,67.76 63.582,64.363 69.729,58.027      "/>
                        <linearGradient x1="-249.7495" gradientTransform="matrix(1.1905 0 0 1.1905 344.6962 -316.879)" y1="341.0449" x2="-261.7705" gradientUnits="userSpaceOnUse" y2="335.143" xlink:type="simple" xlink:actuate="onLoad" id="XMLID_14_" xlink:show="other">
                            <stop stop-color="#704d18" offset="0"/>
                            <stop stop-color="#ad832f" offset="1"/>
                        </linearGradient>
                        <path fill="url(#XMLID_14_)" d="M 31.391 87.579 C 32.003002 81.842 34.978 76.616005 34.978 76.616005 C 39.348 80.131004 43.987 79.68201 43.987 79.68201 L 44.37 94.005005 C 37.327 93.105 33.246 89.745 31.391 87.579 z "/>
                        <linearGradient x1="-254.7808" gradientTransform="matrix(1.1905 0 0 1.1905 344.6962 -316.879)" y1="344.9678" x2="-260.8326" gradientUnits="userSpaceOnUse" y2="342.278" xlink:type="simple" xlink:actuate="onLoad" id="XMLID_15_" xlink:show="other">
                            <stop stop-color="#eacf5a" offset="0"/>
                            <stop stop-color="#ad832f" offset="1"/>
                        </linearGradient>
                        <path fill="url(#XMLID_15_)" d="M 44.241 93.787 C 38.812 93.244 34.104 90.362 31.390001 87.579 L 31.872002 90.007 C 31.872002 90.007 35.919003 94.61101 44.789 96.105 C 44.79 96.103 44.255 93.777 44.241 93.787 z "/>
                        <linearGradient x1="-229.2954" gradientTransform="matrix(1.1905 0 0 1.1905 344.6962 -316.879)" y1="310.373" x2="-261.7947" gradientUnits="userSpaceOnUse" y2="333.4249" xlink:type="simple" xlink:actuate="onLoad" id="XMLID_16_" xlink:show="other">
                            <stop stop-color="#e0bc6c" offset="0"/>
                            <stop stop-color="#cd9f3d" offset="1"/>
                        </linearGradient>
                        <path fill="url(#XMLID_16_)" d="M 34.979 76.616 C 36.338 77.904 40.016 80.245995 43.845 79.910995 C 47.72 73.457 63.518 56.765 74.14 51.24 C 71.498 49.771 67.776 49.451 67.776 49.451 C 57.466 53.803 44.067 64.564 34.979 76.616 z "/>
                        <path fill="#eacf5a" d="M 44.241 93.787 C 43.455 90.872 43.131 83.103004 43.850002 79.824005 C 52.151 67.682 64.1 56.831 74.087 51.191 C 74.087 51.191 77.065994 54.261 77.551994 59.18 C 76.993 61.572 73.088 66.481 71.034996 67.746 C 70.72099 67.021 69.536995 58.549004 69.536995 58.549004 C 66.77899 62.162003 62.424995 66.083 55.295994 72.841 C 55.766994 75.347 55.838993 79.588005 55.838993 79.588005 C 53.61 85.622 49.005 91.373 44.241 93.787 z "/>
                        <linearGradient x1="-225.1279" gradientTransform="matrix(1.1905 0 0 1.1905 344.6962 -316.879)" y1="318.0068" x2="-229.209" gradientUnits="userSpaceOnUse" y2="322.488" xlink:type="simple" xlink:actuate="onLoad" id="XMLID_17_" xlink:show="other">
                            <stop stop-color="#eacf5a" offset="0"/>
                            <stop stop-color="#ad832f" offset="1"/>
                        </linearGradient>
                        <path fill="url(#XMLID_17_)" d="M 71.107 68.84 C 73.236 67.926994 76.86 63.515995 77.208 62.122997 C 77.597 60.565998 77.62 59.684998 77.495 58.894997 C 76.181 63.503998 70.943 67.385994 70.943 67.385994 L 71.107 68.84 z "/>
                        <linearGradient x1="-241.8931" gradientTransform="matrix(1.1905 0 0 1.1905 344.6962 -316.879)" y1="334.6904" x2="-251.3617" gradientUnits="userSpaceOnUse" y2="344.8235" xlink:type="simple" xlink:actuate="onLoad" id="XMLID_18_" xlink:show="other">
                            <stop stop-color="#eacf5a" offset="0"/>
                            <stop stop-color="#ad832f" offset="1"/>
                        </linearGradient>
                        <path fill="url(#XMLID_18_)" d="M 44.241 93.787 C 50.21 89.945 53.643 84.533005 55.839 79.590004 L 55.646 82.83 C 54.613 86.343 50.72 92.137 44.791 96.102005 C 44.493 95.311 44.241 93.787 44.241 93.787 z "/>
                    </g>
                    <linearGradient x1="-230.8623" gradientTransform="matrix(1.1905 0 0 1.1905 344.6962 -316.879)" y1="323.0947" x2="-234.5071" gradientUnits="userSpaceOnUse" y2="321.3103" xlink:type="simple" xlink:actuate="onLoad" id="XMLID_19_" xlink:show="other">
                        <stop stop-color="#eacf5a" offset="0"/>
                        <stop stop-color="#ad832f" offset="1"/>
                    </linearGradient>
                    <path fill="url(#XMLID_19_)" d="M 71.107 68.84 C 68.619 68.28 64.701004 66.231995 63.427002 65.12399 L 64.273 64.314995 C 66.07201 65.577995 68.976006 66.853 70.943 67.385994 L 71.107 68.84 z "/>
                </g>
            </g>
        </g>
        <rect x="5.948" width="84" fill="none" y="44.368" height="58"/>
        <g>
            <path fill="#ffffff" d="M 33.502 80.164 C 32.76 80.029 31.681 78.411 31.681 77.601 C 31.681 76.79099 28.455 73.536995 28.455 73.536995 C 27.437 72.913994 26.086 72.47299 24.193 72.37399 C 23.193 72.437 22.459002 72.76599 22.011002 73.06999 L 17.470001 76.201996 L 18.843 77.501 C 18.843 77.501 19.013 77.658 19.032 77.678 C 18.383999 78.074005 15.677 79.729004 15.677 79.729004 L 15.72 80.635 C 15.919001 84.569 18.353 87.606 20.529 88.766 C 21.737999 89.409996 23.001999 89.559 24.085999 89.19 C 26.092 88.502 26.753998 88.854004 27.190998 89.087006 L 44.302998 98.217 C 46.970997 96.934006 49.267998 95.184006 49.267998 95.184006 C 51.176 92.08401 50.446 90.395004 49.374996 88.59801 C 49.376 88.598 34.244 80.299 33.502 80.164 z "/>
            <g>
                <g>
                    <g>
                        <g>
                            <linearGradient x1="17.2173" gradientTransform="matrix(1 0 0 -1 0 68.0469)" y1="-13.0874" x2="23.9956" gradientUnits="userSpaceOnUse" y2="-13.0874" xlink:type="simple" xlink:actuate="onLoad" id="XMLID_20_" xlink:show="other">
                                <stop stop-color="#f1de84" offset="0"/>
                                <stop stop-color="#eacf5a" offset="0.2697"/>
                                <stop stop-color="#e0bc6c" offset="0.5719"/>
                                <stop stop-color="#cd9f3d" offset="1"/>
                            </linearGradient>
                            <polygon fill="url(#XMLID_20_)" points="17.217,80.405 21.166,83.733 23.996,81.765 20.279,78.535       "/>
                            <linearGradient x1="26.0918" gradientTransform="matrix(1 0 0 -1 0 68.0469)" y1="-19.4155" x2="23.5053" gradientUnits="userSpaceOnUse" y2="-16.2544" xlink:type="simple" xlink:actuate="onLoad" id="XMLID_21_" xlink:show="other">
                                <stop stop-color="#f1de84" offset="0"/>
                                <stop stop-color="#eacf5a" offset="0.2697"/>
                                <stop stop-color="#e0bc6c" offset="0.5719"/>
                                <stop stop-color="#cd9f3d" offset="1"/>
                            </linearGradient>
                            <path fill="url(#XMLID_21_)" d="M 21.157 83.74 C 22.052 83.783 23.111 83.471 23.566 82.069 L 21.157 83.74 z "/>
                        </g>
                        <g>
                            <path fill="#b0381e" d="M 45.808 91.588 C 48.162 95.536995 44.785 96.48399 44.608997 96.531 C 43.817997 96.111 28.844997 88.121 27.948997 87.643 C 27.054998 87.165 25.933998 86.859 23.629997 87.65 C 22.918997 87.891 22.080997 87.758 21.256998 87.32 C 19.402998 86.332 17.385998 83.68 17.225998 80.397 L 21.170998 83.740005 C 23.535997 83.850006 24.213997 81.425 23.322998 79.409004 L 19.865997 76.22 C 21.248997 75.287 22.947998 75.625 24.295998 76.343 C 25.198997 76.824005 25.943998 77.478004 26.327997 78.031006 C 27.280996 79.40201 28.047997 81.927 29.473997 82.87701 L 45.808 91.588 z "/>
                            <path fill="#eacf5a" d="M 43.589 94.582 C 44.261 94.936 44.939 94.688 45.103 94.019 C 45.263 93.353 44.849 92.517 44.177002 92.160995 C 43.507004 91.807 42.827003 92.057 42.667004 92.724 C 42.5 93.392 42.92 94.222 43.589 94.582 "/>
                        </g>
                        <g>
                            <linearGradient x1="33.4243" gradientTransform="matrix(1 0 0 -1 0 68.0469)" y1="-14.1606" x2="25.0906" gradientUnits="userSpaceOnUse" y2="-6.1137" xlink:type="simple" xlink:actuate="onLoad" id="XMLID_22_" xlink:show="other">
                                <stop stop-color="#f1de84" offset="0"/>
                                <stop stop-color="#eacf5a" offset="0.2697"/>
                                <stop stop-color="#e0bc6c" offset="0.5719"/>
                                <stop stop-color="#cd9f3d" offset="1"/>
                            </linearGradient>
                            <path fill="url(#XMLID_22_)" d="M 19.873 76.22 C 21.64 75.283005 22.678999 75.532 24.636 76.533005 C 26.588999 77.531006 27.132 79.757 28.003 81.045006 C 28.460001 81.754005 28.774 82.46001 29.481 82.855 L 45.809 91.612 L 48.371998 89.545 L 32.267998 80.862 C 31.248997 80.111 30.812998 79.134 30.522997 78.614 C 30.230997 78.095 29.316998 75.515 27.320997 74.476 C 25.321997 73.435 23.802998 73.519 22.888996 74.142 L 19.873 76.22 z "/>
                            <linearGradient x1="19.3716" gradientTransform="matrix(1 0 0 -1 0 68.0469)" y1="-6.082" x2="23.1075" gradientUnits="userSpaceOnUse" y2="-7.0878" xlink:type="simple" xlink:actuate="onLoad" id="XMLID_23_" xlink:show="other">
                                <stop stop-color="#f1de84" offset="0"/>
                                <stop stop-color="#eacf5a" offset="0.2697"/>
                                <stop stop-color="#e0bc6c" offset="0.5719"/>
                                <stop stop-color="#cd9f3d" offset="1"/>
                            </linearGradient>
                            <path fill="url(#XMLID_23_)" d="M 25.533 73.813 C 24.398 73.55701 23.503 73.734 22.882 74.156006 L 19.866 76.23501 C 20.955 75.658005 21.769999 75.531006 22.694 75.75601 L 25.533 73.813 z "/>
                            <path fill="#5c1001" d="M 45.808 91.607 C 46.678997 92.877 47.119 94.928 45.718 95.932 L 48.218 94.145 C 49.158997 92.871994 49.552 91.361 48.368 89.53999 L 45.808 91.607 z "/>
                            <g>
                                <linearGradient x1="29.4614" gradientTransform="matrix(1 0 0 -1 0 68.0469)" y1="-18.2017" x2="48.3857" gradientUnits="userSpaceOnUse" y2="-18.2017" xlink:type="simple" xlink:actuate="onLoad" id="XMLID_24_" xlink:show="other">
                                    <stop stop-color="#f1de84" offset="0"/>
                                    <stop stop-color="#eacf5a" offset="0.2697"/>
                                    <stop stop-color="#e0bc6c" offset="0.5719"/>
                                    <stop stop-color="#cd9f3d" offset="1"/>
                                </linearGradient>
                                <polygon fill="url(#XMLID_24_)" points="29.461,82.884 32.297,80.9 48.386,89.543 45.796,91.597        "/>
                            </g>
                        </g>
                    </g>
                </g>
            </g>
        </g>
    </g>
</svg>
