<?xml version="1.0" encoding="UTF-8"?>
<svg xmlns="http://www.w3.org/2000/svg" xmlns:xlink="http://www.w3.org/1999/xlink" contentScriptType="text/ecmascript" width="96" baseProfile="tiny" zoomAndPan="magnify" contentStyleType="text/css" viewBox="0 0 96 96" height="96" preserveAspectRatio="xMidYMid meet" version="1.1">
    <linearGradient x1="59.8896" gradientTransform="matrix(1 0 0 -1 0.1377 94.834)" y1="34.9526" x2="35.4097" gradientUnits="userSpaceOnUse" y2="59.1326" xlink:type="simple" xlink:actuate="onLoad" id="XMLID_8_" xlink:show="other">
        <stop stop-color="#f1de84" offset="0"/>
        <stop stop-color="#cd9f3d" offset="1"/>
    </linearGradient>
    <circle fill="url(#XMLID_8_)" r="17.492" cx="48" cy="48.001"/>
    <linearGradient x1="57.3301" gradientTransform="matrix(1 0 0 -1 0.1377 94.834)" y1="37.1416" x2="45.8198" gradientUnits="userSpaceOnUse" y2="48.2519" xlink:type="simple" xlink:actuate="onLoad" id="XMLID_9_" xlink:show="other">
        <stop stop-color="#ffffff" offset="0"/>
        <stop stop-color="#ffffff" offset="0.05"/>
        <stop stop-color="#a2c2dd" offset="1"/>
    </linearGradient>
    <path fill="url(#XMLID_9_)" d="M 53.505 61.896 C 55.481003 61.73 61.158 56.38 61.527 53.872 C 61.609 48.81 56.837 46.177002 53.957 46.095 C 48.196 45.971 45.069 51.484 45.893 55.394 C 46.427 59.428 50.613 62.023 53.505 61.896 z " fill-opacity="0.3"/>
    <path fill="none" d="M 64.031 47.997 " stroke="#009966"/>
    <path fill="none" d="M 63.449 48.299 " stroke="#009966"/>
    <linearGradient x1="56.1738" gradientTransform="matrix(1 0 0 -1 0.1377 94.834)" y1="32.9253" x2="40.4838" gradientUnits="userSpaceOnUse" y2="59.1753" xlink:type="simple" xlink:actuate="onLoad" id="XMLID_10_" xlink:show="other">
        <stop stop-color="#ffffff" offset="0"/>
        <stop stop-color="#ede9bd" offset="0.32"/>
        <stop stop-color="#f1de84" offset="0.73"/>
        <stop stop-color="#f1de84" offset="1"/>
    </linearGradient>
    <path fill="url(#XMLID_10_)" d="M 31.717 47.999 C 31.717 56.98 39.021 64.284 47.996 64.284 C 56.973 64.284 64.283 56.979996 64.283 47.998997 C 64.283 39.020996 56.971996 31.717997 47.995995 31.717997 C 39.021 31.718 31.717 39.021 31.717 47.999 z "/>
    <linearGradient x1="54.8506" gradientTransform="matrix(1 0 0 -1 0.1377 94.834)" y1="32.7041" x2="47.9608" gradientUnits="userSpaceOnUse" y2="46.6437" xlink:type="simple" xlink:actuate="onLoad" id="XMLID_11_" xlink:show="other">
        <stop stop-color="#f1de84" offset="0"/>
        <stop stop-color="#cd9f3d" offset="1"/>
    </linearGradient>
    <path fill="url(#XMLID_11_)" d="M 41.335 33.708 C 49.218998 30.033 58.619 33.454 62.289 41.334 L 62.758003 41.114 C 58.965004 32.976997 49.257004 29.446999 41.116005 33.240997 C 32.980003 37.034996 29.447006 46.740997 33.242004 54.881996 L 33.711006 54.658997 C 30.034 46.783 33.456 37.382 41.335 33.708 z "/>
    <linearGradient x1="54.8467" gradientTransform="matrix(1 0 0 -1 0.1377 94.834)" y1="32.7021" x2="47.9567" gradientUnits="userSpaceOnUse" y2="46.6422" xlink:type="simple" xlink:actuate="onLoad" id="XMLID_12_" xlink:show="other">
        <stop stop-color="#f1de84" offset="0"/>
        <stop stop-color="#cd9f3d" offset="1"/>
    </linearGradient>
    <path fill="url(#XMLID_12_)" d="M 62.76 41.117 L 62.290997 41.334 C 65.967995 49.213 62.542995 58.618 54.666996 62.289 C 46.785995 65.964005 37.382996 62.543003 33.711 54.662003 L 33.241997 54.882004 C 37.038 63.020004 46.744995 66.55501 54.882996 62.762005 C 63.02 58.963 66.553 49.255 62.76 41.117 z "/>
    <polygon fill="#eacf5a" points="41.766,40.312 41.766,55.689 59.113,47.878 "/>
    <polygon fill="#cd9f3d" points="41.766,40.312 42.542,41.387 58.189,48.291 59.113,47.878 "/>
    <polygon fill="#cd9f3d" points="41.779,55.686 42.542,55.339 42.542,41.387 41.766,40.312 "/>
    <linearGradient x1="36.2441" gradientTransform="matrix(1 0 0 -1 0.1377 94.834)" y1="54.5029" x2="50.3333" gradientUnits="userSpaceOnUse" y2="62.2324" xlink:type="simple" xlink:actuate="onLoad" id="XMLID_13_" xlink:show="other">
        <stop stop-color="#ffffff" offset="0"/>
        <stop stop-color="#ffffc9" offset="1"/>
    </linearGradient>
    <path fill="url(#XMLID_13_)" d="M 49.453 34.584 C 49.124 33.596 47.272 32.69 47.272 32.69 C 40.071 32.525997 35.957 38.163 35.957 38.163 C 35.175 39.561996 35.71 41.907997 35.71 41.907997 L 36.738 43.841995 C 36.738 43.842 42.54 35.859 49.453 34.584 z " fill-opacity="0.78"/>
    <linearGradient x1="34.4526" gradientTransform="matrix(1 0 0 -1 0.1377 94.834)" y1="52.5068" x2="33.3428" gradientUnits="userSpaceOnUse" y2="44.2182" xlink:type="simple" xlink:actuate="onLoad" id="XMLID_14_" xlink:show="other">
        <stop stop-color="#ffffff" offset="0"/>
        <stop stop-color="#ffffc9" offset="1"/>
    </linearGradient>
    <path fill="url(#XMLID_14_)" d="M 34.229 42.279 L 33.611 43.02 C 32.952 44.666 32.5 47.876 33.118 48.164 C 34.351 49.191 34.929 45.942 34.929 45.942 L 35.381 45.407 L 34.229 42.279 z " fill-opacity="0.78"/>
</svg>
