<?xml version="1.0" encoding="UTF-8"?>
<svg xmlns="http://www.w3.org/2000/svg" xmlns:xlink="http://www.w3.org/1999/xlink" contentScriptType="text/ecmascript" width="44" baseProfile="tiny" zoomAndPan="magnify" contentStyleType="text/css" viewBox="0 0 44 44" height="44" preserveAspectRatio="xMidYMid meet" version="1.1">
    <g>
        <g>
            <g>
                <g>
                    <g>
                        <radialGradient gradientUnits="userSpaceOnUse" xlink:type="simple" r="39.3314" xlink:actuate="onLoad" cx="20.2954" id="XMLID_4_" cy="28.9229" xlink:show="other">
                            <stop stop-color="#ad832f" offset="0"/>
                            <stop stop-color="#8e6f3a" offset="0.5337"/>
                            <stop stop-color="#704d18" offset="1"/>
                        </radialGradient>
                        <path fill="url(#XMLID_4_)" d="M 17.104 30.934 L 16.605 30.934 L 16.607 30.432 L 16.630001 25.548 L 16.633001 25.051 L 27.256 25.051 L 23.861 21.565 L 23.517 21.212 L 23.867 20.863 L 27.445 17.289 L 27.798 16.936 L 28.152 17.289 L 33.194 22.331 C 33.313 21.619 33.39 20.892 33.39 20.145 C 33.391 12.885 27.506 7.0 20.246 7.0 C 12.986 7.0 7.101 12.885 7.101 20.145 C 7.101 27.404 12.986 33.29 20.246 33.29 C 23.019 33.29 25.589 32.426003 27.71 30.959002 L 17.104 30.934 z "/>
                    </g>
                </g>
                <g>
                    <g>
                        <radialGradient gradientUnits="userSpaceOnUse" xlink:type="simple" r="12.2869" xlink:actuate="onLoad" cx="21.3652" id="XMLID_5_" cy="19.3843" xlink:show="other">
                            <stop stop-color="#f1de84" offset="0"/>
                            <stop stop-color="#c4a64a" offset="1"/>
                        </radialGradient>
                        <path fill="url(#XMLID_5_)" d="M 11.933 10.471 C 11.976 10.358999 12.773999 9.958 12.995 9.759999 C 13.221 9.558999 13.553 9.492999 13.994 9.072 C 14.438 8.651999 15.816 8.606999 16.06 8.497999 C 16.305 8.384999 17.613 8.006999 17.478 8.230999 C 17.343 8.451999 16.877998 8.805999 15.569999 9.072999 C 15.479999 9.072999 13.038999 10.516999 14.370998 10.093999 C 14.613998 10.072999 15.303998 10.051999 15.632998 10.160999 C 15.970999 10.270999 18.722998 9.362 18.697 8.785999 L 19.808998 7.0999994 C 18.875998 6.967 16.631998 7.5679994 16.301998 7.6529994 C 16.232998 7.7199993 15.456998 8.032 15.456998 8.032 C 15.456998 8.032 14.346998 8.586 13.637998 8.763 C 13.037997 9.119 11.440998 10.250999 11.418998 10.693999 C 11.397 11.136 11.886 10.582 11.933 10.471 z M 31.217 19.467 C 31.217 19.467 31.817 17.495998 31.971 17.162998 L 30.728998 15.057999 L 30.461 13.970999 L 31.106 14.281999 C 31.106 14.281999 31.237 14.281999 31.151 13.792998 C 31.018 13.818998 30.617 13.683998 30.528 13.640998 C 30.44 13.593998 29.262 11.155998 29.262 11.155998 L 27.669 10.580998 L 26.981998 9.0929985 C 26.781998 8.782998 25.495998 7.9179983 23.675 7.7839985 C 23.208 7.7499986 24.47 8.272999 24.228 8.804998 C 24.294 8.981998 24.468 9.381998 24.270998 9.447998 C 24.076998 9.515998 23.915998 9.974998 23.229998 9.736998 C 23.083998 9.685998 22.741997 9.8239975 22.741997 9.8239975 C 22.741997 9.8239975 22.697996 10.755998 22.409996 10.866998 C 22.117996 10.976997 21.964996 11.133998 21.919996 11.420998 C 21.876995 11.710998 20.300997 12.127997 20.100996 12.127997 C 19.900995 12.127997 19.105995 11.486998 18.926996 11.465998 C 17.906996 11.493998 16.998997 12.306997 16.820995 12.327997 C 16.643995 12.352997 16.023994 12.552998 16.176996 13.326997 C 16.111996 13.392997 14.757997 14.460997 14.757997 14.059997 C 14.757997 13.659997 15.045997 12.460997 14.6469965 12.838997 C 14.246997 13.217997 13.627996 13.305997 13.871997 13.616997 C 14.1139965 13.926997 14.291997 14.347997 14.092997 14.368997 C 13.892997 14.390997 13.714996 14.635997 13.781997 15.144997 C 13.848997 15.656997 13.072997 15.722997 12.916997 15.368997 C 12.762997 15.016996 11.962997 16.096996 11.962997 16.096996 L 12.051997 16.877996 L 10.365997 17.984997 C 10.365997 17.984997 9.566998 18.673996 9.543997 18.805996 C 9.522997 18.938995 8.9229965 20.908997 9.145997 21.422997 C 9.368997 21.931995 9.590997 23.153996 10.101997 23.306995 C 10.611998 23.461998 11.560997 23.691998 11.653997 23.769997 C 12.515997 24.513996 12.917997 26.144997 12.963997 26.232996 C 13.006997 26.325996 13.715997 27.476995 13.4299965 28.271996 C 13.139997 29.068996 14.027996 29.515997 14.093996 29.693996 C 14.160996 29.871996 15.176996 31.837996 16.400995 31.599997 C 16.666996 31.730995 17.265997 31.797997 17.730995 31.201996 C 17.772997 31.166996 17.837996 31.060995 17.905994 30.935995 L 17.103994 30.933994 L 16.604994 30.933994 L 16.606995 30.431992 L 16.629995 25.547993 L 16.632996 25.050991 L 21.510996 25.050991 C 21.549995 24.976994 21.585997 24.904991 21.612995 24.836992 C 21.725996 24.547993 21.788996 24.261992 21.079994 24.435991 C 20.369995 24.618994 19.661997 24.460993 20.306992 24.060991 C 20.661991 23.974993 21.835993 23.439993 21.835993 23.439993 L 23.233994 22.200993 C 23.233994 22.200993 23.589994 21.758991 22.703993 21.134993 C 22.674994 21.106993 23.053991 21.090992 23.646994 21.083992 L 23.866993 20.863993 L 27.444992 17.289991 L 27.797993 16.936993 L 28.151993 17.289991 L 31.871992 21.009993 C 31.875992 20.989992 31.881992 20.978992 31.884993 20.957993 C 31.993 20.179 31.217 19.467 31.217 19.467 z M 18.531 16.609 C 18.531 16.609 19.658 16.688 19.685 17.384 C 18.852 17.534998 17.999 17.474998 17.666 17.431 C 17.331 17.384 17.666 16.744 17.931 16.454 C 18.198 16.165 18.42 16.565 18.531 16.609 z M 17.623 12.819 C 17.683 12.721001 17.823 13.393001 17.824 13.528 C 17.824 13.661 17.424 13.727 17.311 14.038 C 17.204998 14.352 16.537998 14.194 16.512999 14.086 C 16.451 13.807 17.146 13.59 17.623 12.819 z M 17.624 19.734 C 17.244 19.734 16.493 19.468 16.18 19.247 C 15.873 19.027 15.605 19.247 15.406 19.493 C 15.207 19.734 14.23 18.407 14.23 18.407 C 14.23 18.407 14.395 17.751 14.257001 17.611 C 13.348001 17.259 12.435001 17.163 12.435001 17.163 L 12.255001 16.943 L 12.677001 16.92 L 13.142001 16.52 C 13.142001 16.52 13.855001 16.143 14.097001 15.944 C 14.303001 15.775001 15.318001 17.03 15.318001 17.03 C 15.318001 17.03 15.115001 17.542 15.028001 17.650002 C 15.361001 17.628002 15.804001 17.163002 15.804001 17.163002 C 15.160001 16.344002 15.493001 16.189003 15.493001 16.189003 L 16.007002 16.810003 L 15.960002 17.254004 C 15.960002 17.254004 16.294003 18.094004 16.447002 18.094004 C 16.606003 18.094004 16.647003 17.541004 16.647003 17.541004 L 16.913004 17.474005 C 16.913004 17.474005 17.179005 18.272003 17.311005 18.381004 C 17.444004 18.492004 18.227003 18.426004 18.531004 18.847004 C 18.553 20.024 17.778 19.778 17.624 19.734 z M 19.663 23.797 C 19.216 23.664 18.817 22.844002 18.707 22.688002 C 18.597002 22.532 18.644 22.087002 18.644 22.087002 C 18.644 22.087002 18.077002 20.762 18.085 20.625002 C 18.131 20.003002 19.019 21.711002 19.018002 21.711002 L 19.063002 22.091002 C 19.063 22.091 20.302 23.059 19.663 23.797 z M 21.879 21.487 L 21.082 20.601 L 21.06 20.226 L 21.388 20.246 L 21.835 20.667 L 22.478998 20.89 C 22.613 21.424 21.879 21.487 21.879 21.487 z "/>
                    </g>
                </g>
                <linearGradient x1="19.0459" gradientTransform="matrix(1 0 0 -1 0.1377 42.834)" y1="22.4292" x2="32.7809" gradientUnits="userSpaceOnUse" y2="8.5311" xlink:type="simple" xlink:actuate="onLoad" id="XMLID_6_" xlink:show="other">
                    <stop stop-color="#ffffcf" offset="0"/>
                    <stop stop-color="#f0de80" offset="0.11"/>
                    <stop stop-color="#c26e54" offset="0.35"/>
                    <stop stop-color="#b0361a" offset="0.48"/>
                    <stop stop-color="#ad2621" offset="0.6629"/>
                    <stop stop-color="#9c0a00" offset="0.75"/>
                    <stop stop-color="#991712" offset="0.82"/>
                    <stop stop-color="#8a0000" offset="0.91"/>
                    <stop stop-color="#730303" offset="0.99"/>
                    <stop stop-color="#730303" offset="1"/>
                </linearGradient>
                <polygon fill="url(#XMLID_6_)" points="27.889,18.978 25.547,21.325 30.637,26.414 18.014,26.414 18.014,29.561 30.639,29.561      25.547,34.654 27.889,37 36.898,27.991    "/>
            </g>
        </g>
        <rect width="44" fill="none" height="44"/>
    </g>
</svg>
