<?xml version="1.0" encoding="UTF-8"?>
<svg xmlns="http://www.w3.org/2000/svg" xmlns:xlink="http://www.w3.org/1999/xlink" contentScriptType="text/ecmascript" width="38" baseProfile="tiny" zoomAndPan="magnify" contentStyleType="text/css" viewBox="-1 -1 38 32" height="32" preserveAspectRatio="xMidYMid meet" version="1.1">
    <g>
        <path fill="#840000" d="M 12.603 24.117 L 12.603 21.189 L 18.449 14.328001 C 19.361 13.264001 19.816 12.073001 19.816 10.758001 C 19.816 10.066001 19.587 9.481001 19.127 9.004002 C 18.668 8.528002 18.063002 8.290002 17.314 8.290002 C 16.54 8.290002 15.779001 8.4070015 15.033001 8.641002 C 14.287001 8.875002 13.638 9.150002 13.091001 9.464002 L 13.091001 6.838 C 13.575001 6.579 14.194 6.356 14.948001 6.166 C 15.702001 5.976 16.531 5.882 17.434002 5.882 C 19.232002 5.882 20.642002 6.315 21.663002 7.177 C 22.684002 8.039 23.193005 9.218 23.193005 10.71 C 23.193005 12.831 22.267002 14.872 20.422005 16.833 L 15.872003 21.637 L 23.4 21.637 L 23.4 24.117 L 12.603 24.117 z "/>
        <rect x="-1" width="38" fill="none" y="-1" height="32"/>
    </g>
</svg>
