<?xml version="1.0" encoding="UTF-8"?>
<svg xmlns="http://www.w3.org/2000/svg" xmlns:xlink="http://www.w3.org/1999/xlink" contentScriptType="text/ecmascript" width="120" baseProfile="tiny" zoomAndPan="magnify" contentStyleType="text/css" viewBox="0 0 120 120" height="120" preserveAspectRatio="xMidYMid meet" version="1.1">
    <linearGradient x1="-0.2817" gradientTransform="matrix(1 0 0 1 0.2754 -723.1104)" y1="735.9863" x2="63.3577" gradientUnits="userSpaceOnUse" y2="785.888" xlink:type="simple" xlink:actuate="onLoad" id="XMLID_7_" xlink:show="other">
        <stop stop-color="#f1de84" offset="0"/>
        <stop stop-color="#cd9f3d" offset="1"/>
    </linearGradient>
    <path fill="url(#XMLID_7_)" d="M 96.343 18.026 L 96.343 18.026 L 96.348 18.019 C 96.348 18.019 92.63 16.127998 87.934 16.085 L 27.441998 21.157 C 22.086998 21.458 19.919998 23.412 20.005997 25.884 L 20.696997 97.362 C 20.684998 99.694 22.921995 101.174 25.093996 102.969 L 96.343 18.026 z "/>
    <path fill="#ffffff" d="M 91.839 17.28 C 96.634 16.877 99.230995 19.557 99.223 22.094002 C 99.216 24.587002 99.952 80.601 99.994 82.994 C 100.056 86.505005 97.495 88.453 94.681 89.144005 C 92.997 89.55801 33.765 103.30601 31.999 103.634 C 25.123 104.90501 23.782 102.224 23.812 100.18701 C 23.851 97.579 23.233 29.587006 23.215 27.333008 C 23.191 24.372007 25.984 23.049007 31.195 22.514008 C 32.525 22.377 89.209 17.501 91.839 17.28 z "/>
    <linearGradient x1="-1093.1924" gradientTransform="matrix(-0.5936 0 0 -0.3989 -550.2098 -1189.2032)" y1="-3133.9619" x2="-972.1108" gradientUnits="userSpaceOnUse" y2="-3133.9619" xlink:type="simple" xlink:actuate="onLoad" id="XMLID_8_" xlink:show="other">
        <stop stop-color="#e0bc6c" offset="0"/>
        <stop stop-color="#8e6f3a" offset="1"/>
    </linearGradient>
    <path fill="url(#XMLID_8_)" d="M 95.02 87.62 C 96.795 87.18 98.68 86.18 98.708 84.200005 C 98.727 83.01301 98.342 24.977003 98.37 23.186005 C 98.394005 21.606005 96.95101 20.476006 93.373 20.797005 C 92.18 20.904003 33.439003 26.598003 31.918 26.656006 C 28.032 26.804008 26.815 28.773006 26.835 29.903006 C 26.835 29.903006 27.747 95.57701 27.762 98.58301 C 27.773998 100.85901 30.127998 101.35401 33.197 101.04401 C 33.197 101.044 93.605 87.973 95.02 87.62 z "/>
    <radialGradient gradientTransform="matrix(1 0 0 -1 0.1377 118.834)" gradientUnits="userSpaceOnUse" xlink:type="simple" r="30.2009" xlink:actuate="onLoad" cx="62.6348" id="XMLID_9_" cy="60.8281" xlink:show="other">
        <stop stop-color="#f1de84" offset="0"/>
        <stop stop-color="#e0bc6c" offset="1"/>
    </radialGradient>
    <path fill="url(#XMLID_9_)" d="M 31.666 45.508 C 31.865 44.385 31.998 44.354 34.104 44.392 C 34.752 46.685997 35.627 46.889 36.125 46.790997 C 37.929 48.549995 37.271 53.375996 38.642 54.865997 C 39.876 56.208996 40.494 57.538 40.968 58.513996 C 44.989 60.832996 44.343 59.633995 46.61 62.716995 C 46.291 64.034996 46.268 65.242 47.728 69.466995 C 47.728 69.466995 48.165 66.266 48.882 70.338 C 49.597 74.414 49.599 71.242 48.834 72.881 C 48.07 74.518 49.879 73.76199 48.912 75.572 C 47.942997 77.381 48.746 77.966 48.746 77.966 C 49.044 83.30499 48.871 83.022 50.407997 83.086 C 50.097996 81.785 50.982 79.465 51.062996 78.284 C 51.678997 76.7 53.752995 74.004 53.99 71.58199 C 54.997 70.68199 55.435 69.76799 55.288 68.16 C 56.295 66.115 56.57 65.397995 53.214996 63.383995 C 52.455997 60.650993 52.83 63.463997 50.930996 59.796997 C 48.490997 59.496 46.622997 59.269997 46.701996 60.785995 C 44.888996 58.842995 46.500996 58.785995 45.772995 56.944996 C 45.432995 56.085995 43.91299 57.484997 44.024994 58.469997 C 42.177994 58.009 43.47599 55.490997 44.97599 54.76 C 45.382996 55.282997 45.959995 56.373997 46.403996 56.139 C 46.623997 55.699 46.186996 54.476 46.578995 54.148 C 47.805996 53.12 47.894997 52.108997 47.400993 52.098 C 47.983994 51.668 48.858994 50.566 48.721992 50.376 C 48.274994 49.756 49.00099 49.268 49.047993 49.299 C 49.568993 49.91 50.178993 49.859 50.178993 49.859 C 50.178993 49.859 49.75799 48.266003 49.78599 48.264 C 50.41399 48.378 50.547993 48.549 50.970993 48.987 C 51.913994 48.236 50.715992 46.917 50.39299 46.565 C 51.238995 46.683 50.696995 45.045 49.21899 45.396 C 49.526993 44.323 49.110992 43.1 47.793995 43.365 C 48.358994 41.957 50.106995 40.716003 46.881996 37.815 C 47.092995 37.701004 47.870995 37.322 47.870995 37.322 C 48.85099 38.019 49.660995 39.475 50.105995 40.133003 C 50.182995 42.431004 52.755997 42.445004 52.673996 43.659004 C 54.782 38.813004 54.929996 41.404003 55.958996 39.521004 C 56.188995 39.658005 57.661995 39.668003 57.977997 37.058 C 56.872 36.141003 58.636 35.210003 58.522995 34.592003 C 58.380997 33.802 57.293995 34.087 56.395996 34.103004 C 51.838997 34.013004 50.782997 33.933006 50.327995 34.83001 C 50.118996 34.745007 49.608994 34.153008 49.224995 34.798004 C 46.324993 34.972004 45.263996 35.776005 45.14299 36.871 C 45.160995 36.533 45.576992 34.726 44.722996 34.997 C 43.759995 35.714 43.061996 35.886 42.76699 35.091003 C 42.521996 34.432003 40.779995 35.559 41.616993 36.374004 C 41.095993 36.589005 40.478992 37.041004 40.936993 38.928005 C 39.74499 37.072006 39.184994 36.811005 37.851994 37.902004 C 37.751995 37.359005 37.373993 37.13501 36.26099 38.009003 C 37.368996 38.302 35.29499 38.631004 35.213993 39.772003 C 33.61999 39.256004 32.758995 39.777004 32.11199 39.137005 C 30.013992 38.085007 28.264992 40.747005 28.346992 41.619003 C 28.475992 42.453003 27.983992 42.698 28.324991 43.417004 C 28.738993 44.294003 28.702991 44.312004 29.414991 47.397003 C 29.695 46.096 29.748 46.093 31.666 45.508 z M 89.046 66.541 C 88.714 65.65 87.664 65.579 87.664 65.579 C 87.664 65.579 87.1 66.133 86.6 66.275 C 84.098 68.691 83.762 68.79 85.132 74.32 L 86.169 73.511 C 86.275 72.204 87.742 72.788 88.302 72.380005 C 90.042 73.831 89.422005 73.991005 90.927 74.872 C 90.834 75.125 90.612 75.950005 90.639 75.948 C 91.319 77.094 92.313 74.877 91.692 73.884995 C 91.520004 73.468994 92.364 73.05699 92.274 72.314995 C 92.022 70.286 93.112 70.104 90.824005 68.01199 C 90.468 67.688 90.636 66.16899 89.383 64.936 C 89.675 65.473 89.25 65.887 89.046 66.541 z M 63.854 43.733 C 63.825 43.745003 63.014 42.989 62.965 43.056004 C 62.086 44.337 61.692 41.996 61.755 41.337 C 62.545 42.021004 62.372 39.777 64.496 36.710003 C 65.992004 37.448 66.002 35.72 62.982 35.860004 C 61.066 33.227005 68.939 34.372005 65.513 35.583004 C 65.784004 37.936005 71.939 38.755005 73.142 36.332005 C 70.272995 35.202003 72.326 36.794006 70.914 36.800003 C 69.408005 36.218 70.57601 35.414 71.511 34.855003 C 69.126 34.304005 69.224 35.203003 68.398 34.011 C 71.749 34.049 71.14 32.975002 72.138 33.386 C 72.732 33.629 73.367 35.697 74.327 35.509003 C 75.977005 35.185 74.331 36.674004 75.806 35.833004 C 77.0 35.158005 76.535 34.47601 78.771 34.465004 C 78.66499 34.216003 78.103 33.298004 78.38 33.014004 C 78.92 32.453003 80.300995 34.754005 84.028 34.640003 C 84.698 32.591003 84.352 34.927 86.104 35.235004 C 87.092 33.662003 87.625 33.191006 87.909 35.124004 C 90.309 33.178005 88.27599 34.242004 91.202995 35.100006 C 92.533 36.72601 94.032 35.35801 95.24 35.56601 C 96.248 37.325005 93.725 40.763004 92.94 40.372005 C 92.88 41.304005 91.966995 41.074005 91.966995 41.074005 C 91.966995 41.074005 92.602 44.046005 90.648994 44.126007 C 91.295 43.333008 90.309 42.697006 91.311 39.959007 C 90.08099 40.70601 89.94 42.18501 88.926 41.282005 C 89.364 43.877007 88.69599 45.136005 89.114 46.240005 C 88.39 45.471004 86.652 46.439007 86.652 49.581005 C 87.31201 48.208004 87.712 48.436005 88.251 47.859005 C 88.684 47.393005 87.964 46.900005 89.514 46.634007 C 89.212 47.319008 88.403 50.393005 88.149 50.814007 C 89.587006 53.338005 87.244 52.937008 87.149 51.452007 C 86.619 52.176006 86.262 51.459007 85.919 52.266006 C 85.565 51.940006 85.741 49.188007 84.926 48.852005 C 83.654 49.189007 86.314 52.206005 85.049 54.873005 L 84.359 54.28801 C 80.93701 57.009007 83.603004 55.843006 82.908005 57.66301 C 82.37401 59.486008 81.574005 59.889008 81.84901 61.328007 C 81.84901 61.328007 82.726006 62.66301 82.799 63.58201 C 83.75 62.627007 83.69501 62.555008 83.15501 61.340008 L 84.796005 59.752007 L 85.36201 61.611008 C 85.36201 61.611008 87.95701 60.196007 89.05301 62.314007 C 93.72901 61.26901 91.22301 62.113007 92.93801 63.738007 C 94.37401 64.284004 96.96101 66.21001 95.01401 67.509 C 95.227005 68.927 95.69401 71.056 95.69401 71.056 C 94.41101 70.868 94.29001 69.941 94.37101 66.593 C 92.82901 63.212 94.44901 67.34001 91.08401 63.226 C 91.08401 63.226 90.964005 64.298004 91.213005 65.12 C 90.922005 65.373 89.98401 64.144005 89.98401 64.144005 C 89.98401 64.144005 89.04801 64.714005 88.42601 63.720005 C 86.29401 63.613007 86.29001 62.388004 86.29001 62.388004 L 84.79201 63.458004 L 87.214005 64.117004 C 87.214005 64.117004 87.171005 64.843 85.586006 64.86 C 85.79401 65.559 81.48201 66.651 81.033005 61.162003 C 80.34801 60.677 80.313 60.733 80.43201 57.716003 C 80.43201 57.716003 79.44401 55.801003 79.26001 55.467003 C 77.38901 57.081 78.25501 60.205 77.26601 60.197 C 75.76601 60.184 76.12501 55.316 73.16901 54.829 C 73.35401 56.856003 72.37301 57.243004 71.606 58.638 C 71.606 58.638 72.389 59.516 72.628006 59.733 C 71.80301 63.926003 68.899 63.608 71.059006 66.6 C 70.211006 67.776 69.01401 75.178 67.80501 75.494 C 65.84601 76.010994 64.55101 69.77 64.617004 69.26299 C 63.909004 68.63799 64.476006 67.72799 64.55 67.25399 C 64.145004 66.39799 64.154 65.12699 63.485004 63.41499 C 64.503006 61.92899 63.202003 62.72399 62.423004 61.68799 C 62.376003 61.68599 60.84401 62.41699 60.870003 62.42799 C 62.248 63.28199 58.385 63.71199 58.99 61.49999 C 57.867 59.49199 56.674004 57.31999 58.092003 55.85899 C 58.058 55.86799 58.095 52.68399 58.095 52.68399 C 60.887 52.40599 60.218 49.75099 63.351 50.84499 C 63.661003 52.28499 65.234 52.83099 65.234 52.83099 C 65.234 52.83099 67.61801 51.736988 67.693 51.54099 C 67.544 51.19299 66.105 51.53299 66.074 50.12899 C 66.185 50.75699 66.241 51.52699 65.760994 51.54899 C 65.45599 50.88099 65.15399 50.71399 63.26699 48.36099 C 63.661995 50.37199 64.73799 49.092987 63.987995 51.015987 C 62.799995 47.955982 60.833996 50.02699 60.528996 50.411987 C 60.07299 52.750988 59.085995 50.086987 58.772995 49.88799 C 58.818996 48.70699 60.289993 48.14299 60.439995 47.584988 C 60.346996 45.509987 58.953995 46.237988 58.819996 45.868988 C 58.450996 44.86699 59.591995 45.35399 59.462997 42.86099 C 60.094997 42.245987 60.560997 42.30899 60.754997 43.00699 C 60.915997 43.59699 61.483997 43.21499 61.572 45.01399 C 61.765 44.85099 62.666 44.57699 64.050995 44.53499 C 65.534996 42.259987 66.83499 41.83399 66.239 40.814987 C 66.115 41.141987 64.638 42.758987 65.224 39.933987 C 64.038 40.956985 64.282 40.76399 64.313995 41.473988 C 65.035 41.53 64.26 42.978 63.854 43.733 z M 71.891 67.076 C 70.571 68.565994 71.063 70.252 70.655 69.322 C 70.251 68.39 70.799 72.306 71.007 72.318 C 72.232 71.056 71.37299 70.702 72.03 70.24 C 71.732 68.113 72.721 71.449 71.891 67.076 z M 95.042 76.186 C 94.855 76.51 95.343 77.63699 95.343 77.63699 C 95.343 77.63699 96.237 75.89299 96.537 74.913994 C 98.281006 74.884 96.773 73.27899 95.962006 72.83499 C 96.154 74.248 95.854 74.768 95.042 76.186 z M 85.241 55.599 C 84.91 55.382 84.051994 56.684 85.04 58.046997 C 84.784004 58.541996 84.745 58.392 85.549 59.067 C 85.684006 60.221996 86.374 60.400997 86.666 60.102997 C 86.893 59.824997 85.917 58.302 85.941 57.348995 C 85.229 57.447 85.566 55.816 85.241 55.599 z M 46.668 56.397 C 46.426 56.768 47.15 56.669 47.078 56.411 C 47.05 56.305 46.74 56.285 46.668 56.397 z M 46.446 56.726 C 45.9 56.34 46.006 58.06 46.351997 57.724003 C 46.46 57.618004 46.546997 58.922005 46.692997 58.898003 C 46.838997 58.873 46.833996 58.399 46.878 58.276 C 47.131 58.411 47.285 57.318 46.446 56.726 z M 47.524 57.699 C 47.597 58.548 47.273 58.928 47.469 58.99 C 47.664 59.056004 48.103996 59.122 48.115997 58.473003 C 48.615997 58.450005 48.632996 58.244003 48.65 58.223003 C 48.659996 58.210003 48.741997 58.921005 49.033997 58.765003 C 49.376995 57.528004 48.615997 58.470005 48.389996 57.704 C 48.14 57.755 47.56 57.518 47.524 57.699 z M 49.979 58.437 C 49.259 58.341 50.21 59.977 50.465 58.942 C 50.151 58.821 49.974 59.033 49.979 58.437 z M 43.075 64.67 C 43.286 63.904 44.224 65.584 43.136 65.548996 C 42.912 65.313 42.589 64.559 43.075 64.67 z M 31.277 59.017 C 31.214 58.905 30.204 56.630997 30.092 57.67 C 29.989 58.664997 30.078 58.372997 30.744 59.213997 L 31.277 59.017 z M 57.218 40.054 C 57.046 40.297 56.68 40.519 56.386 40.502003 C 56.093 40.486004 56.177 41.912003 57.31 41.278004 C 58.306 40.72 57.391 39.812 57.218 40.054 z M 76.133 63.087 C 76.133 63.087 75.352005 64.413 76.01601 64.524 C 76.999 64.576 76.133 63.087 76.133 63.087 z M 76.273 65.141 C 76.421005 65.63 77.804 66.292 77.62 65.68 C 77.48 65.209 76.132 64.667 76.273 65.141 z M 76.363 60.066 L 76.254 61.652 L 76.809 61.773 L 76.363 60.066 z "/>
    <path fill="none" d="M 41.044 32.042 C 41.044 32.042 64.346 21.43 76.176 35.599 C 85.287994 46.521 84.19699 63.65 98.88699 68.517 " stroke-width="0.3671" stroke="#ffffff"/>
    <path fill="none" d="M 36.957 33.544 C 36.957 33.544 60.263 22.933998 72.092 37.108 C 81.98499 48.956997 79.852 68.121 98.918 70.988 " stroke-width="0.3671" stroke="#ffffff"/>
    <path fill="none" d="M 32.87 35.05 C 32.87 35.05 56.18 24.438 68.008 38.611 C 78.52899 51.222 75.44399 72.111 98.77 72.838 " stroke-width="0.3671" stroke="#ffffff"/>
    <path fill="none" d="M 28.787 36.557 C 28.787 36.557 52.091003 25.946 63.921997 40.118 C 75.01199 53.404 70.993 75.879 98.668 74.286 " stroke-width="0.3671" stroke="#ffffff"/>
    <path fill="none" d="M 45.734 56.435 C 45.734 56.435 56.152 78.992004 70.192 67.785 C 80.716 59.380005 87.586 39.911003 98.755005 39.632004 " stroke-width="0.4444" stroke="#ffffff"/>
    <path fill="none" d="M 43.752 52.896 C 43.752 52.896 54.169 75.447 68.207 64.238 C 79.346 55.345 86.387 34.054 98.777 36.241997 " stroke-width="0.4444" stroke="#ffffff"/>
    <path fill="none" d="M 41.771 49.354 C 41.771 49.354 52.185 71.908005 66.221 60.697 C 77.901 51.374 85.077 28.421995 98.632 33.186996 " stroke-width="0.4444" stroke="#ffffff"/>
    <path fill="none" d="M 39.784 45.812 C 39.784 45.812 50.199 68.368 64.236 57.158 C 76.462 47.397003 83.75 22.705002 98.589005 30.495 " stroke-width="0.4444" stroke="#ffffff"/>
    <radialGradient gradientTransform="matrix(0.7142 -0.1476 0.0768 0.3717 163.44 -1083.7588)" gradientUnits="userSpaceOnUse" xlink:type="simple" r="8.4067" xlink:actuate="onLoad" cx="-463.1748" id="XMLID_10_" cy="2976.0547" xlink:show="other">
        <stop stop-color="#800000" offset="0"/>
        <stop stop-color="#8e6f3a" offset="1"/>
    </radialGradient>
    <path fill="url(#XMLID_10_)" d="M 67.206 89.563 C 67.56201 91.292 65.16 93.246 61.848 93.93 C 58.535 94.61801 55.551 93.774 55.197 92.047 C 54.841 90.318 57.24 88.365 60.557 87.682 C 63.871 86.994 66.85 87.835 67.206 89.563 z " fill-opacity="0.99"/>
    <radialGradient gradientTransform="matrix(0.5056 -0.1045 0.0438 0.2118 123.1017 -955.9637)" gradientUnits="userSpaceOnUse" xlink:type="simple" r="8.4006" xlink:actuate="onLoad" cx="-560.9473" id="XMLID_11_" cy="4652.5615" xlink:show="other">
        <stop stop-color="#800000" offset="0"/>
        <stop stop-color="#8e6f3a" offset="1"/>
    </radialGradient>
    <path fill="url(#XMLID_11_)" d="M 47.519 87.186 C 47.721 88.168 45.982 89.36 43.635 89.846 C 41.289 90.33 39.219 89.926 39.017 88.944 C 38.815 87.964 40.551003 86.77 42.9 86.291 C 45.249 85.798 47.315 86.201 47.519 87.186 z " fill-opacity="0.99"/>
    <radialGradient gradientTransform="matrix(0.6652 -0.1375 0.0518 0.2505 177.62 -989.1763)" gradientUnits="userSpaceOnUse" xlink:type="simple" r="8.4065" xlink:actuate="onLoad" cx="-521.2607" id="XMLID_12_" cy="3982.4639" xlink:show="other">
        <stop stop-color="#800000" offset="0"/>
        <stop stop-color="#8e6f3a" offset="1"/>
    </radialGradient>
    <path fill="url(#XMLID_12_)" d="M 42.761 78.947 C 43.001003 80.109 40.692 81.568 37.605003 82.21 C 34.513004 82.85 31.816004 82.424 31.576004 81.26 C 31.334003 80.098 33.645004 78.637 36.73301 77.999 C 39.821 77.359 42.52 77.784 42.761 78.947 z " fill-opacity="0.99"/>
    <path fill="none" d="M 73.424 80.4 C 73.424 80.4 70.207 94.814 56.321003 90.504 C 46.092003 87.334 36.258003 77.539 27.316004 78.626 " stroke-width="0.3836" stroke="#ffffff"/>
    <path fill="none" d="M 74.208 78.088 C 74.208 78.088 70.99 92.496994 57.109 88.192 C 46.582 84.93 36.471 74.65 27.322 76.438 " stroke-width="0.3836" stroke="#ffffff"/>
    <path fill="none" d="M 74.993 75.768 C 74.993 75.768 71.77699 90.184 57.893997 85.873 C 47.207996 82.56 36.955 72.023 27.696997 74.209 C 27.525995 74.25 27.353996 74.296 27.182997 74.344 " stroke-width="0.3836" stroke="#ffffff"/>
    <path fill="#5c1001" d="M 64.052 85.227 L 63.827003 85.348 C 63.831005 85.344 63.834003 85.336 63.838005 85.331 C 63.834003 85.336 63.83001 85.344 63.826004 85.348 L 63.56601 85.139 C 64.552 83.557 65.170006 81.701 62.47601 80.463 L 62.127007 85.807 L 62.074005 85.885 C 62.028004 86.034004 61.967007 86.186005 61.869003 86.339005 C 61.321003 87.193 60.138004 87.731 59.224003 87.535 C 58.316 87.341 58.023003 86.486 58.569004 85.635 C 59.118004 84.781006 60.299004 84.245 61.211 84.442 C 61.274 84.457 61.327003 84.47901 61.386 84.5 L 61.886 76.905 L 62.222 76.798 C 62.347 76.78999 62.576 76.821 62.705 76.92 L 62.688004 77.171 C 62.649 79.355 64.895004 79.722 65.221 81.959 C 65.328 82.811 64.813 84.229 64.052 85.227 z M 47.026 81.568 C 47.049 79.461 45.031 78.796 45.382 76.787 L 45.433 76.55801 C 45.324997 76.45401 45.119 76.38801 45.001 76.37701 L 44.677 76.42901 L 43.122 83.34101 C 43.088997 83.32401 43.060997 83.30601 43.025997 83.29101 C 42.212997 82.97901 41.046997 83.30201 40.417995 84.01301 C 39.78799 84.72201 39.934994 85.547005 40.747997 85.85901 C 41.56 86.17201 42.724 85.84701 43.354996 85.13801 C 43.644997 84.81201 43.761997 84.462006 43.73299 84.14801 L 44.707993 79.79601 C 47.01799 81.321014 46.177994 82.944016 45.040993 84.26701 L 45.248993 84.49301 C 45.248993 84.49301 45.248993 84.49401 45.247993 84.49401 L 45.248993 84.49301 L 45.248993 84.49401 C 45.248993 84.49401 45.248993 84.49301 45.249992 84.49301 L 45.471992 84.41401 C 46.32 83.604 46.999 82.37 47.026 81.568 z M 40.973 69.453 C 39.915 67.034004 37.273 67.31201 36.646 64.839005 L 36.587 64.55501 C 36.410004 64.489006 36.142 64.52201 36.006 64.573006 L 35.66 64.795006 L 37.432 73.47401 C 37.385 73.47201 37.342 73.462006 37.293 73.46501 C 36.21 73.52801 35.043 74.489006 34.691 75.622 C 34.334 76.754 34.928 77.623 36.011997 77.560005 C 37.096996 77.50101 38.261 76.537 38.615997 75.40401 C 38.778996 74.883 38.733997 74.42501 38.539997 74.08201 L 37.42 68.62201 C 40.837 69.18201 40.709 71.46001 40.091 73.546005 L 40.441 73.69501 C 40.441 73.69701 40.441 73.69701 40.441 73.69701 L 40.442 73.69501 L 40.444996 73.69701 C 40.445995 73.69501 40.445995 73.69301 40.446995 73.69101 L 40.657993 73.49301 C 41.209 72.131 41.352 70.379 40.973 69.453 z "/>
    <rect width="120" fill="none" height="120"/>
</svg>
