<?xml version="1.0" encoding="UTF-8"?>
<svg xmlns="http://www.w3.org/2000/svg" xmlns:xlink="http://www.w3.org/1999/xlink" contentScriptType="text/ecmascript" width="100" baseProfile="tiny" zoomAndPan="magnify" contentStyleType="text/css" viewBox="0 0 100 69.047" height="69.047" preserveAspectRatio="xMidYMid meet" version="1.1">
    <g>
        <g>
            <path fill="#ffffff" d="M 84.105 56.133 L 83.73801 44.753998 L 83.52501 44.686996 C 83.52501 44.686996 78.59101 44.255997 78.02901 44.207996 C 78.021 43.660995 77.964005 39.951996 77.964005 39.945995 C 77.964005 39.813995 77.942 38.595997 77.108 37.293995 C 76.237 35.930996 74.659004 34.044994 71.042 33.418995 C 68.483 32.972996 66.209 33.868996 64.981 34.499996 C 65.00201 33.495995 65.125 27.593996 65.125 27.580996 C 65.125 25.295996 62.87 23.775995 60.735 23.500996 C 60.735 23.500996 60.102 23.393995 59.753002 23.333996 C 59.765003 22.765995 59.958004 13.426996 59.958004 13.413996 C 59.958004 11.128996 57.703003 9.608995 55.567005 9.333996 L 19.438 3.197 C 18.123 3.072 16.864 3.709 15.565 5.142 C 15.151 5.48 14.905999 5.959 14.905999 6.4610004 C 14.905999 6.4730005 14.905999 6.484 14.905999 6.4960003 L 16.407999 31.86 C 16.442999 33.115 17.905998 34.544 19.536999 34.908 C 19.536999 34.908 20.574 35.156002 20.935999 35.242 C 20.964998 35.735 21.574999 46.026 21.574999 46.026 C 21.609999 47.281002 23.072998 48.711002 24.703999 49.074 C 24.703999 49.074 56.419 56.649002 56.836 56.75 C 57.288 59.406 59.831997 62.125 62.134 62.326 L 74.358 63.393 C 75.089005 63.456 75.86 63.29 76.583 62.912003 L 81.296 60.977 C 84.336 59.165 84.129 56.37 84.105 56.133 z M 73.87 43.843 C 73.204 43.782997 66.158005 43.168 65.596 43.119 C 65.589 42.568 65.546 38.809998 65.546 38.809998 C 65.559 38.822998 66.111 36.664997 68.863 36.78 C 72.113 36.924 73.337 39.008 73.634 39.641 C 73.69701 39.774 73.878006 40.388 73.878006 43.007 C 73.877 43.26 73.874 43.555 73.87 43.843 z "/>
        </g>
        <g>
            <g>
                <linearGradient x1="15.2817" y1="23.7988" x2="56.5518" gradientUnits="userSpaceOnUse" y2="23.7988" xlink:type="simple" xlink:actuate="onLoad" id="XMLID_6_" xlink:show="other">
                    <stop stop-color="#cd9f3d" offset="0"/>
                    <stop stop-color="#ad832f" offset="1"/>
                </linearGradient>
                <path fill="url(#XMLID_6_)" d="M 56.079 41.2 C 56.105 42.315002 55.003 43.016 53.529 42.688 L 19.639 34.593 C 18.166 34.265 16.815 32.983997 16.784 31.866 L 15.282001 6.515999 C 15.257001 5.404999 16.755001 4.572999 18.225 4.900999 L 53.835 11.164999 C 55.307 11.492999 56.523 12.850999 56.552 13.961999 L 56.079 41.2 z "/>
                <path fill="#3e2a08" d="M 15.633 5.645 C 16.699001 4.397 17.973 3.4359999 19.404 3.571 L 55.545 9.71 C 57.656 9.981 59.651997 11.458 59.628998 13.476 L 59.078 39.998 C 58.974 42.315002 55.549 43.037003 53.896 42.776 C 53.896 42.776 56.086 43.086002 56.056 41.037003 L 56.537 14.064003 C 56.508 12.736003 55.349 11.472003 53.66 11.154003 L 18.055 4.871 C 16.317 4.695 15.633 5.645 15.633 5.645 z "/>
            </g>
            <linearGradient x1="15.832" y1="15.8647" x2="56.2451" gradientUnits="userSpaceOnUse" y2="15.8647" xlink:type="simple" xlink:actuate="onLoad" id="XMLID_7_" xlink:show="other">
                <stop stop-color="#b0381e" offset="0"/>
                <stop stop-color="#5c1001" offset="1"/>
            </linearGradient>
            <polygon fill="url(#XMLID_7_)" points="15.832,9.644 16.04,14.607 56.02,22.085 56.245,16.754   "/>
        </g>
        <g>
            <g>
                <path fill="#e0bc6c" d="M 61.246 55.368 C 61.273 56.482 60.17 57.183 58.697 56.855 L 24.806 48.76 C 23.333 48.432 21.982 47.150997 21.951 46.032997 L 20.449 20.679996 C 20.424 19.568996 21.921999 18.736996 23.392 19.064997 L 59.001 25.328997 C 60.473 25.656996 61.689 27.014997 61.718 28.125996 L 61.246 55.368 z "/>
                <path fill="#3e2a08" d="M 20.8 19.812 C 21.866 18.564001 23.14 17.603 24.571 17.738 L 60.711998 23.877 C 62.822998 24.148 64.818 25.625 64.796 27.643002 L 64.244995 54.164 C 64.141 56.482002 60.715996 57.203003 59.061996 56.943 C 59.061996 56.943 61.253 57.252 61.221996 55.203 L 61.703995 28.230999 C 61.674995 26.903 60.514996 25.639 58.826996 25.321 L 23.219997 19.037998 C 21.484 18.862 20.8 19.812 20.8 19.812 z "/>
            </g>
            <linearGradient x1="20.999" y1="30.5" x2="61.4121" gradientUnits="userSpaceOnUse" y2="30.5" xlink:type="simple" xlink:actuate="onLoad" id="XMLID_8_" xlink:show="other">
                <stop stop-color="#b0381e" offset="0"/>
                <stop stop-color="#5c1001" offset="1"/>
            </linearGradient>
            <polygon fill="url(#XMLID_8_)" points="20.999,23.811 21.207,28.774 61.186,37.189 61.412,31.858   "/>
            <linearGradient x1="54.4863" y1="41.7827" x2="59.8369" gradientUnits="userSpaceOnUse" y2="41.7827" xlink:type="simple" xlink:actuate="onLoad" id="XMLID_9_" xlink:show="other">
                <stop stop-color="#b0381e" offset="0"/>
                <stop stop-color="#5c1001" offset="1"/>
            </linearGradient>
            <polygon fill="url(#XMLID_9_)" points="54.486,45.179 59.837,42.397 54.605,38.386   "/>
        </g>
        <g>
            <polygon fill="#eacf5a" points="56.758,45.136 61.52,43.142 83.52,45.063 78.758,47.062   "/>
            <path fill="#3e2a08" d="M 69.191 54.083 C 69.191 54.083 70.075005 53.741 70.39 52.255 C 70.593 51.796 70.506996 48.774002 67.534996 48.514 C 66.42799 48.415 65.19299 49.628 65.19299 51.112 C 65.19299 52.825 66.589 53.825 66.589 53.825 L 66.755 58.309002 L 69.32 58.535004 L 69.191 54.083 z "/>
            <path fill="#3e2a08" d="M 83.422 45.077 L 78.732994 47.067 L 79.088 58.075 C 79.088 58.075 79.42 60.905 76.42799 62.641 L 81.187996 60.682 C 84.09 58.946 83.783 56.18 83.783 56.18 L 83.422 45.077 z "/>
            <path fill="#3e2a08" d="M 64.906 43.815 C 66.126 44.031998 66.517 44.503998 65.772995 44.876 C 65.02899 45.249 63.438995 45.368 62.209995 45.149 C 60.986996 44.932 60.598995 44.461 61.341995 44.089996 C 62.086 43.724 63.682 43.601 64.906 43.815 z "/>
            <path fill="#cd9f3d" d="M 56.758 45.136 L 78.757996 47.062 C 78.771996 47.474 79.031 55.284 79.118996 58.025 C 79.20899 60.761 76.856995 63.29 74.411995 63.074 L 62.188995 62.007 C 59.897995 61.808 57.209995 58.841 57.119995 56.100998 C 57.031 53.354 56.771 45.545 56.758 45.136 z M 69.17 54.097 C 69.952995 53.674 70.465 52.765 70.432 51.668 C 70.377 50.064 69.172 48.662 67.741 48.538998 C 66.312996 48.412 65.194 49.604996 65.249 51.212997 C 65.283 52.276997 65.825 53.253998 66.603 53.819996 L 66.753 58.305996 L 69.319 58.530994 L 69.17 54.097 "/>
            <path fill="#3e2a08" d="M 77.318 44.881 C 78.546 45.119 78.937004 45.605 78.200005 45.97 C 77.46001 46.34 75.87 46.445 74.646 46.211002 C 73.421005 45.978 73.023 45.492 73.763 45.125004 C 74.502 44.761 76.092 44.651 77.318 44.881 z "/>
            <path fill="#3e2a08" d="M 64.805 43.815 C 66.028 44.031998 66.416 44.503998 65.673 44.876 C 64.92999 45.248 63.333996 45.368 62.110996 45.149 C 60.889996 44.934 60.498997 44.461 61.241997 44.092 C 61.982 43.724 63.581 43.601 64.805 43.815 z "/>
            <linearGradient x1="-29.1216" gradientTransform="matrix(1.1905 0 0 -1.1905 92.2098 -657.0497)" y1="-585.2339" x2="-19.1852" gradientUnits="userSpaceOnUse" y2="-585.2339" xlink:type="simple" xlink:actuate="onLoad" id="XMLID_10_" xlink:show="other">
                <stop stop-color="#f1de84" offset="0"/>
                <stop stop-color="#8e6f3a" offset="1"/>
            </linearGradient>
            <path fill="url(#XMLID_10_)" d="M 65.279 44.116 C 64.939 44.376 64.816 44.448 63.823997 44.528 C 62.325996 44.645 61.801 44.225 61.801 44.225 L 61.809 39.601997 C 61.69 37.892998 62.801 36.371998 63.952 35.552998 C 65.457 34.482998 68.225 33.304996 71.006 33.790997 C 74.634995 34.417995 76.101 36.353996 76.838 37.507996 C 77.658 38.790997 77.642 39.986996 77.642 39.986996 L 77.722 45.222996 C 77.722 45.222996 77.287 45.597996 76.267 45.648994 C 74.367 45.743996 74.216995 45.325993 74.216995 45.325993 C 74.216995 45.325993 74.395996 40.409992 73.978 39.519993 C 73.604996 38.722992 72.267 36.60599 68.908 36.456993 C 65.796 36.32799 65.21999 38.872993 65.21999 38.872993 C 65.232 38.381 65.279 44.116 65.279 44.116 z "/>
            <path fill="#3e2a08" d="M 63.825 44.526 C 63.825 44.526 63.715 39.778 63.9 39.237 C 64.738 36.781998 67.64 36.534 67.64 36.534 C 65.713 37.132 65.443 38.321 65.326 38.817 C 65.174995 39.448 65.284996 44.120003 65.284996 44.120003 C 64.801 44.526 64.439 44.526 63.825 44.526 z "/>
            <rect width="100" fill="none" height="69.047"/>
            <path fill="#ffffff" d="M 15.783 40.685 C 12.355 40.685 7.66 41.498 6.469 48.534 L 6.291 49.597 C 6.291 49.597 14.191 49.597 15.127001 49.597 C 15.410001 50.105 15.834001 50.867 16.102001 51.357 C 15.831001 51.838997 15.411001 52.602997 15.127001 53.111 C 14.191001 53.111 6.2910004 53.111 6.2910004 53.111 L 6.4690003 54.174 C 7.6600003 61.205 12.356001 62.021 15.783001 62.021 C 18.486 62.021 20.894001 59.754 22.831001 57.929 C 23.877 56.945 24.863 56.017002 25.386002 56.017002 L 49.573 56.017002 L 49.843002 55.717003 C 50.364002 55.148003 51.572002 53.586002 51.600002 51.396004 L 51.600002 51.318005 C 51.577003 49.126003 50.370003 47.566006 49.843002 46.995003 L 49.573 46.697002 L 25.385 46.697002 C 24.864 46.697002 23.874 45.771004 22.83 44.79 C 20.895 42.956 18.484 40.685 15.783 40.685 z "/>
            <path fill="#6e8489" d="M 50.688 51.349 C 50.688 51.337997 50.692 51.328 50.692 51.323997 L 50.686 51.323997 C 50.664 49.416996 49.569 48.041996 49.172 47.600998 C 48.657 47.600998 25.386002 47.600998 25.386002 47.600998 C 24.500002 47.600998 23.539001 46.692997 22.205002 45.440998 C 20.389002 43.73 18.126001 41.596996 15.781002 41.596996 C 11.980001 41.596996 8.375002 42.712997 7.3690023 48.686996 C 8.799003 48.686996 15.663002 48.686996 15.663002 48.686996 L 17.137001 51.348995 L 15.663001 54.012997 C 15.663001 54.012997 8.799002 54.012997 7.3690014 54.012997 C 8.379002 59.985996 11.980001 61.098995 15.781001 61.098995 C 18.127 61.098995 20.386002 58.969994 22.205002 57.255997 C 23.539001 55.997997 24.500002 55.098995 25.386002 55.098995 C 25.386002 55.098995 48.660004 55.098995 49.172 55.098995 C 49.571 54.660995 50.664 53.283997 50.686 51.374996 L 50.692 51.374996 C 50.691 51.366 50.688 51.36 50.688 51.349 z "/>
        </g>
    </g>
</svg>
