<?xml version="1.0" encoding="UTF-8"?>
<svg xmlns="http://www.w3.org/2000/svg" xmlns:xlink="http://www.w3.org/1999/xlink" contentScriptType="text/ecmascript" width="45" baseProfile="tiny" zoomAndPan="magnify" contentStyleType="text/css" viewBox="0 0 45 42" height="42" preserveAspectRatio="xMidYMid meet" version="1.1">
    <rect width="45" fill="none" height="42"/>
    <path fill="#8b0000" d="M 34.951 38.12 L 29.896 33.818 L 31.179 32.297 C 32.056 31.257 39.502 21.906002 31.289 13.692001 L 29.875002 12.279001 L 34.572 7.578001 L 35.985 8.993001 C 48.68 21.691002 36.371 36.453 36.244 36.599003 L 34.951 38.12 L 34.951 38.12 z "/>
    <path fill="#8b0000" d="M 30.762 14.545 L 29.348 13.133 L 25.827 16.654 L 25.827 8.411 L 15.846 8.411 L 11.606 15.035 L 4.93 15.035 L 4.93 30.855 L 11.604 30.855 L 15.844 37.48 L 25.825 37.48 L 25.825 29.279 L 29.679 32.565998 L 30.978 31.044998 C 33.574 28.005 36.863 20.643 30.762 14.545 z M 19.18 30.335 L 15.259001 24.207 L 11.577001 24.207 L 11.577001 21.686 L 15.259001 21.686 L 19.18 15.557999 L 19.18 30.335 z M 25.918 26.742 L 25.824 26.851 L 25.824 19.006 L 26.06 19.242 C 29.324 22.505 26.277 26.318 25.918 26.742 z "/>
    <path fill="#f5f5dc" d="M 27.477 17.83 C 32.098 22.452 27.634 27.809 27.446 28.033 L 29.46 29.747002 C 31.641998 27.193 34.417 21.022 29.351 15.959002 L 27.477 17.83 z "/>
    <path fill="#f5f5dc" d="M 34.576 10.406 L 32.703 12.277 C 42.366997 21.94 33.107 33.114998 32.709 33.586 L 34.727 35.303 C 34.838 35.17 45.975 21.811 34.576 10.406 z "/>
    <path fill="#f5f5dc" d="M 16.937 10.411 L 12.695 17.036 L 6.931 17.036 L 6.931 28.855 L 12.695 28.855 L 16.937 35.48 L 23.824 35.48 L 23.824 10.411 L 16.937 10.411 z M 21.179 32.834 L 18.403 32.834 L 14.166 26.208 L 9.578 26.208 L 9.578 19.684 L 14.166 19.684 L 18.403 13.059 L 21.179 13.059 L 21.179 32.834 z "/>
</svg>
