<?xml version="1.0" encoding="UTF-8"?>
<svg xmlns="http://www.w3.org/2000/svg" xmlns:xlink="http://www.w3.org/1999/xlink" contentScriptType="text/ecmascript" width="20" baseProfile="tiny" zoomAndPan="magnify" contentStyleType="text/css" viewBox="0 0 20 20" height="20" preserveAspectRatio="xMidYMid meet" version="1.0">
    <path fill="#840000" d="M 9.107 6.002 L 9.107 8.553 C 9.23 8.544 9.453 8.539 9.773 8.539 C 10.794 8.539 11.58 8.809999 12.128 9.349999 C 12.675 9.891 12.948 10.676999 12.948 11.709 C 12.948 12.881 12.649 13.754 12.052 14.323999 C 11.455 14.893999 10.538 15.178999 9.306 15.178999 C 8.605 15.178999 7.853 15.074999 7.05 14.869999 L 7.05 13.66 L 7.064 13.66 C 7.914 13.885 8.566 13.998 9.025 13.998 C 9.711 13.998 10.217999 13.82 10.546 13.465 C 10.874 13.110001 11.037999 12.547 11.037999 11.777 C 11.037999 11.099001 10.855999 10.589001 10.494999 10.247001 C 10.133 9.906 9.59 9.735 8.867 9.735 C 8.367 9.735 7.865 9.757 7.361 9.803 L 7.361 4.82 L 12.653999 4.82 L 12.653999 6.0020003 L 9.107 6.0020003 z "/>
</svg>
