<?xml version="1.0" encoding="UTF-8"?>
<svg xmlns="http://www.w3.org/2000/svg" xmlns:xlink="http://www.w3.org/1999/xlink" contentScriptType="text/ecmascript" width="26" baseProfile="tiny" zoomAndPan="magnify" contentStyleType="text/css" viewBox="0 0 26 26" height="26" preserveAspectRatio="xMidYMid meet" version="1.1">
    <g>
        <rect width="26" fill="none" height="26"/>
        <path fill="#eacf5a" d="M 11.05 18.705 L 18.406 12.98 L 11.05 7.277 L 11.05 18.705 z M 3.31 18.705 L 10.664 12.98 L 3.31 7.277 L 3.31 18.705 z M 19.02 7.298 L 19.02 18.723 L 22.692 18.723 L 22.692 7.298 L 19.02 7.298 z " fill-opacity="0.3"/>
        <path fill="#5c1001" d="M 18.203 6.481 L 18.203 11.789 L 10.233999 5.6089997 L 10.233999 11.611 L 2.492 5.609 L 2.492 20.376 L 10.233 14.351999 L 10.233 20.376 L 18.202 14.172999 L 18.202 19.537998 L 23.509 19.537998 L 23.509 6.481 L 18.203 6.481 z M 3.31 18.705 L 3.31 7.277 L 10.664 12.979 L 3.31 18.705 z M 11.05 18.705 L 11.05 7.277 L 18.406 12.979 L 11.05 18.705 z M 22.691 18.723 L 19.02 18.723 L 19.02 7.298 L 22.692 7.298 L 22.692 18.723 z " fill-opacity="0.3"/>
    </g>
</svg>
