<?xml version="1.0" encoding="UTF-8"?>
<svg xmlns="http://www.w3.org/2000/svg" xmlns:xlink="http://www.w3.org/1999/xlink" contentScriptType="text/ecmascript" width="44" baseProfile="tiny" zoomAndPan="magnify" contentStyleType="text/css" viewBox="0 0 44 44" height="44" preserveAspectRatio="xMidYMid meet" version="1.1">
    <linearGradient x1="28.8955" y1="5.1416" x2="28.8955" gradientUnits="userSpaceOnUse" y2="33.4385" xlink:type="simple" xlink:actuate="onLoad" id="XMLID_11_" xlink:show="other">
        <stop stop-color="#ffffcf" offset="0"/>
        <stop stop-color="#f0de80" offset="0.11"/>
        <stop stop-color="#c26e54" offset="0.35"/>
        <stop stop-color="#b0361a" offset="0.48"/>
        <stop stop-color="#ad2621" offset="0.6629"/>
        <stop stop-color="#9c0a00" offset="0.75"/>
        <stop stop-color="#991712" offset="0.82"/>
        <stop stop-color="#8a0000" offset="0.91"/>
        <stop stop-color="#730303" offset="0.99"/>
        <stop stop-color="#730303" offset="1"/>
    </linearGradient>
    <path fill="url(#XMLID_11_)" d="M 28.417 15.255 L 26.596 17.077 C 28.329 18.81 28.745 20.647 28.596 22.265 L 30.774 24.446999 C 31.589 21.68 31.432 18.269 28.417 15.255 z "/>
    <linearGradient x1="35.0918" y1="5.1416" x2="35.0918" gradientUnits="userSpaceOnUse" y2="33.4385" xlink:type="simple" xlink:actuate="onLoad" id="XMLID_12_" xlink:show="other">
        <stop stop-color="#ffffcf" offset="0"/>
        <stop stop-color="#f0de80" offset="0.11"/>
        <stop stop-color="#c26e54" offset="0.35"/>
        <stop stop-color="#b0361a" offset="0.48"/>
        <stop stop-color="#ad2621" offset="0.6629"/>
        <stop stop-color="#9c0a00" offset="0.75"/>
        <stop stop-color="#991712" offset="0.82"/>
        <stop stop-color="#8a0000" offset="0.91"/>
        <stop stop-color="#730303" offset="0.99"/>
        <stop stop-color="#730303" offset="1"/>
    </linearGradient>
    <path fill="url(#XMLID_12_)" d="M 33.505 9.851 L 31.684002 11.673 C 37.524002 17.514 36.262 23.921001 34.372 28.050001 L 36.264 29.942001 C 38.634 25.188 40.766 17.112 33.505 9.851 z "/>
    <linearGradient x1="18.9331" y1="4.9048" x2="19.2456" gradientUnits="userSpaceOnUse" y2="34.5298" xlink:type="simple" xlink:actuate="onLoad" id="XMLID_13_" xlink:show="other">
        <stop stop-color="#ffffcf" offset="0"/>
        <stop stop-color="#f0de80" offset="0.11"/>
        <stop stop-color="#c26e54" offset="0.35"/>
        <stop stop-color="#b0361a" offset="0.48"/>
        <stop stop-color="#ad2621" offset="0.6629"/>
        <stop stop-color="#9c0a00" offset="0.75"/>
        <stop stop-color="#991712" offset="0.82"/>
        <stop stop-color="#8a0000" offset="0.91"/>
        <stop stop-color="#730303" offset="0.99"/>
        <stop stop-color="#730303" offset="1"/>
    </linearGradient>
    <polygon fill="url(#XMLID_13_)" points="19.722,11.67 19.722,13.381 21.943,15.605 21.943,9.724 16.024,9.679 17.999,11.656 "/>
    <linearGradient x1="13.48" y1="4.9624" x2="13.7925" gradientUnits="userSpaceOnUse" y2="34.5874" xlink:type="simple" xlink:actuate="onLoad" id="XMLID_14_" xlink:show="other">
        <stop stop-color="#ffffcf" offset="0"/>
        <stop stop-color="#f0de80" offset="0.11"/>
        <stop stop-color="#c26e54" offset="0.35"/>
        <stop stop-color="#b0361a" offset="0.48"/>
        <stop stop-color="#ad2621" offset="0.6629"/>
        <stop stop-color="#9c0a00" offset="0.75"/>
        <stop stop-color="#991712" offset="0.82"/>
        <stop stop-color="#8a0000" offset="0.91"/>
        <stop stop-color="#730303" offset="0.99"/>
        <stop stop-color="#730303" offset="1"/>
    </linearGradient>
    <polygon fill="url(#XMLID_14_)" points="19.722,32.371 16.439,32.371 12.073,25.104 7.722,25.104 7.722,18.688 11.929,18.688   12.094,18.421 9.981,16.306 5.5,16.306 5.5,27.497 10.714,27.497 14.821,34.331 21.943,34.331 21.943,28.281 19.722,26.059 "/>
    <polygon fill="#800000" points="5.699,8.481 8.496,5.679 38.3,35.521 35.503,38.32 "/>
</svg>
