<?xml version="1.0" encoding="UTF-8"?>
<svg xmlns="http://www.w3.org/2000/svg" xmlns:xlink="http://www.w3.org/1999/xlink" contentScriptType="text/ecmascript" width="44" baseProfile="tiny" zoomAndPan="magnify" contentStyleType="text/css" viewBox="0 0 44 44" height="44" preserveAspectRatio="xMidYMid meet" version="1.1">
    <rect width="44" fill="none" height="44"/>
    <linearGradient x1="20.1812" y1="1.7188" x2="20.5142" gradientUnits="userSpaceOnUse" y2="39.0132" xlink:type="simple" xlink:actuate="onLoad" id="XMLID_19_" xlink:show="other">
        <stop stop-color="#ffffcf" offset="0"/>
        <stop stop-color="#f0de80" offset="0.11"/>
        <stop stop-color="#c26e54" offset="0.35"/>
        <stop stop-color="#b0361a" offset="0.48"/>
        <stop stop-color="#ad2621" offset="0.6629"/>
        <stop stop-color="#9c0a00" offset="0.75"/>
        <stop stop-color="#991712" offset="0.82"/>
        <stop stop-color="#8a0000" offset="0.91"/>
        <stop stop-color="#730303" offset="0.99"/>
        <stop stop-color="#730303" offset="1"/>
    </linearGradient>
    <path fill="url(#XMLID_19_)" d="M 16.184 21.841 C 14.442 23.145 12.97 25.249 14.166 27.463 C 14.691 28.443 15.52 28.858 16.414 29.057 C 16.931 27.007 18.096 24.438 20.592 21.768 C 20.405 21.675 20.199 21.584 19.957998 21.502 C 19.267 21.268 16.862 21.33 16.184 21.841 z M 20.61 5.979 C 12.619 5.979 6.111001 12.488 6.111001 20.479 C 6.111001 26.969 10.402 32.479 16.294 34.322 C 16.122 33.611 16.026001 32.831997 16.026001 32.021 C 16.026001 31.968 16.029001 31.906 16.029001 31.849 C 11.530001 30.030998 8.344002 25.62 8.344002 20.475998 C 8.344002 18.607998 8.776002 16.844995 9.522001 15.260998 C 11.885001 14.682998 16.984 12.529998 18.564 11.106998 C 19.877 9.924998 19.376 8.853998 18.916 8.340999 C 19.471 8.264998 20.031 8.209999 20.61 8.209999 C 21.487 8.209999 22.339 8.307999 23.163 8.483999 C 23.309 9.537999 24.721 11.047999 24.721 11.790999 C 24.721 12.641999 23.458 11.724999 21.996 12.297999 C 20.267 12.981999 18.736 14.171999 17.714 16.046 C 17.519 16.404 17.693 17.781 17.542 18.432 C 17.41 19.015 16.691 18.943998 16.52 19.116 C 16.184 19.455 15.841001 20.137 16.013 20.477 C 16.121 20.695 16.346 21.157 17.207 21.157 C 18.058 21.157 18.394 19.455 19.588 19.455 C 19.886002 19.455 20.804 20.23 21.616 20.74 C 25.826 16.79 29.818 16.174 31.871002 16.174 C 32.828003 16.174 33.745003 16.303 34.552 16.532999 C 32.826 10.455 27.234 5.979 20.61 5.979 z "/>
    <linearGradient x1="27.4883" y1="1.6533" x2="27.8213" gradientUnits="userSpaceOnUse" y2="38.9478" xlink:type="simple" xlink:actuate="onLoad" id="XMLID_20_" xlink:show="other">
        <stop stop-color="#ffffcf" offset="0"/>
        <stop stop-color="#f0de80" offset="0.11"/>
        <stop stop-color="#c26e54" offset="0.35"/>
        <stop stop-color="#b0361a" offset="0.48"/>
        <stop stop-color="#ad2621" offset="0.6629"/>
        <stop stop-color="#9c0a00" offset="0.75"/>
        <stop stop-color="#991712" offset="0.82"/>
        <stop stop-color="#8a0000" offset="0.91"/>
        <stop stop-color="#730303" offset="0.99"/>
        <stop stop-color="#730303" offset="1"/>
    </linearGradient>
    <path fill="url(#XMLID_20_)" d="M 37.094 20.73 C 36.49 19.821 35.77 19.272 35.281 18.897 C 33.886 17.835 28.253002 16.723 22.426004 22.549 C 18.890003 26.09 17.897003 29.546 17.897003 32.024002 C 17.897003 33.623 18.313004 34.815 18.727003 35.358 C 19.157003 35.921 19.694004 36.622 20.611004 37.225 C 20.880005 37.407 21.346004 37.569004 21.854004 37.663 L 21.969004 37.666 C 22.885004 37.606 23.892004 36.901 25.241005 35.383 C 25.687002 34.882 27.134005 33.149998 27.134005 31.937 C 27.134005 31.937 27.130005 31.791 27.130005 31.757 C 27.115004 31.726 27.104004 31.694 27.104004 31.694 C 27.094004 31.645 26.940004 31.204 26.239004 30.653 C 25.811005 30.309 25.171003 30.069 24.336004 29.932 L 23.940004 29.869 L 23.944004 29.468 C 23.962004 27.463 27.338003 24.084 29.338003 24.072 L 29.735004 24.072 L 29.800003 24.47 C 29.934006 25.299002 30.172005 25.943 30.522003 26.377 C 31.030005 27.021 31.460005 27.205 31.670006 27.271 C 32.483006 27.351 33.81601 26.64 35.245007 25.377 C 36.766006 24.032 37.473007 23.019 37.527008 22.093998 C 37.527008 22.093998 37.53301 22.062998 37.53301 22.034998 C 37.527008 22.006998 37.52301 21.979998 37.52301 21.979998 C 37.471 21.683 37.33 21.087 37.094 20.73 z "/>
</svg>
