<?xml version="1.0" encoding="UTF-8"?>
<svg xmlns="http://www.w3.org/2000/svg" xmlns:xlink="http://www.w3.org/1999/xlink" contentScriptType="text/ecmascript" width="96" baseProfile="tiny" zoomAndPan="magnify" contentStyleType="text/css" viewBox="0 0 96 96" height="96" preserveAspectRatio="xMidYMid meet" version="1.1">
    <path fill="#8b0000" d="M 81.949 81.93 L 60.816 60.798 C 59.972 61.641 54.236 66.471 48.001003 66.471 C 41.795 66.471 35.994003 61.696 35.15 60.854 L 14.077 81.954 C 23.134 91.012 35.178 96.0 47.991 96.0 C 60.816 96.0 72.877 91.003 81.949 81.93 z " fill-opacity="0.01"/>
    <path fill="#8b0000" d="M 80.414 80.395 L 60.816 60.798 C 59.562 62.051 53.881 66.471 48.001003 66.471 C 42.180004 66.471 36.404003 62.106003 35.15 60.854 L 15.613 80.419 C 24.259 89.066 35.758 93.828995 47.990997 93.828995 C 60.236 93.829 71.753 89.059 80.414 80.395 z " fill-opacity="0.02"/>
    <path fill="#8b0000" d="M 78.879 78.857 L 60.816 60.797005 C 59.154 62.460003 53.520996 66.47 48.001 66.47 C 42.599 66.47 36.814 62.513 35.15 60.853 L 17.148 78.885 C 25.384 87.121 36.338 91.656006 47.991 91.656006 C 59.658 91.656 70.627 87.111 78.879 78.857 z " fill-opacity="0.04"/>
    <path fill="#8b0000" d="M 77.344 77.322 L 60.816 60.798 C 58.744003 62.87 53.045 66.471 48.001003 66.471 C 42.982 66.471 37.225 62.922 35.15 60.854 L 18.684 77.35 C 26.51 85.174995 36.919 89.487 47.992 89.487 C 59.078 89.486 69.502 85.167 77.344 77.322 z " fill-opacity="0.07"/>
    <path fill="#8b0000" d="M 75.809 75.788 L 60.819 60.798004 C 58.336 63.279003 52.54 66.471 48.003 66.471 C 43.504997 66.471 37.636997 63.33 35.152 60.854 L 20.218 75.813 C 27.635 83.231 37.498 87.315 47.991 87.315 C 58.498 87.314 68.376 83.223 75.809 75.788 z " fill-opacity="0.11"/>
    <path fill="#8b0000" d="M 47.991 85.145 C 57.917 85.145 67.252 81.278 74.271 74.253 L 60.816 60.798 C 57.922 63.692 52.092003 66.471 48.001003 66.471 C 44.068005 66.471 38.043003 63.742 35.15 60.854 L 21.753 74.277 C 28.76 81.285 38.078 85.145 47.991 85.145 z " fill-opacity="0.13"/>
    <path fill="#ff4747" d="M 47.999 65.492 C 52.823 65.492 57.191 63.539 60.355 60.380997 L 72.71 72.764 C 59.062 86.412 36.922 86.403 23.259998 72.739 L 35.63 60.37 C 38.796 63.535 43.169 65.492 47.999 65.492 z "/>
    <linearGradient x1="47.8154" gradientTransform="matrix(1 0 0 -1 0.1377 94.834)" y1="28.7637" x2="47.8154" gradientUnits="userSpaceOnUse" y2="12.2245" xlink:type="simple" xlink:actuate="onLoad" id="XMLID_3_" xlink:show="other">
        <stop stop-color="#ffffff" offset="0"/>
        <stop stop-color="#ff4747" offset="1"/>
    </linearGradient>
    <path fill="url(#XMLID_3_)" d="M 47.837 82.105 C 39.089 82.105 30.794004 78.810005 24.47 72.98801 C 25.498 71.94701 35.118 62.468006 36.057 61.519005 C 39.398 64.619 43.163 66.296005 47.722 66.296005 C 52.275 66.296005 56.545 64.58201 59.884 61.491005 C 60.821 62.440006 70.406 71.94 71.436 72.981 C 65.08 78.99 56.57 82.105 47.837 82.105 z "/>
    <path fill="#ffffff" d="M 70.488 72.984 C 57.717 84.33 38.249 84.316 25.488 72.984 L 24.442 72.984 C 37.649 85.236 58.315 85.249 71.534 72.984 L 70.488 72.984 z "/>
    <linearGradient x1="47.8516" gradientTransform="matrix(1 0 0 -1 0.1377 94.834)" y1="40.7842" x2="47.8516" gradientUnits="userSpaceOnUse" y2="16.4742" xlink:type="simple" xlink:actuate="onLoad" id="XMLID_4_" xlink:show="other">
        <stop stop-color="#ffffff" offset="0"/>
        <stop stop-color="#ff4747" offset="1"/>
    </linearGradient>
    <path fill="url(#XMLID_4_)" d="M 71.509 73.006 C 70.186005 71.701 60.99 62.586 59.884003 61.492996 C 56.524 64.224 52.33 65.78999 47.952003 65.78999 C 43.578003 65.78999 39.416004 64.243996 36.056004 61.518993 C 34.952003 62.612995 25.788004 71.68099 24.469004 72.98799 L 25.460005 72.98799 C 26.424004 72.036995 35.586 62.97799 36.144005 62.42699 C 39.574005 65.02699 43.728004 66.48999 47.952003 66.48999 C 52.181004 66.48999 56.339005 65.02299 59.771004 62.41799 C 60.490005 63.12699 69.566 72.12499 70.461006 73.00599 L 71.509 73.00599 z "/>
    <path fill="#ffffff" d="M 64.98 67.943 C 64.98 67.943 59.884003 72.431 47.840004 72.431 C 36.861004 72.431 30.766005 67.943 30.766005 67.943 C 21.280005 74.625 38.081005 80.906 47.79501 80.906 C 57.508 80.906 74.723 74.688 64.98 67.943 z " fill-opacity="0.3"/>
    <polygon fill="#ff4747" points="49.459,67.732 49.459,78.75 56.965,73.154 "/>
    <polygon fill="#8b0000" points="49.459,67.732 49.881,68.57 56.586,73.447 56.965,73.154 "/>
    <polygon fill="#8b0000" points="49.466,78.746 49.881,78.454 49.881,68.57 49.459,67.732 "/>
    <rect x="42.861" width="2.81" fill="#ff4747" y="67.734" height="11.018"/>
    <rect x="42.861" width="2.81" fill="#8b0000" y="67.73" height="0.443"/>
    <polygon fill="#8b0000" points="45.235,78.75 45.674,78.75 45.674,67.736 45.229,67.736 "/>
</svg>
