<?xml version="1.0" encoding="UTF-8"?>
<svg xmlns="http://www.w3.org/2000/svg" xmlns:xlink="http://www.w3.org/1999/xlink" contentScriptType="text/ecmascript" width="44" baseProfile="tiny" zoomAndPan="magnify" contentStyleType="text/css" viewBox="0 0 44 44" height="44" preserveAspectRatio="xMidYMid meet" version="1.1">
    <g>
        <rect width="44" fill="none" height="44"/>
        <linearGradient x1="22.0957" y1="2.8921" x2="21.9326" gradientUnits="userSpaceOnUse" y2="34.2246" xlink:type="simple" xlink:actuate="onLoad" id="XMLID_8_" xlink:show="other">
            <stop stop-color="#ffffcf" offset="0"/>
            <stop stop-color="#f0de80" offset="0.11"/>
            <stop stop-color="#c26e54" offset="0.35"/>
            <stop stop-color="#b0361a" offset="0.48"/>
            <stop stop-color="#ad2621" offset="0.6629"/>
            <stop stop-color="#9c0a00" offset="0.75"/>
            <stop stop-color="#991712" offset="0.82"/>
            <stop stop-color="#8a0000" offset="0.91"/>
            <stop stop-color="#730303" offset="0.99"/>
            <stop stop-color="#730303" offset="1"/>
        </linearGradient>
        <path fill="url(#XMLID_8_)" d="M 37.988 21.539 L 33.238 21.539 L 33.238 26.289 L 30.74 26.289 L 30.74 21.539 L 25.99 21.539 L 25.99 19.039 L 30.74 19.039 L 30.74 14.289 L 33.238 14.289 L 33.238 19.039 L 37.988 19.039 L 37.988 21.539 z M 8.91 9.689 L 7.108 9.689 L 7.108 21.527 L 6.01 21.527 L 6.01 26.286 L 7.109 26.286 L 7.109 34.307 L 8.91 34.307 L 8.91 26.286 L 10.007 26.286 L 10.007 21.527 L 8.91 21.527 L 8.91 9.689 z M 16.436 9.689 L 14.634001 9.689 L 14.634001 14.275 L 13.537001 14.275 L 13.537001 19.035 L 14.634001 19.035 L 14.634001 34.308 L 16.436 34.308 L 16.436 19.035 L 17.537 19.035 L 17.537 14.275 L 16.436 14.275 L 16.436 9.689 z M 23.917 26.295 L 23.917 9.689 L 22.116 9.689 L 22.116 26.294 L 21.016 26.294 L 21.016 31.079 L 22.116 31.079 L 22.116 34.308 L 23.917 34.308 L 23.917 31.08 L 25.018 31.08 L 25.018 26.295 L 23.917 26.295 z "/>
    </g>
</svg>
