<?xml version="1.0" encoding="UTF-8"?>
<svg xmlns="http://www.w3.org/2000/svg" xmlns:xlink="http://www.w3.org/1999/xlink" contentScriptType="text/ecmascript" width="44" baseProfile="tiny" zoomAndPan="magnify" contentStyleType="text/css" viewBox="0 0 44 44" height="44" preserveAspectRatio="xMidYMid meet" version="1.1">
    <path fill="#800000" d="M 5.29 29.709 L 6.303 31.32 C 6.303 31.32 7.323 30.677 7.838 30.351 C 7.8259997 30.532999 7.546 32.65 8.886 34.381 C 10.576 36.566 13.972 36.377 13.972 36.377 L 13.993 34.585 C 13.993 34.585 11.358 34.708 10.3 33.274 C 9.864 32.684 9.614 31.877998 9.604 30.927998 C 9.935 31.453999 10.441 32.256996 10.441 32.256996 L 12.052 31.240995 L 9.437 27.09 L 5.29 29.709 z "/>
    <path fill="#800000" d="M 21.326 7.319 L 21.712 9.072 C 21.712 9.072 24.399 8.372999 25.615 9.495999 C 26.123 9.964999 26.497 10.671999 26.732 11.525999 C 26.326 11.124999 25.706001 10.513999 25.706001 10.513999 L 24.372002 11.874999 L 27.869001 15.315999 L 31.305002 11.813999 L 29.948002 10.477999 C 29.948002 10.477999 29.106003 11.334999 28.678001 11.769999 C 28.477001 10.548999 27.971 9.110998 26.733002 8.0929985 C 24.575 6.32 21.326 7.319 21.326 7.319 z "/>
    <linearGradient x1="5.4131" gradientTransform="matrix(1 0 0 -1 0.1377 42.834)" y1="34.8955" x2="18.1831" gradientUnits="userSpaceOnUse" y2="22.1155" xlink:type="simple" xlink:actuate="onLoad" id="XMLID_3_" xlink:show="other">
        <stop stop-color="#ffffcf" offset="0"/>
        <stop stop-color="#f0de80" offset="0.11"/>
        <stop stop-color="#c26e54" offset="0.35"/>
        <stop stop-color="#b0361a" offset="0.48"/>
        <stop stop-color="#ad2621" offset="0.6629"/>
        <stop stop-color="#9c0a00" offset="0.75"/>
        <stop stop-color="#991712" offset="0.82"/>
        <stop stop-color="#8a0000" offset="0.91"/>
        <stop stop-color="#730303" offset="0.99"/>
        <stop stop-color="#730303" offset="1"/>
    </linearGradient>
    <path fill="url(#XMLID_3_)" d="M 7.936 11.188 L 7.936 21.744999 L 20.205 21.744999 L 20.205 11.188 L 7.936 11.188 z M 17.791 19.329 C 15.440001 19.329 12.700001 19.329 10.349001 19.329 C 10.349001 17.308 10.349001 15.625 10.349001 13.604 C 12.701001 13.604 15.441001 13.604 17.791 13.604 C 17.791 15.625 17.791 17.308 17.791 19.329 z "/>
    <linearGradient x1="10.562" gradientTransform="matrix(1 0 0 -1 0.1377 42.834)" y1="32.7744" x2="33.9324" gradientUnits="userSpaceOnUse" y2="9.3941" xlink:type="simple" xlink:actuate="onLoad" id="XMLID_4_" xlink:show="other">
        <stop stop-color="#ffffcf" offset="0"/>
        <stop stop-color="#f0de80" offset="0.11"/>
        <stop stop-color="#c26e54" offset="0.35"/>
        <stop stop-color="#b0361a" offset="0.48"/>
        <stop stop-color="#ad2621" offset="0.6629"/>
        <stop stop-color="#9c0a00" offset="0.75"/>
        <stop stop-color="#991712" offset="0.82"/>
        <stop stop-color="#8a0000" offset="0.91"/>
        <stop stop-color="#730303" offset="0.99"/>
        <stop stop-color="#730303" offset="1"/>
    </linearGradient>
    <path fill="url(#XMLID_4_)" d="M 22.584 16.32 L 22.584 18.736 C 29.071999 18.736 33.465 18.736 35.377 18.736 C 35.377 21.857 35.377 29.487999 35.377 32.61 C 31.964998 32.61 20.647 32.61 17.234999 32.61 C 17.234999 30.755001 17.234999 27.309 17.234999 24.161 L 14.821999 24.161 L 14.821999 35.026 L 37.79 35.026 L 37.79 16.32 L 22.584 16.32 z "/>
</svg>
