<?xml version="1.0" encoding="UTF-8"?>
<svg xmlns="http://www.w3.org/2000/svg" xmlns:xlink="http://www.w3.org/1999/xlink" contentScriptType="text/ecmascript" width="24" baseProfile="tiny" zoomAndPan="magnify" contentStyleType="text/css" viewBox="0 0 24 24" height="24" preserveAspectRatio="xMidYMid meet" version="1.1">
    <rect width="24" fill="none" height="24"/>
    <path fill="#800000" d="M 12.002 1.999 C 6.478 1.999 2.0 6.476 2.0 12.0 C 2.0 17.521 6.478 21.998 12.002 21.998 C 17.521 21.998 22.0 17.521 22.0 12.0 C 22.0 6.476 17.521 1.999 12.002 1.999 z M 12.002 20.998 C 7.031 20.998 3.0 16.971 3.0 12.0 C 3.0 7.028 7.031 2.9989996 12.002 2.9989996 C 16.971 2.999 21.0 7.029 21.0 12.0 C 21.0 16.971 16.971 20.998 12.002 20.998 z "/>
    <path fill="#800000" d="M 10.872 8.907 C 10.872 9.938999 10.037 10.78 8.998 10.78 C 7.966 10.78 7.126001 9.939 7.126001 8.907 C 7.126001 7.868 7.966001 7.033 8.998 7.033 C 10.037 7.033 10.872 7.868 10.872 8.907 z "/>
    <path fill="#800000" d="M 16.874 8.907 C 16.874 9.938999 16.035 10.78 15.001 10.78 C 13.967001 10.78 13.122001 9.939 13.122001 8.907 C 13.122001 7.868 13.967001 7.033 15.001 7.033 C 16.035 7.033 16.874 7.868 16.874 8.907 z "/>
    <path fill="#800000" d="M 6.0 13.018 C 6.0 13.018 6.0 13.018 6.0 13.02 C 6.0 16.331999 8.687 19.018 12.0 19.018 C 15.313 19.018 18.0 16.33 18.0 13.02 C 18.0 13.018 18.0 13.018 18.0 13.018 L 6.0 13.018 z "/>
</svg>
