<?xml version="1.0" encoding="UTF-8"?>
<svg xmlns="http://www.w3.org/2000/svg" xmlns:xlink="http://www.w3.org/1999/xlink" contentScriptType="text/ecmascript" width="84" baseProfile="tiny" zoomAndPan="magnify" contentStyleType="text/css" viewBox="0 0 84 58" height="58" preserveAspectRatio="xMidYMid meet" version="1.1">
    <g>
        <g>
            <g>
                <g>
                    <g>
                        <g>
                            <g>
                                <g>
                                    <circle fill="#ffffff" r="17.325" cx="26.202" cy="23.357"/>
                                </g>
                            </g>
                        </g>
                        <g>
                            <radialGradient gradientTransform="matrix(1.1364 0 0 1.1364 325.2729 -322.1693)" gradientUnits="userSpaceOnUse" xlink:type="simple" r="26.1209" xlink:actuate="onLoad" cx="-260.395" id="XMLID_19_" cy="294.9609" xlink:show="other">
                                <stop stop-color="#c1a15b" offset="0"/>
                                <stop stop-color="#8e6f3a" offset="0.5337"/>
                                <stop stop-color="#704d18" offset="1"/>
                            </radialGradient>
                            <circle fill="url(#XMLID_19_)" r="16.043" cx="26.202" cy="23.356"/>
                            <g>
                                <g>
                                    <radialGradient gradientTransform="matrix(1.1364 0 0 1.1364 325.2729 -322.1693)" gradientUnits="userSpaceOnUse" xlink:type="simple" r="17.7685" xlink:actuate="onLoad" cx="-260.2031" id="XMLID_20_" cy="296.4033" xlink:show="other">
                                        <stop stop-color="#f1de84" offset="0"/>
                                        <stop stop-color="#eacf5a" offset="1"/>
                                    </radialGradient>
                                    <path fill="url(#XMLID_20_)" d="M 17.213 10.069 C 17.081999 10.158 16.953999 10.252 16.824 10.345 C 16.732 10.411 16.64 10.477 16.549 10.545 C 16.431 10.635 16.315 10.727 16.199999 10.82 C 16.102999 10.898 16.005999 10.974 15.911999 11.0529995 C 15.802999 11.143999 15.694999 11.238 15.588999 11.332999 C 15.490999 11.419 15.394999 11.506 15.297998 11.593999 C 15.196999 11.687999 15.097999 11.782999 14.998999 11.879999 C 14.9019985 11.973999 14.807999 12.069999 14.712998 12.165999 C 14.619998 12.261999 14.5269985 12.358 14.436998 12.457 C 14.340999 12.559999 14.246999 12.665 14.153998 12.771 C 14.068998 12.868 13.984999 12.964 13.900998 13.063 C 13.805998 13.176 13.714998 13.292 13.622998 13.407 C 13.567998 13.476 13.513998 13.544 13.459998 13.613999 C 14.015998 13.174 15.022998 12.377999 15.112998 12.318999 C 15.235998 12.2369995 15.832998 11.99 15.832998 11.700999 C 15.832998 11.412999 16.307 11.268999 16.307 11.268999 L 16.369 11.494999 L 16.8 11.680999 C 16.8 11.680999 17.314999 11.124999 17.418 10.980999 C 17.519999 10.835999 17.706 10.281999 17.706 10.281999 L 18.598999 9.228998 C 18.198 9.445998 17.807999 9.681998 17.426998 9.930998 C 17.355 9.978 17.283 10.021 17.213 10.069 z M 22.179 8.916 C 22.645 9.071 23.028 8.759001 23.463001 8.481 C 23.616001 8.449 23.834002 8.542 24.208002 8.355 C 24.580002 8.169 25.324001 7.7669997 25.509003 7.7669997 C 25.695004 7.7669997 26.396002 7.8949995 26.549004 7.6489997 C 26.549004 7.6489997 27.012003 7.7109995 27.289003 7.7419996 C 27.674004 7.7839994 29.140003 7.9609995 29.542004 7.8059998 C 29.598003 7.784 29.680004 7.7539997 29.775003 7.719 C 29.702003 7.7019997 29.631004 7.684 29.558004 7.6689997 C 29.455004 7.648 29.351004 7.627 29.247004 7.607 C 29.076004 7.574 28.902004 7.542 28.729004 7.514 C 28.631004 7.499 28.533005 7.486 28.435003 7.473 C 28.251003 7.448 28.069004 7.422 27.884003 7.403 C 27.806004 7.395 27.726002 7.39 27.648003 7.382 C 27.172003 7.34 26.692003 7.315 26.205002 7.315 C 26.125002 7.315 26.047 7.3190002 25.969002 7.321 C 25.716002 7.3250003 25.465002 7.333 25.214003 7.349 C 25.076002 7.357 24.939003 7.369 24.801003 7.38 C 24.571003 7.4 24.344002 7.425 24.117002 7.455 C 24.008003 7.469 23.899002 7.48 23.790003 7.4969997 C 23.478003 7.5429997 23.168003 7.601 22.862003 7.666 C 22.749002 7.69 22.637003 7.718 22.525003 7.744 C 22.299004 7.798 22.074003 7.856 21.851004 7.919 C 21.777004 7.939 21.704004 7.959 21.631004 7.9820004 C 21.227005 8.371 20.792004 8.898001 19.737003 9.544001 C 19.802004 9.679001 20.022003 9.712001 20.484003 9.567 C 20.823 9.535 21.714 8.762 22.179 8.916 z M 13.651 24.103 L 12.665 23.034 C 12.665 23.039 12.784 22.353 12.644 22.191 C 12.521 22.047 12.17 21.635 11.924 21.553 C 11.697 21.477999 11.646999 20.678999 11.328 20.237 C 11.04 19.838999 10.808001 19.614 10.623 19.524 C 10.609 19.581 10.597 19.639 10.583 19.696001 C 10.535 19.905 10.489 20.116001 10.448 20.328001 C 10.43 20.426 10.413 20.523 10.3949995 20.622002 C 10.360999 20.820002 10.330999 21.018002 10.304999 21.220001 C 10.290999 21.324001 10.276999 21.428001 10.264999 21.533 C 10.240999 21.740002 10.223 21.948002 10.207999 22.157001 C 10.200999 22.253002 10.190999 22.348001 10.185999 22.444002 C 10.168999 22.742002 10.1589985 23.042002 10.1589985 23.343002 C 10.1589985 23.348001 10.1589985 23.353003 10.1589985 23.357002 C 10.1589985 23.780003 10.180999 24.197002 10.212998 24.611002 C 10.2179985 24.681002 10.221998 24.751001 10.228998 24.820002 C 10.264998 25.219002 10.314999 25.613 10.379998 26.005001 C 10.390998 26.071001 10.403998 26.138 10.414998 26.203001 C 10.560998 27.019001 10.767998 27.813002 11.032998 28.581001 C 11.048998 28.627 11.063998 28.674002 11.078998 28.720001 C 11.212997 29.095001 11.359998 29.464 11.519998 29.826 C 11.541998 29.875 11.563997 29.924 11.584997 29.972 C 11.925997 30.722 12.322997 31.444 12.769997 32.128 C 12.785996 32.153 12.800997 32.177998 12.816997 32.202 C 13.038997 32.538 13.274997 32.863 13.520996 33.179 C 13.532996 33.196 13.545996 33.213 13.558996 33.229 C 13.862996 32.792 14.103996 32.31 14.288996 31.879 C 14.480996 31.435999 13.321996 30.81 14.083996 30.09 C 14.309996 30.09 14.893996 30.16 14.964995 29.948 C 14.968995 29.856 15.114995 29.115 15.111996 29.02 C 15.080996 28.064001 15.049995 27.663 15.049995 27.663 L 15.296995 27.478 L 15.923995 26.5 L 15.923995 25.575 L 14.967995 24.844 L 13.651 24.103 z M 39.064 28.458 L 38.538998 29.289 C 38.538998 29.289 37.754997 29.535 37.725 29.782999 C 37.711 29.887999 37.673 30.348 37.572 30.584 C 37.366997 30.727999 37.12 31.201 37.12 31.201 C 37.12 31.201 36.869 31.87 37.552 31.714 C 38.232998 31.560001 39.114998 29.657001 39.114998 29.657001 C 39.114998 29.657001 39.839 28.304 39.064 28.458 z M 23.653 8.788 C 23.826 9.005 24.116 9.203 24.319 9.162 C 24.522 9.122 24.985 8.907 24.985 8.907 C 24.985 8.907 24.753 8.808 24.492 8.848 C 24.232 8.887 23.856 8.69 23.653 8.788 z M 41.626 18.95 C 41.581 18.791 41.535 18.631 41.484 18.475 C 41.449 18.364 41.411 18.255001 41.373 18.147001 C 41.322002 17.999 41.272 17.851002 41.217003 17.705002 C 41.174004 17.593002 41.13 17.482002 41.085003 17.371002 C 41.029003 17.232002 40.972004 17.092003 40.912003 16.955002 C 40.862003 16.842001 40.81 16.730001 40.760002 16.617002 C 40.699 16.485003 40.636 16.355003 40.571003 16.225002 C 40.515003 16.112001 40.458004 15.999002 40.399002 15.888002 C 40.333 15.763002 40.265003 15.639003 40.196003 15.515002 C 40.133003 15.403002 40.069004 15.291002 40.004 15.180002 C 39.933002 15.062002 39.86 14.946002 39.787003 14.829002 C 39.718002 14.718002 39.648003 14.607002 39.575 14.497003 C 39.5 14.385002 39.424 14.2750025 39.346 14.165003 C 39.268 14.055003 39.193 13.945003 39.113 13.838003 C 39.034 13.733004 38.954 13.630003 38.875 13.527003 C 38.791 13.4190035 38.708 13.310003 38.622 13.205004 C 38.543003 13.107004 38.458 13.013003 38.377003 12.916004 C 38.285004 12.810004 38.194004 12.702004 38.100002 12.598004 C 38.021004 12.511004 37.939003 12.428004 37.859 12.342005 C 37.756 12.234005 37.655003 12.123005 37.549 12.018004 C 37.506 11.974005 37.46 11.933004 37.414 11.889005 C 37.144 11.625005 36.864002 11.369005 36.574 11.124004 C 36.515003 11.074004 36.457 11.022004 36.398003 10.972004 C 36.273003 10.868004 36.141003 10.768003 36.009003 10.667004 C 35.930004 10.605003 35.851 10.541003 35.770004 10.481004 C 35.644005 10.385004 35.512005 10.295004 35.380005 10.204003 C 35.293003 10.143003 35.208004 10.080004 35.119003 10.021004 C 34.989002 9.933003 34.855003 9.850004 34.723003 9.767004 C 34.630005 9.709004 34.538002 9.650004 34.444004 9.593004 C 34.310005 9.513004 34.174004 9.436005 34.037003 9.359004 C 33.941 9.305004 33.846 9.252004 33.748 9.200004 C 33.693 9.170004 33.636 9.143003 33.58 9.114003 C 33.091003 9.251003 32.689003 9.355003 32.594 9.355003 C 32.314003 9.355003 32.389 9.119003 32.140003 9.088003 C 31.890003 9.056004 29.823004 8.522003 29.544003 8.800003 C 29.264002 9.079003 28.174002 9.365003 27.924002 9.397003 C 27.677002 9.428003 28.006002 10.178003 28.664001 10.651003 C 28.574001 10.744003 27.101002 11.558002 27.101002 11.000003 C 27.101002 10.442003 26.813002 10.034003 26.361002 9.869003 C 25.949001 9.971004 25.476002 10.403004 26.134003 11.000004 C 26.544003 11.372004 26.159002 11.430004 26.108004 11.528004 C 25.978004 11.775003 26.660004 11.751003 26.754004 12.465004 C 26.804003 12.844004 26.710003 12.564004 26.566004 12.744004 C 26.068005 12.788004 25.582005 12.738005 25.543003 12.651004 C 25.323004 12.156004 24.861004 12.913004 24.736004 13.100004 C 24.612003 13.286004 24.586004 13.947004 24.586004 13.947004 L 25.438004 14.368004 L 24.017004 15.752004 C 24.017004 15.752004 21.930004 17.200005 21.898005 17.388004 C 21.866005 17.573004 20.971004 19.975004 21.281004 20.689005 C 21.591003 21.403006 23.198004 23.327005 23.940004 23.386005 C 24.912004 23.465006 27.719004 22.905005 27.719004 22.905005 C 27.781004 23.060005 28.197004 23.676004 28.197004 23.676004 C 28.197004 23.676004 29.384005 23.815004 29.447004 23.939005 C 29.469004 23.983006 28.853004 25.181005 29.233004 25.712006 C 30.055004 26.864006 30.466003 28.052006 30.015003 28.587006 C 28.934004 30.207006 29.762003 30.330006 30.025003 31.178005 C 30.120003 31.427006 29.737003 32.454006 30.212004 33.256004 C 30.684004 34.633003 30.987003 34.016003 31.609003 34.243004 C 32.376003 34.309006 32.775 34.188004 33.426003 33.349003 C 33.614002 33.197002 33.934002 33.320004 33.934002 33.103004 C 33.934002 32.981003 34.49 32.624004 34.632004 32.291004 C 34.783005 32.223003 35.169003 31.961004 35.431004 31.837004 C 35.668003 31.821003 35.204002 31.183004 35.678005 30.510004 C 36.186005 30.310003 37.560005 29.384005 37.560005 29.384005 C 37.620007 28.027004 36.891006 26.350004 38.254005 25.388004 C 39.133007 24.494005 39.257004 24.600004 39.816006 23.236004 C 39.970005 22.834003 40.501007 21.392004 39.569004 21.735004 C 38.952003 21.961004 38.798004 21.951004 38.602005 21.888004 C 38.546005 21.385004 38.437004 21.179005 37.882004 20.686005 C 37.594006 20.008005 36.894005 18.834005 36.894005 18.834005 L 35.907005 17.333006 L 36.030006 17.024006 L 37.203007 18.752007 L 38.169006 19.935007 C 38.364006 20.500008 38.335007 20.830008 38.652008 21.427008 C 39.30201 21.197008 39.834007 20.768007 39.834007 20.768007 L 40.267006 20.161007 C 40.267006 20.161007 40.928005 19.538008 40.435005 18.242006 C 40.412006 18.219006 39.661007 18.249006 39.661007 18.249006 L 39.127007 17.796007 L 38.526005 16.949007 L 38.552006 16.678007 L 39.231007 17.447006 L 40.126007 18.002007 L 40.897007 18.064007 L 41.384007 19.031006 C 41.523006 19.121006 41.616005 19.181005 41.616005 19.181005 C 41.616005 19.181005 41.648006 19.185005 41.697006 19.187006 C 41.673 19.109 41.649 19.03 41.626 18.95 z M 30.167 9.751 C 30.037 9.422001 30.546999 9.297001 30.546999 9.297001 C 30.546999 9.297001 30.616999 9.639001 30.779999 9.813001 C 30.945 9.987 30.716 10.107 30.973 10.521001 C 31.233 10.935 30.355 10.708001 30.194 10.563001 C 30.036 10.42 30.295 10.081 30.167 9.751 z M 34.781 15.929 C 34.254997 15.929 33.522 15.9279995 33.072998 15.618 C 32.621998 15.308 32.461998 15.752 32.163 16.062 C 31.968998 16.264 31.141998 15.96 30.908998 15.650001 C 30.676998 15.339001 29.949999 15.264001 29.949999 15.264001 L 29.651 14.394001 L 27.808998 14.272001 L 26.632998 14.621001 L 25.486998 14.441001 L 26.306997 14.276001 L 26.756998 13.988001 C 26.756998 13.988001 27.669998 13.130001 27.997997 12.852001 C 28.275997 12.616001 29.386997 12.759001 29.386997 12.759001 L 30.656998 13.776001 C 30.656998 13.776001 30.569998 14.240001 30.452997 14.394001 C 30.913998 14.363001 31.262997 13.769001 31.262997 13.769001 C 30.232996 12.864001 30.239996 12.644001 30.239996 12.644001 L 31.563995 13.393001 L 31.660995 13.778001 L 31.919996 13.933001 C 31.919996 13.933001 32.187996 14.687 32.694996 14.725 C 32.911995 14.741 32.732994 13.871 32.732994 13.871 L 33.002995 13.833 C 33.187996 14.225 33.634995 15.053 33.995995 14.848001 C 34.202995 14.7300005 34.328995 14.869 34.738995 15.025001 C 35.150993 15.18 35.413994 14.943001 35.756996 15.231001 C 35.777 16.505 35.003 15.99 34.781 15.929 z M 35.134 13.73 C 34.662 13.544999 34.176 13.636999 34.176 13.636999 C 34.069 13.846999 33.309 13.629999 33.461998 13.166999 C 33.613 12.703999 33.818996 12.477999 34.087997 12.846999 C 34.176 12.997999 34.538998 13.131 34.601997 12.902999 C 34.691998 12.573999 34.893997 12.398999 35.041996 12.636999 C 34.869995 12.865999 35.192997 13.044999 35.418995 13.164999 C 36.056 13.507 36.475 14.0 35.134 13.73 z M 37.75 14.863 C 37.512 14.65 37.666 14.4 37.305 14.063 C 36.789 13.582 36.507 13.374 36.803 12.847 C 37.308002 12.606 37.009003 13.169 37.199 13.438 C 37.299 13.582 37.754 14.035 38.185 14.615999 C 38.545 15.1 37.989 15.075 37.75 14.863 z "/>
                                </g>
                            </g>
                        </g>
                    </g>
                </g>
            </g>
        </g>
        <g>
            <path fill="#ffffff" d="M 73.023 48.516 C 74.474 42.412 76.356 29.586998 75.331 21.515999 C 74.348 20.019999 70.699005 18.484999 70.699005 18.484999 L 71.467 14.640999 C 71.639 12.166999 66.216 12.124999 66.301 14.171999 L 66.451004 17.376 C 63.762005 17.032999 57.956005 17.460999 53.221004 19.595 C 52.537003 30.862 53.475006 38.378 54.800003 47.510002 C 60.689003 53.7 67.560005 53.147003 67.560005 53.147003 C 69.908 52.123 72.043 49.771 73.023 48.516 z "/>
            <g>
                <path fill="#704d18" d="M 56.614 20.127 C 59.011997 19.266 62.473 18.51 63.279 18.533 C 66.139 18.429 70.954 18.836 74.061 21.959002 L 69.87299 23.910002 C 67.92 21.771 60.998 19.259 56.614 20.127 z "/>
                <linearGradient x1="-418.2949" gradientTransform="matrix(2.5 0 0 2.5 1118 -327.7734)" y1="140.584" x2="-418.7959" gradientUnits="userSpaceOnUse" y2="148.1296" xlink:type="simple" xlink:actuate="onLoad" id="XMLID_21_" xlink:show="other">
                    <stop stop-color="#8e6f3a" offset="0"/>
                    <stop stop-color="#704d18" offset="1"/>
                </linearGradient>
                <path fill="url(#XMLID_21_)" d="M 69.873 23.914 C 69.764 30.231998 69.289 41.166 68.674 50.003 C 69.452 49.648 70.156006 49.403 70.727005 48.941998 C 71.59601 48.240997 72.149 47.363 72.149 47.363 C 73.309006 42.257 74.806 29.414999 74.053 21.922998 L 69.873 23.914 z "/>
                <linearGradient x1="-422.5742" gradientTransform="matrix(2.5 0 0 2.5 1118 -327.7734)" y1="139.083" x2="-420.2817" gradientUnits="userSpaceOnUse" y2="139.9464" xlink:type="simple" xlink:actuate="onLoad" id="XMLID_22_" xlink:show="other">
                    <stop stop-color="#f1de84" offset="0"/>
                    <stop stop-color="#cd9f3d" offset="1"/>
                </linearGradient>
                <path fill="url(#XMLID_22_)" d="M 54.353 20.229 C 56.884 19.324 60.535 18.523 61.38 18.546 C 64.4 18.442999 69.111 18.741999 72.753 22.123 L 68.339 24.223 C 66.28 21.964 58.976 19.313 54.353 20.229 z "/>
                <path fill="#cd9f3d" d="M 68.338 24.222 C 68.223 30.89 68.008995 42.328003 67.359 51.652 C 69.428 50.697 70.724 48.942 70.724 48.942 C 71.945 43.553 73.539 30.03 72.75 22.126001 L 68.338 24.222 z "/>
                <linearGradient x1="-420.5317" gradientTransform="matrix(2.5 0 0 2.5 1118 -327.7734)" y1="139.665" x2="-419.0679" gradientUnits="userSpaceOnUse" y2="139.665" xlink:type="simple" xlink:actuate="onLoad" id="XMLID_23_" xlink:show="other">
                    <stop stop-color="#cd9f3d" offset="0"/>
                    <stop stop-color="#8e6f3a" offset="1"/>
                </linearGradient>
                <path fill="url(#XMLID_23_)" d="M 70.321 21.212 C 70.415 21.807 69.635 22.256 68.599 22.301 C 67.559 22.351 66.651 21.996 66.668 21.287 C 66.679 20.833 67.352 20.525002 68.388 20.480001 C 69.429 20.433 70.247 20.768 70.321 21.212 z "/>
                <linearGradient x1="-420.0596" gradientTransform="matrix(2.5 0 0 2.5 1118 -327.7734)" y1="138.332" x2="-419.2399" gradientUnits="userSpaceOnUse" y2="138.332" xlink:type="simple" xlink:actuate="onLoad" id="XMLID_24_" xlink:show="other">
                    <stop stop-color="#c4a64a" offset="0"/>
                    <stop stop-color="#c1a15b" offset="1"/>
                </linearGradient>
                <path fill="url(#XMLID_24_)" d="M 67.206 14.337 L 67.424 21.371 C 67.661 21.872 69.305 21.975 69.55701 21.311 L 70.56601 14.59 C 69.939 15.426 67.387 14.917 67.206 14.337 z "/>
                <path fill="#8e6f3a" d="M 54.353 20.229 C 57.379 19.242 63.799 20.062 68.338 24.222 C 68.870995 31.677 68.440994 44.63 67.359 51.652 C 63.696 51.745 58.524002 49.283 55.792 46.909 C 54.896 40.645 53.783 27.727 54.353 20.229 z "/>
                <linearGradient x1="-426.4097" gradientTransform="matrix(2.5 0 0 2.5 1118 -327.7734)" y1="140.9092" x2="-422.0837" gradientUnits="userSpaceOnUse" y2="144.077" xlink:type="simple" xlink:actuate="onLoad" id="XMLID_25_" xlink:show="other">
                    <stop stop-color="#ffffff" offset="0"/>
                    <stop stop-color="#c1a15b" offset="1"/>
                </linearGradient>
                <polygon fill="url(#XMLID_25_)" points="55.86,22.038 56.327,37.85 66.451,41.576 66.786,25.179    "/>
                <polygon fill="#3e2a08" points="57.458,37.165 57.166,22.412 55.86,22.038 56.327,37.85    "/>
                <polygon fill="#704d18" points="56.327,37.85 57.458,37.165 66.489,40.29 66.451,41.576    "/>
                <g>
                    <linearGradient x1="-414.5835" gradientTransform="matrix(2.5245 -0.049 0.0123 2.4755 1102.887 -299.4133)" y1="128.4971" x2="-409.5505" gradientUnits="userSpaceOnUse" y2="133.4814" xlink:type="simple" xlink:actuate="onLoad" id="XMLID_26_" xlink:show="other">
                        <stop stop-color="#f1de84" offset="0"/>
                        <stop stop-color="#b0381e" offset="1"/>
                    </linearGradient>
                    <polygon fill="url(#XMLID_26_)" points="63.187,45.728 65.785,46.819 65.888,44.947 63.24,43.854     "/>
                    <linearGradient x1="-414.1138" gradientTransform="matrix(2.5245 -0.049 0.0123 2.4755 1102.887 -299.4133)" y1="127.9688" x2="-409.0321" gradientUnits="userSpaceOnUse" y2="133.0012" xlink:type="simple" xlink:actuate="onLoad" id="XMLID_27_" xlink:show="other">
                        <stop stop-color="#f1de84" offset="0"/>
                        <stop stop-color="#b0381e" offset="1"/>
                    </linearGradient>
                    <polygon fill="url(#XMLID_27_)" points="65.913,44.458 66.014,42.59 63.307,41.582 63.254,43.37     "/>
                    <linearGradient x1="-415.0317" gradientTransform="matrix(2.5245 -0.049 0.0123 2.4755 1102.887 -299.4133)" y1="129.0107" x2="-410.0383" gradientUnits="userSpaceOnUse" y2="133.9558" xlink:type="simple" xlink:actuate="onLoad" id="XMLID_28_" xlink:show="other">
                        <stop stop-color="#f1de84" offset="0"/>
                        <stop stop-color="#b0381e" offset="1"/>
                    </linearGradient>
                    <polygon fill="url(#XMLID_28_)" points="63.169,46.21 63.12,47.902 65.668,49.036 65.76,47.306     "/>
                    <linearGradient x1="-415.2949" gradientTransform="matrix(2.5245 -0.049 0.0123 2.4755 1102.887 -299.4133)" y1="129.1094" x2="-410.0642" gradientUnits="userSpaceOnUse" y2="134.2894" xlink:type="simple" xlink:actuate="onLoad" id="XMLID_29_" xlink:show="other">
                        <stop stop-color="#f1de84" offset="0"/>
                        <stop stop-color="#b0381e" offset="1"/>
                    </linearGradient>
                    <polygon fill="url(#XMLID_29_)" points="59.592,42.38 57.305,41.472 57.424,43.363 59.66,44.268     "/>
                    <linearGradient x1="-414.5107" gradientTransform="matrix(2.5245 -0.049 0.0123 2.4755 1102.887 -299.4133)" y1="128.3086" x2="-409.3311" gradientUnits="userSpaceOnUse" y2="133.4382" xlink:type="simple" xlink:actuate="onLoad" id="XMLID_30_" xlink:show="other">
                        <stop stop-color="#f1de84" offset="0"/>
                        <stop stop-color="#b0381e" offset="1"/>
                    </linearGradient>
                    <polygon fill="url(#XMLID_30_)" points="62.747,43.196 62.765,41.414 60.137,40.456 60.172,42.163     "/>
                    <linearGradient x1="-414.8687" gradientTransform="matrix(2.5245 -0.049 0.0123 2.4755 1102.887 -299.4133)" y1="128.6504" x2="-409.6041" gradientUnits="userSpaceOnUse" y2="133.864" xlink:type="simple" xlink:actuate="onLoad" id="XMLID_31_" xlink:show="other">
                        <stop stop-color="#f1de84" offset="0"/>
                        <stop stop-color="#b0381e" offset="1"/>
                    </linearGradient>
                    <polygon fill="url(#XMLID_31_)" points="59.509,40.192 57.168,39.35 57.273,40.987 59.57,41.894     "/>
                    <linearGradient x1="-415.3882" gradientTransform="matrix(2.5245 -0.049 0.0123 2.4755 1102.887 -299.4133)" y1="129.291" x2="-410.2997" gradientUnits="userSpaceOnUse" y2="134.3302" xlink:type="simple" xlink:actuate="onLoad" id="XMLID_32_" xlink:show="other">
                        <stop stop-color="#f1de84" offset="0"/>
                        <stop stop-color="#b0381e" offset="1"/>
                    </linearGradient>
                    <polygon fill="url(#XMLID_32_)" points="60.259,46.682 62.696,47.745 62.715,46.05 60.225,45.014     "/>
                    <linearGradient x1="-415.7061" gradientTransform="matrix(2.5245 -0.049 0.0123 2.4755 1102.887 -299.4133)" y1="129.5762" x2="-410.5291" gradientUnits="userSpaceOnUse" y2="134.703" xlink:type="simple" xlink:actuate="onLoad" id="XMLID_33_" xlink:show="other">
                        <stop stop-color="#f1de84" offset="0"/>
                        <stop stop-color="#b0381e" offset="1"/>
                    </linearGradient>
                    <polygon fill="url(#XMLID_33_)" points="59.679,44.757 57.458,43.852 57.558,45.497 59.737,46.428     "/>
                    <linearGradient x1="-414.9561" gradientTransform="matrix(2.5245 -0.049 0.0123 2.4755 1102.887 -299.4133)" y1="128.8037" x2="-409.8311" gradientUnits="userSpaceOnUse" y2="133.8791" xlink:type="simple" xlink:actuate="onLoad" id="XMLID_34_" xlink:show="other">
                        <stop stop-color="#f1de84" offset="0"/>
                        <stop stop-color="#b0381e" offset="1"/>
                    </linearGradient>
                    <polygon fill="url(#XMLID_34_)" points="60.183,42.649 60.215,44.526 62.72,45.561 62.739,43.681     "/>
                    <linearGradient x1="-415.7964" gradientTransform="matrix(2.5245 -0.049 0.0123 2.4755 1102.887 -299.4133)" y1="129.7744" x2="-410.7523" gradientUnits="userSpaceOnUse" y2="134.7696" xlink:type="simple" xlink:actuate="onLoad" id="XMLID_35_" xlink:show="other">
                        <stop stop-color="#f1de84" offset="0"/>
                        <stop stop-color="#b0381e" offset="1"/>
                    </linearGradient>
                    <polygon fill="url(#XMLID_35_)" points="60.267,47.177 60.298,48.89 62.671,49.999 62.69,48.236     "/>
                </g>
                <g>
                    <path fill="#704d18" d="M 69.813 14.972 L 68.89 21.13 C 68.756996 21.476 68.221 21.611 67.706 21.592999 C 68.270004 21.862999 69.44 21.826998 69.644005 21.288998 L 70.651 14.566998 C 70.484 14.79 70.177 14.917 69.813 14.972 z "/>
                </g>
                <path fill="#8e6f3a" d="M 70.637 14.681 C 70.502 15.063 69.62 15.283999 68.671 15.172999 C 67.727 15.061999 67.085 14.66 67.236 14.278 C 67.389 13.894 68.257 13.674 69.185 13.785 C 70.113 13.895 70.765 14.299 70.637 14.681 z "/>
            </g>
        </g>
        <linearGradient x1="52.8906" y1="7.8408" x2="47.0723" gradientUnits="userSpaceOnUse" y2="19.478" xlink:type="simple" xlink:actuate="onLoad" id="XMLID_36_" xlink:show="other">
            <stop stop-color="#f1de84" offset="0"/>
            <stop stop-color="#b0381e" offset="1"/>
        </linearGradient>
        <polygon fill="url(#XMLID_36_)" points="54.337,14.089 54.359,14.063 54.337,14.038 54.337,14.009 54.305,14.009 46.211,5.911    45.451,6.671 50.665,14.009 43.938,14.009 43.938,16.581 43.982,16.581 43.945,16.62 52.044,24.718 52.915,23.843 47.549,16.581    54.337,16.581  "/>
        <g>
            <path fill="#ffffff" d="M 13.416 34.126 C 10.52 34.126 6.5540004 34.814 5.5490003 40.755 L 5.399 41.651 C 5.399 41.651 12.069 41.651 12.861 41.651 C 13.101 42.082 13.457 42.723 13.682 43.133 C 13.456 43.543 13.101 44.186 12.861 44.613 C 12.069 44.613 5.399 44.613 5.399 44.613 L 5.5490003 45.51 C 6.5540004 51.448997 10.521 52.137997 13.416 52.137997 C 15.699 52.137997 17.733 50.221996 19.369 48.683 C 20.251999 47.849 21.085999 47.067997 21.527 47.067997 L 41.959 47.067997 L 42.186 46.815998 C 42.627003 46.334 43.644 45.012997 43.668 43.163998 L 43.668 43.1 C 43.645 41.25 42.627 39.93 42.186 39.448997 L 41.959 39.198997 L 21.527 39.198997 C 21.086 39.198997 20.252 38.415997 19.37 37.586 C 17.733 36.042 15.699 34.126 13.416 34.126 z "/>
            <path fill="#0046b7" d="M 42.9 43.134 C 42.9 43.126 42.902 43.118 42.902 43.112 L 42.898 43.112 C 42.878998 41.503 41.957 40.339 41.619 39.968 C 41.187 39.968 21.527 39.968 21.527 39.968 C 20.779001 39.968 19.968 39.199997 18.84 38.142998 C 17.306 36.697998 15.394 34.897 13.415 34.897 C 10.202 34.897 7.159 35.839 6.308 40.884 C 7.5150003 40.884 13.314 40.884 13.314 40.884 L 14.56 43.134 L 13.314 45.384 C 13.314 45.384 7.5150003 45.384 6.308 45.384 C 7.16 50.427 10.203 51.37 13.415 51.37 C 15.394 51.37 17.306 49.57 18.84 48.124 C 19.968 47.064 20.778 46.3 21.527 46.3 C 21.527 46.3 41.187 46.3 41.619 46.3 C 41.957 45.93 42.881 44.767998 42.898 43.156998 L 42.902 43.156998 C 42.902 43.148 42.9 43.143 42.9 43.134 z "/>
        </g>
        <rect width="84" fill="none" height="58"/>
        <g>
            <path fill="#ffffff" d="M 13.785 34.473 C 11.004 34.473 7.193 35.133 6.2279997 40.859 L 6.084 41.72 C 6.084 41.72 12.49 41.72 13.25 41.72 C 13.479 42.136 13.8220005 42.753002 14.039 43.15 C 13.822 43.543003 13.478999 44.16 13.25 44.577003 C 12.49 44.577003 6.084 44.577003 6.084 44.577003 L 6.229 45.439003 C 7.1940002 51.159004 11.004 51.823 13.786 51.823 C 15.978001 51.823 17.932 49.978 19.502 48.494003 C 20.353 47.693005 21.152 46.938004 21.575 46.938004 L 41.199 46.938004 L 41.419003 46.696003 C 41.840004 46.231003 42.819004 44.963 42.841003 43.179005 L 42.841003 43.116005 C 42.820004 41.334003 41.840004 40.063004 41.419003 39.600006 L 41.199 39.358006 L 21.574 39.358006 C 21.151 39.358006 20.348999 38.603004 19.504 37.802006 C 17.932 36.316 15.979 34.473 13.785 34.473 z "/>
            <path fill="#6e8489" d="M 42.104 43.149 C 42.104 43.141 42.106 43.130997 42.106 43.126 L 42.101997 43.126 C 42.082996 41.577 41.197 40.457 40.871 40.1 C 40.458 40.1 21.574999 40.1 21.574999 40.1 C 20.855999 40.1 20.078999 39.361 18.994999 38.343 C 17.522 36.947 15.685999 35.212997 13.785999 35.212997 C 10.699999 35.212997 7.775999 36.121998 6.957999 40.982 C 8.117999 40.982 13.686999 40.982 13.686999 40.982 L 14.881999 43.149998 L 13.686999 45.314 C 13.686999 45.314 8.1189995 45.314 6.957999 45.314 C 7.775999 50.173 10.697999 51.084 13.785999 51.084 C 15.685999 51.084 17.522 49.349 18.994999 47.956 C 20.078999 46.936 20.858 46.196003 21.574999 46.196003 C 21.574999 46.196003 40.458 46.196003 40.871 46.196003 C 41.197 45.841003 42.084 44.719 42.101997 43.171 L 42.106 43.171 C 42.105 43.163 42.104 43.154 42.104 43.149 z "/>
        </g>
    </g>
</svg>
