<?xml version="1.0" encoding="UTF-8"?>
<svg xmlns="http://www.w3.org/2000/svg" xmlns:xlink="http://www.w3.org/1999/xlink" contentScriptType="text/ecmascript" width="60" baseProfile="tiny" zoomAndPan="magnify" contentStyleType="text/css" viewBox="0 0 60 60" height="60" preserveAspectRatio="xMidYMid meet" version="1.1">
    <linearGradient x1="23.2056" y1="-1.3198" x2="23.6499" gradientUnits="userSpaceOnUse" y2="50.7148" xlink:type="simple" xlink:actuate="onLoad" id="XMLID_3_" xlink:show="other">
        <stop stop-color="#ffffcf" offset="0"/>
        <stop stop-color="#f0de80" offset="0.11"/>
        <stop stop-color="#c26e54" offset="0.35"/>
        <stop stop-color="#b0361a" offset="0.48"/>
        <stop stop-color="#ad2621" offset="0.6629"/>
        <stop stop-color="#9c0a00" offset="0.75"/>
        <stop stop-color="#991712" offset="0.82"/>
        <stop stop-color="#8a0000" offset="0.91"/>
        <stop stop-color="#730303" offset="0.99"/>
        <stop stop-color="#730303" offset="1"/>
    </linearGradient>
    <path fill="url(#XMLID_3_)" d="M 33.313 46.391 C 33.11 46.046997 33.78 47.358 28.856 47.364 C 23.932 47.371 18.373 43.919 15.910999 39.21 L 18.586 38.546 C 19.398998 38.344997 19.492998 37.796 18.801 37.33 L 14.329998 34.317 L 13.629998 33.844 C 13.438998 33.714996 13.234998 33.644997 13.031999 33.619 C 12.615998 33.564 12.209999 33.721 11.925999 34.051 C 11.844998 34.145 11.770999 34.246 11.713999 34.367 L 11.251999 35.338 L 9.188999 39.668 C 8.829 40.423 9.197999 40.875 10.009999 40.673 L 12.717999 40.001 C 15.65 46.25 21.981 50.587 29.342 50.587 C 31.991 50.587 35.28 49.763996 38.139 48.467 C 37.725 48.527 34.125 47.625 33.313 46.391 z "/>
    <linearGradient x1="39.9541" y1="-1.4629" x2="40.3984" gradientUnits="userSpaceOnUse" y2="50.5718" xlink:type="simple" xlink:actuate="onLoad" id="XMLID_4_" xlink:show="other">
        <stop stop-color="#ffffcf" offset="0"/>
        <stop stop-color="#f0de80" offset="0.11"/>
        <stop stop-color="#c26e54" offset="0.35"/>
        <stop stop-color="#b0361a" offset="0.48"/>
        <stop stop-color="#ad2621" offset="0.6629"/>
        <stop stop-color="#9c0a00" offset="0.75"/>
        <stop stop-color="#991712" offset="0.82"/>
        <stop stop-color="#8a0000" offset="0.91"/>
        <stop stop-color="#730303" offset="0.99"/>
        <stop stop-color="#730303" offset="1"/>
    </linearGradient>
    <path fill="url(#XMLID_4_)" d="M 49.486 26.108 L 46.793 26.508 C 44.544 19.633 38.361 14.542 30.897 13.914999 L 30.903 13.959999 L 30.925 14.112999 L 30.917 14.267999 C 30.917 14.267999 30.909 14.391998 30.909 14.402999 C 30.853 15.284999 30.525 16.153 29.907 17.064 C 36.189 17.297998 41.493 21.363998 43.568 26.986 L 40.746 27.406 C 39.917004 27.53 39.769 28.066 40.415 28.597 L 44.502 31.96 L 45.167 32.508 L 45.23 32.561 C 45.697 32.942 46.284 32.965 46.736 32.682 C 46.911 32.572998 47.068 32.420998 47.187 32.221 L 47.674 31.407 L 50.207 27.189 C 50.639 26.47 50.314 25.985 49.486 26.108 z "/>
    <path fill="#47c30e" d="M 26.408 10.368 C 25.42 9.609 18.775002 7.405 10.982001 15.124001 L 10.886002 15.22 C 3.1670015 23.013 5.3710017 29.658 6.1290016 30.646 C 6.6800017 31.371 7.3020015 32.183 8.359001 32.894 C 8.620001 33.054 9.113001 33.251 9.645001 33.244 C 10.176002 33.23 11.390001 32.440998 12.911001 30.775 C 14.434001 29.111 15.076001 27.772 15.219002 27.143 L 15.300002 26.784 L 15.061002 26.504 C 14.911002 26.323 14.732002 26.155 14.520001 25.989 C 13.621001 25.27 11.745001 25.159 11.7230015 25.16 L 11.435001 25.142 L 11.295001 24.887 C 11.236001 24.78 9.865001 22.141 13.809001 18.047 C 17.904 14.103001 20.54 15.477001 20.646 15.535001 L 20.901 15.675001 L 20.921 15.964001 C 20.921 15.985001 21.029 17.862 21.747 18.76 C 21.914 18.974 22.084 19.15 22.263 19.301 L 22.543 19.54 L 22.902 19.457 C 23.531 19.315 24.873 18.673 26.536 17.149 C 28.2 15.627 28.989002 14.414 29.001 13.883 C 29.011002 13.352 28.812002 12.858001 28.652 12.598001 C 27.944 11.541 27.13 10.917 26.408 10.368 z "/>
    <path fill="#f0b11d" d="M 28.569 39.234 C 28.727 40.433 31.777 46.513 42.434 46.564003 L 42.565 46.564003 C 53.221 46.513004 56.272 40.433 56.43 39.234 C 56.547 38.359 56.677 37.375 56.44 36.16 C 56.373997 35.872 56.169 35.394 55.796997 35.037 C 55.422997 34.683 54.046997 34.391 51.858997 34.486 C 49.671 34.584 48.308 35.064 47.779 35.398 L 47.476 35.586 L 47.448997 35.94 C 47.427 36.169 47.433 36.409 47.465996 36.668 C 47.589996 37.778 48.803 39.144 48.818996 39.158 L 49.006996 39.367 L 48.92699 39.638 C 48.895996 39.752 48.024994 42.506 42.500996 42.609 C 36.979996 42.506 36.109997 39.754 36.07999 39.638 L 35.998993 39.367 L 36.186993 39.155 C 36.200993 39.139 37.415993 37.774 37.540993 36.668 C 37.57199 36.405 37.575993 36.168 37.55699 35.94 L 37.52999 35.584 L 37.22699 35.394 C 36.69599 35.06 35.33299 34.581 33.14499 34.484 C 30.95699 34.386 29.58199 34.677 29.20699 35.035 C 28.835987 35.392 28.63299 35.87 28.56499 36.158 C 28.321 37.375 28.451 38.359 28.569 39.234 z "/>
    <rect width="60" fill="none" height="60"/>
</svg>
