<?xml version="1.0" encoding="UTF-8"?>
<svg xmlns="http://www.w3.org/2000/svg" xmlns:xlink="http://www.w3.org/1999/xlink" contentScriptType="text/ecmascript" width="60" baseProfile="tiny" zoomAndPan="magnify" contentStyleType="text/css" viewBox="0 0 60 60" height="60" preserveAspectRatio="xMidYMid meet" version="1.1">
    <linearGradient x1="42.0664" y1="25.0591" x2="42.1592" gradientUnits="userSpaceOnUse" y2="48.772" xlink:type="simple" xlink:actuate="onLoad" id="XMLID_3_" xlink:show="other">
        <stop stop-color="#ffffcf" offset="0"/>
        <stop stop-color="#f0de80" offset="0.11"/>
        <stop stop-color="#c26e54" offset="0.35"/>
        <stop stop-color="#b0361a" offset="0.48"/>
        <stop stop-color="#ad2621" offset="0.6629"/>
        <stop stop-color="#9c0a00" offset="0.75"/>
        <stop stop-color="#991712" offset="0.82"/>
        <stop stop-color="#8a0000" offset="0.91"/>
        <stop stop-color="#730303" offset="0.99"/>
        <stop stop-color="#730303" offset="1"/>
    </linearGradient>
    <path fill="url(#XMLID_3_)" d="M 49.293 39.87 L 49.293 37.996 L 47.648 37.996 C 49.064 37.24 50.043 35.766 50.043 34.049 C 50.043 31.57 48.025 29.554 45.549 29.554 C 43.653 29.554 42.033 30.741 41.375 32.406002 C 41.177 31.400002 40.682 30.473 39.939 29.733002 C 38.948997 28.740002 37.629997 28.197002 36.232 28.197002 C 34.831997 28.197002 33.512997 28.740002 32.524998 29.733002 C 31.537998 30.721004 30.990995 32.039 30.990995 33.440002 C 30.990995 33.550003 31.003998 33.655003 31.012997 33.762 C 31.803995 33.589 32.546997 33.52 33.241997 33.524002 C 33.241997 33.498 33.232998 33.469 33.232998 33.440002 C 33.232998 32.639004 33.544 31.887005 34.109997 31.321005 C 34.675995 30.757004 35.428 30.446005 36.228996 30.446005 C 37.027996 30.446005 37.782997 30.757004 38.347996 31.321005 C 38.91299 31.887005 39.222996 32.639004 39.222996 33.440002 C 39.222996 34.243004 38.91299 34.994003 38.347996 35.559 C 38.335995 35.569 38.326996 35.577003 38.312996 35.584003 C 38.583996 35.859005 38.855995 36.173004 39.118996 36.566 C 39.312996 36.855003 39.448997 37.17 39.550995 37.472 C 39.684994 37.368 39.817993 37.265 39.938995 37.146 C 40.524994 36.558 40.934994 35.853 41.184994 35.084 C 41.490993 36.351 42.326992 37.397 43.446995 37.992 L 39.705994 37.992 C 39.74399 38.138 39.765995 38.264 39.783993 38.368 L 39.79499 38.454 L 39.819996 38.729 L 39.81 38.922 C 39.779 39.387 39.657 39.822 39.476 40.236 L 47.044 40.236 L 47.044 46.463 L 35.346 46.463 L 35.346 44.359 C 34.544003 44.796 33.792 45.005 33.098 44.993 L 33.098 48.709 L 49.292 48.709 L 49.292 46.307 L 53.227 46.307 L 53.227 38.726997 L 49.293 39.87 z M 45.549 36.296 C 44.311 36.296 43.302 35.287003 43.302 34.049 C 43.302 32.810997 44.310997 31.803 45.549 31.803 C 46.789 31.803 47.797 32.811 47.797 34.049 C 47.797 35.287 46.79 36.296 45.549 36.296 M 50.98 44.064 L 49.292 44.064 L 49.292 42.209 C 49.766 42.068 50.393 41.893 50.98 41.723 L 50.98 44.064 z "/>
    <linearGradient x1="24.7153" y1="17.249" x2="24.7153" gradientUnits="userSpaceOnUse" y2="27.1992" xlink:type="simple" xlink:actuate="onLoad" id="XMLID_4_" xlink:show="other">
        <stop stop-color="#ffffcf" offset="0"/>
        <stop stop-color="#f0de80" offset="0.11"/>
        <stop stop-color="#c26e54" offset="0.35"/>
        <stop stop-color="#b0361a" offset="0.48"/>
        <stop stop-color="#ad2621" offset="0.6629"/>
        <stop stop-color="#9c0a00" offset="0.75"/>
        <stop stop-color="#991712" offset="0.82"/>
        <stop stop-color="#8a0000" offset="0.91"/>
        <stop stop-color="#730303" offset="0.99"/>
        <stop stop-color="#730303" offset="1"/>
    </linearGradient>
    <polygon fill="url(#XMLID_4_)" points="29.118,26.712 24.936,22.521 27.153,22.523 27.153,19.88 20.313,19.88 20.313,26.58   22.946,26.58 22.954,24.3 27.239,28.596 "/>
    <path fill="#47c30e" d="M 25.575 7.516 C 24.724 6.862 19.009 4.967 12.305 11.606 L 12.222 11.688 C 5.583 18.392 7.478 24.108 8.13 24.959 C 8.604 25.581 9.14 26.28 10.049 26.892 C 10.273 27.029 10.697 27.201 11.155 27.191 C 11.612 27.18 12.655 26.502 13.964 25.071 C 15.275 23.638 15.827 22.487 15.948999 21.946 L 16.019 21.636 L 15.812999 21.396 C 15.683999 21.24 15.528998 21.095 15.347999 20.953 C 14.575998 20.335 12.960999 20.238998 12.9419985 20.241 L 12.693998 20.224998 L 12.572998 20.005 C 12.522998 19.913 11.343998 17.643 14.735998 14.120999 C 18.256998 10.728 20.525995 11.908999 20.615995 11.959999 L 20.836998 12.079999 L 20.853 12.328999 C 20.853 12.346998 20.947 13.960999 21.565 14.733998 C 21.707998 14.917998 21.853998 15.067998 22.006998 15.198998 L 22.249 15.404999 L 22.558998 15.332999 C 23.099998 15.211 24.253998 14.658999 25.683998 13.348999 C 27.114998 12.039999 27.794 10.995999 27.804998 10.540998 C 27.814 10.083999 27.641998 9.6589985 27.505 9.4349985 C 26.895 8.525 26.195 7.988 25.575 7.516 z "/>
    <path fill="#47c30e" d="M 35.938 36.668 C 35.268 36.152 30.762 34.66 25.48 39.893 L 25.415 39.956997 C 20.183 45.24 21.676 49.745995 22.19 50.416996 C 22.564 50.90599 22.985998 51.456997 23.703 51.937996 C 23.88 52.046 24.214 52.181995 24.575 52.173996 C 24.935 52.165997 25.756998 51.630997 26.787998 50.504 C 27.822 49.374996 28.256998 48.467 28.353998 48.039997 L 28.408998 47.796997 L 28.245998 47.608 C 28.144 47.484997 28.021996 47.372997 27.88 47.258 C 27.272 46.772 25.998 46.695 25.984 46.695 L 25.789 46.683 L 25.693 46.507 C 25.654 46.437 24.724998 44.648 27.4 41.871 C 30.174 39.194 31.963 40.127 32.034 40.167 L 32.208 40.263 L 32.22 40.458 C 32.22 40.474 32.295002 41.743 32.783 42.354 C 32.896 42.499 33.012 42.618 33.134003 42.721 L 33.324 42.881 L 33.566 42.823 C 33.994003 42.726 34.902 42.293003 36.029003 41.26 C 37.158005 40.227 37.693005 39.405003 37.703003 39.045 C 37.709003 38.684 37.574 38.35 37.465004 38.174004 C 36.977 37.464 36.427 37.041 35.938 36.668 z "/>
    <rect width="60" fill="none" height="60"/>
</svg>
