<?xml version="1.0" encoding="UTF-8"?>
<svg xmlns="http://www.w3.org/2000/svg" xmlns:xlink="http://www.w3.org/1999/xlink" contentScriptType="text/ecmascript" width="96" baseProfile="tiny" zoomAndPan="magnify" contentStyleType="text/css" viewBox="0 0 96 96" height="96" preserveAspectRatio="xMidYMid meet" version="1.1">
    <linearGradient x1="59.8926" gradientTransform="matrix(1 0 0 -1 0.1377 94.834)" y1="35.0547" x2="35.4125" gradientUnits="userSpaceOnUse" y2="59.2347" xlink:type="simple" xlink:actuate="onLoad" id="XMLID_6_" xlink:show="other">
        <stop stop-color="#e0bc6c" offset="0"/>
        <stop stop-color="#7f3c21" offset="1"/>
    </linearGradient>
    <circle fill="url(#XMLID_6_)" r="17.491" cx="48.001" cy="47.899"/>
    <linearGradient x1="55.9531" gradientTransform="matrix(1 0 0 -1 0.1377 94.834)" y1="33.085" x2="39.9929" gradientUnits="userSpaceOnUse" y2="60.4154" xlink:type="simple" xlink:actuate="onLoad" id="XMLID_7_" xlink:show="other">
        <stop stop-color="#e0bc6c" offset="0"/>
        <stop stop-color="#7f3c21" offset="1"/>
    </linearGradient>
    <path fill="url(#XMLID_7_)" d="M 48.002 64.184 C 39.009 64.184 31.718998 56.892998 31.718998 47.896996 C 31.718998 38.904995 39.009 31.614996 48.002 31.614996 C 56.995 31.614996 64.285 38.904995 64.285 47.896996 C 64.285 56.893 56.995 64.184 48.002 64.184 z "/>
    <path fill="none" d="M 62.518 47.727 " stroke="#009966"/>
    <path fill="none" d="M 61.986 48.001 " stroke="#009966"/>
    <linearGradient x1="53.3613" gradientTransform="matrix(1 0 0 -1 0.1377 94.834)" y1="34.8652" x2="42.4116" gradientUnits="userSpaceOnUse" y2="58.9046" xlink:type="simple" xlink:actuate="onLoad" id="XMLID_8_" xlink:show="other">
        <stop stop-color="#f1de84" offset="0"/>
        <stop stop-color="#cd9f3d" offset="1"/>
    </linearGradient>
    <path fill="url(#XMLID_8_)" d="M 33.102 47.729 C 33.102 55.906 39.749 62.553 47.920002 62.553 C 56.091003 62.553 62.746002 55.907 62.746002 47.729 C 62.746002 39.557 56.091003 32.908 47.920002 32.908 C 39.749 32.908 33.102 39.557 33.102 47.729 z "/>
    <linearGradient x1="54.1533" gradientTransform="matrix(1 0 0 -1 0.1377 94.834)" y1="34.2437" x2="47.873" gradientUnits="userSpaceOnUse" y2="46.9343" xlink:type="simple" xlink:actuate="onLoad" id="XMLID_9_" xlink:show="other">
        <stop stop-color="#b0381e" offset="0"/>
        <stop stop-color="#822519" offset="1"/>
    </linearGradient>
    <path fill="url(#XMLID_9_)" d="M 41.857 34.72 C 49.031998 31.375002 57.588997 34.489002 60.93 41.662003 L 61.358 41.462 C 57.905003 34.055 49.069 30.842003 41.659004 34.295002 C 34.253006 37.749 31.036003 46.584 34.491005 53.994003 L 34.918003 53.792004 C 31.569 46.622 34.685 38.064 41.857 34.72 z "/>
    <linearGradient x1="54.1494" gradientTransform="matrix(1 0 0 -1 0.1377 94.834)" y1="34.2427" x2="47.8693" gradientUnits="userSpaceOnUse" y2="46.9329" xlink:type="simple" xlink:actuate="onLoad" id="XMLID_10_" xlink:show="other">
        <stop stop-color="#b0381e" offset="0"/>
        <stop stop-color="#822519" offset="1"/>
    </linearGradient>
    <path fill="url(#XMLID_10_)" d="M 61.357 41.464 L 60.931 41.662003 C 64.279 48.834003 61.161 57.394005 53.992 60.736 C 46.819 64.081 38.260002 60.966 34.917 53.794 L 34.49 53.994 C 37.944 61.4 46.781002 64.619 54.189003 61.166 C 61.596 57.708 64.813 48.873 61.357 41.464 z "/>
    <rect x="50.109" width="4.097" fill="#9e6434" y="40.813" height="14.177"/>
    <rect x="50.109" width="4.097" fill="#3e2a08" y="40.808" height="0.57"/>
    <polygon fill="#3e2a08" points="50.746,54.986 50.107,54.986 50.107,40.815 50.755,40.815 "/>
    <rect x="41.799" width="4.096" fill="#9e6434" y="40.813" height="14.177"/>
    <polygon fill="#3e2a08" points="42.435,54.986 41.796,54.986 41.796,40.815 42.443,40.815 "/>
    <rect x="41.798" width="4.095" fill="#3e2a08" y="40.808" height="0.57"/>
</svg>
