<?xml version="1.0" encoding="UTF-8"?>
<svg xmlns="http://www.w3.org/2000/svg" xmlns:xlink="http://www.w3.org/1999/xlink" contentScriptType="text/ecmascript" width="20" baseProfile="tiny" zoomAndPan="magnify" contentStyleType="text/css" viewBox="0 0 20 20" height="20" preserveAspectRatio="xMidYMid meet" version="1.0">
    <path fill="#840000" d="M 11.13 15.234 C 9.824 15.234 8.842 14.818 8.185 13.986 C 7.527001 13.154 7.199001 11.788 7.199001 9.885 C 7.199001 8.181 7.53 6.901 8.192 6.0460005 C 8.854 5.191001 9.847 4.7640004 11.1710005 4.7640004 C 11.712001 4.7640004 12.255 4.8370004 12.801001 4.984 L 12.801001 6.1870003 C 12.26 6.0270004 11.777 5.9470005 11.35 5.9470005 C 10.621 5.9470005 10.077001 6.2710004 9.714001 6.920001 C 9.351001 7.5690007 9.171 8.539 9.171 9.831 C 9.171 11.334001 9.358 12.413 9.731999 13.068001 C 10.105 13.723001 10.665999 14.051001 11.412999 14.051001 C 11.848 14.051001 12.309999 13.983001 12.801999 13.845 L 12.801999 15.013 C 12.255 15.161 11.698 15.234 11.13 15.234 z "/>
</svg>
