<?xml version="1.0" encoding="UTF-8"?>
<svg xmlns="http://www.w3.org/2000/svg" xmlns:xlink="http://www.w3.org/1999/xlink" contentScriptType="text/ecmascript" width="60" baseProfile="tiny" zoomAndPan="magnify" contentStyleType="text/css" viewBox="0 0 60 60" height="60" preserveAspectRatio="xMidYMid meet" version="1.1">
    <path fill="#bf111a" d="M 33.747 24.251 C 16.705002 24.267 11.663002 34.383 11.327002 36.887 C 11.154001 38.2 10.916001 39.954 11.343001 42.092003 C 11.555001 43.149 12.329001 44.288 12.563002 44.613003 L 12.679002 44.777004 L 12.828002 44.910004 C 14.291002 46.199005 16.729002 46.666004 20.721004 46.417004 C 22.441002 46.311005 26.519005 45.874004 28.257002 44.137005 C 28.333002 44.063004 28.399002 43.987003 28.467 43.907005 L 28.592 43.752007 L 28.681002 43.57301 C 28.808002 43.32301 29.208002 42.35801 29.004002 40.592007 C 28.836002 39.109005 27.982002 37.69801 27.301004 36.74901 C 28.040005 36.01901 29.802002 34.918007 33.757004 34.854008 L 33.718 34.836006 C 37.669003 34.89901 39.434 36.01001 40.167004 36.738007 C 39.480003 37.689007 38.624004 39.10301 38.454 40.590008 C 38.257004 42.35801 38.65 43.320007 38.779003 43.572006 L 38.866005 43.752007 L 38.995007 43.904007 C 40.593006 45.836006 44.94301 46.30401 46.741005 46.417007 C 50.73201 46.662006 53.173004 46.19301 54.648006 44.89301 L 54.798008 44.76201 L 54.911007 44.598007 C 55.145008 44.27401 55.919006 43.13001 56.12801 42.077007 C 56.558006 39.933006 56.321007 38.17801 56.165005 37.014008 C 55.7 33.501 49.549 24.251 33.747 24.251 M 14.766 41.404 C 14.454 39.84 14.628 38.544 14.766 37.497 C 14.853 36.844 15.605 35.143997 17.402 33.35 C 20.087 30.662998 25.104 27.756 33.731003 27.756 C 48.147003 27.742 52.492004 35.846 52.69 37.337 C 52.846 38.522 53.024 39.817997 52.713 41.389 C 52.672 41.561 52.447 41.983 52.207 42.352 C 51.725 42.696003 50.461 43.149 46.957 42.934 C 44.223 42.762 42.492 42.182003 41.904 41.811 C 41.888 41.623 41.881 41.358 41.925 40.983 C 42.038 40.01 43.101997 38.546 43.601997 37.989 L 44.242996 37.266003 L 43.980995 36.334003 C 43.834995 35.837 42.32299 31.486004 33.779995 31.348003 L 33.75 31.348003 L 33.701 31.364004 C 28.748 31.444004 26.151 32.936005 24.819 34.268005 C 23.855 35.235004 23.548 36.118004 23.486 36.32301 L 23.207 37.262005 L 23.862 37.98901 C 24.361002 38.547005 25.423002 40.01001 25.533 40.98301 C 25.577002 41.356007 25.571 41.624004 25.555 41.813007 C 24.967 42.18401 23.241 42.764008 20.501 42.93601 C 16.998 43.14901 15.744 42.70701 15.27 42.37201 C 15.031 41.998 14.805 41.578 14.766 41.404 "/>
    <path fill="#bf111a" d="M 9.393 32.572 C 9.153999 32.201 8.927 31.780998 8.889 31.606998 C 8.577 30.043 8.751 28.746998 8.889 27.7 C 8.976 27.046 9.728 25.346998 11.525 23.551998 C 14.209 20.867 19.226 17.96 27.854 17.96 C 35.341 17.952 40.105 20.134 42.988 22.442 C 45.490997 23.099 47.679 24.003 49.564 25.058 C 47.507 20.884998 41.046 14.453999 27.869 14.453999 C 10.827 14.471 5.785 24.587 5.449 27.09 C 5.276 28.401 5.038 30.157 5.4649997 32.295 C 5.6769996 33.351997 6.4509997 34.491997 6.6849995 34.816 L 6.801 34.98 L 6.95 35.113 C 7.378 35.49 7.903 35.789 8.513 36.027 C 8.721999 35.035 9.138 33.992 9.811999 32.787 C 9.634 32.716 9.491 32.643 9.393 32.572 z "/>
    <rect width="60" fill="none" height="60"/>
</svg>
