<?xml version="1.0" encoding="UTF-8"?>
<svg xmlns="http://www.w3.org/2000/svg" xmlns:xlink="http://www.w3.org/1999/xlink" contentScriptType="text/ecmascript" width="36" baseProfile="tiny" zoomAndPan="magnify" contentStyleType="text/css" viewBox="0 0 36 36" height="36" preserveAspectRatio="xMidYMid meet" version="1.1">
    <path fill="#f6a2a0" d="M 1.093 18.001 C 1.093 27.321999 8.677 34.906 17.999 34.906 C 27.32 34.906 34.906 27.323997 34.906 18.000998 C 34.906 8.677998 27.321999 1.0929966 17.998999 1.0929966 C 8.545 1.093 1.093 8.939 1.093 18.001 z " fill-opacity="0.2"/>
    <path fill="#f6a2a0" d="M 1.714 18.001 C 1.714 26.98 9.02 34.286 17.999 34.286 C 26.98 34.286 34.285 26.981998 34.285 18.001 C 34.285 9.021 26.98 1.7139988 17.999 1.7139988 C 9.021 1.714 1.714 9.021 1.714 18.001 z " fill-opacity="0.3"/>
    <path fill="#f6a2a0" d="M 2.425 18.0 C 2.425 26.587 9.412 33.574 17.999 33.574 C 26.588001 33.574 33.574 26.587002 33.574 18.0 C 33.574 9.412 26.588001 2.4259996 17.999 2.4259996 C 9.412 2.426 2.425 9.412 2.425 18.0 z " fill-opacity="0.4"/>
    <radialGradient gradientTransform="matrix(1 0 0 -1 0.1377 34.834)" gradientUnits="userSpaceOnUse" xlink:type="simple" r="14.9839" xlink:actuate="onLoad" cx="17.8623" id="XMLID_44_" cy="16.835" xlink:show="other">
        <stop stop-color="#b3ddff" offset="0"/>
        <stop stop-color="#ffffff" offset="0.01"/>
        <stop stop-color="#f2d4e0" offset="0.41"/>
        <stop stop-color="#f6a2a0" offset="0.81"/>
        <stop stop-color="#f6a2a0" offset="1"/>
    </radialGradient>
    <path fill="url(#XMLID_44_)" d="M 17.999 3.016 C 9.737 3.016 3.016 9.738 3.016 18.0 C 3.016 26.262001 9.737 32.982002 17.999 32.982002 C 26.262001 32.982002 32.984 26.261002 32.984 18.000002 C 32.984 9.738 26.262 3.016 17.999 3.016 z "/>
    <linearGradient x1="17.8628" gradientTransform="matrix(1 0 0 -1 0.1377 34.834)" y1="31.5449" x2="17.8628" gradientUnits="userSpaceOnUse" y2="2.1554" xlink:type="simple" xlink:actuate="onLoad" id="XMLID_45_" xlink:show="other">
        <stop stop-color="#b0381e" offset="0"/>
        <stop stop-color="#822519" offset="1"/>
    </linearGradient>
    <path fill="url(#XMLID_45_)" d="M 18.0 3.016 C 9.737 3.016 3.016 9.738 3.016 18.0 C 3.016 26.262001 9.737 32.982002 17.999 32.982002 C 26.262001 32.982002 32.984 26.261002 32.984 18.000002 C 32.984 9.738 26.262 3.016 18.0 3.016 z M 18.0 32.168 C 10.174 32.168 3.8339996 25.827 3.8339996 18.001 C 3.8339996 10.176 10.174 3.8319998 18.0 3.8319998 C 25.825 3.8319998 32.167 10.176 32.167 18.001 C 32.167 25.827 25.824 32.168 18.0 32.168 z " fill-opacity="0.5"/>
    <linearGradient x1="17.8628" gradientTransform="matrix(1 0 0 -1 0.1377 34.834)" y1="33.7139" x2="17.8628" gradientUnits="userSpaceOnUse" y2="-4.7355" xlink:type="simple" xlink:actuate="onLoad" id="XMLID_46_" xlink:show="other">
        <stop stop-color="#ffffff" offset="0"/>
        <stop stop-color="#b0381e" offset="1"/>
    </linearGradient>
    <circle fill="url(#XMLID_46_)" r="14.169" fill-opacity="0.5" cx="18" cy="18"/>
    <path d="M 17.496 7.805 C 12.505 7.805 8.128 11.87 8.128 17.17 C 8.128 22.337 12.331 26.542 17.496 26.542 C 22.663 26.542 26.866001 22.337 26.866001 17.17 C 26.865 11.944 22.686 7.805 17.496 7.805 z M 10.234 14.03 C 17.672 11.749 17.109001 10.592 16.55 9.299 C 17.505999 9.186999 18.216 9.216 19.125 9.407 C 19.08 10.073999 20.366 11.424999 20.078 11.844 C 18.453 11.719 16.699 12.453 15.653999 14.363 C 15.534999 14.584 15.639999 16.063 15.483999 16.063 C 14.827 16.063 13.796 17.344 15.334 17.605 C 16.723 16.285 16.328 16.063 18.685999 17.605 C 19.174 17.715 19.161999 16.39 20.086998 16.741999 C 21.921997 17.439 20.202997 19.063 18.362999 18.468998 C 14.261999 16.030998 12.483999 20.156998 13.4 21.611998 C 14.157 23.017998 15.888 22.586998 16.861 22.904997 C 17.502 23.119997 17.776001 24.302998 17.888 25.091997 C 12.046 25.688 7.89 19.124 10.234 14.03 z M 21.744 23.865 C 21.800999 23.72 23.548 20.638 23.673 19.337 C 23.782 18.254 22.777 16.949 24.432001 17.496 C 24.731 17.594 25.012001 18.371 25.319 18.454 C 24.947 20.727 23.613 22.674 21.744 23.865 z " fill-opacity="0.6"/>
    <path fill="#f6a2a0" d="M 5.152 17.163 C 5.152 23.984001 10.7 29.535 17.52 29.535 C 24.436 29.535 29.891 23.682999 29.891 17.163 C 29.891 9.96 23.795 4.7980003 17.52 4.7980003 C 11.158 4.798 5.152 10.054 5.152 17.163 z " fill-opacity="0.1"/>
    <path fill="#f6a2a0" d="M 6.152 17.163 C 6.152 23.434 11.252 28.535 17.52 28.535 C 23.466 28.535 28.891 23.654 28.891 17.163 C 28.891 10.842 23.571001 5.7980003 17.52 5.7980003 C 11.842 5.798 6.152 10.379 6.152 17.163 z " fill-opacity="0.2"/>
    <path fill="#f6a2a0" d="M 7.152 17.163 C 7.152 22.882 11.8029995 27.535 17.52 27.535 C 21.936 27.535 27.891 23.933 27.891 17.163 C 27.891 11.212 22.86 6.7980003 17.52 6.7980003 C 12.555 6.798 7.152 10.822 7.152 17.163 z " fill-opacity="0.3"/>
</svg>
