<?xml version="1.0" encoding="UTF-8"?>
<svg xmlns="http://www.w3.org/2000/svg" xmlns:xlink="http://www.w3.org/1999/xlink" contentScriptType="text/ecmascript" width="43.939" baseProfile="tiny" zoomAndPan="magnify" contentStyleType="text/css" viewBox="0 0 43.939 43.945" height="43.945" preserveAspectRatio="xMidYMid meet" version="1.1">
    <g>
        <g>
            <linearGradient x1="-8.0232" y1="-7.2556" x2="26.0443" gradientUnits="userSpaceOnUse" y2="37.5412" xlink:type="simple" xlink:actuate="onLoad" id="XMLID_10_" xlink:show="other">
                <stop stop-color="#f1de84" offset="0"/>
                <stop stop-color="#b0381e" offset="0.5"/>
                <stop stop-color="#5c1001" offset="1"/>
            </linearGradient>
            <path fill="url(#XMLID_10_)" d="M 9.649 1.733 L 9.649 42.333 L 34.289 22.032 L 9.649 1.733 z M 26.373 23.812 L 25.861 25.723 L 21.806 25.724 L 20.755 29.641 L 18.776 29.641 L 19.825998 25.724 L 17.700998 25.724998 L 16.651 29.641 L 14.671999 29.641 L 15.722999 25.724998 L 11.666998 25.725998 L 12.181998 23.813995 L 16.235998 23.812998 L 16.785995 21.759998 L 12.7319975 21.760998 L 13.243998 19.848995 L 17.3 19.848995 L 18.349998 15.933997 L 20.329 15.933997 L 19.28 19.849997 L 21.405 19.848995 L 22.454 15.933997 L 24.433 15.933997 L 23.381998 19.848995 L 27.437998 19.848995 L 26.923998 21.757998 L 22.868998 21.759998 L 22.318998 23.812998 L 26.373 23.812 z M 18.216 23.813 L 20.341 23.813 L 20.893 21.76 L 18.768 21.76 L 18.216 23.813 z "/>
        </g>
    </g>
</svg>
