<?xml version="1.0" encoding="UTF-8"?>
<svg xmlns="http://www.w3.org/2000/svg" xmlns:xlink="http://www.w3.org/1999/xlink" contentScriptType="text/ecmascript" width="20" baseProfile="tiny" zoomAndPan="magnify" contentStyleType="text/css" viewBox="0 0 20 20" height="20" preserveAspectRatio="xMidYMid meet" version="1.0">
    <path fill="#840000" d="M 10.045 4.766 C 11.104 4.766 11.903 5.1419997 12.443 5.894 C 12.984 6.645 13.255 7.972 13.255 9.873 C 13.255 11.958 12.981 13.373 12.434 14.118 C 11.886 14.862 11.079 15.235 10.01 15.235 C 9.075 15.235 8.369 14.987 7.893 14.492 C 7.416001 13.997999 7.106 13.372 6.962 12.615999 C 6.817 11.858999 6.745 10.945 6.745 9.872999 C 6.745 8.007999 7.022 6.689999 7.577 5.9209995 C 8.131 5.15 8.954 4.766 10.045 4.766 z M 9.996 14.094 C 10.464001 14.094 10.807 13.832 11.024 13.307 C 11.241 12.783 11.35 11.6380005 11.35 9.873 C 11.35 8.178 11.238 7.093001 11.0130005 6.618 C 10.788 6.144 10.450001 5.907 9.995001 5.907 C 9.583001 5.907 9.279001 6.072 9.085001 6.402 C 8.891 6.731 8.77 7.162 8.722 7.694 C 8.673 8.226 8.649 8.952 8.649 9.873 C 8.649 11.687 8.7560005 12.845 8.971 13.345 C 9.188 13.844 9.529 14.094 9.996 14.094 z "/>
</svg>
