<?xml version="1.0" encoding="UTF-8"?>
<svg xmlns="http://www.w3.org/2000/svg" xmlns:xlink="http://www.w3.org/1999/xlink" contentScriptType="text/ecmascript" width="20" baseProfile="tiny" zoomAndPan="magnify" contentStyleType="text/css" viewBox="0 0 20 20" height="20" preserveAspectRatio="xMidYMid meet" version="1.0">
    <path fill="#840000" d="M 7.883 9.13 C 9.23 9.13 10.071 8.992001 10.405 8.718 C 10.738999 8.443001 10.907 8.021 10.907 7.4520006 C 10.907 6.953001 10.771999 6.5770006 10.504999 6.325001 C 10.235999 6.073001 9.836999 5.947001 9.305999 5.947001 C 8.837998 5.947001 8.179998 6.064001 7.331999 6.298001 L 7.318 6.298001 L 7.318 5.088001 C 8.18 4.872 8.959 4.765 9.656 4.765 C 10.705 4.765 11.493 4.976 12.02 5.398 C 12.547001 5.8199997 12.81 6.4519997 12.81 7.294 C 12.81 7.876 12.652 8.377 12.336 8.797 C 12.02 9.216 11.565001 9.513 10.975 9.687 C 11.617001 9.802 12.108001 10.071 12.450001 10.495 C 12.791 10.919 12.962001 11.448999 12.962001 12.087 C 12.962001 13.136 12.656001 13.923 12.045001 14.448 C 11.433001 14.972 10.516001 15.235 9.291001 15.235 C 8.559001 15.235 7.807001 15.127 7.0370016 14.912 L 7.0370016 13.716 L 7.0510015 13.716 C 7.949002 13.941 8.6570015 14.053 9.175001 14.053 C 9.798001 14.053 10.267001 13.896 10.580001 13.582 C 10.894001 13.268 11.051001 12.797 11.051001 12.169 C 11.051001 11.495999 10.863001 11.012 10.488001 10.719 C 10.113001 10.426 9.244001 10.28 7.884001 10.28 L 7.884001 9.13 z "/>
</svg>
