<?xml version="1.0" encoding="UTF-8"?>
<svg xmlns="http://www.w3.org/2000/svg" xmlns:xlink="http://www.w3.org/1999/xlink" contentScriptType="text/ecmascript" width="100" baseProfile="tiny" zoomAndPan="magnify" contentStyleType="text/css" viewBox="861.132 -185.582 100 69.047" height="69.047" preserveAspectRatio="xMidYMid meet" version="1.1">
    <g>
        <g>
            <linearGradient x1="848.5339" gradientTransform="matrix(1 0 0 -1 111.1777 -1856.2871)" y1="-1705.6616" x2="732.9322" gradientUnits="userSpaceOnUse" y2="-1671.0961" xlink:type="simple" xlink:actuate="onLoad" id="XMLID_13_" xlink:show="other">
                <stop stop-color="#b3ddff" offset="0"/>
                <stop stop-color="#f1de84" offset="0.0337"/>
                <stop stop-color="#c1a15b" offset="0.5"/>
                <stop stop-color="#ad832f" offset="1"/>
            </linearGradient>
            <path fill="url(#XMLID_13_)" d="M 892.901 -178.586 C 909.48303 -186.97 926.069 -169.818 942.655 -178.401 C 942.655 -168.181 942.655 -157.963 942.655 -147.742 C 926.06903 -139.16 909.48505 -156.309 892.901 -147.92601 C 892.901 -158.146 892.901 -168.365 892.901 -178.586 z "/>
        </g>
        <g>
            <linearGradient x1="778.1398" gradientTransform="matrix(1 0 0 -1 111.1777 -1856.2871)" y1="-1696.999" x2="786.1921" gradientUnits="userSpaceOnUse" y2="-1696.999" xlink:type="simple" xlink:actuate="onLoad" id="XMLID_14_" xlink:show="other">
                <stop stop-color="#e0bc6c" offset="0"/>
                <stop stop-color="#7f3c21" offset="1"/>
            </linearGradient>
            <rect x="890.603" width="2.802" fill="url(#XMLID_14_)" y="-181.838" height="45.1"/>
            <radialGradient gradientTransform="matrix(1 0 0 -1 111.1777 -1856.2871)" gradientUnits="userSpaceOnUse" xlink:type="simple" r="6.9299" xlink:actuate="onLoad" cx="778.3176" id="XMLID_15_" cy="-1671.9409" xlink:show="other">
                <stop stop-color="#e0bc6c" offset="0"/>
                <stop stop-color="#7f3c21" offset="1"/>
            </radialGradient>
            <circle fill="url(#XMLID_15_)" r="2.276" cx="892.003" cy="-181.604"/>
            <radialGradient gradientTransform="matrix(1 0 0 -1 111.1777 -1856.2871)" gradientUnits="userSpaceOnUse" xlink:type="simple" r="2.3931" xlink:actuate="onLoad" cx="780.3293" id="XMLID_16_" cy="-1673.2251" xlink:show="other">
                <stop stop-color="#e0bc6c" offset="0"/>
                <stop stop-color="#7f3c21" offset="1"/>
            </radialGradient>
            <ellipse rx="1.633" ry="0.854" fill="url(#XMLID_16_)" cx="891.987" cy="-182.836"/>
        </g>
    </g>
    <g>
        <g>
            <linearGradient x1="848.8" gradientTransform="matrix(1 0 0 -1 111.1777 -1856.2871)" y1="-1706.9741" x2="754.1442" gradientUnits="userSpaceOnUse" y2="-1685.0311" xlink:type="simple" xlink:actuate="onLoad" id="XMLID_17_" xlink:show="other">
                <stop stop-color="#b0381e" offset="0"/>
                <stop stop-color="#5c1001" offset="1"/>
            </linearGradient>
            <path fill="url(#XMLID_17_)" d="M 898.656 -173.185 C 915.2381 -181.568 931.822 -164.41699 948.408 -172.999 C 948.408 -162.77899 948.408 -152.56099 948.408 -142.34099 C 931.822 -133.75699 915.2381 -150.90898 898.656 -142.52599 C 898.656 -152.748 898.656 -162.965 898.656 -173.185 z "/>
        </g>
        <g>
            <linearGradient x1="783.8976" gradientTransform="matrix(1 0 0 -1 111.1777 -1856.2871)" y1="-1699.6494" x2="791.95" gradientUnits="userSpaceOnUse" y2="-1699.6494" xlink:type="simple" xlink:actuate="onLoad" id="XMLID_18_" xlink:show="other">
                <stop stop-color="#e0bc6c" offset="0"/>
                <stop stop-color="#7f3c21" offset="1"/>
            </linearGradient>
            <rect x="896.36" width="2.801" fill="url(#XMLID_18_)" y="-176.437" height="39.598"/>
            <radialGradient gradientTransform="matrix(1 0 0 -1 111.1777 -1856.2871)" gradientUnits="userSpaceOnUse" xlink:type="simple" r="6.9342" xlink:actuate="onLoad" cx="784.0724" id="XMLID_19_" cy="-1677.3413" xlink:show="other">
                <stop stop-color="#e0bc6c" offset="0"/>
                <stop stop-color="#7f3c21" offset="1"/>
            </radialGradient>
            <circle fill="url(#XMLID_19_)" r="2.275" cx="897.759" cy="-176.205"/>
            <radialGradient gradientTransform="matrix(1 0 0 -1 111.1777 -1856.2871)" gradientUnits="userSpaceOnUse" xlink:type="simple" r="2.3945" xlink:actuate="onLoad" cx="786.0851" id="XMLID_20_" cy="-1678.6235" xlink:show="other">
                <stop stop-color="#e0bc6c" offset="0"/>
                <stop stop-color="#7f3c21" offset="1"/>
            </radialGradient>
            <ellipse rx="1.635" ry="0.853" fill="url(#XMLID_20_)" cx="897.742" cy="-177.436"/>
        </g>
    </g>
    <g>
        <g>
            <g>
                <path fill="#8e6f3a" d="M 905.151 -168.305 C 921.735 -176.688 938.319 -159.53499 954.905 -168.119 C 954.905 -157.89899 954.905 -147.68098 954.905 -137.46098 C 938.31903 -128.87898 921.73505 -146.02698 905.151 -137.64899 C 905.151 -147.865 905.151 -158.084 905.151 -168.305 z "/>
                <path fill="#ffffff" d="M 954.786 -167.924 C 953.278 -167.15 951.917 -166.653 950.411 -166.262 C 944.815 -161.582 939.1941 -159.43199 933.598 -157.57999 C 933.598 -160.81299 933.51605 -163.94598 933.51605 -167.18199 C 931.223 -167.74199 928.98206 -168.31898 926.69104 -168.888 C 926.69104 -165.49799 926.71906 -162.26799 926.71906 -158.87898 C 920.7991 -163.81699 915.19305 -167.99998 909.27106 -169.763 C 907.9451 -169.373 906.66 -168.96898 905.3331 -168.276 C 905.3001 -166.72998 905.32306 -165.44598 905.2901 -163.89899 C 909.726 -163.66699 913.749 -161.52798 918.1861 -158.581 C 913.827 -158.97 909.6101 -158.50299 905.247 -156.286 C 905.247 -153.99199 905.294 -151.75099 905.294 -149.458 C 909.452 -151.57399 913.427 -152.04799 917.589 -151.75099 C 913.407 -149.64499 909.362 -146.71599 905.183 -142.17099 C 905.22 -140.661 905.12 -139.161 905.157 -137.65 C 906.48 -138.314 907.776 -138.943 909.10095 -139.304 C 914.9639 -144.372 920.864 -146.63 926.72394 -148.60901 C 926.72394 -145.10901 926.7429 -141.97801 926.7429 -138.47601 C 929.036 -137.906 931.2739 -137.28601 933.5669 -136.72401 C 933.5669 -140.07202 933.6029 -143.03601 933.6029 -146.38002 C 939.1439 -141.84102 944.6789 -137.72601 950.2179 -135.93703 C 951.7239 -136.32202 953.2299 -136.87503 954.7389 -137.64403 C 954.7259 -138.93903 954.7179 -140.23602 954.7139 -141.53102 C 950.3639 -141.88002 946.01886 -143.98402 941.6669 -146.91902 C 946.0669 -146.52303 950.3509 -146.97902 954.7489 -149.24202 C 954.7489 -151.53403 954.7058 -153.77702 954.7058 -156.06902 C 950.1068 -153.70201 945.6789 -153.36502 941.0808 -153.85301 C 945.6848 -156.05801 950.1438 -159.098 954.7489 -164.16602 C 954.751 -165.465 954.778 -166.619 954.786 -167.924 z "/>
                <path fill="#b0381e" d="M 936.556 -149.002 C 942.593 -147.754 948.632 -147.414 954.671 -150.453 C 954.671 -151.881 954.671 -153.31 954.671 -154.739 C 947.208 -150.985 939.745 -152.39099 932.2821 -154.289 C 932.2821 -158.787 932.288 -162.9 932.288 -167.398 C 930.8601 -167.76 929.34503 -168.125 927.911 -168.492 C 927.911 -163.99399 927.997 -159.89899 927.997 -155.4 C 920.46 -157.336 912.919 -158.86 905.382 -155.157 C 905.382 -153.728 905.382 -152.299 905.382 -150.871 C 912.919 -154.572 920.46 -153.049 927.997 -151.113 C 927.997 -146.668 928.00104 -142.522 928.00104 -138.076 C 929.431 -137.709 930.7741 -137.431 932.202 -137.06801 C 932.202 -141.51501 932.2821 -145.55602 932.2821 -150.00201 C 932.80304 -149.86902 933.32306 -149.738 933.84503 -149.613 C 940.81903 -143.759 947.78406 -138.623 954.75903 -138.00601 C 954.716 -138.53902 954.671 -139.07 954.62805 -139.60802 C 948.605 -140.195 942.581 -144.148 936.556 -149.002 z M 923.685 -157.156 C 917.501 -162.48401 911.51697 -166.957 905.331 -167.836 C 905.286 -167.127 905.286 -166.443 905.243 -165.734 C 910.673 -165.21399 915.847 -161.88199 921.276 -157.65999 C 922.081 -157.512 922.884 -157.342 923.685 -157.156 z M 954.786 -167.836 C 953.9701 -167.408 953.374 -167.183 952.554 -166.873 C 946.112 -160.36101 939.632 -157.541 933.18304 -155.057 C 934.0361 -154.83 934.8761 -154.617 935.7221 -154.414 C 942.142 -157.105 948.367 -160.381 954.786 -167.836 z M 905.245 -137.812 C 906.093 -138.228 906.829 -138.549 907.675 -138.838 C 914.095 -145.237 920.49097 -148.054 926.911 -150.545 C 926.09503 -150.75 925.274 -150.94699 924.4541 -151.131 C 918.007 -148.494 911.695 -145.174 905.245 -137.812 z "/>
            </g>
            <g>
                <linearGradient x1="789.8723" gradientTransform="matrix(1 0 0 -1 111.1777 -1856.2871)" y1="-1703.5498" x2="797.9276" gradientUnits="userSpaceOnUse" y2="-1703.5498" xlink:type="simple" xlink:actuate="onLoad" id="XMLID_21_" xlink:show="other">
                    <stop stop-color="#e0bc6c" offset="0"/>
                    <stop stop-color="#7f3c21" offset="1"/>
                </linearGradient>
                <rect x="902.333" width="2.803" fill="url(#XMLID_21_)" y="-171.557" height="37.639"/>
                <radialGradient gradientTransform="matrix(1 0 0 -1 111.1777 -1856.2871)" gradientUnits="userSpaceOnUse" xlink:type="simple" r="6.9318" xlink:actuate="onLoad" cx="790.05" id="XMLID_22_" cy="-1682.2188" xlink:show="other">
                    <stop stop-color="#e0bc6c" offset="0"/>
                    <stop stop-color="#7f3c21" offset="1"/>
                </radialGradient>
                <circle fill="url(#XMLID_22_)" r="2.276" cx="903.737" cy="-171.323"/>
                <radialGradient gradientTransform="matrix(1 0 0 -1 111.1777 -1856.2871)" gradientUnits="userSpaceOnUse" xlink:type="simple" r="2.394" xlink:actuate="onLoad" cx="792.0617" id="XMLID_23_" cy="-1683.5044" xlink:show="other">
                    <stop stop-color="#e0bc6c" offset="0"/>
                    <stop stop-color="#7f3c21" offset="1"/>
                </radialGradient>
                <ellipse rx="1.633" ry="0.854" fill="url(#XMLID_23_)" cx="903.72" cy="-172.556"/>
            </g>
        </g>
        <linearGradient x1="793.9035" gradientTransform="matrix(1 0 0 -1 111.1777 -1856.2871)" y1="-1703.5781" x2="843.6574" gradientUnits="userSpaceOnUse" y2="-1703.5781" xlink:type="simple" xlink:actuate="onLoad" id="XMLID_24_" xlink:show="other">
            <stop stop-color="#ffffff" offset="0"/>
            <stop stop-color="#ffffff" offset="0.309"/>
            <stop stop-color="#fcfcfc" offset="0.3098"/>
            <stop stop-color="#c2c2c2" offset="0.3259"/>
            <stop stop-color="#8f8f8f" offset="0.3423"/>
            <stop stop-color="#646464" offset="0.3589"/>
            <stop stop-color="#404040" offset="0.3755"/>
            <stop stop-color="#252525" offset="0.3922"/>
            <stop stop-color="#111111" offset="0.4091"/>
            <stop stop-color="#060606" offset="0.4261"/>
            <stop stop-color="#020202" offset="0.4438"/>
            <stop stop-color="#8c8c8c" offset="0.7079"/>
            <stop stop-color="#a9a9a9" offset="0.7245"/>
            <stop stop-color="#c4c4c4" offset="0.7442"/>
            <stop stop-color="#dadada" offset="0.7669"/>
            <stop stop-color="#ebebeb" offset="0.7934"/>
            <stop stop-color="#f6f6f6" offset="0.8262"/>
            <stop stop-color="#fdfdfd" offset="0.8723"/>
            <stop stop-color="#ffffff" offset="1"/>
        </linearGradient>
        <path fill="url(#XMLID_24_)" d="M 905.081 -168.181 C 921.665 -176.564 938.249 -159.412 954.835 -167.996 C 954.835 -157.77501 954.835 -147.558 954.835 -137.336 C 938.249 -128.754 921.66504 -145.90399 905.081 -137.524 C 905.081 -147.742 905.081 -157.961 905.081 -168.181 z " fill-opacity="0.25"/>
    </g>
    <g>
        <g>
            <g>
                <path fill="#ffffff" d="M 876.036 -144.248 C 872.565 -144.248 867.815 -143.426 866.612 -136.31 L 866.427 -135.236 C 866.427 -135.236 874.415 -135.236 875.365 -135.236 C 875.65 -134.71599 876.082 -133.95999 876.344 -133.46399 C 876.073 -132.98099 875.652 -132.204 875.365 -131.693 C 874.418 -131.693 866.427 -131.693 866.427 -131.693 L 866.612 -130.624 C 867.815 -123.50499 872.565 -122.68599 876.036 -122.68599 C 878.765 -122.68599 881.208 -124.97899 883.16504 -126.82799 C 884.226 -127.82799 885.22406 -128.76599 885.75305 -128.76599 L 910.228 -128.76599 L 910.50104 -129.06898 C 911.02606 -129.64499 912.247 -131.22499 912.272 -133.44199 L 912.272 -133.50899 C 912.247 -135.72899 911.0241 -137.30699 910.50104 -137.88399 L 910.228 -138.18799 L 885.749 -138.18799 C 885.224 -138.18799 884.224 -139.12599 883.169 -140.122 C 881.206 -141.953 878.771 -144.248 876.036 -144.248 z "/>
                <path fill="#6e8489" d="M 911.358 -133.457 C 911.358 -133.465 911.36 -133.478 911.36 -133.48601 L 911.35297 -133.48601 C 911.33295 -135.414 910.2259 -136.80602 909.819 -137.25 C 909.30194 -137.25 885.75494 -137.25 885.75494 -137.25 C 884.85895 -137.25 883.892 -138.168 882.5399 -139.438 C 880.6959 -141.167 878.4129 -143.334 876.04193 -143.334 C 872.1879 -143.334 868.5479 -142.199 867.5239 -136.158 C 868.9699 -136.158 875.91693 -136.158 875.91693 -136.158 L 877.4129 -133.46501 L 875.91693 -130.77701 C 875.91693 -130.77701 868.976 -130.77701 867.5239 -130.77701 C 868.5449 -124.73401 872.18695 -123.59901 876.04193 -123.59901 C 878.4129 -123.59901 880.69794 -125.75101 882.5399 -127.49501 C 883.8919 -128.764 884.8579 -129.682 885.75494 -129.682 C 885.75494 -129.682 909.3079 -129.682 909.819 -129.682 C 910.2259 -130.12401 911.337 -131.52 911.35297 -133.45001 L 911.36 -133.45001 C 911.36 -133.437 911.358 -133.449 911.358 -133.457 z "/>
            </g>
        </g>
        <g>
            <rect x="861.132" width="100" fill="none" y="-185.582" height="69.047"/>
        </g>
    </g>
</svg>
