<?xml version="1.0" encoding="UTF-8"?>
<svg xmlns="http://www.w3.org/2000/svg" xmlns:xlink="http://www.w3.org/1999/xlink" contentScriptType="text/ecmascript" width="84" baseProfile="tiny" zoomAndPan="magnify" contentStyleType="text/css" viewBox="0 0 84 58" height="58" preserveAspectRatio="xMidYMid meet" version="1.1">
    <g>
        <g>
            <g>
                <path fill="#ffffff" d="M 66.443 26.663 C 65.085 18.926 62.374 12.867001 54.458 8.549999 C 49.779 6.001999 40.173 4.4709992 40.173 4.4709992 L 32.944 6.7659993 L 32.944 49.536 L 43.404 52.934998 C 44.677 53.190998 54.967 54.635 59.642 50.724 C 65.938 46.303 67.809 34.4 66.443 26.663 z M 50.717 39.757 L 47.316998 38.906 L 47.316998 19.945 C 50.293 21.389 51.312996 25.386 51.821 27.681 C 52.333 29.979 51.99 38.396 50.717 39.757 z "/>
                <linearGradient x1="34.0732" y1="28.6479" x2="65.1318" gradientUnits="userSpaceOnUse" y2="28.6479" xlink:type="simple" xlink:actuate="onLoad" id="XMLID_3_" xlink:show="other">
                    <stop stop-color="#704d18" offset="0"/>
                    <stop stop-color="#9e6434" offset="0.5"/>
                    <stop stop-color="#7f3c21" offset="1"/>
                </linearGradient>
                <path fill="url(#XMLID_3_)" d="M 34.073 7.298 L 40.093002 5.33 C 40.093002 5.33 51.246002 7.222 55.319 10.361 C 59.954002 13.934999 63.979 17.566 64.985 28.765 C 65.756004 37.32 63.264 43.593 63.264 43.593 C 59.028 52.598 53.729 52.199997 44.594 51.802 L 34.073 7.298 z "/>
                <linearGradient x1="45.082" gradientTransform="matrix(1 0 0 -1 0 57)" y1="38.7813" x2="46.4991" gradientUnits="userSpaceOnUse" y2="14.5299" xlink:type="simple" xlink:actuate="onLoad" id="XMLID_4_" xlink:show="other">
                    <stop stop-color="#704d18" offset="0"/>
                    <stop stop-color="#311904" offset="1"/>
                </linearGradient>
                <polygon fill="url(#XMLID_4_)" points="46.479,39.828 46.58,39.756 46.634,16.878 41.12,16.853 41.117,43.445 48.467,45.172      51.852,40.977    "/>
                <path fill="#e0bc6c" d="M 56.313 18.176 C 53.34 13.859001 49.19 11.022001 43.969 9.738001 L 34.073 7.2990007 L 34.170002 48.718 L 42.148003 51.338997 C 54.58 54.4 60.033 48.4 60.505 33.508 C 60.689 27.658 59.275 22.504 56.313 18.176 z M 50.031 42.135 C 48.271 44.217 47.052 44.866997 44.064 44.134 C 43.097 43.895 42.216 43.619 41.369 43.329998 L 41.12 16.853 C 50.134 18.338001 53.183 23.756 52.919 32.082 C 52.773 36.656 51.807 40.035 50.031 42.135 z "/>
                <rect width="84" fill="none" height="58"/>
                <g>
                    <path fill="#ffffff" d="M 13.257 34.176 C 10.378 34.176 6.433 34.86 5.433 40.767998 L 5.283 41.661 C 5.283 41.661 11.918 41.661 12.705 41.661 C 12.943 42.087997 13.297 42.726997 13.523 43.135998 C 13.296 43.544 12.943 44.183 12.705 44.608997 C 11.918 44.608997 5.283 44.608997 5.283 44.608997 L 5.433 45.502 C 6.433 51.409 10.378 52.093 13.257 52.093 C 15.528 52.093 17.55 50.19 19.177 48.656 C 20.056 47.829 20.884 47.05 21.323 47.05 L 41.641 47.05 L 41.865997 46.8 C 42.304996 46.321 43.317997 45.009 43.340996 43.169 L 43.340996 43.106 C 43.319996 41.264 42.305996 39.954998 41.865997 39.473 L 41.641 39.225 L 21.323 39.225 C 20.884 39.225 20.055 38.446 19.178 37.621 C 17.55 36.082 15.528 34.176 13.257 34.176 z "/>
                    <path fill="#0046b7" d="M 42.577 43.134 C 42.577 43.125 42.581 43.118 42.581 43.112 L 42.575 43.112 C 42.556 41.51 41.639 40.354 41.304 39.985 C 40.874 39.985 21.324001 39.985 21.324001 39.985 C 20.580002 39.985 19.773 39.223 18.652 38.171 C 17.127 36.733 15.226 34.942 13.257 34.942 C 10.062 34.942 7.036 35.88 6.189 40.897003 C 7.3900003 40.897003 13.156 40.897003 13.156 40.897003 L 14.394 43.134003 L 13.156 45.371002 C 13.156 45.371002 7.3900003 45.371002 6.189 45.371002 C 7.037 50.389004 10.062 51.325 13.257 51.325 C 15.226 51.325 17.126 49.535 18.652 48.097 C 19.773 47.043 20.58 46.283 21.324001 46.283 C 21.324001 46.283 40.875 46.283 41.304 46.283 C 41.64 45.914 42.558002 44.758 42.575 43.156002 L 42.581 43.156002 C 42.581 43.148 42.577 43.143 42.577 43.134 z "/>
                </g>
            </g>
        </g>
        <g>
            <path fill="#ffffff" d="M 13.605 34.4 C 10.823999 34.4 7.0129995 35.06 6.0479994 40.785004 L 5.9029994 41.646004 C 5.9029994 41.646004 12.309 41.646004 13.068999 41.646004 C 13.297999 42.062004 13.640999 42.679005 13.857999 43.076004 C 13.640999 43.469006 13.297998 44.086002 13.068999 44.504005 C 12.308999 44.504005 5.9029994 44.504005 5.9029994 44.504005 L 6.0479994 45.365005 C 7.0129995 51.086006 10.823 51.750008 13.605 51.750008 C 15.796999 51.750008 17.751 49.904007 19.321 48.420006 C 20.171999 47.619007 20.970999 46.865005 21.394 46.865005 L 41.017998 46.865005 L 41.238 46.623005 C 41.659 46.158005 42.638 44.889004 42.66 43.105003 L 42.66 43.042004 C 42.639 41.261005 41.659 39.989002 41.238 39.526005 L 41.017998 39.284004 L 21.395 39.284004 C 20.972 39.284004 20.17 38.530003 19.325 37.729004 C 17.752 36.244 15.799 34.4 13.605 34.4 z "/>
            <path fill="#6e8489" d="M 41.924 43.076 C 41.924 43.068 41.926 43.058 41.926 43.053 L 41.921997 43.053 C 41.902996 41.504 41.017 40.385002 40.690998 40.028 C 40.278 40.028 21.394999 40.028 21.394999 40.028 C 20.675999 40.028 19.898998 39.288 18.814999 38.27 C 17.342 36.875 15.505999 35.141 13.605999 35.141 C 10.519999 35.141 7.595999 36.049 6.777999 40.909 C 7.937999 40.909 13.506999 40.909 13.506999 40.909 L 14.701999 43.077 L 13.506999 45.241 C 13.506999 45.241 7.938999 45.241 6.777999 45.241 C 7.595999 50.100002 10.517999 51.011 13.605999 51.011 C 15.505999 51.011 17.342 49.277 18.814999 47.884003 C 19.898998 46.864002 20.678 46.124004 21.394999 46.124004 C 21.394999 46.124004 40.278 46.124004 40.690998 46.124004 C 41.017 45.769005 41.904 44.647003 41.921997 43.099003 L 41.926 43.099003 C 41.926 43.09 41.924 43.082 41.924 43.076 z "/>
        </g>
    </g>
</svg>
