<?xml version="1.0" encoding="UTF-8"?>
<svg xmlns="http://www.w3.org/2000/svg" xmlns:xlink="http://www.w3.org/1999/xlink" contentScriptType="text/ecmascript" width="100" baseProfile="tiny" zoomAndPan="magnify" contentStyleType="text/css" viewBox="-0.174 -0.197 100 69" height="69" preserveAspectRatio="xMidYMid meet" version="1.1">
    <rect x="0" width="100.001" fill="none" y="0" height="69.047"/>
    <path fill="#ffffff" d="M 35.258 13.348 L 35.258 13.348 C 35.347 13.403 35.476 13.474999 35.653 13.563 L 35.653 13.563 C 36.133 13.806 36.98 14.172999 38.398 14.645 L 38.398 14.645 C 39.417 14.985999 40.125 15.106 40.619 15.106 L 40.619 15.106 C 41.162 15.102 41.447 14.977 41.715 14.802 L 41.715 14.802 L 42.212 14.877 C 43.151 16.024 44.297 18.008 44.297 20.812 L 44.297 20.812 C 44.297 22.475 43.894 24.416 42.827 26.629 L 42.827 26.629 C 38.693 35.131 35.383 34.406 35.256 41.835 L 35.256 41.835 C 35.145 47.062 33.432 48.066 32.956 48.191 L 32.956 48.191 C 32.79 48.224 32.483 48.254 32.094 48.254 L 32.094 48.254 C 31.835 48.254 31.552002 48.238 31.277002 48.191 L 31.277002 48.191 C 31.009005 48.162 30.270002 48.059 29.816002 47.211 L 29.816002 47.211 C 29.346004 46.379 29.008 44.91 28.950005 42.023 L 28.950005 42.023 C 28.823002 34.594 25.512005 35.321 21.379002 26.815 L 21.379002 26.815 C 20.311 24.606 19.907 22.661 19.907 20.999 L 19.907 20.999 C 19.907 18.068998 21.157 16.033998 22.119 14.913999 L 22.119 14.913999 L 22.6 14.84 C 22.848 14.992001 23.126 15.102 23.633 15.104 L 23.633 15.104 C 24.127 15.104 24.833 14.983 25.852 14.645 L 25.852 14.645 C 27.790998 14.0 28.661 13.551001 28.992 13.35 L 28.992 13.35 C 28.943998 13.09 28.888998 12.647 28.888998 11.968 L 28.888998 11.968 C 28.888998 11.918 28.886995 11.857 28.888998 11.803 L 28.888998 11.803 C 28.896996 11.086 28.958998 10.614 29.014996 10.328 L 29.014996 10.328 C 28.530998 10.12 27.493998 9.698 26.410995 9.404 L 26.410995 9.404 C 24.888998 8.987 23.514996 8.7890005 22.980995 8.785 L 22.980995 8.785 C 22.967997 8.787 22.960997 8.785 22.958998 8.785 L 22.958998 8.785 L 22.958998 8.785 L 22.958998 8.785 C 22.956997 8.785 22.954998 8.785 22.954 8.785 L 22.954 8.785 L 22.954 8.783 L 22.944998 8.785 C 22.506998 8.783 21.989998 9.035 21.639996 9.290999 L 21.639996 9.290999 L 21.643995 9.292999 C 21.632998 9.315999 21.617998 9.362999 21.603996 9.424999 L 21.603996 9.424999 C 21.571997 9.548999 21.552996 9.730999 21.541996 9.923999 L 21.541996 9.923999 L 21.364996 10.222999 C 20.960997 10.472999 16.327995 13.472999 16.336996 19.648 L 16.336996 19.648 C 16.336996 20.895998 16.523996 22.278 16.977997 23.801998 L 16.977997 23.801998 C 19.534996 32.514 25.022997 38.281 25.221996 41.048996 L 25.221996 41.048996 C 25.226995 41.153996 25.226995 41.269997 25.226995 41.388996 L 25.226995 41.388996 C 25.226995 42.053997 25.171995 42.970997 25.173996 43.997997 L 25.173996 43.997997 C 25.169996 45.692 25.320995 47.678 26.042995 49.182 L 26.042995 49.182 C 26.775995 50.682 27.971996 51.723 30.321997 51.74 L 30.321997 51.74 C 30.345997 51.74 30.368996 51.74 30.391994 51.742996 L 30.391994 51.742996 L 30.745996 52.133995 C 30.736994 52.332996 30.729994 52.555996 30.727997 52.820995 L 30.727997 52.820995 C 30.734997 54.325996 30.919994 56.804996 32.195995 59.064995 L 32.195995 59.064995 C 33.413994 61.288994 35.923996 63.20499 39.858994 63.208996 L 39.858994 63.208996 C 39.904995 63.208996 39.94799 63.208996 39.99399 63.208996 L 39.99399 63.208996 C 42.36199 63.206997 45.240993 62.601997 48.80899 61.175995 L 48.80899 61.175995 C 52.67799 59.62899 54.89799 56.768993 56.47799 54.486996 L 56.47799 54.486996 C 57.24099 53.396996 58.54599 50.173996 58.91599 46.985996 L 58.91599 46.985996 C 59.028988 46.03799 59.06999 45.039997 59.06999 44.091995 L 59.06999 44.091995 C 59.071987 42.038994 58.86099 40.212994 58.76099 39.782997 L 58.76099 39.782997 C 58.58799 39.037 55.81199 27.229996 55.80199 24.713997 L 55.80199 24.713997 C 55.80199 24.712996 55.79999 24.700996 55.80099 24.676996 L 55.80099 24.676996 C 55.79999 24.670996 55.79999 24.664995 55.79999 24.655996 L 55.79999 24.655996 C 55.80199 23.888996 55.92699 23.329996 56.18299 22.920996 L 56.18299 22.920996 C 56.35899 22.634996 56.637993 22.351995 57.089993 22.136995 L 57.089993 22.136995 L 57.575993 22.279997 C 58.68199 24.112995 60.540993 25.351995 62.37199 25.343994 L 62.37199 25.343994 C 63.54499 25.357994 65.52 24.739994 66.34699 23.982994 L 66.34699 23.982994 C 66.397995 23.941994 66.45099 23.865992 66.61099 23.695992 L 66.61099 23.695992 C 68.149994 22.588991 69.20699 20.556992 69.20699 18.217993 L 69.20699 18.217993 C 69.204994 14.640993 66.76799 11.831993 63.873993 11.822992 L 63.873993 11.822992 L 63.873993 11.445992 L 63.873993 11.072992 C 67.286 11.083992 69.951 14.316992 69.95799 18.217993 L 69.95799 18.217993 C 69.95599 20.782991 68.80699 23.036991 67.11299 24.243992 L 67.11299 24.243992 C 67.05399 24.308992 66.97999 24.422993 66.84699 24.542992 L 66.84699 24.542992 C 65.76499 25.483992 63.768993 26.081991 62.37199 26.095991 L 62.37199 26.095991 C 60.312996 26.087992 58.369995 24.821993 57.132996 22.97899 L 57.132996 22.97899 C 56.983997 23.08599 56.901997 23.19199 56.81599 23.320992 L 56.81599 23.320992 C 56.672993 23.545992 56.550995 23.971992 56.550995 24.656992 L 56.550995 24.656992 L 56.540997 24.656992 L 56.543995 24.713991 L 56.550995 24.713991 C 56.550995 24.713991 56.553993 24.713991 56.550995 24.72599 L 56.550995 24.72599 C 56.549995 27.00099 59.32299 38.91999 59.48999 39.61399 L 59.48999 39.61399 C 59.611996 40.17099 59.814995 41.97599 59.816994 44.09299 L 59.816994 44.09299 C 59.816994 45.05899 59.775993 46.08599 59.660995 47.07299 L 59.660995 47.07299 C 59.258995 50.40799 57.963997 53.64099 57.092995 54.91199 L 57.092995 54.91199 C 55.494995 57.222992 53.167995 60.24199 49.085995 61.87299 L 49.085995 61.87299 C 45.455994 63.31899 42.487995 63.95499 39.999992 63.95699 L 39.999992 63.95699 C 39.949993 63.96099 39.901993 63.96099 39.85599 63.96099 L 39.85599 63.96099 C 35.665993 63.964993 32.866993 61.87699 31.534992 59.429993 L 31.534992 59.429993 C 30.166992 56.99399 29.984991 54.388992 29.975992 52.825993 L 29.975992 52.825993 C 29.975992 52.70499 29.977991 52.59199 29.979992 52.485992 L 29.979992 52.485992 C 27.583992 52.39099 26.120993 51.13399 25.360992 49.506992 L 25.360992 49.506992 C 24.557993 47.812992 24.422993 45.73799 24.419992 44.00099 L 24.419992 44.00099 C 24.419992 42.949993 24.474993 42.018993 24.474993 41.39199 L 24.474993 41.39199 C 24.474993 41.27699 24.472992 41.17099 24.469994 41.08099 L 24.469994 41.08099 C 24.458994 38.99099 18.865992 32.80499 16.252995 24.01799 L 16.252995 24.01799 C 15.780994 22.425991 15.582994 20.97299 15.582994 19.64999 L 15.582994 19.64999 C 15.591994 13.50799 19.838997 10.3349905 20.809994 9.68999 L 20.809994 9.68999 C 20.840994 9.32299 20.861994 8.99099 21.182993 8.69599 L 21.182993 8.69599 C 21.600992 8.395989 22.200993 8.062989 22.882994 8.039989 L 22.882994 8.039989 C 22.913994 8.03399 22.927994 8.03599 22.936996 8.03599 L 22.936996 8.03599 C 22.941994 8.03599 22.945995 8.03899 22.950994 8.03599 L 22.950994 8.03599 C 23.598995 8.03899 24.994995 8.24699 26.605995 8.68299 L 26.605995 8.68299 C 28.164995 9.10999 29.597996 9.76999 29.609997 9.77399 L 29.609997 9.77399 L 29.801994 10.24899 C 29.806992 10.25099 29.774994 10.31399 29.731997 10.56199 L 29.731997 10.56199 C 29.688995 10.80999 29.642994 11.21299 29.635994 11.82799 L 29.635994 11.82799 C 29.633991 11.864989 29.633991 11.911989 29.633991 11.97199 L 29.633991 11.97199 C 29.633991 12.50999 29.669992 12.876989 29.705994 13.10399 L 29.705994 13.10399 C 29.739994 13.33099 29.765991 13.392989 29.765991 13.392989 L 29.765991 13.392989 L 29.665993 13.792989 C 29.592993 13.8559885 28.971992 14.394989 26.082993 15.360989 L 26.082993 15.360989 C 25.019993 15.712989 24.242992 15.854989 23.628992 15.856989 L 23.628992 15.856989 C 23.167992 15.858989 22.795992 15.770988 22.491993 15.635989 L 22.491993 15.635989 C 21.642994 16.703989 20.651993 18.485989 20.651993 21.002989 L 20.651993 21.002989 C 20.651993 22.545988 21.023993 24.36999 22.048992 26.49499 L 22.048992 26.49499 C 25.980991 34.70599 29.524992 34.19999 29.691992 42.01099 L 29.691992 42.01099 C 29.744991 44.84499 30.102991 46.22699 30.461992 46.84399 L 30.461992 46.84399 C 30.833992 47.44099 31.046991 47.38199 31.399992 47.45799 L 31.399992 47.45799 C 31.614992 47.494987 31.861992 47.51099 32.088993 47.51099 L 32.088993 47.51099 C 32.406994 47.51099 32.700993 47.47799 32.782993 47.46399 L 32.782993 47.46399 C 32.789993 47.45799 32.804993 47.45199 32.825993 47.44299 L 32.825993 47.44299 C 32.866993 47.41999 32.929993 47.37999 33.004993 47.313988 L 33.004993 47.313988 C 33.156994 47.184982 33.362995 46.95899 33.576992 46.56799 L 33.576992 46.56799 C 34.00399 45.792988 34.45299 44.36299 34.50299 41.82399 L 34.50299 41.82399 C 34.67099 34.01199 38.21199 34.51599 42.14699 26.307993 L 42.14699 26.307993 C 43.171993 24.18099 43.541992 22.354992 43.541992 20.814993 L 43.541992 20.814993 C 43.541992 18.414991 42.64099 16.68699 41.82199 15.604991 L 41.82199 15.604991 C 41.50799 15.754991 41.11299 15.860991 40.61499 15.856991 L 40.61499 15.856991 C 40.00099 15.856991 39.22199 15.713991 38.15799 15.360991 L 38.15799 15.360991 C 35.26999 14.3939905 34.64799 13.85499 34.577988 13.792991 L 34.577988 13.792991 L 34.475983 13.392991 C 34.461987 13.387991 34.607983 13.048991 34.607983 11.971991 L 34.607983 11.971991 C 34.60499 11.917991 34.60499 11.865991 34.607983 11.81299 L 34.607983 11.81299 C 34.600983 11.21399 34.552982 10.81099 34.509987 10.56299 L 34.509987 10.56299 C 34.466988 10.31599 34.439987 10.24999 34.439987 10.24999 L 34.439987 10.24999 L 34.63199 9.77499 C 34.64399 9.77099 36.07699 9.110991 37.63599 8.6839905 L 37.63599 8.6839905 C 39.24399 8.245991 40.63799 8.04199 41.29099 8.03699 L 41.29099 8.03699 C 41.292988 8.03699 41.31299 8.03699 41.30499 8.03999 L 41.30499 8.03999 C 42.007988 8.04699 42.62899 8.38899 43.057987 8.69699 L 43.057987 8.69699 C 43.33999 8.94899 43.377987 9.22199 43.412987 9.52099 L 43.412987 9.52099 C 44.429985 10.20399 48.600983 13.37599 48.606987 19.459991 L 48.606987 19.459991 C 48.606987 20.781992 48.40999 22.23899 47.939987 23.826992 L 47.939987 23.826992 C 45.328987 32.61599 39.735985 38.803993 39.724987 40.900993 L 39.724987 40.900993 C 39.71499 41.009995 39.712982 41.136993 39.712982 41.279995 L 39.712982 41.279995 C 39.712982 41.80899 39.739983 42.540997 39.739983 43.368996 L 39.739983 43.368996 C 39.739983 43.708996 39.737988 44.063995 39.725983 44.425995 L 39.725983 44.425995 C 39.720985 46.057995 39.54199 47.868996 38.763985 49.320995 L 38.763985 49.320995 C 37.955982 51.098995 36.365986 52.48999 33.700985 52.470997 L 33.700985 52.470997 C 33.643986 52.470997 33.586987 52.470997 33.566982 52.469 L 33.566982 52.469 C 33.559982 52.469997 33.552986 52.470997 33.545986 52.470997 L 33.545986 52.470997 C 33.541985 52.583996 33.539986 52.716995 33.538986 52.871 L 33.538986 52.871 C 33.538986 52.871 33.538986 52.871 33.538986 52.899 L 33.538986 52.899 C 33.533985 54.135 33.765987 56.171 34.629986 57.662 L 34.629986 57.662 C 35.568985 59.19 36.775986 60.316 39.949986 60.391 L 39.949986 60.391 C 39.964985 60.39 39.976982 60.39 39.985985 60.39 L 39.985985 60.39 C 39.991985 60.39 39.995983 60.39 39.999985 60.39 L 39.999985 60.39 C 41.875984 60.392 44.428986 59.893 47.758984 58.561 L 47.758984 58.561 C 51.272984 57.153 52.956985 54.619 54.156982 52.885 L 54.156982 52.885 C 54.677982 52.136 55.82698 49.579 56.121983 46.905003 L 56.121983 46.905003 C 56.236984 45.859 56.28498 44.856003 56.28498 43.928 L 56.28498 43.928 C 56.28498 42.224003 56.12398 40.768 55.93798 39.764 L 55.93798 39.764 C 55.64898 38.195 53.031982 27.897 52.98498 24.666 L 52.98498 24.666 C 52.98498 23.606 53.15298 22.488 53.76598 21.469 L 53.76598 21.469 C 54.24198 20.67 54.98098 20.047 55.86198 19.615 L 55.86198 19.615 C 55.82098 19.314 55.79798 19.008 55.79798 18.694 L 55.79798 18.694 C 55.78598 14.8 58.18298 12.048 61.55098 11.339001 L 61.55098 11.339001 C 62.00298 11.244 62.54198 11.162001 63.05598 11.145 L 63.05598 11.145 C 63.31398 11.104 63.58598 11.075001 63.86998 11.075001 L 63.86998 11.075001 L 63.86998 11.448001 L 63.86998 11.825001 C 63.63998 11.825001 63.40698 11.848001 63.12798 11.891001 L 63.12798 11.891001 C 62.62598 11.909 62.12298 11.984001 61.70798 12.073001 L 61.70798 12.073001 C 58.65298 12.739001 56.559982 15.112001 56.54898 18.695002 L 56.54898 18.695002 C 56.54898 19.058002 56.58498 19.417002 56.64598 19.777002 L 56.64598 19.777002 L 56.42598 20.183002 C 55.54298 20.567003 54.83598 21.138002 54.40898 21.856005 L 54.40898 21.856005 C 53.892982 22.715002 53.73698 23.682005 53.73498 24.662004 L 53.73498 24.662004 C 53.76598 27.669004 56.370983 38.018 56.67398 39.630005 L 56.67398 39.630005 C 56.86798 40.682007 57.031982 42.17701 57.031982 43.929005 L 57.031982 43.929005 C 57.031982 44.884007 56.983986 45.911003 56.863983 46.990005 L 56.863983 46.990005 C 56.53998 49.828007 55.391983 52.400005 54.770985 53.310005 L 54.770985 53.310005 C 53.578983 55.037006 51.768986 57.763004 48.035984 59.259007 L 48.035984 59.259007 C 44.641983 60.61401 42.005985 61.14201 39.997986 61.14201 L 39.997986 61.14201 L 39.979984 61.14201 L 39.979984 61.14201 C 36.590984 61.119007 34.973984 59.738007 33.980984 58.042007 L 33.980984 58.042007 C 33.006985 56.34501 32.789986 54.22001 32.785984 52.898006 L 32.785984 52.898006 C 32.785984 52.88101 32.782986 52.843006 32.787983 52.82301 L 32.787983 52.82301 C 32.787983 52.523006 32.799984 52.282005 32.809982 52.091007 L 32.809982 52.091007 L 33.163982 51.74101 C 33.299984 51.73401 33.42198 51.72701 33.53998 51.72001 L 33.53998 51.72001 C 33.592983 51.722008 33.643986 51.722008 33.696983 51.722008 L 33.696983 51.722008 C 36.098984 51.70601 37.321983 50.592007 38.091984 48.98401 L 38.091984 48.98401 C 38.780983 47.709007 38.971985 46.00201 38.973984 44.41201 L 38.973984 44.41201 C 38.985985 44.05601 38.987984 43.70501 38.987984 43.36901 L 38.987984 43.36901 C 38.987984 42.55601 38.960983 41.83601 38.960983 41.28101 L 38.960983 41.28101 C 38.960983 41.12501 38.96398 40.98201 38.972984 40.86201 L 38.972984 40.86201 C 39.169983 38.096012 44.660984 32.32701 47.217983 23.615011 L 47.217983 23.615011 C 47.666985 22.093012 47.85298 20.709011 47.85298 19.461012 L 47.85298 19.461012 C 47.86198 13.414012 43.42398 10.416012 42.85998 10.057012 L 42.85998 10.057012 L 42.694 9.77 C 42.676 9.537001 42.628 9.332001 42.6 9.286 L 42.6 9.286 C 42.259 9.0390005 41.764 8.7960005 41.294 8.784 L 41.294 8.784 L 41.294 8.786 C 40.778 8.784 39.384 8.981 37.836 9.405001 L 37.836 9.405001 C 36.754997 9.699 35.718 10.120001 35.233 10.327001 L 35.233 10.327001 C 35.289 10.613001 35.35 11.088 35.358 11.807001 L 35.358 11.807001 C 35.358 11.862001 35.358 11.916001 35.358 11.968001 L 35.358 11.968001 M 42.6 9.283 L 42.601997 9.283 C 42.601997 9.282 42.601997 9.282 42.601997 9.282 L 42.601997 9.282 C 42.602 9.282 42.601 9.283 42.6 9.283 L 42.6 9.283 z "/>
    <linearGradient x1="31.9671" gradientTransform="matrix(1 0 0 -1 0.1377 67.44)" y1="57.7093" x2="31.9671" gradientUnits="userSpaceOnUse" y2="15.2513" xlink:type="simple" xlink:actuate="onLoad" id="XMLID_21_" xlink:show="other">
        <stop stop-color="#b0381e" offset="0"/>
        <stop stop-color="#5c0a01" offset="1"/>
    </linearGradient>
    <path fill="url(#XMLID_21_)" d="M 47.589 23.756 C 50.445 14.092001 43.002 9.731001 43.002 9.731001 L 40.768 14.002001 C 40.768 14.002001 46.526997 18.147 42.492996 26.504002 C 38.458996 34.859 35.032997 34.244003 34.886 41.865 C 34.786 47.021004 33.067997 47.822 32.879997 47.861 C 32.692997 47.902 31.965998 47.968 31.344995 47.861 C 30.724997 47.755 29.437998 47.775 29.326998 42.052 C 29.179998 34.433 25.752998 35.047 21.719995 26.691002 C 17.685995 18.336002 23.444998 14.191002 23.444998 14.191002 L 21.209 9.92 C 21.209 9.92 13.766 14.281 16.621 23.945 C 19.207 32.695 24.747002 38.673 24.852 41.099 C 24.956 43.529 23.575 52.302 30.490002 52.159 C 31.275002 52.222 32.972 52.177 33.546 52.13 C 40.462 52.275 39.253 43.341003 39.359 40.911003 C 39.463 38.482 45.004 32.506 47.589 23.756 z "/>
    <path fill="#ffffff" d="M 30.487 51.758 C 23.571 51.903 25.227 43.526 25.123 41.096 C 25.018 38.668 19.477 32.692 16.891998 23.942 C 14.037 14.278 21.48 9.917 21.48 9.917 L 22.036 11.499 C 22.036 11.499 15.432999 18.366 19.468 26.724 C 23.502998 35.082 25.863998 34.576 26.010998 42.195 C 26.120998 47.919 26.072 48.549 27.015997 49.874 C 27.958 51.191 30.487 51.758 30.487 51.758 z " fill-opacity="0.4"/>
    <path fill="#ffffff" d="M 33.894 51.561 C 40.81 51.706 39.154 43.329 39.259003 40.901 C 39.363003 38.471 44.904003 32.495003 47.489 23.745 C 50.344 14.081001 42.902 9.720001 42.902 9.720001 L 42.345 11.302001 C 42.345 11.302001 48.948 18.171 44.913 26.529 C 40.88 34.884003 38.517 34.379 38.370003 41.999 C 38.26 47.722 38.309 48.355 37.366 49.677 C 36.423 50.996 33.894 51.561 33.894 51.561 z " fill-opacity="0.4"/>
    <radialGradient gradientTransform="matrix(1 0 0 -1 0.1377 67.44)" gradientUnits="userSpaceOnUse" xlink:type="simple" r="6.457" xlink:actuate="onLoad" cx="61.7782" id="XMLID_22_" cy="48.7923" xlink:show="other">
        <stop stop-color="#b0381e" offset="0"/>
        <stop stop-color="#5c0a01" offset="1"/>
    </radialGradient>
    <path fill="url(#XMLID_22_)" d="M 65.244 12.004 C 66.859 13.198999 67.59901 16.307 67.59901 18.731 C 67.59901 20.946 67.992004 23.065 66.603004 24.299 C 65.65 25.149 63.664005 25.754 62.377007 25.754 C 59.22601 25.754 56.181007 22.469 56.181007 18.731 C 56.181007 14.992999 58.425007 12.429998 61.63801 11.742999 C 62.722 11.51 64.368 11.355 65.244 12.004 z "/>
    <radialGradient gradientTransform="matrix(0.8305 0 0 -1 62.708 67.44)" gradientUnits="userSpaceOnUse" xlink:type="simple" r="28.321" xlink:actuate="onLoad" cx="-2.7287" id="XMLID_23_" cy="59.7932" xlink:show="other">
        <stop stop-color="#b0381e" offset="0"/>
        <stop stop-color="#822519" offset="1"/>
    </radialGradient>
    <ellipse rx="5.709" ry="6.768" fill="url(#XMLID_23_)" cx="63.879" cy="18.254"/>
    <radialGradient gradientTransform="matrix(0.8305 0 0 -1 62.708 67.44)" gradientUnits="userSpaceOnUse" xlink:type="simple" r="10.3015" xlink:actuate="onLoad" cx="1.974" id="XMLID_24_" cy="45.1497" xlink:show="other">
        <stop stop-color="#b0381e" offset="0"/>
        <stop stop-color="#5c0a01" offset="1"/>
    </radialGradient>
    <ellipse rx="4.363" ry="5.254" fill="url(#XMLID_24_)" cx="63.82" cy="18.289"/>
    <linearGradient x1="26.4334" gradientTransform="matrix(1 0 0 -1 0.1377 67.44)" y1="25.802" x2="73.3485" gradientUnits="userSpaceOnUse" y2="25.802" xlink:type="simple" xlink:actuate="onLoad" id="XMLID_25_" xlink:show="other">
        <stop stop-color="#b0381e" offset="0"/>
        <stop stop-color="#822519" offset="1"/>
    </linearGradient>
    <path fill="url(#XMLID_25_)" d="M 31.87 59.279 C 30.551 56.933 30.367 54.39 30.359 52.859 L 30.359 52.859 C 30.359 52.023003 30.425 51.482 30.43 51.437 L 30.43 51.437 L 30.43 51.439 L 33.223 51.784 C 33.224 51.784 33.213 51.857 33.201 52.046 L 33.201 52.046 C 33.188 52.234 33.175 52.515003 33.175 52.859 L 33.175 52.859 C 33.166 54.13 33.38 56.261 34.319 57.888 L 34.319 57.888 C 35.287 59.5 36.702 60.756 40.001 60.799 L 40.001 60.799 C 41.944 60.802 44.542 60.289 47.91 58.943 L 47.91 58.943 C 51.532 57.493 53.279 54.863 54.476 53.13 L 54.476 53.13 C 55.046 52.303 56.195 49.735 56.503 46.981003 C 56.84 43.975 56.609997 41.321003 56.315 39.731003 C 56.018 38.141003 53.407997 27.817003 53.369 24.702003 L 53.369 24.702003 C 53.37 23.679005 53.532 22.638004 54.097 21.698004 L 54.097 21.698004 C 54.66 20.755005 55.622 20.042004 56.806 19.659004 L 56.806 19.659004 L 57.695 22.331003 C 56.98 22.579004 56.707 22.843004 56.507 23.157003 L 56.507 23.157003 C 56.31 23.475006 56.185 23.971004 56.187 24.702003 L 56.187 24.702003 C 56.148 26.968006 58.962 39.009007 59.132 39.731007 C 59.302 40.453007 59.66 43.98501 59.296 47.063007 C 58.909 50.32501 57.608 53.55301 56.792 54.73301 L 56.792 54.73301 C 55.204 57.03001 52.931 59.96901 48.954 61.55901 L 48.954 61.55901 C 45.355 62.99601 42.432 63.61601 40.0 63.61901 L 40.0 63.61901 C 39.955 63.61901 39.91 63.61901 39.865 63.61901 L 39.865 63.61901 C 35.802 63.617 33.146 61.617 31.87 59.279 L 31.87 59.279 z "/>
    <radialGradient gradientTransform="matrix(1 0 0 -1 0.1377 67.44)" gradientUnits="userSpaceOnUse" xlink:type="simple" r="3.8536" xlink:actuate="onLoad" cx="25.1727" id="XMLID_26_" cy="55.4593" xlink:show="other">
        <stop stop-color="#ad832f" offset="0"/>
        <stop stop-color="#3e2a08" offset="1"/>
    </radialGradient>
    <path fill="url(#XMLID_26_)" d="M 21.412 9.035 C 21.021 9.32 21.205 11.267 21.205 11.267 C 21.205 11.267 21.147 14.182 21.827 14.751 C 22.505 15.321 23.11 15.991 25.973 15.037001 C 28.835 14.083 29.418 13.548 29.418 13.548 C 29.418 13.548 29.252 13.075001 29.268 11.842 C 29.282 10.609 29.459 10.148 29.459 10.148 C 29.459 10.148 28.034 9.494 26.513 9.08 C 24.925 8.647 23.523 8.445 22.947 8.447 C 22.373 8.449 21.801 8.75 21.412 9.035 z "/>
    <radialGradient gradientTransform="matrix(1 0 0 -1 0.1377 67.44)" gradientUnits="userSpaceOnUse" xlink:type="simple" r="2.7678" xlink:actuate="onLoad" cx="25.0247" id="XMLID_27_" cy="57.0589" xlink:show="other">
        <stop stop-color="#e0bc6c" offset="0"/>
        <stop stop-color="#8e6f3a" offset="1"/>
    </radialGradient>
    <path fill="url(#XMLID_27_)" d="M 21.777 9.453 C 21.387 9.738 21.578 11.687 21.578 11.687 L 28.789 11.842 L 28.794 10.47 C 28.794 10.47 28.082 9.968 26.562 9.554 C 24.974 9.121 23.57 8.918 22.995 8.921 C 22.419 8.924 22.165 9.168 21.777 9.453 z "/>
    <radialGradient gradientTransform="matrix(-1 0 0 -1 1801.941 67.44)" gradientUnits="userSpaceOnUse" xlink:type="simple" r="3.8541" xlink:actuate="onLoad" cx="1762.994" id="XMLID_28_" cy="55.4593" xlink:show="other">
        <stop stop-color="#ad832f" offset="0"/>
        <stop stop-color="#3e2a08" offset="1"/>
    </radialGradient>
    <path fill="url(#XMLID_28_)" d="M 42.845 9.035 C 43.236 9.32 43.052 11.267 43.052 11.267 C 43.052 11.267 43.11 14.182 42.43 14.751 C 41.752 15.321 41.147 15.991 38.284 15.037001 C 35.422 14.083 34.839 13.548 34.839 13.548 C 34.839 13.548 35.005 13.075001 34.989 11.842 C 34.975 10.609 34.798 10.148 34.798 10.148 C 34.798 10.148 36.223 9.494 37.744 9.08 C 39.332 8.647 40.734 8.445 41.31 8.447 C 41.884 8.449 42.456 8.75 42.845 9.035 z "/>
    <radialGradient gradientTransform="matrix(-1 0 0 -1 1801.941 67.44)" gradientUnits="userSpaceOnUse" xlink:type="simple" r="2.7681" xlink:actuate="onLoad" cx="1762.8475" id="XMLID_29_" cy="57.0589" xlink:show="other">
        <stop stop-color="#e0bc6c" offset="0"/>
        <stop stop-color="#8e6f3a" offset="1"/>
    </radialGradient>
    <path fill="url(#XMLID_29_)" d="M 42.479 9.453 C 42.869 9.738 42.678 11.687 42.678 11.687 L 35.467003 11.842 L 35.462 10.47 C 35.462 10.47 36.174004 9.968 37.694 9.554 C 39.282 9.121 40.686 8.918 41.261 8.921 C 41.838 8.924 42.092 9.168 42.479 9.453 z "/>
    <path fill="#ffffff" d="M 51.361 45.053 C 51.361 53.867 58.533 61.037003 67.345 61.037003 C 76.16 61.037003 83.33 53.867004 83.33 45.053 C 83.33 36.24 76.16 29.069 67.345 29.069 C 58.533 29.068 51.361 36.238 51.361 45.053 z "/>
    <radialGradient gradientTransform="matrix(5.4545 0 0 5.4545 2223.2759 -1151.0076)" gradientUnits="userSpaceOnUse" xlink:type="simple" r="5.3043" xlink:actuate="onLoad" cx="-394.6906" id="XMLID_30_" cy="217.43" xlink:show="other">
        <stop stop-color="#c4a64a" offset="0"/>
        <stop stop-color="#ad832f" offset="0.5337"/>
        <stop stop-color="#704d18" offset="1"/>
    </radialGradient>
    <circle fill="url(#XMLID_30_)" r="15.636" cx="67.347" cy="45.053"/>
    <radialGradient gradientTransform="matrix(5.4545 0 0 5.4545 2223.2759 -1151.0076)" gradientUnits="userSpaceOnUse" xlink:type="simple" r="3.7412" xlink:actuate="onLoad" cx="-395.0627" id="XMLID_31_" cy="218.1233" xlink:show="other">
        <stop stop-color="#f1de84" offset="0"/>
        <stop stop-color="#cd9f3d" offset="1"/>
    </radialGradient>
    <path fill="url(#XMLID_31_)" d="M 61.045 31.59 C 61.108997 31.723 61.322 31.754 61.774 31.612 C 62.106 31.581 62.973 30.829 63.426 30.979 C 63.881 31.13 64.254 30.826 64.677 30.554 C 65.557 30.631 66.491005 29.859 66.671005 29.859 C 66.854004 29.859 67.535 29.985 67.686005 29.745 C 67.686005 29.745 69.33501 30.133 70.841 29.809 C 69.718 29.551 68.54801 29.415 67.34801 29.415 C 65.80101 29.415 64.30701 29.641 62.897007 30.059 C 62.503 30.441 62.079 30.957 61.045 31.59 z "/>
    <radialGradient gradientTransform="matrix(5.4545 0 0 5.4545 2223.2759 -1151.0076)" gradientUnits="userSpaceOnUse" xlink:type="simple" r="3.7418" xlink:actuate="onLoad" cx="-395.0607" id="XMLID_32_" cy="218.1243" xlink:show="other">
        <stop stop-color="#a2c2dd" offset="0"/>
        <stop stop-color="#a2c2dd" offset="0.1"/>
        <stop stop-color="#6c83bb" offset="0.7135"/>
        <stop stop-color="#003d6d" offset="0.9888"/>
        <stop stop-color="#003d6d" offset="1"/>
    </radialGradient>
    <path fill="url(#XMLID_32_)" d="M 79.883 50.024 L 79.372 50.833 C 79.372 50.833 78.607 51.073 78.579 51.315 C 78.564 51.419 77.988 52.697 77.988 52.697 C 77.988 52.697 77.761 53.411 78.41 53.198997 C 79.756 52.758 80.639 49.873 79.883 50.024 z "/>
    <radialGradient gradientTransform="matrix(5.4545 0 0 5.4545 2223.2759 -1151.0076)" gradientUnits="userSpaceOnUse" xlink:type="simple" r="3.743" xlink:actuate="onLoad" cx="-395.0632" id="XMLID_33_" cy="218.1233" xlink:show="other">
        <stop stop-color="#f1de84" offset="0"/>
        <stop stop-color="#cd9f3d" offset="1"/>
    </radialGradient>
    <path fill="url(#XMLID_33_)" d="M 55.538 51.615 C 55.758 51.615 56.325996 51.684 56.393997 51.476 C 56.4 51.388 56.477997 49.248 56.477997 49.248 L 57.330997 48.115 L 57.330997 47.213 L 55.115997 45.779 L 54.153996 44.738 C 54.153996 44.742 53.78099 43.612 53.430996 43.295 C 53.139996 43.026997 53.160995 42.441 52.85099 42.011997 C 52.569996 41.621 52.341995 41.403996 52.16299 41.316 C 50.731995 47.102997 52.948994 52.022 55.022995 54.673996 C 55.319996 54.251995 55.553993 53.777996 55.737995 53.356995 C 55.925 52.927 54.795 52.318 55.538 51.615 z "/>
    <radialGradient gradientTransform="matrix(5.4545 0 0 5.4545 2223.2759 -1151.0076)" gradientUnits="userSpaceOnUse" xlink:type="simple" r="3.7416" xlink:actuate="onLoad" cx="-395.0627" id="XMLID_34_" cy="218.1233" xlink:show="other">
        <stop stop-color="#f1de84" offset="0"/>
        <stop stop-color="#cd9f3d" offset="1"/>
    </radialGradient>
    <path fill="url(#XMLID_34_)" d="M 57.241 33.694 C 57.241 33.414 57.702 33.273 57.702 33.273 L 57.764 33.494 L 58.184 33.673 C 58.184 33.673 58.685997 33.133 58.787 32.992 C 58.888 32.852 59.065 32.311 59.065 32.311 L 59.942 31.279 C 57.976997 32.338 56.263996 33.805 54.92 35.567 C 55.457 35.141 57.241 33.976 57.241 33.694 z "/>
    <radialGradient gradientTransform="matrix(5.4545 0 0 5.4545 2223.2759 -1151.0076)" gradientUnits="userSpaceOnUse" xlink:type="simple" r="0.6463" xlink:actuate="onLoad" cx="-395.5334" id="XMLID_35_" cy="216.9729" xlink:show="other">
        <stop stop-color="#f1de84" offset="0"/>
        <stop stop-color="#cd9f3d" offset="1"/>
    </radialGradient>
    <path fill="url(#XMLID_35_)" d="M 65.514 31.219 C 65.71 31.182 66.162 30.971 66.162 30.971 C 66.162 30.971 65.935005 30.874 65.682 30.912 C 65.43 30.95 65.062996 30.76 64.866 30.854 C 65.033 31.066 65.314 31.258 65.514 31.219 z "/>
    <radialGradient gradientTransform="matrix(5.4545 0 0 5.4545 2223.2759 -1151.0076)" gradientUnits="userSpaceOnUse" xlink:type="simple" r="3.4136" xlink:actuate="onLoad" cx="-394.6408" id="XMLID_36_" cy="217.678" xlink:show="other">
        <stop stop-color="#f1de84" offset="0"/>
        <stop stop-color="#cd9f3d" offset="1"/>
    </radialGradient>
    <path fill="url(#XMLID_36_)" d="M 74.549 31.172 C 74.069 31.307 73.672005 31.408 73.578 31.408 C 73.307 31.408 73.380005 31.178 73.139 31.148 C 72.897 31.118 70.878 30.597 70.606 30.868 C 70.335 31.14 69.272 31.418 69.03001 31.449 C 68.79001 31.48 69.11001 32.211998 69.75101 32.672 C 69.66201 32.763 68.23 33.557 68.23 33.013 C 68.23 32.47 67.949005 32.072 67.507 31.91 C 67.107 32.012 66.646 32.431 67.286 33.013 C 67.684006 33.376 67.289 33.423 67.26 33.528 C 67.144005 33.966 68.222 34.39 67.707 34.714 C 67.222 34.756 66.791 34.668 66.711 34.621 C 65.948 34.195004 65.776 35.885 65.776 35.885 L 66.606 36.295 L 65.221 37.645 C 65.221 37.645 63.186 39.055 63.157 39.238 C 63.125 39.421 62.253 41.76 62.553 42.455997 C 62.856003 43.15 64.422005 45.025997 65.147 45.085 C 66.091 45.163 68.83 44.615997 68.83 44.615997 C 68.892 44.766 69.17 45.373997 70.515 45.623997 C 70.562 45.633995 69.935 46.834995 70.303 47.352997 C 71.107 48.476 71.507 49.631996 71.068 50.155 C 70.015 51.733 70.82 51.852997 71.077 52.68 C 71.16901 52.923 70.54401 55.081 72.621 55.667 C 73.367004 55.731 73.757 55.612 74.391 54.796 C 74.575 54.647003 75.643 53.557003 76.346 53.323 C 76.57601 53.307003 76.125 52.686 76.586 52.029003 C 77.082 51.835003 78.421 50.932003 78.421 50.932003 C 78.480995 49.609 77.77 47.976 79.096 47.037003 C 79.954 46.164 80.075 46.269 80.619 44.94 C 80.769005 44.546 81.289 43.142 80.379005 43.476 C 79.77701 43.696003 79.628006 43.687 79.438 43.626003 C 79.383 43.135 79.278 42.935005 78.73701 42.452003 C 78.45601 41.792004 77.77401 40.648003 77.77401 40.648003 L 76.81101 39.185 L 76.932014 38.883003 L 79.016014 41.719 C 79.207016 42.272003 79.33701 42.527 79.48901 43.172 C 80.67702 42.885 81.70602 41.332 81.22501 40.069 C 81.20301 40.047 80.905014 40.106 80.46801 40.076 C 79.79401 39.584 79.38701 38.547 79.38701 38.547 L 80.920006 39.836 L 81.672005 39.897003 L 82.147 40.838005 C 82.282005 40.92701 82.374 40.984005 82.374 40.984005 C 82.374 40.984005 82.405 40.990005 82.456 40.990005 C 81.305 36.72 78.394 33.17 74.549 31.172 z M 71.211 31.793 C 71.084 31.472 71.582 31.351 71.582 31.351 C 71.582 31.351 72.07601 32.07 71.996 32.545 C 71.920006 33.012997 71.396 32.725998 71.238 32.586 C 71.083 32.445 71.336 32.114 71.211 31.793 z M 75.71 37.813 C 75.195 37.813 74.482 37.812 74.044 37.511 C 73.606 37.209003 73.449 37.641003 73.158 37.943 C 72.968 38.14 71.001 37.167 71.001 37.167 L 70.709 36.319 L 68.914 36.202 L 67.768 36.542 L 66.651 36.365 L 67.889 35.925003 C 67.889 35.925003 68.778 35.089005 69.098 34.818005 C 69.369 34.58701 70.452 34.727005 70.452 34.727005 L 71.686 35.716003 C 71.686 35.716003 71.602 36.169003 71.489 36.320004 C 71.94 36.290005 72.278 35.710003 72.278 35.710003 C 71.274 34.829 71.282 34.614 71.282 34.614 L 72.573 35.343 L 72.666 35.718 C 72.666 35.718 73.181 36.604004 73.676 36.641003 C 73.886 36.659004 73.713005 35.81 73.713005 35.81 L 73.976006 35.772003 C 74.49701 36.973003 76.32601 36.853004 76.661 37.134003 C 76.68 38.377 75.926 37.875 75.71 37.813 z M 76.055 35.67 C 75.594 35.49 75.12 35.578 75.12 35.578 C 75.01601 35.783 74.273 35.573 74.42301 35.121 C 74.57201 34.67 75.059006 35.025997 75.27901 34.78 C 75.503006 34.535 75.82001 34.372 75.96501 34.603 C 75.796005 34.826 76.11101 34.999 76.332 35.119 C 76.952 35.453 77.357 35.935 76.055 35.67 z M 78.603 36.775 C 78.370995 36.569 78.521 36.324 78.169 35.997 C 77.665 35.527 77.392 35.324 77.681 34.81 C 78.173 34.575 77.88 35.123 78.066 35.386 C 78.166 35.524 78.607 35.967003 79.027 36.533 C 79.378 37.006 78.835 36.982 78.603 36.775 z "/>
    <polygon fill="#cd9f3d" points="88.402,49.558 77.101,59.201 68.717,46.229 69.859,61.359 88.277,66.164 "/>
    <linearGradient x1="69.9295" y1="58.8343" x2="76.3407" gradientUnits="userSpaceOnUse" y2="58.8343" xlink:type="simple" xlink:actuate="onLoad" id="XMLID_37_" xlink:show="other">
        <stop stop-color="#b0381e" offset="0"/>
        <stop stop-color="#822519" offset="1"/>
    </linearGradient>
    <polygon fill="url(#XMLID_37_)" points="69.93,61.282 75.771,56.387 76.341,57.263 "/>
    <linearGradient x1="80.1239" y1="61.3333" x2="88.1366" gradientUnits="userSpaceOnUse" y2="61.3333" xlink:type="simple" xlink:actuate="onLoad" id="XMLID_38_" xlink:show="other">
        <stop stop-color="#b0381e" offset="0"/>
        <stop stop-color="#822519" offset="1"/>
    </linearGradient>
    <polygon fill="url(#XMLID_38_)" points="88.137,66.129 80.971,56.537 80.124,57.399 "/>
    <linearGradient x1="68.7537" y1="56.2542" x2="89.8963" gradientUnits="userSpaceOnUse" y2="56.2542" xlink:type="simple" xlink:actuate="onLoad" id="XMLID_39_" xlink:show="other">
        <stop stop-color="#b0381e" offset="0"/>
        <stop stop-color="#822519" offset="1"/>
    </linearGradient>
    <polygon fill="url(#XMLID_39_)" points="68.754,46.35 77.127,60.184 88.396,50.166 88.245,66.158 89.2,65.149 89.896,48.819 "/>
    <linearGradient x1="83.9989" gradientTransform="matrix(1 0 0 -1 0.1377 67.44)" y1="24.9485" x2="65.84" gradientUnits="userSpaceOnUse" y2="7.2552" xlink:type="simple" xlink:actuate="onLoad" id="XMLID_40_" xlink:show="other">
        <stop stop-color="#e0bc6c" offset="0"/>
        <stop stop-color="#cd9f3d" offset="1"/>
    </linearGradient>
    <polygon fill="url(#XMLID_40_)" points="68.722,46.225 76.769,58.187 88.471,49.554 "/>
    <polygon fill="#eacf5a" points="89.896,48.819 69.911,45.862 68.722,46.225 88.471,49.554 "/>
</svg>
