<?xml version="1.0" encoding="UTF-8"?>
<svg xmlns="http://www.w3.org/2000/svg" xmlns:xlink="http://www.w3.org/1999/xlink" contentScriptType="text/ecmascript" width="28" baseProfile="tiny" zoomAndPan="magnify" contentStyleType="text/css" viewBox="-8.334 -1.833 28 15" height="15" preserveAspectRatio="xMidYMid meet" version="1.1">
    <path fill="#5c1001" d="M 7.629 3.704 L 7.629 0.0 L 3.703 0.0 L 3.703 3.704 L 0.0 3.704 L 0.0 7.631 L 3.703 7.631 L 3.703 11.333 L 7.629 11.333 L 7.629 7.631 L 11.332001 7.631 L 11.332001 3.704 L 7.629 3.704 z M 10.632 6.931 L 6.93 6.931 L 6.93 10.633 L 4.403 10.633 L 4.403 6.931 L 0.7 6.931 L 0.7 4.404 L 4.403 4.404 L 4.403 0.701 L 6.928 0.701 L 6.928 4.4040003 L 10.6310005 4.4040003 L 10.632 6.931 L 10.632 6.931 z " fill-opacity="0.3" stroke-opacity="0.3"/>
    <polygon fill="#eacf5a" fill-opacity="0.3" points="6.93,0.701 4.403,0.701 4.403,4.404 0.7,4.404 0.7,6.931 4.403,6.931   4.403,10.633 6.93,10.633 6.93,6.931 10.632,6.931 10.632,4.404 6.93,4.404 "/>
    <rect x="-8.334" width="28" fill="none" y="-1.833" height="15"/>
</svg>
