<?xml version="1.0" encoding="UTF-8"?>
<svg xmlns="http://www.w3.org/2000/svg" xmlns:xlink="http://www.w3.org/1999/xlink" contentScriptType="text/ecmascript" width="44" baseProfile="tiny" zoomAndPan="magnify" contentStyleType="text/css" viewBox="0 0 44 44" height="44" preserveAspectRatio="xMidYMid meet" version="1.1">
    <linearGradient x1="-5.9775" gradientTransform="matrix(1 0 0 -1 0.1377 42.834)" y1="49.3145" x2="35.7124" gradientUnits="userSpaceOnUse" y2="6.6845" xlink:type="simple" xlink:actuate="onLoad" id="XMLID_14_" xlink:show="other">
        <stop stop-color="#ffffcf" offset="0"/>
        <stop stop-color="#f0de80" offset="0.11"/>
        <stop stop-color="#c26e54" offset="0.35"/>
        <stop stop-color="#b0361a" offset="0.48"/>
        <stop stop-color="#ad2621" offset="0.6629"/>
        <stop stop-color="#9c0a00" offset="0.75"/>
        <stop stop-color="#991712" offset="0.82"/>
        <stop stop-color="#8a0000" offset="0.91"/>
        <stop stop-color="#730303" offset="0.99"/>
        <stop stop-color="#730303" offset="1"/>
    </linearGradient>
    <path fill="url(#XMLID_14_)" d="M 33.582 21.395 L 30.971 23.566 L 28.768002 23.566 L 28.768002 20.2 L 28.692001 20.2 C 29.981 19.023 30.809002 17.34 30.809002 15.448001 C 30.809002 11.895 27.934002 9.012001 24.401001 9.012001 C 23.272001 9.012001 22.237001 9.326001 21.324001 9.839001 C 19.988 7.726001 17.656002 6.3130007 14.982001 6.3130007 C 10.834002 6.3130007 7.4660015 9.700001 7.4660015 13.868 C 7.4660015 16.53 8.835001 18.852001 10.896002 20.201 L 7.264 20.201 L 7.264 25.092 L 9.48 25.092 L 9.48 22.071999 L 26.548 22.071999 L 26.548 35.093998 L 21.966 35.093998 L 21.966 37.69 L 28.768 37.69 L 28.768 32.11 L 30.958 32.11 L 33.677002 34.473 L 36.735 34.473 L 36.735 21.395 L 33.582 21.395 z M 24.041 19.88 C 21.771 19.88 19.924 18.105 19.756 15.858999 C 18.994001 17.835999 17.102001 19.24 14.867001 19.24 C 11.963 19.24 9.607 16.872 9.607 13.952 C 9.607 11.03 11.962 8.667 14.867001 8.667 C 17.709 8.667 20.004002 10.934 20.103 13.77 C 20.777 12.248 22.287 11.181001 24.044 11.181001 C 26.44 11.181001 28.366001 13.133 28.366001 15.530001 C 28.367 17.936 26.441 19.88 24.041 19.88 z M 34.268 31.969 L 32.067 30.032999 L 29.379002 30.032999 L 29.379002 25.723999 L 32.051003 25.723999 L 34.268 23.865 L 34.268 31.969 z "/>
    <rect x="14.846" width="4.045" fill="#800000" y="27.813" height="12.004"/>
    <rect x="7.482" width="4.045" fill="#800000" y="27.813" height="12.004"/>
</svg>
