<?xml version="1.0" encoding="UTF-8"?>
<svg xmlns="http://www.w3.org/2000/svg" xmlns:xlink="http://www.w3.org/1999/xlink" contentScriptType="text/ecmascript" width="84" baseProfile="tiny" zoomAndPan="magnify" contentStyleType="text/css" viewBox="0 0 84 58" height="58" preserveAspectRatio="xMidYMid meet" version="1.1">
    <g stroke-opacity="0.5" fill-opacity="0.5">
        <g>
            <g>
                <polygon fill="#ffffff" points="24.75,45.139 23.554,5.25 27.62,4.216 54.768,9.173 62.369,17.094 62.115,50.893 58.727,53.73         "/>
                <g>
                    <polygon fill="#eacf5a" points="58.105,19.13 58.244,51.648 26.468,44.039 25.207,6.387 51.002,11.548     "/>
                    <polygon fill="#3e2a08" points="58.092,51.713 60.242,49.834 60.689,17.751 58.061,19.173     "/>
                    <polygon fill="#c1a15b" points="53.605,10.457 27.728,5.723 25.14,6.434 51.205,11.736     "/>
                    <polygon fill="#8e6f3a" points="51.205,11.736 58.061,19.173 60.689,17.751 53.605,10.457     "/>
                </g>
                <linearGradient x1="44.1074" gradientTransform="matrix(1 0 0 -1 0 57)" y1="49.4746" x2="39.829" gradientUnits="userSpaceOnUse" y2="23.5399" xlink:type="simple" xlink:actuate="onLoad" id="XMLID_7_" xlink:show="other">
                    <stop stop-color="#9e6434" offset="0"/>
                    <stop stop-color="#7f3c21" offset="1"/>
                </linearGradient>
                <polygon fill="url(#XMLID_7_)" points="27.667,9.273 28.607,30.014 55.598,35.779 55.363,20.75 49.313,13.816    "/>
                <linearGradient x1="28.1362" y1="45.8105" x2="55.5205" gradientUnits="userSpaceOnUse" y2="45.8105" xlink:type="simple" xlink:actuate="onLoad" id="XMLID_8_" xlink:show="other">
                    <stop stop-color="#b0381e" offset="0"/>
                    <stop stop-color="#5c1001" offset="1"/>
                </linearGradient>
                <polygon fill="url(#XMLID_8_)" points="28.175,41.537 28.136,43.248 55.521,50.086 55.504,47.756    "/>
                <linearGradient x1="31.4722" gradientTransform="matrix(1 0 0 -1 0 57)" y1="49.2637" x2="30.6574" gradientUnits="userSpaceOnUse" y2="41.3875" xlink:type="simple" xlink:actuate="onLoad" id="XMLID_9_" xlink:show="other">
                    <stop stop-color="#822519" offset="0"/>
                    <stop stop-color="#670000" offset="1"/>
                </linearGradient>
                <polygon fill="url(#XMLID_9_)" points="29.231,9.585 29.298,14.755 32.726,15.429 32.726,10.365    "/>
                <linearGradient x1="36.7866" gradientTransform="matrix(1 0 0 -1 0 57)" y1="48.1152" x2="35.9794" gradientUnits="userSpaceOnUse" y2="40.3124" xlink:type="simple" xlink:actuate="onLoad" id="XMLID_10_" xlink:show="other">
                    <stop stop-color="#822519" offset="0"/>
                    <stop stop-color="#670000" offset="1"/>
                </linearGradient>
                <polygon fill="url(#XMLID_10_)" points="34.591,10.722 34.591,15.876 38.003,16.505 38.003,11.44    "/>
                <linearGradient x1="42.0142" gradientTransform="matrix(1 0 0 -1 0 57)" y1="47.0078" x2="41.206" gradientUnits="userSpaceOnUse" y2="39.1952" xlink:type="simple" xlink:actuate="onLoad" id="XMLID_11_" xlink:show="other">
                    <stop stop-color="#822519" offset="0"/>
                    <stop stop-color="#670000" offset="1"/>
                </linearGradient>
                <polygon fill="url(#XMLID_11_)" points="39.785,11.828 39.785,17.029 43.264,17.625 43.264,12.531    "/>
                <linearGradient x1="46.7617" gradientTransform="matrix(1 0 0 -1 0 57)" y1="44.7441" x2="46.6274" gradientUnits="userSpaceOnUse" y2="39.3732" xlink:type="simple" xlink:actuate="onLoad" id="XMLID_12_" xlink:show="other">
                    <stop stop-color="#822519" offset="0"/>
                    <stop stop-color="#670000" offset="1"/>
                </linearGradient>
                <polygon fill="url(#XMLID_12_)" points="44.992,12.904 44.992,17.97 48.354,18.642 48.354,13.606    "/>
                <polygon fill="#b0381e" points="28.399,40.564 35.792,42.316 31.604,35.523    "/>
            </g>
            <rect x="0.029" width="84" fill="none" y="0.146" height="58"/>
        </g>
    </g>
</svg>
