<?xml version="1.0" encoding="UTF-8"?>
<svg xmlns="http://www.w3.org/2000/svg" xmlns:xlink="http://www.w3.org/1999/xlink" contentScriptType="text/ecmascript" width="44" baseProfile="tiny" zoomAndPan="magnify" contentStyleType="text/css" viewBox="0 0 44 43.945" height="43.945" preserveAspectRatio="xMidYMid meet" version="1.1">
    <polygon fill="#800000" points="26.828,25.286 21.531,25.286 21.531,21.069 18.883,21.069 18.883,30.581 26.6,30.581 32.125,25.286   29.473,25.286 25.262,21.069 22.613,21.069 "/>
    <rect x="18.201" width="0.02" y="19.688" height="1.564"/>
    <polygon fill="#800000" points="14.416,21.254 18.221,17.451 18.221,19.688 20.121,19.688 20.121,17.451 22.357,19.688   24.26,19.688 20.121,15.552 20.121,13.645 18.221,13.645 18.221,15.552 12.527,21.254 10.449,21.254 14.309,25.075 14.309,25.06   18.201,25.06 18.201,21.254 "/>
    <linearGradient x1="10.6006" gradientTransform="matrix(1 0 0 -1 0.1377 42.7788)" y1="43.0095" x2="24.2312" gradientUnits="userSpaceOnUse" y2="10.5081" xlink:type="simple" xlink:actuate="onLoad" id="XMLID_8_" xlink:show="other">
        <stop stop-color="#ffffcf" offset="0"/>
        <stop stop-color="#f0de80" offset="0.11"/>
        <stop stop-color="#c26e54" offset="0.35"/>
        <stop stop-color="#b0361a" offset="0.48"/>
        <stop stop-color="#ad2621" offset="0.6629"/>
        <stop stop-color="#9c0a00" offset="0.75"/>
        <stop stop-color="#991712" offset="0.82"/>
        <stop stop-color="#8a0000" offset="0.91"/>
        <stop stop-color="#730303" offset="0.99"/>
        <stop stop-color="#730303" offset="1"/>
    </linearGradient>
    <polygon fill="url(#XMLID_8_)" points="9.209,27.036 9.209,12.328 28.914,12.328 28.914,19.645 31,19.645 31,10.172 7.178,10.172   7.178,29.194 18.201,29.194 18.201,27.036 "/>
    <path fill="#800000" d="M 31.0 19.645 L 28.914 19.645 L 18.201 19.645 L 18.201 27.037 L 18.201 29.195 L 18.201 34.798 L 36.573997 34.798 L 36.573997 19.645 L 31.0 19.645 z M 34.494 32.63 L 20.414 32.63 L 20.414 21.85 L 34.494 21.85 L 34.494 32.63 z "/>
</svg>
