<?xml version="1.0" encoding="UTF-8"?>
<svg xmlns="http://www.w3.org/2000/svg" xmlns:xlink="http://www.w3.org/1999/xlink" contentScriptType="text/ecmascript" width="100" baseProfile="tiny" zoomAndPan="magnify" contentStyleType="text/css" viewBox="0 0 100 69.047" height="69.047" preserveAspectRatio="xMidYMid meet" version="1.1">
    <g>
        <g>
            <rect width="100" fill="none" height="69.047"/>
        </g>
        <g>
            <g>
                <path fill="none" d="M 64.448 12.209 C 60.503 13.148 57.085 15.94 55.302 19.682 C 53.808 22.596 53.495 26.077 54.428997 29.468998 C 55.976 35.042 60.733997 39.204 66.006996 39.589996 C 67.814 39.922997 69.674 39.875996 71.478 39.444996 C 74.904 38.632996 77.765 36.51699 79.541 33.489998 C 80.75 31.426998 81.366 29.103998 81.366 26.718998 C 81.366 25.406998 81.181 24.073996 80.804 22.756 C 78.611 15.041 71.58 10.505 64.448 12.209 z "/>
                <path fill="#ffffff" d="M 64.448 12.209 C 57.417 13.882999 52.251 21.567 54.428997 29.471 C 55.976 35.042 60.733997 39.205997 66.006996 39.59 C 75.40199 41.319 83.671 32.796 80.80399 22.758 C 78.611 15.041 71.58 10.505 64.448 12.209 z "/>
                <g>
                    <g>
                        <linearGradient x1="67.4482" gradientTransform="matrix(1 0 0 1 0.1377 -773.8506)" y1="785.54" x2="67.6122" gradientUnits="userSpaceOnUse" y2="812.8018" xlink:type="simple" xlink:actuate="onLoad" id="XMLID_6_" xlink:show="other">
                            <stop stop-color="#b3ddff" offset="0"/>
                            <stop stop-color="#f1de84" offset="0.0337"/>
                            <stop stop-color="#c1a15b" offset="0.5"/>
                            <stop stop-color="#ad832f" offset="1"/>
                        </linearGradient>
                        <path fill="url(#XMLID_6_)" d="M 80.285 22.907 C 82.331 30.09 78.341 37.262 71.351006 38.92 C 64.37201 40.587997 57.056007 36.111 55.009007 28.942995 C 52.963005 21.761995 57.590008 14.395997 64.57201 12.735996 C 71.559 11.067 78.243 15.736 80.285 22.907 z "/>
                        <path fill="#cd9f3d" d="M 76.783 24.0 C 78.644 30.691 75.258 37.327 69.23 38.797 C 63.199997 40.268 56.803997 36.014 54.951996 29.327 C 53.098995 22.604 56.481995 15.967 62.506996 14.506 C 68.538 13.022 74.926 17.273 76.783 24.0 z "/>
                        <radialGradient gradientTransform="matrix(1 0 0 1 0.1377 -773.8506)" gradientUnits="userSpaceOnUse" xlink:type="simple" r="18.021" xlink:actuate="onLoad" cx="62.7969" id="XMLID_7_" cy="794.6494" xlink:show="other">
                            <stop stop-color="#f1de84" offset="0"/>
                            <stop stop-color="#e0bc6c" offset="1"/>
                        </radialGradient>
                        <path fill="url(#XMLID_7_)" d="M 75.143 24.397 C 76.729 30.085 73.85 35.725 68.725 36.976997 C 63.604 38.225 58.166 34.608997 56.592 28.926998 C 55.018 23.211998 57.893 17.571 63.012 16.322998 C 68.137 15.069 73.566 18.68 75.143 24.397 z "/>
                    </g>
                    <g>
                        <linearGradient x1="27.9316" gradientTransform="matrix(0.8872 0.2085 -0.2138 0.9101 131.7065 -548.6641)" y1="627.3359" x2="45.1089" gradientUnits="userSpaceOnUse" y2="651.982" xlink:type="simple" xlink:actuate="onLoad" id="XMLID_8_" xlink:show="other">
                            <stop stop-color="#f1de84" offset="0"/>
                            <stop stop-color="#ad832f" offset="0.5506"/>
                            <stop stop-color="#f1de84" offset="1"/>
                        </linearGradient>
                        <path fill="url(#XMLID_8_)" d="M 27.79 27.597 L 19.508 28.742 C 16.406002 45.982 27.037 55.65 33.875 58.888 L 40.021 53.398003 C 31.115 47.98 26.458 38.423 27.79 27.597 z "/>
                        <linearGradient x1="40.5483" gradientTransform="matrix(0.8872 0.2085 -0.2138 0.9101 131.7065 -548.6641)" y1="622.1729" x2="54.5459" gradientUnits="userSpaceOnUse" y2="642.257" xlink:type="simple" xlink:actuate="onLoad" id="XMLID_9_" xlink:show="other">
                            <stop stop-color="#f1de84" offset="0"/>
                            <stop stop-color="#ad832f" offset="0.5506"/>
                            <stop stop-color="#f1de84" offset="1"/>
                        </linearGradient>
                        <path fill="url(#XMLID_9_)" d="M 40.064 26.011 L 31.607998 27.704 C 29.752998 38.725 36.462 47.551003 42.507996 50.379 L 49.047997 45.363 C 43.938 42.721 38.851 34.442 40.064 26.011 z "/>
                        <linearGradient x1="52.2813" gradientTransform="matrix(0.8872 0.2085 -0.2138 0.9101 131.7065 -548.6641)" y1="617.1152" x2="63.5028" gradientUnits="userSpaceOnUse" y2="633.2161" xlink:type="simple" xlink:actuate="onLoad" id="XMLID_10_" xlink:show="other">
                            <stop stop-color="#f1de84" offset="0"/>
                            <stop stop-color="#ad832f" offset="0.5506"/>
                            <stop stop-color="#f1de84" offset="1"/>
                        </linearGradient>
                        <path fill="url(#XMLID_10_)" d="M 50.738 23.889 L 43.482 25.96 C 42.399 31.738 45.234997 39.041 51.557 42.639 C 51.557 42.639 57.539 38.649 57.551 38.606 C 51.925 35.077 49.993 27.667 50.738 23.889 z "/>
                    </g>
                </g>
            </g>
        </g>
        <g>
            <path fill="#ffffff" d="M 15.088 41.385 C 11.621 41.385 6.866 42.21 5.6640005 49.328 L 5.4820004 50.402 C 5.4820004 50.402 13.474001 50.402 14.422 50.402 C 14.708 50.916 15.136 51.685 15.405 52.174 C 15.134999 52.667 14.708 53.435 14.422 53.95 C 13.474 53.95 5.4820004 53.95 5.4820004 53.95 L 5.6640005 55.022 C 6.8660007 62.139 11.621 62.961 15.088 62.961 C 17.822 62.961 20.262 60.666 22.219 58.817997 C 23.278 57.822 24.278 56.883995 24.805 56.883995 L 49.282 56.883995 L 49.553997 56.577995 C 50.076996 56.00399 51.297997 54.422997 51.324997 52.206997 L 51.324997 52.130997 C 51.299995 49.911995 50.076996 48.333996 49.553997 47.754997 L 49.282 47.455 L 24.805 47.455 C 24.278 47.455 23.278 46.517 22.222 45.522 C 20.262 43.686 17.824 41.385 15.088 41.385 z "/>
            <path fill="#6e8489" d="M 50.407 52.176 C 50.407 52.167 50.409 52.155 50.409 52.150997 L 50.404 52.150997 C 50.382 50.220997 49.279 48.83 48.87 48.384 C 48.353 48.384 24.804998 48.384 24.804998 48.384 C 23.905998 48.384 22.937998 47.465 21.586998 46.197 C 19.746998 44.466 17.46 42.306 15.087997 42.306 C 11.236998 42.306 7.5939975 43.437 6.572997 49.48 C 8.018997 49.48 14.964997 49.48 14.964997 49.48 L 16.456997 52.174 L 14.964997 54.869 C 14.964997 54.869 8.019997 54.869 6.572997 54.869 C 7.593997 60.912 11.236998 62.042 15.087997 62.042 C 17.459995 62.042 19.749998 59.884 21.586998 58.151 C 22.937998 56.883 23.905 55.965 24.804998 55.965 C 24.804998 55.965 48.353996 55.965 48.87 55.965 C 49.277 55.522 50.382 54.128 50.404 52.197 L 50.409 52.197 C 50.409 52.193 50.407 52.186 50.407 52.176 z "/>
        </g>
    </g>
</svg>
