<?xml version="1.0" encoding="UTF-8"?>
<svg xmlns="http://www.w3.org/2000/svg" xmlns:xlink="http://www.w3.org/1999/xlink" contentScriptType="text/ecmascript" width="332" baseProfile="tiny" zoomAndPan="magnify" contentStyleType="text/css" viewBox="0 0 332 82" height="82" preserveAspectRatio="xMidYMid meet" version="1.1">
    <g>
        <g>
            <path d="M 22.0 10.0 C 10.894 10.59 2.0 19.877 2.0 31.11 L 2.0 60.885002 C 2.0 71.676 10.082 80.694 20.801 81.862 L 20.797 81.862 C 20.797 81.862 20.826 81.869 20.848001 81.873 C 20.86 81.873 22.955002 81.998 22.955002 81.998 L 304.895 82.0 C 317.635 82.0 328.0 71.631 328.0 58.885 L 328.0 31.11 C 328.0 25.465 325.802 20.162 321.811 16.174 C 317.824 12.191999 312.525 10.002 306.889 10.01 L 22.0 10.0 z M 20.959 81.891 L 21.014 81.901 C 21.014 81.901 20.979 81.895004 20.945 81.889 C 20.946 81.889 20.959 81.891 20.959 81.891 z " fill-opacity="0.01"/>
            <path d="M 23.0 11.009 C 11.963 11.069 3.0 20.057 3.0 31.11 L 3.0 60.885002 C 3.0 71.198 10.691 79.754 20.908 80.867004 C 20.924002 80.871 20.94 80.87501 20.961 80.879005 C 20.992 80.881004 21.021 80.893005 21.052 80.897 C 21.052 80.897 21.01 80.887 20.975 80.879005 C 21.139 80.90201 21.538 80.922005 23.006 80.99801 L 304.895 81.0 C 317.083 81.0 327.0 71.08 327.0 58.885 L 327.0 31.11 C 327.0 25.733002 324.906 20.68 321.104 16.882 C 317.305 13.088 312.258 11.003 306.891 11.01 L 23.0 11.009 z " fill-opacity="0.02"/>
            <path d="M 23.106 11.999 C 12.571 11.999 4.0 20.572 4.0 31.11 L 4.0 60.885002 C 4.0 70.73 11.374 78.906 21.152 79.9 C 21.154001 79.902 23.056 79.998 23.056 79.998 L 304.895 80.0 C 316.531 80.0 326.0 70.527 326.0 58.885 L 326.0 31.11 C 326.0 26.001 324.01 21.199001 320.396 17.59 C 316.788 13.986 311.992 12.004 306.88998 12.01 L 23.106 11.999 z " fill-opacity="0.04"/>
            <path d="M 23.106 12.999 C 13.123 12.999 5.0 21.124 5.0 31.11 L 5.0 60.885002 C 5.0 70.215004 11.988 77.963 21.254 78.906006 C 21.258999 78.906006 23.107 79.00001 23.107 79.00001 L 304.895 79.00001 C 315.98 79.0 325.0 69.977 325.0 58.885 L 325.0 31.11 C 325.0 26.268002 323.114 21.717001 319.69 18.297 C 316.269 14.8810005 311.724 13.004001 306.892 13.01 L 23.106 12.999 z " fill-opacity="0.07"/>
            <path d="M 306.895 14.01 L 23.106 14.0 C 13.659 14.0 6.0 21.658 6.0 31.11 L 6.0 60.885002 C 6.0 69.744 12.73 77.033005 21.355 77.912 C 21.932 77.967 22.516 78.0 23.106 78.0 L 304.89297 78.0 C 315.429 78.0 324.0 69.426 324.0 58.885 L 324.0 31.11 C 324.0 21.658 316.342 13.999 306.895 14.01 z " fill-opacity="0.11"/>
            <path d="M 305.895 15.0 L 24.106 15.0 C 14.659 15.0 7.0 21.658 7.0 31.11 L 7.0 59.885002 C 7.0 68.744 13.73 76.033005 22.355 76.912 C 22.932 76.967 23.516 77.0 24.106 77.0 L 304.89297 77.0 C 314.877 77.0 323.0 68.873 323.0 58.885 L 323.0 31.11 C 323.0 21.658 315.342 14.989 305.895 15.0 z " fill-opacity="0.13"/>
            <linearGradient x1="163.9995" y1="12.5" x2="163.9995" gradientUnits="userSpaceOnUse" y2="70.5" xlink:type="simple" xlink:actuate="onLoad" id="XMLID_2_" xlink:show="other">
                <stop stop-color="#ffffff" offset="0"/>
                <stop stop-color="#ffe7e6" offset="1"/>
            </linearGradient>
            <path fill="url(#XMLID_2_)" d="M 304.895 14.012 L 23.106 14.0 C 13.659 13.989 6.0 21.648 6.0 31.1 L 6.0 58.885002 C 6.0 68.336 13.659 76.0 23.106 76.0 L 304.89297 76.0 C 314.342 76.0 322.0 68.336 322.0 58.885 L 322.0 31.1 C 322.0 21.648 314.342 13.989 304.895 14.012 z "/>
            <rect width="332" fill="none" height="82"/>
        </g>
    </g>
</svg>
