<?xml version="1.0" encoding="UTF-8"?>
<svg xmlns="http://www.w3.org/2000/svg" xmlns:xlink="http://www.w3.org/1999/xlink" contentScriptType="text/ecmascript" width="84" baseProfile="tiny" zoomAndPan="magnify" contentStyleType="text/css" viewBox="0 0 84 58" height="58" preserveAspectRatio="xMidYMid meet" version="1.1">
    <g>
        <g>
            <g>
                <g>
                    <g>
                        <polygon fill="#ffffff" points="15.362,35.003 34.659,12.46 43.254,12.985 49.658,16.846 57.202,17.461 63.955,21.406        72.638,22.196 72.463,26.845 56.763,55.949 45.974,53.247 38.431,47.721 30.974,45.439 23.871,40.967 16.678,38.599      "/>
                        <g>
                            <g>
                                <g>
                                    <polygon fill="#f1de84" points="71.304,23.303 63.594,22.603 56.54,18.426 48.912,17.798 42.659,13.875 35.315,13.238           16.419,35.533 24.23,38.027 30.848,42.84 38.71,44.943 46.342,49.917 55.139,51.732         "/>
                                    <polygon fill="#e0bc6c" points="69.62,23.804 63.236,23.223 55.988,19.213 48.447,18.475 41.959,14.684 35.843,14.432           18.103,35.313 24.674,37.369 31.473,41.974 39.229,44.141 46.779,48.859 54.499,50.538         "/>
                                    <polygon fill="#eacf5a" points="24.23,38.027 42.659,13.875 48.925,17.836 31.136,42.911         "/>
                                    <polygon fill="#eacf5a" points="56.54,18.426 38.71,44.943 46.104,49.896 63.594,22.603         "/>
                                    <polygon fill="#3e2a08" points="55.139,51.732 46.223,49.809 38.855,44.93 31.079,42.887 24.23,38.013 16.42,35.537           17.161,37.474 24.237,39.899 31.093,44.507 38.739,46.784 46.21,51.782 55.55,54.328         "/>
                                    <polygon fill="#704d18" points="71.305,23.303 55.139,51.732 55.52,54.341 71.222,26.01         "/>
                                    <polygon fill="#704d18" points="24.23,38.027 24.237,39.899 31.063,44.49 31.097,42.913         "/>
                                    <polygon fill="#704d18" points="38.71,44.943 38.739,46.784 46.21,51.782 46.223,49.809         "/>
                                    <polygon fill="#e0bc6c" points="24.719,37.385 24.23,38.013 31.097,42.883 31.75,42.033         "/>
                                    <polygon fill="#e0bc6c" points="48.475,18.467 48.925,17.821 42.659,13.875 42.007,14.712         "/>
                                    <polygon fill="#e0bc6c" points="39.26,44.136 38.724,44.93 46.223,49.809 46.807,48.846         "/>
                                    <polygon fill="#e0bc6c" points="63.211,23.204 63.608,22.603 56.553,18.426 56.019,19.22         "/>
                                </g>
                                <g>
                                    <path fill="#ad832f" d="M 61.772 31.537 L 62.668 32.488 L 63.488 31.898 L 62.407997 30.367998 C 62.407997 30.367998 61.058 30.159998 61.028996 30.576998 C 60.996 30.995 61.772 31.537 61.772 31.537 z "/>
                                    <path fill="#ad832f" d="M 55.988 19.213 L 48.469 18.477 L 36.307 35.621 L 39.215 36.455 C 39.215 36.455 41.134 37.747997 42.888 38.732 L 46.505 33.349 C 46.464 33.278 46.421 33.211998 46.371 33.172 C 45.764004 32.672 45.688004 32.019 45.688004 32.019 C 45.688004 32.019 46.459003 32.143 47.378 32.05 L 56.004 19.221 L 55.988 19.213 z "/>
                                    <path fill="#704d18" d="M 25.829 34.507 C 26.21 34.631 26.464 34.741 26.652 34.852 L 38.583 19.215 L 35.843 19.402 L 34.789997 20.221 C 34.789997 20.221 32.806995 19.359 31.929996 19.037 L 23.212996 29.298 C 23.291998 29.353 23.373997 29.407 23.446997 29.46 C 25.388 30.794 23.929 33.883 25.829 34.507 z "/>
                                    <path fill="#ad832f" d="M 63.207 23.207 L 60.594 27.285 C 60.918003 27.111 62.071003 26.582 63.423 27.094 C 65.021 27.696 67.115 26.818 67.343 26.642 C 67.572 26.465 67.495 24.891 67.495 24.891 C 67.495 24.891 67.677 24.345 67.972 23.655 L 63.238 23.223 L 63.207 23.207 z "/>
                                    <path fill="#cd9f3d" d="M 48.447 18.473 L 44.661 16.262 C 43.485 17.044998 41.559 18.297 41.692 17.999 C 41.883 17.569998 39.936996 19.051 39.936996 19.051 L 39.330997 19.165 L 38.583996 19.214998 L 26.653 34.851 C 27.404 35.288 27.029 35.709003 28.792 36.959003 C 30.996 38.519005 31.495 35.968 31.495 35.968 L 35.146 35.288 L 36.305 35.621 L 48.47 18.475002 L 48.447 18.473 z "/>
                                    <path fill="#cd9f3d" d="M 45.668 39.751 C 46.24 39.079 46.837 36.828 46.837 36.828 C 46.837 36.828 46.955997 34.171 46.504997 33.349 L 42.886997 38.732 C 44.462 38.816 45.425 40.038 45.668 39.751 z "/>
                                    <path fill="#cd9f3d" d="M 56.005 19.22 L 47.378 32.05 C 48.233 32.238 49.726 31.537 50.229004 30.279 C 50.958004 28.458 53.419003 26.993 54.370003 26.386 C 55.322 25.778 56.463 27.11 57.832 27.122 C 59.202 27.136 60.495003 27.342 60.495003 27.342 C 60.495003 27.342 60.535004 27.318998 60.594 27.287 L 63.208 23.207998 L 56.005 19.22 z "/>
                                    <path fill="#ad832f" d="M 55.168 46.578 C 52.899 46.847 50.554 45.932 50.554 45.932 L 48.921 45.501 L 46.773003 48.854 L 46.780003 48.858 L 54.500004 50.537003 L 56.703003 46.641003 C 56.257 46.549 55.746 46.51 55.168 46.578 z "/>
                                    <path fill="#cd9f3d" d="M 46.868 44.959 L 45.46 45.231 L 44.387 44.708 C 44.387 44.708 43.493 43.759 41.693 44.797 C 41.431 44.948 41.198 45.094 40.98 45.233 L 46.774 48.855003 L 48.921997 45.502003 L 46.868 44.959 z "/>
                                    <path fill="#ad832f" d="M 58.41 33.214 L 58.631 32.517002 L 59.695 31.528002 L 58.918 30.985004 L 58.677 30.280005 L 56.566 33.575005 C 56.635 33.609005 56.713997 33.625004 56.806 33.619003 C 57.543 33.567 58.41 33.214 58.41 33.214 z "/>
                                    <path fill="#cd9f3d" d="M 58.659 30.229 C 58.659 30.229 56.796 29.876 56.148 30.395 C 55.497997 30.912 54.636997 30.91 54.636997 30.91 C 54.636997 30.91 54.384 32.025 54.567997 32.100998 C 54.751995 32.176994 55.532 31.858995 55.532 31.858995 L 56.151997 32.264996 C 56.151997 32.264996 56.085995 33.335995 56.564995 33.573997 L 58.67699 30.278996 L 58.659 30.229 z "/>
                                </g>
                            </g>
                            <g>
                                <g>
                                    <path fill="#5c1001" d="M 53.256 21.517 C 53.61 22.476 52.835 23.533 51.525 23.881 C 50.212 24.226 48.864 23.734 48.51 22.774 C 48.156 21.816 48.932003 20.759 50.241 20.412 C 51.554 20.064 52.903 20.558 53.256 21.517 z "/>
                                </g>
                                <g>
                                    <linearGradient x1="-236.6709" gradientTransform="matrix(1.1364 0 0 1.1364 318.4637 -315.3676)" y1="288.8057" x2="-235.3745" gradientUnits="userSpaceOnUse" y2="288.8057" xlink:type="simple" xlink:actuate="onLoad" id="XMLID_2_" xlink:show="other">
                                        <stop stop-color="#9e6434" offset="0"/>
                                        <stop stop-color="#b0381e" offset="0.8933"/>
                                        <stop stop-color="#5c1001" offset="1"/>
                                    </linearGradient>
                                    <polygon fill="url(#XMLID_2_)" points="49.717,2.805 49.9,22.731 51.163,22.952 51.604,2.715         "/>
                                    <polygon fill="#704d18" points="51.159,2.94 51.163,22.952 52.007,21.957 52.04,2.56         "/>
                                    <polygon fill="#b0381e" points="51.028,4.144 51.07,13.733 62.756,10.013         "/>
                                    <polygon fill="#e0bc6c" points="49.739,2.803 50.753,2.457 52.04,2.56 51.159,2.94         "/>
                                    <polygon fill="#e0bc6c" points="51.134,4.233 62.756,10.013 52.026,3.777         "/>
                                </g>
                            </g>
                        </g>
                    </g>
                </g>
            </g>
        </g>
        <g>
            <g>
                <rect width="84" fill="none" height="58"/>
            </g>
        </g>
        <g>
            <path fill="#ffffff" d="M 13.697 34.412 C 10.915999 34.412 7.105 35.072 6.1399994 40.798 L 5.9949994 41.659 C 5.9949994 41.659 12.400999 41.659 13.160999 41.659 C 13.389999 42.075 13.733 42.692 13.949999 43.089 C 13.732999 43.482 13.389998 44.099 13.160999 44.516 C 12.400999 44.516 5.9949994 44.516 5.9949994 44.516 L 6.1399994 45.378 C 7.105 51.098 10.914999 51.761997 13.697 51.761997 C 15.889 51.761997 17.843 49.916996 19.413 48.433 C 20.264 47.632 21.063 46.877 21.486 46.877 L 41.11 46.877 L 41.33 46.635 C 41.751003 46.17 42.731003 44.901997 42.752003 43.118 L 42.752003 43.055 C 42.731003 41.273 41.751003 40.002 41.33 39.539 L 41.11 39.297 L 21.486 39.297 C 21.063 39.297 20.261 38.542 19.416 37.741 C 17.843 36.256 15.89 34.412 13.697 34.412 z "/>
            <path fill="#6e8489" d="M 42.015 43.089 C 42.015 43.081 42.017 43.071 42.017 43.066 L 42.012997 43.066 C 41.993996 41.517 41.108 40.397003 40.782 40.04 C 40.369 40.04 21.485998 40.04 21.485998 40.04 C 20.766998 40.04 19.989998 39.301003 18.905998 38.283 C 17.433 36.887 15.596998 35.153 13.696999 35.153 C 10.610998 35.153 7.6869984 36.062 6.8689985 40.922 C 8.028998 40.922 13.597999 40.922 13.597999 40.922 L 14.792998 43.09 L 13.597999 45.254 C 13.597999 45.254 8.029999 45.254 6.8689985 45.254 C 7.6869984 50.113003 10.608998 51.024 13.696999 51.024 C 15.596998 51.024 17.433 49.289 18.905998 47.896004 C 19.989998 46.876003 20.769 46.136005 21.485998 46.136005 C 21.485998 46.136005 40.368996 46.136005 40.782 46.136005 C 41.108 45.78101 41.995 44.659004 42.012997 43.111004 L 42.017 43.111004 C 42.017 43.103 42.015 43.094 42.015 43.089 z "/>
        </g>
    </g>
</svg>
