<?xml version="1.0" encoding="UTF-8"?>
<svg xmlns="http://www.w3.org/2000/svg" xmlns:xlink="http://www.w3.org/1999/xlink" contentScriptType="text/ecmascript" width="36" baseProfile="tiny" zoomAndPan="magnify" contentStyleType="text/css" viewBox="0 0 36 36" height="36" preserveAspectRatio="xMidYMid meet" version="1.1">
    <path d="M 1.113 17.4 C 1.113 26.379 8.42 33.685997 17.400002 33.685997 C 26.381 33.685997 33.686 26.378998 33.686 17.399998 C 33.686 8.419998 26.381 1.1139984 17.400002 1.1139984 C 8.42 1.115 1.113 8.42 1.113 17.4 z " fill-opacity="0.01"/>
    <path d="M 1.825 17.4 C 1.825 25.987999 8.811 32.975 17.4 32.975 C 25.99 32.975 32.976997 25.988998 32.976997 17.399998 C 32.976997 8.811997 25.990997 1.8269978 17.399998 1.8269978 C 8.811 1.827 1.825 8.813 1.825 17.4 z " fill-opacity="0.02"/>
    <path d="M 2.535 17.4 C 2.535 25.596 9.204 32.264 17.4 32.264 C 25.598 32.264 32.264 25.596 32.264 17.4 C 32.264 9.202 25.598 2.5359993 17.4 2.5359993 C 9.204 2.537 2.535 9.203 2.535 17.4 z " fill-opacity="0.04"/>
    <path d="M 3.135 17.4 C 3.135 25.265999 9.534 31.661999 17.4 31.661999 C 25.264 31.661999 31.661999 25.265999 31.661999 17.399998 C 31.661999 9.534998 25.264 3.1359978 17.399998 3.1359978 C 9.534 3.137 3.135 9.536 3.135 17.4 z " fill-opacity="0.07"/>
    <linearGradient x1="17.8613" gradientTransform="matrix(1 0 0 -1 0.1377 34.834)" y1="2.9648" x2="17.8613" gradientUnits="userSpaceOnUse" y2="25.1552" xlink:type="simple" xlink:actuate="onLoad" id="XMLID_26_" xlink:show="other">
        <stop stop-color="#b0381e" offset="0"/>
        <stop stop-color="#5c1001" offset="1"/>
    </linearGradient>
    <path fill="url(#XMLID_26_)" d="M 18.0 3.784 C 10.16 3.784 3.781 10.161 3.781 18.0 C 3.781 25.839 10.16 32.216 18.0 32.216 C 25.839 32.216 32.218002 25.839 32.218002 18.0 C 32.218002 10.160999 25.839 3.784 18.0 3.784 z "/>
    <linearGradient x1="17.8618" gradientTransform="matrix(1 0 0 -1 0.1377 34.834)" y1="0.9238" x2="17.8618" gradientUnits="userSpaceOnUse" y2="29.8244" xlink:type="simple" xlink:actuate="onLoad" id="XMLID_27_" xlink:show="other">
        <stop stop-color="#b0381e" offset="0"/>
        <stop stop-color="#822519" offset="1"/>
    </linearGradient>
    <path fill="url(#XMLID_27_)" d="M 18.0 4.947 C 10.801001 4.947 4.9449997 10.8029995 4.9449997 18.002 C 4.9449997 25.197 10.799999 31.053001 18.0 31.053001 C 25.198 31.053001 31.055 25.198002 31.055 18.002003 C 31.055 10.804 25.198 4.947 18.0 4.947 z "/>
    <linearGradient x1="17.8628" gradientTransform="matrix(1 0 0 -1 0.1377 34.834)" y1="4.6953" x2="17.8628" gradientUnits="userSpaceOnUse" y2="32.2559" xlink:type="simple" xlink:actuate="onLoad" id="XMLID_28_" xlink:show="other">
        <stop stop-color="#ffffcf" offset="0"/>
        <stop stop-color="#f0de80" offset="0.11"/>
        <stop stop-color="#c26e54" offset="0.35"/>
        <stop stop-color="#b0361a" offset="0.48"/>
        <stop stop-color="#ad2621" offset="0.6629"/>
        <stop stop-color="#9c0a00" offset="0.75"/>
        <stop stop-color="#991712" offset="0.82"/>
        <stop stop-color="#8a0000" offset="0.91"/>
        <stop stop-color="#730303" offset="0.99"/>
        <stop stop-color="#730303" offset="1"/>
    </linearGradient>
    <path fill="url(#XMLID_28_)" d="M 18.0 5.711 C 11.223 5.711 5.7089996 11.224 5.7089996 18.002 C 5.7089996 24.775002 11.223 30.29 18.0 30.29 C 24.777 30.29 30.292 24.775002 30.292 18.002 C 30.292 11.224 24.777 5.711 18.0 5.711 z "/>
    <circle fill="#f1de84" r="11.58" cx="18.001" cy="18.001"/>
    <path fill="#5c1001" d="M 17.52 7.798 C 12.529 7.798 8.152 11.863 8.152 17.163 C 8.152 22.33 12.3550005 26.535 17.52 26.535 C 22.687 26.535 26.891 22.33 26.891 17.163 C 26.889 11.937 22.71 7.798 17.52 7.798 z M 10.258 14.023 C 17.696001 11.742 17.133 10.585 16.574001 9.292 C 17.53 9.18 18.24 9.209 19.148 9.4 C 19.103 10.066999 20.390001 11.417999 20.101 11.8359995 C 18.476 11.7109995 16.723 12.445 15.6779995 14.355 C 15.558999 14.575999 15.664 16.055 15.507999 16.055 C 14.851 16.055 13.82 17.336 15.358 17.597 C 16.747 16.277 16.352 16.055 18.71 17.597 C 19.198 17.707 19.185999 16.382 20.111 16.734 C 21.945 17.431 20.226 19.057 18.387001 18.460999 C 14.286001 16.023998 12.508001 20.149998 13.424002 21.603998 C 14.181002 23.011997 15.912002 22.579998 16.885002 22.896997 C 17.526003 23.111998 17.800003 24.294998 17.912003 25.084997 C 12.07 25.68 7.914 19.117 10.258 14.023 z M 21.768 23.857 C 21.826 23.712 23.573 20.629 23.698 19.329 C 23.807 18.246 22.802 16.941 24.456 17.488 C 24.755999 17.586 25.036999 18.363 25.344 18.446001 C 24.971 20.719 23.637 22.667 21.768 23.857 z "/>
</svg>
