<?xml version="1.0" encoding="UTF-8"?>
<svg xmlns="http://www.w3.org/2000/svg" xmlns:xlink="http://www.w3.org/1999/xlink" contentScriptType="text/ecmascript" width="16" baseProfile="tiny" zoomAndPan="magnify" contentStyleType="text/css" viewBox="0 0 16 16" height="16" preserveAspectRatio="xMidYMid meet" version="1.1">
    <g>
        <g>
            <rect width="16" fill="none" height="16"/>
            <rect x="1.5" width="13" fill="none" y="1.5" height="13"/>
            <g>
                <linearGradient x1="1.5469" y1="8.4971" x2="13.9033" gradientUnits="userSpaceOnUse" y2="8.4971" xlink:type="simple" xlink:actuate="onLoad" id="XMLID_4_" xlink:show="other">
                    <stop stop-color="#f1de84" offset="0"/>
                    <stop stop-color="#cd9f3d" offset="1"/>
                </linearGradient>
                <path fill="url(#XMLID_4_)" d="M 13.884 10.922 L 11.637 6.69 L 6.878 4.819 L 4.133 4.521 L 1.547 4.344 L 1.552 10.833 L 2.052 10.833 C 2.997 10.833 5.863 11.755 7.4700003 12.621 C 7.6260004 12.835 13.81 11.826 13.81 11.826 C 13.81 11.826 13.954 11.104 13.884 10.922 z "/>
                <linearGradient x1="4.5308" y1="7.0303" x2="14.5469" gradientUnits="userSpaceOnUse" y2="7.0303" xlink:type="simple" xlink:actuate="onLoad" id="XMLID_5_" xlink:show="other">
                    <stop stop-color="#e0bc6c" offset="0"/>
                    <stop stop-color="#7f3c21" offset="1"/>
                </linearGradient>
                <path fill="url(#XMLID_5_)" d="M 14.547 4.524 L 13.838 4.524 L 11.895 4.181 C 11.874001 4.177 7.917001 3.6660004 7.917001 3.6660004 L 4.531 5.369 C 4.531 5.369 4.789 6.572 6.122 6.83 C 7.13 7.025 8.383 6.537 8.873 6.141 L 10.863 7.2229996 C 10.863 7.2229996 12.984 9.603 13.505 10.393999 C 13.542 10.358999 14.547 10.352999 14.547 10.352999 L 14.547 4.524 z "/>
                <path fill="#ad832f" d="M 9.621 11.65 C 9.6970005 11.403999 9.628 10.844999 9.628 10.844999 L 7.422 9.75 L 1.552 8.846 L 1.552 10.833 L 2.8590002 10.969 C 3.1060002 11.0199995 3.4340003 11.098 3.808 11.201 C 4.076 12.239 5.3320003 12.599 5.578 12.736 C 5.842 12.882 7.349 13.357 7.729 13.39 C 7.951 13.411 8.158 13.325001 8.348001 13.207001 C 8.797001 13.450001 9.301001 13.667001 9.5720005 13.657001 C 10.080001 13.637 11.816 13.247001 12.172001 13.059001 C 12.469001 12.903001 13.906001 12.541001 13.891001 11.356001 C 13.46 11.473 11.376 12.122 9.621 11.65 z "/>
                <polygon fill="#670000" points="13.693,8.691 12.844,9.542 13.884,10.922 14.547,10.756 14.547,8.516    "/>
                <linearGradient x1="3.646" y1="9.8555" x2="9.6367" gradientUnits="userSpaceOnUse" y2="9.8555" xlink:type="simple" xlink:actuate="onLoad" id="XMLID_6_" xlink:show="other">
                    <stop stop-color="#e0bc6c" offset="0"/>
                    <stop stop-color="#7f3c21" offset="1"/>
                </linearGradient>
                <path fill="url(#XMLID_6_)" d="M 4.114 7.948 C 4.114 7.948 3.324 10.465 3.797 11.172 C 4.27 11.879 6.77 12.703 8.061 12.094 C 9.352 11.4869995 9.482 11.151 9.628 10.848 C 9.774 10.547 8.087 9.065 7.915 8.891 C 7.743 8.719 6.701 8.214 6.054 7.893 C 5.722 7.728 5.242 7.219 4.3 7.476 C 4.183 7.508 4.114 7.948 4.114 7.948 z "/>
                <path fill="#670000" d="M 9.628 10.848 C 7.757 13.533999 4.348 11.783999 3.8180003 11.172999 C 4.0660005 12.235999 5.3450003 12.601999 5.5910006 12.737999 C 5.8550005 12.883999 7.3570004 13.358999 7.7360005 13.391999 C 8.282001 13.440999 8.781 12.905999 8.993 12.639999 C 9.161 12.479 9.91 11.701 9.628 10.848 z "/>
            </g>
        </g>
    </g>
</svg>
