<?xml version="1.0" encoding="UTF-8"?>
<svg xmlns="http://www.w3.org/2000/svg" xmlns:xlink="http://www.w3.org/1999/xlink" contentScriptType="text/ecmascript" width="44" baseProfile="tiny" zoomAndPan="magnify" contentStyleType="text/css" viewBox="0 0 44 44" height="44" preserveAspectRatio="xMidYMid meet" version="1.1">
    <linearGradient x1="21.8257" y1="6.4878" x2="22.0654" gradientUnits="userSpaceOnUse" y2="31.7964" xlink:type="simple" xlink:actuate="onLoad" id="XMLID_118_" xlink:show="other">
        <stop stop-color="#ffffcf" offset="0"/>
        <stop stop-color="#f0de80" offset="0.11"/>
        <stop stop-color="#c26e54" offset="0.35"/>
        <stop stop-color="#b0361a" offset="0.48"/>
        <stop stop-color="#ad2621" offset="0.6629"/>
        <stop stop-color="#9c0a00" offset="0.75"/>
        <stop stop-color="#991712" offset="0.82"/>
        <stop stop-color="#8a0000" offset="0.91"/>
        <stop stop-color="#730303" offset="0.99"/>
        <stop stop-color="#730303" offset="1"/>
    </linearGradient>
    <path fill="url(#XMLID_118_)" d="M 23.016 30.785 L 9.811 30.785 L 9.811 14.413 L 17.18 21.74 L 26.773 21.756 L 34.13 14.413 L 34.13 21.269 L 36.638 23.988 L 36.638 10.654 L 7.305 10.654 L 7.305 33.291 L 23.015 33.291 L 23.015 30.785 L 23.016 30.785 z M 31.626 13.16 L 26.079 18.707 L 17.86 18.707 L 12.315001 13.160001 L 31.626 13.160001 z "/>
    <polygon fill="#800000" points="25.016,31.945 25.016,26.014 31.163,26.014 31.163,22.33 32.391,22.33 38.516,28.979 32.391,35.631   31.163,35.631 31.163,31.945 "/>
    <rect width="44" fill="none" height="44"/>
</svg>
