<?xml version="1.0" encoding="UTF-8"?>
<svg xmlns="http://www.w3.org/2000/svg" xmlns:xlink="http://www.w3.org/1999/xlink" contentScriptType="text/ecmascript" width="58" baseProfile="tiny" zoomAndPan="magnify" contentStyleType="text/css" viewBox="0 0 58 58" height="58" preserveAspectRatio="xMidYMid meet" version="1.1">
    <path d="M 3.729 29.969 C 3.729 44.436 15.501 56.205 29.967001 56.205 C 44.438 56.205 56.205 44.435 56.205 29.969002 C 56.205 15.501001 44.437004 3.729002 29.967001 3.729002 C 15.5 3.729 3.729 15.5 3.729 29.969 z " fill-opacity="0.01"/>
    <path d="M 4.875 29.969 C 4.875 43.803 16.131 55.060997 29.967 55.060997 C 43.805 55.060997 55.060997 43.802998 55.060997 29.968998 C 55.060997 16.131998 43.804996 4.8759975 29.966997 4.8759975 C 16.131 4.876 4.875 16.132 4.875 29.969 z " fill-opacity="0.02"/>
    <path d="M 6.018 29.969 C 6.018 43.170998 16.764 53.913002 29.967 53.913002 C 43.175 53.913002 53.912 43.171 53.912 29.969002 C 53.912 16.760002 43.174 6.0200024 29.967 6.0200024 C 16.764 6.02 6.018 16.759 6.018 29.969 z " fill-opacity="0.04"/>
    <path d="M 6.984 29.969 C 6.984 42.641 17.294 52.947998 29.966 52.947998 C 42.637 52.947998 52.945 42.641 52.945 29.968998 C 52.945 17.295998 42.636 6.985998 29.966 6.985998 C 17.294 6.986 6.984 17.296 6.984 29.969 z " fill-opacity="0.07"/>
    <linearGradient x1="28.8638" gradientTransform="matrix(1 0 0 -1 0.1377 56.834)" y1="50.3154" x2="28.8638" gradientUnits="userSpaceOnUse" y2="5.395" xlink:type="simple" xlink:actuate="onLoad" id="XMLID_103_" xlink:show="other">
        <stop stop-color="#b0381e" offset="0"/>
        <stop stop-color="#822519" offset="1"/>
    </linearGradient>
    <path fill="url(#XMLID_103_)" d="M 29.0 6.098 C 16.369 6.098 6.0949993 16.372 6.0949993 29.001 C 6.0949993 41.628 16.369 51.902 29.0 51.902 C 41.631 51.902 51.906998 41.628 51.906998 29.001001 C 51.907 16.372 41.631 6.098 29.0 6.098 z "/>
    <linearGradient x1="28.8633" gradientTransform="matrix(1 0 0 -1 0.1377 56.834)" y1="48.6748" x2="28.8633" gradientUnits="userSpaceOnUse" y2="7.3243" xlink:type="simple" xlink:actuate="onLoad" id="XMLID_104_" xlink:show="other">
        <stop stop-color="#ffffff" offset="0"/>
        <stop stop-color="#b0381e" offset="1"/>
    </linearGradient>
    <path fill="url(#XMLID_104_)" d="M 50.657 29.001 C 50.657 40.964 40.962 50.656 29.000002 50.656 C 17.037003 50.656 7.344002 40.963997 7.344002 29.000998 C 7.344 17.04 17.037 7.344 29.0 7.344 C 40.962 7.344 50.657 17.04 50.657 29.001 z "/>
    <ellipse fill-opacity="0.3" fill="#cfecff" rx="18.708" cx="29.001" ry="15.271" cy="29.422"/>
    <polygon fill="#800000" points="21.172,20.648 21.172,39.598 42.539,29.977 "/>
</svg>
