<?xml version="1.0" encoding="UTF-8"?>
<svg xmlns="http://www.w3.org/2000/svg" xmlns:xlink="http://www.w3.org/1999/xlink" contentScriptType="text/ecmascript" width="60" baseProfile="tiny" zoomAndPan="magnify" contentStyleType="text/css" viewBox="0 0 60 60" height="60" preserveAspectRatio="xMidYMid meet" version="1.1">
    <linearGradient x1="21.415" y1="8.5757" x2="21.8086" gradientUnits="userSpaceOnUse" y2="48.519" xlink:type="simple" xlink:actuate="onLoad" id="XMLID_16_" xlink:show="other">
        <stop stop-color="#ffffcf" offset="0"/>
        <stop stop-color="#f0de80" offset="0.11"/>
        <stop stop-color="#c26e54" offset="0.35"/>
        <stop stop-color="#b0361a" offset="0.48"/>
        <stop stop-color="#ad2621" offset="0.6629"/>
        <stop stop-color="#9c0a00" offset="0.75"/>
        <stop stop-color="#991712" offset="0.82"/>
        <stop stop-color="#8a0000" offset="0.91"/>
        <stop stop-color="#730303" offset="0.99"/>
        <stop stop-color="#730303" offset="1"/>
    </linearGradient>
    <path fill="url(#XMLID_16_)" d="M 37.043 27.496 C 36.914 28.581 36.84 29.803 36.842 31.193 C 36.839 33.687 37.075 35.652 37.457 37.207 C 37.457 34.553 37.457 30.758 37.457 30.769 C 37.458 29.691 37.307 28.59 37.043 27.496 z M 32.184 35.501 L 29.835 30.645 L 25.729 30.645 L 25.729 46.313 L 29.771 46.313 L 32.371 39.729 L 33.805 39.729 C 33.374 38.481 33.065 37.08 32.872 35.501 L 32.184 35.501 z M 21.208 15.202 C 12.761001 15.202 5.885 21.494 5.885 29.231 L 5.898 39.732 L 11.121 39.732 L 13.734 46.316 L 17.782 46.316 L 17.782 30.648 L 13.67 30.648 L 11.317 35.501 L 10.183001 35.501 L 10.183001 29.077 C 10.274 23.762 15.226001 19.43 21.207 19.43 C 26.753 19.43 31.411 23.055 32.768 27.949 C 32.983 25.439 33.462 23.331 34.231003 21.575 C 31.457 17.909 26.994 15.202 21.208 15.202 z "/>
    <path fill="#5c1001" d="M 46.087 24.812 L 48.169003 26.897 L 46.087 28.978 L 46.087 24.812 z M 46.087 37.568 L 48.169003 35.491 L 46.087 33.404 L 46.087 37.568 z M 43.863 31.191 L 39.357 26.676 L 40.663 25.368 L 44.253 28.964 L 44.253 20.357 L 50.782997 26.884 L 46.468 31.192 L 50.78 35.505 L 44.254997 42.027 L 44.254997 33.423 L 40.663 37.013 L 39.358 35.707 L 43.863 31.191 z M 45.068 43.791 C 50.574 43.791 54.366 41.178 54.366 31.191 C 54.366 21.203 50.574 18.587 45.068 18.587 C 39.564 18.587 35.769 21.201 35.769 31.191 C 35.77 41.178 39.564 43.791 45.068 43.791 "/>
    <rect width="60" fill="none" height="60"/>
</svg>
