<?xml version="1.0" encoding="UTF-8"?>
<svg xmlns="http://www.w3.org/2000/svg" xmlns:xlink="http://www.w3.org/1999/xlink" contentScriptType="text/ecmascript" width="40" baseProfile="tiny" zoomAndPan="magnify" contentStyleType="text/css" viewBox="0 0 40 50" height="50" preserveAspectRatio="xMidYMid meet" version="1.1">
    <g>
        <rect width="40" fill="none" height="50"/>
        <g>
            <linearGradient x1="-0.0947" gradientTransform="matrix(1 0 0 -1 0.1377 48.834)" y1="47.04" x2="39.7833" gradientUnits="userSpaceOnUse" y2="7.1619" xlink:type="simple" xlink:actuate="onLoad" id="XMLID_8_" xlink:show="other">
                <stop stop-color="#b0381e" offset="0"/>
                <stop stop-color="#b0381e" offset="0.0056"/>
                <stop stop-color="#ffffff" offset="1"/>
            </linearGradient>
            <path fill="url(#XMLID_8_)" d="M 38.198 0.5 L 1.801 0.5 C 1.083 0.5 0.5 1.212 0.5 2.09 L 6.997 47.909 C 6.997 48.786 7.580001 49.5 8.298 49.5 L 31.628 49.5 C 32.348 49.5 32.93 48.787 32.93 47.909 L 39.5 2.09 C 39.5 1.212 38.915 0.5 38.198 0.5 L 38.198 0.5 z "/>
            <linearGradient x1="39.3623" gradientTransform="matrix(1 0 0 1 0.1377 472.6553)" y1="-447.6553" x2="0.3618" gradientUnits="userSpaceOnUse" y2="-447.6553" xlink:type="simple" xlink:actuate="onLoad" id="XMLID_9_" xlink:show="other">
                <stop stop-color="#e1ebf4" offset="0"/>
                <stop stop-color="#f9fcff" offset="1"/>
            </linearGradient>
            <path fill="url(#XMLID_9_)" d="M 38.198 0.5 L 1.801 0.5 C 1.083 0.5 0.5 1.212 0.5 2.09 L 6.997 47.909 C 6.997 48.786 7.580001 49.5 8.298 49.5 L 31.628 49.5 C 32.348 49.5 32.93 48.787 32.93 47.909 L 39.5 2.09 C 39.5 1.212 38.915 0.5 38.198 0.5 L 38.198 0.5 z " display="none"/>
            <linearGradient x1="-1384.6128" gradientTransform="matrix(0.3186 0 0 -0.3186 479.3354 -383.7063)" y1="-1282.8174" x2="-1498.8545" gradientUnits="userSpaceOnUse" y2="-1282.8174" xlink:type="simple" xlink:actuate="onLoad" id="XMLID_10_" xlink:show="other">
                <stop stop-color="#fff5f5" offset="0"/>
                <stop stop-color="#ffa29e" offset="1"/>
            </linearGradient>
            <polygon fill="url(#XMLID_10_)" points="8.298,47.909 31.628,47.909 38.198,2.09 1.801,2.09   "/>
        </g>
    </g>
</svg>
