<?xml version="1.0" encoding="UTF-8"?>
<svg xmlns="http://www.w3.org/2000/svg" xmlns:xlink="http://www.w3.org/1999/xlink" contentScriptType="text/ecmascript" width="60" baseProfile="tiny" zoomAndPan="magnify" contentStyleType="text/css" viewBox="-0.428 0.265 60 52" height="52" preserveAspectRatio="xMidYMid meet" version="1.1">
    <path fill="#bf0000" d="M 7.831 6.264 C 6.586 6.264 5.5719995 7.278 5.5719995 8.523 L 5.5719995 44.003 C 5.5719995 45.248997 6.5859995 46.264 7.8309994 46.264 L 51.311996 46.264 C 52.557995 46.264 53.571995 45.249 53.571995 44.003 L 53.571995 8.522 C 53.571995 7.277001 52.557995 6.2630005 51.311996 6.2630005 L 7.831 6.264 L 7.831 6.264 z "/>
    <g>
        <path fill="#f4b9ba" d="M 6.572 44.003 L 6.572 8.522 C 6.572 7.828 7.135 7.263001 7.831 7.263001 L 51.312 7.263001 C 52.005 7.263001 52.572 7.8270006 52.572 8.522 L 52.572 44.003 C 52.572 44.696 52.007 45.262997 51.312 45.262997 L 7.831 45.262997 C 7.137 45.264 6.572 44.698 6.572 44.003 z "/>
    </g>
    <path fill="#8b0000" d="M 52.189 7.641 C 51.947 7.389 51.661 7.264 51.312 7.264 L 7.831 7.264 C 7.137 7.264 6.572 7.828 6.572 8.523 L 6.572 44.003 C 6.572 44.35 6.715 44.655 6.944 44.876 C 6.947 44.89 7.572001 44.249 7.572001 44.249 L 7.572001 8.264 L 51.57 8.264 L 52.189 7.641 z "/>
    <path fill="#ffffff" d="M 6.954 44.886 C 7.197 45.138 7.483 45.263 7.832 45.263 L 51.312 45.263 C 52.006 45.263 52.572 44.699 52.572 44.003 L 52.572 8.522 C 52.572 8.176001 52.428997 7.870001 52.199997 7.649 C 52.197 7.636 51.572 8.277 51.572 8.277 C 51.572 8.277 51.572 43.483 51.572 44.262 C 50.834 44.262 7.572998 44.262 7.572998 44.262 L 6.954 44.886 z "/>
    <path fill="#ffffff" d="M 26.777 18.198 L 21.404 29.84 L 17.566 26.002 L 14.9 28.667 L 22.562 36.329 C 22.562 36.329 28.34 23.807 29.189 21.971 C 31.301998 21.971 44.244 21.971 44.244 21.971 L 44.244 18.2 L 26.777 18.198 L 26.777 18.198 z "/>
</svg>
