<?xml version="1.0" encoding="UTF-8"?>
<svg xmlns="http://www.w3.org/2000/svg" xmlns:xlink="http://www.w3.org/1999/xlink" contentScriptType="text/ecmascript" width="100" baseProfile="tiny" zoomAndPan="magnify" contentStyleType="text/css" viewBox="-0.398 -0.188 100 100" height="100" preserveAspectRatio="xMidYMid meet" version="1.1">
    <rect x="0" width="100" fill="none" height="100"/>
    <path fill="#ffffff" d="M 70.245 17.888 L 62.296 19.584 L 54.602 25.692 L 57.851 30.188 L 41.145 25.39 C 38.058 24.523 28.789 21.911 28.789 21.911 L 20.193 24.365 L 19.905 36.311 C 19.905 36.311 22.074 36.929 22.943 37.176003 C 21.668 37.493004 18.297 38.333004 18.297 38.333004 L 43.247 72.759 L 51.077003 66.83501 L 53.195004 62.91301 C 53.195004 62.91301 51.603004 60.480007 50.467003 58.743004 C 56.008003 60.243004 85.381004 68.202 85.381004 68.202 L 90.90201 63.378 L 91.045006 52.706 C 91.045006 52.706 89.07101 52.163 88.10801 51.899 C 88.99001 51.22 90.61701 50.039 90.84401 49.865 L 70.245 17.888 z "/>
    <linearGradient x1="305.5893" gradientTransform="matrix(1 0 0 1 -281.3428 -1148.3408)" y1="1175.9507" x2="333.5789" gradientUnits="userSpaceOnUse" y2="1215.2292" xlink:type="simple" xlink:actuate="onLoad" id="XMLID_9_" xlink:show="other">
        <stop stop-color="#9e6434" offset="0"/>
        <stop stop-color="#7f3c21" offset="1"/>
    </linearGradient>
    <polygon fill="url(#XMLID_9_)" points="40.071,53.603 49.844,65.854 51.465,62.859 44.581,52.358 "/>
    <polygon fill="#9e6434" points="49.844,65.854 41.678,54.914 85.077,66.666 85.327,56.662 20.074,38.894 43.266,70.821 "/>
    <linearGradient x1="21.4204" y1="36.4316" x2="94.3041" gradientUnits="userSpaceOnUse" y2="57.7393" xlink:type="simple" xlink:actuate="onLoad" id="XMLID_10_" xlink:show="other">
        <stop stop-color="#e0bc6c" offset="0"/>
        <stop stop-color="#7f3c21" offset="1"/>
    </linearGradient>
    <polygon fill="url(#XMLID_10_)" points="89.818,53.558 28.528,36.836 20.092,38.913 85.243,57.039 "/>
    <polygon fill="#5c1001" points="87.223,52.927 28.528,36.836 24.185,37.813 84.78,54.833 "/>
    <polygon fill="#7f3c21" points="85.332,57.019 89.831,53.518 89.666,62.66 85.065,66.664 "/>
    <linearGradient x1="316.0981" gradientTransform="matrix(1 0 0 1 -281.3428 -1148.3408)" y1="1184.7104" x2="382.6787" gradientUnits="userSpaceOnUse" y2="1148.298" xlink:type="simple" xlink:actuate="onLoad" id="XMLID_11_" xlink:show="other">
        <stop stop-color="#7f3c21" offset="0"/>
        <stop stop-color="#670000" offset="1"/>
    </linearGradient>
    <polygon fill="url(#XMLID_11_)" points="62.304,32.489 28.431,22.983 21.07,25.075 66.131,37.986 "/>
    <polygon fill="#5c1001" points="69.756,18.826 63.651,20.298 84.206,53.121 89.147,49.31 "/>
    <linearGradient x1="91.2358" y1="75.2085" x2="63.5688" gradientUnits="userSpaceOnUse" y2="48.3755" xlink:type="simple" xlink:actuate="onLoad" id="XMLID_12_" xlink:show="other">
        <stop stop-color="#f1de84" offset="0"/>
        <stop stop-color="#b0381e" offset="1"/>
    </linearGradient>
    <polygon fill="url(#XMLID_12_)" points="56.307,25.888 64.471,36.825 21.07,25.075 20.823,35.075 84.186,53.091 63.651,20.298 "/>
    <path fill="#ffffff" d="M 27.949 54.729 C 28.37 55.594 28.903 56.373 30.052 57.224 L 55.518 70.892 C 55.518 70.892 58.793 74.464 55.374996 79.318 C 55.374996 79.318 50.539 83.1 48.876995 83.443 C 48.876995 83.443 22.417995 69.336 22.412994 69.336 C 20.578997 68.357 19.813995 68.697 16.273994 69.41 C 9.34 70.804 4.755 60.798 5.101 56.734 L 10.849 53.207 L 14.926001 56.752 L 14.788001 56.107 L 8.703001 50.496 C 8.703001 50.496 14.685001 46.996 16.239 46.719 C 17.644 46.378 19.121 46.483 20.565 46.936996 C 20.564 46.935 26.393 47.812 27.949 54.729 z "/>
    <linearGradient x1="287.27" gradientTransform="matrix(1 0 0 1 -281.3428 -1148.3408)" y1="1206.6665" x2="297.9282" gradientUnits="userSpaceOnUse" y2="1206.6665" xlink:type="simple" xlink:actuate="onLoad" id="XMLID_13_" xlink:show="other">
        <stop stop-color="#f1de84" offset="0"/>
        <stop stop-color="#eacf5a" offset="0.2697"/>
        <stop stop-color="#e0bc6c" offset="0.5719"/>
        <stop stop-color="#cd9f3d" offset="1"/>
    </linearGradient>
    <polygon fill="url(#XMLID_13_)" points="5.927,57.179 12.139,62.41 16.586,59.313 10.741,54.24 "/>
    <polygon fill="#cd9f3d" points="12.122,62.414 17.482,64.437 15.913,59.794 "/>
    <linearGradient x1="301.2573" gradientTransform="matrix(1 0 0 -1 -281.3428 -270.5615)" y1="-323.3833" x2="332.2583" gradientUnits="userSpaceOnUse" y2="-344.9376" xlink:type="simple" xlink:actuate="onLoad" id="XMLID_14_" xlink:show="other">
        <stop stop-color="#f1de84" offset="0"/>
        <stop stop-color="#eacf5a" offset="0.2697"/>
        <stop stop-color="#e0bc6c" offset="0.5719"/>
        <stop stop-color="#cd9f3d" offset="1"/>
    </linearGradient>
    <path fill="url(#XMLID_14_)" d="M 10.104 50.599 L 47.306 77.753 L 29.597 57.892 C 27.992 56.71 27.251 55.445 26.846 54.357 C 24.965 49.24 19.662 45.652 14.844001 48.101 L 10.104 50.599 z "/>
    <linearGradient x1="301.8022" gradientTransform="matrix(1 0 0 -1 -281.3428 -270.5615)" y1="-323.5757" x2="334.6499" gradientUnits="userSpaceOnUse" y2="-346.4139" xlink:type="simple" xlink:actuate="onLoad" id="XMLID_15_" xlink:show="other">
        <stop stop-color="#f1de84" offset="0"/>
        <stop stop-color="#eacf5a" offset="0.2697"/>
        <stop stop-color="#e0bc6c" offset="0.5719"/>
        <stop stop-color="#cd9f3d" offset="1"/>
    </linearGradient>
    <path fill="url(#XMLID_15_)" d="M 19.546 47.563 C 17.758 47.157 15.806999 47.459 14.830999 48.125 L 10.094 50.625 L 14.541 49.872 L 19.546 47.563 z "/>
    <path fill="#5c1001" d="M 50.888 74.787 L 50.744 81.586 L 54.676 78.772 C 56.162 76.773994 56.78 74.40199 54.912 71.534 L 50.888 74.787 z "/>
    <linearGradient x1="306.5287" gradientTransform="matrix(1 0 0 1 -281.3428 -1148.3408)" y1="1214.7036" x2="336.2856" gradientUnits="userSpaceOnUse" y2="1214.7036" xlink:type="simple" xlink:actuate="onLoad" id="XMLID_16_" xlink:show="other">
        <stop stop-color="#f1de84" offset="0"/>
        <stop stop-color="#eacf5a" offset="0.2697"/>
        <stop stop-color="#e0bc6c" offset="0.5719"/>
        <stop stop-color="#cd9f3d" offset="1"/>
    </linearGradient>
    <polygon fill="url(#XMLID_16_)" points="25.186,61.073 29.639,57.958 54.943,71.539 50.868,74.766 "/>
    <path fill="#b0381e" d="M 50.888 74.753 C 54.59 80.962 49.284 82.443 49.001 82.522995 C 47.765 81.864 24.21 69.30699 22.801 68.558 C 21.397 67.81 19.675 67.436 16.006998 68.567 C 11.237998 70.033005 5.888998 62.511 5.937998 57.17 L 12.141998 62.424004 C 15.864998 62.599003 16.934998 58.783005 15.529999 55.615005 L 10.094999 50.604004 C 12.433999 48.746 17.82 49.939003 20.255 53.447 C 21.758 55.603 22.962 59.576004 25.203 61.06 L 50.888 74.753 z "/>
    <path fill="#eacf5a" d="M 47.402 79.455 C 48.457 80.018005 49.521 79.625 49.779 78.57 C 50.029 77.526 49.378 76.215 48.323 75.646 C 47.272 75.089 46.200996 75.482994 45.948 76.53 C 45.696 77.589 46.344 78.892 47.402 79.455 "/>
</svg>
