<?xml version="1.0" encoding="UTF-8"?>
<svg xmlns="http://www.w3.org/2000/svg" xmlns:xlink="http://www.w3.org/1999/xlink" contentScriptType="text/ecmascript" width="42" baseProfile="tiny" zoomAndPan="magnify" contentStyleType="text/css" viewBox="0 0 42 29" height="29" preserveAspectRatio="xMidYMid meet" version="1.1">
    <path fill="#ffffff" d="M 17.147 24.949 L 17.012 23.656 L 15.202 26.172 C 5.537 21.361 6.861 12.358 9.95 9.4 L 12.2 10.24 L 11.679 8.11 C 15.246 3.9719996 21.624 0.18399954 29.940998 2.4719996 C 38.767 4.8999996 39.686996 15.683001 33.075996 21.669 C 26.544 27.584 18.869 25.877 17.147 24.949 z "/>
    <path fill="#f1de84" d="M 28.986 2.951 C 23.247 1.112 15.745 3.542 12.347 8.417 L 22.793 11.823 C 22.793 11.823 29.018 2.961 28.986 2.951 z "/>
    <polygon fill="#5c1001" points="22.939,14.576 29.213,5.095 28.962,2.919 22.759,11.799 "/>
    <polygon fill="#7f3c21" points="22.759,11.799 12.347,8.417 12.902,10.99 22.939,14.576 "/>
    <path fill="#c1a15b" d="M 14.354 22.2 C 8.615 20.361 6.718 14.918001 10.117001 10.043001 L 20.563 13.449001 L 14.354 22.2 z "/>
    <path fill="#7f3c21" d="M 14.354 22.2 C 11.54 21.310001 9.482 19.338001 8.587 16.474 C 8.856 18.533 10.507 22.668001 14.969 24.703001 L 14.354 22.2 z "/>
    <polygon fill="#5c1001" points="20.711,16.202 14.97,24.703 14.354,22.2 20.531,13.424 "/>
    <path fill="#c1a15b" d="M 33.902 15.383 C 37.282 10.535 35.424 5.125 29.759 3.257 L 23.566002 12.129 L 33.902 15.383 z "/>
    <polygon fill="#7f3c21" points="33.902,15.383 23.566,12.129 23.715,14.881 34.169,18.355 "/>
    <linearGradient x1="33.9023" y1="12.9561" x2="36.2275" gradientUnits="userSpaceOnUse" y2="12.9561" xlink:type="simple" xlink:actuate="onLoad" id="XMLID_3_" xlink:show="other">
        <stop stop-color="#8e6f3a" offset="0"/>
        <stop stop-color="#9e6434" offset="0.5337"/>
        <stop stop-color="#7f3c21" offset="1"/>
    </linearGradient>
    <path fill="url(#XMLID_3_)" d="M 33.902 15.383 C 33.902 15.383 36.697 11.455 34.958 7.557 C 36.854 11.245 36.064 13.878 36.064 13.878 C 36.064 13.878 35.853 15.826 34.168 18.356 L 33.902 15.383 z "/>
    <path fill="#c1a15b" d="M 16.826 21.572 C 22.564 23.413 29.972 20.952 33.370003 16.076 L 23.036003 12.8220005 L 16.826 21.572 z "/>
    <linearGradient x1="35.6934" gradientTransform="matrix(1 0 0 -1 0.1377 27.834)" y1="9.4434" x2="14.6834" gradientUnits="userSpaceOnUse" y2="3.5634" xlink:type="simple" xlink:actuate="onLoad" id="XMLID_4_" xlink:show="other">
        <stop stop-color="#8e6f3a" offset="0"/>
        <stop stop-color="#9e6434" offset="0.5337"/>
        <stop stop-color="#7f3c21" offset="1"/>
    </linearGradient>
    <path fill="url(#XMLID_4_)" d="M 17.441 24.076 L 16.826 21.572 C 21.363 23.158 29.734001 21.480001 33.370003 16.076 L 33.637 19.049 C 31.113 22.545 24.945 26.214 17.441 24.076 z "/>
    <path fill="#ffffff" d="M 6.896 17.18 C 5.508 17.18 3.6079998 17.508 3.126 20.356 L 3.054 20.786001 C 3.054 20.786001 6.25 20.786001 6.6289997 20.786001 C 6.7439995 20.992 6.915 21.300001 7.023 21.497002 C 6.916 21.692001 6.744 22.000002 6.6289997 22.206001 C 6.2499995 22.206001 3.0539997 22.206001 3.0539997 22.206001 L 3.1259997 22.636002 C 3.6069996 25.484001 5.5079994 25.812002 6.896 25.812002 C 7.99 25.812002 8.965 24.896002 9.748 24.158003 C 10.1710005 23.759003 10.571 23.383003 10.783 23.383003 L 20.574001 23.383003 L 20.683 23.264004 C 20.893 23.034004 21.381 22.401003 21.392 21.514004 L 21.392 21.48 C 21.381 20.593 20.893 19.960999 20.683 19.73 L 20.574001 19.611 L 10.783001 19.611 C 10.5720005 19.611 10.172001 19.236 9.750001 18.839 C 8.966 18.098 7.991 17.18 6.896 17.18 z "/>
    <path fill="#6e8489" d="M 21.025 21.495 C 21.025 21.491001 21.026 21.486 21.026 21.484001 L 21.023998 21.484001 C 21.014997 20.713001 20.571999 20.154001 20.409998 19.976002 C 20.202997 19.976002 10.782998 19.976002 10.782998 19.976002 C 10.424998 19.976002 10.035998 19.611002 9.495998 19.101002 C 8.760999 18.409002 7.8449984 17.545002 6.8959985 17.545002 C 5.3559985 17.545002 3.8989985 17.997002 3.4899986 20.414001 C 4.0689983 20.414001 6.8469987 20.414001 6.8469987 20.414001 L 7.443999 21.493002 L 6.847 22.57 C 6.847 22.57 4.0690002 22.57 3.49 22.57 C 3.899 24.987999 5.356 25.439 6.896 25.439 C 7.845 25.439 8.761 24.578 9.496 23.883 C 10.037001 23.376 10.425 23.008999 10.783 23.008999 C 10.783 23.008999 20.203 23.008999 20.41 23.008999 C 20.572 22.831 21.015 22.275 21.024 21.502998 L 21.026001 21.502998 C 21.026 21.502 21.025 21.498 21.025 21.495 z "/>
</svg>
