<?xml version="1.0" encoding="UTF-8"?>
<svg xmlns="http://www.w3.org/2000/svg" xmlns:xlink="http://www.w3.org/1999/xlink" contentScriptType="text/ecmascript" width="60" baseProfile="tiny" zoomAndPan="magnify" contentStyleType="text/css" viewBox="-0.285 0.161 60 52" height="52" preserveAspectRatio="xMidYMid meet" version="1.1">
    <path fill="#ff5656" d="M 51.456 6.162 L 7.975 6.162 C 6.73 6.162 5.7159996 7.176 5.7159996 8.4210005 L 5.7159996 43.901 C 5.7159996 45.147 6.73 46.162003 7.9749994 46.162003 L 51.455997 46.162003 C 52.701996 46.162003 53.715996 45.147003 53.715996 43.901 L 53.715996 8.421 C 53.716 7.176 52.702 6.162 51.456 6.162 z M 52.716 43.901 C 52.716 44.596 52.151 45.162003 51.456 45.162003 L 7.975 45.162003 C 7.281 45.162003 6.716 44.597004 6.716 43.901 L 6.716 8.421 C 6.716 7.7269993 7.28 7.162 7.975 7.162 L 51.455997 7.162 C 52.15 7.162 52.715996 7.726 52.715996 8.421 L 52.715996 43.901 z " fill-opacity="0.5" stroke-opacity="0.5"/>
    <g>
        <linearGradient x1="-664.91" gradientTransform="matrix(1 0 0 -1 694.6259 1048.2908)" y1="997.5907" x2="-664.91" gradientUnits="userSpaceOnUse" y2="1042.7107" xlink:type="simple" xlink:actuate="onLoad" id="XMLID_2_" xlink:show="other">
            <stop stop-color="#c7d9d9" offset="0"/>
            <stop stop-color="#c7d9d9" offset="0.26"/>
            <stop stop-color="#ffffff" offset="0.72"/>
            <stop stop-color="#ffffff" offset="1"/>
        </linearGradient>
        <path fill="url(#XMLID_2_)" d="M 51.456 7.162 L 7.975 7.162 C 7.281 7.162 6.716 7.726 6.716 8.4210005 L 6.716 43.901 C 6.716 44.596 7.28 45.162003 7.975 45.162003 L 51.455997 45.162003 C 52.15 45.162003 52.715996 44.597004 52.715996 43.901 L 52.715996 8.421 C 52.716 7.727 52.151 7.162 51.456 7.162 z " fill-opacity="0.5"/>
    </g>
    <path fill="#f4b9ba" d="M 51.456 7.162 L 7.975 7.162 C 7.281 7.162 6.716 7.726 6.716 8.4210005 L 6.716 43.901 C 6.716 44.596 7.28 45.162003 7.975 45.162003 L 51.455997 45.162003 C 52.15 45.162003 52.715996 44.597004 52.715996 43.901 L 52.715996 8.421 C 52.716 7.727 52.151 7.162 51.456 7.162 z "/>
    <rect x="27.83" y="16.161" fill-opacity="0.5" transform="matrix(-0.7072 -0.707 0.707 -0.7072 32.2352 65.6713)" fill="#ff5656" width="3.771" height="20" stroke-opacity="0.5"/>
    <circle fill-opacity="0.5" fill="#ff5656" r="3.15" cx="24.165" cy="20.611" stroke-opacity="0.5"/>
    <circle fill-opacity="0.5" fill="#ff5656" r="3.15" cx="35.266" cy="31.712" stroke-opacity="0.5"/>
</svg>
