<?xml version="1.0" encoding="UTF-8"?>
<svg xmlns="http://www.w3.org/2000/svg" xmlns:xlink="http://www.w3.org/1999/xlink" contentScriptType="text/ecmascript" width="24" baseProfile="tiny" zoomAndPan="magnify" contentStyleType="text/css" viewBox="0 0 24 24" height="24" preserveAspectRatio="xMidYMid meet" version="1.1">
    <g>
        <g>
            <path fill="#800000" d="M 23.0 11.616 L 23.0 7.921 L 21.559 7.921 L 22.334 4.127 L 18.592 4.127 L 17.817 7.921 L 16.41 7.921 L 17.174 4.127 L 13.438 4.127 L 12.66 7.921 L 10.634 7.921 L 10.634 4.425 L 9.174 4.5870004 L 10.047999 3.4410005 L 6.334 1.343 L 5.829 2.567 L 5.342 1.341 L 1.58 3.437 L 2.462 4.587 L 1.0 4.425 L 1.0 8.538 L 2.458 8.387 L 1.58 9.52 L 5.328 11.644001 L 5.828 10.422001 L 6.348 11.641001 L 9.466 9.849001 L 9.466 11.616001 L 11.914 11.616001 L 11.683 12.773001 L 9.467 12.773001 L 9.467 16.458 L 10.937 16.458 L 10.17 20.23 L 13.926001 20.23 L 14.674001 16.458 L 16.09 16.458 L 15.317 20.23 L 19.073 20.23 L 19.829 16.458 L 23.0 16.458 L 23.0 12.773001 L 20.58 12.773001 L 20.812 11.616001 L 23.0 11.616001 z M 9.633 7.428 L 6.959 7.149 L 8.557 9.219 L 6.827 10.212 L 5.808 7.82 L 4.8320003 10.212 L 3.077 9.219 L 4.683 7.15 L 2.0 7.429 L 2.0 5.544 L 4.683 5.842 L 3.077 3.747 L 4.832 2.769 L 5.8079996 5.237 L 6.827 2.768 L 8.556999 3.7469995 L 6.959 5.842 L 9.633 5.544 L 9.633 7.428 z M 22.0 13.773 L 22.0 15.459 L 19.014 15.459 L 18.256 19.23 L 16.543001 19.23 L 17.316002 15.459 L 13.853002 15.459 L 13.107001 19.23 L 11.396002 19.23 L 12.162002 15.459 L 10.469002 15.459 L 10.469002 13.773 L 12.503002 13.773 L 13.139002 10.613 L 10.470002 10.613 L 10.470002 8.922 L 13.479002 8.922 L 14.254002 5.127 L 15.957002 5.127 L 15.187002 8.922 L 18.632002 8.922 L 19.407 5.127 L 21.11 5.127 L 20.333 8.922 L 22.0 8.922 L 22.0 10.614 L 19.994 10.614 L 19.361 13.774 L 22.0 13.774 z M 14.203 13.773 L 17.648 13.773 L 18.291 10.612 L 14.846001 10.612 L 14.203 13.773 z M 15.664 11.616 L 17.066 11.616 L 16.83 12.773 L 15.428 12.773 L 15.664 11.616 z "/>
        </g>
    </g>
    <rect width="24" fill="none" height="24"/>
</svg>
