<?xml version="1.0" encoding="UTF-8"?>
<svg xmlns="http://www.w3.org/2000/svg" xmlns:xlink="http://www.w3.org/1999/xlink" contentScriptType="text/ecmascript" width="26" baseProfile="tiny" zoomAndPan="magnify" contentStyleType="text/css" viewBox="0 0 26 26" height="26" preserveAspectRatio="xMidYMid meet" version="1.1">
    <g>
        <path fill="#3e2a08" d="M 18.677 22.18 L 15.014 18.543 C 13.96 19.057 12.805 19.324 11.637 19.324 C 7.35 19.324 3.8640003 15.839 3.8640003 11.553999 C 3.8640003 7.269999 7.350001 3.784999 11.637 3.784999 C 15.926001 3.784999 19.413 7.2699986 19.413 11.553999 C 19.413 12.829999 19.099 14.077999 18.495 15.202999 L 22.161 18.836 L 18.677 22.18 L 18.677 22.18 z M 7.542 13.191 C 8.194 14.811 9.783 15.958 11.635 15.958 C 13.489 15.958 15.079 14.811 15.731001 13.191 L 7.542 13.191 L 7.542 13.191 z M 7.544 9.912 L 15.729 9.912 C 15.077 8.295 13.487 7.151 11.637 7.151 C 9.785 7.15 8.197 8.294 7.544 9.912 L 7.544 9.912 z "/>
        <path fill="#eacf5a" d="M 17.466 15.336 C 18.177 14.244 18.596 12.954 18.596 11.554001 C 18.596 7.7210007 15.474998 4.601001 11.636999 4.601001 C 7.800999 4.601001 4.6799994 7.7200007 4.6799994 11.554001 C 4.6799994 15.388 7.801 18.508 11.636999 18.508 C 12.923999 18.508 14.124999 18.151 15.159999 17.537 L 18.686 21.037 L 20.988998 18.826 L 17.466 15.336 z M 11.636 16.775 C 8.754999 16.775 6.408999 14.433 6.408999 11.553999 C 6.408999 8.675999 8.754999 6.333999 11.636 6.333999 C 14.517 6.333999 16.863 8.675999 16.863 11.553999 C 16.863 14.434 14.518 16.775 11.636 16.775 z M 7.767 12.374 L 15.529 12.374 L 15.529 10.728 L 7.767 10.728 L 7.767 12.374 z "/>
        <rect width="26" fill="none" height="26"/>
    </g>
</svg>
