<?xml version="1.0" encoding="UTF-8"?>
<svg xmlns="http://www.w3.org/2000/svg" xmlns:xlink="http://www.w3.org/1999/xlink" contentScriptType="text/ecmascript" width="100" baseProfile="tiny" zoomAndPan="magnify" contentStyleType="text/css" viewBox="0 0.001 100 99.996" height="99.996" preserveAspectRatio="xMidYMid meet" version="1.1">
    <g>
        <path fill="#ffffff" d="M 64.104 22.82 C 64.104 22.82 50.928997 22.278 36.742996 38.015 C 36.386997 38.475998 36.033997 38.904 35.679996 39.339 C 35.913998 38.63 36.033997 37.935 36.033997 37.271 C 36.033997 36.669 35.937996 36.092 35.746 35.56 C 35.746 35.56 33.023 22.031002 32.459 19.222002 C 35.187 19.886002 36.996 20.915003 37.961 22.454002 C 38.611 23.488003 38.937 24.788002 38.937 26.377003 C 38.937 27.920002 37.973 32.052002 37.973 32.156002 C 37.973 32.611004 38.246 33.033 38.687 33.211002 L 39.673 33.607002 C 39.964 33.725002 40.291 33.715004 40.575 33.582 C 40.859 33.45 41.077 33.205 41.175 32.907 C 45.336 20.239002 39.92 16.480001 35.146 13.164001 C 35.146 13.164001 30.265999 9.705002 29.464 6.2070017 C 29.322 5.5980015 28.719 5.2160015 28.108002 5.3530016 L 26.719002 5.6650014 C 26.191 5.781 25.83 6.249 25.83 6.77 C 25.83 6.847 30.77 32.635998 30.77 32.635998 C 27.179 32.862 23.424 35.822998 22.218 39.378998 C 21.575 41.276997 21.777 43.107998 22.77 44.404 C 23.724 45.649 25.267 46.269 27.115 46.152 C 28.107 46.089 29.101 45.806 30.061 45.372 C 23.240002 51.593002 16.297 54.125 8.036001 55.386 L 8.2160015 59.795002 L 31.373001 90.223 C 42.865 89.059 53.303 84.609 67.094 66.826996 C 80.161 49.968994 87.805 47.739 97.776 46.565994 L 98.744 41.997993 L 64.104 22.82 z "/>
        <g>
            <g>
                <path fill="#7f3c21" d="M 9.28 56.533 C 36.964 53.562 37.475 26.138 63.946 24.031002 L 97.323 42.356003 C 63.726997 46.829002 66.51199 80.617004 32.406998 85.413 L 9.28 56.533 z "/>
                <linearGradient x1="-142.4116" gradientTransform="matrix(2.2727 0 0 2.2727 352.0472 -1304.9824)" y1="605.4751" x2="-129.7804" gradientUnits="userSpaceOnUse" y2="588.7495" xlink:type="simple" xlink:actuate="onLoad" id="XMLID_6_" xlink:show="other">
                    <stop stop-color="#f1de84" offset="0"/>
                    <stop stop-color="#cd9f3d" offset="1"/>
                </linearGradient>
                <path fill="url(#XMLID_6_)" d="M 13.945 62.458 C 18.161 62.187 28.556 60.306 37.474 50.167 L 53.824997 65.171 C 47.672997 72.868 37.056 79.073 27.766996 79.864 L 13.945 62.458 z "/>
                <linearGradient x1="-129.5435" gradientTransform="matrix(2.2727 0 0 2.2727 352.0472 -1304.9824)" y1="595.021" x2="-136.8638" gradientUnits="userSpaceOnUse" y2="606.4087" xlink:type="simple" xlink:actuate="onLoad" id="XMLID_7_" xlink:show="other">
                    <stop stop-color="#f1de84" offset="0"/>
                    <stop stop-color="#cd9f3d" offset="1"/>
                </linearGradient>
                <path fill="url(#XMLID_7_)" d="M 39.523 48.072 C 44.041 42.815 49.752 35.114998 59.968 30.342999 L 78.76 41.91 C 72.78 44.994 66.864 48.84 56.143 62.706 L 39.523 48.072 z "/>
                <linearGradient x1="63.1152" y1="34.0815" x2="90.8115" gradientUnits="userSpaceOnUse" y2="34.0815" xlink:type="simple" xlink:actuate="onLoad" id="XMLID_8_" xlink:show="other">
                    <stop stop-color="#f1de84" offset="0"/>
                    <stop stop-color="#cd9f3d" offset="1"/>
                </linearGradient>
                <path fill="url(#XMLID_8_)" d="M 63.115 29.046 C 63.115 29.046 69.575005 27.56 70.534004 27.64 L 90.811005 38.798 C 90.811005 38.798 86.914 38.751 82.218 40.527 L 63.115 29.046 z "/>
                <g>
                    <polygon fill="#eacf5a" points="10.623,58.365 13.732,57.992 15.871,60.74 13.034,61.344     "/>
                    <polygon fill="#eacf5a" points="16.932,57.201 19.312,60 22.555,58.915 20.136,56.176     "/>
                    <polygon fill="#eacf5a" points="22.805,54.983 25.279,57.717 28.045,56.158 25.507,53.497     "/>
                    <polygon fill="#eacf5a" points="27.734,51.969 30.305,54.574 32.664,52.706 30.004,50.122     "/>
                    <polygon fill="#eacf5a" points="32.002,48.404 34.648,50.899 36.729,48.751 34.025,46.308     "/>
                    <polygon fill="#eacf5a" points="35.795,44.406 38.557,46.851 40.482,44.579 37.76,42.26     "/>
                    <polygon fill="#eacf5a" points="39.543,40.308 42.266,42.589 44.236,40.41 41.447,38.16     "/>
                    <polygon fill="#eacf5a" points="43.277,36.298 46.096,38.478 48.246,36.451 45.307,34.296     "/>
                    <polygon fill="#eacf5a" points="47.365,32.587 50.313,34.658 52.656,32.833 49.771,30.803     "/>
                    <polygon fill="#eacf5a" points="52.129,29.349 55.036,31.296 57.925,29.872 54.93,27.949     "/>
                    <polygon fill="#eacf5a" points="57.58,26.915 60.648,28.717 64.141,27.777 61.007,25.949     "/>
                    <polygon fill="#eacf5a" points="64.043,25.367 67.248,27.199 69.121,26.867 65.777,25.046     "/>
                </g>
                <g>
                    <polygon fill="#eacf5a" points="28.779,81.04 32.257,80.421 34.58,83.312 31.012,83.91     "/>
                    <polygon fill="#eacf5a" points="35.938,79.5 38.327,82.322 42.132,80.896 39.641,78.111     "/>
                    <polygon fill="#eacf5a" points="42.7,76.658 45.803,74.753 48.428,77.435 45.229,79.378     "/>
                    <polygon fill="#eacf5a" points="48.382,72.876 50.993,75.531 53.678,73.178 51.031,70.585     "/>
                    <polygon fill="#eacf5a" points="53.248,68.378 55.937,70.928 58.264,68.349 55.55,65.894     "/>
                    <polygon fill="#eacf5a" points="57.598,63.505 60.359,65.937 62.555,63.217 59.754,60.875     "/>
                    <polygon fill="#eacf5a" points="61.766,58.476 64.553,60.79 66.75,58.058 63.918,55.817     "/>
                    <polygon fill="#eacf5a" points="66.01,53.507 68.854,55.692 71.273,53.171 68.398,51.01     "/>
                    <polygon fill="#eacf5a" points="70.67,48.892 73.643,50.956 76.365,48.728 73.359,46.704     "/>
                    <polygon fill="#eacf5a" points="76.082,44.906 79.109,46.865 82.322,45.021 79.254,43.103     "/>
                    <polygon fill="#eacf5a" points="82.434,41.733 85.598,43.597 89.523,42.358 86.357,40.503     "/>
                    <polygon fill="#eacf5a" points="90.246,39.704 93.5,41.483 95.322,41.285 91.996,39.46     "/>
                </g>
            </g>
            <path fill="#3e2a08" d="M 32.566 85.119 C 64.754 80.836006 65.996 44.345005 97.291 42.315002 L 96.695 45.29 C 65.334 48.154 66.652 84.57 31.722 88.826004 L 32.566 85.119 z "/>
            <polygon fill="#3e2a08" points="32.566,85.119 9.28,56.533 9.345,58.831 31.723,88.826   "/>
            <polygon fill="#eacf5a" points="31.521,83.844 30.768,87.533 28.743,84.763 29.209,80.937   "/>
            <polygon fill="#eacf5a" points="10.761,58.335 10.996,60.935 13.207,64.013 13.136,61.339   "/>
        </g>
        <g>
            <rect x="62.488" width="25.236" fill="#5c1001" y="60.697" height="25.238"/>
            <rect x="65.613" width="18.988" fill="#ffffff" y="63.822" height="18.988"/>
            <polygon fill="#5c1001" points="68.123,66.613 68.123,79.983 82.732,73.281   "/>
        </g>
        <rect width="100" fill="none" y="0.001" height="99.996"/>
        <g>
            <radialGradient gradientUnits="userSpaceOnUse" xlink:type="simple" r="11.8717" xlink:actuate="onLoad" cx="34.2402" id="XMLID_9_" cy="21.5884" xlink:show="other">
                <stop stop-color="#b0381e" offset="0"/>
                <stop stop-color="#5c1001" offset="1"/>
            </radialGradient>
            <path fill="url(#XMLID_9_)" d="M 32.873 35.19 L 26.964 6.77 L 28.352001 6.458 C 29.276001 10.481 31.389002 11.895 33.532 13.419001 C 38.41 16.880001 44.262 19.857 40.095 32.546 L 39.109 32.151 C 41.981003 22.277 38.168 18.919 31.0 17.725002 L 34.836 36.718002 L 32.873 35.19 z "/>
            <radialGradient gradientTransform="matrix(1.3648 -0.0852 -0.4595 1.36 147.5028 -712.4402)" id="XMLID_10_" gradientUnits="userSpaceOnUse" xlink:show="other" xlink:type="simple" r="3.8121" cx="102.1475" fx="101.3719" cy="557.356" fy="557.1688" xlink:actuate="onLoad">
                <stop stop-color="#b0381e" offset="0"/>
                <stop stop-color="#5c1001" offset="1"/>
            </radialGradient>
            <path fill="url(#XMLID_10_)" d="M 34.586 39.044 C 33.533997 42.150997 30.161 44.828 27.040998 45.018997 C 23.925 45.218998 22.242998 42.855995 23.294998 39.746998 C 24.347998 36.645996 27.724998 33.968 30.840998 33.770996 C 33.955 33.576 35.639 35.937 34.586 39.044 z "/>
        </g>
    </g>
</svg>
