<?xml version="1.0" encoding="UTF-8"?>
<svg xmlns="http://www.w3.org/2000/svg" xmlns:xlink="http://www.w3.org/1999/xlink" contentScriptType="text/ecmascript" width="60" baseProfile="tiny" zoomAndPan="magnify" contentStyleType="text/css" viewBox="0 0 60 60" height="60" preserveAspectRatio="xMidYMid meet" version="1.1">
    <path fill="#47c30e" d="M 52.988 26.93 C 52.277 25.874 51.465 25.25 50.742 24.701 C 49.812 23.987 43.883 21.998 36.699 28.18 C 35.867 32.053 33.468002 35.332 30.202002 37.349 C 28.911 41.412 29.979002 44.347 30.463 44.98 C 31.014002 45.703 31.637 46.515 32.693 47.226 C 32.953 47.386 33.447002 47.584 33.978 47.575996 C 34.508 47.561996 35.722 46.772995 37.244 45.108997 C 38.767 43.444996 39.41 42.104996 39.553 41.476 L 39.633003 41.116997 L 39.395004 40.836 C 39.24601 40.656 39.067005 40.488 38.854004 40.322 C 37.957005 39.602997 36.082005 39.491997 36.057003 39.494 L 35.770004 39.474 L 35.629005 39.219997 C 35.570007 39.113 34.199005 36.474 38.145004 32.377 C 42.23901 28.433998 44.875004 29.807 44.981003 29.866 L 45.237003 30.006 L 45.258003 30.294 C 45.258003 30.315 45.367004 32.191998 46.084003 33.09 C 46.252003 33.304 46.422005 33.48 46.601 33.631 L 46.881 33.869 L 47.239 33.787 C 47.869003 33.643 49.211 33.003998 50.873 31.478998 C 52.537003 29.957 53.326 28.743998 53.34 28.211998 C 53.348 27.685 53.148 27.19 52.988 26.93 z "/>
    <linearGradient x1="22.1631" y1="9.7827" x2="23.0254" gradientUnits="userSpaceOnUse" y2="34.9688" xlink:type="simple" xlink:actuate="onLoad" id="XMLID_20_" xlink:show="other">
        <stop stop-color="#ffffcf" offset="0"/>
        <stop stop-color="#f0de80" offset="0.11"/>
        <stop stop-color="#c26e54" offset="0.35"/>
        <stop stop-color="#b0361a" offset="0.48"/>
        <stop stop-color="#ad2621" offset="0.6629"/>
        <stop stop-color="#9c0a00" offset="0.75"/>
        <stop stop-color="#991712" offset="0.82"/>
        <stop stop-color="#8a0000" offset="0.91"/>
        <stop stop-color="#730303" offset="0.99"/>
        <stop stop-color="#730303" offset="1"/>
    </linearGradient>
    <path fill="url(#XMLID_20_)" d="M 22.689 12.774 C 16.022999 12.774 10.617 18.319 10.617 25.161 C 10.617 31.997 16.022999 37.544 22.689 37.544 C 29.356 37.544 34.762 31.996998 34.762 25.161 C 34.762 18.319 29.356 12.774 22.689 12.774 z M 22.689 16.511 C 24.428 16.511 26.043 17.051 27.383 17.976 L 15.688 29.973 C 14.787 28.598 14.26 26.94 14.26 25.16 C 14.26 20.381 18.033 16.511 22.689 16.511 z M 22.689 33.807 C 20.953 33.807 19.336 33.266 17.995998 32.341 L 29.690998 20.342 C 30.592 21.718 31.118998 23.376 31.118998 25.16 C 31.119 29.936 27.348 33.807 22.689 33.807 z "/>
    <rect width="60" fill="none" height="60"/>
</svg>
