<?xml version="1.0" encoding="UTF-8"?>
<svg xmlns="http://www.w3.org/2000/svg" xmlns:xlink="http://www.w3.org/1999/xlink" contentScriptType="text/ecmascript" width="16" baseProfile="tiny" zoomAndPan="magnify" contentStyleType="text/css" viewBox="0 0 16 16" height="16" preserveAspectRatio="xMidYMid meet" version="1.1">
    <path fill="#ffffff" d="M 8.609 3.942 C 8.816 3.942 9.015 3.9759998 9.214001 4.003 C 8.694 3.7629998 8.120001 3.6189997 7.5100007 3.6189997 C 5.2560005 3.6189997 3.4210005 5.4529996 3.4210005 7.708 C 3.4210005 8.932 3.9720006 10.018 4.826 10.768 C 4.3980002 10.082 4.1400003 9.28 4.1400003 8.413 C 4.141 5.943 6.141 3.942 8.609 3.942 z "/>
    <path fill="#f4b9ba" d="M 9.216 4.003 C 9.016 3.9759998 8.816999 3.9419997 8.61 3.9419997 C 6.1429996 3.9419997 4.1419997 5.943 4.1419997 8.410999 C 4.1419997 9.278999 4.3999996 10.081999 4.8279996 10.766999 C 5.5479994 11.4 6.4809995 11.794999 7.5119996 11.794999 C 9.766 11.794999 11.599999 9.9609995 11.599999 7.705999 C 11.6 6.064 10.619 4.652 9.216 4.003 z "/>
    <path fill="#f4b9ba" d="M 12.221 5.799 C 12.4609995 6.389 12.599999 7.0319996 12.599999 7.7079997 C 12.599999 10.457 10.407 12.687 7.6809993 12.778999 C 7.9809995 12.842999 8.291999 12.879999 8.61 12.879999 C 11.0789995 12.879999 13.08 10.879 13.08 8.410999 C 13.078 7.433 12.754 6.535 12.221 5.799 z "/>
    <path fill="#bf0000" d="M 12.6 7.708 C 12.6 7.032 12.461 6.389 12.221001 5.7990003 C 11.464001 3.9380002 9.641001 2.6190002 7.5120006 2.6190002 C 4.7060003 2.6190002 2.4230003 4.9020004 2.4230003 7.708 C 2.4230003 10.514 4.7060003 12.797001 7.5120006 12.797001 C 7.5700006 12.797001 7.6230006 12.781001 7.680001 12.779001 C 10.406 12.688 12.6 10.457 12.6 7.708 z M 7.511 11.797 C 6.48 11.797 5.547 11.401 4.827 10.768 C 3.973 10.018 3.4220002 8.931999 3.4220002 7.7079997 C 3.4220002 5.4539995 5.256 3.6189995 7.5110006 3.6189995 C 8.121 3.6189995 8.695001 3.7629995 9.216001 4.0029993 C 10.619 4.652 11.6 6.064 11.6 7.708 C 11.6 9.962 9.766 11.797 7.511 11.797 z "/>
</svg>
