<?xml version="1.0" encoding="UTF-8"?>
<svg xmlns="http://www.w3.org/2000/svg" xmlns:xlink="http://www.w3.org/1999/xlink" contentScriptType="text/ecmascript" width="100" baseProfile="tiny" zoomAndPan="magnify" contentStyleType="text/css" viewBox="-3 -3 100 100" height="100" preserveAspectRatio="xMidYMid meet" version="1.1">
    <g>
        <rect x="-3" width="100" fill="none" y="-3" height="100"/>
        <g>
            <linearGradient x1="-632.2061" gradientTransform="matrix(-1.1364 0 0 -1.1364 -671.4172 146.9324)" y1="62.7041" x2="-632.2061" gradientUnits="userSpaceOnUse" y2="56.6015" xlink:type="simple" xlink:actuate="onLoad" id="XMLID_6_" xlink:show="other">
                <stop stop-color="#f1de84" offset="0"/>
                <stop stop-color="#b0381e" offset="1"/>
            </linearGradient>
            <polygon fill="url(#XMLID_6_)" points="7.798,82.575 86.207,82.563 86.207,75.653 7.792,75.66   "/>
            <linearGradient x1="-630.8853" gradientTransform="matrix(-1.1364 0 0 -1.1364 -671.4172 146.9324)" y1="63.7021" x2="-630.8853" gradientUnits="userSpaceOnUse" y2="55.6853" xlink:type="simple" xlink:actuate="onLoad" id="XMLID_7_" xlink:show="other">
                <stop stop-color="#f1de84" offset="0"/>
                <stop stop-color="#b0381e" offset="1"/>
            </linearGradient>
            <polygon fill="url(#XMLID_7_)" points="39.819,83.604 51.181,83.588 51.181,74.513 39.817,74.521   "/>
            <g>
                <g>
                    <polygon fill="#cd9f3d" points="21.062,73.648 19.676,17.404 50.928,22.948 50.393,81.156     "/>
                    <polygon fill="#eacf5a" points="79.582,13.089 51.425,10.396 19.676,17.404 50.928,22.948     "/>
                    <polygon fill="#9e6434" points="50.385,81.138 78.836,66.305 79.582,13.089 50.713,22.914     "/>
                </g>
                <linearGradient x1="-15.9424" gradientTransform="matrix(1.1364 0.009 0 -1.1364 35.7951 107.8385)" y1="36.0127" x2="9.3262" gradientUnits="userSpaceOnUse" y2="28.9148" xlink:type="simple" xlink:actuate="onLoad" id="XMLID_8_" xlink:show="other">
                    <stop stop-color="#9e6434" offset="0"/>
                    <stop stop-color="#7f3c21" offset="1"/>
                </linearGradient>
                <polygon fill="url(#XMLID_8_)" points="50.604,69.658 50.309,82.133 21.093,74.381 20.646,63.402    "/>
                <linearGradient x1="50.2979" y1="68.9023" x2="79.1592" gradientUnits="userSpaceOnUse" y2="68.9023" xlink:type="simple" xlink:actuate="onLoad" id="XMLID_9_" xlink:show="other">
                    <stop stop-color="#9e6434" offset="0"/>
                    <stop stop-color="#7f3c21" offset="1"/>
                </linearGradient>
                <polygon fill="url(#XMLID_9_)" points="79.159,55.687 78.846,66.6 50.298,82.117 50.539,69.658    "/>
            </g>
        </g>
        <g>
            <g>
                <g>
                    <polyline fill="#f1de84" points="41.607,25.365 39.199,24.917 39.569,63.531 41.979,63.979 41.607,25.365     "/>
                    <polyline fill="#f1de84" points="36.276,24.375 33.877,23.928 34.248,62.543 36.648,62.988 36.276,24.375     "/>
                    <polyline fill="#f1de84" points="30.956,23.386 28.546,22.938 28.917,61.553 31.326,62 30.956,23.386     "/>
                    <polyline fill="#f1de84" points="25.633,22.397 23.224,21.95 23.594,60.564 26.003,61.012 25.633,22.397     "/>
                </g>
            </g>
        </g>
        <g>
            <circle fill="#b0381e" r="2.474" cx="46.387" cy="29.125"/>
            <radialGradient gradientTransform="matrix(1.1364 0 0 -1.1364 35.7951 146.9324)" gradientUnits="userSpaceOnUse" xlink:type="simple" r="3.0239" xlink:actuate="onLoad" cx="9.1343" id="XMLID_10_" cy="104.2686" xlink:show="other">
                <stop stop-color="#f1de84" offset="0"/>
                <stop stop-color="#b0381e" offset="1"/>
            </radialGradient>
            <circle fill="url(#XMLID_10_)" r="1.674" cx="46.449" cy="29.125"/>
        </g>
    </g>
</svg>
