<?xml version="1.0" encoding="UTF-8"?>
<svg xmlns="http://www.w3.org/2000/svg" xmlns:xlink="http://www.w3.org/1999/xlink" contentScriptType="text/ecmascript" width="26" baseProfile="tiny" zoomAndPan="magnify" contentStyleType="text/css" viewBox="0 0 26 26" height="26" preserveAspectRatio="xMidYMid meet" version="1.1">
    <g>
        <path fill="#eacf5a" d="M 7.894 18.719 L 11.57 18.719 L 11.57 7.281 L 7.894 7.281 L 7.894 18.719 z M 14.429 7.281 L 14.429 18.719 L 18.107 18.719 L 18.107 7.281 L 14.429 7.281 z " fill-opacity="0.3"/>
        <rect width="26" fill="none" height="26"/>
        <path fill="#5c1001" d="M 7.077 19.535 L 12.386 19.535 L 12.386 6.464 L 7.077 6.464 L 7.077 19.535 z M 7.894 7.281 L 11.57 7.281 L 11.57 18.719 L 7.894 18.719 L 7.894 7.281 z M 13.612 6.464 L 13.612 19.535 L 18.924 19.535 L 18.924 6.464 L 13.612 6.464 z M 18.106 18.719 L 14.428001 18.719 L 14.428001 7.281 L 18.106 7.281 L 18.106 18.719 z " fill-opacity="0.3"/>
    </g>
</svg>
