<?xml version="1.0" encoding="UTF-8"?>
<svg xmlns="http://www.w3.org/2000/svg" xmlns:xlink="http://www.w3.org/1999/xlink" contentScriptType="text/ecmascript" width="80" baseProfile="tiny" zoomAndPan="magnify" contentStyleType="text/css" viewBox="0 0 80 44" height="44" preserveAspectRatio="xMidYMid meet" version="1.1">
    <polygon fill="#800000" points="79.396,22.35 70.532,27.467 70.532,17.234 "/>
    <polygon fill="#800000" points="9.468,17.41 9.468,27.645 0.604,22.527 "/>
    <linearGradient x1="40.0063" y1="-0.4507" x2="40.0063" gradientUnits="userSpaceOnUse" y2="34.7881" xlink:type="simple" xlink:actuate="onLoad" id="XMLID_64_" xlink:show="other">
        <stop stop-color="#ffffcf" offset="0"/>
        <stop stop-color="#f0de80" offset="0.11"/>
        <stop stop-color="#c26e54" offset="0.35"/>
        <stop stop-color="#b0361a" offset="0.48"/>
        <stop stop-color="#ad2621" offset="0.6629"/>
        <stop stop-color="#9c0a00" offset="0.75"/>
        <stop stop-color="#991712" offset="0.82"/>
        <stop stop-color="#8a0000" offset="0.91"/>
        <stop stop-color="#730303" offset="0.99"/>
        <stop stop-color="#730303" offset="1"/>
    </linearGradient>
    <path fill="url(#XMLID_64_)" d="M 65.352 9.499 L 14.662 9.499 L 14.662 34.499 L 65.351 34.499 L 65.351 9.499 z M 30.751 32.219 L 16.759 32.219 L 16.759 11.779001 L 30.751 11.779001 L 30.751 32.219 z M 46.938 32.219 L 32.944 32.219 L 32.944 11.779001 L 46.936 11.779001 L 46.936 32.219 L 46.938 32.219 z M 63.15 32.219 L 49.159 32.219 L 49.159 11.779001 L 63.15 11.779001 L 63.15 32.219 z "/>
</svg>
