<?xml version="1.0" encoding="UTF-8"?>
<!DOCTYPE svg PUBLIC "-//W3C//DTD SVG 1.1 Tiny//EN" "http://www.w3.org/Graphics/SVG/1.1/DTD/svg11-tiny.dtd">
<svg xmlns="http://www.w3.org/2000/svg" xmlns:xlink="http://www.w3.org/1999/xlink" baseProfile="tiny" height="112" preserveAspectRatio="xMidYMid meet" version="1.1" viewBox="0 0 100 112" width="100" zoomAndPan="magnify">
<g>
<g>
<path d="M0,50c0,20.775,9.268,32.907,17.043,39.426C25.688,96.673,37.26,101,48,101    c13.602,0,26.404-5.311,36.047-14.954C93.689,76.404,99,63.604,99,50C99,31.442,85.154,2,48,2C21.533,2,0,23.532,0,50z" fill-opacity="0.01"/>
<path d="M1,50c0,36.426,28.828,50,47,50c13.335,0,25.887-5.207,35.34-14.661C92.793,75.886,98,63.335,98,50    C98,31.828,84.426,3,48,3C22.084,3,1,24.084,1,50z" fill-opacity="0.02"/>
<path d="M2,50c0,35.697,28.215,49,46,49c13.068,0,25.367-5.104,34.633-14.368C91.896,75.367,97,63.066,97,50    C97,32.215,83.697,4,48,4C22.636,4,2,24.636,2,50z" fill-opacity="0.03"/>
<path d="M3,50c0,34.969,27.602,48,45,48c26.467,0,48-21.533,48-48C96,32.602,82.969,5,48,5    C23.188,5,3,25.187,3,50z" fill-opacity="0.07"/>
<path d="M4,50c0,34.24,26.988,47,44,47c25.916,0,47-21.084,47-47C95,32.988,82.24,6,48,6    C23.738,6,4,25.738,4,50z" fill-opacity="0.08"/>
<path d="M5,50c0,33.512,26.375,46,43,46c25.363,0,46-20.636,46-46C94,33.375,81.512,7,48,7    C24.289,7,5,26.29,5,50z" fill-opacity="0.12"/>
<path d="M6,50c0,31,23.875,45,42,45c24.875,0,45-20.125,45-45C93,32,79,8,48,8C24.875,8,6,26.875,6,50z" fill-opacity="0.15"/>
<circle cx="48" cy="50" fill="#FFFFFF" r="44"/>
<circle cx="48.467" cy="50.426" fill="#F64B47" r="36.008"/>
<circle cx="48.176" cy="50.5" fill="#F8D435" r="29"/>
<rect fill="none" height="112" width="100"/>
</g>
</g>
<rect fill="#8F0400" height="2.348" width="8.259" x="5.5" y="48.667"/>
<rect fill="#8F0400" height="2.348" width="8.259" x="82.021" y="48.343"/>
<rect fill="#8F0400" height="8.259" width="2.349" x="46.917" y="8.463"/>
<rect fill="#8F0400" height="8.26" width="2.349" x="46.917" y="83.85"/>
</svg>
