<?xml version="1.0" encoding="UTF-8"?>
<svg xmlns="http://www.w3.org/2000/svg" xmlns:xlink="http://www.w3.org/1999/xlink" contentScriptType="text/ecmascript" width="8" baseProfile="tiny" zoomAndPan="magnify" contentStyleType="text/css" viewBox="-0.5 0.5 8 8" height="8" preserveAspectRatio="xMidYMid meet" version="1.0">
    <path fill="#656b6b" d="M -0.5 0.5 L -0.5 8.5 L 7.5 8.5 C 7.5 4.089 3.911 0.5 -0.5 0.5 z " fill-opacity="0.01"/>
    <path fill="#656b6b" d="M 6.5 8.5 C 6.5 4.641 3.359 1.5 -0.5 1.5 L -0.5 8.5 L 6.5 8.5 z " fill-opacity="0.02"/>
    <path fill="#656b6b" d="M 5.5 8.5 C 5.5 5.191 2.809 2.5 -0.5 2.5 L -0.5 8.5 L 5.5 8.5 z " fill-opacity="0.04"/>
    <path fill="#656b6b" d="M 4.5 8.5 C 4.5 5.743 2.257 3.5 -0.5 3.5 L -0.5 8.5 L 4.5 8.5 z " fill-opacity="0.07"/>
    <path fill="#656b6b" d="M 3.5 8.5 C 3.5 6.2939997 1.706 4.5 -0.5 4.5 L -0.5 8.5 L 3.5 8.5 z " fill-opacity="0.11"/>
    <path fill="#656b6b" d="M 2.5 8.5 C 2.5 6.843 1.157 5.5 -0.5 5.5 L -0.5 8.5 L 2.5 8.5 z " fill-opacity="0.13"/>
    <polygon fill="#656b6b" fill-opacity="0.1" points="2.5,8.5 2.5,3.5 1.5,3.5 -0.5,3.5 -0.5,8.5 "/>
    <polygon fill="#ffffff" points="1.5,8.5 1.5,4.5 0.508,4.5 -0.5,4.5 -0.5,8.5 "/>
    <linearGradient x1="-98.82" y1="-92" x2="56.18" gradientUnits="userSpaceOnUse" y2="62.5" xlink:type="simple" xlink:actuate="onLoad" id="_3" xlink:show="other">
        <stop stop-color="#f4b9ba" offset="0"/>
        <stop stop-color="#ff5656" offset="1"/>
    </linearGradient>
    <rect x="-0.5" width="2" fill="url(#_3)" y="5.5" height="3"/>
    <linearGradient x1="133.07" y1="157.64" x2="-147.43" gradientUnits="userSpaceOnUse" y2="-158.86" xlink:type="simple" xlink:actuate="onLoad" id="_4" xlink:show="other">
        <stop stop-color="#f4b9ba" offset="0"/>
        <stop stop-color="#f4b9ba" offset="0.62"/>
        <stop stop-color="#ffffff" offset="1"/>
    </linearGradient>
    <rect x="-0.5" width="1" fill="url(#_4)" y="6.5" height="2"/>
</svg>
