<?xml version="1.0" encoding="UTF-8"?>
<svg xmlns="http://www.w3.org/2000/svg" xmlns:xlink="http://www.w3.org/1999/xlink" contentScriptType="text/ecmascript" width="12" baseProfile="tiny" zoomAndPan="magnify" contentStyleType="text/css" viewBox="0 0 12 12" height="12" preserveAspectRatio="xMidYMid meet" version="1.1">
    <g transform="scale(1,1.0015)">
        <path fill="#840000" d="M 3.0 5.0 C 3.0 3.896 3.897 3.0 5.0 3.0 L 6.0 3.0 L 6.0 2.0 L 5.0 2.0 C 3.346 2.0 2.0 3.346 2.0 5.0 L 2.0 12.0 L 3.0 12.0 L 3.0 5.0 z " fill-opacity="0.4"/>
        <rect x="9" width="1" fill="#f6c8c7" y="6" height="6"/>
        <linearGradient x1="6.8115" gradientTransform="matrix(1 0 0 -1.0015 0 11.5851)" y1="9.3824" x2="9.8741" gradientUnits="userSpaceOnUse" y2="6.3198" xlink:type="simple" xlink:actuate="onLoad" id="XMLID_2_" xlink:show="other">
            <stop stop-color="#820000" offset="0"/>
            <stop stop-color="#ff8282" offset="1"/>
        </linearGradient>
        <path fill="url(#XMLID_2_)" d="M 9.121 2.879 C 8.557 2.313 7.805 2.0 7.0 2.0 L 6.0 2.0 L 6.0 3.0 L 7.0 3.0 C 7.535 3.0 8.037 3.207 8.414 3.586 C 8.792 3.964 9.0 4.467 9.0 5.0 L 9.0 6.0 L 10.0 6.0 L 10.0 5.0 C 10.0 4.199 9.688 3.445 9.121 2.879 z " fill-opacity="0.4" stroke-opacity="0.4"/>
        <path fill="#fff0f0" d="M 9.0 5.0 C 9.0 4.467 8.792 3.964 8.414 3.586 C 8.037 3.207 7.535 3.0 7.0 3.0 L 5.0 3.0 C 3.897 3.0 3.0 3.896 3.0 5.0 L 3.0 12.0 L 9.0 12.0 L 9.0 5.0 z "/>
        <rect width="12" fill="none" y="0" height="12"/>
    </g>
</svg>
