<?xml version="1.0" encoding="UTF-8"?>
<svg xmlns="http://www.w3.org/2000/svg" xmlns:xlink="http://www.w3.org/1999/xlink" contentScriptType="text/ecmascript" width="345" baseProfile="tiny" zoomAndPan="magnify" contentStyleType="text/css" viewBox="9.417 12.417 345 273" height="273" preserveAspectRatio="xMidYMid meet" version="1.1">
    <rect x="9.733" width="344.684" fill="#ffffff" y="12.631" height="272.786"/>
    <g>
        <g>
            <g>
                <g>
                    <path fill="#f66c6a" d="M 350.418 15.417 L 350.418 19.439999 C 351.625 20.352 351.043 21.786 351.043 23.416998 C 351.043 26.179998 350.178 28.416998 347.418 28.416998 C 344.654 28.416998 342.418 26.179998 342.418 23.416998 C 342.418 21.787998 343.20898 20.353998 344.416 19.440998 L 344.416 15.416998 L 332.416 15.416998 L 332.416 19.439999 C 333.623 20.352 334.418 21.786 334.418 23.416998 C 334.418 26.179998 332.178 28.416998 329.416 28.416998 C 326.65396 28.416998 324.416 26.179998 324.416 23.416998 C 324.416 21.787998 325.20898 20.353998 326.418 19.440998 L 326.418 15.416998 L 314.416 15.416998 L 314.416 19.439999 C 315.625 20.352 316.416 21.786 316.416 23.416998 C 316.416 26.179998 314.18 28.416998 311.416 28.416998 C 308.654 28.416998 306.416 26.179998 306.416 23.416998 C 306.416 21.787998 307.20898 20.353998 308.416 19.440998 L 308.416 15.416998 L 296.416 15.416998 L 296.416 19.439999 C 297.625 20.352 298.416 21.786 298.416 23.416998 C 298.416 26.179998 296.181 28.416998 293.416 28.416998 C 290.65298 28.416998 288.416 26.179998 288.416 23.416998 C 288.416 21.787998 289.20898 20.353998 290.416 19.440998 L 290.416 15.416998 L 278.416 15.416998 L 278.416 19.439999 C 279.625 20.352 280.416 21.786 280.416 23.416998 C 280.416 26.179998 278.17798 28.416998 275.416 28.416998 C 272.65298 28.416998 270.416 26.179998 270.416 23.416998 C 270.416 21.787998 271.20898 20.353998 272.416 19.440998 L 272.416 15.416998 L 260.416 15.416998 L 260.416 19.439999 C 261.623 20.352 262.416 21.786 262.416 23.416998 C 262.416 26.179998 260.17798 28.416998 257.418 28.416998 C 254.653 28.416998 252.416 26.179998 252.416 23.416998 C 252.416 21.787998 253.209 20.353998 254.416 19.440998 L 254.416 15.416998 L 242.416 15.416998 L 242.416 19.439999 C 243.623 20.352 244.416 21.786 244.416 23.416998 C 244.416 26.179998 242.179 28.416998 239.416 28.416998 C 236.653 28.416998 234.416 26.179998 234.416 23.416998 C 234.416 21.787998 235.209 20.353998 236.416 19.440998 L 236.416 15.416998 L 224.416 15.416998 L 224.416 19.439999 C 225.625 20.352 226.416 21.786 226.416 23.416998 C 226.416 26.179998 224.181 28.416998 221.416 28.416998 C 218.653 28.416998 216.416 26.179998 216.416 23.416998 C 216.416 21.787998 217.209 20.353998 218.416 19.440998 L 218.416 15.416998 L 206.416 15.416998 L 206.416 19.439999 C 207.625 20.352 208.416 21.786 208.416 23.416998 C 208.416 26.179998 206.179 28.416998 203.416 28.416998 C 200.653 28.416998 198.416 26.179998 198.416 23.416998 C 198.416 21.787998 199.211 20.353998 200.416 19.440998 L 200.416 15.416998 L 188.418 15.416998 L 188.418 19.439999 C 189.625 20.352 190.416 21.786 190.416 23.416998 C 190.416 26.179998 188.179 28.416998 185.416 28.416998 C 182.653 28.416998 180.418 26.179998 180.418 23.416998 C 180.418 21.787998 181.209 20.353998 182.416 19.440998 L 182.416 15.416998 L 170.416 15.416998 L 170.416 19.439999 C 171.623 20.352 172.417 21.786 172.417 23.416998 C 172.417 26.179998 170.17801 28.416998 167.41501 28.416998 C 164.654 28.416998 162.41602 26.179998 162.41602 23.416998 C 162.41602 21.787998 163.20901 20.353998 164.41602 19.440998 L 164.41602 15.416998 L 152.41602 15.416998 L 152.41602 19.439999 C 153.62302 20.352 154.41602 21.786 154.41602 23.416998 C 154.41602 26.179998 152.17801 28.416998 149.41602 28.416998 C 146.65402 28.416998 144.41602 26.179998 144.41602 23.416998 C 144.41602 21.787998 145.20901 20.353998 146.41602 19.440998 L 146.41602 15.416998 L 134.41602 15.416998 L 134.41602 19.439999 C 135.62401 20.352 136.41602 21.786 136.41602 23.416998 C 136.41602 26.179998 134.17902 28.416998 131.41602 28.416998 C 128.65302 28.416998 126.416016 26.179998 126.416016 23.416998 C 126.416016 21.787998 127.209015 20.353998 128.41602 19.440998 L 128.41602 15.416998 L 116.416016 15.416998 L 116.416016 19.439999 C 117.625015 20.352 118.416016 21.786 118.416016 23.416998 C 118.416016 26.179998 116.17802 28.416998 113.416016 28.416998 C 110.654015 28.416998 108.416016 26.179998 108.416016 23.416998 C 108.416016 21.787998 109.209015 20.353998 110.416016 19.440998 L 110.416016 15.416998 L 98.416016 15.416998 L 98.416016 19.439999 C 99.626015 20.352 100.417015 21.786 100.417015 23.416998 C 100.417015 26.179998 98.179016 28.416998 95.417015 28.416998 C 92.655014 28.416998 90.416016 26.179998 90.416016 23.416998 C 90.416016 21.787998 91.210014 20.353998 92.417015 19.440998 L 92.417015 15.416998 L 80.417015 15.416998 L 80.417015 19.439999 C 81.624016 20.352 82.416016 21.786 82.416016 23.416998 C 82.416016 26.179998 80.179016 28.416998 77.417015 28.416998 C 74.655014 28.416998 72.417015 26.179998 72.417015 23.416998 C 72.417015 21.787998 73.210014 20.353998 74.418015 19.440998 L 74.418015 15.416998 L 62.417 15.416998 L 62.417 19.439999 C 63.625 20.352 64.417 21.786 64.417 23.416998 C 64.417 26.179998 62.179 28.416998 59.417 28.416998 C 56.655 28.416998 54.417 26.179998 54.417 23.416998 C 54.417 21.787998 55.21 20.353998 56.417 19.440998 L 56.417 15.416998 L 44.417 15.416998 L 44.417 19.439999 C 45.625 20.352 46.417 21.786 46.417 23.416998 C 46.417 26.179998 44.18 28.416998 41.417 28.416998 C 38.654 28.416998 36.417 26.179998 36.417 23.416998 C 36.417 21.787998 37.211 20.353998 38.417 19.440998 L 38.417 15.416998 L 26.417 15.416998 L 26.417 19.439999 C 27.626 20.352 28.417 21.786 28.417 23.416998 C 28.417 26.179998 26.179 28.416998 23.417 28.416998 C 20.654999 28.416998 18.417 26.179998 18.417 23.416998 C 18.417 21.787998 19.21 20.353998 20.417 19.440998 L 20.417 15.416998 L 12.417 15.416998 L 12.417 285.417 L 354.417 285.417 L 354.417 15.416992 L 350.418 15.416992 z "/>
                    <linearGradient x1="180.4175" gradientTransform="matrix(1 0 0 -1 0 296.834)" y1="263.2354" x2="180.4175" gradientUnits="userSpaceOnUse" y2="-128.2451" xlink:type="simple" xlink:actuate="onLoad" id="XMLID_2_" xlink:show="other">
                        <stop stop-color="#fff5f5" offset="0"/>
                        <stop stop-color="#ffa29e" offset="1"/>
                    </linearGradient>
                    <path fill="url(#XMLID_2_)" d="M 347.418 12.417 L 347.418 16.439999 C 348.625 17.352 349.416 18.786 349.416 20.418999 C 349.416 23.179998 347.17798 25.418999 344.416 25.418999 C 341.654 25.418999 339.418 23.179998 339.418 20.418999 C 339.418 18.787998 340.20898 17.355 341.416 16.440998 L 341.416 12.416998 L 329.416 12.416998 L 329.416 16.439999 C 330.625 17.352 331.418 18.786 331.418 20.418999 C 331.418 23.179998 329.178 25.418999 326.418 25.418999 C 323.654 25.418999 321.416 23.179998 321.416 20.418999 C 321.416 18.787998 322.20898 17.355 323.418 16.440998 L 323.418 12.416998 L 311.416 12.416998 L 311.416 16.439999 C 312.623 17.352 313.416 18.786 313.416 20.418999 C 313.416 23.179998 311.17798 25.418999 308.416 25.418999 C 305.65298 25.418999 303.416 23.179998 303.416 20.418999 C 303.416 18.787998 304.20898 17.355 305.416 16.440998 L 305.416 12.416998 L 293.416 12.416998 L 293.416 16.439999 C 294.625 17.352 295.416 18.786 295.416 20.418999 C 295.416 23.179998 293.181 25.418999 290.416 25.418999 C 287.65298 25.418999 285.416 23.179998 285.416 20.418999 C 285.416 18.787998 286.20898 17.355 287.416 16.440998 L 287.416 12.416998 L 275.416 12.416998 L 275.416 16.439999 C 276.625 17.352 277.416 18.786 277.416 20.418999 C 277.416 23.179998 275.17798 25.418999 272.416 25.418999 C 269.65298 25.418999 267.416 23.179998 267.416 20.418999 C 267.416 18.787998 268.211 17.355 269.416 16.440998 L 269.416 12.416998 L 257.418 12.416998 L 257.418 16.439999 C 258.625 17.352 259.416 18.786 259.416 20.418999 C 259.416 23.179998 257.17798 25.418999 254.41599 25.418999 C 251.65298 25.418999 249.41798 23.179998 249.41798 20.418999 C 249.41798 18.787998 250.20898 17.355 251.41599 16.440998 L 251.41599 12.416998 L 239.41599 12.416998 L 239.41599 16.439999 C 240.62299 17.352 241.41798 18.786 241.41798 20.418999 C 241.41798 23.179998 239.17798 25.418999 236.41599 25.418999 C 233.65298 25.418999 231.41599 23.179998 231.41599 20.418999 C 231.41599 18.787998 232.20898 17.355 233.41599 16.440998 L 233.41599 12.416998 L 221.41599 12.416998 L 221.41599 16.439999 C 222.62299 17.352 223.41599 18.786 223.41599 20.418999 C 223.41599 23.179998 221.17798 25.418999 218.41599 25.418999 C 215.65298 25.418999 213.41599 23.179998 213.41599 20.418999 C 213.41599 18.787998 214.20898 17.355 215.41599 16.440998 L 215.41599 12.416998 L 203.41599 12.416998 L 203.41599 16.439999 C 204.62498 17.352 205.41599 18.786 205.41599 20.418999 C 205.41599 23.179998 203.18098 25.418999 200.41599 25.418999 C 197.65298 25.418999 195.41599 23.179998 195.41599 20.418999 C 195.41599 18.787998 196.20898 17.355 197.41599 16.440998 L 197.41599 12.416998 L 185.41599 12.416998 L 185.41599 16.439999 C 186.62498 17.352 187.41599 18.786 187.41599 20.418999 C 187.41599 23.179998 185.17798 25.418999 182.41599 25.418999 C 179.65399 25.418999 177.41599 23.179998 177.41599 20.418999 C 177.41599 18.787998 178.20898 17.355 179.41599 16.440998 L 179.41599 12.416998 L 167.41599 12.416998 L 167.41599 16.439999 C 168.62599 17.352 169.41699 18.786 169.41699 20.418999 C 169.41699 23.179998 167.17899 25.418999 164.41699 25.418999 C 161.655 25.418999 159.41599 23.179998 159.41599 20.418999 C 159.41599 18.787998 160.20999 17.355 161.41699 16.440998 L 161.41699 12.416998 L 149.41699 12.416998 L 149.41699 16.439999 C 150.624 17.352 151.41599 18.786 151.41599 20.418999 C 151.41599 23.179998 149.17899 25.418999 146.41699 25.418999 C 143.655 25.418999 141.41699 23.179998 141.41699 20.418999 C 141.41699 18.787998 142.20999 17.355 143.418 16.440998 L 143.418 12.416998 L 131.41699 12.416998 L 131.41699 16.439999 C 132.62498 17.352 133.41699 18.786 133.41699 20.418999 C 133.41699 23.179998 131.18 25.418999 128.41699 25.418999 C 125.65499 25.418999 123.41699 23.179998 123.41699 20.418999 C 123.41699 18.787998 124.20999 17.355 125.41699 16.440998 L 125.41699 12.416998 L 113.41699 12.416998 L 113.41699 16.439999 C 114.62499 17.352 115.41699 18.786 115.41699 20.418999 C 115.41699 23.179998 113.17999 25.418999 110.41699 25.418999 C 107.65399 25.418999 105.41699 23.179998 105.41699 20.418999 C 105.41699 18.787998 106.21099 17.355 107.41699 16.440998 L 107.41699 12.416998 L 95.41699 12.416998 L 95.41699 16.439999 C 96.62599 17.353998 97.41699 18.786 97.41699 20.418999 C 97.41699 23.179998 95.17899 25.418999 92.41699 25.418999 C 89.65499 25.418999 87.41699 23.179998 87.41699 20.418999 C 87.41699 18.787998 88.20999 17.355 89.41699 16.440998 L 89.41699 12.416998 L 77.41699 12.416998 L 77.41699 16.439999 C 78.62399 17.353998 79.41699 18.786 79.41699 20.418999 C 79.41699 23.179998 77.17899 25.418999 74.41799 25.418999 C 71.65499 25.418999 69.41699 23.179998 69.41699 20.418999 C 69.41699 18.787998 70.20999 17.355 71.41699 16.440998 L 71.41699 12.416998 L 59.416992 12.416998 L 59.416992 16.439999 C 60.623993 17.353998 61.416992 18.786 61.416992 20.418999 C 61.416992 23.179998 59.178993 25.418999 56.416992 25.418999 C 53.65499 25.418999 51.416992 23.179998 51.416992 20.418999 C 51.416992 18.787998 52.20999 17.355 53.416992 16.440998 L 53.416992 12.416998 L 41.416992 12.416998 L 41.416992 16.439999 C 42.624992 17.353998 43.416992 18.786 43.416992 20.418999 C 43.416992 23.179998 41.179993 25.418999 38.416992 25.418999 C 35.65399 25.418999 33.416992 23.179998 33.416992 20.418999 C 33.416992 18.787998 34.20999 17.355 35.416992 16.440998 L 35.416992 12.416998 L 23.416992 12.416998 L 23.416992 16.439999 C 24.625992 17.353998 25.416992 18.786 25.416992 20.418999 C 25.416992 23.179998 23.178993 25.418999 20.416992 25.418999 C 17.654991 25.418999 15.416992 23.179998 15.416992 20.418999 C 15.416992 18.787998 16.208992 17.355 17.416992 16.440998 L 17.416992 12.416998 L 9.416992 12.416998 L 9.416992 282.417 L 351.417 282.417 L 351.417 12.416992 L 347.418 12.416992 z "/>
                </g>
            </g>
        </g>
    </g>
</svg>
