<?xml version="1.0" encoding="UTF-8"?>
<svg xmlns="http://www.w3.org/2000/svg" xmlns:xlink="http://www.w3.org/1999/xlink" contentScriptType="text/ecmascript" width="24" baseProfile="tiny" zoomAndPan="magnify" contentStyleType="text/css" viewBox="-0.5 -0.5 24 24" height="24" preserveAspectRatio="xMidYMid meet" version="1.0">
    <path fill="#656b6b" d="M 21.5 23.5 L 21.5 21.5 C 21.5 14.882999 16.117 9.5 9.5 9.5 L -0.5 9.5 L -0.5 23.5 L 21.5 23.5 z " fill-opacity="0.01"/>
    <path fill="#656b6b" d="M 20.5 23.5 L 20.5 21.5 C 20.5 15.436 15.564 10.5 9.5 10.5 L -0.5 10.5 L -0.5 23.5 L 20.5 23.5 z " fill-opacity="0.03"/>
    <path fill="#656b6b" d="M 19.5 23.5 L 19.5 21.5 C 19.5 15.986 15.014 11.5 9.5 11.5 L -0.5 11.5 L -0.5 23.5 L 19.5 23.5 z " fill-opacity="0.04"/>
    <path fill="#656b6b" d="M 18.5 23.5 L 18.5 21.5 C 18.5 16.537 14.462999 12.5 9.5 12.5 L -0.5 12.5 L -0.5 23.5 L 18.5 23.5 z " fill-opacity="0.09"/>
    <path fill="#656b6b" d="M 17.5 23.5 L 17.5 21.5 C 17.5 17.089 13.911 13.5 9.5 13.5 L -0.5 13.5 L -0.5 23.5 L 17.5 23.5 z " fill-opacity="0.08"/>
    <path fill="#656b6b" d="M 16.5 23.5 L 16.5 21.5 C 16.5 17.641 13.359 14.5 9.5 14.5 L -0.5 14.5 L -0.5 23.5 L 16.5 23.5 z " fill-opacity="0.1"/>
    <path fill="#656b6b" d="M 15.5 23.5 L 15.5 21.5 C 15.5 18.191 12.809 15.5 9.5 15.5 L -0.5 15.5 L -0.5 23.5 L 15.5 23.5 z " fill-opacity="0.11"/>
    <path fill="#656b6b" d="M 14.5 23.5 L 14.5 21.5 C 14.5 18.737999 12.262 16.5 9.5 16.5 L -0.5 16.5 L -0.5 23.5 L 14.5 23.5 z " fill-opacity="0.1"/>
    <polygon fill="#656b6b" fill-opacity="0.03" points="14.5,23.5 14.5,12.5 13.5,12.5 -0.5,12.5 -0.5,23.5 "/>
    <linearGradient x1="6.5" y1="107" x2="6.5" gradientUnits="userSpaceOnUse" y2="18.5" xlink:type="simple" xlink:actuate="onLoad" id="_2" xlink:show="other">
        <stop stop-color="#ffbebe" offset="0"/>
        <stop stop-color="#ffffff" offset="1"/>
    </linearGradient>
    <rect x="-0.5" width="14" fill="url(#_2)" y="13.5" height="10"/>
</svg>
