<?xml version="1.0" encoding="UTF-8"?>
<svg xmlns="http://www.w3.org/2000/svg" xmlns:xlink="http://www.w3.org/1999/xlink" contentScriptType="text/ecmascript" width="24" baseProfile="tiny" zoomAndPan="magnify" contentStyleType="text/css" viewBox="-0.5 0 24 24" height="24" preserveAspectRatio="xMidYMid meet" version="1.0">
    <g stroke-opacity="0.7" fill-opacity="0.7">
        <path fill="#656b6b" d="M 23.5 11.0 L 11.5 11.0 C 6.537 11.0 2.5 15.037001 2.5 20.0 L 2.5 24.0 L 23.5 24.0 L 23.5 11.0 z " fill-opacity="0.01"/>
        <path fill="#656b6b" d="M 23.5 12.0 L 11.5 12.0 C 7.089 12.0 3.5 15.59 3.5 20.0 L 3.5 24.0 L 23.5 24.0 L 23.5 12.0 z " fill-opacity="0.03"/>
        <path fill="#656b6b" d="M 23.5 13.0 L 11.5 13.0 C 7.641 13.0 4.5 16.141 4.5 20.0 L 4.5 24.0 L 23.5 24.0 L 23.5 13.0 z " fill-opacity="0.05"/>
        <path fill="#656b6b" d="M 23.5 14.0 L 11.5 14.0 C 8.191 14.0 5.5 16.691 5.5 20.0 L 5.5 24.0 L 23.5 24.0 L 23.5 14.0 z " fill-opacity="0.07"/>
        <path fill="#656b6b" d="M 23.5 15.0 L 11.5 15.0 C 8.738 15.0 6.5 17.237999 6.5 20.0 L 6.5 24.0 L 23.5 24.0 L 23.5 15.0 z " fill-opacity="0.11"/>
        <rect x="5.5" width="18" fill="#ffffff" y="14" height="10"/>
    </g>
</svg>
