<?xml version="1.0" encoding="UTF-8"?>
<svg xmlns="http://www.w3.org/2000/svg" xmlns:xlink="http://www.w3.org/1999/xlink" contentScriptType="text/ecmascript" width="240" baseProfile="tiny" zoomAndPan="magnify" contentStyleType="text/css" viewBox="88 48.002 240 320" height="320" preserveAspectRatio="xMidYMid meet" version="1.1">
    <g>
        <rect x="88.115" y="47.721" fill="#ffffff" width="240" fill-rule="evenodd" height="320"/>
        <linearGradient x1="206.9648" y1="382.1133" x2="206.9648" gradientUnits="userSpaceOnUse" y2="56.1148" xlink:type="simple" xlink:actuate="onLoad" id="XMLID_8_" xlink:show="other">
            <stop stop-color="#ffffff" offset="0"/>
            <stop stop-color="#000000" offset="1"/>
        </linearGradient>
        <path fill="url(#XMLID_8_)" d="M 291.875 152.535 C 284.398 156.04001 280.159 165.639 280.159 165.639 C 280.159 165.639 235.41899 107.89601 182.259 64.90401 C 174.142 58.340008 166.854 52.98501 160.244 48.58201 L 87.026 48.58201 L 87.026 78.895004 C 96.313 67.644005 116.116 61.111004 144.73 75.991005 C 175.09799 91.77901 182.664 100.437004 208.746 126.51201 C 236.017 153.77101 256.974 182.09601 256.974 182.09601 C 256.974 182.09601 194.561 177.56201 163.147 168.231 C 122.535 156.169 97.658005 140.15001 87.027 120.258 L 87.027 168.199 C 95.906 173.52 106.279 178.847 118.311005 183.707 C 151.849 197.255 169.10701 199.34 197.177 204.636 C 217.048 208.384 255.794 213.317 255.794 213.317 C 255.794 213.317 253.45201 223.79001 255.964 231.299 C 258.88 240.02899 266.708 245.984 266.708 245.984 C 266.708 245.984 239.98901 232.517 224.32701 252.76399 C 217.95001 261.007 210.792 278.79898 220.38802 299.71298 C 230.43501 321.606 230.11902 320.44098 250.65001 333.61697 C 259.849 339.51697 295.88202 348.79498 305.95502 339.12796 C 302.09003 342.83795 296.057 358.89294 292.65802 368.58197 L 326.90503 368.58197 L 326.90503 243.933 C 319.71304 243.518 312.084 240.458 305.29703 234.54199 C 291.65802 222.652 299.16202 186.452 326.90503 191.234 L 326.90503 154.038 C 317.813 149.792 304.83 146.466 291.875 152.535 z M 297.671 306.793 C 296.09598 314.445 288.01898 316.373 288.01898 316.373 C 288.01898 316.373 282.572 319.115 271.89197 313.586 C 261.06696 307.98 257.81696 300.221 261.02997 291.481 C 269.77597 267.689 292.59796 284.645 292.59796 284.645 C 292.59796 284.645 299.333 298.728 297.671 306.793 z M 314.379 82.431 C 302.191 91.546 297.806 105.341995 300.561 121.238 C 302.71802 133.685 316.414 145.856 326.905 153.536 L 326.905 77.698 C 321.337 78.863 316.864 80.571 314.379 82.431 z " fill-opacity="0.05" fill-rule="evenodd" stroke-opacity="0.05"/>
        <linearGradient x1="205.9121" y1="382.1133" x2="205.9121" gradientUnits="userSpaceOnUse" y2="56.1148" xlink:type="simple" xlink:actuate="onLoad" id="XMLID_9_" xlink:show="other">
            <stop stop-color="#ffffff" offset="0"/>
            <stop stop-color="#000000" offset="1"/>
        </linearGradient>
        <path fill="url(#XMLID_9_)" d="M 290.822 153.904 C 283.345 157.40901 279.106 167.00801 279.106 167.00801 C 279.106 167.00801 234.36598 109.265015 181.206 66.27301 C 173.08899 59.70901 165.801 54.35401 159.191 49.95101 L 85.974 49.95101 L 85.974 80.26401 C 95.261 69.01301 115.063995 62.480007 143.678 77.36001 C 174.04599 93.14801 181.612 101.80601 207.694 127.88101 C 234.965 155.14001 255.922 183.46501 255.922 183.46501 C 255.922 183.46501 193.509 178.93102 162.095 169.6 C 121.483 157.53801 96.606 141.51901 85.975 121.62701 L 85.975 169.56801 C 94.854 174.889 105.227 180.216 117.259 185.076 C 150.797 198.62401 168.05501 200.709 196.125 206.005 C 215.996 209.753 254.742 214.686 254.742 214.686 C 254.742 214.686 252.40001 225.159 254.912 232.668 C 257.828 241.398 265.656 247.353 265.656 247.353 C 265.656 247.353 238.93701 233.886 223.27501 254.133 C 216.89801 262.376 209.74 280.168 219.33601 301.082 C 229.38301 322.975 229.06702 321.81 249.598 334.986 C 258.797 340.886 294.83002 350.164 304.903 340.49698 C 301.03802 344.20697 295.005 360.26196 291.60602 369.951 L 325.85303 369.951 L 325.85303 245.302 C 318.66104 244.88701 311.032 241.827 304.24503 235.911 C 290.60602 224.021 298.11002 187.821 325.85303 192.603 L 325.85303 155.407 C 316.761 151.161 303.777 147.835 290.822 153.904 z M 296.618 308.162 C 295.043 315.814 286.966 317.74197 286.966 317.74197 C 286.966 317.74197 281.519 320.48398 270.839 314.955 C 260.01398 309.349 256.76398 301.59 259.977 292.84998 C 268.723 269.05798 291.54498 286.01398 291.54498 286.01398 C 291.54498 286.01398 298.28 300.097 296.618 308.162 z M 313.326 83.8 C 301.138 92.915 296.753 106.711 299.508 122.607 C 301.665 135.054 315.361 147.225 325.852 154.905 L 325.852 79.067 C 320.284 80.232 315.812 81.94 313.326 83.8 z " fill-opacity="0.05" fill-rule="evenodd" stroke-opacity="0.05"/>
        <linearGradient x1="204.8594" y1="382.1133" x2="204.8594" gradientUnits="userSpaceOnUse" y2="56.1148" xlink:type="simple" xlink:actuate="onLoad" id="XMLID_10_" xlink:show="other">
            <stop stop-color="#ffffff" offset="0"/>
            <stop stop-color="#000000" offset="1"/>
        </linearGradient>
        <path fill="url(#XMLID_10_)" d="M 289.77 154.957 C 282.293 158.462 278.054 168.061 278.054 168.061 C 278.054 168.061 233.31398 110.31801 180.15399 67.326004 C 172.03699 60.762005 164.749 55.407005 158.13899 51.004005 L 84.921 51.004005 L 84.921 81.317 C 94.208 70.066 114.011 63.533 142.625 78.413 C 172.993 94.201004 180.55899 102.859 206.64099 128.934 C 233.91199 156.19301 254.86899 184.518 254.86899 184.518 C 254.86899 184.518 192.456 179.98401 161.04199 170.653 C 120.42999 158.591 95.55299 142.572 84.92199 122.68 L 84.92199 170.621 C 93.80099 175.942 104.17399 181.269 116.20599 186.129 C 149.74399 199.677 167.002 201.762 195.07199 207.058 C 214.943 210.806 253.689 215.739 253.689 215.739 C 253.689 215.739 251.347 226.212 253.859 233.721 C 256.775 242.45099 264.603 248.40599 264.603 248.40599 C 264.603 248.40599 237.884 234.939 222.222 255.18599 C 215.845 263.429 208.687 281.22098 218.283 302.13498 C 228.33 324.02798 228.014 322.86298 248.545 336.03897 C 257.744 341.93896 293.777 351.21698 303.85 341.54996 C 299.98502 345.25995 293.952 361.31494 290.553 371.00397 L 324.80002 371.00397 L 324.80002 246.354 C 317.60803 245.93901 309.979 242.879 303.19202 236.963 C 289.553 225.073 297.057 188.873 324.80002 193.655 L 324.80002 156.46 C 315.708 152.214 302.725 148.888 289.77 154.957 z M 295.565 309.215 C 293.99 316.867 285.913 318.79498 285.913 318.79498 C 285.913 318.79498 280.466 321.537 269.78598 316.008 C 258.96097 310.402 255.71098 302.643 258.92398 293.90298 C 267.66998 270.111 290.49197 287.067 290.49197 287.067 C 290.49197 287.067 297.228 301.149 295.565 309.215 z M 312.273 84.853 C 300.08502 93.967995 295.7 107.76399 298.45502 123.659996 C 300.61203 136.107 314.308 148.278 324.799 155.958 L 324.799 80.12 C 319.231 81.285 314.759 82.993 312.273 84.853 z " fill-opacity="0.05" fill-rule="evenodd" stroke-opacity="0.05"/>
        <linearGradient x1="203.8066" y1="382.1133" x2="203.8066" gradientUnits="userSpaceOnUse" y2="56.1148" xlink:type="simple" xlink:actuate="onLoad" id="XMLID_11_" xlink:show="other">
            <stop stop-color="#ffffff" offset="0"/>
            <stop stop-color="#000000" offset="1"/>
        </linearGradient>
        <path fill="url(#XMLID_11_)" d="M 288.717 156.115 C 281.24002 159.62001 277.001 169.21901 277.001 169.21901 C 277.001 169.21901 232.261 111.47601 179.10101 68.48401 C 170.98401 61.92001 163.69601 56.56501 157.08601 52.16201 L 83.868 52.16201 L 83.868 82.475006 C 93.155 71.22401 112.95799 64.69101 141.57199 79.57101 C 171.93999 95.35901 179.50598 104.017006 205.58798 130.09201 C 232.85898 157.35101 253.81598 185.67601 253.81598 185.67601 C 253.81598 185.67601 191.40298 181.14201 159.98898 171.811 C 119.37698 159.74901 94.499985 143.73001 83.86898 123.838005 L 83.86898 171.779 C 92.74798 177.1 103.12098 182.427 115.152985 187.287 C 148.69098 200.835 165.94899 202.92 194.01898 208.216 C 213.88998 211.964 252.63599 216.897 252.63599 216.897 C 252.63599 216.897 250.29399 227.37 252.80598 234.879 C 255.72198 243.609 263.55 249.564 263.55 249.564 C 263.55 249.564 236.831 236.097 221.16899 256.344 C 214.79199 264.587 207.63399 282.379 217.23 303.293 C 227.277 325.186 226.961 324.021 247.49199 337.197 C 256.69098 343.097 292.724 352.375 302.797 342.70798 C 298.932 346.41797 292.899 362.47296 289.5 372.162 L 323.747 372.162 L 323.747 247.513 C 316.55502 247.098 308.926 244.038 302.139 238.122 C 288.5 226.232 296.004 190.032 323.747 194.814 L 323.747 157.618 C 314.655 153.372 301.672 150.046 288.717 156.115 z M 294.513 310.373 C 292.938 318.025 284.861 319.95297 284.861 319.95297 C 284.861 319.95297 279.414 322.69498 268.73398 317.166 C 257.90897 311.56 254.65898 303.801 257.87198 295.06097 C 266.61798 271.26898 289.43997 288.22498 289.43997 288.22498 C 289.43997 288.22498 296.175 302.308 294.513 310.373 z M 311.221 86.011 C 299.03302 95.126 294.648 108.922 297.403 124.818 C 299.56003 137.265 313.256 149.436 323.747 157.116 L 323.747 81.278 C 318.179 82.443 313.706 84.151 311.221 86.011 z " fill-opacity="0.05" fill-rule="evenodd" stroke-opacity="0.05"/>
        <linearGradient x1="202.439" y1="382.1133" x2="202.4389" gradientUnits="userSpaceOnUse" y2="56.1148" xlink:type="simple" xlink:actuate="onLoad" id="XMLID_12_" xlink:show="other">
            <stop stop-color="#ffffff" offset="0"/>
            <stop stop-color="#000000" offset="1"/>
        </linearGradient>
        <path fill="url(#XMLID_12_)" d="M 287.349 156.958 C 279.872 160.463 275.633 170.062 275.633 170.062 C 275.633 170.062 230.89299 112.319 177.733 69.326996 C 169.616 62.762997 162.328 57.407997 155.718 53.004997 L 82.5 53.004997 L 82.5 83.31799 C 91.787 72.06699 111.59 65.534 140.204 80.413994 C 170.57199 96.201996 178.138 104.85999 204.22 130.935 C 231.491 158.194 252.448 186.519 252.448 186.519 C 252.448 186.519 190.035 181.985 158.621 172.65399 C 118.009 160.592 93.132 144.573 82.501 124.68099 L 82.501 172.622 C 91.38 177.943 101.753 183.26999 113.785 188.12999 C 147.323 201.678 164.58101 203.76299 192.651 209.05899 C 212.522 212.80699 251.268 217.73999 251.268 217.73999 C 251.268 217.73999 248.92601 228.21298 251.438 235.72198 C 254.354 244.45198 262.182 250.40698 262.182 250.40698 C 262.182 250.40698 235.46301 236.93999 219.80101 257.18698 C 213.42401 265.43 206.266 283.222 215.86201 304.136 C 225.90901 326.029 225.59302 324.86398 246.12401 338.03998 C 255.32301 343.93997 291.35602 353.218 301.42902 343.55096 C 297.56403 347.26096 291.531 363.31598 288.13202 373.00497 L 322.37903 373.00497 L 322.37903 248.355 C 315.18704 247.94 307.558 244.87999 300.77103 238.96399 C 287.13202 227.07399 294.63602 190.874 322.37903 195.65599 L 322.37903 158.45999 C 313.287 154.215 300.304 150.889 287.349 156.958 z M 293.145 311.216 C 291.56998 318.868 283.49298 320.796 283.49298 320.796 C 283.49298 320.796 278.046 323.538 267.36597 318.009 C 256.54095 312.403 253.29097 304.644 256.50397 295.904 C 265.24997 272.112 288.07196 289.068 288.07196 289.068 C 288.07196 289.068 294.807 303.15 293.145 311.216 z M 309.853 86.854 C 297.665 95.968994 293.28 109.765 296.035 125.660995 C 298.19202 138.108 311.888 150.27899 322.379 157.959 L 322.379 82.121 C 316.811 83.286 312.338 84.994 309.853 86.854 z " fill-opacity="0.05" fill-rule="evenodd" stroke-opacity="0.05"/>
        <g>
            <linearGradient x1="208.1152" y1="366.4463" x2="208.1152" gradientUnits="userSpaceOnUse" y2="64.4477" xlink:type="simple" xlink:actuate="onLoad" id="XMLID_13_" xlink:show="other">
                <stop stop-color="#f5f3f3" offset="0"/>
                <stop stop-color="#ffa29e" offset="1"/>
            </linearGradient>
            <path fill="url(#XMLID_13_)" d="M 306.445 233.682 C 292.806 221.792 300.31 185.59201 328.053 190.37401 L 328.053 153.17801 C 318.962 148.932 305.979 145.606 293.02402 151.675 C 285.54703 155.18001 281.308 164.779 281.308 164.779 C 281.308 164.779 236.56801 107.03601 183.40802 64.04401 C 175.29102 57.480007 168.00302 52.125008 161.39302 47.722008 L 88.176 47.722008 L 88.176 78.035 C 97.463005 66.784004 117.26601 60.251003 145.88 75.131004 C 176.248 90.91901 183.814 99.577 209.896 125.65201 C 237.16699 152.91101 258.124 181.23601 258.124 181.23601 C 258.124 181.23601 195.711 176.70201 164.297 167.371 C 123.685 155.309 98.808 139.29001 88.176994 119.398 L 88.176994 167.339 C 97.05599 172.66 107.42899 177.987 119.461 182.847 C 152.999 196.395 170.257 198.48 198.327 203.776 C 218.198 207.524 256.944 212.457 256.944 212.457 C 256.944 212.457 254.602 222.93 257.114 230.439 C 260.03 239.16899 267.858 245.124 267.858 245.124 C 267.858 245.124 241.139 231.657 225.477 251.90399 C 219.1 260.147 211.942 277.939 221.53801 298.853 C 231.585 320.746 231.26901 319.581 251.8 332.757 C 260.999 338.65698 297.032 347.935 307.105 338.26797 C 303.24002 341.97797 297.207 358.03296 293.808 367.722 L 328.05502 367.722 L 328.05502 243.072 C 320.861 242.657 313.232 239.598 306.445 233.682 z M 298.82 305.933 C 297.245 313.58502 289.168 315.513 289.168 315.513 C 289.168 315.513 283.721 318.255 273.041 312.726 C 262.21597 307.12003 258.96597 299.36102 262.179 290.621 C 270.925 266.829 293.74698 283.785 293.74698 283.785 C 293.74698 283.785 300.482 297.867 298.82 305.933 z " fill-rule="evenodd"/>
            <linearGradient x1="314.4863" y1="366.4463" x2="314.4863" gradientUnits="userSpaceOnUse" y2="64.4463" xlink:type="simple" xlink:actuate="onLoad" id="XMLID_14_" xlink:show="other">
                <stop stop-color="#f5f3f3" offset="0"/>
                <stop stop-color="#ffa29e" offset="1"/>
            </linearGradient>
            <path fill="url(#XMLID_14_)" d="M 301.71 120.377 C 303.867 132.824 317.563 144.995 328.054 152.675 L 328.054 76.838 C 322.487 78.003 318.01398 79.711 315.529 81.57 C 303.341 90.686 298.955 104.481 301.71 120.377 z " fill-rule="evenodd"/>
        </g>
    </g>
</svg>
