<?xml version="1.0" encoding="UTF-8"?>
<svg xmlns="http://www.w3.org/2000/svg" xmlns:xlink="http://www.w3.org/1999/xlink" contentScriptType="text/ecmascript" width="45.355" baseProfile="tiny" zoomAndPan="magnify" contentStyleType="text/css" viewBox="-12.673 -12.091 45.355 45.354" height="45.354" preserveAspectRatio="xMidYMid meet" version="1.1">
    <g>
        <linearGradient x1="-10.0453" gradientTransform="matrix(1 0 0 -1 0.1377 20.006)" y1="34.3096" x2="670.2633" gradientUnits="userSpaceOnUse" y2="-816.0762" xlink:type="simple" xlink:actuate="onLoad" id="XMLID_19_" xlink:show="other">
            <stop stop-color="#ffffff" offset="0"/>
            <stop stop-color="#000000" offset="1"/>
        </linearGradient>
        <polygon fill="url(#XMLID_19_)" fill-opacity="0.11" points="32.682,-5.006 32.682,-12.091 -12.673,-12.091 -12.673,33.264    -5.583,33.264 -5.583,-5.006  "/>
        <linearGradient x1="-9.6117" gradientTransform="matrix(1 0 0 -1 0.1377 20.006)" y1="34.6553" x2="670.6982" gradientUnits="userSpaceOnUse" y2="-815.7324" xlink:type="simple" xlink:actuate="onLoad" id="XMLID_20_" xlink:show="other">
            <stop stop-color="#ffffff" offset="0"/>
            <stop stop-color="#000000" offset="1"/>
        </linearGradient>
        <polygon fill="url(#XMLID_20_)" fill-opacity="0.11" points="32.682,2.079 32.682,-5.006 -5.583,-5.006 -5.583,33.264    1.501,33.264 1.501,2.079  "/>
        <polygon points="32.682,2.079 32.682,-5.006 -5.583,-5.006 -5.583,33.264 1.501,33.264 1.501,2.079  " fill-opacity="0.1"/>
        <linearGradient x1="-9.1791" gradientTransform="matrix(1 0 0 -1 0.1377 20.006)" y1="35.001" x2="671.1242" gradientUnits="userSpaceOnUse" y2="-815.3782" xlink:type="simple" xlink:actuate="onLoad" id="XMLID_21_" xlink:show="other">
            <stop stop-color="#ffffff" offset="0"/>
            <stop stop-color="#000000" offset="1"/>
        </linearGradient>
        <polygon fill="url(#XMLID_21_)" fill-opacity="0.11" points="32.682,9.164 32.682,2.079 1.501,2.079 1.501,33.264 8.586,33.264    8.586,9.164  "/>
        <polygon points="32.682,9.164 32.682,2.079 1.501,2.079 1.501,33.264 8.586,33.264 8.586,9.164  " fill-opacity="0.1"/>
        <linearGradient x1="16.9537" gradientTransform="matrix(1 0 0 -1 0.1377 20.006)" y1="17.9268" x2="16.9537" gradientUnits="userSpaceOnUse" y2="-804.0789" xlink:type="simple" xlink:actuate="onLoad" id="XMLID_22_" xlink:show="other">
            <stop stop-color="#ffffff" offset="0"/>
            <stop stop-color="#000000" offset="1"/>
        </linearGradient>
        <polygon fill="url(#XMLID_22_)" fill-opacity="0.2" points="32.682,9.164 32.682,2.079 1.501,2.079 1.501,33.264 8.586,33.264    8.586,9.164  "/>
        <linearGradient x1="-8.748" gradientTransform="matrix(1 0 0 -1 0.1377 20.006)" y1="35.3467" x2="671.5644" gradientUnits="userSpaceOnUse" y2="-815.0437" xlink:type="simple" xlink:actuate="onLoad" id="XMLID_23_" xlink:show="other">
            <stop stop-color="#ffffff" offset="0"/>
            <stop stop-color="#000000" offset="1"/>
        </linearGradient>
        <rect x="8.586" y="9.164" fill-opacity="0.11" fill="url(#XMLID_23_)" width="24.096" height="24.1"/>
        <rect x="8.586" width="24.096" y="9.164" height="24.1" fill-opacity="0.1"/>
        <linearGradient x1="20.4957" gradientTransform="matrix(1 0 0 -1 0.1377 20.006)" y1="10.8419" x2="20.4957" gradientUnits="userSpaceOnUse" y2="-796.9952" xlink:type="simple" xlink:actuate="onLoad" id="XMLID_24_" xlink:show="other">
            <stop stop-color="#ffffff" offset="0"/>
            <stop stop-color="#e0e0e0" offset="1"/>
        </linearGradient>
        <rect x="8.586" width="24.096" fill="url(#XMLID_24_)" y="9.164" height="24.1"/>
    </g>
</svg>
