<?xml version="1.0" encoding="UTF-8"?>
<svg xmlns="http://www.w3.org/2000/svg" xmlns:xlink="http://www.w3.org/1999/xlink" contentScriptType="text/ecmascript" width="330" baseProfile="tiny" zoomAndPan="magnify" contentStyleType="text/css" viewBox="0 0 330 22" height="22" preserveAspectRatio="xMidYMid meet" version="1.1">
    <g>
        <g>
            <path fill="#ffbebe" d="M 2.0 8.023 L 2.0 4.0 L 0.0 4.0 L 0.0 12.0 C 0.0 10.37 0.793 8.936 2.0 8.023 z " fill-opacity="0.6" stroke-opacity="0.6"/>
            <path fill="url(#XMLID_2_)" d="M 329.0 17.0 C 326.238 17.0 324.0 14.762 324.0 12.0 C 324.0 10.37 324.793 8.934999 326.0 8.023 L 326.0 4.0 L 314.0 4.0 L 314.0 8.021999 C 315.208 8.934999 316.0 10.369 316.0 11.999999 C 316.0 14.761999 313.762 17.0 311.0 17.0 C 308.238 17.0 306.0 14.762 306.0 12.0 C 306.0 10.37 306.793 8.934999 308.0 8.023 L 308.0 4.0 L 296.0 4.0 L 296.0 8.021999 C 297.208 8.934999 298.0 10.369 298.0 11.999999 C 298.0 14.761999 295.762 17.0 293.0 17.0 C 290.238 17.0 288.0 14.762 288.0 12.0 C 288.0 10.37 288.793 8.934999 290.0 8.023 L 290.0 4.0 L 278.0 4.0 L 278.0 8.021999 C 279.208 8.934999 280.0 10.369 280.0 11.999999 C 280.0 14.761999 277.762 17.0 275.0 17.0 C 272.238 17.0 270.0 14.762 270.0 12.0 C 270.0 10.37 270.793 8.934999 272.0 8.023 L 272.0 4.0 L 260.0 4.0 L 260.0 8.021999 C 261.208 8.934999 262.0 10.369 262.0 11.999999 C 262.0 14.761999 259.762 17.0 257.0 17.0 C 254.238 17.0 252.0 14.762 252.0 12.0 C 252.0 10.37 252.793 8.934999 254.0 8.023 L 254.0 4.0 L 242.0 4.0 L 242.0 8.021999 C 243.208 8.934999 244.0 10.369 244.0 11.999999 C 244.0 14.761999 241.762 17.0 239.0 17.0 C 236.238 17.0 234.0 14.762 234.0 12.0 C 234.0 10.37 234.793 8.934999 236.0 8.023 L 236.0 4.0 L 224.0 4.0 L 224.0 8.021999 C 225.208 8.934999 226.0 10.369 226.0 11.999999 C 226.0 14.761999 223.762 17.0 221.0 17.0 C 218.238 17.0 216.0 14.762 216.0 12.0 C 216.0 10.37 216.793 8.934999 218.0 8.023 L 218.0 4.0 L 206.0 4.0 L 206.0 8.021999 C 207.208 8.934999 208.0 10.369 208.0 11.999999 C 208.0 14.761999 205.762 17.0 203.0 17.0 C 200.238 17.0 198.0 14.762 198.0 12.0 C 198.0 10.37 198.793 8.934999 200.0 8.023 L 200.0 4.0 L 188.0 4.0 L 188.0 8.021999 C 189.208 8.934999 190.0 10.369 190.0 11.999999 C 190.0 14.761999 187.762 17.0 185.0 17.0 C 182.238 17.0 180.0 14.762 180.0 12.0 C 180.0 10.37 180.793 8.934999 182.0 8.023 L 182.0 4.0 L 170.0 4.0 L 170.0 8.021999 C 171.208 8.934999 172.0 10.369 172.0 11.999999 C 172.0 14.761999 169.762 17.0 167.0 17.0 C 164.238 17.0 162.0 14.762 162.0 12.0 C 162.0 10.37 162.793 8.934999 164.0 8.023 L 164.0 4.0 L 152.0 4.0 L 152.0 8.021999 C 153.208 8.934999 154.0 10.369 154.0 11.999999 C 154.0 14.761999 151.762 17.0 149.0 17.0 C 146.238 17.0 144.0 14.762 144.0 12.0 C 144.0 10.37 144.793 8.934999 146.0 8.023 L 146.0 4.0 L 134.0 4.0 L 134.0 8.021999 C 135.208 8.934999 136.0 10.369 136.0 11.999999 C 136.0 14.761999 133.762 17.0 131.0 17.0 C 128.238 17.0 126.0 14.762 126.0 12.0 C 126.0 10.37 126.793 8.934999 128.0 8.023 L 128.0 4.0 L 116.0 4.0 L 116.0 8.021999 C 117.208 8.934999 118.0 10.369 118.0 11.999999 C 118.0 14.761999 115.762 17.0 113.0 17.0 C 110.238 17.0 108.0 14.762 108.0 12.0 C 108.0 10.37 108.793 8.934999 110.0 8.023 L 110.0 4.0 L 98.0 4.0 L 98.0 8.021999 C 99.208 8.934999 100.0 10.369 100.0 11.999999 C 100.0 14.761999 97.762 17.0 95.0 17.0 C 92.238 17.0 90.0 14.762 90.0 12.0 C 90.0 10.37 90.793 8.934999 92.0 8.023 L 92.0 4.0 L 80.0 4.0 L 80.0 8.021999 C 81.208 8.934999 82.0 10.369 82.0 11.999999 C 82.0 14.761999 79.762 17.0 77.0 17.0 C 74.238 17.0 72.0 14.762 72.0 12.0 C 72.0 10.37 72.793 8.934999 74.0 8.023 L 74.0 4.0 L 62.0 4.0 L 62.0 8.021999 C 63.208 8.934999 64.0 10.369 64.0 11.999999 C 64.0 14.761999 61.762 17.0 59.0 17.0 C 56.238 17.0 54.0 14.762 54.0 12.0 C 54.0 10.37 54.793 8.934999 56.0 8.023 L 56.0 4.0 L 44.0 4.0 L 44.0 8.021999 C 45.208 8.934999 46.0 10.369 46.0 11.999999 C 46.0 14.761999 43.762 17.0 41.0 17.0 C 38.238 17.0 36.0 14.762 36.0 12.0 C 36.0 10.37 36.793 8.934999 38.0 8.023 L 38.0 4.0 L 26.0 4.0 L 26.0 8.021999 C 27.208 8.934999 28.0 10.369 28.0 11.999999 C 28.0 14.761999 25.762 17.0 23.0 17.0 C 20.238 17.0 18.0 14.762 18.0 12.0 C 18.0 10.37 18.793 8.934999 20.0 8.023 L 20.0 4.0 L 8.0 4.0 L 8.0 8.021999 C 9.208 8.934999 10.0 10.369 10.0 11.999999 C 10.0 14.761999 7.762 17.0 5.0 17.0 C 2.238 17.0 0.0 14.762 0.0 12.0 L 0.0 22.0 L 330.0 22.0 L 330.0 16.898 C 329.677 16.965 329.343 17.0 329.0 17.0 z " fill-opacity="0.6" stroke-opacity="0.6"/>
            <defs>
                <linearGradient x1="165.0005" y1="269.8608" x2="165.0005" gradientUnits="userSpaceOnUse" y2="21.8604" xlink:type="simple" xlink:actuate="onLoad" id="XMLID_2_" xlink:show="other">
                    <stop stop-color="#ffffff" offset="0"/>
                    <stop stop-color="#ffbebe" offset="1"/>
                </linearGradient>
            </defs>
        </g>
        <g>
            <rect width="330" fill="none" height="22"/>
        </g>
        <path fill="#ff4747" d="M 108.0 12.0 C 108.0 14.166 109.386 15.992001 111.313 16.688 C 111.122 16.159 111.0 15.595 111.0 15.0 C 111.0 13.369 111.793 11.936 113.0 11.023 L 113.0 7.0 L 110.0 7.0 L 110.0 8.023 C 108.793 8.936 108.0 10.37 108.0 12.0 z " fill-opacity="0.4" stroke-opacity="0.4"/>
        <path fill="#ff4747" d="M 162.0 12.0 C 162.0 14.166 163.386 15.992001 165.313 16.688 C 165.122 16.159 165.0 15.595 165.0 15.0 C 165.0 13.369 165.793 11.936 167.0 11.023 L 167.0 7.0 L 164.0 7.0 L 164.0 8.023 C 162.793 8.936 162.0 10.37 162.0 12.0 z " fill-opacity="0.4" stroke-opacity="0.4"/>
        <path fill="#ff4747" d="M 198.0 12.0 C 198.0 14.166 199.386 15.992001 201.313 16.688 C 201.122 16.159 201.0 15.595 201.0 15.0 C 201.0 13.369 201.793 11.936 203.0 11.023 L 203.0 7.0 L 200.0 7.0 L 200.0 8.023 C 198.793 8.936 198.0 10.37 198.0 12.0 z " fill-opacity="0.4" stroke-opacity="0.4"/>
        <path fill="#ff4747" d="M 126.0 12.0 C 126.0 14.166 127.386 15.992001 129.313 16.688 C 129.122 16.159 129.0 15.595 129.0 15.0 C 129.0 13.369 129.793 11.936 131.0 11.023 L 131.0 7.0 L 128.0 7.0 L 128.0 8.023 C 126.793 8.936 126.0 10.37 126.0 12.0 z " fill-opacity="0.4" stroke-opacity="0.4"/>
        <path fill="#ff4747" d="M 216.0 12.0 C 216.0 14.166 217.386 15.992001 219.313 16.688 C 219.122 16.159 219.0 15.595 219.0 15.0 C 219.0 13.369 219.793 11.936 221.0 11.023 L 221.0 7.0 L 218.0 7.0 L 218.0 8.023 C 216.793 8.936 216.0 10.37 216.0 12.0 z " fill-opacity="0.4" stroke-opacity="0.4"/>
        <path fill="#ff4747" d="M 144.0 12.0 C 144.0 14.166 145.386 15.992001 147.313 16.688 C 147.122 16.159 147.0 15.595 147.0 15.0 C 147.0 13.369 147.793 11.936 149.0 11.023 L 149.0 7.0 L 146.0 7.0 L 146.0 8.023 C 144.793 8.936 144.0 10.37 144.0 12.0 z " fill-opacity="0.4" stroke-opacity="0.4"/>
        <path fill="#ff4747" d="M 180.0 12.0 C 180.0 14.166 181.386 15.992001 183.313 16.688 C 183.122 16.159 183.0 15.595 183.0 15.0 C 183.0 13.369 183.793 11.936 185.0 11.023 L 185.0 7.0 L 182.0 7.0 L 182.0 8.023 C 180.793 8.936 180.0 10.37 180.0 12.0 z " fill-opacity="0.4" stroke-opacity="0.4"/>
        <path fill="#ff4747" d="M 234.0 12.0 C 234.0 14.166 235.386 15.992001 237.313 16.688 C 237.122 16.159 237.0 15.595 237.0 15.0 C 237.0 13.369 237.793 11.936 239.0 11.023 L 239.0 7.0 L 236.0 7.0 L 236.0 8.023 C 234.793 8.936 234.0 10.37 234.0 12.0 z " fill-opacity="0.4" stroke-opacity="0.4"/>
        <path fill="#ff4747" d="M 324.0 12.0 C 324.0 14.162 325.382 15.988 327.304 16.684 C 327.114 16.157 327.0 15.594 327.0 15.0 C 327.0 13.369 327.793 11.936 329.0 11.023 L 329.0 7.0 L 326.0 7.0 L 326.0 8.023 C 324.793 8.936 324.0 10.37 324.0 12.0 z " fill-opacity="0.4" stroke-opacity="0.4"/>
        <path fill="#ff4747" d="M 288.0 12.0 C 288.0 14.166 289.386 15.992001 291.313 16.688 C 291.122 16.159 291.0 15.595 291.0 15.0 C 291.0 13.369 291.793 11.936 293.0 11.023 L 293.0 7.0 L 290.0 7.0 L 290.0 8.023 C 288.793 8.936 288.0 10.37 288.0 12.0 z " fill-opacity="0.4" stroke-opacity="0.4"/>
        <path fill="#ff4747" d="M 306.0 12.0 C 306.0 14.166 307.386 15.992001 309.313 16.688 C 309.122 16.159 309.0 15.595 309.0 15.0 C 309.0 13.369 309.793 11.936 311.0 11.023 L 311.0 7.0 L 308.0 7.0 L 308.0 8.023 C 306.793 8.936 306.0 10.37 306.0 12.0 z " fill-opacity="0.4" stroke-opacity="0.4"/>
        <path fill="#ff4747" d="M 252.0 12.0 C 252.0 14.166 253.386 15.992001 255.313 16.688 C 255.122 16.159 255.0 15.595 255.0 15.0 C 255.0 13.369 255.793 11.936 257.0 11.023 L 257.0 7.0 L 254.0 7.0 L 254.0 8.023 C 252.793 8.936 252.0 10.37 252.0 12.0 z " fill-opacity="0.4" stroke-opacity="0.4"/>
        <path fill="#ff4747" d="M 270.0 12.0 C 270.0 14.166 271.386 15.992001 273.313 16.688 C 273.122 16.159 273.0 15.595 273.0 15.0 C 273.0 13.369 273.793 11.936 275.0 11.023 L 275.0 7.0 L 272.0 7.0 L 272.0 8.023 C 270.793 8.936 270.0 10.37 270.0 12.0 z " fill-opacity="0.4" stroke-opacity="0.4"/>
        <path fill="#ff4747" d="M 36.0 12.0 C 36.0 14.166 37.386 15.992001 39.313 16.688 C 39.122 16.159 39.0 15.595 39.0 15.0 C 39.0 13.369 39.793 11.936 41.0 11.023 L 41.0 7.0 L 38.0 7.0 L 38.0 8.023 C 36.793 8.936 36.0 10.37 36.0 12.0 z " fill-opacity="0.4" stroke-opacity="0.4"/>
        <path fill="#ff4747" d="M 72.0 12.0 C 72.0 14.166 73.386 15.992001 75.313 16.688 C 75.122 16.159 75.0 15.595 75.0 15.0 C 75.0 13.369 75.793 11.936 77.0 11.023 L 77.0 7.0 L 74.0 7.0 L 74.0 8.023 C 72.793 8.936 72.0 10.37 72.0 12.0 z " fill-opacity="0.4" stroke-opacity="0.4"/>
        <path fill="#ff4747" d="M 54.0 12.0 C 54.0 14.166 55.386 15.992001 57.313 16.688 C 57.122 16.159 57.0 15.595 57.0 15.0 C 57.0 13.369 57.793 11.936 59.0 11.023 L 59.0 7.0 L 56.0 7.0 L 56.0 8.023 C 54.793 8.936 54.0 10.37 54.0 12.0 z " fill-opacity="0.4" stroke-opacity="0.4"/>
        <path fill="#ff4747" d="M 3.313 16.688 C 3.122 16.159 3.0 15.595 3.0 15.0 C 3.0 13.369 3.793 11.936 5.0 11.023 L 5.0 7.0 L 2.0 7.0 L 2.0 8.023 C 0.793 8.936 0.0 10.37 0.0 12.0 C 0.0 14.167 1.386 15.993 3.313 16.688 z " fill-opacity="0.4" stroke-opacity="0.4"/>
        <path fill="#ff4747" d="M 18.0 12.0 C 18.0 14.166 19.386 15.992001 21.313 16.688 C 21.122 16.159 21.0 15.595 21.0 15.0 C 21.0 13.369 21.793 11.936 23.0 11.023 L 23.0 7.0 L 20.0 7.0 L 20.0 8.023 C 18.793 8.936 18.0 10.37 18.0 12.0 z " fill-opacity="0.4" stroke-opacity="0.4"/>
        <path fill="#ff4747" d="M 90.0 12.0 C 90.0 14.166 91.386 15.992001 93.313 16.688 C 93.122 16.159 93.0 15.595 93.0 15.0 C 93.0 13.369 93.793 11.936 95.0 11.023 L 95.0 7.0 L 92.0 7.0 L 92.0 8.023 C 90.793 8.936 90.0 10.37 90.0 12.0 z " fill-opacity="0.4" stroke-opacity="0.4"/>
    </g>
</svg>
