<?xml version="1.0" encoding="UTF-8"?>
<svg xmlns="http://www.w3.org/2000/svg" xmlns:xlink="http://www.w3.org/1999/xlink" contentScriptType="text/ecmascript" width="44" baseProfile="tiny" zoomAndPan="magnify" contentStyleType="text/css" viewBox="-1.479 0.993 44 60" height="60" preserveAspectRatio="xMidYMid meet" version="1.1">
    <g>
        <polygon fill="#656b6b" fill-opacity="0.01" points="42.521,31.993 42.521,60.993 -1.479,60.993 -1.479,0.993 5.173,0.993    40.175,31.993  "/>
        <polygon fill="#656b6b" fill-opacity="0.02" points="-1.479,60.993 -1.479,1.993 4.794,1.993 39.796,32.993 42.521,32.993    42.521,60.993  "/>
        <polygon fill="#656b6b" fill-opacity="0.03" points="-1.479,60.993 -1.479,2.993 4.415,2.993 39.417,33.993 42.521,33.993    42.521,60.993  "/>
        <polygon fill="#656b6b" fill-opacity="0.05" points="-1.479,60.993 -1.479,3.993 4.036,3.993 39.039,34.993 42.521,34.993    42.521,60.993  "/>
        <path fill="#656b6b" d="M -1.479 60.993 L -1.479 4.993 L 3.658 4.993 C 3.658 4.993 38.101 35.499 38.659 35.993 C 38.736 35.993 40.124 35.993 42.52 35.993 L 42.52 60.993 L -1.479 60.993 z " fill-opacity="0.06"/>
        <path fill="#656b6b" d="M -1.479 60.993 L -1.479 5.993 L 3.2789998 5.993 C 3.2789998 5.993 37.721 36.499 38.28 36.993 C 38.361 36.993 39.883 36.993 42.521 36.993 L 42.521 60.993 L -1.479 60.993 z " fill-opacity="0.1"/>
        <path fill="#656b6b" d="M -1.479 60.993 L -1.479 6.993 L 2.9 6.993 C 2.9 6.993 37.341003 37.499 37.9 37.993 C 37.985 37.993 39.651 37.993 42.521 37.993 L 42.521 60.993 L -1.479 60.993 z " fill-opacity="0.1"/>
        <path fill="#656b6b" d="M -1.479 60.993 L -1.479 7.993 C 1.08 7.993 2.521 7.993 2.521 7.993 L 37.521 38.993 C 38.223 38.993 39.964 38.993 42.521 38.993 L 42.521 60.993 L -1.479 60.993 z " fill-opacity="0.1"/>
        <path fill="#f6a2a0" d="M 38.278 36.993 C 38.278 36.993 3.8390007 6.488001 3.2789993 5.993 C 3.1979992 5.993 1.4889994 5.993 -1.4800005 5.993 L -1.4800005 4.993 L 3.6589994 4.993 L 38.659 35.993 L 42.519 35.993 L 42.519 36.993 L 38.278 36.993 z "/>
        <linearGradient x1="1670.7124" gradientTransform="matrix(-1 0 0 1 1691.2334 -781.9443)" y1="843.9393" x2="1670.7124" gradientUnits="userSpaceOnUse" y2="708.9407" xlink:type="simple" xlink:actuate="onLoad" id="XMLID_50_" xlink:show="other">
            <stop stop-color="#fff5f5" offset="0"/>
            <stop stop-color="#ffa29e" offset="1"/>
        </linearGradient>
        <path fill="url(#XMLID_50_)" d="M -1.479 60.993 L -1.479 5.993 C 1.4900001 5.993 3.199 5.993 3.2799997 5.993 C 3.8379998 6.488 38.279 36.993 38.279 36.993 L 42.521 36.993 L 42.521 60.993 L -1.479 60.993 z "/>
        <rect x="-1.479" width="44" fill="none" y="0.993" height="60"/>
    </g>
</svg>
