<?xml version="1.0" encoding="UTF-8"?>
<svg xmlns="http://www.w3.org/2000/svg" xmlns:xlink="http://www.w3.org/1999/xlink" contentScriptType="text/ecmascript" width="352" baseProfile="tiny" zoomAndPan="magnify" contentStyleType="text/css" viewBox="0 0 352 154" height="154" preserveAspectRatio="xMidYMid meet" version="1.1">
    <g>
        <g>
            <path d="M 14.0 10.0 C 7.383 10.0 2.0 15.383 2.0 22.0 L 2.0 136.0 C 2.0 142.617 7.383 148.0 14.0 148.0 L 338.0 148.0 C 344.617 148.0 350.0 142.617 350.0 136.0 L 350.0 22.0 C 350.0 15.382999 344.617 10.0 338.0 10.0 L 14.0 10.0 z " fill-opacity="0.01"/>
            <path d="M 14.0 11.0 C 7.935 11.0 3.0 15.935 3.0 22.0 L 3.0 136.0 C 3.0 142.066 7.935 147.0 14.0 147.0 L 338.0 147.0 C 344.065 147.0 349.0 142.066 349.0 136.0 L 349.0 22.0 C 349.0 15.934999 344.065 11.0 338.0 11.0 L 14.0 11.0 z " fill-opacity="0.03"/>
            <path d="M 14.0 12.0 C 8.486 12.0 4.0 16.486 4.0 22.0 L 4.0 136.0 C 4.0 141.514 8.486 146.0 14.0 146.0 L 338.0 146.0 C 343.514 146.0 348.0 141.514 348.0 136.0 L 348.0 22.0 C 348.0 16.486 343.514 12.0 338.0 12.0 L 14.0 12.0 z " fill-opacity="0.04"/>
            <path d="M 14.0 13.0 C 9.037001 13.0 5.0 17.037 5.0 22.0 L 5.0 136.0 C 5.0 140.963 9.037001 145.0 14.0 145.0 L 338.0 145.0 C 342.963 145.0 347.0 140.963 347.0 136.0 L 347.0 22.0 C 347.0 17.037 342.963 13.0 338.0 13.0 L 14.0 13.0 z " fill-opacity="0.06"/>
            <path d="M 14.0 14.0 C 9.589001 14.0 6.0 17.589 6.0 22.0 L 6.0 136.0 C 6.0 140.412 9.589 144.0 14.0 144.0 L 338.0 144.0 C 342.411 144.0 346.0 140.412 346.0 136.0 L 346.0 22.0 C 346.0 17.589 342.411 14.0 338.0 14.0 L 14.0 14.0 z " fill-opacity="0.08"/>
            <path d="M 14.0 15.0 C 10.141 15.0 7.0 18.141 7.0 22.0 L 7.0 136.0 C 7.0 139.859 10.141 143.0 14.0 143.0 L 338.0 143.0 C 341.859 143.0 345.0 139.859 345.0 136.0 L 345.0 22.0 C 345.0 18.141 341.859 15.0 338.0 15.0 L 14.0 15.0 z " fill-opacity="0.1"/>
            <path d="M 14.0 16.0 C 10.691 16.0 8.0 18.691 8.0 22.0 L 8.0 136.0 C 8.0 139.309 10.691 142.0 14.0 142.0 L 338.0 142.0 C 341.309 142.0 344.0 139.309 344.0 136.0 L 344.0 22.0 C 344.0 18.691 341.309 16.0 338.0 16.0 L 14.0 16.0 z " fill-opacity="0.11"/>
            <path d="M 343.0 136.0 C 343.0 138.762 340.762 141.0 338.0 141.0 L 14.0 141.0 C 11.238 141.0 9.0 138.762 9.0 136.0 L 9.0 22.0 C 9.0 19.238 11.238 17.0 14.0 17.0 L 338.0 17.0 C 340.762 17.0 343.0 19.238 343.0 22.0 L 343.0 136.0 z " fill-opacity="0.1"/>
            <polygon points="342,13 5,13 5,141 343,141 343,13   " fill-opacity="0.03"/>
            <linearGradient x1="173.9995" y1="17.5" x2="173.9995" gradientUnits="userSpaceOnUse" y2="135.5" xlink:type="simple" xlink:actuate="onLoad" id="XMLID_2_" xlink:show="other">
                <stop stop-color="#ffffff" offset="0"/>
                <stop stop-color="#ffe7e6" offset="1"/>
            </linearGradient>
            <rect x="6" width="336" fill="url(#XMLID_2_)" y="14" height="126"/>
            <rect width="352" fill="none" height="154"/>
        </g>
    </g>
</svg>
