<?xml version="1.0" encoding="UTF-8"?>
<!DOCTYPE svg PUBLIC "-//W3C//DTD SVG 1.1 Tiny//EN" "http://www.w3.org/Graphics/SVG/1.1/DTD/svg11-tiny.dtd">
<svg baseProfile="tiny" version="1.1" xmlns="http://www.w3.org/2000/svg" xmlns:xlink="http://www.w3.org/1999/xlink" width="44" height="32" viewBox="-1.479 0.993 44 32">
<g>
<path fill="#656B6B" fill-opacity="0.01" d="M42.521,31.993h-16.5l-1.279-0.057C11.591,31.316,1.189,20.897,0.566,7.702 L0.521,6.764V0.993h42V31.993z"/>
<path fill="#656B6B" fill-opacity="0.02" d="M42.521,30.993h-16.5l-1.223-0.055C12.161,30.343,2.165,20.332,1.566,7.654 l0.011-0.002C1.571,7.617,1.521,6.715,1.521,6.715V0.993h41V30.993z"/>
<path fill="#656B6B" fill-opacity="0.03" d="M42.521,29.993h-16.5l-1.163-0.053C12.731,29.368,3.141,19.767,2.566,7.605 L2.521,6.669V0.993h40V29.993z"/>
<path fill="#656B6B" fill-opacity="0.05" d="M42.521,28.993h-16.5l-1.104-0.051C13.302,28.394,4.116,19.201,3.566,7.559 l0.019-0.004c-0.008-0.049-0.064-0.93-0.064-0.93V0.993h39V28.993z"/>
<path fill="#656B6B" fill-opacity="0.06" d="M42.521,27.993h-16.5l-1.044-0.049C13.872,27.42,5.091,18.636,4.566,7.512L4.55,7.266 L4.521,6.581V0.993h38V27.993z"/>
<path fill="#656B6B" fill-opacity="0.1" d="M42.521,26.993h-16.5l-0.984-0.047c-10.592-0.5-18.969-8.876-19.47-19.481L5.521,6.537 V0.993h37V26.993z"/>
<path fill="#656B6B" fill-opacity="0.1" d="M42.521,25.993h-16.5l-0.924-0.045C15.009,25.472,7.042,17.505,6.566,7.417 c0,0.003-0.046-0.924-0.046-0.924v-5.5h36V25.993z"/>
<path fill="#656B6B" fill-opacity="0.1" d="M42.521,24.993h-16.5c-0.296,0-0.584-0.031-0.877-0.045 C15.644,24.5,8.014,16.87,7.565,7.37C7.55,7.077,7.521,6.789,7.521,6.493v-5.5h35V24.993z"/>
<path fill="#FFFFFF" fill-opacity="0.8" d="M42.521,23.993h-16.5c-9.665,0-17.5-7.835-17.5-17.5v-5.5h34V23.993z"/>
<rect x="-1.479" y="0.993" fill="none" width="44" height="32"/>
</g>
</svg>
