<?xml version="1.0" encoding="UTF-8"?>
<!DOCTYPE svg PUBLIC "-//W3C//DTD SVG 1.1 Tiny//EN" "http://www.w3.org/Graphics/SVG/1.1/DTD/svg11-tiny.dtd">
<svg xmlns="http://www.w3.org/2000/svg" xmlns:xlink="http://www.w3.org/1999/xlink" baseProfile="tiny" height="100" preserveAspectRatio="xMidYMid meet" version="1.1" viewBox="0 0 39.535 100" width="39.535" zoomAndPan="magnify">
<g>
<g>
<g>
<path d="M27.953,16.584l-0.758,0.095l0,0l-0.276,0.035c-0.717,0.088-1.698,0.21-2.847,0.572     c-4.197,1.388-8.119,5.373-10.507,10.665c-3.536,7.627-5.333,17.407-5.333,29.051c0,17.016,4.579,27.586,11.948,27.586     c3.548,0,6.505-2.523,8.548-7.297c1.795-4.189,2.744-9.811,2.744-16.259c0-6.171-0.933-11.473-2.69-15.334     c-1.813-3.972-4.443-6.16-7.408-6.16c-1.325,0-2.582,0.468-3.75,1.292c1.539-6.673,4.01-10.757,7.396-12.088     c0.92-0.319,1.688-0.48,2.317-0.48h1.75V16.441L27.953,16.584z M16.533,55.248c0.729-2.948,1.978-4.682,3.409-4.682     c0.969,0,1.691,0.684,2.271,2.146c0.764,1.928,1.167,4.996,1.167,8.879c0,7.322-1.203,11.871-3.141,11.871     c-2.369,0-3.869-5.918-3.916-15.439C16.326,56.545,16.475,55.52,16.533,55.248z" fill="#F64B47"/>
<path d="M27.337,25.512c-0.774,0-1.669,0.188-2.741,0.563c-6.442,2.531-9.007,12.652-9.961,22.024h0.178     c1.491-3.468,3.638-5.811,6.561-5.811c4.892,0,8.351,7.123,8.351,18.745c0,11.525-3.342,20.806-9.542,20.806     c-6.798,0-10.198-10.778-10.198-24.836c0-11.809,1.969-20.899,5.01-27.46c2.326-5.154,6.021-8.434,9.423-9.559     c1.192-0.375,2.207-0.469,2.922-0.563L27.337,25.512L27.337,25.512z M20.24,76.215c2.564,0,4.891-4.029,4.891-14.621     c0-9.184-2.087-13.776-5.188-13.776c-1.968,0-3.937,1.968-5.07,6.56c-0.119,0.563-0.298,1.875-0.298,3.656     c0.06,12.464,2.445,18.182,5.606,18.182L20.24,76.215L20.24,76.215z" fill="#FFE769"/>
</g>
</g>
</g>
</svg>
