<?xml version="1.0" encoding="UTF-8"?>
<svg xmlns="http://www.w3.org/2000/svg" xmlns:xlink="http://www.w3.org/1999/xlink" contentScriptType="text/ecmascript" width="24" baseProfile="tiny" zoomAndPan="magnify" contentStyleType="text/css" viewBox="-0.5 0 24 24" height="24" preserveAspectRatio="xMidYMid meet" version="1.0">
    <g stroke-opacity="0.7" fill-opacity="0.7">
        <path fill="#656b6b" d="M 18.5 24.0 L 18.5 20.0 C 18.5 15.037001 14.462999 11.0 9.5 11.0 L -0.5 11.0 L -0.5 24.0 L 18.5 24.0 z " fill-opacity="0.01"/>
        <path fill="#656b6b" d="M 17.5 24.0 L 17.5 20.0 C 17.5 15.59 13.911 12.0 9.5 12.0 L -0.5 12.0 L -0.5 24.0 L 17.5 24.0 z " fill-opacity="0.03"/>
        <path fill="#656b6b" d="M 16.5 24.0 L 16.5 20.0 C 16.5 16.141 13.359 13.0 9.5 13.0 L -0.5 13.0 L -0.5 24.0 L 16.5 24.0 z " fill-opacity="0.05"/>
        <path fill="#656b6b" d="M 15.5 24.0 L 15.5 20.0 C 15.5 16.691 12.809 14.0 9.5 14.0 L -0.5 14.0 L -0.5 24.0 L 15.5 24.0 z " fill-opacity="0.07"/>
        <path fill="#656b6b" d="M 14.5 24.0 L 14.5 20.0 C 14.5 17.237999 12.262 15.0 9.5 15.0 L -0.5 15.0 L -0.5 24.0 L 14.5 24.0 z " fill-opacity="0.11"/>
        <rect x="-0.5" width="14" fill="#ffffff" y="14" height="10"/>
    </g>
</svg>
