<?xml version="1.0" encoding="UTF-8"?>
<svg xmlns="http://www.w3.org/2000/svg" xmlns:xlink="http://www.w3.org/1999/xlink" contentScriptType="text/ecmascript" zoomAndPan="magnify" baseProfile="tiny" contentStyleType="text/css" version="1.1" width="13.99px" preserveAspectRatio="xMidYMid meet" viewBox="0 0 13.99 100" height="100px" x="0px" y="0px">
    <g>
        <g>
            <path fill="#f64b47" d="M 6.131 47.095 C 5.638 47.095 5.1800003 47.293003 4.809 47.668003 C 4.428 48.06 4.227 48.558002 4.227 49.112003 L 4.227 53.016003 C 4.227 53.556004 4.426 54.049004 4.8 54.439003 C 5.1670003 54.828003 5.629 55.032 6.132 55.032 L 9.7630005 55.032 C 10.27 55.032 10.727 54.825 11.1 54.435 C 11.47 54.047 11.669001 53.556 11.669001 53.014 L 11.669001 49.11 C 11.669001 48.555 11.468 48.059002 11.089001 47.671 C 10.714001 47.292 10.258 47.094 9.765 47.094 L 6.131 47.095 L 6.131 47.095 z M 6.131 68.774 C 5.611 68.774 5.144 68.984 4.778 69.380005 C 4.416 69.77601 4.226 70.26301 4.226 70.79101 L 4.226 74.69401 C 4.226 75.23401 4.4249997 75.726006 4.799 76.11801 C 5.1629996 76.50401 5.6239996 76.71101 6.1309996 76.71101 L 9.761999 76.71101 C 10.268999 76.71101 10.732999 76.50401 11.100999 76.113014 C 11.470999 75.722015 11.667999 75.23101 11.667999 74.694016 L 11.667999 70.791016 C 11.667999 70.25601 11.471 69.764015 11.100999 69.37002 C 10.723999 68.97702 10.261999 68.77202 9.761999 68.77202 L 6.131 68.774 L 6.131 68.774 z "/>
        </g>
    </g>
    <path fill="#ffe769" d="M 6.131 54.044 C 5.873 54.044 5.645 53.940998 5.448 53.733997 C 5.25 53.525997 5.153 53.287 5.153 53.016 L 5.153 49.112 C 5.153 48.829998 5.25 48.588 5.447 48.384 C 5.644 48.184998 5.872 48.082 6.13 48.082 L 9.761 48.082 C 10.018 48.082 10.2439995 48.185 10.443 48.384 C 10.639999 48.586998 10.738 48.829 10.738 49.112 L 10.738 53.016 C 10.738 53.286 10.64 53.525997 10.443 53.733997 C 10.245 53.940998 10.018 54.044 9.761 54.044 L 6.131 54.044 L 6.131 54.044 z M 6.131 75.724 C 5.873 75.724 5.645 75.621 5.448 75.414 C 5.25 75.206 5.153 74.967 5.153 74.695 L 5.153 70.792 C 5.153 70.520996 5.249 70.278 5.439 70.073 C 5.6280003 69.865 5.859 69.762 6.131 69.762 L 9.762 69.762 C 10.019 69.762 10.246 69.865 10.443 70.073 C 10.641 70.278 10.738 70.516 10.738 70.792 L 10.738 74.695 C 10.738 74.966 10.641 75.206 10.443 75.414 C 10.247 75.621 10.019 75.724 9.762 75.724 L 6.131 75.724 z "/>
    <rect x="0.019" width="13.953" fill="none" height="100" display="none"/>
</svg>
