<?xml version="1.0" encoding="UTF-8"?>
<svg xmlns="http://www.w3.org/2000/svg" xmlns:xlink="http://www.w3.org/1999/xlink" contentScriptType="text/ecmascript" width="8" baseProfile="tiny" zoomAndPan="magnify" contentStyleType="text/css" viewBox="-0.166 0.495 8 146" height="146" preserveAspectRatio="xMidYMid meet" version="1.0">
    <path fill="#656b6b" d="M -0.166 0.495 L -0.166 146.495 L 7.775 146.495 C 7.811 146.16699 7.834 145.833 7.834 145.495 L 7.834 1.4949951 C 7.834 1.156995 7.8120003 0.8249951 7.775 0.49499512 L -0.166 0.49499512 z " fill-opacity="0.01"/>
    <path fill="#656b6b" d="M -0.166 146.495 L 6.7650003 146.495 C 6.806 146.16699 6.834 145.83499 6.834 145.495 L 6.834 1.4949951 C 6.834 1.1549951 6.806 0.8229951 6.7650003 0.49499512 L -0.16599989 0.49499512 L -0.16599989 146.495 z " fill-opacity="0.02"/>
    <path fill="#656b6b" d="M -0.166 146.495 L 5.754 146.495 C 5.801 146.16899 5.834 145.83699 5.834 145.495 L 5.834 1.4949951 C 5.834 1.1549951 5.801 0.8229951 5.754 0.49499512 L -0.16599989 0.49499512 L -0.16599989 146.495 z " fill-opacity="0.04"/>
    <path fill="#656b6b" d="M -0.166 146.495 L 4.744 146.495 C 4.799 146.16899 4.834 145.83699 4.834 145.495 L 4.834 1.4949951 C 4.834 1.1529951 4.7990003 0.8209951 4.744 0.49499512 L -0.16599989 0.49499512 L -0.16599989 146.495 z " fill-opacity="0.07"/>
    <path fill="#656b6b" d="M -0.166 146.495 L 3.732 146.495 C 3.798 146.17299 3.834 145.83899 3.834 145.495 L 3.834 1.4949951 C 3.834 1.1529951 3.799 0.8189951 3.732 0.49499512 L -0.16599989 0.49499512 L -0.16599989 146.495 z " fill-opacity="0.11"/>
    <path fill="#656b6b" d="M -0.166 146.495 L 2.6910002 146.495 C 2.7750003 146.17499 2.834 145.843 2.834 145.495 L 2.834 1.4949951 C 2.834 1.1469951 2.775 0.81699514 2.691 0.49499512 L -0.16600013 0.49499512 L -0.16600013 146.495 z " fill-opacity="0.13"/>
    <path fill="#656b6b" d="M -0.166 146.495 L 1.65 146.495 C 1.7609999 146.181 1.834 145.849 1.834 145.495 L 1.834 1.4949951 C 1.834 1.1429951 1.762 0.8089951 1.65 0.49499512 L -0.16600001 0.49499512 L -0.16600001 146.495 z " fill-opacity="0.1"/>
    <rect x="-0.166" y="0.495" fill-opacity="0.02" fill="#656b6b" width="3" height="146"/>
    <linearGradient x1="72.31" y1="140.98" x2="-106.69" gradientUnits="userSpaceOnUse" y2="-28.02" xlink:type="simple" xlink:actuate="onLoad" id="_2" xlink:show="other">
        <stop stop-color="#ffe4e1" offset="0"/>
        <stop stop-color="#ffe4e1" offset="0.24"/>
        <stop stop-color="#ffffff" offset="1"/>
    </linearGradient>
    <rect x="-0.166" width="2" fill="url(#_2)" y="0.495" height="146"/>
</svg>
