<?xml version="1.0" encoding="UTF-8"?>
<svg xmlns="http://www.w3.org/2000/svg" xmlns:xlink="http://www.w3.org/1999/xlink" contentScriptType="text/ecmascript" width="8" baseProfile="tiny" zoomAndPan="magnify" contentStyleType="text/css" viewBox="-0.5 0.5 8 8" height="8" preserveAspectRatio="xMidYMid meet" version="1.0">
    <path fill="#656b6b" d="M -0.5 8.5 C 3.911 8.5 7.5 4.9110003 7.5 0.5 L -0.5 0.5 L -0.5 8.5 z " fill-opacity="0.01"/>
    <path fill="#656b6b" d="M -0.5 7.5 C 3.359 7.5 6.5 4.359 6.5 0.5 L -0.5 0.5 L -0.5 7.5 z " fill-opacity="0.02"/>
    <path fill="#656b6b" d="M -0.5 6.5 C 2.809 6.5 5.5 3.809 5.5 0.5 L -0.5 0.5 L -0.5 6.5 z " fill-opacity="0.04"/>
    <path fill="#656b6b" d="M -0.5 5.5 C 2.257 5.5 4.5 3.257 4.5 0.5 L -0.5 0.5 L -0.5 5.5 z " fill-opacity="0.07"/>
    <path fill="#656b6b" d="M -0.5 4.5 C 1.706 4.5 3.5 2.706 3.5 0.5 L -0.5 0.5 L -0.5 4.5 z " fill-opacity="0.11"/>
    <path fill="#656b6b" d="M -0.5 3.5 C 1.157 3.5 2.5 2.157 2.5 0.5 L -0.5 0.5 L -0.5 3.5 z " fill-opacity="0.13"/>
    <rect x="-0.5" y="0.5" fill-opacity="0.1" fill="#656b6b" width="3" height="3"/>
    <rect x="-0.5" width="2" fill="#ffffff" y="0.5" height="2"/>
    <linearGradient x1="-154.07" y1="-152.57" x2="0.93" gradientUnits="userSpaceOnUse" y2="1.93" xlink:type="simple" xlink:actuate="onLoad" id="_3" xlink:show="other">
        <stop stop-color="#f4b9ba" offset="0"/>
        <stop stop-color="#ff5656" offset="1"/>
    </linearGradient>
    <rect x="-0.5" width="2" fill="url(#_3)" y="0.5" height="2"/>
    <linearGradient x1="78.71" y1="89.81" x2="-201.79" gradientUnits="userSpaceOnUse" y2="-226.69" xlink:type="simple" xlink:actuate="onLoad" id="_4" xlink:show="other">
        <stop stop-color="#f4b9ba" offset="0"/>
        <stop stop-color="#eef4f9" offset="0.62"/>
        <stop stop-color="#ffffff" offset="1"/>
    </linearGradient>
    <rect x="-0.5" width="1" fill="url(#_4)" y="0.5" height="1"/>
</svg>
