<?xml version="1.0" encoding="UTF-8"?>
<svg xmlns="http://www.w3.org/2000/svg" xmlns:xlink="http://www.w3.org/1999/xlink" contentScriptType="text/ecmascript" width="45.354" baseProfile="tiny" zoomAndPan="magnify" contentStyleType="text/css" viewBox="-12.024 -12.26 45.354 45.354" height="45.354" preserveAspectRatio="xMidYMid meet" version="1.1">
    <linearGradient x1="-411.293" y1="-497.8833" x2="269.0219" gradientUnits="userSpaceOnUse" y2="352.5103" xlink:type="simple" xlink:actuate="onLoad" id="XMLID_8_" xlink:show="other">
        <stop stop-color="#ffffff" offset="0"/>
        <stop stop-color="#000000" offset="1"/>
    </linearGradient>
    <polygon fill="url(#XMLID_8_)" fill-opacity="0.11" stroke-opacity="0.11" points="33.33,26.004 -4.934,26.004 -4.934,-12.26 -12.024,-12.26 -12.024,33.094   33.33,33.094 "/>
    <linearGradient x1="-405.6729" y1="-502.3794" x2="274.642" gradientUnits="userSpaceOnUse" y2="348.0142" xlink:type="simple" xlink:actuate="onLoad" id="XMLID_9_" xlink:show="other">
        <stop stop-color="#ffffff" offset="0"/>
        <stop stop-color="#000000" offset="1"/>
    </linearGradient>
    <polygon fill="url(#XMLID_9_)" fill-opacity="0.11" stroke-opacity="0.11" points="2.151,18.914 2.151,-12.26 -4.934,-12.26 -4.934,26.004 33.33,26.004   33.33,18.914 "/>
    <polygon fill-opacity="0.1" stroke-opacity="0.1" points="2.151,18.914 2.151,-12.26 -4.934,-12.26 -4.934,26.004 33.33,26.004 33.33,18.914 "/>
    <linearGradient x1="-400.0542" y1="-506.8745" x2="280.2607" gradientUnits="userSpaceOnUse" y2="343.5191" xlink:type="simple" xlink:actuate="onLoad" id="XMLID_10_" xlink:show="other">
        <stop stop-color="#ffffff" offset="0"/>
        <stop stop-color="#000000" offset="1"/>
    </linearGradient>
    <polygon fill="url(#XMLID_10_)" fill-opacity="0.11" stroke-opacity="0.11" points="9.236,11.825 9.236,-12.26 2.151,-12.26 2.151,18.914 33.33,18.914   33.33,11.825 "/>
    <polygon fill-opacity="0.1" stroke-opacity="0.1" points="9.236,11.825 9.236,-12.26 2.151,-12.26 2.151,18.914 33.33,18.914 33.33,11.825 "/>
    <linearGradient x1="17.7402" y1="-803.1299" x2="17.7402" gradientUnits="userSpaceOnUse" y2="18.9146" xlink:type="simple" xlink:actuate="onLoad" id="XMLID_11_" xlink:show="other">
        <stop stop-color="#ffffff" offset="0"/>
        <stop stop-color="#e0c4bd" offset="0.11"/>
        <stop stop-color="#c26e45" offset="0.35"/>
        <stop stop-color="#cf4530" offset="0.48"/>
        <stop stop-color="#ad0000" offset="0.7"/>
        <stop stop-color="#9c0000" offset="0.75"/>
        <stop stop-color="#990000" offset="0.82"/>
        <stop stop-color="#8a0000" offset="0.91"/>
        <stop stop-color="#730303" offset="0.99"/>
        <stop stop-color="#730303" offset="1"/>
    </linearGradient>
    <polygon fill="url(#XMLID_11_)" fill-opacity="0.34" stroke-opacity="0.34" points="9.236,11.825 9.236,-12.26 2.151,-12.26 2.151,18.914 33.33,18.914   33.33,11.825 "/>
    <linearGradient x1="-390.291" y1="-514.6851" x2="290.0238" gradientUnits="userSpaceOnUse" y2="335.7085" xlink:type="simple" xlink:actuate="onLoad" id="XMLID_12_" xlink:show="other">
        <stop stop-color="#ffffff" offset="0"/>
        <stop stop-color="#000000" offset="1"/>
    </linearGradient>
    <rect x="9.236" y="-12.26" fill-opacity="0.11" fill="url(#XMLID_12_)" width="24.094" height="24.084" stroke-opacity="0.11"/>
    <rect x="9.236" y="-12.26" fill-opacity="0.1" width="24.094" height="24.084" stroke-opacity="0.1"/>
    <linearGradient x1="21.2832" y1="-803.1299" x2="21.2832" gradientUnits="userSpaceOnUse" y2="18.9146" xlink:type="simple" xlink:actuate="onLoad" id="XMLID_13_" xlink:show="other">
        <stop stop-color="#ffffff" offset="0"/>
        <stop stop-color="#e0c4bd" offset="0.11"/>
        <stop stop-color="#c26e45" offset="0.35"/>
        <stop stop-color="#cf4530" offset="0.48"/>
        <stop stop-color="#ad0000" offset="0.7"/>
        <stop stop-color="#9c0000" offset="0.75"/>
        <stop stop-color="#990000" offset="0.82"/>
        <stop stop-color="#8a0000" offset="0.91"/>
        <stop stop-color="#730303" offset="0.99"/>
        <stop stop-color="#730303" offset="1"/>
    </linearGradient>
    <rect x="9.236" y="-12.26" fill-opacity="0.34" fill="url(#XMLID_13_)" width="24.094" height="24.084" stroke-opacity="0.34"/>
    <linearGradient x1="21.2832" y1="-796.0449" x2="21.2832" gradientUnits="userSpaceOnUse" y2="11.8246" xlink:type="simple" xlink:actuate="onLoad" id="XMLID_14_" xlink:show="other">
        <stop stop-color="#ffffff" offset="0"/>
        <stop stop-color="#ffe7e6" offset="1"/>
    </linearGradient>
    <rect x="9.236" width="24.094" fill="url(#XMLID_14_)" y="-12.26" height="24.084"/>
</svg>
