<?xml version="1.0" encoding="UTF-8"?>
<!DOCTYPE svg PUBLIC "-//W3C//DTD SVG 1.1 Tiny//EN" "http://www.w3.org/Graphics/SVG/1.1/DTD/svg11-tiny.dtd">
<svg baseProfile="tiny" version="1.1" xmlns="http://www.w3.org/2000/svg" xmlns:xlink="http://www.w3.org/1999/xlink" width="44" height="60" viewBox="-1.479 0.993 44 60">
<g>
<path fill="#656B6B" fill-opacity="0.01" d="M0.521,60.993V22.855l0.059-1.274c0.6-12.358,9.987-20.266,24.498-20.588h17.443v60 H0.521z"/>
<path fill="#656B6B" fill-opacity="0.02" d="M1.521,60.993V22.855l0.057-1.215C2.149,9.85,11.163,2.305,25.099,1.993h17.422v59 H1.521z"/>
<path fill="#656B6B" fill-opacity="0.03" d="M2.521,60.993V22.855l0.055-1.154C3.12,10.477,11.759,3.29,25.122,2.993h17.398v58 H2.521z"/>
<path fill="#656B6B" fill-opacity="0.05" d="M3.521,60.993V22.855l0.052-1.094C4.091,11.105,12.356,4.278,25.144,3.993h17.377v57 H3.521z"/>
<path fill="#656B6B" fill-opacity="0.06" d="M4.521,60.993V22.855l0.05-1.032c0.491-10.091,8.384-16.56,20.597-16.83h17.354v56 H4.521z"/>
<path fill="#656B6B" fill-opacity="0.1" d="M5.521,60.993V22.855l0.048-0.973c0.464-9.522,7.981-15.63,19.62-15.89h17.332v55H5.521 z"/>
<path fill="#656B6B" fill-opacity="0.1" d="M6.521,60.993V22.855l0.046-0.909c0.437-8.964,7.58-14.707,18.644-14.953h17.311v54 H6.521z"/>
<path fill="#656B6B" fill-opacity="0.1" d="M7.521,60.993V22.855c0-0.299,0.031-0.574,0.045-0.862 c0.453-9.313,8.129-13.787,17.668-14c0.059-0.001,6.792-0.002,17.287-0.002v53.002H7.521z"/>
<path fill="#FFFFFF" fill-opacity="0.8" d="M8.521,60.993v-38.5c0-9.665,7.834-17.5,17.5-17.5h16.5v56H8.521z"/>
<rect x="-1.479" y="0.993" fill="none" width="44" height="60"/>
</g>
</svg>
