<?xml version="1.0" encoding="UTF-8"?>
<svg xmlns="http://www.w3.org/2000/svg" xmlns:xlink="http://www.w3.org/1999/xlink" contentScriptType="text/ecmascript" width="8" baseProfile="tiny" zoomAndPan="magnify" contentStyleType="text/css" viewBox="-0.166 0.495 8 8" height="8" preserveAspectRatio="xMidYMid meet" version="1.0">
    <path fill="#656b6b" d="M 7.834 8.437 L 7.834 0.495 L -0.106999874 0.495 C 0.355 4.661 3.67 7.974 7.834 8.437 z " fill-opacity="0.01"/>
    <path fill="#656b6b" d="M 0.903 0.495 C 1.357 4.106 4.222 6.974 7.834 7.427 L 7.834 0.495 L 0.903 0.495 z " fill-opacity="0.02"/>
    <path fill="#656b6b" d="M 1.914 0.495 C 2.354 3.554 4.775 5.975 7.834 6.415 L 7.834 0.4949999 L 1.914 0.4949999 z " fill-opacity="0.04"/>
    <path fill="#656b6b" d="M 2.924 0.495 C 3.348 3.0029998 5.326 4.981 7.8339996 5.4049997 L 7.8339996 0.4949999 L 2.924 0.4949999 z " fill-opacity="0.07"/>
    <path fill="#656b6b" d="M 3.936 0.495 C 4.334 2.4520001 5.8780003 3.995 7.834 4.393 L 7.834 0.495 L 3.936 0.495 z " fill-opacity="0.11"/>
    <path fill="#656b6b" d="M 4.977 0.495 C 5.34 1.895 6.4360003 2.9889998 7.8340006 3.354 L 7.8340006 0.495 L 4.977 0.495 z " fill-opacity="0.13"/>
    <path fill="#656b6b" d="M 6.018 0.495 C 6.32 1.345 6.987 2.0110002 7.834 2.3109999 L 7.834 0.495 L 6.018 0.495 z " fill-opacity="0.1"/>
    <rect x="2.834" y="0.495" fill-opacity="0.02" fill="#656b6b" width="5" height="3"/>
    <linearGradient x1="124.43" y1="113.47" x2="-54.57" gradientUnits="userSpaceOnUse" y2="-55.53" xlink:type="simple" xlink:actuate="onLoad" id="_2" xlink:show="other">
        <stop stop-color="#ffe4e1" offset="0"/>
        <stop stop-color="#ffe4e1" offset="0.24"/>
        <stop stop-color="#ffffff" offset="1"/>
    </linearGradient>
    <rect x="3.834" width="4" fill="url(#_2)" y="0.495" height="2"/>
</svg>
