<?xml version="1.0" encoding="UTF-8"?>
<svg xmlns="http://www.w3.org/2000/svg" xmlns:xlink="http://www.w3.org/1999/xlink" contentScriptType="text/ecmascript" width="12" baseProfile="tiny" zoomAndPan="magnify" contentStyleType="text/css" viewBox="0 0 12 12" height="12" preserveAspectRatio="xMidYMid meet" version="1.1">
    <g transform="scale(1,1.0015)">
        <path fill="#840000" d="M 2.0 7.0 C 2.0 8.654 3.346 10.0 5.0 10.0 L 7.0 10.0 C 8.654 10.0 10.0 8.653 10.0 7.0 L 10.0 0.0 L 2.0 0.0 L 2.0 7.0 z " fill-opacity="0.4"/>
        <path fill="#f6a2a0" d="M 6.0 9.0 L 7.0 9.0 C 7.534 9.0 8.037 8.791 8.414 8.414 C 8.792 8.037 9.0 7.534 9.0 7.0 L 9.0 0.0 L 6.0 0.0 L 6.0 9.0 z "/>
        <linearGradient x1="3.7949" gradientTransform="matrix(1 0 0 -1.0015 0 11.5851)" y1="5.3704" x2="5.9198" gradientUnits="userSpaceOnUse" y2="3.2454" xlink:type="simple" xlink:actuate="onLoad" id="XMLID_2_" xlink:show="other">
            <stop stop-color="#ffffff" offset="0"/>
            <stop stop-color="#ffa29e" offset="1"/>
        </linearGradient>
        <path fill="url(#XMLID_2_)" d="M 6.0 9.0 L 5.0 9.0 C 4.466 9.0 3.963 8.791 3.586 8.414 C 3.208 8.037 3.0 7.534 3.0 7.0 L 3.0 6.0 L 6.0 6.0 L 6.0 9.0 z "/>
        <rect x="3" width="3" fill="#ffffff" y="0" height="6"/>
        <path fill="#f6c8c7" d="M 4.0 7.0 C 4.0 7.553 4.447 8.0 5.0 8.0 L 7.0 8.0 C 7.553 8.0 8.0 7.553 8.0 7.0 L 8.0 0.0 L 4.0 0.0 L 4.0 7.0 z "/>
        <rect width="12" fill="none" y="0" height="12"/>
    </g>
</svg>
