<?xml version="1.0" encoding="UTF-8"?>
<svg xmlns="http://www.w3.org/2000/svg" xmlns:xlink="http://www.w3.org/1999/xlink" contentScriptType="text/ecmascript" width="8" baseProfile="tiny" zoomAndPan="magnify" contentStyleType="text/css" viewBox="-0.5 0.5 8 8" height="8" preserveAspectRatio="xMidYMid meet" version="1.0">
    <path fill="#656b6b" d="M -0.5 0.5 C -0.5 4.911 3.089 8.5 7.5 8.5 L 7.5 0.5 L -0.5 0.5 z " fill-opacity="0.01"/>
    <path fill="#656b6b" d="M 0.5 0.5 C 0.5 4.359 3.641 7.5 7.5 7.5 L 7.5 0.5 L 0.5 0.5 z " fill-opacity="0.02"/>
    <path fill="#656b6b" d="M 1.5 0.5 C 1.5 3.809 4.191 6.5 7.5 6.5 L 7.5 0.5 L 1.5 0.5 z " fill-opacity="0.04"/>
    <path fill="#656b6b" d="M 2.5 0.5 C 2.5 3.257 4.743 5.5 7.5 5.5 L 7.5 0.5 L 2.5 0.5 z " fill-opacity="0.07"/>
    <path fill="#656b6b" d="M 3.5 0.5 C 3.5 2.706 5.295 4.5 7.5 4.5 L 7.5 0.5 L 3.5 0.5 z " fill-opacity="0.11"/>
    <path fill="#656b6b" d="M 4.5 0.5 C 4.5 2.157 5.844 3.5 7.5 3.5 L 7.5 0.5 L 4.5 0.5 z " fill-opacity="0.13"/>
    <rect x="2.5" y="0.5" fill-opacity="0.1" fill="#656b6b" width="5" height="3"/>
    <rect x="3.5" width="4" fill="#ffffff" y="0.5" height="2"/>
    <linearGradient x1="-20.91" y1="-25.32" x2="134.09" gradientUnits="userSpaceOnUse" y2="129.18" xlink:type="simple" xlink:actuate="onLoad" id="_3" xlink:show="other">
        <stop stop-color="#f4b9ba" offset="0"/>
        <stop stop-color="#ff5656" offset="1"/>
    </linearGradient>
    <rect x="4.5" width="3" fill="url(#_3)" y="0.5" height="2"/>
    <linearGradient x1="196.73" y1="215.65" x2="-83.77" gradientUnits="userSpaceOnUse" y2="-100.85" xlink:type="simple" xlink:actuate="onLoad" id="_4" xlink:show="other">
        <stop stop-color="#f4b9ba" offset="0"/>
        <stop stop-color="#eef4f9" offset="0.62"/>
        <stop stop-color="#ffffff" offset="1"/>
    </linearGradient>
    <rect x="5.5" width="2" fill="url(#_4)" y="0.5" height="1"/>
</svg>
