<?xml version="1.0" encoding="UTF-8"?>
<svg xmlns="http://www.w3.org/2000/svg" xmlns:xlink="http://www.w3.org/1999/xlink" contentScriptType="text/ecmascript" width="332" baseProfile="tiny" zoomAndPan="magnify" contentStyleType="text/css" viewBox="0 0 332 126" height="126" preserveAspectRatio="xMidYMid meet" version="1.1">
    <g>
        <g>
            <path d="M 23.229 10.0 C 11.522 10.0 1.998 19.465 1.998 31.1 L 1.998 97.875 C 1.997 103.996 4.268 109.637 8.387 113.758 C 12.47 117.842 17.896 120.0 24.077 119.998 C 24.077 119.998 288.10098 120.0 288.928 120.0 C 289.465 120.539 294.99802 126.0 294.99802 126.0 L 298.30502 126.0 C 303.13702 125.832 307.243 123.863 308.99203 119.408 C 321.00204 117.502 330.00003 107.093994 330.00003 94.884995 L 330.00003 31.1 C 330.00003 19.268002 320.44604 10.0 308.25003 10.0 L 23.229 10.0 z " fill-opacity="0.01"/>
            <path d="M 23.229 10.992 C 12.074 10.992 2.9979992 20.009998 2.9979992 31.092 L 2.9979992 97.867004 C 2.9969993 103.72201 5.162999 109.11101 9.094 113.04301 C 12.986 116.936005 18.167 118.992004 24.077 118.990005 C 24.077 118.990005 288.51498 118.992004 289.342 118.992004 C 289.88 119.531006 296.35 126.00001 296.35 126.00001 L 298.30002 125.990005 C 302.906 125.83 306.811 122.857 308.273 118.545006 C 320.125 116.961006 329.0 106.93001 329.0 94.87701 L 329.0 31.092 C 329.0 19.822 319.886 10.991999 308.25 10.991999 L 23.229 10.991999 z " fill-opacity="0.02"/>
            <path d="M 23.229 11.992 C 12.625 11.992 3.9979992 20.56 3.9979992 31.092 L 3.9979992 97.867004 C 3.9969993 103.455 6.058999 108.594 9.800999 112.336006 C 13.501999 116.037 18.438 117.992004 24.077 117.990005 C 24.077 117.990005 288.93 117.992004 289.75598 117.992004 C 290.29297 118.531006 296.762 124.998 296.762 124.998 L 298.29498 124.99 C 302.69897 124.838 306.37 121.859 307.525 117.679 C 319.236 116.43701 327.998 106.791 327.998 94.875 L 327.998 31.092 C 327.998 20.383 319.322 11.991999 308.248 11.991999 L 23.229 11.991999 z " fill-opacity="0.03"/>
            <path d="M 23.229 12.996 C 13.176 12.996 4.997999 21.115002 4.997999 31.096 L 4.997999 97.871 C 4.9969993 103.193 6.954999 108.08 10.507999 111.633 C 14.016999 115.14101 18.709 116.996 24.077 116.994 C 24.077 116.994 289.344 116.996 290.16998 116.996 C 290.70798 117.535 297.17398 124.0 297.17398 124.0 L 298.28897 123.994 C 302.51398 123.848 305.92197 120.865005 306.74197 116.806 C 318.15396 115.949 326.998 106.506 326.998 94.879 L 326.998 31.096 C 326.998 20.948002 318.762 12.996 308.248 12.996 L 23.229 12.996 z " fill-opacity="0.06"/>
            <path d="M 23.229 13.998 C 13.498 13.998 5.997999 21.748 5.997999 31.098 L 5.997999 97.873 C 5.9969993 102.928 7.8519993 107.564 11.214999 110.928 C 14.532 114.244 18.981 115.998 24.077 115.996 C 24.077 115.996 289.758 115.998 290.58398 115.998 C 291.12097 116.537 297.586 123.0 297.586 123.0 L 298.284 122.996 C 302.29498 122.855 305.464 119.814 305.908 115.918 C 317.04898 115.49 325.998 106.254 325.998 94.883 L 325.998 31.098 C 325.998 21.509998 318.201 13.997999 308.248 13.997999 L 23.229 13.997999 z " fill-opacity="0.05"/>
            <path d="M 308.248 14.992 L 23.229 14.992 C 13.781 14.992 6.997999 21.64 6.997999 31.092 L 6.997999 97.867004 C 6.9969993 106.992004 13.497999 114.992004 24.077 114.990005 L 290.998 114.992004 L 297.998 121.992004 C 297.998 121.992004 298.166 121.994 298.248 121.992004 C 302.007 121.859 304.998 118.787 304.998 114.992004 L 305.123 114.992004 C 315.998 114.992004 324.998 105.969 324.998 94.87701 L 324.998 31.092 C 324.998 21.641 317.248 14.992 308.248 14.992 z " fill-opacity="0.1"/>
            <path d="M 307.248 15.992 L 23.229 15.992 C 13.781 15.992 7.998 21.64 7.998 31.092 L 7.998 96.867004 C 7.997 105.867004 13.123 113.992004 25.105 113.992004 C 25.548 113.992004 290.49802 113.992004 290.49802 113.992004 L 297.49802 120.994 L 297.99802 120.994 C 301.62302 120.994 303.99802 117.994 303.99802 114.992004 C 303.99802 113.994 303.99802 113.992004 303.99802 113.992004 L 304.893 113.992004 C 315.428 113.992004 323.99802 105.41801 323.99802 94.87701 L 323.99802 31.092 C 323.998 21.641 316.248 15.992 307.248 15.992 z " fill-opacity="0.1"/>
            <path d="M 306.373 16.992 L 24.248 16.992 C 14.799999 16.992 8.997999 21.64 8.997999 31.092 L 8.997999 95.87701 C 8.996999 104.742004 12.872999 112.992004 26.123 112.992004 L 291.123 112.992004 L 298.123 119.992004 C 298.123 119.992004 298.336 119.984 298.498 119.971 C 301.42697 119.705 302.998 117.125 302.998 114.994 C 302.998 113.992004 302.998 112.992004 302.998 112.992004 L 304.89297 112.992004 C 314.87598 112.992004 322.998 104.865005 322.998 94.87701 L 322.998 31.092 C 322.998 21.641 314.998 16.992 306.373 16.992 z " fill-opacity="0.1"/>
            <linearGradient x1="163.9985" y1="15.5" x2="163.9985" gradientUnits="userSpaceOnUse" y2="115.5" xlink:type="simple" xlink:actuate="onLoad" id="XMLID_2_" xlink:show="other">
                <stop stop-color="#ffffff" offset="0"/>
                <stop stop-color="#ffe7e6" offset="1"/>
            </linearGradient>
            <path fill="url(#XMLID_2_)" d="M 23.104 111.992 L 287.999 111.992 L 297.998 121.99 L 300.0 123.992 L 301.999 123.992 L 301.999 111.992 L 304.893 111.992 C 314.341 111.992 321.999 104.34599 321.999 94.892 L 321.999 31.107 C 321.999 21.656 314.341 13.992001 304.893 13.992001 L 23.104 13.992001 C 13.657001 13.992001 5.9990005 21.656 5.9990005 31.107 L 5.9990005 94.893 C 5.998 104.346 13.656 112.004 23.104 111.992 z "/>
            <rect width="332" fill="none" height="126"/>
        </g>
    </g>
</svg>
