<?xml version="1.0" encoding="UTF-8"?>
<svg xmlns="http://www.w3.org/2000/svg" xmlns:xlink="http://www.w3.org/1999/xlink" contentScriptType="text/ecmascript" width="120" baseProfile="tiny" zoomAndPan="magnify" contentStyleType="text/css" viewBox="-11.479 0.993 120 60" height="60" preserveAspectRatio="xMidYMid meet" version="1.1">
    <g>
        <rect x="-11.479" y="0.993" fill-opacity="0.01" fill="#656b6b" width="120" height="60"/>
        <rect x="-11.479" y="1.993" fill-opacity="0.02" fill="#656b6b" width="120" height="59"/>
        <rect x="-11.479" y="2.993" fill-opacity="0.03" fill="#656b6b" width="120" height="58"/>
        <rect x="-11.479" y="3.993" fill-opacity="0.05" fill="#656b6b" width="120" height="57"/>
        <rect x="-11.479" y="4.993" fill-opacity="0.06" fill="#656b6b" width="120" height="56"/>
        <rect x="-11.479" y="5.993" fill-opacity="0.1" fill="#656b6b" width="120" height="55"/>
        <rect x="-11.479" y="6.993" fill-opacity="0.1" fill="#656b6b" width="120" height="54"/>
        <path fill="#656b6b" d="M 108.521 7.993 L 108.521 60.993 L -11.478996 60.993 L -11.478996 7.991 C 21.388 7.99 91.147 7.992 108.521 7.993 z " fill-opacity="0.1"/>
        <path fill="#f6a2a0" d="M 108.521 5.993 C 89.791 5.993 20.578003 5.993 -11.478996 5.993 L -11.478996 4.993 L 108.521 4.993 L 108.521 5.993 z "/>
        <linearGradient x1="1754.7124" gradientTransform="matrix(-1 0 0 1 1803.2334 -781.9443)" y1="843.9393" x2="1754.7124" gradientUnits="userSpaceOnUse" y2="708.9407" xlink:type="simple" xlink:actuate="onLoad" id="XMLID_48_" xlink:show="other">
            <stop stop-color="#fff5f5" offset="0"/>
            <stop stop-color="#ffa29e" offset="1"/>
        </linearGradient>
        <path fill="url(#XMLID_48_)" d="M 108.521 60.993 L -11.478996 60.993 L -11.478996 5.993 C 20.578003 5.993 89.791 5.993 108.521 5.993 L 108.521 60.993 z "/>
        <rect x="-11.479" width="120" fill="none" y="0.993" height="60"/>
    </g>
</svg>
