<?xml version="1.0" encoding="UTF-8"?>
<svg xmlns="http://www.w3.org/2000/svg" xmlns:xlink="http://www.w3.org/1999/xlink" contentScriptType="text/ecmascript" width="8" baseProfile="tiny" zoomAndPan="magnify" contentStyleType="text/css" viewBox="-0.166 0.495 8 146" height="146" preserveAspectRatio="xMidYMid meet" version="1.0">
    <path fill="#656b6b" d="M 7.834 146.495 L 7.834 0.49499512 L -0.106999874 0.49499512 C -0.14299987 0.82499516 -0.16599987 1.156995 -0.16599987 1.4949951 L -0.16599987 145.495 C -0.16599987 145.833 -0.14399987 146.16699 -0.106999874 146.495 L 7.834 146.495 z " fill-opacity="0.01"/>
    <path fill="#656b6b" d="M 7.834 0.495 L 0.903 0.495 C 0.862 0.823 0.834 1.155 0.834 1.495 L 0.834 145.495 C 0.834 145.83499 0.862 146.16699 0.903 146.495 L 7.834 146.495 L 7.834 0.495 z " fill-opacity="0.02"/>
    <path fill="#656b6b" d="M 7.834 0.495 L 1.914 0.495 C 1.867 0.823 1.834 1.155 1.834 1.495 L 1.834 145.495 C 1.834 145.83699 1.867 146.16899 1.914 146.495 L 7.834 146.495 L 7.834 0.495 z " fill-opacity="0.04"/>
    <path fill="#656b6b" d="M 7.834 0.495 L 2.9240003 0.495 C 2.8690002 0.821 2.8340003 1.153 2.8340003 1.495 L 2.8340003 145.495 C 2.8340003 145.83699 2.8690004 146.16899 2.9240003 146.495 L 7.834 146.495 L 7.834 0.495 z " fill-opacity="0.07"/>
    <path fill="#656b6b" d="M 7.834 0.495 L 3.936 0.495 C 3.8700001 0.819 3.834 1.153 3.834 1.495 L 3.834 145.495 C 3.834 145.83899 3.8690002 146.17299 3.936 146.495 L 7.834 146.495 L 7.834 0.495 z " fill-opacity="0.11"/>
    <path fill="#656b6b" d="M 7.834 0.495 L 4.977 0.495 C 4.893 0.81700003 4.834 1.1470001 4.834 1.495 L 4.834 145.495 C 4.834 145.843 4.893 146.17499 4.977 146.495 L 7.8340006 146.495 L 7.8340006 0.495 z " fill-opacity="0.13"/>
    <path fill="#656b6b" d="M 7.834 0.495 L 6.018 0.495 C 5.907 0.809 5.834 1.143 5.834 1.495 L 5.834 145.495 C 5.834 145.849 5.906 146.181 6.018 146.495 L 7.834 146.495 L 7.834 0.495 z " fill-opacity="0.1"/>
    <rect x="2.834" y="0.495" fill-opacity="0.02" fill="#656b6b" width="5" height="146"/>
    <linearGradient x1="161.37" y1="220.34" x2="-17.63" gradientUnits="userSpaceOnUse" y2="51.35" xlink:type="simple" xlink:actuate="onLoad" id="_2" xlink:show="other">
        <stop stop-color="#ffe4e1" offset="0"/>
        <stop stop-color="#ffe4e1" offset="0.24"/>
        <stop stop-color="#ffffff" offset="1"/>
    </linearGradient>
    <rect x="3.834" width="4" fill="url(#_2)" y="0.495" height="146"/>
</svg>
