<?xml version="1.0" encoding="UTF-8"?>
<svg xmlns="http://www.w3.org/2000/svg" xmlns:xlink="http://www.w3.org/1999/xlink" contentScriptType="text/ecmascript" zoomAndPan="magnify" baseProfile="tiny" contentStyleType="text/css" version="1.1" width="229px" preserveAspectRatio="xMidYMid meet" viewBox="0 0 229 242" height="242px" x="0px" y="0px">
    <linearGradient x1="171.6201" gradientTransform="matrix(1 0 0 -1 -57.48 139.9805)" y1="156.6162" x2="171.62" gradientUnits="userSpaceOnUse" y2="-348.2404" xlink:type="simple" xlink:actuate="onLoad" id="SVGID_1_" xlink:show="other">
        <stop stop-color="#fff5f5" offset="0"/>
        <stop stop-color="#ffa29e" offset="1"/>
    </linearGradient>
    <path fill="url(#SVGID_1_)" d="M 226.279 6.368 C 226.279 4.236 224.488 2.51 222.279 2.51 L 6.005 2.51 C 3.796 2.51 2.009 4.237 2.009 6.368 L 2.009 11.768 L 2.003 11.768 L 2.003 235.726 C 2.003 237.859 3.79 239.584 5.999 239.584 L 222.273 239.584 C 224.482 239.584 226.273 237.856 226.273 235.726 L 226.273 11.971 L 226.27899 11.971 L 226.27899 6.368 L 226.279 6.368 z " fill-opacity="0.8"/>
    <path fill="#9c0c00" d="M 5.998 240.085 C 3.5270002 240.08101 1.5040002 238.147 1.5020003 235.729 L 1.5020003 235.729 L 1.5020003 11.269 L 1.5090003 11.269 L 1.5090003 6.367 C 1.5110003 3.947 3.5330002 2.013 6.005 2.0090003 L 6.005 2.0090003 L 222.279 2.0090003 C 224.75201 2.0130002 226.77501 3.9450002 226.77701 6.367 L 226.77701 6.367 L 226.781 6.367 L 226.781 12.47 L 226.77101 12.47 L 226.77101 235.728 C 226.76901 238.15 224.74501 240.082 222.27301 240.084 L 222.27301 240.084 L 5.998 240.084 L 5.998 240.085 z M 2.501 235.729 C 2.5049999 237.571 4.052 239.084 5.998 239.084 L 5.998 239.084 L 222.273 239.087 C 224.22 239.084 225.769 237.56601 225.773 235.729 L 225.773 235.729 L 225.773 11.471 L 225.777 11.471 L 225.777 6.367 L 225.77899 6.367 C 225.775 4.527 224.226 3.01 222.27899 3.01 L 222.27899 3.01 L 6.005 3.01 C 4.057 3.012 2.512 4.524 2.507 6.367 L 2.507 6.367 L 2.507 12.268 L 2.501 12.268 L 2.501 235.729 L 2.501 235.729 z " fill-opacity="0.8" stroke-opacity="0.8"/>
</svg>
