<?xml version="1.0" encoding="UTF-8"?>
<svg xmlns="http://www.w3.org/2000/svg" xmlns:xlink="http://www.w3.org/1999/xlink" contentScriptType="text/ecmascript" width="88" baseProfile="tiny" zoomAndPan="magnify" contentStyleType="text/css" viewBox="0 0 88 88" height="88" preserveAspectRatio="xMidYMid meet" version="1.1">
    <g>
        <g>
            <g>
                <path fill="#ffffff" d="M 33.472 33.729 L 45.015 19.902 C 45.015 19.902 66.397 22.125 88.59 20.883001 L 85.079994 26.330002 L 87.17799 26.577002 L 87.718994 42.367 L 62.34899 89.191 L 18.746 67.686 L 17.658 59.230995 L 15.907001 55.465996 L 22.677 47.626995 L 5.134 38.855 L 4.594 31.230999 L 9.316999 23.942999 L 16.131 21.244 L 33.472 33.729 z "/>
                <g>
                    <g>
                        <g>
                            <polygon fill="#f1de84" points="46.814,23.093 85.365,33.354 60.172,74.973 19.018,57.799       "/>
                            <polygon fill="#704d18" points="85.201,33.354 60.172,74.482 60.771,84.479 85.243,41.433       "/>
                            <polygon fill="#311904" points="60.172,74.482 18.985,57.771 20.521,65.967 60.771,84.479       "/>
                            <polygon fill="#f1de84" points="17.986,56.18 45.799,21.841 85.006,28.133 58.559,67.555       "/>
                            <polygon fill="#704d18" points="85.006,28.133 58.559,67.555 58.736,70.258 84.857,30.241       "/>
                            <polygon fill="#311904" points="58.559,67.555 17.986,56.18 18.937,57.656 58.736,70.258       "/>
                            <path fill="#8e6f3a" d="M 18.499 55.965 L 45.844 21.831001 C 58.559002 23.582 85.412 23.293001 85.412 23.293001 C 80.392006 29.956001 58.670002 60.548004 58.670002 60.548004 C 49.112 63.467 25.881 57.415 18.499 55.965 z "/>
                            <path fill="#cd9f3d" d="M 82.305 27.533 C 75.053 37.677002 58.672 60.439 58.672 60.439 C 48.510002 63.346 26.461002 57.59 17.986 56.177 L 45.845 21.719997 L 82.305 27.533 z "/>
                        </g>
                        <g>
                            <path fill="#f1de84" d="M 49.583 31.854 C 52.684002 32.022 55.396 31.942 57.713 31.612 L 57.659 33.52 C 57.523 33.963 57.305 33.986 57.004 33.588 C 56.227 33.63 55.393 33.66 54.496002 33.677002 L 52.066 37.615 L 55.787003 38.385002 L 54.737003 40.085003 L 51.015003 39.317 L 48.808002 42.897003 L 51.533 43.460003 L 46.619 51.429 L 45.077 51.113 L 45.575 50.304 L 41.309002 49.426003 L 40.479 50.769 L 38.937 50.452 L 44.181 41.945 L 46.995 42.527 L 49.205997 38.945 L 45.302 38.141 L 46.349 36.44 L 50.253 37.246 L 52.461998 33.663998 C 51.107 33.649998 49.933 33.614998 48.952 33.543 L 49.583 31.854 z M 42.19 47.99 L 46.454998 48.871002 L 49.107 44.572002 L 44.838997 43.693 L 42.19 47.99 z M 59.801 43.651 L 57.979 46.607002 L 62.247 47.486004 L 61.195 49.185005 L 56.928 48.306004 L 53.893 53.232002 L 52.079002 52.857002 L 55.116 47.931004 L 50.942 47.070004 L 51.991 45.369003 L 56.165 46.232002 L 57.986 43.274002 L 53.358 42.322002 L 54.409 40.617 L 60.307 41.834 C 61.674 40.503 62.966 39.122 64.192 37.690998 L 57.839 36.381996 L 58.887 34.680996 L 62.789 35.486996 L 64.556 32.621994 L 66.282 32.977993 C 66.729996 33.137993 66.648994 33.321995 66.042 33.532993 L 64.605 35.859993 L 68.51 36.665993 L 67.459 38.366993 L 64.553 37.768993 L 65.711 38.712994 C 65.768 39.062992 65.568 39.220993 65.109 39.192993 C 64.142 40.205994 63.055 41.193993 61.848 42.15499 L 65.753 42.95699 L 64.701996 44.65899 L 59.801 43.651 z M 57.133 40.681 C 57.552998 39.555 57.802998 38.595 57.881 37.807 L 59.865 37.409 C 59.885002 38.151 59.677002 39.15 59.243 40.409 L 57.133 40.681 z "/>
                        </g>
                    </g>
                    <g>
                        <g>
                            <linearGradient x1="37.1123" y1="43.7061" x2="34.4922" gradientUnits="userSpaceOnUse" y2="50.2568" xlink:type="simple" xlink:actuate="onLoad" id="XMLID_4_" xlink:show="other">
                                <stop stop-color="#e0bc6c" offset="0"/>
                                <stop stop-color="#ad832f" offset="1"/>
                            </linearGradient>
                            <path fill="url(#XMLID_4_)" d="M 30.582 49.757 L 39.342003 50.731 L 42.378002 45.559 L 37.020004 38.572998 C 32.582 39.622 28.977 45.502 30.582 49.757 z "/>
                            <linearGradient x1="6.4023" y1="49.4238" x2="15.0488" gradientUnits="userSpaceOnUse" y2="10.6465" xlink:type="simple" xlink:actuate="onLoad" id="XMLID_5_" xlink:show="other">
                                <stop stop-color="#e0bc6c" offset="0"/>
                                <stop stop-color="#ad832f" offset="1"/>
                            </linearGradient>
                            <polygon fill="url(#XMLID_5_)" points="11.286,34.989 6.605,37.485 6.17,31.789 10.218,25.361 15.469,23.174 15.241,28.459               "/>
                            <polygon fill="#cd9f3d" points="11.286,34.989 15.241,28.459 36.952,43.139 34.175,47.695       "/>
                            <polygon fill="#eacf5a" points="15.241,28.459 15.469,23.174 37.021,38.573 36.952,43.139       "/>
                            <polygon fill="#ad832f" points="11.286,34.989 6.605,37.485 30.582,49.757 34.175,47.695       "/>
                        </g>
                        <linearGradient x1="-67.0078" gradientTransform="matrix(1.1132 -0.2284 -0.2284 -1.1132 110.3235 -13.0925)" y1="-40.2695" x2="-70.6504" gradientUnits="userSpaceOnUse" y2="-43.772" xlink:type="simple" xlink:actuate="onLoad" id="XMLID_6_" xlink:show="other">
                            <stop stop-color="#0046b7" offset="0"/>
                            <stop stop-color="#670000" offset="0.0056"/>
                            <stop stop-color="#b0381e" offset="0.4888"/>
                            <stop stop-color="#5c1001" offset="1"/>
                        </linearGradient>
                        <path fill="url(#XMLID_6_)" d="M 38.587 50.703 L 46.49 51.361 L 41.889 44.869 C 42.03 46.545 40.252 49.496 38.587 50.703 z "/>
                    </g>
                </g>
            </g>
            <g>
                <g>
                    <rect width="100" fill="none" height="100"/>
                </g>
            </g>
        </g>
    </g>
</svg>
