<?xml version="1.0" encoding="UTF-8"?>
<svg xmlns="http://www.w3.org/2000/svg" xmlns:xlink="http://www.w3.org/1999/xlink" contentScriptType="text/ecmascript" width="100" baseProfile="tiny" zoomAndPan="magnify" contentStyleType="text/css" viewBox="0 0 100 100" height="100" preserveAspectRatio="xMidYMid meet" version="1.1">
    <g>
        <path fill="#ffffff" d="M 43.398 75.113 L 68.909 87.25 L 89.493 49.75 L 88.615 45.25 L 94.243 35.75 L 91.618 34.625 C 91.618 34.625 96.36099 27.484001 97.686 18.718 C 92.5 26.137 83.361 29.736 81.868 30.375 L 74.996 12.75 L 50.993 23.084 L 44.243 21.084 L 40.325 27.168 L 35.325 29.418 L 28.92 37.190998 L 25.4 33.99 L 2.32 56.623 L 32.062 86.5 L 43.398 75.113 z "/>
        <g>
            <g>
                <g>
                    <g>
                        <g>
                            <g>
                                <g>
                                    <g>
                                        <linearGradient x1="-293.2461" gradientTransform="matrix(2.2727 0 0 2.2727 724.1748 -748.9893)" y1="337.2598" x2="-292.3289" gradientUnits="userSpaceOnUse" y2="346.3595" xlink:type="simple" xlink:actuate="onLoad" id="XMLID_11_" xlink:show="other">
                                            <stop stop-color="#e0bc6c" offset="0"/>
                                            <stop stop-color="#c1a15b" offset="1"/>
                                        </linearGradient>
                                        <polygon fill="url(#XMLID_11_)" points="72.619,14.931 37.15,30.688 34.556,35.333 83.844,49.512 85.603,46.6          "/>
                                    </g>
                                    <polygon fill="#7f3c21" points="85.7,46.838 66.244,79.396 66.301,82.419 85.269,49.548         "/>
                                    <polygon fill="#7f3c21" points="66.244,79.396 14.559,56.714 15.359,58.822 66.301,82.419         "/>
                                    <polygon fill="#f1de84" points="44.781,22.519 24.381,50.872 68.531,70.165 90.493,36.353         "/>
                                    <polygon fill="#822519" points="36.83,30.851 46.905,48.054 54.508,50.313 85.606,46.838 43.392,62.603         "/>
                                    <polygon fill="#e0bc6c" points="14.559,56.714 36.926,30.851 46.334,49.573 54.713,52.396 85.7,46.838 66.244,79.396                   "/>
                                    <linearGradient x1="39.0166" gradientTransform="matrix(1 0 0 -1 0 43)" y1="5.252" x2="28.4789" gradientUnits="userSpaceOnUse" y2="-13.6776" xlink:type="simple" xlink:actuate="onLoad" id="XMLID_12_" xlink:show="other">
                                        <stop stop-color="#9e6434" offset="0"/>
                                        <stop stop-color="#7f3c21" offset="1"/>
                                    </linearGradient>
                                    <polygon fill="url(#XMLID_12_)" points="14.559,56.714 45.094,47.149 46.334,49.573         "/>
                                    <linearGradient x1="67.3711" gradientTransform="matrix(1 0 0 -1 0 43)" y1="-10.5317" x2="56.8333" gradientUnits="userSpaceOnUse" y2="-29.4612" xlink:type="simple" xlink:actuate="onLoad" id="XMLID_13_" xlink:show="other">
                                        <stop stop-color="#9e6434" offset="0"/>
                                        <stop stop-color="#7f3c21" offset="1"/>
                                    </linearGradient>
                                    <polygon fill="url(#XMLID_13_)" points="66.229,79.456 58.626,51.719 54.713,52.396         "/>
                                </g>
                            </g>
                            <g>
                                <g>
                                    <g>
                                        <linearGradient x1="83.0303" gradientTransform="matrix(1 0 0 -1 0 43)" y1="15.8467" x2="50.5139" gradientUnits="userSpaceOnUse" y2="-34.1453" xlink:type="simple" xlink:actuate="onLoad" id="XMLID_14_" xlink:show="other">
                                            <stop stop-color="#e0bc6c" offset="0"/>
                                            <stop stop-color="#7f3c21" offset="1"/>
                                        </linearGradient>
                                        <path fill="url(#XMLID_14_)" d="M 54.508 50.313 L 82.377 47.2 C 82.377 47.2 84.251 45.481 85.173996 44.549 L 90.494995 36.354 L 85.687996 34.898 L 54.508 50.313 z "/>
                                        <linearGradient x1="67.0508" gradientTransform="matrix(1 0 0 -1 0 43)" y1="-9.6328" x2="50.0114" gradientUnits="userSpaceOnUse" y2="-14.0025" xlink:type="simple" xlink:actuate="onLoad" id="XMLID_15_" xlink:show="other">
                                            <stop stop-color="#e0bc6c" offset="0"/>
                                            <stop stop-color="#7f3c21" offset="1"/>
                                        </linearGradient>
                                        <path fill="url(#XMLID_15_)" d="M 54.451 52.173 C 54.451 52.173 35.498 58.929 35.319 59.837 C 37.688 60.242 45.624 57.462 47.821 56.613003 C 50.572 58.074 54.717 58.894 57.434 58.791004 L 54.451 52.173 z "/>
                                        <linearGradient x1="84.2803" gradientTransform="matrix(1 0 0 -1 0 43)" y1="-2.2822" x2="49.6391" gradientUnits="userSpaceOnUse" y2="-16.6376" xlink:type="simple" xlink:actuate="onLoad" id="XMLID_16_" xlink:show="other">
                                            <stop stop-color="#e0bc6c" offset="0"/>
                                            <stop stop-color="#7f3c21" offset="1"/>
                                        </linearGradient>
                                        <path fill="url(#XMLID_16_)" d="M 58.626 51.719 L 60.482 58.492 C 66.657 57.529 75.813995 53.092 82.14 47.452 L 58.626 51.719 z "/>
                                        <path fill="#7f3c21" d="M 58.626 51.719 L 54.709 52.396 L 57.435 58.792 C 58.417 58.753 59.437 58.652 60.484 58.492 L 58.626 51.719 z "/>
                                    </g>
                                </g>
                                <g>
                                    <linearGradient x1="51.6797" gradientTransform="matrix(1 0 0 -1 0 43)" y1="-15.8208" x2="90.0432" gradientUnits="userSpaceOnUse" y2="20.8745" xlink:type="simple" xlink:actuate="onLoad" id="XMLID_17_" xlink:show="other">
                                        <stop stop-color="#7f3c21" offset="0"/>
                                        <stop stop-color="#b0381e" offset="1"/>
                                    </linearGradient>
                                    <path fill="url(#XMLID_17_)" d="M 56.213 43.754 L 56.255 42.374 L 51.614002 47.183 L 51.698 45.844997 L 46.066 54.860996 C 56.356003 61.813995 81.453 52.689995 94.776 23.252996 C 89.382 32.37 56.213 43.754 56.213 43.754 z "/>
                                    <linearGradient x1="-295.752" gradientTransform="matrix(2.2727 0 0 2.2727 724.1748 -748.9893)" y1="356.9326" x2="-287.4893" gradientUnits="userSpaceOnUse" y2="346.5206" xlink:type="simple" xlink:actuate="onLoad" id="XMLID_18_" xlink:show="other">
                                        <stop stop-color="#e0bc6c" offset="0"/>
                                        <stop stop-color="#7f3c21" offset="1"/>
                                    </linearGradient>
                                    <path fill="url(#XMLID_18_)" d="M 94.838 22.944 C 84.925995 34.725 62.906998 37.914 58.059998 41.423 C 54.098 45.234 51.543 49.68 51.543 49.68 C 52.221 47.260002 54.899 44.041 56.265 42.314 C 55.369 42.905 54.536 43.521 53.764 44.165 C 51.388 47.033 49.643 50.492 49.643 50.492 C 50.146 48.858 51.035 47.057 51.718002 45.8 C 48.201004 49.196 46.227 53.427998 46.269 53.467 C 53.213 59.616 79.107 53.301 94.838 22.944 z "/>
                                    <g>
                                        <linearGradient x1="34.1025" gradientTransform="matrix(1 0 0 -1 0 43)" y1="-1.1895" x2="89.4766" gradientUnits="userSpaceOnUse" y2="-1.1895" xlink:type="simple" xlink:actuate="onLoad" id="XMLID_19_" xlink:show="other">
                                            <stop stop-color="#9e6434" offset="0"/>
                                            <stop stop-color="#7f3c21" offset="1"/>
                                        </linearGradient>
                                        <path fill="url(#XMLID_19_)" d="M 41.578 57.303 L 34.101997 59.227 C 34.101997 59.227 76.293 40.729004 89.476 29.153002 C 73.353 44.73 52.896 52.316 41.578 57.303 z "/>
                                    </g>
                                    <g>
                                        <path fill="#f1de84" d="M 40.265 56.929 C 38.207 57.704002 36.201 58.367 34.322 58.719 C 48.772 51.047 73.793 42.104004 89.477 29.153002 C 75.043 42.293 53.022 51.236 40.265 56.929 z "/>
                                    </g>
                                    <path fill="#822519" d="M 38.87 56.302 C 40.267998 55.656 41.578 57.302998 41.578 57.302998 C 41.578 57.302998 34.138 60.159996 33.697998 59.055996 C 33.698 59.056 35.98 57.64 38.87 56.302 z "/>
                                </g>
                            </g>
                        </g>
                        <g>
                            <g>
                                <path fill="#ad832f" d="M 55.262 38.19 C 54.315002 40.795998 51.291 43.052 48.510002 43.225998 C 45.730003 43.399998 44.239002 41.429996 45.193 38.822998 C 46.14 36.212997 49.158 33.958 51.943 33.78 C 54.72 33.608 56.208 35.582 55.262 38.19 z "/>
                                <path fill="#7f3c21" d="M 51.796 28.52 L 46.334 2.235 L 47.614998 1.9449999 C 48.470997 5.666 50.423996 6.9750004 52.406998 8.384 C 56.92 11.589 62.336 14.342 58.479996 26.078 L 57.564995 25.717999 C 60.220993 16.580997 56.695995 13.473998 50.064995 12.372998 L 53.612995 29.942997 L 51.796 28.52 z "/>
                                <radialGradient gradientTransform="matrix(1.5509 -0.0968 0.5223 -1.5455 807.103 451.0345)" id="XMLID_20_" gradientUnits="userSpaceOnUse" xlink:show="other" xlink:type="simple" r="3.1026" cx="-592.4858" fx="-593.1172" cy="309.5" fy="309.3477" xlink:actuate="onLoad">
                                    <stop stop-color="#e0bc6c" offset="0"/>
                                    <stop stop-color="#7f3c21" offset="1"/>
                                </radialGradient>
                                <path fill="url(#XMLID_20_)" d="M 53.383 32.087 C 52.409 34.960003 49.287 37.437 46.403 37.613003 C 43.519 37.796 41.967 35.611004 42.941 32.737003 C 43.913002 29.865004 47.038002 27.385002 49.921 27.207003 C 52.802 27.028 54.354 29.213 53.383 32.087 z "/>
                            </g>
                        </g>
                    </g>
                </g>
            </g>
        </g>
        <g>
            <g>
                <polygon fill="#f1de84" points="25.643,36.914 5.523,56.897 32.277,82.193 52.402,62.209    "/>
            </g>
        </g>
        <g>
            <path fill="#7f3c21" d="M 26.339 65.316 L 26.339 65.316 C 22.439001 64.197 20.341 58.488003 23.977001 54.802002 C 28.094002 50.634003 35.778 53.652 35.002 60.22 L 29.658998 65.638 C 32.621 70.063 42.454998 61.397 34.952 52.897 C 31.632 49.135998 25.656 49.413998 22.022999 53.099 C 16.669998 58.522 21.036 67.732 26.702 68.177 C 26.26 68.628 24.656 70.251 24.656 70.251 C 19.0 68.986 12.729 58.216 20.302 51.173 C 31.709 40.566 46.623 56.232 37.68 66.5 C 33.434 71.371 27.754 69.469 26.339 65.316 z M 28.385 63.243 C 29.368 62.243 32.475 59.096 32.475 59.096 C 32.341 56.007 28.321 54.086 25.821 56.621002 C 23.32 59.154 25.293 63.15 28.385 63.243 z "/>
        </g>
        <g>
            <g>
                <path fill="#eacf5a" d="M 25.621 35.43 L 4.396 56.508 L 32.614998 83.185 L 53.840996 62.109997 L 25.621 35.43 z M 32.629 80.584 L 7.08 56.43 L 25.609 38.028 L 51.156998 62.186 L 32.629 80.584 z "/>
            </g>
        </g>
    </g>
</svg>
